<?xml version="1.0" encoding="UTF-8"?>
<svg version="1.1" xmlns="http://www.w3.org/2000/svg" width="512" height="512">
<path d="M0 0 C1.15903839 -0.01248528 1.15903839 -0.01248528 2.3414917 -0.02522278 C4.89844792 -0.04933813 7.45514912 -0.05809668 10.01220703 -0.06469727 C11.78956174 -0.07366245 13.56691566 -0.08278427 15.3442688 -0.09205627 C19.07165359 -0.108553 22.79894849 -0.11624762 26.52636719 -0.11914062 C31.30050133 -0.12452514 36.07378961 -0.16220462 40.84768486 -0.20788479 C44.51945066 -0.23764107 48.19101243 -0.24486387 51.86288834 -0.24586678 C53.62276204 -0.25007196 55.38263618 -0.26251826 57.1423912 -0.28338432 C59.60597502 -0.31027026 62.06759393 -0.30548297 64.53125 -0.29296875 C65.25661957 -0.30780304 65.98198914 -0.32263733 66.7293396 -0.33792114 C70.60989805 -0.28184588 72.25894323 0.19722083 75.32400513 2.65635681 C79.7108661 8.26971981 78.61734335 15.08018406 78.63525391 21.875 C78.64493974 24.10056211 78.67596485 26.3251924 78.70751953 28.55053711 C78.71405225 29.97566186 78.71930167 31.40079319 78.72314453 32.82592773 C78.73249023 34.1160376 78.74183594 35.40614746 78.75146484 36.73535156 C78.36401347 40.6170305 77.46432796 43.01752083 75.39501953 46.30639648 C72.70751953 47.68139648 72.70751953 47.68139648 70.39501953 48.30639648 C75.71688059 54.63854814 81.45420136 60.52048746 87.31030273 66.35205078 C88.82993621 67.86632228 90.34414471 69.38587079 91.85791016 70.90600586 C96.5826827 75.63386832 101.36213886 80.23600228 106.44018555 84.58740234 C110.32523625 88.0037433 113.97580171 91.66164012 117.64501953 95.30639648 C118.82837891 96.45881836 118.82837891 96.45881836 120.03564453 97.63452148 C126.43268323 103.98833695 131.49474371 109.94342082 131.53546143 119.34014893 C131.54117157 120.13343094 131.54688171 120.92671295 131.55276489 121.74403381 C131.55444168 123.03608986 131.55444168 123.03608986 131.55615234 124.35424805 C131.56111725 125.26857101 131.56608215 126.18289398 131.57119751 127.12492371 C131.58579883 130.14896397 131.59261815 133.17295176 131.59814453 136.19702148 C131.60389812 138.302063 131.60965583 140.4071045 131.61541748 142.512146 C131.62592202 146.9271265 131.63176812 151.34208883 131.63525391 155.75708008 C131.64073418 161.40389531 131.66475469 167.05046888 131.69322586 172.6972084 C131.71188551 177.04675998 131.71705964 181.39625376 131.71858978 185.74584198 C131.72160986 187.82697621 131.72961652 189.90810958 131.74277496 191.98920441 C131.75990313 194.90664338 131.75793851 197.82349741 131.75146484 200.7409668 C131.76067963 201.59424057 131.76989441 202.44751434 131.77938843 203.3266449 C131.72343175 211.41056295 129.74302769 217.51905594 123.95751953 223.43139648 C115.31736771 232.64662335 113.56303325 240.04225241 112.39501953 252.30639648 C113.28189453 252.20327148 114.16876953 252.10014648 115.08251953 251.99389648 C118.39501953 252.30639648 118.39501953 252.30639648 121.27001953 254.43139648 C123.39501953 257.30639648 123.39501953 257.30639648 123.95751953 260.30639648 C123.24411129 264.11124043 122.31866543 265.75757698 119.39501953 268.30639648 C115.64501953 268.61889648 115.64501953 268.61889648 112.39501953 268.30639648 C113.64105229 278.06698641 116.82500265 284.003809 122.94580078 291.35327148 C128.88815045 298.51820984 131.51015609 303.89328176 131.54219055 313.1917572 C131.54586724 313.88429 131.54954393 314.5768228 131.55333203 315.29034144 C131.56434394 317.61072345 131.56820854 319.93106064 131.57202148 322.25146484 C131.57828827 323.9156712 131.58493526 325.57987615 131.5919342 327.24407959 C131.61296033 332.71145659 131.62333873 338.17883381 131.63330078 343.64624023 C131.63734959 345.53176958 131.64146655 347.41729878 131.64565086 349.30282784 C131.66470337 358.16670936 131.67893141 367.03058258 131.68726283 375.89448065 C131.69702047 386.10593012 131.72330117 396.31716197 131.76376373 406.52853483 C131.79400226 414.43278904 131.80873923 422.33698117 131.81204385 430.24129206 C131.8143865 434.95618098 131.82324352 439.67083744 131.84850502 444.38566399 C131.87192497 448.82872951 131.87596353 453.27141187 131.86574364 457.71452332 C131.86525145 459.33614953 131.87147725 460.95779549 131.88529968 462.57936287 C132.00225804 477.12654092 129.88397384 490.26858738 119.58251953 501.23608398 C112.34488029 508.03596279 103.88620354 512.4095841 93.90086365 512.4535675 C92.78376511 512.46072281 91.66666656 512.46787811 90.51571655 512.47525024 C88.68371201 512.4792836 88.68371201 512.4792836 86.81469727 512.48339844 C85.52480392 512.48996964 84.23491058 512.49654083 82.90592957 512.50331116 C78.63017004 512.52431412 74.35441033 512.53471305 70.07861328 512.54467773 C68.60289046 512.54872731 67.12716783 512.5528443 65.65144539 512.55702782 C58.71400976 512.57607471 51.7765847 512.59030431 44.83912796 512.59863979 C36.85139112 512.60839734 28.86393249 512.63467992 20.8762936 512.67514068 C14.69010266 512.70539213 8.50399104 512.72011735 2.31772763 512.7234208 C-1.37095973 512.72576187 -5.05934974 512.73459753 -8.74795723 512.75988197 C-12.87177882 512.78769272 -16.99498681 512.78330413 -21.11889648 512.77636719 C-22.32606323 512.78917725 -23.53322998 512.8019873 -24.77697754 512.81518555 C-36.60923752 512.74291395 -45.98452514 509.55204941 -54.60498047 501.30639648 C-62.99496994 492.36815028 -66.71634688 482.44614354 -66.74542236 470.26713562 C-66.74987905 469.22176304 -66.74987905 469.22176304 -66.75442576 468.15527183 C-66.76307863 465.82632129 -66.7646181 463.49742235 -66.76611328 461.16845703 C-66.77074383 459.49599092 -66.77576881 457.82352585 -66.78115845 456.15106201 C-66.79426066 451.61170991 -66.80072302 447.07237258 -66.80516911 442.53300452 C-66.80810304 439.6954661 -66.81220843 436.85793168 -66.81667328 434.02039528 C-66.83034178 425.13783719 -66.8400119 416.2552883 -66.84387517 407.37272042 C-66.84835602 397.12731064 -66.86590788 386.88203427 -66.89487576 376.63666505 C-66.91650473 368.71123663 -66.92658008 360.78584571 -66.92791629 352.8603881 C-66.92896334 348.129511 -66.93485009 343.39875941 -66.9527359 338.66791344 C-66.96923783 334.21668829 -66.97136181 329.76568274 -66.96259689 325.31443787 C-66.96182768 323.68426741 -66.96615389 322.05408504 -66.97605515 320.42394447 C-67.08240975 301.81703019 -67.08240975 301.81703019 -60.75732422 294.41967773 C-60.23460937 293.79125977 -59.71189453 293.1628418 -59.17333984 292.51538086 C-58.36606445 291.57662109 -58.36606445 291.57662109 -57.54248047 290.61889648 C-52.68026689 284.90102582 -49.87887587 280.48797899 -48.47998047 272.99389648 C-48.31240234 272.11088867 -48.14482422 271.22788086 -47.97216797 270.31811523 C-47.85099609 269.65424805 -47.72982422 268.99038086 -47.60498047 268.30639648 C-48.67748047 268.40952148 -49.74998047 268.51264648 -50.85498047 268.61889648 C-54.60498047 268.30639648 -54.60498047 268.30639648 -57.04248047 266.18139648 C-58.89553886 262.77176904 -59.32086435 261.12444385 -58.60498047 257.30639648 C-56.47998047 254.43139648 -56.47998047 254.43139648 -53.60498047 252.30639648 C-50.42529297 252.17358398 -50.42529297 252.17358398 -47.60498047 252.30639648 C-48.86293275 239.59445763 -50.3673998 231.58253603 -60.38623047 222.97045898 C-68.56825608 213.14626626 -67.17379065 200.88299911 -67.10107422 188.82983398 C-67.1012294 186.73336741 -67.10272147 184.63690055 -67.10548401 182.54043579 C-67.10686375 178.16118584 -67.09437888 173.78226511 -67.0715332 169.40307617 C-67.04311493 163.80345316 -67.04590128 158.2043751 -67.05862331 152.60471153 C-67.06559264 148.28086733 -67.05777742 143.95714809 -67.04536629 139.63331985 C-67.04086648 137.56895045 -67.04050206 135.50456756 -67.04443169 133.44019699 C-67.04735712 130.55205722 -67.03077446 127.66465734 -67.0090332 124.77661133 C-67.01353485 123.93276382 -67.0180365 123.08891632 -67.02267456 122.21949768 C-66.92986184 114.76149782 -65.25445779 108.42706083 -59.97998047 102.86889648 C-59.19494141 102.03874023 -58.40990234 101.20858398 -57.60107422 100.35327148 C-56.6042517 99.33580575 -55.60530683 98.32041761 -54.60498047 97.30639648 C-53.96061035 96.64833008 -53.31624023 95.99026367 -52.65234375 95.31225586 C-39.33071025 81.73800742 -39.33071025 81.73800742 -33.82373047 77.02514648 C-28.71693851 72.62070333 -23.98549999 67.83682413 -19.22973633 63.06152344 C-17.64958403 61.47593852 -16.06406071 59.89586206 -14.47802734 58.31616211 C-13.46924241 57.30671756 -12.46076709 56.29696349 -11.45263672 55.28686523 C-10.09150757 53.92404419 -10.09150757 53.92404419 -8.70288086 52.53369141 C-6.57751513 50.49123063 -6.57751513 50.49123063 -5.60498047 48.30639648 C-6.36810547 48.10014648 -7.13123047 47.89389648 -7.91748047 47.68139648 C-11.54638437 45.82474798 -12.09656289 44.05817134 -13.60498047 40.30639648 C-13.99316406 36.78295898 -13.99316406 36.78295898 -14.00341797 32.93139648 C-14.00628815 32.24384277 -14.00915833 31.55628906 -14.01211548 30.84790039 C-14.01414588 29.40241669 -14.00868798 27.95690487 -13.99609375 26.51147461 C-13.98002343 24.31227565 -13.99597529 22.11491401 -14.01513672 19.91577148 C-14.0131541 18.50430914 -14.00931004 17.09284792 -14.00341797 15.68139648 C-14.00003418 14.41038086 -13.99665039 13.13936523 -13.99316406 11.82983398 C-13.56929694 7.98250678 -12.64672738 5.5779886 -10.60498047 2.30639648 C-6.95478566 -0.12706672 -4.2219849 0.00384723 0 0 Z " fill="#FEE459" transform="translate(223.60498046875,-0.306396484375)"/>
<path d="M0 0 C65.34 0 130.68 0 198 0 C198.0825 25.141875 198.165 50.28375 198.25 76.1875 C198.28641602 84.10903076 198.32283203 92.03056152 198.36035156 100.19213867 C198.37841797 109.90881348 198.37841797 109.90881348 198.3817749 114.46601868 C198.38548269 117.63056287 198.40039654 120.79483524 198.42230225 123.95930481 C198.44996473 128.00974166 198.45792347 132.05978956 198.4522891 136.1103121 C198.45346534 137.5881111 198.46126297 139.06592525 198.47686052 140.5436424 C198.61942703 154.72181497 196.12146824 167.35343683 186.1875 177.9296875 C178.94986075 184.72956631 170.491184 189.10318762 160.50584412 189.14717102 C159.38874557 189.15432632 158.27164703 189.16148163 157.12069702 189.16885376 C155.28869247 189.17288712 155.28869247 189.17288712 153.41967773 189.17700195 C152.12978439 189.18357315 150.83989105 189.19014435 149.51091003 189.19691467 C145.23515051 189.21791763 140.95939079 189.22831656 136.68359375 189.23828125 C135.20787093 189.24233083 133.7321483 189.24644781 132.25642586 189.25063133 C125.31899022 189.26967823 118.38156517 189.28390782 111.44410843 189.2922433 C103.45637159 189.30200085 95.46891296 189.32828343 87.48127407 189.36874419 C81.29508313 189.39899565 75.10897151 189.41372087 68.92270809 189.41702431 C65.23402074 189.41936538 61.54563073 189.42820104 57.85702324 189.45348549 C53.73320165 189.48129624 49.60999366 189.47690765 45.48608398 189.4699707 C44.27891724 189.48278076 43.07175049 189.49559082 41.82800293 189.50878906 C29.99574295 189.43651746 20.62045533 186.24565292 12 178 C3.83227573 169.29854326 -0.12995727 159.45757305 -0.12025452 147.55229187 C-0.12163201 146.25233874 -0.12300951 144.95238562 -0.12442875 143.61303997 C-0.12088233 142.17391119 -0.11724444 140.73478264 -0.11352539 139.2956543 C-0.11321894 137.75315001 -0.11335274 136.21064559 -0.11389065 134.66814137 C-0.1141162 130.54126369 -0.10832464 126.41441507 -0.10128021 122.28754425 C-0.09558096 118.41357838 -0.09531685 114.53961955 -0.09460449 110.66564941 C-0.08935931 99.33959577 -0.07539814 88.01354752 -0.0625 76.6875 C-0.041875 51.380625 -0.02125 26.07375 0 0 Z " fill="#73D477" transform="translate(157,323)"/>
<path d="M0 0 C-5.59388376 6.7873671 -11.83182861 12.81490568 -18.1875 18.88476562 C-19.00476563 19.68462891 -19.82203125 20.48449219 -20.6640625 21.30859375 C-21.40092285 22.01814209 -22.1377832 22.72769043 -22.89697266 23.45874023 C-28.15665007 29.81443819 -29.59367725 35.54932968 -29.51757812 43.68554688 C-29.5245874 44.61996109 -29.53159668 45.55437531 -29.53881836 46.5171051 C-29.55632413 49.58462857 -29.5448018 52.65121827 -29.53125 55.71875 C-29.53394704 57.86291683 -29.53783122 60.00708246 -29.54284668 62.15124512 C-29.5487317 66.63659351 -29.54021071 71.12162244 -29.52148438 75.60693359 C-29.49869573 81.34346702 -29.51182412 87.07925176 -29.53577423 92.81575775 C-29.550259 97.24084061 -29.54561388 101.66574727 -29.53526306 106.09083557 C-29.53260319 108.20545033 -29.53583937 110.32008132 -29.54518127 112.43467712 C-29.55539086 115.39503078 -29.53978382 118.35418809 -29.51757812 121.31445312 C-29.52567505 122.1801442 -29.53377197 123.04583527 -29.54211426 123.9377594 C-29.42037526 132.74073892 -26.03800742 138.38647205 -19.9375 144.625 C-15.30697175 149.37390266 -11.87466421 153.46291813 -11.70703125 160.3046875 C-11.72673447 161.82840321 -11.76216318 163.35198852 -11.8125 164.875 C-11.83280273 166.050625 -11.83280273 166.050625 -11.85351562 167.25 C-11.88858211 169.16696782 -11.94237928 171.08357751 -12 173 C-11.33462377 172.9902373 -10.66924753 172.98047461 -9.98370838 172.97041607 C6.20745598 172.73459054 22.39871387 172.52666945 38.59062481 172.34978771 C46.42093181 172.2635761 54.25091098 172.16792858 62.08081055 172.05004883 C68.90548781 171.94732674 75.73011655 171.86232754 82.55527335 171.79859048 C86.16914145 171.76422364 89.78241259 171.72099811 93.39587975 171.65654564 C97.4302065 171.58491851 101.46391879 171.55286739 105.4987793 171.52416992 C106.69639893 171.4968428 107.89401855 171.46951569 109.12792969 171.44136047 C118.14327341 171.42874035 118.14327341 171.42874035 121.24617004 174.34223938 C123.41010116 177.62146886 123.72294373 179.14430012 123 183 C121.4375 185.875 121.4375 185.875 119 188 C115.25 188.3125 115.25 188.3125 112 188 C113.24603276 197.76058993 116.42998312 203.69741251 122.55078125 211.046875 C131.56204269 221.91212803 131 227.5923378 131 243 C65.66 243 0.32 243 -67 243 C-67 220.8510479 -67 220.8510479 -57.9375 210.3125 C-53.07528642 204.59462934 -50.2738954 200.1815825 -48.875 192.6875 C-48.70742187 191.80449219 -48.53984375 190.92148437 -48.3671875 190.01171875 C-48.24601562 189.34785156 -48.12484375 188.68398438 -48 188 C-49.60875 188.1546875 -49.60875 188.1546875 -51.25 188.3125 C-55 188 -55 188 -57.4375 185.875 C-59.29055839 182.46537255 -59.71588388 180.81804737 -59 177 C-56.875 174.125 -56.875 174.125 -54 172 C-50.8203125 171.8671875 -50.8203125 171.8671875 -48 172 C-49.25795228 159.28806114 -50.76241933 151.27613955 -60.78125 142.6640625 C-68.96327561 132.83986977 -67.56881018 120.57660263 -67.49609375 108.5234375 C-67.49624893 106.42697093 -67.497741 104.33050407 -67.50050354 102.23403931 C-67.50188329 97.85478936 -67.48939841 93.47586862 -67.46655273 89.09667969 C-67.43813446 83.49705667 -67.44092082 77.89797862 -67.45364285 72.29831505 C-67.46061218 67.97447085 -67.45279695 63.65075161 -67.44038582 59.32692337 C-67.43588601 57.26255396 -67.4355216 55.19817108 -67.43945122 53.13380051 C-67.44237665 50.24566074 -67.42579399 47.35826085 -67.40405273 44.47021484 C-67.40855438 43.62636734 -67.41305603 42.78251984 -67.41769409 41.9131012 C-67.30370447 32.75342401 -64.37237003 26.54735869 -57.87890625 20.07421875 C-55.57483827 17.75254413 -53.79829312 15.28789838 -51.96484375 12.58203125 C-38.83805736 -5.10269257 -19.88433846 -1.66670667 0 0 Z " fill="#FED301" transform="translate(224,80)"/>
<path d="M0 0 C22.87420887 0 45.74105585 0.02670302 68.61328125 0.21875 C71.43018872 0.24146478 74.24709969 0.26373051 77.06401062 0.28601074 C83.60057587 0.33795815 90.13712818 0.39137138 96.67367667 0.4453826 C104.14475787 0.50703906 111.61585278 0.56695279 119.08694899 0.62675762 C134.39131477 0.74930352 149.69566294 0.87391614 165 1 C164.70557234 2.89693695 164.40495976 4.79291448 164.10180664 6.68847656 C163.9350795 7.74440002 163.76835236 8.80032349 163.59657288 9.88824463 C162.7296201 14.41031574 161.20687369 18.51316761 159.4375 22.75 C159.08453857 23.60561523 158.73157715 24.46123047 158.36791992 25.34277344 C143.16232977 61.31183603 114.35553824 86.67017597 78.81738281 101.85742188 C53.09565378 112.28876433 27.65027676 116.46387351 0 118 C0 79.06 0 40.12 0 0 Z " fill="#00C43B" transform="translate(157,323)"/>
<path d="M0 0 C1.32451172 0.5259375 1.32451172 0.5259375 2.67578125 1.0625 C15.6606699 6.87843769 24.68104195 17.72811088 29.875 30.75 C35.26115827 45.23198847 33.80927762 60.11157931 27.609375 74.1484375 C19.70833397 89.32675316 7.2255325 97.64853928 -8.6875 103.3125 C-20.08177632 105.71743947 -31.28338858 104.26885766 -42 100 C-42.73605469 99.71125 -43.47210938 99.4225 -44.23046875 99.125 C-56.40624625 93.6811394 -66.33335875 82.99240522 -71.4375 70.75 C-76.609956 56.65693147 -76.97341096 41.91935014 -71 28 C-63.93481804 13.31129343 -52.42445011 3.59868171 -37.38671875 -2.2734375 C-24.96479978 -6.05490547 -11.87245167 -4.76780094 0 0 Z " fill="#FEC20C" transform="translate(277,126)"/>
<path d="M0 0 C40.59 0 81.18 0 123 0 C123.99 4.29 124.98 8.58 126 13 C128.1560335 16.82975293 128.1560335 16.82975293 130.875 19.8125 C131.76935358 20.88861297 132.66129947 21.96673168 133.55078125 23.046875 C134.35902344 24.02140625 135.16726563 24.9959375 136 26 C143.15371911 36.14116388 142 41.04829354 142 55 C88.87 55 35.74 55 -19 55 C-19 38.2257498 -17.88565836 31.90707727 -7.97851562 20.2890625 C-2.68253369 13.84938158 -1.18240604 8.2768423 0 0 Z " fill="#FEE459" transform="translate(213,268)"/>
<path d="M0 0 C65.34 0 130.68 0 198 0 C196.53626951 13.17357443 192.85211278 21.99235403 183 31 C173.85552621 38.27361586 164.2414504 39.44665933 152.85205078 39.40405273 C151.56142731 39.41091599 150.27080383 39.41777924 148.94107056 39.42485046 C145.42437508 39.44268834 141.9079304 39.44163117 138.3912034 39.43590808 C135.44417137 39.4328021 132.49718653 39.43892436 129.55016124 39.44494683 C122.5915058 39.45896012 115.6329732 39.45745794 108.67431641 39.44604492 C101.52091307 39.43457098 94.36788497 39.44863424 87.21453106 39.4754414 C81.04944619 39.49767089 74.88447848 39.50421941 68.71935642 39.49836498 C65.0475451 39.49501095 61.37597413 39.49730581 57.70419693 39.51461601 C53.60480624 39.5331012 49.50613502 39.51882396 45.40673828 39.50170898 C44.20742676 39.51137695 43.00811523 39.52104492 41.77246094 39.53100586 C29.97129065 39.4282676 20.59758745 36.2237793 12 28 C3.98537756 19.46164976 1.28719246 11.58473211 0 0 Z " fill="#FEE459" transform="translate(157,473)"/>
<path d="M0 0 C1.15903839 -0.01248528 1.15903839 -0.01248528 2.3414917 -0.02522278 C4.89844792 -0.04933813 7.45514912 -0.05809668 10.01220703 -0.06469727 C11.78956174 -0.07366245 13.56691566 -0.08278427 15.3442688 -0.09205627 C19.07165359 -0.108553 22.79894849 -0.11624762 26.52636719 -0.11914062 C31.30050133 -0.12452514 36.07378961 -0.16220462 40.84768486 -0.20788479 C44.51945066 -0.23764107 48.19101243 -0.24486387 51.86288834 -0.24586678 C53.62276204 -0.25007196 55.38263618 -0.26251826 57.1423912 -0.28338432 C59.60597502 -0.31027026 62.06759393 -0.30548297 64.53125 -0.29296875 C65.25661957 -0.30780304 65.98198914 -0.32263733 66.7293396 -0.33792114 C70.60989805 -0.28184588 72.25894323 0.19722083 75.32400513 2.65635681 C79.7108661 8.26971981 78.61734335 15.08018406 78.63525391 21.875 C78.64493974 24.10056211 78.67596485 26.3251924 78.70751953 28.55053711 C78.71405225 29.97566186 78.71930167 31.40079319 78.72314453 32.82592773 C78.73249023 34.1160376 78.74183594 35.40614746 78.75146484 36.73535156 C78.35747907 40.68249529 77.57318909 43.00026746 75.39501953 46.30639648 C71.37021874 49.39046815 67.85859141 49.74281576 62.94604492 49.71044922 C62.21368118 49.71731247 61.48131744 49.72417572 60.72676086 49.73124695 C58.31519977 49.74949005 55.90429082 49.74568115 53.49267578 49.73999023 C51.81025481 49.74455334 50.12783571 49.74985929 48.44541931 49.75587463 C44.92243875 49.76480089 41.39968494 49.76238831 37.87670898 49.75244141 C33.36959561 49.74095378 28.86326596 49.76116204 24.35625553 49.79035854 C20.88259436 49.8087351 17.40912049 49.80842519 13.9354229 49.80272102 C12.27409198 49.80256798 10.61274824 49.80859849 8.9514637 49.8210125 C6.62494363 49.83594843 4.29986471 49.82522799 1.97338867 49.80810547 C0.9515448 49.82260742 0.9515448 49.82260742 -0.09094238 49.83740234 C-5.009751 49.76187948 -7.81288436 48.37376573 -11.60498047 45.30639648 C-14.89084572 39.74556493 -13.93945048 32.85439642 -13.9206543 26.58691406 C-13.91749489 24.37897333 -13.9409771 22.17237494 -13.96630859 19.96459961 C-13.96858207 18.54858566 -13.96928486 17.13256814 -13.96826172 15.71655273 C-13.97124268 14.43917236 -13.97422363 13.16179199 -13.97729492 11.84570312 C-13.57069354 7.98045708 -12.6579953 5.58899227 -10.60498047 2.30639648 C-6.95478566 -0.12706672 -4.2219849 0.00384723 0 0 Z " fill="#FEA912" transform="translate(223.60498046875,-0.306396484375)"/>
<path d="M0 0 C12.21 0 24.42 0 37 0 C37 37.29 37 74.58 37 113 C24.42407743 116.59312073 13.390748 117.25606956 0 118 C0 79.06 0 40.12 0 0 Z " fill="#00B327" transform="translate(157,323)"/>
<path d="M0 0 C2.5517071 0.07098685 5.1001711 0.09410773 7.65278625 0.1064949 C25.9998059 0.26239248 43.01102199 0.75258163 56.92414856 14.17921829 C70.90315247 29.31681837 70.90315247 29.31681837 70.90315247 34.44533157 C26.02315247 34.44533157 -18.85684753 34.44533157 -65.09684753 34.44533157 C-63.11684753 32.13533157 -61.13684753 29.82533157 -59.09684753 27.44533157 C-57.5916039 25.50767709 -56.08718671 23.56938026 -54.58366394 21.63039017 C-38.89402259 2.43037437 -24.17564845 -0.76477621 0 0 Z " fill="#DEEAF7" transform="translate(253.0968475341797,45.55466842651367)"/>
<path d="M0 0 C0.70253906 -0.00386719 1.40507812 -0.00773437 2.12890625 -0.01171875 C5.51747637 -0.00531314 8.63659329 0.06790351 11.875 1.125 C11.875 1.785 11.875 2.445 11.875 3.125 C11.12476563 3.393125 10.37453125 3.66125 9.6015625 3.9375 C-4.2342928 9.23485518 -14.5966746 18.25261148 -21 31.75 C-27.00605842 45.40013277 -26.95778611 60.44586176 -21.796875 74.328125 C-15.81086158 88.71504722 -5.1027698 97.79821998 8.875 104.125 C10.21105806 104.78618914 11.54532951 105.45105742 12.875 106.125 C4.46803672 110.16680927 -6.40140148 108.96354442 -15.125 106.375 C-17.13840392 105.66176466 -19.14063925 104.91545076 -21.125 104.125 C-21.86105469 103.83625 -22.59710938 103.5475 -23.35546875 103.25 C-35.53124625 97.8061394 -45.45835875 87.11740522 -50.5625 74.875 C-55.734956 60.78193147 -56.09841096 46.04435014 -50.125 32.125 C-43.05981804 17.43629343 -31.54945011 7.72368171 -16.51171875 1.8515625 C-11.04140273 0.18629445 -5.68155912 -0.03162278 0 0 Z " fill="#FEA90F" transform="translate(256.125,121.875)"/>
<path d="M0 0 C0.86140091 0.0028299 1.72280182 0.00565979 2.61030579 0.00857544 C5.36143894 0.01977013 8.1122465 0.04487329 10.86328125 0.0703125 C12.72851092 0.08034323 14.5937457 0.08946891 16.45898438 0.09765625 C21.03137545 0.11970712 25.60352314 0.15423201 30.17578125 0.1953125 C29.39203125 0.7315625 28.60828125 1.2678125 27.80078125 1.8203125 C23.96296788 5.29261984 23.31856346 8.39450557 22.91699219 13.45922852 C22.91473633 14.61092529 22.91248047 15.76262207 22.91015625 16.94921875 C22.90757812 18.21572266 22.905 19.48222656 22.90234375 20.78710938 C22.91394531 22.75260742 22.91394531 22.75260742 22.92578125 24.7578125 C22.91804688 26.07201172 22.9103125 27.38621094 22.90234375 28.74023438 C22.90621094 30.63805664 22.90621094 30.63805664 22.91015625 32.57421875 C22.91241211 33.7247876 22.91466797 34.87535645 22.91699219 36.06079102 C23.37275314 41.58108805 25.08127859 44.5102601 29.17578125 48.1953125 C24.15950515 48.43799861 19.14307877 48.65277822 14.12451172 48.84228516 C12.41911335 48.91055286 10.71399699 48.98630769 9.00927734 49.06982422 C6.55212533 49.18888062 4.09520218 49.2805623 1.63671875 49.3671875 C0.88023041 49.40970642 0.12374207 49.45222534 -0.65567017 49.49603271 C-5.83608255 49.6421965 -8.80191141 48.7614507 -12.82421875 45.1953125 C-16.11008401 39.63448095 -15.15868876 32.74331243 -15.13989258 26.47583008 C-15.13673317 24.26788935 -15.16021538 22.06129096 -15.18554688 19.85351562 C-15.18782035 18.43750168 -15.18852314 17.02148416 -15.1875 15.60546875 C-15.19048096 14.32808838 -15.19346191 13.05070801 -15.1965332 11.73461914 C-14.78993182 7.86937309 -13.87723358 5.47790829 -11.82421875 2.1953125 C-7.89117403 -0.42671731 -4.55796806 -0.05617277 0 0 Z " fill="#FF9A00" transform="translate(224.82421875,-0.1953125)"/>
<path d="M0 0 C12.21 0 24.42 0 37 0 C38.32 4.62 39.64 9.24 41 14 C43.72807695 19.75763218 43.72807695 19.75763218 47.65234375 24.61328125 C49 26 49 26 49 28 C49.58394531 28.27972656 50.16789062 28.55945313 50.76953125 28.84765625 C52.85878008 29.9270405 54.73873134 31.12606449 56.6875 32.4375 C60.89975214 35.11874524 65.21804775 36.63847193 70 38 C70 38.33 70 38.66 70 39 C64.78968727 39.09980707 59.57994615 39.17190561 54.36889648 39.21972656 C52.60089407 39.23968762 50.83295634 39.26686652 49.06518555 39.30175781 C34.51005757 39.58158498 23.02415773 38.54484652 12 28 C3.98537756 19.46164976 1.28719246 11.58473211 0 0 Z " fill="#FED302" transform="translate(157,473)"/>
<path d="M0 0 C1.32 0 2.64 0 4 0 C4.33 1.65 4.66 3.3 5 5 C5.66 5 6.32 5 7 5 C7.58394531 6.23169922 7.58394531 6.23169922 8.1796875 7.48828125 C10.67063267 12.29377419 13.58798828 16.78619132 16.50390625 21.34179688 C16.93832031 22.02693359 17.37273437 22.71207031 17.8203125 23.41796875 C18.41223389 24.34258911 18.41223389 24.34258911 19.01611328 25.28588867 C21.81241159 30.15755379 21.76129725 35.56941297 21 41 C18.53260509 46.6434188 14.75260123 51.63732449 9 54 C-3.70653217 55.43704828 -3.70653217 55.43704828 -8.6875 52.1875 C-9.450625 51.465625 -10.21375 50.74375 -11 50 C-11.61875 49.484375 -12.2375 48.96875 -12.875 48.4375 C-14 47 -14 47 -14 44 C-14.66 44 -15.32 44 -16 44 C-18.22029 37.33913001 -18.23170328 31.09907935 -15.0625 24.7578125 C-12.28800052 19.67884506 -9.20872323 14.81308485 -6 10 C-5.34 10 -4.68 10 -4 10 C-3.896875 9.278125 -3.79375 8.55625 -3.6875 7.8125 C-2.92003584 4.67287388 -1.97503519 2.5602308 0 0 Z " fill="#FED303" transform="translate(254,148)"/>
<path d="M0 0 C-0.99 0 -1.98 0 -3 0 C-3 11.88 -3 23.76 -3 36 C-15.21 36 -27.42 36 -40 36 C-40 25.44 -40 14.88 -40 4 C-36.2875 3.54625 -32.575 3.0925 -28.75 2.625 C-21.17785608 1.69578395 -13.65550148 0.7311003 -6.171875 -0.765625 C-3.84421093 -1.01681177 -2.21551479 -0.71140383 0 0 Z " fill="#4BCC5A" transform="translate(197,437)"/>
<path d="M0 0 C-1.18916016 1.36318359 -1.18916016 1.36318359 -2.40234375 2.75390625 C-4.37372619 5.02910744 -6.24543029 7.32648234 -8.05517578 9.73388672 C-22.78396323 29.15069678 -22.78396323 29.15069678 -33.69433594 31.05859375 C-44.41726258 32.26226707 -55.32548051 31.2852063 -66 30 C-65.20722656 29.09121094 -64.41445312 28.18242188 -63.59765625 27.24609375 C-61.62627381 24.97089256 -59.75456971 22.67351766 -57.94482422 20.26611328 C-41.38196538 -1.56853435 -26.42372226 -3.18140169 0 0 Z " fill="#B1DBFB" transform="translate(255,49)"/>
<path d="M0 0 C0.83637497 0.02927078 1.67274994 0.05854156 2.5344696 0.08869934 C5.19516139 0.18735171 7.85266726 0.32166223 10.51171875 0.45703125 C12.31956727 0.53035522 14.12751206 0.60134519 15.93554688 0.66992188 C20.35834266 0.84276843 24.77862521 1.04759928 29.19921875 1.26953125 C28.87695312 1.85734375 28.5546875 2.44515625 28.22265625 3.05078125 C26.73034782 6.2860148 26.82252504 8.75372333 27.19921875 12.26953125 C29.14969461 14.48090057 29.14969461 14.48090057 31.19921875 16.26953125 C25.4335106 16.39316909 19.66857453 16.48388831 13.90185547 16.54418945 C11.94045572 16.56932729 9.97914959 16.6034429 8.01806641 16.64672852 C5.19800731 16.70741333 2.37918681 16.73574766 -0.44140625 16.7578125 C-1.31758606 16.78361893 -2.19376587 16.80942535 -3.09649658 16.83601379 C-9.18125515 16.83881429 -9.18125515 16.83881429 -12.35058594 13.92651367 C-14.14563431 10.63770702 -14.49286263 8.96063195 -13.80078125 5.26953125 C-9.6705403 -0.28706766 -6.41427417 -0.37973055 0 0 Z " fill="#FFC20B" transform="translate(178.80078125,251.73046875)"/>
<path d="M0 0 C6.74807099 7.78623576 11.47721484 15.64868144 11.421875 26.06640625 C10.72503268 30.91204125 8.23760533 34.41578972 5 38 C2 40 2 40 -0.3125 40.0625 C-4.31988332 38.47818566 -6.58388304 35.5018404 -9 32 C-11.23443613 25.29669161 -11.21399994 19.06363869 -8.02734375 12.6875 C-2.42968845 2.42968845 -2.42968845 2.42968845 0 0 Z " fill="#FEE458" transform="translate(264,160)"/>
<path d="M0 0 C0.99 0.33 1.98 0.66 3 1 C-6.24 10.24 -15.48 19.48 -25 29 C-25 22.70825248 -17.58595535 17.5362551 -13.37890625 13.28125 C-11.77601829 11.68490444 -10.17052028 10.09117559 -8.5625 8.5 C-7.73556641 7.67757812 -6.90863281 6.85515625 -6.05664062 6.0078125 C-4.04005041 4.00287887 -2.02114764 2.00033747 0 0 Z " fill="#FED816" transform="translate(186,80)"/>
</svg>
