<?xml version="1.0" encoding="UTF-8"?>
<svg version="1.1" xmlns="http://www.w3.org/2000/svg" width="512" height="512">
<path d="M0 0 C2.86174081 2.19721122 5.32285203 4.70739796 7.8125 7.3125 C8.86570435 8.3955542 8.86570435 8.3955542 9.94018555 9.50048828 C34.33927941 34.95772759 50.51103272 66.84301202 50.16796875 102.484375 C50.06874957 106.71165806 49.59711153 110.81544241 49 115 C49.38929688 114.27296875 49.77859375 113.5459375 50.1796875 112.796875 C64.45290646 87.144546 86.95373729 73.05800315 114.60546875 64.875 C128.55501149 61.27926056 142.32603175 59.81301663 156.70385742 59.81469727 C158.82555513 59.8124864 160.94675154 59.7942005 163.06835938 59.77539062 C164.42708158 59.77246017 165.78580621 59.77047305 167.14453125 59.76953125 C168.97528198 59.76336792 168.97528198 59.76336792 170.84301758 59.75708008 C173.8822222 59.99093737 175.51870132 60.28426534 178 62 C181.04143828 66.56215741 180.34030329 71.06590357 180.3125 76.4375 C180.30686035 77.56188477 180.3012207 78.68626953 180.29541016 79.84472656 C179.82497755 112.73774683 169.78497754 147.33826069 146 171 C141.29666956 175.49273355 136.5444171 179.58805101 131 183 C132.11375 182.835 133.2275 182.67 134.375 182.5 C166.78250234 179.04048641 196.93085686 189.79049589 222.2734375 209.94921875 C223.51807871 210.9631412 224.76026118 211.98008915 226 213 C226.63583008 213.51771973 227.27166016 214.03543945 227.92675781 214.56884766 C247.07142542 230.24105526 247.07142542 230.24105526 248.5 237.5625 C246.72680276 249.75323104 230.5692006 260.01259153 221.25 267.125 C200.03075828 282.93491861 175.29364155 294.25402235 148.5 294.125 C147.69691406 294.12886719 146.89382813 294.13273437 146.06640625 294.13671875 C140.95791644 294.12843919 136.0563183 293.7306148 131 293 C131.75023437 293.53367187 132.50046875 294.06734375 133.2734375 294.6171875 C160.45175529 314.40190751 172.75535112 341.93957606 178.45703125 374.421875 C179.69774262 382.59807369 180.24026276 390.47642855 180.3125 398.75 C180.34150391 399.87277344 180.37050781 400.99554688 180.40039062 402.15234375 C180.40876953 403.23128906 180.41714844 404.31023437 180.42578125 405.421875 C180.44765503 406.88512207 180.44765503 406.88512207 180.4699707 408.37792969 C179.86862959 411.73294454 178.60160677 412.87512745 176 415 C171.29077663 417.35461169 164.83522681 416.24489429 159.625 416.25 C158.5723999 416.25151062 158.5723999 416.25151062 157.49853516 416.25305176 C126.31545761 416.22274577 95.67726761 408.87314968 71 389 C70.00871094 388.22269531 69.01742188 387.44539063 67.99609375 386.64453125 C64.71466522 383.74814649 62.09829456 380.70615358 59.4375 377.25 C58.96078857 376.63817871 58.48407715 376.02635742 57.99291992 375.39599609 C54.50640752 370.84504135 51.48120667 366.18174653 49 361 C49.23976563 362.7015625 49.23976563 362.7015625 49.484375 364.4375 C53.511622 396.94109633 41.45973122 426.55325962 22 452 C21.29230469 452.93328125 20.58460938 453.8665625 19.85546875 454.828125 C15.48000363 460.38066329 10.72587645 465.54930435 5.8125 470.625 C4.93899902 471.55022461 4.93899902 471.55022461 4.04785156 472.49414062 C1.36210828 475.20587004 -0.43914201 476.81562761 -4.11328125 478.0234375 C-11.21785762 477.96575488 -14.84121629 473.66736529 -19.5625 468.875 C-20.26705322 468.16287354 -20.97160645 467.45074707 -21.69750977 466.71704102 C-44.45504621 443.2527648 -62.28397271 411.92027312 -62.125 378.5625 C-62.12886719 377.75490234 -62.13273438 376.94730469 -62.13671875 376.11523438 C-62.12845902 370.99007037 -61.7338218 366.07268877 -61 361 C-61.38929688 361.72703125 -61.77859375 362.4540625 -62.1796875 363.203125 C-76.45290646 388.855454 -98.95373729 402.94199685 -126.60546875 411.125 C-140.55501149 414.72073944 -154.32603175 416.18698337 -168.70385742 416.18530273 C-170.82555513 416.1875136 -172.94675154 416.2057995 -175.06835938 416.22460938 C-176.42708158 416.22753983 -177.78580621 416.22952695 -179.14453125 416.23046875 C-180.36503174 416.23457764 -181.58553223 416.23868652 -182.84301758 416.24291992 C-185.8822222 416.00906263 -187.51870132 415.71573466 -190 414 C-193.04143828 409.43784259 -192.34030329 404.93409643 -192.3125 399.5625 C-192.30686035 398.43811523 -192.3012207 397.31373047 -192.29541016 396.15527344 C-191.82494606 363.26005146 -181.78352542 328.66401021 -158 305 C-153.26741119 300.45841253 -148.73122253 296.24159572 -143 293 C-144.11375 293.165 -145.2275 293.33 -146.375 293.5 C-166.82460258 295.63747796 -186.37039658 292.8756064 -205 284 C-206.00643555 283.52651123 -206.00643555 283.52651123 -207.03320312 283.04345703 C-218.35748295 277.62532964 -228.26947663 270.90019961 -238 263 C-238.96244629 262.21906982 -238.96244629 262.21906982 -239.94433594 261.42236328 C-259.07156231 245.75824316 -259.07156231 245.75824316 -260.5 238.4375 C-258.72680276 226.24676896 -242.5692006 215.98740847 -233.25 208.875 C-212.26726315 193.24129517 -187.57765938 181.75565195 -161.0625 181.875 C-159.77956055 181.86919922 -159.77956055 181.86919922 -158.47070312 181.86328125 C-153.22429681 181.87128492 -148.19175723 182.24199141 -143 183 C-143.75023437 182.46632812 -144.50046875 181.93265625 -145.2734375 181.3828125 C-172.30592968 161.70424766 -184.2785149 134.62276181 -190.45703125 102.45703125 C-191.78215376 94.02010018 -192.23735778 85.72866561 -192.3125 77.1875 C-192.35600586 75.51010742 -192.35600586 75.51010742 -192.40039062 73.79882812 C-192.40876953 72.72439453 -192.41714844 71.64996094 -192.42578125 70.54296875 C-192.44036377 69.57383545 -192.45494629 68.60470215 -192.4699707 67.60620117 C-191.86713424 64.26319898 -190.59137551 63.11922961 -188 61 C-183.29110301 58.64555151 -176.83495124 59.75442742 -171.625 59.75 C-170.57040588 59.74898788 -170.57040588 59.74898788 -169.49450684 59.74795532 C-157.77576718 59.76583658 -146.47033155 60.48402146 -135 63 C-134.19143555 63.17692383 -133.38287109 63.35384766 -132.54980469 63.53613281 C-116.11862595 67.25967586 -101.76191683 73.22572293 -88 83 C-87.030625 83.68835938 -86.06125 84.37671875 -85.0625 85.0859375 C-74.8594133 92.88318273 -66.5490814 103.41131068 -61 115 C-61.15984375 113.865625 -61.3196875 112.73125 -61.484375 111.5625 C-65.51561145 79.02670512 -53.60482527 49.45439508 -34 24 C-33.29359375 23.06929687 -32.5871875 22.13859375 -31.859375 21.1796875 C-27.46103403 15.59216545 -22.66569841 10.44324335 -17.6875 5.375 C-16.7888623 4.44977539 -16.7888623 4.44977539 -15.87207031 3.50585938 C-15.01307129 2.64831055 -15.01307129 2.64831055 -14.13671875 1.7734375 C-13.62842529 1.26216309 -13.12013184 0.75088867 -12.59643555 0.22412109 C-8.57347737 -2.86061852 -4.34828115 -2.12788226 0 0 Z M-60 118 C-59 120 -59 120 -59 120 Z M47 118 C48 120 48 120 48 120 Z M-60 356 C-59 358 -59 358 -59 358 Z M47 356 C48 358 48 358 48 358 Z " fill="#A56A42" transform="translate(262,18)"/>
<path d="M0 0 C2.86174081 2.19721122 5.32285203 4.70739796 7.8125 7.3125 C8.51463623 8.03453613 9.21677246 8.75657227 9.94018555 9.50048828 C34.33927941 34.95772759 50.51103272 66.84301202 50.16796875 102.484375 C50.06874957 106.71165806 49.59711153 110.81544241 49 115 C49.38929688 114.27296875 49.77859375 113.5459375 50.1796875 112.796875 C64.45290646 87.144546 86.95373729 73.05800315 114.60546875 64.875 C128.55501149 61.27926056 142.32603175 59.81301663 156.70385742 59.81469727 C158.82555513 59.8124864 160.94675154 59.7942005 163.06835938 59.77539062 C164.42708158 59.77246017 165.78580621 59.77047305 167.14453125 59.76953125 C168.97528198 59.76336792 168.97528198 59.76336792 170.84301758 59.75708008 C173.8822222 59.99093737 175.51870132 60.28426534 178 62 C181.04143828 66.56215741 180.34030329 71.06590357 180.3125 76.4375 C180.30686035 77.56188477 180.3012207 78.68626953 180.29541016 79.84472656 C179.82497755 112.73774683 169.78497754 147.33826069 146 171 C141.29666956 175.49273355 136.5444171 179.58805101 131 183 C132.11375 182.835 133.2275 182.67 134.375 182.5 C166.78250234 179.04048641 196.93085686 189.79049589 222.2734375 209.94921875 C223.51807871 210.9631412 224.76026118 211.98008915 226 213 C226.63583008 213.51771973 227.27166016 214.03543945 227.92675781 214.56884766 C247.07142542 230.24105526 247.07142542 230.24105526 248.5 237.5625 C246.72680276 249.75323104 230.5692006 260.01259153 221.25 267.125 C200.13928727 282.85405641 175.61965502 293.97695813 149 294.3125 C148.26394531 294.34150391 147.52789062 294.37050781 146.76953125 294.40039062 C130.73715568 294.57494748 115.26607237 287.26772053 100.69140625 281.40234375 C98.58697649 280.56270083 96.48231213 279.72364568 94.37742615 278.88514709 C90.00205531 277.13940673 85.62975418 275.38624729 81.25952148 273.62768555 C75.64975084 271.37112059 70.03233898 269.13430836 64.41252232 266.90289974 C60.08147605 265.1806227 55.75469799 263.44783206 51.42915154 261.7117939 C49.35755802 260.88192393 47.28460611 260.05543674 45.21029854 259.23237419 C42.32918944 258.0874367 39.45416133 256.92842324 36.58032227 255.76538086 C35.7207341 255.4271228 34.86114594 255.08886475 33.97550964 254.74035645 C33.1979129 254.42227524 32.42031616 254.10419403 31.61915588 253.776474 C30.94029611 253.50420959 30.26143633 253.23194517 29.56200504 252.95143032 C28 252 28 252 27 249 C27.33 248.01 27.66 247.02 28 246 C28.85479362 233.65453807 28.04523168 224.53515977 19.875 214.6875 C14.21569883 208.72836831 6.82673791 204.18073688 -1.546875 203.8671875 C-2.94791657 203.86453401 -4.34897691 203.86733017 -5.75 203.875 C-6.4409375 203.87113281 -7.131875 203.86726562 -7.84375 203.86328125 C-8.52953125 203.86457031 -9.2153125 203.86585938 -9.921875 203.8671875 C-10.53643555 203.86831543 -11.15099609 203.86944336 -11.78417969 203.87060547 C-14.88624527 204.05175297 -17.92944248 204.53475001 -21 205 C-26.69077535 193.79857936 -32.09176576 182.48994508 -37.3125 171.0625 C-37.67829163 170.26372437 -38.04408325 169.46494873 -38.42095947 168.64196777 C-43.12501723 158.3682913 -47.79813515 148.08104554 -52.375 137.75 C-52.80852783 136.77683838 -53.24205566 135.80367676 -53.6887207 134.80102539 C-64.661978 109.81831792 -64.51515997 84.71669638 -54.7890625 59.296875 C-49.59444636 46.44795977 -42.43180388 34.9476348 -34 24 C-33.29359375 23.06929687 -32.5871875 22.13859375 -31.859375 21.1796875 C-27.46103403 15.59216545 -22.66569841 10.44324335 -17.6875 5.375 C-16.7888623 4.44977539 -16.7888623 4.44977539 -15.87207031 3.50585938 C-15.2994043 2.93416016 -14.72673828 2.36246094 -14.13671875 1.7734375 C-13.62842529 1.26216309 -13.12013184 0.75088867 -12.59643555 0.22412109 C-8.57347737 -2.86061852 -4.34828115 -2.12788226 0 0 Z M47 118 C48 120 48 120 48 120 Z " fill="#A56A42" transform="translate(262,18)"/>
<path d="M0 0 C0.80501953 -0.020625 1.61003906 -0.04125 2.43945312 -0.0625 C15.05689874 -0.14129747 26.60841376 3.7333997 38.13671875 8.51953125 C39.41247056 9.03917428 40.68865656 9.55775244 41.96524048 10.0753479 C45.33276737 11.44383732 48.69456188 12.82587777 52.05527115 14.21100998 C55.52929519 15.64022947 59.00829288 17.05722834 62.48706055 18.47485352 C66.63070771 20.16404522 70.77402738 21.85399946 74.91505432 23.54960632 C82.67810256 26.72722627 90.45423232 29.86828653 98.2578125 32.9453125 C99.10001846 33.27800644 99.94222443 33.61070038 100.80995178 33.95347595 C103.85305622 35.15460316 106.89643634 36.35482204 109.94467163 37.5428772 C111.91987693 38.31316635 113.89182922 39.09126099 115.86328125 39.87109375 C116.92973877 40.2880249 117.99619629 40.70495605 119.0949707 41.13452148 C121.4375 42.25 121.4375 42.25 122.4375 44.25 C122.1168546 45.9191541 121.78056888 47.58531005 121.4375 49.25 C120.5904865 61.39978385 121.65903811 70.09900118 129.6875 79.625 C133.60733891 83.75935745 137.16907666 86.14263066 142.4375 88.25 C141.75171875 89.26835937 141.0659375 90.28671875 140.359375 91.3359375 C136.49663964 97.53094155 133.65889766 104.22425717 130.6875 110.875 C130.03748526 112.31864673 129.38700243 113.76208278 128.73608398 115.20532227 C126.99361702 119.07336971 125.2588605 122.94482575 123.52630615 126.81732178 C122.42202519 129.28457477 121.31601434 131.75104532 120.20947266 134.21728516 C116.93825524 141.50853256 113.66976816 148.80099846 110.41145325 156.09802246 C109.74826813 157.58283918 109.08428727 159.06730076 108.41947937 160.5513916 C106.69571104 164.40488096 104.99371492 168.26633228 103.32055664 172.14208984 C102.96984604 172.94812149 102.61913544 173.75415314 102.25779724 174.58460999 C101.59367683 176.11246133 100.93515333 177.64276396 100.28358459 179.17601013 C97.30452603 186.00280771 93.24373862 191.55499553 88.4375 197.25 C87.66148437 198.23484375 86.88546875 199.2196875 86.0859375 200.234375 C83.32298686 203.53909107 80.15742029 206.1344812 76.75 208.75 C75.81982056 209.46772583 75.81982056 209.46772583 74.87084961 210.19995117 C51.41876989 228.06140959 21.76041834 234.43869569 -7.26635742 234.43530273 C-9.38805513 234.4375136 -11.50925154 234.4557995 -13.63085938 234.47460938 C-14.98958158 234.47753983 -16.34830621 234.47952695 -17.70703125 234.48046875 C-18.92753174 234.48457764 -20.14803223 234.48868652 -21.40551758 234.49291992 C-24.4447222 234.25906263 -26.08120132 233.96573466 -28.5625 232.25 C-31.60393828 227.68784259 -30.90280329 223.18409643 -30.875 217.8125 C-30.86936035 216.68811523 -30.8637207 215.56373047 -30.85791016 214.40527344 C-30.38744606 181.51005146 -20.34602542 146.91401021 3.4375 123.25 C8.17008881 118.70841253 12.70627747 114.49159572 18.4375 111.25 C17.32375 111.415 16.21 111.58 15.0625 111.75 C-5.38710258 113.88747796 -24.93289658 111.1256064 -43.5625 102.25 C-44.23345703 101.93434082 -44.90441406 101.61868164 -45.59570312 101.29345703 C-56.91998295 95.87532964 -66.83197663 89.15019961 -76.5625 81.25 C-77.20413086 80.72937988 -77.84576172 80.20875977 -78.50683594 79.67236328 C-97.63406231 64.00824316 -97.63406231 64.00824316 -99.0625 56.6875 C-97.28930276 44.49676896 -81.1317006 34.23740847 -71.8125 27.125 C-50.93449769 11.56933022 -26.36931505 0.16340397 0 0 Z " fill="#A56942" transform="translate(100.5625,199.75)"/>
<path d="M0 0 C1.05459412 -0.00101212 1.05459412 -0.00101212 2.13049316 -0.00204468 C13.84923282 0.01583658 25.15466845 0.73402146 36.625 3.25 C37.43356445 3.42692383 38.24212891 3.60384766 39.07519531 3.78613281 C55.50637405 7.50967586 69.86308317 13.47572293 83.625 23.25 C84.594375 23.93835938 85.56375 24.62671875 86.5625 25.3359375 C103.44866034 38.24041799 111.14365163 56.2995252 119.28149414 75.28076172 C123.40642965 84.86378974 127.75659779 94.33878498 132.125 103.8125 C132.49284607 104.61040955 132.86069214 105.40831909 133.23968506 106.23040771 C134.69209629 109.38040711 136.14475537 112.53029177 137.59814453 115.67984009 C140.65053382 122.29717995 143.67654548 128.92619045 146.6875 135.5625 C147.09871094 136.4687915 147.50992188 137.37508301 147.93359375 138.30883789 C148.8314055 140.28891873 149.72833266 142.26940065 150.625 144.25 C151.61886719 144.09144531 152.61273438 143.93289062 153.63671875 143.76953125 C165.35237587 142.11184968 176.52471603 141.92740126 186.27734375 149.23828125 C194.22820106 155.99826125 200.0006159 163.30917211 200.9609375 173.984375 C201.21837316 185.23640058 199.73819086 192.93718329 192.25 201.625 C185.17618623 208.99884503 178.16819492 213.23818306 167.859375 213.6574707 C155.80537897 213.82907273 148.46953924 210.84147505 139.75390625 202.48046875 C131.66447796 194.00512278 130.28165254 186.17058601 130.421875 174.8359375 C130.60730313 171.56241776 131.05895239 168.47442951 131.625 165.25 C128.01221686 163.80391147 124.39932869 162.35808564 120.78635788 160.91246605 C119.4485946 160.37718214 118.1108491 159.84185382 116.77312088 159.30648232 C108.15821685 155.8588749 99.54049157 152.41850209 90.91843033 148.98883247 C85.13595995 146.68811442 79.35651897 144.37987883 73.57879257 142.06727409 C69.8904447 140.5913324 66.2006763 139.11915104 62.5078125 137.65454102 C58.83235384 136.19664478 55.16076617 134.72936494 51.4915657 133.25579262 C50.12401722 132.70839913 48.75518523 132.16419847 47.38492966 131.62361717 C33.02045577 125.95205204 21.52833747 119.13744339 10.625 108.25 C9.96757813 107.60417969 9.31015625 106.95835937 8.6328125 106.29296875 C-13.11808096 83.28914363 -20.41240441 47.30675129 -20.8125 16.75 C-20.83489746 15.66879883 -20.85729492 14.58759766 -20.88037109 13.47363281 C-20.87730957 12.46139648 -20.87424805 11.44916016 -20.87109375 10.40625 C-20.87294678 9.50712891 -20.8747998 8.60800781 -20.87670898 7.68164062 C-20.21805273 4.48932126 -18.84602946 3.30357327 -16.375 1.25 C-11.66610301 -1.10444849 -5.20995124 0.00442742 0 0 Z " fill="#A56A42" transform="translate(90.375,77.75)"/>
<path d="M0 0 C1.12112183 0.0141394 1.12112183 0.0141394 2.26489258 0.02856445 C30.29253825 0.77103823 55.78892227 13.87360984 77.0625 31.375 C78.01624512 32.15157959 78.01624512 32.15157959 78.98925781 32.94384766 C98.13392542 48.61605526 98.13392542 48.61605526 99.5625 55.9375 C97.78930276 68.12823104 81.6317006 78.38759153 72.3125 85.5 C51.20178727 101.22905641 26.68215502 112.35195813 0.0625 112.6875 C-1.04158203 112.73100586 -1.04158203 112.73100586 -2.16796875 112.77539062 C-18.20034432 112.94994748 -33.67142763 105.64272053 -48.24609375 99.77734375 C-50.35052351 98.93770083 -52.45518787 98.09864568 -54.56007385 97.26014709 C-58.93544469 95.51440673 -63.30774582 93.76124729 -67.67797852 92.00268555 C-73.28774916 89.74612059 -78.90516102 87.50930836 -84.52497768 85.27789974 C-88.85602395 83.5556227 -93.18280201 81.82283206 -97.50834846 80.0867939 C-99.57994198 79.25692393 -101.65289389 78.43043674 -103.72720146 77.60737419 C-106.60831056 76.4624367 -109.48333867 75.30342324 -112.35717773 74.14038086 C-113.64655998 73.63299377 -113.64655998 73.63299377 -114.96199036 73.11535645 C-115.7395871 72.79727524 -116.51718384 72.47919403 -117.31834412 72.151474 C-117.99720389 71.87920959 -118.67606367 71.60694517 -119.37549496 71.32643032 C-120.9375 70.375 -120.9375 70.375 -121.9375 67.375 C-121.6075 66.385 -121.2775 65.395 -120.9375 64.375 C-120.84070767 61.73883237 -120.79825491 59.13534093 -120.8125 56.5 C-120.80863281 55.79230469 -120.80476563 55.08460938 -120.80078125 54.35546875 C-120.80783143 50.56951956 -121.02842047 47.05460763 -121.9375 43.375 C-116.3842448 40.52225977 -110.79563313 37.9933015 -105.00561523 35.66381836 C-104.15072006 35.31692459 -103.29582489 34.97003082 -102.4150238 34.61262512 C-99.61028813 33.47609127 -96.80344587 32.34489819 -93.99609375 31.21484375 C-93.02922197 30.82508425 -92.0623502 30.43532475 -91.06617928 30.03375435 C-85.94766136 27.97088426 -80.82742787 25.91233994 -75.70581055 23.85717773 C-70.45211642 21.74797719 -65.20471407 19.62357179 -59.95860195 17.49559689 C-55.89109807 15.849065 -51.81895591 14.21425151 -47.74553108 12.58242989 C-45.81076352 11.805024 -43.87772022 11.02331091 -41.94656181 10.23698235 C-28.34548236 4.70515646 -14.92701299 -0.31019498 0 0 Z " fill="#805333" transform="translate(410.9375,199.625)"/>
<path d="M0 0 C0.80501953 -0.020625 1.61003906 -0.04125 2.43945312 -0.0625 C15.05689874 -0.14129747 26.60841376 3.7333997 38.13671875 8.51953125 C39.41247056 9.03917428 40.68865656 9.55775244 41.96524048 10.0753479 C45.33276737 11.44383732 48.69456188 12.82587777 52.05527115 14.21100998 C55.52929519 15.64022947 59.00829288 17.05722834 62.48706055 18.47485352 C66.63070771 20.16404522 70.77402738 21.85399946 74.91505432 23.54960632 C82.67810256 26.72722627 90.45423232 29.86828653 98.2578125 32.9453125 C99.10001846 33.27800644 99.94222443 33.61070038 100.80995178 33.95347595 C103.85305622 35.15460316 106.89643634 36.35482204 109.94467163 37.5428772 C111.91987693 38.31316635 113.89182922 39.09126099 115.86328125 39.87109375 C116.92973877 40.2880249 117.99619629 40.70495605 119.0949707 41.13452148 C121.4375 42.25 121.4375 42.25 122.4375 44.25 C122.10532819 45.91689855 121.77171372 47.58350965 121.4375 49.25 C121.3451589 51.74864148 121.30749932 54.2496578 121.3125 56.75 C121.30992187 58.0390625 121.30734375 59.328125 121.3046875 60.65625 C121.41670337 63.68726773 121.80086971 66.30392539 122.4375 69.25 C115.27628347 72.57117042 108.06544968 75.68004956 100.7265625 78.5859375 C99.73190475 78.98254074 98.73724701 79.37914398 97.71244812 79.7877655 C94.49683906 81.06947511 91.27979847 82.34753754 88.0625 83.625 C83.56837107 85.41115713 79.07486519 87.19886919 74.58203125 88.98828125 C73.46461044 89.43322433 72.34718964 89.87816742 71.19590759 90.33659363 C64.25898352 93.10525031 57.34541444 95.92450035 50.44921875 98.79296875 C48.78113754 99.48335722 47.11300751 100.17362776 45.44482422 100.86376953 C43.13565733 101.81950067 40.82869952 102.77912615 38.52789307 103.75482178 C13.83094965 114.22677399 -10.97232855 115.17551277 -36.25 105.5625 C-38.71408738 104.49312874 -41.13987089 103.40420076 -43.5625 102.25 C-44.23345703 101.93434082 -44.90441406 101.61868164 -45.59570312 101.29345703 C-56.91998295 95.87532964 -66.83197663 89.15019961 -76.5625 81.25 C-77.20413086 80.72937988 -77.84576172 80.20875977 -78.50683594 79.67236328 C-97.63406231 64.00824316 -97.63406231 64.00824316 -99.0625 56.6875 C-97.28930276 44.49676896 -81.1317006 34.23740847 -71.8125 27.125 C-50.93449769 11.56933022 -26.36931505 0.16340397 0 0 Z " fill="#805333" transform="translate(100.5625,199.75)"/>
<path d="M0 0 C2.86174081 2.19721122 5.32285203 4.70739796 7.8125 7.3125 C8.51463623 8.03453613 9.21677246 8.75657227 9.94018555 9.50048828 C33.20206699 33.77119629 50.57959777 65.56513454 50.29150391 99.80810547 C49.89456154 115.91761442 44.58264411 128.61391925 37.90722656 143.03765869 C36.90758183 145.19990155 35.91247028 147.36419547 34.91796875 149.52880859 C31.80862883 156.29422298 28.69789255 163.0588644 25.55566406 169.80908203 C20.6695462 180.31150012 20.6695462 180.31150012 16.015625 190.91796875 C15.60836182 191.86776611 15.20109863 192.81756348 14.78149414 193.79614258 C14.07914532 195.45177986 13.39203082 197.11401 12.72436523 198.78393555 C10.60998078 203.75076054 10.60998078 203.75076054 7.45703125 205.0390625 C5 205 5 205 2 204 C-0.59462456 203.90284445 -3.1561562 203.86080013 -5.75 203.875 C-6.4409375 203.87113281 -7.131875 203.86726562 -7.84375 203.86328125 C-8.52953125 203.86457031 -9.2153125 203.86585938 -9.921875 203.8671875 C-10.53643555 203.86831543 -11.15099609 203.86944336 -11.78417969 203.87060547 C-14.88624527 204.05175297 -17.92944248 204.53475001 -21 205 C-26.69077535 193.79857936 -32.09176576 182.48994508 -37.3125 171.0625 C-37.67829163 170.26372437 -38.04408325 169.46494873 -38.42095947 168.64196777 C-43.12501723 158.3682913 -47.79813515 148.08104554 -52.375 137.75 C-52.80852783 136.77683838 -53.24205566 135.80367676 -53.6887207 134.80102539 C-64.661978 109.81831792 -64.51515997 84.71669638 -54.7890625 59.296875 C-49.59444636 46.44795977 -42.43180388 34.9476348 -34 24 C-33.29359375 23.06929687 -32.5871875 22.13859375 -31.859375 21.1796875 C-27.46103403 15.59216545 -22.66569841 10.44324335 -17.6875 5.375 C-16.7888623 4.44977539 -16.7888623 4.44977539 -15.87207031 3.50585938 C-15.2994043 2.93416016 -14.72673828 2.36246094 -14.13671875 1.7734375 C-13.62842529 1.26216309 -13.12013184 0.75088867 -12.59643555 0.22412109 C-8.57347737 -2.86061852 -4.34828115 -2.12788226 0 0 Z " fill="#805333" transform="translate(262,18)"/>
<path d="M0 0 C2.33415966 0.32749689 4.66731904 0.66213153 7 1 C9.6784911 1.09034593 12.32343603 1.14038255 15 1.125 C16.00933594 1.13080078 16.00933594 1.13080078 17.0390625 1.13671875 C21.44834229 1.12820663 25.64671278 0.65782716 30 0 C35.50064148 10.82950152 40.73095592 21.75217686 45.75 32.8125 C46.44354637 34.33645179 47.13715081 35.86037715 47.83081055 37.38427734 C49.89330638 41.92009901 51.9475507 46.45962541 54 51 C54.31076477 51.68660706 54.62152954 52.37321411 54.94171143 53.08062744 C56.90758025 57.42478237 58.8632493 61.77336189 60.8125 66.125 C61.29750977 67.20112549 61.78251953 68.27725098 62.28222656 69.38598633 C73.50416296 94.58707682 73.64871546 119.1925412 63.89355469 144.99291992 C58.67003616 158.20099805 51.6083817 169.74315109 43 181 C42.29230469 181.93328125 41.58460938 182.8665625 40.85546875 183.828125 C36.48000363 189.38066329 31.72587645 194.54930435 26.8125 199.625 C25.93899902 200.55022461 25.93899902 200.55022461 25.04785156 201.49414062 C22.36210828 204.20587004 20.56085799 205.81562761 16.88671875 207.0234375 C9.78214238 206.96575488 6.15878371 202.66736529 1.4375 197.875 C0.73294678 197.16287354 0.02839355 196.45074707 -0.69750977 195.71704102 C-24.2204825 171.46355774 -41.42992616 139.80728591 -41.2355957 105.45361328 C-40.94273854 88.41612218 -34.95655405 75.17631915 -27.89099121 59.92987061 C-26.27018628 56.41923687 -24.67167593 52.89843923 -23.0703125 49.37890625 C-20.33505321 43.37190245 -17.58976289 37.36960766 -14.8359375 31.37109375 C-12.47314482 26.2236121 -10.12166621 21.07139416 -7.7890625 15.91015625 C-7.32121338 14.87528076 -6.85336426 13.84040527 -6.37133789 12.77416992 C-5.52236577 10.89363571 -4.67509385 9.01233266 -3.82983398 7.13012695 C-3.46446533 6.32148193 -3.09909668 5.51283691 -2.72265625 4.6796875 C-2.41078369 3.98601074 -2.09891113 3.29233398 -1.77758789 2.57763672 C-1 1 -1 1 0 0 Z " fill="#805333" transform="translate(241,289)"/>
<path d="M0 0 C8.26141826 6.19302194 14.22266889 12.96538193 17 23 C17.95091524 33.57063922 17.60300793 42.99076005 10.94140625 51.6875 C4.11157643 59.61148468 -3.0397842 65.39317446 -13.71875 66.32421875 C-24.92382629 66.77995957 -32.7585134 65.05171011 -41.375 57.625 C-49.3997425 49.92677284 -53.13081018 42.66203735 -53.375 31.5625 C-53.10567927 20.25102949 -49.91728653 13.23542021 -42.18359375 5.0859375 C-31.19393132 -5.34869148 -13.23058369 -8.35026686 0 0 Z " fill="#F19B1F" transform="translate(274,225)"/>
<path d="M0 0 C0.66 0 1.32 0 2 0 C4.82403741 6.93269463 7.63420094 13.87089684 10.43505859 20.81298828 C11.38829649 23.17103183 12.3446338 25.52782502 13.30419922 27.88330078 C14.68765671 31.2808885 16.05968526 34.68290562 17.4296875 38.0859375 C18.07041702 39.64905167 18.07041702 39.64905167 18.72409058 41.2437439 C26.34005774 60.27647602 25.75317373 78.27797378 17.75 97.0625 C14.767427 103.79257142 11.20930334 109.95226585 7 116 C6.51144531 116.73476563 6.02289063 117.46953125 5.51953125 118.2265625 C4.40870888 119.86184939 3.21369235 121.4395384 2 123 C1.34 123 0.68 123 0 123 C-12.50824132 107.61123008 -22.16940415 88.83639575 -22.1875 68.75 C-22.19974609 68.05003906 -22.21199219 67.35007812 -22.22460938 66.62890625 C-22.2526192 56.37730944 -19.28518456 47.49175051 -15.4296875 38.0859375 C-14.9885965 36.99028473 -14.54750549 35.89463196 -14.0930481 34.76577759 C-12.69515874 31.29883494 -11.28530065 27.83690985 -9.875 24.375 C-8.91977509 22.01204112 -7.96533994 19.64876281 -7.01171875 17.28515625 C-4.6835996 11.51971205 -2.34565879 5.75832888 0 0 Z " fill="#F09B1F" transform="translate(255,329)"/>
<path d="M0 0 C6.74672907 1.91693248 13.27046264 4.15208973 19.77734375 6.765625 C20.66933975 7.12211121 21.56133575 7.47859741 22.48036194 7.84588623 C24.35270411 8.59650588 26.22406873 9.34956821 28.09448242 10.10498047 C30.92256966 11.24398684 33.75691258 12.36631872 36.59179688 13.48828125 C58.52997806 22.26941658 72.40217276 32.97718098 82.3125 54.875 C86.19388544 64.46494119 89.34956533 74.58026429 89 85 C68.94994094 84.64541696 49.15959786 78.49204209 34 65 C33.37609375 64.45730469 32.7521875 63.91460937 32.109375 63.35546875 C22.96367767 54.86587579 18.48131773 42.86720478 13.5 31.6875 C12.53658149 29.54130673 11.57141746 27.39590403 10.60620117 25.2505188 C9.97744466 23.85143052 9.34998354 22.45175931 8.72387695 21.05148315 C6.23313426 15.48593018 3.65907152 9.9630497 1.04882812 4.45239258 C0 2 0 2 0 0 Z " fill="#F19B1F" transform="translate(319,316)"/>
<path d="M0 0 C-1.36535037 21.28063331 -9.7733457 43.5863797 -26 58 C-33.25586114 63.1251076 -40.68516241 66.84349149 -48.94140625 70.05859375 C-50.03090073 70.49261002 -51.1203952 70.92662628 -52.24290466 71.37379456 C-54.52060442 72.27880812 -56.80042728 73.17849545 -59.08227539 74.07299805 C-62.58886561 75.44783724 -66.08877298 76.83868689 -69.58789062 78.23242188 C-71.80953055 79.11290143 -74.03152318 79.99249163 -76.25390625 80.87109375 C-77.30276505 81.28660995 -78.35162384 81.70212616 -79.43226624 82.13023376 C-80.39764816 82.50805496 -81.36303009 82.88587616 -82.35766602 83.27514648 C-83.20829117 83.6093309 -84.05891632 83.94351532 -84.93531799 84.28782654 C-87 85 -87 85 -89 85 C-86.65669062 77.12193376 -83.26462335 69.82302546 -79.74951172 62.41821289 C-78.76141604 60.33655065 -77.7804363 58.25166132 -76.80078125 56.16601562 C-74.88700222 52.1010768 -72.94780036 48.04872656 -71 44 C-70.68593201 43.34327301 -70.37186401 42.68654602 -70.04827881 42.00991821 C-69.13644111 40.10943186 -68.21446377 38.21422506 -67.2890625 36.3203125 C-66.76006348 35.23121582 -66.23106445 34.14211914 -65.68603516 33.02001953 C-57.22881267 17.87147593 -41.28421718 8.60969382 -25.10180664 3.78442383 C-16.70857657 1.43104332 -8.73726328 0 0 0 Z " fill="#F19B1F" transform="translate(408,111)"/>
<path d="M0 0 C3.78111127 2.51426634 7.42281982 5.20370115 11 8 C9.63198386 12.10404843 6.84794547 13.47926113 3.375 15.75 C2.7042041 16.19102051 2.0334082 16.63204102 1.34228516 17.08642578 C-5.47960451 21.46612671 -12.50893096 24.92694992 -20 28 C-21.00933594 28.43441406 -22.01867187 28.86882812 -23.05859375 29.31640625 C-29.88160024 31.8628339 -36.53316104 32.45629791 -43.75 32.625 C-45.0340271 32.67805298 -45.0340271 32.67805298 -46.34399414 32.73217773 C-55.50424677 32.71269685 -63.6049624 29.29276985 -72 26 C-72.83086121 25.67642517 -73.66172241 25.35285034 -74.51776123 25.01947021 C-80.71693493 22.59794765 -86.89146104 20.11716112 -93.0625 17.625 C-94.91197773 16.88118301 -96.76158647 16.13769168 -98.61132812 15.39453125 C-103.07573156 13.60008898 -107.53836123 11.80130461 -112 10 C-112 9.34 -112 8.68 -112 8 C-105.15992778 5.2762212 -98.31877112 2.55518564 -91.47622299 -0.16236782 C-88.29887904 -1.4243658 -85.12191408 -2.6873002 -81.94580078 -3.95239258 C-78.29310538 -5.40726668 -74.63878674 -6.85803592 -70.984375 -8.30859375 C-69.84570984 -8.76278183 -68.70704468 -9.21696991 -67.53387451 -9.68492126 C-66.47307678 -10.10528152 -65.41227905 -10.52564178 -64.31933594 -10.95874023 C-62.92035065 -11.51500343 -62.92035065 -11.51500343 -61.49310303 -12.08250427 C-40.68171259 -19.74137821 -17.76888949 -11.13612168 0 0 Z " fill="#F09B1F" transform="translate(455,247)"/>
<path d="M0 0 C-1.48091291 4.74924577 -3.37353778 9.23734396 -5.44921875 13.75 C-5.78492386 14.48516846 -6.12062897 15.22033691 -6.46650696 15.9777832 C-7.1769463 17.53160659 -7.88890583 19.08473572 -8.60229492 20.63720703 C-9.67064411 22.96330004 -10.73315995 25.29198789 -11.79492188 27.62109375 C-21.91815564 49.76888529 -31.02474897 68.54132301 -54.9296875 78.0390625 C-66.15434064 82.17999454 -77.0814652 84.28692527 -89 85 C-89.84402341 65.13907419 -79.07842002 44.13248328 -65.98828125 29.796875 C-55.19827268 19.345924 -39.40796702 14.57173187 -25.68212891 9.20874023 C-22.71080829 8.04717901 -19.74388108 6.87488882 -16.77734375 5.70117188 C-14.88826519 4.95771213 -12.99895108 4.21485059 -11.109375 3.47265625 C-10.22304382 3.12276138 -9.33671265 2.77286652 -8.42352295 2.41236877 C-7.20019257 1.93573036 -7.20019257 1.93573036 -5.95214844 1.44946289 C-5.23492615 1.16857315 -4.51770386 0.88768341 -3.77874756 0.59828186 C-2 0 -2 0 0 0 Z " fill="#F19B1F" transform="translate(193,316)"/>
<path d="M0 0 C22.05233155 1.31937026 44.4514091 7.53301182 59.84790039 24.34130859 C68.15184677 34.59995591 73.10537089 47.49579741 78.3125 59.5 C79.36729289 61.91289013 80.42428169 64.3248022 81.48246765 66.73620605 C82.13271124 68.21991797 82.7806675 69.70463535 83.42585754 71.19055176 C84.78277585 74.30340961 86.17597262 77.34519916 87.71948242 80.37304688 C89 83 89 83 89 85 C82.25327093 83.08306752 75.72953736 80.84791027 69.22265625 78.234375 C68.33066025 77.87788879 67.43866425 77.52140259 66.51963806 77.15411377 C64.64729589 76.40349412 62.77593127 75.65043179 60.90551758 74.89501953 C58.07743034 73.75601316 55.24308742 72.63368128 52.40820312 71.51171875 C31.38955501 63.09864239 16.65474153 52.82323443 7.43823242 31.47631836 C3.47647256 21.70655412 -0.42516446 10.61275906 0 0 Z " fill="#F19B1F" transform="translate(104,111)"/>
<path d="M0 0 C1.2216687 -0.02126953 1.2216687 -0.02126953 2.46801758 -0.04296875 C14.69402808 0.05403421 25.60810831 4.5270285 36.75 9.125 C38.0714096 9.66333844 39.39319067 10.20076594 40.71533203 10.73730469 C42.68369014 11.53619287 44.65182651 12.33557096 46.6187439 13.13800049 C52.05781481 15.35640934 57.52052889 17.50868073 63 19.625 C63.7420166 19.91213867 64.4840332 20.19927734 65.24853516 20.49511719 C66.87348872 21.1231301 68.49914241 21.74933123 70.125 22.375 C70.125 23.035 70.125 23.695 70.125 24.375 C69.40771729 24.65585449 68.69043457 24.93670898 67.95141602 25.22607422 C65.16210338 26.31874893 62.37309877 27.41220567 59.58428955 28.50616455 C58.32116829 29.00150383 57.05794418 29.49658094 55.7946167 29.99139404 C48.81835793 32.72425799 41.85124961 35.47552639 34.91015625 38.296875 C33.78730225 38.7520752 32.66444824 39.20727539 31.50756836 39.67626953 C29.37737485 40.54188515 27.24918567 41.41245397 25.12329102 42.28857422 C10.11550085 48.37778517 -7.77054559 48.59663151 -22.875 42.375 C-33.61233708 37.54093305 -43.68954865 31.76464401 -52.875 24.375 C-51.51835594 20.30506781 -48.81643275 18.94443962 -45.375 16.6875 C-44.71153564 16.24978271 -44.04807129 15.81206543 -43.36450195 15.36108398 C-35.89663911 10.56497722 -28.03685712 6.8248798 -19.875 3.375 C-19.0190625 2.99214844 -18.163125 2.60929688 -17.28125 2.21484375 C-11.67037233 0.09100801 -5.93119016 0.07892906 0 0 Z " fill="#F19B1F" transform="translate(98.875,232.625)"/>
<path d="M0 0 C0.66 0 1.32 0 2 0 C14.45078107 15.13572752 24.20063215 33.83380985 24.4375 53.625 C24.44789307 54.3763623 24.45828613 55.12772461 24.46899414 55.90185547 C24.29997155 66.70298184 20.56072383 76.77017664 16.55078125 86.671875 C16.13330124 87.72030579 15.71582123 88.76873657 15.28569031 89.84893799 C13.96845661 93.15220866 12.64069169 96.45112231 11.3125 99.75 C10.41010327 102.00753121 9.50840417 104.26534142 8.60742188 106.5234375 C6.41299242 112.01887209 4.2099327 117.51078285 2 123 C1.34 123 0.68 123 0 123 C-2.66190229 116.38814268 -5.3114676 109.77143613 -7.95288086 103.15136719 C-8.85114959 100.90416303 -9.75214193 98.65804545 -10.65600586 96.41308594 C-11.96160975 93.16890179 -13.25706862 89.92081654 -14.55078125 86.671875 C-14.9508992 85.68386902 -15.35101715 84.69586304 -15.76325989 83.67791748 C-22.79744758 65.91351664 -25.22692583 48.06006937 -17.88183594 30.02099609 C-13.28972228 19.49676662 -7.73302472 8.58606821 0 0 Z " fill="#F19B1F" transform="translate(255,60)"/>
</svg>
