<?xml version="1.0" encoding="UTF-8"?>
<svg version="1.1" xmlns="http://www.w3.org/2000/svg" width="512" height="512">
<path d="M0 0 C1.71675263 -0.00083002 3.43350516 -0.00329442 5.1502533 -0.00730896 C8.73526134 -0.01015645 12.319641 0.00443221 15.90454102 0.03198242 C20.48314653 0.06608958 25.06063137 0.06002857 29.63929081 0.04131985 C33.17997971 0.03071637 36.72041099 0.03971749 40.26107597 0.05470467 C41.94864574 0.05986068 43.6362427 0.05943626 45.32380867 0.05315971 C62.86245 0.01239954 62.86245 0.01239954 70.328125 6.3046875 C70.76511719 6.84480469 71.20210938 7.38492187 71.65234375 7.94140625 C72.32716797 8.73998047 72.32716797 8.73998047 73.015625 9.5546875 C77.89767358 17.20179014 77.73922694 23.98347395 77.6328125 32.875 C77.62720918 34.25504594 77.62294256 35.6350979 77.61994934 37.01515198 C77.60855831 40.62707327 77.5791418 44.238626 77.5458374 47.85040283 C77.51501168 51.54409806 77.50141744 55.23785352 77.48632812 58.93164062 C77.45426556 66.16422955 77.40314014 73.39651603 77.33984375 80.62890625 C74.69984375 80.62890625 72.05984375 80.62890625 69.33984375 80.62890625 C68.58251717 84.73564629 68.71102287 87.75615087 70.33984375 91.62890625 C74.54600449 95.45610849 80.00450009 97.80259656 85.02099609 100.38623047 C88.58463095 102.29599057 91.9309158 104.48990421 95.27734375 106.75390625 C95.89939697 107.17454346 96.5214502 107.59518066 97.16235352 108.02856445 C124.35003105 126.6226239 140.87985282 149.94707593 147.87605572 182.09264851 C148.55039986 187.23433937 148.48786242 192.33324119 148.48701477 197.51371765 C148.49069146 198.71981448 148.49436815 199.9259113 148.49815625 201.16855651 C148.50725593 204.50864325 148.51188678 207.84868097 148.51454556 211.18877542 C148.51845998 214.79423872 148.52803734 218.39968794 148.53675842 222.00514221 C148.55648838 230.70725146 148.56658358 239.40936182 148.57548621 248.11148784 C148.57987387 252.21289932 148.58523935 256.31430952 148.59047508 260.41571999 C148.60748213 274.05467174 148.62197623 287.6936227 148.62922382 301.33258343 C148.6311336 304.86910185 148.63305395 308.40562027 148.63500977 311.94213867 C148.63549351 312.82108222 148.63597725 313.70002577 148.63647565 314.60560397 C148.64477584 328.84358932 148.67011492 343.08149065 148.70259044 357.31943931 C148.73568346 371.94769459 148.75367452 386.57590719 148.75686806 401.20420009 C148.75903083 409.41327779 148.76774555 417.62223288 148.79332924 425.83127403 C148.81506672 432.822133 148.82307163 439.81283955 148.81336246 446.80372848 C148.80882685 450.36769608 148.81066045 453.93134938 148.8301239 457.49527359 C148.85108336 461.36670381 148.84074124 465.23770444 148.82759094 469.10917664 C148.83856019 470.22476336 148.84952943 471.34035008 148.86083108 472.48974246 C148.76666776 484.00419677 145.32870876 493.26037241 137.33984375 501.62890625 C125.84900057 512.59842573 113.6690274 513.21982754 98.62475586 513.14648438 C96.74775145 513.15191276 94.87075132 513.15903942 92.99375916 513.16772461 C87.92354547 513.18587441 82.85365936 513.17892535 77.78344035 513.16620827 C72.46300459 513.15603872 67.14259575 513.16548475 61.82215881 513.17175293 C52.89074702 513.17901721 43.95946781 513.169473 35.02807617 513.15039062 C24.71862988 513.12861762 14.4095 513.13568136 4.10006136 513.15769625 C-4.77075908 513.17587705 -13.64148454 513.17839566 -22.5123176 513.16794157 C-27.80208325 513.16172224 -33.0917004 513.16082811 -38.38145638 513.17408752 C-43.35486399 513.18568469 -48.3278655 513.17754982 -53.30122948 513.1545105 C-55.12083387 513.14924431 -56.94047273 513.15070117 -58.76006317 513.15956116 C-68.00961724 513.20043 -76.33577428 513.22784532 -84.66015625 508.62890625 C-87.55045241 506.9143493 -87.55045241 506.9143493 -90.66015625 506.62890625 C-93.3434869 507.68337804 -95.78730298 508.94262674 -98.29296875 510.3671875 C-102.18380299 512.44101499 -105.5486931 512.75587233 -109.92652893 512.77607727 C-111.52644936 512.78681023 -111.52644936 512.78681023 -113.15869141 512.79776001 C-114.90653931 512.80179337 -114.90653931 512.80179337 -116.68969727 512.8059082 C-117.92106918 512.8124794 -119.1524411 512.8190506 -120.42112732 512.82582092 C-124.5021082 512.84555374 -128.58304977 512.85722262 -132.6640625 512.8671875 C-134.07292131 512.8712373 -135.48177993 512.87535428 -136.89063835 512.87953758 C-143.51411946 512.89858379 -150.1375895 512.91281332 -156.76109272 512.92114955 C-164.38547231 512.93090575 -172.00956033 512.957185 -179.63383728 512.99765044 C-185.53977586 513.0279105 -191.44563135 513.04262794 -197.35164589 513.04593056 C-200.87266524 513.04827073 -204.39337295 513.05709429 -207.91430855 513.08239174 C-211.85124932 513.11022087 -215.78781359 513.1058112 -219.72485352 513.09887695 C-220.87591583 513.11168701 -222.02697815 513.12449707 -223.21292114 513.13769531 C-234.87495162 513.0631532 -244.17323931 509.73078348 -252.66015625 501.62890625 C-263.71350031 490.05025475 -264.24075961 477.81248285 -264.11425781 462.66333008 C-264.11312788 460.76025415 -264.11376604 458.85717648 -264.11602783 456.95410156 C-264.11717021 451.81633213 -264.09373825 446.67894021 -264.065732 441.5412581 C-264.04063868 436.16145153 -264.03837011 430.78163524 -264.03363037 425.40177917 C-264.02122385 415.22705511 -263.98843375 405.05250403 -263.94823241 394.87785596 C-263.90344227 383.28897036 -263.88150946 371.70007627 -263.86145067 360.11112559 C-263.81969902 336.28362017 -263.7485816 312.45628024 -263.66015625 288.62890625 C-255.74015625 288.62890625 -247.82015625 288.62890625 -239.66015625 288.62890625 C-240.19125 286.60121094 -240.72234375 284.57351563 -241.26953125 282.484375 C-244.2576472 270.71537249 -246.63685114 258.80570915 -249.08886719 246.91625977 C-249.77805324 243.57541598 -250.47486384 240.23621145 -251.1735878 236.89735126 C-251.84556089 233.67991039 -252.51027152 230.46097046 -253.17578125 227.2421875 C-253.42571838 226.0495076 -253.67565552 224.8568277 -253.9331665 223.62800598 C-254.27417389 221.96423164 -254.27417389 221.96423164 -254.62207031 220.2668457 C-254.8231842 219.29584427 -255.0242981 218.32484283 -255.23150635 217.32441711 C-255.64771471 214.70714328 -255.74005481 212.27365765 -255.66015625 209.62890625 C-253.74503353 209.12302478 -251.82798703 208.62442234 -249.91015625 208.12890625 C-248.30914062 207.71125 -248.30914062 207.71125 -246.67578125 207.28515625 C-243.66015625 206.62890625 -243.66015625 206.62890625 -239.66015625 206.62890625 C-236.99769634 216.99586087 -234.57632319 227.37962042 -232.42578125 237.8671875 C-232.14024098 239.24965092 -231.85449014 240.63207086 -231.56854248 242.01445007 C-230.97827954 244.87174459 -230.39034144 247.72950389 -229.80419922 250.58764648 C-229.05315936 254.24900442 -228.29633965 257.90914047 -227.53787613 261.56896687 C-226.95064179 264.40546815 -226.36626039 267.24255122 -225.78276825 270.07982445 C-225.50452398 271.43120028 -225.22542401 272.78240022 -224.9454422 274.13341713 C-224.55742163 276.0080274 -224.17362829 277.88351116 -223.79003906 279.7590332 C-223.57116028 280.82330032 -223.35228149 281.88756744 -223.12677002 282.98408508 C-222.66015625 285.62890625 -222.66015625 285.62890625 -222.66015625 288.62890625 C-218.04015625 288.62890625 -213.42015625 288.62890625 -208.66015625 288.62890625 C-208.86060547 287.66868561 -209.06105469 286.70846497 -209.26757812 285.71914673 C-211.15332255 276.68448708 -213.03698052 267.64939464 -214.9185791 258.61387062 C-215.88607032 253.968271 -216.85430454 249.32282878 -217.82421875 244.67773438 C-218.75963081 240.19774195 -219.69311469 235.71735179 -220.62524414 231.23667526 C-220.98180012 229.52445441 -221.33905909 227.8123798 -221.69702148 226.10045242 C-222.19699314 223.70878658 -222.6944974 221.31662018 -223.19140625 218.92431641 C-223.34101807 218.21150009 -223.49062988 217.49868378 -223.64477539 216.76426697 C-224.66015625 211.85701057 -224.66015625 211.85701057 -224.66015625 209.62890625 C-222.57814097 209.12344589 -220.49448558 208.6247379 -218.41015625 208.12890625 C-216.66992188 207.71125 -216.66992188 207.71125 -214.89453125 207.28515625 C-211.66015625 206.62890625 -211.66015625 206.62890625 -207.66015625 206.62890625 C-203.37615403 225.89178608 -199.2560134 245.18702576 -195.22265625 264.50390625 C-194.99588196 265.58671875 -194.76910767 266.66953125 -194.53546143 267.78515625 C-193.88861783 270.87584608 -193.24460332 273.96711076 -192.6015625 277.05859375 C-192.40501572 277.99677948 -192.20846893 278.93496521 -192.00596619 279.90158081 C-191.82812088 280.76018707 -191.65027557 281.61879333 -191.46704102 282.50341797 C-191.31050552 283.25517303 -191.15397003 284.0069281 -190.99269104 284.78146362 C-190.66015625 286.62890625 -190.66015625 286.62890625 -190.66015625 288.62890625 C-162.61015625 288.62890625 -134.56015625 288.62890625 -105.66015625 288.62890625 C-105.69496094 281.67957031 -105.72976562 274.73023438 -105.765625 267.5703125 C-105.78097531 263.13605917 -105.79541873 258.70183916 -105.80664062 254.26757812 C-105.82449048 247.24789524 -105.84547837 240.22833109 -105.88647461 233.20874023 C-105.91935958 227.54175971 -105.93706999 221.87490673 -105.94478798 216.20783806 C-105.95027967 214.05877618 -105.96100151 211.90972032 -105.97734642 209.76071358 C-106.22448358 175.88290356 -97.41142471 148.19191157 -73.91015625 123.44140625 C-63.95588455 113.84882215 -52.270333 106.50824165 -40.35546875 99.61914062 C-37.03907927 97.68203294 -33.78247457 95.64420853 -30.515625 93.625 C-28.66015625 92.62890625 -28.66015625 92.62890625 -26.66015625 92.62890625 C-26.66015625 88.66890625 -26.66015625 84.70890625 -26.66015625 80.62890625 C-29.30015625 80.62890625 -31.94015625 80.62890625 -34.66015625 80.62890625 C-34.72991159 72.94411418 -34.78309647 65.25935527 -34.81559277 57.57431793 C-34.83119572 54.00516004 -34.85233443 50.43622003 -34.88647461 46.8671875 C-34.91926159 43.41771832 -34.93704957 39.96845768 -34.94478798 36.5188446 C-34.95296356 34.57356889 -34.9763517 32.62837613 -35.00004578 30.68322754 C-35.00186554 21.04089119 -33.56542496 12.82486215 -26.66015625 5.62890625 C-18.96732562 -0.96090213 -9.51289407 -0.08347151 0 0 Z " fill="#F3B479" transform="translate(311.66015625,-0.62890625)"/>
<path d="M0 0 C1.71675263 -0.00083002 3.43350516 -0.00329442 5.1502533 -0.00730896 C8.73526134 -0.01015645 12.319641 0.00443221 15.90454102 0.03198242 C20.48314653 0.06608958 25.06063137 0.06002857 29.63929081 0.04131985 C33.17997971 0.03071637 36.72041099 0.03971749 40.26107597 0.05470467 C41.94864574 0.05986068 43.6362427 0.05943626 45.32380867 0.05315971 C62.86245 0.01239954 62.86245 0.01239954 70.328125 6.3046875 C70.76511719 6.84480469 71.20210937 7.38492187 71.65234375 7.94140625 C72.32716797 8.73998047 72.32716797 8.73998047 73.015625 9.5546875 C77.89767358 17.20179014 77.73922694 23.98347395 77.6328125 32.875 C77.62720918 34.25504594 77.62294256 35.6350979 77.61994934 37.01515198 C77.60855831 40.62707327 77.5791418 44.238626 77.5458374 47.85040283 C77.51501168 51.54409806 77.50141744 55.23785352 77.48632812 58.93164062 C77.45426556 66.16422955 77.40314014 73.39651603 77.33984375 80.62890625 C74.69984375 80.62890625 72.05984375 80.62890625 69.33984375 80.62890625 C68.58251717 84.73564629 68.71102287 87.75615087 70.33984375 91.62890625 C74.54600449 95.45610849 80.00450009 97.80259656 85.02099609 100.38623047 C88.58463095 102.29599057 91.9309158 104.48990421 95.27734375 106.75390625 C95.89939697 107.17454346 96.5214502 107.59518066 97.16235352 108.02856445 C124.32447515 126.60514584 140.95779931 149.97323037 147.877738 182.12835884 C148.53051068 187.073248 148.47368617 191.95986184 148.46009827 196.94235229 C148.4613799 198.65900878 148.4613799 198.65900878 148.46268743 200.4103452 C148.46433531 204.24737493 148.45883213 208.08436101 148.45336914 211.92138672 C148.45253025 214.67100553 148.45320131 217.42062349 148.45381165 220.17024231 C148.45433563 226.09114916 148.45120187 232.01204499 148.44557381 237.93294907 C148.4374419 246.49354978 148.43484185 255.05414517 148.43358582 263.61474933 C148.43139796 277.50423695 148.42474508 291.39371869 148.4152832 305.28320312 C148.40610221 318.77441377 148.3990362 332.26562281 148.39477539 345.75683594 C148.39450739 346.5971113 148.3942394 347.43738666 148.39396328 348.3031249 C148.39188382 354.87476823 148.38992691 361.44641159 148.38800871 368.01805496 C148.37857745 400.22167745 148.35845856 432.42528523 148.33984375 464.62890625 C80.35984375 464.62890625 12.37984375 464.62890625 -57.66015625 464.62890625 C-57.66015625 426.67890625 -57.66015625 388.72890625 -57.66015625 349.62890625 C-55.74279404 353.46363066 -55.11432187 356.14106521 -54.41015625 360.31640625 C-50.01635664 383.92579498 -38.57011729 408.05671782 -18.96484375 422.6328125 C-9.86980797 428.70039208 -0.73689794 432.12810167 10.33984375 431.62890625 C14.80772185 430.62129898 19.04979439 429.22147133 23.33984375 427.62890625 C26.33984375 426.62890625 26.33984375 426.62890625 28.1796875 427.37109375 C28.87191406 427.74492187 29.56414062 428.11875 30.27734375 428.50390625 C38.78890938 432.45668835 47.4075852 432.34266983 56.328125 429.765625 C76.09325198 422.30563544 88.58948288 405.64371696 97.27880859 387.10205078 C108.08588741 361.91205805 113.16232314 331.80406972 103.5234375 305.46484375 C98.08017501 292.42257126 91.02504357 282.65458524 77.94140625 276.6875 C69.24455297 273.14869033 58.70446113 273.22510807 49.96484375 276.69140625 C43.26940506 279.89792927 37.15397007 284.01578895 31.71484375 289.06640625 C29.02499983 290.8360404 26.87614871 291.49379595 23.63671875 291.34765625 C19.40261505 290.02269863 16.42541622 286.84768099 13.1484375 283.95703125 C3.17233812 275.68755248 -7.99565043 273.61885364 -20.66015625 274.62890625 C-30.03109266 276.51263138 -37.81438605 281.68113173 -43.6640625 289.20703125 C-50.40965703 299.4055543 -54.31973234 309.66039699 -56.66015625 321.62890625 C-56.99015625 321.62890625 -57.32015625 321.62890625 -57.66015625 321.62890625 C-57.66015625 305.45890625 -57.66015625 289.28890625 -57.66015625 272.62890625 C-73.50015625 272.62890625 -89.34015625 272.62890625 -105.66015625 272.62890625 C-105.78048268 252.59678425 -105.78048268 252.59678425 -105.80664062 243.95507812 C-105.82446615 238.09423515 -105.84538606 232.23353483 -105.88647461 226.37280273 C-105.9194454 221.63949474 -105.93708739 216.90634006 -105.94478798 212.17292595 C-105.95026468 210.38111907 -105.96095561 208.58931909 -105.97734642 206.79757881 C-106.26305918 174.22327569 -96.4067415 147.13382327 -73.91015625 123.44140625 C-63.95588455 113.84882215 -52.270333 106.50824165 -40.35546875 99.61914062 C-37.03907927 97.68203294 -33.78247457 95.64420853 -30.515625 93.625 C-28.66015625 92.62890625 -28.66015625 92.62890625 -26.66015625 92.62890625 C-26.66015625 88.66890625 -26.66015625 84.70890625 -26.66015625 80.62890625 C-29.30015625 80.62890625 -31.94015625 80.62890625 -34.66015625 80.62890625 C-34.72991159 72.94411418 -34.78309647 65.25935527 -34.81559277 57.57431793 C-34.83119572 54.00516004 -34.85233443 50.43622003 -34.88647461 46.8671875 C-34.91926159 43.41771832 -34.93704957 39.96845768 -34.94478798 36.5188446 C-34.95296356 34.57356889 -34.9763517 32.62837613 -35.00004578 30.68322754 C-35.00186554 21.04089119 -33.56542496 12.82486215 -26.66015625 5.62890625 C-18.96732562 -0.96090213 -9.51289407 -0.08347151 0 0 Z " fill="#F4E290" transform="translate(311.66015625,-0.62890625)"/>
<path d="M0 0 C1.71675263 -0.00083002 3.43350516 -0.00329442 5.1502533 -0.00730896 C8.73526134 -0.01015645 12.319641 0.00443221 15.90454102 0.03198242 C20.48314653 0.06608958 25.06063137 0.06002857 29.63929081 0.04131985 C33.17997971 0.03071637 36.72041099 0.03971749 40.26107597 0.05470467 C41.94864574 0.05986068 43.6362427 0.05943626 45.32380867 0.05315971 C62.86245 0.01239954 62.86245 0.01239954 70.328125 6.3046875 C70.76511719 6.84480469 71.20210937 7.38492187 71.65234375 7.94140625 C72.32716797 8.73998047 72.32716797 8.73998047 73.015625 9.5546875 C77.89767358 17.20179014 77.73922694 23.98347395 77.6328125 32.875 C77.62720918 34.25504594 77.62294256 35.6350979 77.61994934 37.01515198 C77.60855831 40.62707327 77.5791418 44.238626 77.5458374 47.85040283 C77.51501168 51.54409806 77.50141744 55.23785352 77.48632812 58.93164062 C77.45426556 66.16422955 77.40314014 73.39651603 77.33984375 80.62890625 C74.69984375 80.62890625 72.05984375 80.62890625 69.33984375 80.62890625 C68.58251717 84.73564629 68.71102287 87.75615087 70.33984375 91.62890625 C74.54600449 95.45610849 80.00450009 97.80259656 85.02099609 100.38623047 C88.58463095 102.29599057 91.9309158 104.48990421 95.27734375 106.75390625 C95.89939697 107.17454346 96.5214502 107.59518066 97.16235352 108.02856445 C122.1104321 125.09092866 138.70798996 146.39104723 146.61328125 175.640625 C147.63341536 181.2403934 147.90329256 186.95374081 148.33984375 192.62890625 C65.17984375 192.95890625 -17.98015625 193.28890625 -103.66015625 193.62890625 C-103.99015625 196.59890625 -104.32015625 199.56890625 -104.66015625 202.62890625 C-104.99015625 202.62890625 -105.32015625 202.62890625 -105.66015625 202.62890625 C-107.04782323 173.076739 -95.51122048 147.67554888 -76.26171875 125.91796875 C-65.93964889 115.04721743 -53.25059416 107.07502261 -40.35546875 99.61914062 C-37.03907927 97.68203294 -33.78247457 95.64420853 -30.515625 93.625 C-28.66015625 92.62890625 -28.66015625 92.62890625 -26.66015625 92.62890625 C-26.66015625 88.66890625 -26.66015625 84.70890625 -26.66015625 80.62890625 C-29.30015625 80.62890625 -31.94015625 80.62890625 -34.66015625 80.62890625 C-34.72991159 72.94411418 -34.78309647 65.25935527 -34.81559277 57.57431793 C-34.83119572 54.00516004 -34.85233443 50.43622003 -34.88647461 46.8671875 C-34.91926159 43.41771832 -34.93704957 39.96845768 -34.94478798 36.5188446 C-34.95296356 34.57356889 -34.9763517 32.62837613 -35.00004578 30.68322754 C-35.00186554 21.04089119 -33.56542496 12.82486215 -26.66015625 5.62890625 C-18.96732562 -0.96090213 -9.51289407 -0.08347151 0 0 Z " fill="#F4B077" transform="translate(311.66015625,-0.62890625)"/>
<path d="M0 0 C4.20551288 2.79535574 7.90888052 5.96210586 11.5625 9.4375 C14.316333 11.20277757 16.49919688 11.80974708 19.78515625 11.64453125 C23.61304604 10.53059507 26.17926344 7.82708623 29.13671875 5.2421875 C39.79109921 -3.10107906 51.64033418 -6.39302648 65 -5 C75.75329111 -2.4456261 84.0237708 4.44596465 90.3125 13.375 C102.8885074 33.87318155 104.82799799 58.40184501 99.39697266 81.57275391 C94.67922705 100.0130292 88.31208791 117.23095441 76 132 C75.49082031 132.66644531 74.98164063 133.33289063 74.45703125 134.01953125 C66.04407642 144.55130434 53.36449786 152.34920479 39.9375 153.875 C33.13494932 154.24129119 27.56076422 153.39678048 21.5625 150.125 C16.86463589 148.64146397 14.99890335 149.95480377 10.6640625 151.92578125 C1.2595359 155.71792907 -8.05024119 153.65510152 -17.21875 150.15234375 C-37.10671537 141.03702629 -49.98969292 120.66122463 -57.59375 100.953125 C-66.44093892 76.86059778 -69.62170057 46.99459571 -59 23 C-53.44637506 11.26494904 -46.73319087 2.96329756 -35 -3 C-23.01115333 -7.12030478 -11.1297847 -5.90439507 0 0 Z " fill="#EC7469" transform="translate(319,278)"/>
<path d="M0 0 C15.84 0 31.68 0 48 0 C48.14465028 7.10852788 48.28774961 14.21705682 48.42724609 21.32568359 C48.47489822 23.7322761 48.52336993 26.13885256 48.57275391 28.54541016 C48.64453706 32.05106518 48.71313801 35.55677193 48.78125 39.0625 C48.80312378 40.09793945 48.82499756 41.13337891 48.84753418 42.20019531 C49.23995745 62.96309717 48.97144926 83.73622488 48.78125 104.5 C48.76129748 106.75911374 48.74144085 109.01822833 48.72167969 111.27734375 C48.64893957 119.51823943 48.57436624 127.75911884 48.5 136 C48.335 154.48 48.17 172.96 48 192 C115.98 192 183.96 192 254 192 C254 208.18894552 253.84743813 217.63704005 243 229 C231.50915682 239.96951948 219.32918365 240.59092129 204.28491211 240.51757812 C202.4079077 240.52300651 200.53090757 240.53013317 198.65391541 240.53881836 C193.58370172 240.55696816 188.51381561 240.5500191 183.4435966 240.53730202 C178.12316084 240.52713247 172.802752 240.5365785 167.48231506 240.54284668 C158.55090327 240.55011096 149.61962406 240.54056675 140.68823242 240.52148438 C130.37878613 240.49971137 120.06965625 240.50677511 109.76021761 240.52879 C100.88939717 240.5469708 92.01867171 240.54948941 83.14783865 240.53903532 C77.858073 240.53281599 72.56845585 240.53192186 67.27869987 240.54518127 C62.30529226 240.55677844 57.33229075 240.54864357 52.35892677 240.52560425 C50.53932238 240.52033806 48.71968352 240.52179492 46.90009308 240.53065491 C35.22963872 240.58222041 25.9542484 239.6361656 16 233 C16.86625 232.030625 17.7325 231.06125 18.625 230.0625 C30.09261922 216.53450475 31.44916509 204.4789391 31.43237305 187.30981445 C31.44140258 185.43628803 31.4517327 183.5627675 31.46325684 181.68925476 C31.49071301 176.63220035 31.50009584 171.57525838 31.50611091 166.51813912 C31.51552431 161.2223496 31.54173004 155.92664308 31.56611633 150.63090515 C31.60970358 140.61565248 31.63829826 130.600416 31.66143972 120.58509749 C31.68853313 109.17751446 31.73244205 97.77001526 31.77772844 86.3624922 C31.87046334 62.90837186 31.94159866 39.4542288 32 16 C21.44 16 10.88 16 0 16 C0 10.72 0 5.44 0 0 Z " fill="#F4A571" transform="translate(206,272)"/>
<path d="M0 0 C1.71675263 -0.00083002 3.43350516 -0.00329442 5.1502533 -0.00730896 C8.73526134 -0.01015645 12.319641 0.00443221 15.90454102 0.03198242 C20.48314653 0.06608958 25.06063137 0.06002857 29.63929081 0.04131985 C33.17997971 0.03071637 36.72041099 0.03971749 40.26107597 0.05470467 C41.94864574 0.05986068 43.6362427 0.05943626 45.32380867 0.05315971 C62.86245 0.01239954 62.86245 0.01239954 70.328125 6.3046875 C70.76511719 6.84480469 71.20210938 7.38492187 71.65234375 7.94140625 C72.10222656 8.47378906 72.55210937 9.00617187 73.015625 9.5546875 C77.92169319 17.23941377 77.73853174 23.90051904 77.6328125 32.875 C77.62979126 34.08675903 77.62677002 35.29851807 77.62365723 36.54699707 C77.60801582 41.05355401 77.566132 45.5599891 77.52734375 50.06640625 C77.46546875 60.15203125 77.40359375 70.23765625 77.33984375 80.62890625 C40.37984375 80.62890625 3.41984375 80.62890625 -34.66015625 80.62890625 C-34.72203125 70.89390625 -34.78390625 61.15890625 -34.84765625 51.12890625 C-34.87496826 48.06931641 -34.90228027 45.00972656 -34.93041992 41.85742188 C-34.93918653 39.41667068 -34.94683006 36.97591507 -34.953125 34.53515625 C-34.9684729 33.28057617 -34.9838208 32.02599609 -34.99963379 30.73339844 C-35.00251155 21.07179576 -33.58098963 12.84108204 -26.66015625 5.62890625 C-18.96732562 -0.96090213 -9.51289407 -0.08347151 0 0 Z " fill="#F5E393" transform="translate(311.66015625,-0.62890625)"/>
<path d="M0 0 C38.61 0 77.22 0 117 0 C117 21.12 117 42.24 117 64 C82.35 64 47.7 64 12 64 C0 4 0 4 0 0 Z " fill="#DADADA" transform="translate(121,288)"/>
<path d="M0 0 C26.5095185 1.0540564 59.71726657 5.67958692 78.88671875 26 C80.29853739 27.63231246 81.65601184 29.31139949 83 31 C86.01033512 29.66713024 87.87638334 28.25580686 90.0625 25.8125 C98.22721804 17.42049859 109.61532283 11.57766275 121 9 C122.98 9 124.96 9 127 9 C127 14.28 127 19.56 127 25 C125.22625 25.53625 123.4525 26.0725 121.625 26.625 C109.63172493 30.63219816 100.77921869 37.28808538 94 48 C91.07521359 54.08512608 89.04806516 60.57652292 87 67 C82.48285187 67.76706289 80.20781528 67.83990721 76.37109375 65.171875 C74.50624389 63.56964269 72.65238413 61.95454758 70.80859375 60.328125 C60.83249437 52.05864623 49.66450582 49.98994739 37 51 C28.44101698 52.72050804 22.41450949 57.26729304 16 63 C12.3087143 60.53914286 11.51229569 58.00038864 10.0625 54 C9.80235107 53.29085449 9.54220215 52.58170898 9.27416992 51.85107422 C6.40428949 43.73379262 4.59359585 35.44765694 3 27 C2.84901855 26.20674316 2.69803711 25.41348633 2.54248047 24.59619141 C2.09668515 22.21236465 1.66861685 19.82624022 1.25 17.4375 C1.12214111 16.72416504 0.99428223 16.01083008 0.86254883 15.27587891 C0.0099922 10.1341405 -0.10248561 5.21139312 0 0 Z " fill="#BCCC5B" transform="translate(254,223)"/>
<path d="M0 0 C15.84 0 31.68 0 48 0 C48.14465028 7.10852788 48.28774961 14.21705682 48.42724609 21.32568359 C48.47489822 23.7322761 48.52336993 26.13885256 48.57275391 28.54541016 C48.64453706 32.05106518 48.71313801 35.55677193 48.78125 39.0625 C48.80312378 40.09793945 48.82499756 41.13337891 48.84753418 42.20019531 C49.2399576 62.9631054 48.97135086 83.73621379 48.78125 104.5 C48.7587375 107.04402588 48.73631907 109.58805259 48.71398926 112.13208008 C48.66164361 118.07054569 48.60837182 124.00900239 48.5546174 129.94745541 C48.4933074 136.72659376 48.43323212 143.50574289 48.37324238 150.28489304 C48.25016776 164.18994081 48.12555783 178.09497445 48 192 C42.72 192 37.44 192 32 192 C32 133.92 32 75.84 32 16 C21.44 16 10.88 16 0 16 C0 10.72 0 5.44 0 0 Z " fill="#E8D070" transform="translate(206,272)"/>
<path d="M0 0 C8.44275667 37.36785986 16.01689014 74.95149564 23.18237305 112.58374023 C24.63664776 120.21130816 26.18017932 127.81468586 27.88476562 135.390625 C28.69951647 139.10109204 29 142.14475561 29 146 C24.05 146 19.1 146 14 146 C11.96067922 140.14561844 10.29764073 134.4064752 9.0625 128.3359375 C8.8962915 127.54079742 8.73008301 126.74565735 8.55883789 125.92642212 C8.03420428 123.41029385 7.51702369 120.89270165 7 118.375 C6.65412508 116.71213983 6.30777403 115.04937862 5.9609375 113.38671875 C4.67775458 107.21894102 3.39674118 101.05093342 2.1875 94.86816406 C1.94 93.60456055 1.6925 92.34095703 1.4375 91.0390625 C1.22996094 89.96092285 1.02242187 88.8827832 0.80859375 87.77197266 C0.14380133 84.67081235 -0.59568908 81.61677974 -1.38012695 78.54492188 C-3.24682971 71.15446519 -4.8035846 63.70336803 -6.35546875 56.2421875 C-6.66491639 54.76194209 -6.97451495 53.28172823 -7.28425598 51.80154419 C-7.92693577 48.72770964 -8.56797096 45.65353829 -9.20776367 42.57910156 C-10.02858549 38.63531805 -10.85336754 34.69237491 -11.67931652 30.7496624 C-12.31645702 27.70631413 -12.95166614 24.66256533 -13.58626747 21.61868668 C-13.88991762 20.16327161 -14.19414301 18.70797643 -14.49895287 17.2528038 C-14.92206932 15.23127348 -15.34261502 13.20922547 -15.76245117 11.18701172 C-16.12194099 9.46259354 -16.12194099 9.46259354 -16.48869324 7.70333862 C-17 5 -17 5 -17 3 C-14.91798472 2.49453964 -12.83432933 1.99583165 -10.75 1.5 C-9.58984375 1.2215625 -8.4296875 0.943125 -7.234375 0.65625 C-4 0 -4 0 0 0 Z " fill="#E47A70" transform="translate(104,206)"/>
<path d="M0 0 C3.89995426 14.56323106 6.85747969 29.33015292 9.88303757 44.09379578 C10.31651781 46.20708753 10.75144735 48.32007624 11.1867981 50.4329834 C14.71713312 67.57213462 18.16650274 84.72224829 21.33978271 101.93167114 C23.385868 113.02606713 25.68164846 124.03501436 28.22436523 135.02636719 C28.45841064 136.04118164 28.69245605 137.05599609 28.93359375 138.1015625 C29.14040771 138.98150879 29.34722168 139.86145508 29.56030273 140.76806641 C30 143 30 143 30 146 C24.72 146 19.44 146 14 146 C12.78437011 142.35311034 11.73420506 139.17165836 10.98193359 135.48388672 C10.8073764 134.63809052 10.63281921 133.79229431 10.45297241 132.92086792 C10.26997589 132.01627838 10.08697937 131.11168884 9.8984375 130.1796875 C9.70118073 129.22119904 9.50392395 128.26271057 9.3006897 127.275177 C8.87692908 125.21580843 8.45464354 123.15613589 8.03369141 121.09619141 C6.91432199 115.62215135 5.78234982 110.15073124 4.6484375 104.6796875 C4.42154236 103.58485046 4.19464722 102.49001343 3.96087646 101.36199951 C2.05977586 92.22138709 0.05518558 83.10699287 -2 74 C-5.04498455 60.46965841 -7.96369746 46.91429972 -10.81152344 33.34106445 C-11.26747407 31.16980166 -11.72513346 28.99889693 -12.18457031 26.82836914 C-12.82611448 23.79418459 -13.46091008 20.75866659 -14.09375 17.72265625 C-14.28706909 16.81290543 -14.48038818 15.9031546 -14.67956543 14.96583557 C-15.51470773 10.92239021 -16.26161393 7.15526548 -16 3 C-14.08487728 2.49411853 -12.16783078 1.99551609 -10.25 1.5 C-8.64898437 1.08234375 -8.64898437 1.08234375 -7.015625 0.65625 C-4 0 -4 0 0 0 Z " fill="#E57A70" transform="translate(72,206)"/>
<path d="M0 0 C8.25 0 16.5 0 25 0 C29.29 21.12 33.58 42.24 38 64 C25.46 64 12.92 64 0 64 C0 42.88 0 21.76 0 0 Z " fill="#DBDADA" transform="translate(48,288)"/>
<path d="M0 0 C0 5.28 0 10.56 0 16 C-1.77375 16.53625 -3.5475 17.0725 -5.375 17.625 C-17.36827507 21.63219816 -26.22078131 28.28808538 -33 39 C-35.92478641 45.08512608 -37.95193484 51.57652292 -40 58 C-44.46133478 58.38459783 -47.77651717 58.66369291 -51.5625 56.0625 C-54.40702327 52.48861178 -54.40702327 52.48861178 -54.1875 48.9375 C-51.36473759 34.13640669 -42.55017139 19.90442021 -30.36328125 11.09375 C-20.93952558 4.8901061 -11.47223393 0 0 0 Z " fill="#A6B038" transform="translate(381,232)"/>
<path d="M0 0 C4.95 0 9.9 0 15 0 C17.65754697 8.2092178 19.36331267 16.46287262 20.9375 24.9375 C21.4569361 27.69322244 21.98012432 30.44822565 22.50390625 33.203125 C22.63144287 33.87615158 22.75897949 34.54917816 22.89038086 35.24259949 C24.11496283 41.67367285 25.45947442 48.07666243 26.88256836 54.46655273 C27.60313826 57.76673958 28 60.59652928 28 64 C23.05 64 18.1 64 13 64 C10.17084063 53.31206461 7.9035656 42.61646363 5.86767578 31.75 C4.4597139 24.26999772 2.9212303 16.83704669 1.16796875 9.43017578 C0.40514111 6.14922232 0 3.39814828 0 0 Z " fill="#DAD8D8" transform="translate(89,288)"/>
<path d="M0 0 C0.33 0 0.66 0 1 0 C1.08107583 1.93681161 1.13922475 3.8745934 1.1875 5.8125 C1.22230469 6.89144531 1.25710938 7.97039062 1.29296875 9.08203125 C1 12 1 12 -0.38671875 13.88671875 C-2 15 -2 15 -4 15 C-2.07289294 4.44191344 -2.07289294 4.44191344 0 0 Z " fill="#C4CE6B" transform="translate(346,273)"/>
</svg>
