<?xml version="1.0" encoding="UTF-8"?>
<svg id="Layer_1" xmlns="http://www.w3.org/2000/svg" viewBox="0 0 534.16 568.28">
  <defs>
    <style>
      .cls-1 {
        fill: #ed7d7a;
      }

      .cls-2 {
        fill: #ea5a54;
      }

      .cls-3 {
        fill: #8e6d45;
      }

      .cls-4 {
        fill: #80c041;
      }

      .cls-5 {
        fill: #d84037;
      }
    </style>
  </defs>
  <path class="cls-2" d="M282.14,180.48c61.14-31.36,121.8-33.4,180.32,5.61,66.02,44.01,90.5,131.91,56.28,203.65-19.19,40.25-41.98,78.98-68.95,114.42-40.91,53.78-96.85,72.49-162.92,60.73-12.43-2.21-23.94-3.22-36.73-.59-72.65,14.91-136.52-12.34-176.31-74.8-17.59-27.61-34.14-55.89-50.76-84.1-36.62-62.16-29.05-139.83,18.45-192.25,49.96-55.14,126.38-71.43,192.71-41.16,6.27,2.86,12.73,5.31,19.1,7.95,9.39,11.6,18.99,11.65,28.82.55ZM146.38,355.08c42.11,1.41,59.19-34.83,60.5-60.98,1.5-29.97-28.74-56.58-60.63-56.21-33.33.39-60.05,26.58-59.97,58.8.08,31.98,27.18,58.31,60.1,58.38ZM450.17,389.17c.12-19.05-13.5-33.57-31.48-33.57-17.15,0-35.14,17.56-35.41,34.56-.27,17.61,14.51,31.82,33.19,31.92,20.87.11,33.56-12.29,33.7-32.92ZM391.63,456.2c-1.75-14.13-9.13-25.21-23.2-24.68-14.08.53-24.54,9.48-22.83,26.13,1.37,13.31,8.9,22.98,22.33,22.08,12.9-.86,23.64-7.9,23.7-23.53Z"/>
  <path class="cls-4" d="M317.62,149.67c-15.42,2.69-18.45-6.71-17.24-21.03C306.47,56.23,364.99,1.56,437.37.01c17.14-.37,21.72,6.49,20.11,22.53-7.35,73.14-65.11,126.59-139.86,127.12Z"/>
  <path class="cls-3" d="M282.14,180.48c-9.82,11.1-19.43,11.05-28.82-.55-2.02-26.26-3.68-52.55-6.2-78.76-1.5-15.55.51-29.46,18.99-30.39,19.21-.97,21.57,13.35,20.64,28.72-1.64,26.99-3.08,53.99-4.61,80.98Z"/>
  <path class="cls-1" d="M146.38,355.08c-32.92-.07-60.02-26.4-60.1-58.38-.08-32.22,26.64-58.42,59.97-58.8,31.89-.37,62.14,26.23,60.63,56.21-1.31,26.14-18.39,62.39-60.5,60.98Z"/>
  <path class="cls-5" d="M450.17,389.17c-.13,20.63-12.83,33.03-33.7,32.92-18.69-.1-33.47-14.31-33.19-31.92.26-17,18.25-34.56,35.41-34.56,17.99,0,31.61,14.52,31.48,33.57Z"/>
  <path class="cls-5" d="M391.63,456.2c-.06,15.63-10.8,22.67-23.7,23.53-13.42.9-20.95-8.77-22.33-22.08-1.72-16.65,8.75-25.6,22.83-26.13,14.06-.53,21.45,10.55,23.2,24.68Z"/>
</svg>