<?xml version="1.0" encoding="UTF-8"?>
<!DOCTYPE svg PUBLIC "-//W3C//DTD SVG 1.1//EN" "http://www.w3.org/Graphics/SVG/1.1/DTD/svg11.dtd">
<svg xmlns="http://www.w3.org/2000/svg" version="1.1" width="512px" height="512px" style="shape-rendering:geometricPrecision; text-rendering:geometricPrecision; image-rendering:optimizeQuality; fill-rule:evenodd; clip-rule:evenodd" xmlns:xlink="http://www.w3.org/1999/xlink">
<g><path style="opacity:1" fill="#c86d36" d="M 248.5,-0.5 C 253.167,-0.5 257.833,-0.5 262.5,-0.5C 275.482,4.7887 280.649,14.4554 278,28.5C 276.089,40.7907 274.589,53.124 273.5,65.5C 271.794,77.4173 270.794,89.4173 270.5,101.5C 270.5,104.5 270.5,107.5 270.5,110.5C 263.69,108.012 257.023,105.345 250.5,102.5C 251.214,75.5184 253.548,48.6851 257.5,22C 257.488,13.1671 253.822,6.33372 246.5,1.5C 247.167,0.833333 247.833,0.166667 248.5,-0.5 Z"/></g>
<g><path style="opacity:0.985" fill="#d67e49" d="M 246.5,1.5 C 253.822,6.33372 257.488,13.1671 257.5,22C 253.548,48.6851 251.214,75.5184 250.5,102.5C 244.88,101.434 239.547,99.7673 234.5,97.5C 232.164,70.5134 231.997,43.5134 234,16.5C 235.484,9.18871 239.651,4.18871 246.5,1.5 Z"/></g>
<g><path style="opacity:0.994" fill="#01c179" d="M 355.5,39.5 C 350.019,65.8248 335.019,84.6581 310.5,96C 297.613,101.548 284.279,103.381 270.5,101.5C 270.794,89.4173 271.794,77.4173 273.5,65.5C 295.388,39.7601 322.721,31.0934 355.5,39.5 Z"/></g>
<g><path style="opacity:1" fill="#0fb865" d="M 355.5,39.5 C 361.214,40.6068 366.381,42.9401 371,46.5C 369.367,68.4349 359.867,86.1016 342.5,99.5C 340.147,100.34 338.147,101.674 336.5,103.5C 316.3,115.434 294.966,118.1 272.5,111.5C 271.508,111.672 270.842,111.338 270.5,110.5C 270.5,107.5 270.5,104.5 270.5,101.5C 284.279,103.381 297.613,101.548 310.5,96C 335.019,84.6581 350.019,65.8248 355.5,39.5 Z"/></g>
<g><path style="opacity:0.998" fill="#fe9737" d="M 216.5,95.5 C 271.989,112.149 310.489,147.483 332,201.5C 357.686,277.365 351.686,350.699 314,421.5C 290.913,462.286 257.413,490.786 213.5,507C 206.37,507.958 199.37,508.792 192.5,509.5C 158.393,502.781 128.727,487.614 103.5,464C 49.2141,409.172 24.0475,343.006 28,265.5C 33.6981,203.561 61.8647,155.061 112.5,120C 144.734,101.776 179.401,93.609 216.5,95.5 Z"/></g>
<g><path style="opacity:1" fill="#fd860b" d="M 216.5,95.5 C 222.5,96.1667 228.5,96.8333 234.5,97.5C 239.547,99.7673 244.88,101.434 250.5,102.5C 257.023,105.345 263.69,108.012 270.5,110.5C 270.842,111.338 271.508,111.672 272.5,111.5C 323.839,142.403 354.672,187.736 365,247.5C 375.308,311.617 364.642,371.95 333,428.5C 319.703,450.466 302.869,469.299 282.5,485C 273.435,490.857 264.435,496.691 255.5,502.5C 248.321,506.097 240.988,509.097 233.5,511.5C 223.167,511.5 212.833,511.5 202.5,511.5C 199.411,510.215 196.078,509.549 192.5,509.5C 199.37,508.792 206.37,507.958 213.5,507C 257.413,490.786 290.913,462.286 314,421.5C 351.686,350.699 357.686,277.365 332,201.5C 310.489,147.483 271.989,112.149 216.5,95.5 Z"/></g>
<g><path style="opacity:1" fill="#fe860b" d="M 342.5,99.5 C 385.77,107.376 420.27,129.043 446,164.5C 482.205,218.387 492.539,277.054 477,340.5C 464.495,392.707 438.328,436.541 398.5,472C 372.249,493.624 342.249,506.79 308.5,511.5C 299.833,511.5 291.167,511.5 282.5,511.5C 328.611,505.528 367.111,485.195 398,450.5C 449.568,389.245 469.234,318.912 457,239.5C 444.432,182.965 412.932,140.799 362.5,113C 354.062,109.133 345.395,105.966 336.5,103.5C 338.147,101.674 340.147,100.34 342.5,99.5 Z"/></g>
<g><path style="opacity:1" fill="#fd9637" d="M 336.5,103.5 C 345.395,105.966 354.062,109.133 362.5,113C 412.932,140.799 444.432,182.965 457,239.5C 469.234,318.912 449.568,389.245 398,450.5C 367.111,485.195 328.611,505.528 282.5,511.5C 280.833,511.5 279.167,511.5 277.5,511.5C 270.012,509.097 262.679,506.097 255.5,502.5C 264.435,496.691 273.435,490.857 282.5,485C 302.869,469.299 319.703,450.466 333,428.5C 364.642,371.95 375.308,311.617 365,247.5C 354.672,187.736 323.839,142.403 272.5,111.5C 294.966,118.1 316.3,115.434 336.5,103.5 Z"/></g>
</svg>
