<?xml version="1.0" encoding="UTF-8"?>
<svg version="1.1" xmlns="http://www.w3.org/2000/svg" width="512" height="512">
<path d="M0 0 C6.79650398 5.13513634 11.58549268 11.57149921 16.70166016 18.29638672 C18.51123578 20.67081671 20.34951494 23.02252824 22.1875 25.375 C23.12537819 26.58303982 24.06305076 27.79123955 25 29 C25.17015625 28.36191406 25.3403125 27.72382812 25.515625 27.06640625 C25.75796875 26.24011719 26.0003125 25.41382812 26.25 24.5625 C26.59804688 23.32693359 26.59804688 23.32693359 26.953125 22.06640625 C28 20 28 20 29.88671875 19.03125 C32 19 32 19 33.75390625 20.08984375 C49.44279598 36.11758639 58.79325671 56.07792337 66 77 C66.45890625 76.59007813 66.9178125 76.18015625 67.390625 75.7578125 C68.00421875 75.21898438 68.6178125 74.68015625 69.25 74.125 C69.85328125 73.59132813 70.4565625 73.05765625 71.078125 72.5078125 C73.98768433 70.22510944 76.09118907 69.0403916 79.8125 68.875 C91.85264814 73.12446405 99.34424691 93.22968163 104.5625 104 C118 132.44475933 118 132.44475933 118 142 C118.66 142 119.32 142 120 142 C120.391875 140.7625 120.78375 139.525 121.1875 138.25 C122.51563269 134.32795558 123.89598827 130.43032563 125.375 126.5625 C125.75398438 125.55316406 126.13296875 124.54382813 126.5234375 123.50390625 C128.30835226 120.47710635 129.67639966 119.92816264 133 119 C137.66765695 123.01226676 139.51475929 126.85840434 141.5 132.625 C141.94327637 133.87917725 141.94327637 133.87917725 142.39550781 135.15869141 C155.59733584 173.34100986 157.471204 212.41136593 141.453125 250.0234375 C140.10584923 252.78317981 138.60001966 255.3825665 137.0012207 258.00268555 C133.6361614 263.5302801 131.35286683 268.46413351 130 274.8125 C127.27505757 287.52010452 121.64518214 299.25602973 113 309 C112.55527344 309.58523438 112.11054688 310.17046875 111.65234375 310.7734375 C99.30606718 326.68321664 76.48447953 336.15226838 57 339 C56.67 339.99 56.34 340.98 56 342 C50.53488372 347 50.53488372 347 48 347 C48 372.08 48 397.16 48 423 C13.91475403 434.92983609 -12.83479012 436.34277059 -46 423 C-45.99032196 422.08037979 -45.98064392 421.16075958 -45.97067261 420.21327209 C-45.88808849 411.51849276 -45.85385552 402.82512611 -45.87302971 394.12995243 C-45.88120507 389.66013564 -45.87112186 385.19195791 -45.81835938 380.72241211 C-45.76806094 376.40335253 -45.76696853 372.08675118 -45.79904556 367.7675457 C-45.80277781 366.1253979 -45.78920248 364.48311079 -45.75750351 362.84126472 C-45.45219853 353.40666089 -45.45219853 353.40666089 -49.1713562 344.9848938 C-53.88194277 340.62273984 -58.08093234 337.94490026 -64.375 336.75 C-79.72303836 333.32216849 -93.16529209 326.32736129 -105 316 C-105.61488281 315.48050781 -106.22976562 314.96101563 -106.86328125 314.42578125 C-119.44762549 302.94075904 -125.3697031 286.57410086 -129.70214844 270.62207031 C-131.28623744 264.97787039 -133.14249701 260.35650968 -136.4296875 255.46875 C-153.15113781 229.18030075 -154.7578092 192.08313097 -148.55224609 162.41992188 C-141.40727105 131.11090658 -141.40727105 131.11090658 -134 120 C-131.59449168 118.95761306 -130.47861804 118.82815995 -127.9987793 119.71850586 C-125.50015084 121.32047249 -124.97717825 122.57621282 -123.89453125 125.31640625 C-123.55099609 126.16267578 -123.20746094 127.00894531 -122.85351562 127.88085938 C-122.33821289 129.20827148 -122.33821289 129.20827148 -121.8125 130.5625 C-121.11245663 132.31451418 -120.41072367 134.06585452 -119.70703125 135.81640625 C-119.4025708 136.59443604 -119.09811035 137.37246582 -118.78442383 138.17407227 C-118.14116836 139.98235889 -118.14116836 139.98235889 -117 141 C-116.61070312 139.82308594 -116.22140625 138.64617187 -115.8203125 137.43359375 C-97.2451952 82.26957781 -97.2451952 82.26957781 -81 70 C-77.10577669 68.73027664 -76.29326687 68.86108412 -72.4375 70.6875 C-69.54166131 72.41965293 -67.33482833 74.57320907 -65 77 C-64.76667969 76.40058594 -64.53335938 75.80117187 -64.29296875 75.18359375 C-55.72960268 53.91134517 -46.34928327 35.34928327 -30 19 C-28.015625 18.99609375 -28.015625 18.99609375 -26 20 C-24.734375 22.72265625 -24.734375 22.72265625 -23.75 26.0625 C-23.41484375 27.16722656 -23.0796875 28.27195312 -22.734375 29.41015625 C-22.49203125 30.26480469 -22.2496875 31.11945313 -22 32 C-21.61779297 31.42145264 -21.23558594 30.84290527 -20.84179688 30.24682617 C-6.80066176 9.01826886 -6.80066176 9.01826886 0 0 Z " fill="#64B035" transform="translate(255,37)"/>
<path d="M0 0 C3.34505142 1.95807888 6.12360543 4.4151319 9 7 C9.804375 7.68578125 10.60875 8.3715625 11.4375 9.078125 C26.79228594 22.41759529 38.32264894 38.24022879 48 56 C49.32379985 58.33892661 50.66119776 60.66960137 52 63 C52.54527344 62.566875 53.09054688 62.13375 53.65234375 61.6875 C58.1745971 58.34798984 61.84052093 55.96854997 67.58203125 56.32421875 C72.63221559 57.73565961 76.81418865 60.93301299 81 64 C81.12955078 62.98873047 81.12955078 62.98873047 81.26171875 61.95703125 C82.20235766 58.1894987 83.90848725 55.03692458 85.8125 51.6875 C86.40538818 50.64287598 86.40538818 50.64287598 87.01025391 49.57714844 C94.44290012 36.8199206 103.79485395 25.61335189 114 15 C114.58910156 14.34773437 115.17820312 13.69546875 115.78515625 13.0234375 C119.31637225 9.2232591 123.31072163 6.10628183 127.5 3.0625 C128.5621875 2.29035156 129.624375 1.51820313 130.71875 0.72265625 C134.54609607 -1.28670044 136.73513057 -1.56038401 141 -1 C158.18160011 8.00552833 171.32662204 38.50969666 177 56 C177 56.99 177 57.98 177 59 C177.66 59 178.32 59 179 59 C179.226875 58.34 179.45375 57.68 179.6875 57 C184.08 46.96 184.08 46.96 188 45 C193.19815668 44.55760369 193.19815668 44.55760369 195.8125 46 C202.44189957 57.16530454 199.56108002 84.59323067 196.94140625 97.18359375 C195.6874637 101.96102973 194.00158012 106.48917759 192 111 C191.67902344 111.73750488 191.35804688 112.47500977 191.02734375 113.23486328 C187.53793062 121.07406934 183.593065 128.44368492 178 135 C177.5771875 135.56460938 177.154375 136.12921875 176.71875 136.7109375 C164.31860064 152.64368755 141.54531314 162.14337731 122 165 C121.67 165.99 121.34 166.98 121 168 C115.53488372 173 115.53488372 173 113 173 C113 198.08 113 223.16 113 249 C78.91475403 260.92983609 52.16520988 262.34277059 19 249 C19.00967804 248.08037979 19.01935608 247.16075958 19.02932739 246.21327209 C19.11191151 237.51849276 19.14614448 228.82512611 19.12697029 220.12995243 C19.11879493 215.66013564 19.12887814 211.19195791 19.18164062 206.72241211 C19.23193906 202.40335253 19.23303147 198.08675118 19.20095444 193.7675457 C19.19722219 192.1253979 19.21079752 190.48311079 19.24249649 188.84126472 C19.54780147 179.40666089 19.54780147 179.40666089 15.8286438 170.9848938 C11.11805723 166.62273984 6.91906766 163.94490026 0.625 162.75 C-14.72303836 159.32216849 -28.16529209 152.32736129 -40 142 C-40.61488281 141.48050781 -41.22976562 140.96101562 -41.86328125 140.42578125 C-56.45416594 127.10950258 -64.789949 105.33031046 -66 86 C-66.14015533 81.20110702 -66.18583215 76.40718358 -66.18530273 71.60644531 C-66.18750211 69.37285653 -66.20575195 67.13975269 -66.22460938 64.90625 C-66.22754207 63.4661475 -66.22952769 62.02604268 -66.23046875 60.5859375 C-66.23457764 59.2973584 -66.23868652 58.0087793 -66.24291992 56.68115234 C-65.98163573 52.72171213 -65.33821759 49.72135688 -64 46 C-61.12529507 44.56264754 -59.18105412 44.61827351 -56 45 C-52.24215373 48.64397214 -49.7065228 53.52980047 -47 58 C-44.88194725 55.88194725 -44.2282581 54.44932401 -43.1171875 51.703125 C-42.75882813 50.83365234 -42.40046875 49.96417969 -42.03125 49.06835938 C-41.6496875 48.13830078 -41.268125 47.20824219 -40.875 46.25 C-19.20714622 -5.2985231 -19.20714622 -5.2985231 0 0 Z " fill="#337F04" transform="translate(190,211)"/>
<path d="M0 0 C6.79650398 5.13513634 11.58549268 11.57149921 16.70166016 18.29638672 C18.51123578 20.67081671 20.34951494 23.02252824 22.1875 25.375 C23.12537819 26.58303982 24.06305076 27.79123955 25 29 C25.17015625 28.36191406 25.3403125 27.72382812 25.515625 27.06640625 C25.75796875 26.24011719 26.0003125 25.41382812 26.25 24.5625 C26.48203125 23.73878906 26.7140625 22.91507813 26.953125 22.06640625 C28 20 28 20 29.88671875 19.03125 C32 19 32 19 33.75390625 20.08984375 C46.97985622 33.60145139 56.41300997 50.61647319 63.0625 68.1875 C63.37413086 69.0019458 63.68576172 69.8163916 64.00683594 70.65551758 C64.42304199 71.80636841 64.42304199 71.80636841 64.84765625 72.98046875 C65.09523682 73.66004639 65.34281738 74.33962402 65.59790039 75.03979492 C66.09491949 77.46272531 65.91457638 78.69998179 65 81 C63.40722656 83.0012207 63.40722656 83.0012207 61.390625 85.11328125 C57.04015226 89.85281277 53.37884994 94.88472259 49.75 100.1875 C49.151875 101.05052734 48.55375 101.91355469 47.9375 102.80273438 C44.91463352 107.17318404 41.93089162 111.56738916 39 116 C36.29696887 113.29696887 35.64659762 110.17989225 34.5 106.625 C28.9970888 90.4500923 18.47929919 62.18459626 2 54 C-2.19280869 54.0797786 -5.14611566 57.20819815 -8 60 C-20.53300469 75.35515291 -31.48747847 95.66526812 -36 115 C-39.39490763 113.86836412 -39.69997461 113.35430987 -41.53125 110.45703125 C-42.24498779 109.35004883 -42.24498779 109.35004883 -42.97314453 108.22070312 C-43.47700684 107.42599609 -43.98086914 106.63128906 -44.5 105.8125 C-48.48061463 99.67791558 -52.57530405 93.72768755 -57.125 88 C-57.58583984 87.41968018 -58.04667969 86.83936035 -58.52148438 86.24145508 C-60.27132082 84.06369811 -62.02321378 81.97678622 -64 80 C-62.68451968 61.07554623 -49.08856837 40.01867592 -37 26 C-36.32582031 25.21367188 -35.65164062 24.42734375 -34.95703125 23.6171875 C-31.66087786 20.03288424 -31.66087786 20.03288424 -30 19 C-27.9453125 18.95703125 -27.9453125 18.95703125 -26 20 C-24.734375 22.72265625 -24.734375 22.72265625 -23.75 26.0625 C-23.41484375 27.16722656 -23.0796875 28.27195312 -22.734375 29.41015625 C-22.49203125 30.26480469 -22.2496875 31.11945313 -22 32 C-21.61779297 31.42145264 -21.23558594 30.84290527 -20.84179688 30.24682617 C-6.80066176 9.01826886 -6.80066176 9.01826886 0 0 Z " fill="#82BF31" transform="translate(255,37)"/>
<path d="M0 0 C4.95 2.31 9.9 4.62 15 7 C37.73072742 15.51934183 62.3179141 14.1677937 84.375 4.3125 C85.16648437 3.91675781 85.95796875 3.52101563 86.7734375 3.11328125 C89.11941705 1.94029147 91.56471253 0.97411499 94 0 C94 25.08 94 50.16 94 76 C59.84054154 87.95581046 33.22955506 89.29182202 0 76 C0 50.92 0 25.84 0 0 Z " fill="#409012" transform="translate(209,384)"/>
<path d="M0 0 C14.17687195 7.43063633 23.17093515 28.87822271 29.76513672 42.50048828 C30.92054832 44.83918025 32.15488517 47.11627482 33.41015625 49.40234375 C35.43744373 53.37189734 36.68311725 56.51161597 37 61 C35.19368179 66.00343529 31.37195747 69.69187686 27.64892578 73.35498047 C26.07849265 74.9216933 24.62534951 76.53777484 23.18359375 78.22265625 C11.89340289 91.33477117 -4.98653291 105.95103944 -22 111 C-26.25579374 109.58140209 -27.3524103 106.44536017 -29.5 102.75 C-34.29787252 94.77765571 -39.81867047 87.92537846 -46 81 C-46.6496875 80.22914063 -47.299375 79.45828125 -47.96875 78.6640625 C-51.93237309 73.96176419 -56.27266309 69.92921509 -61 66 C-54.46598055 46.58071141 -40.89326376 30.62789979 -27 16 C-26.40832031 15.34386719 -25.81664062 14.68773437 -25.20703125 14.01171875 C-21.67555608 10.21865283 -17.68533745 7.1034185 -13.5 4.0625 C-11.90671875 2.90427734 -11.90671875 2.90427734 -10.28125 1.72265625 C-6.45390393 -0.28670044 -4.26486943 -0.56038401 0 0 Z " fill="#419113" transform="translate(331,210)"/>
<path d="M0 0 C3.34505142 1.95807888 6.12360543 4.4151319 9 7 C9.804375 7.68578125 10.60875 8.3715625 11.4375 9.078125 C26.69564959 22.33364246 38.55835136 38.20783665 48 56 C48.88171875 57.56041016 48.88171875 57.56041016 49.78125 59.15234375 C51 62 51 62 50.96875 64.12109375 C49.61023566 66.75595422 47.78243865 68.1780792 45.5 70.0625 C33.26465444 80.73588656 22.37819666 95.49802726 15 110 C-7.92339725 103.67630421 -26.70041279 85.46621657 -41.375 67.5 C-41.85799561 66.92467529 -42.34099121 66.34935059 -42.83862305 65.7565918 C-46.07362212 61.64968058 -46.07362212 61.64968058 -45.72729492 58.59350586 C-39.96150429 38.0329171 -27.38616655 13.98914938 -11 0 C-7.40154175 -1.79922912 -3.78440553 -1.04397394 0 0 Z " fill="#419113" transform="translate(190,211)"/>
<path d="M0 0 C20.94341739 9.88451008 36.01489825 34.5673884 47 54 C46.236875 54.886875 45.47375 55.77375 44.6875 56.6875 C44.13964844 57.33074219 43.59179688 57.97398437 43.02734375 58.63671875 C41.53228584 60.37951265 40.0221778 62.10942269 38.50390625 63.83203125 C27.46845973 76.45250402 19.12905593 89.84577775 12 105 C9.43144816 103.76308349 7.20296685 102.46864456 4.8125 100.875 C0.57839732 98.4916245 -3.24481989 97.91174983 -8 99 C-11.24932863 100.7060208 -14.12955766 102.71993232 -17 105 C-19.28589845 102.18981291 -20.96554492 99.25523192 -22.59838867 96.02734375 C-29.02610219 83.34445094 -37.22318473 72.52799795 -46.7097168 61.97265625 C-47.23863525 61.38097656 -47.76755371 60.78929687 -48.3125 60.1796875 C-48.78300781 59.66132324 -49.25351563 59.14295898 -49.73828125 58.60888672 C-51.15502544 56.80231857 -52.15886017 55.13856337 -53 53 C-51.31286385 48.67503986 -48.56526555 44.85825533 -46 41 C-45.6169873 40.42330566 -45.23397461 39.84661133 -44.83935547 39.25244141 C-39.81350242 31.78291978 -34.41881966 24.94757974 -28.2265625 18.40234375 C-25.96892652 16.03645226 -25.96892652 16.03645226 -24.01953125 13.44921875 C-21.89460502 10.87218056 -19.68568858 8.93636544 -17.0625 6.875 C-16.22847656 6.21242187 -15.39445312 5.54984375 -14.53515625 4.8671875 C-9.53431245 1.18397743 -6.36453602 -1.02653807 0 0 Z " fill="#639D27" transform="translate(259,170)"/>
<path d="M0 0 C3.0288672 1.66835964 3.54804873 2.81747588 4.77368164 6.00976562 C5.33152344 7.42128906 5.33152344 7.42128906 5.90063477 8.86132812 C6.26995117 9.84875 6.63926758 10.83617187 7.01977539 11.85351562 C7.57955078 13.28824219 7.57955078 13.28824219 8.15063477 14.75195312 C9.26573026 17.61435477 10.36278336 20.48318227 11.45727539 23.35351562 C14.16299207 30.42794212 17.23098878 37.21737023 20.64477539 43.97851562 C21.12019775 44.92694336 21.59562012 45.87537109 22.08544922 46.85253906 C25.4705429 53.54941938 29.02826613 60.12789332 32.81542969 66.60595703 C35.45727539 71.15691814 35.45727539 71.15691814 35.45727539 73.35351562 C36.44727539 73.84851563 36.44727539 73.84851563 37.45727539 74.35351562 C36.98418945 75.05992187 36.51110352 75.76632813 36.02368164 76.49414062 C30.12740859 85.6431335 25.75081494 95.22398503 21.41967773 105.19287109 C20.18606022 107.96240814 18.8461829 110.65894742 17.45727539 113.35351562 C14.47542248 110.71572267 12.67303043 108.01404691 10.70727539 104.60351562 C8.68054364 101.29203401 8.68054364 101.29203401 5.29321289 99.77148438 C2.83504814 99.73991104 2.83504814 99.73991104 -0.54272461 100.35351562 C-1.44754509 105.73547548 -1.67576903 110.89820883 -1.64038086 116.34960938 C-1.63825844 117.59992699 -1.63825844 117.59992699 -1.63609314 118.87550354 C-1.63053629 121.51404549 -1.61799201 124.15249972 -1.60522461 126.79101562 C-1.60020402 128.58984252 -1.5956421 130.38867075 -1.59155273 132.1875 C-1.58058104 136.5762052 -1.56334657 140.96484559 -1.54272461 145.35351562 C-13.03637407 131.28728576 -18.37050075 114.01508629 -21.54272461 96.35351562 C-21.72834961 95.34675781 -21.91397461 94.34 -22.10522461 93.30273438 C-25.28305436 64.61714621 -22.14775702 25.26106424 -5.54272461 0.35351562 C-2.54272461 -0.64648438 -2.54272461 -0.64648438 0 0 Z " fill="#639E27" transform="translate(126.542724609375,156.646484375)"/>
<path d="M0 0 C12.94555354 10.19031835 16.16744796 42.96253409 18.0546875 58.30859375 C20.3224226 79.66632808 17.81365696 100.81976645 10.49609375 120.96484375 C10.10421875 122.04378906 9.71234375 123.12273437 9.30859375 124.234375 C6.5422209 131.32320543 2.99811283 137.81692522 -1.50390625 143.96484375 C-1.83390625 143.96484375 -2.16390625 143.96484375 -2.50390625 143.96484375 C-2.49866943 142.97677734 -2.49343262 141.98871094 -2.48803711 140.97070312 C-2.46981304 137.27312135 -2.45841115 133.57554347 -2.44897461 129.87792969 C-2.44397394 128.28352183 -2.43717124 126.6891185 -2.4284668 125.09472656 C-2.41621295 122.79100421 -2.41063515 120.48734297 -2.40625 118.18359375 C-2.40108871 117.48117554 -2.39592743 116.77875732 -2.39060974 116.05505371 C-2.39007883 111.27456953 -2.69534604 106.68288027 -3.50390625 101.96484375 C-5.2652698 99.78152686 -5.2652698 99.78152686 -7.44921875 99.76953125 C-10.4765625 99.8671875 -10.4765625 99.8671875 -13.50390625 99.96484375 C-13.84421875 100.95484375 -13.84421875 100.95484375 -14.19140625 101.96484375 C-15.89178775 105.85143003 -17.90013709 109.60164192 -20.50390625 112.96484375 C-21.16390625 112.96484375 -21.82390625 112.96484375 -22.50390625 112.96484375 C-22.72941162 112.41771729 -22.95491699 111.87059082 -23.18725586 111.30688477 C-27.59268203 100.67681009 -32.13247498 90.25777258 -37.75952148 80.20922852 C-40.50390625 75.25608338 -40.50390625 75.25608338 -40.50390625 71.96484375 C-39.59277344 69.9855957 -39.59277344 69.9855957 -38.30078125 67.703125 C-37.8207666 66.84348145 -37.34075195 65.98383789 -36.84619141 65.09814453 C-36.05801025 63.70184814 -36.05801025 63.70184814 -35.25390625 62.27734375 C-26.45808259 46.39841457 -17.81471004 30.48285357 -11.73828125 13.34375 C-10.06009966 8.74999344 -8.27377126 4.02301806 -5.50390625 -0.03515625 C-2.50390625 -1.03515625 -2.50390625 -1.03515625 0 0 Z " fill="#639D27" transform="translate(389.50390625,157.03515625)"/>
<path d="M0 0 C5.06290465 0.56254496 7.89893242 4.2981721 11 8 C20.72602063 20.7339521 28.39496577 34.21125441 34.0625 49.1875 C34.37413086 50.0019458 34.68576172 50.8163916 35.00683594 51.65551758 C35.28430664 52.42275146 35.56177734 53.18998535 35.84765625 53.98046875 C36.09523682 54.66004639 36.34281738 55.33962402 36.59790039 56.03979492 C37.09491949 58.46272531 36.91457638 59.69998179 36 62 C34.40722656 64.0012207 34.40722656 64.0012207 32.390625 66.11328125 C28.04015226 70.85281277 24.37884994 75.88472259 20.75 81.1875 C20.151875 82.05052734 19.55375 82.91355469 18.9375 83.80273438 C15.91463352 88.17318404 12.93089162 92.56738916 10 97 C7.29738634 94.29738634 6.64526954 91.18001585 5.5 87.625 C3.1414476 80.62667238 0.25572311 74.03320911 -3.0625 67.4375 C-3.47371094 66.61781738 -3.88492187 65.79813477 -4.30859375 64.95361328 C-6.29138933 61.08195232 -8.33961716 57.51078145 -10.87109375 53.97265625 C-13.24930505 50.21920625 -13.35950758 47.65956691 -12.57275391 43.33935547 C-11.56076089 39.20597225 -10.43426983 35.13137092 -9.1875 31.0625 C-6.86527428 23.26994123 -4.87456178 15.4870544 -3.29370117 7.51000977 C-2.20441668 2.20441668 -2.20441668 2.20441668 0 0 Z " fill="#82BE31" transform="translate(284,56)"/>
<path d="M0 0 C6.79254364 5.13214409 11.62551952 11.53287817 16.69726562 18.28857422 C17.86509731 19.82277589 19.07829478 21.32219479 20.296875 22.81640625 C20.94140625 23.64011719 21.5859375 24.46382812 22.25 25.3125 C22.81203125 26.00988281 23.3740625 26.70726563 23.953125 27.42578125 C26.75489515 34.31520859 23.10325253 42.80403657 21.0625 49.5625 C20.53131096 51.35510144 20.00134411 53.14806555 19.47265625 54.94140625 C19.09584717 56.21588623 19.09584717 56.21588623 18.71142578 57.51611328 C17.71626612 60.99063436 16.84852844 64.48701026 16 68 C12.65833889 64.79200533 9.67444912 61.33509585 6.68359375 57.8046875 C4.93233959 55.78876903 4.93233959 55.78876903 2 54 C-2.19511379 54.1446591 -5.18088953 57.15204952 -8 60 C-9.79923907 62.26901428 -11.39100461 64.58650692 -13 67 C-15 66 -15 66 -15.63842773 64.25683594 C-15.81833252 63.50692383 -15.9982373 62.75701172 -16.18359375 61.984375 C-16.38887695 61.15244629 -16.59416016 60.32051758 -16.80566406 59.46337891 C-17.23171276 57.6337401 -17.65150191 55.80263386 -18.06542969 53.97021484 C-18.98014519 49.96533951 -19.85617627 46.32609905 -21.51953125 42.5546875 C-23.06274417 38.88037101 -23.52303169 36.99406014 -23 33 C-19.55347972 25.92809811 -14.67710749 19.68372617 -9.89941406 13.47070312 C-7.54378821 10.40657284 -5.3049372 7.27256639 -3.0625 4.125 C-2.04538277 2.74724885 -1.02646245 1.37080288 0 0 Z " fill="#B0D60E" transform="translate(255,37)"/>
</svg>
