<?xml version="1.0" encoding="UTF-8"?>
<!DOCTYPE svg PUBLIC "-//W3C//DTD SVG 1.1//EN" "http://www.w3.org/Graphics/SVG/1.1/DTD/svg11.dtd">
<svg xmlns="http://www.w3.org/2000/svg" version="1.1" width="512px" height="512px" style="shape-rendering:geometricPrecision; text-rendering:geometricPrecision; image-rendering:optimizeQuality; fill-rule:evenodd; clip-rule:evenodd" xmlns:xlink="http://www.w3.org/1999/xlink">
<g><path style="opacity:0.994" fill="#a8da88" d="M 447.5,120.5 C 439.386,126.166 430.386,127.999 420.5,126C 416.806,125.268 413.139,124.435 409.5,123.5C 405.987,123.507 404.487,125.173 405,128.5C 409.285,134.786 414.285,140.452 420,145.5C 421.483,148.702 421.817,152.036 421,155.5C 414.814,173.724 404.314,188.89 389.5,201C 384.626,204.453 379.292,206.12 373.5,206C 368.67,201.173 365.837,195.34 365,188.5C 363.928,182.545 363.428,176.545 363.5,170.5C 363.66,168.801 363.494,167.134 363,165.5C 362.275,164.941 361.442,164.608 360.5,164.5C 351.379,168.319 342.046,171.319 332.5,173.5C 317.485,173.888 304.652,168.888 294,158.5C 293.349,156.765 293.515,155.098 294.5,153.5C 310.803,154.888 324.97,150.221 337,139.5C 342.532,129.801 349.032,120.801 356.5,112.5C 368.071,99.7252 382.404,94.8919 399.5,98C 405.206,99.5775 410.872,100.911 416.5,102C 428.999,87.862 436.499,71.362 439,52.5C 439.78,43.7835 440.78,35.1168 442,26.5C 443.543,24.6217 445.376,23.1217 447.5,22C 453.491,21.5005 459.491,21.3338 465.5,21.5C 471.075,56.6238 465.075,89.6238 447.5,120.5 Z"/></g>
<g><path style="opacity:0.993" fill="#719a56" d="M 447.5,120.5 C 459.785,127.983 466.618,138.983 468,153.5C 468.862,170.523 465.862,186.856 459,202.5C 453.419,217.268 454.919,231.268 463.5,244.5C 462.96,245.748 462.293,246.915 461.5,248C 450.231,249.521 440.564,246.354 432.5,238.5C 424.74,223.879 421.24,208.213 422,191.5C 409.666,208.97 392.833,219.304 371.5,222.5C 363.223,221.047 359.056,216.047 359,207.5C 358.333,199.5 358.333,191.5 359,183.5C 359.751,178.789 361.251,174.456 363.5,170.5C 363.428,176.545 363.928,182.545 365,188.5C 365.837,195.34 368.67,201.173 373.5,206C 379.292,206.12 384.626,204.453 389.5,201C 404.314,188.89 414.814,173.724 421,155.5C 421.817,152.036 421.483,148.702 420,145.5C 414.285,140.452 409.285,134.786 405,128.5C 404.487,125.173 405.987,123.507 409.5,123.5C 413.139,124.435 416.806,125.268 420.5,126C 430.386,127.999 439.386,126.166 447.5,120.5 Z"/></g>
<g><path style="opacity:0.996" fill="#663f70" d="M 363.5,170.5 C 361.251,174.456 359.751,178.789 359,183.5C 358.333,191.5 358.333,199.5 359,207.5C 359.056,216.047 363.223,221.047 371.5,222.5C 392.833,219.304 409.666,208.97 422,191.5C 421.24,208.213 424.74,223.879 432.5,238.5C 423.461,301.549 398.961,357.549 359,406.5C 303.176,467.555 234.009,494.389 151.5,487C 63.1223,469.28 28.9556,416.447 49,328.5C 57.2898,301.73 73.4565,281.397 97.5,267.5C 96.3976,282.808 96.231,298.141 97,313.5C 102.197,365.695 130.364,397.529 181.5,409C 223.911,416.653 262.577,407.986 297.5,383C 324.194,362.307 346.694,337.807 365,309.5C 376.304,291.227 386.304,272.227 395,252.5C 396.67,247.499 395.004,244.499 390,243.5C 379.101,247.144 367.934,248.311 356.5,247C 354.833,246 353.167,245 351.5,244C 348.75,238.754 346.584,233.254 345,227.5C 343.162,216.579 342.162,205.579 342,194.5C 340.833,193.333 339.667,192.167 338.5,191C 331.671,191.418 325.004,191.252 318.5,190.5C 323.406,185.017 328.072,179.351 332.5,173.5C 342.046,171.319 351.379,168.319 360.5,164.5C 361.442,164.608 362.275,164.941 363,165.5C 363.494,167.134 363.66,168.801 363.5,170.5 Z"/></g>
<g><path style="opacity:0.998" fill="#98699d" d="M 318.5,190.5 C 325.004,191.252 331.671,191.418 338.5,191C 339.667,192.167 340.833,193.333 342,194.5C 342.162,205.579 343.162,216.579 345,227.5C 346.584,233.254 348.75,238.754 351.5,244C 353.167,245 354.833,246 356.5,247C 367.934,248.311 379.101,247.144 390,243.5C 395.004,244.499 396.67,247.499 395,252.5C 386.304,272.227 376.304,291.227 365,309.5C 346.694,337.807 324.194,362.307 297.5,383C 262.577,407.986 223.911,416.653 181.5,409C 130.364,397.529 102.197,365.695 97,313.5C 96.231,298.141 96.3976,282.808 97.5,267.5C 108.75,260.243 121.083,255.41 134.5,253C 158.527,252.177 182.527,250.843 206.5,249C 250.498,241.838 287.832,222.338 318.5,190.5 Z"/></g>
<g><path style="opacity:1" fill="#ecd2ee" d="M 170.5,293.5 C 187.869,291.093 200.035,297.76 207,313.5C 208.751,330.768 201.251,341.935 184.5,347C 166.886,350.776 154.386,344.609 147,328.5C 144.812,315.376 149.312,305.209 160.5,298C 163.893,296.38 167.226,294.88 170.5,293.5 Z"/></g>
</svg>
