<?xml version="1.0" encoding="UTF-8"?>
<svg version="1.1" xmlns="http://www.w3.org/2000/svg" width="512" height="512">
<path d="M0 0 C0.80904785 0.39832031 1.6180957 0.79664063 2.45166016 1.20703125 C44.03446078 21.88764257 79.99299403 54.20161916 95.68359375 98.8359375 C102.52000783 119.54902917 106.0195232 143.68430109 96.875 164.125 C89.56887428 177.75289318 77.56434162 186.57770305 63 191 C58.60194776 191.87964163 54.43608227 192.12686594 49.95458031 192.13142776 C49.26577268 192.1334804 48.57696506 192.13553303 47.86728448 192.13764787 C45.56013565 192.14330044 43.25304685 192.14186278 40.94589233 192.14044189 C39.27459667 192.14302653 37.60330162 192.14603997 35.93200743 192.1494453 C31.33968882 192.15750699 26.74738585 192.15930441 22.15506101 192.16004276 C17.20192118 192.16189476 12.24878944 192.16944285 7.2956543 192.17617798 C-3.53502812 192.18975597 -14.36570684 192.1957852 -25.19639635 192.20018864 C-31.96023035 192.20295198 -38.72406293 192.20718951 -45.48789597 192.21169281 C-64.21810377 192.22388482 -82.94831043 192.23418424 -101.67852211 192.2375679 C-102.87714281 192.23778747 -104.0757635 192.23800703 -105.31070604 192.23823325 C-106.51218081 192.23845153 -107.71365558 192.23866981 -108.95153868 192.2388947 C-111.38614949 192.23933817 -113.82076029 192.23978473 -116.25537109 192.24023438 C-118.06684439 192.24056652 -118.06684439 192.24056652 -119.9149131 192.24090537 C-139.48061767 192.24485291 -159.04628497 192.26230587 -178.61197515 192.2855939 C-198.70384501 192.30931501 -218.79569618 192.3217701 -238.88758028 192.32293582 C-250.16676956 192.32385216 -261.44591031 192.32959408 -272.72508621 192.34775543 C-282.33007461 192.36316665 -291.93499947 192.36827083 -301.53999789 192.36001733 C-306.43866868 192.35611446 -311.33721155 192.35702276 -316.23586655 192.37107468 C-320.72545574 192.38383515 -325.21482115 192.38259724 -329.70441012 192.37048396 C-331.32354742 192.36853069 -332.94270069 192.37158824 -334.56181557 192.38032833 C-351.777924 192.46733481 -365.92591451 189.46139912 -378.7421875 177.328125 C-390.04912107 165.66907239 -394.50512889 152.24578402 -394.35327148 136.13183594 C-393.43610581 104.53399901 -380.86766048 74.58498522 -360 51 C-359.13503906 50.01386719 -358.27007812 49.02773438 -357.37890625 48.01171875 C-311.58610358 -3.4959601 -239.92723649 -25.75714108 -172.93408203 -30.53564453 C-114.10362379 -33.99095284 -53.27429084 -26.34527676 0 0 Z " fill="#B4733F" transform="translate(402,312)"/>
<path d="M0 0 C1 1 1 1 1.375 3.4375 C0.92551136 7.70764212 -0.6284831 10.39539014 -2.625 14.14453125 C-11.35601571 32.27627127 -11.40275526 54.28649204 -4.93359375 73.1015625 C0.0381255 85.80159782 7.61030796 96.38065452 16 107 C34.52626247 130.49287751 42.82604187 151.53366462 41 182 C39.02269534 198.62362832 29.2771405 212.40757374 16.5625 222.8125 C11.07141192 226.86361743 5.32086435 230.65043533 -1.5625 231.375 C-4 231 -4 231 -5 230 C-4.58452779 224.91990803 -3.29941291 221.01891227 -1.125 216.4375 C7.19875594 197.79736156 7.40969689 176.60554305 0.74609375 157.3828125 C-4.06510861 145.40069001 -11.50408277 135.52607981 -19.35546875 125.40625 C-19.78649902 124.85066406 -20.2175293 124.29507813 -20.66162109 123.72265625 C-21.56907795 122.55464903 -22.47831631 121.38802413 -23.38916016 120.22265625 C-37.61436216 101.91834928 -45.24344045 84.5838043 -45.4375 61.1875 C-45.4478125 60.16213135 -45.458125 59.1367627 -45.46875 58.08032227 C-45.27068752 40.96854896 -38.70793174 25.80520362 -26.85546875 13.51171875 C-19.82062969 7.32375498 -9.79354196 -0.8161285 0 0 Z " fill="#FFD68D" transform="translate(258,8)"/>
<path d="M0 0 C-0.4316573 4.57556737 -1.15856358 8.68099905 -2.515625 13.07421875 C-4.14261092 18.94598493 -4.50211653 24.42909905 -4.4375 30.5 C-4.42920166 31.51030273 -4.42090332 32.52060547 -4.41235352 33.56152344 C-4.24995129 40.7025976 -3.5588507 46.68967965 0 53 C0.46277344 53.86882812 0.92554688 54.73765625 1.40234375 55.6328125 C5.0525437 61.89794786 9.59861467 66.94242322 14.57373047 72.14599609 C23.96192184 82.09254874 29.40151016 92.41324785 29.21484375 106.2265625 C28.02230194 121.62119314 20.79812031 133.11345888 9.51171875 143.23046875 C-4.01816897 154.44575671 -4.01816897 154.44575671 -12 154 C-11.52075243 149.68677185 -10.68181728 145.6795977 -9.5 141.5 C-5.45989589 126.99504086 -5.61473587 111.52967335 -12.875 98 C-16.36116203 92.42955812 -20.67913853 87.86300116 -25.21777344 83.15600586 C-34.09134843 73.87639134 -40.60365095 63.79638559 -40.375 50.6875 C-40.36412354 49.84372803 -40.35324707 48.99995605 -40.34204102 48.13061523 C-40.00590119 34.99071925 -34.97795757 23.97585688 -25.9375 14.3125 C-19.35230489 8.08049009 -9.30536698 -0.24487808 0 0 Z " fill="#FFD68D" transform="translate(168,51)"/>
<path d="M0 0 C-0.41793167 5.01518001 -1.1095148 9.49434626 -2.5625 14.3125 C-5.48471116 25.5263054 -6.08310002 40.35668587 -1 51 C-0.57074219 51.91265625 -0.14148438 52.8253125 0.30078125 53.765625 C4.00815831 60.79400236 8.76210255 66.17850792 14.21777344 71.84741211 C22.90532849 80.9552106 28.99474159 90.52060701 29.375 103.3125 C28.97915116 117.48058959 23.97281562 129.53108775 14.26171875 139.87109375 C7.67839414 146.06783281 -0.36135843 152.05061305 -9 155 C-9.99 154.67 -10.98 154.34 -12 154 C-11.731875 152.80375 -11.46375 151.6075 -11.1875 150.375 C-11.00832031 149.55 -10.82914062 148.725 -10.64453125 147.875 C-10.19007491 145.84784931 -9.70540219 143.82735702 -9.19921875 141.8125 C-5.74015658 127.38607956 -5.08962731 112.38403702 -12.5 99.0625 C-16.331212 93.12507444 -21.03135267 87.87601839 -25.65576172 82.55322266 C-37.05360397 69.38339476 -41.13034736 59.39897636 -40 42 C-39.43836892 38.4017534 -38.46649186 35.32629571 -37 32 C-36.63261719 31.13375 -36.26523437 30.2675 -35.88671875 29.375 C-30.1076274 17.37358315 -14.32786691 0 0 0 Z " fill="#FFD68D" transform="translate(347,8)"/>
<path d="M0 0 C1.02931641 0.00451172 2.05863281 0.00902344 3.11914062 0.01367188 C5.60032826 0.02521228 8.08137782 0.04148176 10.5625 0.0625 C9.07205631 4.76572859 7.26208406 9.28751862 5.31640625 13.81640625 C4.8322374 14.95169014 4.8322374 14.95169014 4.33828735 16.10990906 C3.63736805 17.7528605 2.93540477 19.39536686 2.23251343 21.03747559 C0.31430966 25.51904571 -1.59622786 30.00388478 -3.5078125 34.48828125 C-4.10953026 35.89900406 -4.10953026 35.89900406 -4.72340393 37.33822632 C-8.85335889 47.02594187 -12.94566991 56.72942257 -17.03582764 66.43399048 C-18.24558801 69.30204023 -19.45757628 72.16913741 -20.67041016 75.03588867 C-21.45738646 76.89630906 -22.24433354 78.7567418 -23.03125 80.6171875 C-23.41107025 81.51514542 -23.7908905 82.41310333 -24.18222046 83.33827209 C-26.21718355 88.15496738 -28.23723345 92.97733381 -30.23530579 97.80944824 C-31.06439467 99.8119118 -31.89867966 101.81211573 -32.73510742 103.81152344 C-33.7040553 106.13075212 -34.66349635 108.45399022 -35.6105957 110.78222656 C-38.6508409 118.01314251 -41.87887405 124.85265983 -49.4375 128.0625 C-55.43954705 128.9542327 -60.892125 129.05371638 -66 125.5 C-70.45090424 121.54878147 -72.15376397 117.53184627 -72.83203125 111.62890625 C-72.72471939 105.36475519 -69.69297963 99.96557948 -67.125 94.375 C-65.92422089 91.69571435 -64.7345222 89.01152377 -63.54296875 86.328125 C-63.22065277 85.60625504 -62.89833679 84.88438507 -62.56625366 84.14064026 C-58.21137705 74.36430474 -54.08716118 64.48967425 -49.9375 54.625 C-49.12238142 52.69085544 -48.30711498 50.7567732 -47.49169922 48.82275391 C-40.78540001 32.9117336 -34.10193409 16.99109952 -27.4375 1.0625 C-18.26989717 0.3644432 -9.1983588 -0.07934882 0 0 Z " fill="#995C33" transform="translate(251.4375,280.9375)"/>
<path d="M0 0 C7.33309843 -0.29759713 13.80534101 0.78952183 20.9375 2.4375 C21.97712891 2.66759766 23.01675781 2.89769531 24.08789062 3.13476562 C31.67606257 4.83803129 31.67606257 4.83803129 34 6 C33.40017425 11.48177131 31.48593751 15.96205195 29.2734375 20.9453125 C28.89373306 21.81596848 28.51402863 22.68662445 28.12281799 23.58366394 C27.30516126 25.45721258 26.48457179 27.32948353 25.66134644 29.20059204 C23.47753238 34.1653224 21.31565428 39.13959062 19.15234375 44.11328125 C18.71489334 45.11773788 18.27744293 46.12219452 17.82673645 47.15708923 C14.08719219 55.75960285 10.4525366 64.40292994 6.86602783 73.07019043 C5.94392157 75.29699249 5.01825376 77.52227862 4.09130859 79.74707031 C1.40401919 86.19873235 -1.2677926 92.65546383 -3.90234375 99.12890625 C-4.76735322 101.21130158 -5.63317159 103.29336118 -6.5 105.375 C-6.86101807 106.28419189 -7.22203613 107.19338379 -7.59399414 108.13012695 C-10.25914586 114.44845377 -13.77463248 118.88731624 -20 122 C-25.45494588 122.49813129 -30.37023481 122.71117027 -35.4375 120.5 C-40.01358489 116.03552694 -42.7891706 112.54706404 -43.32788086 106.03881836 C-43.25363147 100.07149094 -41.03856243 95.27106072 -38.63671875 89.890625 C-37.94738503 88.29287231 -37.94738503 88.29287231 -37.24412537 86.6628418 C-35.74006004 83.18525154 -34.2138348 79.71786599 -32.6875 76.25 C-31.64326989 73.84548564 -30.60080651 71.4402033 -29.56005859 69.03417969 C-27.96458195 65.34741723 -26.36836327 61.66103501 -24.76409912 57.97808838 C-19.45071424 45.7775694 -14.28006657 33.51809933 -9.125 21.25 C-7.56641421 17.54632201 -6.00610443 13.84337368 -4.4453125 10.140625 C-4.10785507 9.33802246 -3.77039764 8.53541992 -3.42271423 7.70849609 C-1.1124448 2.22488961 -1.1124448 2.22488961 0 0 Z " fill="#995C33" transform="translate(316,287)"/>
<path d="M0 0 C-1.89842426 5.97218087 -4.05919383 11.74127458 -6.5625 17.484375 C-6.90619629 18.2816954 -7.24989258 19.07901581 -7.60400391 19.90049744 C-8.34562328 21.62023482 -9.088835 23.33928626 -9.83349609 25.05770874 C-11.85522968 29.72387028 -13.86471063 34.39530552 -15.875 39.06640625 C-16.29394531 40.03919022 -16.71289062 41.01197418 -17.14453125 42.01423645 C-21.40510481 51.91851731 -25.595589 61.85196011 -29.77868652 71.78915405 C-30.99215144 74.66887429 -32.20884153 77.54720865 -33.42675781 80.42504883 C-34.20642234 82.26772306 -34.98604569 84.11041472 -35.765625 85.953125 C-36.32422211 87.27349007 -36.32422211 87.27349007 -36.894104 88.62052917 C-39.0169171 93.64656984 -41.10766529 98.68399629 -43.171875 103.734375 C-44.03124702 105.80208457 -44.89062167 107.86979305 -45.75 109.9375 C-46.09546875 110.81172607 -46.4409375 111.68595215 -46.796875 112.58666992 C-49.0786971 118.01323952 -51.9204167 121.8717883 -57 125 C-62.6142566 126.72756478 -68.03472949 127.00117554 -73.3125 124.3125 C-77.44030647 120.76066653 -80.48640712 117.29757508 -82 112 C-82.34542005 106.6730692 -81.54383208 103.10159982 -79.38671875 98.2421875 C-78.96462128 97.27474861 -78.96462128 97.27474861 -78.53399658 96.2877655 C-77.59652621 94.14498288 -76.64188278 92.01029681 -75.6875 89.875 C-74.67090844 87.5627974 -73.65905037 85.2485599 -72.6474762 82.93415833 C-71.92528572 81.28232575 -71.20164705 79.63112569 -70.47666931 77.98051453 C-67.58345262 71.3813386 -64.77022113 64.75061121 -61.984375 58.10546875 C-61.56432693 57.10429016 -61.14427887 56.10311157 -60.71150208 55.07159424 C-59.04463395 51.09622291 -57.37903949 47.12033314 -55.71859741 43.14227295 C-53.49624599 37.82178002 -51.24363584 32.51659258 -48.94674683 27.22784424 C-48.09840667 25.23156637 -47.30616962 23.2236474 -46.52954102 21.19873047 C-44.13695103 15.48907148 -42.22888817 12.54847748 -36.47265625 10 C-34.3511402 9.28643073 -32.21294201 8.62097555 -30.0625 8 C-28.95253662 7.64172119 -27.84257324 7.28344238 -26.69897461 6.91430664 C-23.47899109 5.89065038 -20.24709087 4.93359046 -17 4 C-16.14277344 3.74718262 -15.28554687 3.49436523 -14.40234375 3.23388672 C-3.34680043 0 -3.34680043 0 0 0 Z " fill="#995C33" transform="translate(167,292)"/>
<path d="M0 0 C5.83716134 0.47707569 10.03455994 2.94876848 15 5.8125 C16.17175781 6.47088867 16.17175781 6.47088867 17.3671875 7.14257812 C21.7023975 9.59846729 25.89440675 12.17740464 30 15 C29.39256184 20.61894534 27.38038957 25.30867529 25.16796875 30.4453125 C24.77978973 31.36085403 24.39161072 32.27639557 23.9916687 33.21968079 C22.73002568 36.19089698 21.45907828 39.15802378 20.1875 42.125 C19.31845514 44.16394196 18.44988595 46.20308672 17.58178711 48.24243164 C15.85776027 52.2898864 14.12996383 56.33570133 12.39941406 60.38037109 C10.3204272 65.24294858 8.26148908 70.11366144 6.2109375 74.98828125 C5.66411792 76.28316691 5.11701183 77.57793162 4.56958008 78.87255859 C3.59417669 81.17983872 2.6224159 83.48866358 1.6550293 85.79931641 C-4.41255497 100.05559003 -4.41255497 100.05559003 -11.79296875 103.30078125 C-16.47263538 104.7833659 -20.61002625 104.9559895 -25.20703125 103.1171875 C-30.04519346 100.40638047 -33.22976951 97.2924512 -35 92 C-35.89007437 84.75244271 -34.38604543 79.19037338 -31.37109375 72.6640625 C-30.79880287 71.36514069 -30.79880287 71.36514069 -30.21495056 70.03997803 C-28.97208221 67.22742859 -27.70479171 64.42661711 -26.4375 61.625 C-25.13365638 58.68856244 -23.83640206 55.7492686 -22.53930664 52.80984497 C-21.65943534 50.81726603 -20.77742548 48.82563008 -19.89331055 46.83493042 C-15.56556182 37.07862129 -11.44882443 27.23947214 -7.375 17.375 C-6.43715634 15.10824274 -5.49892476 12.84164717 -4.56019592 10.57525635 C-3.7682733 8.6619615 -2.97853366 6.7477635 -2.18896484 4.83349609 C-1.50461213 3.20257257 -0.79098043 1.58196085 0 0 Z " fill="#995C33" transform="translate(402,314)"/>
</svg>
