<?xml version="1.0" encoding="UTF-8"?>
<svg version="1.1" xmlns="http://www.w3.org/2000/svg" width="512" height="512">
<path d="M0 0 C16.37245272 14.04483292 28.61797331 29.73751988 40 48 C44.96979609 42.63594034 49.85180371 37.26139068 54.4375 31.5625 C58.09571015 27.02683557 61.94742965 22.7429883 65.91381836 18.48071289 C68.90427 15.24806025 71.73779007 11.93303234 74.5 8.5 C78.13310268 3.98457239 81.95774269 -0.27970115 85.91186523 -4.51074219 C88.96803134 -7.8035595 91.79030206 -11.2101917 94.5625 -14.75 C102.74203894 -24.87217943 112.9297177 -32.28134275 126 -34 C138.81188115 -35.0998151 149.89346585 -32.00748475 160 -24 C169.21932067 -15.5201129 174.44469784 -5.16516825 175.20214844 7.33642578 C175.29467054 10.55135665 175.36157156 13.76516535 175.40536499 16.98110962 C176.24726956 71.51142067 192.98582397 120.73011331 222.6875 166.25 C245.00733188 200.76646132 259.97580735 242.56894194 260.203125 284.03125 C260.20882507 284.86603882 260.21452515 285.70082764 260.22039795 286.56091309 C260.22978085 288.31891643 260.23635495 290.07693683 260.24023438 291.83496094 C260.24987477 294.46582463 260.2809358 297.09588348 260.3125 299.7265625 C260.40437732 314.26839259 258.64231236 328.0033766 254.3125 341.9375 C254.05758789 342.76540039 253.80267578 343.59330078 253.54003906 344.44628906 C241.07879935 383.55701394 213.39870299 416.12698541 176.99414062 434.98876953 C139.82655029 453.83648735 97.80616237 456.92142033 58 445 C24.62257193 433.96111103 -4.19557832 412.01595663 -24 383 C-24.51735718 381.92359253 -24.51735718 381.92359253 -25.04516602 380.82543945 C-25.86563486 378.82331929 -25.86563486 378.82331929 -28 378 C-27.98259766 379.44052734 -27.98259766 379.44052734 -27.96484375 380.91015625 C-27.92459222 385.60733449 -27.95584036 390.30294327 -28 395 C-28.00870117 396.41224854 -28.00870117 396.41224854 -28.01757812 397.85302734 C-28.18593761 414.7479014 -29.37374689 428.4421201 -42 441 C-52.09718657 449.43862343 -64.00733927 452.88853035 -77 452 C-94.06179298 449.57531234 -104.28033759 438.75909739 -114.58203125 425.921875 C-117.12598054 422.84776504 -119.78120232 419.91828622 -122.5 417 C-126.76946073 412.41267132 -130.75760515 407.66554788 -134.6875 402.78125 C-137.19971256 399.75980516 -139.82404088 396.87561617 -142.5 394 C-146.81965278 389.35715879 -150.87034573 384.55905029 -154.84375 379.61328125 C-156.85854938 377.171432 -158.95902768 374.86990708 -161.125 372.5625 C-173.19308742 359.27286097 -183.35334077 344.10006343 -193 329 C-193.38285156 328.40541992 -193.76570313 327.81083984 -194.16015625 327.19824219 C-225.85165624 277.5879819 -245.18305291 219.48789619 -251 161 C-251.0920874 160.17258301 -251.1841748 159.34516602 -251.27905273 158.49267578 C-252.23481486 148.90070553 -252.25699183 139.28070482 -252.29516602 129.64990234 C-252.30661982 127.65113204 -252.32696527 125.65239069 -252.35668945 123.65380859 C-252.77686452 95.24621801 -246.58011981 69.93967838 -233 45 C-232.44699219 43.95585938 -231.89398438 42.91171875 -231.32421875 41.8359375 C-212.32739036 7.46936012 -178.1340482 -17.21143007 -140.875 -28.25 C-92.56096976 -41.79611354 -39.12536205 -31.86685909 0 0 Z " fill="#CCE0E5" transform="translate(252,47)"/>
<path d="M0 0 C16.55801714 14.20401623 29.34120991 29.9786865 40 49 C37.82284463 52.8134887 35.35436351 56.18835957 32.625 59.625 C1.33348723 99.7826362 -21.80659052 146.87742226 -35 196 C-35.42128174 197.55291748 -35.42128174 197.55291748 -35.85107422 199.13720703 C-40.04054777 214.89630147 -42.87153598 230.57919682 -44.875 246.75 C-45.030186 247.99275696 -45.030186 247.99275696 -45.18850708 249.26062012 C-46.60950525 260.82333751 -47.51576754 272.36144331 -48 284 C-48.04576172 285.03866211 -48.09152344 286.07732422 -48.13867188 287.14746094 C-49.20466383 316.33682883 -43.62802841 347.3513201 -28.37158203 372.70629883 C-26.55088753 377.07849346 -26.72854594 380.64456506 -26.96875 385.31640625 C-27.02391785 386.65577492 -27.02391785 386.65577492 -27.0802002 388.02220154 C-27.16305256 389.90946852 -27.25433739 391.79638184 -27.35351562 393.68286133 C-27.49826361 396.52836542 -27.60241214 399.37334319 -27.703125 402.22070312 C-28.35753799 417.32806044 -30.82489323 429.88540825 -42 441 C-52.09718657 449.43862343 -64.00733927 452.88853035 -77 452 C-94.06179298 449.57531234 -104.28033759 438.75909739 -114.58203125 425.921875 C-117.12598054 422.84776504 -119.78120232 419.91828622 -122.5 417 C-126.76946073 412.41267132 -130.75760515 407.66554788 -134.6875 402.78125 C-137.19971256 399.75980516 -139.82404088 396.87561617 -142.5 394 C-146.81965278 389.35715879 -150.87034573 384.55905029 -154.84375 379.61328125 C-156.85854938 377.171432 -158.95902768 374.86990708 -161.125 372.5625 C-173.19308742 359.27286097 -183.35334077 344.10006343 -193 329 C-193.38285156 328.40541992 -193.76570313 327.81083984 -194.16015625 327.19824219 C-225.85165624 277.5879819 -245.18305291 219.48789619 -251 161 C-251.0920874 160.17258301 -251.1841748 159.34516602 -251.27905273 158.49267578 C-252.23481486 148.90070553 -252.25699183 139.28070482 -252.29516602 129.64990234 C-252.30661982 127.65113204 -252.32696527 125.65239069 -252.35668945 123.65380859 C-252.77686452 95.24621801 -246.58011981 69.93967838 -233 45 C-232.44699219 43.95585938 -231.89398438 42.91171875 -231.32421875 41.8359375 C-212.32739036 7.46936012 -178.1340482 -17.21143007 -140.875 -28.25 C-92.56096976 -41.79611354 -39.12536205 -31.86685909 0 0 Z " fill="#085F7C" transform="translate(252,47)"/>
<path d="M0 0 C15.65886551 0 31.14885801 1.82819656 46 7 C46.77134277 7.26409668 47.54268555 7.52819336 48.33740234 7.80029297 C65.65825927 13.8017161 81.5614833 21.61456172 96 33 C94.6779261 37.24344987 93.05570931 41.11775976 91.05859375 45.0859375 C90.47932129 46.2514917 89.90004883 47.4170459 89.30322266 48.61791992 C88.99862122 49.22993256 88.69401978 49.84194519 88.38018799 50.47250366 C81.67156805 64.01158025 75.82617684 77.66438054 71 92 C70.65775391 93.01562012 70.31550781 94.03124023 69.96289062 95.07763672 C61.94935219 119.22725418 56.26249147 143.52458039 53.125 168.75 C53.02136139 169.57904846 52.91772278 170.40809692 52.8109436 171.26226807 C51.39019896 182.82439799 50.48420667 194.36206315 50 206 C49.95423828 207.03866211 49.90847656 208.07732422 49.86132812 209.14746094 C48.79533617 238.33682883 54.37197159 269.3513201 69.62841797 294.70629883 C71.44911247 299.07849346 71.27145406 302.64456506 71.03125 307.31640625 C70.97608215 308.65577492 70.97608215 308.65577492 70.9197998 310.02220154 C70.83694744 311.90946852 70.74566261 313.79638184 70.64648438 315.68286133 C70.50173639 318.52836542 70.39758786 321.37334319 70.296875 324.22070312 C69.64246201 339.32806044 67.17510677 351.88540825 56 363 C45.90281343 371.43862343 33.99266073 374.88853035 21 374 C3.93820702 371.57531234 -6.28033759 360.75909739 -16.58203125 347.921875 C-19.12598054 344.84776504 -21.78120232 341.91828622 -24.5 339 C-28.76946073 334.41267132 -32.75760515 329.66554788 -36.6875 324.78125 C-39.19971256 321.75980516 -41.82404088 318.87561617 -44.5 316 C-48.81965278 311.35715879 -52.87034573 306.55905029 -56.84375 301.61328125 C-58.85854938 299.171432 -60.95902768 296.86990708 -63.125 294.5625 C-78.48576837 277.64688946 -91.50675821 257.84475776 -102.81445312 238.02050781 C-104.14222717 235.7576046 -105.54825591 233.55172523 -106.953125 231.3359375 C-114.15788108 219.53645018 -114.15788108 219.53645018 -113.76171875 213.171875 C-112.50025532 209.50664575 -110.91641222 206.36656332 -109 203 C-108.46761719 201.83984375 -107.93523437 200.6796875 -107.38671875 199.484375 C-93.8531172 170.15618835 -68.89596422 148.56962758 -39 137 C-25.81566072 132.61598973 -14.01374795 131 0 131 C0 87.77 0 44.54 0 0 Z " fill="#04242B" transform="translate(154,125)"/>
<path d="M0 0 C9.21932067 8.4798871 14.44469784 18.83483175 15.20214844 31.33642578 C15.29467054 34.55135665 15.36157156 37.76516535 15.40536499 40.98110962 C16.24726956 95.51142067 32.98582397 144.73011331 62.6875 190.25 C85.00733188 224.76646132 99.97580735 266.56894194 100.203125 308.03125 C100.20882507 308.86603882 100.21452515 309.70082764 100.22039795 310.56091309 C100.22978085 312.31891643 100.23635495 314.07693683 100.24023438 315.83496094 C100.24987477 318.46582463 100.2809358 321.09588348 100.3125 323.7265625 C100.40437732 338.26839259 98.64231236 352.0033766 94.3125 365.9375 C94.05758789 366.76540039 93.80267578 367.59330078 93.54003906 368.44628906 C81.07879935 407.55701394 53.39870299 440.12698541 16.99414062 458.98876953 C-5.29315892 470.29067877 -28.99956686 476 -54 476 C-54 452.57 -54 429.14 -54 405 C-47.73 404.01 -41.46 403.02 -35 402 C-12.77231334 394.29906919 3.92796671 382.31446392 14.75 361.0625 C28.45129486 332.53377645 24.5895485 298.33454081 14.81640625 268.96484375 C9.12182548 252.92056294 1.27132312 238.22934361 -8 224 C-8.38510742 223.40880371 -8.77021484 222.81760742 -9.16699219 222.20849609 C-9.71468262 221.36859131 -9.71468262 221.36859131 -10.2734375 220.51171875 C-18.40765359 208.0167406 -25.9436144 195.15332202 -32.63696289 181.82617188 C-38.11130363 170.99996961 -42.90046184 166.54976908 -54 161 C-54 107.21 -54 53.42 -54 -2 C-35.47960558 -12.10203332 -17.35319724 -13.74907166 0 0 Z " fill="#B4D2D7" transform="translate(412,23)"/>
<path d="M0 0 C0 42.9 0 85.8 0 130 C-9.9 130.99 -9.9 130.99 -20 132 C-23.67835132 132.74544661 -27.02191401 133.46826674 -30.5625 134.5625 C-31.41908203 134.81862061 -32.27566406 135.07474121 -33.15820312 135.33862305 C-64.27975527 145.09412061 -89.51666881 165.88094834 -104.84814453 194.67236328 C-108.09126952 201.22597787 -110.56754171 208.11340452 -113 215 C-132.43763708 198.76246171 -140.72663669 149.70186227 -146.0625 126.375 C-146.27890137 125.45734863 -146.49530273 124.53969727 -146.71826172 123.59423828 C-148.59810824 114.86210022 -147.72309649 107.7537312 -144.4375 99.4375 C-144.17283936 98.75623047 -143.90817871 98.07496094 -143.63549805 97.37304688 C-136.38360921 79.15024459 -126.48402467 63.28032534 -113 49 C-111.97172519 47.7770518 -110.95017386 46.54839767 -109.9375 45.3125 C-98.75289054 32.28394142 -83.08257054 22.83087697 -68 15 C-66.94554688 14.44570312 -65.89109375 13.89140625 -64.8046875 13.3203125 C-44.19748168 3.14846922 -22.81589176 0 0 0 Z " fill="#06485D" transform="translate(154,126)"/>
<path d="M0 0 C0 77.22 0 154.44 0 234 C-7.6614642 227.43303068 -13.99935555 220.51899565 -20.3125 212.6875 C-24.20255931 207.87414563 -28.32871834 203.3523855 -32.55566406 198.83886719 C-36.47878593 194.62606859 -40.11896414 190.23604648 -43.72265625 185.74609375 C-46.2182872 182.73678233 -48.83808228 179.86103394 -51.5 177 C-56.58361521 171.52210232 -61.32867653 165.83142036 -66 160 C-66.91042701 158.89238065 -67.82193843 157.785652 -68.734375 156.6796875 C-81.40345207 141.22855677 -92.64237274 124.82726443 -102.55224609 107.47900391 C-104.02803179 104.95200088 -105.57967747 102.4843526 -107.14453125 100.01171875 C-114.16553172 88.52177223 -114.16553172 88.52177223 -113.75 82.19140625 C-112.50204179 78.5091085 -110.92207713 75.37651488 -109 72 C-108.46761719 70.83984375 -107.93523437 69.6796875 -107.38671875 68.484375 C-93.8531172 39.15618835 -68.89596422 17.56962758 -39 6 C-25.81566072 1.61598973 -14.01374795 0 0 0 Z " fill="#03303D" transform="translate(154,256)"/>
<path d="M0 0 C1.5159375 -0.02126953 1.5159375 -0.02126953 3.0625 -0.04296875 C6.12324958 0.19716985 8.27108432 0.79867684 11 2.1875 C12.13654216 4.46058431 12.12435262 5.68952833 12.12304783 8.21299934 C12.12503888 9.05996317 12.12702993 9.906927 12.12908131 10.77955639 C12.12616847 11.7153402 12.12325563 12.651124 12.12025452 13.61526489 C12.12110894 14.60519341 12.12196337 15.59512193 12.12284368 16.61504829 C12.12449912 19.95318175 12.11897605 23.29126565 12.11352539 26.62939453 C12.11324351 29.01389566 12.11340128 31.39839687 12.1139679 33.78289795 C12.11422588 39.59930548 12.10987785 45.41569661 12.10353024 51.23210038 C12.09639223 57.99831886 12.09488599 64.76453498 12.09374207 71.5307567 C12.09155193 83.59781913 12.08489289 95.66487482 12.07543945 107.73193359 C12.06626434 119.45589158 12.05918399 131.17984774 12.05493164 142.90380859 C12.05466892 143.62613608 12.05440619 144.34846356 12.05413551 145.09267975 C12.0528305 148.71628372 12.05156678 152.33988769 12.05032361 155.96349168 C12.03995219 186.03816585 12.02226073 216.11283214 12 246.1875 C9.49316915 246.24378005 6.98763463 246.28437864 4.48046875 246.31640625 C3.78175659 246.33368774 3.08304443 246.35096924 2.36315918 246.36877441 C-14.15306797 246.52625361 -30.00654777 236.83685845 -42 226.1875 C-43.02867187 225.29998047 -43.02867187 225.29998047 -44.078125 224.39453125 C-53.87183338 215.35270206 -59.85990289 203.69092582 -64 191.1875 C-64.35191406 190.28 -64.70382812 189.3725 -65.06640625 188.4375 C-79.29557024 138.90333916 -56.65344544 65.05495586 -34.34765625 20.91796875 C-28.71185901 10.94694287 -21.61322973 5.49641343 -11 1.1875 C-7.30955717 0.22150634 -3.80874128 0.02429044 0 0 Z " fill="#FEF4F4" transform="translate(346,180.8125)"/>
<path d="M0 0 C8.03300971 3.44271845 8.03300971 3.44271845 11.0625 5.6875 C11.67222656 6.12449219 12.28195312 6.56148437 12.91015625 7.01171875 C19.36456988 13.15245994 23.13843744 20.80222904 27.0625 28.6875 C33.78998838 41.91361749 41.36112082 54.47457717 49.53515625 66.8515625 C55.08823027 75.27261811 59.72509251 83.88066228 64 93 C64.53496094 94.11761719 65.06992187 95.23523438 65.62109375 96.38671875 C75.18995334 117.38850149 79.19858979 139.71831992 79.3125 162.6875 C79.31813965 163.76217529 79.3237793 164.83685059 79.32958984 165.9440918 C79.24175628 175.48743188 77.67525031 184.10151546 74.25 193 C73.98614502 193.68860107 73.72229004 194.37720215 73.45043945 195.08666992 C65.27508419 215.79837977 49.6199722 230.53989884 29.5625 239.54296875 C16.48076768 244.80342951 4.92545616 245.25734929 -9 245 C-9 244.67 -9 244.34 -9 244 C-5.7 244 -2.4 244 1 244 C0.67 163.48 0.34 82.96 0 0 Z " fill="#E0EAEF" transform="translate(357,183)"/>
<path d="M0 0 C43.72933088 0 82.2867324 17.36018715 113 48 C123.23872819 58.3604367 130.90826913 70.34433879 138 83 C135.82284463 86.8134887 133.35436351 90.18835957 130.625 93.625 C119.66793405 107.68663619 110.17066472 122.65348237 101.16308594 138.01855469 C99.79138923 140.35539148 98.39963365 142.67980194 97 145 C93.60813014 144.38398776 91.6014981 143.13913386 88.875 141.0625 C61.8585222 121.81572457 32.44119538 115.24411954 0 112 C0 75.04 0 38.08 0 0 Z " fill="#07485E" transform="translate(154,13)"/>
<path d="M0 0 C15.65886551 0 31.14885801 1.82819656 46 7 C46.77134277 7.26409668 47.54268555 7.52819336 48.33740234 7.80029297 C65.65825927 13.8017161 81.5614833 21.61456172 96 33 C94.6779261 37.24344987 93.05570931 41.11775976 91.05859375 45.0859375 C90.47932129 46.2514917 89.90004883 47.4170459 89.30322266 48.61791992 C88.99862122 49.22993256 88.69401978 49.84194519 88.38018799 50.47250366 C75.00737968 77.46098676 65.25677337 105.86801975 58.98950195 135.34545898 C58.7699585 136.33618408 58.55041504 137.32690918 58.32421875 138.34765625 C58.0471106 139.66262085 58.0471106 139.66262085 57.7644043 141.00415039 C57.51215088 141.66278076 57.25989746 142.32141113 57 143 C52.95307152 144.34897616 50.59730399 142.85500918 46.875 141.25 C45.50579697 140.68476989 44.13600796 140.1209571 42.765625 139.55859375 C42.10884766 139.28644043 41.45207031 139.01428711 40.77539062 138.73388672 C34.53766222 136.15541978 28.39348771 134.58966204 21.75 133.375 C21.08307129 133.25165283 20.41614258 133.12830566 19.72900391 133.0012207 C13.12196248 131.86815936 6.7760039 131.52123107 0 131 C0 87.77 0 44.54 0 0 Z " fill="#04303E" transform="translate(154,125)"/>
</svg>
