<?xml version="1.0" encoding="UTF-8"?>
<svg version="1.1" xmlns="http://www.w3.org/2000/svg" width="512" height="512">
<path d="M0 0 C15.31090477 12.29314523 24.83835133 26.98030433 29.7734375 45.95703125 C30.15937828 47.44053574 30.15937828 47.44053574 30.55311584 48.95401001 C34.41158441 64.1705899 37.24793559 79.62951873 40.24731445 95.03369141 C41.04953292 99.14684163 41.86136942 103.25798925 42.68359375 107.3671875 C42.81622997 108.03018608 42.9488662 108.69318466 43.0855217 109.37627411 C45.72121057 122.44286013 49.15171322 135.2414467 53 148 C65.6536 148 87.90563073 124.4147394 97 116 C98.09582682 114.88740361 99.18708112 113.77028284 100.2734375 112.6484375 C103 110 103 110 105 110 C105.26337158 109.40993164 105.52674316 108.81986328 105.7980957 108.21191406 C107.05201652 105.90427185 108.35195261 104.43272606 110.23046875 102.609375 C110.8649292 101.98659668 111.49938965 101.36381836 112.15307617 100.72216797 C112.82443604 100.07135254 113.4957959 99.42053711 114.1875 98.75 C118.6948743 94.31407052 123.12678429 89.90070501 127.21484375 85.0703125 C130.15747705 81.65763055 133.24313961 78.37553688 136.30615234 75.07128906 C139.35430311 71.78251984 142.38869068 68.48223136 145.40722656 65.16625977 C153.13677199 56.68873713 161.00328852 49.1482324 170 42 C171.00160156 41.18144531 172.00320313 40.36289063 173.03515625 39.51953125 C189.48853071 26.25333839 207.3350981 16.85974201 229 18 C240.81427216 19.28816052 251.1890198 24.10931561 260 32 C260.61488281 32.54527344 261.22976563 33.09054688 261.86328125 33.65234375 C278.54352199 49.37097416 287.75780187 74.57801871 290 97 C290.06558105 97.63518555 290.13116211 98.27037109 290.19873047 98.92480469 C292.1766242 119.31086529 288.5521252 138.42465199 284.06274414 158.26779175 C276.99074497 189.6554973 271.6393157 220.65688739 268.76428223 252.6887207 C264.44640612 300.23673452 249.12411026 348.01784717 221 387 C220.28585937 388.00675781 219.57171875 389.01351563 218.8359375 390.05078125 C205.12257546 408.87548732 188.64712279 426.98533853 170 441 C169.15953125 441.65742188 168.3190625 442.31484375 167.453125 442.9921875 C138.02811443 465.36564229 101.98541995 473.8138509 65.5 468.875 C42.11141014 465.33741316 13.65728109 457.15513188 -5.2109375 442.25390625 C-9.31220333 439.37943827 -15.4167397 440.91148235 -20.15234375 441.50390625 C-28.22141736 442.32481828 -36.33546514 442.1989372 -44.4375 442.1875 C-45.28959045 442.18656342 -46.14168091 442.18562683 -47.01959229 442.18466187 C-59.11016849 442.15578876 -71.05858317 442.08778431 -83 440 C-83.91281738 439.84402344 -84.82563477 439.68804687 -85.76611328 439.52734375 C-122.46507135 433.04999864 -157.06848563 417.670131 -179.50390625 386.59375 C-202.10005499 354.26175108 -211.57496575 313.31686142 -204.87304688 274.26416016 C-204.07897068 270.45492993 -203.11959234 266.72596898 -202 263 C-201.79101074 262.28859863 -201.58202148 261.57719727 -201.36669922 260.84423828 C-194.96860952 239.71376825 -183.77544439 220.85739197 -172.17358398 202.24853516 C-165.78813684 192.00014865 -159.60787846 181.69750485 -154 171 C-153.64067383 170.31550781 -153.28134766 169.63101563 -152.91113281 168.92578125 C-140.76608705 145.41924107 -135.79695974 119.59502818 -130.8359375 93.82421875 C-130.64403839 92.8306839 -130.45213928 91.83714905 -130.25442505 90.81350708 C-129.29700523 85.85138129 -128.34956613 80.88778494 -127.42236328 75.91992188 C-121.50903706 44.6604338 -114.37196204 16.3783802 -87 -3 C-59.67200125 -21.47526676 -26.15370375 -19.87817172 0 0 Z " fill="#609000" transform="translate(214,34)"/>
<path d="M0 0 C10.32480648 9.2962817 13.41603642 17.33525598 14.23681641 31.16894531 C15.25155203 58.46717854 10.24410132 79.60242432 -5.9609375 101.8359375 C-6.46399414 102.53444824 -6.96705078 103.23295898 -7.48535156 103.95263672 C-13.49125323 112.28051615 -19.60851401 120.4933421 -26.0859375 128.4609375 C-51.25382542 159.56787896 -62.25574334 189.6588319 -66.82397461 229.23071289 C-73.03864523 282.87508902 -90.23227205 331.47146702 -132.9609375 366.8359375 C-158.33212095 386.72056097 -190.66394066 397.98949575 -222.78466797 398.07617188 C-224.92846798 398.0857918 -227.07127113 398.11684905 -229.21484375 398.1484375 C-242.91452247 398.25586781 -255.79721518 396.2725469 -268.5859375 391.1484375 C-269.47345703 390.79958496 -270.36097656 390.45073242 -271.27539062 390.09130859 C-299.43399751 378.72270498 -323.60523723 356.93541763 -336.02929688 329.07617188 C-337.6647164 325.14362221 -339.03663416 321.14047811 -340.3359375 317.0859375 C-340.5745752 316.34279297 -340.81321289 315.59964844 -341.05908203 314.83398438 C-349.76019798 286.06934077 -345.24230478 256.02776097 -331.40698242 229.75415039 C-326.67491135 221.1317753 -321.27897147 213.36880268 -314.9609375 205.8359375 C-314.47302734 205.24796387 -313.98511719 204.65999023 -313.48242188 204.05419922 C-289.12520381 174.78375579 -257.95057065 154.16003345 -225.953125 134.05078125 C-224.97883545 133.43702637 -224.0045459 132.82327148 -223.00073242 132.19091797 C-221.16862289 131.03955717 -219.33311583 129.89357533 -217.4934082 128.75439453 C-212.13427524 125.39013255 -207.21000295 121.72059528 -202.31176758 117.71704102 C-199.06867482 115.12196056 -195.66817055 112.82008851 -192.2109375 110.5234375 C-181.16916207 103.03617933 -170.83776112 94.97992834 -161.22192383 85.71899414 C-159.14562952 83.73748646 -157.31507178 82.00806897 -154.71875 80.74609375 C-152.80227274 79.97436587 -152.80227274 79.97436587 -152.05297852 77.9909668 C-150.87225332 75.66092849 -149.59900774 74.25897941 -147.73046875 72.4453125 C-147.0960083 71.82253418 -146.46154785 71.19975586 -145.80786133 70.55810547 C-144.80082153 69.58188232 -144.80082153 69.58188232 -143.7734375 68.5859375 C-139.2660632 64.15000802 -134.83415321 59.73664251 -130.74609375 54.90625 C-127.80346045 51.49356805 -124.71779789 48.21147438 -121.65478516 44.90722656 C-118.60663439 41.61845734 -115.57224682 38.31816886 -112.55371094 35.00219727 C-104.82416551 26.52467463 -96.95764898 18.9841699 -87.9609375 11.8359375 C-86.45853516 10.60810547 -86.45853516 10.60810547 -84.92578125 9.35546875 C-60.52725338 -10.31682262 -27.07903651 -22.54945222 0 0 Z " fill="#DBE25B" transform="translate(471.9609375,64.1640625)"/>
<path d="M0 0 C2.49630512 2.44968483 2.8387803 3.64226173 3.08618164 7.05322266 C3.35669824 9.8322498 3.97332336 12.46008578 4.60546875 15.1796875 C4.8578833 16.27885498 5.11029785 17.37802246 5.37036133 18.51049805 C5.6361499 19.66461182 5.90193848 20.81872559 6.17578125 22.0078125 C8.52745425 32.39092194 10.59957514 42.75434176 12.03466797 53.30493164 C12.29017676 55.1799911 12.57417186 57.05110193 12.859375 58.921875 C16.82846104 91.5641173 11.83146321 128.59099413 -8.69921875 155.2578125 C-17.44579822 166.24454365 -27.01088972 176.43021244 -37.70703125 185.55078125 C-40.86401917 188.25588659 -43.93000885 191.0613657 -47.01171875 193.8515625 C-49.16348519 195.77814408 -51.33533088 197.67321725 -53.51953125 199.5625 C-92.25123908 233.42777665 -106.98915194 273.00020165 -110.48062134 323.33551025 C-115.50707455 394.84264899 -115.50707455 394.84264899 -135.69921875 424.2578125 C-163.44599633 411.98519934 -183.53331831 384.65426552 -194.38671875 357.06640625 C-205.05838164 328.68272462 -208.52860864 294.64175141 -199.69921875 265.2578125 C-199.49022949 264.54641113 -199.28124023 263.83500977 -199.06591797 263.10205078 C-192.66782827 241.97158075 -181.47466314 223.11520447 -169.87280273 204.50634766 C-163.48735559 194.25796115 -157.30709721 183.95531735 -151.69921875 173.2578125 C-151.33989258 172.57332031 -150.98056641 171.88882813 -150.61035156 171.18359375 C-138.4653058 147.67705357 -133.49617849 121.85284068 -128.53515625 96.08203125 C-128.34325714 95.0884964 -128.15135803 94.09496155 -127.9536438 93.07131958 C-126.99622398 88.10919379 -126.04878488 83.14559744 -125.12158203 78.17773438 C-119.20825581 46.9182463 -112.07118079 18.6361927 -84.69921875 -0.7421875 C-57.70785737 -18.98986843 -27.07490081 -16.78573617 0 0 Z " fill="#5F9000" transform="translate(211.69921875,31.7421875)"/>
<path d="M0 0 C11.66289518 3.81845678 19.76112563 17.24913495 25.0625 27.6875 C27.50166714 33.33945872 29.23768892 39.01000582 30.78125 44.96484375 C31.03797989 45.95328278 31.29470978 46.9417218 31.55921936 47.96011353 C35.411325 63.17563555 38.24841769 78.63199468 41.24731445 94.03369141 C42.04948111 98.14685226 42.86233195 102.25779794 43.68359375 106.3671875 C43.81589764 107.03151543 43.94820152 107.69584335 44.08451462 108.38030243 C46.18945878 118.87169667 48.80062268 129.16089415 51.932724 139.39474487 C52.2179744 140.34358551 52.50322479 141.29242615 52.79711914 142.27001953 C53.05384903 143.09196808 53.31057892 143.91391663 53.5750885 144.76077271 C54.05003242 147.26366424 53.94775527 148.6438483 53 151 C50.96289702 152.63090403 49.01258543 153.99777556 46.8125 155.375 C46.1532251 155.80143799 45.4939502 156.22787598 44.81469727 156.66723633 C42.55172383 158.12542447 40.2771974 159.56413397 38 161 C34.47836564 163.22790287 30.95743792 165.45691777 27.4375 167.6875 C26.04362061 168.57078979 26.04362061 168.57078979 24.62158203 169.47192383 C5.00540757 181.95296217 -14.65858753 194.85914829 -31.66015625 210.8125 C-33.72324584 212.7412649 -35.83515242 214.56297466 -38 216.375 C-61.28386107 236.7720409 -82.31036666 268.52657132 -85 300 C-86.52262847 326.91839512 -81.98888006 356.03409592 -65 378 C-64.31374491 379.28136692 -63.64802754 380.5738822 -63 381.875 C-51.57760317 402.67399125 -29.28006098 426.35996951 -8 437 C-8 437.66 -8 438.32 -8 439 C-20.00667511 440.68481073 -31.75654987 441.33203921 -43.875 441.25 C-44.70960754 441.24656586 -45.54421509 441.24313171 -46.40411377 441.23959351 C-58.35823556 441.18197191 -70.19506572 441.06392231 -82 439 C-82.91281738 438.84402344 -83.82563477 438.68804687 -84.76611328 438.52734375 C-102.92777098 435.32182155 -121.20927219 430.88731351 -137 421 C-135.86130983 418.63013721 -134.63176823 416.37188972 -133.30078125 414.1015625 C-122.48144178 395.44668016 -118.56087104 375.19639883 -116 354 C-115.89880859 353.16388184 -115.79761719 352.32776367 -115.69335938 351.46630859 C-114.78699944 343.68889265 -114.13832785 335.89320911 -113.55293274 328.08570862 C-109.7972106 278.1964287 -109.7972106 278.1964287 -101 257 C-100.7014209 256.27973633 -100.4028418 255.55947266 -100.09521484 254.81738281 C-92.46946833 236.78194681 -81.67828167 221.89732889 -68 208 C-67.40251953 207.38350586 -66.80503906 206.76701172 -66.18945312 206.13183594 C-59.22361269 198.94674046 -52.21862609 192.11631659 -44.35546875 185.9140625 C-41.59184495 183.66833172 -39.13840101 181.23032742 -36.66796875 178.671875 C-34.89199409 176.89174115 -33.03451051 175.26065144 -31.125 173.625 C-6.19072593 151.8911021 7.72751472 124.76098453 10.80810547 91.8515625 C12.74549383 63.06187282 9.43644978 34.09822322 0.69921875 6.57421875 C0 4 0 4 0 0 Z " fill="#486C00" transform="translate(213,35)"/>
<path d="M0 0 C4.56537304 4.02775189 8.76585163 9.80083991 9.296875 15.953125 C10.20478987 40.83439062 -4.35311709 61.3036699 -20.4765625 78.97265625 C-22.29560704 80.92444531 -24.1341531 82.85513949 -25.9765625 84.78515625 C-26.78867187 85.65011719 -27.60078125 86.51507813 -28.4375 87.40625 C-46.89806787 106.55386165 -74.38366141 125.19644021 -101.6015625 126.28515625 C-109.54318786 126.09026974 -115.17190561 124.30103463 -121.03515625 118.8828125 C-131.04428702 108.04132159 -132.62217085 94.12051051 -132.19140625 79.9453125 C-131.06411232 55.54304434 -120.79619092 34.40364136 -102.9765625 17.78515625 C-90.68414099 6.68150802 -77.0924802 -1.15645572 -60.9765625 -5.21484375 C-59.93757813 -5.51261719 -58.89859375 -5.81039062 -57.828125 -6.1171875 C-39.76433105 -10.77258333 -16.02234316 -10.69067606 0 0 Z " fill="#C88C39" transform="translate(331.9765625,231.21484375)"/>
<path d="M0 0 C2.16272596 2.16272596 2.56603668 3.27987075 3.4375 6.1484375 C3.69184814 6.98262207 3.94619629 7.81680664 4.20825195 8.67626953 C4.46952881 9.56685059 4.73080566 10.45743164 5 11.375 C5.40255005 12.74374268 5.40255005 12.74374268 5.81323242 14.14013672 C7.70998979 20.7253042 9.31666177 27.1666177 10 34 C10.09837158 34.95277832 10.09837158 34.95277832 10.19873047 35.92480469 C12.1766242 56.31086529 8.5521252 75.42465199 4.06274414 95.26779175 C-3.00925503 126.6554973 -8.3606843 157.65688739 -11.23571777 189.6887207 C-15.55359388 237.23673452 -30.87588974 285.01784717 -59 324 C-59.71414063 325.00675781 -60.42828125 326.01351563 -61.1640625 327.05078125 C-74.87742454 345.87548732 -91.35287721 363.98533853 -110 378 C-111.26070313 378.98613281 -111.26070313 378.98613281 -112.546875 379.9921875 C-141.26799071 401.83043228 -176.4870288 410.59211012 -212.19750977 406.12548828 C-237.41032983 402.58967017 -237.41032983 402.58967017 -242 398 C-241.32759277 397.96036133 -240.65518555 397.92072266 -239.96240234 397.87988281 C-201.8305046 395.53669032 -166.21484095 387.18272944 -135 364 C-134.06671875 363.30777344 -133.1334375 362.61554688 -132.171875 361.90234375 C-95.54971299 333.25781645 -78.04507261 292.38208083 -66.64550781 248.42529297 C-65.71940541 244.94575391 -64.67437183 241.50641447 -63.625 238.0625 C-61.62174208 231.43463891 -59.90071103 224.74504237 -58.20654297 218.0324707 C-51.25927188 190.51007379 -42.29317383 164.11190003 -31 138.0625 C-23.66222666 121.11920627 -17.15353378 104.09892535 -12.57666016 86.19677734 C-12.00833082 84.03173611 -11.39079714 81.88636576 -10.76171875 79.73828125 C-3.50046533 54.09065742 -1.46162282 26.51801403 0 0 Z " fill="#486C00" transform="translate(494,97)"/>
<path d="M0 0 C5.39350387 3.59873722 8.45875541 8.60501082 11.3125 14.3125 C13.25541294 36.82253425 2.66996049 55.89913815 -11.37402344 72.77001953 C-15.33570833 77.42242197 -19.46870097 81.89309525 -23.6875 86.3125 C-24.49960937 87.17746094 -25.31171875 88.04242188 -26.1484375 88.93359375 C-44.60900537 108.0812054 -72.09459891 126.72378396 -99.3125 127.8125 C-107.27230079 127.61716747 -112.94983115 125.8339977 -118.78125 120.33984375 C-122.85274859 115.87621312 -125.6875 112.51271298 -125.6875 106.3125 C-125.09066406 106.28671875 -124.49382812 106.2609375 -123.87890625 106.234375 C-99.91353031 104.66754507 -73.85504946 95.6051871 -57.27734375 77.7109375 C-48.00530241 66.72070486 -39.11071086 53.1497749 -38.6875 38.3125 C-38.61402344 37.15234375 -38.54054688 35.9921875 -38.46484375 34.796875 C-37.76727354 19.82864234 -42.60657295 7.81814215 -50.6875 -4.6875 C-35.97160132 -10.78861886 -13.79241481 -7.35732083 0 0 Z " fill="#97692B" transform="translate(329.6875,229.6875)"/>
<path d="M0 0 C4.53485839 2.8116122 7.33538252 5.99537931 9.3046875 10.9765625 C12.84861267 26.3866641 9.8533084 44.99868608 1.703125 58.5 C-7.3808948 71.83434099 -7.3808948 71.83434099 -14 75 C-17.125 75.5625 -17.125 75.5625 -20 75 C-25.39993126 69.45412465 -25.33916794 64.57522943 -25.39379883 57.21850586 C-25.2546547 47.61933387 -23.02314566 38.61804936 -20.60644531 29.37304688 C-20.09441937 27.36946709 -19.64541253 25.34993952 -19.2109375 23.328125 C-17.43022933 15.04675928 -14.32731549 7.57686416 -8.5 1.3125 C-5.27414117 -0.38107588 -3.59770555 -0.66080306 0 0 Z " fill="#91C437" transform="translate(127,78)"/>
<path d="M0 0 C2.64179701 3.54815612 3.38267389 6.14318245 3.3984375 10.52734375 C3.40423828 12.08678711 3.40423828 12.08678711 3.41015625 13.67773438 C3.39855469 14.75345703 3.38695312 15.82917969 3.375 16.9375 C3.38660156 18.00935547 3.39820313 19.08121094 3.41015625 20.18554688 C3.38237948 27.66212873 2.56006975 32.26132073 -2.6875 37.875 C-7.05499796 40.67679114 -8.8987622 40.74050226 -14 40 C-16.96858157 37.79259319 -17.82865791 36.51402627 -19 33 C-19.96074637 22.23964063 -14.93813228 11.78843577 -9 3 C-5.974042 0.34135482 -4.0834155 -0.83762369 0 0 Z " fill="#D3A260" transform="translate(239,268)"/>
</svg>
