<?xml version="1.0" encoding="utf-8"?>
<!-- Designed by Vexels.com - 2019 All Rights Reserved - https://vexels.com/terms-and-conditions/  -->
<svg version="1.1" id="Capa_1" xmlns="http://www.w3.org/2000/svg" xmlns:xlink="http://www.w3.org/1999/xlink" x="0px" y="0px"
	 viewBox="0 0 1200 1200" enable-background="new 0 0 1200 1200" xml:space="preserve">
<g>
	<g>
		<path fill="#F1EACE" d="M198.129,580.214c23.242-9.106,47.853-14.197,72.759-15.673c29.028-1.722,58.455,1.475,86.586,9.012
			c1.832,0.49,3.659,0.995,5.479,1.522c20.889,6.06,41.298,14.46,62.868,17.223c32.412,4.164,64.461-4.658,94.641-18.201
			c11.265-5.055,22.267-10.77,32.934-16.711c0.449-0.25,0.9-0.498,1.348-0.749c12.258-6.87,24.429-14.1,36.705-21.096
			c27.387-15.61,55.303-30.06,85.909-36.748c15.778-3.443,31.806-4.71,47.945-5.008c9.635-0.178,19.31-0.01,28.996,0.249
			c32.114,0.859,64.349,2.713,95.645-3.75c39.182-8.087,74.035-28.516,107.001-51.765c-0.227-0.483-0.453-0.981-0.694-1.464
			c-35.365,18.332-74.366,29.647-114.077,32.785c-60.38,4.798-122.073-8.751-181.231,4.255
			c-63.609,14.001-117.321,57.227-180.055,74.759c-47.511,13.277-97.813,11.165-147.043,8.162
			c-49.246-3.003-99.201-6.759-147.466,3.425c-43.12,9.083-85.456,31.08-110.637,66.642c7.604,10.863,15.616,21.44,24.064,31.684
			c0,0,0.001-0.001,0.001-0.001c-0.002-0.002-0.003-0.004-0.005-0.006C123.233,623.409,158.47,595.76,198.129,580.214z"/>
	</g>
	<g>
		<path fill="#F1EACE" d="M184.433,516.761c57.001-13.503,116.657-8.751,174.759-1.343c21.364,2.716,42.834,5.794,64.333,4.783
			c70.61-3.319,131.292-49.291,198.582-70.881c94.825-30.447,199.744-11.527,295.323-39.53c7.498-2.203,15.073-4.813,22.375-7.951
			c-3.651-7.846-7.333-15.706-10.999-23.567c-2.897-6.186-5.959-12.613-11.331-16.853c-0.83-0.649-1.705-1.252-2.61-1.765
			c-27.097,14.499-51.328,39.198-79.919,52.233c-24.547,11.18-52.188,13.534-79.164,13.307
			c-39.047-0.347-77.972-5.748-116.989-4.632c-39.016,1.101-79.361,9.475-110.184,33.404c-11.301,8.781-21.077,19.448-32.725,27.731
			c-15.676,11.134-34.249,17.592-53.078,21.47c-47.858,9.867-97.375,3.757-145.972-1.494c-48.582-5.251-98.597-9.505-145.625,3.817
			c-43.573,12.342-84.551,43.045-98.688,85.456c1.463,3.168,3.184,6.292,5.054,9.354C85.292,557.12,133.95,528.725,184.433,516.761z
			"/>
	</g>
	<g>
		<path fill="#DC4926" d="M151.21,505.49c47.028-13.322,97.043-9.068,145.625-3.817c48.597,5.251,98.114,11.361,145.972,1.494
			c18.829-3.878,37.402-10.335,53.078-21.47c11.648-8.283,21.424-18.95,32.725-27.731c30.824-23.929,71.168-32.302,110.184-33.404
			c39.016-1.117,77.942,4.285,116.989,4.632c26.977,0.226,54.617-2.127,79.164-13.307c28.591-13.036,52.821-37.734,79.919-52.233
			c-4.873-2.882-10.727-4.013-16.43-4.239c-36.12-1.403-64.681,28.606-97.224,44.327c-82.559,39.861-187.387-14.167-270.55,24.397
			c-34.279,15.902-60.652,46.032-95.565,60.486c-49.547,20.504-105.628,5.96-158.404-3.561
			c-40.782-7.347-87.372-10.999-125.589,8.283c-26.961,13.594-115.978,62.643-98.959,100.785c0.121,0.272,0.241,0.543,0.377,0.815
			C66.659,548.535,107.637,517.832,151.21,505.49z"/>
	</g>
	<g>
		<path fill="#DC4926" d="M186.379,560.439c48.265-10.184,98.22-6.427,147.466-3.425c49.231,3.003,99.533,5.115,147.043-8.162
			c62.734-17.531,116.446-60.757,180.055-74.759c59.158-13.006,120.851,0.543,181.231-4.255
			c39.711-3.138,78.712-14.454,114.077-32.785c-5.477-11.738-10.954-23.476-16.445-35.214c-7.302,3.138-14.876,5.748-22.375,7.951
			c-95.58,28.003-200.498,9.083-295.323,39.53c-67.29,21.59-127.972,67.562-198.582,70.881c-21.5,1.011-42.969-2.067-64.333-4.783
			c-58.102-7.408-117.758-12.161-174.759,1.343c-50.483,11.964-99.14,40.359-126.856,83.54c4.391,7.272,9.611,14.288,14.197,21.032
			c1.313,1.931,2.625,3.832,3.968,5.748C100.923,591.52,143.259,569.522,186.379,560.439z"/>
	</g>
	<g>
		<path fill="#DC4926" d="M959.471,443.923c-0.847-1.805-1.676-3.611-2.523-5.397c-32.972,23.246-67.823,43.674-107.003,51.761
			c-31.298,6.464-63.533,4.606-95.646,3.746c-9.686-0.259-19.361-0.428-28.996-0.249c-16.137,0.298-32.161,1.568-47.936,5.013
			c-30.614,6.69-58.531,21.136-85.918,36.743c-12.277,6.997-24.447,14.226-36.705,21.096c-0.447,0.251-0.899,0.499-1.348,0.749
			c-10.666,5.942-21.668,11.656-32.934,16.711c-30.181,13.544-62.229,22.365-94.641,18.201c-21.57-2.763-41.98-11.162-62.868-17.223
			c-1.82-0.527-3.647-1.032-5.479-1.522c-28.134-7.532-57.56-10.731-86.586-9.012c-24.906,1.476-49.517,6.567-72.759,15.673
			c-39.659,15.547-74.896,43.195-98.327,78.544c0.002,0.002,0.003,0.004,0.005,0.006c5.046,6.169,10.238,12.19,15.578,18.101
			c1.455,1.621,2.984,3.26,4.716,4.531c11.973-25.512,53.603-51.834,69.536-59.239c39.161-18.254,84.678-15.252,127.357-8.565
			c42.661,6.705,85.728,16.744,128.591,11.328c81.528-10.297,147.067-74.16,227.102-92.838
			c47.487-11.089,97.019-5.581,145.759-6.245c48.758-0.663,100.721-9.044,136.714-41.943c3.739-3.408,7.257-7.074,10.831-10.684
			c0.332-1.639,0.534-3.334,0.571-5.029C966.747,459.672,963.063,451.623,959.471,443.923z"/>
	</g>
	<g>
		<path fill="#9E5E2D" d="M955.161,483.895c-35.993,32.898-87.956,41.279-136.714,41.943c-48.74,0.663-98.272-4.844-145.759,6.245
			c-80.036,18.678-145.575,82.541-227.102,92.838c-42.864,5.416-85.93-4.623-128.591-11.328
			c-42.68-6.687-88.196-9.689-127.357,8.565c-15.933,7.405-57.563,33.727-69.536,59.239c1.087,0.829,2.284,1.492,3.574,1.916
			c0.295,0.11,0.589,0.184,0.884,0.258c7,1.676,13.834-3.997,19.139-9.173c15.381-15.049,31.738-29.656,51.319-38.59
			c46.327-21.165,100.021-7.018,150.272,1.216c80.809,13.226,167.126,9.192,239.647-28.846
			c37.08-19.452,70.604-47.653,111.497-56.679c51.724-11.439,105.732,9.947,158.248,3.076c40.23-5.286,77.862-27.888,101.422-60.915
			c4.421-6.208,8.473-13.06,9.891-20.446C962.419,476.821,958.901,480.487,955.161,483.895z"/>
	</g>
	<g>
		<g>
			<path fill="#F1EACE" d="M520.832,752.903c35.279-17.858,75.806-24.074,115.266-20.287c7.1,0.681,14.17,1.647,21.164,2.969
				c1.703,0.323,3.404,0.668,5.104,1.021c16.083,3.337,32.057,7.77,48.452,8.303c37.835,1.234,73.11-18.273,104.221-39.824
				c0.901-0.624,1.798-1.257,2.697-1.885c30.169-21.097,59.53-44.631,94.521-55.85c44.398-14.218,93.332-7.061,138.158-19.436
				c1.489-0.411,2.974-0.843,4.454-1.299c31.885-9.818,59.203-29.546,84.733-51.448c0,0,0,0.001,0,0.001
				c0.002-0.002,0.005-0.004,0.007-0.006c-0.226-0.383-0.454-0.778-0.692-1.16c-27.91,18.021-59.394,30.504-92.115,36.255
				c-49.751,8.766-102.044,2.403-150.13,17.887c-51.702,16.662-92.872,56.804-143.568,76.329
				c-38.394,14.786-80.324,17.017-121.435,18.423c-41.124,1.408-82.896,2.245-122.162,14.523
				c-35.081,10.956-68.487,32.573-86.577,64.091c7.174,8.417,14.663,16.563,22.489,24.4c0.001-0.002,0.002-0.004,0.003-0.006
				c-0.001-0.001-0.001-0.001-0.002-0.002C462.072,794.698,489.131,768.947,520.832,752.903z"/>
		</g>
		<g>
			<path fill="#F1EACE" d="M504.432,701.309c46.255-15.726,96.161-16.505,144.986-14.956c17.952,0.563,36.021,1.417,53.791-1.125
				c58.361-8.348,105.1-51.322,159.258-74.577c76.317-32.789,164.923-25.39,242.06-56.21c6.051-2.423,12.133-5.19,17.947-8.374
				c-3.653-6.224-7.332-12.459-10.998-18.695c-2.895-4.907-5.947-10-10.742-13.095c-0.74-0.473-1.514-0.904-2.307-1.259
				c-21.349,14.184-39.51,36.609-62.215,49.696c-19.495,11.226-42.257,15.37-64.672,17.318c-32.446,2.804-65.191,1.403-97.496,5.42
				c-32.306,4.004-65.138,14.152-88.834,36.46c-8.687,8.185-15.959,17.816-24.973,25.616
				c-12.133,10.486-27.042,17.318-42.367,22.029c-38.952,11.983-80.548,10.832-121.311,10.321
				c-40.751-0.511-82.612-0.082-120.602,14.703c-35.199,13.698-66.788,42.434-75.167,78.766c1.466,2.515,3.141,4.971,4.937,7.366
				C425.318,742.67,463.466,715.241,504.432,701.309z"/>
		</g>
		<g>
			<path fill="#DC4926" d="M475.956,694.584c37.99-14.786,79.851-15.215,120.602-14.703c40.763,0.51,82.359,1.661,121.311-10.321
				c15.326-4.711,30.234-11.543,42.367-22.029c9.014-7.8,16.286-17.43,24.973-25.616c23.696-22.308,56.528-32.456,88.834-36.46
				c32.305-4.017,65.051-2.616,97.496-5.42c22.415-1.949,45.177-6.092,64.672-17.318c22.705-13.087,40.866-35.512,62.215-49.696
				c-4.274-2.007-9.224-2.482-13.977-2.218c-30.099,1.696-51.435,28.873-77.209,44.503c-65.387,39.633-156.7,3.079-222.69,41.683
				c-27.2,15.918-46.71,43.022-74.551,57.787c-39.513,20.948-87.225,13.314-131.796,9.59c-34.441-2.87-73.411-2.211-103.613,16.824
				c-21.308,13.421-91.328,61.195-74.178,91.514c0.122,0.216,0.243,0.432,0.378,0.647
				C409.168,737.018,440.757,708.281,475.956,694.584z"/>
		</g>
		<g>
			<path fill="#DC4926" d="M509.507,737.419c39.265-12.278,81.038-13.116,122.162-14.523c41.111-1.406,83.042-3.637,121.435-18.423
				c50.696-19.524,91.866-59.667,143.568-76.329c48.086-15.484,100.379-9.121,150.13-17.887
				c32.721-5.751,64.205-18.234,92.115-36.255c-5.477-9.312-10.954-18.624-16.443-27.934c-5.814,3.184-11.896,5.951-17.947,8.374
				c-77.137,30.819-165.743,23.421-242.06,56.21c-54.157,23.255-100.897,66.229-159.258,74.577
				c-17.77,2.542-35.839,1.687-53.791,1.125c-48.826-1.549-98.731-0.769-144.986,14.956c-40.966,13.932-79.114,41.36-98.705,79.406
				c4.221,5.69,9.111,11.101,13.453,16.338c1.243,1.499,2.483,2.974,3.75,4.458C441.02,769.992,474.426,748.375,509.507,737.419z"/>
		</g>
		<g>
			<path fill="#DC4926" d="M529.711,780.625c17.978-9.063,37.982-14.239,58.171-14.312c20.999-0.055,41.667,4.826,62.537,7.147
				c59.497,6.576,121.444-8.75,170.11-43.601c14.405-10.315,27.686-22.27,42.901-31.333
				c52.368-31.241,117.926-23.891,178.473-31.185c18.991-2.284,38.314-6.318,54.431-16.633c21.257-13.613,34.796-36.73,53.4-53.51
				c-0.958-6.355-4.31-12.176-7.607-17.757c-0.847-1.418-1.676-2.854-2.523-4.272c0,0,0-0.001,0-0.001
				c-25.53,21.902-52.847,41.63-84.733,51.448c-1.48,0.456-2.964,0.887-4.454,1.299c-44.818,12.383-93.764,5.216-138.155,19.442
				c-34.987,11.215-64.35,34.755-94.525,55.843c-0.899,0.628-1.796,1.262-2.697,1.885c-31.112,21.552-66.386,41.058-104.221,39.824
				c-16.395-0.533-32.369-4.966-48.452-8.303c-1.697-0.352-3.395-0.696-5.095-1.018c-6.997-1.323-14.069-2.29-21.172-2.972
				c-39.46-3.787-79.987,2.429-115.266,20.287c-31.701,16.044-58.76,41.795-75.412,72.999c0.001,0.001,0.001,0.001,0.002,0.002
				c4.678,4.715,9.448,9.319,14.366,13.813c2.174,1.99,4.513,4.034,7.387,4.679c0.258,0.074,0.516,0.11,0.774,0.147
				c1.031,0.147,2.063,0.11,3.058-0.092C470.803,817.281,510.056,790.535,529.711,780.625z"/>
		</g>
		<g>
			<path fill="#9E5E2D" d="M1149.936,599.021c-0.037-0.608-0.111-1.216-0.203-1.824c-18.604,16.781-32.143,39.898-53.4,53.51
				c-16.118,10.315-35.44,14.349-54.431,16.633c-60.547,7.294-126.105-0.055-178.473,31.185
				c-15.215,9.063-28.496,21.017-42.901,31.333c-48.666,34.851-110.613,50.177-170.11,43.601
				c-20.87-2.321-41.537-7.202-62.537-7.147c-20.188,0.073-40.193,5.25-58.171,14.312c-19.655,9.91-58.908,36.656-58.705,63.826
				c4.66-0.903,8.805-5.158,12.084-9.044c11.586-13.705,24.02-27.133,39.566-36.104c36.785-21.238,82.486-13.742,124.852-10.886
				c68.136,4.587,139.496-5.618,196.672-42.937c29.251-19.083,54.855-45.148,88.085-55.887
				c42.053-13.594,88.564-0.111,131.631-9.984c32.972-7.571,62.444-29.307,79.372-58.595
				C1147.173,614.291,1150.507,606.776,1149.936,599.021z"/>
		</g>
	</g>
</g>
</svg>
