<?xml version="1.0" encoding="utf-8"?>
<!-- Generator: Adobe Illustrator 23.0.6, SVG Export Plug-In . SVG Version: 6.00 Build 0)  -->
<svg version="1.1" id="Layer_1" xmlns="http://www.w3.org/2000/svg" xmlns:xlink="http://www.w3.org/1999/xlink" x="0px" y="0px"
	 viewBox="0 0 1200 1200" enable-background="new 0 0 1200 1200" xml:space="preserve">
<g>
	<g>
		<path fill="#FFC075" d="M1115.48,357.985C873.084,617.887,586.378,850.913,257.71,991.792
			c-43.224,18.527-89.189,35.699-136.006,31.251c-33.259-3.16-70.028-24-71.65-57.369c-0.657-13.512,4.684-26.554,10.6-38.72
			c25.829-53.12,64.2-99.166,105.389-141.502C276.958,671.45,409.572,581.426,536.438,485.492
			C670.7,383.966,801.153,273.979,954.089,203.662c27.756-12.762,56.682-24.29,87.119-26.907
			c30.437-2.617,62.913,4.72,85.206,25.607c44.192,41.405,18.987,120.133-16.046,159.093"/>
	</g>
	<g>
		<path fill="#FD9F58" d="M109.028,948.579c32.23,3.87,63.134-0.359,92.713-12.685c171.362-60.484,331.956-130.177,466.93-250.392
			c136.114-120.958,209.628-290.504,250.632-464.958c11.476-5.838,23.058-11.49,34.787-16.882
			c27.756-12.762,56.682-24.29,87.119-26.907c30.437-2.616,62.913,4.72,85.207,25.607c44.192,41.405,18.987,120.133-16.046,159.093
			l5.112-3.471C873.084,617.887,586.378,850.912,257.71,991.792c-43.224,18.527-89.189,35.699-136.006,31.251
			c-33.259-3.16-70.028-24-71.65-57.369c-0.54-11.105,2.974-21.891,7.526-32.135C74.141,941.653,92.1,946.763,109.028,948.579z"/>
	</g>
	<g>
		<path fill="#FFDC8E" d="M1011.166,235.432c-0.501-12.687-15.45-19.284-25.091-11.021
			c-59.172,50.718-97.943,126.125-102.689,203.938c-3.182,52.172,21.018,80.92,58.102,31.896
			c25.828-34.144,45.231-73.249,57.432-114.253c6.885-23.14,11.492-46.969,13.595-71.024
			C1012.864,270.98,1011.838,252.432,1011.166,235.432z"/>
	</g>
	<g>
		<path fill="#FFDC8E" d="M842.81,323.717c-12.108,34.569-13.428,71.801-17.911,108.153c-6.363,51.597-19.566,102.95-44.931,148.33
			c-25.365,45.381-63.618,84.579-111.297,105.301c33.186-34.49,37.581-86.461,45.004-133.745
			c10.006-63.742,28.756-126.105,55.561-184.796c8.138-17.819,17.62-36.025,33.606-47.347c12.803-9.067,31.539-12.371,43.733-2.501
			L842.81,323.717z"/>
	</g>
	<g>
		<path fill="#FFDC8E" d="M666.607,445.292c-56.456,67.969-42.583,169.753-78.035,250.686
			c-25.076,57.244-76.142,102.486-135.99,120.48c23.325-18.325,37.753-45.914,46.534-74.247
			c8.781-28.333,12.548-57.934,18.648-86.963c7.293-34.706,17.957-68.703,31.795-101.356
			c20.438-48.23,53.634-97.876,104.937-108.448"/>
	</g>
	<g>
		<path fill="#FFDC8E" d="M400.019,825.213C400.019,825.213,400.019,825.213,400.019,825.213
			c-21.958,40.219-66.167,67.314-111.971,68.624c30.754-22.85,58.101-52.078,71.43-87.998c9.242-24.905,11.348-51.77,15.098-78.068
			c3.75-26.298,9.578-53.202,24.94-74.873c8.09-11.411,40.492-43.722,52.354-24.079c7.912,13.103-14.266,47.725-17.857,61.168
			C422.041,734.802,422.711,783.649,400.019,825.213z"/>
	</g>
	<g>
		<path fill="#FFDC8E" d="M189.003,925.434c-0.001,0-0.001,0.001-0.002,0.001c-2.525,1.547-5.293,3.071-8.248,2.884
			c0.456-42.6,15.074-84.302,37.424-120.571c9.934-16.121,26.233-39.099,46.309-43.192c29.697-6.054,11.893,32.051,6.02,49.575
			C255.666,858.416,229.57,900.586,189.003,925.434z"/>
	</g>
	<g>
		<path fill="#FFC075" d="M888.202,469.251c61.695-65.551,94.083-156.426,99.314-245.905c9.619-6.517,23.172,0.011,23.65,12.086
			c0.672,17,1.698,35.549,1.349,39.536c-2.103,24.054-6.71,47.884-13.595,71.024c-12.201,41.004-31.604,80.109-57.432,114.253
			C916.198,493.678,896.91,490.922,888.202,469.251z"/>
	</g>
	<g>
		<path fill="#FD9F58" d="M811.207,314.912c11.728-5.146,25.63-5.68,35.368,2.202l-3.765,6.603
			c-12.108,34.569-13.428,71.801-17.911,108.153c-6.363,51.597-19.566,102.95-44.931,148.33
			c-25.365,45.38-63.618,84.579-111.297,105.301c5.049-5.247,9.423-10.904,13.252-16.883
			c99.778-73.586,89.04-227.972,124.033-343.847C807.306,321.149,809.106,317.904,811.207,314.912z"/>
	</g>
	<g>
		<path fill="#FD9F58" d="M557.219,694.766c25.537-79.144,22.012-171.631,66.795-237.558c9.369-5.441,19.508-9.502,30.482-11.763
			l12.111-0.153c-56.456,67.969-42.583,169.753-78.035,250.686c-25.075,57.244-76.142,102.486-135.99,120.48
			c4.846-3.807,9.287-8.034,13.394-12.565C511.387,788.017,540.573,741.925,557.219,694.766z"/>
	</g>
	<g>
		<path fill="#FD9F58" d="M451.871,628.818c7.912,13.103-14.266,47.725-17.857,61.168c-11.972,44.816-11.302,93.663-33.994,135.227
			c0,0,0,0,0,0c-16.095,29.481-44.152,51.893-76.023,62.284c70.926-50.923,70.799-174.529,102.207-259.516
			C436.193,621.83,446.298,619.59,451.871,628.818z"/>
	</g>
	<g>
		<path fill="#FD9F58" d="M270.506,814.132c-14.84,44.284-40.936,86.454-81.503,111.302c-0.001,0-0.001,0.001-0.002,0.001
			c-2.525,1.547-5.293,3.071-8.248,2.884c0.062-5.744,0.401-11.468,0.962-17.168c42.415-36.462,67.543-93.407,86.672-147.136
			C292.478,762.123,276.098,797.445,270.506,814.132z"/>
	</g>
	<g>
		<path fill="#FFC075" d="M1076.685,333.873c0.488,6.549-4.897,12.786-11.365,13.922s-13.298-2.438-16.696-8.059
			s-3.532-12.888-1.052-18.969c2.118-5.194,6.698-9.929,12.306-10.045c5.397-0.112,10.031,4.058,12.671,8.767
			c3.152,5.622,4.286,12.349,3.15,18.693"/>
	</g>
	<g>
		<path fill="#FFC075" d="M1059.252,276.805c-2.618-3.838-2.975-8.949-1.545-13.369c0,0,0,0,0,0
			c5.08-15.694,21.375-3.264,21.084,8.234C1078.525,282.159,1065.38,285.789,1059.252,276.805z"/>
	</g>
	<g>
		<path fill="#FFC075" d="M1020.318,361.299c2.962-3.954,5.197-9.349,2.904-13.725c-1.93-3.685-6.648-5.288-10.737-4.523
			c-4.089,0.765-7.577,3.458-10.352,6.557c-3.913,4.37-6.733,9.711-8.134,15.407c-0.753,3.059-1.003,6.599,0.957,9.065
			c0.001,0.001,0.002,0.003,0.004,0.004C1001.001,381.667,1017.197,365.465,1020.318,361.299z"/>
	</g>
	<g>
		<path fill="#FFC075" d="M1015.885,292.396c-1.1-3.968-0.023-8.283,2-11.87c0-0.001,0.001-0.002,0.001-0.002
			c6.791-12.039,17.259-0.693,15.915,9.239C1032.481,299.525,1019.077,303.911,1015.885,292.396z"/>
	</g>
	<g>
		<path fill="#FFC075" d="M1048.569,375.317C1048.569,375.317,1048.569,375.317,1048.569,375.317
			c-0.066-1.008-0.311-2.036-0.917-2.843c-0.931-1.239-2.541-1.753-4.074-1.978c-3.424-0.503-7.125,0.16-9.813,2.34
			c-2.688,2.179-4.12,6.009-2.979,9.275C1034.237,391.987,1049.09,383.274,1048.569,375.317z"/>
	</g>
	<g>
		<path fill="#FFC075" d="M133.597,985.83c0.302,4.047-3.026,7.901-7.023,8.604c-3.997,0.702-8.218-1.506-10.317-4.98
			c-2.099-3.473-2.182-7.964-0.65-11.722c1.309-3.21,4.139-6.136,7.604-6.208c3.335-0.069,6.199,2.508,7.83,5.418
			c1.948,3.474,2.648,7.631,1.947,11.552"/>
	</g>
	<g>
		<path fill="#FD9F58" d="M122.973,930.793c0.302,4.047-3.026,7.901-7.023,8.604s-8.218-1.506-10.317-4.98
			c-2.099-3.473-2.182-7.964-0.65-11.722c1.309-3.21,4.139-6.136,7.604-6.208c3.335-0.069,6.199,2.508,7.83,5.418
			c1.948,3.474,2.648,7.631,1.947,11.552"/>
	</g>
	<g>
		<path fill="#FD9F58" d="M489.701,567.577c-1.618-2.372-1.839-5.53-0.955-8.262c0,0,0,0,0,0c3.139-9.698,13.209-2.017,13.029,5.088
			C501.611,570.886,493.488,573.129,489.701,567.577z"/>
	</g>
	<g>
		<path fill="#FD9F58" d="M862.245,319.086c-3.353-4.818-4.761-10.587-4.277-15.215c0,0,0,0,0,0
			c1.716-16.434,20.217,0.788,22.312,13.538C882.192,329.042,870.095,330.365,862.245,319.086z"/>
	</g>
	<g>
		<path fill="#FFC075" d="M132.049,1013.102c1.83-2.443,3.211-5.777,1.795-8.482c-1.193-2.277-4.108-3.268-6.635-2.795
			c-2.527,0.473-4.683,2.137-6.397,4.052c-2.418,2.701-4.16,6.001-5.027,9.521c-0.465,1.89-0.62,4.078,0.591,5.602
			c0.001,0.001,0.001,0.002,0.002,0.003C120.112,1025.689,130.12,1015.677,132.049,1013.102z"/>
	</g>
	<g>
		<path fill="#FFC075" d="M92.325,997.259c-0.68-2.452-0.014-5.119,1.236-7.336c0,0,0.001-0.001,0.001-0.001
			c4.197-7.44,10.665-0.428,9.835,5.709C102.581,1001.664,94.298,1004.375,92.325,997.259z"/>
	</g>
	<g>
		<path fill="#FD9F58" d="M85.862,911.89c-0.68-2.452-0.014-5.119,1.236-7.336c0,0,0.001-0.001,0.001-0.001
			c4.197-7.44,10.665-0.428,9.835,5.709C96.117,916.295,87.834,919.006,85.862,911.89z"/>
	</g>
	<g>
		<path fill="#FD9F58" d="M326.488,741.278C326.488,741.278,326.488,741.278,326.488,741.278c-0.041-0.623-0.192-1.258-0.567-1.757
			c-0.575-0.766-1.57-1.083-2.518-1.222c-2.116-0.311-4.403,0.099-6.064,1.446c-1.661,1.346-2.546,3.713-1.841,5.731
			C317.631,751.58,326.81,746.196,326.488,741.278z"/>
	</g>
	<g>
		<path fill="#FFC075" d="M852.106,563.431c-0.124,3.397-2.985,6.374-6.321,7.024c-3.337,0.649-6.896-0.834-9.124-3.401
			c-5.208-6.002-1.283-17.139,6.537-18.549c7.82-1.41,15.388,7.655,12.604,15.098"/>
	</g>
	<g>
		<path fill="#FFC075" d="M785.68,591.427c-17.42,9.059-18.264,40.259,5.994,35.178C816.999,621.301,807.532,580.062,785.68,591.427
			z"/>
	</g>
	<g>
		<path fill="#FFC075" d="M801.548,537.635c0,0-0.001-0.001-0.002-0.001c-2.94-2.029-2.908-6.313-2.49-9.861
			c1.329-11.29,14.59-31.683,24.312-14.615C829.689,524.253,813.623,545.962,801.548,537.635z"/>
	</g>
	<g>
		<path fill="#FFC075" d="M883.503,500.003C883.503,500.003,883.503,500.003,883.503,500.003c-3.301,0.033-6.864-0.278-9.379-2.415
			c-2.546-2.163-3.089-5.594-2.23-8.819c0.776-2.913,2.698-5.657,5.323-7.146C897.004,470.399,903.504,499.806,883.503,500.003z"/>
	</g>
	<g>
		<path fill="#FFC075" d="M63.339,989.681C63.339,989.681,63.339,989.681,63.339,989.681c-5.382-2.089-9.024-7.508-10.01-13.196
			c-0.564-3.254-0.33-6.746,1.276-9.632C70.015,939.167,94.905,1001.93,63.339,989.681z"/>
	</g>
	<g>
		<path fill="#FFC075" d="M388.079,918.971C388.078,918.971,388.078,918.971,388.079,918.971c-5.718,2.786-12.657,1.419-18.373-1.37
			c-5.465-2.667-10.601-7.004-12.033-12.914c-3.882-16.017,15.849-22.259,27.785-17.54
			C398.154,892.166,402.746,911.822,388.079,918.971z"/>
	</g>
	<g>
		<path fill="#FFC075" d="M447.931,866.022C447.931,866.022,447.931,866.022,447.931,866.022c-2.8-2.39-3.418-6.504-3.031-10.164
			c1.531-14.467,21.984-24.022,28.194-7.027C477.945,862.106,458.93,875.409,447.931,866.022z"/>
	</g>
	<g>
		<path fill="#FD9F58" d="M622.632,626.679C622.632,626.679,622.632,626.679,622.632,626.679c-3.156,1.538-6.986,0.783-10.141-0.756
			c-3.016-1.472-5.851-3.866-6.642-7.128c-2.143-8.84,8.748-12.286,15.336-9.681C628.193,611.884,630.728,622.734,622.632,626.679z"
			/>
	</g>
	<g>
		<path fill="#FD9F58" d="M659.635,546.448C659.635,546.448,659.635,546.448,659.635,546.448c-3.156,1.538-6.986,0.783-10.141-0.756
			c-3.016-1.472-5.851-3.866-6.642-7.128c-2.143-8.84,8.748-12.286,15.336-9.681C665.196,531.653,667.731,542.503,659.635,546.448z"
			/>
	</g>
	<g>
		<path fill="#FD9F58" d="M445.874,760.334C445.874,760.334,445.874,760.334,445.874,760.334c-3.156,1.538-6.986,0.783-10.141-0.756
			c-3.016-1.472-5.851-3.866-6.642-7.128c-2.143-8.84,8.748-12.286,15.336-9.681C451.435,745.539,453.97,756.388,445.874,760.334z"
			/>
	</g>
	<g>
		<path fill="#FD9F58" d="M655.667,597.454C655.667,597.454,655.667,597.454,655.667,597.454c-1.545-1.319-1.887-3.59-1.673-5.61
			c0.845-7.985,12.134-13.259,15.562-3.878C672.234,595.293,661.739,602.635,655.667,597.454z"/>
	</g>
	<g>
		<path fill="#FD9F58" d="M108.249,892.643C108.248,892.643,108.248,892.643,108.249,892.643c-1.545-1.319-1.887-3.59-1.673-5.61
			c0.845-7.985,12.134-13.259,15.562-3.878C124.815,890.482,114.32,897.824,108.249,892.643z"/>
	</g>
	<g>
		<path fill="#FD9F58" d="M878.85,286.928C878.85,286.928,878.85,286.928,878.85,286.928c-1.545-1.319-1.887-3.59-1.673-5.61
			c0.845-7.985,12.134-13.259,15.562-3.878C895.417,284.767,884.921,292.109,878.85,286.928z"/>
	</g>
</g>
</svg>
