<?xml version="1.0" encoding="UTF-8"?>
<svg version="1.1" xmlns="http://www.w3.org/2000/svg" width="512" height="512">
<path d="M0 0 C2.3571811 3.49905864 2.17741443 6.68666425 2.06787109 10.75537109 C2.0622113 11.54876892 2.05655151 12.34216675 2.05072021 13.15960693 C2.02837756 15.68694083 1.97818785 18.21284275 1.92724609 20.73974609 C1.90717824 22.45587141 1.88892796 24.17201901 1.87255859 25.88818359 C1.82852005 30.08925389 1.75950935 34.28925744 1.67724609 38.48974609 C2.28632813 38.46219238 2.89541016 38.43463867 3.52294922 38.40625 C4.72854492 38.374104 4.72854492 38.374104 5.95849609 38.34130859 C6.75320313 38.31375488 7.54791016 38.28620117 8.36669922 38.2578125 C12.31798598 38.6544442 13.99277651 40.67105303 16.67724609 43.48974609 C18.96120937 48.05767265 17.98881732 54.76440812 18.02734375 59.83740234 C18.04387262 61.43195217 18.07112261 63.02642884 18.109375 64.62060547 C18.16438716 66.92633265 18.18605426 69.23032439 18.20068359 71.53662109 C18.22335297 72.24308777 18.24602234 72.94955444 18.26937866 73.6774292 C18.25298341 77.55354408 17.67003111 79.95942742 15.26953125 82.92431641 C11.71405507 86.44295869 11.71405507 86.44295869 8.51318359 86.58740234 C7.70107422 86.57580078 6.88896484 86.56419922 6.05224609 86.55224609 C5.23498047 86.54322266 4.41771484 86.53419922 3.57568359 86.52490234 C2.94919922 86.51330078 2.32271484 86.50169922 1.67724609 86.48974609 C1.77217773 92.30257225 1.87854182 98.11504801 1.99462891 103.92749023 C2.03245471 105.89683603 2.06737972 107.8662401 2.09912109 109.83569336 C2.59570337 140.29015316 6.79198331 162.86642583 26.12597656 187.32226562 C37.94734056 202.30360776 49.75564602 220.31488324 49.81426048 240.17438984 C49.81933503 241.09206113 49.82440957 242.00973242 49.82963789 242.95521194 C49.83013564 243.95461923 49.8306334 244.95402651 49.83114624 245.98371887 C49.83771962 247.58649635 49.83771962 247.58649635 49.8444258 249.22165316 C49.85779861 252.80817096 49.86398921 256.3946642 49.87011719 259.98120117 C49.87801916 262.55020763 49.88628817 265.11921298 49.89489746 267.68821716 C49.91938115 275.39998386 49.93404022 283.11175692 49.94695753 290.82355049 C49.95067162 293.00225119 49.95464464 295.18095126 49.95871019 297.35965133 C49.98394269 310.89562104 50.0059907 324.43159181 50.01843834 337.96757984 C50.0213679 341.10037553 50.02432959 344.23317119 50.02734375 347.3659668 C50.0280898 348.14458188 50.02883585 348.92319696 50.02960451 349.72540643 C50.04226203 362.34241255 50.07549348 374.95927788 50.11714558 387.57621817 C50.15957639 400.53539823 50.18313444 413.49450621 50.1883589 426.45375556 C50.1917711 433.72773334 50.20350408 441.00149082 50.23646164 448.27540016 C50.26740934 455.11676839 50.27287263 461.95774674 50.26107788 468.79917336 C50.26085673 471.30980866 50.26919614 473.82046154 50.28673172 476.33103561 C50.30937458 479.75942866 50.30114935 483.18642252 50.2852478 486.61482239 C50.29912989 487.60753751 50.31301198 488.60025263 50.32731473 489.62305003 C50.25309196 496.1206998 48.90771387 500.48439868 44.67724609 505.48974609 C38.00143584 511.82157123 30.06301885 511.20074023 21.39208984 511.13671875 C19.84724906 511.14350225 18.30241638 511.15240949 16.75759888 511.16326904 C12.57977943 511.1859823 8.40258023 511.17725942 4.22475052 511.16137362 C-0.1570675 511.14867304 -4.53883409 511.16046624 -8.9206543 511.16830444 C-16.27776579 511.17738894 -23.63462593 511.1654447 -30.99169922 511.14160156 C-39.48520457 511.11439248 -47.97810972 511.1232075 -56.47160053 511.15073359 C-63.77718634 511.17345796 -71.08259196 511.17660852 -78.38820171 511.16354024 C-82.74572773 511.15576397 -87.10297206 511.15465368 -91.46047974 511.17122269 C-95.55820799 511.18571686 -99.65516598 511.17555648 -103.75281143 511.1467514 C-105.25234832 511.14016683 -106.75195056 511.14199315 -108.25146103 511.15306473 C-123.24719663 511.25353737 -123.24719663 511.25353737 -129.32275391 505.48974609 C-134.34322998 499.53733996 -135.042259 494.29003163 -134.95094299 486.68884277 C-134.95803738 485.62340571 -134.96513177 484.55796865 -134.97244114 483.46024561 C-134.98999827 479.90134926 -134.9719262 476.34354833 -134.95385742 472.78466797 C-134.95899731 470.22819523 -134.9662791 467.67172603 -134.97554016 465.11526489 C-134.99213768 458.89713045 -134.9854189 452.67939974 -134.96745194 446.46128064 C-134.9534 441.40151747 -134.94953871 436.34183953 -134.95289421 431.28205872 C-134.95337165 430.56061756 -134.9538491 429.8391764 -134.95434101 429.09587339 C-134.95536741 427.62996334 -134.95642277 426.16405331 -134.95750677 424.6981433 C-134.96607016 411.74091953 -134.94941614 398.78384708 -134.91967773 385.82666016 C-134.89088911 373.28297555 -134.88373452 360.73950933 -134.89916992 348.19580078 C-134.91598047 334.51597809 -134.91991331 320.83625906 -134.90245956 307.15643358 C-134.90061535 305.69360893 -134.89878062 304.23078427 -134.89695549 302.76795959 C-134.8960434 302.048374 -134.89513131 301.32878841 -134.89419158 300.58739719 C-134.88861257 295.54432576 -134.89186907 290.50130532 -134.89850044 285.45823669 C-134.90709934 278.64880188 -134.89390852 271.83968426 -134.86665154 265.03030014 C-134.85980571 262.54078471 -134.8596285 260.05123994 -134.86686707 257.56172562 C-134.90888153 241.21962907 -134.49244497 225.75234435 -126.44775391 211.05224609 C-126.09680664 210.38523682 -125.74585938 209.71822754 -125.38427734 209.03100586 C-121.5538075 201.85893207 -117.15796734 195.48771659 -112.03100586 189.18652344 C-91.207121 163.58133332 -87.40662616 139.36840439 -86.76025391 107.23974609 C-86.71697136 105.22281175 -86.67335429 103.20588455 -86.62939453 101.18896484 C-86.52332369 96.28929918 -86.42178184 91.38955896 -86.32275391 86.48974609 C-87.23637695 86.53107666 -87.23637695 86.53107666 -88.16845703 86.57324219 C-88.9721875 86.59467285 -89.77591797 86.61610352 -90.60400391 86.63818359 C-91.79606445 86.67951416 -91.79606445 86.67951416 -93.01220703 86.72167969 C-96.96349379 86.32504799 -98.63828432 84.30843916 -101.32275391 81.48974609 C-103.60671719 76.92181953 -102.63432513 70.21508407 -102.67285156 65.14208984 C-102.68938043 63.54754001 -102.71663042 61.95306335 -102.75488281 60.35888672 C-102.80989498 58.05315954 -102.83156208 55.7491678 -102.84619141 53.44287109 C-102.86886078 52.73640442 -102.89153015 52.02993774 -102.91488647 51.30206299 C-102.89849123 47.42594811 -102.31553892 45.02006477 -99.91503906 42.05517578 C-96.35956288 38.5365335 -96.35956288 38.5365335 -93.15869141 38.39208984 C-91.94052734 38.40949219 -91.94052734 38.40949219 -90.69775391 38.42724609 C-89.47185547 38.44078125 -89.47185547 38.44078125 -88.22119141 38.45458984 C-87.59470703 38.46619141 -86.96822266 38.47779297 -86.32275391 38.48974609 C-86.34370117 37.66249023 -86.36464844 36.83523437 -86.38623047 35.98291016 C-86.4693701 32.23531239 -86.52140921 28.4879086 -86.57275391 24.73974609 C-86.62302734 22.78681641 -86.62302734 22.78681641 -86.67431641 20.79443359 C-86.68720703 19.54404297 -86.70009766 18.29365234 -86.71337891 17.00537109 C-86.73432617 15.85327148 -86.75527344 14.70117188 -86.77685547 13.51416016 C-86.21214296 9.75305344 -85.23615059 8.86133177 -82.32275391 6.48974609 C-79.74630737 5.71463013 -79.74630737 5.71463013 -76.85351562 5.33398438 C-75.78889099 5.18689026 -74.72426636 5.03979614 -73.62738037 4.88824463 C-72.53685364 4.75674011 -71.4463269 4.6252356 -70.32275391 4.48974609 C-69.31392151 4.35904724 -68.30508911 4.22834839 -67.26568604 4.09368896 C-64.12299625 3.69903088 -60.97809352 3.33587085 -57.83056641 2.98193359 C-56.68216278 2.85158722 -55.53375916 2.72124084 -54.35055542 2.58694458 C-51.93897903 2.31467346 -49.52720158 2.04417764 -47.11523438 1.77539062 C-43.46340695 1.36649875 -39.81304663 0.94590016 -36.16259766 0.52490234 C-4.68421548 -3.04567552 -4.68421548 -3.04567552 0 0 Z " fill="#000000" transform="translate(298.32275390625,1.51025390625)"/>
<path d="M0 0 C50.16 0 100.32 0 152 0 C152 66 152 132 152 200 C101.84 200 51.68 200 0 200 C0 134 0 68 0 0 Z " fill="#E5EBF3" transform="translate(180,264)"/>
<path d="M0 0 C1.72487909 -0.01301587 3.44974459 -0.02796307 5.17459106 -0.04475403 C8.78798253 -0.07006772 12.3998044 -0.06495856 16.01318359 -0.03979492 C20.63416157 -0.01103449 25.24946255 -0.06831682 29.86964226 -0.14997387 C33.43200616 -0.20152766 36.99301571 -0.20170833 40.55566788 -0.1871891 C42.25811697 -0.1873951 43.96065577 -0.20465076 45.66274643 -0.23958397 C58.95561664 -0.47537456 58.95561664 -0.47537456 63.21591187 3.54896545 C65.00567353 6.35508883 66.34223062 9.13340729 67.6953125 12.16796875 C68.79393553 13.70731082 69.93120956 15.22073112 71.125 16.6875 C71.68840088 17.39245605 72.25180176 18.09741211 72.83227539 18.82373047 C73.40582764 19.5354541 73.97937988 20.24717773 74.5703125 20.98046875 C87.03927025 36.78077684 97.6953125 52.39767033 97.6953125 73.16796875 C47.5353125 73.16796875 -2.6246875 73.16796875 -54.3046875 73.16796875 C-54.3046875 54.53495697 -46.13209898 39.96562754 -34.65625 25.86132812 C-32.17986709 22.75869231 -29.83942022 19.55624064 -27.4921875 16.35546875 C-27.04834717 15.75726318 -26.60450684 15.15905762 -26.1472168 14.54272461 C-25.71836182 13.95885986 -25.28950684 13.37499512 -24.84765625 12.7734375 C-24.43379669 12.2276857 -24.01993713 11.6819339 -23.59353638 11.11964417 C-22.23448914 9.23093428 -22.23448914 9.23093428 -21.57096863 7.10693359 C-17.97266426 -1.81258682 -8.13545347 -0.04504445 0 0 Z " fill="#9F5353" transform="translate(234.3046875,174.83203125)"/>
<path d="M0 0 C18.48 0 36.96 0 56 0 C56.3125 25.5625 56.3125 25.5625 56.38793945 33.53344727 C56.534213 44.35612582 56.75519619 54.75290892 59.36791992 65.29272461 C60 68 60 68 60 72 C38.88 72 17.76 72 -4 72 C-3.4165918 67.33273439 -2.8242645 62.87315964 -1.96337891 58.28417969 C-0.89956027 51.98906652 -0.65416526 45.82782324 -0.5859375 39.453125 C-0.56829346 38.4429834 -0.55064941 37.4328418 -0.5324707 36.39208984 C-0.47019104 32.67821115 -0.42346456 28.96408466 -0.375 25.25 C-0.25125 16.9175 -0.1275 8.585 0 0 Z " fill="#4C5561" transform="translate(228,88)"/>
<path d="M0 0 C7.01935268 4.78867756 11.26998759 10.64875826 13 19 C14.16151208 27.93923219 11.93249098 34.53017442 7 42 C2.1299461 47.9127905 -5.00808443 51.31858821 -12.546875 52.34765625 C-20.89787243 52.64590616 -27.37481881 50.66671524 -33.8125 45.3125 C-40.18563207 39.27303976 -43.07313081 32.54317632 -43.3125 23.8125 C-43.19529602 14.99876049 -39.64524988 9.00309774 -33.7265625 2.65625 C-24.3803179 -6.3093783 -10.81386177 -6.07943472 0 0 Z " fill="#030303" transform="translate(247,364)"/>
<path d="M0 0 C7.01935268 4.78867756 11.26998759 10.64875826 13 19 C14.16151208 27.93923219 11.93249098 34.53017442 7 42 C2.1299461 47.9127905 -5.00808443 51.31858821 -12.546875 52.34765625 C-20.89787243 52.64590616 -27.37481881 50.66671524 -33.8125 45.3125 C-40.18563207 39.27303976 -43.07313081 32.54317632 -43.3125 23.8125 C-43.19529602 14.99876049 -39.64524988 9.00309774 -33.7265625 2.65625 C-24.3803179 -6.3093783 -10.81386177 -6.07943472 0 0 Z " fill="#030303" transform="translate(303,332)"/>
<path d="M0 0 C7.01935268 4.78867756 11.26998759 10.64875826 13 19 C14.16151208 27.93923219 11.93249098 34.53017442 7 42 C2.1299461 47.9127905 -5.00808443 51.31858821 -12.546875 52.34765625 C-20.89787243 52.64590616 -27.37481881 50.66671524 -33.8125 45.3125 C-40.18563207 39.27303976 -43.07313081 32.54317632 -43.3125 23.8125 C-43.19529602 14.99876049 -39.64524988 9.00309774 -33.7265625 2.65625 C-24.3803179 -6.3093783 -10.81386177 -6.07943472 0 0 Z " fill="#030303" transform="translate(247,300)"/>
<path d="M0 0 C50.16 0 100.32 0 152 0 C152 4.62 152 9.24 152 14 C149.30106549 16.69893451 147.93027048 16.2513478 144.15429688 16.25396729 C142.90914307 16.25960693 141.66398926 16.26524658 140.38110352 16.27105713 C138.99365177 16.26716817 137.60620059 16.26307181 136.21875 16.25878906 C134.76358871 16.26149788 133.30842879 16.2650582 131.85327148 16.26940918 C127.89467017 16.27854848 123.93617278 16.27498262 119.97756958 16.26865101 C115.84116326 16.26359896 111.70476603 16.26828024 107.56835938 16.27142334 C100.62107744 16.27506531 93.67383799 16.27025784 86.7265625 16.26074219 C78.68652696 16.24985718 70.64659284 16.2533826 62.60655975 16.264395 C55.71226888 16.27346131 48.81800859 16.27475638 41.92371368 16.26951766 C37.80223426 16.26639433 33.68080256 16.26599851 29.55932617 16.27259064 C25.68518306 16.27835396 21.81117113 16.27438593 17.93704224 16.26280212 C16.51238218 16.26015008 15.08771115 16.26092986 13.66305542 16.26532745 C11.72394191 16.27076269 9.78480436 16.26275001 7.84570312 16.25396729 C6.75874146 16.25321323 5.67177979 16.25245918 4.55187988 16.25168228 C2 16 2 16 0 14 C0 9.38 0 4.76 0 0 Z " fill="#9F5353" transform="translate(180,480)"/>
<path d="M0 0 C0.89978073 -0.00554901 1.79956146 -0.01109802 2.72660828 -0.01681519 C5.69523695 -0.02860769 8.66233789 -0.00434019 11.63085938 0.02148438 C13.69681733 0.02319565 15.76277745 0.02312963 17.82873535 0.0213623 C22.15638023 0.02301533 26.48350697 0.04171049 30.81103516 0.07324219 C36.35618814 0.11291946 41.90066248 0.11728726 47.44593048 0.10977936 C51.71134652 0.10670872 55.97661021 0.11883359 60.24198914 0.13591003 C62.28650456 0.1429376 64.33103725 0.14606486 66.37556458 0.1452179 C69.23376629 0.14701712 72.09115734 0.16840986 74.94921875 0.1953125 C75.79300583 0.1923819 76.63679291 0.18945129 77.50614929 0.18643188 C82.13766626 0.25363872 85.21429275 0.60693514 88.97460938 3.61523438 C90.37918674 6.42438911 90.22356095 8.50333972 89.97460938 11.61523438 C88.19476533 14.75115008 87.45152731 15.45626173 83.97460938 16.61523438 C81.03448576 16.73252673 78.1172141 16.79338326 75.17626953 16.80810547 C74.27678085 16.81628296 73.37729218 16.82446045 72.45054626 16.83288574 C69.4715949 16.85771496 66.49269104 16.8742475 63.51367188 16.88867188 C62.49663555 16.89399555 61.47959923 16.89931923 60.43174362 16.90480423 C55.05085758 16.93152225 49.66999466 16.95090339 44.2890625 16.96533203 C38.72807442 16.9819966 33.16767704 17.02679358 27.60691261 17.07770348 C23.33297023 17.11132992 19.05916907 17.12290427 14.78510666 17.12855911 C12.73495329 17.13528192 10.68480955 17.15053061 8.6347847 17.17444992 C5.76660934 17.20601182 2.90004116 17.20615198 0.03173828 17.19873047 C-0.81519089 17.2151358 -1.66212006 17.23154114 -2.53471375 17.2484436 C-6.85367877 17.20267959 -8.52616618 17.00263424 -12.05239868 14.26626587 C-14.02539062 11.61523438 -14.02539062 11.61523438 -14.65039062 8.61523438 C-12.95578746 0.48113918 -7.04520536 -0.11074154 0 0 Z " fill="#010101" transform="translate(218.025390625,431.384765625)"/>
<path d="M0 0 C29.04 0 58.08 0 88 0 C88 5.28 88 10.56 88 16 C58.96 16 29.92 16 0 16 C0 10.72 0 5.44 0 0 Z " fill="#636A74" transform="translate(212,56)"/>
<path d="M0 0 C0 7.59 0 15.18 0 23 C-18.48 23 -36.96 23 -56 23 C-56 17.39 -56 11.78 -56 6 C-48.66797973 5.14259601 -41.33562049 4.28817386 -34.00292969 3.43652344 C-31.50804229 3.14632967 -29.01324981 2.85531868 -26.51855469 2.56347656 C-22.93449091 2.14433784 -19.35009703 1.72813104 -15.765625 1.3125 C-14.64883362 1.18125732 -13.53204224 1.05001465 -12.38140869 0.91479492 C-11.34063171 0.79467041 -10.29985474 0.6745459 -9.22753906 0.55078125 C-7.85520111 0.39089722 -7.85520111 0.39089722 -6.45513916 0.2277832 C-4 0 -4 0 0 0 Z " fill="#4C5561" transform="translate(284,17)"/>
<path d="M0 0 C3.98607969 0.83043327 5.46255435 2.50756677 8 5.625 C11.62082224 16.48746673 8.48382576 28.6387184 3.5390625 38.5546875 C1.15276223 42.73374127 -0.85139796 46.03212372 -5 48.625 C-8.25769753 49.03221219 -10.29654777 48.92919556 -13.3125 47.625 C-15.34562693 45.21536808 -16.03663041 43.08157061 -16.30859375 39.9453125 C-15.79184115 36.05985622 -13.71466645 33.21259746 -11.54296875 30.01953125 C-7.57925876 23.86825474 -7.86030096 18.92115813 -8.34179688 11.86328125 C-8.48842055 7.61495433 -8.38786508 6.12433555 -5.67578125 2.6328125 C-3 0.625 -3 0.625 0 0 Z " fill="#060606" transform="translate(284,271.375)"/>
<path d="M0 0 C0.98613281 0.17208984 0.98613281 0.17208984 1.9921875 0.34765625 C2.65476563 0.43917969 3.31734375 0.53070313 4 0.625 C6.61924678 1.72639875 7.41234201 2.97112089 8.8671875 5.41015625 C9.25537109 8.44702148 9.25537109 8.44702148 9.265625 11.96875 C9.27142578 13.87817383 9.27142578 13.87817383 9.27734375 15.82617188 C9.27105957 16.48657471 9.26477539 17.14697754 9.25830078 17.82739258 C9.24226375 19.83809592 9.25815027 21.84678141 9.27734375 23.85742188 C9.27347656 25.13166016 9.26960938 26.40589844 9.265625 27.71875 C9.26224121 28.88204834 9.25885742 30.04534668 9.25537109 31.24389648 C8.82905569 34.72118231 7.95180833 36.62118965 5.8671875 39.41015625 C3.23840589 40.53292129 0.70622559 40.61621547 -2.1328125 40.41015625 C-5.39993076 38.73471099 -5.9606235 37.92672324 -7.1328125 34.41015625 C-7.40405638 30.29892308 -7.44595067 26.18784353 -7.48291016 22.06835938 C-7.49947001 20.71629626 -7.52676174 19.36432071 -7.56494141 18.01269531 C-7.61989121 16.05457086 -7.6384785 14.09553345 -7.65625 12.13671875 C-7.67606934 10.96705566 -7.69588867 9.79739258 -7.71630859 8.59228516 C-6.92052571 4.25243827 -4.53285868 0.87170359 0 0 Z " fill="#010101" transform="translate(243.1328125,103.58984375)"/>
<path d="M0 0 C4.09206332 1.808121 6.69807584 4.16345973 9 8 C9.66861666 12.1454233 9.95469912 14.44075786 7.75390625 18.03515625 C4.36534205 22.15044494 2.18673684 23.70563158 -3.25 24.4375 C-8.23409112 23.8560227 -10.67351517 21.62718402 -14 18 C-15.63125565 14.7374887 -15.68851113 11.5120384 -15 8 C-11.02622012 1.59304414 -7.59384259 -0.51483679 0 0 Z " fill="#AC8BF9" transform="translate(235,376)"/>
<path d="M0 0 C4.09206332 1.808121 6.69807584 4.16345973 9 8 C9.66861666 12.1454233 9.95469912 14.44075786 7.75390625 18.03515625 C4.36534205 22.15044494 2.18673684 23.70563158 -3.25 24.4375 C-8.23409112 23.8560227 -10.67351517 21.62718402 -14 18 C-15.63125565 14.7374887 -15.68851113 11.5120384 -15 8 C-11.02622012 1.59304414 -7.59384259 -0.51483679 0 0 Z " fill="#AC8BF9" transform="translate(291,344)"/>
<path d="M0 0 C4.09206332 1.808121 6.69807584 4.16345973 9 8 C9.66861666 12.1454233 9.95469912 14.44075786 7.75390625 18.03515625 C4.36534205 22.15044494 2.18673684 23.70563158 -3.25 24.4375 C-8.23409112 23.8560227 -10.67351517 21.62718402 -14 18 C-15.63125565 14.7374887 -15.68851113 11.5120384 -15 8 C-11.02622012 1.59304414 -7.59384259 -0.51483679 0 0 Z " fill="#AC8BF9" transform="translate(235,312)"/>
</svg>
