<?xml version="1.0" encoding="UTF-8"?>
<svg version="1.1" xmlns="http://www.w3.org/2000/svg" width="512" height="512">
<path d="M0 0 C0.69641602 -0.00700928 1.39283203 -0.01401855 2.11035156 -0.02124023 C4.40730932 -0.03881383 6.70303021 -0.02720107 9 -0.01367188 C10.59896073 -0.01636701 12.19791987 -0.0202496 13.796875 -0.02526855 C17.14599226 -0.03116269 20.49468243 -0.0226038 23.84375 -0.00390625 C28.13478591 0.01888377 32.42482111 0.00576017 36.71582031 -0.01819611 C40.01700366 -0.03265667 43.31795011 -0.02804703 46.61914062 -0.01768494 C48.20117308 -0.01501834 49.78322711 -0.0182851 51.36523438 -0.02760315 C53.57740163 -0.03777366 55.787953 -0.02226378 58 0 C59.8871875 0.00477356 59.8871875 0.00477356 61.8125 0.00964355 C65 0.51757812 65 0.51757812 67.40515137 2.29602051 C69.11486446 4.67757952 69.50427774 5.69776788 69.51757812 8.58007812 C69.53018677 9.36769531 69.54279541 10.1553125 69.55578613 10.96679688 C69.54768921 11.80855469 69.53959229 12.6503125 69.53125 13.51757812 C69.5350769 14.39027344 69.53890381 15.26296875 69.54284668 16.16210938 C69.5455649 18.00456905 69.53820994 19.84706737 69.52148438 21.68945312 C69.50007248 24.50803746 69.52128801 27.32407297 69.546875 30.14257812 C69.54423171 31.93425041 69.53910669 33.72592111 69.53125 35.51757812 C69.53934692 36.35933594 69.54744385 37.20109375 69.55578613 38.06835938 C69.46257347 43.89102358 69.46257347 43.89102358 67.15429688 47.01757812 C65 48.51757812 65 48.51757812 62 49.51757812 C61.505 100.50257813 61.505 100.50257813 61 152.51757812 C79.0245359 152.35965005 79.0245359 152.35965005 97.04858398 152.15722656 C99.32274624 152.14553462 101.59691692 152.13534399 103.87109375 152.12695312 C105.03419067 152.10648926 106.1972876 152.08602539 107.39562988 152.06494141 C117.69156843 152.06055969 124.68240454 154.6395708 132.2109375 161.65820312 C140.07015529 169.82629847 141.29796539 177.29221746 141.26742554 188.40911865 C141.27195665 189.61592104 141.27648776 190.82272343 141.28115618 192.06609559 C141.29161693 195.40817064 141.29312766 198.75003026 141.29076743 202.09210634 C141.29035885 205.69960345 141.3014024 209.30706861 141.31088257 212.91455078 C141.32748498 219.97971709 141.33299178 227.04485002 141.33410732 234.1100342 C141.33505822 239.85447108 141.33917061 245.59889698 141.34550858 251.34333038 C141.36311945 267.63713885 141.37234777 283.93092099 141.37084763 300.22473904 C141.37076772 301.10287008 141.3706878 301.98100112 141.37060547 302.88574219 C141.37052371 303.76494805 141.37044195 304.64415391 141.37035771 305.55000237 C141.369545 319.79513503 141.38867912 334.04016191 141.4168822 348.28526399 C141.44562594 362.91917035 141.45942166 377.55302515 141.45769465 392.18696046 C141.45703123 400.39991107 141.46250238 408.61275081 141.48405075 416.82567596 C141.50228224 423.81913377 141.50659384 430.81243043 141.4930319 437.80590174 C141.48651191 441.37176432 141.48634949 444.93731795 141.5037384 448.50315094 C141.52242454 452.3749438 141.50988909 456.24628806 141.49447632 460.11810303 C141.50476344 461.23660259 141.51505057 462.35510215 141.52564943 463.50749564 C141.44310076 472.90700364 139.23390983 480.99377063 132.703125 487.98632812 C125.91415472 494.09017296 118.79796401 496.76107478 109.66412354 496.78500366 C108.94734743 496.78953478 108.23057132 496.79406589 107.49207473 496.79873431 C105.10174641 496.81134604 102.71164687 496.80976004 100.32128906 496.80810547 C98.60265817 496.8140928 96.88402996 496.82089883 95.16540527 496.82846069 C90.50406635 496.84610862 85.84280088 496.85081561 81.18143177 496.85209227 C78.26630963 496.85351529 75.35120608 496.8577878 72.43608856 496.8630867 C62.25783607 496.88158412 52.07963593 496.88975781 41.90136719 496.88818359 C32.42762077 496.8869828 22.9541024 496.90807378 13.48041368 496.93967092 C5.33581928 496.96586296 -2.80870078 496.97654964 -10.95333695 496.97527277 C-15.81284242 496.97476393 -20.67214523 496.98040382 -25.53160858 497.00162888 C-30.10520906 497.02106022 -34.67841463 497.02110239 -39.25202942 497.00659561 C-40.9248996 497.00451236 -42.59779481 497.00917941 -44.27062225 497.02131653 C-55.69504209 497.09879701 -65.71111559 496.40000318 -74.46875 488.22070312 C-81.98932462 479.85598238 -83.29744514 471.55344357 -83.26742554 460.61930847 C-83.27195665 459.41180052 -83.27648776 458.20429256 -83.28115618 456.96019346 C-83.29161691 453.61618784 -83.29312767 450.27239751 -83.29076743 446.92839086 C-83.29035885 443.31886788 -83.30140231 439.70937683 -83.31088257 436.09986877 C-83.32748456 429.03102747 -83.33299175 421.96221951 -83.33410732 414.89336034 C-83.33505817 409.14653118 -83.33917027 403.39971302 -83.34550858 397.65288734 C-83.36311871 381.35401321 -83.37234779 365.05516541 -83.37084763 348.7562817 C-83.37076772 347.87788794 -83.3706878 346.99949418 -83.37060547 346.09448242 C-83.37052371 345.21501425 -83.37044195 344.33554608 -83.37035771 343.42942736 C-83.36954484 329.17715264 -83.38868316 314.92498362 -83.4168822 300.67273947 C-83.44561865 286.03318787 -83.45942208 271.39368781 -83.45769465 256.7541073 C-83.45703102 248.5372762 -83.4625116 240.3205559 -83.48405075 232.10375023 C-83.50227256 225.10770201 -83.50660171 218.11181483 -83.4930319 211.11575314 C-83.48650726 207.54798925 -83.4863664 203.98053423 -83.5037384 200.41279984 C-83.52239831 196.54065693 -83.50990134 192.66896365 -83.49447632 188.79679871 C-83.50476344 187.6753863 -83.51505057 186.5539739 -83.52564943 185.3985793 C-83.46527151 178.53664171 -82.31584331 173.52812207 -79 167.51757812 C-78.46375 166.48632812 -77.9275 165.45507812 -77.375 164.39257812 C-72.51614558 158.51080698 -66.30317407 154.61647002 -59 152.51757812 C-56.15249634 152.27706909 -56.15249634 152.27706909 -53.17822266 152.29052734 C-52.04199463 152.29076904 -50.9057666 152.29101074 -49.73510742 152.29125977 C-48.5566626 152.3014917 -47.37821777 152.31172363 -46.1640625 152.32226562 C-45.06924561 152.32427979 -43.97442871 152.32629395 -42.84643555 152.32836914 C-38.77258083 152.33880119 -34.69878603 152.36672371 -30.625 152.39257812 C-21.50875 152.43382812 -12.3925 152.47507813 -3 152.51757812 C-3.33 118.52757812 -3.66 84.53757812 -4 49.51757812 C-5.98 48.52757812 -7.96 47.53757813 -10 46.51757812 C-11.67436771 43.1688427 -11.20634047 39.39724951 -11.23828125 35.71289062 C-11.246353 34.83736542 -11.25442474 33.96184021 -11.26274109 33.05978394 C-11.27658221 31.20540346 -11.28730424 29.3509975 -11.29516602 27.49658203 C-11.31239029 24.66064247 -11.35627643 21.82586526 -11.40039062 18.99023438 C-11.41051655 17.18946171 -11.41903297 15.38867912 -11.42578125 13.58789062 C-11.44328934 12.7398587 -11.46079742 11.89182678 -11.47883606 11.01809692 C-11.47591049 10.22402435 -11.47298492 9.42995178 -11.4699707 8.61181641 C-11.47583694 7.91613556 -11.48170319 7.22045471 -11.48774719 6.50369263 C-9.99766018 0.43603405 -5.49689705 0.01390416 0 0 Z " fill="#FECE54" transform="translate(227,7.482421875)"/>
<path d="M0 0 C0.67453043 -0.00638882 1.34906087 -0.01277764 2.04403162 -0.01936007 C4.29766372 -0.03458527 6.54953056 -0.01416828 8.80310059 0.00622559 C10.42132652 0.0027236 12.039549 -0.00293586 13.65776062 -0.0105896 C18.04838486 -0.02483627 22.43838272 -0.00777747 26.82894707 0.01569557 C31.42437378 0.03580428 36.01977448 0.029925 40.61523438 0.02758789 C48.33242115 0.02764146 56.04936309 0.04739822 63.76647949 0.07946777 C72.68759387 0.11636058 81.6083875 0.12514332 90.5295682 0.11817026 C99.11262625 0.11186423 107.69557436 0.12262141 116.27861023 0.14213562 C119.93081733 0.15030875 123.58296823 0.15301933 127.23518372 0.15144348 C131.53625924 0.1505643 135.83703013 0.16478968 140.13802528 0.19067001 C141.71622046 0.19782995 143.29444804 0.19991626 144.87265587 0.19655228 C147.02765731 0.19283514 149.18177086 0.20759174 151.33666992 0.22705078 C153.14516544 0.23264385 153.14516544 0.23264385 154.99019623 0.23834991 C158.47968144 0.65899135 160.37295768 1.52661727 163.16833496 3.62145996 C164.6695213 6.62383264 164.31270614 9.71056484 164.30877686 13.00349426 C164.31174798 13.77346668 164.3147191 14.5434391 164.31778026 15.33674401 C164.32648932 17.93076499 164.32797736 20.52473995 164.32946777 23.11877441 C164.3340944 24.97300313 164.33911885 26.82723088 164.34451294 28.68145752 C164.35765419 33.72903413 164.36408529 38.77659742 164.3685236 43.82418847 C164.37145162 46.97576786 164.37555592 50.12734358 164.38002777 53.27892113 C164.39370742 63.13378073 164.40337171 72.98863199 164.40722966 82.84350044 C164.41171132 94.22999478 164.42926229 105.61636914 164.45823026 117.00282699 C164.47982852 125.79693039 164.48993296 134.59099998 164.49127078 143.38512963 C164.49232017 148.64077021 164.4982563 153.89629806 164.51609039 159.15191078 C164.53253893 164.09554578 164.53474224 169.03898294 164.52595139 173.9826355 C164.52517928 175.79789445 164.52954656 177.6131639 164.53940964 179.42839622 C164.55207949 181.90532612 164.54627964 184.3815501 164.53582764 186.85847473 C164.54791224 187.9376659 164.54791224 187.9376659 164.56024098 189.03865892 C164.51720368 193.39528415 163.84205442 196.15451651 161.16833496 199.62145996 C158.30332457 201.05396515 155.85637322 200.75407201 152.65274048 200.76190186 C151.9759842 200.76487298 151.29922792 200.7678441 150.60196388 200.77090526 C148.32345672 200.77960988 146.04500199 200.78110198 143.76647949 200.78259277 C142.13722623 200.78721968 140.50797405 200.79224417 138.87872314 200.79763794 C134.44483053 200.81077571 130.01095306 200.81720951 125.57704401 200.8216486 C122.8087344 200.82457694 120.04042895 200.82868127 117.27212143 200.83315277 C108.61595018 200.84683095 99.95978842 200.8564962 91.30360711 200.86035466 C81.30149799 200.86483721 71.29952541 200.88239285 61.29745781 200.91135526 C53.57257528 200.93294958 45.84773123 200.94305773 38.12281883 200.94439578 C33.50604184 200.94544537 28.88939315 200.95138584 24.27264786 200.96921539 C19.93063633 200.9856574 15.58885005 200.98787052 11.24681854 200.97907639 C9.65205915 200.97830394 8.05728785 200.98267592 6.46255875 200.99253464 C4.287401 201.00519431 2.11304829 200.99941075 -0.06210327 200.98895264 C-1.27995955 200.9904192 -2.49781582 200.99188576 -3.75257683 200.99339676 C-7.10753527 200.58813637 -8.47995088 200.00922199 -10.83166504 197.62145996 C-12.01892037 194.05969398 -11.98301396 190.82609556 -11.98556519 187.11917114 C-11.98994744 186.3483443 -11.99432969 185.57751746 -11.99884474 184.78333223 C-12.01223243 182.19242573 -12.01841147 179.60155325 -12.02453613 177.01062012 C-12.03243695 175.15624335 -12.04070589 173.30186812 -12.04931641 171.44749451 C-12.07553293 165.35185209 -12.090841 159.25620281 -12.10510254 153.16052246 C-12.11046186 151.06338878 -12.11583937 148.96625514 -12.12123489 146.86912155 C-12.14286067 138.148256 -12.16159902 129.42739231 -12.17285728 120.70650673 C-12.18910843 108.19977693 -12.22231798 95.69335722 -12.27925813 83.18674433 C-12.31791605 74.39686944 -12.3374849 65.60707765 -12.34277785 56.81711996 C-12.34643622 51.56475373 -12.35850957 46.31271826 -12.39088058 41.06044388 C-12.42088915 36.12080609 -12.42729886 31.18170046 -12.41549683 26.24199104 C-12.4152755 24.42832903 -12.42362887 22.61464283 -12.44115067 20.80106544 C-12.46376376 18.32597098 -12.45558554 15.8528192 -12.43966675 13.37771606 C-12.45354884 12.6589374 -12.46743092 11.94015874 -12.48173368 11.19959891 C-12.4232181 7.51071153 -11.88714513 5.69888229 -9.720644 2.6755352 C-6.18563829 0.16213244 -4.31145076 -0.00254793 0 0 Z " fill="#E6E8EC" transform="translate(179.8316650390625,231.3785400390625)"/>
<path d="M0 0 C7.92 0 15.84 0 24 0 C24.00808685 1.92044128 24.01617371 3.84088257 24.02450562 5.81951904 C24.10188321 23.88976152 24.18948275 41.95992871 24.28752708 60.03007126 C24.33767303 69.32081197 24.38411572 78.61154376 24.421875 87.90234375 C24.454791 95.99913434 24.49462004 104.09585618 24.54279006 112.19257092 C24.56805895 116.4806802 24.58983908 120.76874385 24.60334396 125.05690765 C24.61616078 129.09193496 24.63821104 133.12680579 24.66738319 137.16174698 C24.67646195 138.64360235 24.6821499 140.12548291 24.68421364 141.60736465 C24.68753389 143.62912743 24.7041833 145.65085528 24.7215271 147.67254639 C24.72705786 148.80450817 24.73258862 149.93646996 24.73828697 151.10273361 C24.99663236 153.96271894 25.4213504 155.62398554 27 158 C29.8673857 159.43369285 32.31617158 159.12930288 35.52232361 159.13371277 C36.19978545 159.13597833 36.8772473 159.13824388 37.57523829 159.14057809 C39.85608416 159.14693225 42.13687084 159.14608783 44.41772461 159.14526367 C46.04860003 159.14825427 47.67947474 159.15165657 49.31034851 159.15544128 C53.74831028 159.1642953 58.18625278 159.16661998 62.62422252 159.16725707 C66.32469594 159.16820503 70.02516485 159.171882 73.72563654 159.17542917 C82.45340519 159.18357895 91.18116353 159.18601291 99.90893555 159.18530273 C108.92255736 159.1847017 117.93611937 159.19525738 126.94972605 159.2110464 C134.67968845 159.2241061 142.40963127 159.2294873 150.13960463 159.22884732 C154.76023016 159.22859189 159.38080258 159.23146825 164.00141716 159.24202538 C168.34585301 159.25168007 172.69018466 159.25180369 177.0346241 159.24450874 C178.6314115 159.24345964 180.22820531 159.24584501 181.82498169 159.2518692 C184.0003427 159.25954628 186.17534 159.25497312 188.35069275 159.24723816 C190.17885985 159.24805531 190.17885985 159.24805531 192.04395962 159.24888897 C195.18742697 159.22383544 195.18742697 159.22383544 198 157 C199.09723967 153.70828099 199.13847167 151.25975977 199.15821838 147.7928009 C199.1680072 146.49289719 199.17779602 145.19299347 199.18788147 143.85369873 C199.19378569 142.41003455 199.19959613 140.96636998 199.20532227 139.52270508 C199.21490072 138.00503777 199.22491078 136.48737313 199.23532104 134.9697113 C199.26237972 130.84607059 199.28338408 126.72241842 199.30332303 122.59873796 C199.32517663 118.29055072 199.35256839 113.98239884 199.37937927 109.67424011 C199.42931462 101.51452049 199.47425033 93.35478125 199.51740164 85.19502324 C199.56676681 75.90611071 199.62168761 66.61723366 199.67708123 57.32835543 C199.7909142 38.21893634 199.89755332 19.10948329 200 0 C207.92 0 215.84 0 224 0 C224.09264321 26.94709551 224.16400275 53.89415258 224.20724869 80.84137535 C224.22786331 93.35377808 224.25596305 105.86607997 224.30175781 118.37841797 C224.34165905 129.28569947 224.36744081 140.19290792 224.37635398 151.10026038 C224.38156311 156.87424808 224.39378389 162.64802682 224.42292023 168.42194748 C224.45014106 173.86051686 224.45843143 179.2987919 224.45243073 184.73742294 C224.45352797 186.72958477 224.4614419 188.7217568 224.4768219 190.71385956 C224.56746792 203.06429636 224.63098662 213.90962544 215.703125 223.46875 C208.91415472 229.57259484 201.79796401 232.24349666 192.66412354 232.26742554 C191.94734743 232.27195665 191.23057132 232.27648776 190.49207473 232.28115618 C188.10174641 232.29376792 185.71164687 232.29218192 183.32128906 232.29052734 C181.60265817 232.29651468 179.88402996 232.3033207 178.16540527 232.31088257 C173.50406635 232.32853049 168.84280088 232.33323749 164.18143177 232.33451414 C161.26630963 232.33593717 158.35120608 232.34020967 155.43608856 232.34550858 C145.25783607 232.364006 135.07963593 232.37217969 124.90136719 232.37060547 C115.42762077 232.36940467 105.9541024 232.39049566 96.48041368 232.4220928 C88.33581928 232.44828484 80.19129922 232.45897151 72.04666305 232.45769465 C67.18715758 232.45718581 62.32785477 232.46282569 57.46839142 232.48405075 C52.89479094 232.50348209 48.32158537 232.50352426 43.74797058 232.48901749 C42.0751004 232.48693424 40.40220519 232.49160128 38.72937775 232.5037384 C27.30495791 232.58121888 17.28888441 231.88242506 8.53125 223.703125 C2.0395735 216.48279093 -0.31152135 209.03414571 -0.24050903 199.38198853 C-0.24307231 198.10023037 -0.24307231 198.10023037 -0.24568737 196.7925781 C-0.24897485 193.93666528 -0.23799075 191.08098874 -0.22705078 188.22509766 C-0.22648651 186.17497768 -0.22680354 184.12485729 -0.22793579 182.07473755 C-0.22850967 176.51325132 -0.21674955 170.95185134 -0.20278788 165.39038515 C-0.19028648 159.57677936 -0.18911048 153.7631716 -0.18673706 147.94955444 C-0.18052056 136.94245255 -0.16410742 125.93539038 -0.14403808 114.92830598 C-0.12168439 102.39636729 -0.11068698 89.8644267 -0.10064721 77.33247304 C-0.07974137 51.55495926 -0.04415924 25.77748353 0 0 Z " fill="#F5BB42" transform="translate(144,272)"/>
<path d="M0 0 C0.69641602 -0.00700928 1.39283203 -0.01401855 2.11035156 -0.02124023 C4.40730932 -0.03881383 6.70303021 -0.02720107 9 -0.01367188 C10.59896073 -0.01636701 12.19791987 -0.0202496 13.796875 -0.02526855 C17.14599226 -0.03116269 20.49468243 -0.0226038 23.84375 -0.00390625 C28.13478591 0.01888377 32.42482111 0.00576017 36.71582031 -0.01819611 C40.01700366 -0.03265667 43.31795011 -0.02804703 46.61914062 -0.01768494 C48.20117308 -0.01501834 49.78322711 -0.0182851 51.36523438 -0.02760315 C53.57740163 -0.03777366 55.787953 -0.02226378 58 0 C59.8871875 0.00477356 59.8871875 0.00477356 61.8125 0.00964355 C65 0.51757812 65 0.51757812 67.40515137 2.29602051 C69.11486446 4.67757952 69.50427774 5.69776788 69.51757812 8.58007812 C69.53018677 9.36769531 69.54279541 10.1553125 69.55578613 10.96679688 C69.54768921 11.80855469 69.53959229 12.6503125 69.53125 13.51757812 C69.53699036 14.82662109 69.53699036 14.82662109 69.54284668 16.16210938 C69.5455649 18.00456905 69.53820994 19.84706737 69.52148438 21.68945312 C69.50007248 24.50803746 69.52128801 27.32407297 69.546875 30.14257812 C69.54423171 31.93425041 69.53910669 33.72592111 69.53125 35.51757812 C69.53934692 36.35933594 69.54744385 37.20109375 69.55578613 38.06835938 C69.49526418 41.84895142 69.45486832 43.8798657 67.21679688 47.01757812 C63.20588854 49.7315672 59.43910909 49.64986203 54.67431641 49.67871094 C53.3926358 49.68831848 52.1109552 49.69792603 50.79043579 49.70782471 C49.39414651 49.71267276 47.99785516 49.71695157 46.6015625 49.72070312 C45.16433715 49.72645923 43.72711181 49.73221691 42.28988647 49.73797607 C39.27886601 49.74846828 36.2678721 49.75432271 33.25683594 49.7578125 C29.40786317 49.76329638 25.5592443 49.7873293 21.71038246 49.81578445 C18.74202462 49.83445182 15.77375139 49.83961858 12.80533981 49.84114838 C11.38682494 49.84416572 9.96831122 49.85216318 8.54985428 49.86533356 C6.56146555 49.8824795 4.57292991 49.87865669 2.58447266 49.87402344 C1.45514313 49.87766907 0.3258136 49.8813147 -0.83773804 49.8850708 C-4.4698281 49.46297848 -6.88304998 48.40202194 -10 46.51757812 C-11.67436771 43.1688427 -11.20634047 39.39724951 -11.23828125 35.71289062 C-11.246353 34.83736542 -11.25442474 33.96184021 -11.26274109 33.05978394 C-11.27658221 31.20540346 -11.28730424 29.3509975 -11.29516602 27.49658203 C-11.31239029 24.66064247 -11.35627643 21.82586526 -11.40039062 18.99023438 C-11.41051655 17.18946171 -11.41903297 15.38867912 -11.42578125 13.58789062 C-11.45204338 12.31584274 -11.45204338 12.31584274 -11.47883606 11.01809692 C-11.47591049 10.22402435 -11.47298492 9.42995178 -11.4699707 8.61181641 C-11.47583694 7.91613556 -11.48170319 7.22045471 -11.48774719 6.50369263 C-9.99766018 0.43603405 -5.49689705 0.01390416 0 0 Z " fill="#646D77" transform="translate(227,7.482421875)"/>
<path d="M0 0 C4.74147499 3.14223173 7.9227668 7.39317493 11.3125 11.875 C11.88210449 12.62515381 12.45170898 13.37530762 13.03857422 14.14819336 C17.99987096 20.79582488 22.25043467 27.59701203 26 35 C26.37898438 35.74507813 26.75796875 36.49015625 27.1484375 37.2578125 C30.5450162 44.95464681 29.84364898 52.58897038 26.875 60.25 C22.07613072 70.53898844 16.41465929 74.52154622 6 79 C-0.52741899 81.17580633 -8.44695434 81.05230629 -14.8125 78.375 C-16.23185783 77.62632774 -17.62905972 76.83403211 -19 76 C-19.69867188 75.5875 -20.39734375 75.175 -21.1171875 74.75 C-28.15068132 70.07869845 -33.30615554 62.29983786 -35 54 C-36.8358898 38.63385384 -27.66364407 25.84512325 -18.81640625 14.1015625 C-16.9115742 11.70341856 -14.97024124 9.34450104 -13 7 C-12.49210937 6.36964844 -11.98421875 5.73929687 -11.4609375 5.08984375 C-7.79943696 0.56114571 -5.90906139 -0.57931974 0 0 Z " fill="#FECE55" transform="translate(259,264)"/>
<path d="M0 0 C0.98756287 -0.0087616 1.97512573 -0.01752319 2.99261475 -0.02655029 C6.25333742 -0.04853646 9.51270131 -0.03399354 12.7734375 -0.01708984 C15.04118103 -0.02045818 17.3089228 -0.02531094 19.57666016 -0.03158569 C24.32797443 -0.038956 29.07881852 -0.02824584 33.83007812 -0.00488281 C39.92023137 0.02360437 46.00928293 0.00720135 52.09939575 -0.02274513 C56.78174133 -0.04081342 61.46382575 -0.03506208 66.1461792 -0.02210617 C68.39166392 -0.0187709 70.63717237 -0.02286346 72.88262939 -0.03450394 C76.02135008 -0.04720428 79.15828717 -0.02784536 82.296875 0 C83.22481873 -0.01012115 84.15276245 -0.02024231 85.10882568 -0.03067017 C89.61029628 0.04330982 91.54833002 0.18802877 95.22509766 2.99990845 C97.1484375 5.64697266 97.1484375 5.64697266 97.7734375 8.64697266 C96.90700553 12.80584611 95.51994741 14.06854477 92.1484375 16.64697266 C88.86526301 17.38110602 85.65021263 17.33052043 82.296875 17.29394531 C81.30931213 17.30270691 80.32174927 17.31146851 79.30426025 17.32049561 C76.04353758 17.34248177 72.78417369 17.32793885 69.5234375 17.31103516 C67.25569397 17.31440349 64.9879522 17.31925626 62.72021484 17.32553101 C57.96890057 17.33290131 53.21805648 17.32219116 48.46679688 17.29882812 C42.37664363 17.27034094 36.28759207 17.28674397 30.19747925 17.31669044 C25.51513367 17.33475873 20.83304925 17.32900739 16.1506958 17.31605148 C13.90521108 17.31271621 11.65970263 17.31680877 9.41424561 17.32844925 C6.27552492 17.34114959 3.13858783 17.32179067 0 17.29394531 C-0.92794373 17.30406647 -1.85588745 17.31418762 -2.81195068 17.32461548 C-7.31342128 17.2506355 -9.25145502 17.10591654 -12.92822266 14.29403687 C-14.8515625 11.64697266 -14.8515625 11.64697266 -15.4765625 8.64697266 C-13.70227006 0.13036892 -7.28729396 -0.07948309 0 0 Z " fill="#CCD1D9" transform="translate(214.8515625,359.35302734375)"/>
<path d="M0 0 C1.76947998 -0.00717545 1.76947998 -0.00717545 3.57470703 -0.01449585 C6.06609431 -0.01789477 8.55752619 -0.00869315 11.04882812 0.01220703 C14.86168899 0.03896907 18.67160568 0.01245507 22.484375 -0.01953125 C24.9062565 -0.01622716 27.32813616 -0.00982094 29.75 0 C31.45953857 -0.01518173 31.45953857 -0.01518173 33.20361328 -0.03067017 C41.08458933 0.08600275 41.08458933 0.08600275 45.09375 3.01806641 C46.875 5.6640625 46.875 5.6640625 47.5 8.6640625 C46.61526483 12.91079132 45.3947506 14.08992451 41.875 16.6640625 C37.83759221 17.42043738 33.84788126 17.36451665 29.75 17.328125 C27.98052002 17.33530045 27.98052002 17.33530045 26.17529297 17.34262085 C23.68390569 17.34601977 21.19247381 17.33681815 18.70117188 17.31591797 C14.88831101 17.28915593 11.07839432 17.31566993 7.265625 17.34765625 C4.8437435 17.34435216 2.42186384 17.33794594 0 17.328125 C-1.70953857 17.34330673 -1.70953857 17.34330673 -3.45361328 17.35879517 C-11.33458933 17.24212225 -11.33458933 17.24212225 -15.34375 14.31005859 C-17.125 11.6640625 -17.125 11.6640625 -17.75 8.6640625 C-15.78392524 -0.77309636 -7.88621583 -0.07003435 0 0 Z " fill="#CCD1D9" transform="translate(241.125,383.3359375)"/>
</svg>
