<?xml version="1.0" encoding="utf-8"?>
<!-- Generator: Adobe Illustrator 23.0.3, SVG Export Plug-In . SVG Version: 6.00 Build 0)  -->
<svg version="1.1" id="Capa_1" xmlns="http://www.w3.org/2000/svg" xmlns:xlink="http://www.w3.org/1999/xlink" x="0px" y="0px"
	 viewBox="0 0 1200 1200" enable-background="new 0 0 1200 1200" xml:space="preserve">
<g>
	<path fill="#DFD4B4" d="M888.501,1044.817c-11.585,7.372-35.943,9.345-61.332,0c-25.12-9.232-51.247-29.511-67-66.575
		c-24.559-57.791,46.206-145.205,26.262-263.072c-0.269-1.591-0.56-3.205-0.851-4.84c0,0-101.599,223.007-200.016,331.104
		c-98.417,108.097-161.339,79.056-161.339,79.056c-5.468,5.988-12.12,11.144-18.87,15.58c-11.87,7.802-25.595,13.559-39.96,13.913
		c-8.616,0.212-16.212-1.438-23.559-5.979c-3.856-2.383-7.45-5.169-10.816-8.2c-1.767-1.59-3.468-3.25-5.123-4.955
		c-0.901-0.928-2.741-3.728-3.786-4.068c0,0,0,0,0,0l-21.825-28.943c0,0,0,0,0,0c-4.571-7.104-7.395-12.324-7.529-13.221
		c-3.272-21.938,44.346-64.961,44.346-64.961s5.378-59.427,46.251-117.509s143.054-219.578,106.483-339.978
		c-36.57-120.377-144.645-94.496-208.732-67.606c-20.1,8.426-33.545,8.022-42.06,3.317c-16.492-9.12-14.543-34.374-6.61-43.113
		c17.053-18.734,50.531-52.749,143.01-68.614c149.104-13.848,208.665,87.504,209.83,89.521
		c11.966-59.09,17.725-120.018,6.745-166.717c-25.68-109.375-82.171-212.968-21.736-253.303
		c48.401-32.29,204.968,73.88,219.198,316.718c47.998-1.098,106.775,8.224,136.936,49.567c2.823,3.854,5.401,8,7.686,12.437
		c11.226,21.803,79.728,193.786-2.779,232.866l-1.12,0.807c17.366,23.394,30.655,52.301,37.198,87.818
		C982.593,838.393,974.01,990.365,888.501,1044.817z"/>
	<path fill="#E5B93C" d="M888.501,1044.817c-11.585,7.372-35.943,9.345-61.332,0c-25.12-9.232-51.247-29.511-67-66.575
		c-24.559-57.791,46.206-145.205,26.262-263.072c-0.269-1.591-0.56-3.205-0.851-4.84c0,0-101.599,223.007-200.016,331.104
		c-98.417,108.097-161.339,79.056-161.339,79.056c-5.468,5.988-12.12,11.144-18.87,15.58c-11.87,7.802-25.595,13.559-39.96,13.913
		c-8.616,0.212-16.212-1.438-23.559-5.979c-3.856-2.383-7.45-5.169-10.816-8.2c-1.767-1.59-3.468-3.25-5.123-4.955
		c-0.901-0.928-2.741-3.728-3.786-4.068c0,0,0,0,0,0l-21.825-28.943c0,0,0,0,0,0c-4.571-7.104-7.395-12.324-7.529-13.221
		c-3.272-21.938,44.346-64.961,44.346-64.961s5.378-59.427,46.251-117.509s143.054-219.578,106.483-339.978
		c-36.57-120.377-144.645-94.496-208.732-67.606c-20.1,8.426-33.545,8.022-42.06,3.317c-16.492-9.12-14.543-34.374-6.61-43.113
		c17.053-18.734,50.531-52.749,143.01-68.614c20.545-1.908,39.38-1.62,56.607,0.285c1.846,0.506,3.664,1.034,5.453,1.583
		c96.63,29.644,110.979,120.549,109.838,180.132c-0.19,9.931-0.811,18.991-1.552,26.753c-1.91,19.991,3.474,9.531,6.649-0.228
		c16.802-51.638,32.835-119.004,32.835-119.004c11.966-59.09,17.725-120.018,6.745-166.717
		c-25.68-109.375-82.171-212.968-21.736-253.303c0,0,90.606,6.729,139.289,158.359c50.65,157.756,6.013,344.836,6.013,344.836
		s42.435,18.969,54.109,20.62l7.44-35.181c12.01-63.371,15.349-120.691,12.347-171.916c47.998-1.098,106.775,8.224,136.936,49.567
		c2.823,3.854,5.401,8,7.686,12.437c11.226,21.803,79.728,193.786-2.779,232.866l-1.12,0.807
		c17.366,23.394,30.655,52.301,37.198,87.818C982.593,838.393,974.01,990.365,888.501,1044.817z"/>
	<path fill="#EDCD69" d="M888.501,1044.817c-11.585,7.372-35.943,9.345-61.332,0c-43.629-40.491-55.819-94.518-33.903-149.709
		c23.573-59.404,35.293-126.36,21.019-189.506c-14.229-62.967-45.22-127.167-119.234-121.475
		c-15.215,6.431-31.125,17.12-47.057,30.475c27.764-19.473,65.611-14.184,92.188,4.728c0.376,0.268,0.713,0.568,1.083,0.84
		c-3.683,47.876-45.314,144.194-101.225,237.09c-97.106,161.339-163.017,198.576-222.648,221.035c0,0-40.516,66.313-95.28,48.484
		l-21.825-28.943c3.204-14.677,16.358-31.192,30.049-45.041c2.734-2.779,5.513-5.445,8.202-7.977
		c14.341-13.378,27.136-22.744,27.136-22.744s0,0,16.941-45.982c16.941-45.982,99.044-151.435,99.044-151.435s0-0.022,0.022-0.045
		c6.857-17.411,28.884-75.179,40.088-141.06c15.104-88.826,10.532-192.419-77.487-231.678
		c-82.732-36.906-159.3,14.498-205.237,46.004c-16.492-9.12-14.543-34.374-6.61-43.113c17.053-18.734,50.531-52.749,143.01-68.614
		c20.545-1.908,39.38-1.62,56.607,0.285c118.162,32.407,119.012,153.273,113.739,208.467c-1.91,19.991,3.474,9.531,6.649-0.228
		c16.802-51.638,32.835-119.004,32.835-119.004c11.966-59.09,17.725-120.018,6.745-166.717
		c-25.68-109.375-82.171-212.968-21.736-253.303c0,0,90.606,6.729,139.289,158.359c50.65,157.756,6.013,344.836,6.013,344.836
		s42.435,18.969,54.109,20.62l7.44-35.181c12.01-63.371,15.349-120.691,12.347-171.916c47.998-1.098,106.775,8.224,136.936,49.567
		c0,0-27.428-33.568-78.249,0c-50.038,33.075-61.411,148.476-64.19,160.375c10.229,1.452,22.851,5.475,33.983,8.408
		c0.037,0.01,0.075,0.021,0.112,0.03l0.553,0.185l3.403,1.137l0.397,0.133c4.639-5.58-3.076-140.644,61.101-154.112
		c15.506-3.249,27.428,5.49,34.598,18.823c9.232,17.187,27.808,89.476,29.826,105.587c4.168,33.635-1.255,67.382-29.893,88.782
		l-0.986,0.896c4.594,4.975,8.986,10.263,13.131,15.865c17.366,23.394,30.655,52.301,37.198,87.818
		C982.593,838.393,974.01,990.365,888.501,1044.817z"/>
	<path fill="#F7EEDA" d="M888.501,1044.817c-11.585,7.372-35.943,9.345-61.332,0c-43.629-40.491-55.819-94.518-33.903-149.709
		c23.573-59.404,35.293-126.36,21.019-189.506c-14.229-62.967-45.22-127.167-119.234-121.475
		c-15.215,6.431-31.125,17.12-47.057,30.475c-0.022,0.022-0.022,0.045-0.045,0.045c-50.576,42.406-101.712,111.874-133.669,159.207
		c-19.581,29.002-21.95,23.258-14.186-1.596c7.764-24.853,16.072-55.766,21.674-88.706c15.104-88.826,10.532-192.419-77.487-231.678
		c-82.732-36.906-159.3,14.498-205.237,46.004c-16.492-9.12-14.543-34.374-6.61-43.113c17.053-18.734,50.531-52.749,143.01-68.614
		c20.545-1.908,39.38-1.62,56.607,0.285c118.163,32.407,119.012,153.273,113.739,208.467c-1.91,19.991,3.474,9.531,6.649-0.228
		c16.802-51.638,32.835-119.004,32.835-119.004c11.966-59.09,17.725-120.018,6.745-166.717
		c-25.68-109.375-82.171-212.968-21.736-253.303c0,0,90.606,6.729,139.289,158.359c50.65,157.756,6.013,344.836,6.013,344.836
		s42.435,18.969,54.109,20.62l7.44-35.181c12.01-63.371,15.349-120.691,12.347-171.916c47.998-1.098,106.775,8.224,136.936,49.567
		c0,0-27.428-33.568-78.249,0c-50.038,33.075-61.411,148.476-64.19,160.375c10.229,1.452,22.851,5.475,33.983,8.408
		c0.223,0.073,0.445,0.143,0.667,0.216l3.402,1.137l0.003,0.001c33.422,11.458,67.72,30.4,95.04,60.108
		c4.594,4.975,8.986,10.263,13.131,15.865c17.366,23.394,30.655,52.301,37.198,87.818
		C982.593,838.393,974.01,990.365,888.501,1044.817z"/>
</g>
</svg>
