<?xml version="1.0" encoding="UTF-8"?>
<svg version="1.1" xmlns="http://www.w3.org/2000/svg" width="512" height="512">
<path d="M0 0 C0.68281036 0.00054382 1.36562073 0.00108765 2.06912231 0.00164795 C13.10660049 0.0419902 23.40241439 0.91645949 33.9375 4.375 C34.62295898 4.59462402 35.30841797 4.81424805 36.01464844 5.04052734 C53.50477955 10.77985741 67.41609075 20.31068689 81.9375 31.375 C83.89967043 32.86337242 85.86191185 34.35165127 87.82421875 35.83984375 C92.87094447 39.67322027 97.90772352 43.51941694 102.9375 47.375 C102.35932185 51.46555281 101.04356129 54.2144159 98.83984375 57.69140625 C98.20723633 58.69703613 97.57462891 59.70266602 96.92285156 60.73876953 C95.90916504 62.32214111 95.90916504 62.32214111 94.875 63.9375 C93.84391113 65.56341064 93.84391113 65.56341064 92.79199219 67.22216797 C90.84888769 70.27857653 88.89473057 73.3276257 86.9375 76.375 C86.2870874 77.39811279 86.2870874 77.39811279 85.62353516 78.44189453 C61.98307506 115.6188584 26.36277147 142.99281632 -16.0625 155.375 C-13.09945878 157.02861644 -10.08612029 158.0237604 -6.83569336 158.97167969 C12.87292865 164.72706345 30.48376809 173.76719625 45.9375 187.375 C46.78957031 188.10589844 47.64164062 188.83679688 48.51953125 189.58984375 C74.5445206 212.33672384 90.66343317 244.1690458 94.9375 278.375 C95.01952578 280.65826433 95.05541067 282.94353846 95.05102539 285.22827148 C95.05117142 285.87302933 95.05131744 286.51778717 95.0514679 287.18208313 C95.05077817 289.28678907 95.04303042 291.39140351 95.03515625 293.49609375 C95.03328872 294.96582491 95.0318664 296.43555669 95.03086853 297.9052887 C95.0270697 301.75379181 95.01726221 305.60225656 95.00616455 309.45074463 C94.9958935 313.3857776 94.99135876 317.32081683 94.98632812 321.25585938 C94.97563732 328.96225698 94.95859292 336.66862309 94.9375 344.375 C69.90828514 344.6205443 69.90828514 344.6205443 59.9375 343.1875 C58.9587793 343.05512939 57.98005859 342.92275879 56.97167969 342.78637695 C10.02457441 336.09306968 -39.65314571 318.89243345 -69.87890625 280.34765625 C-77.13406075 270.47078224 -83.50028105 260.29684053 -89.0625 249.375 C-89.23789307 250.07882812 -89.41328613 250.78265625 -89.59399414 251.5078125 C-99.05141825 289.05565502 -116.91863604 322.53509977 -151.0625 343.375 C-165.05754864 351.69987573 -179.34872811 357.2092803 -195.0625 361.3125 C-219.04616685 367.60100097 -240.95645825 380.233611 -256.0625 400.375 C-260.45718327 398.86306768 -262.39993121 395.4777866 -264.8125 391.75 C-265.24788086 391.08411865 -265.68326172 390.4182373 -266.13183594 389.73217773 C-270.72020219 382.56725446 -274.58384491 375.13345499 -278.0625 367.375 C-278.47991455 366.45460938 -278.47991455 366.45460938 -278.90576172 365.515625 C-291.36677788 337.35989507 -293.42454179 301.24328369 -286.0625 271.375 C-285.86914062 270.5617627 -285.67578125 269.74852539 -285.4765625 268.91064453 C-281.311628 251.8363413 -274.84382237 235.60114085 -266.0625 220.375 C-266.66578125 220.19598145 -267.2690625 220.01696289 -267.890625 219.83251953 C-271.91858289 218.63626675 -275.93791202 217.4209151 -279.9375 216.1328125 C-311.15097046 206.10377414 -338.9636729 209.13814433 -368.7722168 222.19018555 C-371.71560518 223.47422377 -373.8117893 224.375 -377.0625 224.375 C-378.46736282 194.59971294 -368.95303504 164.27563665 -351.0625 140.375 C-350.423125 139.51390625 -349.78375 138.6528125 -349.125 137.765625 C-333.96864267 118.36089478 -315.56947841 103.35161826 -293.0625 93.375 C-292.43633789 93.09430664 -291.81017578 92.81361328 -291.16503906 92.52441406 C-281.70189097 88.34210655 -272.16850542 85.50042884 -262.0625 83.375 C-261.00417969 83.148125 -259.94585937 82.92125 -258.85546875 82.6875 C-239.30652357 79.21641726 -218.24970661 80.47383389 -199.0625 85.375 C-205.62314903 63.74113905 -212.73751526 43.02148537 -222.94604492 22.81225586 C-223.93578816 20.65161585 -224.58775053 18.69528305 -225.0625 16.375 C-182.29114185 15.73283686 -182.29114185 15.73283686 -167.0625 19.375 C-166.11761719 19.59542969 -165.17273438 19.81585938 -164.19921875 20.04296875 C-139.33954682 26.01308056 -117.29298612 36.22134258 -96.0625 50.375 C-94.64548411 48.6461195 -93.22890314 46.91688254 -91.8125 45.1875 C-91.02359375 44.22457031 -90.2346875 43.26164062 -89.421875 42.26953125 C-87.92341374 40.43118723 -86.44090217 38.57963467 -84.98046875 36.7109375 C-82.04085207 33.1307119 -78.62926871 30.31502021 -75.0625 27.375 C-74.11117188 26.58609375 -73.15984375 25.7971875 -72.1796875 24.984375 C-51.44034483 8.17695412 -26.62457146 -0.03587118 0 0 Z " fill="#609B57" transform="translate(393.0625,55.625)"/>
<path d="M0 0 C0.68281036 0.00054382 1.36562073 0.00108765 2.06912231 0.00164795 C13.10660049 0.0419902 23.40241439 0.91645949 33.9375 4.375 C34.62295898 4.59462402 35.30841797 4.81424805 36.01464844 5.04052734 C53.50477955 10.77985741 67.41609075 20.31068689 81.9375 31.375 C83.89967043 32.86337242 85.86191185 34.35165127 87.82421875 35.83984375 C92.87094447 39.67322027 97.90772352 43.51941694 102.9375 47.375 C102.35932185 51.46555281 101.04356129 54.2144159 98.83984375 57.69140625 C98.20723633 58.69703613 97.57462891 59.70266602 96.92285156 60.73876953 C95.90916504 62.32214111 95.90916504 62.32214111 94.875 63.9375 C93.84391113 65.56341064 93.84391113 65.56341064 92.79199219 67.22216797 C90.84888769 70.27857653 88.89473057 73.3276257 86.9375 76.375 C86.2870874 77.39811279 86.2870874 77.39811279 85.62353516 78.44189453 C60.48851078 117.96920869 22.20323537 145.73106175 -23.2578125 157.1796875 C-27.61825404 158.12987327 -31.58702047 158.43884422 -36.0625 158.375 C-36.4646875 157.10269531 -36.4646875 157.10269531 -36.875 155.8046875 C-41.17265717 142.93999005 -47.25128871 131.78324333 -56.0625 121.375 C-54.75793934 118.51739092 -53.32995037 116.41176049 -51.1875 114.125 C-44.26890427 106.24455071 -41.78954446 97.34897421 -41.6484375 87.0390625 C-41.62907135 86.15971039 -41.6097052 85.28035828 -41.5897522 84.37435913 C-41.53027185 81.58300282 -41.4836979 78.79160457 -41.4375 76 C-41.39929115 74.10024306 -41.36023774 72.2005029 -41.3203125 70.30078125 C-41.22459643 65.6589915 -41.1404496 61.01712071 -41.0625 56.375 C-52.47397069 57.70239038 -52.47397069 57.70239038 -63.25 61.4375 C-64.24761353 61.89322388 -64.24761353 61.89322388 -65.26538086 62.3581543 C-79.45993951 69.16174719 -88.82463537 80.64227964 -94.0625 95.375 C-96.08669686 102.34181765 -96.46882605 109.21670408 -96.6875 116.4375 C-96.74550781 118.02208008 -96.74550781 118.02208008 -96.8046875 119.63867188 C-96.89803093 122.21728408 -96.98381253 124.79590608 -97.0625 127.375 C-100.8915048 124.13294267 -104.62644878 120.84666584 -108.25 117.375 C-119.79057401 107.11234304 -133.10337537 104.32348076 -148.10839844 105.1796875 C-156.8792185 106.05633118 -164.17407689 110.12735118 -171.0625 115.375 C-172.485625 116.4578125 -172.485625 116.4578125 -173.9375 117.5625 C-175.74093027 119.10071994 -177.40046643 120.68922309 -179.0625 122.375 C-191.38523189 103.73086668 -199.50480277 83.97824165 -206.4286499 62.86148071 C-211.01432015 48.89647495 -216.45607272 35.75936888 -223.05371094 22.61279297 C-223.99115615 20.5332618 -224.59406395 18.60166674 -225.0625 16.375 C-182.29114185 15.73283686 -182.29114185 15.73283686 -167.0625 19.375 C-166.11761719 19.59542969 -165.17273438 19.81585938 -164.19921875 20.04296875 C-139.33954682 26.01308056 -117.29298612 36.22134258 -96.0625 50.375 C-94.64548411 48.6461195 -93.22890314 46.91688254 -91.8125 45.1875 C-91.02359375 44.22457031 -90.2346875 43.26164062 -89.421875 42.26953125 C-87.92341374 40.43118723 -86.44090217 38.57963467 -84.98046875 36.7109375 C-82.04085207 33.1307119 -78.62926871 30.31502021 -75.0625 27.375 C-73.63550781 26.19164062 -73.63550781 26.19164062 -72.1796875 24.984375 C-51.44034483 8.17695412 -26.62457146 -0.03587118 0 0 Z " fill="#396032" transform="translate(393.0625,55.625)"/>
<path d="M0 0 C2 1 2 1 3.25952148 2.33422852 C6.98102939 5.89599713 11.79065742 8.23041605 16.21264648 10.8425293 C18.03693682 11.92236857 19.85354638 13.01433585 21.66992188 14.10742188 C31.81504654 20.16243164 40.7134862 24.40295902 52.625 25.25 C53.53378906 25.32734375 54.44257813 25.4046875 55.37890625 25.484375 C57.585203 25.67016841 59.7915806 25.84184245 62 26 C60.89616741 28.77009416 59.77858402 31.53203097 58.6328125 34.28515625 C46.07441094 65.26254675 47.26887145 98.171713 60.125 128.875 C63.76805972 137.24091831 68.7004421 144.60697033 74 152 C74.46760742 152.65597168 74.93521484 153.31194336 75.41699219 153.98779297 C76.60946622 155.65985807 77.80448489 157.33010789 79 159 C71.89306823 176.43677445 46.32739352 188.80286841 30.13671875 195.68359375 C22.58413267 198.72687011 14.87075094 200.88226969 7 202.9375 C-16.98366685 209.22600097 -38.89395825 221.858611 -54 242 C-58.39468327 240.48806768 -60.33743121 237.1027866 -62.75 233.375 C-63.18538086 232.70911865 -63.62076172 232.0432373 -64.06933594 231.35717773 C-68.65770219 224.19225446 -72.52134491 216.75845499 -76 209 C-76.41741455 208.07960938 -76.41741455 208.07960938 -76.84326172 207.140625 C-89.30427788 178.98489507 -91.36204179 142.86828369 -84 113 C-83.80664062 112.1867627 -83.61328125 111.37352539 -83.4140625 110.53564453 C-79.249128 93.4613413 -72.78132237 77.22614085 -64 62 C-63.34 62 -62.68 62 -62 62 C-61.74992187 61.29746094 -61.49984375 60.59492188 -61.2421875 59.87109375 C-56.3941062 48.66562281 -47.10281498 38.97317159 -39 30 C-38.32324219 29.24976563 -37.64648438 28.49953125 -36.94921875 27.7265625 C-26.71890147 16.99239661 -13.24534997 6.62267498 0 0 Z " fill="#396032" transform="translate(191,214)"/>
<path d="M0 0 C1.6875 2.36328125 1.6875 2.36328125 3 5.3125 C3.7425 6.92705078 3.7425 6.92705078 4.5 8.57421875 C4.995 9.70472656 5.49 10.83523437 6 12 C9.59059626 19.97598597 13.29742809 27.61262639 18 35 C18.48549316 34.58065186 18.97098633 34.16130371 19.47119141 33.72924805 C20.6933012 32.67593891 21.91949821 31.62736407 23.1484375 30.58203125 C24.55081911 29.3837938 25.93590407 28.16527475 27.3125 26.9375 C35.61856767 20.9494047 44.59003437 17.60392081 54.875 17.75 C55.93315918 17.76232666 55.93315918 17.76232666 57.01269531 17.77490234 C70.09825414 18.05517802 80.90222808 22.66786437 90.671875 31.484375 C92 33 92 33 92 35 C91.09572266 35.1451001 90.19144531 35.2902002 89.25976562 35.43969727 C62.31052509 39.82253435 35.1350825 44.90782904 10.6953125 57.734375 C8 59 8 59 4 59 C3.7525 59.680625 3.505 60.36125 3.25 61.0625 C0.1073841 68.44764736 -2.50648513 71.93626271 -9.4375 75.8125 C-10.8832881 76.67061341 -12.32596082 77.53399537 -13.765625 78.40234375 C-14.48169922 78.83401855 -15.19777344 79.26569336 -15.93554688 79.71044922 C-36.36529044 92.47179093 -56.17970521 112.35941042 -67 134 C-74.05158001 133.29580665 -80.34493336 130.96196896 -86.99804688 128.61523438 C-115.96676313 118.62092162 -144.27909121 123.8043454 -171.7097168 135.81518555 C-174.65310518 137.09922377 -176.7492893 138 -180 138 C-181.40486282 108.22471294 -171.89053504 77.90063665 -154 54 C-153.360625 53.13890625 -152.72125 52.2778125 -152.0625 51.390625 C-136.90614267 31.98589478 -118.50697841 16.97661826 -96 7 C-95.06075684 6.57895996 -95.06075684 6.57895996 -94.10253906 6.14941406 C-84.63939097 1.96710655 -75.10600542 -0.87457116 -65 -3 C-63.94167969 -3.226875 -62.88335937 -3.45375 -61.79296875 -3.6875 C-42.99912842 -7.02450741 -17.85852705 -7.74618787 0 0 Z " fill="#6AA962" transform="translate(196,142)"/>
<path d="M0 0 C1.578125 1.70703125 1.578125 1.70703125 2.75 3.1875 C4.86925604 5.30675604 9.3696093 4.60581017 12.3125 4.75 C13.52196289 4.81477539 13.52196289 4.81477539 14.75585938 4.88085938 C16.75368805 4.98725262 18.7518207 5.08790888 20.75 5.1875 C20.80945801 6.05193726 20.80945801 6.05193726 20.87011719 6.93383789 C22.51867901 30.02964249 26.41954217 51.9345526 32.89160156 74.17578125 C33.69431744 76.99213593 34.42839009 79.81786284 35.1484375 82.65625 C37.20851046 90.98283984 37.20851046 90.98283984 42.5703125 97.39453125 C45.30564807 98.66425863 47.80469541 99.56909085 50.75 100.1875 C54.18358162 96.00046787 56.4309616 91.20984321 58.87695312 86.41210938 C61.53993978 81.29253011 61.53993978 81.29253011 63.75 80.1875 C63.36438863 87.31116265 60.25397278 92.99857914 57.125 99.3125 C56.31337402 100.97623657 56.31337402 100.97623657 55.48535156 102.67358398 C51.75450563 110.27855549 47.91514069 117.81050787 43.75 125.1875 C37.02570504 123.20422782 31.02958889 120.45954461 24.875 117.125 C24.03453125 116.67833984 23.1940625 116.23167969 22.328125 115.77148438 C19.03506798 114.01185566 15.85960914 112.26057276 12.75 110.1875 C12.68530518 110.82026855 12.62061035 111.45303711 12.55395508 112.10498047 C9.19405304 143.99665152 0.14463715 170.79554653 -21.25 195.1875 C-25.10599875 191.55066992 -28.1453911 187.79316814 -31.0625 183.375 C-31.70662842 182.40191895 -31.70662842 182.40191895 -32.36376953 181.40917969 C-50.06378242 154.07664036 -56.94377705 121.40729018 -50.09716797 89.34033203 C-47.80835031 79.57902486 -44.67830558 69.67627459 -39.25 61.1875 C-39.98863281 61.21070313 -40.72726563 61.23390625 -41.48828125 61.2578125 C-60.5910829 61.59763362 -73.73019158 54.08317386 -89.6875 44.4375 C-90.61804199 43.88280029 -91.54858398 43.32810059 -92.50732422 42.7565918 C-93.36986816 42.22332275 -94.23241211 41.69005371 -95.12109375 41.140625 C-95.89380615 40.66786133 -96.66651855 40.19509766 -97.46264648 39.70800781 C-99.54235266 37.93879458 -99.89497183 36.85146519 -100.25 34.1875 C-99.59 34.1875 -98.93 34.1875 -98.25 34.1875 C-97.87875 33.1665625 -97.87875 33.1665625 -97.5 32.125 C-97.0875 31.155625 -96.675 30.18625 -96.25 29.1875 C-95.755 28.011875 -95.26 26.83625 -94.75 25.625 C-92.88444516 22.41693503 -91.12034576 21.46758182 -87.6640625 20.2109375 C-86.32166504 19.70759888 -86.32166504 19.70759888 -84.95214844 19.1940918 C-83.61458496 18.69582886 -83.61458496 18.69582886 -82.25 18.1875 C-80.74406868 17.56396528 -79.24128509 16.93275863 -77.7421875 16.29296875 C-58.91554149 8.41516675 -39.63713234 2.93010063 -19.50927734 -0.41162109 C-17.42021195 -0.78229814 -15.36647116 -1.22477108 -13.30078125 -1.70703125 C-4.32440338 -3.62103657 -4.32440338 -3.62103657 0 0 Z " fill="#609B57" transform="translate(292.25,178.8125)"/>
<path d="M0 0 C42.77135815 -0.64216314 42.77135815 -0.64216314 58 3 C58.94488281 3.22042969 59.88976562 3.44085938 60.86328125 3.66796875 C85.79746889 9.65597569 115.2679667 19.58315957 133.34375 38.76953125 C134.92951292 40.21800275 134.92951292 40.21800275 137.0390625 39.91015625 C139.40073499 38.81400149 140.30922682 37.69859151 141.875 35.625 C153.80829546 21.4319954 172.38561384 10.41164876 190 5 C192.9296875 4.84765625 192.9296875 4.84765625 195 5 C194.27296875 6.25490234 194.27296875 6.25490234 193.53125 7.53515625 C189.81840288 13.97212855 186.18084092 20.44092286 182.6875 27 C182.36265625 27.60980713 182.0378125 28.21961426 181.703125 28.84790039 C180.23259402 31.6238327 178.87768005 34.31605651 177.7421875 37.25 C175.37178774 40.99161756 172.48447693 41.76784464 168.4375 43 C153.09996588 48.20955893 142.22799617 56.33277762 134.51953125 70.7734375 C129.89914855 80.44778719 128.69750062 89.41326083 128.375 100.0625 C128.31699219 101.64708008 128.31699219 101.64708008 128.2578125 103.26367188 C128.16446907 105.84228408 128.07868747 108.42090608 128 111 C124.1709952 107.75794267 120.43605122 104.47166584 116.8125 101 C105.27192599 90.73734304 91.95912463 87.94848076 76.95410156 88.8046875 C68.1832815 89.68133118 60.88842311 93.75235118 54 99 C52.576875 100.0828125 52.576875 100.0828125 51.125 101.1875 C49.32156973 102.72571994 47.66203357 104.31422309 46 106 C33.67726811 87.35586668 25.55769723 67.60324165 18.6338501 46.48648071 C14.04817985 32.52147495 8.60642728 19.38436888 2.00878906 6.23779297 C1.07134385 4.1582618 0.46843605 2.22666674 0 0 Z " fill="#396032" transform="translate(168,72)"/>
<path d="M0 0 C0.89203125 0.00902344 1.7840625 0.01804687 2.703125 0.02734375 C3.37859375 0.03894531 4.0540625 0.05054687 4.75 0.0625 C4.84973738 5.55764624 4.9218742 11.05225226 4.96972656 16.5480957 C4.98969895 18.41309807 5.01688668 20.27803898 5.05175781 22.14282227 C5.49097169 46.25437237 5.49097169 46.25437237 -2.8125 56.0625 C-3.39128906 56.76375 -3.97007812 57.465 -4.56640625 58.1875 C-6.07849688 59.87149884 -7.62794534 61.48481765 -9.25 63.0625 C-7.99147321 66.5998156 -6.58957682 69.06079717 -4.125 71.875 C6.46404833 85.12238682 10.72371677 100.51849337 12.75 117.0625 C13.73097656 117.17464844 14.71195312 117.28679687 15.72265625 117.40234375 C20.03780733 118.02498161 24.06049656 119.24346868 28.1875 120.625 C28.96593262 120.88531006 29.74436523 121.14562012 30.54638672 121.41381836 C41.46148549 125.19994488 52.30930809 130.37534323 61.75 137.0625 C61.75 137.7225 61.75 138.3825 61.75 139.0625 C58.54363027 139.73885064 55.33463311 140.40182448 52.125 141.0625 C51.22136719 141.25328125 50.31773437 141.4440625 49.38671875 141.640625 C40.50913147 143.4550224 35.62091285 143.52561958 27.8125 138.8125 C27.13509766 138.41675781 26.45769531 138.02101562 25.75976562 137.61328125 C24.41381283 136.82609889 23.07080173 136.03386255 21.73095703 135.23632812 C18.75813194 133.47476256 15.75405769 131.77015209 12.75 130.0625 C12.72808594 131.2484375 12.70617187 132.434375 12.68359375 133.65625 C11.94847991 140.25031154 8.81048032 145.8456472 5.80297852 151.64941406 C4.80398756 153.57894158 3.82736161 155.51861646 2.85351562 157.4609375 C-1.94333613 166.90916807 -1.94333613 166.90916807 -4.25 168.0625 C-8.89679054 166.84548343 -13.72209568 165.12666043 -16.65234375 161.16796875 C-17.73870797 158.50567705 -18.49057953 155.83691612 -19.25 153.0625 C-19.69153471 151.73959801 -20.14141171 150.41946367 -20.59765625 149.1015625 C-28.98848852 124.46882683 -35.04146357 98.18079796 -34.25 72.0625 C-39.86 72.0625 -45.47 72.0625 -51.25 72.0625 C-51.70221433 51.36113294 -51.43715785 32.90221725 -36.23828125 16.89453125 C-26.60512356 8.0183997 -13.51655932 -0.17784946 0 0 Z " fill="#69A861" transform="translate(347.25,111.9375)"/>
<path d="M0 0 C1.21127209 3.63381626 0.95144242 6.41969533 0.8125 10.25 C0.57635697 27.43574838 7.08226017 43.63102238 18.984375 56.01171875 C20.91031453 57.96312527 20.91031453 57.96312527 22.74609375 59.47265625 C25.97295905 63.40319935 24.10707726 70.69573943 23.71875 75.42578125 C20.65392686 102.86184223 9.13768868 127.32128247 -9 148 C-12.85599875 144.36316992 -15.8953911 140.60566814 -18.8125 136.1875 C-19.24191895 135.5387793 -19.67133789 134.89005859 -20.11376953 134.22167969 C-37.81378242 106.88914036 -44.69377705 74.21979018 -37.84716797 42.15283203 C-35.55835031 32.39152486 -32.42830558 22.48877459 -27 14 C-27.66 13.67 -28.32 13.34 -29 13 C-28.17757812 12.84144531 -27.35515625 12.68289062 -26.5078125 12.51953125 C-16.18037665 10.3610256 -7.8113131 7.19463049 0 0 Z " fill="#53894A" transform="translate(280,226)"/>
<path d="M0 0 C2.08086425 1.40458337 4.02735526 2.8337528 6 4.375 C23.53753823 17.41799325 43.52278093 25.77447124 64.93408203 29.70874023 C70.80552901 30.80552901 70.80552901 30.80552901 73 33 C60.98448727 44.46180246 47.70553681 53.35186991 33 61 C32.32066406 61.35336426 31.64132812 61.70672852 30.94140625 62.07080078 C15.83736114 69.80484278 -1.78652693 77.24555596 -19 77 C-19.268125 76.15179688 -19.53625 75.30359375 -19.8125 74.4296875 C-24.11015717 61.56499005 -30.18878871 50.40824333 -39 40 C-37.69543934 37.14239092 -36.26745037 35.03676049 -34.125 32.75 C-29.63714346 27.60698192 -27.32190576 22.49851082 -25.8125 15.875 C-24.36577979 10.78814506 -22.0539491 8.95496042 -17.54296875 6.38671875 C-16.70378906 5.92910156 -15.86460937 5.47148437 -15 5 C-14.12988281 4.42894531 -13.25976562 3.85789063 -12.36328125 3.26953125 C-4.73374231 -1.7141885 -4.73374231 -1.7141885 0 0 Z " fill="#477840" transform="translate(376,137)"/>
<path d="M0 0 C1.12897336 3.38692007 0.90291073 3.85808635 -0.25 7.0625 C-10.85833439 41.18516086 -5.01343687 76.88764727 10.80102539 108.27441406 C14.52932604 115.32916259 19.2149104 121.63809458 24 128 C25.67864358 130.32503451 27.33986985 132.66166393 29 135 C22.69018984 141.71689468 15.52841428 146.86120622 7.5625 151.4375 C6.94705322 151.79175049 6.33160645 152.14600098 5.69750977 152.51098633 C1.26046507 155 1.26046507 155 -1 155 C-2.81651705 152.55657049 -4.48701029 150.12307066 -6.125 147.5625 C-6.61564941 146.79768311 -7.10629883 146.03286621 -7.61181641 145.24487305 C-12.48505721 137.48216749 -16.45461668 129.44278413 -20 121 C-20.72316406 119.27910156 -20.72316406 119.27910156 -21.4609375 117.5234375 C-25.27624172 107.64989264 -27.18254929 97.39174982 -29 87 C-29.1757959 86.03900391 -29.3515918 85.07800781 -29.53271484 84.08789062 C-32.14773441 66.80744787 -33.14918571 32.96929955 -22.60546875 17.98828125 C-19.89595225 15.20899179 -17.22891894 13.14137183 -14 11 C-11.9901379 9.3242582 -9.98980218 7.63701274 -8 5.9375 C-5.37980586 3.83144279 -2.79819702 1.86546468 0 0 Z " fill="#53894A" transform="translate(230,250)"/>
<path d="M0 0 C0.89203125 0.00902344 1.7840625 0.01804687 2.703125 0.02734375 C3.37859375 0.03894531 4.0540625 0.05054687 4.75 0.0625 C4.84973738 5.55764624 4.9218742 11.05225226 4.96972656 16.5480957 C4.98969895 18.41309807 5.01688668 20.27803898 5.05175781 22.14282227 C5.32262648 37.01271538 4.5396488 48.78241262 -6.25 60.0625 C-14.05257489 67.38647829 -23.62406421 72.22311591 -34.453125 72.16015625 C-35.4328125 72.15693359 -36.4125 72.15371094 -37.421875 72.15039062 C-38.43765625 72.14201172 -39.4534375 72.13363281 -40.5 72.125 C-42.046875 72.11823242 -42.046875 72.11823242 -43.625 72.11132812 C-46.16672573 72.09956088 -48.70833319 72.08312011 -51.25 72.0625 C-51.73916992 51.38190111 -51.41589033 32.87981797 -36.23828125 16.89453125 C-26.60512356 8.0183997 -13.51655932 -0.17784946 0 0 Z " fill="#84BB7C" transform="translate(347.25,111.9375)"/>
<path d="M0 0 C-0.4846875 0.83660156 -0.969375 1.67320313 -1.46875 2.53515625 C-5.18159712 8.97212855 -8.81915908 15.44092286 -12.3125 22 C-12.63734375 22.60980713 -12.9621875 23.21961426 -13.296875 23.84790039 C-14.76740598 26.6238327 -16.12231995 29.31605651 -17.2578125 32.25 C-19.62821226 35.99161756 -22.51552307 36.76784464 -26.5625 38 C-41.90003412 43.20955893 -52.77200383 51.33277762 -60.48046875 65.7734375 C-64.58773399 74.37340049 -66.10292349 82.58069663 -67 92 C-70.82298125 87.48193126 -73.6875246 82.62389104 -76.64453125 77.52734375 C-78.36608691 74.59892433 -79.94449679 72.06162703 -82.23046875 69.5234375 C-84.58854078 66.16071226 -84.62078276 63.09433832 -84.8125 59.125 C-86.03921274 43.87848605 -91.01277153 28.78401008 -98.03125 15.23046875 C-98.3509375 14.49441406 -98.670625 13.75835937 -99 13 C-98.67 12.34 -98.34 11.68 -98 11 C-85.04797599 17.17323742 -71.82359534 23.5234889 -61.6484375 33.8828125 C-60.05075954 35.20804953 -60.05075954 35.20804953 -57.96875 34.890625 C-55.5876289 33.81345117 -54.69623149 32.70582008 -53.125 30.625 C-42.34815241 17.80743021 -17.66432441 -1.29982764 0 0 Z " fill="#477840" transform="translate(363,77)"/>
<path d="M0 0 C1.98 0.99 3.96 1.98 6 3 C5.88462891 3.74121094 5.76925781 4.48242188 5.65039062 5.24609375 C0.60836189 37.8100264 -3.01172534 70.10396372 -5 103 C-9.49384364 102.11921151 -12.25750395 99.5758892 -15.625 96.625 C-16.24600586 96.08407715 -16.86701172 95.5431543 -17.50683594 94.98583984 C-31.92830323 82.22838801 -48.46627843 62.98126002 -54 44 C-53.9765625 40.44921875 -53.9765625 40.44921875 -53.625 36.6875 C-53.51414062 35.43324219 -53.40328125 34.17898438 -53.2890625 32.88671875 C-53.19367188 31.93410156 -53.09828125 30.98148437 -53 30 C-52.42636719 30.32871094 -51.85273438 30.65742188 -51.26171875 30.99609375 C-44.93339915 34.53956861 -38.48437271 37.7567072 -31.9375 40.875 C-31.0921167 41.28032959 -30.2467334 41.68565918 -29.37573242 42.10327148 C-28.58013916 42.47911377 -27.7845459 42.85495605 -26.96484375 43.2421875 C-26.2493335 43.5810498 -25.53382324 43.91991211 -24.79663086 44.26904297 C-23.01451467 45.12561768 -23.01451467 45.12561768 -21 45 C-18.78385696 40.66781768 -16.57903435 36.33011401 -14.38378906 31.98730469 C-13.63805434 30.5157472 -12.88943482 29.04564747 -12.13769531 27.57714844 C-8.04288995 19.57316889 -4.27546515 11.77954537 -1.68261719 3.13378906 C-1 1 -1 1 0 0 Z " fill="#69A861" transform="translate(357,258)"/>
<path d="M0 0 C0.33 0 0.66 0 1 0 C0.98428955 0.93046143 0.9685791 1.86092285 0.95239258 2.81958008 C0.40197005 40.39462707 5.77718155 73.64965057 26.21484375 106.05859375 C28 109 28 109 29 112 C31.01508358 112.73323796 31.01508358 112.73323796 33 113 C22.7327289 116.29200282 12.4434395 119.31411542 2 122 C-9.89749911 98.45139969 -16.31927912 72.86516899 -16.59033203 46.46240234 C-16.61339639 44.90734494 -16.65434565 43.35244749 -16.71337891 41.79833984 C-17.35405813 24.80781328 -10.80398054 12.95938813 0 0 Z " fill="#53894A" transform="translate(184,298)"/>
<path d="M0 0 C6.54842067 2.32049786 12.0821111 6.15116102 17 11 C18.32906727 14.18486166 17.70092883 16.68292836 17 20 C12.98573934 44.4678745 14.69214243 69.01893356 17.57666016 93.49658203 C17.66855621 94.27820206 17.76045227 95.05982208 17.85513306 95.86512756 C18.02866739 97.32082021 18.20666614 98.77599132 18.39022827 100.23045349 C18.91099575 104.51193001 19.07837925 108.68879128 19 113 C12.98706558 112.47818326 8.25706968 110.59851143 2.8125 108.0625 C2.01908203 107.70220703 1.22566406 107.34191406 0.40820312 106.97070312 C-3.09372545 105.37410597 -6.56388517 103.73416345 -10 102 C-10.4845657 76.82950385 -8.89983408 51.92641857 -5.5 27 C-5.3924942 26.20995575 -5.2849884 25.4199115 -5.17422485 24.60592651 C-2.07169168 2.07169168 -2.07169168 2.07169168 0 0 Z " fill="#69A861" transform="translate(378,271)"/>
<path d="M0 0 C1.98171709 -0.05192613 3.96231217 -0.14212881 5.94262695 -0.23297119 C15.04160451 -0.34511479 15.04160451 -0.34511479 18.97558594 2.21282959 C21.01747251 4.22411988 22.74391492 6.27432769 24.45239258 8.57220459 C25.25547852 9.48486084 26.05856445 10.39751709 26.88598633 11.33782959 C42.34475226 30.50308326 42.34475226 30.50308326 44.45239258 36.57220459 C43.87231445 36.36724365 43.29223633 36.16228271 42.69458008 35.95111084 C41.9134082 35.68169678 41.13223633 35.41228271 40.32739258 35.13470459 C39.56168945 34.86786865 38.79598633 34.60103271 38.00708008 34.32611084 C26.07083477 30.80364089 12.71414407 31.23596769 1.45239258 36.57220459 C-1.71526854 38.37815772 -4.64866373 40.36376905 -7.54760742 42.57220459 C-8.49635742 43.29407959 -9.44510742 44.01595459 -10.42260742 44.75970459 C-12.22603769 46.29792453 -13.88557385 47.88642768 -15.54760742 49.57220459 C-20.87654922 41.62620959 -25.29631448 33.44730302 -29.42260742 24.82220459 C-30.00268555 23.6427124 -30.58276367 22.46322021 -31.18041992 21.24798584 C-31.73213867 20.10200928 -32.28385742 18.95603271 -32.85229492 17.77532959 C-33.34713379 16.75084717 -33.84197266 15.72636475 -34.35180664 14.6708374 C-35.65600056 11.2913296 -36.16492738 8.16455003 -36.54760742 4.57220459 C-24.97054474 0.37198978 -12.20202125 0.27310826 0 0 Z " fill="#53894A" transform="translate(229.547607421875,128.42779541015625)"/>
<path d="M0 0 C0.33 0 0.66 0 1 0 C1.03440186 0.58040039 1.06880371 1.16080078 1.10424805 1.75878906 C2.52068473 24.30758264 6.05560081 46.31534255 12.20800781 68.07055664 C12.45647461 68.95735107 12.70494141 69.84414551 12.9609375 70.7578125 C13.18571777 71.5327002 13.41049805 72.30758789 13.64208984 73.10595703 C14 75 14 75 13 77 C0.92329488 66.65771529 -5.5312221 52.28172892 -8 36.75 C-8.40499928 31.49362641 -6.53854139 27.51054136 -4 23 C-4.60585938 23.59167969 -5.21171875 24.18335938 -5.8359375 24.79296875 C-16.23115607 34.59645949 -27.47190429 39.93664861 -41.9375 40.375 C-55.59546311 39.89670557 -65.59938499 34.98086439 -77 28 C-75.69521876 25.39043752 -74.66526696 25.27530954 -71.9765625 24.23046875 C-71.12989014 23.90135498 -70.28321777 23.57224121 -69.41088867 23.2331543 C-68.49154541 22.88808838 -67.57220215 22.54302246 -66.625 22.1875 C-65.68052002 21.83147705 -64.73604004 21.4754541 -63.76293945 21.10864258 C-54.65663179 17.75224604 -45.46287335 15.13324891 -36 13 C-35.32163086 12.84692383 -34.64326172 12.69384766 -33.94433594 12.53613281 C-22.72929464 10.07887364 -11.41976615 8.99454931 0 8 C0 5.36 0 2.72 0 0 Z " fill="#69A861" transform="translate(296,184)"/>
<path d="M0 0 C4.97878717 4.17452155 9.6717211 8.51699202 14.25 13.125 C14.86101562 13.73214844 15.47203125 14.33929688 16.1015625 14.96484375 C17.7564891 16.62338372 19.38195454 18.30559305 21 20 C21.64066406 20.64839844 22.28132813 21.29679687 22.94140625 21.96484375 C24.56847823 25.09290464 24.03242894 28.04454903 23.6875 31.4375 C22.21356805 50.87752232 22.33479472 70.12466056 25.34375 89.40234375 C25.89819253 92.97084561 26.14315617 96.37934195 26 100 C20.60313984 99.6605012 15.2892022 99.0138903 10 97.875 C8.63875 97.59269531 8.63875 97.59269531 7.25 97.3046875 C5 96 5 96 3.93994141 92.99902344 C2.81102207 88.61986949 2.24353375 84.19565939 1.7109375 79.7109375 C1.60246994 78.82223969 1.49400238 77.93354187 1.38224792 77.01791382 C1.03652865 74.13801016 0.70353187 71.256913 0.375 68.375 C0.20591629 66.90069519 0.20591629 66.90069519 0.03341675 65.39660645 C-2.42798292 43.59278356 -3.83617934 21.74976677 0 0 Z " fill="#69A861" transform="translate(410,295)"/>
<path d="M0 0 C-0.75766888 3.38591953 -2.03867662 6.2675189 -3.57714844 9.37988281 C-7.10634352 16.52050026 -10.14269915 23.72296649 -12.75 31.25 C-13.04285889 32.0953833 -13.33571777 32.9407666 -13.63745117 33.81176758 C-15.25243932 38.56590343 -16.64096319 43.335395 -17.9375 48.1875 C-19.53352168 53.50083798 -21.82610232 56.5625513 -25.69921875 60.46484375 C-28.65990451 63.72712738 -31.02406574 67.2604239 -33.4375 70.9375 C-33.87465332 71.60120605 -34.31180664 72.26491211 -34.76220703 72.94873047 C-37.01735634 76.39465829 -37.01735634 76.39465829 -39 80 C-46.15168515 79.50104522 -52.41291281 76.68436185 -59 74 C-52.42304687 52.18698961 -42.16305703 31.42402828 -30.3125 12 C-29.64863281 10.906875 -28.98476562 9.81375 -28.30078125 8.6875 C-23.86264916 3.50340003 -17.78579986 2.54956135 -11.3125 1.3125 C-10.02988281 1.06113281 -8.74726563 0.80976563 -7.42578125 0.55078125 C-4 0 -4 0 0 0 Z " fill="#84BB7C" transform="translate(168,196)"/>
<path d="M0 0 C0 3.46463274 -0.68209953 4.42708841 -2.52734375 7.2890625 C-3.06738037 8.14024658 -3.60741699 8.99143066 -4.16381836 9.8684082 C-4.7491333 10.7780835 -5.33444824 11.68775879 -5.9375 12.625 C-9.80174001 18.67013643 -13.40468492 24.63462352 -16.42211914 31.14648438 C-20.35151923 39.52870067 -24.29182942 43.43217395 -32.63671875 47.3828125 C-37.32759175 49.63835422 -41.05366006 52.64933401 -45 56 C-45.72445312 56.58007812 -46.44890625 57.16015625 -47.1953125 57.7578125 C-53.02958901 62.61632151 -57.44918148 68.17168078 -61.93359375 74.2421875 C-64 77 -64 77 -66 79 C-66.36701899 65.33873758 -65.74980537 52.40491014 -63 39 C-62.86996582 38.26700684 -62.73993164 37.53401367 -62.60595703 36.77880859 C-61.53414846 31.47040234 -61.53414846 31.47040234 -59.1015625 29.328125 C-57.87566406 28.79445313 -57.87566406 28.79445313 -56.625 28.25 C-51.8754338 25.97468426 -47.42146903 23.47765306 -42.93920898 20.70825195 C-29.22082246 12.23793522 -15.15786028 5.4831912 0 0 Z " fill="#477840" transform="translate(170,288)"/>
<path d="M0 0 C0.33 0.66 0.66 1.32 1 2 C2.65971498 2.68378973 4.32869144 3.34505733 6 4 C8.11191996 5.09151144 10.19206078 6.23534148 12.27783203 7.37597656 C30.25127639 17.15848346 48.02823717 22.62950852 68 27 C67 30 67 30 65.44384766 31.0715332 C64.77401855 31.39468506 64.10418945 31.71783691 63.4140625 32.05078125 C62.65730225 32.41679443 61.90054199 32.78280762 61.12084961 33.15991211 C60.29721924 33.54026611 59.47358887 33.92062012 58.625 34.3125 C57.35571655 34.90526733 57.35571655 34.90526733 56.06079102 35.51000977 C42.78982146 41.54048545 27.73509594 47.21020108 13 47 C12.731875 46.15179688 12.46375 45.30359375 12.1875 44.4296875 C7.88984283 31.56499005 1.81121129 20.40824333 -7 10 C-5.17495091 6.07699728 -2.81729174 3.26212728 0 0 Z " fill="#477840" transform="translate(344,167)"/>
<path d="M0 0 C2.70705243 0.41845044 5.36521442 0.90002086 8.03515625 1.5078125 C8.03515625 5.30978112 7.13979298 5.72808661 4.53515625 8.3828125 C-0.81730507 14.2097828 -6.15351499 21.20029156 -8.73413086 28.76196289 C-9.96702209 32.26337398 -10.89241537 34.7831714 -14.03662109 36.90771484 C-16.66467698 38.07718669 -19.29930698 39.03339682 -22.02734375 39.9453125 C-24.00575421 40.67379314 -25.98097638 41.41098372 -27.953125 42.15625 C-29.45093506 42.72037598 -29.45093506 42.72037598 -30.97900391 43.29589844 C-36.58918333 45.57299825 -41.85091339 48.4939873 -47.14868164 51.40991211 C-47.88723389 51.8147583 -48.62578613 52.21960449 -49.38671875 52.63671875 C-50.35496582 53.17921265 -50.35496582 53.17921265 -51.34277344 53.73266602 C-52.96484375 54.5078125 -52.96484375 54.5078125 -54.96484375 54.5078125 C-52.98028777 47.96231109 -50.42652124 41.91851359 -47.33984375 35.8203125 C-46.900354 34.94890625 -46.46086426 34.0775 -46.00805664 33.1796875 C-42.72512706 26.77535155 -39.21962882 20.6460091 -35.13671875 14.71875 C-32.89436617 11.52921947 -32.89436617 11.52921947 -31.10546875 7.984375 C-23.83757557 -4.48732969 -12.59137339 -1.56306704 0 0 Z " fill="#477840" transform="translate(409.96484375,72.4921875)"/>
<path d="M0 0 C3.37327744 0.53359116 6.08291145 1.97770652 9.0703125 3.58203125 C10.05 4.10216797 11.0296875 4.62230469 12.0390625 5.15820312 C14.07326886 6.24869223 16.10713133 7.3398231 18.140625 8.43164062 C27.00977642 13.13831171 35.87173476 16.92186842 45.5625 19.5625 C46.32699463 19.77229492 47.09148926 19.98208984 47.87915039 20.19824219 C59.38680378 23.26443004 71.10749192 25.25511288 83 26 C79.27441084 30.29875672 74.58015189 32.8745502 69.75 35.75 C68.90953125 36.25660156 68.0690625 36.76320312 67.203125 37.28515625 C65.13846707 38.52864341 63.07075867 39.76670857 61 41 C60.67 40.34 60.34 39.68 60 39 C58.700625 38.896875 57.40125 38.79375 56.0625 38.6875 C33.50101925 36.73813693 12.19096912 25.22402223 -7 14 C-6.44023478 10.36152608 -5.51751154 7.82318618 -3.5 4.75 C-3.0565625 4.06421875 -2.613125 3.3784375 -2.15625 2.671875 C-1 1 -1 1 0 0 Z " fill="#396032" transform="translate(352,155)"/>
<path d="M0 0 C1.45979565 2.91959131 0.3847226 4.35052365 -0.625 7.4375 C-5.37575691 23.49406518 -8.56880053 40.49189537 -8.93505859 57.25097656 C-9.0208911 60.88433754 -9.1464573 64.51619283 -9.26953125 68.1484375 C-9.53529645 76.09835747 -9.7736978 84.04886137 -10 92 C-13.57657358 88.59393856 -15.74011152 85.10412676 -17.875 80.6875 C-18.21942139 79.98471924 -18.56384277 79.28193848 -18.91870117 78.55786133 C-32.56417144 50.29653409 -32.56417144 50.29653409 -30 39 C-28.70737884 35.9588763 -27.14220551 33.11493628 -25.5 30.25 C-25.05148682 29.45795166 -24.60297363 28.66590332 -24.14086914 27.84985352 C-18.52866204 18.1675367 -10.21264929 5.10632465 0 0 Z " fill="#477840" transform="translate(138,353)"/>
<path d="M0 0 C14.94234158 9.2531916 30.86251518 14.84113169 48.1875 17.875 C46.73219873 22.6774942 44.64676876 27.32571892 40.1875 29.875 C35.69972514 30.02116396 31.51115544 29.25068773 27.15136719 28.29980469 C25.34166695 27.9083479 23.51861056 27.58005086 21.6953125 27.2578125 C2.85348648 23.73312911 -17.61572883 15.78772316 -32.8125 3.875 C-32.8125 3.215 -32.8125 2.555 -32.8125 1.875 C-29.42338113 0.66770194 -26.02535584 -0.51226181 -22.625 -1.6875 C-21.18543945 -2.20086914 -21.18543945 -2.20086914 -19.71679688 -2.72460938 C-18.78544922 -3.04365234 -17.85410156 -3.36269531 -16.89453125 -3.69140625 C-15.61412964 -4.13915405 -15.61412964 -4.13915405 -14.30786133 -4.59594727 C-8.57184941 -5.81206485 -4.66119855 -2.99837077 0 0 Z " fill="#477840" transform="translate(422.8125,125.125)"/>
<path d="M0 0 C2 1 2 1 3.23754883 2.32543945 C5.64965785 4.61726045 8.33080424 6.1096269 11.19921875 7.79296875 C11.79426712 8.14386063 12.38931549 8.4947525 13.00239563 8.85627747 C14.89494701 9.9709731 16.79113665 11.0793044 18.6875 12.1875 C19.97485492 12.9442439 21.26196715 13.70140082 22.54882812 14.45898438 C25.69642152 16.31078239 28.84730801 18.15689263 32 20 C30.81307274 23.56078177 29.37116258 24.44405871 26.12695312 26.17919922 C22.25014438 27.67527716 18.35986492 27.54916988 14.25 27.5625 C-0.55746865 27.95008935 -14.76570211 30.63791455 -29.24047852 33.6418457 C-33.81637621 34.59022561 -38.36595227 35.3928654 -43 36 C-36.76036729 21.42979383 -13.6617753 6.83088765 0 0 Z " fill="#487941" transform="translate(191,214)"/>
<path d="M0 0 C3.03063504 3.03063504 2.7571219 6.78200218 3.25 10.875 C5.37554045 26.39831093 10.09753673 40.71166699 16.4597168 54.99829102 C16.79011963 55.74264404 17.12052246 56.48699707 17.4609375 57.25390625 C17.75790527 57.90689697 18.05487305 58.5598877 18.36083984 59.23266602 C19 61 19 61 19 64 C16.98046875 65.5078125 16.98046875 65.5078125 14.1875 67.125 C7.97674341 70.89953723 2.54649206 75.32608691 -3 80 C-4.66462013 81.33588748 -6.33101169 82.66957391 -8 84 C-8.44232902 54.98094802 -6.67886061 28.35245694 0 0 Z " fill="#53894A" transform="translate(152,363)"/>
<path d="M0 0 C-0.31114746 0.56581787 -0.62229492 1.13163574 -0.94287109 1.71459961 C-7.15107607 13.08871459 -12.88046625 24.51994402 -17.6875 36.5625 C-18.1088623 37.6136499 -18.53022461 38.6647998 -18.96435547 39.74780273 C-20.82945541 44.53017999 -22.26768687 48.8980476 -23 54 C-25.75031587 53.85888117 -28.50015418 53.71228835 -31.25 53.5625 C-32.02730469 53.52318359 -32.80460937 53.48386719 -33.60546875 53.44335938 C-34.73662109 53.38051758 -34.73662109 53.38051758 -35.890625 53.31640625 C-36.58188477 53.27974854 -37.27314453 53.24309082 -37.98535156 53.20532227 C-40.06628329 52.99324476 -41.98572422 52.55491323 -44 52 C-43.66497544 45.18783398 -42.347027 38.88664727 -40.625 32.3125 C-40.41593018 31.50514404 -40.20686035 30.69778809 -39.99145508 29.8659668 C-39.37134505 27.56178839 -38.69930981 25.28125854 -38 23 C-37.62230469 21.75605469 -37.24460937 20.51210937 -36.85546875 19.23046875 C-34.29541095 14.77327338 -31.19097626 13.25943279 -26.6875 11 C-25.88948975 10.58065186 -25.09147949 10.16130371 -24.26928711 9.72924805 C-22.6406218 8.87797776 -21.00688026 8.03634763 -19.36816406 7.20458984 C-17.16605642 6.08446622 -14.98383482 4.93352505 -12.8046875 3.76953125 C-3.43674131 -1.14558044 -3.43674131 -1.14558044 0 0 Z " fill="#84BB7C" transform="translate(118,212)"/>
<path d="M0 0 C4.68107283 1.358567 8.35896444 3.28092737 12.4375 5.9375 C13.02934082 6.32284912 13.62118164 6.70819824 14.23095703 7.10522461 C21.34830163 11.79768264 28.1798145 16.88963692 35 22 C34.45730469 22.89460938 33.91460937 23.78921875 33.35546875 24.7109375 C26.63121989 35.98744334 23.74235355 45.92209925 22 59 C18.17701875 54.48193126 15.3124754 49.62389104 12.35546875 44.52734375 C10.6394848 41.60840197 9.07908294 39.08675412 6.78515625 36.5703125 C4.2687993 32.94719899 4.21761425 29.69605505 3.9375 25.375 C3.40015559 19.08248095 2.54965595 13.29869477 0.5859375 7.26171875 C-0.06118705 4.76381797 -0.10005681 2.56964069 0 0 Z " fill="#53894A" transform="translate(274,110)"/>
<path d="M0 0 C2.62714475 2.49627479 4.70334111 4.84778755 6.515625 7.984375 C6.9585791 8.74758057 7.4015332 9.51078613 7.85791016 10.29711914 C8.3172998 11.10656982 8.77668945 11.91602051 9.25 12.75 C9.72872559 13.5845874 10.20745117 14.4191748 10.70068359 15.27905273 C15.10763234 23.03789994 19.12296427 30.96603558 23 39 C23.33 39.66 23.66 40.32 24 41 C24.08372659 42.52148326 24.10730027 44.04655778 24.09765625 45.5703125 C24.09443359 46.46621094 24.09121094 47.36210937 24.08789062 48.28515625 C24.07951172 49.22230469 24.07113281 50.15945313 24.0625 51.125 C24.05798828 52.06988281 24.05347656 53.01476562 24.04882812 53.98828125 C24.03702357 56.32558387 24.02055759 58.66276061 24 61 C21.2079699 60.8595017 18.41650204 60.71284617 15.625 60.5625 C14.43390625 60.50352539 14.43390625 60.50352539 13.21875 60.44335938 C7.2265625 60.11328125 7.2265625 60.11328125 5 59 C4.42163086 57.00976562 4.42163086 57.00976562 3.96484375 54.40625 C3.79533203 53.4575 3.62582031 52.50875 3.45117188 51.53125 C3.28166016 50.5309375 3.11214844 49.530625 2.9375 48.5 C2.76412109 47.530625 2.59074219 46.56125 2.41210938 45.5625 C0.5122378 34.73104826 -0.13571499 24.44790757 -0.0625 13.4375 C-0.05798828 12.14263672 -0.05347656 10.84777344 -0.04882812 9.51367188 C-0.03712601 6.342399 -0.02073113 3.17122454 0 0 Z " fill="#69A861" transform="translate(448,339)"/>
<path d="M0 0 C0.33 0 0.66 0 1 0 C1.11756758 4.43727178 1.18770716 8.87413528 1.25 13.3125 C1.30027344 15.17745117 1.30027344 15.17745117 1.3515625 17.08007812 C1.45673269 27.09753897 0.10537814 36.12384865 -6.5625 44 C-7.14128906 44.70125 -7.72007812 45.4025 -8.31640625 46.125 C-8.87199219 46.74375 -9.42757813 47.3625 -10 48 C-10.46277344 48.556875 -10.92554688 49.11375 -11.40234375 49.6875 C-15.47472933 53.03302947 -21.31639295 52.12054235 -26.3125 52.0625 C-27.05306641 52.05798828 -27.79363281 52.05347656 -28.55664062 52.04882812 C-30.37112899 52.03712175 -32.18557534 52.01918898 -34 52 C-32.47300915 46.75511838 -30.15137156 42.23983965 -27.5 37.5 C-27.05712646 36.70827393 -26.61425293 35.91654785 -26.15795898 35.10083008 C-19.00170049 22.53087152 -10.25898994 10.25898994 0 0 Z " fill="#9BCB92" transform="translate(351,124)"/>
<path d="M0 0 C0.77214844 0.00902344 1.54429687 0.01804687 2.33984375 0.02734375 C2.90832031 0.03894531 3.47679687 0.05054688 4.0625 0.0625 C-0.92775404 7.51248919 -4.76298199 10.41670121 -13.625 12.3125 C-34.59838389 16.91234442 -54.91484379 26.57903764 -72.9375 38.0625 C-73.2675 37.4025 -73.5975 36.7425 -73.9375 36.0625 C-72.71862706 33.33034036 -71.44603428 30.70926124 -70.0625 28.0625 C-69.68480469 27.32515625 -69.30710937 26.5878125 -68.91796875 25.828125 C-68.21596988 24.45910228 -67.51071399 23.09174167 -66.80126953 21.7265625 C-66.16997521 20.51036632 -65.55030758 19.28811516 -64.9375 18.0625 C-64.2775 18.0625 -63.6175 18.0625 -62.9375 18.0625 C-62.77894531 17.29808594 -62.62039062 16.53367187 -62.45703125 15.74609375 C-60.5668466 12.40790132 -58.71040472 11.8694624 -55.12182617 10.79370117 C-54.29787354 10.57302979 -53.4739209 10.3523584 -52.625 10.125 C-51.76430908 9.88048096 -50.90361816 9.63596191 -50.0168457 9.3840332 C-14.9374983 -0.22980767 -14.9374983 -0.22980767 0 0 Z " fill="#477840" transform="translate(191.9375,257.9375)"/>
<path d="M0 0 C15.87422191 -0.64939999 35.32770595 0.34580467 50 7 C51.16796875 9.234375 51.16796875 9.234375 52 12 C53.20274877 14.14006334 54.43498053 16.26368035 55.6875 18.375 C61.16112606 27.77689106 66.22112356 37.43757157 69 48 C67 48 67 48 64.875 46 C63.35091459 44.42746101 61.84780809 42.8373494 60.3515625 41.23828125 C43.71944954 23.93948022 21.48099465 11.27576427 0 1 C0 0.67 0 0.34 0 0 Z " fill="#477840" transform="translate(191,72)"/>
<path d="M0 0 C7.17132711 1.07839505 13.55891454 4.82290845 20 8 C20.70334473 8.34627441 21.40668945 8.69254883 22.13134766 9.04931641 C33.42602461 14.66957242 45.11571395 20.86738525 54 30 C53.13834229 30.08564209 52.27668457 30.17128418 51.38891602 30.25952148 C48.1515702 30.58153835 44.91427123 30.90402133 41.67700195 31.22680664 C40.28346549 31.3656615 38.8899112 31.50433767 37.49633789 31.64282227 C34.18085223 31.97234847 30.86580191 32.30497633 27.55126953 32.64404297 C25.38701026 32.86097477 23.22148211 33.06619918 21.05419922 33.25048828 C19.02894013 33.43307058 17.01188097 33.70445709 15 34 C14.67 34.66 14.34 35.32 14 36 C13.6596875 34.98164062 13.319375 33.96328125 12.96875 32.9140625 C9.65213321 23.17106488 5.8205171 13.79535765 1.5390625 4.4375 C0 1 0 1 0 0 Z " fill="#53894A" transform="translate(173,83)"/>
<path d="M0 0 C3.77875235 -0.28699385 6.63483859 -0.34984656 9.9375 1.640625 C12.19534897 3.74547804 14.01090898 5.97053326 15.90234375 8.4140625 C16.60109619 9.29118896 16.60109619 9.29118896 17.31396484 10.18603516 C23.66640814 18.18055176 29.44794999 26.19268594 33.90234375 35.4140625 C33.12890625 35.28128906 32.35546875 35.14851563 31.55859375 35.01171875 C30.51703125 34.83511719 29.47546875 34.65851563 28.40234375 34.4765625 C27.38140625 34.30253906 26.36046875 34.12851562 25.30859375 33.94921875 C22.14879704 33.39038831 22.14879704 33.39038831 19.9152832 33.31787109 C15.22754993 33.0295151 12.8286855 32.09331042 9.49121094 28.51635742 C9.02875977 27.9876001 8.56630859 27.45884277 8.08984375 26.9140625 C7.06153983 25.81242549 6.02890606 24.71481568 4.9921875 23.62109375 C4.47897949 23.07662598 3.96577148 22.5321582 3.43701172 21.97119141 C-0.40102632 18.076981 -4.82879725 14.81611502 -9.09765625 11.4140625 C-10.66997877 10.11334562 -12.23350703 8.80187273 -13.78515625 7.4765625 C-14.42839844 6.93128906 -15.07164062 6.38601563 -15.734375 5.82421875 C-17.09765625 4.4140625 -17.09765625 4.4140625 -17.09765625 2.4140625 C-11.41243304 1.48450776 -5.7088346 0.76309769 0 0 Z " fill="#69A861" transform="translate(421.09765625,264.5859375)"/>
<path d="M0 0 C6.09606538 -0.11450491 12.18055724 -0.10722868 18.27685547 -0.00683594 C20.65112117 -0.00087579 22.9797861 -0.10613398 25.34765625 -0.2578125 C29.68452627 -0.24884276 32.14587191 -0.04228124 36 2 C40.47809871 7.3422932 47 16.79673369 47 24 C27.69380538 26.81330657 27.69380538 26.81330657 21.95996094 23.99853516 C18.16948094 20.96950556 15.67419467 16.99915863 13 13 C11.58261544 11.48154976 10.1278515 9.99641336 8.625 8.5625 C8.03976563 7.98628906 7.45453125 7.41007813 6.8515625 6.81640625 C6.24054688 6.21699219 5.62953125 5.61757812 5 5 C3.33213902 3.3345285 1.66523544 1.66809667 0 0 Z " fill="#84BB7C" transform="translate(165,152)"/>
<path d="M0 0 C5.44636772 4.62443113 10.6658274 9.40662901 15.75 14.42578125 C16.32685547 14.99321045 16.90371094 15.56063965 17.49804688 16.14526367 C21.5625 20.2424349 21.5625 20.2424349 21.5625 22.48828125 C19.87808523 22.85684217 18.18972331 23.20737853 16.5 23.55078125 C15.56027344 23.74800781 14.62054688 23.94523437 13.65234375 24.1484375 C6.99269272 24.88091492 2.01994416 23.03673792 -3.75 19.92578125 C-9.89158056 16.72863309 -16.0989932 13.77545741 -22.4375 10.98828125 C-23.23325439 10.63822021 -24.02900879 10.28815918 -24.84887695 9.92749023 C-26.71042259 9.11138304 -28.57375583 8.2993551 -30.4375 7.48828125 C-27.07533386 4.62079791 -23.65359549 3.30839558 -19.5 1.86328125 C-18.29472656 1.43789062 -17.08945313 1.0125 -15.84765625 0.57421875 C-4.76473347 -2.95505105 -4.76473347 -2.95505105 0 0 Z " fill="#84BB7C" transform="translate(147.4375,157.51171875)"/>
<path d="M0 0 C2.80493164 0.87036133 2.80493164 0.87036133 5.66015625 2.08203125 C6.70107422 2.51966797 7.74199219 2.95730469 8.81445312 3.40820312 C9.88630859 3.87162109 10.95816406 4.33503906 12.0625 4.8125 C13.13822266 5.26431641 14.21394531 5.71613281 15.32226562 6.18164062 C20.08921584 8.20604292 24.59912931 10.25275959 29 13 C25.61617096 15.25588603 22.13051717 16.75056986 18.375 18.25 C17.36373047 18.69085938 17.36373047 18.69085938 16.33203125 19.140625 C10.5867235 21.40822274 6.80962892 20.70774313 1 19 C-0.82213759 18.56157098 -2.64647726 18.13221612 -4.47265625 17.7109375 C-6.33610471 17.26632524 -8.1993848 16.8210067 -10.0625 16.375 C-11.02349609 16.14554688 -11.98449219 15.91609375 -12.97460938 15.6796875 C-15.31655635 15.12041658 -17.65834933 14.56051001 -20 14 C-20 13.01 -20 12.02 -20 11 C-17.69921875 8.80859375 -17.69921875 8.80859375 -14.6875 6.4375 C-13.70136719 5.65246094 -12.71523437 4.86742187 -11.69921875 4.05859375 C-7.41124214 0.78831347 -5.4165411 -0.43644733 0 0 Z " fill="#84BB7C" transform="translate(102,175)"/>
<path d="M0 0 C1.26996826 -0.02578125 2.53993652 -0.0515625 3.84838867 -0.078125 C5.04310791 -0.08070312 6.23782715 -0.08328125 7.46875 -0.0859375 C8.53544922 -0.09415527 9.60214844 -0.10237305 10.70117188 -0.11083984 C13.5 0.375 13.5 0.375 17.5 4.375 C14.86 8.665 12.22 12.955 9.5 17.375 C-21.44355221 12.52717682 -21.44355221 12.52717682 -34.5 5.375 C-34.83 4.385 -35.16 3.395 -35.5 2.375 C-23.67464225 0.83316057 -11.92725215 0.11895284 0 0 Z " fill="#477840" transform="translate(472.5,111.625)"/>
<path d="M0 0 C1.71802956 0.19587762 3.42719337 0.47047749 5.12890625 0.77734375 C6.68061523 1.05288086 6.68061523 1.05288086 8.26367188 1.33398438 C9.35228516 1.53314453 10.44089844 1.73230469 11.5625 1.9375 C12.65498047 2.13279297 13.74746094 2.32808594 14.87304688 2.52929688 C17.58298106 3.0144816 20.29185498 3.50494238 23 4 C20.10733592 7.05471809 16.80824806 8.98144156 13.1875 11.0625 C2.12266746 17.57122503 -8.0734355 25.02187101 -17.890625 33.28515625 C-20 35 -20 35 -22 36 C-20.54479566 31.09626453 -18.49893027 26.86619571 -16 22.4375 C-15.61134766 21.7458374 -15.22269531 21.0541748 -14.82226562 20.34155273 C-10.7000027 13.19231018 -5.86423418 5.86423418 0 0 Z " fill="#84BB7C" transform="translate(66,202)"/>
<path d="M0 0 C4.74329486 1.6586031 8.94832537 4.06652462 13.25 6.625 C13.91281982 7.01671387 14.57563965 7.40842773 15.25854492 7.81201172 C18.3645901 9.70919388 20.26645832 11.05593749 22.3125 14.125 C17.65361929 14.67750777 12.99459781 15.22880853 8.33544922 15.77905273 C6.75468203 15.96590579 5.17395192 16.15307293 3.59326172 16.34057617 C-4.8276449 17.33926054 -13.24521696 18.32137586 -21.6875 19.125 C-18.918201 13.81383235 -15.86808788 9.88797375 -11.5625 5.75 C-10.75619141 4.95142578 -10.75619141 4.95142578 -9.93359375 4.13671875 C-4.5991323 -1.09131953 -4.5991323 -1.09131953 0 0 Z " fill="#477840" transform="translate(440.6875,81.875)"/>
<path d="M0 0 C1.46373047 0.01353516 1.46373047 0.01353516 2.95703125 0.02734375 C4.06111328 0.04474609 4.06111328 0.04474609 5.1875 0.0625 C-0.58132089 15.12553231 -7.12169455 24.04175596 -21.8125 31.0625 C-23.4666415 31.75966435 -25.12801111 32.44224246 -26.8125 33.0625 C-24.92474622 26.7856496 -22.50887731 21.12480161 -19.375 15.375 C-18.99279297 14.65505859 -18.61058594 13.93511719 -18.21679688 13.19335938 C-11.92066877 1.46695439 -11.92066877 1.46695439 -8.42578125 0.19140625 C-5.60894015 0.05245893 -2.82061099 -0.03398326 0 0 Z " fill="#83BB7B" transform="translate(199.8125,191.9375)"/>
<path d="M0 0 C0 3.46463274 -0.68209953 4.42708841 -2.52734375 7.2890625 C-3.0677832 8.14056885 -3.60822266 8.9920752 -4.16503906 9.86938477 C-5.04240723 11.23341431 -5.04240723 11.23341431 -5.9375 12.625 C-10.28935021 19.45324896 -14.2197329 26.27921319 -17.75 33.5625 C-20.10087287 38.32347948 -22.03591654 41.81109092 -27.0625 44.0625 C-29.34765625 44.72265625 -29.34765625 44.72265625 -31 45 C-30.40505026 39.81245575 -27.97337655 35.60386603 -25.5625 31.0625 C-25.11946533 30.22509277 -24.67643066 29.38768555 -24.2199707 28.52490234 C-10.59967947 3.33132783 -10.59967947 3.33132783 0 0 Z " fill="#52884A" transform="translate(170,288)"/>
<path d="M0 0 C1.79977178 3.59954357 0.31996397 7.59824781 -0.375 11.4375 C-0.49488281 12.30955078 -0.61476563 13.18160156 -0.73828125 14.08007812 C-1.22107125 16.67557312 -1.71241968 18.69108863 -3 21 C-5.85390841 22.74355799 -8.74809607 23.34050621 -12 24 C-13.69962891 24.57814453 -13.69962891 24.57814453 -15.43359375 25.16796875 C-16.42488281 25.50441406 -17.41617188 25.84085937 -18.4375 26.1875 C-19.44683594 26.53167969 -20.45617188 26.87585938 -21.49609375 27.23046875 C-24 28 -24 28 -26 28 C-25.45982088 24.02968347 -23.59261026 22.27803994 -20.75 19.5625 C-19.98171875 18.82128906 -19.2134375 18.08007812 -18.421875 17.31640625 C-17.62265625 16.55199219 -16.8234375 15.78757812 -16 15 C-15.19691406 14.19046875 -14.39382812 13.3809375 -13.56640625 12.546875 C-10.84245229 9.84365129 -8.03472329 7.26029213 -5.1875 4.6875 C-4.21167969 3.80449219 -3.23585938 2.92148438 -2.23046875 2.01171875 C-1.49441406 1.34785156 -0.75835937 0.68398437 0 0 Z " fill="#83BB7B" transform="translate(60,245)"/>
<path d="M0 0 C7.56869947 0.46338976 18.93594904 1.43614835 24.33007812 7.49365234 C28.22953544 13.41574121 30.15358025 20.22112562 32 27 C30 27 30 27 27.875 25 C26.35091459 23.42746101 24.84780809 21.8373494 23.3515625 20.23828125 C18.76816139 15.47115731 13.86512928 11.43457989 8.56835938 7.5012207 C5.46893989 5.19024181 2.65635192 2.81109087 0 0 Z " fill="#528749" transform="translate(228,93)"/>
<path d="M0 0 C1.514485 3.02897 0.26800957 4.88360677 -0.734375 8.0703125 C-3.16361271 16.25069732 -4.74608765 24.48324541 -6.25 32.875 C-6.52019991 34.35298052 -6.79103032 35.83084593 -7.0625 37.30859375 C-7.71557013 40.87110506 -8.36022371 44.4350742 -9 48 C-9.33 48 -9.66 48 -10 48 C-10.55720245 10.27739416 -10.55720245 10.27739416 -6.0859375 4.546875 C-4.13578485 2.79656132 -2.24548876 1.34207119 0 0 Z " fill="#528749" transform="translate(138,353)"/>
<path d="M0 0 C-0.58265625 0.59683594 -1.1653125 1.19367188 -1.765625 1.80859375 C-10.68209747 11.24379182 -18.49412461 21.75255442 -25 33 C-26 31 -26 31 -25.25 28.56640625 C-21.38315482 19.27389393 -16.90701447 9.55152628 -9 3 C-8.34 3 -7.68 3 -7 3 C-6.67 2.01 -6.34 1.02 -6 0 C-3.50907189 -1.24546405 -2.58919267 -0.7767578 0 0 Z " fill="#98C990" transform="translate(339,115)"/>
<path d="M0 0 C1.41910652 0.25774371 2.83524899 0.53183165 4.25 0.8125 C5.03890625 0.96332031 5.8278125 1.11414063 6.640625 1.26953125 C9.43822565 2.13567582 10.92655979 2.91338114 13 5 C14.265625 8.1796875 14.265625 8.1796875 15.25 11.875 C15.58515625 13.08929688 15.9203125 14.30359375 16.265625 15.5546875 C16.89760136 18.51959785 17.16021454 20.99025549 17 24 C13.983597 21.17459195 11.78670545 18.32907717 9.625 14.8125 C6.51065822 9.80802854 3.29445112 4.88737254 0 0 Z " fill="#69A861" transform="translate(452,316)"/>
<path d="M0 0 C1 3 1 3 0 11 C-5.94 11.33 -11.88 11.66 -18 12 C-15.15633854 9.8672539 -13.21749036 8.52841932 -10.125 7.125 C-6.19879412 5.22806907 -3.2347 2.91123 0 0 Z " fill="#497A42" transform="translate(280,226)"/>
<path d="M0 0 C4.38889325 0.66498383 7.9811485 2.18757677 12 4 C12 4.33 12 4.66 12 5 C8.7 5 5.4 5 2 5 C1.34 3.35 0.68 1.7 0 0 Z " fill="#477740" transform="translate(173,83)"/>
</svg>
