<?xml version="1.0" encoding="utf-8"?>
<!-- Designed by Vexels.com - 2020 All Rights Reserved - https://vexels.com/terms-and-conditions/  -->
<svg version="1.1" id="Layer_1" xmlns="http://www.w3.org/2000/svg" xmlns:xlink="http://www.w3.org/1999/xlink" x="0px" y="0px"
	 viewBox="0 0 1200 1200" enable-background="new 0 0 1200 1200" xml:space="preserve">
<g>
	<g>
		<g>
			<g>
				<g>
					<g>
						<g>
							<g>
								<g>
									<path fill="#4E5D3D" d="M551.532,196.35c-11.542-26.867-28.7-51.716-51.823-69.615s-52.486-28.442-81.647-26.27
										c-13.93,1.037-27.48,4.871-40.918,8.685c-24.614,6.985-49.227,13.97-73.841,20.956
										c42.357,58.891,117.426,86.311,189.792,91.356c9.343,0.651,18.974,0.95,27.812-2.149
										c8.838-3.099,16.809-10.322,18.19-19.585"/>
								</g>
							</g>
						</g>
					</g>
				</g>
			</g>
		</g>
	</g>
	<g>
		<g>
			<g>
				<g>
					<g>
						<g>
							<g>
								<g>
									<path fill="#F0AF37" d="M708.993,380.149c1.363-50.624-28.874-100.763-74.284-123.18s-103.6-15.931-142.96,15.935
										c-39.875,32.284-57.904,85.045-62.389,136.154c-4.485,51.109,2.595,102.464,3.233,153.766
										c1.045,84.038-15.456,168.255-48.138,245.685c-14.35,33.997-31.953,67.275-37.797,103.711
										c-9.841,61.359,16.483,125.543,61.679,168.194s107.21,64.925,169.224,68.921c79.596,5.13,161.545-19.503,222.321-71.157
										c60.776-51.653,98.698-130.52,96.743-210.256c-3.032-123.655-93.84-225.502-138.712-340.769
										c-27.575-70.836-37.962-147.861-69.987-216.8"/>
								</g>
							</g>
						</g>
					</g>
				</g>
			</g>
		</g>
	</g>
	<g>
		<g>
			<g>
				<g>
					<g>
						<g>
							<g>
								<g>
									<path fill="#EBA015" d="M757.912,527.153c-20.81-53.459-31.842-110.438-49.761-164.811
										c0.689,5.901,1.002,11.849,0.842,17.807l-21.067-69.796c7.856,16.912,14.4,34.315,20.225,51.989
										c-4.185-35.881-23.578-69.814-52.136-91.928c-23.609,85.006-35.318,175.965-8.03,253.933
										c74.638,203.181,116.157,472.504-44.799,625.545c71.28-1.084,142.428-25.592,196.695-71.713
										c60.776-51.653,98.698-130.52,96.743-210.256C893.593,744.266,802.785,642.42,757.912,527.153z"/>
								</g>
							</g>
						</g>
					</g>
				</g>
			</g>
		</g>
	</g>
	<g>
		<g>
			<g>
				<g>
					<g>
						<g>
							<g>
								<g>
									<path fill="#F0AF37" d="M708.993,380.149c0.16-5.958-0.153-11.906-0.842-17.807c-5.825-17.674-12.369-35.077-20.225-51.989
										L708.993,380.149z"/>
								</g>
							</g>
						</g>
					</g>
				</g>
			</g>
		</g>
	</g>
	<g>
		<g>
			<g>
				<g>
					<g>
						<g>
							<g>
								<g>
									<path fill="#F0AF37" d="M647.986,524.347c-27.289-77.968-15.579-168.927,8.03-253.933
										c-6.647-5.147-13.743-9.711-21.307-13.445c-45.411-22.418-103.601-15.931-142.961,15.935
										c-39.876,32.284-57.905,85.045-62.39,136.154c-4.485,51.109,2.596,102.464,3.233,153.766
										c1.046,84.038-15.455,168.255-48.137,245.685c-14.349,33.997-31.953,67.275-37.796,103.711
										c-9.841,61.359,16.483,125.543,61.678,168.194c45.197,42.651,107.21,64.924,169.225,68.921
										c8.524,0.549,17.076,0.687,25.626,0.557C764.143,996.851,722.624,727.528,647.986,524.347z"/>
								</g>
							</g>
						</g>
					</g>
				</g>
			</g>
		</g>
	</g>
	<g>
		<g>
			<g>
				<g>
					<g>
						<g>
							<g>
								<g>
									<path fill="#514B49" d="M569.149,336.622c-6.094,0-11.635-4.119-13.186-10.296l-33.227-132.334
										c-5.519-21.964-11.219-44.677-11.339-68.574c-0.133-28.098,8.234-53.229,23.559-70.764c4.947-5.667,13.54-6.232,19.2-1.291
										c5.656,4.945,6.236,13.54,1.289,19.198c-10.958,12.539-16.937,31.263-16.835,52.722
										c0.102,20.602,5.399,41.689,10.519,62.083L582.353,319.7c1.834,7.288-2.591,14.678-9.881,16.51
										C571.359,336.489,570.243,336.622,569.149,336.622z"/>
								</g>
							</g>
						</g>
					</g>
				</g>
			</g>
		</g>
	</g>
	<g opacity="0.25">
		<g opacity="0.47">
			<g>
				<g>
					<g>
						<g>
							<g>
								<g>
									<g>
										<path fill="#FFFFFF" d="M473.65,1072.851c-4.527,0-9.068-1.635-12.663-4.943c-51.893-47.736-69.65-126.719-43.178-192.074
											c3.083-7.615,6.665-14.954,10.132-22.05c8.172-16.733,15.888-32.539,14.947-47.755
											c-0.64-10.315,7.204-19.193,17.514-19.832c10.406-0.637,19.195,7.204,19.835,17.516
											c1.558,25.076-9.191,47.079-18.67,66.491c-3.33,6.825-6.478,13.27-9.077,19.679
											c-20.406,50.391-6.181,113.679,33.831,150.489c7.606,6.994,8.099,18.83,1.101,26.436
											C483.736,1070.818,478.702,1072.851,473.65,1072.851z"/>
									</g>
								</g>
							</g>
						</g>
					</g>
				</g>
			</g>
		</g>
	</g>
</g>
</svg>
