<?xml version="1.0" encoding="UTF-8"?>
<svg id="Layer_1" xmlns="http://www.w3.org/2000/svg" viewBox="0 0 646.18 421.06">
  <defs>
    <style>
      .cls-1 {
        fill: #1898d5;
      }

      .cls-2 {
        fill: #1cb0f6;
      }
    </style>
  </defs>
  <circle class="cls-1" cx="435.65" cy="210.53" r="210.53"/>
  <circle class="cls-2" cx="210.53" cy="210.53" r="210.53"/>
  <path class="cls-1" d="M170.49,43.07l23.31,71.73c3.6,11.09,13.94,18.61,25.61,18.61h75.43c5.93,0,8.39,7.59,3.6,11.07l-61.02,44.33c-9.44,6.86-13.39,19.01-9.78,30.1l23.31,71.73c1.83,5.64-4.62,10.33-9.42,6.84l-61.02-44.33c-9.44-6.86-22.22-6.86-31.65,0l-61.02,44.33c-4.8,3.49-11.25-1.2-9.42-6.84l23.31-71.73c3.6-11.09-.34-23.25-9.78-30.1l-61.02-44.33c-4.8-3.49-2.33-11.07,3.6-11.07h75.43c11.67,0,22-7.51,25.61-18.61l23.31-71.73c1.83-5.64,9.81-5.64,11.64,0Z"/>
</svg>