<?xml version="1.0" encoding="UTF-8"?>
<svg version="1.1" xmlns="http://www.w3.org/2000/svg" width="512" height="512">
<path d="M0 0 C1.02222656 0.45117188 2.04445313 0.90234375 3.09765625 1.3671875 C22.56470518 10.44668068 43.59265506 27.70833172 52.2265625 47.86328125 C52.60941406 48.92095703 52.60941406 48.92095703 53 50 C53.5878125 49.855625 54.175625 49.71125 54.78125 49.5625 C80.96819714 44.14451094 108.32745029 48.87072989 131 63 C154.13452687 78.80372387 169.04768404 101.35248921 174.56176758 128.79589844 C175.03583738 132.26202216 175.01387721 135.47756784 174.88671875 138.97265625 C174.85642578 140.28427734 174.82613281 141.59589844 174.79492188 142.94726562 C174.74547699 145.0109131 174.68708925 147.07249096 174.60229492 149.13500977 C173.94590661 156.82825836 173.94590661 156.82825836 176.23266602 163.88818359 C177.98585376 165.37224564 177.98585376 165.37224564 181 167 C192.51931122 180.16492711 194.92080096 195.54073334 194.22216797 212.33691406 C193.09850331 225.80607245 185.74196631 237.03031736 176.16015625 246.1875 C162.64852207 257.52456738 147.12498649 260.41711901 130 259 C125.48765565 258.20614196 121.24377227 256.70497596 117 255 C115.33339648 254.33317548 113.66673881 253.66648627 112 253 C111.46596558 253.76739502 111.46596558 253.76739502 110.92114258 254.55029297 C103.94620422 264.56484544 96.92400889 274.53929611 89.75708008 284.41748047 C85.62762436 290.11436201 81.56223891 295.85381804 77.5168457 301.6105957 C73.91124542 306.73266383 70.24559468 311.80847216 66.5625 316.875 C61.52814148 323.808647 56.63720535 330.82936994 51.84008789 337.92919922 C51.3527417 338.64865723 50.86539551 339.36811523 50.36328125 340.109375 C49.58827271 341.27134399 49.58827271 341.27134399 48.79760742 342.45678711 C47 345 47 345 44.7121582 347.76391602 C36.46088031 357.9298343 32.78260708 369.47131361 28.75332642 381.79577637 C27.54521549 385.49035859 26.30820474 389.17413367 25.06323242 392.85644531 C23.04481989 398.83692142 21.04729243 404.8240595 19.05834961 410.81439209 C16.88979852 417.34168086 14.70738575 423.86347511 12.45846558 430.36355591 C11.83947484 432.1712241 11.24353432 433.98673581 10.64868164 435.80249023 C6.64317906 447.42234495 0.14550481 457.24748139 -11 463 C-18.31850469 466.21008637 -25.2358008 466.46740527 -33.14453125 466.46875 C-34.39070724 466.47636353 -35.63688324 466.48397705 -36.92082214 466.49182129 C-40.21572145 466.5053264 -43.51021092 466.50325383 -46.80511475 466.49743652 C-50.12614241 466.50167755 -53.44677578 466.54907383 -56.76757812 466.5859375 C-59.3307252 466.59114627 -61.89387889 466.59383266 -64.45703125 466.59375 C-65.63554153 466.61014526 -66.81405182 466.62654053 -68.02827454 466.64343262 C-78.16728681 466.56003113 -87.71821371 463.90920541 -95.375 456.9375 C-96.12523437 456.28652344 -96.87546875 455.63554687 -97.6484375 454.96484375 C-104.67977708 446.09974949 -107.8965763 435.05719832 -111.38006592 424.45321655 C-116.67183043 408.37531672 -122.44533919 392.58263067 -128.83349609 376.90576172 C-129.91486076 374.21208187 -130.94594632 371.50584589 -131.95703125 368.78515625 C-135.05271076 360.57895895 -138.2299849 354.77402878 -145 349 C-146.17017669 347.7303452 -147.31615572 346.43798279 -148.4375 345.125 C-151.08687301 342.04714069 -153.77711028 339.013147 -156.5 336 C-159.76390848 332.38323655 -162.98790949 328.73610392 -166.1875 325.0625 C-169.0326929 321.8248667 -171.92853836 318.6331371 -174.81640625 315.43359375 C-176.70848685 313.32488854 -178.57905758 311.20080199 -180.4375 309.0625 C-183.24822525 305.83440488 -186.115799 302.66261557 -189 299.5 C-192.45328153 295.71337002 -195.86099051 291.8952368 -199.22265625 288.02734375 C-201.29359487 285.66510827 -203.39512848 283.33204147 -205.5 281 C-208.20919191 277.9974269 -210.9032688 274.98440955 -213.5625 271.9375 C-214.14257812 271.30714844 -214.72265625 270.67679687 -215.3203125 270.02734375 C-217 268 -217 268 -218.3671875 265.50390625 C-220.36805085 262.31347489 -221.66981496 260.84681582 -225 259 C-229.96920226 258.34917848 -234.9330204 258.62167728 -239.92822266 258.80908203 C-248.22089881 259.11255005 -254.35345173 258.47967033 -262 255 C-262.93457031 254.59910156 -263.86914062 254.19820313 -264.83203125 253.78515625 C-276.99600515 247.91582618 -286.2197729 237.43837346 -291.2109375 224.9765625 C-296.42648771 209.69980906 -296.10221588 194.72193344 -289.5546875 179.9609375 C-286.38195873 173.91840382 -282.53403197 168.07654806 -277.23046875 163.73046875 C-274.46277634 160.34234792 -274.61809013 158.86484244 -275.01904297 154.66918945 C-275.11588379 153.87085693 -275.21272461 153.07252441 -275.3125 152.25 C-277.455802 126.98479494 -269.66264237 102.50689112 -253.5 82.8984375 C-237.01845503 63.7901463 -215.09757783 51.36095949 -190 48 C-185.6619653 47.73624156 -181.34490011 47.71940211 -177 47.75 C-175.90171875 47.74226563 -174.8034375 47.73453125 -173.671875 47.7265625 C-166.57536849 47.74337887 -159.93046305 48.47571479 -153 50 C-152.21689453 48.69289063 -152.21689453 48.69289063 -151.41796875 47.359375 C-146.07829815 38.64501288 -140.12261484 31.30442333 -133 24 C-132.36835938 23.29488281 -131.73671875 22.58976562 -131.0859375 21.86328125 C-99.0097973 -12.9682983 -41.46032015 -19.07654037 0 0 Z M-105 212 C-105.54785156 212.60585937 -106.09570312 213.21171875 -106.66015625 213.8359375 C-117.32558076 225.10833739 -129.54656204 232.52150117 -144 238 C-141.20096044 243.19017889 -138.23285718 248.23865374 -135.125 253.25 C-119.31032218 279.2692248 -106.22857823 307.59563633 -93.765625 335.34765625 C-93.42474854 336.1055545 -93.08387207 336.86345276 -92.73266602 337.64431763 C-91.10850085 341.26224215 -89.49781241 344.88531492 -87.90820312 348.51855469 C-87.32959502 349.82103816 -86.75082762 351.12345088 -86.171875 352.42578125 C-85.4308252 354.11828003 -85.4308252 354.11828003 -84.67480469 355.8449707 C-82.57304118 359.80431324 -80.1240344 363.9379828 -76 366 C-71.93990798 366.39039346 -69.47680989 366.2200661 -65.75 364.5 C-58.67247455 358.06588596 -58.4503453 346.28319364 -56.92578125 337.265625 C-56.63836999 335.60144633 -56.35021192 333.93739648 -56.06135559 332.27346802 C-55.29446317 327.84564151 -54.53664087 323.41630855 -53.78055573 318.98662567 C-52.53445048 311.70090431 -51.27062238 304.41821738 -50.01065063 297.13488388 C-49.54399003 294.43559487 -49.07833551 291.73613366 -48.61279297 289.03665161 C-46.89019759 279.05956131 -45.13357067 269.09035307 -43.30078125 259.1328125 C-43.10799088 258.08516724 -42.9152005 257.03752197 -42.71656799 255.95812988 C-41.8643215 251.34185904 -41.00321185 246.72736789 -40.1340332 242.11425781 C-39.84190506 240.54232785 -39.54982756 238.97038847 -39.2578125 237.3984375 C-39.12727982 236.72096466 -38.99674713 236.04349182 -38.86225891 235.3454895 C-38.15449523 231.51441506 -37.87938139 227.89350881 -38 224 C-38.85827393 224.02356567 -38.85827393 224.02356567 -39.73388672 224.04760742 C-59.09077873 224.50554148 -75.65212739 222.33999752 -93.85986328 215.76171875 C-97.55281389 214.44732154 -101.27704502 213.22630843 -105 212 Z M3 212 C0.64321036 226.03748518 -1.70412457 240.07652359 -4.04072571 254.11738396 C-5.12605997 260.63757494 -6.21436943 267.1572397 -7.30957031 273.67578125 C-8.36704904 279.9704824 -9.41659198 286.26646053 -10.46072388 292.56338882 C-10.85978831 294.96151684 -11.26167494 297.35917705 -11.66647339 299.75634384 C-12.2344228 303.12265033 -12.79217254 306.49050396 -13.34765625 309.85888672 C-13.60012619 311.33380333 -13.60012619 311.33380333 -13.85769653 312.83851624 C-15.84415233 323.89418439 -15.84415233 323.89418439 -13.25 334.4375 C-9.51788094 338.68796893 -7.02239991 340.59967314 -1.15625 341.125 C2.73943144 340.89916339 5.97831534 339.4313135 9 337 C11.90758899 332.99456245 13.91385888 329.14599882 15.63671875 324.515625 C15.87362427 323.88269531 16.11052979 323.24976563 16.35461426 322.59765625 C17.1412837 320.48499556 17.9150056 318.3678816 18.6875 316.25 C18.95857574 315.51454956 19.22965149 314.77909912 19.50894165 314.0213623 C24.97605966 299.18173202 30.09903469 284.2228868 35.1875 269.25 C35.5628891 268.14547485 35.9382782 267.04094971 36.32504272 265.9029541 C37.40054797 262.73313702 38.47269469 259.56221183 39.54296875 256.390625 C39.8632605 255.44405029 40.18355225 254.49747559 40.5135498 253.5222168 C42.13113386 248.70938612 43.65360149 243.89584211 45 239 C44.04480469 238.57589844 43.08960938 238.15179688 42.10546875 237.71484375 C29.45528838 232.01404818 14.78478588 225.12490878 6.3125 213.73046875 C5.879375 213.15941406 5.44625 212.58835938 5 212 C4.34 212 3.68 212 3 212 Z " fill="#FEFDD6" transform="translate(306,28)"/>
<path d="M0 0 C-0.5607735 7.06414225 -1.38512985 14.01103581 -2.58227539 20.99438477 C-2.73847855 21.92602448 -2.8946817 22.85766418 -3.05561829 23.8175354 C-3.39162243 25.81911144 -3.72941848 27.82038737 -4.06886482 29.82138252 C-4.60686604 32.99574669 -5.13899914 36.17104543 -5.66954041 39.34666443 C-7.17761489 48.36819 -8.69465729 57.38819073 -10.21899414 66.40698242 C-11.15423021 71.94281405 -12.08152318 77.47992971 -13.00402641 83.01789665 C-13.35541019 85.11742055 -13.70983119 87.21643861 -14.0674305 89.3149128 C-14.56809619 92.25375192 -15.05864872 95.19412259 -15.54711914 98.13500977 C-15.69515991 98.98879715 -15.84320068 99.84258453 -15.99572754 100.72224426 C-17.76427494 111.27850469 -17.76427494 111.27850469 -15.4375 121.4375 C-12.44247705 124.58611387 -10.17440763 125.79720458 -6 127 C-1.23378228 126.83564766 2.37257879 126.15012894 6 123 C10.19381185 115.9440397 12.9704048 108.18960384 15.75 100.5 C16.08233643 99.58938309 16.08233643 99.58938309 16.42138672 98.66036987 C22.31582226 82.49926112 27.76857182 66.17995944 33.24902344 49.875 C33.78604889 48.28177162 33.78604889 48.28177162 34.33392334 46.65635681 C35.00820668 44.65506118 35.68011362 42.65296267 36.34918213 40.6499176 C38.03226536 35.657658 39.8439379 30.80773739 42 26 C42.59425781 26.12117188 43.18851562 26.24234375 43.80078125 26.3671875 C45.57537833 26.72597073 47.35159915 27.07676682 49.12890625 27.421875 C50.87312233 27.7730913 52.61256084 28.15135059 54.33984375 28.578125 C65.23656019 31.05063765 77.94186441 31.11772022 88.99609375 29.48828125 C96.90799295 28.32339621 96.90799295 28.32339621 100.7109375 30.6796875 C102.96803893 32.68046195 104.97657018 34.76820784 107 37 C107.66 37.33 108.32 37.66 109 38 C107.39616386 42.84902506 104.64645653 46.59251552 101.6875 50.6875 C101.15769531 51.42935547 100.62789063 52.17121094 100.08203125 52.93554688 C98.39423256 55.29489927 96.69839409 57.6482654 95 60 C94.45811035 60.75104004 93.9162207 61.50208008 93.35791016 62.27587891 C91.19346534 65.27425815 89.02765786 68.271636 86.8581543 71.26635742 C82.69727527 77.01475276 78.59736138 82.803903 74.51733398 88.60986328 C70.91160878 93.73220271 67.24576723 98.80823478 63.5625 103.875 C58.52814148 110.808647 53.63720535 117.82936994 48.84008789 124.92919922 C48.3527417 125.64865723 47.86539551 126.36811523 47.36328125 127.109375 C46.58827271 128.27134399 46.58827271 128.27134399 45.79760742 129.45678711 C44 132 44 132 41.7121582 134.76391602 C33.46088031 144.9298343 29.78260708 156.47131361 25.75332642 168.79577637 C24.54521549 172.49035859 23.30820474 176.17413367 22.06323242 179.85644531 C20.04481989 185.83692142 18.04729243 191.8240595 16.05834961 197.81439209 C13.88979852 204.34168086 11.70738575 210.86347511 9.45846558 217.36355591 C8.83947484 219.1712241 8.24353432 220.98673581 7.64868164 222.80249023 C3.64317906 234.42234495 -2.85449519 244.24748139 -14 250 C-21.31850469 253.21008637 -28.2358008 253.46740527 -36.14453125 253.46875 C-37.39070724 253.47636353 -38.63688324 253.48397705 -39.92082214 253.49182129 C-43.21572145 253.5053264 -46.51021092 253.50325383 -49.80511475 253.49743652 C-53.12614241 253.50167755 -56.44677578 253.54907383 -59.76757812 253.5859375 C-62.3307252 253.59114627 -64.89387889 253.59383266 -67.45703125 253.59375 C-68.63554153 253.61014526 -69.81405182 253.62654053 -71.02827454 253.64343262 C-81.16728681 253.56003113 -90.71821371 250.90920541 -98.375 243.9375 C-99.12523437 243.28652344 -99.87546875 242.63554687 -100.6484375 241.96484375 C-107.67977708 233.09974949 -110.8965763 222.05719832 -114.38006592 211.45321655 C-119.67183043 195.37531672 -125.44533919 179.58263067 -131.83349609 163.90576172 C-132.91486076 161.21208187 -133.94594632 158.50584589 -134.95703125 155.78515625 C-138.05271076 147.57895895 -141.2299849 141.77402878 -148 136 C-149.17017669 134.7303452 -150.31615572 133.43798279 -151.4375 132.125 C-154.08687301 129.04714069 -156.77711028 126.013147 -159.5 123 C-162.76390848 119.38323655 -165.98790949 115.73610392 -169.1875 112.0625 C-172.0326929 108.8248667 -174.92853836 105.6331371 -177.81640625 102.43359375 C-179.70848685 100.32488854 -181.57905758 98.20080199 -183.4375 96.0625 C-186.24822525 92.83440488 -189.115799 89.66261557 -192 86.5 C-195.45328153 82.71337002 -198.86099051 78.8952368 -202.22265625 75.02734375 C-204.29359487 72.66510827 -206.39512848 70.33204147 -208.5 68 C-211.75463076 64.39351727 -214.96979743 60.7570326 -218.16015625 57.09375 C-221.73369663 53.02704588 -225.3702953 49.01654397 -229 45 C-226.60716098 42.60716098 -224.6010945 41.99632272 -221.4375 40.8125 C-214.58348728 38.04120244 -209.21027351 34.21027351 -204 29 C-201.734375 29.0234375 -201.734375 29.0234375 -198.75 29.375 C-183.35169333 30.7516698 -168.83146371 30.59886746 -153.7734375 26.875 C-150 26 -150 26 -146 26 C-144.62231445 27.40405273 -144.62231445 27.40405273 -143.36328125 29.43359375 C-142.63467896 30.59810059 -142.63467896 30.59810059 -141.89135742 31.78613281 C-141.109823 33.09855957 -141.109823 33.09855957 -140.3125 34.4375 C-139.75216064 35.36272461 -139.19182129 36.28794922 -138.61450195 37.24121094 C-122.47608122 64.4101511 -108.78981862 93.44609673 -95.8046875 122.234375 C-95.46214935 122.99322998 -95.11961121 123.75208496 -94.76669312 124.53393555 C-93.1213974 128.18550648 -91.48740539 131.84158216 -89.87060547 135.50585938 C-89.2835915 136.82164263 -88.69651787 138.13739926 -88.109375 139.453125 C-87.60374023 140.59942383 -87.09810547 141.74572266 -86.57714844 142.92675781 C-84.6900405 146.60398919 -82.78791625 150.10604187 -79 152 C-75.394204 152.27213555 -72.66306085 152.24111304 -69.25 151 C-62.56297018 145.05597349 -62.38554354 132.90183592 -60.9609375 124.4765625 C-60.6762802 122.82868155 -60.39088348 121.18092818 -60.10479736 119.53329468 C-59.49965116 116.04002684 -58.8991774 112.54600254 -58.30255127 109.05126953 C-57.37390703 103.61227564 -56.43500175 98.17508889 -55.49365234 92.73828125 C-55.17910365 90.92120431 -54.86455897 89.10412667 -54.55001831 87.28704834 C-54.31700327 85.94111225 -54.31700327 85.94111225 -54.07928085 84.56798553 C-53.6095552 81.85260417 -53.1408461 79.13704906 -52.6723938 76.42144775 C-50.05702347 61.26863517 -47.36517627 46.13076406 -44.625 31 C-44.33891876 29.41774628 -44.33891876 29.41774628 -44.04705811 27.80352783 C-43.03422487 22.20183127 -42.01881708 16.60061127 -41 11 C-40.4497818 10.89846619 -39.8995636 10.79693237 -39.33267212 10.69232178 C-24.58008532 7.97260876 -24.58008532 7.97260876 -10.375 3.25 C-2.1505102 0 -2.1505102 0 0 0 Z " fill="#A7DA78" transform="translate(309,241)"/>
<path d="M0 0 C0.33 0 0.66 0 1 0 C1.87486578 4.42403239 2.05050601 8.47078553 1.88671875 12.97265625 C1.85642578 14.28427734 1.82613281 15.59589844 1.79492188 16.94726562 C1.74547699 19.0109131 1.68708925 21.07249096 1.60229492 23.13500977 C0.94590661 30.82825836 0.94590661 30.82825836 3.23266602 37.88818359 C4.98585376 39.37224564 4.98585376 39.37224564 8 41 C19.51931122 54.16492711 21.92080096 69.54073334 21.22216797 86.33691406 C20.09850331 99.80607245 12.74196631 111.03031736 3.16015625 120.1875 C-10.43428295 131.59404573 -25.81153342 134.27771409 -43 133 C-52.79680066 131.30596989 -63.08454246 126.9458411 -69.375 119 C-73.23924387 116.05581419 -76.1851281 117.04108195 -80.87890625 117.58984375 C-94.63498313 119.12978023 -108.64463469 118.68834142 -122 115 C-123.24007813 114.6596875 -124.48015625 114.319375 -125.7578125 113.96875 C-138.67521631 110.04313242 -149.65799091 103.68558874 -160 95 C-160.59683594 94.52433594 -161.19367188 94.04867187 -161.80859375 93.55859375 C-164.37211371 91.49917124 -166.15833422 89.76249868 -168 87 C-172.41195239 88.45325808 -176.8146442 89.92154081 -181.18359375 91.5 C-210.11700168 101.8155064 -238.0751883 101.16134326 -266.85986328 90.76171875 C-270.55281389 89.44732154 -274.27704502 88.22630843 -278 87 C-278.54785156 87.60585937 -279.09570312 88.21171875 -279.66015625 88.8359375 C-294.3509273 104.36276869 -312.26020027 112.60406419 -333 117 C-333.92683594 117.19722656 -334.85367188 117.39445312 -335.80859375 117.59765625 C-340.39784397 118.17622757 -344.94178261 118.14424972 -349.5625 118.125 C-350.54105957 118.12814209 -351.51961914 118.13128418 -352.52783203 118.13452148 C-357.91285664 118.12428041 -363.0470267 117.80753974 -368.375 117.0625 C-372.47664549 116.66973821 -372.47664549 116.66973821 -376.13671875 118.28125 C-377.43718949 119.48411949 -378.69659611 120.73271551 -379.9140625 122.01953125 C-388.13163718 129.82161058 -401.13490898 133.5821799 -412.25 133.4375 C-413.48943359 133.42614014 -413.48943359 133.42614014 -414.75390625 133.41455078 C-421.99399693 133.22172566 -428.31707977 131.85770986 -435 129 C-435.94101562 128.59910156 -436.88203125 128.19820312 -437.8515625 127.78515625 C-450.00066192 121.88172062 -459.21661412 111.44626022 -464.2109375 98.9765625 C-469.42648771 83.69980906 -469.10221588 68.72193344 -462.5546875 53.9609375 C-459.38750344 47.92896384 -455.54928778 42.07039615 -450.234375 37.75390625 C-447.43230783 34.30030948 -447.60424978 32.64493204 -447.9675293 28.36157227 C-448.10735229 27.13071899 -448.10735229 27.13071899 -448.25 25.875 C-448.39236169 24.17363984 -448.52911203 22.47180052 -448.66015625 20.76953125 C-448.72605957 19.95049316 -448.79196289 19.13145508 -448.85986328 18.28759766 C-449.23307326 12.19530237 -449.00486192 6.38422198 -446 1 C-444.08961522 4.46795074 -443.02627945 8.03259998 -441.875 11.8125 C-437.6712105 24.83337008 -431.23770373 35.86883961 -422 46 C-420.98873047 47.15048828 -420.98873047 47.15048828 -419.95703125 48.32421875 C-408.08729561 61.08474131 -391.74133411 69.67965571 -375 74 C-374.10925781 74.2784375 -373.21851563 74.556875 -372.30078125 74.84375 C-348.29986404 81.62047956 -322.39535871 75.94068999 -300.875 64.375 C-292.62450008 59.47211671 -283.36662577 53.04993866 -278 45 C-273.61222333 46.39822929 -269.42329958 48.07233336 -265.1875 49.875 C-237.06540195 61.11280148 -204.73257858 60.28197677 -176.92578125 48.5234375 C-173.63328974 47.18208146 -170.58125301 46.22915756 -167 46 C-164.6875 47.9375 -164.6875 47.9375 -163.45703125 49.34765625 C-150.06557478 64.53421412 -130.66333757 72.86889529 -111 76 C-110.20464844 76.13019531 -109.40929687 76.26039063 -108.58984375 76.39453125 C-84.14073985 79.7224492 -58.66044666 73.87860231 -38.60498047 59.35888672 C-35.97736572 57.33881295 -33.48147273 55.19616972 -31 53 C-29.55367188 51.71996094 -29.55367188 51.71996094 -28.078125 50.4140625 C-13.75070451 36.91779072 -5.1014914 18.83627595 0 0 Z " fill="#F4EFBE" transform="translate(479,154)"/>
<path d="M0 0 C2.265625 0.0234375 2.265625 0.0234375 5.25 0.375 C18.71384101 1.63442388 32.57543298 1.66845192 46 0 C60.53451656 27.15389682 73.82600224 54.68646863 86.09765625 82.92645264 C86.94873236 84.88218915 87.8035415 86.83623492 88.66015625 88.78955078 C100.7205282 116.32211043 111.56991888 144.20281073 121.37033081 172.61364746 C123.40692134 178.50542176 125.46243852 184.39001839 127.62109375 190.23828125 C128.16527954 191.72001831 128.16527954 191.72001831 128.72045898 193.23168945 C133.20908208 202.94290818 141.31865011 208.20311748 151 212 C153.85072568 212.83300456 156.43554158 213.14426115 159.40136719 213.20532227 C160.2619574 213.22526749 161.12254761 213.24521271 162.00921631 213.26576233 C162.92914368 213.28247482 163.84907104 213.29918732 164.796875 213.31640625 C166.22003021 213.3475779 166.22003021 213.3475779 167.67193604 213.37937927 C170.69788482 213.44467934 173.7239192 213.50366888 176.75 213.5625 C178.80339421 213.6057038 180.85677982 213.64931869 182.91015625 213.69335938 C187.9400168 213.80034073 192.96996332 213.90166323 198 214 C198 214.66 198 215.32 198 216 C196.05859375 217.4375 196.05859375 217.4375 193.4375 219 C192.59058594 219.515625 191.74367188 220.03125 190.87109375 220.5625 C183.3522616 224.32703093 176.33837397 224.33389927 168.05078125 224.37109375 C166.80177536 224.38012222 165.55276947 224.3891507 164.26591492 224.39845276 C161.62740662 224.41293146 158.98933047 224.42263037 156.35083008 224.42553711 C153.66715906 224.42983773 150.98445071 224.45064655 148.30102539 224.48706055 C144.40481725 224.53616738 140.5097679 224.55134833 136.61328125 224.55859375 C135.42849686 224.57812607 134.24371246 224.59765839 133.02302551 224.61778259 C122.85410178 224.56345916 113.30565691 221.93094024 105.625 214.9375 C104.87476563 214.28652344 104.12453125 213.63554687 103.3515625 212.96484375 C96.32022292 204.09974949 93.1034237 193.05719832 89.61993408 182.45321655 C84.32816957 166.37531672 78.55466081 150.58263067 72.16650391 134.90576172 C71.08513924 132.21208187 70.05405368 129.50584589 69.04296875 126.78515625 C65.94728924 118.57895895 62.7700151 112.77402878 56 107 C54.82982331 105.7303452 53.68384428 104.43798279 52.5625 103.125 C49.91312699 100.04714069 47.22288972 97.013147 44.5 94 C41.23609152 90.38323655 38.01209051 86.73610392 34.8125 83.0625 C31.9673071 79.8248667 29.07146164 76.6331371 26.18359375 73.43359375 C24.29151315 71.32488854 22.42094242 69.20080199 20.5625 67.0625 C17.75177475 63.83440488 14.884201 60.66261557 12 57.5 C8.54671847 53.71337002 5.13900949 49.8952368 1.77734375 46.02734375 C-0.29359487 43.66510827 -2.39512848 41.33204147 -4.5 39 C-7.75463076 35.39351727 -10.96979743 31.7570326 -14.16015625 28.09375 C-17.73369663 24.02704588 -21.3702953 20.01654397 -25 16 C-22.60716098 13.60716098 -20.6010945 12.99632272 -17.4375 11.8125 C-10.58348728 9.04120244 -5.21027351 5.21027351 0 0 Z " fill="#94C961" transform="translate(105,270)"/>
<path d="M0 0 C0.99 0.33 1.98 0.66 3 1 C3.85865441 3.69732783 4.5500388 6.31235848 5.1875 9.0625 C11.39693389 33.41398388 27.01821088 54.54924074 48.61694336 67.52734375 C57.3447515 72.56984154 66.40921229 75.97320437 76 79 C68.92201409 88.63392526 57.70152274 94.76799397 46 97 C34.86147718 98.14491789 24.38430385 97.44047309 14 93 C13.05898438 92.59910156 12.11796875 92.19820313 11.1484375 91.78515625 C-1.00066192 85.88172062 -10.21661412 75.44626022 -15.2109375 62.9765625 C-20.4272002 47.69772211 -20.09708042 32.72979437 -13.55859375 17.96484375 C-10.01802924 11.22978494 -5.47666762 5.26931049 0 0 Z " fill="#FEFDD6" transform="translate(30,190)"/>
<path d="M0 0 C10.10665497 5.54570298 15.87221714 17.01912337 19.140625 27.7421875 C22.51357642 42.28362397 20.69433234 57.88288525 13.390625 70.859375 C4.84570232 83.7943497 -7.18013492 92.63225961 -22.23046875 96.5859375 C-37.9094241 98.93004084 -52.02834326 96.65115028 -65.46484375 88.07421875 C-68.74837833 85.38769046 -71.33776775 82.28897684 -74 79 C-72.79085938 78.5875 -71.58171875 78.175 -70.3359375 77.75 C-54.99730331 72.3928027 -42.23749181 65.95355825 -30 55 C-29.37867188 54.46117187 -28.75734375 53.92234375 -28.1171875 53.3671875 C-12.64286552 39.04444297 -5.77908184 19.66581329 0 0 Z " fill="#FEFDD6" transform="translate(480,190)"/>
<path d="M0 0 C-0.58630004 10.5962634 -2.66544598 20.95536497 -4.5625 31.375 C-4.92082453 33.36311058 -5.27864399 35.35131225 -5.63598633 37.33959961 C-6.38006506 41.47756506 -7.12631845 45.61512974 -7.87402344 49.75244141 C-9.32172632 57.7728527 -10.7458578 65.79741387 -12.16870117 73.82226562 C-12.84292585 77.62489443 -13.52023042 81.4269528 -14.20043945 85.22851562 C-16.21057063 96.4683515 -16.21057063 96.4683515 -18.12788391 107.72428894 C-18.46082061 109.72949765 -18.79927876 111.73378719 -19.13793945 113.73803711 C-19.52933817 116.06379169 -19.91040201 118.39132433 -20.27807617 120.72094727 C-22.44366703 133.4627743 -22.44366703 133.4627743 -27.9765625 137.41015625 C-31.72424482 138.50262735 -35.14680612 138.61758508 -39 138 C-44.4466261 134.96245852 -46.51567077 130.71268378 -49.21484375 125.20703125 C-51.09340682 117.53389551 -48.53731087 108.78939913 -47.14233398 101.13427734 C-46.95687012 100.0989386 -46.77140625 99.06359985 -46.58032227 97.99688721 C-45.97255446 94.60923779 -45.35936957 91.22259372 -44.74609375 87.8359375 C-44.32120218 85.47374411 -43.89665185 83.11148931 -43.47242737 80.74917603 C-42.35957238 74.55742798 -41.24210685 68.36652081 -40.12365723 62.17578125 C-38.98132823 55.8481606 -37.84339185 49.51975023 -36.70507812 43.19140625 C-34.47433419 30.79349715 -32.23886466 18.39644506 -30 6 C-29.42556152 5.88930176 -28.85112305 5.77860352 -28.25927734 5.66455078 C-25.63036398 5.15550671 -23.00269288 4.64030556 -20.375 4.125 C-19.01955078 3.86396484 -19.01955078 3.86396484 -17.63671875 3.59765625 C-13.86280675 2.85389257 -10.25579007 2.08526336 -6.6015625 0.8671875 C-4 0 -4 0 0 0 Z " fill="#94C961" transform="translate(298,246)"/>
<path d="M0 0 C3.0390625 0.0234375 3.0390625 0.0234375 6.625 0.375 C7.81351563 0.48585938 9.00203125 0.59671875 10.2265625 0.7109375 C11.14179687 0.80632812 12.05703125 0.90171875 13 1 C13.08378906 1.66902344 13.16757813 2.33804687 13.25390625 3.02734375 C14.22172743 6.88342709 16.03644085 10.10508767 17.9375 13.5625 C31.82805839 39.48443496 44.53087448 65.9048978 56.20849609 92.89257812 C57.46195063 95.78346276 58.74505969 98.65920858 60.04541016 101.52929688 C60.37612015 102.26557312 60.70683014 103.00184937 61.04756165 103.76043701 C61.68254675 105.17249859 62.32356384 106.58186733 62.97135925 107.98809814 C63.70713117 109.63337085 64.36165757 111.31453225 65 113 C64.67 113.66 64.34 114.32 64 115 C59.42314318 110.53013464 55.0214001 105.98158099 50.84765625 101.1328125 C48.7628345 98.72623179 46.63478467 96.36235055 44.5 94 C41.23609152 90.38323655 38.01209051 86.73610392 34.8125 83.0625 C31.9673071 79.8248667 29.07146164 76.6331371 26.18359375 73.43359375 C24.29151315 71.32488854 22.42094242 69.20080199 20.5625 67.0625 C17.75177475 63.83440488 14.884201 60.66261557 12 57.5 C8.54671847 53.71337002 5.13900949 49.8952368 1.77734375 46.02734375 C-0.29359487 43.66510827 -2.39512848 41.33204147 -4.5 39 C-7.75463076 35.39351727 -10.96979743 31.7570326 -14.16015625 28.09375 C-17.73369663 24.02704588 -21.3702953 20.01654397 -25 16 C-22.60716098 13.60716098 -20.6010945 12.99632272 -17.4375 11.8125 C-10.58348728 9.04120244 -5.21027351 5.21027351 0 0 Z " fill="#A7DB78" transform="translate(105,270)"/>
<path d="M0 0 C1.7578125 0.234375 1.7578125 0.234375 4.125 0.75 C5.011875 0.93820312 5.89875 1.12640625 6.8125 1.3203125 C7.864375 1.54460937 8.91625 1.76890625 10 2 C12.7069296 2.54873875 15.41598477 3.08666593 18.125 3.625 C19.44014034 3.88783988 20.75524739 4.15084648 22.0703125 4.4140625 C23.03710938 4.60742188 24.00390625 4.80078125 25 5 C23.77416596 10.96776143 22.26139092 16.72912418 20.3125 22.5 C20.02777832 23.34731689 19.74305664 24.19463379 19.44970703 25.06762695 C16.21447876 34.55918038 12.80335389 43.98960249 9.38119507 53.41503906 C8.7155353 55.24919207 8.05162757 57.08398199 7.38955688 58.91943359 C-2.333504 85.83344835 -2.333504 85.83344835 -10 91 C-14.47686671 92.4922889 -18.69786774 93.06082959 -23.04296875 91.05859375 C-27.61960495 88.04839386 -27.61960495 88.04839386 -28.75463867 84.92016602 C-29.10142659 80.79287214 -27.71401316 77.48962824 -26.2734375 73.6953125 C-25.82426971 72.46473869 -25.82426971 72.46473869 -25.36602783 71.20930481 C-24.71775398 69.43603451 -24.06406608 67.66473613 -23.40557861 65.89523315 C-21.65638767 61.19334368 -19.94633143 56.47726667 -18.234375 51.76171875 C-17.70627731 50.31101738 -17.70627731 50.31101738 -17.16751099 48.83100891 C-12.84814627 36.91230008 -8.89653527 24.873012 -4.95068359 12.82666016 C-4.69035339 12.03507004 -4.43002319 11.24347992 -4.1618042 10.42790222 C-3.6756727 8.94848673 -3.19232241 7.46815342 -2.71221924 5.98677063 C-1.11170704 1.11170704 -1.11170704 1.11170704 0 0 Z " fill="#94C961" transform="translate(351,267)"/>
</svg>
