<?xml version="1.0" encoding="UTF-8"?>
<svg version="1.1" xmlns="http://www.w3.org/2000/svg" width="512" height="512">
<path d="M0 0 C1.95130171 1.60178967 1.95130171 1.60178967 4.0390625 2.56640625 C6.73072797 1.48443053 6.73072797 1.48443053 9.796875 -0.15234375 C11.56043335 -1.05218994 11.56043335 -1.05218994 13.35961914 -1.97021484 C14.29210983 -2.45201202 14.29210983 -2.45201202 15.24343872 -2.94354248 C18.43649023 -4.58951018 21.64686691 -6.2010244 24.85546875 -7.81640625 C25.79829964 -8.29202499 25.79829964 -8.29202499 26.76017761 -8.7772522 C49.72582782 -20.35753437 49.72582782 -20.35753437 59.0390625 -18.43359375 C62.0390625 -16.43359375 62.0390625 -16.43359375 62.7890625 -14.24609375 C63.0390625 -11.43359375 63.0390625 -11.43359375 62.35546875 -8.59375 C61.45749109 -2.6230545 63.70467684 3.22099505 65.2265625 8.94140625 C67.68342326 18.61659484 69.86730353 28.25781303 71.4140625 38.12890625 C71.5689917 39.10714355 71.7239209 40.08538086 71.88354492 41.09326172 C73.75000715 53.50305785 74.2790966 65.84771199 74.2890625 78.37890625 C74.28973724 79.14786224 74.29041199 79.91681824 74.29110718 80.70907593 C74.27288402 93.85785319 73.47338416 106.61849854 71.0390625 119.56640625 C70.87277344 120.47068359 70.70648438 121.37496094 70.53515625 122.30664062 C66.8480318 141.71184003 60.47963685 160.28170485 51.06884766 177.66308594 C50.01337968 179.61387502 48.9855695 181.57787144 47.95703125 183.54296875 C42.94696538 192.93798299 36.98392629 201.27700031 30.47509766 209.68310547 C28.33692077 212.48723612 26.31378641 215.36739859 24.2890625 218.25390625 C11.00930327 237.04860681 -3.42530643 255.06046323 -17.96875 272.88671875 C-20.34531802 275.80227167 -22.69138896 278.74005852 -25.0234375 281.69140625 C-28.7220531 286.33418322 -32.58634907 290.82563203 -36.46459961 295.31811523 C-39.56599862 298.91675606 -42.60175557 302.5566897 -45.5859375 306.25390625 C-49.43904927 311.00049321 -53.49518293 315.52408264 -57.6328125 320.0234375 C-59.56788012 322.13707679 -61.46302047 324.27300473 -63.3359375 326.44140625 C-66.94102238 330.59065488 -70.67706439 334.61466899 -74.4152832 338.64355469 C-77.48973982 341.9601889 -80.52240646 345.30783804 -83.5234375 348.69140625 C-87.57261603 353.21825557 -91.84308637 357.49042542 -96.1875 361.73046875 C-98.30648246 363.89720293 -100.29404563 366.07555655 -102.26953125 368.3671875 C-106.12436607 372.81555783 -110.22638311 376.97938321 -114.3984375 381.12890625 C-115.11064453 381.84498047 -115.82285156 382.56105469 -116.55664062 383.29882812 C-120.64024695 387.37501646 -124.82955727 391.25644116 -129.19946289 395.02319336 C-131.39001402 396.94231653 -133.43351746 398.97660405 -135.4609375 401.06640625 C-138.79214557 404.4374069 -142.21205378 407.61154655 -145.80859375 410.6953125 C-148.34145912 412.89720454 -150.80426272 415.16836451 -153.2734375 417.44140625 C-157.76241807 421.53520834 -162.37337226 425.42110292 -167.1015625 429.234375 C-169.59904596 431.271257 -172.0533922 433.34967547 -174.49609375 435.45166016 C-212.58327104 468.14627334 -256.48995279 493.77099035 -307.8984375 493.81640625 C-308.93014572 493.81741837 -308.93014572 493.81741837 -309.98269653 493.81845093 C-347.22162487 493.76053489 -379.25684291 479.7347675 -406.58203125 454.71875 C-408.72892464 452.77632265 -410.9258264 450.92072341 -413.1484375 449.06640625 C-417.27340887 445.45495173 -421.32120708 441.4074034 -423.9609375 436.56640625 C-423.72345671 433.25451203 -422.14000501 431.13488693 -420.2109375 428.50390625 C-416.02395862 422.68340379 -411.98965717 416.76616053 -407.96337891 410.83349609 C-405.32522548 406.96221796 -402.66234126 403.12422423 -399.86328125 399.3671875 C-399.39253174 398.73135742 -398.92178223 398.09552734 -398.43676758 397.44042969 C-397.55822651 396.2622669 -396.66921895 395.09181264 -395.76831055 393.93066406 C-394.43850096 392.20278216 -394.43850096 392.20278216 -392.9609375 389.56640625 C-393.38512499 386.72463665 -394.4509388 384.33458658 -395.703125 381.765625 C-405.97686438 360.14635576 -408.86153741 336.57548519 -400.9609375 313.56640625 C-392.72952296 292.00342118 -377.22293406 273.32529695 -355.97119141 263.66162109 C-353.91875369 262.79720559 -351.85586209 261.98072032 -349.7734375 261.19140625 C-349.14501953 260.95284912 -348.51660156 260.71429199 -347.86914062 260.46850586 C-338.36154489 257.06784436 -329.26682823 256.26504336 -319.2109375 256.37890625 C-317.56544922 256.37987305 -317.56544922 256.37987305 -315.88671875 256.38085938 C-310.77792006 256.40872555 -305.99667026 256.63394927 -300.9609375 257.56640625 C-301.00734375 256.69242187 -301.05375 255.8184375 -301.1015625 254.91796875 C-301.80857008 230.82921058 -293.09692887 209.39954882 -276.9609375 191.56640625 C-260.33878763 174.70218623 -239.38880541 166.79056511 -215.9609375 165.56640625 C-215.93515625 164.44105469 -215.909375 163.31570312 -215.8828125 162.15625 C-215.11439947 138.70551798 -207.21021305 116.1533557 -189.9609375 99.56640625 C-175.49969673 86.97430545 -158.48883023 77.44802669 -138.9609375 76.56640625 C-139.12207031 76.01855469 -139.28320312 75.47070312 -139.44921875 74.90625 C-143.39596181 56.85969203 -135.94037168 35.91307558 -126.9609375 20.56640625 C-124.4650831 17.06754494 -121.77549336 13.81039949 -118.9609375 10.56640625 C-118.35121094 9.75945313 -117.74148438 8.9525 -117.11328125 8.12109375 C-87.984891 -26.45234949 -33.88292978 -26.1543461 0 0 Z " fill="#436B1C" transform="translate(430.9609375,18.43359375)"/>
<path d="M0 0 C18.02442546 14.47183451 30.06140576 33.98982312 33.27880859 56.9934082 C33.64990751 61.97682234 32.42232108 64.58389244 29.24243164 68.37475586 C28.7086792 68.97296143 28.17492676 69.57116699 27.625 70.1875 C26.51047611 71.50415747 25.39721357 72.82188359 24.28515625 74.140625 C23.72715332 74.79095703 23.16915039 75.44128906 22.59423828 76.11132812 C20.31294846 78.81394038 18.19367949 81.6146527 16.0625 84.4375 C11.17858525 90.82355279 6.11748719 97.05578604 1.03125 103.28125 C-1.37849799 106.23111391 -3.75970581 109.20180078 -6.125 112.1875 C-9.61820349 116.57055112 -13.22966924 120.84569867 -16.86376953 125.11181641 C-19.79376682 128.55595484 -22.66324093 132.040656 -25.5 135.5625 C-26.22445313 136.43648437 -26.94890625 137.31046875 -27.6953125 138.2109375 C-28.90546385 139.67542574 -30.11194352 141.14353704 -31.28027344 142.64160156 C-39.0048964 152.52167081 -39.0048964 152.52167081 -44.14453125 153.75390625 C-46.87276291 153.75040403 -49.33321326 153.55708504 -52 153 C-51.9071875 153.845625 -51.814375 154.69125 -51.71875 155.5625 C-51.13890235 164.67439166 -51.13890235 164.67439166 -53.53515625 168.36328125 C-55.60968901 170.35787055 -57.77751995 172.17297903 -60 174 C-61.09005494 175.20479757 -62.15300648 176.43467116 -63.1875 177.6875 C-66.97025731 182.09636887 -71.10003772 186.12716743 -75.2277832 190.20825195 C-78.80387104 193.75948787 -82.19250063 197.40312728 -85.46484375 201.23828125 C-89.22739047 205.55611476 -93.33891524 209.46784279 -97.6875 213.1875 C-101.3014291 216.29618076 -104.65259935 219.61137649 -108 223 C-111.92723815 226.97064994 -115.86035568 230.8564605 -120.1875 234.3984375 C-122.06468691 235.9618167 -122.06468691 235.9618167 -123.5625 237.9765625 C-126.12365825 240.95272325 -128.22316288 242.73225742 -132.20996094 243.33300781 C-140.24944333 243.88798944 -148.4381895 244.06191343 -156 241 C-155.97679687 242.05058594 -155.95359375 243.10117187 -155.9296875 244.18359375 C-155.91090655 245.6015553 -155.89270888 247.01952466 -155.875 248.4375 C-155.85824219 249.12521484 -155.84148437 249.81292969 -155.82421875 250.52148438 C-155.70393848 263.45161327 -155.70393848 263.45161327 -159.71728516 267.90600586 C-162.0230193 269.83338595 -164.39637233 271.55074781 -166.875 273.25 C-167.76904541 273.8891333 -168.66309082 274.5282666 -169.58422852 275.18676758 C-172.3679411 277.15792385 -175.17751298 279.08486464 -178 281 C-178.84578613 281.57862793 -179.69157227 282.15725586 -180.56298828 282.75341797 C-205.88263359 299.96157509 -232.73976278 314.74755551 -262 324 C-263.29623291 324.43892578 -263.29623291 324.43892578 -264.61865234 324.88671875 C-265.49086426 325.17160156 -266.36307617 325.45648438 -267.26171875 325.75 C-268.04893311 326.01296875 -268.83614746 326.2759375 -269.6472168 326.546875 C-277.13380783 327.98872547 -284.41847797 322.40971532 -290.328125 318.43359375 C-298.33727149 312.45554376 -306.09078838 305.07179023 -312 297 C-312 296.34 -312 295.68 -312 295 C-312.66 295 -313.32 295 -314 295 C-325.80504753 272.39936268 -331.46406778 249.08444838 -324.26171875 223.83203125 C-317.26847868 201.67660373 -302.18994141 183.14357201 -281.86083984 171.94775391 C-278.59639105 170.28512071 -275.23607216 168.9226574 -271.8125 167.625 C-271.18408203 167.38644287 -270.55566406 167.14788574 -269.90820312 166.90209961 C-260.40060739 163.50143811 -251.30589073 162.69863711 -241.25 162.8125 C-239.60451172 162.8134668 -239.60451172 162.8134668 -237.92578125 162.81445312 C-232.81698256 162.8423193 -228.03573276 163.06754302 -223 164 C-223.04640625 163.12601563 -223.0928125 162.25203125 -223.140625 161.3515625 C-223.84763258 137.26280433 -215.13599137 115.83314257 -199 98 C-182.37785013 81.13577998 -161.42786791 73.22415886 -138 72 C-137.97421875 70.87464844 -137.9484375 69.74929687 -137.921875 68.58984375 C-137.15346197 45.13911173 -129.24927555 22.58694945 -112 6 C-80.24910285 -21.6470397 -34.35539161 -26.11188001 0 0 Z " fill="#659C35" transform="translate(353,112)"/>
<path d="M0 0 C1.63291992 -0.01160156 1.63291992 -0.01160156 3.29882812 -0.0234375 C9.01553632 -0.00953669 13.86790166 0.32798312 19.3125 2.25 C21.04886719 2.76626953 21.04886719 2.76626953 22.8203125 3.29296875 C35.824048 7.40754165 47.04628041 13.11660464 57.3125 22.25 C57.99828125 22.85328125 58.6840625 23.4565625 59.390625 24.078125 C73.38980817 37.19546986 83.39821346 56.40769992 84.5078125 75.63427734 C85.26896199 99.8039452 85.26896199 99.8039452 82.3125 104.25 C80.65869141 105.78295898 80.65869141 105.78295898 78.6640625 107.24609375 C77.91656738 107.79797363 77.16907227 108.34985352 76.39892578 108.91845703 C75.58665527 109.50224121 74.77438477 110.08602539 73.9375 110.6875 C73.0904248 111.30222168 72.24334961 111.91694336 71.37060547 112.55029297 C43.04613168 132.91616852 12.69665614 150.69352197 -20.6875 161.25 C-21.55165527 161.54261719 -22.41581055 161.83523438 -23.30615234 162.13671875 C-24.17836426 162.42160156 -25.05057617 162.70648438 -25.94921875 163 C-27.13004028 163.39445312 -27.13004028 163.39445312 -28.3347168 163.796875 C-35.82130783 165.23872547 -43.10597797 159.65971532 -49.015625 155.68359375 C-57.02477149 149.70554376 -64.77828838 142.32179023 -70.6875 134.25 C-70.6875 133.59 -70.6875 132.93 -70.6875 132.25 C-71.3475 132.25 -72.0075 132.25 -72.6875 132.25 C-84.49254753 109.64936268 -90.15156778 86.33444838 -82.94921875 61.08203125 C-75.95597868 38.92660373 -60.87744141 20.39357201 -40.54833984 9.19775391 C-37.28389105 7.53512071 -33.92357216 6.1726574 -30.5 4.875 C-29.87158203 4.63644287 -29.24316406 4.39788574 -28.59570312 4.15209961 C-19.12788405 0.76566536 -10.01441701 -0.07191682 0 0 Z " fill="#87BF56" transform="translate(111.6875,274.75)"/>
<path d="M0 0 C18.02442546 14.47183451 30.06140576 33.98982312 33.27880859 56.9934082 C33.64990751 61.97682234 32.42232108 64.58389244 29.24243164 68.37475586 C28.7086792 68.97296143 28.17492676 69.57116699 27.625 70.1875 C26.51047611 71.50415747 25.39721357 72.82188359 24.28515625 74.140625 C23.72715332 74.79095703 23.16915039 75.44128906 22.59423828 76.11132812 C20.31294846 78.81394038 18.19367949 81.6146527 16.0625 84.4375 C11.17858525 90.82355279 6.11748719 97.05578604 1.03125 103.28125 C-1.37849799 106.23111391 -3.75970581 109.20180078 -6.125 112.1875 C-9.61820349 116.57055112 -13.22966924 120.84569867 -16.86376953 125.11181641 C-19.79376682 128.55595484 -22.66324093 132.040656 -25.5 135.5625 C-26.22445312 136.43648437 -26.94890625 137.31046875 -27.6953125 138.2109375 C-28.90546385 139.67542574 -30.11194352 141.14353704 -31.28027344 142.64160156 C-39.0048964 152.52167081 -39.0048964 152.52167081 -44.14453125 153.75390625 C-46.87276291 153.75040403 -49.33321326 153.55708504 -52 153 C-52.20753906 151.741875 -52.41507812 150.48375 -52.62890625 149.1875 C-56.89449922 124.90294753 -67.11591621 103.91611939 -87.6328125 89.16796875 C-101.79849279 79.76510685 -116.80472754 74.98682679 -133.640625 73.39453125 C-137 73 -137 73 -138 72 C-138.13168928 48.34860475 -130.6735419 25.80637421 -114.33984375 8.25 C-83.17728705 -21.71599776 -35.00908664 -26.60872214 0 0 Z " fill="#87BF56" transform="translate(353,112)"/>
<path d="M0 0 C13.29779914 11.55020318 23.30050247 26.61212286 28.59765625 43.46484375 C28.57983583 49.21490031 25.88313286 53.03536721 22.9609375 57.87109375 C22.36772705 58.88236328 21.7745166 59.89363281 21.16333008 60.93554688 C19.32492511 64.05196529 17.45839638 67.15004295 15.5859375 70.24609375 C15.04533691 71.15327148 14.50473633 72.06044922 13.94775391 72.99511719 C5.4772942 87.20174995 -3.84562655 100.76174047 -13.4140625 114.24609375 C-14.32964585 115.54411655 -15.24503867 116.84227378 -16.16015625 118.140625 C-20.95667321 124.92134378 -25.86888034 131.61734885 -30.7890625 138.30859375 C-31.38477051 139.1190918 -31.98047852 139.92958984 -32.59423828 140.76464844 C-33.70650429 142.27232359 -34.82294099 143.77693449 -35.94433594 145.27783203 C-37.18873486 146.94433438 -38.41655253 148.62319848 -39.640625 150.3046875 C-40.22585938 150.94535156 -40.81109375 151.58601562 -41.4140625 152.24609375 C-42.4040625 152.24609375 -43.3940625 152.24609375 -44.4140625 152.24609375 C-44.5591626 151.68325684 -44.7042627 151.12041992 -44.85375977 150.54052734 C-51.51927844 125.05731726 -62.06382576 104.59150818 -84.7890625 89.93359375 C-101.72369537 80.02843113 -119.20982663 77.84558012 -138.4140625 77.24609375 C-143.02663787 59.90695132 -136.27438132 39.85873633 -128.34765625 24.55078125 C-125.5020926 19.68745428 -122.09645847 15.49033983 -118.4140625 11.24609375 C-117.80433594 10.43914063 -117.19460938 9.6321875 -116.56640625 8.80078125 C-87.96187198 -25.15088012 -33.6428581 -25.9140934 0 0 Z " fill="#649B34" transform="translate(430.4140625,17.75390625)"/>
</svg>
