<?xml version="1.0" encoding="UTF-8"?>
<svg version="1.1" xmlns="http://www.w3.org/2000/svg" width="512" height="512">
<path d="M0 0 C1.49049866 -0.00101212 1.49049866 -0.00101212 3.0111084 -0.00204468 C34.91533692 0.03223958 66.05848205 3.96619539 96.375 14.25 C97.27976074 14.55357422 98.18452148 14.85714844 99.11669922 15.16992188 C121.1473443 22.67839477 143.39764756 32.62853536 162.375 46.25 C163.37660156 46.96285156 164.37820313 47.67570312 165.41015625 48.41015625 C182.99756348 61.27733031 199.13542776 75.96208564 212.10742188 93.53369141 C213.36442094 95.23567589 214.6422632 96.92044998 215.921875 98.60546875 C222.67832904 107.63758848 228.19457945 117.24284223 233.375 127.25 C233.77106445 128.01473633 234.16712891 128.77947266 234.57519531 129.56738281 C251.15330165 162.02542585 257.77355983 198.28588635 257.69067383 234.55004883 C257.68752229 237.41722012 257.71105161 240.28334631 257.73632812 243.15039062 C257.89574682 289.60926886 243.98487412 335.4586087 211.375 369.25 C210.60929687 370.07886719 209.84359375 370.90773438 209.0546875 371.76171875 C169.89552611 412.9783954 111.75361479 427.65265517 57.375 434.25 C56.44139648 434.36859375 55.50779297 434.4871875 54.54589844 434.609375 C22.65284494 438.51607058 -10.82699825 437.57549775 -42.625 433.25 C-44.19652832 433.04117188 -44.19652832 433.04117188 -45.79980469 432.828125 C-100.3874876 425.32036345 -154.71262983 404.64923329 -196.625 368.25 C-197.62144531 367.38761719 -198.61789063 366.52523438 -199.64453125 365.63671875 C-206.35797723 359.71849454 -212.22636906 353.40366291 -217.625 346.25 C-218.02428711 345.72567383 -218.42357422 345.20134766 -218.83496094 344.66113281 C-241.10667238 315.22631043 -254.51733124 277.92911794 -254.86328125 240.87890625 C-254.8730751 240.00739426 -254.88286896 239.13588226 -254.89295959 238.23796082 C-255.0655415 218.89214189 -254.89232889 200.21590617 -250.625 181.25 C-250.41069336 180.27804688 -250.19638672 179.30609375 -249.97558594 178.3046875 C-240.00898414 134.31817125 -218.64803162 94.38924042 -186.9375 62.3125 C-186.33188232 61.69745605 -185.72626465 61.08241211 -185.10229492 60.44873047 C-183.31283818 58.67212658 -181.48338023 56.95419471 -179.625 55.25 C-179.04419678 54.68853271 -178.46339355 54.12706543 -177.86499023 53.54858398 C-171.92814381 48.37666985 -165.69301471 47.94227651 -158.0625 47.1875 C-155.46793011 46.87921967 -152.87417377 46.56401976 -150.28125 46.2421875 C-148.99347656 46.08331055 -147.70570313 45.92443359 -146.37890625 45.76074219 C-125.86491945 42.96968727 -107.12257971 38.5855101 -93.14453125 22.3671875 C-91.55583198 20.15362707 -90.62451958 18.00128163 -89.5625 15.5 C-87.32369528 11.34323837 -85.16902654 10.29473191 -80.6875 8.9375 C-77.99912595 8.31906101 -75.33309825 7.76097293 -72.625 7.25 C-71.35849609 6.99742432 -71.35849609 6.99742432 -70.06640625 6.73974609 C-46.72363452 2.10551935 -23.7769242 0.01457707 0 0 Z " fill="#E49049" transform="translate(254.625,37.75)"/>
<path d="M0 0 C2.79128538 2.79128538 3.62052966 6.17028405 4.9375 9.8125 C23.92063249 60.07575792 64.07459308 97.24779848 111.95068359 120.02490234 C113.29522178 120.66465521 114.63682558 121.31061975 115.97509766 121.96337891 C137.04751279 132.19588204 159.74166345 139.14555162 182.70703125 143.53344727 C184.82642007 143.96468151 186.90188902 144.47413725 188.9921875 145.02734375 C193.692021 146.23506283 198.447871 146.89807659 203.25 147.5625 C204.11496094 147.68818359 204.97992188 147.81386719 205.87109375 147.94335938 C217.21769562 149.54395092 228.47925258 150.16921765 239.93359375 150.23828125 C241.90248314 150.25038887 241.90248314 150.25038887 243.91114807 150.26274109 C246.68368384 150.27765334 249.45619526 150.28753863 252.22875977 150.29516602 C255.00438097 150.30392065 257.77948421 150.32456278 260.55493164 150.35668945 C336.71948631 151.21783368 413.05907664 126.63174198 469 74 C470.06347656 73.01773438 470.06347656 73.01773438 471.1484375 72.015625 C489.77879997 54.22172779 501.53921217 31.60648502 511 8 C511.33 8 511.66 8 512 8 C512.64468267 46.78014242 512.64468267 46.78014242 509 65 C508.82839355 65.86689453 508.65678711 66.73378906 508.47998047 67.62695312 C501.87200031 99.91688653 488.94581562 128.22281425 466 152 C465.23429687 152.82886719 464.46859375 153.65773438 463.6796875 154.51171875 C424.52052611 195.7283954 366.37861479 210.40265517 312 217 C311.06639648 217.11859375 310.13279297 217.2371875 309.17089844 217.359375 C277.27784494 221.26607058 243.79800175 220.32549775 212 216 C210.42847168 215.79117188 210.42847168 215.79117188 208.82519531 215.578125 C154.2375124 208.07036345 99.91237017 187.39923329 58 151 C57.00355469 150.13761719 56.00710937 149.27523437 54.98046875 148.38671875 C48.26702277 142.46849454 42.39863094 136.15366291 37 129 C36.60071289 128.47567383 36.20142578 127.95134766 35.79003906 127.41113281 C11.41319811 95.19412132 -0.29013534 56.12587573 -0.0625 15.9375 C-0.05747503 14.38867332 -0.05291388 12.83984507 -0.04882812 11.29101562 C-0.03790138 7.52730424 -0.02069175 3.76366985 0 0 Z " fill="#F1B658" transform="translate(0,255)"/>
<path d="M0 0 C34.20102318 7.73161428 61.26396249 25.06205609 88.1159668 47.21606445 C95.22299561 53.06070198 102.59790033 58.5370142 110 64 C113.13192097 62.60887976 115.77056515 60.76677408 118.51391602 58.72607422 C149.01892253 36.08433264 185.30597612 26.08639917 223.1875 30.49609375 C232.71406027 31.92139443 241.90490161 34.90301495 251 38 C250 40 250 40 246.96264648 41.15405273 C245.60098268 41.58749811 244.2369148 42.01343177 242.87109375 42.43359375 C241.35710581 42.91609366 239.84336241 43.39936139 238.32983398 43.88330078 C237.53133026 44.13629944 236.73282654 44.3892981 235.91012573 44.64996338 C220.01072451 49.71395691 204.93003821 55.49573558 190 63 C189.15211914 63.41459473 188.30423828 63.82918945 187.43066406 64.25634766 C173.56728916 71.04278438 160.96899414 79.24919782 149 89 C149.59312988 89.31114746 150.18625977 89.62229492 150.79736328 89.94287109 C191.63300055 111.47898713 222.58159139 141.32361083 236.75 186.3125 C242.9329939 206.61365 245.95181884 231.55834222 239 252 C235.50844089 248.82299577 233.15589994 245.26355702 230.75 241.25 C220.74960875 224.94793968 210.13009405 209.0470451 198.453125 193.89746094 C196.37820895 191.18807794 194.34336874 188.44939387 192.30541992 185.7121582 C183.9281085 174.47096602 175.14187464 163.626101 166 153 C165.30519531 152.19046875 164.61039063 151.3809375 163.89453125 150.546875 C147.60097522 132.01571263 129.48795782 112.94228423 105 106 C81.35887234 105.61869149 55.46609585 128.69955884 39.3359375 143.8125 C37.28876453 145.72958506 35.19991337 147.56037967 33.0625 149.375 C25.45286209 155.99820336 18.30298539 163.27331328 11.765625 170.953125 C9.6056658 173.45714849 7.36512007 175.87997698 5.125 178.3125 C1.03881791 182.79312501 -2.8396613 187.39605136 -6.6484375 192.11328125 C-9.24447841 195.30011552 -11.89747646 198.43341763 -14.5625 201.5625 C-18.47371823 206.16298201 -22.29595986 210.82107723 -26.05078125 215.55078125 C-52.86523216 249.24348811 -52.86523216 249.24348811 -60 254 C-68.69921568 225.10039119 -55.85703471 187.78714763 -42.48046875 162.47265625 C-21.27167627 123.60756444 15.72578296 96.40805508 57.77905273 83.9831543 C61.69767332 82.86308166 65.62456132 81.77694864 69.5625 80.72680664 C72.11540357 79.9655893 74.54222577 79.02452977 77 78 C61.98728724 69.44730303 46.28385793 63.33891901 29.9375 57.8125 C29.03008057 57.50376953 28.12266113 57.19503906 27.18774414 56.87695312 C12.32856511 51.96947775 -2.62858662 48.41695142 -18.10717773 46.16918945 C-20.56734344 45.81179638 -23.0248821 45.43943959 -25.48242188 45.06445312 C-40.97699936 42.72829659 -56.49513242 41.00330997 -72.125 39.875 C-73.28386719 39.78863281 -74.44273438 39.70226562 -75.63671875 39.61328125 C-78.42427815 39.40594212 -81.21201371 39.20150215 -84 39 C-84 38.67 -84 38.34 -84 38 C-82.66545776 37.81207886 -82.66545776 37.81207886 -81.30395508 37.62036133 C-41.11381339 33.59334816 -41.11381339 33.59334816 -8 13 C-4.99479276 8.85413015 -2.2909851 4.5819702 0 0 Z " fill="#F4DCBC" transform="translate(168,49)"/>
<path d="M0 0 C-0.59723877 0.29543701 -1.19447754 0.59087402 -1.80981445 0.89526367 C-20.23136296 10.0769763 -37.18376001 20.28414473 -52.62890625 33.953125 C-55 36 -55 36 -57 37 C-56.09459473 37.47457642 -56.09459473 37.47457642 -55.17089844 37.95874023 C-32.41736172 49.94923819 -32.41736172 49.94923819 -23 58 C-22.48179687 58.43747559 -21.96359375 58.87495117 -21.4296875 59.32568359 C2.93608937 80.09000233 19.01988664 109.95653591 22 142 C22.13657518 144.83031965 22.16367038 147.65495467 22.16796875 150.48828125 C22.17296135 151.66404976 22.17296135 151.66404976 22.17805481 152.86357117 C22.18308432 154.51149922 22.18546438 156.15943732 22.18530273 157.80737305 C22.18748516 160.29558531 22.20567231 162.78335047 22.22460938 165.27148438 C22.25343835 173.71774013 22.03412249 181.74249993 20 190 C19.67 190 19.34 190 19 190 C18.98018066 189.25016846 18.96036133 188.50033691 18.93994141 187.7277832 C18.84335471 184.25573174 18.73422944 180.78417586 18.625 177.3125 C18.5940625 176.13365234 18.563125 174.95480469 18.53125 173.74023438 C17.20555628 133.41705043 -0.35911535 96.01040489 -29.6875 68.375 C-43.49647079 56.55434621 -58.76098554 48.0344693 -75 40 C-61.57735219 26.16694749 -44.27894405 17.4351277 -27.125 9.125 C-25.99634521 8.5774707 -24.86769043 8.02994141 -23.70483398 7.46582031 C-4.72924709 -1.5764157 -4.72924709 -1.5764157 0 0 Z " fill="#C56B1F" transform="translate(391,99)"/>
<path d="M0 0 C6.31444659 0.64110515 12.05630883 2.42914352 18.0625 4.4375 C19.10728516 4.78659424 20.15207031 5.13568848 21.22851562 5.49536133 C28.6516533 8.04441139 35.85513595 10.94161513 43 14.1875 C43.88824463 14.590896 44.77648926 14.99429199 45.69165039 15.40991211 C51.05041314 17.91414545 56.06614884 20.73804219 61 24 C58.61165787 26.38834213 57.11003327 26.67205297 53.86328125 27.515625 C52.81841553 27.79398193 51.7735498 28.07233887 50.69702148 28.35913086 C49.58012939 28.65311768 48.4632373 28.94710449 47.3125 29.25 C5.97505037 40.5126774 -32.21182877 64.48237576 -54.70117188 101.72705078 C-69.56195001 127.73341251 -76.25286851 154.39604359 -79 184 C-79.33 184 -79.66 184 -80 184 C-80.6624011 139.48664598 -71.15621975 98.87523945 -39.73828125 65.80859375 C-18.19834746 43.71556608 13.27897401 27.23223211 44 23 C40.71981633 19.47583572 36.91486937 17.58964255 32.6875 15.375 C31.86531982 14.94203613 31.04313965 14.50907227 30.19604492 14.06298828 C20.42058103 9.02850094 10.24084586 4.97875126 0 1 C0 0.67 0 0.34 0 0 Z " fill="#C56B1F" transform="translate(185,103)"/>
<path d="M0 0 C10.86346238 7.27312659 20.065387 16.19589239 29.3125 25.375 C30.1876123 26.2407666 31.06272461 27.1065332 31.96435547 27.99853516 C37.91981843 33.98327436 43.29564037 40.28209651 48.5625 46.875 C50.100881 48.69028958 51.64182183 50.50341975 53.1875 52.3125 C65.07154221 66.55492577 75.76772363 81.80236116 86.5625 96.875 C86.2325 97.535 85.9025 98.195 85.5625 98.875 C85.18552979 98.38733154 84.80855957 97.89966309 84.42016602 97.3972168 C73.6716903 83.4918463 73.6716903 83.4918463 62.5625 69.875 C62.1279248 69.35550781 61.69334961 68.83601563 61.24560547 68.30078125 C53.32862758 58.86310562 45.05967927 49.79223369 36.5625 40.875 C35.81097656 40.0809375 35.05945313 39.286875 34.28515625 38.46875 C29.92588048 33.97575411 25.22738683 30.00634982 20.33984375 26.09765625 C18.58337241 24.69198509 16.84378001 23.26472251 15.12890625 21.80859375 C4.00722925 12.4766119 -11.52194422 2.20889435 -26.5703125 2.40625 C-33.25528059 3.49916031 -39.40491948 6.90944573 -45.4375 9.875 C-46.38616943 10.33205322 -46.38616943 10.33205322 -47.35400391 10.79833984 C-65.43120465 19.58686036 -81.21583073 32.16569554 -96 45.65625 C-97.54940456 47.06660543 -99.11072036 48.46406782 -100.6875 49.84375 C-106.37395596 54.83860996 -111.7645846 60.09612795 -117.125 65.4375 C-117.83793213 66.14583984 -118.55086426 66.85417969 -119.28540039 67.58398438 C-123.30219583 71.61244705 -127.14389934 75.73824826 -130.85864258 80.04663086 C-133.0051198 82.53232251 -135.21970386 84.95293316 -137.4375 87.375 C-141.49657764 91.82508971 -145.49623681 96.32036141 -149.4375 100.875 C-149.4375 96.69992213 -147.13833095 94.84974202 -144.5 91.875 C-143.48221712 90.70256528 -142.46530234 89.52937645 -141.44921875 88.35546875 C-140.9392334 87.76942871 -140.42924805 87.18338867 -139.90380859 86.57958984 C-137.82057702 84.15782447 -135.81704202 81.67455125 -133.8125 79.1875 C-130.18564719 74.73165226 -126.4108733 70.44268445 -122.54296875 66.1953125 C-120.70832315 64.17345816 -118.90981214 62.12821478 -117.125 60.0625 C-106.3199667 47.68537178 -95.11211019 35.3628684 -82.4375 24.875 C-81.9223584 24.44606445 -81.4072168 24.01712891 -80.87646484 23.57519531 C-30.30625328 -18.35138481 -30.30625328 -18.35138481 0 0 Z " fill="#C56C20" transform="translate(293.4375,163.125)"/>
<path d="M0 0 C6.33387758 0.55457914 11.78980188 2.07714803 17.75 4.25 C18.63469971 4.56791504 19.51939941 4.88583008 20.4309082 5.21337891 C41.34084116 12.79019065 59.07095367 22.89644388 77 36 C77.90331055 36.65919434 78.80662109 37.31838867 79.73730469 37.99755859 C85.17628927 41.97412921 90.59705858 45.97460525 96 50 C96.57572754 49.61255615 97.15145508 49.2251123 97.74462891 48.82592773 C121.62338518 32.82018588 147.05857595 23.79492646 176 23.8125 C177.09691162 23.81185547 178.19382324 23.81121094 179.32397461 23.81054688 C188.02154874 23.86668907 196.42163226 24.5681413 205 26 C205 26.33 205 26.66 205 27 C204.13536133 27.0093457 203.27072266 27.01869141 202.37988281 27.02832031 C162.69061447 27.56594387 128.15640706 35.98000712 97 62 C91.93706802 60.44217478 88.47928329 57.34808333 84.5 54 C83.06356202 52.81251624 81.62604905 51.62633172 80.1875 50.44140625 C79.47722656 49.85504395 78.76695312 49.26868164 78.03515625 48.66455078 C73.67202872 45.09595631 69.18683229 41.68876623 64.69238281 38.28759766 C62.88796438 36.91476113 61.09634583 35.5261586 59.3046875 34.13671875 C43.87598074 22.25370347 28.08587061 12.30557763 10 5 C8.89527344 4.54625 7.79054687 4.0925 6.65234375 3.625 C4.44188185 2.72962303 2.22788222 1.85084949 0 1 C0 0.67 0 0.34 0 0 Z " fill="#C56C20" transform="translate(183,52)"/>
<path d="M0 0 C0.66 0 1.32 0 2 0 C0.71077573 2.77315544 -0.69518825 5.02441524 -2.6796875 7.34765625 C-3.19660156 7.95287109 -3.71351563 8.55808594 -4.24609375 9.18164062 C-5.05240234 10.11266602 -5.05240234 10.11266602 -5.875 11.0625 C-6.40480469 11.68705078 -6.93460938 12.31160156 -7.48046875 12.95507812 C-10.11328104 16.01580407 -12.60041021 18.75824152 -16 21 C-13.76918187 16.14388981 -10.38191083 12.34496432 -7 8.25 C-6.03707031 7.06083984 -6.03707031 7.06083984 -5.0546875 5.84765625 C-4.43851563 5.09871094 -3.82234375 4.34976563 -3.1875 3.578125 C-2.62417969 2.89137695 -2.06085938 2.20462891 -1.48046875 1.49707031 C-0.99191406 1.00303711 -0.50335938 0.50900391 0 0 Z " fill="#CA742B" transform="translate(159,243)"/>
<path d="M0 0 C0.99 0 1.98 0 3 0 C4.39453125 1.49707031 4.39453125 1.49707031 5.8125 3.578125 C6.33070313 4.32707031 6.84890625 5.07601562 7.3828125 5.84765625 C8.18332031 7.03681641 8.18332031 7.03681641 9 8.25 C10.06218303 9.79709267 11.12467341 11.34397437 12.1875 12.890625 C12.88939453 13.92751465 12.88939453 13.92751465 13.60546875 14.98535156 C15.02100682 17.03034809 16.49563495 19.01969645 18 21 C17.67 21.66 17.34 22.32 17 23 C14.72454998 20.10776791 12.45547694 17.21059468 10.1875 14.3125 C9.54490234 13.49587891 8.90230469 12.67925781 8.24023438 11.83789062 C7.61826172 11.04189453 6.99628906 10.24589844 6.35546875 9.42578125 C5.78465576 8.69786377 5.21384277 7.96994629 4.62573242 7.2199707 C2.92167468 4.89304519 1.44696915 2.49338658 0 0 Z " fill="#CD7A33" transform="translate(362,239)"/>
<path d="M0 0 C0 0.66 0 1.32 0 2 C1.32 2.33 2.64 2.66 4 3 C-1.94 2.67 -7.88 2.34 -14 2 C-14 1.67 -14 1.34 -14 1 C-9.23692563 0.04738513 -4.8333472 -0.08333357 0 0 Z " fill="#EFC79B" transform="translate(98,86)"/>
<path d="M0 0 C5.23880078 0.55145271 9.97350697 1.42922093 15 3 C14.01 4.485 14.01 4.485 13 6 C11.01796291 5.38416344 9.0394228 4.75706166 7.0625 4.125 C5.96035156 3.77695312 4.85820312 3.42890625 3.72265625 3.0703125 C1 2 1 2 0 0 Z " fill="#CD7A32" transform="translate(183,52)"/>
<path d="M0 0 C-6.435 2.97 -6.435 2.97 -13 6 C-13.33 5.01 -13.66 4.02 -14 3 C-12.23358317 2.3012307 -10.46167336 1.61633417 -8.6875 0.9375 C-7.20830078 0.36322266 -7.20830078 0.36322266 -5.69921875 -0.22265625 C-3 -1 -3 -1 0 0 Z " fill="#CC7830" transform="translate(391,99)"/>
<path d="M0 0 C0.99 0 1.98 0 3 0 C4.421875 1.42578125 4.421875 1.42578125 5.75 3.3125 C6.19859375 3.92738281 6.6471875 4.54226562 7.109375 5.17578125 C8 7 8 7 7 10 C5.83043409 8.52312468 4.66441854 7.04343707 3.5 5.5625 C2.8503125 4.73878906 2.200625 3.91507813 1.53125 3.06640625 C0 1 0 1 0 0 Z " fill="#CA742A" transform="translate(362,239)"/>
</svg>
