<?xml version="1.0" encoding="UTF-8"?>
<svg version="1.1" xmlns="http://www.w3.org/2000/svg" width="512" height="512">
<path d="M0 0 C0.82497101 -0.00445784 1.64994201 -0.00891569 2.49991214 -0.01350862 C3.85908415 -0.01323207 3.85908415 -0.01323207 5.24571419 -0.01294994 C6.20846799 -0.01662663 7.17122179 -0.02030332 8.16314995 -0.02409142 C11.4035775 -0.03514385 14.64397299 -0.03897471 17.88441658 -0.04278088 C20.20184112 -0.04904422 22.51926466 -0.0556909 24.83668709 -0.0626936 C31.14242569 -0.08011233 37.4481567 -0.0906572 43.7539134 -0.09889913 C47.69061573 -0.10404619 51.62731569 -0.11012198 55.56401634 -0.11641026 C66.46207288 -0.13327893 77.3601265 -0.14791502 88.25819397 -0.155159 C91.08574996 -0.1570689 93.91330594 -0.15898923 96.74086189 -0.16094494 C97.44363892 -0.16142868 98.14641595 -0.16191242 98.87048925 -0.16241082 C110.26099055 -0.17071534 121.65138697 -0.19606056 133.04184245 -0.22852562 C144.73420389 -0.2615798 156.42650658 -0.27927325 168.11891472 -0.28280324 C174.68465692 -0.28515832 181.25023327 -0.29417872 187.81593132 -0.31926441 C193.98994367 -0.34247273 200.1636801 -0.34680749 206.33772469 -0.33650303 C208.60611702 -0.33600583 210.87452262 -0.34237996 213.14287376 -0.35605907 C216.23510538 -0.3736662 219.32633469 -0.36672669 222.41856575 -0.35352612 C223.7710456 -0.36997998 223.7710456 -0.36997998 225.15084827 -0.38676625 C229.28978062 -0.34398583 231.4121802 -0.20930757 234.99290848 2.03970528 C238.78500144 6.07924219 238.10456236 10.07667094 238.09956551 15.34525013 C238.10402219 16.79528287 238.10402219 16.79528287 238.10856891 18.27460921 C238.11728431 21.53429965 238.11876654 24.79395348 238.12025642 28.05365467 C238.12488255 30.38240609 238.12990693 32.71115674 238.13530159 35.0399065 C238.14844653 41.38076323 238.15487451 47.72160936 238.15931225 54.06247759 C238.16223933 58.02010555 238.16634341 61.9777306 238.17081642 65.93535709 C238.18292786 76.88827794 238.19330929 87.84119624 238.19669151 98.79412365 C238.19691108 99.49537103 238.19713065 100.1966184 238.19735686 100.9191157 C238.19757514 101.62206034 238.19779342 102.32500497 238.19801831 103.04925096 C238.19846178 104.47373319 238.19890835 105.89821541 238.19935799 107.32269764 C238.19957942 108.0292931 238.19980085 108.73588855 238.20002899 109.46389599 C238.20397807 120.91654758 238.22143505 132.36913559 238.24471751 143.82176261 C238.2684166 155.57397675 238.2808927 167.32615896 238.28205943 179.07839739 C238.28310979 185.67930141 238.28906653 192.28011577 238.30687904 198.88099766 C238.32330182 205.08779134 238.32554347 211.29442741 238.31674004 217.50123501 C238.31596657 219.78294196 238.3203528 222.06465719 238.33019829 224.34634304 C238.3428251 227.45416054 238.33709149 230.56141196 238.32661629 233.66922474 C238.33870089 235.03293345 238.33870089 235.03293345 238.35102963 236.42419183 C238.30252855 242.54986532 238.30252855 242.54986532 236.43615532 245.72578335 C235.94873486 246.1905678 235.46131439 246.65535225 234.95912361 247.13422108 C235.51719326 247.13660943 236.07526291 247.13899778 236.65024376 247.14145851 C250.22941345 247.20059493 263.80840328 247.27632525 277.3873806 247.36993599 C283.9540885 247.41470303 290.52073344 247.45394529 297.08754158 247.48065662 C303.42241653 247.50662622 309.75705003 247.54698383 316.09177589 247.59740734 C318.51110269 247.61411899 320.93047129 247.62560641 323.34984779 247.63183498 C326.73321153 247.64142917 330.1159515 247.66943311 333.49916267 247.70184803 C334.50401207 247.70041294 335.50886147 247.69897785 336.54416084 247.69749928 C337.46680229 247.71003742 338.38944374 247.72257557 339.34004402 247.73549366 C340.14016033 247.74010262 340.94027664 247.74471159 341.7646389 247.74946022 C344.5420502 248.23642609 345.91394621 249.21728812 347.95912361 251.13422108 C348.86130149 253.84075471 349.0863777 255.39751536 349.09334469 258.17509747 C349.09780253 259.00006847 349.10226038 259.82503948 349.10685331 260.67500961 C349.10657676 262.03418162 349.10657676 262.03418162 349.10629463 263.42081165 C349.10997132 264.38356546 349.11364801 265.34631926 349.11743611 266.33824742 C349.12848854 269.57867496 349.1323194 272.81907046 349.13612556 276.05951405 C349.14238891 278.37693859 349.14903559 280.69436213 349.15603828 283.01178455 C349.17345702 289.31752315 349.18400189 295.62325417 349.19224381 301.92901087 C349.19739088 305.8657132 349.20346666 309.80241315 349.20975494 313.73911381 C349.22662362 324.63717035 349.24125971 335.53522396 349.24850368 346.43329144 C349.25041358 349.26084742 349.25233392 352.0884034 349.25428963 354.91595936 C349.25477337 355.61873639 349.25525711 356.32151342 349.25575551 357.04558672 C349.26406002 368.43608801 349.28940524 379.82648444 349.3218703 391.21693991 C349.35492449 402.90930136 349.37261794 414.60160405 349.37614793 426.29401219 C349.37850301 432.85975439 349.38752341 439.42533074 349.4126091 445.99102879 C349.43581742 452.16504113 349.44015218 458.33877756 349.42984772 464.51282215 C349.42935052 466.78121449 349.43572465 469.04962008 349.44940376 471.31797123 C349.46701089 474.41020285 349.46007138 477.50143216 349.4468708 480.59366322 C349.46332467 481.94614306 349.46332467 481.94614306 349.48011094 483.32594573 C349.43733051 487.46487809 349.30265226 489.58727767 347.05363941 493.16800594 C343.02332592 496.95144046 339.04980533 496.27967394 333.79278755 496.27466297 C332.83088817 496.27763409 331.8689888 496.28060522 330.87794095 496.28366637 C327.63440399 496.29238172 324.3909038 496.29386401 321.14735603 496.29535389 C318.83007922 496.29998005 316.51280318 496.30500444 314.19552803 496.31039906 C307.88559491 496.32354438 301.57567244 496.32997215 295.26572776 496.33440971 C291.32685308 496.33733697 287.38798133 496.3414411 283.44910812 496.34591389 C272.54680138 496.35802583 261.64449787 496.36840688 250.74218464 496.37178898 C249.69514233 496.37211833 249.69514233 496.37211833 248.62694766 496.37245433 C247.57737632 496.37278175 247.57737632 496.37278175 246.50660151 496.37311578 C245.08867594 496.37355925 243.67075036 496.37400581 242.25282478 496.37445545 C241.54948225 496.37467688 240.84613972 496.37489831 240.12148378 496.37512645 C228.72447307 496.37907457 217.3275263 496.39652831 205.93054029 496.41981497 C194.23369081 496.44352169 182.53687659 496.45573247 170.84000283 496.4571569 C164.27092482 496.45820683 157.70193693 496.46415466 151.13288116 496.48197651 C144.95481131 496.49841095 138.77689979 496.5006352 132.59881592 496.4918375 C130.32881688 496.49106465 128.05880949 496.49544236 125.78883171 496.50529575 C122.69450084 496.5179417 119.60073696 496.51217834 116.5064106 496.50171375 C115.60407525 496.50977016 114.7017399 496.51782656 113.77206105 496.5261271 C109.06007719 496.48875214 105.73157526 496.30955046 101.95912361 493.13422108 C101.95912361 492.47422108 101.95912361 491.81422108 101.95912361 491.13422108 C101.29912361 491.13422108 100.63912361 491.13422108 99.95912361 491.13422108 C99.69099861 491.77359608 99.42287361 492.41297108 99.14662361 493.07172108 C97.95912361 495.13422108 97.95912361 495.13422108 94.95912361 496.13422108 C93.61457353 496.22633392 92.26594462 496.26506173 90.91824722 496.26844215 C90.09327622 496.2729 89.26830521 496.27735784 88.41833508 496.28195077 C87.05916307 496.28167423 87.05916307 496.28167423 85.67253304 496.2813921 C84.70977923 496.28506879 83.74702543 496.28874547 82.75509727 496.29253358 C79.51466973 496.303586 76.27427423 496.30741687 73.03383064 496.31122303 C70.7164061 496.31748637 68.39898256 496.32413306 66.08156013 496.33113575 C59.77582154 496.34855448 53.47009052 496.35909936 47.16433382 496.36734128 C43.22763149 496.37248834 39.29093154 496.37856413 35.35423088 496.38485241 C24.45617434 496.40172108 13.55812072 496.41635717 2.66005325 496.42360115 C-0.16750273 496.42551105 -2.99505871 496.42743139 -5.82261467 496.42938709 C-6.5253917 496.42987083 -7.22816873 496.43035457 -7.95224203 496.43085297 C-19.34274333 496.43915749 -30.73313975 496.46450271 -42.12359522 496.49696777 C-53.81595667 496.53002195 -65.50825936 496.54771541 -77.2006675 496.55124539 C-83.7664097 496.55360048 -90.33198605 496.56262087 -96.8976841 496.58770657 C-103.07169644 496.61091489 -109.24543287 496.61524964 -115.41947746 496.60494518 C-117.6878698 496.60444799 -119.95627539 496.61082211 -122.22462654 496.62450123 C-125.31685816 496.64210835 -128.40808747 496.63516884 -131.50031853 496.62196827 C-132.85279837 496.63842214 -132.85279837 496.63842214 -134.23260105 496.65520841 C-138.3715334 496.61242798 -140.49393298 496.47774973 -144.07466125 494.22873688 C-147.86357733 490.19258414 -147.19190578 486.19506225 -147.19477654 480.92992115 C-147.19915879 479.96393822 -147.20354104 478.99795529 -147.20805609 478.00270015 C-147.22147824 474.7453504 -147.22763058 471.48802772 -147.23374748 468.23065662 C-147.24164567 465.90352727 -147.24991444 463.57639916 -147.25852776 461.24927235 C-147.28477763 453.58984012 -147.300057 445.93040235 -147.31431389 438.27093983 C-147.31967209 435.63796771 -147.32504959 433.00499562 -147.33044624 430.37202358 C-147.3520781 419.42339756 -147.37096805 408.47477286 -147.38206863 397.52613068 C-147.3849984 394.68431246 -147.38796006 391.84249428 -147.39097404 389.00067616 C-147.3917201 388.29434301 -147.39246615 387.58800986 -147.3932348 386.86027268 C-147.40589202 375.41471663 -147.43911961 363.96931581 -147.48077588 352.52383234 C-147.52317809 340.77726492 -147.54676162 329.03077702 -147.5519892 317.28413326 C-147.55564984 310.68703498 -147.56774728 304.09019983 -147.60009193 297.49317455 C-147.63007533 291.28876572 -147.63651898 285.08478057 -147.62470818 278.88031483 C-147.62448664 276.60062872 -147.6328577 274.3209235 -147.65036201 272.04130459 C-147.67293042 268.93351161 -147.66481531 265.82727099 -147.6488781 262.71947193 C-147.66276019 261.81324563 -147.67664227 260.90701933 -147.69094503 259.97333163 C-147.63617255 255.65095183 -147.43217585 253.68329409 -144.86077595 250.07509518 C-141.67272332 247.88082951 -140.14537708 247.5056755 -136.31448174 247.49498463 C-135.17169762 247.47969715 -134.0289135 247.46440968 -132.85149956 247.44865894 C-131.60712624 247.45728458 -130.36275291 247.46591022 -129.08067131 247.47479725 C-127.76320915 247.46431355 -126.44574699 247.45382984 -125.08836174 247.44302845 C-121.48322799 247.41490158 -117.87868961 247.41734995 -114.27347922 247.42532229 C-110.50309153 247.42844881 -106.73289298 247.40340886 -102.96258354 247.38136768 C-95.82639864 247.34392364 -88.6904043 247.3317795 -81.55413085 247.32874328 C-73.42832199 247.32405282 -65.30270406 247.29112998 -57.17697942 247.25584543 C-40.46495648 247.18390836 -23.75305115 247.14739378 -7.04087639 247.13422108 C-7.52808997 246.72358809 -8.01530355 246.3129551 -8.51728117 245.88987869 C-10.37330361 243.75116108 -10.41651805 242.83593986 -10.41839981 240.04369926 C-10.42622305 239.20766137 -10.43404629 238.37162348 -10.4421066 237.5102511 C-10.43206836 236.13254665 -10.43206836 236.13254665 -10.42182732 234.72700977 C-10.42650729 233.75129975 -10.43118726 232.77558972 -10.43600905 231.77031273 C-10.44801854 228.48596152 -10.43847845 225.20202299 -10.42905998 221.91766834 C-10.43312306 219.56906356 -10.43846345 217.22046069 -10.44499016 214.87186146 C-10.45870165 208.48143106 -10.45334906 202.09114547 -10.4438529 195.70071244 C-10.43584101 189.69906583 -10.44223243 183.69742185 -10.44663449 177.69577443 C-10.45519418 165.08322534 -10.44534553 152.4707416 -10.42923339 139.85820322 C-10.41583276 129.03310285 -10.41815503 118.208099 -10.43198967 107.38300037 C-10.44804062 94.81779752 -10.45436688 82.25265201 -10.44515288 69.68744034 C-10.44040664 63.03403166 -10.43987051 56.38067683 -10.44976234 49.72727108 C-10.45841196 43.47201877 -10.45244666 37.21694917 -10.43507957 30.96171665 C-10.43110385 28.66227809 -10.43226723 26.36282421 -10.43886757 24.06339169 C-10.44703023 20.9315237 -10.43682509 17.8002461 -10.42182732 14.66841602 C-10.42851948 13.75217711 -10.43521165 12.83593819 -10.4421066 11.89193445 C-10.38515635 5.78691006 -10.38515635 5.78691006 -8.70456696 2.60083389 C-6.0014152 0.21789256 -3.4517114 0.00865791 0 0 Z " fill="#CF862D" transform="translate(155.0408763885498,7.865778923034668)"/>
<path d="M0 0 C30.8886642 -0.06840789 61.77730841 -0.12151356 92.66603036 -0.15319599 C96.31104511 -0.1569482 99.9560597 -0.16083116 103.60107422 -0.16479492 C104.68957944 -0.16597532 104.68957944 -0.16597532 105.80007467 -0.16717956 C117.55677409 -0.18024071 129.3134296 -0.20389844 141.07010296 -0.23145839 C153.12961187 -0.25949289 165.18909775 -0.27617211 177.24863791 -0.28226548 C184.02395698 -0.28601585 190.79918438 -0.29505133 197.57447052 -0.31719017 C203.94702378 -0.33749921 210.31943596 -0.34384509 216.69201851 -0.33932304 C219.03500446 -0.34015075 221.37799495 -0.34614943 223.72095299 -0.35761642 C226.91206466 -0.37247297 230.10263891 -0.36897843 233.29376221 -0.36076355 C234.22761128 -0.36950207 235.16146035 -0.3782406 236.12360787 -0.38724393 C242.34492757 -0.34375192 242.34492757 -0.34375192 245.54413986 1.33504772 C247.91265258 4.04372869 248.12557244 6.59285893 248.13422108 10.04087639 C248.13867892 10.8658474 248.14313676 11.6908184 248.14772969 12.54078853 C248.14754533 13.44690321 248.14736097 14.35301788 248.14717102 15.28659058 C248.15084771 16.24934438 248.1545244 17.21209818 248.1583125 18.20402634 C248.16936493 21.44445389 248.17319579 24.68484938 248.17700195 27.92529297 C248.1832653 30.24271751 248.18991198 32.56014105 248.19691467 34.87756348 C248.21433341 41.18330208 248.22487828 47.48903309 248.2331202 53.79478979 C248.23826727 57.73149212 248.24434305 61.66819207 248.25063133 65.60489273 C248.26750001 76.50294927 248.2821361 87.40100289 248.28938007 98.29907036 C248.29128997 101.12662635 248.29321031 103.95418232 248.29516602 106.78173828 C248.29564976 107.48451531 248.2961335 108.18729234 248.2966319 108.91136564 C248.30493641 120.30186694 248.33028163 131.69226336 248.36274669 143.08271883 C248.39580088 154.77508028 248.41349433 166.46738297 248.41702431 178.15979111 C248.4193794 184.72553331 248.4283998 191.29110966 248.45348549 197.85680771 C248.47669381 204.03082006 248.48102857 210.20455648 248.47072411 216.37860107 C248.47022691 218.64699341 248.47660104 220.91539901 248.49028015 223.18375015 C248.50788728 226.27598177 248.50094777 229.36721108 248.48774719 232.45944214 C248.49871644 233.36109537 248.50968568 234.2627486 248.52098733 235.19172466 C248.4782069 239.33065701 248.34352865 241.45305659 246.0945158 245.03378487 C242.06420231 248.81721939 238.09068172 248.14545287 232.83366394 248.14044189 C231.39081487 248.14489858 231.39081487 248.14489858 229.91881734 248.1494453 C226.67528037 248.15816065 223.43178019 248.15964293 220.18823242 248.16113281 C217.87095561 248.16575898 215.55367957 248.17078336 213.23640442 248.17617798 C206.9264713 248.18932331 200.61654883 248.19575107 194.30660415 248.20018864 C190.36772947 248.20311589 186.42885772 248.20722002 182.48998451 248.21169281 C171.58767777 248.22380476 160.68537426 248.2341858 149.78306103 248.2375679 C149.08503282 248.23778747 148.38700462 248.23800703 147.66782405 248.23823325 C146.61825271 248.23856067 146.61825271 248.23856067 145.5474779 248.2388947 C144.12955232 248.23933817 142.71162675 248.23978473 141.29370117 248.24023438 C140.23868738 248.24056652 140.23868738 248.24056652 139.16236017 248.24090537 C127.76534946 248.24485349 116.36840269 248.26230724 104.97141667 248.2855939 C93.2745672 248.30930061 81.57775298 248.3215114 69.88087922 248.32293582 C63.3118012 248.32398576 56.74281332 248.32993359 50.17375755 248.34775543 C43.9956877 248.36418987 37.81777618 248.36641412 31.63969231 248.35761642 C29.36969327 248.35684357 27.09968588 248.36122128 24.8297081 248.37107468 C21.73537723 248.38372062 18.64161335 248.37795727 15.54728699 248.36749268 C14.64495164 248.37554908 13.74261629 248.38360548 12.81293744 248.39190602 C8.09764469 248.35450481 4.76168277 248.18519562 1 245 C0.08606314 242.25818941 -0.12450654 240.67114051 -0.12304783 237.85145283 C-0.12503888 237.00249795 -0.12702993 236.15354308 -0.12908131 235.2788623 C-0.12616847 234.34599133 -0.12325563 233.41312037 -0.12025452 232.45198059 C-0.12110894 231.46119765 -0.12196337 230.4704147 -0.12284368 229.44960803 C-0.12449676 226.11458058 -0.11897989 222.77960293 -0.11352539 219.44458008 C-0.11324346 217.05993145 -0.11340138 214.67528273 -0.1139679 212.29063416 C-0.11422572 206.47770583 -0.10988098 200.66479394 -0.10353024 194.85186938 C-0.09638814 188.08891363 -0.09488563 181.32596023 -0.09374207 174.56300124 C-0.09155264 162.50203967 -0.08489552 150.44108485 -0.07543945 138.38012695 C-0.06626251 126.6630049 -0.05918305 114.94588468 -0.05493164 103.22875977 C-0.05466892 102.50669501 -0.05440619 101.78463025 -0.05413551 101.04068474 C-0.05283049 97.41835141 -0.05156677 93.79601807 -0.05032361 90.17368472 C-0.0399544 60.11578508 -0.0222648 30.05789333 0 0 Z " fill="#BC7629" transform="translate(256,256)"/>
<path d="M0 0 C1.23745651 -0.00668677 1.23745651 -0.00668677 2.49991214 -0.01350862 C3.85908415 -0.01323207 3.85908415 -0.01323207 5.24571419 -0.01294994 C6.20846799 -0.01662663 7.17122179 -0.02030332 8.16314995 -0.02409142 C11.4035775 -0.03514385 14.64397299 -0.03897471 17.88441658 -0.04278088 C20.20184112 -0.04904422 22.51926466 -0.0556909 24.83668709 -0.0626936 C31.14242569 -0.08011233 37.4481567 -0.0906572 43.7539134 -0.09889913 C47.69061573 -0.10404619 51.62731569 -0.11012198 55.56401634 -0.11641026 C66.46207288 -0.13327893 77.3601265 -0.14791502 88.25819397 -0.155159 C91.08574996 -0.1570689 93.91330594 -0.15898923 96.74086189 -0.16094494 C97.44363892 -0.16142868 98.14641595 -0.16191242 98.87048925 -0.16241082 C110.26099055 -0.17071534 121.65138697 -0.19606056 133.04184245 -0.22852562 C144.73420389 -0.2615798 156.42650658 -0.27927325 168.11891472 -0.28280324 C174.68465692 -0.28515832 181.25023327 -0.29417872 187.81593132 -0.31926441 C193.98994367 -0.34247273 200.1636801 -0.34680749 206.33772469 -0.33650303 C208.60611702 -0.33600583 210.87452262 -0.34237996 213.14287376 -0.35605907 C216.23510538 -0.3736662 219.32633469 -0.36672669 222.41856575 -0.35352612 C223.32021898 -0.36449536 224.22187221 -0.37546461 225.15084827 -0.38676625 C229.28978062 -0.34398583 231.4121802 -0.20930757 234.99290848 2.03970528 C238.78182455 6.07585801 238.11015301 10.07337991 238.11302376 15.338521 C238.11959714 16.7874954 238.11959714 16.7874954 238.12630332 18.265742 C238.13972546 21.52309176 238.1458778 24.78041443 238.15199471 28.03778553 C238.1598929 30.36491488 238.16816167 32.692043 238.17677498 35.01916981 C238.20302486 42.67860203 238.21830422 50.33803981 238.23256111 57.99750233 C238.23791931 60.63047445 238.24329682 63.26344653 238.24869347 65.89641857 C238.27032532 76.84504459 238.28921527 87.7936693 238.30031586 98.74231148 C238.30324563 101.58412969 238.30620728 104.42594787 238.30922127 107.267766 C238.30996732 107.97409914 238.31071337 108.68043229 238.31148203 109.40816947 C238.32413924 120.85372552 238.35736684 132.29912635 238.3990231 143.74460981 C238.44142532 155.49117723 238.46500884 167.23766514 238.47023642 178.9843089 C238.47389707 185.58140717 238.4859945 192.17824233 238.51833916 198.7752676 C238.54832255 204.97967643 238.5547662 211.18366159 238.5429554 217.38812733 C238.54273386 219.66781343 238.55110492 221.94751865 238.56860924 224.22713757 C238.59117764 227.33493054 238.58306253 230.44117116 238.56712532 233.54897022 C238.58100741 234.45519652 238.5948895 235.36142282 238.60919225 236.29511052 C238.55654299 240.44993639 238.28592878 242.61744862 236.02410603 246.19403744 C231.72462836 248.91567662 228.30805046 248.82720976 223.31140327 248.76241016 C222.3339844 248.76950455 221.35656552 248.77659894 220.3495279 248.78390831 C217.07112649 248.80152431 213.79390496 248.78336446 210.5155201 248.76532459 C208.1666173 248.77046197 205.81771834 248.77774187 203.4688282 248.78700733 C197.08668317 248.80555134 190.70495489 248.79256383 184.3228271 248.77291703 C178.32627487 248.75821375 172.32975322 248.76413627 166.33319283 248.76897394 C154.45200567 248.77754076 142.57098351 248.76086596 130.6898365 248.73114491 C119.15916706 248.70230095 107.62873526 248.69522701 96.09803963 248.71063709 C83.54232386 248.72739407 70.9867209 248.73143916 58.4310022 248.71392673 C51.78432237 248.70476802 45.13772733 248.70073779 38.49104309 248.70996761 C32.24390554 248.71761387 25.99711137 248.70555823 19.75003242 248.67811871 C17.45382456 248.6712167 15.15758473 248.67115621 12.86137772 248.67833424 C9.73381862 248.68698643 6.60732964 248.67114406 3.47986031 248.64888477 C2.56498563 248.65712554 1.65011095 248.66536631 0.7075128 248.67385679 C-2.95924046 248.6254826 -5.37353043 248.50819935 -8.60459709 246.69752121 C-10.82068399 242.7425134 -10.58890198 239.06968878 -10.54208183 234.60675526 C-10.54761623 233.63019081 -10.55315063 232.65362636 -10.55885273 231.64746904 C-10.57249602 228.36610362 -10.55746968 225.08549396 -10.54258537 221.80414295 C-10.5463672 219.45538986 -10.55186611 217.10663899 -10.55895805 214.75789356 C-10.5729476 208.37160748 -10.56171815 201.98558975 -10.54524684 195.5993185 C-10.53282231 189.60021921 -10.53700464 183.60113843 -10.54037655 177.60203236 C-10.54625652 165.71476812 -10.53207824 153.82760977 -10.50742912 141.94037342 C-10.48350792 130.40289815 -10.47642467 118.86556435 -10.48692131 107.32806873 C-10.49832814 94.76761374 -10.50026351 82.2072242 -10.48582321 69.64677 C-10.47824573 62.99673475 -10.4743962 56.34674521 -10.48032761 49.69670582 C-10.48509093 43.44553368 -10.47502229 37.19455802 -10.45337296 30.94342327 C-10.44779614 28.64560007 -10.44734794 26.34775801 -10.45232582 24.04993343 C-10.4582567 20.920298 -10.44581539 17.79126771 -10.42855644 14.6616869 C-10.43456649 13.7461301 -10.44057653 12.8305733 -10.4467687 11.88727236 C-10.38533103 5.78692738 -10.38533103 5.78692738 -8.70414639 2.60125446 C-6.00154821 0.21751535 -3.45169874 0.00865788 0 0 Z " fill="#E19836" transform="translate(155.0408763885498,7.865778923034668)"/>
<path d="M0 0 C0.69867188 -0.01933594 1.39734375 -0.03867188 2.1171875 -0.05859375 C6.05959673 -0.02140121 7.85049004 0.5062599 10.9609375 2.9765625 C13 5.625 13 5.625 13.625 8.625 C12.79930566 12.58833283 11.06558569 14.07034526 8 16.625 C5.20268195 18.02365903 2.80715441 17.87037267 -0.3125 17.9375 C-1.44300781 17.97488281 -2.57351562 18.01226562 -3.73828125 18.05078125 C-7.64304057 17.54105818 -9.22148129 16.35290817 -12 13.625 C-13.44430855 10.73638291 -13.37688506 8.82852299 -13 5.625 C-9.23399696 0.67394196 -5.97458933 -0.16534841 0 0 Z " fill="#BD772A" transform="translate(192,153.375)"/>
<path d="M0 0 C1.19625 -0.0103125 2.3925 -0.020625 3.625 -0.03125 C7.57642799 0.59073404 9.23110693 1.65475878 12 4.5 C13.1659741 8.50803597 13.43240501 10.55282711 11.6875 14.375 C10 16.5 10 16.5 8 17.5 C5.3755271 17.73011472 2.81613847 17.86961886 0.1875 17.9375 C-0.52470703 17.98326172 -1.23691406 18.02902344 -1.97070312 18.07617188 C-4.8804596 18.13808159 -7.25570279 18.06864127 -9.62207031 16.26074219 C-12.18502532 13.36451247 -12.9905131 11.77512023 -13.125 7.875 C-10.90638012 1.21914035 -6.63712573 -0.0572166 0 0 Z " fill="#AE6A27" transform="translate(209,451.5)"/>
<path d="M0 0 C1.13953125 -0.02578125 2.2790625 -0.0515625 3.453125 -0.078125 C7.07719032 0.28256397 8.86995112 1.064431 11.75 3.25 C14.09549674 6.76824511 14.32991403 8.10775694 13.75 12.25 C10.96311796 15.91383526 9.49986716 17.12743288 4.90234375 17.87890625 C3.49722702 17.88285691 2.09181493 17.86012571 0.6875 17.8125 C-0.01955078 17.82345703 -0.72660156 17.83441406 -1.45507812 17.84570312 C-4.89559962 17.79724508 -6.90025558 17.51202717 -9.6796875 15.4296875 C-11.93887695 12.29379766 -12.31753658 10.09958492 -12.25 6.25 C-9.875 3.375 -9.875 3.375 -7.25 1.25 C-5.39709648 -0.60290352 -2.48375369 0.03341373 0 0 Z " fill="#AE6A27" transform="translate(208.25,340.75)"/>
<path d="M0 0 C1.06057617 -0.00966797 1.06057617 -0.00966797 2.14257812 -0.01953125 C5.57810631 0.05143741 7.5982397 0.37069091 10.37109375 2.44921875 C12.60749379 5.55563975 12.9375 7.81837266 12.9375 11.625 C11.17108828 14.42689446 9.90700178 16.14024911 6.9375 17.625 C4.67104234 17.80022676 2.39777146 17.89228256 0.125 17.9375 C-1.70998047 17.99357422 -1.70998047 17.99357422 -3.58203125 18.05078125 C-7.66023794 17.55187605 -9.23133897 16.55001167 -12.0625 13.625 C-13.1875 10.25 -13.1875 10.25 -13.0625 6.625 C-9.49226831 0.94603497 -6.7578607 -0.30970947 0 0 Z " fill="#9E5E23" transform="translate(337.0625,332.375)"/>
<path d="M0 0 C1.22332031 -0.03738281 2.44664062 -0.07476562 3.70703125 -0.11328125 C7.78523794 0.38562395 9.35633897 1.38748833 12.1875 4.3125 C13.3125 7.6875 13.3125 7.6875 13.1875 11.3125 C11.55943164 13.90217598 10.53511059 15.48997544 8.1875 17.3125 C5.17416302 17.88151592 3.09952679 18.07382112 0.125 17.9375 C-0.58205078 17.94394531 -1.28910156 17.95039062 -2.01757812 17.95703125 C-5.45310631 17.88606259 -7.4732397 17.56680909 -10.24609375 15.48828125 C-12.48249379 12.38186025 -12.8125 10.11912734 -12.8125 6.3125 C-9.18759496 0.56265063 -6.56369588 0.13058662 0 0 Z " fill="#BD772A" transform="translate(302.8125,50.6875)"/>
<path d="M0 0 C1.31613281 -0.04898437 2.63226563 -0.09796875 3.98828125 -0.1484375 C8.53218925 0.49452308 9.92263057 1.79013127 12.6875 5.375 C13.4321324 9.34637281 13.06016878 10.81599683 10.8125 14.1875 C7.29825043 17.80510986 4.82959051 17.588927 -0.125 17.6875 C-1.95998047 17.74357422 -1.95998047 17.74357422 -3.83203125 17.80078125 C-7.91066893 17.30182333 -9.48567076 16.30614028 -12.3125 13.375 C-13.375 9.9375 -13.375 9.9375 -13.3125 6.375 C-9.63219351 0.53727246 -6.52470429 0.13683841 0 0 Z " fill="#AD6A27" transform="translate(81.3125,460.625)"/>
<path d="M0 0 C0.69867188 -0.01933594 1.39734375 -0.03867187 2.1171875 -0.05859375 C6.04249817 -0.02156252 7.8692944 0.52394599 10.99609375 2.94140625 C13 5.625 13 5.625 13.0625 9.1875 C11.93569047 12.83306025 10.95999714 14.29288104 8 16.625 C3.57631789 18.83684105 -2.19785339 18.17840723 -7 17.625 C-9.53016916 16.20912756 -10.32989999 15.07050359 -12 12.625 C-12.33 12.295 -12.66 11.965 -13 11.625 C-13.5321258 7.72274416 -13.39114099 6.13997714 -10.9765625 2.9609375 C-7.29315114 0.07028134 -4.49754593 -0.12447083 0 0 Z " fill="#AE6B27" transform="translate(192,392.375)"/>
<path d="M0 0 C1.13050781 -0.03738281 2.26101562 -0.07476562 3.42578125 -0.11328125 C7.35784333 0.4000059 8.93995411 1.49989382 11.6875 4.3125 C12.8534741 8.32053597 13.11990501 10.36532711 11.375 14.1875 C9.6875 16.3125 9.6875 16.3125 7.6875 17.3125 C5.0630271 17.54261472 2.50363847 17.68211886 -0.125 17.75 C-0.83720703 17.79576172 -1.54941406 17.84152344 -2.28320312 17.88867188 C-5.20652369 17.95087018 -7.5716218 17.90197841 -9.91699219 16.03588867 C-11.90716428 13.72218932 -13.21174429 11.7255984 -13.9375 8.75 C-13.03301919 5.22252485 -11.03095276 3.64260237 -8.3125 1.3125 C-5.51518195 -0.08615903 -3.11965441 0.06712733 0 0 Z " fill="#BD772A" transform="translate(226.3125,84.6875)"/>
<path d="M0 0 C0.69867188 -0.02771484 1.39734375 -0.05542969 2.1171875 -0.08398438 C4.99736718 -0.07039862 7.30926983 0.14111244 9.61108398 1.96191406 C11.96956914 4.64093369 12.99034071 6.20453546 13.0625 9.8125 C11.63318569 13.68005637 9.68509853 15.84495073 6 17.6875 C3.90051399 17.86221848 1.79375592 17.95467852 -0.3125 18 C-1.44300781 18.03738281 -2.57351563 18.07476562 -3.73828125 18.11328125 C-7.68218177 17.59844873 -9.2568772 16.52521324 -12 13.6875 C-12.8828125 11.72265625 -12.8828125 11.72265625 -13.125 9.75 C-13.23070312 9.10160156 -13.33640625 8.45320313 -13.4453125 7.78515625 C-11.98292472 0.89654013 -6.0690758 -0.1287719 0 0 Z " fill="#9E5E23" transform="translate(414,298.3125)"/>
<path d="M0 0 C1.19625 -0.0103125 2.3925 -0.020625 3.625 -0.03125 C7.57696744 0.59081895 9.22839728 1.65720015 12 4.5 C13.0625 7.9375 13.0625 7.9375 13 11.5 C11.23358828 14.30189446 9.96950178 16.01524911 7 17.5 C-5.68347075 18.68579194 -5.68347075 18.68579194 -10.13671875 16.40625 C-12.63993543 13.70937472 -13.00081926 11.47624156 -13.125 7.875 C-10.90638012 1.21914035 -6.63712573 -0.0572166 0 0 Z " fill="#AD6A27" transform="translate(64,289.5)"/>
<path d="M0 0 C1.65515625 0.00193359 1.65515625 0.00193359 3.34375 0.00390625 C6.82164691 0.48168664 8.70443007 1.34574433 11.5 3.4375 C13.5 6.4375 13.5 6.4375 13.4375 9.875 C12.29372067 14.22136144 11.26502855 15.08751573 7.5 17.4375 C2.10223577 18.34103879 -4.62019091 18.93563598 -9.625 16.33203125 C-12.15239689 13.65385216 -12.50087362 11.41216495 -12.625 7.8125 C-10.49009823 1.40779469 -6.44592292 -0.11295426 0 0 Z " fill="#9E5E23" transform="translate(302.5,400.5625)"/>
<path d="M0 0 C1.93359375 -0.01933594 1.93359375 -0.01933594 3.90625 -0.0390625 C8.31216976 0.77507485 9.79068379 2.11822468 12.5 5.625 C13.125 9.125 13.125 9.125 12.5 12.625 C9.79068379 16.13177532 8.31216976 17.47492515 3.90625 18.2890625 C2.6171875 18.27617187 1.328125 18.26328125 0 18.25 C-1.93359375 18.26933594 -1.93359375 18.26933594 -3.90625 18.2890625 C-8.31216976 17.47492515 -9.79068379 16.13177532 -12.5 12.625 C-13.125 9.125 -13.125 9.125 -12.5 5.625 C-8.7284456 0.7433277 -6.08444031 -0.0608444 0 0 Z " fill="#AD6A27" transform="translate(55.5,400.375)"/>
<path d="M0 0 C4.63309353 2.26618705 4.63309353 2.26618705 6 5 C6.48006117 9.2405403 6.57731798 11.2437793 3.9453125 14.69140625 C0.23517971 17.59948116 -1.830182 17.67169818 -6.5 17.625 C-8.43359375 17.64433594 -8.43359375 17.64433594 -10.40625 17.6640625 C-14.81216976 16.84992515 -16.29068379 15.50677532 -19 12 C-19.75123045 7.79310949 -19.44098839 5.79717131 -17.375 2.0625 C-11.99082715 -1.22782785 -6.15045455 -0.8542298 0 0 Z " fill="#BC762A" transform="translate(335,145)"/>
<path d="M0 0 C1.93359375 -0.01933594 1.93359375 -0.01933594 3.90625 -0.0390625 C8.3124623 0.7751289 9.79856287 2.11006192 12.5 5.625 C13.03416903 9.43095431 13.05569356 11.61945927 11.1875 15 C7.14224716 18.89542866 1.09814797 18.01369662 -4.15625 17.96484375 C-7.5 17.625 -7.5 17.625 -10.875 15.5625 C-12.94098839 11.82782869 -13.25123045 9.83189051 -12.5 5.625 C-8.7284456 0.7433277 -6.08444031 -0.0608444 0 0 Z " fill="#BC762A" transform="translate(345.5,93.375)"/>
<path d="M0 0 C1.93359375 -0.01933594 1.93359375 -0.01933594 3.90625 -0.0390625 C8.30234847 0.77326004 9.79017426 2.13359264 12.5 5.625 C13.05878277 9.53647941 12.73182354 12.33599688 10.5 15.625 C6.75736712 18.12008858 4.59131308 17.95612659 0.125 18 C-1.18210937 18.02835938 -2.48921875 18.05671875 -3.8359375 18.0859375 C-8.01934604 17.55966649 -9.65303711 16.69303387 -12.5 13.625 C-13.34577114 8.29664179 -13.34577114 8.29664179 -12.5 5.625 C-8.76001845 0.72068457 -6.07369066 -0.06073691 0 0 Z " fill="#BC762A" transform="translate(260.5,144.375)"/>
<path d="M0 0 C1.93359375 -0.01933594 1.93359375 -0.01933594 3.90625 -0.0390625 C8.31293196 0.77521569 9.79533396 2.11251311 12.5 5.625 C13.0625 9.1875 13.0625 9.1875 12.5 12.625 C10.63291495 14.98997439 9.17938569 16.28530715 6.5 17.625 C4.56539059 17.7478777 2.62597096 17.80054888 0.6875 17.8125 C-0.35019531 17.82667969 -1.38789063 17.84085937 -2.45703125 17.85546875 C-5.59839889 17.61754745 -7.71815368 17.08631892 -10.5 15.625 C-13.00031654 11.87452518 -13.03603554 10.06643734 -12.5 5.625 C-8.75034209 0.72981092 -6.07377857 -0.06073779 0 0 Z " fill="#9E5E23" transform="translate(328.5,460.375)"/>
<path d="M0 0 C0.75925781 -0.02384766 1.51851563 -0.04769531 2.30078125 -0.07226562 C6.37483388 -0.06156321 7.9328419 0.0299031 11 2.91015625 C12.84607776 6.17444478 13.11604656 7.86622061 12.5 11.5625 C10.70006226 14.26240662 9.416227 16.1043865 6.5 17.5625 C-5.86268699 18.75778742 -5.86268699 18.75778742 -10.3125 15.5625 C-12.41706538 12.67623891 -12.90509778 11.86136246 -13.125 8.5 C-12.5 4.5625 -12.5 4.5625 -10.9921875 2.3515625 C-7.38668127 -0.23671627 -4.3348606 -0.06255741 0 0 Z " fill="#9E5E23" transform="translate(439.5,392.4375)"/>
<path d="M0 0 C1.06057617 -0.01643555 1.06057617 -0.01643555 2.14257812 -0.03320312 C5.56869613 0.01505206 7.60409852 0.3210349 10.40234375 2.34765625 C12.47200635 5.33365801 12.50687957 7.12954506 12.3359375 10.66015625 C11.72854423 13.56016139 10.27250208 14.84558671 7.9375 16.5625 C5.14018195 17.96115903 2.74465441 17.80787267 -0.375 17.875 C-1.50550781 17.91238281 -2.63601562 17.94976562 -3.80078125 17.98828125 C-7.70554057 17.47855818 -9.28398129 16.29040817 -12.0625 13.5625 C-13.50680855 10.67388291 -13.43938506 8.76602299 -13.0625 5.5625 C-9.27875606 0.57117821 -6.002799 -0.20357797 0 0 Z " fill="#AD6A27" transform="translate(124.0625,392.4375)"/>
<path d="M0 0 C1.93359375 -0.01933594 1.93359375 -0.01933594 3.90625 -0.0390625 C8.31216976 0.77507485 9.79068379 2.11822468 12.5 5.625 C13.25714464 9.86500997 12.95675792 11.82990287 10.8125 15.5625 C5.70174774 18.7446665 0.37012497 18.49680074 -5.5 17.625 C-8.3271543 16.19553996 -10.26378154 14.86121846 -12.5 12.625 C-13.06159547 8.37292004 -13.08413549 6.38869896 -10.44140625 2.93359375 C-6.73404078 0.02382882 -4.66859862 -0.04668599 0 0 Z " fill="#AD6A27" transform="translate(89.5,332.375)"/>
<path d="M0 0 C1.04027344 -0.01417969 2.08054687 -0.02835937 3.15234375 -0.04296875 C6.07222062 0.18826982 7.65252804 0.56467772 10.0625 2.1875 C12.56281654 5.93797482 12.59853554 7.74606266 12.0625 12.1875 C9.36571685 15.70815808 7.87574053 17.03722729 3.46875 17.8515625 C2.1796875 17.83867187 0.890625 17.82578125 -0.4375 17.8125 C-2.37109375 17.83183594 -2.37109375 17.83183594 -4.34375 17.8515625 C-8.75043196 17.03728431 -10.23283396 15.69998689 -12.9375 12.1875 C-13.5 8.625 -13.5 8.625 -12.9375 5.1875 C-9.30550355 0.42833224 -5.73419512 0.03544002 0 0 Z " fill="#9E5E23" transform="translate(311.9375,289.8125)"/>
<path d="M0 0 C2.31466018 1.6241291 3.63099819 3.36782643 4.3125 6.12109375 C4.5274392 9.40659291 4.16902841 11.65435581 2.28125 14.359375 C-1.08724621 16.81211151 -4.10124209 16.77311131 -8.11328125 16.7109375 C-8.81646484 16.73478516 -9.51964844 16.75863281 -10.24414062 16.78320312 C-14.18875336 16.77211237 -16.00585684 16.28137309 -19.13671875 13.83203125 C-21.17578125 11.1484375 -21.17578125 11.1484375 -21.86328125 7.6484375 C-21.15667003 4.05114403 -20.37154495 2.20464245 -17.3515625 0.03515625 C-11.99434116 -2.14812785 -5.37841071 -2.10501532 0 0 Z " fill="#BC762A" transform="translate(226.17578125,213.8515625)"/>
<path d="M0 0 C1.93359375 -0.01933594 1.93359375 -0.01933594 3.90625 -0.0390625 C8.31216976 0.77507485 9.79068379 2.11822468 12.5 5.625 C13.25714464 9.86500997 12.95675792 11.82990287 10.8125 15.5625 C5.70174774 18.7446665 0.37012497 18.49680074 -5.5 17.625 C-8.3271543 16.19553996 -10.26378154 14.86121846 -12.5 12.625 C-13.06159547 8.37292004 -13.08413549 6.38869896 -10.44140625 2.93359375 C-6.73404078 0.02382882 -4.66859862 -0.04668599 0 0 Z " fill="#BC762A" transform="translate(345.5,204.375)"/>
<path d="M0 0 C3.03400354 2.17955863 3.80157966 3.98650233 4.44921875 7.61328125 C3.71171096 11.74332487 2.86369512 13.24293313 -0.17578125 16.11328125 C-3.06567658 16.62987663 -5.24165721 16.81681245 -8.11328125 16.73828125 C-9.16805664 16.76728516 -9.16805664 16.76728516 -10.24414062 16.796875 C-14.17968526 16.7599908 -16.01751844 16.2373025 -19.13671875 13.79296875 C-21.17578125 11.11328125 -21.17578125 11.11328125 -21.86328125 7.61328125 C-21.15667003 4.01598778 -20.37154495 2.1694862 -17.3515625 0 C-12.00779262 -2.17780209 -5.34376988 -2.17780209 0 0 Z " fill="#9E5E23" transform="translate(465.17578125,341.88671875)"/>
<path d="M0 0 C1.05477539 -0.02900391 1.05477539 -0.02900391 2.13085938 -0.05859375 C6.06640401 -0.02170955 7.90423719 0.50097875 11.0234375 2.9453125 C13.0625 5.625 13.0625 5.625 13.75 9.125 C13.04338878 12.72229347 12.2582637 14.56879505 9.23828125 16.73828125 C3.89451137 18.91608334 -2.76951137 18.91608334 -8.11328125 16.73828125 C-11.14728479 14.55872262 -11.91486091 12.75177892 -12.5625 9.125 C-11.19729133 1.47983147 -7.27795868 -0.1990326 0 0 Z " fill="#BC762A" transform="translate(199.9375,42.375)"/>
<path d="M0 0 C3.01998245 2.1694862 3.80510753 4.01598778 4.51171875 7.61328125 C3.64057167 12.04821183 2.34094751 13.32431345 -1.17578125 16.11328125 C-4.76953125 16.77734375 -4.76953125 16.77734375 -8.67578125 16.73828125 C-10.609375 16.75761719 -10.609375 16.75761719 -12.58203125 16.77734375 C-16.98842141 15.96311948 -18.46324615 14.61761096 -21.17578125 11.11328125 C-21.86328125 7.61328125 -21.86328125 7.61328125 -21.17578125 4.11328125 C-16.27232858 -2.47135519 -7.421596 -3.02460016 0 0 Z " fill="#9E5E23" transform="translate(465.17578125,452.88671875)"/>
<path d="M0 0 C0.70318359 -0.02384766 1.40636719 -0.04769531 2.13085938 -0.07226562 C6.05782024 -0.0612245 7.90965969 0.44597423 11.0546875 2.84375 C13.72248803 6.45618029 13.72248803 6.45618029 13.25 9.625 C12.59036514 12.7405968 12.00980361 13.61946907 9.75 16.0625 C4.56067759 18.17341081 -0.40400801 18.38917242 -5.9375 17.5625 C-10.60200417 15.23349166 -10.60200417 15.23349166 -11.9375 12.5625 C-12.51474329 5.40468316 -12.51474329 5.40468316 -10.4140625 2.33984375 C-7.03010869 -0.08870355 -4.01353373 -0.06219697 0 0 Z " fill="#9E5E23" transform="translate(370.9375,392.4375)"/>
<path d="M0 0 C1.93359375 -0.01933594 1.93359375 -0.01933594 3.90625 -0.0390625 C8.30217865 0.77322866 9.78223434 2.14173891 12.5 5.625 C13.2446324 9.59637281 12.87266878 11.06599683 10.625 14.4375 C8.05519439 17.08288813 7.27776514 17.57992736 3.6015625 17.79296875 C1.88066406 17.80263672 1.88066406 17.80263672 0.125 17.8125 C-1.01710937 17.82667969 -2.15921875 17.84085937 -3.3359375 17.85546875 C-6.39128719 17.63291859 -8.00381082 17.34041768 -10.5 15.625 C-13.00031654 11.87452518 -13.03603554 10.06643734 -12.5 5.625 C-8.75034209 0.72981092 -6.07377857 -0.06073779 0 0 Z " fill="#AD6A27" transform="translate(166.5,298.375)"/>
</svg>
