<?xml version="1.0" encoding="UTF-8"?>
<svg version="1.1" xmlns="http://www.w3.org/2000/svg" width="512" height="512">
<path d="M0 0 C1.21677579 0.98971012 2.42619628 1.98859548 3.625 3 C6.62571479 5.21081851 6.62571479 5.21081851 8.93359375 4.86328125 C10.42052397 4.47858921 11.90077163 4.06753211 13.375 3.63671875 C23.26783619 1.23711711 32.94415708 3.34803913 42.50390625 6.02734375 C48.74988632 7.76505217 50.78603301 8.29440318 56.640625 5.125 C66.57231521 0.38935964 77.55017417 -0.52078328 88.0625 2.5 C100.3722211 7.11216941 106.8270699 15.93372213 113 27 C113.33 27.99 113.66 28.98 114 30 C114.95519531 30.14695313 115.91039062 30.29390625 116.89453125 30.4453125 C130.6478677 32.83123527 140.57568579 37.30807301 149 49 C154.30748184 57.78245717 158.54015473 70.63703147 158 81 C158.825 81.0825 159.65 81.165 160.5 81.25 C169.72235115 83.2262181 177.92329128 89.21294797 183.359375 96.9296875 C183.71515625 97.50976562 184.0709375 98.08984375 184.4375 98.6875 C187.0917259 102.81102952 191.07548246 104.30707587 195.33984375 106.4765625 C201.21705714 109.84236752 204.26413574 114.62385579 206.45703125 120.91015625 C208.29743663 127.99373093 207.7962797 134.43980946 207.22851562 141.65625 C206.9000388 146.6702411 207.12203263 150.24902284 209 155 C209.61592504 159.65543341 209.33469106 163.6296579 207.4375 167.9375 C204.9491583 173.97556137 206.5393433 179.61953844 207.74609375 185.85546875 C211.26195266 204.08113883 211.81153418 220.53326059 202 237 C199.625 239.875 199.625 239.875 197 242 C196.19175781 242.73283203 196.19175781 242.73283203 195.3671875 243.48046875 C187.75166802 249.93294864 176.34902181 253.44971626 166.3828125 252.83984375 C160.98824221 252.40667026 160.98824221 252.40667026 156.0546875 254.19140625 C154.92329673 255.24123164 153.81007275 256.31093953 152.71484375 257.3984375 C146.63493616 263.07671111 139.38042492 263.64130403 131.3671875 263.3828125 C123.13824707 262.44727171 117.2801652 258.10582537 111 253 C109.64648438 251.9171875 109.64648438 251.9171875 108.265625 250.8125 C107.51796875 250.214375 106.7703125 249.61625 106 249 C87.07295108 265.25837608 73.24372651 284.40489942 61 306 C60.56445801 306.76119141 60.12891602 307.52238281 59.68017578 308.30664062 C34.71507099 352.34351135 22.04264872 404.67969176 18.71972656 455.04077148 C18.30709471 460.43733686 17.28104183 464.7661851 13.32481384 468.64050293 C10.15209019 470.49583794 7.77397475 470.39497542 4.10766602 470.41992188 C3.42260986 470.42839142 2.73755371 470.43686096 2.03173828 470.44558716 C-0.22772908 470.46894303 -2.48651492 470.46997974 -4.74609375 470.46875 C-6.32023897 470.47585242 -7.8943816 470.48355154 -9.46852112 470.49182129 C-12.76627806 470.50526276 -16.06379561 470.50683643 -19.36157227 470.50097656 C-23.58311911 470.49508026 -27.80351595 470.52566914 -32.02484035 470.56609344 C-35.27543807 470.59197063 -38.52575887 470.59484792 -41.77644539 470.59120178 C-43.33255975 470.592893 -44.88868689 470.60253589 -46.44470024 470.62034607 C-48.62333532 470.64253915 -50.79964288 470.63283642 -52.97827148 470.61523438 C-54.21641098 470.61728882 -55.45455048 470.61934326 -56.73020935 470.62145996 C-60.89614578 469.82967756 -62.3457205 468.22920454 -65 465 C-67.32982383 460.85219108 -67.21962266 456.86363635 -67.08984375 452.2265625 C-67.06652136 450.67562884 -67.04392613 449.12468411 -67.02197266 447.57373047 C-67.00741028 446.76595154 -66.9928479 445.95817261 -66.97784424 445.12591553 C-66.73115363 429.83371004 -67.15108293 415.06989836 -70 400 C-70.17740723 399.01112793 -70.35481445 398.02225586 -70.53759766 397.00341797 C-75.80646475 368.33523952 -85.62779911 340.34177496 -98 314 C-98.83125146 312.19034399 -99.66197597 310.38044584 -100.4921875 308.5703125 C-107.42617363 293.5973333 -115.32270277 279.29111216 -123.875 265.1875 C-124.32738037 264.44024658 -124.77976074 263.69299316 -125.24584961 262.9230957 C-127.6145594 259.06803267 -130.07194957 255.46599457 -133 252 C-134.093125 252.639375 -135.18625 253.27875 -136.3125 253.9375 C-143.94291837 257.68600972 -150.89278842 257.26592498 -159.0625 255.625 C-167.37815631 254.31691923 -173.19187535 256.79480368 -180.7109375 260.203125 C-191.31395147 264.88947311 -204.72579832 265.98024232 -216.01953125 263.27734375 C-218.20641734 262.35713785 -220.04806269 261.34139984 -222 260 C-223.051875 259.34 -224.10375 258.68 -225.1875 258 C-230.19360206 253.53925543 -233.83727654 245.5572195 -235 239 C-235.12205329 236.32459184 -235.04467313 233.68038762 -235 231 C-235.58652344 230.74605469 -236.17304688 230.49210938 -236.77734375 230.23046875 C-242.94463842 226.81623708 -246.79107919 220.50404461 -249 214 C-251.6305279 202.71298312 -249.75785604 192.05821947 -244.890625 181.62109375 C-243.69436235 178.10051377 -243.70629103 174.6770781 -243.625 171 C-243.08430155 158.35146965 -240.09325069 148.09325069 -231 139 C-231.72134383 134.99982057 -232.66088535 131.15167923 -233.80859375 127.25390625 C-237.08554426 115.19660988 -238.76220923 99.06360775 -233.4453125 87.3515625 C-229.19498872 80.43617084 -224.71266581 75.54402036 -217.1875 72.375 C-213.35544981 70.49352182 -212.23771636 69.60849844 -210.66015625 65.5703125 C-210.15499468 63.5186143 -209.74323342 61.46429278 -209.34985352 59.38842773 C-206.89457556 46.43339145 -200.11032612 35.16037994 -189.32421875 27.4765625 C-179.75941521 21.40009908 -170.09367479 17.29986419 -158.734375 16.66015625 C-146.88120257 16.59240786 -146.88120257 16.59240786 -136.875 11.25 C-135.93140625 10.18458984 -135.93140625 10.18458984 -134.96875 9.09765625 C-126.56315013 0.14168972 -111.81903773 -1.99053849 -100.125 -2.375 C-91.53899 -2.15304872 -82.53779951 -0.54709299 -74.2734375 1.76171875 C-71.19245679 2.08463941 -70.07028984 1.13958002 -67.5625 -0.625 C-46.26940644 -14.36144683 -21.02366381 -13.13561189 0 0 Z M-99 206 C-99.30292969 206.85722656 -99.60585937 207.71445313 -99.91796875 208.59765625 C-102.3035568 215.10847657 -104.614216 220.61175109 -109 226 C-107.67762551 228.83522086 -106.19231463 231.18891364 -104.234375 233.625 C-103.68104492 234.32133545 -103.12771484 235.0176709 -102.55761719 235.73510742 C-101.66284668 236.85622925 -101.66284668 236.85622925 -100.75 238 C-93.09031012 247.72398227 -85.97901025 257.78019666 -79 268 C-78.52546387 268.69254883 -78.05092773 269.38509766 -77.56201172 270.09863281 C-72.3557839 277.71833123 -67.4187109 285.45222162 -62.77807617 293.4309082 C-61.87718495 294.96893949 -60.94218993 296.48691594 -60 298 C-59.67 298 -59.34 298 -59 298 C-59.67686059 267.98701093 -60.79210003 237.99587183 -62 208 C-63.23065186 208.16081055 -64.46130371 208.32162109 -65.72924805 208.48730469 C-76.94343799 209.88562811 -88.29726177 209.96048463 -99 206 Z M-28 229 C-27.34 257.38 -26.68 285.76 -26 315 C-23.3241814 312.3241814 -22.4534366 311.20390588 -21.10571289 307.89697266 C-20.76388977 307.06890106 -20.42206665 306.24082947 -20.06988525 305.38766479 C-19.70779968 304.48887604 -19.34571411 303.59008728 -18.97265625 302.6640625 C-18.39436066 301.25485031 -18.39436066 301.25485031 -17.80438232 299.81716919 C-16.54998501 296.75596296 -15.30614166 293.69058964 -14.0625 290.625 C-13.20668948 288.52998074 -12.35016066 286.43525476 -11.49291992 284.34082031 C-9.78726074 280.17209152 -8.08501443 276.0019927 -6.38476562 271.83105469 C-4.30441062 266.73491233 -2.19996499 261.64930458 -0.078125 256.5703125 C0.20829361 255.88381622 0.49471222 255.19731995 0.78981018 254.49002075 C2.08902206 251.37691885 3.39110186 248.26508312 4.69702148 245.15478516 C5.14118408 244.0879248 5.58534668 243.02106445 6.04296875 241.921875 C6.42477295 241.01018555 6.80657715 240.09849609 7.19995117 239.15917969 C8.11581634 237.07120647 8.11581634 237.07120647 8 235 C7.16597656 234.97421875 6.33195312 234.9484375 5.47265625 234.921875 C-1.86800812 234.55189879 -7.54765121 233.54362405 -14 230 C-18.18462795 227.90768602 -23.32144372 229 -28 229 Z M65.75 235.25 C54.89018363 242.89841353 43.75367742 244.16687106 31 242 C29.27831802 249.37789434 27.56525844 256.75774506 25.86321926 264.14019489 C25.07264177 267.56801739 24.2790971 270.99509624 23.47875977 274.4206543 C22.5590216 278.35785155 21.65221773 282.29792832 20.74609375 286.23828125 C20.45657333 287.46960281 20.16705292 288.70092438 19.86875916 289.96955872 C19.4782412 291.68099312 19.4782412 291.68099312 19.07983398 293.42700195 C18.84666977 294.432939 18.61350555 295.43887604 18.37327576 296.47529602 C17.78840447 299.11784836 17.78840447 299.11784836 19 302 C19.83660156 301.1028125 20.67320312 300.205625 21.53515625 299.28125 C27.82822685 292.53442697 34.12650451 285.79256225 40.4375 279.0625 C41.0574585 278.40137207 41.67741699 277.74024414 42.31616211 277.05908203 C45.48476065 273.68060731 48.65422835 270.30294999 51.82421875 266.92578125 C59.91018905 258.30909156 67.96878607 249.66775196 76 241 C74.35 238.03 72.7 235.06 71 232 C69.04480052 232 67.21866845 234.12244164 65.75 235.25 Z " fill="#426E1D" transform="translate(276,26)"/>
<path d="M0 0 C0.34611328 1.08667969 0.34611328 1.08667969 0.69921875 2.1953125 C3.27317542 9.82561885 5.48513567 15.32680948 12.875 19.25 C16.50195367 20.9048838 20.13654956 22.03413739 24 23 C24.80753464 28.02721091 25.18930355 32.95396152 25.29711914 38.04663086 C25.31677231 38.81818512 25.33642548 39.58973938 25.35667419 40.38467407 C25.42007093 42.91131848 25.47765725 45.43805885 25.53515625 47.96484375 C25.57820763 49.72604745 25.62162433 51.48724225 25.66539001 53.24842834 C25.77916645 57.86622025 25.88800213 62.4841157 25.99578857 67.10205078 C26.10682283 71.82136204 26.22255802 76.5405578 26.33789062 81.25976562 C26.56317929 90.50640375 26.7832454 99.75315816 27 109 C37.28647363 84.76441159 37.28647363 84.76441159 47.296875 60.4140625 C47.80794044 59.14755104 47.80794044 59.14755104 48.32933044 57.85545349 C49.9647285 53.79696464 51.59279626 49.73566604 53.21313477 45.67114258 C53.8048145 44.19611196 54.39652817 42.72109495 54.98828125 41.24609375 C55.38107269 40.25163742 55.38107269 40.25163742 55.78179932 39.23709106 C59.64720817 29.62703369 59.64720817 29.62703369 62.98046875 28.08203125 C67.74560429 27.50009434 70.36551848 27.794256 74.25 30.75 C75.50412887 31.82855083 76.75447757 32.91152171 78 34 C79.64821244 35.03013277 81.30596166 36.04710343 83 37 C82.31145206 43.6239494 80.9663902 49.98217034 79.4609375 56.46484375 C78.95824363 58.66729724 78.4556421 60.8697718 77.953125 63.07226562 C77.16044065 66.5249397 76.36584788 69.97716197 75.56933594 73.42895508 C74.79914288 76.77315222 74.03592202 80.11888207 73.2734375 83.46484375 C73.0308017 84.50640121 72.78816589 85.54795868 72.53817749 86.62107849 C72.32110138 87.57619827 72.10402527 88.53131805 71.88037109 89.51538086 C71.68575287 90.35951035 71.49113464 91.20363983 71.2906189 92.073349 C71.19471466 92.70914383 71.09881042 93.34493866 71 94 C71.33 94.33 71.66 94.66 72 95 C72.6084375 94.33097656 73.216875 93.66195312 73.84375 92.97265625 C81.46274994 84.62536955 89.19931026 76.39288239 96.95361328 68.17138672 C107.01756851 57.49269216 117.02690319 46.76354462 127 36 C129.00692599 36.99898325 131.00902984 38.00467365 133 39.03515625 C133.66 39.37417969 134.32 39.71320313 135 40.0625 C135.66 40.40410156 136.32 40.74570312 137 41.09765625 C144.01843327 44.26417595 151.61493931 43.05500867 159 42 C156.44713215 44.56679258 153.88345 47.11204162 151.2734375 49.62109375 C144.2872607 56.37191636 138.11241363 63.47362621 132.30273438 71.25732422 C131.0648265 72.9132812 129.80699652 74.55233514 128.546875 76.19140625 C91.85349842 124.82733371 74.91609877 189.9063511 70.77050781 249.78710938 C70.33327298 255.19936757 69.36983213 259.68062198 65.32505798 263.63928223 C62.15219237 265.49617124 59.77485092 265.39496946 56.10766602 265.41992188 C55.42260986 265.42839142 54.73755371 265.43686096 54.03173828 265.44558716 C51.77227092 265.46894303 49.51348508 265.46997974 47.25390625 265.46875 C45.67976103 265.47585242 44.1056184 265.48355154 42.53147888 265.49182129 C39.23372194 265.50526276 35.93620439 265.50683643 32.63842773 265.50097656 C28.41688089 265.49508026 24.19648405 265.52566914 19.97515965 265.56609344 C16.72456193 265.59197063 13.47424113 265.59484792 10.22355461 265.59120178 C8.66744025 265.592893 7.11131311 265.60253589 5.55529976 265.62034607 C3.37666468 265.64253915 1.20035712 265.63283642 -0.97827148 265.61523438 C-2.21641098 265.61728882 -3.45455048 265.61934326 -4.73020935 265.62145996 C-8.89614578 264.82967756 -10.3457205 263.22920454 -13 260 C-15.32982383 255.85219108 -15.21962266 251.86363635 -15.08984375 247.2265625 C-15.06652136 245.67562884 -15.04392613 244.12468411 -15.02197266 242.57373047 C-15.00741028 241.76595154 -14.9928479 240.95817261 -14.97784424 240.12591553 C-14.73115363 224.83371004 -15.15108293 210.06989836 -18 195 C-18.17740723 194.01112793 -18.35481445 193.02225586 -18.53759766 192.00341797 C-23.80646475 163.33523952 -33.62779911 135.34177496 -46 109 C-46.83125146 107.19034399 -47.66197597 105.38044584 -48.4921875 103.5703125 C-57.0111885 85.174714 -66.48219968 65.79050642 -78.8203125 49.61328125 C-80 48 -80 48 -79.9375 46.0625 C-79 44 -79 44 -77.07421875 41.74609375 C-74.88435192 38.84689152 -73.9881954 36.4360047 -72.875 33 C-70.5682359 27.17200721 -68.06437166 25.06062546 -62.40234375 22.57421875 C-59.66497153 21.91992002 -58.54998762 21.81607718 -56 23 C-47.82058932 31.05890371 -41.34843891 41.20571326 -34.73828125 50.54541016 C-32.95748344 53.06003673 -31.16630195 55.56706728 -29.375 58.07421875 C-23.10629283 66.89295125 -17.10348659 75.76807218 -11.671875 85.12890625 C-10.51033072 87.1236143 -9.28039 89.079415 -8 91 C-8.14354317 85.56243711 -8.28985041 80.12495287 -8.4375 74.6875 C-8.45956512 73.87001282 -8.48163025 73.05252563 -8.50436401 72.21026611 C-8.78793208 61.76160785 -9.13106926 51.31876148 -9.5625 40.875 C-10.08859737 27.91566506 -10.10508932 14.9680215 -10 2 C-3.375 0 -3.375 0 0 0 Z " fill="#8DC53E" transform="translate(224,231)"/>
<path d="M0 0 C0 0.66 0 1.32 0 2 C-0.76183594 2.29132812 -1.52367187 2.58265625 -2.30859375 2.8828125 C-13.63656548 7.25965208 -13.63656548 7.25965208 -22.6328125 15.12109375 C-26.34377835 18.06659635 -30.25954238 17.76419748 -34.875 18 C-51.86411508 19.25149214 -67.56164942 23.72424224 -80 36 C-87.17384829 44.85599202 -91.63065014 53.94084297 -92.5 65.3125 C-92.92578125 68.34375 -92.92578125 68.34375 -94 71 C-96.8606918 73.07411141 -99.69252072 74.31457796 -102.953125 75.6640625 C-110.63911298 79.03407262 -113.86387117 84.97932754 -117.0546875 92.44921875 C-122.02934728 105.87257759 -118.52022455 119.89261201 -114.55126953 133.08007812 C-113.89534106 135.36449863 -113.40733171 137.65901314 -113 140 C-113.99 140.33 -114.98 140.66 -116 141 C-117.00916033 142.76591887 -117.00916033 142.76591887 -118 145 C-118.639375 145.886875 -119.27875 146.77375 -119.9375 147.6875 C-125.03175176 155.86917707 -125.59154502 164.3182281 -126.08398438 173.74023438 C-126.55263114 180.49537507 -128.24648747 185.84251062 -131 192 C-133.45034032 199.35102095 -133.42603661 210.87077439 -130.4375 218.125 C-127.51759207 223.43106925 -123.25247802 227.74752198 -119 232 C-118.30923414 234.37414485 -117.69738003 236.72291857 -117.125 239.125 C-114.28977816 250.13709036 -111.52723858 255.48564883 -102 262 C-102.33 262.66 -102.66 263.32 -103 264 C-111.29438723 266.53076776 -124.32268456 266.71125511 -132.3125 263.3125 C-134.2890625 262.17578125 -134.2890625 262.17578125 -136 261 C-137.051875 260.34 -138.10375 259.68 -139.1875 259 C-144.19360206 254.53925543 -147.83727654 246.5572195 -149 240 C-149.12205329 237.32459184 -149.04467313 234.68038762 -149 232 C-149.58652344 231.74605469 -150.17304688 231.49210938 -150.77734375 231.23046875 C-156.94463842 227.81623708 -160.79107919 221.50404461 -163 215 C-165.6305279 203.71298312 -163.75785604 193.05821947 -158.890625 182.62109375 C-157.69436235 179.10051377 -157.70629103 175.6770781 -157.625 172 C-157.08430155 159.35146965 -154.09325069 149.09325069 -145 140 C-145.72134383 135.99982057 -146.66088535 132.15167923 -147.80859375 128.25390625 C-151.08554426 116.19660988 -152.76220923 100.06360775 -147.4453125 88.3515625 C-143.19498872 81.43617084 -138.71266581 76.54402036 -131.1875 73.375 C-127.35544981 71.49352182 -126.23771636 70.60849844 -124.66015625 66.5703125 C-124.15499468 64.5186143 -123.74323342 62.46429278 -123.34985352 60.38842773 C-120.89457556 47.43339145 -114.11032612 36.16037994 -103.32421875 28.4765625 C-93.75941521 22.40009908 -84.09367479 18.29986419 -72.734375 17.66015625 C-60.88120257 17.59240786 -60.88120257 17.59240786 -50.875 12.25 C-49.93140625 11.18458984 -49.93140625 11.18458984 -48.96875 10.09765625 C-37.30638399 -2.32831706 -15.61669626 -2.40256866 0 0 Z " fill="#375917" transform="translate(190,25)"/>
<path d="M0 0 C0.23074219 0.55236328 0.46148437 1.10472656 0.69921875 1.67382812 C7.10995615 16.96584403 13.85966297 31.75314542 22.25 46.0625 C45.44787213 85.66547489 64.27849627 128.80265356 71.56201172 174.34277344 C71.97262961 176.83394684 72.4342978 179.30967058 72.91015625 181.7890625 C75.30201312 195.10079624 75.21014264 208.2631304 74.88964844 221.73876953 C74.87040314 222.88468819 74.87040314 222.88468819 74.85076904 224.05375671 C74.82601538 225.49204537 74.78880616 226.93019686 74.7366333 228.36775208 C74.66715266 233.01432389 75.48841535 236.09187552 78 240 C80.04946399 241.85315257 80.04946399 241.85315257 82 243 C77.53435699 243.12397147 73.06963561 243.21450992 68.6027832 243.2746582 C67.08470199 243.29974109 65.56674082 243.3338166 64.04907227 243.37719727 C61.86184035 243.43813293 59.67620961 243.46626895 57.48828125 243.48828125 C56.17384033 243.51446533 54.85939941 243.54064941 53.50512695 243.56762695 C49.07598249 242.85036284 47.71881727 241.50661265 45 238 C42.67017617 233.85219108 42.78037734 229.86363635 42.91015625 225.2265625 C42.93347864 223.67562884 42.95607387 222.12468411 42.97802734 220.57373047 C42.99258972 219.76595154 43.0071521 218.95817261 43.02215576 218.12591553 C43.26884637 202.83371004 42.84891707 188.06989836 40 173 C39.82259277 172.01112793 39.64518555 171.02225586 39.46240234 170.00341797 C34.19353525 141.33523952 24.37220089 113.34177496 12 87 C11.16874854 85.19034399 10.33802403 83.38044584 9.5078125 81.5703125 C0.9888115 63.174714 -8.48219968 43.79050642 -20.8203125 27.61328125 C-22 26 -22 26 -21.9375 24.0625 C-21 22 -21 22 -19.07421875 19.74609375 C-16.88435192 16.84689152 -15.9881954 14.4360047 -14.875 11 C-12.99170069 6.20614721 -11.4430549 4.06860878 -6.8125 1.75 C-2.58333333 0 -2.58333333 0 0 0 Z " fill="#75A032" transform="translate(166,253)"/>
<path d="M0 0 C1.33626559 1.03245183 2.65000169 2.09483784 3.9375 3.1875 C8.08446238 6.5812386 11.7005695 6.53733496 16.91796875 6.75390625 C27.79141335 7.62212806 36.11365571 13.60729878 43.26171875 21.49609375 C53.11290873 33.45955367 53.11290873 33.45955367 52.875 38.8125 C52 41 52 41 50 43 C47.66015625 42.984375 47.66015625 42.984375 45 42 C42.68359375 39.453125 42.68359375 39.453125 40.4375 36.25 C39.69371094 35.20328125 38.94992187 34.1565625 38.18359375 33.078125 C37.10271484 31.55445312 37.10271484 31.55445312 36 30 C33.28893116 26.27701525 30.88199315 24.02262298 26.875 21.75 C25.57175781 20.99976563 25.57175781 20.99976563 24.2421875 20.234375 C19.08460464 17.39500883 14.85666853 17.17432869 9 18 C-0.16789105 21.18258256 -6.48011719 25.69004963 -12.81640625 33.05859375 C-15 35 -15 35 -17.66015625 35.359375 C-20 35 -20 35 -21.875 33.8125 C-23 32 -23 32 -22.890625 29.734375 C-21.71597308 26.12798753 -19.55327825 23.99604657 -16.875 21.4375 C-16.38016113 20.95224854 -15.88532227 20.46699707 -15.37548828 19.96704102 C-11.81769111 16.56264707 -8.37409429 14.18704714 -4 12 C-3.67 11.34 -3.34 10.68 -3 10 C-12.57774623 6.03679466 -23.18755052 5.26192401 -33 9 C-32.484375 9.556875 -31.96875 10.11375 -31.4375 10.6875 C-30 13 -30 13 -30.25 15.6875 C-31 18 -31 18 -32 19 C-36.6263792 19.492168 -39.5085834 18.9143874 -43.75 17 C-50.16568913 14.28791323 -56.06511504 13.68276643 -62.7421875 15.91796875 C-68.14844906 18.39650706 -71.60606606 21.13536135 -75 26 C-74.31292969 26.03738281 -73.62585938 26.07476562 -72.91796875 26.11328125 C-72.01691406 26.17902344 -71.11585938 26.24476562 -70.1875 26.3125 C-69.29417969 26.37050781 -68.40085938 26.42851563 -67.48046875 26.48828125 C-64.65901027 27.07034591 -63.69582659 27.70564637 -62 30 C-61.6875 32.5625 -61.6875 32.5625 -62 35 C-64 37 -64 37 -67.875 37.1875 C-70.03670565 37.16695147 -71.89249904 37.02698063 -73.9921875 36.5 C-80.3304662 34.92159597 -86.91521063 35.93735953 -93 38 C-95.93974276 40.32084955 -97.59618677 42.55534905 -99 46 C-99.36602197 49.36906585 -99.50412058 52.71668283 -99.65625 56.1015625 C-100 59 -100 59 -102 61 C-104.74337158 61.35171431 -106.32677131 61.46868313 -108.6328125 59.86328125 C-111.64021784 55.7646174 -110.50362175 49.81798143 -110 45 C-108.26038232 38.66816577 -104.78689176 32.37562775 -99.11328125 28.81640625 C-96.04269307 27.2197004 -93.25088599 26.06021264 -89.875 25.25 C-86.14943252 23.63018805 -84.90517374 21.43196804 -82.625 18.16015625 C-77.49061811 11.33488417 -70.4753586 6.49327962 -62.25 4.25 C-59 4 -59 4 -56.41796875 4.16015625 C-48.81886867 4.54857683 -43.83896764 3.04097922 -37.10546875 -0.4921875 C-25.7135542 -6.02335608 -11.20807801 -6.07488907 0 0 Z " fill="#355414" transform="translate(226,77)"/>
<path d="M0 0 C0.98871094 0.48082031 1.97742188 0.96164063 2.99609375 1.45703125 C9.58870687 5.00114525 9.58870687 5.00114525 11.3125 9.1875 C11 12 11 12 9.875 13.9375 C8 15 8 15 5.79296875 14.78515625 C2.34270242 13.81522124 -0.44449046 12.26313865 -3.5625 10.5 C-11.81286318 5.84545985 -18.49383319 5.08916684 -28 6 C-31.48874922 7.13741385 -34.11627673 8.75324372 -37 11 C-37.90105469 11.65742187 -37.90105469 11.65742187 -38.8203125 12.328125 C-43.89455507 16.65147069 -46.43577571 22.35920217 -49.16040039 28.3137207 C-50.95367552 32.18795472 -52.54438916 35.31385716 -56 38 C-60.3 37.7 -60.3 37.7 -62 36 C-62.71425077 26.89613701 -58.1528484 19.13915246 -52.77734375 12.08203125 C-50.60227002 9.6159528 -48.35816331 7.29054573 -46 5 C-45.42507813 4.40445313 -44.85015625 3.80890625 -44.2578125 3.1953125 C-31.99141752 -8.6015554 -14.24066201 -7.00089319 0 0 Z " fill="#355414" transform="translate(381,115)"/>
<path d="M0 0 C2 2 2 2 2.4375 4.875 C1.8501187 9.07058073 0.30168487 9.41607271 -3 12 C-9.14003442 21.01909362 -10.7922958 27.02268433 -10 38 C-7.99364804 47.76339424 -2.05697623 55.16721604 4.2265625 62.65234375 C6 65 6 65 6.375 67.6875 C6 70 6 70 4 72 C0.68409067 72.02769853 -1.86934333 71.9233333 -4.52050781 69.75830078 C-6.0032887 68.09108148 -7.32238549 66.37392257 -8.625 64.5625 C-9.0986499 63.93013428 -9.5722998 63.29776855 -10.06030273 62.64624023 C-19.11933805 50.28304511 -22.42678337 38.18665226 -21 23 C-19.22069235 14.41878207 -13.53703066 6.84033307 -6.9140625 1.234375 C-4.43798231 -0.36244406 -2.89219016 -0.38055134 0 0 Z " fill="#355414" transform="translate(310,150)"/>
<path d="M0 0 C2.4375 0.8125 2.4375 0.8125 4.4375 2.8125 C4.15853364 5.82533672 3.77431415 8.67980648 2.91015625 11.5859375 C1.21312487 19.58021755 1.24415414 29.62619355 5.4375 36.8125 C5.81648438 37.46347656 6.19546875 38.11445313 6.5859375 38.78515625 C10.19401141 44.19726712 14.7555685 47.34879323 20.2421875 50.7578125 C22.4375 52.8125 22.4375 52.8125 22.9453125 55.9296875 C22.77773437 56.88101563 22.61015625 57.83234375 22.4375 58.8125 C19.4375 60.8125 19.4375 60.8125 17.05078125 60.625 C8.66296155 58.01712781 1.38906638 50.8681962 -3.5625 43.8125 C-5.19282961 40.55656636 -6.4553618 37.27778001 -7.5625 33.8125 C-8.0575 32.3275 -8.0575 32.3275 -8.5625 30.8125 C-9.8332959 8.13368084 -9.8332959 8.13368084 -4.1171875 1.01171875 C-2.5625 -0.1875 -2.5625 -0.1875 0 0 Z " fill="#355414" transform="translate(121.5625,157.1875)"/>
</svg>
