<?xml version="1.0" encoding="UTF-8"?>
<svg id="Layer_1" xmlns="http://www.w3.org/2000/svg" viewBox="0 0 511.69 381.84">
  <defs>
    <style>
      .cls-1 {
        fill: #dd8301;
      }

      .cls-2 {
        fill: #fecc8c;
      }

      .cls-3 {
        fill: #efb76f;
      }

      .cls-4 {
        fill: #c87701;
      }

      .cls-5 {
        fill: #eeb76e;
      }
    </style>
  </defs>
  <path class="cls-4" d="M200.43,380.02c-36.33,2.54-72.72,1.85-109.03.49-20.23-.76-30.77-15.62-30.87-39.65-.21-50.8-.42-101.61.16-152.4.14-12.57-2.26-19.92-14.75-25.82C13.49,147.31-4.56,109.97,1,74.97,7.23,35.71,34.29,6.54,71.98,2.55c35.66-3.77,71.62-2.46,107.45-.44-4.26,2.61-8.57,5.16-12.79,7.84-28.2,17.91-45.49,42.29-44.33,78,1.11,34.21,15.61,59.94,45.42,75.44,10.93,5.68,14.7,13.75,14.63,25.78-.29,47.14.42,94.3-.33,141.43-.31,19.56,3.06,36.57,18.4,49.43Z"/>
  <path class="cls-1" d="M200.43,380.02c-15.34-12.86-18.71-29.87-18.4-49.43.75-47.13.04-94.29.33-141.43.07-12.02-3.7-20.09-14.63-25.78-29.81-15.5-44.31-41.23-45.42-75.44-1.16-35.71,16.13-60.09,44.33-78,4.22-2.68,8.52-5.23,12.79-7.84,42.35-3.75,84.78-1.31,127.17-1.6,39.41-.27,78.84.58,118.25.92,40.54.34,73.79,24.74,83.48,61.29,10.78,40.65-4.72,78.16-42.43,99.86-7.82,4.5-8.4,10.01-8.38,17.42.11,50.86.08,101.71.04,152.57-.03,36.19-11.65,48.21-46.19,48.36-61.88.27-123.75.73-185.63.9-8.44.02-16.88-1.18-25.32-1.82ZM315.86,26.08c-35.92,0-71.85-.22-107.77.07-32.79.26-58.22,21.61-61.62,51.06-4,34.72,13.32,60.51,47.58,68.79,9.72,2.35,12.54,6.31,12.46,16.35-.46,57.51-.24,115.03-.21,172.55.01,20.1,1.02,21.32,19.94,21.34,61.87.09,123.74.1,185.61,0,19.28-.03,21.69-2.53,21.72-22.08.08-56.49.27-112.98-.16-169.47-.08-11.11,2.05-17.02,13.77-20.84,28.84-9.4,44.59-39.51,38.38-69.2-6.34-30.27-27.96-48.04-60.42-48.45-36.42-.45-72.85-.1-109.27-.12Z"/>
  <path class="cls-2" d="M315.86,26.09c36.42,0,72.85-.34,109.27.11,32.46.4,54.08,18.17,60.42,48.45,6.21,29.68-9.53,59.79-38.38,69.2-11.72,3.82-13.85,9.73-13.77,20.84.43,56.49.24,112.98.16,169.47-.03,19.54-2.44,22.04-21.72,22.08-61.87.1-123.74.1-185.61,0-18.92-.03-19.93-1.24-19.94-21.34-.03-57.52-.25-115.04.21-172.55.08-10.04-2.74-14-12.46-16.35-34.26-8.28-51.58-34.07-47.58-68.79,3.39-29.45,28.83-50.79,61.62-51.06,35.92-.29,71.85-.07,107.77-.06ZM422.01,104.41c-.25-16.97-10.92-27.49-27.56-27.18-16.41.31-26.39,11.1-26.35,28.5.03,16.24,11.56,28.59,26.78,28.72,15.67.13,27.38-12.84,27.12-30.05ZM364.77,144.15c-.35-12.38-7.93-20.2-17.97-20.13-10.26.07-19.57,9.56-19.14,19.51.44,10.07,10.32,19.56,20.16,18.55,11.1-1.15,16.63-8.1,16.94-17.93Z"/>
  <path class="cls-5" d="M422.01,104.41c.25,17.21-11.46,30.18-27.12,30.05-15.23-.13-26.75-12.49-26.78-28.72-.03-17.41,9.94-28.2,26.35-28.5,16.63-.31,27.3,10.21,27.56,27.18Z"/>
  <path class="cls-3" d="M364.77,144.15c-.32,9.83-5.84,16.78-16.94,17.93-9.84,1.02-19.73-8.48-20.16-18.55-.43-9.95,8.88-19.44,19.14-19.51,10.04-.07,17.62,7.75,17.97,20.13Z"/>
</svg>