<?xml version="1.0" encoding="UTF-8"?>
<svg id="Layer_1" xmlns="http://www.w3.org/2000/svg" viewBox="0 0 628.77 363.45">
  <defs>
    <style>
      .cls-1 {
        fill: #fcd601;
      }

      .cls-2 {
        fill: #fee800;
      }

      .cls-3 {
        fill: #e4e4e4;
      }

      .cls-4 {
        fill: #d2d3d3;
      }
    </style>
  </defs>
  <path class="cls-1" d="M82.1,297.35c-.29-.74-.5-1.49-.63-2.27,49.56-.08,99.11-.15,148.67-.24,36.42-.07,53.28-16.13,53.38-51.36.15-54.03-.96-108.09.43-162.09.8-31.06-1.46-59.49-31.19-78.5,33.02-.39,66.03-1,99.05-1.1,59.86-.18,119.72-.09,179.58-.04,40.82.04,60.1,18.96,60.1,58.83.01,60.69.11,121.39-.05,182.08-.07,27.82-11.84,44.1-37.32,52.73-6.99,2.76-14.34,2.41-21.67,2.41-90.99-.03-181.98.03-272.97-.04-59.13-.05-118.26-.27-177.39-.41Z"/>
  <path class="cls-2" d="M252.76,2.9c29.73,19.01,31.99,47.43,31.19,78.5-1.39,54-.28,108.05-.43,162.09-.1,35.23-16.97,51.29-53.38,51.36-49.56.09-99.12.16-148.67.24-22.19-7.37-34.13-22.09-34.22-45.12-.27-67.22-1.22-134.45-.34-201.65.36-27.35,18.56-46.14,47.15-46.8,52.86-1.22,105.85-3.26,158.71,1.39Z"/>
  <path class="cls-3" d="M82.1,297.35c59.13.14,118.26.37,177.39.41,90.99.07,181.98,0,272.97.04,7.34,0,14.68.36,21.67-2.41,14.66,5.44,29.87,1.71,44.8,2.32,19.3.79,29.24,6.7,29.83,19.53.61,13.49-9.88,20.86-29.87,20.95-2.27.01-4.53-.04-6.8-.07-188.34-.1-376.69-.2-565.03-.3C9.41,337.54-.21,330.4,0,317.76c.21-12.76,9.83-19.67,27.67-19.86,18.14-.19,36.28-.36,54.42-.54Z"/>
  <path class="cls-4" d="M27.05,337.84c188.34.1,376.69.2,565.03.3-4.08,20.78-8.91,24.96-30.55,24.97-167.33.07-334.65-.19-501.97.34-19.78.06-29.11-8.23-32.5-25.61Z"/>
</svg>