<?xml version="1.0" encoding="UTF-8"?>
<svg version="1.1" xmlns="http://www.w3.org/2000/svg" width="512" height="512">
<path d="M0 0 C0.92413938 -0.00445784 1.84827876 -0.00891569 2.80042237 -0.01350862 C3.81732819 -0.01332426 4.834234 -0.01313989 5.88195515 -0.01294994 C6.96101527 -0.01662663 8.04007539 -0.02030332 9.15183431 -0.02409142 C12.78602586 -0.0351493 16.42018884 -0.03897567 20.05439472 -0.04278088 C22.65266225 -0.04904392 25.25092888 -0.05569057 27.84919453 -0.0626936 C35.65968838 -0.0824557 43.47018352 -0.09252403 51.28069612 -0.10142139 C54.95911666 -0.10580483 58.63753576 -0.1111715 62.31595516 -0.11641026 C74.54450875 -0.13342252 86.77306145 -0.14791649 99.00162506 -0.155159 C102.17497668 -0.15706888 105.34832829 -0.15898921 108.52167988 -0.16094494 C109.70475677 -0.16167055 109.70475677 -0.16167055 110.9117342 -0.16241082 C123.68727334 -0.17071039 136.46271883 -0.19604606 149.23821708 -0.22852562 C162.35553652 -0.26160221 175.47280837 -0.27960831 188.59016973 -0.28280324 C195.95468408 -0.28496782 203.31906188 -0.29370871 210.68353558 -0.31926441 C217.61184122 -0.34325105 224.53989739 -0.3467933 231.46823597 -0.33650303 C234.01111448 -0.33600665 236.55400494 -0.3423569 239.09684658 -0.35605907 C242.56896894 -0.37372177 246.0402036 -0.36669845 249.51232624 -0.35352612 C250.51807845 -0.36449536 251.52383066 -0.37546461 252.5600602 -0.38676625 C259.37020159 -0.32441195 264.8208265 0.8814575 270.03754014 5.47533339 C276.59124499 12.60744514 275.7973171 21.31955183 275.75510883 30.39018726 C275.75598165 31.74503919 275.75773404 33.09989078 275.76028717 34.45474058 C275.76474968 38.16728328 275.75677213 41.87971012 275.74673104 45.59223807 C275.73808302 49.59965067 275.74101766 53.60705689 275.74253559 57.6144762 C275.74358359 64.55413259 275.73731591 71.49375133 275.72605991 78.43339825 C275.70979631 88.46692079 275.70459603 98.50042516 275.70208393 108.53395946 C275.69770818 124.81323992 275.68440232 141.09250033 275.66547871 157.37176991 C275.64711681 173.1842689 275.63298475 188.99676242 275.62446308 204.80926991 C275.62392709 205.79411741 275.62339109 206.77896492 275.62283885 207.79365629 C275.61867994 215.49596888 275.61476611 223.19828159 275.61092973 230.90059435 C275.59206708 268.64515501 275.55182935 306.38966544 275.5145998 344.13422108 C178.4945998 344.13422108 81.4745998 344.13422108 -18.4854002 344.13422108 C-18.68705695 261.39221784 -18.68705695 261.39221784 -18.72954082 226.86468983 C-18.73933025 218.96153175 -18.74943267 211.05837417 -18.7600584 203.15521717 C-18.76137715 202.16467968 -18.76269589 201.17414219 -18.7640546 200.15358841 C-18.78580353 184.1602957 -18.82522391 168.16709283 -18.87116418 152.1738534 C-18.91791524 135.76152027 -18.94569274 119.34923418 -18.95584267 102.9368372 C-18.96270463 92.8087681 -18.9843805 82.68095285 -19.02498253 72.55296189 C-19.05140421 65.60862343 -19.05940249 58.66441628 -19.05290709 51.7200312 C-19.04970329 47.71288871 -19.054628 43.70618992 -19.08142757 39.69912624 C-19.10579781 36.02846661 -19.10696411 32.35854814 -19.08989467 28.68785405 C-19.08678882 26.73524839 -19.10832036 24.78265118 -19.13080674 22.83017254 C-19.07020061 15.71387527 -18.39881128 10.52782781 -13.4854002 5.13422108 C-9.05253377 1.67658526 -5.59778695 0.01252238 0 0 Z " fill="#CBE1E0" transform="translate(112.48540019989014,167.86577892303467)"/>
<path d="M0 0 C19.14 0.33 38.28 0.66 58 1 C58 41.26 58 81.52 58 123 C-39.02 123 -136.04 123 -236 123 C-236 82.74 -236 42.48 -236 1 C-217.19 1 -198.38 1 -179 1 C-176.69 4.96 -174.38 8.92 -172 13 C-158.69026581 32.04387536 -138.45501158 45.99292684 -116 52 C-114.98421875 52.2784375 -113.9684375 52.556875 -112.921875 52.84375 C-97.03988829 56.62184375 -79.68046367 56.67960889 -64 52 C-62.79472656 51.6596875 -61.58945312 51.319375 -60.34765625 50.96875 C-46.64953952 46.78439236 -34.78551034 40.46293481 -24 31 C-23.24332031 30.38640625 -22.48664063 29.7728125 -21.70703125 29.140625 C-11.90497262 20.97505465 -6.0868693 11.15926038 0 0 Z " fill="#A3C5D9" transform="translate(330,389)"/>
<path d="M0 0 C0.92413938 -0.00445784 1.84827876 -0.00891569 2.80042237 -0.01350862 C3.81732819 -0.01332426 4.834234 -0.01313989 5.88195515 -0.01294994 C6.96101527 -0.01662663 8.04007539 -0.02030332 9.15183431 -0.02409142 C12.78602586 -0.0351493 16.42018884 -0.03897567 20.05439472 -0.04278088 C22.65266225 -0.04904392 25.25092888 -0.05569057 27.84919453 -0.0626936 C35.65968838 -0.0824557 43.47018352 -0.09252403 51.28069612 -0.10142139 C54.95911666 -0.10580483 58.63753576 -0.1111715 62.31595516 -0.11641026 C74.54450875 -0.13342252 86.77306145 -0.14791649 99.00162506 -0.155159 C102.17497668 -0.15706888 105.34832829 -0.15898921 108.52167988 -0.16094494 C109.70475677 -0.16167055 109.70475677 -0.16167055 110.9117342 -0.16241082 C123.68727334 -0.17071039 136.46271883 -0.19604606 149.23821708 -0.22852562 C162.35553652 -0.26160221 175.47280837 -0.27960831 188.59016973 -0.28280324 C195.95468408 -0.28496782 203.31906188 -0.29370871 210.68353558 -0.31926441 C217.61184122 -0.34325105 224.53989739 -0.3467933 231.46823597 -0.33650303 C234.01111448 -0.33600665 236.55400494 -0.3423569 239.09684658 -0.35605907 C242.56896894 -0.37372177 246.0402036 -0.36669845 249.51232624 -0.35352612 C250.51807845 -0.36449536 251.52383066 -0.37546461 252.5600602 -0.38676625 C259.37020159 -0.32441195 264.8208265 0.8814575 270.03754014 5.47533339 C275.41744955 11.33005466 275.8114968 18.23539094 275.75510883 25.75859547 C275.75767211 27.02325928 275.75767211 27.02325928 275.76028717 28.31347185 C275.76356863 31.12482177 275.75260057 33.93593043 275.74165058 36.74725819 C275.74108618 38.76796939 275.7414036 40.78868101 275.74253559 42.80939198 C275.74310896 48.28611156 275.73135708 53.76274338 275.71738768 59.23944259 C275.70487779 64.9662915 275.70370961 70.69314247 275.70133686 76.42000294 C275.69512286 87.26061679 275.67871309 98.10119027 275.65863788 108.94178635 C275.63627642 121.28511811 275.62528482 133.6284518 275.61524701 145.97179878 C275.59434682 171.35930042 275.55767153 196.7467467 275.5145998 222.13422108 C256.7045998 222.13422108 237.8945998 222.13422108 218.5145998 222.13422108 C221.5145998 213.13422108 221.5145998 213.13422108 222.83100605 209.29047108 C225.1029835 202.62410465 227.17769834 196.06180139 228.5145998 189.13422108 C227.3595998 189.09297108 226.2045998 189.05172108 225.0145998 189.00922108 C218.45472975 188.18342183 214.17772116 184.1912396 210.1395998 179.19672108 C206.1098832 171.60225518 206.23062658 164.58428159 206.25922871 156.13397694 C206.25367143 154.14103242 206.24810982 152.1480879 206.24238467 150.15514386 C206.23805825 148.02383094 206.23851077 145.89256475 206.24020481 143.76124859 C206.24304874 139.31052047 206.22864693 134.85994967 206.21122456 130.40926075 C206.16429686 117.75730188 206.14025193 105.10535498 206.13374043 92.45331287 C206.1299878 85.45694841 206.11194687 78.46076328 206.07864606 71.46447569 C206.05845868 67.04286248 206.05604782 62.62171258 206.06692624 58.20007217 C206.07014986 54.80163485 206.04743465 51.40345643 206.02875996 48.00507069 C206.03693241 46.78464069 206.04510487 45.5642107 206.05352497 44.30679798 C205.99164368 37.98741498 205.90725314 33.86356759 201.5145998 29.13422108 C197.2713551 26.30539128 193.49725451 26.48154107 188.5145998 27.13422108 C184.88441895 29.25182657 183.01323033 31.25017833 181.5145998 35.13422108 C181.21332136 38.50851699 181.21332136 38.50851699 181.25922871 42.330266 C181.25560825 43.04791126 181.2519878 43.76555653 181.24825764 44.50494862 C181.24137511 46.06053555 181.23885606 47.61614658 181.24020481 49.17174816 C181.2411724 51.64046785 181.2281986 54.10875489 181.21122456 56.57741261 C181.16503597 63.59541909 181.14036956 70.61338225 181.13374043 77.63153553 C181.12870335 81.92870095 181.10433915 86.22541677 181.06841373 90.52242947 C181.05866278 92.15333122 181.05625792 93.7842952 181.06158543 95.4152174 C181.0957591 106.39635497 180.58439699 115.82707691 172.5145998 124.13422108 C164.96761866 129.79445693 157.79870376 130.03973346 148.5145998 129.13422108 C141.40887725 126.64274918 136.21645898 120.57505111 132.95489216 113.98079395 C131.33767691 110.12839229 131.1425976 106.74382989 131.14570332 102.54999256 C131.1400536 101.46563923 131.1400536 101.46563923 131.13428974 100.35937977 C131.127893 98.80220233 131.12815349 97.24498578 131.13447475 95.68780804 C131.14363875 93.21957371 131.13330252 90.75209033 131.11785603 88.28389454 C131.0778951 81.27120487 131.07655563 74.25857801 131.07880878 67.24579334 C131.07885995 62.94521062 131.05966461 58.64503615 131.02947521 54.34456539 C131.01867929 51.91923441 131.03075978 49.49469178 131.04330158 47.06938648 C131.03439491 45.57593483 131.02431974 44.08248954 131.01289082 42.58905506 C131.01305698 41.29112522 131.01322315 39.99319538 131.01339436 38.65593433 C130.42547076 34.5049301 129.13773421 32.36889241 126.5145998 29.13422108 C123.0868223 26.84903608 121.83964533 26.87895197 117.8076601 26.8624773 C116.02404827 26.84789982 116.02404827 26.84789982 114.20440388 26.83302784 C112.89830662 26.8324387 111.59220936 26.83184956 110.24653339 26.83124256 C108.85856347 26.8235822 107.47059819 26.81503598 106.08263874 26.80566883 C103.09353721 26.78738477 100.10449833 26.77534981 97.11534977 26.7681303 C92.39327131 26.75665827 87.67133182 26.7312097 82.9493227 26.70381641 C75.48495061 26.6621587 68.02057189 26.62974532 60.55613863 26.60134226 C47.17748175 26.55035618 33.79888227 26.48833746 20.42032397 26.41600186 C15.72150062 26.39102359 11.0226958 26.37161765 6.32383037 26.35661972 C3.40768024 26.34644761 0.49155892 26.33230223 -2.42456913 26.31714344 C-4.43178734 26.30800687 -6.4390264 26.30388962 -8.44626141 26.29988575 C-9.62969631 26.29298725 -10.81313122 26.28608875 -12.03242779 26.27898121 C-13.06739202 26.2751263 -14.10235626 26.27127138 -15.16868305 26.26729965 C-17.4854002 26.13422108 -17.4854002 26.13422108 -18.4854002 25.13422108 C-19.26005502 18.21766016 -19.17963984 12.48664797 -14.9854002 6.75531483 C-10.71587417 2.14111352 -6.1928721 0.0138536 0 0 Z " fill="#FADECA" transform="translate(112.48540019989014,167.86577892303467)"/>
<path d="M0 0 C4.7340907 4.61270376 7.09603822 8.54939183 7.52734375 15.140625 C7.32552334 20.15981092 5.2539287 23.88850063 1.77929688 27.37768555 C-3.82900953 32.002209 -11.08180576 32.499215 -18.03125 33.64453125 C-19.64835061 33.92884899 -21.26508036 34.21528254 -22.88146973 34.50361633 C-26.46595821 35.13828298 -30.05264881 35.75785016 -33.64160156 36.36676025 C-39.94486997 37.43656967 -46.24202942 38.54016186 -52.5390625 39.64599609 C-61.89361947 41.28552502 -71.24905661 42.91991955 -80.60546875 44.54882812 C-81.78893387 44.75505232 -82.97239899 44.96127651 -84.19172668 45.17374992 C-90.29410379 46.23624864 -96.39741515 47.2929122 -102.50244141 48.34008789 C-108.51907235 49.37254349 -114.5329979 50.41960814 -120.54536438 51.47660255 C-122.81222563 51.87232572 -125.08003827 52.26264022 -127.34880066 52.64731407 C-130.48839633 53.18026794 -133.62418761 53.73180855 -136.75976562 54.2878418 C-137.68418961 54.44012741 -138.60861359 54.59241302 -139.56105042 54.74931335 C-144.54383828 55.65545112 -147.92210723 56.59161642 -151.5625 60.375 C-152.34804836 62.73164508 -152.52891275 64.86508446 -152.69140625 67.33203125 C-152.97853456 70.62484317 -153.18273724 72.89124219 -155.25463867 75.53051758 C-157.94908198 77.68396296 -159.79989821 78.19790616 -163.17578125 78.82421875 C-164.25923828 79.03240234 -165.34269531 79.24058594 -166.45898438 79.45507812 C-167.58626953 79.65552734 -168.71355469 79.85597656 -169.875 80.0625 C-170.99068359 80.27455078 -172.10636719 80.48660156 -173.25585938 80.70507812 C-178.67595607 81.7235551 -184.09442226 82.65696959 -189.5625 83.375 C-189.52769531 84.05304688 -189.49289063 84.73109375 -189.45703125 85.4296875 C-189.19971122 94.27659535 -190.04511692 101.73841742 -195.8125 108.75 C-201.50488945 114.69458392 -207.11085484 116.99774194 -215.25 117.6875 C-221.71055974 117.58961273 -227.50603316 115.07382043 -232.4375 111 C-234.67671066 108.23391624 -236.60649446 105.34583687 -238.5625 102.375 C-238.56660889 103.35259277 -238.57071777 104.33018555 -238.57495117 105.33740234 C-238.59693669 109.00946791 -238.6514214 112.68049116 -238.71508789 116.35205078 C-238.73810047 117.93267732 -238.75262382 119.51345356 -238.75805664 121.09423828 C-238.80240412 131.88091046 -239.40844577 140.17821804 -246.58984375 148.8125 C-247.22019531 149.328125 -247.85054688 149.84375 -248.5 150.375 C-249.44166016 151.179375 -249.44166016 151.179375 -250.40234375 152 C-256.91061526 156.14269724 -264.10094191 156.12298015 -271.5625 155.375 C-274.57028473 154.44287502 -276.9710656 153.14385498 -279.5625 151.375 C-280.449375 150.83875 -281.33625 150.3025 -282.25 149.75 C-289.31223948 142.49688919 -290.08135226 134.96141396 -290.03959656 125.271698 C-290.00144529 122.59721228 -289.93888437 119.92398263 -289.875 117.25 C-289.8498796 115.41669716 -289.82707306 113.58336108 -289.80664062 111.75 C-289.75195553 107.29083573 -289.66589262 102.83328997 -289.5625 98.375 C-291.45826782 98.15783325 -291.45826782 98.15783325 -293.39233398 97.9362793 C-301.50405253 97.00705394 -309.13741002 92.42557094 -314.5625 86.375 C-320.18446445 78.96475995 -325.13809185 70.66768897 -324.5625 61.0625 C-323.32651 56.50478688 -322.46978146 55.05646767 -318.5625 52.375 C-308.23460477 48.93357155 -297.07140086 47.59123725 -286.37109375 45.734375 C-284.32598246 45.37612681 -282.28094053 45.0174825 -280.23596191 44.65847778 C-275.81870617 43.88386246 -271.40098529 43.11197695 -266.98287964 42.34222412 C-259.88896439 41.10625492 -252.79609857 39.86433549 -245.70336914 38.62158203 C-236.78484808 37.05936528 -227.86605575 35.4987112 -218.94693661 33.9399128 C-200.65056745 30.74223742 -182.35620565 27.53318746 -164.0625 24.3203125 C-163.34182822 24.19374519 -162.62115645 24.06717789 -161.87864614 23.93677521 C-155.35300766 22.79070874 -148.82738062 21.64457717 -142.30177402 20.49832916 C-133.92792039 19.02746163 -125.55395213 17.55724936 -117.1798296 16.08791351 C-114.50727382 15.61897978 -111.83474299 15.14990429 -109.16223431 14.68070221 C-102.69712047 13.54572788 -96.23176078 12.41218718 -89.76585388 11.28173828 C-78.65704891 9.33764927 -67.55106106 7.38172318 -56.4562788 5.35892296 C-51.74900753 4.50093469 -47.04038769 3.6504748 -42.33172798 2.8001442 C-40.15017966 2.40364773 -37.96936244 2.00310262 -35.78938103 1.59807968 C-7.86851794 -3.58914853 -7.86851794 -3.58914853 0 0 Z " fill="#F9E6D2" transform="translate(414.5625,1.625)"/>
<path d="M0 0 C35.36815158 0.04925926 35.36815158 0.04925926 50.18359375 0.11132812 C60.41522457 0.15395896 70.6466895 0.19141391 80.87841797 0.19555664 C88.33000775 0.19859732 95.78131048 0.21910153 103.2327894 0.26052457 C107.1779091 0.28184714 111.12262079 0.29445919 115.06779861 0.28615379 C118.78297464 0.27860864 122.4973243 0.29445379 126.21234894 0.32806015 C128.22219236 0.34020457 130.23213759 0.32770971 132.24197388 0.31443787 C142.0930197 0.4396169 142.0930197 0.4396169 145.77223206 3.43139648 C150.2530544 8.59775865 150.28817413 12.22682251 150.23046875 18.88671875 C150.23001053 19.74433304 150.22955231 20.60194733 150.2290802 21.48554993 C150.22606463 23.29352202 150.21819915 25.10149167 150.20581055 26.90942383 C150.18749832 29.68775547 150.18530133 32.4657548 150.18554688 35.24414062 C150.18063359 37.0000029 150.17480611 38.75586291 150.16796875 40.51171875 C150.16685593 41.34708664 150.1657431 42.18245453 150.16459656 43.0431366 C150.11606528 48.88393472 150.11606528 48.88393472 149 50 C147.24478689 50.09585508 145.48892598 50.18480102 143.73193359 50.23901367 C117.63548671 51.09823819 94.74280767 60.81618835 76 79 C75.32710938 79.59941406 74.65421875 80.19882812 73.9609375 80.81640625 C69.63872962 84.80282507 66.23653391 89.22533533 62.9375 94.0625 C62.55013672 94.6208252 62.16277344 95.17915039 61.76367188 95.75439453 C57.29025201 102.54081809 54.53113591 109.4332802 51 117 C34.17 117 17.34 117 0 117 C0 78.39 0 39.78 0 0 Z " fill="#C2DBDF" transform="translate(94,193)"/>
<path d="M0 0 C97.02 0 194.04 0 294 0 C294 8.25 294 16.5 294 25 C196.98 25 99.96 25 0 25 C0 16.75 0 8.5 0 0 Z " fill="#C0D9DE" transform="translate(94,487)"/>
<path d="M0 0 C9.53509886 2.47450663 20.53573541 11.98038814 26 20 C28.87107624 24.91804727 31.13047375 29.50845171 31.11352539 35.2878418 C31.11344986 36.14850754 31.11337433 37.00917328 31.11329651 37.8959198 C31.10813522 38.82100845 31.10297394 39.74609711 31.09765625 40.69921875 C31.0962413 41.64940384 31.09482635 42.59958893 31.09336853 43.5785675 C31.08776875 46.61491029 31.07521632 49.65117948 31.0625 52.6875 C31.05748497 54.74544164 31.05292207 56.80338444 31.04882812 58.86132812 C31.03865008 63.90760329 31.01907456 68.9537192 31 74 C40.57 74 50.14 74 60 74 C59.94199219 71.10734375 59.88398438 68.2146875 59.82421875 65.234375 C59.78508835 62.39455906 59.75480655 59.55477455 59.7253418 56.71484375 C59.70038637 54.75962613 59.6664093 52.80449996 59.62280273 50.84960938 C59.32009227 36.91780535 59.89774158 26.26145156 68.8125 14.875 C72.88023749 10.65609659 77.4134021 7.41802065 82.3125 4.25 C83.00641846 3.7947998 83.70033691 3.33959961 84.4152832 2.87060547 C86.42578125 1.640625 86.42578125 1.640625 90 0 C93.03374818 1.08537043 95.3043158 2.92368811 97.7578125 4.9765625 C98.46172119 5.56163574 99.16562988 6.14670898 99.89086914 6.74951172 C100.62813232 7.36842285 101.36539551 7.98733398 102.125 8.625 C103.64669386 9.89115586 105.16882779 11.15678303 106.69140625 12.421875 C107.42762207 13.03482422 108.16383789 13.64777344 108.92236328 14.27929688 C112.90300972 17.57607668 116.94665324 20.79317529 121 24 C120.43700665 28.52677088 120.43700665 28.52677088 118.5390625 30.58203125 C113.68229161 33.70424111 109.53778119 34.88598931 103.7421875 34.62109375 C98.79487391 33.50054836 95.61929283 30.39484056 92 27 C90.81840779 26.01371229 89.6316995 25.03348464 88.4375 24.0625 C87.633125 23.381875 86.82875 22.70125 86 22 C85.95350815 22.78485275 85.9070163 23.56970551 85.8591156 24.37834167 C85.31840023 32.44974205 84.24064592 40.28521759 82.78515625 48.23828125 C82.5693541 49.44389206 82.35355194 50.64950287 82.13121033 51.89164734 C81.67782744 54.41732488 81.22137602 56.94245339 80.76196289 59.46704102 C80.06139488 63.31857565 79.37073744 67.17178878 78.68164062 71.02539062 C78.23755547 73.49229131 77.79291336 75.95909182 77.34765625 78.42578125 C77.14237808 79.5686409 76.93709991 80.71150055 76.7256012 81.88899231 C76.43035805 83.50688911 76.43035805 83.50688911 76.12915039 85.1574707 C75.95895889 86.09532913 75.7887674 87.03318756 75.61341858 87.99946594 C74.85853078 91.69199603 73.91409338 95.34362648 73 99 C54.85 99 36.7 99 18 99 C16.4325 90.75 14.865 82.5 13.25 74 C12.7643457 71.45152344 12.27869141 68.90304687 11.77832031 66.27734375 C8.98385853 51.54946516 6.38863418 36.7991577 4 22 C2.92141724 23.12172607 2.92141724 23.12172607 1.82104492 24.26611328 C-7.71630094 34.18495298 -7.71630094 34.18495298 -15.75 34.5 C-21.71557341 34.42834146 -25.48810272 31.66182968 -30 28 C-29.67805625 25.01563251 -29.39503833 23.40847501 -27.27734375 21.21875 C-26.11912109 20.36796875 -26.11912109 20.36796875 -24.9375 19.5 C-24.04804688 18.82710938 -23.15859375 18.15421875 -22.2421875 17.4609375 C-21.73655273 17.08163086 -21.23091797 16.70232422 -20.70996094 16.31152344 C-17.26109043 13.66627324 -13.92321621 10.88071893 -10.5625 8.125 C-9.19005713 7.00106987 -7.81642859 5.87858542 -6.44140625 4.7578125 C-5.85045166 4.2745752 -5.25949707 3.79133789 -4.65063477 3.29345703 C-3.15544294 2.12180693 -1.58053698 1.05369132 0 0 Z " fill="#F9D9C6" transform="translate(195,307)"/>
<path d="M0 0 C4.7340907 4.61270376 7.09603822 8.54939183 7.52734375 15.140625 C7.31773098 20.35360338 5.17627563 23.52489156 1.83569336 27.36889648 C-3.94332374 32.14849915 -11.76217306 32.60577594 -18.93359375 33.78515625 C-20.5783877 34.07314537 -22.22278599 34.36340227 -23.86680603 34.65577698 C-27.33129334 35.26885408 -30.79760781 35.86954112 -34.26580811 36.46124268 C-39.45151126 37.34971871 -44.6271436 38.28836921 -49.80126953 39.24169922 C-57.48945073 40.65671615 -65.18109905 42.05044454 -72.87658119 43.42520714 C-77.23127864 44.20335204 -81.58512295 44.98570035 -85.93725586 45.77807617 C-90.27065059 46.56698509 -94.60577824 47.34560473 -98.94231987 48.11702156 C-100.56024756 48.40651882 -102.17756328 48.69946204 -103.7941761 48.99621391 C-112.76459084 50.63986568 -121.40027115 51.82366317 -130.5625 51.375 C-131.20916881 47.35430043 -131.85477555 43.33343163 -132.5 39.3125 C-132.77360352 37.6119043 -132.77360352 37.6119043 -133.05273438 35.87695312 C-133.22998047 34.77158203 -133.40722656 33.66621094 -133.58984375 32.52734375 C-133.75218506 31.51663818 -133.91452637 30.50593262 -134.08178711 29.46459961 C-134.60446775 26.10526825 -135.0841597 22.74090108 -135.5625 19.375 C-120.27378762 16.62322429 -104.98278816 13.88444794 -89.68903828 11.16082001 C-82.58675377 9.89568371 -75.48525445 8.62642208 -68.38549805 7.34716797 C-62.19201458 6.23121978 -55.99715643 5.12329635 -49.8005721 4.02469206 C-46.52439308 3.44357131 -43.24930368 2.85747604 -39.97530556 2.26411438 C-36.30603952 1.59982033 -32.63450703 0.94973772 -28.9621582 0.30273438 C-27.89615891 0.10636887 -26.83015961 -0.08999664 -25.7318573 -0.29231262 C-7.55119877 -3.44440646 -7.55119877 -3.44440646 0 0 Z " fill="#545970" transform="translate(414.5625,1.625)"/>
<path d="M0 0 C1.35919847 -0.03162435 2.71812158 -0.07936782 4.07617188 -0.14355469 C15.40574171 -0.67137676 15.40574171 -0.67137676 18.65869141 2.23461914 C19.96020508 4.37036133 19.96020508 4.37036133 20.85717773 6.50390625 C22.54766466 10.38260842 25.99982622 12.27882254 29.36645508 14.67895508 C32.43981845 15.76426822 34.91425333 15.42703275 38.13256836 15.18286133 C48.43868278 14.46562415 48.43868278 14.46562415 52.47192383 17.73364258 C54.19249373 20.26996922 55.57051025 22.68291822 56.73364258 25.51489258 C53.54668031 29.02608674 49.94531574 31.34247613 45.92114258 33.76489258 C36.23993008 39.84762372 29.43103578 47.0119129 26.73364258 58.51489258 C25.81532385 65.71872127 25.94128051 73.01523541 25.92114258 80.26489258 C25.89795951 82.23366981 25.87258638 84.20242253 25.8449707 86.17114258 C25.77855673 90.95294888 25.75708852 95.73191978 25.73364258 100.51489258 C16.16364258 100.51489258 6.59364258 100.51489258 -3.26635742 100.51489258 C-3.29213867 97.51524414 -3.31791992 94.5155957 -3.34448242 91.42504883 C-3.38297708 88.49583858 -3.42811338 85.56679996 -3.47387695 82.63769531 C-3.50197242 80.61369117 -3.52324337 78.58957964 -3.53735352 76.56542969 C-3.55894191 73.64308137 -3.60567255 70.7220088 -3.65698242 67.80004883 C-3.65821106 66.90592789 -3.6594397 66.01180695 -3.66070557 65.09059143 C-3.87088016 55.92185904 -7.40519465 47.58580096 -13.80541992 40.90942383 C-19.95615265 35.19055106 -27.15525349 30.91938251 -34.26635742 26.51489258 C-18.33589939 0.32920219 -18.33589939 0.32920219 0 0 Z " fill="#676478" transform="translate(229.266357421875,280.485107421875)"/>
<path d="M0 0 C16.83 0 33.66 0 51 0 C49.68 6.6 48.36 13.2 47 20 C44.34861251 38.55971244 47.5090151 54.82788357 53.6953125 72.26953125 C55 76 55 76 56 80 C37.52 80 19.04 80 0 80 C0 53.6 0 27.2 0 0 Z " fill="#EC8683" transform="translate(94,310)"/>
<path d="M0 0 C6.6 0 13.2 0 20 0 C20 26.4 20 52.8 20 80 C1.19 80 -17.62 80 -37 80 C-34 71 -34 71 -32.68359375 67.12109375 C-30.54372688 60.7954058 -28.46430667 54.52282062 -27 48 C-26.29875 47.91363281 -25.5975 47.82726562 -24.875 47.73828125 C-16.91070985 46.55878719 -11.40864487 44.40864487 -5.6875 38.6875 C-0.58396397 30.55964632 -0.47953796 22.89230593 -0.3125 13.5 C-0.27833984 12.200625 -0.24417969 10.90125 -0.20898438 9.5625 C-0.1269607 6.37529416 -0.06179292 3.18766225 0 0 Z " fill="#DC475D" transform="translate(368,310)"/>
<path d="M0 0 C1.72276073 4.74882739 2.76062947 9.41809963 3.625 14.375 C3.82609375 15.45007813 3.82609375 15.45007813 4.03125 16.546875 C4.89566037 21.43343976 5.12320145 26.03834142 5 31 C6.98 31 8.96 31 11 31 C11 31.33 11 31.66 11 32 C10.35973877 32.10022461 9.71947754 32.20044922 9.05981445 32.30371094 C6.14123343 32.76983832 3.22710637 33.25965819 0.3125 33.75 C-0.69490234 33.90726563 -1.70230469 34.06453125 -2.74023438 34.2265625 C-10.13237698 35.48402187 -10.13237698 35.48402187 -16 40 C-16.78554836 42.35664508 -16.96641275 44.49008446 -17.12890625 46.95703125 C-17.41615947 50.25127559 -17.61979875 52.5163117 -19.69433594 55.15551758 C-22.37816241 57.30252192 -24.21535277 57.82126797 -27.578125 58.44921875 C-28.65707031 58.65740234 -29.73601562 58.86558594 -30.84765625 59.08007812 C-31.97042969 59.28052734 -33.09320313 59.48097656 -34.25 59.6875 C-35.91095703 60.00557617 -35.91095703 60.00557617 -37.60546875 60.33007812 C-43.40748409 61.4235614 -49.12809823 62.26601228 -55 63 C-55 45.18 -55 27.36 -55 9 C-44.33477319 6.9919029 -33.6686496 4.98965597 -23 3 C-21.98115723 2.80905762 -20.96231445 2.61811523 -19.91259766 2.42138672 C-17.56774514 1.98345296 -15.22180631 1.5523158 -12.875 1.125 C-11.65554688 0.90070312 -10.43609375 0.67640625 -9.1796875 0.4453125 C-6.07268579 0.01017958 -3.13256903 -0.08569338 0 0 Z " fill="#C8CBD8" transform="translate(279,22)"/>
<path d="M0 0 C0 38.61 0 77.22 0 117 C-6.6 117 -13.2 117 -20 117 C-20.09036525 103.15256751 -20.1637534 89.30533082 -20.20724869 75.45767021 C-20.22812412 69.0276583 -20.25644168 62.59785855 -20.30175781 56.16796875 C-20.34521605 49.96287068 -20.36913744 43.7579767 -20.37950897 37.55273819 C-20.38690029 35.1852408 -20.40133371 32.8177546 -20.42292023 30.45034409 C-20.45195294 27.13445639 -20.45595592 23.8194123 -20.45410156 20.50341797 C-20.46848267 19.5244606 -20.48286377 18.54550323 -20.49768066 17.53688049 C-20.46229177 11.6894488 -19.82264549 8.49101463 -16 4 C-13.05437211 1.20344235 -10.89366897 0.5824106 -6.875 0.3125 C-5.57175781 0.21388672 -5.57175781 0.21388672 -4.2421875 0.11328125 C-2.82942284 0.04190464 -1.41456658 0 0 0 Z " fill="#A3C5D9" transform="translate(388,193)"/>
<path d="M0 0 C9.53509886 2.47450663 20.53573541 11.98038814 26 20 C28.87107624 24.91804727 31.13047375 29.50845171 31.11352539 35.2878418 C31.11344986 36.14850754 31.11337433 37.00917328 31.11329651 37.8959198 C31.10813522 38.82100845 31.10297394 39.74609711 31.09765625 40.69921875 C31.0962413 41.64940384 31.09482635 42.59958893 31.09336853 43.5785675 C31.08776875 46.61491029 31.07521632 49.65117948 31.0625 52.6875 C31.05748497 54.74544164 31.05292207 56.80338444 31.04882812 58.86132812 C31.0377994 63.90758046 31.02053493 68.95377775 31 74 C27.96960449 74.68664551 27.96960449 74.68664551 24.93920898 75.37329102 C22.24111191 76.24525566 21.28010397 77.5150923 20 80 C18.99740493 83.00778521 18.69685358 85.53820647 18.4375 88.6875 C18.35371094 89.68136719 18.26992187 90.67523438 18.18359375 91.69921875 C18.12300781 92.45847656 18.06242187 93.21773438 18 94 C17.67 94 17.34 94 17 94 C15.7878314 87.60420641 14.57988186 81.20762515 13.37451172 74.81054688 C12.96624384 72.64631217 12.55710087 70.48224231 12.14697266 68.31835938 C9.22749821 52.91042051 6.51166441 37.47975395 4 22 C2.92141724 23.12172607 2.92141724 23.12172607 1.82104492 24.26611328 C-7.71630094 34.18495298 -7.71630094 34.18495298 -15.75 34.5 C-21.71557341 34.42834146 -25.48810272 31.66182968 -30 28 C-29.67805625 25.01563251 -29.39503833 23.40847501 -27.27734375 21.21875 C-26.11912109 20.36796875 -26.11912109 20.36796875 -24.9375 19.5 C-24.04804688 18.82710938 -23.15859375 18.15421875 -22.2421875 17.4609375 C-21.73655273 17.08163086 -21.23091797 16.70232422 -20.70996094 16.31152344 C-17.26109043 13.66627324 -13.92321621 10.88071893 -10.5625 8.125 C-9.19005713 7.00106987 -7.81642859 5.87858542 -6.44140625 4.7578125 C-5.85045166 4.2745752 -5.25949707 3.79133789 -4.65063477 3.29345703 C-3.15544294 2.12180693 -1.58053698 1.05369132 0 0 Z " fill="#F8E0CE" transform="translate(195,307)"/>
<path d="M0 0 C3.12578143 1.6720747 5.39281175 3.7856235 7 7 C7.09275395 9.41094362 7.12584719 11.79268319 7.11352539 14.20361328 C7.11367142 14.9451767 7.11381744 15.68674011 7.1139679 16.45077515 C7.11327 18.90731713 7.10548334 21.36378373 7.09765625 23.8203125 C7.09579163 25.5213924 7.09436794 27.22247284 7.09336853 28.92355347 C7.08954678 33.40506467 7.0797194 37.88654357 7.06866455 42.36804199 C7.05844308 46.9393673 7.05386933 51.51069781 7.04882812 56.08203125 C7.03809685 65.05470171 7.02102451 74.02734817 7 83 C6.53103302 82.59782761 6.06206604 82.19565521 5.57888794 81.78129578 C4.95746918 81.24849503 4.33605042 80.71569427 3.69580078 80.16674805 C3.0824588 79.64082565 2.46911682 79.11490326 1.83718872 78.57304382 C-0.80775808 76.3083787 -3.46144564 74.05531013 -6.125 71.8125 C-7.11757813 70.97332031 -8.11015625 70.13414062 -9.1328125 69.26953125 C-11.83763494 66.96499133 -11.83763494 66.96499133 -14.63876343 65.70051575 C-17 64 -17 64 -17.63491821 61.51567078 C-17.63889618 60.52783096 -17.64287415 59.53999115 -17.64697266 58.5222168 C-17.66273346 57.40062668 -17.67849426 56.27903656 -17.69473267 55.12345886 C-17.68461151 53.91095963 -17.67449036 52.69846039 -17.6640625 51.44921875 C-17.66884613 50.20251907 -17.67362976 48.9558194 -17.67855835 47.67134094 C-17.68196525 45.03009751 -17.67522453 42.39115884 -17.65185547 39.75024414 C-17.62908898 37.04656051 -17.62897338 34.34455168 -17.65185547 31.64086914 C-17.68279547 27.74314313 -17.67898412 23.84701231 -17.6640625 19.94921875 C-17.67418365 18.74279221 -17.68430481 17.53636566 -17.69473267 16.29338074 C-17.56450836 6.94806045 -17.56450836 6.94806045 -14.58349609 3.25317383 C-10.05616502 -0.69529891 -5.85689905 -0.82516801 0 0 Z " fill="#AECDDB" transform="translate(311,194)"/>
<path d="M0 0 C0 16.83 0 33.66 0 51 C-9.92180949 49.75977381 -18.20190372 46.58187679 -25 39 C-30.62196445 31.58975995 -35.57559185 23.29268897 -35 13.6875 C-33.76401 9.12978688 -32.90728146 7.68146767 -29 5 C-19.89668181 1.82763154 -9.62490296 0 0 0 Z " fill="#EBE7E9" transform="translate(125,49)"/>
<path d="M0 0 C0.89014801 -0.00761353 1.78029602 -0.01522705 2.69741821 -0.02307129 C4.57852376 -0.03386484 6.45968919 -0.03672841 8.34082031 -0.03222656 C11.21000909 -0.0312556 14.0765107 -0.07285505 16.9453125 -0.1171875 C18.77603611 -0.12239587 20.60676898 -0.12508267 22.4375 -0.125 C23.71746353 -0.1495929 23.71746353 -0.1495929 25.02328491 -0.17468262 C29.26857904 -0.12576016 32.01316102 0.16005336 35.37744141 2.88085938 C42.22760627 10.04602096 38.8515625 11.24450962 38.8515625 25.46875 C20.7015625 25.46875 2.5515625 25.46875 -16.1484375 25.46875 C-16.1484375 6.89576723 -16.1484375 6.89576723 -11.53271484 1.62304688 C-7.78204799 -0.19275825 -4.11550997 0.00096684 0 0 Z " fill="#FE9C93" transform="translate(229.1484375,380.53125)"/>
</svg>
