<?xml version="1.0" encoding="UTF-8"?>
<svg version="1.1" xmlns="http://www.w3.org/2000/svg" width="512" height="512">
<path d="M0 0 C0.692146 -0.00067474 1.38429199 -0.00134949 2.09741211 -0.00204468 C67.20184375 0.097529 130.43923868 24.1688378 178.5703125 68.1015625 C180.66371846 70.00151841 182.78945674 71.85001721 184.9375 73.6875 C192.5394477 80.34111619 199.36607095 87.5160363 205.66015625 95.4140625 C208.00389842 98.33268482 210.43564034 101.16105724 212.875 104 C245.84076274 143.67066363 266.72671539 199.60085971 267.17578125 251.20703125 C267.1855751 252.13975357 267.19536896 253.07247589 267.20545959 254.03346252 C267.3781265 274.75424289 267.23196542 294.88560577 262.9375 315.25 C262.61604004 316.78889893 262.61604004 316.78889893 262.28808594 318.35888672 C251.64744687 367.62024413 224.19221822 428.86091762 180.05859375 457.41796875 C175.46934735 460.11178172 170.93174062 462.40697343 165.9375 464.25 C165.09832031 464.56839844 164.25914062 464.88679688 163.39453125 465.21484375 C146.09111501 470.6330852 125.91892802 468.32352765 110.0144043 460.13696289 C94.77763504 451.86738902 86.34906287 438.44951076 76.89746094 424.47583008 C72.89080346 418.57205431 68.7012433 412.84408241 64.38500977 407.16430664 C60.30088862 401.77627163 56.38769292 396.28174917 52.50756836 390.74560547 C48.86203551 385.54751008 45.16430704 380.39009835 41.4375 375.25 C36.09746536 367.88070411 30.82890823 360.463617 25.59375 353.01953125 C23.0595958 349.41674658 20.50166994 345.83147649 17.9375 342.25 C13.80219632 346.02042394 10.70585142 350.49168192 7.4375 355 C6.17767248 356.72438892 4.91724655 358.44834078 3.65625 360.171875 C3.02847656 361.03103516 2.40070313 361.89019531 1.75390625 362.77539062 C-0.82417835 366.28768438 -3.44001797 369.77079911 -6.0625 373.25 C-9.8011581 378.21367052 -13.50152732 383.20304436 -17.1730957 388.21655273 C-23.04449138 396.23112563 -29.03086599 404.1378539 -35.15478516 411.96118164 C-39.14645467 417.06127142 -43.05861508 422.20996433 -46.9296875 427.40234375 C-61.22989445 446.49547721 -75.76542005 465.81440149 -92.0625 483.25 C-92.59488281 483.8584375 -93.12726563 484.466875 -93.67578125 485.09375 C-106.72475627 499.34076988 -127.3255465 507.48625544 -146.26171875 508.53125 C-170.29908381 509.31971938 -194.17558544 500.70748241 -211.875 484.375 C-213.97251652 482.36679341 -216.0228658 480.31676602 -218.0625 478.25 C-218.95839844 477.36441406 -219.85429687 476.47882813 -220.77734375 475.56640625 C-239.11330625 456.55238042 -245.79772066 433.52421042 -245.36328125 407.65234375 C-244.57423998 385.30916272 -232.35499154 366.66758121 -216.4375 351.75 C-210.65768559 346.73960621 -204.51908684 342.17819195 -198.41796875 337.5703125 C-194.44414624 334.56002621 -190.55821838 331.45352716 -186.6875 328.3125 C-179.63020735 322.61093059 -172.34676033 317.24372121 -165.0234375 311.890625 C-159.98091362 308.201946 -154.98910871 304.4479404 -150 300.6875 C-142.98421133 295.40767452 -135.91222052 290.21614867 -128.78100586 285.09350586 C-123.34460874 281.18596479 -117.94623507 277.22973603 -112.5625 273.25 C-101.13958436 264.80968876 -89.62487638 256.49803027 -78.0625 248.25 C-81.34208356 244.69165184 -85.0656073 242.05292305 -89.0625 239.375 C-90.50187965 238.39798577 -91.94065335 237.42007839 -93.37890625 236.44140625 C-94.51996826 235.66627686 -94.51996826 235.66627686 -95.68408203 234.87548828 C-99.81238001 232.05407502 -103.90594296 229.18327729 -108 226.3125 C-108.84473877 225.72049805 -109.68947754 225.12849609 -110.55981445 224.51855469 C-119.43029798 218.29740929 -128.27936142 212.04602889 -137.12597656 205.79101562 C-139.20872511 204.31864313 -141.29178761 202.84671615 -143.375 201.375 C-144.06730713 200.88572021 -144.75961426 200.39644043 -145.47290039 199.89233398 C-150.17530661 196.57238674 -154.89208047 193.27361316 -159.61499023 189.98291016 C-162.9820418 187.63297211 -166.34076174 185.27130098 -169.69824219 182.90771484 C-171.91900694 181.3506111 -174.15019931 179.80956815 -176.3828125 178.26953125 C-191.47294209 167.73211026 -201.04690474 153.9542427 -204.625 135.68359375 C-206.94211459 117.49838191 -203.88595366 99.80786143 -193.1796875 84.5703125 C-186.65961403 76.15813928 -179.18981736 69.17032351 -170.90234375 62.53125 C-169.06346157 61.05407367 -167.24171177 59.5552046 -165.44140625 58.03125 C-158.04333468 51.78740951 -150.23714855 46.409573 -142.0625 41.25 C-141.41571289 40.84136719 -140.76892578 40.43273438 -140.10253906 40.01171875 C-98.10225223 13.77455394 -49.4806552 0.04398214 0 0 Z " fill="#EDD8A8" transform="translate(245.0625,1.75)"/>
<path d="M0 0 C2.79289293 1.27808957 4.87268459 2.61323297 7.06518555 4.75878906 C7.63645676 5.31407288 8.20772797 5.86935669 8.79631042 6.44146729 C9.70731255 7.34442535 9.70731255 7.34442535 10.63671875 8.265625 C11.27559525 8.89547302 11.91447174 9.52532104 12.57270813 10.17425537 C13.92611625 11.51316037 15.27673355 12.85489142 16.62475586 14.19921875 C18.65085038 16.21356293 20.6948003 18.20844919 22.74023438 20.203125 C37.36866956 34.64966042 49.11310335 50.93719597 49.33007812 72.27124023 C49.20692869 93.13993887 43.90585486 110.71962618 29 126 C19.54650457 135.0522435 7.67008074 140.91552341 -5 144 C-5.88365234 144.27457031 -5.88365234 144.27457031 -6.78515625 144.5546875 C-24.03134511 148.02217521 -42.37102561 143.1980343 -57 134 C-66.01000849 127.97567645 -73.36237818 119.86171634 -80.9375 112.1875 C-82.27622224 110.83872559 -83.61541145 109.49041449 -84.95507812 108.14257812 C-87.39082821 105.69058525 -89.82404057 103.23614184 -92.25366211 100.77807617 C-93.83192739 99.18157153 -95.41258884 97.58741116 -97 96 C-89.44850996 88.42526471 -81.89426529 80.85328836 -74.33656311 73.28475094 C-70.82671382 69.76969938 -67.31779408 66.25373056 -63.81103516 62.7355957 C-60.42216382 59.33580069 -57.03080336 55.93850656 -53.63775635 52.5428791 C-52.34841308 51.25169859 -51.05994521 49.95964327 -49.7723999 48.66666985 C-38.0065675 36.85324403 -38.0065675 36.85324403 -31.75585938 31.53001404 C-28.5739942 28.75741251 -25.62667829 25.74926648 -22.65625 22.75390625 C-22.00168823 22.09792953 -21.34712646 21.44195282 -20.67272949 20.76609802 C-18.61276177 18.70059855 -16.55632634 16.63162405 -14.5 14.5625 C-13.0913795 13.14885566 -11.68252733 11.73544214 -10.2734375 10.32226562 C-6.84627867 6.88416851 -3.42227981 3.44295344 0 0 Z " fill="#BB9C7E" transform="translate(360,246)"/>
<path d="M0 0 C4.39772936 3.23674954 8.19341775 7.1069591 12 11 C13.18877146 12.19143538 14.3789355 13.38148253 15.5703125 14.5703125 C17.39897819 16.3970395 19.22566508 18.2254267 21.04443359 20.06201172 C24.74738601 23.79411304 28.52558568 27.37375488 32.546875 30.765625 C34 32 34 32 36 34 C35.7387861 37.82660742 33.66734544 39.69412816 31.02734375 42.30078125 C30.20943359 43.11353516 29.39152344 43.92628906 28.54882812 44.76367188 C27.68708984 45.60478516 26.82535156 46.44589844 25.9375 47.3125 C25.10283203 48.14201172 24.26816406 48.97152344 23.40820312 49.82617188 C19.78618443 53.40302121 16.13843672 56.89396747 12.28013611 60.21490479 C8.31947403 63.67419919 4.57790243 67.29907325 0.88134766 71.03686523 C0.22014923 71.70113022 -0.44104919 72.3653952 -1.12228394 73.04978943 C-2.54197141 74.47657245 -3.96052539 75.90448409 -5.37803268 77.33343315 C-7.61958111 79.5925003 -9.86476631 81.84789462 -12.11099243 84.10231018 C-18.4912182 90.50689373 -24.86563106 96.91724073 -31.23583984 103.33178711 C-35.14414749 107.26679074 -39.05724248 111.19697982 -42.97337723 115.12419319 C-44.46407157 116.62111016 -45.95286391 118.11992365 -47.43973923 119.62063408 C-49.5079151 121.70790687 -51.5820678 123.78905709 -53.65771484 125.86889648 C-54.27380615 126.49374939 -54.88989746 127.11860229 -55.5246582 127.76239014 C-59.77210099 132 -59.77210099 132 -62 132 C-62 131.34 -62 130.68 -62 130 C-62.54567627 129.77739502 -63.09135254 129.55479004 -63.65356445 129.32543945 C-66.7292169 127.58808464 -69.05937574 125.2654614 -71.54296875 122.79296875 C-72.07086502 122.27172928 -72.59876129 121.75048981 -73.14265442 121.2134552 C-74.26057707 120.10564689 -75.3758092 118.99511781 -76.48852539 117.88208008 C-78.15420164 116.22071223 -79.83509938 114.57596568 -81.51757812 112.93164062 C-97.32366676 97.29538388 -107.68117157 79.91532337 -108.3125 57.1875 C-108.11049534 45.6479836 -105.47882523 35.14708453 -100 25 C-99.51917969 24.10796875 -99.03835937 23.2159375 -98.54296875 22.296875 C-88.45855338 5.12147169 -73.12875867 -5.00123656 -54.18212891 -10.53051758 C-35.55952775 -14.53714792 -15.83503175 -10.05594292 0 0 Z " fill="#BB9C7E" transform="translate(231,118)"/>
</svg>
