<?xml version="1.0" encoding="UTF-8"?>
<svg version="1.1" xmlns="http://www.w3.org/2000/svg" width="512" height="512">
<path d="M0 0 C10.55181378 3.87222524 18.81003455 9.75090608 23.9921875 19.7890625 C24.49105469 20.88347656 24.49105469 20.88347656 25 22 C25.36609375 22.76054687 25.7321875 23.52109375 26.109375 24.3046875 C29.4383956 34.37935512 27.0774181 46.53753701 23 56 C19.86949498 62.13026968 16.38519735 67.69160321 12 73 C12.52319824 73.21092285 13.04639648 73.4218457 13.58544922 73.63916016 C31.6837051 80.97801287 48.25784703 88.23718254 56.41015625 107.296875 C60.72794545 118.82776395 62.37029683 129.59539707 62.3125 141.875 C62.31048584 143.04305176 62.30847168 144.21110352 62.30639648 145.41455078 C62.19243254 155.43655332 61.20974521 165.232046 59.33251953 175.07714844 C58.93517836 177.11792067 58.93517836 177.11792067 58.90234375 179.6953125 C57.78807138 182.54128956 56.7125816 182.94954014 54.17578125 184.578125 C48.62566512 188.46852036 47.77108464 193.41566144 46.1875 199.75 C42.28081861 213.74008966 36.94914044 226.76852877 31 240 C30.50419434 241.10972168 30.00838867 242.21944336 29.49755859 243.36279297 C15.70806729 274.11508947 -0.33209995 303.58557287 -20 331 C-20.56428711 331.79341797 -21.12857422 332.58683594 -21.70996094 333.40429688 C-29.20183728 343.90880169 -37.06577922 353.90663695 -45.67529297 363.51660156 C-47.30776589 365.34463427 -48.90342619 367.20309954 -50.5 369.0625 C-65.23564534 385.81924383 -65.23564534 385.81924383 -73.25390625 392.50390625 C-75.04943133 394.04235391 -76.67219012 395.67293727 -78.3125 397.375 C-81.94417623 401.05564265 -85.87310034 404.28476855 -89.90625 407.515625 C-91.99403293 409.19217796 -94.05143777 410.88028522 -96.09375 412.609375 C-114.34953757 427.881716 -135.03404948 440.81227003 -156 452 C-156.85803223 452.45922852 -157.71606445 452.91845703 -158.60009766 453.39160156 C-232.11093087 492.33071033 -314.00903531 501.9616053 -397.89501953 509.03344727 C-399.00488157 509.12701649 -399.00488157 509.12701649 -400.13716507 509.22247601 C-403.63993331 509.51751118 -407.14284502 509.81055337 -410.64611816 510.09953308 C-416.78685147 510.61232727 -422.89002253 511.20431973 -429 512 C-431.14457411 512.08449075 -433.29126914 512.1304681 -435.4375 512.125 C-436.46746094 512.12757813 -437.49742187 512.13015625 -438.55859375 512.1328125 C-441 512 -441 512 -442 511 C-442.37142295 505.42865577 -442.30017876 502.66517648 -439 498 C-436.48583984 496.18579102 -436.48583984 496.18579102 -433.4609375 494.50390625 C-431.77387695 493.55366577 -431.77387695 493.55366577 -430.05273438 492.58422852 C-428.82689232 491.91019277 -427.60097899 491.23628665 -426.375 490.5625 C-425.10414309 489.85138333 -423.83396948 489.13904424 -422.56445312 488.42553711 C-418.71809553 486.26830576 -414.86001804 484.13266317 -411 482 C-406.83112166 479.6914606 -402.66397916 477.37986544 -398.5 475.0625 C-397.49348389 474.50264404 -396.48696777 473.94278809 -395.44995117 473.3659668 C-384.99141856 467.50677306 -374.77193149 461.27050633 -364.5546875 455.00390625 C-360.7045167 452.64293164 -356.84539924 450.30489947 -352.9453125 448.02734375 C-342.08819008 441.67881231 -331.58732156 434.84886153 -321.125 427.875 C-320.42839264 427.41122955 -319.73178528 426.94745911 -319.0140686 426.46963501 C-309.54545164 420.15624538 -300.21979385 413.67110453 -291 407 C-290.13681152 406.37770508 -289.27362305 405.75541016 -288.38427734 405.11425781 C-277.89522531 397.52754809 -267.68760487 389.67326293 -257.71923828 381.41503906 C-256.18828888 380.15497335 -254.64019353 378.91580531 -253.08984375 377.6796875 C-246.33034829 372.28403722 -240.03418719 366.46853709 -233.75390625 360.53125 C-231.43157889 358.33632769 -229.09225462 356.16636314 -226.71484375 354.03125 C-196.85437345 327.16465687 -172.54572607 294.97207674 -153 260 C-152.5771875 259.25298828 -152.154375 258.50597656 -151.71875 257.73632812 C-132.013466 222.72865952 -119.17605988 181.69405154 -113 142 C-114.65 142 -116.3 142 -118 142 C-116.07378003 123.87377616 -107.74051564 105.77350536 -96 92 C-95.38382812 91.23945312 -94.76765625 90.47890625 -94.1328125 89.6953125 C-82.60213482 75.94185359 -65.40548328 67.7722119 -47.75 65.25 C-43.28200265 64.90054769 -38.79224283 64.90516818 -34.3125 64.875 C-33.53100586 64.86654053 -32.74951172 64.85808105 -31.94433594 64.84936523 C-26.9691157 64.84576596 -22.41157787 65.44827701 -17.5 66.3125 C-14.15358174 66.7533983 -14.15358174 66.7533983 -11 66 C-6.61681386 62.26987918 -3.8440157 57.95454514 -1 53 C-0.443125 52.09507813 0.11375 51.19015625 0.6875 50.2578125 C4.37324757 43.70304551 6.03624502 37.14498008 4.1875 29.75 C0.45375061 25.05614363 -4.83868015 22.4883382 -10.20703125 19.9609375 C-12.97433057 18.47780976 -13.75675809 16.85945639 -15 14 C-15.73802997 9.60738792 -15.54983885 6.86141419 -13.125 3.0625 C-9.21994793 -0.7276976 -5.21764655 -0.78528978 0 0 Z " fill="#D13834" transform="translate(446,0)"/>
<path d="M0 0 C10.55181378 3.87222524 18.81003455 9.75090608 23.9921875 19.7890625 C24.49105469 20.88347656 24.49105469 20.88347656 25 22 C25.36609375 22.76054687 25.7321875 23.52109375 26.109375 24.3046875 C29.4383956 34.37935512 27.0774181 46.53753701 23 56 C19.86949498 62.13026968 16.38519735 67.69160321 12 73 C12.52319824 73.21092285 13.04639648 73.4218457 13.58544922 73.63916016 C31.6837051 80.97801287 48.25784703 88.23718254 56.41015625 107.296875 C60.72794545 118.82776395 62.37029683 129.59539707 62.3125 141.875 C62.31048584 143.04305176 62.30847168 144.21110352 62.30639648 145.41455078 C62.19235887 155.44303188 61.15973693 165.20575071 59.35058594 175.06518555 C59.06070251 176.66499488 58.82916082 178.2752541 58.61328125 179.88671875 C56.9879273 185.48746071 49.19023079 188.53908174 44.4375 191.1875 C33.43799213 197 33.43799213 197 29 197 C29.01571045 196.12432373 29.01571045 196.12432373 29.03173828 195.23095703 C29.07388108 192.52901699 29.09950805 189.82714649 29.125 187.125 C29.15013672 185.74828125 29.15013672 185.74828125 29.17578125 184.34375 C29.24297372 174.80241958 27.55324141 166.35441939 23.875 157.5625 C23.57295654 156.83458252 23.27091309 156.10666504 22.9597168 155.35668945 C19.39163231 147.11318392 14.44606457 140.245965 8 134 C7.90203125 134.76183594 7.8040625 135.52367187 7.703125 136.30859375 C5.90597442 148.71822837 1.99752297 157.24533533 -7.734375 165.46484375 C-12.1304034 168.50899616 -17.09877808 170.3426649 -22.0625 172.25 C-22.73539062 172.50869873 -23.40828125 172.76739746 -24.1015625 173.03393555 C-28.40948635 174.61305098 -32.4378053 175.50165884 -37 176 C-36.7834375 175.05253906 -36.7834375 175.05253906 -36.5625 174.0859375 C-32.99145965 156.8755069 -34.85803791 142.00454299 -44 127 C-46.59039375 124.15747414 -46.59039375 124.15747414 -49 122 C-49.4125 122.38671875 -49.825 122.7734375 -50.25 123.171875 C-51.11625 123.95304687 -51.11625 123.95304687 -52 124.75 C-52.556875 125.26046875 -53.11375 125.7709375 -53.6875 126.296875 C-59.6011484 130.65219714 -66.30769046 132.99979294 -73.3125 135 C-74.19752197 135.25346191 -75.08254395 135.50692383 -75.99438477 135.76806641 C-89.41271118 139.40884953 -104.05760822 142.21915919 -118 142 C-116.07378003 123.87377616 -107.74051564 105.77350536 -96 92 C-95.38382812 91.23945312 -94.76765625 90.47890625 -94.1328125 89.6953125 C-82.60213482 75.94185359 -65.40548328 67.7722119 -47.75 65.25 C-43.28200265 64.90054769 -38.79224283 64.90516818 -34.3125 64.875 C-33.53100586 64.86654053 -32.74951172 64.85808105 -31.94433594 64.84936523 C-26.9691157 64.84576596 -22.41157787 65.44827701 -17.5 66.3125 C-14.15358174 66.7533983 -14.15358174 66.7533983 -11 66 C-6.61681386 62.26987918 -3.8440157 57.95454514 -1 53 C-0.443125 52.09507813 0.11375 51.19015625 0.6875 50.2578125 C4.37324757 43.70304551 6.03624502 37.14498008 4.1875 29.75 C0.45375061 25.05614363 -4.83868015 22.4883382 -10.20703125 19.9609375 C-12.97433057 18.47780976 -13.75675809 16.85945639 -15 14 C-15.73802997 9.60738792 -15.54983885 6.86141419 -13.125 3.0625 C-9.21994793 -0.7276976 -5.21764655 -0.78528978 0 0 Z " fill="#88BF56" transform="translate(446,0)"/>
<path d="M0 0 C3 2.4375 3 2.4375 5 5 C5.33 5.33 5.66 5.66 6 6 C6.12959003 15.65832586 3.76337724 24.26644951 0.625 33.3125 C0.40480194 33.95796783 0.18460388 34.60343567 -0.04226685 35.26846313 C-10.99044859 67.2873418 -27.64289629 95.85675398 -49 122 C-49.43248047 122.53157715 -49.86496094 123.0631543 -50.31054688 123.61083984 C-55.87165217 130.41169531 -61.70388801 136.94358413 -67.6875 143.375 C-68.29303711 144.02903809 -68.89857422 144.68307617 -69.52246094 145.35693359 C-73.21510625 149.28474737 -77.06762676 152.9041812 -81.15844727 156.41455078 C-83.53937488 158.46436438 -85.82741808 160.60756027 -88.125 162.75 C-94.47498254 168.53145793 -101.16479299 173.80663686 -108 179 C-108.58233398 179.44456543 -109.16466797 179.88913086 -109.76464844 180.34716797 C-126.91977032 193.38258401 -145.17100922 204.56560094 -164 215 C-164.98613281 215.55397461 -164.98613281 215.55397461 -165.9921875 216.11914062 C-186.71310622 227.74686648 -208.794331 236.6593651 -231 245 C-232.09989258 245.41507813 -233.19978516 245.83015625 -234.33300781 246.2578125 C-237.44412887 247.42155009 -240.56303637 248.5601373 -243.6875 249.6875 C-245.05757202 250.19639771 -245.05757202 250.19639771 -246.45532227 250.71557617 C-251.87537948 252.621969 -257.23317497 254.0764147 -263 253 C-266 250.5625 -266 250.5625 -268 248 C-268.33 247.67 -268.66 247.34 -269 247 C-269.08984375 245.109375 -269.08984375 245.109375 -268.9375 242.75 C-268.90527344 241.98171875 -268.87304688 241.2134375 -268.83984375 240.421875 C-267.54379194 236.68442326 -265.3165321 234.92404371 -262 233 C-258.05008787 231.33947708 -254.02582983 229.95609153 -249.959198 228.60974121 C-246.46035853 227.44633101 -242.98051077 226.22866947 -239.5 225.01171875 C-238.78678085 224.76277863 -238.07356171 224.5138385 -237.33872986 224.25735474 C-186.92679825 206.54382709 -139.95768874 179.51137593 -100 144 C-99.46455566 143.52771973 -98.92911133 143.05543945 -98.37744141 142.56884766 C-84.52483601 130.29795487 -72.0818953 116.81401275 -61 102 C-60.30414795 101.08154297 -60.30414795 101.08154297 -59.59423828 100.14453125 C-53.21733866 91.72016266 -47.31102029 83.14620411 -42 74 C-41.61489258 73.34725098 -41.22978516 72.69450195 -40.83300781 72.02197266 C-29.67804676 53.03376972 -21.80574318 33.20499592 -15.88671875 12.03125 C-15.38591797 10.28328125 -15.38591797 10.28328125 -14.875 8.5 C-14.60429687 7.4996875 -14.33359375 6.499375 -14.0546875 5.46875 C-11.43052727 -0.67372876 -5.98926328 -1.1850414 0 0 Z " fill="#F65A56" transform="translate(412,219)"/>
<path d="M0 0 C10.55181378 3.87222524 18.81003455 9.75090608 23.9921875 19.7890625 C24.32476562 20.51867187 24.65734375 21.24828125 25 22 C25.36609375 22.76054687 25.7321875 23.52109375 26.109375 24.3046875 C29.43989679 34.38389817 27.07291911 46.53224943 23 56 C19.65008356 62.62838917 15.82225464 68.38368628 11 74 C8.45757096 73.37798054 5.91608125 72.75248241 3.375 72.125 C2.66214844 71.95097656 1.94929688 71.77695313 1.21484375 71.59765625 C-2.92796216 70.57145662 -6.96726678 69.41209271 -11 68 C-9.6464388 64.07814318 -7.89168873 61.44067243 -5.1875 58.3125 C0.99679491 50.72268352 5.50715759 43.07319906 5 33 C3.75636993 28.02547971 1.26364086 26.32769115 -2.9375 23.75 C-5.33221254 22.40636039 -7.72282673 21.13049219 -10.20703125 19.9609375 C-12.97433057 18.47780976 -13.75675809 16.85945639 -15 14 C-15.73802997 9.60738792 -15.54983885 6.86141419 -13.125 3.0625 C-9.21994793 -0.7276976 -5.21764655 -0.78528978 0 0 Z " fill="#659C35" transform="translate(446,0)"/>
</svg>
