<?xml version="1.0" encoding="UTF-8"?>
<svg version="1.1" xmlns="http://www.w3.org/2000/svg" width="512" height="512">
<path d="M0 0 C0.96461151 -0.00623996 1.92922302 -0.01247993 2.92306519 -0.01890898 C6.1520845 -0.03485099 9.38035022 -0.02222963 12.609375 -0.00964355 C14.92562297 -0.01506411 17.24186749 -0.0221864 19.55810547 -0.03088379 C25.84729455 -0.04912772 32.13622133 -0.042045 38.42541504 -0.02936745 C45.00497142 -0.01924544 51.58450524 -0.02863091 58.1640625 -0.03491211 C69.92148203 -0.04345692 81.67879115 -0.03022092 93.43619156 -0.00987476 C104.09293685 0.00799589 114.74950785 0.00489166 125.40625 -0.0135498 C137.78656125 -0.03496393 150.16676138 -0.04291967 162.54708862 -0.03110075 C169.0988178 -0.02486231 175.65042695 -0.02403996 182.20214844 -0.0372467 C188.36147014 -0.04879504 194.52046245 -0.04079758 200.67974854 -0.01766968 C202.94125827 -0.01237722 205.20279569 -0.01390548 207.46429443 -0.02272034 C210.54948815 -0.03363775 213.63362385 -0.01995733 216.71875 0 C218.06379105 -0.01338433 218.06379105 -0.01338433 219.43600464 -0.02703905 C224.90334219 0.04164438 228.02071974 0.87113056 232.359375 4.50793457 C236.90219576 9.60013733 236.94829416 14.00767365 236.890625 20.50793457 C236.8944519 21.46184082 236.89827881 22.41574707 236.90222168 23.39855957 C236.90493536 25.40898702 236.89761237 27.4194501 236.88085938 29.42980957 C236.85944209 32.49832244 236.88067966 35.56449409 236.90625 38.63293457 C236.90360663 40.59127305 236.89848145 42.54961007 236.890625 44.50793457 C236.89872192 45.42059082 236.90681885 46.33324707 236.91516113 47.27355957 C236.81360429 54.20927544 234.95474953 57.91256004 229.984375 62.88293457 C226.359375 64.50793457 226.359375 64.50793457 212.359375 64.50793457 C212.359375 77.70793457 212.359375 90.90793457 212.359375 104.50793457 C216.979375 104.50793457 221.599375 104.50793457 226.359375 104.50793457 C231.38660064 106.76151848 233.68280269 109.7576838 236.359375 114.50793457 C236.77902967 117.33530125 236.9909763 119.76680207 236.99609375 122.58996582 C237.01250664 123.74863411 237.01250664 123.74863411 237.0292511 124.93070984 C237.04506873 126.56535213 237.05032628 128.20012672 237.0456543 129.83483887 C237.04685372 132.27709865 237.10629549 134.71309694 237.16992188 137.15441895 C237.17808134 138.75792029 237.18273781 140.36144395 237.18359375 141.96496582 C237.20717453 142.66773148 237.23075531 143.37049713 237.25505066 144.09455872 C237.1713634 148.96165838 235.97397369 152.46625097 233.83040428 156.83915329 C227.75781433 169.5330694 228.47147518 182.16371303 228.67578125 195.98059082 C228.68886369 198.60186938 228.69881532 201.22316525 228.70579529 203.84446716 C228.72736331 209.99254097 228.78454233 216.13972059 228.85524172 222.28740448 C228.9340814 229.29842067 228.97211965 236.30948456 229.00710976 243.32083523 C229.07984819 257.71699163 229.20259473 272.11245056 229.359375 286.50793457 C230.66121773 283.51945555 231.36382369 281.70466552 231.2890625 278.39855957 C231.38616584 273.02550831 232.88960793 268.36226424 234.484375 263.25793457 C234.9630603 261.7186731 234.9630603 261.7186731 235.45141602 260.14831543 C239.80828926 246.54703004 245.28570956 235.99396844 258.296875 229.13293457 C267.34889656 224.67540539 275.7114714 224.23813067 285.60546875 224.84973145 C289.89468402 224.98441695 291.72838645 224.98330195 295.2578125 222.32434082 C297.22138508 219.69286158 298.78196511 217.19713092 300.234375 214.25793457 C308.46964596 198.64436247 321.45333391 186.51914012 337.671875 179.44543457 C342.31190384 178.26576622 344.71904667 178.29079927 349.359375 179.50793457 C353.01013173 182.36504854 355.25568849 184.9928534 356.359375 189.50793457 C357.26041164 198.01926533 357.26041164 198.01926533 354.921875 201.88293457 C351.98818327 203.74332445 348.98622879 205.0379374 345.79296875 206.39074707 C335.82975418 210.96455023 327.91120405 218.49391065 323.359375 228.50793457 C322.71819405 231.90713951 322.71819405 231.90713951 323.359375 235.50793457 C325.37710461 237.7741383 327.14883821 239.45932835 329.484375 241.32043457 C340.47998848 250.78883837 345.89453288 262.1573776 347.234375 276.69543457 C347.84036982 292.4034581 345.12782783 308.19794223 338.359375 322.50793457 C337.699375 322.83793457 337.039375 323.16793457 336.359375 323.50793457 C335.369375 322.84793457 334.379375 322.18793457 333.359375 321.50793457 C332.82570313 322.68227051 332.29203125 323.85660645 331.7421875 325.06652832 C308.45298753 375.66322851 270.91246878 416.84558711 218.34545898 437.06628418 C202.8275531 442.77384888 186.74036105 445.63674684 170.359375 447.50793457 C169.59560547 447.60364746 168.83183594 447.69936035 168.04492188 447.79797363 C159.02209803 448.79298069 149.9507599 448.72980645 140.88427734 448.74816895 C138.02541108 448.75779638 135.16728981 448.78886312 132.30859375 448.82043457 C115.99092627 448.91513296 99.47752742 447.77553253 83.859375 442.69543457 C82.73402344 442.36188965 82.73402344 442.36188965 81.5859375 442.02160645 C78.0938879 440.93695468 74.85395039 439.77226913 71.61973572 438.04368591 C62.53657674 433.22860492 54.74702553 432.69640396 44.76953125 432.84387207 C43.21064214 432.84277514 41.65175235 432.83844988 40.09288025 432.83108521 C36.02944054 432.81780509 31.96689871 432.83632354 27.90356445 432.86553955 C21.37804787 432.91127915 14.85299823 432.92646214 8.32736015 432.90599442 C6.06134727 432.90636523 3.79659796 432.9320333 1.53077698 432.95968628 C0.13778699 432.96037126 -1.25520396 432.96006796 -2.64819336 432.95861816 C-3.8569664 432.96783295 -5.06573944 432.97704773 -6.31114197 432.98654175 C-11.55033638 432.23341701 -14.60611905 429.7239252 -17.97583008 425.76306152 C-19.94784646 421.90723305 -20.26965907 418.6653463 -20.27734375 414.42590332 C-20.28828568 413.65345779 -20.2992276 412.88101227 -20.3105011 412.0851593 C-20.32631873 410.45051701 -20.33157628 408.81574242 -20.3269043 407.18103027 C-20.32810372 404.73877049 -20.38754549 402.3027722 -20.45117188 399.8614502 C-20.45933134 398.25794885 -20.46398781 396.65442519 -20.46484375 395.05090332 C-20.48842453 394.34813766 -20.51200531 393.64537201 -20.53630066 392.92131042 C-20.45268566 388.05841308 -19.21949566 384.41307689 -17.1212126 380.02371168 C-12.17619571 369.444327 -11.63883019 360.01498406 -11.73486328 348.48840332 C-11.72535136 346.5430441 -11.71287293 344.59769752 -11.69769287 342.65237427 C-11.66607197 337.42068041 -11.67803118 332.18996437 -11.70034647 326.95825577 C-11.71822093 321.45159761 -11.70159117 315.94501637 -11.69064331 310.43835449 C-11.67795188 301.19544635 -11.69457568 291.9529313 -11.72802734 282.71008301 C-11.76611504 272.06416027 -11.75377208 261.41917635 -11.71524251 250.77327633 C-11.68335106 241.58964798 -11.67905503 232.40630022 -11.69731319 223.22263432 C-11.70815787 217.75657352 -11.70987253 212.29095221 -11.68655777 206.82492065 C-11.66615203 201.68286145 -11.68069323 196.54199804 -11.72081757 191.40006638 C-11.72997615 189.52697091 -11.72758415 187.65377261 -11.71197891 185.78071976 C-11.62527602 174.30517899 -13.08322295 165.43916429 -18.05741405 155.03373241 C-20.06976921 150.55223393 -20.62761426 146.81593026 -20.46484375 141.96496582 C-20.46442581 141.18199631 -20.46400787 140.39902679 -20.46357727 139.59233093 C-20.45535776 137.97703004 -20.43051239 136.36172173 -20.38842773 134.74694824 C-20.32717861 132.28235275 -20.32693869 129.82280561 -20.33398438 127.35754395 C-20.31860618 125.76831349 -20.29985448 124.17911125 -20.27734375 122.58996582 C-20.27602951 121.86493362 -20.27471527 121.13990143 -20.27336121 120.39289856 C-20.06755291 114.06453741 -17.638594 110.50590357 -13.265625 106.13293457 C-9.640625 104.50793457 -9.640625 104.50793457 4.359375 104.50793457 C4.359375 91.30793457 4.359375 78.10793457 4.359375 64.50793457 C-0.260625 64.50793457 -4.880625 64.50793457 -9.640625 64.50793457 C-14.65732303 62.25906993 -17.04262253 59.30010493 -19.640625 54.50793457 C-20.21232836 51.16984076 -20.20186637 47.88845447 -20.171875 44.50793457 C-20.1757019 43.55402832 -20.17952881 42.60012207 -20.18347168 41.61730957 C-20.18618536 39.60688212 -20.17886237 37.59641904 -20.16210938 35.58605957 C-20.14069209 32.5175467 -20.16192966 29.45137505 -20.1875 26.38293457 C-20.18485663 24.4245961 -20.17973145 22.46625907 -20.171875 20.50793457 C-20.17997192 19.59527832 -20.18806885 18.68262207 -20.19641113 17.74230957 C-20.115069 12.18713585 -19.48261974 8.81455753 -15.640625 4.50793457 C-10.44483282 0.1526501 -6.47864591 -0.06446817 0 0 Z " fill="#ECAD65" transform="translate(123.640625,31.4920654296875)"/>
<path d="M0 0 C0.96461151 -0.00623996 1.92922302 -0.01247993 2.92306519 -0.01890898 C6.1520845 -0.03485099 9.38035022 -0.02222963 12.609375 -0.00964355 C14.92562297 -0.01506411 17.24186749 -0.0221864 19.55810547 -0.03088379 C25.84729455 -0.04912772 32.13622133 -0.042045 38.42541504 -0.02936745 C45.00497142 -0.01924544 51.58450524 -0.02863091 58.1640625 -0.03491211 C69.92148203 -0.04345692 81.67879115 -0.03022092 93.43619156 -0.00987476 C104.09293685 0.00799589 114.74950785 0.00489166 125.40625 -0.0135498 C137.78656125 -0.03496393 150.16676138 -0.04291967 162.54708862 -0.03110075 C169.0988178 -0.02486231 175.65042695 -0.02403996 182.20214844 -0.0372467 C188.36147014 -0.04879504 194.52046245 -0.04079758 200.67974854 -0.01766968 C202.94125827 -0.01237722 205.20279569 -0.01390548 207.46429443 -0.02272034 C210.54948815 -0.03363775 213.63362385 -0.01995733 216.71875 0 C218.06379105 -0.01338433 218.06379105 -0.01338433 219.43600464 -0.02703905 C224.90334219 0.04164438 228.02071974 0.87113056 232.359375 4.50793457 C236.90219576 9.60013733 236.94829416 14.00767365 236.890625 20.50793457 C236.8944519 21.46184082 236.89827881 22.41574707 236.90222168 23.39855957 C236.90493536 25.40898702 236.89761237 27.4194501 236.88085938 29.42980957 C236.85944209 32.49832244 236.88067966 35.56449409 236.90625 38.63293457 C236.90360663 40.59127305 236.89848145 42.54961007 236.890625 44.50793457 C236.89872192 45.42059082 236.90681885 46.33324707 236.91516113 47.27355957 C236.81360429 54.20927544 234.95474953 57.91256004 229.984375 62.88293457 C226.359375 64.50793457 226.359375 64.50793457 212.359375 64.50793457 C212.359375 77.70793457 212.359375 90.90793457 212.359375 104.50793457 C216.979375 104.50793457 221.599375 104.50793457 226.359375 104.50793457 C231.38660064 106.76151848 233.68280269 109.7576838 236.359375 114.50793457 C236.77902967 117.33530125 236.9909763 119.76680207 236.99609375 122.58996582 C237.01250664 123.74863411 237.01250664 123.74863411 237.0292511 124.93070984 C237.04506873 126.56535213 237.05032628 128.20012672 237.0456543 129.83483887 C237.04685372 132.27709865 237.10629549 134.71309694 237.16992188 137.15441895 C237.17808134 138.75792029 237.18273781 140.36144395 237.18359375 141.96496582 C237.20717453 142.66773148 237.23075531 143.37049713 237.25505066 144.09455872 C237.09506428 153.39907762 233.20010759 159.18044114 229.359375 168.50793457 C149.499375 168.50793457 69.639375 168.50793457 -12.640625 168.50793457 C-20.69881984 148.93803282 -20.69881984 148.93803282 -20.46484375 141.96496582 C-20.46442581 141.18199631 -20.46400787 140.39902679 -20.46357727 139.59233093 C-20.45535776 137.97703004 -20.43051239 136.36172173 -20.38842773 134.74694824 C-20.32717861 132.28235275 -20.32693869 129.82280561 -20.33398438 127.35754395 C-20.31860618 125.76831349 -20.29985448 124.17911125 -20.27734375 122.58996582 C-20.27602951 121.86493362 -20.27471527 121.13990143 -20.27336121 120.39289856 C-20.06755291 114.06453741 -17.638594 110.50590357 -13.265625 106.13293457 C-9.640625 104.50793457 -9.640625 104.50793457 4.359375 104.50793457 C4.359375 91.30793457 4.359375 78.10793457 4.359375 64.50793457 C-0.260625 64.50793457 -4.880625 64.50793457 -9.640625 64.50793457 C-14.65732303 62.25906993 -17.04262253 59.30010493 -19.640625 54.50793457 C-20.21232836 51.16984076 -20.20186637 47.88845447 -20.171875 44.50793457 C-20.1757019 43.55402832 -20.17952881 42.60012207 -20.18347168 41.61730957 C-20.18618536 39.60688212 -20.17886237 37.59641904 -20.16210938 35.58605957 C-20.14069209 32.5175467 -20.16192966 29.45137505 -20.1875 26.38293457 C-20.18485663 24.4245961 -20.17973145 22.46625907 -20.171875 20.50793457 C-20.17997192 19.59527832 -20.18806885 18.68262207 -20.19641113 17.74230957 C-20.115069 12.18713585 -19.48261974 8.81455753 -15.640625 4.50793457 C-10.44483282 0.1526501 -6.47864591 -0.06446817 0 0 Z " fill="#E16677" transform="translate(123.640625,31.4920654296875)"/>
<path d="M0 0 C3.65075673 2.85711397 5.89631349 5.48491883 7 10 C7.90103664 18.51133076 7.90103664 18.51133076 5.5625 22.375 C2.62880827 24.23538988 -0.37314621 25.53000283 -3.56640625 26.8828125 C-13.52962082 31.45661566 -21.44817095 38.98597608 -26 49 C-26.64118095 52.39920494 -26.64118095 52.39920494 -26 56 C-23.98227039 58.26620373 -22.21053679 59.95139378 -19.875 61.8125 C-8.87938652 71.2809038 -3.46484212 82.64944303 -2.125 97.1875 C-1.51900518 112.89552353 -4.23154717 128.69000766 -11 143 C-11.66 143.33 -12.32 143.66 -13 144 C-13.99 143.34 -14.98 142.68 -16 142 C-16.53367187 143.17433594 -17.06734375 144.34867188 -17.6171875 145.55859375 C-40.90638747 196.15529394 -78.44690622 237.33765254 -131.01391602 257.55834961 C-146.5318219 263.26591431 -162.61901395 266.12881227 -179 268 C-179.76376953 268.09571289 -180.52753906 268.19142578 -181.31445312 268.29003906 C-190.33727697 269.28504612 -199.4086151 269.22187188 -208.47509766 269.24023438 C-211.33396392 269.24986181 -214.19208519 269.28092855 -217.05078125 269.3125 C-233.36844873 269.40719839 -249.88184758 268.26759796 -265.5 263.1875 C-266.62535156 262.85395508 -266.62535156 262.85395508 -267.7734375 262.51367188 C-271.2654871 261.4290201 -274.50542461 260.26433456 -277.73963928 258.53575134 C-286.82279826 253.72067035 -294.61234947 253.18846939 -304.58984375 253.3359375 C-306.14873286 253.33484057 -307.70762265 253.33051531 -309.26649475 253.32315063 C-313.32993446 253.30987052 -317.39247629 253.32838897 -321.45581055 253.35760498 C-327.98132713 253.40334458 -334.50637677 253.41852757 -341.03201485 253.39805984 C-343.29802773 253.39843066 -345.56277704 253.42409873 -347.82859802 253.45175171 C-349.22158801 253.45243669 -350.61457896 253.45213339 -352.00756836 253.45068359 C-353.82072792 253.46450577 -353.82072792 253.46450577 -355.67051697 253.47860718 C-360.90971138 252.72548244 -363.96549405 250.21599063 -367.33520508 246.25512695 C-369.30722146 242.39929848 -369.62903407 239.15741173 -369.63671875 234.91796875 C-369.65313164 233.75930046 -369.65313164 233.75930046 -369.6698761 232.57722473 C-369.68569373 230.94258244 -369.69095128 229.30780785 -369.6862793 227.6730957 C-369.68747872 225.23083592 -369.74692049 222.79483763 -369.81054688 220.35351562 C-369.81870634 218.75001428 -369.82336281 217.14649062 -369.82421875 215.54296875 C-369.84779953 214.84020309 -369.87138031 214.13743744 -369.89567566 213.41337585 C-369.74612077 204.71553375 -365.4684167 196.81118598 -362 189 C-360.74462606 189.00194823 -360.74462606 189.00194823 -359.46389103 189.00393581 C-339.08162736 189.03316194 -318.69969923 189.02374326 -298.31747532 188.97153378 C-288.46065893 188.94721317 -278.60414969 188.93587922 -268.74731445 188.95532227 C-260.15411459 188.97223956 -251.56134443 188.96458178 -242.9682011 188.92765242 C-238.41979141 188.90895734 -233.87210812 188.90240694 -229.32370186 188.92530632 C-225.03792224 188.94649467 -220.75346993 188.93469612 -216.46780586 188.89815521 C-214.89935496 188.89049421 -213.33079243 188.89463946 -211.76241684 188.91181374 C-203.34995015 188.99683768 -197.08757499 188.71788026 -190.66525173 182.71790409 C-190.11571866 182.15099574 -189.56618559 181.58408739 -189 181 C-188.11570312 180.26394531 -187.23140625 179.52789062 -186.3203125 178.76953125 C-168.84894952 163.19452617 -155.62270578 144.77985682 -145 124 C-144.6189209 123.26233398 -144.2378418 122.52466797 -143.84521484 121.76464844 C-134.58625579 103.65701229 -128.24849602 84.31067865 -122 65 C-121.67 65 -121.34 65 -121 65 C-120.67 78.86 -120.34 92.72 -120 107 C-117.78719466 102.41601137 -117.78719466 102.41601137 -118.0703125 98.890625 C-117.97320916 93.51757374 -116.46976707 88.85432966 -114.875 83.75 C-114.55587646 82.72382568 -114.23675293 81.69765137 -113.90795898 80.64038086 C-109.55108574 67.03909547 -104.07366544 56.48603387 -91.0625 49.625 C-82.01047844 45.16747082 -73.6479036 44.7301961 -63.75390625 45.34179688 C-59.46469098 45.47648238 -57.63098855 45.47536738 -54.1015625 42.81640625 C-52.13798992 40.18492701 -50.57740989 37.68919635 -49.125 34.75 C-40.88972904 19.1364279 -27.90604109 7.01120555 -11.6875 -0.0625 C-7.04747116 -1.24216835 -4.64032833 -1.2171353 0 0 Z " fill="#E16676" transform="translate(473,211)"/>
<path d="M0 0 C0.96461151 -0.00623996 1.92922302 -0.01247993 2.92306519 -0.01890898 C6.1520845 -0.03485099 9.38035022 -0.02222963 12.609375 -0.00964355 C14.92562297 -0.01506411 17.24186749 -0.0221864 19.55810547 -0.03088379 C25.84729455 -0.04912772 32.13622133 -0.042045 38.42541504 -0.02936745 C45.00497142 -0.01924544 51.58450524 -0.02863091 58.1640625 -0.03491211 C69.92148203 -0.04345692 81.67879115 -0.03022092 93.43619156 -0.00987476 C104.09293685 0.00799589 114.74950785 0.00489166 125.40625 -0.0135498 C137.78656125 -0.03496393 150.16676138 -0.04291967 162.54708862 -0.03110075 C169.0988178 -0.02486231 175.65042695 -0.02403996 182.20214844 -0.0372467 C188.36147014 -0.04879504 194.52046245 -0.04079758 200.67974854 -0.01766968 C202.94125827 -0.01237722 205.20279569 -0.01390548 207.46429443 -0.02272034 C210.54948815 -0.03363775 213.63362385 -0.01995733 216.71875 0 C218.06379105 -0.01338433 218.06379105 -0.01338433 219.43600464 -0.02703905 C224.90334219 0.04164438 228.02071974 0.87113056 232.359375 4.50793457 C236.90219576 9.60013733 236.94829416 14.00767365 236.890625 20.50793457 C236.8944519 21.46184082 236.89827881 22.41574707 236.90222168 23.39855957 C236.90493536 25.40898702 236.89761237 27.4194501 236.88085938 29.42980957 C236.85944209 32.49832244 236.88067966 35.56449409 236.90625 38.63293457 C236.90360663 40.59127305 236.89848145 42.54961007 236.890625 44.50793457 C236.89872192 45.42059082 236.90681885 46.33324707 236.91516113 47.27355957 C236.833819 52.8287333 236.20136974 56.20131161 232.359375 60.50793457 C227.16358282 64.86321904 223.19739591 65.08033731 216.71875 65.01586914 C215.75413849 65.0221091 214.78952698 65.02834907 213.79568481 65.03477812 C210.5666655 65.05072013 207.33839978 65.03809877 204.109375 65.0255127 C201.79312703 65.03093325 199.47688251 65.03805554 197.16064453 65.04675293 C190.87145545 65.06499686 184.58252867 65.05791414 178.29333496 65.04523659 C171.71377858 65.03511458 165.13424476 65.04450005 158.5546875 65.05078125 C146.79726797 65.05932606 135.03995885 65.04609006 123.28255844 65.0257439 C112.62581315 65.00787325 101.96924215 65.01097748 91.3125 65.02941895 C78.93218875 65.05083307 66.55198862 65.05878881 54.17166138 65.04696989 C47.6199322 65.04073145 41.06832305 65.0399091 34.51660156 65.05311584 C28.35727986 65.06466418 22.19828755 65.05666672 16.03900146 65.03353882 C13.77749173 65.02824636 11.51595431 65.02977462 9.25445557 65.03858948 C6.16926185 65.04950689 3.08512615 65.03582647 0 65.01586914 C-1.34504105 65.02925347 -1.34504105 65.02925347 -2.71725464 65.04290819 C-8.18459219 64.97422476 -11.30196974 64.14473859 -15.640625 60.50793457 C-20.18344576 55.41573181 -20.22954416 51.00819549 -20.171875 44.50793457 C-20.1757019 43.55402832 -20.17952881 42.60012207 -20.18347168 41.61730957 C-20.18618536 39.60688212 -20.17886237 37.59641904 -20.16210938 35.58605957 C-20.14069209 32.5175467 -20.16192966 29.45137505 -20.1875 26.38293457 C-20.18485663 24.4245961 -20.17973145 22.46625907 -20.171875 20.50793457 C-20.17997192 19.59527832 -20.18806885 18.68262207 -20.19641113 17.74230957 C-20.115069 12.18713585 -19.48261974 8.81455753 -15.640625 4.50793457 C-10.44483282 0.1526501 -6.47864591 -0.06446817 0 0 Z " fill="#E26677" transform="translate(123.640625,31.4920654296875)"/>
<path d="M0 0 C68.64 0 137.28 0 208 0 C208 13.2 208 26.4 208 40 C139.36 40 70.72 40 0 40 C0 26.8 0 13.6 0 0 Z " fill="#D3DCE5" transform="translate(128,96)"/>
<path d="M0 0 C3.65075673 2.85711397 5.89631349 5.48491883 7 10 C7.90103664 18.51133076 7.90103664 18.51133076 5.5625 22.375 C2.62880827 24.23538988 -0.37314621 25.53000283 -3.56640625 26.8828125 C-13.52962082 31.45661566 -21.44817095 38.98597608 -26 49 C-26.64118095 52.39920494 -26.64118095 52.39920494 -26 56 C-23.98227039 58.26620373 -22.21053679 59.95139378 -19.875 61.8125 C-8.87938652 71.2809038 -3.46484212 82.64944303 -2.125 97.1875 C-1.51900518 112.89552353 -4.23154717 128.69000766 -11 143 C-11.66 143.33 -12.32 143.66 -13 144 C-14.15430587 142.84569413 -15.30623672 141.6889572 -16.44921875 140.5234375 C-17.98064822 138.98257367 -17.98064822 138.98257367 -19.64453125 137.6015625 C-28.28988923 129.91246308 -33.0108666 117.79970511 -35.125 106.625 C-35.29257812 105.75101562 -35.46015625 104.87703125 -35.6328125 103.9765625 C-35.75398438 103.32429688 -35.87515625 102.67203125 -36 102 C-36.40089844 102.56847656 -36.80179687 103.13695312 -37.21484375 103.72265625 C-44.25402159 113.2838071 -52.05083993 118.55893881 -63 123 C-72.98210008 113.8735085 -76.2818811 103.24805556 -77 90 C-77.81791016 90.68835938 -77.81791016 90.68835938 -78.65234375 91.390625 C-88.99072354 99.80270838 -96.51681137 102.03716836 -110 101 C-112.81123456 100.5274563 -115.28471094 99.886625 -118 99 C-116.2083443 83.40205622 -111.07746415 65.72210811 -99.33203125 54.78515625 C-88.34501262 46.3746579 -77.14253765 44.51417412 -63.75390625 45.34179688 C-59.46469098 45.47648238 -57.63098855 45.47536738 -54.1015625 42.81640625 C-52.13798992 40.18492701 -50.57740989 37.68919635 -49.125 34.75 C-40.88972904 19.1364279 -27.90604109 7.01120555 -11.6875 -0.0625 C-7.04747116 -1.24216835 -4.64032833 -1.2171353 0 0 Z " fill="#78B14C" transform="translate(473,211)"/>
<path d="M0 0 C8.69819287 5.39582812 15.26611344 13.16281304 18.11328125 23.0546875 C20.93255298 35.49836963 19.50836842 46.52151979 12.6796875 57.4921875 C6.17948429 66.50754472 -2.37199049 72.29389186 -13.296875 74.36328125 C-24.27773116 75.89154474 -34.94799241 73.55534014 -44.25390625 67.4609375 C-53.33893427 60.4748114 -58.7922955 51.03435051 -60.5703125 39.6796875 C-61.69783448 27.67963211 -58.79789667 17.80837518 -51.1640625 8.421875 C-37.39711167 -6.62729183 -18.15717891 -9.32693993 0 0 Z " fill="#E26676" transform="translate(252.5703125,269.3203125)"/>
<path d="M0 0 C0.33 0 0.66 0 1 0 C1.25809753 6.59295802 1.43050435 13.18457351 1.54931641 19.78149414 C1.59894768 22.01506178 1.66668083 24.24831643 1.75439453 26.48071289 C2.40376768 43.45991081 -0.34124961 55.37718749 -9 70 C-9.72320938 71.25276482 -9.72320938 71.25276482 -10.46102905 72.53083801 C-18.11227149 85.77509817 -26.46798794 98.56837993 -36.9296875 109.77734375 C-38.79625956 111.78126734 -40.55616074 113.83752915 -42.3125 115.9375 C-70.64767018 148.23699445 -113.84310832 165.96763468 -156.07705688 168.75779724 C-159.47497825 168.97173821 -162.87301679 169.15784661 -166.27392578 169.31713867 C-168.12606689 169.41152222 -168.12606689 169.41152222 -170.015625 169.5078125 C-171.12196289 169.55566895 -172.22830078 169.60352539 -173.36816406 169.65283203 C-176.15450423 169.74879765 -176.15450423 169.74879765 -178 172 C-178.75244501 174.8275989 -178.75244501 174.8275989 -178 178 C-175.92959392 180.36119345 -173.51767674 182.13974368 -171 184 C-169.33008457 185.32926221 -167.66273708 186.66176947 -166 188 C-170.10393012 188.11591764 -174.20744106 188.18715601 -178.3125 188.25 C-179.47974609 188.28351563 -180.64699219 188.31703125 -181.84960938 188.3515625 C-182.96787109 188.36445313 -184.08613281 188.37734375 -185.23828125 188.390625 C-186.26993408 188.41157227 -187.30158691 188.43251953 -188.36450195 188.45410156 C-191 188 -191 188 -192.79760742 186.16308594 C-196.03795207 180.33375527 -196.04738402 173.02275518 -194.38671875 166.64453125 C-191.69735996 160.51942776 -186.72623465 156.73167226 -180.75415039 153.95629883 C-177.68085384 152.88918576 -175.08259966 152.63751242 -171.8359375 152.47265625 C-170.64081543 152.4046582 -169.44569336 152.33666016 -168.21435547 152.26660156 C-166.94736816 152.19924805 -165.68038086 152.13189453 -164.375 152.0625 C-139.45383473 150.50473476 -117.60883295 145.78381835 -95 135 C-94.05125 134.55269531 -93.1025 134.10539063 -92.125 133.64453125 C-61.3834994 118.04504955 -38.39506203 89.11541423 -23 59 C-22.42838135 57.89350098 -22.42838135 57.89350098 -21.84521484 56.76464844 C-12.58625579 38.65701229 -6.24849602 19.31067865 0 0 Z " fill="#D85364" transform="translate(351,276)"/>
<path d="M0 0 C0.33 0 0.66 0 1 0 C1.25809753 6.59295802 1.43050435 13.18457351 1.54931641 19.78149414 C1.59894768 22.01506178 1.66668083 24.24831643 1.75439453 26.48071289 C2.40376768 43.45991081 -0.34124961 55.37718749 -9 70 C-9.72320938 71.25276482 -9.72320938 71.25276482 -10.46102905 72.53083801 C-18.68050928 86.75871479 -27.76662383 99.97318834 -39 112 C-40.8100084 114.06040482 -42.60428729 116.13337044 -44.39453125 118.2109375 C-45.18923828 119.09652344 -45.18923828 119.09652344 -46 120 C-46.56775146 120.68884277 -47.13550293 121.37768555 -47.72045898 122.08740234 C-50.67554256 124.5667988 -52.26187582 124.46545342 -56.078125 124.390625 C-57.23828125 124.37773437 -58.3984375 124.36484375 -59.59375 124.3515625 C-60.8003125 124.31804687 -62.006875 124.28453125 -63.25 124.25 C-64.47203125 124.23195313 -65.6940625 124.21390625 -66.953125 124.1953125 C-69.96954078 124.148181 -72.98437491 124.08239413 -76 124 C-73.0981288 121.05517221 -70.12032508 118.43909066 -66.875 115.875 C-56.44779014 107.37004766 -47.94431804 97.79195216 -40 87 C-39.58782227 86.44280273 -39.17564453 85.88560547 -38.75097656 85.31152344 C-20.114896 59.737595 -9.60040049 29.83137238 0 0 Z " fill="#D88752" transform="translate(351,276)"/>
</svg>
