<?xml version="1.0" encoding="UTF-8"?>
<svg version="1.1" xmlns="http://www.w3.org/2000/svg" width="512" height="512">
<path d="M0 0 C1.10168518 -0.00700928 2.20337036 -0.01401855 3.33843994 -0.02124023 C6.96807303 -0.03879758 10.59692193 -0.02720469 14.2265625 -0.01367188 C16.75569813 -0.01636742 19.28483275 -0.02025036 21.81396484 -0.02526855 C27.1098108 -0.03116059 32.40537757 -0.02299349 37.70117188 -0.00390625 C43.81060142 0.01786021 49.91949689 0.01080784 56.0289135 -0.01121187 C61.92306813 -0.03159972 67.81705785 -0.02937993 73.71124268 -0.01768494 C76.21185379 -0.0150198 78.71247857 -0.01827989 81.21307373 -0.02760315 C84.71012285 -0.03778074 88.20615171 -0.02224887 91.703125 0 C93.24785492 -0.01214539 93.24785492 -0.01214539 94.8237915 -0.02453613 C101.90590969 0.05878466 106.36341403 1.16813311 111.61174011 6.20776367 C115.62441378 12.36262642 115.49938635 18.14770372 115.33984375 25.33007812 C115.32923164 27.14427246 115.32923164 27.14427246 115.31840515 28.99511719 C115.29054348 32.83658168 115.22781486 36.67655836 115.1640625 40.51757812 C115.13896925 43.13083824 115.11615789 45.74412133 115.09570312 48.35742188 C115.04074287 54.74470893 114.95452247 61.13089176 114.8515625 67.51757812 C111.2215625 67.51757812 107.5915625 67.51757812 103.8515625 67.51757812 C103.89609284 74.64895815 103.96631748 81.77948437 104.05908203 88.91040039 C104.08709066 91.32992715 104.1084038 93.74954199 104.12255859 96.16918945 C104.23930249 115.00776227 104.87830842 130.50781941 115.8515625 146.51757812 C116.27824219 147.15953125 116.70492187 147.80148438 117.14453125 148.46289062 C122.6730887 155.7775974 131.54087049 160.65073338 139.08203125 165.66601562 C151.44503455 173.93126748 159.79718908 186.52354506 162.93292522 201.09015656 C164.03292458 206.80319347 164.13331132 212.36532431 164.11225891 218.16882324 C164.11608446 219.30145584 164.11991001 220.43408843 164.12385148 221.60104322 C164.13412333 225.37470181 164.13020039 229.14820658 164.1262207 232.921875 C164.1294788 235.63615861 164.13569029 238.35043382 164.14170837 241.06471252 C164.15442228 247.65876109 164.15625329 254.25276887 164.15390811 260.84682763 C164.15212142 266.20835009 164.15388209 271.56986023 164.15813255 276.93138123 C164.15872774 277.69591416 164.15932293 278.4604471 164.15993616 279.2481477 C164.16114796 280.80152404 164.1623621 282.35490039 164.16357853 283.90827674 C164.17444089 298.4572061 164.1722975 313.00611226 164.16619369 327.55504292 C164.16102319 340.85255894 164.1722858 354.15000173 164.19129191 367.44750327 C164.21068172 381.11876509 164.21892446 394.78999229 164.21516865 408.46126795 C164.21325867 416.12975635 164.21572462 423.7981824 164.22988319 431.46665955 C164.24181239 437.9933823 164.24318451 444.52000431 164.23109303 451.04672849 C164.22521562 454.37363226 164.22570924 457.70020135 164.23609543 461.02711678 C164.24656095 464.64035883 164.2384631 468.2531085 164.2257843 471.86633301 C164.23315859 472.90817607 164.24053287 473.95001914 164.24813062 475.02343321 C164.16358062 486.5052699 161.02344651 495.72548028 153.2578125 504.27148438 C143.70800201 513.25821642 132.32123708 513.09786479 119.984375 513.03515625 C118.18633458 513.04058395 116.38829862 513.04771024 114.590271 513.05639648 C109.7307306 513.07455568 104.87153177 513.06759301 100.01198578 513.05488014 C94.91309221 513.04471398 89.81422681 513.05415583 84.71533203 513.0604248 C76.15456929 513.0676907 67.59394484 513.05814129 59.03320312 513.0390625 C49.15264109 513.01729583 39.27240928 513.02434795 29.39185524 513.04636812 C20.89047747 513.06455228 12.38919879 513.06706571 3.88780785 513.05661345 C-1.18176303 513.05039509 -6.25117898 513.04949712 -11.32073975 513.0627594 C-16.08812578 513.07436124 -20.85508834 513.06621332 -25.62242889 513.04318237 C-27.36624195 513.03791836 -29.11009099 513.03936927 -30.85388947 513.04823303 C-43.51872498 513.10664633 -53.53314294 511.97804266 -63.1015625 502.93554688 C-69.01369411 495.95155934 -72.26303458 487.73743882 -72.28265858 478.62102032 C-72.28711642 477.65603168 -72.29157426 476.69104305 -72.29616719 475.69681233 C-72.29598283 474.64449778 -72.29579847 473.59218322 -72.29560852 472.50798035 C-72.29928521 471.38385327 -72.3029619 470.2597262 -72.30675 469.10153466 C-72.31778233 465.32639285 -72.32162998 461.55127857 -72.32543945 457.77612305 C-72.33117372 455.0723141 -72.33833887 452.36850926 -72.34535217 449.66470337 C-72.36509473 441.54354202 -72.37518156 433.42237947 -72.38407996 425.30120012 C-72.38846788 421.47139672 -72.39383351 417.64159469 -72.39906883 413.81179237 C-72.41608152 401.07018795 -72.43057276 388.32858437 -72.43781757 375.58697033 C-72.4397273 372.28201992 -72.44164766 368.97706952 -72.44360352 365.67211914 C-72.44408726 364.85074332 -72.444571 364.02936751 -72.4450694 363.18310151 C-72.45335868 349.89577353 -72.47867674 336.60853589 -72.51118419 323.3212473 C-72.54432885 309.66142006 -72.56227315 296.00163859 -72.56546181 282.34177095 C-72.56762044 274.67969143 -72.57627337 267.01774352 -72.60192299 259.35570335 C-72.62373173 252.82609248 -72.63163095 246.29664518 -72.62195621 239.76700201 C-72.61744012 236.44131913 -72.62136255 233.11624407 -72.63871765 229.79056358 C-72.74868026 207.45796617 -71.3386718 188.67910036 -55.30859375 171.53710938 C-51.57456464 168.04616354 -47.41766592 165.30577708 -43.1484375 162.51757812 C-41.37294541 161.29515053 -39.60201421 160.0660694 -37.8359375 158.83007812 C-37.05605469 158.28996094 -36.27617187 157.74984375 -35.47265625 157.19335938 C-22.85026965 148.09251256 -15.68745206 134.73531562 -13.1484375 119.51757812 C-12.83679422 115.43362665 -12.7777285 111.35831023 -12.734375 107.26367188 C-12.71500885 106.12221207 -12.6956427 104.98075226 -12.6756897 103.80470276 C-12.61630152 100.18823528 -12.56967215 96.57173526 -12.5234375 92.95507812 C-12.4852202 90.49087216 -12.44616633 88.02667903 -12.40625 85.5625 C-12.31063363 79.54763119 -12.226453 73.53269992 -12.1484375 67.51757812 C-15.7784375 67.51757812 -19.4084375 67.51757812 -23.1484375 67.51757812 C-23.27234861 59.83127677 -23.36292769 52.14556123 -23.4230957 44.45849609 C-23.44818702 41.84543729 -23.48226779 39.2324483 -23.52563477 36.61962891 C-23.58651896 32.85626972 -23.61470267 29.09384123 -23.63671875 25.33007812 C-23.66252518 24.16831055 -23.6883316 23.00654297 -23.71492004 21.80957031 C-23.71700105 15.7452441 -23.25314349 11.3377879 -19.90861511 6.20776367 C-13.74232305 0.28666932 -8.20381836 -0.06450224 0 0 Z " fill="#1B9D5E" transform="translate(210.1484375,-0.517578125)"/>
<path d="M0 0 C1.10168518 -0.00700928 2.20337036 -0.01401855 3.33843994 -0.02124023 C6.96807303 -0.03879758 10.59692193 -0.02720469 14.2265625 -0.01367188 C16.75569813 -0.01636742 19.28483275 -0.02025036 21.81396484 -0.02526855 C27.1098108 -0.03116059 32.40537757 -0.02299349 37.70117188 -0.00390625 C43.81060142 0.01786021 49.91949689 0.01080784 56.0289135 -0.01121187 C61.92306813 -0.03159972 67.81705785 -0.02937993 73.71124268 -0.01768494 C76.21185379 -0.0150198 78.71247857 -0.01827989 81.21307373 -0.02760315 C84.71012285 -0.03778074 88.20615171 -0.02224887 91.703125 0 C93.24785492 -0.01214539 93.24785492 -0.01214539 94.8237915 -0.02453613 C101.90590969 0.05878466 106.36341403 1.16813311 111.61174011 6.20776367 C115.62441378 12.36262642 115.49938635 18.14770372 115.33984375 25.33007812 C115.32923164 27.14427246 115.32923164 27.14427246 115.31840515 28.99511719 C115.29054348 32.83658168 115.22781486 36.67655836 115.1640625 40.51757812 C115.13896925 43.13083824 115.11615789 45.74412133 115.09570312 48.35742188 C115.04074287 54.74470893 114.95452247 61.13089176 114.8515625 67.51757812 C111.2215625 67.51757812 107.5915625 67.51757812 103.8515625 67.51757812 C103.89609284 74.64895815 103.96631748 81.77948437 104.05908203 88.91040039 C104.08709066 91.32992715 104.1084038 93.74954199 104.12255859 96.16918945 C104.23930249 115.00776227 104.87830842 130.50781941 115.8515625 146.51757812 C116.27824219 147.15953125 116.70492187 147.80148438 117.14453125 148.46289062 C122.6730887 155.7775974 131.54087049 160.65073338 139.08203125 165.66601562 C151.74194488 174.12976607 159.81828213 186.87447835 163.1015625 201.70507812 C163.91844693 205.83879501 163.8515625 209.10983058 163.8515625 213.51757812 C85.9715625 213.51757812 8.0915625 213.51757812 -72.1484375 213.51757812 C-70.78870452 195.8410494 -66.18918949 181.84845047 -53.1484375 169.51757812 C-49.92561913 167.0079172 -46.55969115 164.7612896 -43.1484375 162.51757812 C-41.37332089 161.29460535 -39.60238477 160.06553976 -37.8359375 158.83007812 C-37.05605469 158.28996094 -36.27617187 157.74984375 -35.47265625 157.19335938 C-22.85026965 148.09251256 -15.68745206 134.73531562 -13.1484375 119.51757812 C-12.83679422 115.43362665 -12.7777285 111.35831023 -12.734375 107.26367188 C-12.71500885 106.12221207 -12.6956427 104.98075226 -12.6756897 103.80470276 C-12.61630152 100.18823528 -12.56967215 96.57173526 -12.5234375 92.95507812 C-12.4852202 90.49087216 -12.44616633 88.02667903 -12.40625 85.5625 C-12.31063363 79.54763119 -12.226453 73.53269992 -12.1484375 67.51757812 C-15.7784375 67.51757812 -19.4084375 67.51757812 -23.1484375 67.51757812 C-23.27234861 59.83127677 -23.36292769 52.14556123 -23.4230957 44.45849609 C-23.44818702 41.84543729 -23.48226779 39.2324483 -23.52563477 36.61962891 C-23.58651896 32.85626972 -23.61470267 29.09384123 -23.63671875 25.33007812 C-23.66252518 24.16831055 -23.6883316 23.00654297 -23.71492004 21.80957031 C-23.71700105 15.7452441 -23.25314349 11.3377879 -19.90861511 6.20776367 C-13.74232305 0.28666932 -8.20381836 -0.06450224 0 0 Z " fill="#F6495A" transform="translate(210.1484375,-0.517578125)"/>
<path d="M0 0 C2.94893086 1.33112201 5.0416973 2.78690969 7.33503723 5.06088257 C7.9730426 5.68891281 8.61104797 6.31694305 9.26838684 6.96400452 C9.95688217 7.65183517 10.6453775 8.33966583 11.35473633 9.04833984 C12.08844452 9.77372452 12.82215271 10.49910919 13.57809448 11.24647522 C16.00155623 13.64584025 18.41728864 16.05279952 20.83203125 18.4609375 C22.51015043 20.13009352 24.18834872 21.79917002 25.86662292 23.46817017 C29.38153299 26.96659094 32.8920252 30.46938181 36.40014648 33.97460938 C40.90577569 38.4748403 45.42735374 42.95867694 49.95302296 47.43874168 C53.4228535 50.87890596 56.88145185 54.33019353 60.33698082 57.78471756 C61.99995335 59.44347076 63.66706715 61.09808252 65.33829689 62.74851608 C67.66820366 65.05171367 69.98194836 67.37001832 72.29223633 69.69287109 C72.99085281 70.37665329 73.6894693 71.06043549 74.40925598 71.76493835 C75.03316223 72.39860825 75.65706848 73.03227814 76.29988098 73.68515015 C77.12308444 74.50533662 77.12308444 74.50533662 77.96291828 75.34209251 C79 77 79 77 78.85660172 78.99678612 C77.87073559 81.30229249 76.77077139 82.59877114 74.99449158 84.36627197 C74.3536412 85.01124634 73.71279083 85.6562207 73.05252075 86.32073975 C72.3454599 87.01701477 71.63839905 87.71328979 70.90991211 88.43066406 C70.16849472 89.17251953 69.42707733 89.914375 68.66319275 90.67871094 C66.20828634 93.13152564 63.74292095 95.57354069 61.27734375 98.015625 C59.57418172 99.71319247 57.87168038 101.41142305 56.16981506 103.11029053 C51.6866725 107.58197345 47.194594 112.04457468 42.70062256 116.50537109 C38.11727066 121.0580465 33.54238937 125.61921604 28.96679688 130.1796875 C19.98615557 139.12814487 10.9963396 148.06732651 2 157 C-0.94893086 155.66887799 -3.0416973 154.21309031 -5.33503723 151.93911743 C-5.9730426 151.31108719 -6.61104797 150.68305695 -7.26838684 150.03599548 C-7.95688217 149.34816483 -8.6453775 148.66033417 -9.35473633 147.95166016 C-10.08844452 147.22627548 -10.82215271 146.50089081 -11.57809448 145.75352478 C-14.00155623 143.35415975 -16.41728864 140.94720048 -18.83203125 138.5390625 C-20.51015043 136.86990648 -22.18834872 135.20082998 -23.86662292 133.53182983 C-27.38153299 130.03340906 -30.8920252 126.53061819 -34.40014648 123.02539062 C-38.90577569 118.5251597 -43.42735374 114.04132306 -47.95302296 109.56125832 C-51.4228535 106.12109404 -54.88145185 102.66980647 -58.33698082 99.21528244 C-59.99995335 97.55652924 -61.66706715 95.90191748 -63.33829689 94.25148392 C-65.66820366 91.94828633 -67.98194836 89.62998168 -70.29223633 87.30712891 C-70.99085281 86.62334671 -71.6894693 85.93956451 -72.40925598 85.23506165 C-73.03316223 84.60139175 -73.65706848 83.96772186 -74.29988098 83.31484985 C-74.84868329 82.76805887 -75.3974856 82.22126789 -75.96291828 81.65790749 C-77 80 -77 80 -76.85660172 78.00321388 C-75.87073559 75.69770751 -74.77077139 74.40122886 -72.99449158 72.63372803 C-72.3536412 71.98875366 -71.71279083 71.3437793 -71.05252075 70.67926025 C-70.3454599 69.98298523 -69.63839905 69.28671021 -68.90991211 68.56933594 C-68.16849472 67.82748047 -67.42707733 67.085625 -66.66319275 66.32128906 C-64.20828634 63.86847436 -61.74292095 61.42645931 -59.27734375 58.984375 C-57.57418172 57.28680753 -55.87168038 55.58857695 -54.16981506 53.88970947 C-49.6866725 49.41802655 -45.194594 44.95542532 -40.70062256 40.49462891 C-36.11727066 35.9419535 -31.54238937 31.38078396 -26.96679688 26.8203125 C-17.98615557 17.87185513 -8.9963396 8.93267349 0 0 Z " fill="#F44A5B" transform="translate(255,254)"/>
<path d="M0 0 C18.15 0 36.3 0 55 0 C56.0382242 12.73190735 56.93181228 25.37170729 57.375 38.125 C57.40752869 39.05452862 57.44005737 39.98405724 57.47357178 40.94175339 C58.72115905 81.23734501 58.72115905 81.23734501 44.01620483 97.65686035 C35.90958082 105.83265012 26.76797115 112.92260358 17 119 C20.41349649 123.47936124 23.62620407 126.65305873 28.55819702 129.37397766 C39.96519879 135.81825983 51.02231873 145.11930277 55 158 C61.04541988 186.50989732 56.73895094 219.30730948 55 248 C36.85 248 18.7 248 0 248 C0 166.16 0 84.32 0 0 Z " fill="#21B472" transform="translate(139,213)"/>
<path d="M0 0 C77.88 0 155.76 0 236 0 C236 30.09558824 236 30.09558824 225.40625 41.75390625 C215.85643951 50.74063829 204.46967458 50.58028666 192.1328125 50.51757812 C190.33477208 50.52300583 188.53673612 50.53013211 186.7387085 50.53881836 C181.8791681 50.55697755 177.01996927 50.55001488 172.16042328 50.53730202 C167.06152971 50.52713586 161.96266431 50.53657771 156.86376953 50.54284668 C148.30300679 50.55011258 139.74238234 50.54056316 131.18164062 50.52148438 C121.30107859 50.49971771 111.42084678 50.50676982 101.54029274 50.52879 C93.03891497 50.54697416 84.53763629 50.54948758 76.03624535 50.53903532 C70.96667447 50.53281697 65.89725852 50.531919 60.82769775 50.54518127 C56.06031172 50.55678312 51.29334916 50.5486352 46.52600861 50.52560425 C44.78219555 50.52034024 43.03834651 50.52179114 41.29454803 50.53065491 C28.62971252 50.58906821 18.61529456 49.46046454 9.046875 40.41796875 C-1.38766088 28.09167541 0 16.16653687 0 0 Z " fill="#F6485A" transform="translate(138,462)"/>
<path d="M0 0 C1.10168518 -0.00700928 2.20337036 -0.01401855 3.33843994 -0.02124023 C6.96807303 -0.03879758 10.59692193 -0.02720469 14.2265625 -0.01367188 C16.75569813 -0.01636742 19.28483275 -0.02025036 21.81396484 -0.02526855 C27.1098108 -0.03116059 32.40537757 -0.02299349 37.70117188 -0.00390625 C43.81060142 0.01786021 49.91949689 0.01080784 56.0289135 -0.01121187 C61.92306813 -0.03159972 67.81705785 -0.02937993 73.71124268 -0.01768494 C76.21185379 -0.0150198 78.71247857 -0.01827989 81.21307373 -0.02760315 C84.71012285 -0.03778074 88.20615171 -0.02224887 91.703125 0 C93.24785492 -0.01214539 93.24785492 -0.01214539 94.8237915 -0.02453613 C101.04597907 0.04866761 104.91155162 0.60509105 109.8515625 4.51757812 C121.01653806 22.38153901 114.8515625 46.45154438 114.8515625 67.51757812 C69.3115625 67.51757812 23.7715625 67.51757812 -23.1484375 67.51757812 C-23.1484375 12.51757812 -23.1484375 12.51757812 -18.1484375 4.51757812 C-12.36062749 -0.06636559 -7.20568251 -0.05665443 0 0 Z " fill="#22B472" transform="translate(210.1484375,-0.517578125)"/>
<path d="M0 0 C0 33.66 0 67.32 0 102 C-45.21 102 -90.42 102 -137 102 C-137 72.63 -137 43.26 -137 13 C-132.57153816 16.79582444 -128.33655704 20.51928132 -124.24829102 24.63818359 C-123.72057602 25.16575256 -123.19286102 25.69332153 -122.64915466 26.23687744 C-120.93168636 27.955034 -119.21777247 29.67668852 -117.50390625 31.3984375 C-116.30343713 32.60077468 -115.10274482 33.80288905 -113.90184021 35.00479126 C-110.76133452 38.14909163 -107.62384519 41.29638479 -104.48699951 44.44433594 C-101.27767382 47.66394173 -98.06546995 50.88067321 -94.85351562 54.09765625 C-88.56620898 60.39564635 -82.28208894 66.69680565 -76 73 C-73.11692973 71.69357505 -71.05800602 70.30528483 -68.83027649 68.0640564 C-68.22881805 67.46390213 -67.62735962 66.86374786 -67.00767517 66.2454071 C-66.35972488 65.58869522 -65.7117746 64.93198334 -65.04418945 64.25537109 C-64.35270813 63.56257553 -63.66122681 62.86977997 -62.9487915 62.1559906 C-60.66565697 59.86636769 -58.38957568 57.56985903 -56.11328125 55.2734375 C-54.53006476 53.68395178 -52.94633279 52.09497933 -51.36210632 50.50650024 C-47.1940551 46.32514465 -43.03160828 42.13825777 -38.87072754 37.94976807 C-32.20073433 31.23664921 -25.52398538 24.53026548 -18.84404564 17.82704544 C-16.5055746 15.47830678 -14.17052016 13.12620954 -11.83576965 10.77377319 C-10.41316902 9.34434901 -8.99046076 7.91503193 -7.56762695 6.48583984 C-6.91360397 5.8250795 -6.25958099 5.16431915 -5.58573914 4.48353577 C-1.11363369 0 -1.11363369 0 0 0 Z " fill="#21B472" transform="translate(331,359)"/>
<path d="M0 0 C45.21 0 90.42 0 137 0 C137 30.69 137 61.38 137 93 C129.125 86.25 129.125 86.25 126.61463928 83.7348938 C126.04126831 83.16289749 125.46789734 82.59090118 124.87715149 82.00157166 C124.27581894 81.39664383 123.67448639 80.791716 123.05493164 80.16845703 C122.40042023 79.51409164 121.74590881 78.85972626 121.07156372 78.18553162 C118.93204586 76.04532311 116.79608124 73.90160617 114.66015625 71.7578125 C113.16822345 70.26401251 111.67606814 68.77043472 110.18370056 67.27706909 C106.27381051 63.36337761 102.36693406 59.44669135 98.46069336 55.52935791 C94.46715994 51.52555912 90.47076191 47.52462187 86.47460938 43.5234375 C78.64694515 35.68507787 70.82246401 27.84354907 63 20 C58.94534797 21.61470748 56.24008675 24.49875537 53.23754883 27.55126953 C52.67286392 28.11726868 52.10817902 28.68326782 51.52638245 29.26641846 C49.66528839 31.13399199 47.81126903 33.00843368 45.95703125 34.8828125 C44.66527879 36.18083541 43.3730098 37.47834447 42.08024597 38.77536011 C38.68157475 42.18732638 35.28851926 45.60481852 31.89703369 49.02392578 C26.45883194 54.50527902 21.01384818 59.97987571 15.56567955 65.45132065 C13.6593071 67.3679571 11.75635939 69.28794701 9.85371399 71.20828247 C8.69401217 72.37480782 7.53420267 73.54122614 6.37426758 74.70751953 C5.8418042 75.24672028 5.30934082 75.78592102 4.76074219 76.34146118 C3.52601437 77.58005865 2.26576106 78.79313406 1 80 C0.67 80 0.34 80 0 80 C0 53.6 0 27.2 0 0 Z " fill="#21B472" transform="translate(194,213)"/>
<path d="M0 0 C14.19 0 28.38 0 43 0 C43.02578125 3.57972656 43.0515625 7.15945312 43.078125 10.84765625 C43.11667451 14.36278732 43.16179308 17.87777806 43.20751953 21.39282227 C43.23552816 23.81234902 43.2568413 26.23196386 43.27099609 28.65161133 C43.38773999 47.49018415 44.02674592 62.99024128 55 79 C55.64001953 79.96292969 55.64001953 79.96292969 56.29296875 80.9453125 C61.8215262 88.26001928 70.68930799 93.13315526 78.23046875 98.1484375 C90.90826096 106.62414062 98.99466251 119.39060233 102.25 134.25 C102.98466277 138.02464664 103 141.0107555 103 145 C88.81 145 74.62 145 60 145 C59.01 139.72 58.02 134.44 57 129 C54.10972045 120.73058908 50.82096863 114.50578847 45 108 C44.42765625 107.33484375 43.8553125 106.6696875 43.265625 105.984375 C39.34187687 101.72526378 35.02767268 98.60422769 30.125 95.5625 C14.57954002 85.89261978 4.84517592 73.38758852 0.42958069 55.4551239 C-0.42904732 50.5479244 -0.24116816 45.59154817 -0.1953125 40.625 C-0.1924826 39.4599292 -0.18965271 38.2948584 -0.18673706 37.09448242 C-0.17559807 33.39621438 -0.15050479 29.69819408 -0.125 26 C-0.1149621 23.48307643 -0.10583766 20.96614904 -0.09765625 18.44921875 C-0.07738628 12.29930837 -0.0382247 6.14992948 0 0 Z " fill="#DD2B44" transform="translate(271,67)"/>
<path d="M0 0 C2.31 1.98 4.62 3.96 7 6 C8.87967597 7.34010462 10.76746975 8.66891705 12.66430664 9.98461914 C21.99168725 17.16481226 29.8598582 24.43120193 31.60323143 36.56647301 C32.76007681 48.44557614 32.1748321 60.4036133 31.57928467 72.29986572 C31.34092351 77.57469649 31.23832388 82.85215881 31.12304688 88.13085938 C30.87875393 98.42848952 30.47558718 108.71045657 30 119 C20.1 119 10.2 119 0 119 C0 79.73 0 40.46 0 0 Z " fill="#77D7A8" transform="translate(164,342)"/>
<path d="M0 0 C34.83435649 0 34.83435649 0 40.76017761 5.69018555 C44.77285128 11.8450483 44.64782385 17.6301256 44.48828125 24.8125 C44.48120651 26.02196289 44.47413177 27.23142578 44.46684265 28.47753906 C44.43898098 32.31900355 44.37625236 36.15898023 44.3125 40 C44.28740675 42.61326012 44.26459539 45.22654321 44.24414062 47.83984375 C44.19344423 54.22758891 44.09556306 60.61214039 44 67 C29.48 67 14.96 67 0 67 C0 44.89 0 22.78 0 0 Z " fill="#189E5E" transform="translate(281,0)"/>
<path d="M0 0 C9.9 0 19.8 0 30 0 C30.85047829 12.89072425 31.47370496 25.77275434 31.8125 38.6875 C31.83717724 39.62473278 31.86185448 40.56196556 31.88727951 41.52759933 C32.83157823 82.12883183 32.83157823 82.12883183 21.65995789 95.05543518 C15.64314445 101.15945485 8.6706502 106.19537369 1 110 C0.67 110 0.34 110 0 110 C0 73.7 0 37.4 0 0 Z " fill="#77D7A8" transform="translate(164,213)"/>
<path d="M0 0 C1.67578125 1.23046875 1.67578125 1.23046875 3 3 C3.29296875 5.26171875 3.29296875 5.26171875 3.1875 7.6875 C3.16042969 8.49574219 3.13335937 9.30398438 3.10546875 10.13671875 C3.05326172 11.05904297 3.05326172 11.05904297 3 12 C3.70125 12.0825 4.4025 12.165 5.125 12.25 C12.03233655 14.05191388 16.4213444 18.92087233 20.12109375 24.7734375 C23.295621 32.8155732 21.27355979 43.26249504 18 51 C13.23201074 61.93385937 7.28711735 71.57803158 0 81 C-0.65355469 81.87398438 -1.30710938 82.74796875 -1.98046875 83.6484375 C-6.0786592 88.80510099 -6.0786592 88.80510099 -10.25 89.6875 C-13.25830938 88.93542265 -14.10631733 88.37530109 -16 86 C-16.30872303 83.07306815 -16.45971161 80.30619805 -16.5 77.375 C-16.93651441 64.49721006 -18.90905851 52.69134339 -23.19921875 40.5 C-25.19479736 34.26990094 -23.89386345 29.28410273 -21.4140625 23.44140625 C-18.77700379 18.8884734 -14.70125752 15.35062876 -10 13 C-9.64327759 10.48036578 -9.55624883 7.98666757 -9.44140625 5.4453125 C-8.45135652 -0.03938777 -5.09522907 -0.63690363 0 0 Z " fill="#FBC554" transform="translate(257,288)"/>
<path d="M0 0 C14.19 0 28.38 0 43 0 C43 30.09558824 43 30.09558824 32.40625 41.75390625 C24.77702587 48.93329405 15.89789758 50.60534674 5.7421875 50.390625 C4.71312286 50.38496521 3.68405823 50.37930542 2.62380981 50.37347412 C-0.62628974 50.35128703 -3.87524011 50.30112415 -7.125 50.25 C-9.34373395 50.22991216 -11.56248538 50.21166542 -13.78125 50.1953125 C-19.18788455 50.15148064 -24.59386014 50.08474869 -30 50 C-30 49.67 -30 49.34 -30 49 C-29.31035156 48.85304688 -28.62070312 48.70609375 -27.91015625 48.5546875 C-17.60908632 46.09599591 -10.80928732 42.27149224 -5.19140625 33.1484375 C-4.79824219 32.43945312 -4.40507812 31.73046875 -4 31 C-3.63777344 30.37351562 -3.27554687 29.74703125 -2.90234375 29.1015625 C0.63417176 20.86500258 -0.33712255 7.07957356 0 0 Z " fill="#DD2B44" transform="translate(331,462)"/>
<path d="M0 0 C3.34139976 0.02999461 4.22721051 0.29795352 7.1875 2.1875 C9.86649308 4.94767469 10.20288347 5.80364152 10.5625 9.6875 C10.37293268 20.20848602 4.74966383 30.57534933 -0.75 39.3125 C-1.74 39.8075 -1.74 39.8075 -2.75 40.3125 C-3.00394531 39.27351563 -3.25789062 38.23453125 -3.51953125 37.1640625 C-3.86669933 35.75508796 -4.21439134 34.34624245 -4.5625 32.9375 C-4.74264648 32.20595703 -4.92279297 31.47441406 -5.10839844 30.72070312 C-6.11089147 26.70008505 -7.20935603 22.75236053 -8.5 18.8125 C-9.84110827 14.37939211 -10.3772991 10.93883088 -9.75 6.3125 C-7.3125 3.375 -7.3125 3.375 -4.75 1.3125 C-3.75 0.3125 -3.75 0.3125 0 0 Z " fill="#F74B5A" transform="translate(255.75,311.6875)"/>
</svg>
