<?xml version="1.0" encoding="UTF-8"?>
<svg version="1.1" xmlns="http://www.w3.org/2000/svg" width="512" height="512">
<path d="M0 0 C3.08810981 2.24543093 5.78948714 4.76410669 8.47753906 7.47167969 C10.25395779 9.25493518 12.06043505 11.00530637 13.8671875 12.7578125 C20.59253845 19.32912969 27.07658584 25.92244722 32.8828125 33.328125 C34.79547438 35.74189018 36.78886058 38.0591711 38.8215332 40.37182617 C50.01784404 53.20505967 59.54232269 67.51584348 68.00292969 82.27490234 C68.9841478 83.97257306 69.99578789 85.65254293 71.0078125 87.33203125 C76.02968506 95.79044013 80.07833319 104.52854508 84.01953125 113.53125 C85.57482596 117.08194679 87.2264102 120.55352896 89 124 C89.72960937 123.35675781 90.45921875 122.71351563 91.2109375 122.05078125 C118.52291886 98.28552077 168.54658922 59.18338837 206.28515625 59.79296875 C215.06231391 60.46230595 221.77007429 63.81772191 228 70 C234.20111873 77.63521042 236.30954706 84.51270531 236.30078125 94.2265625 C236.30924828 95.56481331 236.30924828 95.56481331 236.31788635 96.93009949 C236.32991909 99.8285763 236.32364031 102.726524 236.3125 105.625 C236.31034485 106.61696381 236.3081897 107.60892761 236.30596924 108.63095093 C236.18404048 143.55085253 231.36898763 177.88711572 220 211 C219.72043457 211.8235498 219.44086914 212.64709961 219.15283203 213.49560547 C214.86128542 226.00447426 209.58327515 238.01950007 204 250 C204.86625 250.25910156 205.7325 250.51820313 206.625 250.78515625 C232.27454619 260.0178054 253.40269478 285.23381479 265.00488281 309.06396484 C279.23794047 339.88318367 280.95936294 375.28164253 269.25 407.25 C262.57668901 424.43281516 252.61852636 438.58253529 240 452 C239.19369141 452.90298828 239.19369141 452.90298828 238.37109375 453.82421875 C232.73712755 459.88179143 225.80935539 464.37900549 219 469 C218.19949219 469.55816406 217.39898437 470.11632812 216.57421875 470.69140625 C190.81988823 487.47975314 155.9373083 492.00301756 126.1953125 485.96875 C93.86152065 478.74698938 66.00886889 460.26342148 47.14453125 432.9609375 C46 431 46 431 46 429 C45.34 429 44.68 429 44 429 C43.74347656 429.72832031 43.48695313 430.45664062 43.22265625 431.20703125 C41.07109433 436.12194108 37.44036538 439.92870257 34 444 C33.31679687 444.81984375 32.63359375 445.6396875 31.9296875 446.484375 C11.75544062 469.85970165 -18.18303649 485.21857763 -49 488 C-84.36743728 490.05555355 -117.24060729 481.34961245 -144.125 457.5625 C-145.75686504 456.04903526 -147.38206263 454.52834475 -149 453 C-150.12535156 451.97132813 -150.12535156 451.97132813 -151.2734375 450.921875 C-169.88353276 433.29125844 -183.169583 406.47375297 -186 381 C-186.16242188 379.69289063 -186.16242188 379.69289063 -186.328125 378.359375 C-190.12917997 343.34965817 -179.90441582 310.36784209 -158.10693359 282.98388672 C-136.31685305 256.12255231 -104.57279922 241.6053974 -70.6184082 238.01660156 C-66.74803251 237.64048247 -62.87643837 237.30752538 -59 237 C-59.41511841 235.83319702 -59.41511841 235.83319702 -59.83862305 234.64282227 C-65.9576318 217.29183489 -71.22000085 200.25074238 -74 182 C-74.12842285 181.16452637 -74.2568457 180.32905273 -74.38916016 179.46826172 C-82.12230234 126.09335726 -72.29617037 54.4092138 -43 8 C-32.44370799 -5.01487388 -14.60709119 -7.92212226 0 0 Z " fill="#D54641" transform="translate(211,14)"/>
<path d="M0 0 C3.08810981 2.24543093 5.78948714 4.76410669 8.47753906 7.47167969 C10.25395779 9.25493518 12.06043505 11.00530637 13.8671875 12.7578125 C20.59253845 19.32912969 27.07658584 25.92244722 32.8828125 33.328125 C34.79547438 35.74189018 36.78886058 38.0591711 38.8215332 40.37182617 C50.01784404 53.20505967 59.54232269 67.51584348 68.00292969 82.27490234 C68.9841478 83.97257306 69.99578789 85.65254293 71.0078125 87.33203125 C76.02968506 95.79044013 80.07833319 104.52854508 84.01953125 113.53125 C85.57482596 117.08194679 87.2264102 120.55352896 89 124 C89.72960937 123.35675781 90.45921875 122.71351563 91.2109375 122.05078125 C118.52291886 98.28552077 168.54658922 59.18338837 206.28515625 59.79296875 C215.06231391 60.46230595 221.77007429 63.81772191 228 70 C234.20111873 77.63521042 236.30954706 84.51270531 236.30078125 94.2265625 C236.30924828 95.56481331 236.30924828 95.56481331 236.31788635 96.93009949 C236.32991909 99.8285763 236.32364031 102.726524 236.3125 105.625 C236.31034485 106.61696381 236.3081897 107.60892761 236.30596924 108.63095093 C236.18400825 143.56008427 231.35370726 177.87507213 220 211 C219.72043457 211.82886719 219.44086914 212.65773437 219.15283203 213.51171875 C214.97839621 225.77427628 209.73219609 237.39262788 204 249 C197.48348338 248.29527657 191.64858518 246.3752652 185.46679688 244.25976562 C155.52533545 234.37736681 122.2742916 239.31305668 94.49707031 253.12426758 C85.90612233 257.55127486 78.38469742 262.79171354 71 269 C69.69482422 270.05960937 69.69482422 270.05960937 68.36328125 271.140625 C59.39728193 278.74131516 52.39623141 288.19740348 46 298 C42.21664297 296.73888099 41.59793712 295.32372257 39.375 292.0625 C35.29960923 286.30022587 30.8376842 281.12983565 26 276 C25.38769531 275.32324219 24.77539062 274.64648438 24.14453125 273.94921875 C14.4894328 263.67652338 2.51863282 256.67870825 -10.17480469 250.84326172 C-11.78695481 250.09842939 -13.38316683 249.31930766 -14.9765625 248.53515625 C-28.2394012 242.38941832 -43.62711952 240.85555352 -58 239 C-85.50434929 166.75500275 -79.35259309 89.93728998 -48.96484375 19.15625 C-44.42825337 9.13148628 -39.09533605 1.86650593 -28.6875 -2.5 C-18.84289926 -5.57557959 -9.10615271 -4.93870095 0 0 Z " fill="#0C9144" transform="translate(211,14)"/>
<path d="M0 0 C6.62103371 -0.15775046 12.9518133 0.80734747 19.47070312 1.88989258 C20.5303125 2.05553711 21.58992187 2.22118164 22.68164062 2.3918457 C29.63387063 3.52073109 36.34127029 5.08978072 43.09570312 7.07739258 C44.03575195 7.34374512 44.97580078 7.61009766 45.94433594 7.88452148 C50.78626947 9.33223528 53.5265945 10.88915597 55.97070312 15.38989258 C58.75022967 22.03914866 60.49753517 29.06453619 62.09570312 36.07739258 C62.27520508 36.78702148 62.45470703 37.49665039 62.63964844 38.2277832 C64.43490897 45.95479009 64.49343054 53.68650229 64.47070312 61.57739258 C64.4701593 62.28670929 64.46961548 62.996026 64.46905518 63.72683716 C64.42949857 74.95316048 63.55370206 85.35075356 60.09570312 96.07739258 C59.88139648 96.7831543 59.66708984 97.48891602 59.44628906 98.21606445 C53.23414924 118.48916121 42.61386768 134.63829968 28.09570312 150.07739258 C27.56976563 150.6677832 27.04382813 151.25817383 26.50195312 151.86645508 C10.73109175 168.84427013 -12.61517819 179.28730869 -34.90429688 184.07739258 C-35.93103516 184.3322644 -35.93103516 184.3322644 -36.97851562 184.59228516 C-44.48793781 186.32374424 -51.84689066 186.42315392 -59.52929688 186.38989258 C-60.52607956 186.38715836 -60.52607956 186.38715836 -61.54299927 186.3843689 C-77.28114022 186.31164641 -91.20890236 183.77489778 -105.90429688 178.07739258 C-106.95875 177.73708008 -108.01320313 177.39676758 -109.09960938 177.04614258 C-113.42780869 174.00796368 -114.19775482 170.01293094 -115.65429688 165.07739258 C-115.95158691 164.12493652 -116.24887695 163.17248047 -116.55517578 162.19116211 C-118.4815344 155.88602974 -120.17475333 149.64328449 -120.90429688 143.07739258 C-121.06671875 141.7702832 -121.06671875 141.7702832 -121.23242188 140.43676758 C-125.03347685 105.42705075 -114.8087127 72.44523466 -93.01123047 45.0612793 C-72.43233442 19.69301104 -42.51732574 4.89460159 -10.41992188 0.61254883 C-6.94126969 0.2902879 -3.48860846 0.14178063 0 0 Z " fill="#F04E49" transform="translate(145.904296875,251.922607421875)"/>
<path d="M0 0 C1.28092529 0.00491455 2.56185059 0.0098291 3.8815918 0.01489258 C12.87096582 0.12642327 21.02790386 0.76019798 29.6875 3.3125 C30.33960449 3.50005859 30.99170898 3.68761719 31.66357422 3.88085938 C36.37813647 5.24714283 41.0320699 6.75741956 45.6875 8.3125 C46.65300781 8.60769531 47.61851562 8.90289062 48.61328125 9.20703125 C78.3267994 18.84741714 99.93255544 44.48089306 114.171875 71.0859375 C116.25918901 75.38923557 117.09087496 77.58960349 115.6875 82.3125 C114.53507197 84.90405768 113.35009966 87.41560132 112.0625 89.9375 C111.7005957 90.64825684 111.33869141 91.35901367 110.96582031 92.09130859 C96.09897591 120.89337657 71.14379998 142.84822182 40.3125 153.21875 C6.35149144 163.46560603 -28.05746916 161.30523207 -59.4921875 144.51171875 C-69.76215137 138.75542227 -78.82082455 131.43173354 -87.3125 123.3125 C-87.98539062 122.70277344 -88.65828125 122.09304688 -89.3515625 121.46484375 C-98.17516552 113.18612459 -104.6565412 102.95235562 -110.375 92.375 C-110.75712646 91.67769775 -111.13925293 90.98039551 -111.53295898 90.26196289 C-113.96782744 85.59824901 -116.35759485 80.80797149 -114.75854492 75.4597168 C-113.89670598 73.44635597 -112.92472016 71.54697642 -111.875 69.625 C-111.32247559 68.57626709 -111.32247559 68.57626709 -110.75878906 67.50634766 C-94.82038818 37.79678795 -69.02411184 15.19689877 -36.65356445 5.07910156 C-24.48844981 1.45480485 -12.70922557 -0.05774258 0 0 Z " fill="#F04F49" transform="translate(362.3125,252.6875)"/>
<path d="M0 0 C1.21411133 1.3190918 1.21411133 1.3190918 2.58203125 3.19921875 C3.35220581 4.25532349 3.35220581 4.25532349 4.13793945 5.33276367 C4.69054443 6.10982666 5.24314941 6.88688965 5.8125 7.6875 C6.67331177 8.89079956 6.67331177 8.89079956 7.55151367 10.1184082 C48.94864413 68.73755698 66.78297951 137.03535319 54.69775391 208.21630859 C51.39315517 226.13606759 46.92634977 243.76365671 41 261 C36.21350418 261 33.64028288 259.26136233 29.6875 256.875 C11.41885167 246.31097357 -7.27553118 242.67437291 -28 240 C-55.50434929 167.75500275 -49.35259309 90.93728998 -18.96484375 20.15625 C-15.61733254 12.77303155 -9.48202332 0 0 0 Z " fill="#0E9B49" transform="translate(181,13)"/>
<path d="M0 0 C9.61488892 3.86912397 15.83197626 9.32231397 20 19 C20.79723754 21.73956411 21.13287055 24.1997587 21.16113281 27.04882812 C21.17058929 27.84012619 21.18004578 28.63142426 21.18978882 29.44670105 C21.19639023 30.72605278 21.19639023 30.72605278 21.203125 32.03125 C21.21018463 32.9262471 21.21724426 33.8212442 21.22451782 34.74336243 C21.46224722 73.90220767 17.76816763 111.74832333 5 149 C4.72043457 149.82886719 4.44086914 150.65773437 4.15283203 151.51171875 C-0.02160379 163.77427628 -5.26780391 175.39262788 -11 187 C-17.51651662 186.29527657 -23.35141482 184.3752652 -29.53320312 182.25976562 C-40.57571512 178.6151036 -51.41010812 177.61180762 -63 177.625 C-64.2593335 177.62443604 -65.51866699 177.62387207 -66.81616211 177.62329102 C-77.59364268 177.74880995 -87.59463417 179.29829396 -98 182 C-99.33301569 182.33460136 -100.6662663 182.66827224 -102 183 C-100.66561192 178.99683575 -98.01097115 177.48957021 -94.75 175.0625 C-87.41640319 169.44699574 -80.65558808 163.396436 -74 157 C-73.45456543 156.48179687 -72.90913086 155.96359375 -72.34716797 155.4296875 C-64.60242143 148.04637762 -57.67791408 140.32218171 -51.29101562 131.73535156 C-50.44992887 130.60478336 -49.60255486 129.47885704 -48.74804688 128.35839844 C-20.33626461 91.09889 -6.81997483 45.76562059 0 0 Z " fill="#0C8A41" transform="translate(426,76)"/>
<path d="M0 0 C4.35175651 2.42143192 6.91076621 4.75197104 9.6875 8.875 C10.285625 9.761875 10.88375 10.64875 11.5 11.5625 C13.93800618 18.36325409 13.59436653 24.6972562 10.5625 31.25 C6.8190184 37.88521598 2.03948654 41.54687093 -5.3125 43.875 C-12.22363012 44.80251664 -17.54158246 43.81265067 -23.3125 39.875 C-29.08928497 35.14853957 -32.87880041 28.2119959 -33.625 20.75 C-33.12550789 14.55629789 -30.936567 9.79823724 -26.9375 5.0625 C-18.49304582 -1.97454515 -10.37736869 -4.84691472 0 0 Z " fill="#494747" transform="translate(159.3125,284.125)"/>
<path d="M0 0 C5.10238807 2.98676375 9.23142647 7.89312983 11.40234375 13.40625 C12.50685555 21.9865627 11.63073305 29.3650021 6.40234375 36.40625 C1.35885938 41.37936017 -4.45398732 43.44906872 -11.47265625 43.78125 C-17.72020811 43.6126504 -22.03451363 41.82783839 -26.578125 37.53515625 C-32.44996504 31.13061319 -34.08728033 26.08896322 -33.90625 17.41015625 C-33.27581033 11.27334475 -30.7740858 7.22882249 -26.28515625 3.09375 C-17.75839867 -3.56437773 -9.69610865 -4.18322099 0 0 Z " fill="#484747" transform="translate(424.59765625,305.59375)"/>
</svg>
