<?xml version="1.0" encoding="UTF-8"?>
<svg version="1.1" xmlns="http://www.w3.org/2000/svg" width="512" height="512">
<path d="M0 0 C4.3933536 4.16212447 6.63804017 9.15331519 8.71875 14.75 C10.00027799 18.15876068 11.28995299 20.53386284 13.78125 23.1875 C19.64905368 29.57655528 21.49276553 37.00059612 21.1640625 45.546875 C19.94514975 55.54693471 15.93698225 64.15301117 10.78125 72.6875 C10.29140625 73.54601562 9.8015625 74.40453125 9.296875 75.2890625 C-0.84828967 92.31485866 -16.1853112 105.91279713 -30.21875 119.6875 C-29.46819336 119.75743164 -28.71763672 119.82736328 -27.94433594 119.89941406 C-18.36594219 120.79693755 -8.79125296 121.72927428 0.78125 122.6875 C1.50787842 122.76011047 2.23450684 122.83272095 2.9831543 122.90753174 C141.40209157 136.80312448 141.40209157 136.80312448 175.78125 172.6875 C182.36886472 180.8163165 184.35006856 188.33816234 183.78125 198.6875 C183.60820133 200.29328987 183.42137367 201.89767338 183.21875 203.5 C182.79577839 206.87202369 183.04971199 209.35493794 183.78125 212.6875 C184.60703013 223.05562827 182.39621017 230.56349685 175.7109375 238.56640625 C131.03396747 287.6748976 24.55211237 288.02893002 -36.76391602 291.57666016 C-55.33135174 292.41501081 -72.55622286 288.13154988 -86.65625 275.5625 C-101.00590506 261.86455745 -106.67898593 245.03929078 -107.17578125 225.55078125 C-107.19521941 223.92974077 -107.20909765 222.30862829 -107.21875 220.6875 C-107.2276123 219.70096436 -107.23647461 218.71442871 -107.24560547 217.69799805 C-107.28528781 209.74529575 -107.05374878 201.81990361 -106.71875 193.875 C-106.67105469 192.69357422 -106.62335938 191.51214844 -106.57421875 190.29492188 C-106.45805502 187.4256777 -106.33953869 184.55655254 -106.21875 181.6875 C-106.84217285 182.12505615 -107.4655957 182.5626123 -108.10791016 183.01342773 C-158.3627984 218.2437064 -158.3627984 218.2437064 -186.91015625 213.40625 C-203.27978803 209.85015526 -217.75941131 200.88524262 -227.09521484 186.87060547 C-231.34626502 180.09179044 -235.32260757 173.16255212 -239.24365234 166.18945312 C-241.13063795 162.83393624 -243.05611859 159.50160986 -244.98828125 156.171875 C-246.14957242 154.15690367 -247.30978448 152.14130989 -248.46875 150.125 C-248.99331787 149.21709717 -249.51788574 148.30919434 -250.05834961 147.3737793 C-259.60498272 130.52116125 -263.11244149 113.44866317 -258.05297852 94.47167969 C-254.79130084 83.28015964 -249.58293863 74.76668665 -241.21875 66.6875 C-240.66622559 66.10895264 -240.11370117 65.53040527 -239.54443359 64.93432617 C-232.29601285 57.82946467 -223.49468046 53.87464124 -214.46875 49.5 C-212.75504624 48.65837317 -211.04158895 47.81624434 -209.32836914 46.97363281 C-194.78342487 39.84998729 -180.12764757 33.01949837 -165.21875 26.6875 C-164.52990723 26.39421814 -163.84106445 26.10093628 -163.13134766 25.79876709 C-35.71563704 -28.34574368 -35.71563704 -28.34574368 0 0 Z " fill="#EF7F38" transform="translate(294.21875,115.3125)"/>
<path d="M0 0 C4.3933536 4.16212447 6.63804017 9.15331519 8.71875 14.75 C10.00027799 18.15876068 11.28995299 20.53386284 13.78125 23.1875 C19.64905368 29.57655528 21.49276553 37.00059612 21.1640625 45.546875 C19.94514975 55.54693471 15.93698225 64.15301117 10.78125 72.6875 C10.29140625 73.54601562 9.8015625 74.40453125 9.296875 75.2890625 C4.66454839 83.06311557 -1.01053951 89.72802595 -7.12353516 96.35498047 C-8.63559085 98.03829207 -10.11016987 99.75553069 -11.56005859 101.49267578 C-27.62453981 120.73323816 -27.62453981 120.73323816 -37.703125 122.13671875 C-42.99182514 122.40696161 -48.22611641 122.08629236 -53.50488281 121.73779297 C-66.74582452 121.49241388 -79.73078242 131.63734014 -88.93359375 140.2421875 C-92.75332034 144.32962142 -95.54566956 148.79254963 -98.21875 153.6875 C-98.69183594 154.52796875 -99.16492188 155.3684375 -99.65234375 156.234375 C-102.21339459 161.25008288 -103.25769686 165.05421721 -103.45727539 170.70654297 C-103.79268947 176.03596667 -104.51085276 179.95557516 -108.37060547 183.86962891 C-114.02586183 188.44601078 -120.16035294 192.2559049 -126.39501953 195.98681641 C-128.80123447 197.43603768 -131.14099512 198.93545815 -133.46484375 200.51171875 C-150.26326501 211.89975114 -166.55321556 216.85580963 -186.91015625 213.40625 C-203.27978803 209.85015526 -217.75941131 200.88524262 -227.09521484 186.87060547 C-231.34626502 180.09179044 -235.32260757 173.16255212 -239.24365234 166.18945312 C-241.13063795 162.83393624 -243.05611859 159.50160986 -244.98828125 156.171875 C-246.14957242 154.15690367 -247.30978448 152.14130989 -248.46875 150.125 C-248.99331787 149.21709717 -249.51788574 148.30919434 -250.05834961 147.3737793 C-259.60498272 130.52116125 -263.11244149 113.44866317 -258.05297852 94.47167969 C-254.79130084 83.28015964 -249.58293863 74.76668665 -241.21875 66.6875 C-240.66622559 66.10895264 -240.11370117 65.53040527 -239.54443359 64.93432617 C-232.29601285 57.82946467 -223.49468046 53.87464124 -214.46875 49.5 C-212.75504624 48.65837317 -211.04158895 47.81624434 -209.32836914 46.97363281 C-194.78342487 39.84998729 -180.12764757 33.01949837 -165.21875 26.6875 C-164.52990723 26.39421814 -163.84106445 26.10093628 -163.13134766 25.79876709 C-35.71563704 -28.34574368 -35.71563704 -28.34574368 0 0 Z " fill="#ED6C1D" transform="translate(294.21875,115.3125)"/>
<path d="M0 0 C1.31266846 0.01244751 1.31266846 0.01244751 2.65185547 0.02514648 C14.4033425 0.33039402 23.11747165 4.0123751 32.1875 11.4375 C32.88617188 11.98792969 33.58484375 12.53835937 34.3046875 13.10546875 C42.41995954 20.2576443 48.68470376 32.44863224 49.4609375 43.23828125 C49.9558212 58.6466915 46.89050711 71.66013801 36.1875 83.4375 C33.75 85.80078125 33.75 85.80078125 31.1875 87.4375 C25.1405244 87.1780902 21.8585282 82.77402319 17.95214844 78.64257812 C13.63225989 73.8025013 10.4745201 68.32709358 7.3125 62.6875 C6.63583703 61.5083932 5.95774963 60.33010283 5.27832031 59.15258789 C3.90153902 56.75925382 2.53556294 54.36025289 1.17871094 51.95556641 C-0.71833526 48.59537165 -2.64941377 45.25558833 -4.5859375 41.91796875 C-5.74598697 39.90433397 -6.90490021 37.89004405 -8.0625 35.875 C-8.5869873 34.96717773 -9.11147461 34.05935547 -9.65185547 33.12402344 C-15.16786934 23.38732725 -18.99981072 14.67614338 -18.8125 3.4375 C-12.44318768 0.92367579 -6.8348888 -0.08412782 0 0 Z " fill="#FEC95B" transform="translate(53.8125,229.5625)"/>
<path d="M0 0 C10.51770022 -0.77908891 18.04679631 3.47980598 26 10 C26.845625 10.5775 27.69125 11.155 28.5625 11.75 C38.59687503 21.01250003 43.87854162 34.11728485 44.4375 47.5625 C44.25287036 59.03415484 40.3732393 70.13858396 33 79 C32.37609375 79.75796875 31.7521875 80.5159375 31.109375 81.296875 C24.0961189 89.03743174 14.66175793 94.84645982 4.125 95.9375 C2.75078137 95.98831516 1.37497898 96.02217708 0 96 C-4.00214192 88.72337834 -5.29441449 81.62564383 -5.640625 73.4609375 C-5.69769623 72.24221451 -5.69769623 72.24221451 -5.75592041 70.99887085 C-6.14149068 61.54034308 -6.02186869 52.08895034 -5.81298828 42.62744141 C-5.74962579 39.60716273 -5.70845235 36.5870681 -5.66796875 33.56640625 C-5.24051201 9.68898563 -5.24051201 9.68898563 0 0 Z " fill="#FECA5C" transform="translate(193,273)"/>
<path d="M0 0 C3.94674479 1.89410374 6.41212141 4.49404657 8.3125 8.3359375 C10.05558228 13.58581253 9.51906319 17.92256616 7.53515625 23.01171875 C2.80398852 30.23210713 -7.32724654 34.37718557 -14.58984375 38.63671875 C-15.54713379 39.1999585 -16.50442383 39.76319824 -17.49072266 40.34350586 C-23.27023539 43.73427561 -29.06707627 47.09276432 -34.90234375 50.38671875 C-35.51279541 50.7319458 -36.12324707 51.07717285 -36.75219727 51.43286133 C-51.52818191 59.70161582 -51.52818191 59.70161582 -59.02734375 58.32421875 C-64.33086655 55.62242412 -68.12566673 52.0292498 -70.02734375 46.32421875 C-70.59701201 40.72248091 -70.20021786 36.94795288 -66.90234375 32.296875 C-63.31926287 28.52717532 -58.90048846 26.17814838 -54.39257812 23.65576172 C-51.54225066 22.05112857 -48.71484152 20.40907476 -45.88671875 18.765625 C-41.35098952 16.13086838 -36.80468677 13.51589569 -32.25 10.9140625 C-28.65779969 8.85684343 -25.09489287 6.77424563 -21.5859375 4.578125 C-14.32372703 0.06594276 -8.48797982 -2.82932661 0 0 Z " fill="#EE7F38" transform="translate(219.02734375,144.67578125)"/>
<path d="M0 0 C1.3880979 -0.00015521 2.77619622 -0.00164777 4.16429138 -0.00440979 C7.06341883 -0.00578917 9.96204877 0.00668729 12.86108398 0.02954102 C16.56546045 0.05795162 20.26901295 0.05517529 23.97345066 0.0424509 C26.83634911 0.03547631 29.69905914 0.04330271 32.56193352 0.05570793 C33.92739068 0.06020332 35.2928682 0.06057605 36.6583271 0.05664253 C38.56985966 0.05371244 40.48138774 0.07246115 42.39282227 0.09204102 C44.01994896 0.10014549 44.01994896 0.10014549 45.6799469 0.1084137 C50.50985319 0.71910145 54.54224604 2.62225589 57.55859375 6.49609375 C60.79003081 10.92777886 61.18978143 14.08310409 60.74609375 19.49609375 C58.85381997 25.291858 56.25176537 28.62855645 50.74609375 31.49609375 C47.45076365 32.55475923 44.36097141 32.64601089 40.91113281 32.68896484 C39.73601135 32.70502777 38.56088989 32.7210907 37.35015869 32.73764038 C31.98310972 32.78223138 26.61620467 32.82358122 21.24902344 32.84619141 C18.4205683 32.85951478 15.59283735 32.88734342 12.76464844 32.92822266 C8.68021626 32.98724273 4.59655539 33.00487687 0.51171875 33.01953125 C-1.37616364 33.05353531 -1.37616364 33.05353531 -3.30218506 33.08822632 C-10.58669655 33.07074665 -15.68816374 32.42648728 -21.25390625 27.49609375 C-24.53833334 23.96533463 -25.52537078 21.27213777 -25.75390625 16.55859375 C-25.51415675 11.41558024 -24.426967 8.56412036 -21.25390625 4.49609375 C-14.73167543 -0.61570682 -7.99420716 -0.07294688 0 0 Z " fill="#ED6C1D" transform="translate(339.25390625,281.50390625)"/>
<path d="M0 0 C1.0349762 -0.01606293 2.06995239 -0.03212585 3.1362915 -0.04867554 C7.86217434 -0.09333837 12.58792014 -0.13418484 17.31396484 -0.15722656 C19.80266677 -0.17378112 22.29132126 -0.20106415 24.77978516 -0.23925781 C28.37785376 -0.29415736 31.97481057 -0.3159213 35.57324219 -0.33056641 C36.67871399 -0.35323578 37.78418579 -0.37590515 38.92315674 -0.39926147 C45.81414651 -0.380514 50.52300757 0.60022004 55.80761719 5.19287109 C59.40476538 9.66075754 59.37208661 13.68543289 59.22167969 19.24365234 C58.62104052 23.52178984 57.12763567 26.42104171 53.80761719 29.19287109 C48.07186835 32.99236694 42.50822677 32.62772227 35.87402344 32.59130859 C34.14707497 32.59561386 34.14707497 32.59561386 32.38523865 32.6000061 C29.95530708 32.60204368 27.52535899 32.59653535 25.09545898 32.58398438 C21.38650612 32.56794198 17.67864543 32.58383692 13.96972656 32.60302734 C11.60448979 32.60104457 9.2392537 32.5972002 6.87402344 32.59130859 C5.21748497 32.60041763 5.21748497 32.60041763 3.52748108 32.60971069 C-3.12418075 32.54929865 -8.7263518 32.2470195 -13.93457031 27.65771484 C-18.1723234 21.94405464 -18.97704494 18.27662645 -18.19238281 11.19287109 C-15.98702812 6.78216171 -13.27007546 3.94531363 -9.19238281 1.19287109 C-6.10707852 0.19334189 -3.23134704 0.04574046 0 0 Z " fill="#ED6C1D" transform="translate(289.1923828125,327.80712890625)"/>
</svg>
