<?xml version="1.0" encoding="UTF-8"?>
<svg version="1.1" xmlns="http://www.w3.org/2000/svg" width="512" height="512">
<path d="M0 0 C1.27681641 0.00837891 2.55363281 0.01675781 3.86914062 0.02539062 C12.69693237 0.39302617 16.29838681 2.37505823 22.37280273 8.60620117 C26.05735034 11.56069731 28.90815695 11.3612469 33.48730469 11.00292969 C34.58461914 10.85758789 35.68193359 10.71224609 36.8125 10.5625 C38.05161133 10.41458008 39.29072266 10.26666016 40.56738281 10.11425781 C42.58330445 9.87184788 44.59920073 9.62930447 46.61483765 9.38453674 C69.33130467 6.70638097 69.33130467 6.70638097 78.20263672 13.38037109 C80.34364607 15.29123481 82.3553246 17.2714488 84.3515625 19.33203125 C86.81678453 21.84950138 87.70415946 22.5305327 91.21484375 23.56640625 C95.45788155 23.56179926 99.5447577 23.22410981 103.75 22.6875 C109.32798718 22.01509257 114.83451562 21.4841766 120.45092773 21.31494141 C127.03052043 21.10641386 130.77646656 20.45378695 135.953125 16.4453125 C138.63440129 15.17226956 140.14802243 15.82094632 142.9375 16.6875 C143.72382813 16.99945313 144.51015625 17.31140625 145.3203125 17.6328125 C150.67054548 19.72307332 150.67054548 19.72307332 156.17675781 18.57421875 C159.91593904 16.60433563 163.55432572 14.48038087 167.20117188 12.34570312 C168.10544922 11.83845703 169.00972656 11.33121094 169.94140625 10.80859375 C170.75681885 10.33091553 171.57223145 9.8532373 172.41235352 9.36108398 C174.8125 8.5625 174.8125 8.5625 177.36010742 9.22070312 C179.80789804 10.55998209 181.79740206 11.98047723 183.921875 13.78515625 C184.67726563 14.40583984 185.43265625 15.02652344 186.2109375 15.66601562 C187.77137498 16.96594818 189.32360069 18.27580559 190.8671875 19.59570312 C195.25194104 23.16667613 198.87494918 25.67363294 204.64746094 25.90063477 C208.67250429 25.27200542 211.44634249 22.99487767 214.5625 20.5 C219.22555403 16.82938822 219.22555403 16.82938822 221.8125 15.5625 C225.36743181 16.07187937 226.79470223 17.54646361 229.45703125 19.9453125 C238.36698682 27.93245125 246.84922778 28.25341672 258.3125 27.6875 C259.73435064 27.58386439 261.15599135 27.477303 262.57739258 27.36767578 C272.61510245 26.72144871 272.61510245 26.72144871 276.3359375 29.33496094 C278.08557609 31.33141099 279.51352377 33.25199425 280.8125 35.5625 C285.93664662 34.6708098 289.14670012 32.55471779 293.41015625 29.64453125 C295.8125 28.5625 295.8125 28.5625 297.75390625 28.99609375 C300.75241015 31.2776878 303.19574388 34.00692069 305.6875 36.8125 C307.21698074 38.51409622 308.74854244 40.20991889 310.31152344 41.88085938 C311.8125 43.5625 311.8125 43.5625 313.04003906 45.32226562 C314.55602664 47.29038985 315.60634303 48.38034873 317.8125 49.5625 C322.52122253 50.06425452 327.09639989 49.9113622 331.8125 49.5625 C331.80726318 50.52663818 331.80202637 51.49077637 331.79663086 52.48413086 C331.77857882 56.04922564 331.76706726 59.61431636 331.75756836 63.17944336 C331.7525286 64.72469766 331.7456968 66.26994716 331.73706055 67.81518555 C331.72497924 70.03175029 331.71926827 72.24825218 331.71484375 74.46484375 C331.70968246 75.1596434 331.70452118 75.85444305 331.69920349 76.57029724 C331.69900723 78.2347933 331.75060871 79.89915499 331.8125 81.5625 C332.1425 81.8925 332.4725 82.2225 332.8125 82.5625 C336.67413978 152.01120283 312.83016304 231.06697571 272.8125 287.5625 C272.15765625 288.490625 271.5028125 289.41875 270.828125 290.375 C264.35305636 299.4099795 257.46418507 307.97246697 249.97265625 316.18359375 C248.00980067 318.34521952 246.0928374 320.53776262 244.1875 322.75 C225.35826126 344.30623194 200.68484322 360.681727 174.8125 372.5625 C173.66136719 373.09488281 172.51023437 373.62726563 171.32421875 374.17578125 C130.59443214 391.70907093 84.63503412 390.44057616 43.71484375 374.6015625 C23.94690718 366.60297545 6.67403894 354.6627868 -9.1875 340.5625 C-10.17878906 339.69367188 -11.17007813 338.82484375 -12.19140625 337.9296875 C-17.6205899 333.09882205 -22.539609 328.1380163 -27.1875 322.5625 C-28.00734375 321.63050781 -28.8271875 320.69851563 -29.671875 319.73828125 C-40.73976938 307.09862665 -49.91183429 293.16010283 -58.1875 278.5625 C-58.57760254 277.87945801 -58.96770508 277.19641602 -59.36962891 276.49267578 C-88.68685781 224.62373234 -99.49770462 165.08337286 -99.25 106.125 C-99.24497197 104.0253917 -99.24041138 101.92578223 -99.23632812 99.82617188 C-99.22543267 94.73825168 -99.20824085 89.65038919 -99.1875 84.5625 C-98.27959717 84.18939697 -97.37169434 83.81629395 -96.4362793 83.43188477 C-92.64695743 81.25146562 -91.39692964 79.4004774 -89.20703125 75.65234375 C-88.69773323 74.80018028 -88.69773323 74.80018028 -88.17814636 73.93080139 C-87.10395265 72.12881872 -86.05096556 70.31561115 -85 68.5 C-83.93532998 66.68286367 -82.86629001 64.86859848 -81.78971863 63.05848694 C-80.81757486 61.4207797 -79.85922116 59.77490994 -78.90161133 58.12866211 C-76.03514145 53.83732684 -72.95569614 53.12144053 -68.12890625 52.0546875 C-66.34323242 51.65830078 -66.34323242 51.65830078 -64.52148438 51.25390625 C-63.27689453 50.98449219 -62.03230469 50.71507812 -60.75 50.4375 C-59.50927734 50.16035156 -58.26855469 49.88320312 -56.99023438 49.59765625 C-47.72175185 47.5625 -47.72175185 47.5625 -43.1875 47.5625 C-42.95933594 46.89734375 -42.73117188 46.2321875 -42.49609375 45.546875 C-40.80159456 41.68240521 -38.57422116 38.32461166 -36.25 34.8125 C-35.25901276 33.29824372 -34.26813045 31.78391875 -33.27734375 30.26953125 C-32.76800293 29.49432129 -32.25866211 28.71911133 -31.73388672 27.92041016 C-29.24407134 24.12397237 -26.77851318 20.31192311 -24.3125 16.5 C-23.87301025 15.82291992 -23.43352051 15.14583984 -22.98071289 14.44824219 C-22.3444397 13.46645996 -22.3444397 13.46645996 -21.6953125 12.46484375 C-21.05348022 11.51218628 -21.05348022 11.51218628 -20.39868164 10.5402832 C-19.12299744 8.57312733 -19.12299744 8.57312733 -18.25561523 6.30932617 C-14.59562024 -1.75729209 -7.92287481 -0.4530734 0 0 Z " fill="#FEB67A" transform="translate(141.1875,77.4375)"/>
<path d="M0 0 C4.43905737 1.44167551 7.50309243 3.88774608 10.9375 6.9375 C17.27063312 12.43011343 23.79442344 17.6297633 30.41796875 22.76611328 C31.89134204 23.9152535 33.35244545 25.08007796 34.8125 26.24609375 C36.0190625 27.20708984 36.0190625 27.20708984 37.25 28.1875 C38.27867187 29.01314453 38.27867187 29.01314453 39.328125 29.85546875 C40.93737028 31.18829708 40.93737028 31.18829708 43 31 C44.7288446 28.78185976 46.34666947 26.56393531 47.9375 24.25 C48.82128368 22.98414391 49.70539017 21.71851313 50.58984375 20.453125 C51.00476074 19.85564453 51.41967773 19.25816406 51.84716797 18.64257812 C53.18988055 16.7294544 54.57973523 14.85618762 56 13 C60.60422642 14.38126792 64.56012656 16.27905704 68.75 18.625 C72.65490633 21.08757057 72.65490633 21.08757057 77 22 C78.28550784 20.58226517 78.28550784 20.58226517 79.53125 18.71875 C80.01207031 18.04199219 80.49289062 17.36523438 80.98828125 16.66796875 C81.48714844 15.95253906 81.98601562 15.23710937 82.5 14.5 C83.48353074 13.08951018 84.47282746 11.68301765 85.46875 10.28125 C86.12520508 9.33862305 86.12520508 9.33862305 86.79492188 8.37695312 C87.19259766 7.92255859 87.59027344 7.46816406 88 7 C88.66 7 89.32 7 90 7 C88.9377538 76.8793169 70.77808099 149.43094449 30 207 C29.01773438 208.3921875 29.01773438 208.3921875 28.015625 209.8125 C21.54055636 218.8474795 14.65168507 227.40996697 7.16015625 235.62109375 C5.19730067 237.78271952 3.2803374 239.97526262 1.375 242.1875 C-17.45423874 263.74373194 -42.12765678 280.119227 -68 292 C-69.15113281 292.53238281 -70.30226563 293.06476563 -71.48828125 293.61328125 C-112.21806786 311.14657093 -158.17746588 309.87807616 -199.09765625 294.0390625 C-218.86559282 286.04047545 -236.13846106 274.1002868 -252 260 C-252.99128906 259.13117188 -253.98257813 258.26234375 -255.00390625 257.3671875 C-260.4330899 252.53632205 -265.352109 247.5755163 -270 242 C-270.81984375 241.06800781 -271.6396875 240.13601563 -272.484375 239.17578125 C-285.3630827 224.46815833 -296.6823561 207.72019787 -305 190 C-300.59228904 190.60483382 -296.7416093 191.70561008 -292.58984375 193.29296875 C-291.36289795 193.75566162 -290.13595215 194.21835449 -288.87182617 194.69506836 C-288.22974213 194.93901337 -287.58765808 195.18295837 -286.92611694 195.43429565 C-274.11652821 200.28602838 -261.27102682 204.57992731 -248 208 C-247.30825684 208.1861084 -246.61651367 208.3722168 -245.90380859 208.56396484 C-240.96841962 209.8889095 -236.01328506 211.0106799 -231 212 C-230.07106934 212.18336914 -229.14213867 212.36673828 -228.18505859 212.55566406 C-184.51168303 220.82443387 -138.69505869 217.26664426 -100 194 C-99.51015625 193.50886719 -99.0203125 193.01773438 -98.515625 192.51171875 C-96.5540137 190.55516314 -94.25333293 189.43527814 -91.84619141 188.10253906 C-88.87045804 186.32544149 -86.3014629 184.13954787 -83.6875 181.875 C-82.84566162 181.15050659 -82.84566162 181.15050659 -81.98681641 180.41137695 C-58.72555475 160.18261131 -42.51697806 134.11976568 -30.125 106.125 C-29.67261963 105.1035791 -29.22023926 104.0821582 -28.75415039 103.02978516 C-26.14121148 96.99677678 -23.91437968 90.92973076 -21.8984375 84.6730957 C-21 82 -21 82 -19.4296875 78.34765625 C-17.62797157 74.12888424 -16.36714998 69.84841685 -15.125 65.4375 C-14.8667041 64.52564941 -14.6084082 63.61379883 -14.34228516 62.67431641 C-11.51976451 52.53299453 -9.21614295 42.2880247 -7 32 C-6.71745361 30.70255859 -6.71745361 30.70255859 -6.42919922 29.37890625 C-4.52757157 20.63441373 -2.70705559 11.91116018 -1.39453125 3.0546875 C-1 1 -1 1 0 0 Z " fill="#FDA966" transform="translate(384,158)"/>
<path d="M0 0 C2.38819058 1.30727798 4.28745679 2.66755228 6.33764648 4.45239258 C15.85749373 12.4691622 22.97596366 17.30094306 35.43920898 19.33520508 C37.8369174 19.84733697 40.23280869 20.36805792 42.62670898 20.89770508 C43.7778418 21.13875977 44.92897461 21.37981445 46.11499023 21.62817383 C73.35865259 27.4226543 109.86632083 37.07505236 128.43920898 59.33520508 C131.06955673 63.44512343 132.14985512 66.46220302 131.43920898 71.33520508 C129.67363208 74.39553838 127.93333143 76.84108263 125.43920898 79.33520508 C124.23651367 79.28299805 124.23651367 79.28299805 123.00952148 79.22973633 C120.37016814 79.05312285 120.37016814 79.05312285 118.80639648 80.90942383 C118.06776367 81.95549805 118.06776367 81.95549805 117.31420898 83.02270508 C113.33073578 87.9429511 108.52443503 90.62985076 102.43920898 92.33520508 C99.17106935 91.8585412 97.31575516 90.67913898 94.82202148 88.56176758 C94.13914062 87.9892627 93.45625977 87.41675781 92.75268555 86.8269043 C92.03048828 86.21089355 91.30829102 85.59488281 90.56420898 84.96020508 C89.04187449 83.68284772 87.51841967 82.40682445 85.99389648 81.13208008 C85.23173828 80.49334961 84.46958008 79.85461914 83.68432617 79.1965332 C80.39981247 76.47348705 77.05353926 73.83359796 73.68920898 71.21020508 C73.12991699 70.77401855 72.570625 70.33783203 71.99438477 69.88842773 C71.20136963 69.27040283 71.20136963 69.27040283 70.39233398 68.63989258 C67.43920898 66.33520508 67.43920898 66.33520508 64.86108398 63.96801758 C62.59857363 62.12822118 62.59857363 62.12822118 60.07202148 62.26879883 C56.37127559 63.76776564 53.46569224 65.9735182 50.31420898 68.39770508 C48.98756806 69.39534297 47.66074342 70.3927366 46.33374023 71.38989258 C45.35268311 72.13384277 45.35268311 72.13384277 44.35180664 72.89282227 C41.5941662 74.97249289 38.79972668 76.9976806 36.00170898 79.02270508 C35.11612305 79.66594727 34.23053711 80.30918945 33.31811523 80.97192383 C32.69807617 81.42180664 32.07803711 81.87168945 31.43920898 82.33520508 C27.67432857 80.61365719 25.28857001 78.34286394 22.43920898 75.33520508 C19.22997014 76.7906422 16.71864895 78.59934217 14.00170898 80.83520508 C12.67139648 81.88708008 12.67139648 81.88708008 11.31420898 82.96020508 C8.37713752 85.32789868 8.37713752 85.32789868 5.56420898 88.08520508 C-0.51019538 93.69477687 -5.28778822 96.22780462 -13.68579102 96.08520508 C-16.15532784 95.95071922 -18.6094036 95.75859929 -21.0715332 95.52514648 C-23.55738239 95.33546517 -25.98313576 95.3359329 -28.47485352 95.37817383 C-36.95470236 95.31854057 -42.56633741 94.17821107 -48.86669922 88.23339844 C-51.92056476 85.05527666 -54.76960442 81.74428794 -57.56079102 78.33520508 C-58.9120103 76.79095447 -60.26538223 75.24857669 -61.62329102 73.71020508 C-62.06801758 73.16106445 -62.51274414 72.61192383 -62.97094727 72.04614258 C-65.29476742 69.54532384 -67.91217896 67.48789116 -70.56079102 65.33520508 C-74.31262042 67.35265531 -78.06218686 69.37426854 -81.81079102 71.39770508 C-82.90931396 71.990271 -84.00783691 72.58283691 -85.13964844 73.19335938 C-91.68554666 76.73741595 -98.15174781 80.35025015 -104.48657227 84.26098633 C-106.56079102 85.33520508 -106.56079102 85.33520508 -109.56079102 85.33520508 C-110.82250977 83.53442383 -110.82250977 83.53442383 -112.24829102 81.02270508 C-118.20856723 72.02461066 -128.42954949 66.71801866 -137.56079102 61.33520508 C-138.15504883 61.88047852 -138.74930664 62.42575195 -139.36157227 62.98754883 C-145.59326393 68.65712834 -151.99203692 74.06157904 -158.56079102 79.33520508 C-159.23062012 79.92736816 -159.90044922 80.51953125 -160.59057617 81.12963867 C-167.17058306 86.76203718 -174.08475449 90.38465472 -181.9128418 93.92016602 C-183.9610903 94.84664868 -185.99743349 95.79623985 -188.03344727 96.74926758 C-197.98206125 101.33520508 -197.98206125 101.33520508 -202.56079102 101.33520508 C-204.11303711 99.71801758 -204.11303711 99.71801758 -205.58422852 97.46020508 C-206.13079102 96.63907227 -206.67735352 95.81793945 -207.24047852 94.97192383 C-208.0796582 93.66674805 -208.0796582 93.66674805 -208.93579102 92.33520508 C-210.04600282 90.6465418 -211.15796925 88.95903073 -212.27172852 87.27270508 C-212.8128125 86.44899414 -213.35389648 85.6252832 -213.91137695 84.77661133 C-216.33047496 81.19594524 -218.92073825 77.75497492 -221.56079102 74.33520508 C-210.28401195 62.06000151 -196.2300233 53.92549723 -181.56079102 46.33520508 C-180.70372559 45.89031738 -179.84666016 45.44542969 -178.96362305 44.98706055 C-150.56274561 30.42184467 -119.25520753 19.70546618 -87.56079102 15.33520508 C-86.18044678 15.1423291 -86.18044678 15.1423291 -84.7722168 14.94555664 C-74.7069443 13.56229365 -64.7197454 12.28976385 -54.56079102 11.96020508 C-48.78806764 11.71025211 -45.91417615 10.69789268 -41.42016602 7.21801758 C-38.73888973 5.94497464 -37.22526859 6.59365139 -34.43579102 7.46020508 C-33.64946289 7.7721582 -32.86313477 8.08411133 -32.05297852 8.40551758 C-26.70274553 10.4957784 -26.70274553 10.4957784 -21.1965332 9.34692383 C-17.45735198 7.37704071 -13.8189653 5.25308595 -10.17211914 3.1184082 C-9.2678418 2.61116211 -8.36356445 2.10391602 -7.43188477 1.58129883 C-6.61647217 1.10362061 -5.80105957 0.62594238 -4.9609375 0.13378906 C-2.56079102 -0.66479492 -2.56079102 -0.66479492 0 0 Z " fill="#FE9E01" transform="translate(318.560791015625,86.664794921875)"/>
<path d="M0 0 C1.27681641 0.00837891 2.55363281 0.01675781 3.86914062 0.02539062 C12.69693237 0.39302617 16.29838681 2.37505823 22.37280273 8.60620117 C26.05735034 11.56069731 28.90815695 11.3612469 33.48730469 11.00292969 C34.58461914 10.85758789 35.68193359 10.71224609 36.8125 10.5625 C38.05161133 10.41458008 39.29072266 10.26666016 40.56738281 10.11425781 C42.58352872 9.87181156 44.59965221 9.62925084 46.61552429 9.38453674 C69.33220324 6.70704508 69.33220324 6.70704508 78.44677734 13.38037109 C81.27709596 15.83147381 83.95404123 18.34591892 86.45678711 21.13208008 C87.77507517 22.68609712 87.77507517 22.68609712 89.8125 23.5625 C89.8125 24.2225 89.8125 24.8825 89.8125 25.5625 C87.97365234 25.87380859 87.97365234 25.87380859 86.09765625 26.19140625 C44.73277507 33.46976807 -15.66449835 49.7302763 -43.1875 84.5625 C-42.72601563 85.12195313 -42.26453125 85.68140625 -41.7890625 86.2578125 C-37.59453777 91.41392787 -33.57425661 96.67236211 -29.6875 102.0625 C-29.24229004 102.67367676 -28.79708008 103.28485352 -28.33837891 103.91455078 C-25.1875 108.32380345 -25.1875 108.32380345 -25.1875 110.5625 C-17.42904483 107.53595816 -9.78616989 104.28206022 -2.1875 100.875 C-1.07632813 100.39611328 0.03484375 99.91722656 1.1796875 99.42382812 C9.02043792 95.88626602 14.68480676 91.54567218 20.8125 85.5625 C22.65344638 83.97164142 24.53856011 82.46017935 26.4375 80.9375 C30.99306094 77.25028211 35.43720876 73.4613985 39.8125 69.5625 C62.66371107 83.55211938 62.66371107 83.55211938 67.8125 92.5625 C67.8125 93.2225 67.8125 93.8825 67.8125 94.5625 C76.50426676 90.34238173 85.00426897 85.86669101 93.41748047 81.11572266 C98.15091808 78.45003307 102.93572678 75.95685254 107.8125 73.5625 C119.49792994 85.07523885 119.49792994 85.07523885 123.5625 89.8125 C124.1090625 90.42867188 124.655625 91.04484375 125.21875 91.6796875 C126.8125 93.5625 126.8125 93.5625 128.34375 95.7578125 C132.0521713 100.46076497 135.39941478 102.02921254 141.19165039 102.82592773 C144.53851354 103.15131254 147.87814364 103.32795251 151.23828125 103.44677734 C153.76800776 103.56049987 156.26251762 103.79381866 158.78125 104.05078125 C167.43959172 104.74577391 173.46373651 104.3000439 180.3125 98.625 C181.98803625 97.14145987 183.61625514 95.62541399 185.22363281 94.06835938 C187.75104841 91.67298455 190.46731433 89.5483799 193.1875 87.375 C194.73034561 86.10559821 196.27250228 84.83535526 197.8125 83.5625 C201.57738042 85.28404788 203.96313897 87.55484114 206.8125 90.5625 C209.47996682 89.28368287 211.92090021 87.8911091 214.3515625 86.20703125 C215.00995117 85.75231445 215.66833984 85.29759766 216.34667969 84.82910156 C217.03665039 84.34924805 217.72662109 83.86939453 218.4375 83.375 C219.1480957 82.88612305 219.85869141 82.39724609 220.59082031 81.89355469 C223.74367426 79.71961681 226.86559711 77.52323992 229.9453125 75.24609375 C230.80898438 74.60800781 231.67265625 73.96992188 232.5625 73.3125 C233.29984375 72.75046875 234.0371875 72.1884375 234.796875 71.609375 C236.8125 70.5625 236.8125 70.5625 238.69140625 70.59765625 C241.81893607 72.02030794 244.3527246 74.09784436 247 76.25 C247.5993335 76.72896729 248.19866699 77.20793457 248.81616211 77.70141602 C255.29602206 82.90103782 261.69973523 88.19621583 268.09765625 93.49609375 C268.74234863 94.02315918 269.38704102 94.55022461 270.05126953 95.09326172 C271.57193649 96.36181921 273.03972951 97.69326606 274.49609375 99.03515625 C276.6993502 100.81409136 276.6993502 100.81409136 279.31640625 100.4453125 C286.58636073 97.87409229 291.81125769 95.10920467 296.51171875 88.92578125 C297.8125 87.5625 297.8125 87.5625 300.4375 87.4375 C301.22125 87.47875 302.005 87.52 302.8125 87.5625 C305.66177205 84.55493506 307.59809834 82.0633116 308.1875 77.9375 C307.36963913 70.57675221 302.24896176 65.31224546 296.75390625 60.6953125 C283.98213113 51.43450345 269.60604281 45.73173795 254.8125 40.5625 C254.01779297 40.27890625 253.22308594 39.9953125 252.40429688 39.703125 C241.68715368 35.88778603 230.93049005 32.94777555 219.8125 30.5625 C218.42054269 30.25925331 217.02861523 29.95586952 215.63671875 29.65234375 C212.36407535 28.94518965 209.08972144 28.24806772 205.8125 27.5625 C208.86457964 24.32744196 212.10527753 21.73375 215.75 19.1875 C217.27947266 18.09308594 217.27947266 18.09308594 218.83984375 16.9765625 C221.8125 15.5625 221.8125 15.5625 224.328125 16.015625 C226.8125 17.5625 226.8125 17.5625 229.45703125 19.9453125 C238.36698682 27.93245125 246.84922778 28.25341672 258.3125 27.6875 C259.73435064 27.58386439 261.15599135 27.477303 262.57739258 27.36767578 C272.61510245 26.72144871 272.61510245 26.72144871 276.3359375 29.33496094 C278.08557609 31.33141099 279.51352377 33.25199425 280.8125 35.5625 C285.93664662 34.6708098 289.14670012 32.55471779 293.41015625 29.64453125 C295.8125 28.5625 295.8125 28.5625 297.75390625 28.99609375 C300.75241015 31.2776878 303.19574388 34.00692069 305.6875 36.8125 C307.21698074 38.51409622 308.74854244 40.20991889 310.31152344 41.88085938 C311.8125 43.5625 311.8125 43.5625 313.04003906 45.32226562 C314.55602664 47.29038985 315.60634303 48.38034873 317.8125 49.5625 C322.52122253 50.06425452 327.09639989 49.9113622 331.8125 49.5625 C331.80726318 50.52663818 331.80202637 51.49077637 331.79663086 52.48413086 C331.77857882 56.04922564 331.76706726 59.61431636 331.75756836 63.17944336 C331.7525286 64.72469766 331.7456968 66.26994716 331.73706055 67.81518555 C331.72497924 70.03175029 331.71926827 72.24825218 331.71484375 74.46484375 C331.70968246 75.1596434 331.70452118 75.85444305 331.69920349 76.57029724 C331.69900723 78.2347933 331.75060871 79.89915499 331.8125 81.5625 C332.1425 81.8925 332.4725 82.2225 332.8125 82.5625 C332.85313832 84.22867115 332.855221 85.89638095 332.8125 87.5625 C332.1525 87.5625 331.4925 87.5625 330.8125 87.5625 C330.57789063 88.09359375 330.34328125 88.6246875 330.1015625 89.171875 C328.42547088 92.2802631 326.32798074 95.01649703 324.1875 97.8125 C323.55714844 98.64394531 323.55714844 98.64394531 322.9140625 99.4921875 C321.88311281 100.85116663 320.84820089 102.20713835 319.8125 103.5625 C315.20827358 102.18123208 311.25237344 100.28344296 307.0625 97.9375 C303.15759367 95.47492943 303.15759367 95.47492943 298.8125 94.5625 C297.29775251 96.27242664 297.29775251 96.27242664 295.7734375 98.5 C295.19335938 99.31210938 294.61328125 100.12421875 294.015625 100.9609375 C293.41234375 101.81945312 292.8090625 102.67796875 292.1875 103.5625 C291.27097656 104.85027344 291.27097656 104.85027344 290.3359375 106.1640625 C288.82219016 108.2927697 287.3147307 110.42565734 285.8125 112.5625 C281.52503903 110.95975704 278.67124763 109.00015463 275.1875 106 C274.12016397 105.09070864 273.05244785 104.18186326 271.984375 103.2734375 C271.45134766 102.81678711 270.91832031 102.36013672 270.36914062 101.88964844 C263.87601368 96.35378927 257.19424606 91.03953154 250.5 85.75 C249.92523926 85.29375244 249.35047852 84.83750488 248.75830078 84.36743164 C245.21454467 81.58040976 241.59455116 79.01711414 237.8125 76.5625 C237.25900879 76.94994385 236.70551758 77.3373877 236.13525391 77.73657227 C226.69433594 84.34521484 217.25341797 90.95385742 207.8125 97.5625 C203.88949728 95.73745091 201.07462728 93.37979174 197.8125 90.5625 C196.99007813 91.26375 196.16765625 91.965 195.3203125 92.6875 C192.9990596 94.66551087 190.66445244 96.62653664 188.32421875 98.58203125 C186.19863461 100.36450253 184.16705715 102.17014239 182.14453125 104.07421875 C177.9251948 107.90810195 175.178145 110.00497605 169.3515625 109.7265625 C164.9218837 109.58295021 160.66222015 109.7047161 156.24609375 110.07421875 C143.97815158 110.60294167 135.13617941 109.72760939 125.921875 101.41796875 C119.05624455 94.93768429 112.8153513 87.83969557 106.8125 80.5625 C95.57844374 86.0768525 95.57844374 86.0768525 84.578125 92.0390625 C83.65515625 92.56371094 82.7321875 93.08835937 81.78125 93.62890625 C79.91659268 94.69786928 78.05746385 95.77651709 76.203125 96.86328125 C75.295625 97.37503906 74.388125 97.88679688 73.453125 98.4140625 C72.65422852 98.87635254 71.85533203 99.33864258 71.03222656 99.81494141 C68.8125 100.5625 68.8125 100.5625 66.61523438 99.81396484 C64.44596679 98.30805129 63.41031575 96.82549929 62.0625 94.5625 C61.63453125 93.86125 61.2065625 93.16 60.765625 92.4375 C59.8125 90.5625 59.8125 90.5625 59.8125 88.5625 C59.11125 88.32917969 58.41 88.09585938 57.6875 87.85546875 C53.13614218 85.80859451 49.5892528 82.51205619 45.75 79.36328125 C43.03989312 77.38458281 43.03989312 77.38458281 40.3828125 77.41796875 C36.54426427 79.12723111 33.77124671 81.74736686 30.6875 84.5625 C29.32968603 85.75810664 27.97161221 86.95341825 26.61328125 88.1484375 C24.44635109 90.07919721 22.32571599 92.02940025 20.23046875 94.0390625 C11.75192944 101.77239023 1.21541129 105.78140945 -9.22265625 110.25976562 C-11.24684098 111.14918013 -13.25450475 112.07692438 -15.24609375 113.03710938 C-16.21675781 113.50439453 -17.18742187 113.97167969 -18.1875 114.453125 C-19.05375 114.88141602 -19.92 115.30970703 -20.8125 115.75097656 C-23.53553296 116.6814208 -24.59382059 116.78527306 -27.1875 115.5625 C-28.77148438 113.78417969 -28.77148438 113.78417969 -30.28125 111.484375 C-30.83683594 110.65292969 -31.39242187 109.82148438 -31.96484375 108.96484375 C-32.53332031 108.08957031 -33.10179688 107.21429688 -33.6875 106.3125 C-34.82119485 104.59781868 -35.95656734 102.88424518 -37.09375 101.171875 C-37.62484375 100.36685547 -38.1559375 99.56183594 -38.703125 98.73242188 C-39.91849974 96.95573591 -41.24261252 95.25388641 -42.59375 93.578125 C-44.1875 91.5625 -44.1875 91.5625 -44.1875 89.5625 C-45.07828247 89.15584106 -45.07828247 89.15584106 -45.98706055 88.7409668 C-48.15162069 87.58171552 -49.62876683 86.39688991 -51.39453125 84.70703125 C-51.98169922 84.16755859 -52.56886719 83.62808594 -53.17382812 83.07226562 C-54.39089268 81.94111151 -55.59674775 80.79777508 -56.79101562 79.64257812 C-57.38205078 79.10697266 -57.97308594 78.57136719 -58.58203125 78.01953125 C-59.36864136 77.2766687 -59.36864136 77.2766687 -60.17114258 76.51879883 C-63.3942634 74.99016773 -65.77515611 75.78191473 -69.1875 76.5625 C-72.45918877 77.86929999 -72.45918877 77.86929999 -75.671875 79.57421875 C-76.86579899 80.1726985 -78.05981194 80.77100078 -79.25390625 81.36914062 C-81.10823544 82.31310437 -82.96008972 83.26163061 -84.81005859 84.21411133 C-86.61224239 85.1374641 -88.4231993 86.0436309 -90.234375 86.94921875 C-91.30526367 87.49795654 -92.37615234 88.04669434 -93.47949219 88.61206055 C-94.37313477 88.92570557 -95.26677734 89.23935059 -96.1875 89.5625 C-97.1775 88.9025 -98.1675 88.2425 -99.1875 87.5625 C-99 85.6875 -99 85.6875 -98.1875 83.5625 C-97.4258252 83.30855469 -96.66415039 83.05460937 -95.87939453 82.79296875 C-92.26653345 81.1415249 -91.30106147 79.15500392 -89.3046875 75.75 C-88.96374054 75.18047607 -88.62279358 74.61095215 -88.27151489 74.02416992 C-87.18849048 72.21114961 -86.1245062 70.38789841 -85.0625 68.5625 C-83.99088176 66.7387761 -82.91531373 64.91766905 -81.83206177 63.10083008 C-80.85169292 61.45396185 -79.88424948 59.79941968 -78.91748047 58.14453125 C-76.03789873 53.84669658 -72.96973952 53.12454421 -68.12890625 52.0546875 C-66.34323242 51.65830078 -66.34323242 51.65830078 -64.52148438 51.25390625 C-63.27689453 50.98449219 -62.03230469 50.71507812 -60.75 50.4375 C-59.50927734 50.16035156 -58.26855469 49.88320312 -56.99023438 49.59765625 C-47.72175185 47.5625 -47.72175185 47.5625 -43.1875 47.5625 C-42.95933594 46.89734375 -42.73117188 46.2321875 -42.49609375 45.546875 C-40.80159456 41.68240521 -38.57422116 38.32461166 -36.25 34.8125 C-35.25901276 33.29824372 -34.26813045 31.78391875 -33.27734375 30.26953125 C-32.76800293 29.49432129 -32.25866211 28.71911133 -31.73388672 27.92041016 C-29.24407134 24.12397237 -26.77851318 20.31192311 -24.3125 16.5 C-23.87301025 15.82291992 -23.43352051 15.14583984 -22.98071289 14.44824219 C-22.3444397 13.46645996 -22.3444397 13.46645996 -21.6953125 12.46484375 C-21.05348022 11.51218628 -21.05348022 11.51218628 -20.39868164 10.5402832 C-19.12299744 8.57312733 -19.12299744 8.57312733 -18.25561523 6.30932617 C-14.59562024 -1.75729209 -7.92287481 -0.4530734 0 0 Z " fill="#F8EAC2" transform="translate(141.1875,77.4375)"/>
<path d="M0 0 C1.27681641 0.00837891 2.55363281 0.01675781 3.86914062 0.02539062 C12.69693237 0.39302617 16.29838681 2.37505823 22.37280273 8.60620117 C26.05735034 11.56069731 28.90815695 11.3612469 33.48730469 11.00292969 C34.58461914 10.85758789 35.68193359 10.71224609 36.8125 10.5625 C38.05161133 10.41458008 39.29072266 10.26666016 40.56738281 10.11425781 C42.58352872 9.87181156 44.59965221 9.62925084 46.61552429 9.38453674 C69.33220324 6.70704508 69.33220324 6.70704508 78.44677734 13.38037109 C81.27709596 15.83147381 83.95404123 18.34591892 86.45678711 21.13208008 C87.77507517 22.68609712 87.77507517 22.68609712 89.8125 23.5625 C89.8125 24.2225 89.8125 24.8825 89.8125 25.5625 C87.97365234 25.87380859 87.97365234 25.87380859 86.09765625 26.19140625 C50.92396942 32.38039585 15.98763909 43.99560809 -14.83203125 62.29296875 C-19.75751295 65.07251712 -24.90108305 66.3335555 -30.375 67.625 C-32.40940333 68.12014492 -34.44326101 68.61753718 -36.4765625 69.1171875 C-37.45399414 69.35663086 -38.43142578 69.59607422 -39.43847656 69.84277344 C-41.86348846 70.47766998 -44.21575867 71.19540325 -46.5859375 72.0078125 C-55.30328416 74.9631603 -55.30328416 74.9631603 -58.1875 73.65625 C-59.75 72.25 -59.75 72.25 -62.1875 69.5625 C-66.05675045 69.85629988 -69.18800601 71.36714072 -72.63671875 73.06640625 C-73.64927734 73.55947266 -74.66183594 74.05253906 -75.70507812 74.56054688 C-76.75115234 75.07681641 -77.79722656 75.59308594 -78.875 76.125 C-80.96053439 77.15061015 -83.04769441 78.17292346 -85.13671875 79.19140625 C-86.05799561 79.64588135 -86.97927246 80.10035645 -87.9284668 80.56860352 C-90.1875 81.5625 -90.1875 81.5625 -92.1875 81.5625 C-88.57564906 72.10445582 -82.7512496 59.00619188 -74.17236328 53.19824219 C-69.65514046 51.26244614 -65.04436367 50.95472927 -60.1875 50.5625 C-57.76223901 50.01599778 -55.34434944 49.43510047 -52.9375 48.8125 C-49.45598414 47.98188454 -46.80114882 47.5625 -43.1875 47.5625 C-42.95933594 46.89734375 -42.73117188 46.2321875 -42.49609375 45.546875 C-40.80159456 41.68240521 -38.57422116 38.32461166 -36.25 34.8125 C-35.25901276 33.29824372 -34.26813045 31.78391875 -33.27734375 30.26953125 C-32.76800293 29.49432129 -32.25866211 28.71911133 -31.73388672 27.92041016 C-29.24407134 24.12397237 -26.77851318 20.31192311 -24.3125 16.5 C-23.87301025 15.82291992 -23.43352051 15.14583984 -22.98071289 14.44824219 C-22.3444397 13.46645996 -22.3444397 13.46645996 -21.6953125 12.46484375 C-21.05348022 11.51218628 -21.05348022 11.51218628 -20.39868164 10.5402832 C-19.12299744 8.57312733 -19.12299744 8.57312733 -18.25561523 6.30932617 C-14.59562024 -1.75729209 -7.92287481 -0.4530734 0 0 Z " fill="#FBF1E8" transform="translate(141.1875,77.4375)"/>
<path d="M0 0 C1.51110352 -0.01836914 1.51110352 -0.01836914 3.05273438 -0.03710938 C19.67747575 -0.06918283 19.67747575 -0.06918283 26.0625 4.1875 C26.0625 6.86065417 25.58744009 8.60671522 23.77734375 10.609375 C6.02914941 25.11998664 -23.03333355 30.18162358 -44.9375 35.1875 C-45.8759375 35.41050781 -46.814375 35.63351563 -47.78125 35.86328125 C-50.89615746 36.58779295 -53.72879528 37.1875 -56.9375 37.1875 C-57.618125 37.6825 -58.29875 38.1775 -59 38.6875 C-62.61403833 40.53296638 -65.15714516 40.39045374 -69.14453125 40.1953125 C-72.06956588 40.18713058 -74.86370997 40.55389574 -77.75854492 40.94287109 C-81.56422193 41.37013029 -85.36124806 41.41199165 -89.1875 41.4375 C-89.97640625 41.458125 -90.7653125 41.47875 -91.578125 41.5 C-97.34687199 41.53897802 -97.34687199 41.53897802 -100.484375 39.671875 C-101.9375 38.1875 -101.9375 38.1875 -101.9375 36.0625 C-99.94227007 30.32621394 -93.50120904 27.35009145 -88.30078125 24.6953125 C-86.6229073 23.88902901 -84.93900205 23.09520438 -83.25 22.3125 C-81.88403687 21.67296387 -81.88403687 21.67296387 -80.49047852 21.02050781 C-54.909957 9.23338322 -28.3617393 0.01807632 0 0 Z " fill="#FEB135" transform="translate(238.9375,110.8125)"/>
<path d="M0 0 C4.99667926 0.59805814 9.64206204 1.64172881 14.4375 3.1875 C15.47293945 3.51850708 15.47293945 3.51850708 16.52929688 3.85620117 C63.8971126 19.21423843 63.8971126 19.21423843 76 38.125 C77.1492099 41.42897847 77.50618296 43.52903112 77 47 C75.2344231 50.0603333 73.49412245 52.50587755 71 55 C70.19820313 54.96519531 69.39640625 54.93039063 68.5703125 54.89453125 C65.93095916 54.71791777 65.93095916 54.71791777 64.3671875 56.57421875 C63.87476563 57.27160156 63.38234375 57.96898437 62.875 58.6875 C58.89152679 63.60774603 54.08522605 66.29464569 48 68 C44.73186036 67.52333612 42.87654617 66.3439339 40.3828125 64.2265625 C39.69985107 63.65397705 39.01688965 63.0813916 38.31323242 62.49145508 C37.59111572 61.8755249 36.86899902 61.25959473 36.125 60.625 C34.6039537 59.34896105 33.08180094 58.07423997 31.55859375 56.80078125 C30.79659668 56.16221191 30.03459961 55.52364258 29.24951172 54.86572266 C25.9414833 52.12207677 22.57375913 49.45861312 19.1875 46.8125 C18.6198291 46.36793457 18.0521582 45.92336914 17.46728516 45.46533203 C14.66737681 43.27952052 11.85075435 41.11908374 9 39 C9.44549979 36.40125125 9.9057323 34.19408057 11.0625 31.8125 C13.14570734 25.56287799 12.72551162 19.82703797 9.9375 13.875 C7.58273406 9.59176196 4.7025696 6.04302151 1.35546875 2.49609375 C0 1 0 1 0 0 Z " fill="#FE8C01" transform="translate(373,111)"/>
<path d="M0 0 C2.484375 1.546875 2.484375 1.546875 5.12890625 3.9296875 C14.03886182 11.91682625 22.52110278 12.23779172 33.984375 11.671875 C35.40622564 11.56823939 36.82786635 11.461678 38.24926758 11.35205078 C48.28697745 10.70582371 48.28697745 10.70582371 52.0078125 13.31933594 C53.75745109 15.31578599 55.18539877 17.23636925 56.484375 19.546875 C61.60852162 18.6551848 64.81857512 16.53909279 69.08203125 13.62890625 C71.484375 12.546875 71.484375 12.546875 73.42578125 12.98046875 C76.42428515 15.2620628 78.86761888 17.99129569 81.359375 20.796875 C82.88473043 22.49388168 84.4133773 24.18675454 85.95751953 25.86669922 C86.97664551 26.98816148 87.97277013 28.13095704 88.94482422 29.29345703 C91.70648809 32.41497687 92.87062417 33.44830688 97.1328125 34.1328125 C98.97746094 34.02839844 98.97746094 34.02839844 100.859375 33.921875 C102.10460937 33.86773437 103.34984375 33.81359375 104.6328125 33.7578125 C105.57382812 33.68820313 106.51484375 33.61859375 107.484375 33.546875 C107.62474098 44.26147806 107.21696582 54.8588982 106.484375 65.546875 C104.999375 66.041875 104.999375 66.041875 103.484375 66.546875 C103.08347656 66.05058594 102.68257813 65.55429688 102.26953125 65.04296875 C97.84103582 59.7508665 93.0938609 55.55213293 87.484375 51.546875 C86.618125 50.928125 85.751875 50.309375 84.859375 49.671875 C82.41928064 48.35062399 82.41928064 48.35062399 79.171875 48.234375 C75.57381617 47.56355047 74.72970156 47.20377301 72.046875 45.046875 C59.71723077 35.21139544 45.20796052 29.71934914 30.484375 24.546875 C29.68676758 24.26183105 28.88916016 23.97678711 28.06738281 23.68310547 C17.35341242 19.86954398 6.59882234 16.93139049 -4.515625 14.546875 C-5.90758231 14.24362831 -7.29950977 13.94024452 -8.69140625 13.63671875 C-11.96404965 12.92956465 -15.23840356 12.23244272 -18.515625 11.546875 C-15.46354536 8.31181696 -12.22284747 5.718125 -8.578125 3.171875 C-7.55847656 2.44226563 -6.53882813 1.71265625 -5.48828125 0.9609375 C-2.515625 -0.453125 -2.515625 -0.453125 0 0 Z " fill="#FBF1E7" transform="translate(365.515625,93.453125)"/>
<path d="M0 0 C7.64175055 -0.62266116 12.18002975 3.49733759 18 8 C25.90751111 14.9049919 25.90751111 14.9049919 27.99609375 18.91015625 C28.00253206 22.354652 26.02200884 24.10211476 23.875 26.6875 C23.08867187 27.66074219 22.30234375 28.63398438 21.4921875 29.63671875 C18.74849958 32.23849178 17.75671169 33.06639255 14 33 C11.40853395 31.95372053 9.11938704 30.89239909 6.6875 29.5625 C5.71973633 29.05493164 5.71973633 29.05493164 4.73242188 28.53710938 C3.14827802 27.70396705 1.57318718 26.85365096 0 26 C0.42152344 25.51789063 0.84304688 25.03578125 1.27734375 24.5390625 C2.09912109 23.59160156 2.09912109 23.59160156 2.9375 22.625 C3.48277344 21.99851563 4.02804687 21.37203125 4.58984375 20.7265625 C6.39737731 18.51346047 6.96745705 17.22780066 7.375 14.375 C6.85650722 9.70856501 4.65626409 6.77511473 2 3 C1.34 2.01 0.68 1.02 0 0 Z " fill="#F2E7A3" transform="translate(442,141)"/>
<path d="M0 0 C1.51326079 1.01999069 2.98865635 2.09792906 4.42578125 3.22265625 C5.61977539 4.15368164 5.61977539 4.15368164 6.83789062 5.10351562 C7.65451172 5.74998047 8.47113281 6.39644531 9.3125 7.0625 C10.14845703 7.71283203 10.98441406 8.36316406 11.84570312 9.03320312 C16.35753132 12.57268631 16.35753132 12.57268631 18 14 C18 14.33 18 14.66 18 15 C11.90597841 15.09068485 6.04540209 14.80243203 0 14.0625 C-1.11375 13.93198242 -1.11375 13.93198242 -2.25 13.79882812 C-8.58397748 13.05656514 -8.58397748 13.05656514 -10.98413086 12.73022461 C-18.80635118 11.72919725 -26.68854785 11.65045047 -34.5625 11.4375 C-36.06316078 11.39421638 -37.56381197 11.3505993 -39.06445312 11.30664062 C-42.70953299 11.20058203 -46.35472182 11.09903743 -50 11 C-46.73446598 7.6166017 -44.77987756 5.69525492 -40 5 C-37.12731944 5.87447776 -34.43059222 6.94054726 -31.68359375 8.15234375 C-27.90499583 9.34587468 -25.30993918 8.62388289 -21.76757812 6.93676758 C-21.02958984 6.51032959 -20.29160156 6.0838916 -19.53125 5.64453125 C-18.71269531 5.18755859 -17.89414062 4.73058594 -17.05078125 4.25976562 C-15.34520758 3.29205499 -13.6446712 2.31541381 -11.94921875 1.33007812 C-11.13066406 0.87697266 -10.31210937 0.42386719 -9.46875 -0.04296875 C-8.73076172 -0.46602295 -7.99277344 -0.88907715 -7.23242188 -1.32495117 C-4.13403556 -2.26185386 -2.82120223 -1.49541094 0 0 Z " fill="#FBF1E7" transform="translate(321,88)"/>
<path d="M0 0 C2.62681984 1.39549804 3.43684606 3.16377574 4.4609375 5.8984375 C5.81897185 11.35025657 5.67477907 16.34488054 3.625 21.5625 C2 24.0625 2 24.0625 0 26.0625 C-2.625 26.1875 -2.625 26.1875 -5 26.0625 C-8.3586208 20.74468374 -8.70403706 16.16415453 -8 10.0625 C-5.58549982 0.17454687 -5.58549982 0.17454687 0 0 Z " fill="#FCA05E" transform="translate(112,220.9375)"/>
<path d="M0 0 C-1.10794922 0.69222656 -1.10794922 0.69222656 -2.23828125 1.3984375 C-9.11419166 5.81928968 -14.86429237 10.42212614 -20.625 16.19140625 C-23 18 -23 18 -25.046875 17.9921875 C-27.43391113 16.77957314 -29.25025046 15.34375838 -31.25 13.5625 C-31.95640625 12.94503906 -32.6628125 12.32757813 -33.390625 11.69140625 C-35 10 -35 10 -35 8 C-30.66210462 6.68713573 -26.32055015 5.38748427 -21.97509766 4.09985352 C-20.4977838 3.66009573 -19.02152903 3.21676345 -17.54638672 2.76977539 C-15.42424383 2.12741631 -13.29860811 1.49806291 -11.171875 0.87109375 C-10.51443298 0.66906845 -9.85699097 0.46704315 -9.17962646 0.25889587 C-5.79592886 -0.72435838 -3.34251419 -1.32890707 0 0 Z " fill="#EFE3D8" transform="translate(121,143)"/>
<path d="M0 0 C0.33 1.65 0.66 3.3 1 5 C-4.71383277 9.80880489 -10.04963957 13.24192046 -17 16 C-19.31 14.02 -21.62 12.04 -24 10 C-20.610295 6.610295 -17.35512698 4.88411812 -13.125 2.75 C-12.41730469 2.37359375 -11.70960938 1.9971875 -10.98046875 1.609375 C-6.98326559 -0.41527911 -4.45376869 -1.6417814 0 0 Z " fill="#FEA335" transform="translate(425,155)"/>
<path d="M0 0 C7.68358776 2.40112117 15.06276618 8.73185967 20 15 C20.875 16.9765625 20.875 16.9765625 21 19 C19.78515625 20.921875 19.78515625 20.921875 18.0625 22.75 C17.49660156 23.36359375 16.93070312 23.9771875 16.34765625 24.609375 C15.90292969 25.06828125 15.45820313 25.5271875 15 26 C14 24 14 24 14.25 20.875 C13.77475814 13.5087511 9.55334038 9.30204355 4.1875 4.5625 C3.39730469 3.90378906 2.60710937 3.24507812 1.79296875 2.56640625 C1.20128906 2.04949219 0.60960937 1.53257812 0 1 C0 0.67 0 0.34 0 0 Z " fill="#F8E399" transform="translate(449,143)"/>
<path d="M0 0 C0 0.66 0 1.32 0 2 C-5.51143894 6.94616315 -9.42086371 7.72545528 -16.6875 7.4375 C-17.52861328 7.43169922 -18.36972656 7.42589844 -19.23632812 7.41992188 C-23.42896662 7.33680057 -26.29081231 7.09285855 -30 5 C-26.04938672 4.28571331 -22.09837318 3.57368872 -18.14697266 2.86376953 C-16.80245921 2.62188049 -15.45805729 2.37937064 -14.11376953 2.13623047 C-12.18291094 1.78710844 -10.25161742 1.44039447 -8.3203125 1.09375 C-6.57645264 0.77954102 -6.57645264 0.77954102 -4.79736328 0.45898438 C-2 0 -2 0 0 0 Z " fill="#FE9109" transform="translate(321,175)"/>
<path d="M0 0 C4.62 0.66 9.24 1.32 14 2 C14 2.99 14 3.98 14 5 C10.27034861 7.03435531 8.33094958 8 4 8 C0 2.88888889 0 2.88888889 0 0 Z " fill="#FE8F06" transform="translate(112,180)"/>
<path d="M0 0 C3.875 0.875 3.875 0.875 5 2 C5.1875 4.4375 5.1875 4.4375 5 7 C4.34 7.66 3.68 8.32 3 9 C1.68 9 0.36 9 -1 9 C-1.625 6.1875 -1.625 6.1875 -2 3 C-1.34 2.01 -0.68 1.02 0 0 Z " fill="#FCA261" transform="translate(110,277)"/>
<path d="M0 0 C3.875 0.875 3.875 0.875 5 2 C5.1875 4.4375 5.1875 4.4375 5 7 C4.34 7.66 3.68 8.32 3 9 C0.875 8.625 0.875 8.625 -1 8 C-1.625 5.6875 -1.625 5.6875 -2 3 C-1.34 2.01 -0.68 1.02 0 0 Z " fill="#FCA260" transform="translate(139,259)"/>
<path d="M0 0 C0.66 0.33 1.32 0.66 2 1 C-0.97 4.96 -0.97 4.96 -4 9 C-7.83736322 8.04065919 -8.59660228 7.76390737 -11 5 C-9.21289414 4.13633178 -7.4201535 3.28431406 -5.625 2.4375 C-4.62726563 1.96183594 -3.62953125 1.48617187 -2.6015625 0.99609375 C-1.74304688 0.66738281 -0.88453125 0.33867187 0 0 Z " fill="#F2E5A0" transform="translate(430,174)"/>
</svg>
