<?xml version="1.0" encoding="UTF-8"?>
<svg version="1.1" xmlns="http://www.w3.org/2000/svg" width="512" height="512">
<path d="M0 0 C0.78567352 -0.00067474 1.57134705 -0.00134949 2.38082886 -0.00204468 C13.90065593 0.01369179 24.90450547 0.43309305 36.125 3.25 C37.20177002 3.49943359 37.20177002 3.49943359 38.30029297 3.75390625 C66.18273196 10.26483254 90.4533757 24.69120376 111.125 44.25 C111.94613281 45.01828125 112.76726562 45.7865625 113.61328125 46.578125 C139.20661704 71.25599155 156.78781538 108.42095401 158.28613281 144.08544922 C158.66361589 179.76637915 158.66361589 179.76637915 155.125 193.25 C154.82698486 194.42393311 154.82698486 194.42393311 154.52294922 195.62158203 C144.41801047 234.48964233 121.54605275 260.97261724 93.75512695 288.78100586 C92.02247547 290.51829508 90.29001832 292.25577815 88.55773926 293.99343872 C83.88489247 298.67930787 79.20881854 303.3619447 74.53166986 308.04351878 C71.60613293 310.97183518 68.68132697 313.90088095 65.7566433 316.83004951 C57.64028327 324.9585761 49.52299581 333.08617398 41.40224934 341.21031857 C40.88488097 341.7279065 40.3675126 342.24549443 39.83446641 342.77876684 C39.31597339 343.29747814 38.79748037 343.81618944 38.26327544 344.35061926 C37.21286892 345.40146922 36.16246396 346.45232075 35.11206055 347.50317383 C34.59104073 348.02441507 34.07002092 348.54565632 33.53321262 349.08269275 C25.07238692 357.54747506 16.6183503 366.01900364 8.16717456 374.49341934 C-0.53318719 383.21751141 -9.23918036 391.93595055 -17.95083266 400.64876848 C-22.83281261 405.53166324 -27.71236929 410.41692512 -32.58569908 415.30845451 C-37.16303904 419.90283093 -41.74805571 424.48945249 -46.33831024 429.07092667 C-48.0194863 430.75133214 -49.69810708 432.43429861 -51.37394905 434.12002373 C-53.66486808 436.42365801 -55.96489111 438.71781024 -58.26737976 441.00987244 C-59.25421746 442.00879474 -59.25421746 442.00879474 -60.26099128 443.0278973 C-69.12579423 451.7993374 -78.24948112 456.27559774 -90.8125 456.6875 C-110.25224614 456.24328382 -122.43141234 441.86571378 -135.2578125 428.96484375 C-136.20736927 428.01341519 -137.15715204 427.06221213 -138.10714722 426.11122131 C-140.57194392 423.64265924 -143.03371942 421.17110678 -145.49481201 418.69885254 C-148.0207145 416.16260513 -150.54955383 413.62928945 -153.078125 411.09570312 C-158.01324519 406.14995151 -162.94517017 401.20102482 -167.875 396.25 C-173.92935947 401.25248075 -179.4227999 406.70140419 -184.93432617 412.29101562 C-185.93038469 413.29719751 -186.92672024 414.30310522 -187.92330933 415.3087616 C-190.05791764 417.46337145 -192.19116037 419.61932101 -194.32350731 421.77616882 C-197.70386958 425.19416484 -201.09092892 428.6054711 -204.47956848 432.01525879 C-205.05354423 432.59287193 -205.62751998 433.17048507 -206.21888894 433.76560163 C-207.39199679 434.94611435 -208.56512088 436.12661093 -209.73826087 437.30709171 C-217.61727906 445.23591412 -225.4919619 453.16890834 -233.34790039 461.12060547 C-238.66070364 466.4980666 -243.984263 471.86462272 -249.32023603 477.21909666 C-252.13662787 480.04611007 -254.94739596 482.8782299 -257.7450161 485.72383118 C-260.37914141 488.402973 -263.02733177 491.06739821 -265.68641281 493.72176552 C-267.10887324 495.14895744 -268.51639553 496.59099093 -269.92320251 498.03361511 C-279.82022283 507.85351653 -289.87264218 512.61930853 -303.76611328 512.6262207 C-316.62490015 512.35401621 -324.62570355 506.56010857 -333.39599609 497.72607422 C-334.85829757 496.26666934 -336.35337239 494.85134736 -337.86328125 493.44140625 C-346.05856587 485.62317126 -353.57953261 476.88606103 -354.2109375 465.078125 C-354.494489 450.72917266 -351.50918044 441.48693267 -341.63737869 430.83570862 C-338.938334 428.06796416 -336.20729239 425.33438557 -333.46337891 422.61132812 C-332.41774213 421.56625654 -331.37254762 420.52074229 -330.32775879 419.474823 C-327.51034881 416.65684271 -324.68684593 413.84504167 -321.86215258 411.0343647 C-318.90371515 408.08848865 -315.95099689 405.13689112 -312.99765015 402.18591309 C-307.41321788 396.60767976 -301.8237102 391.03456133 -296.23233068 385.4632926 C-289.86316763 379.11653806 -283.49972969 372.76405646 -277.13675046 366.41110325 C-264.05583064 353.35104949 -250.96778972 340.29815353 -237.875 327.25 C-241.2819267 323.20182762 -244.72723973 319.27517189 -248.5 315.55908203 C-249.36109375 314.70774689 -250.2221875 313.85641174 -251.109375 312.97927856 C-252.47835937 311.63215286 -252.47835937 311.63215286 -253.875 310.2578125 C-254.83898726 309.30333679 -255.80252038 308.34840221 -256.765625 307.39303589 C-260.82185382 303.37007769 -264.88225791 299.35141055 -268.953125 295.34326172 C-271.45646832 292.8778873 -273.95216775 290.40498382 -276.44335938 287.92733383 C-277.83695665 286.5455338 -279.23868564 285.17195011 -280.640625 283.7986145 C-290.81222847 273.66781451 -297.92654622 263.4891809 -298.375 248.75 C-297.88696112 233.227215 -289.79157598 223.84695861 -279.21800232 213.33230591 C-278.10903795 212.21760321 -278.10903795 212.21760321 -276.97767025 211.08038127 C-274.52164152 208.61410906 -272.05860571 206.15496245 -269.59545898 203.69580078 C-267.82365493 201.91964537 -266.05226795 200.14307383 -264.28126526 198.36611938 C-259.98146587 194.054347 -255.67698823 189.74729588 -251.37002563 185.44268002 C-247.86470774 181.93915141 -244.36117359 178.43384847 -240.85887337 174.92730331 C-240.35874817 174.42658293 -239.85862298 173.92586255 -239.34334247 173.40996882 C-238.32701832 172.39243279 -237.3106953 171.37489564 -236.2943734 170.35735737 C-226.77821675 160.83034257 -217.25557169 151.30983393 -207.73093218 141.791301 C-199.04304787 133.10857957 -190.36339091 124.41768697 -181.68760633 115.72287692 C-172.75465552 106.77048892 -163.81609267 97.82373944 -154.87154442 88.88293827 C-149.85992321 83.87322082 -144.85047664 78.86137648 -139.84692192 73.84360123 C-135.13679404 69.12022132 -130.41876615 64.40487113 -125.69551659 59.69460678 C-123.97172904 57.97317108 -122.25044853 56.24922032 -120.53199387 54.52246094 C-87.11574664 20.95650734 -48.13565465 0.0370144 0 0 Z " fill="#E38B9A" transform="translate(353.875,-0.24999999999999997)"/>
<path d="M0 0 C0.04875788 0.61462835 0.09751576 1.2292567 0.14775115 1.86251014 C1.19698663 9.82881895 4.61312922 13.748327 10.241745 19.24415588 C11.10422798 20.11770767 11.96671097 20.99125945 12.85532981 21.8912825 C15.24042255 24.29881688 17.64206874 26.68724402 20.05263174 29.06911099 C22.65275624 31.64695538 25.22966758 34.24783201 27.80964661 36.84580994 C32.86170082 41.92568992 37.93493953 46.98388594 43.01596179 52.03477395 C48.93342999 57.91848172 54.83072332 63.82224063 60.72758649 69.72658681 C71.24909397 80.25984376 81.79051029 90.77295243 92.3425293 101.27563477 C102.58069953 111.46594119 112.80184514 121.6729525 123.00561523 131.89770508 C134.12123898 143.03614544 145.24626413 154.16503663 156.38773471 165.27762836 C157.57554559 166.46238759 158.763351 167.64715229 159.95115089 168.83192253 C160.53556731 169.41482332 161.11998373 169.99772411 161.72210973 170.59828855 C165.83977565 174.70646935 169.95081512 178.82121057 174.05948448 182.93838692 C179.06533203 187.95408569 184.0819328 192.95872895 189.11251249 197.94962633 C191.67888239 200.49624894 194.24025142 203.04741203 196.78889084 205.6117897 C199.55090978 208.39051471 202.33574913 211.14560988 205.12333679 213.8986969 C205.9264637 214.7138439 206.72959061 215.5289909 207.5570547 216.36883932 C212.02964194 220.74092288 214.67632208 222.88431019 221 223 C221.66 223.33 222.32 223.66 223 224 C213.75944595 233.31017078 204.51072617 242.61214457 195.25159454 251.90384197 C190.9521203 256.21894885 186.65547197 260.53679202 182.36523438 264.86108398 C178.22214626 269.03685054 174.07169907 273.20517201 169.91612244 277.36850929 C168.33472808 278.95543187 166.75596946 280.54498567 165.1799469 282.13724327 C162.96615169 284.37292478 160.74303221 286.59892994 158.51757812 288.82299805 C157.87308716 289.47827484 157.22859619 290.13355164 156.5645752 290.8086853 C147.73477704 299.57944802 138.59272816 304.02667285 126.0625 304.4375 C106.62275386 303.99328382 94.44358766 289.61571378 81.6171875 276.71484375 C80.66763073 275.76341519 79.71784796 274.81221213 78.76785278 273.86122131 C76.30305608 271.39265924 73.84128058 268.92110678 71.38018799 266.44885254 C68.8542855 263.91260513 66.32544617 261.37928945 63.796875 258.84570312 C58.86175481 253.89995151 53.92982983 248.95102482 49 244 C42.94564053 249.00248075 37.4522001 254.45140419 31.94067383 260.04101562 C30.94461531 261.04719751 29.94827976 262.05310522 28.95169067 263.0587616 C26.81708236 265.21337145 24.68383963 267.36932101 22.55149269 269.52616882 C19.17113042 272.94416484 15.78407108 276.3554711 12.39543152 279.76525879 C11.82145577 280.34287193 11.24748002 280.92048507 10.65611106 281.51560163 C9.48300321 282.69611435 8.30987912 283.87661093 7.13673913 285.05709171 C-0.74227906 292.98591412 -8.6169619 300.91890834 -16.47290039 308.87060547 C-21.78570364 314.2480666 -27.109263 319.61462272 -32.44523603 324.96909666 C-35.26162787 327.79611007 -38.07239596 330.6282299 -40.8700161 333.47383118 C-43.50414141 336.152973 -46.15233177 338.81739821 -48.81141281 341.47176552 C-50.23387324 342.89895744 -51.64139553 344.34099093 -53.04820251 345.78361511 C-62.94522283 355.60351653 -72.99764218 360.36930853 -86.89111328 360.3762207 C-99.74990015 360.10401621 -107.75070355 354.31010857 -116.52099609 345.47607422 C-117.98329757 344.01666934 -119.47837239 342.60134736 -120.98828125 341.19140625 C-129.18356587 333.37317126 -136.70453261 324.63606103 -137.3359375 312.828125 C-137.619489 298.47917266 -134.63418044 289.23693267 -124.76237869 278.58570862 C-122.063334 275.81796416 -119.33229239 273.08438557 -116.58837891 270.36132812 C-115.54274213 269.31625654 -114.49754762 268.27074229 -113.45275879 267.224823 C-110.63534881 264.40684271 -107.81184593 261.59504167 -104.98715258 258.7843647 C-102.02871515 255.83848865 -99.07599689 252.88689112 -96.12265015 249.93591309 C-90.53821788 244.35767976 -84.9487102 238.78456133 -79.35733068 233.2132926 C-72.98816763 226.86653806 -66.62472969 220.51405646 -60.26175046 214.16110325 C-47.18083064 201.10104949 -34.09278972 188.04815353 -21 175 C-24.4069267 170.95182762 -27.85223973 167.02517189 -31.625 163.30908203 C-32.91664062 162.03207932 -32.91664062 162.03207932 -34.234375 160.72927856 C-35.60335937 159.38215286 -35.60335937 159.38215286 -37 158.0078125 C-37.96398726 157.05333679 -38.92752038 156.09840221 -39.890625 155.14303589 C-43.94685382 151.12007769 -48.00725791 147.10141055 -52.078125 143.09326172 C-54.58146832 140.6278873 -57.07716775 138.15498382 -59.56835938 135.67733383 C-60.96195665 134.2955338 -62.36368564 132.92195011 -63.765625 131.5486145 C-73.93722847 121.41781451 -81.05154622 111.2391809 -81.5 96.5 C-80.88663743 76.99111303 -67.20503434 65.90818672 -54.2578125 53.02734375 C-52.72285046 51.49357532 -51.18825955 49.95943538 -49.65402222 48.42494202 C-46.45472795 45.22720441 -43.25212405 42.03283306 -40.046875 38.84106445 C-35.92900136 34.74028762 -31.81784981 30.6328501 -27.70889473 26.523139 C-24.54891358 23.36342884 -21.38634074 20.20632391 -18.22286606 17.05011177 C-16.70472921 15.53516479 -15.18720405 14.01960458 -13.6702919 12.50343132 C-11.5615121 10.3968056 -9.44948246 8.29349669 -7.33642578 6.19116211 C-6.70581741 5.56010056 -6.07520905 4.929039 -5.42549133 4.27885437 C-1.11448368 0 -1.11448368 0 0 0 Z " fill="#79CA9B" transform="translate(137,152)"/>
<path d="M0 0 C1 2 1 2 1.14032555 5.15815067 C2.31867762 10.42415699 4.96479858 12.78123761 8.75479126 16.46958923 C9.46941194 17.1886309 10.18403262 17.90767256 10.92030847 18.64850336 C13.3190818 21.05481898 15.73866275 23.43905069 18.15869141 25.82397461 C19.88274465 27.54469828 21.60547086 29.26675243 23.32696533 30.99003601 C27.03792965 34.698977 30.75791248 38.39860979 34.48625565 42.09007072 C39.88491396 47.43544829 45.26636659 52.79788128 50.64372949 58.16467125 C59.37973933 66.88267324 68.12869091 75.5875648 76.88623047 84.28393555 C85.3736746 92.71216691 93.85630747 101.14518428 102.33154297 109.58569336 C102.85303364 110.10504229 103.37452432 110.62439122 103.91181774 111.159478 C109.6110433 116.83551916 115.30922577 122.51260705 121.00716209 128.18994236 C122.52122268 129.69848887 124.03529199 131.20702664 125.54937179 132.71555387 C126.54784852 133.71037865 127.54630944 134.7052193 128.54475431 135.70007605 C134.88221759 142.01458286 141.22409859 148.3246068 147.57091832 154.62970912 C151.21526761 158.2506185 154.85771305 161.87343938 158.49988556 165.49653816 C160.18597561 167.17279248 161.87296996 168.84813776 163.56094742 170.52249146 C165.87075177 172.8137852 168.17736482 175.10824738 170.48330688 177.40342712 C171.47890922 178.38852112 171.47890922 178.38852112 172.49462473 179.393516 C176.30082257 183.18932853 179.91057612 187.0987387 183.40904558 191.18046767 C186.04392682 194.19391139 188.86864567 197.0115788 191.703125 199.8359375 C192.3075946 200.44136383 192.91206421 201.04679016 193.53485107 201.67056274 C194.79739794 202.93378342 196.0611815 204.19576923 197.32617188 205.45654297 C199.26289556 207.38785956 201.19415724 209.32452454 203.125 211.26171875 C204.35905409 212.49511283 205.59341792 213.72819711 206.828125 214.9609375 C207.69065887 215.82650772 207.69065887 215.82650772 208.57061768 216.70956421 C212.64170702 221.1540695 212.64170702 221.1540695 218.04296875 223.1953125 C218.75066406 223.17210937 219.45835937 223.14890625 220.1875 223.125 C221.445625 223.08375 222.70375 223.0425 224 223 C219.34015015 228.58235378 214.39252544 233.78462777 209.27587891 238.94873047 C208.41978531 239.81621414 207.56369171 240.68369781 206.68165588 241.57746887 C203.86660672 244.42734547 201.04759553 247.27323688 198.2265625 250.1171875 C197.74486965 250.60282622 197.26317679 251.08846494 196.76688719 251.58881998 C192.21767308 256.17439374 187.66597498 260.75749178 183.10923195 265.33558464 C177.30170284 271.17074266 171.50614188 277.01726376 165.72586691 282.87942398 C161.64702213 287.01407133 157.55483777 291.13521466 153.45261896 295.24667084 C151.00778003 297.69775679 148.56919199 300.15437902 146.14488602 302.62578964 C143.44341811 305.37910918 140.71460849 308.10429137 137.98291016 310.82763672 C137.1888829 311.64525986 136.39485565 312.462883 135.57676697 313.30528259 C129.41343701 319.3778034 129.41343701 319.3778034 124.93856812 320.44827271 C120.78746716 319.97581033 120.20317853 319.67309417 117.30470371 317.0149107 C116.60513381 316.37520918 115.9055639 315.73550767 115.1847949 315.07642126 C111.46474833 311.5409023 107.80991029 307.94723835 104.18617249 304.31315613 C103.33474731 303.46329095 102.48332214 302.61342577 101.60609621 301.7378071 C99.26416492 299.3991546 96.92446996 297.05830636 94.5857352 294.71645987 C92.05525375 292.1837042 89.52188208 289.65384215 86.9888916 287.12359619 C82.03714219 282.17628074 77.08808447 277.2262812 72.14000428 272.27529623 C68.12030248 268.25333259 64.09962149 264.23235027 60.07824516 260.21206093 C59.50511803 259.63908703 58.93199089 259.06611313 58.34149627 258.47577638 C57.17713751 257.31173735 56.0127765 256.14770055 54.84841328 254.98366598 C43.94656677 244.0846669 33.04778054 233.18261176 22.15004753 222.27949987 C12.79439695 212.91937473 3.43611758 203.56188459 -5.92407227 194.20629883 C-16.79847476 183.33724273 -27.67126001 172.46657306 -38.54145247 161.59330636 C-39.69928472 160.43515556 -40.85711906 159.27700685 -42.01495552 158.11886024 C-42.58462573 157.54903576 -43.15429594 156.97921127 -43.74122889 156.39211937 C-47.76097499 152.37150885 -51.78188233 148.3520619 -55.80323601 144.33305931 C-60.69735524 139.44173866 -65.58970096 134.54865253 -70.47975098 129.65326359 C-72.97582725 127.15455223 -75.47270932 124.65666007 -77.97175026 122.16091347 C-80.67555864 119.46061569 -83.3755105 116.75648354 -86.07505798 114.05192566 C-87.27064273 112.85968699 -87.27064273 112.85968699 -88.4903807 111.6433627 C-89.20850105 110.92263461 -89.92662139 110.20190652 -90.66650295 109.45933819 C-91.29060352 108.83507527 -91.91470408 108.21081235 -92.55771679 107.56763238 C-95.37111333 104.5097229 -95.63371254 101.57118857 -95.56715393 97.53399849 C-94.38303726 92.24345973 -90.05885737 88.89945658 -86.27929688 85.25756836 C-85.35270767 84.32966492 -84.42611847 83.40176147 -83.47145081 82.44573975 C-80.93963128 79.91134538 -78.38109626 77.40559718 -75.81673622 74.90419078 C-73.13804444 72.28188811 -70.48493861 69.63395169 -67.82897949 66.98866272 C-62.80004766 61.98766696 -57.74862484 57.01004858 -52.68865347 52.0404821 C-46.92736043 46.37990203 -41.19170384 40.69364242 -35.45802593 35.00511348 C-23.66691558 23.3079924 -11.84413044 11.64343679 0 0 Z " fill="#F0CB76" transform="translate(232,56)"/>
<path d="M0 0 C4.70745077 3.9317076 9.1641171 8.02257286 13.48608398 12.37255859 C14.39469933 13.2809549 14.39469933 13.2809549 15.32167053 14.20770264 C17.29886146 16.18558341 19.27249876 18.16696914 21.24609375 20.1484375 C22.62592516 21.53013639 24.0059793 22.91161288 25.38624573 24.2928772 C29.0002185 27.91064913 32.61117673 31.53141519 36.22149658 35.15283203 C39.91341203 38.85501777 43.60819663 42.55433771 47.30273438 46.25390625 C54.53795303 53.49981631 61.76998741 60.74889555 69 68 C63.96550376 74.06775719 58.51752198 79.65725223 52.96240234 85.24633789 C51.9562069 86.26209124 50.95017926 87.27801082 49.94430542 88.29408264 C46.66206494 91.60747014 43.37448042 94.91552534 40.0859375 98.22265625 C39.52417958 98.78771149 38.96242166 99.35276674 38.38364077 99.93494487 C33.07514511 105.27419829 27.76460496 110.61141041 22.44920921 115.9437952 C15.68097355 122.73392949 8.92298929 129.53391906 2.17865026 136.34779173 C-2.58217424 141.15600659 -7.35457818 145.95253563 -12.13553274 150.74073404 C-14.98269503 153.59282719 -17.82467971 156.44964928 -20.65425491 159.31920052 C-23.31859933 162.02069444 -25.99715135 164.7072809 -28.68671799 167.38365746 C-30.12580077 168.82281896 -31.55006943 170.27674773 -32.97363281 171.73126221 C-42.91360097 181.56210149 -52.95226189 186.36928595 -66.89111328 186.3762207 C-79.74990015 186.10401621 -87.75070355 180.31010857 -96.52099609 171.47607422 C-97.98329757 170.01666934 -99.47837239 168.60134736 -100.98828125 167.19140625 C-109.18356587 159.37317126 -116.70453261 150.63606103 -117.3359375 138.828125 C-117.61970258 124.46836456 -114.62767848 115.22564802 -104.74640274 104.56973267 C-102.02210774 101.77669783 -99.2657607 99.017863 -96.49658203 96.26953125 C-95.44109317 95.21460757 -94.38604655 94.15924125 -93.33140564 93.10346985 C-90.48713721 90.25863106 -87.63677495 87.41997161 -84.78522348 84.58243561 C-81.79875932 81.60853181 -78.81801337 78.62890752 -75.8366394 75.64990234 C-70.19908313 70.0185453 -64.55645121 64.39230303 -58.91194808 58.76791 C-52.48232713 52.36069664 -46.05843048 45.94775702 -39.63499284 39.53434563 C-26.42965867 26.34987818 -13.21720327 13.17256831 0 0 Z " fill="#EAB09B" transform="translate(117,326)"/>
<path d="M0 0 C4.46596226 1.42617408 7.41924076 3.88121873 10.75 7.0625 C11.27513184 7.55637207 11.80026367 8.05024414 12.34130859 8.55908203 C13.4046014 9.56346486 14.46438861 10.57157283 15.52050781 11.58349609 C16.8141619 12.82207382 18.12087077 14.046987 19.4296875 15.26953125 C44.64439475 39.45231987 61.69497537 76.93645908 63.16113281 111.83544922 C63.53861589 147.51637915 63.53861589 147.51637915 60 161 C59.80132324 161.78262207 59.60264648 162.56524414 59.39794922 163.37158203 C52.1183109 191.37228822 38.45634825 215.33794323 18.59375 236.2578125 C16.97470285 237.96951596 15.38534767 239.71041338 13.84375 241.4921875 C10.77879854 244.90985163 8.17382565 247.46505605 3.625 248.5625 C-0.65917354 248.54224158 -2.47072517 247.09529912 -5.5390625 244.203125 C-6.41127441 243.38529541 -7.28348633 242.56746582 -8.18212891 241.72485352 C-9.5769751 240.37605103 -9.5769751 240.37605103 -11 239 C-11.47975281 238.53705536 -11.95950562 238.07411072 -12.45379639 237.59713745 C-15.48653676 234.66281548 -18.48751812 231.6982657 -21.47119141 228.71411133 C-23.02099573 227.16653444 -24.57870064 225.62719308 -26.13671875 224.08789062 C-27.13329931 223.09423801 -28.12941113 222.10011499 -29.125 221.10546875 C-30.01445312 220.22012451 -30.90390625 219.33478027 -31.8203125 218.42260742 C-33.72449827 216.30620561 -34.92142716 214.6074347 -36 212 C-35.00226563 211.81566406 -34.00453125 211.63132813 -32.9765625 211.44140625 C-27.94370806 209.98665601 -24.92707965 206.63625125 -21.375 202.9375 C-20.68204834 202.22722656 -19.98909668 201.51695312 -19.27514648 200.78515625 C11.62751684 168.49086388 26.86883952 127.56913595 26.1796875 83.08203125 C25.47908159 55.07941867 16.76040798 28.30848488 1.65234375 4.73828125 C0 2 0 2 0 0 Z " fill="#CC5B6F" transform="translate(449,32)"/>
<path d="M0 0 C1.1089438 0.94267042 2.21676064 1.88666667 3.32411194 2.83120728 C3.94115022 3.35675013 4.5581885 3.88229298 5.1939249 4.42376137 C7.73733385 6.64350264 10.11655664 9.00482029 12.49609375 11.3984375 C12.97450211 11.8782608 13.45291046 12.35808411 13.94581604 12.85244751 C15.44544879 14.35759458 16.94153128 15.86621214 18.4375 17.375 C19.46525983 18.40778595 20.49325285 19.44033991 21.52148438 20.47265625 C24.01701598 22.97910287 26.50938082 25.4886708 29 28 C23.96550376 34.06775719 18.51752198 39.65725223 12.96240234 45.24633789 C11.9562069 46.26209124 10.95017926 47.27801082 9.94430542 48.29408264 C6.66206494 51.60747014 3.37448042 54.91552534 0.0859375 58.22265625 C-0.47582042 58.78771149 -1.03757834 59.35276674 -1.61635923 59.93494487 C-6.92485489 65.27419829 -12.23539504 70.61141041 -17.55079079 75.9437952 C-24.31902645 82.73392949 -31.07701071 89.53391906 -37.82134974 96.34779173 C-42.58217424 101.15600659 -47.35457818 105.95253563 -52.13553274 110.74073404 C-54.98269503 113.59282719 -57.82467971 116.44964928 -60.65425491 119.31920052 C-63.31859933 122.02069444 -65.99715135 124.7072809 -68.68671799 127.38365746 C-70.12580077 128.82281896 -71.55006943 130.27674773 -72.97363281 131.73126221 C-82.91360097 141.56210149 -92.95226189 146.36928595 -106.89111328 146.3762207 C-119.73577467 146.10431523 -127.73972282 140.32262115 -136.50341797 131.49804688 C-138.02203742 129.97794101 -139.57049554 128.49482743 -141.12890625 127.015625 C-149.38283004 119.06955525 -149.38283004 119.06955525 -151 114 C-148.48354319 114.61121818 -146.04086414 115.29646017 -143.5625 116.0625 C-133.81508911 118.4359402 -123.89219994 117.75777222 -115 113 C-107.97514461 108.34687512 -102.17993383 102.45181679 -96.26953125 96.49658203 C-95.21460757 95.44109317 -94.15924125 94.38604655 -93.10346985 93.33140564 C-90.25863106 90.48713721 -87.41997161 87.63677495 -84.58243561 84.78522348 C-81.60853181 81.79875932 -78.62890752 78.81801337 -75.64990234 75.8366394 C-70.0185453 70.19908313 -64.39230303 64.55645121 -58.76791 58.91194808 C-52.36069664 52.48232713 -45.94775702 46.05843048 -39.53434563 39.63499284 C-26.34987818 26.42965867 -13.17256831 13.21720327 0 0 Z " fill="#E58D72" transform="translate(157,366)"/>
<path d="M0 0 C2.8944643 1.30536582 4.90526933 2.67522003 7.09692383 4.96508789 C7.67465042 5.5623317 8.25237701 6.1595755 8.84761047 6.7749176 C9.46121933 7.41767136 10.07482819 8.06042511 10.70703125 8.72265625 C12.02870015 10.07935761 13.35098506 11.4354591 14.67382812 12.79101562 C16.7475125 14.92660836 18.81621084 17.06637781 20.87426758 19.21704102 C22.8674581 21.29507858 24.87922091 23.35359444 26.89453125 25.41015625 C27.50206741 26.05493423 28.10960358 26.69971222 28.73554993 27.36402893 C32.67569155 31.35052874 35.19493383 32.72509588 41 33 C41.66 33.33 42.32 33.66 43 34 C33.75944595 43.31017078 24.51072617 52.61214457 15.25159454 61.90384197 C10.9521203 66.21894885 6.65547197 70.53679202 2.36523438 74.86108398 C-1.77785374 79.03685054 -5.92830093 83.20517201 -10.08387756 87.36850929 C-11.66527192 88.95543187 -13.24403054 90.54498567 -14.8200531 92.13724327 C-17.03384831 94.37292478 -19.25696779 96.59892994 -21.48242188 98.82299805 C-22.12691284 99.47827484 -22.77140381 100.13355164 -23.4354248 100.8086853 C-32.26522296 109.57944802 -41.40727184 114.02667285 -53.9375 114.4375 C-74.33553878 113.97138595 -87.25970572 97.90976508 -100.625 84.4375 C-101.73543961 83.32202917 -102.84611538 82.20679339 -103.95703125 81.09179688 C-106.64074159 78.39722369 -109.32126936 75.69952327 -112 73 C-111.01 72.505 -111.01 72.505 -110 72 C-108.824375 72.4640625 -108.824375 72.4640625 -107.625 72.9375 C-97.36709064 75.9441286 -88.38131638 73.66590538 -79 69 C-72.89952731 65.36773976 -67.84316307 60.21974862 -62.64453125 55.43359375 C-58.12780463 51.27713779 -53.49107162 47.26628144 -48.81640625 43.2890625 C-42.54184976 37.94494358 -36.36036746 32.5384473 -30.32250977 26.92797852 C-27.20473841 24.05031436 -24.00092187 21.33628268 -20.6875 18.6875 C-13.43191415 12.85749847 -6.74782774 6.40178529 0 0 Z " fill="#63AC7D" transform="translate(317,342)"/>
<path d="M0 0 C4.18361395 1.91487471 7.01207858 4.77558008 10.19140625 8.03125 C10.77792465 8.62296997 11.36444305 9.21468994 11.96873474 9.82434082 C13.83814675 11.71153039 15.70072644 13.60527682 17.5625 15.5 C19.42869733 17.39384292 21.29634278 19.28619832 23.16697693 21.17565918 C24.32948626 22.3503945 25.48931186 23.52779312 26.64613342 24.70812988 C30.664179 29.16462393 30.664179 29.16462393 36.04296875 31.1953125 C37.10451172 31.16050781 37.10451172 31.16050781 38.1875 31.125 C40.0746875 31.063125 40.0746875 31.063125 42 31 C37.34015015 36.58235378 32.39252544 41.78462777 27.27587891 46.94873047 C25.99173851 48.24995598 25.99173851 48.24995598 24.68165588 49.57746887 C21.86660672 52.42734547 19.04759553 55.27323688 16.2265625 58.1171875 C15.74486965 58.60282622 15.26317679 59.08846494 14.76688719 59.58881998 C10.21767308 64.17439374 5.66597498 68.75749178 1.10923195 73.33558464 C-4.69829716 79.17074266 -10.49385812 85.01726376 -16.27413309 90.87942398 C-20.35297787 95.01407133 -24.44516223 99.13521466 -28.54738104 103.24667084 C-30.99221997 105.69775679 -33.43080801 108.15437902 -35.85511398 110.62578964 C-38.55658189 113.37910918 -41.28539151 116.10429137 -44.01708984 118.82763672 C-45.20813072 120.05407143 -45.20813072 120.05407143 -46.42323303 121.30528259 C-52.57362722 127.36505823 -52.57362722 127.36505823 -57.43508911 128.06864929 C-62.13808826 127.9780839 -62.13808826 127.9780839 -64.59375 125.46484375 C-65.25246094 124.81628418 -65.91117187 124.16772461 -66.58984375 123.49951172 C-67.38519531 122.67467285 -68.18054688 121.84983398 -69 121 C-70.08197931 119.92846368 -71.16685118 118.85984373 -72.25390625 117.79345703 C-76.03047035 114.07730614 -79.76607484 110.32141229 -83.5 106.5625 C-84.81226585 105.24520941 -86.12476395 103.92815014 -87.4375 102.61132812 C-90.62768506 99.4102139 -93.81470651 96.20598135 -97 93 C-96.40646729 92.72792725 -95.81293457 92.45585449 -95.20141602 92.17553711 C-93.04687535 91.02503103 -91.54907846 89.85779311 -89.77734375 88.19140625 C-89.16648926 87.6193042 -88.55563477 87.04720215 -87.92626953 86.45776367 C-87.26997559 85.83232666 -86.61368164 85.20688965 -85.9375 84.5625 C-85.23995605 83.90290283 -84.54241211 83.24330566 -83.82373047 82.5637207 C-75.04647663 74.21398718 -66.52925688 65.6014077 -58 57 C-54.77382528 53.74700966 -51.54417432 50.49752579 -48.3125 47.25 C-47.59465332 46.52385498 -46.87680664 45.79770996 -46.13720703 45.04956055 C-42.21323221 41.1067602 -38.18404603 37.37610199 -33.97167969 33.74459839 C-30.58023754 30.7437537 -27.40725108 27.52989214 -24.21875 24.31640625 C-23.51979614 23.61603745 -22.82084229 22.91566864 -22.10070801 22.19407654 C-19.89808461 19.98591542 -17.69898919 17.77427963 -15.5 15.5625 C-13.99502492 14.05250186 -12.48981865 12.5427341 -10.984375 11.03320312 C-7.32024171 7.35812359 -3.6592652 3.67992644 0 0 Z " fill="#EAB15D" transform="translate(414,248)"/>
</svg>
