<?xml version="1.0" encoding="UTF-8"?>
<svg version="1.1" xmlns="http://www.w3.org/2000/svg" width="512" height="512">
<path d="M0 0 C6.91999487 3.57884451 13.6956062 7.33563025 20.39672852 11.30859375 C22.50575138 12.54877611 24.61513913 13.78833813 26.72485352 15.02734375 C28.34230469 15.97867188 28.34230469 15.97867188 29.99243164 16.94921875 C35.36167584 20.09593483 40.75381043 23.20267994 46.14672852 26.30859375 C47.76538818 27.24143188 47.76538818 27.24143188 49.41674805 28.19311523 C51.60755803 29.45559106 53.79847611 30.71787931 55.98950195 31.97998047 C61.41832794 35.10789523 66.84492133 38.23967823 72.27172852 41.37109375 C74.43838434 42.62111254 76.60505101 43.87111253 78.77172852 45.12109375 C83.10506185 47.62109375 87.43839518 50.12109375 91.77172852 52.62109375 C92.84567871 53.24056885 93.91962891 53.86004395 95.02612305 54.49829102 C97.17853214 55.74028967 99.33055472 56.98295841 101.48217773 58.22631836 C106.51695389 61.1346977 111.55512029 64.03656748 116.60772705 66.91384888 C118.38991995 67.92917033 120.17084764 68.9466765 121.95141602 69.96484375 C124.18070711 71.23872438 126.4123322 72.50853286 128.64672852 73.7734375 C134.48134101 77.1138645 140.10735752 80.54521555 145.27172852 84.87109375 C145.79653809 85.27851807 146.32134766 85.68594238 146.86206055 86.10571289 C150.96797992 91.24771203 150.57528505 98.32776199 150.59057617 104.57006836 C150.6006218 105.51718689 150.61066742 106.46430542 150.62101746 107.44012451 C150.65175427 110.55122302 150.6688582 113.66223584 150.68579102 116.7734375 C150.7045103 118.93820427 150.72408427 121.1029638 150.74447632 123.26771545 C150.79572311 128.95085374 150.83538877 134.63401566 150.87261963 140.31726074 C150.91270598 146.12237357 150.9637772 151.92738871 151.01391602 157.73242188 C151.11058709 169.11191046 151.19502011 180.49145431 151.27172852 191.87109375 C151.98439377 191.45990295 152.69705902 191.04871216 153.43132019 190.62506104 C156.74659508 188.71224999 160.06188865 186.79947134 163.37719727 184.88671875 C163.97360708 184.54262215 164.5700169 184.19852554 165.18449974 183.84400177 C171.89646617 179.9716031 178.60864252 176.09957125 185.32250977 172.23046875 C186.38920898 171.61558594 187.4559082 171.00070313 188.55493164 170.3671875 C190.65631764 169.15594373 192.75789341 167.94502918 194.85961914 166.734375 C195.89924805 166.13496094 196.93887695 165.53554687 198.01000977 164.91796875 C199.35639526 164.14211426 199.35639526 164.14211426 200.72998047 163.35058594 C202.4414611 162.35437303 204.12335302 161.30572679 205.77319336 160.21044922 C210.14198007 157.86853365 214.45140746 158.21336305 219.27172852 158.87109375 C222.60165939 160.01642029 225.46246994 161.66233602 228.45922852 163.49609375 C229.30743164 163.98827393 230.15563477 164.4804541 231.02954102 164.98754883 C232.84993951 166.04752143 234.66411398 167.11824426 236.47241211 168.19873047 C239.27487756 169.87297505 242.09238363 171.51841155 244.91625977 173.15625 C248.90532003 175.47169847 252.8874322 177.7984958 256.86547852 180.1328125 C263.63825271 184.09723531 270.45264834 187.98718591 277.27172852 191.87109375 C286.97815458 197.40185014 296.65360822 202.98243567 306.29248047 208.63037109 C311.63648587 211.75946519 316.99325124 214.86405949 322.36938477 217.9375 C323.56390411 218.62162736 324.75840296 219.3057905 325.95288086 219.98999023 C328.2358334 221.29746789 330.52163733 222.5994571 332.80932617 223.89868164 C333.84234863 224.49028076 334.87537109 225.08187988 335.93969727 225.69140625 C336.85001709 226.20977051 337.76033691 226.72813477 338.69824219 227.26220703 C342.92881887 229.90706998 346.42888208 232.11849243 348.27172852 236.87109375 C348.53458405 239.68633747 348.53458405 239.68633747 348.5526123 242.99958801 C348.56403259 244.25709366 348.57545288 245.5145993 348.58721924 246.81021118 C348.58970978 248.20135458 348.59196001 249.59249843 348.59399414 250.98364258 C348.60325422 252.45069374 348.61330404 253.9177401 348.62408447 255.38478088 C348.65030023 259.36835626 348.66321588 263.35186426 348.67210579 267.3355124 C348.67797224 269.82546215 348.68618277 272.31539358 348.69511414 274.80533409 C348.72245503 282.5991974 348.74179294 290.39301873 348.74951792 298.18692666 C348.75847876 307.17777161 348.79357531 316.16800833 348.85151911 325.15866834 C348.89477727 332.11252897 348.91492773 339.06621862 348.91760015 346.02021235 C348.91969448 350.17166488 348.93146962 354.32254534 348.96723938 358.47385597 C349.00024527 362.38030657 349.00449263 366.28575647 348.98696136 370.19229698 C348.98542288 371.62295084 348.99407712 373.05365898 349.01387787 374.48417664 C349.17199566 386.62299519 349.17199566 386.62299519 345.40460205 391.15080261 C342.69947026 393.74007985 339.75648739 395.71805733 336.47485352 397.52734375 C335.36480957 398.14939697 334.25476563 398.7714502 333.11108398 399.41235352 C331.91467415 400.06534386 330.71822119 400.7182552 329.52172852 401.37109375 C328.26843505 402.06870254 327.01600729 402.76786866 325.7644043 403.46850586 C323.1925356 404.90719526 320.61754217 406.3400345 318.0402832 407.76904297 C312.36962132 410.92184409 306.75969847 414.17954872 301.14672852 417.43359375 C298.99845393 418.67476118 296.85001632 419.91564649 294.70141602 421.15625 C293.64148438 421.76871582 292.58155273 422.38118164 291.48950195 423.01220703 C287.16852666 425.50840626 282.84605393 428.00200538 278.5234375 430.49536133 C276.36395443 431.74104857 274.20461087 432.98697769 272.04541016 434.2331543 C266.4942596 437.43682216 260.94120566 440.63712058 255.38500977 443.83203125 C253.11795117 445.13649021 250.85102196 446.44117408 248.58422852 447.74609375 C247.50004639 448.37016113 246.41586426 448.99422852 245.29882812 449.63720703 C238.12013989 453.77899201 230.99743624 458.00022358 223.93188477 462.33203125 C219.45326187 464.92318752 215.36203062 465.70570497 210.27172852 464.87109375 C201.80829532 461.64632176 194.02648002 456.44795824 186.26000977 451.82421875 C180.48215085 448.39070813 174.65853504 445.03751941 168.83422852 441.68359375 C167.72805176 441.04623291 166.621875 440.40887207 165.48217773 439.75219727 C163.21049186 438.44346959 160.93868097 437.13495891 158.66674805 435.82666016 C152.12124413 432.05638212 145.57909946 428.28027731 139.03710938 424.50390625 C133.54801964 421.33586771 128.05662961 418.17194333 122.56079102 415.015625 C117.14302529 411.90390491 111.73729423 408.77192066 106.33422852 405.63476562 C103.3467317 403.91428755 100.34280567 402.22624354 97.33422852 400.54296875 C95.52135913 399.50715664 93.70883873 398.47073341 91.89672852 397.43359375 C91.07640137 396.98604736 90.25607422 396.53850098 89.41088867 396.07739258 C88.65598145 395.63935303 87.90107422 395.20131348 87.12329102 394.75 C86.14610107 394.20194702 86.14610107 394.20194702 85.14916992 393.64282227 C80.40564101 389.16638672 79.09753879 384.66320596 78.85196495 378.28926182 C78.79044469 374.49223388 78.83039975 370.69926869 78.88110352 366.90234375 C78.8885739 365.25468638 78.89426306 363.60702006 78.89825439 361.95935059 C78.91344816 357.64537561 78.95267484 353.33194857 78.99707031 349.01818848 C79.03815903 344.60725311 79.05629431 340.19622828 79.07641602 335.78515625 C79.11917617 327.14688537 79.18735023 318.50905793 79.27172852 309.87109375 C75.35282348 312.05822248 71.43522178 314.24767603 67.51782227 316.4375 C66.42546265 317.04710571 65.33310303 317.65671143 64.2076416 318.28479004 C54.88505624 323.49847477 45.65509714 328.8615839 36.43969727 334.26171875 C30.26277177 337.88070576 24.07290279 341.47691793 17.87472534 345.05935669 C16.18996038 346.03359435 14.50634162 347.00981332 12.82275391 347.98608398 C11.27769165 348.87855835 11.27769165 348.87855835 9.70141602 349.7890625 C8.79633301 350.31266357 7.89125 350.83626465 6.95874023 351.37573242 C-0.01970693 355.25934035 -4.73321546 357.0462201 -12.72827148 355.87109375 C-15.32641602 354.71459961 -15.32641602 354.71459961 -17.92358398 353.2109375 C-18.87998779 352.6655835 -19.8363916 352.12022949 -20.82177734 351.55834961 C-21.78092041 351.00155518 -22.74006348 350.44476074 -23.72827148 349.87109375 C-25.48102062 348.8898573 -27.23490679 347.91064882 -28.98999023 346.93359375 C-30.79934921 345.91411734 -32.60791452 344.89323133 -34.41577148 343.87109375 C-35.40488525 343.31204346 -36.39399902 342.75299316 -37.41308594 342.17700195 C-45.44630478 337.62359895 -53.4256935 332.98185059 -61.39306641 328.31445312 C-69.14183089 323.78078064 -76.9279588 319.31515874 -84.72827148 314.87109375 C-94.43878547 309.33757451 -104.11746136 303.75284446 -113.76220703 298.10522461 C-119.03474538 295.01955884 -124.31663693 291.95128695 -129.61499023 288.91015625 C-130.1942627 288.5773616 -130.77353516 288.24456696 -131.37036133 287.90168762 C-134.15798177 286.30039904 -136.94696666 284.70159298 -139.73852539 283.10717773 C-142.74645425 281.38040376 -145.7404718 279.63244306 -148.72827148 277.87109375 C-149.73937988 277.28183105 -150.75048828 276.69256836 -151.79223633 276.08544922 C-153.25137451 275.20397217 -153.25137451 275.20397217 -154.73999023 274.3046875 C-155.60454834 273.7883374 -156.46910645 273.2719873 -157.35986328 272.73999023 C-161.31390644 269.61987887 -163.49641014 266.45515335 -164.23163605 261.43214417 C-164.23314415 260.162332 -164.23465225 258.89251984 -164.23620605 257.58422852 C-164.24244602 256.87279725 -164.24868598 256.16136599 -164.25511503 255.4283762 C-164.27100799 253.05607543 -164.2584562 250.68480749 -164.24584961 248.3125 C-164.2512724 246.60708011 -164.25839595 244.9016649 -164.26708984 243.19625854 C-164.28530747 238.57227441 -164.27826214 233.94864773 -164.2655735 229.32465744 C-164.25543775 224.482786 -164.26484078 219.64094492 -164.27111816 214.79907227 C-164.27839289 206.66840121 -164.26881144 198.53787554 -164.24975586 190.40722656 C-164.22798746 181.01063033 -164.23503895 171.61438128 -164.25706148 162.21779346 C-164.27522045 154.14627774 -164.27777137 146.07486646 -164.2673068 138.00333691 C-164.26107461 133.18422442 -164.26022872 128.36527506 -164.27345276 123.5461731 C-164.28501786 119.0152272 -164.27697354 114.48472838 -164.25387573 109.95383072 C-164.24859216 108.29219428 -164.25009643 106.63052015 -164.25892639 104.96889877 C-164.26987999 102.6980797 -164.25612261 100.42868746 -164.23620605 98.15795898 C-164.23469795 96.88814682 -164.23318985 95.61833466 -164.23163605 94.31004333 C-163.48059776 89.17900514 -161.10345082 86.10843622 -157.30712891 82.69262695 C-154.7530994 80.88863053 -152.18237384 79.27570917 -149.46655273 77.7265625 C-148.44368164 77.14003906 -147.42081055 76.55351563 -146.36694336 75.94921875 C-145.26930664 75.3253125 -144.17166992 74.70140625 -143.04077148 74.05859375 C-141.87840431 73.39367963 -140.71629967 72.72830638 -139.55444336 72.0625 C-137.14285688 70.68100245 -134.73015804 69.3014781 -132.31665039 67.92333984 C-126.77656193 64.7577082 -121.25333167 61.56285488 -115.72827148 58.37109375 C-113.56168352 57.12095734 -111.39501661 55.87095775 -109.22827148 54.62109375 C-108.15577148 54.00234375 -107.08327148 53.38359375 -105.97827148 52.74609375 C-70.22827148 32.12109375 -70.22827148 32.12109375 -66.97436523 30.24389648 C-64.82065429 29.00133356 -62.66700782 27.75865886 -60.51342773 26.51586914 C-55.49142887 23.61794752 -50.46884341 20.72106026 -45.44384766 17.82833862 C-43.67781627 16.81162177 -41.91199717 15.79453717 -40.14624023 14.77734375 C-37.94092994 13.50708502 -35.73522932 12.23750357 -33.52905273 10.96875 C-27.90381122 7.72757371 -22.3175306 4.43782726 -16.78686523 1.03735352 C-11.40675732 -2.01065117 -5.66187659 -2.3427756 0 0 Z " fill="#B9E4EF" transform="translate(163.728271484375,24.12890625)"/>
<path d="M0 0 C6.91999487 3.57884451 13.6956062 7.33563025 20.39672852 11.30859375 C22.50575138 12.54877611 24.61513913 13.78833813 26.72485352 15.02734375 C28.34230469 15.97867188 28.34230469 15.97867188 29.99243164 16.94921875 C35.36167584 20.09593483 40.75381043 23.20267994 46.14672852 26.30859375 C47.76538818 27.24143188 47.76538818 27.24143188 49.41674805 28.19311523 C51.60755803 29.45559106 53.79847611 30.71787931 55.98950195 31.97998047 C61.41832794 35.10789523 66.84492133 38.23967823 72.27172852 41.37109375 C74.43838434 42.62111254 76.60505101 43.87111253 78.77172852 45.12109375 C83.10506185 47.62109375 87.43839518 50.12109375 91.77172852 52.62109375 C92.84567871 53.24056885 93.91962891 53.86004395 95.02612305 54.49829102 C97.17853214 55.74028967 99.33055472 56.98295841 101.48217773 58.22631836 C106.51695389 61.1346977 111.55512029 64.03656748 116.60772705 66.91384888 C118.38991995 67.92917033 120.17084764 68.9466765 121.95141602 69.96484375 C124.18070711 71.23872438 126.4123322 72.50853286 128.64672852 73.7734375 C144.72388074 82.97791397 144.72388074 82.97791397 147.27172852 88.87109375 C146.51029541 89.30454102 145.7488623 89.73798828 144.96435547 90.18457031 C142.12024909 91.80630686 139.27841177 93.4318866 136.43798828 95.06005859 C135.21197781 95.76178933 133.98510201 96.46201058 132.75732422 97.16064453 C130.9850452 98.16946921 129.21602682 99.18381691 127.44750977 100.19921875 C126.38443604 100.80668945 125.3213623 101.41416016 124.22607422 102.04003906 C121.35297584 103.820738 118.7533611 105.57327514 116.27172852 107.87109375 C116.31297852 108.81984375 116.35422852 109.76859375 116.39672852 110.74609375 C116.27172852 113.87109375 116.27172852 113.87109375 113.56469727 116.6015625 C108.30836698 120.87463742 102.35879195 124.02431406 96.45922852 127.30859375 C95.21084297 128.01139846 93.96296748 128.71510987 92.71557617 129.41967773 C90.15321015 130.86666452 87.58919912 132.3106699 85.02416992 133.75292969 C79.37326374 136.93619679 73.76036668 140.18519709 68.14672852 143.43359375 C66.00095783 144.67328553 63.85512445 145.91286879 61.70922852 147.15234375 C60.64961914 147.76464844 59.59000977 148.37695312 58.49829102 149.0078125 C55.23648844 150.89144425 51.97311008 152.77231696 48.70922852 154.65234375 C46.52171681 155.9127401 44.33421675 157.17315666 42.14672852 158.43359375 C41.08413818 159.04557617 40.02154785 159.65755859 38.92675781 160.28808594 C33.43187712 163.45671259 27.94777284 166.64237449 22.47875977 169.85546875 C21.3838623 170.49798584 20.28896484 171.14050293 19.16088867 171.80249023 C17.0793272 173.02549093 14.9994754 174.25140782 12.92163086 175.48071289 C11.98915527 176.02848389 11.05667969 176.57625488 10.09594727 177.140625 C9.282146 177.62120361 8.46834473 178.10178223 7.62988281 178.59692383 C5.2311871 179.89299929 2.80839655 180.8787263 0.27172852 181.87109375 C0.27864196 182.8846193 0.27864196 182.8846193 0.28569508 183.91862011 C0.39612231 200.36036493 0.47885958 216.80199227 0.53078938 233.24402142 C0.55656986 241.19528713 0.59171706 249.14630529 0.64892578 257.09741211 C0.69876594 264.02771015 0.73102068 270.95782891 0.74217099 277.88830119 C0.74868886 281.55795377 0.76400334 285.22709348 0.8003788 288.89658165 C0.84066064 292.99337883 0.84167758 297.08928474 0.83935547 301.1862793 C0.86632004 303.01076096 0.86632004 303.01076096 0.89382935 304.87210083 C0.83752424 314.02681585 0.83752424 314.02681585 -2.03718567 317.1599884 C-4.72827148 318.87109375 -4.72827148 318.87109375 -8.35327148 318.93359375 C-12.11267973 317.75007634 -12.81423391 317.18772291 -14.72827148 313.87109375 C-15.11303234 311.31740952 -15.11303234 311.31740952 -15.1269989 308.37884521 C-15.13953705 307.26267822 -15.1520752 306.14651123 -15.16499329 304.996521 C-15.1635582 303.77660461 -15.16212311 302.55668823 -15.16064453 301.29980469 C-15.17593201 299.36772156 -15.17593201 299.36772156 -15.19152832 297.39660645 C-15.21911205 293.8680078 -15.22838462 290.3395703 -15.23438239 286.8108778 C-15.24376255 283.12192076 -15.26996562 279.43308426 -15.29438782 275.74420166 C-15.33806645 268.76033001 -15.36660498 261.77648174 -15.3897112 254.79251504 C-15.41675561 246.84087188 -15.46066755 238.88934991 -15.50599992 230.93779325 C-15.5988657 214.58228817 -15.67053753 198.22676137 -15.72827148 181.87109375 C-16.42308121 181.4833226 -17.11789093 181.09555145 -17.83375549 180.69602966 C-21.0504915 178.8999794 -24.26633713 177.10234046 -27.48217773 175.3046875 C-28.57453735 174.69508179 -29.66689697 174.08547607 -30.7923584 173.45739746 C-38.12685398 169.3555581 -45.41359184 165.17920154 -52.66577148 160.93359375 C-53.77186768 160.28648437 -54.87796387 159.639375 -56.01757812 158.97265625 C-56.8824585 158.46476563 -57.74733887 157.956875 -58.63842773 157.43359375 C-64.9439776 153.73895952 -71.27134678 150.08279691 -77.60327148 146.43359375 C-79.2071875 145.50848999 -79.2071875 145.50848999 -80.84350586 144.56469727 C-85.89128913 141.65434892 -90.94114419 138.74768764 -95.99597168 135.84959412 C-97.75307631 134.84187416 -99.50956672 133.83309195 -101.26586914 132.82397461 C-103.45572203 131.56613795 -105.6467159 130.31028455 -107.83911133 129.05688477 C-112.86611911 126.16730355 -117.85967501 123.22799248 -122.79467773 120.18359375 C-124.11060913 119.37341797 -124.11060913 119.37341797 -125.453125 118.546875 C-127.85044587 116.78110502 -129.29347008 115.48142698 -130.72827148 112.87109375 C-130.68694092 111.87094238 -130.64561035 110.87079102 -130.60302734 109.84033203 C-130.64435791 108.8604834 -130.68568848 107.88063477 -130.72827148 106.87109375 C-132.81747612 104.8229137 -132.81747612 104.8229137 -135.73217773 103.36328125 C-136.7834082 102.76902344 -137.83463867 102.17476563 -138.91772461 101.5625 C-140.58738281 100.66337891 -140.58738281 100.66337891 -142.29077148 99.74609375 C-143.37680664 99.13894531 -144.4628418 98.53179687 -145.58178711 97.90625 C-147.68284178 96.73374654 -149.78896177 95.57026243 -151.90063477 94.41699219 C-155.20268507 92.6117269 -158.46844126 90.75122539 -161.72827148 88.87109375 C-159.52535767 83.26367676 -154.5014369 80.59853888 -149.46655273 77.7265625 C-148.44368164 77.14003906 -147.42081055 76.55351563 -146.36694336 75.94921875 C-145.26930664 75.3253125 -144.17166992 74.70140625 -143.04077148 74.05859375 C-141.87840431 73.39367963 -140.71629967 72.72830638 -139.55444336 72.0625 C-137.14285688 70.68100245 -134.73015804 69.3014781 -132.31665039 67.92333984 C-126.77656193 64.7577082 -121.25333167 61.56285488 -115.72827148 58.37109375 C-113.56168352 57.12095734 -111.39501661 55.87095775 -109.22827148 54.62109375 C-108.15577148 54.00234375 -107.08327148 53.38359375 -105.97827148 52.74609375 C-70.22827148 32.12109375 -70.22827148 32.12109375 -66.97436523 30.24389648 C-64.82065429 29.00133356 -62.66700782 27.75865886 -60.51342773 26.51586914 C-55.49142887 23.61794752 -50.46884341 20.72106026 -45.44384766 17.82833862 C-43.67781627 16.81162177 -41.91199717 15.79453717 -40.14624023 14.77734375 C-37.94092994 13.50708502 -35.73522932 12.23750357 -33.52905273 10.96875 C-27.90381122 7.72757371 -22.3175306 4.43782726 -16.78686523 1.03735352 C-11.40675732 -2.01065117 -5.66187659 -2.3427756 0 0 Z " fill="#DAF1F4" transform="translate(163.728271484375,24.12890625)"/>
<path d="M0 0 C2.36149809 1.15280461 4.57916255 2.43217111 6.82055664 3.80371094 C7.66875977 4.29589111 8.51696289 4.78807129 9.39086914 5.29516602 C11.21126763 6.35513861 13.0254421 7.42586144 14.83374023 8.50634766 C17.63620569 10.18059224 20.45371175 11.82602873 23.27758789 13.46386719 C27.26664815 15.77931565 31.24876032 18.10611299 35.22680664 20.44042969 C41.99958083 24.4048525 48.81397647 28.2948031 55.63305664 32.17871094 C65.33948271 37.70946732 75.01493635 43.29005285 84.65380859 48.93798828 C89.99781399 52.06708238 95.35457936 55.17167667 100.73071289 58.24511719 C101.92523224 58.92924455 103.11973109 59.61340769 104.31420898 60.29760742 C106.59716153 61.60508508 108.88296545 62.90707429 111.1706543 64.20629883 C112.20367676 64.79789795 113.23669922 65.38949707 114.30102539 65.99902344 C115.21134521 66.5173877 116.12166504 67.03575195 117.05957031 67.56982422 C119.79164281 69.2778555 122.25729313 70.99809465 124.63305664 73.17871094 C124.63305664 74.16871094 124.63305664 75.15871094 124.63305664 76.17871094 C122.46166992 77.80444336 122.46166992 77.80444336 119.45336914 79.53417969 C118.37958008 80.15615234 117.30579102 80.778125 116.19946289 81.41894531 C114.4959668 82.3828418 114.4959668 82.3828418 112.75805664 83.36621094 C111.63012695 84.02041016 110.50219727 84.67460937 109.34008789 85.34863281 C100.92900294 90.17871094 100.92900294 90.17871094 98.63305664 90.17871094 C98.74907227 90.7471875 98.86508789 91.31566406 98.98461914 91.90136719 C99.29637295 94.56908903 99.27248345 96.56210911 98.63305664 99.17871094 C95.8463433 102.33425398 92.28378295 104.14767306 88.63305664 106.17871094 C87.71556641 106.69739746 87.71556641 106.69739746 86.77954102 107.2265625 C83.12699233 109.29128216 79.45511859 111.3183724 75.77368164 113.33105469 C70.21009076 116.38973682 64.73346855 119.59053832 59.25805664 122.80371094 C49.16904612 128.71880214 39.03206878 134.544033 28.86401367 140.32177734 C26.71125955 141.54722073 24.57229351 142.79729071 22.44973755 144.07432556 C19.79736641 145.61458318 17.16448049 146.78146426 14.29754639 147.86582947 C9.42761292 149.88883617 5.04851857 152.05867899 1.63305664 156.17871094 C-1.44844109 164.0741102 -0.38251536 173.17797537 -0.10522461 181.47949219 C-0.08577754 183.96423967 -0.07444335 186.44906269 -0.07084656 188.93388367 C-0.04235702 195.45606243 0.08427087 201.97250781 0.23535156 208.49285889 C0.4580563 218.9435501 0.51887461 229.39679043 0.60279274 239.84932518 C0.64427509 243.49798697 0.71999642 247.14462011 0.80265808 250.79255676 C0.83849042 253.02454111 0.87401439 255.25653044 0.90917969 257.48852539 C0.94091782 258.50212128 0.97265594 259.51571716 1.00535583 260.56002808 C1.05499273 264.91491457 1.05604814 267.45171186 -1.1693573 271.27653503 C-4.26740115 273.95812483 -6.29556351 274.32156637 -10.36694336 274.17871094 C-13.07615662 272.33882141 -13.07615662 272.33882141 -15.36694336 269.17871094 C-15.98506394 265.59833337 -15.76981137 262.10915026 -15.58203125 258.49194336 C-15.51053955 256.25929404 -15.43909503 254.02664321 -15.36769104 251.79399109 C-15.32059053 250.61192266 -15.27349003 249.42985424 -15.22496223 248.21196556 C-14.99365752 241.92744498 -14.90805126 235.64008992 -14.79467773 229.35253906 C-14.63976466 221.35984644 -14.44365642 213.37670101 -14.10205078 205.38989258 C-11.24336272 177.66013856 -11.24336272 177.66013856 -18.99938965 152.26693726 C-25.00232565 146.25363087 -32.66978566 143.63611575 -40.71510315 141.36683655 C-46.85258208 139.37000879 -52.02152561 136.00055357 -57.49194336 132.61621094 C-59.62239775 131.37682482 -61.75609041 130.14297291 -63.89428711 128.91699219 C-64.95244629 128.30549316 -66.01060547 127.69399414 -67.10083008 127.06396484 C-70.48055424 125.11313288 -73.86287896 123.16687588 -77.24584961 121.22167969 C-82.68122953 118.0957464 -88.11172787 114.96154756 -93.53686523 111.81787109 C-95.32602268 110.78160443 -97.1162509 109.74718236 -98.90795898 108.71533203 C-101.04519837 107.48241319 -103.17593891 106.2391297 -105.30444336 104.99121094 C-106.4272168 104.33765625 -107.54999023 103.68410156 -108.70678711 103.01074219 C-111.29272739 101.22982296 -112.85485188 99.9187065 -114.36694336 97.17871094 C-114.05444336 93.42871094 -114.05444336 93.42871094 -113.36694336 90.17871094 C-114.00374023 89.95183594 -114.64053711 89.72496094 -115.29663086 89.49121094 C-119.53138757 87.68093326 -123.47976157 85.43274565 -127.49194336 83.17871094 C-128.30276367 82.72753906 -129.11358398 82.27636719 -129.94897461 81.81152344 C-133.16459015 80.01503079 -136.29996317 78.22336439 -139.36694336 76.17871094 C-135.92904289 68.09964482 -125.36271687 64.45638179 -118.00634766 60.41674805 C-101.2740137 51.20829268 -84.75927743 41.49955585 -68.53540039 31.41943359 C-60.06249997 26.16431694 -51.45956675 21.16893509 -42.77835083 16.26513672 C-33.88005205 11.24389005 -33.88005205 11.24389005 -25.15991211 5.92089844 C-24.40871094 5.45022949 -23.65750977 4.97956055 -22.88354492 4.49462891 C-21.5609904 3.65754942 -20.25003364 2.80163618 -18.95581055 1.92138672 C-13.10289277 -1.7531412 -6.54908806 -2.2724221 0 0 Z " fill="#DAF1F4" transform="translate(385.366943359375,183.8212890625)"/>
<path d="M0 0 C2.52898695 3.79348042 3.10145764 6.68133813 3.23464966 11.17214966 C3.26059204 11.99619797 3.28653442 12.82024628 3.31326294 13.66926575 C3.33637543 14.56489731 3.35948792 15.46052887 3.38330078 16.38330078 C3.42448029 17.80848778 3.42448029 17.80848778 3.4664917 19.26246643 C3.70605345 28.01838212 3.84975052 36.77601681 3.96293831 45.53439522 C4.04044885 51.41456295 4.15037483 57.29018006 4.33740234 63.16796875 C4.51763467 68.8594718 4.61370548 74.54679464 4.65185165 80.24096298 C4.68063805 82.4047684 4.73897124 84.56839839 4.82797623 86.73056412 C5.47559085 103.19362631 5.47559085 103.19362631 1.35467339 107.86517143 C-2.68993722 111.09210126 -7.12490725 113.1973591 -11.9029808 115.11812973 C-14.97617697 116.41051672 -17.72295295 118.07642032 -20.57421875 119.80078125 C-22.61191327 120.97146888 -24.64967396 122.14204133 -26.6875 123.3125 C-30.02495929 125.23884857 -33.36143081 127.16689924 -36.69775391 129.09521484 C-38.88035366 130.35417117 -41.06489506 131.60976796 -43.25146484 132.86181641 C-46.29802275 134.60706893 -49.33714286 136.36465823 -52.375 138.125 C-53.28983154 138.64489502 -54.20466309 139.16479004 -55.1472168 139.70043945 C-55.99324463 140.19374756 -56.83927246 140.68705566 -57.7109375 141.1953125 C-58.44618652 141.61828613 -59.18143555 142.04125977 -59.93896484 142.47705078 C-62.57337469 144.42368056 -64.18345147 146.25853001 -66 149 C-66.45356986 152.31399149 -66.45356986 152.31399149 -66.16503906 155.95483398 C-66.10657978 157.36485769 -66.04825686 158.77488706 -65.99005127 160.18492126 C-65.95193581 160.92739546 -65.91382034 161.66986965 -65.87454987 162.43484306 C-65.68747351 166.40437143 -65.62264947 170.3768656 -65.53515625 174.34960938 C-65.41618946 179.39015488 -65.2629232 184.4224207 -64.98193359 189.45678711 C-63.52311269 216.59564196 -63.52311269 216.59564196 -69.23419189 223.83016968 C-74.8927851 228.54914753 -81.25889542 231.3448235 -88.12060547 233.89608765 C-91.75796066 235.29058961 -94.8132212 237.06566534 -98.1171875 239.12109375 C-100.03607375 240.22722992 -101.95533382 241.33271792 -103.875 242.4375 C-106.03390238 243.68090588 -108.19275492 244.9243983 -110.3515625 246.16796875 C-111.97433105 247.10261963 -111.97433105 247.10261963 -113.62988281 248.05615234 C-116.55387296 249.74267868 -119.47591784 251.43247002 -122.39663696 253.12464905 C-124.7748599 254.50249503 -127.1538072 255.87908785 -129.53277588 257.25564575 C-131.20596792 258.22450333 -132.8781445 259.19511391 -134.55029297 260.16577148 C-135.57010254 260.75559814 -136.58991211 261.3454248 -137.640625 261.953125 C-138.53297852 262.47036133 -139.42533203 262.98759766 -140.34472656 263.52050781 C-141.2209668 264.00874023 -142.09720703 264.49697266 -143 265 C-143.97678711 265.5578418 -144.95357422 266.11568359 -145.95996094 266.69042969 C-149 268 -149 268 -155 268 C-155 255.79 -155 243.58 -155 231 C-153.02 230.01 -151.04 229.02 -149 228 C-147.71562586 225.43125172 -147.93427476 223.72337237 -148.01673889 220.84919739 C-148.04452423 219.75745712 -148.07230957 218.66571686 -148.10093689 217.54089355 C-148.13602859 216.33735229 -148.1711203 215.13381104 -148.20727539 213.89379883 C-148.27334881 211.27344682 -148.33818767 208.65309502 -148.40113831 206.03266907 C-148.41814321 205.34091068 -148.43514811 204.64915229 -148.45266831 203.93643153 C-148.68362714 194.28601665 -148.77510272 184.63344498 -148.87383366 174.98093128 C-148.95825709 167.12360342 -149.09066393 159.27235715 -149.33374023 151.41821289 C-149.54583153 144.55888163 -149.66414228 137.7050391 -149.67466348 130.84233683 C-149.68351714 127.212633 -149.73684575 123.59684778 -149.90361214 119.97068214 C-150.70755204 101.71638793 -150.70755204 101.71638793 -147 94 C-140.62476166 87.34623353 -132.40468402 83.73216369 -123.99142838 80.26295567 C-120.30726798 78.70753442 -117.02294859 76.83323463 -113.6171875 74.74609375 C-112.16916748 73.9118689 -112.16916748 73.9118689 -110.69189453 73.06079102 C-100.51153152 67.1941561 -90.35200648 61.29354855 -80.2121582 55.35717773 C-74.68980971 52.13090845 -69.1503389 48.93724698 -63.58984375 45.77734375 C-62.96251343 45.42052017 -62.33518311 45.06369659 -61.68884277 44.69606018 C-58.63709063 42.96082966 -55.5833015 41.22936981 -52.52587891 39.50415039 C-41.63285289 33.63605546 -41.63285289 33.63605546 -32 26 C-32.06832031 24.88109375 -32.13664062 23.7621875 -32.20703125 22.609375 C-32 19 -32 19 -29.82421875 16.953125 C-28.78910156 16.39109375 -27.75398438 15.8290625 -26.6875 15.25 C-26.12587158 14.93417969 -25.56424316 14.61835937 -24.9855957 14.29296875 C-23.72130208 13.58295306 -22.45090462 12.88373682 -21.17578125 12.19335938 C-17.8433931 10.36563122 -14.57178691 8.43570011 -11.2902832 6.51855469 C-7.5366921 4.32857845 -3.76886506 2.16355232 0 0 Z " fill="#93D8E4" transform="translate(311,112)"/>
<path d="M0 0 C2.70299089 2.70299089 2.26033216 4.10461854 2.28088379 7.88798523 C2.29230408 9.14274155 2.30372437 10.39749786 2.31549072 11.6902771 C2.31798159 13.08868369 2.32023175 14.48709072 2.32226562 15.88549805 C2.33152028 17.35225424 2.34156937 18.81900561 2.35235596 20.28575134 C2.37863067 24.27770926 2.39149975 28.26959986 2.40037727 32.26163077 C2.40623639 34.75592504 2.41444569 37.25020086 2.42338562 39.74448586 C2.45074682 47.54903476 2.47007276 55.35354156 2.4777894 63.15813512 C2.48674448 72.16598014 2.52180566 81.17321721 2.57979059 90.18087739 C2.62305158 97.14319019 2.64319949 104.10533217 2.64587164 111.06777793 C2.64796648 115.22596672 2.65975158 119.38358449 2.69551086 123.5416317 C2.72851987 127.4562629 2.73276257 131.36989552 2.71523285 135.28461647 C2.71369433 136.71849369 2.72234915 138.15242506 2.74214935 139.58616638 C2.90027851 151.75380789 2.90027851 151.75380789 -0.86712646 156.2816925 C-3.57240359 158.86961176 -6.51601478 160.84739012 -9.796875 162.65625 C-10.90691895 163.27830322 -12.01696289 163.90035645 -13.16064453 164.54125977 C-14.35705437 165.19425011 -15.55350733 165.84716145 -16.75 166.5 C-18.00329347 167.19760879 -19.25572123 167.89677491 -20.50732422 168.59741211 C-23.07919291 170.03610151 -25.65418634 171.46894075 -28.23144531 172.89794922 C-33.90210719 176.05075034 -39.51203004 179.30845497 -45.125 182.5625 C-47.27327459 183.80366743 -49.4217122 185.04455274 -51.5703125 186.28515625 C-52.63024414 186.89762207 -53.69017578 187.51008789 -54.78222656 188.14111328 C-59.10320185 190.63731251 -63.42567458 193.13091163 -67.74829102 195.62426758 C-69.90777408 196.86995482 -72.06711765 198.11588394 -74.22631836 199.36206055 C-79.77746892 202.56572841 -85.33052286 205.76602683 -90.88671875 208.9609375 C-92.58284302 209.93716064 -92.58284302 209.93716064 -94.31323242 210.93310547 C-96.53537499 212.21195085 -98.75817778 213.48964982 -100.98168945 214.76611328 C-105.59728667 217.42337397 -110.19598238 220.09330917 -114.71875 222.90625 C-115.40364502 223.3305127 -116.08854004 223.75477539 -116.79418945 224.19189453 C-118.51972068 225.27015686 -120.23505496 226.36469383 -121.94921875 227.4609375 C-125.35726041 229.18023124 -128.23549557 229.54064992 -132 230 C-132.14857681 225.65850945 -132.25731436 221.31837268 -132.32958984 216.97509766 C-132.35972248 215.49859844 -132.40063879 214.02227768 -132.45263672 212.54638672 C-132.52562629 210.42110221 -132.55948491 208.29818607 -132.5859375 206.171875 C-132.6173584 204.8940918 -132.6487793 203.61630859 -132.68115234 202.29980469 C-132 199 -132 199 -129.02587891 196.67675781 C-128.02733887 196.12342773 -127.02879883 195.57009766 -126 195 C-124.80795597 192.61591194 -124.89517538 191.21995624 -124.92926025 188.56137085 C-124.93825851 187.62779755 -124.94725677 186.69422424 -124.95652771 185.73236084 C-124.97119583 184.70483704 -124.98586395 183.67731323 -125.00097656 182.61865234 C-125.02374494 180.37991867 -125.0459556 178.14117927 -125.06768799 175.9024353 C-125.08047035 174.7107008 -125.09325272 173.51896629 -125.10642242 172.29111862 C-125.17672952 164.6747176 -125.18322104 157.05794773 -125.20027542 149.44127464 C-125.21787319 142.74186713 -125.25948102 136.04402283 -125.35302734 129.34521484 C-125.44083404 122.87132632 -125.465214 116.39995062 -125.44664764 109.92552567 C-125.45094853 107.45908541 -125.47825643 104.99257275 -125.5291214 102.52665329 C-125.89805117 83.72478015 -125.89805117 83.72478015 -122.7588253 79.21821022 C-119.32216177 76.01377259 -115.39629766 74.57892288 -111 73 C-108.81872078 71.7858942 -106.65523923 70.53868159 -104.51953125 69.24609375 C-102.28500298 67.97454154 -100.04928614 66.70507618 -97.8125 65.4375 C-95.34182403 64.03234523 -92.87211894 62.62548727 -90.40234375 61.21875 C-89.78224426 60.86582382 -89.16214478 60.51289764 -88.52325439 60.14927673 C-80.16592815 55.39066482 -71.84189168 50.57439409 -63.515625 45.76171875 C-59.53752417 43.46259977 -55.55603422 41.16959075 -51.56991577 38.88441467 C-49.16633425 37.50635247 -46.7638372 36.12640549 -44.36138916 34.74636841 C-42.66627781 33.77368588 -40.9696319 32.80367923 -39.27294922 31.83374023 C-38.2470166 31.24407471 -37.22108398 30.65440918 -36.1640625 30.046875 C-35.26123535 29.52963867 -34.3584082 29.01240234 -33.42822266 28.47949219 C-30.04627773 26.46279107 -30.04627773 26.46279107 -27 24 C-26.78958928 21.98254364 -26.78958928 21.98254364 -27.06640625 19.81640625 C-26.89892578 17.40673828 -26.89892578 17.40673828 -26 15 C-22.03692544 11.61798063 -17.53514868 9.32325844 -12.9375 6.9375 C-11.68783789 6.25882514 -10.43976736 5.57721094 -9.19335938 4.89257812 C-6.14658127 3.22730992 -3.07995543 1.60325144 0 0 Z " fill="#93D8E4" transform="translate(510,259)"/>
<path d="M0 0 C5.8409139 1.06379068 10.87294661 4.53139607 15.93359375 7.47265625 C17.61014038 8.42990601 17.61014038 8.42990601 19.32055664 9.40649414 C22.57443031 11.26949908 25.81855125 13.14821895 29.05859375 15.03515625 C29.85152832 15.49664062 30.64446289 15.958125 31.46142578 16.43359375 C34.82462822 18.3969599 38.17793384 20.37649844 41.52734375 22.36328125 C47.1572731 25.6951758 52.82781836 28.95657443 58.49609375 32.22265625 C59.59679199 32.85703613 60.69749023 33.49141602 61.83154297 34.14501953 C65.24023012 36.10897164 68.64933743 38.07219235 72.05859375 40.03515625 C75.4694381 41.9990345 78.8801357 43.96314962 82.28930664 45.92993164 C84.49124154 47.19733097 86.6961169 48.45963678 88.90405273 49.71655273 C93.73676262 52.47783703 98.49430805 55.27298761 103.1171875 58.375 C103.87765381 58.87088623 104.63812012 59.36677246 105.42163086 59.87768555 C106.79025545 60.77910458 108.13898122 61.71196656 109.45922852 62.68286133 C111.48562948 64.11561398 111.48562948 64.11561398 115.05859375 65.03515625 C118.75236484 63.96825844 121.80687947 62.05155557 125.05859375 60.03515625 C126.82855707 59.02581657 128.59940983 58.01803521 130.37109375 57.01171875 C132.26864229 55.89744702 134.16439805 54.78011812 136.05859375 53.66015625 C138.18585899 52.41088103 140.31347533 51.1622035 142.44140625 49.9140625 C143.53227539 49.27355957 144.62314453 48.63305664 145.74707031 47.97314453 C151.12860254 44.82373412 156.53054399 41.70996318 161.93359375 38.59765625 C163.01253906 37.97584473 164.09148437 37.3540332 165.203125 36.71337891 C167.39410311 35.45083102 169.58518394 34.18846137 171.77636719 32.92626953 C176.12463766 30.42093607 180.47152148 27.91320519 184.81787109 25.40454102 C186.96589711 24.16546951 189.11465231 22.92766118 191.26416016 21.69116211 C196.33803367 18.77062295 201.4040768 15.83850439 206.44616699 12.86346436 C208.82447688 11.46115221 211.20674877 10.06565028 213.58935547 8.6706543 C215.26660104 7.68483785 216.93807256 6.68921828 218.609375 5.69335938 C219.62902344 5.09716797 220.64867187 4.50097656 221.69921875 3.88671875 C222.59157227 3.35900879 223.48392578 2.83129883 224.40332031 2.28759766 C227.35002189 0.8976952 229.81651187 0.30876612 233.05859375 0.03515625 C237.62381114 2.16559103 237.62381114 2.16559103 239.05859375 5.03515625 C239.55859375 7.78515625 239.55859375 7.78515625 239.05859375 11.03515625 C233.2812882 16.828992 226.34606394 20.5201116 219.24609375 24.47265625 C217.9977082 25.17546096 216.74983271 25.87917237 215.50244141 26.58374023 C212.94007538 28.03072702 210.37606436 29.4747324 207.81103516 30.91699219 C202.16012897 34.10025929 196.54723192 37.34925959 190.93359375 40.59765625 C188.78782307 41.83734803 186.64198968 43.07693129 184.49609375 44.31640625 C183.43648437 44.92871094 182.376875 45.54101562 181.28515625 46.171875 C178.02335368 48.05550675 174.75997531 49.93637946 171.49609375 51.81640625 C169.30858205 53.0768026 167.12108198 54.33721916 164.93359375 55.59765625 C163.33970825 56.51562988 163.33970825 56.51562988 161.71362305 57.45214844 C156.21874236 60.62077509 150.73463808 63.80643699 145.265625 67.01953125 C144.17072754 67.66204834 143.07583008 68.30456543 141.94775391 68.96655273 C139.86619243 70.18955343 137.78634063 71.41547032 135.70849609 72.64477539 C134.77602051 73.19254639 133.84354492 73.74031738 132.8828125 74.3046875 C132.06901123 74.78526611 131.25520996 75.26584473 130.41674805 75.76098633 C128.01805234 77.05706179 125.59526179 78.0427888 123.05859375 79.03515625 C123.0655072 80.0486818 123.0655072 80.0486818 123.07256031 81.08268261 C123.18298754 97.52442743 123.26572481 113.96605477 123.31765461 130.40808392 C123.34343509 138.35934963 123.3785823 146.31036779 123.43579102 154.26147461 C123.48563118 161.19177265 123.51788591 168.12189141 123.52903622 175.05236369 C123.5355541 178.72201627 123.55086858 182.39115598 123.58724403 186.06064415 C123.62752588 190.15744133 123.62854282 194.25334724 123.6262207 198.3503418 C123.65318527 200.17482346 123.65318527 200.17482346 123.68069458 202.03616333 C123.62438948 211.19087835 123.62438948 211.19087835 120.74967957 214.3240509 C118.05859375 216.03515625 118.05859375 216.03515625 114.43359375 216.09765625 C110.6741855 214.91413884 109.97263132 214.35178541 108.05859375 211.03515625 C107.67383289 208.48147202 107.67383289 208.48147202 107.65986633 205.54290771 C107.64732819 204.42674072 107.63479004 203.31057373 107.62187195 202.1605835 C107.62330704 200.94066711 107.62474213 199.72075073 107.6262207 198.46386719 C107.61093323 196.53178406 107.61093323 196.53178406 107.59533691 194.56066895 C107.56775319 191.0320703 107.55848062 187.5036328 107.55248284 183.9749403 C107.54310268 180.28598326 107.51689961 176.59714676 107.49247742 172.90826416 C107.44879879 165.92439251 107.42026025 158.94054424 107.39715403 151.95657754 C107.37010963 144.00493438 107.32619769 136.05341241 107.28086531 128.10185575 C107.18799953 111.74635067 107.11632771 95.39082387 107.05859375 79.03515625 C106.36378403 78.6473851 105.6689743 78.25961395 104.95310974 77.86009216 C101.73637374 76.0640419 98.5205281 74.26640296 95.3046875 72.46875 C93.66614807 71.55434143 93.66614807 71.55434143 91.99450684 70.62145996 C84.66001126 66.5196206 77.37327339 62.34326404 70.12109375 58.09765625 C69.01499756 57.45054687 67.90890137 56.8034375 66.76928711 56.13671875 C65.47196655 55.37488281 65.47196655 55.37488281 64.1484375 54.59765625 C57.84288764 50.90302202 51.51551845 47.24685941 45.18359375 43.59765625 C44.11431641 42.98092041 43.04503906 42.36418457 41.94335938 41.72875977 C36.89557611 38.81841142 31.84572104 35.91175014 26.79089355 33.01365662 C25.03378893 32.00593666 23.27729851 30.99715445 21.52099609 29.98803711 C19.3311432 28.73020045 17.14014934 27.47434705 14.94775391 26.22094727 C9.92074612 23.33136605 4.92719023 20.39205498 -0.0078125 17.34765625 C-0.8851001 16.80753906 -1.7623877 16.26742187 -2.66625977 15.7109375 C-5.77154697 13.42370804 -7.65901125 11.41183186 -8.44140625 7.59765625 C-7.5190702 2.87068399 -4.89120952 0.05846067 0 0 Z " fill="#EBF8F8" transform="translate(40.94140625,126.96484375)"/>
<path d="M0 0 C2.83886719 1.23071289 2.83886719 1.23071289 5.796875 2.97265625 C6.90708008 3.61734863 8.01728516 4.26204102 9.16113281 4.92626953 C10.35753237 5.63816068 11.55381849 6.35024252 12.75 7.0625 C14.0002328 7.79407853 15.25122215 8.52436555 16.50292969 9.25341797 C19.07983503 10.7563866 21.65271658 12.26591475 24.22265625 13.78076172 C28.80879555 16.48071819 33.42310377 19.13034963 38.03833008 21.78027344 C46.54059578 26.66382491 55.02106474 31.58518384 63.49194336 36.52294922 C65.5111268 37.6997493 67.53144141 38.874611 69.55297852 40.04736328 C74.10792408 42.69596986 78.63336674 45.37512746 83.1015625 48.16796875 C83.88200928 48.64903076 84.66245605 49.13009277 85.46655273 49.62573242 C86.90019169 50.51283297 88.32501791 51.4144132 89.73852539 52.33325195 C91.82045997 53.67014286 91.82045997 53.67014286 95 55 C98.70400516 53.87710239 101.92762177 51.9915064 105.26171875 50.05078125 C106.28458984 49.4578125 107.30746094 48.86484375 108.36132812 48.25390625 C109.45896484 47.61324219 110.55660156 46.97257812 111.6875 46.3125 C112.84940348 45.6376662 114.01151671 44.96319344 115.17382812 44.2890625 C117.5872404 42.88892911 119.9997446 41.48724981 122.41162109 40.08447266 C127.9326706 36.87508738 133.46700071 33.68872265 139 30.5 C141.15110968 29.25923249 143.30215101 28.01834648 145.453125 26.77734375 C146.52369141 26.15972168 147.59425781 25.54209961 148.69726562 24.90576172 C153.25346262 22.2767202 157.80903196 19.64659284 162.36425781 17.01586914 C164.5917555 15.73073726 166.8202451 14.44732286 169.04980469 13.16577148 C173.56406091 10.57024805 178.07246976 7.97119055 182.53125 5.28125 C183.17610352 4.89702881 183.82095703 4.51280762 184.48535156 4.11694336 C186.08436514 3.16147302 187.6754778 2.19281082 189.265625 1.22265625 C192.4298088 -0.19218594 194.56912704 -0.35077553 198 0 C201.50996683 2.21682116 201.94172153 3.74607236 202.875 7.8125 C202.69220358 10.56967927 202.29003511 11.6895498 200.390625 13.72265625 C197.68810282 15.69363363 194.91094759 17.34977971 192 19 C191.38833984 19.34724121 190.77667969 19.69448242 190.14648438 20.05224609 C186.49420776 22.11590882 182.82123414 24.13974271 179.140625 26.15234375 C173.57703412 29.21102588 168.10041191 32.41182738 162.625 35.625 C152.53598948 41.5400912 142.39901214 47.36532206 132.23095703 53.14306641 C130.07820291 54.36850979 127.93923687 55.61857977 125.81668091 56.89561462 C123.16430977 58.43587224 120.53142385 59.60275332 117.66448975 60.68711853 C112.79455628 62.71012523 108.41546193 64.87996805 105 69 C101.91850227 76.89539927 102.98442799 85.99926443 103.26171875 94.30078125 C103.28116582 96.78552873 103.29250001 99.27035175 103.2960968 101.75517273 C103.32458634 108.27735149 103.45121423 114.79379687 103.60229492 121.31414795 C103.82499966 131.76483916 103.88581797 142.2180795 103.9697361 152.67061424 C104.01121845 156.31927603 104.08693978 159.96590918 104.16960144 163.61384583 C104.20543378 165.84583017 104.24095774 168.0778195 104.27612305 170.30981445 C104.30786118 171.32341034 104.3395993 172.33700623 104.37229919 173.38131714 C104.42193608 177.73620363 104.4229915 180.27300092 102.19758606 184.0978241 C99.09954221 186.77941389 97.07137985 187.14285543 93 187 C90.29078674 185.16011047 90.29078674 185.16011047 88 182 C87.38187942 178.41962243 87.59713199 174.93043932 87.78491211 171.31323242 C87.85640381 169.0805831 87.92784833 166.84793228 87.99925232 164.61528015 C88.04635283 163.43321173 88.09345333 162.2511433 88.14198112 161.03325462 C88.37328584 154.74873404 88.4588921 148.46137898 88.57226562 142.17382812 C88.7271787 134.1811355 88.92328694 126.19799008 89.26489258 118.21118164 C92.12358064 90.48142763 92.12358064 90.48142763 84.36755371 65.08822632 C78.36461771 59.07491993 70.6971577 56.45740481 62.65184021 54.18812561 C56.51436128 52.19129785 51.34541775 48.82184263 45.875 45.4375 C43.74454561 44.19811388 41.61085295 42.96426197 39.47265625 41.73828125 C38.41449707 41.12678223 37.35633789 40.5152832 36.26611328 39.88525391 C32.88638912 37.93442194 29.5040644 35.98816494 26.12109375 34.04296875 C20.68571383 30.91703546 15.25521549 27.78283663 9.83007812 24.63916016 C8.04092068 23.6028935 6.25069246 22.56847143 4.45898438 21.53662109 C2.32174499 20.30370225 0.19100445 19.06041877 -1.9375 17.8125 C-3.06027344 17.15894531 -4.18304688 16.50539063 -5.33984375 15.83203125 C-7.92291606 14.05308718 -9.46760323 12.72187959 -11 10 C-10.93416738 6.24754049 -10.81598805 3.93687517 -8.3125 1.0625 C-5.3019264 -0.32073652 -3.30236197 -0.258827 0 0 Z " fill="#EAF8F8" transform="translate(282,271)"/>
<path d="M0 0 C2.4375 2.1875 2.4375 2.1875 4 5 C4.125 8 4.125 8 3 11 C-2.56750399 16.4896368 -9.60652392 19.95662719 -16.375 23.75 C-17.63904318 24.46252078 -18.90287691 25.17541327 -20.16650391 25.88867188 C-22.04410868 26.94814563 -23.92206443 28.00695239 -25.80160522 29.06298828 C-29.2853635 31.02208628 -32.74733479 33.01227891 -36.1875 35.046875 C-36.91275879 35.47129883 -37.63801758 35.89572266 -38.38525391 36.33300781 C-39.66411159 37.08306177 -40.93775033 37.84212577 -42.20458984 38.61230469 C-45.94641523 40.78038455 -48.69006674 41.49872085 -53 41 C-55.375 39.4375 -55.375 39.4375 -57 37 C-57.5 33.5 -57.5 33.5 -57 30 C-54.2939671 26.7868535 -51.2909861 24.81313511 -47.66015625 22.75 C-46.60666992 22.14671875 -45.55318359 21.5434375 -44.46777344 20.921875 C-43.3440332 20.28765625 -42.22029297 19.6534375 -41.0625 19 C-39.30710993 18.00417385 -37.55241979 17.00712203 -35.79776001 16.01000977 C-34.60959459 15.33514796 -33.42093207 14.66116063 -32.23178101 13.98803711 C-28.39785813 11.81322142 -24.60254517 9.58232698 -20.82421875 7.3125 C-19.8798999 6.75175781 -18.93558105 6.19101563 -17.96264648 5.61328125 C-16.19289335 4.56076314 -14.43025395 3.49616292 -12.67602539 2.41796875 C-8.15037988 -0.24433745 -5.26190578 -1.94027785 0 0 Z " fill="#EBF8F8" transform="translate(108,74)"/>
<path d="M0 0 C3.50996683 2.21682116 3.94172153 3.74607236 4.875 7.8125 C4.71746372 10.72859709 4.32849341 11.6975388 2.15771484 13.69628906 C-4.47029977 18.11672906 -11.26401625 22.10990783 -18.25 25.9375 C-20.46151051 27.15520993 -22.67245209 28.37395368 -24.8828125 29.59375 C-26.46304199 30.46580078 -26.46304199 30.46580078 -28.07519531 31.35546875 C-30.58045022 32.76409956 -33.04402448 34.21394732 -35.4921875 35.71875 C-36.1222168 36.10168213 -36.75224609 36.48461426 -37.40136719 36.87915039 C-38.98681859 37.85265348 -40.5604333 38.84536495 -42.1328125 39.83984375 C-45.8319113 41.33661806 -48.16700938 40.93869158 -52 40 C-54.55078958 37.77834456 -54.93332671 36.39170557 -55.5 33.0625 C-54.81827114 28.8869107 -53.16971122 27.77192712 -50 25 C-47.47782698 23.36040764 -44.84843533 21.96269556 -42.1875 20.5625 C-40.59623686 19.70314393 -39.00647717 18.84100002 -37.41796875 17.9765625 C-36.55864746 17.50895508 -35.69932617 17.04134766 -34.81396484 16.55957031 C-28.40854821 13.00952681 -22.11389428 9.26424517 -15.79760742 5.55883789 C-14.81252197 4.98125732 -13.82743652 4.40367676 -12.8125 3.80859375 C-11.93207031 3.29095459 -11.05164063 2.77331543 -10.14453125 2.23999023 C-6.47773089 0.1198082 -4.29980476 -0.42998048 0 0 Z " fill="#EBF8F8" transform="translate(381,203)"/>
</svg>
