<?xml version="1.0" encoding="UTF-8"?>
<svg version="1.1" xmlns="http://www.w3.org/2000/svg" width="512" height="512">
<path d="M0 0 C8.58 0 17.16 0 26 0 C24.5578239 4.32652829 23.44628231 7.25728268 21.19921875 11.02734375 C20.64016846 11.97375732 20.08111816 12.9201709 19.50512695 13.89526367 C18.90531006 14.89920166 18.30549316 15.90313965 17.6875 16.9375 C16.4230918 19.07730581 15.16010834 21.21795404 13.8984375 23.359375 C13.25358398 24.45314453 12.60873047 25.54691406 11.94433594 26.67382812 C8.28115038 32.94043286 4.7318953 39.27119978 1.17651367 45.59936523 C0.67095947 46.49856689 0.16540527 47.39776855 -0.35546875 48.32421875 C-0.79528076 49.10885498 -1.23509277 49.89349121 -1.68823242 50.7019043 C-2.64094086 52.37096153 -3.63364955 54.01738405 -4.6496582 55.64868164 C-7.90608692 61.31902426 -5.15149396 68.87396985 -3.59155273 74.82958984 C-0.17340545 87.00964911 4.87144513 99.04300911 11.27734375 109.9609375 C13 113 13 113 13 115 C7.7648866 117.6175567 -1.52766179 115.63874033 -7.0390625 114.21484375 C-12.1167172 112.32031095 -15.5227349 110.15028415 -19 106 C-19.33 105.67 -19.66 105.34 -20 105 C-21.04453247 108.24399515 -21.13936336 111.39796579 -21.23925781 114.78515625 C-23.31409982 181.06944233 -55.10238846 230.00473627 -100.375 275.5 C-101.01663086 276.14630371 -101.65826172 276.79260742 -102.31933594 277.45849609 C-106.10773329 281.2341807 -110.0148609 284.8121075 -114.0625 288.30761719 C-117.05238167 290.91924266 -119.92522472 293.65118686 -122.8125 296.375 C-127.85910944 301.10196376 -133.03334148 305.57509143 -138.43359375 309.8984375 C-140.97559363 311.98001427 -143.39529335 314.1503838 -145.8125 316.375 C-150.26816355 320.43523223 -154.92803652 324.15093273 -159.68676758 327.84326172 C-163.52216148 330.82340687 -167.28255014 333.87238552 -171 337 C-200.52133832 361.74982109 -232.10531052 384.23631972 -263.63330078 406.33984375 C-265.29423886 407.50493339 -266.95396531 408.67175131 -268.61279297 409.83984375 C-282.87474563 419.8779963 -297.30158997 429.61185959 -312 439 C-312.76554199 439.49306641 -313.53108398 439.98613281 -314.31982422 440.49414062 C-344.14661959 459.63361443 -376.52807776 473.64553275 -410 485 C-411.01964844 485.3515918 -412.03929687 485.70318359 -413.08984375 486.06542969 C-426.64189491 490.7178257 -440.36238448 494.50579156 -454.25 498 C-455.04792969 498.20199005 -455.84585937 498.4039801 -456.66796875 498.61209106 C-458.94871677 499.18648968 -461.23156561 499.75142966 -463.515625 500.3125 C-464.19788147 500.48394028 -464.88013794 500.65538055 -465.58306885 500.83201599 C-469.12639451 501.68760209 -472.35349647 502.1892467 -476 502 C-477.82022836 456.54944945 -451.61168823 403.333983 -422 370 C-421.24074219 369.1440625 -420.48148437 368.288125 -419.69921875 367.40625 C-418.18022591 365.71110505 -416.65444471 364.02201214 -415.12109375 362.33984375 C-413.19213665 360.21195185 -411.30963647 358.05279141 -409.4375 355.875 C-404.17403685 349.84748575 -398.50093067 344.29882865 -392.4296875 339.08984375 C-390.52432997 337.45099121 -388.63769106 335.79661012 -386.7578125 334.12890625 C-377.5033097 325.95557794 -367.90104894 318.37211666 -358 311 C-357.23107422 310.42604492 -356.46214844 309.85208984 -355.66992188 309.26074219 C-345.25564059 301.49931692 -334.72561043 293.91566157 -324.08837891 286.46337891 C-277.60859037 254.86875089 -277.60859037 254.86875089 -235.68370056 217.68299866 C-233.96596199 215.96597618 -232.17741597 214.39463335 -230.33032227 212.81811523 C-225.89861813 208.96365918 -221.73587085 204.88027192 -217.58984375 200.72265625 C-216.81870743 199.95247665 -216.04757111 199.18229706 -215.25306702 198.38877869 C-213.63419847 196.77058627 -212.01657449 195.15114788 -210.40014648 193.53051758 C-207.94431282 191.06932768 -205.48318635 188.61352191 -203.02148438 186.15820312 C-201.43978347 184.57584133 -199.85839283 182.99316933 -198.27734375 181.41015625 C-197.18799782 180.32384666 -197.18799782 180.32384666 -196.0766449 179.21559143 C-192.09141635 175.21227225 -188.29468172 171.1084246 -184.60496521 166.83180237 C-182.35264475 164.26115104 -179.98197991 161.85227769 -177.56640625 159.43359375 C-177.08477524 158.95100601 -176.60314423 158.46841827 -176.10691833 157.97120667 C-175.10074371 156.96435978 -174.09333854 155.95874115 -173.0847168 154.9543457 C-171.56508332 153.4400742 -170.05087483 151.9205257 -168.53710938 150.40039062 C-163.74670703 145.60675919 -158.90665473 140.92266877 -153.75463867 136.51391602 C-151.57136793 134.63017289 -149.48151557 132.6596078 -147.38769531 130.67773438 C-131.45245058 115.63749693 -113.49422646 102.85953498 -94.51171875 91.9609375 C-93.89321045 91.60547852 -93.27470215 91.25001953 -92.63745117 90.88378906 C-91 90 -91 90 -88.71875 89.1328125 C-85.90570209 87.27875819 -85.14706308 84.53160008 -83.8125 81.5 C-80.16336896 73.637523 -75.3073657 66.87157713 -68 62 C-69.01320313 61.54560547 -69.01320313 61.54560547 -70.046875 61.08203125 C-76.44575345 58.07677764 -80.39584284 55.76976934 -83.25 49.0625 C-84.01954596 45.92018734 -84.15342228 43.22186783 -84 40 C-79.74519274 38.58173091 -76.72952057 40.28287454 -72.6875 41.75 C-64.85437618 44.47939098 -57.18344703 46.55712908 -49 48 C-48.2678125 48.13148437 -47.535625 48.26296875 -46.78125 48.3984375 C-40.38421258 49.36848006 -31.08849064 50.62311325 -25 48 C-23.61283424 45.90412591 -22.51618316 43.96272452 -21.42578125 41.71875 C-21.10018723 41.07716446 -20.7745932 40.43557892 -20.43913269 39.77455139 C-19.38416226 37.68918709 -18.34845923 35.59486352 -17.3125 33.5 C-16.59652196 32.07730295 -15.87907262 30.65534538 -15.16015625 29.23413086 C-13.74561391 26.43584426 -12.33680175 23.63479549 -10.93212891 20.83154297 C-8.523704 16.03847752 -6.02824888 11.29329662 -3.5 6.5625 C-2.345 4.396875 -1.19 2.23125 0 0 Z " fill="#46B75B" transform="translate(481,5)"/>
<path d="M0 0 C3.68939249 2.61047771 7.14528911 5.42889341 10.32421875 8.64453125 C11.20787109 9.52238281 11.20787109 9.52238281 12.109375 10.41796875 C13.51453626 12.99334469 13.5700496 14.62399134 13.00146484 17.484375 C11.44567824 22.44673976 8.99528591 27.02555695 6.63671875 31.64453125 C6.05728516 32.78792969 5.47785156 33.93132812 4.88085938 35.109375 C-4.46855115 53.28599482 -15.3106835 70.37715528 -27.67578125 86.64453125 C-28.1670752 87.29276855 -28.65836914 87.94100586 -29.16455078 88.60888672 C-34.31854985 95.37405188 -39.63588035 101.91629209 -45.41015625 108.16796875 C-46.65687412 109.53076035 -47.89560167 110.90161194 -49.09594727 112.30541992 C-53.99718213 118.03294472 -59.25325385 123.37474127 -64.59106445 128.69018555 C-66.11069793 130.20445705 -67.62490642 131.72400555 -69.13867188 133.24414062 C-74.47677483 138.58660598 -79.88601058 143.78812021 -85.67578125 148.64453125 C-86.27269775 149.14815186 -86.86961426 149.65177246 -87.48461914 150.1706543 C-131.12140171 186.66354471 -181.71068111 212.49387038 -231.7121582 239.03637695 C-237.7404135 242.23648853 -243.76704697 245.43964735 -249.79309082 248.6439209 C-251.6060994 249.60749681 -253.41968021 250.56998722 -255.23339844 251.53222656 C-269.94479192 259.34593943 -284.44371946 267.4442103 -298.77636719 275.93310547 C-301.65487596 277.63219157 -304.54269491 279.31428421 -307.43359375 280.9921875 C-322.58510604 289.81182211 -337.11989769 299.30132437 -351.36328125 309.51953125 C-352.09385742 310.04289062 -352.82443359 310.56625 -353.57714844 311.10546875 C-358.14102025 314.41696852 -362.43849931 317.92372011 -366.67578125 321.64453125 C-369.71838045 320.32576001 -370.53001286 319.91688798 -372.16015625 316.87109375 C-376.95084819 303.23832223 -378.52606878 288.09183232 -372.34375 274.6015625 C-363.92431369 259.67530187 -352.94256922 251.35110048 -336.78125 246.01953125 C-333.65421435 245.46258241 -330.59762504 245.55266233 -327.42578125 245.58203125 C-325.53085937 245.59556641 -325.53085937 245.59556641 -323.59765625 245.609375 C-322.6334375 245.62097656 -321.66921875 245.63257813 -320.67578125 245.64453125 C-320.83046875 244.06671875 -320.83046875 244.06671875 -320.98828125 242.45703125 C-320.90800745 231.0782198 -314.13066249 220.73707729 -306.67578125 212.64453125 C-296.62012893 203.56881507 -284.79271547 198.46862226 -271.30078125 198.45703125 C-270.55828125 198.44478516 -269.81578125 198.43253906 -269.05078125 198.41992188 C-264.52900642 198.40793837 -260.93520003 198.93400275 -256.67578125 200.64453125 C-256.77890625 199.59265625 -256.88203125 198.54078125 -256.98828125 197.45703125 C-256.90800745 186.0782198 -250.13066249 175.73707729 -242.67578125 167.64453125 C-232.67248028 158.61606471 -220.85817139 153.46871159 -207.42578125 153.45703125 C-206.70003906 153.44478516 -205.97429687 153.43253906 -205.2265625 153.41992188 C-200.0625134 153.40611426 -195.64142103 154.22336964 -190.67578125 155.64453125 C-190.66160156 154.85691406 -190.64742187 154.06929687 -190.6328125 153.2578125 C-190.01607655 139.1728968 -185.25267978 128.04060462 -175.67578125 117.64453125 C-167.45841413 110.22795702 -156.06425974 103.53083578 -144.671875 103.51171875 C-143.56102539 103.50978516 -143.56102539 103.50978516 -142.42773438 103.5078125 C-141.66396484 103.51167969 -140.90019531 103.51554687 -140.11328125 103.51953125 C-139.34564453 103.51566406 -138.57800781 103.51179688 -137.78710938 103.5078125 C-134.49650986 103.51355025 -131.81819218 103.59706094 -128.67578125 104.64453125 C-128.66160156 103.85691406 -128.64742187 103.06929688 -128.6328125 102.2578125 C-128.01607655 88.1728968 -123.25267978 77.04060462 -113.67578125 66.64453125 C-103.20793729 57.19679203 -91.51732484 53.14031096 -77.67578125 51.64453125 C-77.70196533 51.07645752 -77.72814941 50.50838379 -77.75512695 49.9230957 C-78.46629993 32.11136332 -76.20781671 19.24851376 -63.67578125 5.64453125 C-45.2862493 -10.95291737 -20.80872737 -13.23582498 0 0 Z " fill="#B2D24B" transform="translate(421.67578125,128.35546875)"/>
<path d="M0 0 C8.58 0 17.16 0 26 0 C24.5578239 4.32652829 23.44628231 7.25728268 21.19921875 11.02734375 C20.64016846 11.97375732 20.08111816 12.9201709 19.50512695 13.89526367 C18.90531006 14.89920166 18.30549316 15.90313965 17.6875 16.9375 C16.4230918 19.07730581 15.16010834 21.21795404 13.8984375 23.359375 C13.25358398 24.45314453 12.60873047 25.54691406 11.94433594 26.67382812 C8.28115038 32.94043286 4.7318953 39.27119978 1.17651367 45.59936523 C0.67095947 46.49856689 0.16540527 47.39776855 -0.35546875 48.32421875 C-0.79528076 49.10885498 -1.23509277 49.89349121 -1.68823242 50.7019043 C-2.64094086 52.37096153 -3.63364955 54.01738405 -4.6496582 55.64868164 C-7.90608692 61.31902426 -5.15149396 68.87396985 -3.59155273 74.82958984 C-0.17340545 87.00964911 4.87144513 99.04300911 11.27734375 109.9609375 C13 113 13 113 13 115 C7.7648866 117.6175567 -1.52766179 115.63874033 -7.0390625 114.21484375 C-12.1167172 112.32031095 -15.5227349 110.15028415 -19 106 C-19.33 105.67 -19.66 105.34 -20 105 C-20.66 106.32 -21.32 107.64 -22 109 C-22.33 105.04 -22.66 101.08 -23 97 C-23.639375 98.69125 -24.27875 100.3825 -24.9375 102.125 C-27.83562354 109.10684308 -31.74333968 115.10978832 -35.921875 121.36328125 C-39.2387696 126.39871182 -42.36176521 131.5762801 -45 137 C-45.66 136.319375 -46.32 135.63875 -47 134.9375 C-47.99789618 133.95618936 -48.9981304 132.97725364 -50 132 C-50.80244141 131.18595703 -50.80244141 131.18595703 -51.62109375 130.35546875 C-62.70045905 119.80028847 -76.64731645 115.33347495 -91.703125 115.6875 C-103.49035952 116.31061372 -114.25032831 122.33036591 -123 130 C-135.14584954 144.93140694 -136.64495715 157.2540724 -136 176 C-136.87140625 176.08636719 -137.7428125 176.17273438 -138.640625 176.26171875 C-154.2711558 178.10558007 -166.77287873 183.71609842 -176.71875 196.1484375 C-184.06896422 206.02139474 -186.5387667 215.90637175 -188 228 C-189.30453125 227.95359375 -190.6090625 227.9071875 -191.953125 227.859375 C-208.83406611 227.43581567 -221.98280875 230.5896183 -235 242 C-244.29650289 253.42858449 -248.23392717 264.38342357 -250 279 C-251.14984375 278.84144531 -252.2996875 278.68289063 -253.484375 278.51953125 C-271.16124416 276.33129965 -284.87093195 279.22537734 -299.5 289.80859375 C-309.33965629 298.43366746 -315.02735599 311.11246687 -316 324 C-316.82242188 323.84144531 -317.64484375 323.68289063 -318.4921875 323.51953125 C-335.72563152 320.96713921 -349.38479059 324.59712194 -363.5 334.80859375 C-373.33965629 343.43366746 -379.02735599 356.11246687 -380 369 C-380.87140625 369.02578125 -381.7428125 369.0515625 -382.640625 369.078125 C-397.42185575 369.78199313 -409.78441216 374.16883629 -421 384 C-431.61054753 397.04399519 -435.41559838 408.8224253 -434.30126953 425.52148438 C-433.67892842 430.64142518 -431.99333536 435.2611801 -430.09375 440.03125 C-429 443 -429 443 -429 447 C-430.34179688 448.70410156 -430.34179688 448.70410156 -432.21875 450.390625 C-432.89977783 451.01332275 -433.58080566 451.63602051 -434.2824707 452.27758789 C-435.01425537 452.92848389 -435.74604004 453.57937988 -436.5 454.25 C-437.98363901 455.60745446 -439.46671912 456.96552004 -440.94921875 458.32421875 C-441.65868652 458.96794434 -442.3681543 459.61166992 -443.09912109 460.27490234 C-454.07822291 470.23872631 -462.78737987 481.79968445 -470.82763672 494.20141602 C-472.4281714 496.66998663 -473.91263404 498.91263404 -476 501 C-475.10101404 454.57963399 -452.56744683 404.40988386 -422 370 C-421.24074219 369.1440625 -420.48148437 368.288125 -419.69921875 367.40625 C-418.18022591 365.71110505 -416.65444471 364.02201214 -415.12109375 362.33984375 C-413.19213665 360.21195185 -411.30963647 358.05279141 -409.4375 355.875 C-404.17403685 349.84748575 -398.50093067 344.29882865 -392.4296875 339.08984375 C-390.52432997 337.45099121 -388.63769106 335.79661012 -386.7578125 334.12890625 C-377.5033097 325.95557794 -367.90104894 318.37211666 -358 311 C-357.23107422 310.42604492 -356.46214844 309.85208984 -355.66992188 309.26074219 C-345.25564059 301.49931692 -334.72561043 293.91566157 -324.08837891 286.46337891 C-277.60859037 254.86875089 -277.60859037 254.86875089 -235.68370056 217.68299866 C-233.96596199 215.96597618 -232.17741597 214.39463335 -230.33032227 212.81811523 C-225.89861813 208.96365918 -221.73587085 204.88027192 -217.58984375 200.72265625 C-216.81870743 199.95247665 -216.04757111 199.18229706 -215.25306702 198.38877869 C-213.63419847 196.77058627 -212.01657449 195.15114788 -210.40014648 193.53051758 C-207.94431282 191.06932768 -205.48318635 188.61352191 -203.02148438 186.15820312 C-201.43978347 184.57584133 -199.85839283 182.99316933 -198.27734375 181.41015625 C-197.18799782 180.32384666 -197.18799782 180.32384666 -196.0766449 179.21559143 C-192.09141635 175.21227225 -188.29468172 171.1084246 -184.60496521 166.83180237 C-182.35264475 164.26115104 -179.98197991 161.85227769 -177.56640625 159.43359375 C-177.08477524 158.95100601 -176.60314423 158.46841827 -176.10691833 157.97120667 C-175.10074371 156.96435978 -174.09333854 155.95874115 -173.0847168 154.9543457 C-171.56508332 153.4400742 -170.05087483 151.9205257 -168.53710938 150.40039062 C-163.74670703 145.60675919 -158.90665473 140.92266877 -153.75463867 136.51391602 C-151.57136793 134.63017289 -149.48151557 132.6596078 -147.38769531 130.67773438 C-131.45245058 115.63749693 -113.49422646 102.85953498 -94.51171875 91.9609375 C-93.89321045 91.60547852 -93.27470215 91.25001953 -92.63745117 90.88378906 C-91 90 -91 90 -88.71875 89.1328125 C-85.90570209 87.27875819 -85.14706308 84.53160008 -83.8125 81.5 C-80.16336896 73.637523 -75.3073657 66.87157713 -68 62 C-69.01320313 61.54560547 -69.01320313 61.54560547 -70.046875 61.08203125 C-76.44575345 58.07677764 -80.39584284 55.76976934 -83.25 49.0625 C-84.01954596 45.92018734 -84.15342228 43.22186783 -84 40 C-79.74519274 38.58173091 -76.72952057 40.28287454 -72.6875 41.75 C-64.85437618 44.47939098 -57.18344703 46.55712908 -49 48 C-48.2678125 48.13148437 -47.535625 48.26296875 -46.78125 48.3984375 C-40.38421258 49.36848006 -31.08849064 50.62311325 -25 48 C-23.61283424 45.90412591 -22.51618316 43.96272452 -21.42578125 41.71875 C-21.10018723 41.07716446 -20.7745932 40.43557892 -20.43913269 39.77455139 C-19.38416226 37.68918709 -18.34845923 35.59486352 -17.3125 33.5 C-16.59652196 32.07730295 -15.87907262 30.65534538 -15.16015625 29.23413086 C-13.74561391 26.43584426 -12.33680175 23.63479549 -10.93212891 20.83154297 C-8.523704 16.03847752 -6.02824888 11.29329662 -3.5 6.5625 C-2.345 4.396875 -1.19 2.23125 0 0 Z " fill="#2B6E38" transform="translate(481,5)"/>
<path d="M0 0 C8.58 0 17.16 0 26 0 C24.5578239 4.32652829 23.44628231 7.25728268 21.19921875 11.02734375 C20.64016846 11.97375732 20.08111816 12.9201709 19.50512695 13.89526367 C18.90531006 14.89920166 18.30549316 15.90313965 17.6875 16.9375 C16.4230918 19.07730581 15.16010834 21.21795404 13.8984375 23.359375 C12.93115723 25.0000293 12.93115723 25.0000293 11.94433594 26.67382812 C8.28115038 32.94043286 4.7318953 39.27119978 1.17651367 45.59936523 C0.67095947 46.49856689 0.16540527 47.39776855 -0.35546875 48.32421875 C-0.79528076 49.10885498 -1.23509277 49.89349121 -1.68823242 50.7019043 C-2.64094086 52.37096153 -3.63364955 54.01738405 -4.6496582 55.64868164 C-7.90608692 61.31902426 -5.15149396 68.87396985 -3.59155273 74.82958984 C-0.17340545 87.00964911 4.87144513 99.04300911 11.27734375 109.9609375 C13 113 13 113 13 115 C7.7648866 117.6175567 -1.52766179 115.63874033 -7.0390625 114.21484375 C-12.1167172 112.32031095 -15.5227349 110.15028415 -19 106 C-19.33 105.67 -19.66 105.34 -20 105 C-20.99 106.98 -20.99 106.98 -22 109 C-22.33 105.04 -22.66 101.08 -23 97 C-23.9590625 99.536875 -23.9590625 99.536875 -24.9375 102.125 C-28.07922912 109.70105536 -32.42420274 116.23862516 -37 123 C-37.76006076 124.13738912 -38.51922248 125.2753797 -39.27734375 126.4140625 C-39.84582031 127.26742187 -40.41429687 128.12078125 -41 129 C-48.09039562 115.13574427 -51.74084612 99.47213957 -48 84 C-49.64548828 84.63228516 -49.64548828 84.63228516 -51.32421875 85.27734375 C-52.77856765 85.83093462 -54.2329991 86.38430862 -55.6875 86.9375 C-56.40873047 87.21529297 -57.12996094 87.49308594 -57.87304688 87.77929688 C-63.68084084 89.98042427 -68.74399439 91.14760201 -75 91.1875 C-76.5159375 91.20876953 -76.5159375 91.20876953 -78.0625 91.23046875 C-81.0885919 90.99304931 -83.26227757 90.27324223 -86 89 C-84.84838358 79.0636173 -78.61002269 70.2914544 -71 64 C-70.01 63.34 -69.02 62.68 -68 62 C-68.67546875 61.69707031 -69.3509375 61.39414063 -70.046875 61.08203125 C-76.44575345 58.07677764 -80.39584284 55.76976934 -83.25 49.0625 C-84.01954596 45.92018734 -84.15342228 43.22186783 -84 40 C-79.74519274 38.58173091 -76.72952057 40.28287454 -72.6875 41.75 C-64.85437618 44.47939098 -57.18344703 46.55712908 -49 48 C-48.2678125 48.13148437 -47.535625 48.26296875 -46.78125 48.3984375 C-40.38421258 49.36848006 -31.08849064 50.62311325 -25 48 C-23.61283424 45.90412591 -22.51618316 43.96272452 -21.42578125 41.71875 C-21.10018723 41.07716446 -20.7745932 40.43557892 -20.43913269 39.77455139 C-19.38416226 37.68918709 -18.34845923 35.59486352 -17.3125 33.5 C-16.59652196 32.07730295 -15.87907262 30.65534538 -15.16015625 29.23413086 C-13.74561391 26.43584426 -12.33680175 23.63479549 -10.93212891 20.83154297 C-8.523704 16.03847752 -6.02824888 11.29329662 -3.5 6.5625 C-2.345 4.396875 -1.19 2.23125 0 0 Z " fill="#389348" transform="translate(481,5)"/>
<path d="M0 0 C8.11030331 5.50499717 13.37562015 11.93958016 18.15234375 20.4609375 C18.54550781 21.10546875 18.93867188 21.75 19.34375 22.4140625 C20.48343383 25.29905924 20.51360804 27.38233743 20.15234375 30.4609375 C18.60546875 32.9609375 18.60546875 32.9609375 16.40234375 35.4609375 C15.5721875 36.41742188 14.74203125 37.37390625 13.88671875 38.359375 C13.43876953 38.86436523 12.99082031 39.36935547 12.52929688 39.88964844 C11.14854314 41.46527451 9.81101795 43.069343 8.48046875 44.6875 C2.63833368 51.74149651 -3.56185485 58.3558592 -10.03515625 64.8359375 C-10.79054688 65.59213379 -11.5459375 66.34833008 -12.32421875 67.12744141 C-17.71333647 72.4609375 -17.71333647 72.4609375 -18.84765625 72.4609375 C-18.91082031 71.75710938 -18.97398437 71.05328125 -19.0390625 70.328125 C-20.51008775 58.46701615 -25.66582306 46.44124174 -34.84765625 38.4609375 C-41.66312029 33.29609366 -48.72167493 30.01403298 -56.84765625 27.4609375 C-58.33265625 26.9659375 -58.33265625 26.9659375 -59.84765625 26.4609375 C-62.24020201 26.23533074 -64.63693748 26.05245155 -67.03515625 25.8984375 C-68.30746094 25.81464844 -69.57976562 25.73085937 -70.890625 25.64453125 C-71.86644531 25.58394531 -72.84226562 25.52335937 -73.84765625 25.4609375 C-72.76073335 17.45203194 -66.69700159 10.72534831 -60.84765625 5.4609375 C-60.36039062 4.98140625 -59.873125 4.501875 -59.37109375 4.0078125 C-43.02540365 -11.33079717 -18.42937158 -10.99763585 0 0 Z " fill="#B2D24B" transform="translate(370.84765625,188.5390625)"/>
<path d="M0 0 C4.98680892 3.91309408 8.80540157 7.50479279 12 13 C11.31188232 13.39155273 10.62376465 13.78310547 9.91479492 14.18652344 C-4.60560701 22.46456604 -18.98159343 30.88785887 -33 40 C-34.58361328 41.0209375 -34.58361328 41.0209375 -36.19921875 42.0625 C-42.35019205 46.09042249 -48.33947761 50.33957237 -54.3125 54.625 C-55.0660376 55.16374756 -55.8195752 55.70249512 -56.59594727 56.25756836 C-61.26722845 59.63469103 -65.67196806 63.19224667 -70 67 C-73.0425992 65.68122876 -73.85423161 65.27235673 -75.484375 62.2265625 C-80.27506694 48.59379098 -81.85028753 33.44730107 -75.66796875 19.95703125 C-67.26085369 5.05261414 -56.29470613 -3.2854669 -40.15234375 -8.609375 C-25.94460421 -11.18791212 -11.89169832 -8.14206372 0 0 Z " fill="#B2D24B" transform="translate(125,383)"/>
<path d="M0 0 C10.04894305 7.44744003 17.04885524 17.77382883 20 30 C20.02485335 31.99984557 20.0277058 34.00019191 20 36 C19.31599121 36.38220703 18.63198242 36.76441406 17.92724609 37.15820312 C14.74278169 38.93811899 11.55886918 40.71901965 8.375 42.5 C7.23538818 43.13695801 6.09577637 43.77391602 4.92163086 44.43017578 C0.0315599 47.16677953 -4.85727316 49.90335424 -9.70703125 52.7109375 C-10.35397949 53.08541016 -11.00092773 53.45988281 -11.66748047 53.84570312 C-13.32098888 54.80724677 -14.97117159 55.77450309 -16.62109375 56.7421875 C-19 58 -19 58 -21 58 C-21.3403125 57.04480469 -21.680625 56.08960938 -22.03125 55.10546875 C-27.67367326 39.81753825 -35.5409628 28.69836824 -50.75 21.625 C-58.13223196 18.66428153 -65.10354532 17.54261352 -73 17 C-65.50590841 3.35004746 -54.85774903 -3.75938933 -40.15234375 -8.609375 C-25.90668698 -11.19479365 -11.94221975 -8.1059713 0 0 Z " fill="#B2D24B" transform="translate(244,291)"/>
<path d="M0 0 C7.18817906 5.76709952 13.46146568 14.19399716 14.84765625 23.4453125 C13.55080019 26.1903245 12.39129766 28.13336081 10.59765625 30.5078125 C10.14398682 31.14468994 9.69031738 31.78156738 9.22290039 32.43774414 C8.2684419 33.77306591 7.30410085 35.10137288 6.33056641 36.42285156 C4.85196148 38.43944083 3.41356382 40.4794101 1.984375 42.53125 C-2.74053538 49.28316375 -2.74053538 49.28316375 -5.15234375 52.4453125 C-5.48234375 52.4453125 -5.81234375 52.4453125 -6.15234375 52.4453125 C-6.50296875 51.1871875 -6.85359375 49.9290625 -7.21484375 48.6328125 C-11.43931985 36.13622273 -19.58943548 26.95804527 -31.33984375 21.1328125 C-37.29142118 18.54700318 -43.07725407 17.14618232 -49.44921875 15.98828125 C-52.15234375 15.4453125 -52.15234375 15.4453125 -53.15234375 14.4453125 C-53.40380499 10.99416547 -53.33756794 7.52954047 -53.33984375 4.0703125 C-53.35208984 3.09835938 -53.36433594 2.12640625 -53.37695312 1.125 C-53.37888672 0.19171875 -53.38082031 -0.7415625 -53.3828125 -1.703125 C-53.38692139 -2.56083496 -53.39103027 -3.41854492 -53.39526367 -4.30224609 C-53.15234375 -6.5546875 -53.15234375 -6.5546875 -51.15234375 -9.5546875 C-33.89423236 -16.61654052 -14.18575685 -10.24669914 0 0 Z " fill="#99BD2D" transform="translate(397.15234375,165.5546875)"/>
<path d="M0 0 C16.14969571 -0.79424733 28.41055203 2.93651295 41.1875 13.1875 C48.43722745 19.8061783 54.79416223 30.11213027 56 40 C56.185625 41.258125 56.37125 42.51625 56.5625 43.8125 C56.51149314 47.6890216 55.19280204 49.3433496 52.5 52.0625 C51.01784951 53.3951238 49.51732098 54.70756305 48 56 C46.94232422 56.96679688 46.94232422 56.96679688 45.86328125 57.953125 C42.4098394 61.08424561 39.0534264 63.66875476 35 66 C34.93683594 65.22398437 34.87367188 64.44796875 34.80859375 63.6484375 C33.33725809 50.66970821 27.95660301 38.70307386 18 30 C11.29019846 25.2102989 4.13374467 21.50522609 -4 20 C-3.52476432 17.04098541 -3.04499898 14.08283097 -2.5625 11.125 C-2.42779297 10.28324219 -2.29308594 9.44148437 -2.15429688 8.57421875 C-2.02216797 7.76855469 -1.89003906 6.96289062 -1.75390625 6.1328125 C-1.63345947 5.38918457 -1.5130127 4.64555664 -1.38891602 3.87939453 C-1 2 -1 2 0 0 Z " fill="#99BC2D" transform="translate(296,214)"/>
<path d="M0 0 C0.33 0.66 0.66 1.32 1 2 C2.74023438 1.93039062 2.74023438 1.93039062 4.515625 1.859375 C21.21535818 1.38991898 34.54171349 5.46837102 47.1171875 16.94921875 C52.60550686 22.92715996 58.21586689 31.29142156 59.3425293 39.49365234 C59 42 59 42 57.15161133 43.71337891 C55.87966919 44.46240479 55.87966919 44.46240479 54.58203125 45.2265625 C53.65712891 45.7834375 52.73222656 46.3403125 51.77929688 46.9140625 C50.80025391 47.47867188 49.82121094 48.04328125 48.8125 48.625 C47.85279297 49.19734375 46.89308594 49.7696875 45.90429688 50.359375 C44.10615234 51.42955099 42.30360107 52.49238145 40.49536133 53.54541016 C38.74904797 54.56336681 37.02085239 55.61275517 35.30737305 56.68505859 C33 58 33 58 31 58 C30.85304688 57.26136719 30.70609375 56.52273438 30.5546875 55.76171875 C27.79549286 43.28191311 22.12936516 31.83221331 11.51171875 24.21484375 C6.78303381 21.29439645 2.15660667 19.20997429 -3 17 C-2.01 11.39 -1.02 5.78 0 0 Z " fill="#99BC2D" transform="translate(233,268)"/>
<path d="M0 0 C14.87402948 -0.94940614 26.67386527 3.95007328 38.1875 13.1875 C45.66963635 20.06501927 50.35389502 29.27022267 53 39 C53 39.99 53 40.98 53 42 C49.21179916 44.00661684 45.41888948 46.0041624 41.625 48 C40.54476562 48.57234375 39.46453125 49.1446875 38.3515625 49.734375 C37.3203125 50.27578125 36.2890625 50.8171875 35.2265625 51.375 C34.27346191 51.87773437 33.32036133 52.38046875 32.33837891 52.8984375 C30 54 30 54 28 54 C27.5875 53.09378906 27.175 52.18757813 26.75 51.25390625 C21.14813189 39.29009277 14.96236793 31.20760102 3 25 C2.20335937 24.58621094 1.40671875 24.17242187 0.5859375 23.74609375 C-1.26457315 22.80776061 -3.13058791 21.9000873 -5 21 C-5.76646851 13.18202122 -3.03916589 7.12033152 0 0 Z " fill="#99BD2D" transform="translate(170,308)"/>
<path d="M0 0 C0.66 0.33 1.32 0.66 2 1 C3.87062421 0.97698337 5.74144972 0.94835776 7.61108398 0.88330078 C23.20276598 0.39569291 35.70775907 5.63315415 47.234375 16.19921875 C49.94578497 18.96461697 52.01185408 21.66504555 54 25 C52.42240528 29.73278416 48.41071386 30.93393849 44.1875 33.25 C43.36701172 33.72179687 42.54652344 34.19359375 41.70117188 34.6796875 C40.90646484 35.12054688 40.11175781 35.56140625 39.29296875 36.015625 C38.5661792 36.42071289 37.83938965 36.82580078 37.09057617 37.24316406 C34.58715091 38.14946072 33.44955061 37.97230328 31 37 C29.4296875 35.36328125 29.4296875 35.36328125 27.875 33.3125 C21.3002478 25.49274153 12.50727637 22.09470029 3 19 C1.783125 18.5875 0.56625 18.175 -0.6875 17.75 C-1.450625 17.5025 -2.21375 17.255 -3 17 C-3.34548714 10.66606918 -2.29342747 5.89738492 0 0 Z " fill="#99BD2D" transform="translate(104,357)"/>
</svg>
