<?xml version="1.0" encoding="UTF-8"?>
<svg id="Layer_1" xmlns="http://www.w3.org/2000/svg" viewBox="0 0 472.8 631.01">
  <defs>
    <style>
      .cls-1 {
        fill: #5cba1e;
      }

      .cls-2 {
        fill: #ff7779;
      }

      .cls-3 {
        fill: #fa494a;
      }
    </style>
  </defs>
  <g>
    <path class="cls-3" d="M386.42,160.74c1.92,3.79,5.31,5.98,8.77,8.11,40.87,25.25,65.3,61.62,74.84,108.67,9.27,45.69-5.85,85.41-28.17,123.72-19.6,33.63-39,67.37-58.66,100.97-14.74,25.18-28.66,50.94-44.89,75.13-22.24,33.16-53.83,51.69-94.42,53.5-53.71,2.39-91.45-21.87-117.73-67.91-32.67-57.25-67.17-113.46-100.02-170.61-31.36-54.55-36.73-110.52-3.92-166.65,14.63-25.02,34.98-44.81,60.41-59.16,3.29-1.86,7.97-2.46,8.86-7.38,5.51-1.46,11.01-2.96,16.54-4.36,2.27-.57,5.12-1.49,6.67.49,1.67,2.12-.34,4.5-1.65,6.32-9.59,13.34-17.98,27.28-24.33,42.55-5.57,13.4-3.83,17.05,10.7,19.1,19.82,2.8,39.77,2.68,59.28-.56,19.8-3.28,38.66-9.61,52.74-26.17,8.28-9.75,14.87-20.72,23.54-30.1,3.37-3.64,5.46-4.2,8.08.75,6.01,11.38,14.65,20.99,23.43,30.1,6.26,6.5,12.84,12.85,21.99,16.84,9.17,4.01,18.74,5.77,27.95,7.48,21.51,3.98,43.55,3.14,65.28.78,7.76-.84,11.08-6.19,7.39-14.74-6.53-15.11-13.26-30.05-22.72-43.6-1.13-1.61-3.09-2.93-1.83-5.23,1.48-2.71,3.82-1.9,6.21-1.45,5.25.99,10.11,3.8,15.66,3.41Z"/>
    <path class="cls-1" d="M386.42,160.74c-5.55.39-10.41-2.42-15.66-3.41-2.38-.45-4.73-1.26-6.21,1.45-1.26,2.3.7,3.62,1.83,5.23,9.46,13.55,16.19,28.5,22.72,43.6,3.69,8.54.37,13.9-7.39,14.74-21.73,2.36-43.77,3.2-65.28-.78-9.21-1.71-18.78-3.47-27.95-7.48-9.14-4-15.72-10.35-21.99-16.84-8.78-9.11-17.41-18.72-23.43-30.1-2.62-4.95-4.71-4.39-8.08-.75-8.67,9.39-15.26,20.36-23.54,30.1-14.08,16.56-32.94,22.89-52.74,26.17-19.51,3.23-39.47,3.36-59.28.56-14.53-2.05-16.27-5.7-10.7-19.1,6.35-15.27,14.74-29.21,24.33-42.55,1.31-1.82,3.32-4.19,1.65-6.32-1.56-1.98-4.4-1.07-6.67-.49-5.53,1.39-11.03,2.9-16.54,4.36-12.74-10.99-20.22-25.96-28.97-39.78-7.31-11.56-13.41-24.05-17.94-37.17-5.5-15.91-3.6-19.61,13.11-22.05,33.62-4.91,66.9-4.56,99.91,5.13,21.39,6.28,35.14,21.43,48.27,37.78,1.04,1.3,1.49,3.16,2.68,4.25,3.3,3.01,5.07,9.34,10.76,7.66,5.75-1.7,2.7-7.47,3.06-11.4,4.38-47.21,27.58-81.3,70.56-101.56,9.02-4.25,17.44-1.52,21.97,6.19,5.13,8.72,3.22,17.7-5.63,23.75-5.53,3.78-11.77,6.52-17.37,10.22-23.6,15.59-33.04,38.83-34.95,65.95-.18,2.5-.92,5.79,2.7,6.74,3.18.83,4.77-1.56,6.45-3.78,7.91-10.47,16.11-20.64,25.76-29.64,19.29-18,43.74-21.64,68.25-23.74,22.11-1.89,44.4-1.6,66.4,2.9,8.4,1.72,12.79,5.5,9.73,14.55-10.8,31.92-27.31,60.52-49.83,85.61Z"/>
  </g>
  <circle class="cls-2" cx="340.01" cy="310.72" r="23.98"/>
  <circle class="cls-2" cx="121.97" cy="301.7" r="23.98"/>
  <circle class="cls-2" cx="241.32" cy="388.45" r="23.98"/>
  <circle class="cls-2" cx="139.88" cy="476.68" r="23.98"/>
  <circle class="cls-2" cx="240.1" cy="563.06" r="23.98"/>
  <circle class="cls-2" cx="328.05" cy="480.73" r="23.98"/>
  <circle class="cls-2" cx="410.15" cy="363.83" r="23.98"/>
  <circle class="cls-2" cx="58.09" cy="371.92" r="23.98"/>
</svg>