<?xml version="1.0" encoding="UTF-8"?>
<svg version="1.1" xmlns="http://www.w3.org/2000/svg" width="512" height="512">
<path d="M0 0 C18.48778912 13.67355744 26.65364877 37.32796169 30.05078125 59.2734375 C34.28736983 95.83703897 28.14559632 131.4905366 22.0447998 167.46488953 C17.87936065 192.09528837 13.69878048 217.81886925 20.41015625 242.375 C20.71131348 243.49422852 21.0124707 244.61345703 21.32275391 245.76660156 C25.5468072 261.27651956 30.09264145 276.56642029 36.41015625 291.375 C36.33796875 290.38628906 36.26578125 289.39757812 36.19140625 288.37890625 C31.88941233 223.28354895 35.66039058 142.7652574 80.53515625 91.1875 C90.89862185 80.3590071 103.15662247 73.49289096 118.22265625 73 C127.38118093 73.14708551 136.79977907 75.68497972 143.41015625 82.375 C153.30246532 94.22056754 155.646793 109.38268778 154.41015625 124.375 C150.64045473 159.71274621 130.67971671 189.65246208 108.640625 216.42578125 C105.6270925 220.09127561 102.69680085 223.81589079 99.78515625 227.5625 C96.75547073 231.45664271 93.67035769 235.27614263 90.44213867 239.00756836 C75.25419713 256.57284886 61.77657459 275.82361131 51.66015625 296.75 C51.22928711 297.63606934 50.79841797 298.52213867 50.35449219 299.43505859 C49.96551758 300.26859863 49.57654297 301.10213867 49.17578125 301.9609375 C48.83321289 302.6936084 48.49064453 303.4262793 48.13769531 304.18115234 C46.95891934 307.73567614 46.89933415 310.26301749 48.47314453 313.68896484 C48.97056152 314.47996582 49.46797852 315.2709668 49.98046875 316.0859375 C50.53959961 316.98860352 51.09873047 317.89126953 51.67480469 318.82128906 C52.2887207 319.78776367 52.90263672 320.75423828 53.53515625 321.75 C54.83512704 323.83563115 56.1345928 325.92157716 57.43359375 328.0078125 C58.0997168 329.07032227 58.76583984 330.13283203 59.45214844 331.22753906 C61.27230478 334.15340634 63.05687801 337.0966954 64.82421875 340.0546875 C73.21512872 354.08754882 82.16576511 367.69741527 91.30517578 381.24755859 C94.88631502 386.56817952 98.4280089 391.91504087 101.97119141 397.26098633 C103.9935865 400.47316899 103.9935865 400.47316899 106.41015625 403.375 C106.47485107 402.59825928 106.5395459 401.82151855 106.60620117 401.02124023 C111.10020337 348.28518524 121.2130599 295.45079694 146.41015625 248.375 C146.72807129 247.77252441 147.04598633 247.17004883 147.37353516 246.54931641 C152.20842748 237.45108423 157.81566788 229.26343657 164.41015625 221.375 C165.05791016 220.59745361 165.05791016 220.59745361 165.71875 219.80419922 C178.16441662 205.07344173 192.95364699 193.47360483 212.76953125 191.49609375 C223.10523157 191.15230973 232.7154405 193.47833265 240.66796875 200.31640625 C249.64869977 209.57882071 251.75125957 221.00408103 251.62109375 233.5 C249.61646655 270.32574417 224.38738282 298.39465607 199.72265625 323.1875 C198.8313501 324.08364014 197.94004395 324.97978027 197.02172852 325.90307617 C191.97660217 330.93505561 186.81531232 335.7350565 181.41015625 340.375 C179.57146477 342.0357536 177.73750055 343.70176908 175.91015625 345.375 C172.82084001 348.2037715 169.70622616 350.99611032 166.546875 353.74609375 C135.55579673 380.22615485 135.55579673 380.22615485 114.41015625 414.375 C115.47776726 419.29601951 119.05829514 423.63862721 121.78515625 427.8125 C128.56388474 438.3591451 134.59668663 449.27166361 140.41015625 460.375 C140.89186279 461.2829834 141.37356934 462.1909668 141.86987305 463.12646484 C142.32918213 464.01156738 142.78849121 464.89666992 143.26171875 465.80859375 C143.67631348 466.60193115 144.0909082 467.39526855 144.51806641 468.21264648 C145.77670663 471.26348842 145.55666024 473.31765602 144.41015625 476.375 C142.41015625 478.375 142.41015625 478.375 139.53515625 478.8125 C136.41015625 478.375 136.41015625 478.375 134.4453125 476.3046875 C132.17453325 473.03581143 130.42567419 469.64487613 128.72265625 466.0625 C119.506604 447.2258411 108.31622986 429.66162303 96.66470337 412.25128174 C94.15632571 408.49978996 91.65508809 404.74353239 89.15234375 400.98828125 C88.02085934 399.29099829 86.88934856 397.59373291 85.7578125 395.89648438 C81.28889974 389.19311523 76.81998698 382.48974609 72.35107422 375.78637695 C71.8656012 375.06628448 71.38012817 374.34619202 70.87994385 373.60427856 C69.85343933 372.04734305 68.8594538 370.46869409 67.89105225 368.87496948 C65.07541539 364.16027852 65.07541539 364.16027852 60.74804688 361.00195312 C59.42063477 360.83083008 59.42063477 360.83083008 58.06640625 360.65625 C57.07535889 360.50961914 56.08431152 360.36298828 55.06323242 360.21191406 C54.02271729 360.10073242 52.98220215 359.98955078 51.91015625 359.875 C50.82645752 359.73030273 49.74275879 359.58560547 48.6262207 359.43652344 C45.55732733 359.04018123 42.48742332 358.69875358 39.41015625 358.375 C37.55970703 358.15070313 37.55970703 358.15070313 35.671875 357.921875 C32.24144218 357.59060067 28.85654687 357.45340453 25.41015625 357.375 C24.51119629 357.35453613 23.61223633 357.33407227 22.68603516 357.31298828 C1.76867181 356.91028327 -19.00592741 358.1050027 -39.81640625 360.17578125 C-81.97791928 364.33939312 -129.38833608 367.47506664 -164.77734375 339.8125 C-172.97397388 332.6466582 -179.77393861 323.31857554 -180.79296875 312.1484375 C-181.02054889 300.50392025 -177.41160985 292.03990838 -169.58984375 283.375 C-155.34018003 270.34420332 -137.93102055 267.947227 -119.40234375 268 C-118.65140442 268.00087616 -117.90046509 268.00175232 -117.12677002 268.00265503 C-61.19594243 268.21711714 -4.61065357 295.9885445 39.72265625 328.4140625 C41.58895204 329.77580739 43.48788431 331.09348538 45.41015625 332.375 C44.87648438 331.50101562 44.3428125 330.62703125 43.79296875 329.7265625 C27.54596705 302.9791701 15.59993416 276.74257441 8.41015625 246.1015625 C4.03391658 227.30993669 4.03391658 227.30993669 -6.17431641 211.19482422 C-9.16427752 207.35088318 -11.51948839 203.07707201 -13.96484375 198.875 C-14.51414551 197.93221191 -15.06344727 196.98942383 -15.62939453 196.01806641 C-17.29330131 193.14289395 -18.94335509 190.26017675 -20.58984375 187.375 C-21.10337402 186.48248535 -21.6169043 185.5899707 -22.14599609 184.67041016 C-47.61121386 140.20252104 -71.87619235 83.10163964 -59.77734375 30.8671875 C-55.73681725 16.62433159 -48.9269455 5.25630978 -35.77734375 -2.125 C-24.13242131 -8.17431036 -11.02101356 -6.91514576 0 0 Z " fill="#3DB554" transform="translate(220.58984375,19.625)"/>
<path d="M0 0 C18.48778912 13.67355744 26.65364877 37.32796169 30.05078125 59.2734375 C34.28735656 95.83692441 28.14582394 131.49060436 22.04478455 167.46482849 C19.4656683 182.71591741 17.0510006 197.60670495 17.16015625 213.125 C17.15242188 214.24003906 17.1446875 215.35507813 17.13671875 216.50390625 C17.15202975 223.07998026 17.71695985 229.27177409 18.98144531 235.72753906 C19.40254948 238.32802514 19.48513248 240.74607149 19.41015625 243.375 C15.64072087 239.74793538 12.35575915 235.94943884 9.16015625 231.8125 C8.67836914 231.19028564 8.19658203 230.56807129 7.70019531 229.92700195 C6.7218748 228.66142507 5.74496573 227.39475574 4.76953125 226.12695312 C3.60589381 224.62726521 2.41674711 223.14743013 1.22265625 221.671875 C-7.19491744 211.02236889 -13.80419577 199.09795305 -20.58984375 187.375 C-21.13608398 186.43269531 -21.68232422 185.49039063 -22.24511719 184.51953125 C-47.72900895 140.17468004 -71.84600078 82.97129332 -59.77734375 30.8671875 C-55.73681725 16.62433159 -48.9269455 5.25630978 -35.77734375 -2.125 C-24.13242131 -8.17431036 -11.02101356 -6.91514576 0 0 Z " fill="#3DB554" transform="translate(220.58984375,19.625)"/>
<path d="M0 0 C-0.65182575 6.60561556 -1.69027641 13.04582877 -2.9375 19.5625 C-6.5764529 39.11879981 -8.23470257 58.54642772 -8.25 78.4375 C-8.25067474 79.2372525 -8.25134949 80.037005 -8.25204468 80.86099243 C-8.21878765 105.98061855 -5.39843898 130.45079756 0 155 C0.24121582 156.1439624 0.24121582 156.1439624 0.48730469 157.31103516 C6.4006895 185.1613806 18.44827352 212.42237128 36.8203125 234.265625 C38 236 38 236 38 239 C38.66 239 39.32 239 40 239 C40.33 242.3 40.66 245.6 41 249 C37.23056462 245.37293538 33.9456029 241.57443884 30.75 237.4375 C30.26821289 236.81528564 29.78642578 236.19307129 29.29003906 235.55200195 C28.31171855 234.28642507 27.33480948 233.01975574 26.359375 231.75195312 C25.19573756 230.25226521 24.00659086 228.77243013 22.8125 227.296875 C14.39492631 216.64736889 7.78564798 204.72295305 1 193 C0.45375977 192.05769531 -0.09248047 191.11539063 -0.65527344 190.14453125 C-26.1391652 145.79968004 -50.25615703 88.59629332 -38.1875 36.4921875 C-34.1469735 22.24933159 -27.33710175 10.88130978 -14.1875 3.5 C-9.27936803 0.95032105 -5.53105619 -0.15364045 0 0 Z " fill="#38A44D" transform="translate(199,14)"/>
<path d="M0 0 C7.24519073 5.67772158 11.62142906 15.04067726 13.25 23.9375 C13.43937185 26.33907939 13.40728569 28.52578606 13.25 30.9375 C12.61384766 30.35742188 12.61384766 30.35742188 11.96484375 29.765625 C1.98540202 20.90475805 -6.52190058 19.19600195 -19.62597656 19.76708984 C-34.02533035 20.92234834 -45.73145604 31.42298903 -54.75 41.9375 C-58.41510881 46.7244094 -61.62544111 51.78691134 -64.75 56.9375 C-65.27956299 57.79674072 -65.27956299 57.79674072 -65.81982422 58.67333984 C-80.01715912 82.08636939 -86.20896965 110.14029345 -90.5 136.875 C-90.69883789 138.09840088 -90.89767578 139.32180176 -91.10253906 140.58227539 C-94.38374832 162.23797509 -95.00667543 183.81814253 -94.75 205.6875 C-94.69668407 210.36978077 -94.65694659 215.05190569 -94.625 219.734375 C-94.60840332 220.78945251 -94.59180664 221.84453003 -94.57470703 222.93157959 C-94.56810059 223.9116095 -94.56149414 224.8916394 -94.5546875 225.90136719 C-94.54421387 226.75639832 -94.53374023 227.61142944 -94.52294922 228.49237061 C-94.78085091 231.26973606 -95.60599141 233.40667081 -96.75 235.9375 C-100.46452827 233.23979791 -100.69291666 229.43501898 -101.375 225.1875 C-101.49617188 224.4965625 -101.61734375 223.805625 -101.7421875 223.09375 C-112.75661669 159.40161596 -105.4706932 75.92787226 -67.765625 22.05078125 C-58.74880275 9.55383224 -46.76333753 -2.36511861 -31.13671875 -5.7421875 C-19.76228941 -7.26870666 -9.86813595 -5.9952755 0 0 Z " fill="#38A44D" transform="translate(360.75,99.0625)"/>
<path d="M0 0 C7.09044456 6.7522078 10.77959653 15.75142475 11.30078125 25.4921875 C11.31058855 27.12020009 11.25671575 28.74842988 11.1875 30.375 C6.1875 25.375 6.1875 25.375 3.9375 22.875 C-5.49418401 14.30074181 -15.43098591 13.69421726 -27.64208984 14.20019531 C-32.50131789 14.59155721 -36.51095766 16.17832823 -40.8125 18.375 C-41.76125 18.83777344 -42.71 19.30054688 -43.6875 19.77734375 C-80.38979419 39.32322699 -98.44303591 85.0938807 -110.04907227 122.44140625 C-118.43707999 150.3435047 -124.01107344 178.99261984 -126.6862793 208.00024414 C-126.79109619 209.03656982 -126.89591309 210.07289551 -127.00390625 211.140625 C-127.08842041 212.05618164 -127.17293457 212.97173828 -127.26000977 213.91503906 C-127.88761364 216.70944321 -128.95293713 218.22884457 -130.8125 220.375 C-133.54006084 215.6304422 -133.15454398 211.16467085 -133.125 205.8125 C-133.12008545 204.75256836 -133.1151709 203.69263672 -133.11010742 202.60058594 C-132.36559469 150.38542652 -118.46773148 94.43842947 -93.8125 48.375 C-93.33562744 47.47128662 -93.33562744 47.47128662 -92.84912109 46.54931641 C-88.01422877 37.45108423 -82.40698837 29.26343657 -75.8125 21.375 C-75.38066406 20.85663574 -74.94882812 20.33827148 -74.50390625 19.80419922 C-62.53577894 5.6386598 -47.97565033 -6.21959918 -28.94140625 -8.44140625 C-17.99419315 -9.08375209 -8.60433178 -7.03990782 0 0 Z " fill="#38A44D" transform="translate(460.8125,219.625)"/>
<path d="M0 0 C0.75093933 0.00087616 1.50187866 0.00175232 2.27557373 0.00265503 C53.70038654 0.1998392 105.79753218 24.08995896 147.8125 52.375 C148.45219727 52.80377441 149.09189453 53.23254883 149.75097656 53.67431641 C158.4237271 59.53929256 166.39909765 66.07438494 174.234375 73.01025391 C175.84167938 74.40023402 177.49444585 75.71896586 179.15625 77.04296875 C181.8125 79.375 181.8125 79.375 182.8125 82.375 C180.12512338 81.09682155 177.73557687 79.69839283 175.3359375 77.94140625 C174.34460815 77.22404297 174.34460815 77.22404297 173.33325195 76.4921875 C172.27110474 75.72261719 172.27110474 75.72261719 171.1875 74.9375 C162.3254201 68.61628284 153.22632771 62.83722703 143.8125 57.375 C142.98685547 56.89562988 142.16121094 56.41625977 141.31054688 55.92236328 C97.51585064 30.74622347 39.22218732 6.20653501 -12.1875 19.375 C-24.51662798 23.3259251 -34.8732665 30.41842669 -41.578125 41.71875 C-45.73404649 50.73300225 -45.24765015 59.90868759 -42.1875 69.1875 C-41.54048197 70.92411437 -40.8811078 72.65646282 -40.1875 74.375 C-49.87258809 69.82850668 -55.63831787 61.68599455 -59.5625 51.9375 C-62.4748583 43.1882395 -61.97033551 34.79692096 -58.1875 26.375 C-50.91774071 13.63510321 -40.09830089 6.45803371 -26.1875 2.375 C-17.56146714 0.02086513 -8.87838745 -0.02528724 0 0 Z " fill="#37A44C" transform="translate(101.1875,287.625)"/>
<path d="M0 0 C4.39367776 4.18858688 7.93374479 8.73557647 11.51367188 13.62304688 C12.63145233 15.11626503 13.8110824 16.56277749 15 18 C15.66 18 16.32 18 17 18 C17.22550537 18.81863525 17.45101074 19.63727051 17.68334961 20.48071289 C18.7556425 24.34491173 19.84104349 28.20509542 20.9375 32.0625 C21.13708313 32.76472687 21.33666626 33.46695374 21.54229736 34.19046021 C24.48312797 44.46490473 27.93768437 54.33914285 32.02709961 64.22167969 C34.82091743 71.12206555 36.47423301 77.75992168 37.5625 85.11328125 C37.83822358 87.93322957 37.83822358 87.93322957 39 90 C39.99 88.35 40.98 86.7 42 85 C45.69655185 89.32132118 48.49990875 93.99421989 51.375 98.875 C52.45264997 100.68387684 53.53079403 102.49245939 54.609375 104.30078125 C55.73962293 106.20049728 56.86983117 108.10023692 58 110 C67.49707689 125.96178365 77.51764341 141.48808426 87.89941406 156.88134766 C90.94959874 161.40982965 93.97529411 165.95447914 97 170.5 C97.9373566 171.90634559 98.87484224 173.31260519 99.8125 174.71875 C103.46131326 180.19196989 104.3119755 183.02293875 104.65625 189.50390625 C104.76736868 192.17005303 104.76736868 192.17005303 107 194 C107.99 193.01 108.98 192.02 110 191 C120.12665945 204.54975561 128.35683123 219.48504242 136.3125 234.375 C136.89402832 235.43855713 137.47555664 236.50211426 138.07470703 237.59790039 C138.60306152 238.60457764 139.13141602 239.61125488 139.67578125 240.6484375 C140.14927002 241.53708496 140.62275879 242.42573242 141.1105957 243.34130859 C142.21552088 246.64425538 141.91962205 248.66837401 141 252 C139 254 139 254 136.125 254.4375 C133 254 133 254 131.03515625 251.9296875 C128.764377 248.66081143 127.01551794 245.26987613 125.3125 241.6875 C116.09750509 222.85300218 104.91080115 205.28623153 93.25778198 187.8795166 C89.0203081 181.54741564 84.79252733 175.20882154 80.56274414 168.87158203 C79.39095162 167.11642676 78.21874759 165.36154615 77.04614258 163.60693359 C75.32783436 161.03556625 73.61104437 158.4631909 71.89453125 155.890625 C71.37671585 155.11648254 70.85890045 154.34234009 70.32539368 153.54473877 C67.89874114 149.90494535 65.49219688 146.25235851 63.1315918 142.56933594 C62.72071823 141.93026306 62.30984467 141.29119019 61.88652039 140.63275146 C61 139 61 139 61 137 C63.31 137.66 65.62 138.32 68 139 C62.82579218 129.85253933 58.21900467 122.1692175 49.54296875 115.9921875 C44.4053002 111.96728587 41.07581135 106.82689801 37.8125 101.25 C37.43303223 100.60732178 37.05356445 99.96464355 36.66259766 99.30249023 C35.43262326 97.20682045 34.21486367 95.104462 33 93 C32.36989014 91.91452881 32.36989014 91.91452881 31.72705078 90.80712891 C17.1539647 65.58511854 0 29.6254653 0 0 Z " fill="#8BD399" transform="translate(224,244)"/>
</svg>
