<?xml version="1.0" encoding="UTF-8"?>
<svg version="1.1" xmlns="http://www.w3.org/2000/svg" width="512" height="512">
<path d="M0 0 C6.62107355 6.32011566 7.95853626 16.79850086 9.8125 25.4375 C10.06854004 26.61006348 10.32458008 27.78262695 10.58837891 28.99072266 C16.13636562 55.02141017 16.13636562 55.02141017 15.75 65.625 C16.59820312 65.23828125 17.44640625 64.8515625 18.3203125 64.453125 C46.42483877 51.9759507 46.42483877 51.9759507 58.26123047 55.33837891 C61.37085172 56.94596219 61.8837245 58.1203443 63.19140625 61.328125 C63.60406738 62.31748047 64.01672852 63.30683594 64.44189453 64.32617188 C65.08940674 65.9590918 65.08940674 65.9590918 65.75 67.625 C66.21905762 68.77033203 66.68811523 69.91566406 67.17138672 71.09570312 C68.69827698 74.84723173 70.19634786 78.60918474 71.6875 82.375 C72.19180835 83.64332818 72.69636493 84.91155769 73.20117188 86.1796875 C74.20545177 88.70330617 75.20840709 91.22744515 76.21044922 93.75195312 C78.71105714 100.04798605 81.23143368 106.33613486 83.75 112.625 C84.77063585 111.07858205 85.79090785 109.53192151 86.80853271 107.98352051 C87.58773526 106.80827276 88.38628171 105.64578564 89.19580078 104.49121094 C93.30858056 97.77655044 90.75578925 90.95643917 89.07424927 83.71487427 C88.34087674 80.79428669 87.56898539 77.88685029 86.78125 74.98046875 C86.50027466 73.92644363 86.21929932 72.87241852 85.92980957 71.78645325 C85.04176668 68.46037745 84.14596051 65.13645063 83.25 61.8125 C82.64923943 59.56588889 82.04897492 57.31914508 81.44921875 55.07226562 C78.59907318 44.31674601 78.59907318 44.31674601 75.58325195 33.60717773 C74.08237999 28.23561284 73.8312631 22.89766496 75.9375 17.6875 C78.52081564 14.74786496 80.70810216 12.92734998 84.67578125 12.33984375 C89.19250922 12.14420393 92.13510255 12.71299928 95.75 15.625 C100.12454991 20.06465389 101.25144354 24.87390198 102.765625 30.73828125 C103.15666412 32.19260811 103.15666412 32.19260811 103.55560303 33.67631531 C104.3820159 36.76041643 105.19120436 39.84873735 106 42.9375 C106.55876392 45.0348071 107.11864735 47.13181628 107.6796875 49.22851562 C109.04944676 54.3572966 110.40510935 59.48964525 111.75 64.625 C112.63751953 63.07039063 112.63751953 63.07039063 113.54296875 61.484375 C114.34062635 60.11428076 115.13883256 58.74450582 115.9375 57.375 C116.51854492 56.35212891 116.51854492 56.35212891 117.11132812 55.30859375 C120.038663 50.3248666 122.86754552 46.58581816 128.5625 44.6875 C132.83864064 44.60365411 136.09945883 45.35700421 139.75 47.625 C142.66753686 50.78702319 143.63252751 53.56774763 144.10546875 57.82421875 C143.6489598 62.70535292 141.93035985 65.95723332 139.5625 70.1875 C139.11398682 71.01266113 138.66547363 71.83782227 138.20336914 72.68798828 C133.23514109 81.73886642 127.9359664 90.59904501 122.63916016 99.45996094 C119.40603026 104.87664431 116.19051897 110.30356912 112.98831177 115.73858643 C112.26091579 116.97109801 111.53172344 118.20255168 110.80050659 119.43280029 C105.714451 127.99006557 101.09101776 136.66729029 96.75 145.625 C100.98106188 151.94784862 105.44956143 157.72666016 110.63671875 163.30078125 C112.78576971 165.66434007 114.77939429 168.11169927 116.75 170.625 C124.25307779 167.25357298 129.14922986 160.37315795 133.875 153.875 C134.27025879 153.3397168 134.66551758 152.80443359 135.07275391 152.25292969 C141.43643574 143.25934555 145.50729264 133.47505788 148.18359375 122.83984375 C148.61640907 121.17646217 148.61640907 121.17646217 149.05796814 119.47947693 C152.4777761 106.12988114 155.43432635 92.67138112 158.37078857 79.20910645 C159.10557821 75.84615186 159.84703803 72.48466994 160.58789062 69.12304688 C160.88229901 67.78527379 161.17668181 66.44749508 161.47103882 65.10971069 C162.05076799 62.47564294 162.63202209 59.84191794 163.21426392 57.20840454 C164.64088253 50.73985032 166.0377515 44.26756621 167.37841797 37.78076172 C167.6406163 36.5374559 167.90281464 35.29415009 168.17295837 34.01316833 C168.6669545 31.66811128 169.14937608 29.32057521 169.61817932 26.97035217 C169.95111244 25.4070945 169.95111244 25.4070945 170.29077148 23.81225586 C170.47703598 22.90293808 170.66330048 21.9936203 170.85520935 21.05674744 C171.94909269 18.08393139 173.3252781 16.63563264 175.75 14.625 C192.23697568 9.12934144 217.06132384 14.1906972 232.421875 21.41015625 C233.19015625 21.81105469 233.9584375 22.21195313 234.75 22.625 C235.74773437 23.11806641 235.74773437 23.11806641 236.765625 23.62109375 C239.48395634 25.15174294 240.62155087 26.18320017 241.50048828 29.20629883 C241.81723592 33.54623741 241.03675065 37.17453001 240.0546875 41.38671875 C239.66637186 43.14682626 239.27836405 44.90700171 238.890625 46.66723633 C238.68373047 47.58808014 238.47683594 48.50892395 238.26367188 49.45767212 C234.88891273 64.54265846 231.8801125 79.62484856 229.75 94.9375 C229.65072205 95.63918304 229.55144409 96.34086609 229.44915771 97.06381226 C227.73721363 109.28040839 226.54739493 121.52886459 226.625 133.875 C226.62693359 134.65786377 226.62886719 135.44072754 226.63085938 136.24731445 C226.69181517 144.72270978 227.18434022 153.17040655 227.75 161.625 C228.29269531 161.34785156 228.83539063 161.07070312 229.39453125 160.78515625 C230.10996094 160.42292969 230.82539063 160.06070313 231.5625 159.6875 C232.27019531 159.32785156 232.97789062 158.96820313 233.70703125 158.59765625 C235.75 157.625 235.75 157.625 238.75 156.625 C239.78455032 154.84448113 239.78455032 154.84448113 240.75 152.625 C241.92991495 150.76599731 243.11854981 148.91251979 244.3125 147.0625 C257.5741864 125.75037542 265.47359705 101.35188405 274.05078125 77.890625 C274.42326996 76.87410355 274.79575867 75.85758209 275.17953491 74.81025696 C277.03086981 69.7573469 278.87369595 64.70169917 280.69921875 59.6394043 C291.12505375 30.93747313 291.12505375 30.93747313 295.75 28.625 C311.97927852 26.50056655 332.49880835 34.7768861 345.25 44.4375 C347.6525897 46.44442513 348.98090269 47.97135403 350.75 50.625 C350.34493033 57.58246938 347.62848308 64.49275696 345.36328125 71.02734375 C344.86223122 72.49677681 344.86223122 72.49677681 344.35105896 73.99589539 C343.26105005 77.18691666 342.16191132 80.37470729 341.0625 83.5625 C340.30000876 85.7887467 339.5379702 88.01514849 338.77636719 90.24169922 C335.04071158 101.14591818 331.26622769 112.03650093 327.46484375 122.91796875 C327.12717484 123.88457932 326.78950592 124.85118988 326.44160461 125.84709167 C324.85393721 130.38830287 323.26176645 134.92785594 321.66137695 139.46459961 C318.94528172 147.18116008 316.28495319 154.90735752 313.828125 162.7109375 C313.61549011 163.38299225 313.40285522 164.055047 313.18377686 164.74746704 C312.10511016 168.12315722 312.10511016 168.12315722 311.75 171.625 C316.64204892 168.85753303 321.47675422 166.01327999 326.28076172 163.09570312 C327.90820349 162.12638246 329.55052251 161.18155539 331.20751953 160.26367188 C341.16516648 155.02082099 341.16516648 155.02082099 346.859375 145.9140625 C347.07939721 142.9670445 346.94507186 140.06299289 346.81640625 137.11328125 C346.54949027 130.25985875 347.77355022 123.67162956 348.9375 116.9375 C349.15688232 115.65512451 349.37626465 114.37274902 349.60229492 113.05151367 C351.06278071 104.81765513 352.75936627 96.66918975 354.8125 88.5625 C355.16187622 87.1544812 355.16187622 87.1544812 355.51831055 85.71801758 C356.82036956 80.85955475 358.10007431 77.27492569 361.75 73.625 C365.71533466 71.37440465 369.24653782 71.15095135 373.75 71.625 C378.08976986 73.87834204 380.84688482 76.07866929 382.75 80.625 C383.14448556 86.34862678 382.01823338 91.01824435 380.4375 96.4375 C377.84135785 105.74732653 376.15403088 115.07074112 374.75 124.625 C385.07007255 114.97797566 393.16934085 104.15598767 400.26342773 92.00561523 C402.61406962 88.06812962 404.76282582 85.09766616 408.75 82.625 C413.22499608 81.73699296 417.44216323 82.12412634 421.6875 83.75 C425.24367568 86.98288699 426.59714266 90.08710604 427.0703125 94.84765625 C426.67494111 99.51014575 425.1835006 102.35808588 422.8125 106.3125 C422.4093457 107.00657959 422.00619141 107.70065918 421.59082031 108.41577148 C418.36783227 113.8522197 414.79020583 118.90332997 410.890625 123.87890625 C408.40890466 127.06257304 406.08033743 130.32912066 403.75 133.625 C404.31396484 133.84639648 404.87792969 134.06779297 405.45898438 134.29589844 C408.05749356 135.31848948 410.65374225 136.3467069 413.25 137.375 C414.136875 137.72304687 415.02375 138.07109375 415.9375 138.4296875 C432.4743278 144.99578089 432.4743278 144.99578089 434.75 149.625 C435.5877696 154.68935498 435.56501692 159.19872039 433 163.6875 C428.8180073 167.28866038 425.59829925 168.01816217 420.18945312 167.88769531 C416.03448404 167.44026269 412.36302092 166.03658306 408.5 164.5 C407.67806152 164.18740234 406.85612305 163.87480469 406.00927734 163.55273438 C399.97396651 161.22013327 394.16294834 158.56678859 388.4140625 155.59375 C385.23824359 154.43890676 383.90162546 154.4406312 380.75 155.625 C378.24260543 157.50714515 378.24260543 157.50714515 375.875 159.875 C372.89744454 162.67425872 369.98853025 165.30060918 366.625 167.625 C365.67625 168.285 364.7275 168.945 363.75 169.625 C363.75 169.955 363.75 170.285 363.75 170.625 C364.67224365 170.76075439 365.5944873 170.89650879 366.54467773 171.03637695 C370.00663956 171.5499444 373.467348 172.07080139 376.92749023 172.59643555 C378.41761919 172.82131511 379.90817514 173.04338571 381.39916992 173.26245117 C403.12412466 176.4596537 403.12412466 176.4596537 407.75 181.375 C410.03040787 185.08066279 410.75 187.27789589 410.75 191.625 C409.52470578 195.87749171 408.34469806 198.08562269 405.0625 201.0625 C398.49539344 204.16019178 391.59954842 202.38593983 384.75 201 C374.34275919 199.00970743 363.89349765 197.32956692 353.42016602 195.73101807 C351.60260794 195.45265222 349.78554247 195.17105022 347.96899414 194.88616943 C345.38552157 194.48183011 342.80054581 194.08901345 340.21484375 193.69921875 C339.4354393 193.57549393 338.65603485 193.4517691 337.85301208 193.32429504 C332.05633557 192.47150518 328.01769853 192.63136453 322.97265625 195.62109375 C322.29396484 196.01490234 321.61527344 196.40871094 320.91601562 196.81445312 C320.22185547 197.22630859 319.52769531 197.63816406 318.8125 198.0625 C314.20646169 200.78483637 309.93714608 203.13947929 304.75 204.625 C304.15775283 223.97174094 305.9614282 243.33183668 308.875 262.4375 C310.31522653 271.96680373 311.46496597 280.97295947 310.75 290.625 C310.70069336 291.3061084 310.65138672 291.9872168 310.60058594 292.68896484 C308.29163897 322.38202291 299.64095355 352.75452926 280.44335938 375.98217773 C277.47846936 379.58750532 275.36664098 382.89412514 273.68359375 387.2265625 C267.62002329 402.80410336 258.88474196 415.87023361 243.4140625 423.20703125 C201.45413888 440.8767219 149.97422975 442.51069535 107.47753906 425.92724609 C92.18797749 419.66118437 79.4386162 411.27781646 67.75 399.625 C66.88890625 398.76777344 66.0278125 397.91054688 65.140625 397.02734375 C64.35171875 396.23457031 63.5628125 395.44179688 62.75 394.625 C62.15058594 394.03460938 61.55117187 393.44421875 60.93359375 392.8359375 C37.68623368 368.39240454 24.07661549 332.17277704 24.40087891 298.63598633 C24.90509241 279.76228024 29.40164346 261.72508307 34.04150391 243.52148438 C41.38668499 213.49280469 29.21882952 177.52643632 20.52783203 148.91699219 C20.29306152 148.13743164 20.05829102 147.35787109 19.81640625 146.5546875 C19.60959229 145.88679199 19.40277832 145.21889648 19.18969727 144.53076172 C18.75 142.625 18.75 142.625 18.75 138.625 C18.05366455 138.7399733 17.3573291 138.85494659 16.63989258 138.97340393 C10.05134495 140.05919996 3.46112691 141.13414292 -3.13113403 142.19717503 C-6.51957295 142.74396172 -9.90724426 143.29480317 -13.29345703 143.85522461 C-17.19366334 144.50052388 -21.09669277 145.12762583 -25 145.75390625 C-26.80827271 146.0569442 -26.80827271 146.0569442 -28.65307617 146.36610413 C-34.80932925 147.33906672 -40.13446818 148.00732046 -46.25 146.625 C-49.86632582 143.79483197 -52.20253151 141.12911452 -53.25 136.625 C-53.4028967 132.20898359 -52.82677548 129.41151201 -50.1875 125.8125 C-43.74345445 121.01374267 -36.39008754 119.93407438 -28.625 118.80078125 C-27.63749756 118.64965378 -26.64999512 118.49852631 -25.63256836 118.34281921 C-22.50621334 117.86625316 -19.37821289 117.40169731 -16.25 116.9375 C-14.11836912 116.61472684 -11.9868572 116.29116704 -9.85546875 115.96679688 C-4.65498697 115.17709504 0.54689548 114.39722186 5.75 113.625 C2.66818072 110.47769772 -0.50380166 107.85392562 -4.0625 105.25 C-7.60617532 102.65245159 -10.91520054 100.06146402 -14.0625 97 C-17.02552881 94.26134551 -17.02552881 94.26134551 -20.51391602 94.81298828 C-24.30124957 95.63613874 -27.62976088 96.77534935 -31.21484375 98.2421875 C-31.85184708 98.50001007 -32.4888504 98.75783264 -33.14515686 99.02346802 C-35.16235432 99.84163677 -37.17497379 100.67041643 -39.1875 101.5 C-40.53289865 102.04892394 -41.87859976 102.59710716 -43.22460938 103.14453125 C-43.87852661 103.41054138 -44.53244385 103.67655151 -45.20617676 103.95062256 C-45.84841187 104.21183899 -46.49064697 104.47305542 -47.15234375 104.7421875 C-47.78378296 104.99937561 -48.41522217 105.25656372 -49.0657959 105.52154541 C-63.68751656 111.47177206 -63.68751656 111.47177206 -70.25 110.625 C-73.26423843 108.8596109 -75.66336326 106.79827348 -77.25 103.625 C-77.48828125 101.453125 -77.48828125 101.453125 -77.5625 98.875 C-77.59988281 98.03453125 -77.63726562 97.1940625 -77.67578125 96.328125 C-77.0859834 92.58372032 -75.59225966 90.59531414 -73.25 87.625 C-70.19726563 85.88989258 -70.19726563 85.88989258 -66.65625 84.51953125 C-66.02771118 84.26878342 -65.39917236 84.01803558 -64.75158691 83.75968933 C-62.75760529 82.96757088 -60.75491387 82.20147212 -58.75 81.4375 C-56.7471691 80.65840698 -54.74667124 79.87392284 -52.74841309 79.08317566 C-50.93729375 78.36892222 -49.12015203 77.66999565 -47.30273438 76.97192383 C-44.57654108 75.76907607 -42.52140265 74.52866172 -40.25 72.625 C-40.76046875 72.11195312 -41.2709375 71.59890625 -41.796875 71.0703125 C-46.99760069 65.59295246 -51.32417248 59.84443095 -55.5 53.5625 C-55.99467773 52.8195166 -56.48935547 52.0765332 -56.99902344 51.31103516 C-67.30841096 35.56308222 -67.30841096 35.56308222 -66.25 27.625 C-64.75282018 24.41675753 -62.97481464 21.89567886 -60.25 19.625 C-56.57806676 18.40102225 -53.05297686 17.89903769 -49.25 18.625 C-44.14676409 21.32632175 -41.67495719 24.60186596 -39 29.5625 C-31.51526206 42.6695688 -21.90498185 53.97001815 -11.25 64.625 C-11.92212488 48.99809647 -14.93706006 33.37619625 -19.48828125 18.4453125 C-20.82439717 13.49825767 -21.16031626 9.57567771 -18.9375 4.8125 C-13.89631735 -1.7223664 -7.72245719 -3.26719342 0 0 Z " fill="#B9C381" transform="translate(77.25,38.375)"/>
<path d="M0 0 C0.76828125 0.40089844 1.5365625 0.80179688 2.328125 1.21484375 C3.32585937 1.70791016 3.32585937 1.70791016 4.34375 2.2109375 C7.06208134 3.74158669 8.19967587 4.77304392 9.07861328 7.79614258 C9.39536092 12.13608116 8.61487565 15.76437376 7.6328125 19.9765625 C7.24449686 21.73667001 6.85648905 23.49684546 6.46875 25.25708008 C6.26185547 26.17792389 6.05496094 27.0987677 5.84179688 28.04751587 C2.46703773 43.13250221 -0.5417625 58.21469231 -2.671875 73.52734375 C-2.77115295 74.22902679 -2.87043091 74.93070984 -2.97271729 75.65365601 C-4.68466137 87.87025214 -5.87448007 100.11870834 -5.796875 112.46484375 C-5.79494141 113.24770752 -5.79300781 114.03057129 -5.79101562 114.8371582 C-5.73005983 123.31255353 -5.23753478 131.7602503 -4.671875 140.21484375 C-4.12917969 139.93769531 -3.58648437 139.66054687 -3.02734375 139.375 C-2.31191406 139.01277344 -1.59648437 138.65054688 -0.859375 138.27734375 C-0.15167969 137.91769531 0.55601562 137.55804688 1.28515625 137.1875 C3.328125 136.21484375 3.328125 136.21484375 6.328125 135.21484375 C7.36267532 133.43432488 7.36267532 133.43432488 8.328125 131.21484375 C9.50803995 129.35584106 10.69667481 127.50236354 11.890625 125.65234375 C25.1523114 104.34021917 33.05172205 79.9417278 41.62890625 56.48046875 C42.00139496 55.4639473 42.37388367 54.44742584 42.75765991 53.40010071 C44.60899481 48.34719065 46.45182095 43.29154292 48.27734375 38.22924805 C58.70317875 9.52731688 58.70317875 9.52731688 63.328125 7.21484375 C79.55740352 5.0904103 100.07693335 13.36672985 112.828125 23.02734375 C115.2307147 25.03426888 116.55902769 26.56119778 118.328125 29.21484375 C117.92305533 36.17231313 115.20660808 43.08260071 112.94140625 49.6171875 C112.60737289 50.59680954 112.27333954 51.57643158 111.92918396 52.58573914 C110.83917505 55.77676041 109.74003632 58.96455104 108.640625 62.15234375 C107.87813376 64.37859045 107.1160952 66.60499224 106.35449219 68.83154297 C102.61883658 79.73576193 98.84435269 90.62634468 95.04296875 101.5078125 C94.70529984 102.47442307 94.36763092 103.44103363 94.01972961 104.43693542 C92.43206221 108.97814662 90.83989145 113.51769969 89.23950195 118.05444336 C86.52340672 125.77100383 83.86307819 133.49720127 81.40625 141.30078125 C81.19361511 141.972836 80.98098022 142.64489075 80.76190186 143.33731079 C79.68323516 146.71300097 79.68323516 146.71300097 79.328125 150.21484375 C84.22017392 147.44737678 89.05487922 144.60312374 93.85888672 141.68554688 C95.48632849 140.71622621 97.12864751 139.77139914 98.78564453 138.85351562 C108.74329148 133.61066474 108.74329148 133.61066474 114.4375 124.50390625 C114.65752221 121.55688825 114.52319686 118.65283664 114.39453125 115.703125 C114.12761527 108.8497025 115.35167522 102.26147331 116.515625 95.52734375 C116.73500732 94.24496826 116.95438965 92.96259277 117.18041992 91.64135742 C118.64090571 83.40749888 120.33749127 75.2590335 122.390625 67.15234375 C122.74000122 65.74432495 122.74000122 65.74432495 123.09643555 64.30786133 C124.39849456 59.4493985 125.67819931 55.86476944 129.328125 52.21484375 C133.29345966 49.9642484 136.82466282 49.7407951 141.328125 50.21484375 C145.66789486 52.46818579 148.42500982 54.66851304 150.328125 59.21484375 C150.72261056 64.93847053 149.59635838 69.6080881 148.015625 75.02734375 C145.41948285 84.33717028 143.73215588 93.66058487 142.328125 103.21484375 C152.64819755 93.56781941 160.74746585 82.74583142 167.84155273 70.59545898 C170.19219462 66.65797337 172.34095082 63.68750991 176.328125 61.21484375 C180.80312108 60.32683671 185.02028823 60.71397009 189.265625 62.33984375 C192.82180068 65.57273074 194.17526766 68.67694979 194.6484375 73.4375 C194.25306611 78.0999895 192.7616256 80.94792963 190.390625 84.90234375 C189.9874707 85.59642334 189.58431641 86.29050293 189.16894531 87.00561523 C185.94595727 92.44206345 182.36833083 97.49317372 178.46875 102.46875 C175.98702966 105.65241679 173.65846243 108.91896441 171.328125 112.21484375 C171.89208984 112.43624023 172.45605469 112.65763672 173.03710938 112.88574219 C175.63561856 113.90833323 178.23186725 114.93655065 180.828125 115.96484375 C181.715 116.31289062 182.601875 116.6609375 183.515625 117.01953125 C200.0524528 123.58562464 200.0524528 123.58562464 202.328125 128.21484375 C203.1658946 133.27919873 203.14314192 137.78856414 200.578125 142.27734375 C196.3961323 145.87850413 193.17642425 146.60800592 187.76757812 146.47753906 C183.61260904 146.03010644 179.94114592 144.62642681 176.078125 143.08984375 C175.25618652 142.77724609 174.43424805 142.46464844 173.58740234 142.14257812 C167.55209151 139.80997702 161.74107334 137.15663234 155.9921875 134.18359375 C152.81636859 133.02875051 151.47975046 133.03047495 148.328125 134.21484375 C145.82073043 136.0969889 145.82073043 136.0969889 143.453125 138.46484375 C140.47556954 141.26410247 137.56665525 143.89045293 134.203125 146.21484375 C133.254375 146.87484375 132.305625 147.53484375 131.328125 148.21484375 C131.328125 148.54484375 131.328125 148.87484375 131.328125 149.21484375 C132.25036865 149.35059814 133.1726123 149.48635254 134.12280273 149.6262207 C137.58476456 150.13978815 141.045473 150.66064514 144.50561523 151.1862793 C145.99574419 151.41115886 147.48630014 151.63322946 148.97729492 151.85229492 C170.70224966 155.04949745 170.70224966 155.04949745 175.328125 159.96484375 C177.60853287 163.67050654 178.328125 165.86773964 178.328125 170.21484375 C177.10283078 174.46733546 175.92282306 176.67546644 172.640625 179.65234375 C166.07351844 182.75003553 159.17767342 180.97578358 152.328125 179.58984375 C141.92088419 177.59955118 131.47162265 175.91941067 120.99829102 174.32086182 C119.18073294 174.04249597 117.36366747 173.76089397 115.54711914 173.47601318 C112.96364657 173.07167386 110.37867081 172.6788572 107.79296875 172.2890625 C107.0135643 172.16533768 106.23415985 172.04161285 105.43113708 171.91413879 C99.63446057 171.06134893 95.59582353 171.22120828 90.55078125 174.2109375 C89.87208984 174.60474609 89.19339844 174.99855469 88.49414062 175.40429688 C87.79998047 175.81615234 87.10582031 176.22800781 86.390625 176.65234375 C81.78458669 179.37468012 77.51527108 181.72932304 72.328125 183.21484375 C71.73587783 202.56158469 73.5395532 221.92168043 76.453125 241.02734375 C77.89335153 250.55664748 79.04309097 259.56280322 78.328125 269.21484375 C78.27881836 269.89595215 78.22951172 270.57706055 78.17871094 271.27880859 C75.86976397 300.97186666 67.21907855 331.34437301 48.02148438 354.57202148 C45.05659436 358.17734907 42.94476598 361.48396889 41.26171875 365.81640625 C35.19153369 381.41094026 26.30270588 394.99101189 10.53515625 401.9375 C5.24107341 404.15525672 0.02420661 406.28177133 -5.671875 407.21484375 C-5.51203125 406.17585938 -5.3521875 405.136875 -5.1875 404.06640625 C2.74420135 339.96588366 -27.62667032 274.44403486 -65.6484375 224.625 C-67.61958702 222.1225324 -69.64090728 219.66904841 -71.671875 217.21484375 C-72.85197144 215.7747998 -72.85197144 215.7747998 -74.0559082 214.30566406 C-83.44984897 203.00590096 -93.9257595 192.8450963 -104.42211914 182.58105469 C-106.79973938 180.25205507 -109.16777932 177.91362324 -111.53515625 175.57421875 C-112.24883865 174.88229431 -112.96252106 174.19036987 -113.6978302 173.47747803 C-118.59273332 168.63056947 -123.55709475 163.41499804 -126.671875 157.21484375 C-126.31060729 153.78011421 -124.8964378 151.9952111 -122.609375 149.46484375 C-122.06152344 148.85125 -121.51367188 148.23765625 -120.94921875 147.60546875 C-120.52769531 147.1465625 -120.10617188 146.68765625 -119.671875 146.21484375 C-118.351875 147.20484375 -117.031875 148.19484375 -115.671875 149.21484375 C-108.16879721 145.84341673 -103.27264514 138.9630017 -98.546875 132.46484375 C-98.15161621 131.92956055 -97.75635742 131.39427734 -97.34912109 130.84277344 C-90.98543926 121.8491893 -86.91458236 112.06490163 -84.23828125 101.4296875 C-83.9497377 100.32076645 -83.66119415 99.2118454 -83.36390686 98.06932068 C-79.9440989 84.71972489 -76.98754865 71.26122487 -74.05108643 57.7989502 C-73.31629679 54.43599561 -72.57483697 51.07451369 -71.83398438 47.71289062 C-71.53957599 46.37511754 -71.24519319 45.03733883 -70.95083618 43.69955444 C-70.37110701 41.06548669 -69.78985291 38.43176169 -69.20761108 35.79824829 C-67.78099247 29.32969407 -66.3841235 22.85740996 -65.04345703 16.37060547 C-64.7812587 15.12729965 -64.51906036 13.88399384 -64.24891663 12.60301208 C-63.7549205 10.25795503 -63.27249892 7.91041896 -62.80369568 5.56019592 C-62.58174026 4.51802414 -62.35978485 3.47585236 -62.13110352 2.40209961 C-61.94483902 1.49278183 -61.75857452 0.58346405 -61.56666565 -0.35340881 C-60.47278231 -3.32622486 -59.0965969 -4.77452361 -56.671875 -6.78515625 C-40.18489932 -12.28081481 -15.36055116 -7.21945905 0 0 Z " fill="#E0DCD0" transform="translate(309.671875,59.78515625)"/>
<path d="M0 0 C11.18902935 3.72967645 24.44479421 8.57466202 31.22216797 18.74072266 C30.8170983 25.69819204 28.10065105 32.60847961 25.83544922 39.14306641 C25.50141586 40.12268845 25.16738251 41.10231049 24.82322693 42.11161804 C23.73321802 45.30263931 22.63407929 48.49042995 21.53466797 51.67822266 C20.77217673 53.90446936 20.01013817 56.13087115 19.24853516 58.35742188 C15.51287955 69.26164084 11.73839566 80.15222358 7.93701172 91.03369141 C7.5993428 92.00030197 7.26167389 92.96691254 6.91377258 93.96281433 C5.32610517 98.50402553 3.73393442 103.04357859 2.13354492 107.58032227 C-0.58255031 115.29688274 -3.24287884 123.02308018 -5.69970703 130.82666016 C-5.91234192 131.4987149 -6.12497681 132.17076965 -6.34405518 132.8631897 C-7.42272187 136.23887988 -7.42272187 136.23887988 -7.77783203 139.74072266 C-2.88578311 136.97325568 1.94892219 134.12900265 6.75292969 131.21142578 C8.38037146 130.24210511 10.02269047 129.29727804 11.6796875 128.37939453 C21.63733445 123.13654365 21.63733445 123.13654365 27.33154297 114.02978516 C27.55156518 111.08276715 27.41723983 108.17871555 27.28857422 105.22900391 C27.02165823 98.37558141 28.24571819 91.78735222 29.40966797 85.05322266 C29.62905029 83.77084717 29.84843262 82.48847168 30.07446289 81.16723633 C31.53494868 72.93337778 33.23153423 64.7849124 35.28466797 56.67822266 C35.51758545 55.73954346 35.75050293 54.80086426 35.99047852 53.83374023 C37.29253753 48.9752774 38.57224228 45.39064835 42.22216797 41.74072266 C46.18750263 39.49012731 49.71870578 39.26667401 54.22216797 39.74072266 C58.56193783 41.9940647 61.31905279 44.19439195 63.22216797 48.74072266 C63.61665352 54.46434944 62.49040135 59.13396701 60.90966797 64.55322266 C58.31352582 73.86304919 56.62619884 83.18646377 55.22216797 92.74072266 C65.54224052 83.09369831 73.64150882 72.27171033 80.7355957 60.12133789 C83.08623759 56.18385228 85.23499379 53.21338881 89.22216797 50.74072266 C93.69716405 49.85271562 97.9143312 50.239849 102.15966797 51.86572266 C105.71584365 55.09860964 107.06931063 58.2028287 107.54248047 62.96337891 C107.14710907 67.62586841 105.65566856 70.47380854 103.28466797 74.42822266 C102.88151367 75.12230225 102.47835937 75.81638184 102.06298828 76.53149414 C98.84000024 81.96794235 95.2623738 87.01905262 91.36279297 91.99462891 C88.88107262 95.1782957 86.5525054 98.44484332 84.22216797 101.74072266 C84.78613281 101.96211914 85.35009766 102.18351562 85.93115234 102.41162109 C88.52966153 103.43421214 91.12591022 104.46242956 93.72216797 105.49072266 C94.60904297 105.83876953 95.49591797 106.18681641 96.40966797 106.54541016 C112.94649577 113.11150355 112.94649577 113.11150355 115.22216797 117.74072266 C116.05993757 122.80507764 116.03718489 127.31444305 113.47216797 131.80322266 C109.29017527 135.40438304 106.07046722 136.13388482 100.66162109 136.00341797 C96.50665201 135.55598535 92.83518889 134.15230571 88.97216797 132.61572266 C87.73926025 132.14682617 87.73926025 132.14682617 86.48144531 131.66845703 C80.44613447 129.33585593 74.63511631 126.68251124 68.88623047 123.70947266 C65.71041155 122.55462941 64.37379343 122.55635385 61.22216797 123.74072266 C58.71477339 125.62286781 58.71477339 125.62286781 56.34716797 127.99072266 C53.36961251 130.78998138 50.46069822 133.41633183 47.09716797 135.74072266 C46.14841797 136.40072266 45.19966797 137.06072266 44.22216797 137.74072266 C44.22216797 138.07072266 44.22216797 138.40072266 44.22216797 138.74072266 C45.14441162 138.87647705 46.06665527 139.01223145 47.0168457 139.15209961 C50.47880753 139.66566705 53.93951597 140.18652405 57.3996582 140.7121582 C58.88978716 140.93703777 60.38034311 141.15910836 61.87133789 141.37817383 C83.59629263 144.57537635 83.59629263 144.57537635 88.22216797 149.49072266 C90.50257584 153.19638545 91.22216797 155.39361855 91.22216797 159.74072266 C89.99687375 163.99321436 88.81686603 166.20134534 85.53466797 169.17822266 C78.9675614 172.27591443 72.07171639 170.50166249 65.22216797 169.11572266 C54.81492716 167.12543008 44.36566562 165.44528958 33.89233398 163.84674072 C32.07477591 163.56837488 30.25771044 163.28677287 28.44116211 163.00189209 C25.85768954 162.59755277 23.27271378 162.20473611 20.68701172 161.81494141 C19.90760727 161.69121658 19.12820282 161.56749176 18.32518005 161.4400177 C12.52850354 160.58722783 8.4898665 160.74708719 3.44482422 163.73681641 C2.76613281 164.130625 2.08744141 164.52443359 1.38818359 164.93017578 C0.69402344 165.34203125 -0.00013672 165.75388672 -0.71533203 166.17822266 C-5.32137034 168.90055902 -9.59068595 171.25520195 -14.77783203 172.74072266 C-14.77783203 173.73072266 -14.77783203 174.72072266 -14.77783203 175.74072266 C-19.39783203 175.41072266 -24.01783203 175.08072266 -28.77783203 174.74072266 C-29.00470703 176.86509766 -29.23158203 178.98947266 -29.46533203 181.17822266 C-32.48969582 205.27196589 -43.3524187 237.92679395 -63.03955078 253.53369141 C-63.61318359 253.93201172 -64.18681641 254.33033203 -64.77783203 254.74072266 C-65.36951172 253.87189453 -65.96119141 253.00306641 -66.57080078 252.10791016 C-67.36882071 250.94373991 -68.16700671 249.7796835 -68.96533203 248.61572266 C-69.35269531 248.04595703 -69.74005859 247.47619141 -70.13916016 246.88916016 C-72.82439578 242.98336288 -75.69605916 239.34251049 -78.77783203 235.74072266 C-77.38811071 232.70392422 -75.64233146 230.02707527 -73.75732422 227.27636719 C-68.09026117 218.90855735 -64.2049271 210.22227992 -60.77783203 200.74072266 C-60.5301709 200.06219238 -60.28250977 199.38366211 -60.02734375 198.68457031 C-56.49334585 188.80896968 -54.70747195 179.17489011 -53.77783203 168.74072266 C-54.38111328 168.41458984 -54.98439453 168.08845703 -55.60595703 167.75244141 C-56.40517578 167.31544922 -57.20439453 166.87845703 -58.02783203 166.42822266 C-58.81673828 165.99896484 -59.60564453 165.56970703 -60.41845703 165.12744141 C-62.77783203 163.74072266 -62.77783203 163.74072266 -64.69970703 162.01025391 C-66.79271434 160.46674126 -66.79271434 160.46674126 -69.73095703 160.86572266 C-78.74865832 163.45542149 -86.12957037 171.42588445 -92.77783203 177.74072266 C-93.68791016 178.59794922 -94.59798828 179.45517578 -95.53564453 180.33837891 C-102.08371602 186.67669323 -107.53244746 193.31947486 -112.77783203 200.74072266 C-117.7412551 199.14086202 -121.47981965 196.21532434 -125.59033203 193.11572266 C-126.28320312 192.60009766 -126.97607422 192.08447266 -127.68994141 191.55322266 C-129.38956866 190.28729339 -131.08420638 189.01467 -132.77783203 187.74072266 C-130.69389383 183.25017196 -128.20026959 179.36981499 -125.15283203 175.49072266 C-124.71406738 174.92788574 -124.27530273 174.36504883 -123.82324219 173.78515625 C-115.5081306 163.22756581 -106.60201595 154.39679532 -95.71533203 146.55322266 C-95.13759033 146.13685547 -94.55984863 145.72048828 -93.96459961 145.29150391 C-83.29639846 137.74072266 -83.29639846 137.74072266 -79.77783203 137.74072266 C-82.13239526 132.17354733 -82.13239526 132.17354733 -84.77783203 126.74072266 C-84.15908203 126.49322266 -83.54033203 126.24572266 -82.90283203 125.99072266 C-80.31400101 124.46788088 -80.06396179 123.4190072 -78.77783203 120.74072266 C-77.59791708 118.88171997 -76.40928222 117.02824245 -75.21533203 115.17822266 C-61.95364563 93.86609807 -54.05423498 69.4676067 -45.47705078 46.00634766 C-45.10456207 44.9898262 -44.73207336 43.97330475 -44.34829712 42.92597961 C-42.49696222 37.87306956 -40.65413608 32.81742183 -38.82861328 27.75512695 C-25.88587229 -7.87575165 -25.88587229 -7.87575165 0 0 Z " fill="#6E9D48" transform="translate(396.77783203125,70.25927734375)"/>
<path d="M0 0 C3.21253972 3.01175599 5.94586803 6.16187526 8.64331055 9.64550781 C12.683695 14.72386153 17.06261362 19.27378515 21.70703125 23.796875 C23.36275242 25.43216794 25.01834741 27.06758863 26.67382812 28.703125 C29.23802055 31.22404714 31.80470254 33.74236677 34.37426758 36.2578125 C44.33723869 46.02651955 53.74259838 55.7396468 62 67 C63.01685662 68.31717332 64.03582999 69.6327207 65.05859375 70.9453125 C89.34906843 103.41238374 108.09318592 141.89731074 115 182 C115.309375 183.62615234 115.309375 183.62615234 115.625 185.28515625 C118.57091832 203.10387055 117.70817419 222.06417099 116 240 C100.39198676 242.56319279 84.76257347 242.20138915 69 242 C68.67 241.01 68.34 240.02 68 239 C66.4710222 237.52753465 66.4710222 237.52753465 64.5625 236.0625 C53.21550511 226.32786673 45.57097849 213.71891458 38 201 C37.62633301 200.37818848 37.25266602 199.75637695 36.86767578 199.11572266 C26.56634582 181.73315296 19.68051553 162.31957773 14 143 C13.63849854 141.78634766 13.27699707 140.57269531 12.90454102 139.32226562 C8.10807655 122.3884826 6.52743848 105.2400702 5.29348755 87.73831177 C3.07213086 48.20199586 3.07213086 48.20199586 -7.1484375 10.1796875 C-8 8 -8 8 -8 5 C-6.25 3.61328125 -6.25 3.61328125 -4 2.3125 C-3.2575 1.87550781 -2.515 1.43851563 -1.75 0.98828125 C-1.1725 0.66214844 -0.595 0.33601562 0 0 Z " fill="#E0DCD0" transform="translate(164,233)"/>
<path d="M0 0 C0.76828125 0.40089844 1.5365625 0.80179688 2.328125 1.21484375 C2.99328125 1.54355469 3.6584375 1.87226562 4.34375 2.2109375 C7.06208134 3.74158669 8.19967587 4.77304392 9.07861328 7.79614258 C9.39536092 12.13608116 8.61487565 15.76437376 7.6328125 19.9765625 C7.24449686 21.73667001 6.85648905 23.49684546 6.46875 25.25708008 C6.1584082 26.63834579 6.1584082 26.63834579 5.84179688 28.04751587 C2.46703773 43.13250221 -0.5417625 58.21469231 -2.671875 73.52734375 C-2.77115295 74.22902679 -2.87043091 74.93070984 -2.97271729 75.65365601 C-4.68164345 87.84871597 -5.8747641 100.07778408 -5.796875 112.40234375 C-5.79494141 113.18262939 -5.79300781 113.96291504 -5.79101562 114.7668457 C-5.7276095 123.59702923 -5.22441489 132.40380581 -4.671875 141.21484375 C-8.64992839 142.26079141 -12.62935573 143.30140217 -16.609375 144.33984375 C-17.82616943 144.65751709 -19.04296387 144.97519043 -20.29663086 145.30249023 C-27.37935351 147.13949839 -34.47338909 148.89352089 -41.60083008 150.5480957 C-59.17037408 154.63693309 -77.17982243 158.84785465 -91.671875 170.21484375 C-99.82630734 164.32315965 -107.352405 158.11646999 -114.671875 151.21484375 C-112.00006384 148.06347674 -109.33873208 144.92760766 -106.515625 141.91015625 C-95.5639693 130.17088148 -88.27194494 117.08732544 -84.30078125 101.5546875 C-84.00772598 100.43674301 -83.71467072 99.31879852 -83.41273499 98.16697693 C-79.96030404 84.78810981 -76.99525819 71.29656945 -74.05108643 57.7989502 C-73.31629679 54.43599561 -72.57483697 51.07451369 -71.83398438 47.71289062 C-71.53957599 46.37511754 -71.24519319 45.03733883 -70.95083618 43.69955444 C-70.37110701 41.06548669 -69.78985291 38.43176169 -69.20761108 35.79824829 C-67.78099247 29.32969407 -66.3841235 22.85740996 -65.04345703 16.37060547 C-64.7812587 15.12729965 -64.51906036 13.88399384 -64.24891663 12.60301208 C-63.7549205 10.25795503 -63.27249892 7.91041896 -62.80369568 5.56019592 C-62.58174026 4.51802414 -62.35978485 3.47585236 -62.13110352 2.40209961 C-61.94483902 1.49278183 -61.75857452 0.58346405 -61.56666565 -0.35340881 C-60.47278231 -3.32622486 -59.0965969 -4.77452361 -56.671875 -6.78515625 C-40.18489932 -12.28081481 -15.36055116 -7.21945905 0 0 Z " fill="#56793A" transform="translate(309.671875,59.78515625)"/>
<path d="M0 0 C2.8242593 2.37494532 4.32996343 3.92019042 5.75 7.3125 C6.14448556 13.03612678 5.01823338 17.70574435 3.4375 23.125 C0.84135785 32.43482653 -0.84596912 41.75824112 -2.25 51.3125 C8.07007255 41.66547566 16.16934085 30.84348767 23.26342773 18.69311523 C25.61406962 14.75562962 27.76282582 11.78516616 31.75 9.3125 C36.22499608 8.42449296 40.44216323 8.81162634 44.6875 10.4375 C48.24367568 13.67038699 49.59714266 16.77460604 50.0703125 21.53515625 C49.67494111 26.19764575 48.1835006 29.04558588 45.8125 33 C45.4093457 33.69407959 45.00619141 34.38815918 44.59082031 35.10327148 C41.36783227 40.5397197 37.79020583 45.59082997 33.890625 50.56640625 C31.40890466 53.75007304 29.08033743 57.01662066 26.75 60.3125 C27.31396484 60.53389648 27.87792969 60.75529297 28.45898438 60.98339844 C31.05749356 62.00598948 33.65374225 63.0342069 36.25 64.0625 C37.136875 64.41054687 38.02375 64.75859375 38.9375 65.1171875 C55.4743278 71.68328089 55.4743278 71.68328089 57.75 76.3125 C58.5877696 81.37685498 58.56501692 85.88622039 56 90.375 C51.8180073 93.97616038 48.59829925 94.70566217 43.18945312 94.57519531 C39.03448404 94.12776269 35.36302092 92.72408306 31.5 91.1875 C30.67806152 90.87490234 29.85612305 90.56230469 29.00927734 90.24023438 C22.97396651 87.90763327 17.16294834 85.25428859 11.4140625 82.28125 C8.23824359 81.12640676 6.90162546 81.1281312 3.75 82.3125 C1.24260543 84.19464515 1.24260543 84.19464515 -1.125 86.5625 C-4.10255546 89.36175872 -7.01146975 91.98810918 -10.375 94.3125 C-11.798125 95.3025 -11.798125 95.3025 -13.25 96.3125 C-13.25 96.6425 -13.25 96.9725 -13.25 97.3125 C-12.32775635 97.44825439 -11.4055127 97.58400879 -10.45532227 97.72387695 C-6.99336044 98.2374444 -3.532652 98.75830139 -0.07250977 99.28393555 C1.41761919 99.50881511 2.90817514 99.73088571 4.39916992 99.94995117 C26.12412466 103.1471537 26.12412466 103.1471537 30.75 108.0625 C33.03040787 111.76816279 33.75 113.96539589 33.75 118.3125 C32.52470578 122.56499171 31.34469806 124.77312269 28.0625 127.75 C21.49539344 130.84769178 14.59954842 129.07343983 7.75 127.6875 C-2.65724081 125.69720743 -13.10650235 124.01706692 -23.57983398 122.41851807 C-25.39739206 122.14015222 -27.21445753 121.85855022 -29.03100586 121.57366943 C-31.61447843 121.16933011 -34.19945419 120.77651345 -36.78515625 120.38671875 C-37.5645607 120.26299393 -38.34396515 120.1392691 -39.14698792 120.01179504 C-44.94366443 119.15900518 -48.98230147 119.31886453 -54.02734375 122.30859375 C-54.70603516 122.70240234 -55.38472656 123.09621094 -56.08398438 123.50195312 C-56.77814453 123.91380859 -57.47230469 124.32566406 -58.1875 124.75 C-62.79353831 127.47233637 -67.06285392 129.82697929 -72.25 131.3125 C-73.47541302 107.31482844 -73.47541302 107.31482844 -66.89038086 99.75073242 C-64.72703659 97.85398274 -62.29986965 96.51595438 -59.80273438 95.10546875 C-56.72727266 93.36776392 -53.7025937 91.54754629 -50.67089844 89.73486328 C-49.06181611 88.78947062 -47.43984512 87.86566867 -45.80566406 86.96435547 C-35.84086484 81.71455646 -35.84086484 81.71455646 -30.140625 72.6015625 C-29.92060279 69.6545445 -30.05492814 66.75049289 -30.18359375 63.80078125 C-30.45050973 56.94735875 -29.22644978 50.35912956 -28.0625 43.625 C-27.73342651 41.70143677 -27.73342651 41.70143677 -27.39770508 39.73901367 C-25.93721929 31.50515513 -24.24063373 23.35668975 -22.1875 15.25 C-21.95458252 14.3113208 -21.72166504 13.3726416 -21.48168945 12.40551758 C-20.17963044 7.54705475 -18.89992569 3.96242569 -15.25 0.3125 C-10.1404481 -2.58751595 -5.19861834 -2.6992826 0 0 Z " fill="#557939" transform="translate(454.25,111.6875)"/>
<path d="M0 0 C7.87860802 22.06010246 9.67740723 44.61132054 11.25408936 67.80575562 C12.7147272 89.26206378 14.69027798 110.32859726 21 131 C21.34546875 132.19367188 21.6909375 133.38734375 22.046875 134.6171875 C30.42900206 162.69157197 41.51780663 191.90823346 60 215 C60 215.66 60 216.32 60 217 C41.78822669 212.79728308 25.30305634 201.75906518 12 189 C11.154375 188.195625 10.30875 187.39125 9.4375 186.5625 C8.633125 185.716875 7.82875 184.87125 7 184 C6.071875 183.08154297 6.071875 183.08154297 5.125 182.14453125 C-18.64810706 157.47993267 -32.67886483 121.11457681 -32.34912109 87.01098633 C-31.84490759 68.13728024 -27.34835654 50.10008307 -22.70849609 31.89648438 C-21.62795663 27.47900669 -20.87437743 23.47647834 -20.90234375 18.91796875 C-20.90556641 17.98662109 -20.90878906 17.05527344 -20.91210938 16.09570312 C-20.92048828 15.13599609 -20.92886719 14.17628906 -20.9375 13.1875 C-20.94201172 12.20845703 -20.94652344 11.22941406 -20.95117188 10.22070312 C-20.96291316 7.81373889 -20.97933581 5.40690143 -21 3 C-18.43850372 2.49432271 -15.87600535 1.99529868 -13.3125 1.5 C-12.2306543 1.28537109 -12.2306543 1.28537109 -11.12695312 1.06640625 C-7.36158641 0.34428113 -3.85526187 -0.1824976 0 0 Z " fill="#E0DCD0" transform="translate(134,250)"/>
<path d="M0 0 C6.62101238 6.32005727 7.95867577 16.79853007 9.8125 25.4375 C10.19656006 27.19743286 10.19656006 27.19743286 10.58837891 28.99291992 C12.81671146 39.45303349 14.67905591 49.97870745 15.75 60.625 C15.86988281 61.74132812 15.98976563 62.85765625 16.11328125 64.0078125 C15.75 66.625 15.75 66.625 13.73828125 68.34765625 C12.85527344 68.78980469 11.97226563 69.23195313 11.0625 69.6875 C6.86988482 71.97438101 3.61791939 73.76814289 0.75 77.625 C1.17613896 81.02393501 2.18392496 84.21533184 3.22460938 87.47192383 C3.52161743 88.40672073 3.81862549 89.34151764 4.12463379 90.30464172 C4.60434631 91.80319954 4.60434631 91.80319954 5.09375 93.33203125 C5.7697808 95.46671786 6.44555402 97.60148606 7.12109375 99.73632812 C8.18471806 103.08794723 9.2504339 106.43885779 10.32080078 109.78833008 C11.35548453 113.03013224 12.38144571 116.27459464 13.40625 119.51953125 C13.72605835 120.5124971 14.0458667 121.50546295 14.37536621 122.52851868 C16.07286288 127.92523079 17.2535813 132.98573352 17.75 138.625 C10.58885185 139.82905372 3.42576481 141.02078203 -3.7399826 142.19717503 C-7.06791525 142.7439075 -10.3950584 143.2947296 -13.72070312 143.85522461 C-17.55171399 144.49873709 -21.38488017 145.12768139 -25.21875 145.75390625 C-26.99421204 146.0569442 -26.99421204 146.0569442 -28.80554199 146.36610413 C-34.91811844 147.34942424 -40.17482772 147.99261895 -46.25 146.625 C-49.86632582 143.79483197 -52.20253151 141.12911452 -53.25 136.625 C-53.4028967 132.20898359 -52.82677548 129.41151201 -50.1875 125.8125 C-43.74345445 121.01374267 -36.39008754 119.93407438 -28.625 118.80078125 C-27.63749756 118.64965378 -26.64999512 118.49852631 -25.63256836 118.34281921 C-22.50621334 117.86625316 -19.37821289 117.40169731 -16.25 116.9375 C-14.11836912 116.61472684 -11.9868572 116.29116704 -9.85546875 115.96679688 C-4.65498697 115.17709504 0.54689548 114.39722186 5.75 113.625 C2.66818072 110.47769772 -0.50380166 107.85392562 -4.0625 105.25 C-7.60617532 102.65245159 -10.91520054 100.06146402 -14.0625 97 C-17.02552881 94.26134551 -17.02552881 94.26134551 -20.51391602 94.81298828 C-24.30124957 95.63613874 -27.62976088 96.77534935 -31.21484375 98.2421875 C-31.85184708 98.50001007 -32.4888504 98.75783264 -33.14515686 99.02346802 C-35.16235432 99.84163677 -37.17497379 100.67041643 -39.1875 101.5 C-40.53289865 102.04892394 -41.87859976 102.59710716 -43.22460938 103.14453125 C-43.87852661 103.41054138 -44.53244385 103.67655151 -45.20617676 103.95062256 C-45.84841187 104.21183899 -46.49064697 104.47305542 -47.15234375 104.7421875 C-47.78378296 104.99937561 -48.41522217 105.25656372 -49.0657959 105.52154541 C-63.68751656 111.47177206 -63.68751656 111.47177206 -70.25 110.625 C-73.26423843 108.8596109 -75.66336326 106.79827348 -77.25 103.625 C-77.48828125 101.453125 -77.48828125 101.453125 -77.5625 98.875 C-77.59988281 98.03453125 -77.63726562 97.1940625 -77.67578125 96.328125 C-77.0859834 92.58372032 -75.59225966 90.59531414 -73.25 87.625 C-70.19726563 85.88989258 -70.19726563 85.88989258 -66.65625 84.51953125 C-66.02771118 84.26878342 -65.39917236 84.01803558 -64.75158691 83.75968933 C-62.75760529 82.96757088 -60.75491387 82.20147212 -58.75 81.4375 C-56.7471691 80.65840698 -54.74667124 79.87392284 -52.74841309 79.08317566 C-50.93729375 78.36892222 -49.12015203 77.66999565 -47.30273438 76.97192383 C-44.57654108 75.76907607 -42.52140265 74.52866172 -40.25 72.625 C-40.76046875 72.11195312 -41.2709375 71.59890625 -41.796875 71.0703125 C-46.99760069 65.59295246 -51.32417248 59.84443095 -55.5 53.5625 C-55.99467773 52.8195166 -56.48935547 52.0765332 -56.99902344 51.31103516 C-67.30841096 35.56308222 -67.30841096 35.56308222 -66.25 27.625 C-64.75282018 24.41675753 -62.97481464 21.89567886 -60.25 19.625 C-56.57806676 18.40102225 -53.05297686 17.89903769 -49.25 18.625 C-44.14676409 21.32632175 -41.67495719 24.60186596 -39 29.5625 C-31.51526206 42.6695688 -21.90498185 53.97001815 -11.25 64.625 C-11.92212488 48.99809647 -14.93706006 33.37619625 -19.48828125 18.4453125 C-20.82439717 13.49825767 -21.16031626 9.57567771 -18.9375 4.8125 C-13.89631735 -1.7223664 -7.72245719 -3.26719342 0 0 Z " fill="#6C9D47" transform="translate(77.25,38.375)"/>
<path d="M0 0 C1.216875 -0.020625 2.43375 -0.04125 3.6875 -0.0625 C4.71423828 -0.07990234 4.71423828 -0.07990234 5.76171875 -0.09765625 C8.25492215 0.01112226 10.56712913 0.45888861 13 1 C13.03440186 1.74531982 13.06880371 2.49063965 13.10424805 3.25854492 C13.97266299 21.02671858 15.64306659 38.50384586 18.32299805 56.09448242 C20.1562547 68.37645586 20.74935611 80.4281494 19.25 92.8125 C19.16129639 93.55910889 19.07259277 94.30571777 18.98120117 95.07495117 C15.32049413 123.75099014 5.6047487 152.28501794 -14 174 C-14.66 174.33 -15.32 174.66 -16 175 C-15.9278125 174.32839844 -15.855625 173.65679687 -15.78125 172.96484375 C-14.34764778 157.53370877 -13.56785893 141.18821048 -17 126 C-17.24492187 124.86304688 -17.48984375 123.72609375 -17.7421875 122.5546875 C-20.97509719 109.07946214 -26.09359496 95.32059526 -34.06640625 83.91015625 C-35 82 -35 82 -34.8359375 79.94921875 C-33.87468958 77.70780421 -32.77986044 76.47948298 -31.0625 74.75 C-12.64539672 54.2571986 -5.1345152 26.38968708 0 0 Z " fill="#B8C381" transform="translate(368,245)"/>
<path d="M0 0 C4.1938755 1.81099169 6.4547892 4.24802914 9 8 C10.25415312 11.30692908 11.13206311 14.69127262 12.015625 18.11328125 C12.27631775 19.08283249 12.5370105 20.05238373 12.80560303 21.05131531 C13.6320159 24.13541643 14.44120436 27.22373735 15.25 30.3125 C15.80876392 32.4098071 16.36864735 34.50681628 16.9296875 36.60351562 C18.29944676 41.7322966 19.65510935 46.86464525 21 52 C21.59167969 50.96359375 22.18335938 49.9271875 22.79296875 48.859375 C23.59062635 47.48928076 24.38883256 46.11950582 25.1875 44.75 C25.57486328 44.06808594 25.96222656 43.38617188 26.36132812 42.68359375 C29.288663 37.6998666 32.11754552 33.96081816 37.8125 32.0625 C42.08864064 31.97865411 45.34945883 32.73200421 49 35 C51.91753686 38.16202319 52.88252751 40.94274763 53.35546875 45.19921875 C52.8989598 50.08035292 51.18035985 53.33223332 48.8125 57.5625 C48.36398682 58.38766113 47.91547363 59.21282227 47.45336914 60.06298828 C42.48567684 69.11289043 37.18602871 77.97101964 31.88916016 86.83056641 C28.65062082 92.26384602 25.44159223 97.71439356 22.23831177 103.16851807 C21.16088801 105.00144681 20.08042061 106.83255507 18.99975586 108.66357422 C14.47788581 116.3478431 10.16984779 124.12044246 6 132 C5.34 132 4.68 132 4 132 C0.85871743 124.89703117 -2.18141547 117.76181822 -4.9375 110.5 C-5.56978516 108.84484375 -5.56978516 108.84484375 -6.21484375 107.15625 C-7.10880365 103.56262015 -7.03437638 101.54508995 -6 98 C-4.22640998 95.08886604 -2.2945335 92.35009111 -0.30078125 89.5859375 C2.70232158 81.30711349 -1.72887884 70.61956387 -3.96875 62.35546875 C-4.24972534 61.30144363 -4.53070068 60.24741852 -4.82019043 59.16145325 C-5.70823332 55.83537745 -6.60403949 52.51145063 -7.5 49.1875 C-8.10076057 46.94088889 -8.70102508 44.69414508 -9.30078125 42.44726562 C-12.15092682 31.69174601 -12.15092682 31.69174601 -15.16674805 20.98217773 C-16.66762001 15.61061284 -16.9187369 10.27266496 -14.8125 5.0625 C-10.52972994 0.18900303 -6.27159303 -0.93054124 0 0 Z " fill="#557939" transform="translate(168,51)"/>
<path d="M0 0 C1.71275535 1.27358732 3.37667033 2.61423077 5 4 C6.20547915 4.73663581 7.42643322 5.44843117 8.66015625 6.13671875 C10.31337891 7.05904297 10.31337891 7.05904297 12 8 C10.67533109 30.51937143 2.15814365 55.9470884 -13 73 C-17.17234381 71.4156902 -19.63303826 68.32608628 -22.5 65.0625 C-30.55822748 56.11986334 -39.16893553 47.99518049 -49 41 C-44.64759977 33.72763506 -39.27898491 27.60574901 -33.44677734 21.51416016 C-32.05314701 20.0556223 -30.67658985 18.58082934 -29.30078125 17.10546875 C-10.37851967 -2.64550501 -10.37851967 -2.64550501 0 0 Z " fill="#B8C280" transform="translate(332,231)"/>
<path d="M0 0 C2.33992971 1.53557888 3.58140843 2.90089434 5 5.3125 C5 6.6325 5 7.9525 5 9.3125 C4.11699219 9.78558594 3.23398437 10.25867188 2.32421875 10.74609375 C-5.84451782 15.21144093 -12.98778815 20.13709289 -20 26.3125 C-20.85335937 27.03308594 -21.70671875 27.75367188 -22.5859375 28.49609375 C-31.27691762 35.99707813 -38.10634229 44.71710591 -44.4921875 54.21875 C-45.86686272 56.12762543 -47.28486968 57.71034234 -49 59.3125 C-49.69480469 58.87421875 -50.38960938 58.4359375 -51.10546875 57.984375 C-58.2034099 53.55828242 -65.40254734 49.3613736 -72.6875 45.25 C-79.73050859 41.2682459 -86.56530933 37.23824703 -93 32.3125 C-90.24901341 25.43503352 -82.08362158 22.6664366 -75.6875 19.8125 C-61.19712104 14.05680379 -45.91142469 10.76891813 -30.71264648 7.50341797 C-21.94631065 5.59464451 -13.48128133 3.23667804 -5 0.3125 C-2 -0.6875 -2 -0.6875 0 0 Z " fill="#B8C280" transform="translate(312,198.6875)"/>
<path d="M0 0 C0.91007812 0.00902344 1.82015625 0.01804687 2.7578125 0.02734375 C3.45648438 0.03894531 4.15515625 0.05054687 4.875 0.0625 C4.875 0.3925 4.875 0.7225 4.875 1.0625 C4.28332031 1.08828125 3.69164062 1.1140625 3.08203125 1.140625 C-2.1970013 1.51954414 -5.23136661 2.16886661 -9.125 6.0625 C-7.11119047 0.45260202 -5.85719068 -0.07509219 0 0 Z " fill="#85A859" transform="translate(378.125,66.9375)"/>
</svg>
