<?xml version="1.0" encoding="UTF-8"?>
<svg id="Layer_1" xmlns="http://www.w3.org/2000/svg" viewBox="0 0 677.7 525.46">
  <defs>
    <style>
      .cls-1 {
        fill: #7b7b7b;
      }

      .cls-2 {
        fill: #7beff1;
      }

      .cls-3 {
        fill: #65d9db;
      }

      .cls-4 {
        fill: #8ffcfd;
      }

      .cls-5 {
        fill: #fdfefe;
      }
    </style>
  </defs>
  <g>
    <path class="cls-3" d="M172.49,443.75c-3.62,2.92-7.79,5.06-12.42,5.5-24.14,2.29-48.29,4.44-72.61,3.28-8.66-.41-17.34-.76-25.94-1.73-13.53-1.52-21.84-10.25-22.92-23.36-1.08-12.99,5.95-23.18,19.08-26.74,4.72-1.28,9.78-1.75,14.69-1.8,20.7-.22,41.4,0,62.1-.22,15.91-.17,18.08-2.45,18.15-17.85.06-12.83.04-25.67,0-38.5-.12-45.49-26.72-72.4-72.42-73.12-13.25-.21-26.52-.49-39.74.09-11.14.49-20.88-1.24-29.87-7.14-13.84-9.09-14.23-28.82-.56-38.14,11.79-8.04,25.03-7.26,38.73-7.62.85-.02,1.7,0,2.55.09,18.86,1.82,37.76-.35,56.78,2.34,46.39,6.54,85.32,47.25,94.54,90.76,5.96,28.11,2.26,56.82,2.04,85.24-.14,18.34-10.99,32.01-23.71,44.42-2.27,2.21-6.07,2.57-8.47,4.51Z"/>
    <path class="cls-2" d="M170.3,448.28c.41-6.58,7.27-5.72,10.67-9.04,12.72-12.41,23.57-26.08,23.71-44.42.22-28.42,3.91-57.12-2.04-85.24-9.22-43.51-48.14-84.21-94.54-90.76-19.45-2.74-38.77-.41-58.05-2.47,9.8-39.84,31.05-72.56,61.51-99.71,24.99-22.28,54.54-35.37,86.37-44.12,1.24-.03,2.5.09,3.7-.11,42.86-7.09,85.82-5.92,128.96-2.89,9.46.66,19.24,4.94,28.9.51,9.67,9.56,23.5,8.98,35.02,14.29,55.88,25.78,94.39,66.51,112.37,125.94,1.41,4.65.23,11.45,7.6,12.78,3.96,15.02,1.51,30.32,1.58,45.47.06,13.9,2.3,27.98-1.63,41.75-6.51,1.04-6.57,6.79-7.99,11.31-17.48,55.44-52.93,95.47-104.31,121.89-6.02-9.74-11.23-20.08-22.2-25.64-29.81-15.12-61.74-19.63-94.67-19.22-6.68.08-7.7,4.65-7.95,10.2-.85,18.76,2.98,36.87,7.17,54.95-28.03-1.68-56.33.75-84.06-5.45-10.37-2.32-21.31-2.99-30.12-10.03ZM214.98,257.44c-2.48,35.21,29.28,68.75,66.88,68.36,40.42-.41,69-29.3,69.3-67.88.32-42.01-29.71-69.64-69.93-69.62-38.6.02-67.91,32.25-66.25,69.13Z"/>
    <path class="cls-3" d="M514.43,310.27c3.93-13.77,1.7-27.85,1.63-41.75-.07-15.15,2.38-30.45-1.58-45.47-.66-26-1.37-52.02,1.48-77.97.07-.97.14-1.94.2-2.91,6.92-35.89,38.46-63.63,74.81-64.69,25.27-.74,50.57-.03,75.86-.33,7.19-.09,10.94,2.08,10.78,9.78-.85,40.58,1.47,81.17-1.39,121.75-2.2,31.21-18.45,52.08-45.19,66.16-1.44.76-2.74,1.78-3.96,2.58.18,2.71,1.83,4.08,3.66,4.94,33.7,15.9,46.47,44.2,46.77,79.56.3,35.65.1,71.3.07,106.94,0,5.34.83,11.68-7.49,11.39-40.9-1.46-82.11,6.25-122.41-11.28-17.85-7.76-32.09-30.23-31.94-49.7.29-36.35-3.42-72.65-1.3-109.02Z"/>
    <path class="cls-3" d="M284.49,463.76c-4.19-18.08-8.03-36.19-7.17-54.95.25-5.56,1.27-10.12,7.95-10.2,32.93-.41,64.86,4.1,94.67,19.22,10.97,5.56,16.18,15.9,22.2,25.64,6.77,19.76,6.6,38.74-5.73,56.64-25.29,36.72-82.62,32.86-102.67-7.01-4.66-9.26-7.93-19-9.25-29.33Z"/>
    <path class="cls-3" d="M359.49,70.03c-9.66,4.44-19.45.16-28.9-.51-43.13-3.03-86.1-4.2-128.96,2.89-1.21.2-2.47.08-3.7.11C202.75,31.15,235.84.8,277.22.23c23.97-.33,47.96.2,71.93-.22,7.98-.14,11,2.24,10.77,10.51-.56,19.83-.33,39.67-.42,59.51Z"/>
    <path class="cls-2" d="M516.17,142.17c-.07.97-.13,1.94-.2,2.91-1.25-1.06-1.45-2.05.2-2.91Z"/>
    <path class="cls-5" d="M214.98,257.44c-1.66-36.87,27.64-69.11,66.25-69.13,40.22-.02,70.25,27.61,69.93,69.62-.3,38.57-28.88,67.46-69.3,67.88-37.6.38-69.36-33.15-66.88-68.36ZM282.99,291.56c18.73.09,33.82-14.81,34.19-33.75.38-18.99-15.06-35.1-34.1-35.59-18.01-.47-35.26,16.55-35.2,34.73.06,18.75,16.06,34.52,35.11,34.61Z"/>
    <path class="cls-1" d="M282.99,291.56c-19.04-.09-35.04-15.86-35.11-34.61-.06-18.18,17.19-35.2,35.2-34.73,19.05.5,34.48,16.61,34.1,35.59-.37,18.94-15.47,33.84-34.19,33.75Z"/>
  </g>
  <path class="cls-4" d="M418.38,245.73c-.07,16.92-13.36,37.03-28.59,43.23-6.67,2.72-14.62-2.38-13.31-9.64,4.32-23.85.96-47.81,2.02-71.69.56-12.64,2.75-14.02,13.84-7.88,16.58,9.16,26.12,26.01,26.04,45.97Z"/>
  <path class="cls-4" d="M438.28,303.18c0-11.98-.15-23.96.04-35.93.16-9.95,4.45-12.93,13.19-7.79,23.53,13.85,34.04,39.48,22.56,64.56-4.89,10.67-13.58,18.9-24.98,24.6-10.02,5.02-10.68.35-10.76-7.02-.15-12.8-.04-25.61-.05-38.41Z"/>
</svg>