<?xml version="1.0" encoding="UTF-8"?>
<svg version="1.1" xmlns="http://www.w3.org/2000/svg" width="512" height="827">
<path d="M0 0 C2.20429208 6.25848219 3.95463513 12.52899617 5.4609375 18.98828125 C5.68736435 19.94298813 5.9137912 20.89769501 6.14707947 21.8813324 C6.63618619 23.94367569 7.12369954 26.0063974 7.60977173 28.06945801 C8.93748237 33.69630364 10.28367609 39.31872783 11.62890625 44.94140625 C11.90758041 46.10674896 12.18625458 47.27209167 12.47337341 48.4727478 C19.79896084 79.06960957 27.46676723 109.55625131 35.875 139.875 C36.1819278 140.98500366 36.48885559 142.09500732 36.80508423 143.23864746 C40.87908591 157.93482415 45.26405589 172.50338726 50 187 C49.8884407 185.59303108 49.8884407 185.59303108 49.77462769 184.15763855 C46.10522588 137.83075941 42.60153136 91.49792233 39.5625 45.125 C39.4300789 43.11095142 39.29765298 41.09690316 39.16522217 39.08285522 C38.85353943 34.33520732 38.54429958 29.5874068 38.23737526 24.83944893 C38.12468308 23.09659799 38.01159307 21.35377273 37.89807701 19.61097527 C37.74358744 17.23310572 37.5912761 14.85510743 37.43969727 12.47705078 C37.39457441 11.78687457 37.34945156 11.09669836 37.30296135 10.38560772 C37.08459103 6.91764581 36.95302122 3.4748647 37 0 C88.26561806 -1.82305721 88.26561806 -1.82305721 112.79736328 7.83691406 C118.40774832 9.8744102 124.18787439 11.17326886 130 12.5 C131.56053101 12.86375732 131.56053101 12.86375732 133.15258789 13.23486328 C137.42400183 14.22038122 141.69888275 15.15281024 146 16 C146.66 13.69 147.32 11.38 148 9 C151.81235104 8.91190799 155.62443553 8.8592451 159.4375 8.8125 C161.04141602 8.77479492 161.04141602 8.77479492 162.67773438 8.73632812 C171.56241552 8.65481729 178.5363827 9.97667072 185.9375 15.0625 C195.68279309 21.08033075 206.33883553 20.858955 217.32275391 18.50146484 C222.92789114 17.16477776 228.46930914 15.61434309 234 14 C235.13308594 13.67128906 236.26617187 13.34257812 237.43359375 13.00390625 C239.62766808 12.35346436 241.81507694 11.68054981 244 11 C242.68283398 19.38954135 241.06292445 27.67508467 239.2421875 35.96875 C238.69707345 38.48094378 238.15241394 40.99323622 237.6081543 43.50561523 C237.46751588 44.15332099 237.32687746 44.80102674 237.18197727 45.46835995 C228.72904431 84.40569134 221.42699353 123.35391253 215.88891602 162.82373047 C214.37571247 173.50010324 212.8055659 184.01773602 210.04394531 194.45019531 C209.72484653 195.81804415 209.42073059 197.18940936 209.125 198.5625 C208.90297913 199.5791272 208.68095825 200.59575439 208.45220947 201.64318848 C206.58507201 211.70863545 207.60173312 220.10799935 209.453125 230.0625 C209.73688928 231.68182627 210.01861205 233.30151143 210.2984314 234.92152405 C211.02946724 239.12323594 211.78651384 243.31980945 212.5503006 247.51567459 C213.26785254 251.47972815 213.96245692 255.44775802 214.65771484 259.41577148 C215.6086749 264.83008131 216.56547388 270.24329208 217.53082466 275.65505505 C227.23709392 330.07126746 227.23709392 330.07126746 229.42588806 356.37117004 C230.25257561 366.26499817 231.34860101 376.13216534 232.4375 386 C232.59643234 387.4406633 232.59643234 387.4406633 232.75857544 388.91043091 C236.40978585 421.73508779 243.0434809 452.83603195 252.91241455 484.33795166 C259.72828097 506.10100395 265.95655408 528.01110461 272 550 C272.28554749 551.03777588 272.57109497 552.07555176 272.86529541 553.14477539 C281.26458191 583.70616172 289.18611618 614.37859259 296.875 645.125 C297.07623348 645.92888908 297.27746696 646.73277817 297.48479843 647.56102753 C298.64592816 652.20002524 299.80398451 656.83977004 300.95716286 661.48075104 C301.30983228 662.89931425 301.66317819 664.31770948 302.01724815 665.73592377 C302.50455313 667.68941718 302.98843696 669.64376305 303.47216797 671.59814453 C303.74447235 672.69498566 304.01677673 673.79182678 304.29733276 674.92190552 C307.88874555 690.65439926 307.81000902 708.8178931 302 724 C300.80808802 725.88548145 299.6001161 727.76092248 298.375 729.625 C295.0880033 735.70926409 296.36771309 740.44468533 298.125 746.8125 C302.41272975 760.98725828 308.99295563 772.71483587 318.6640625 783.9296875 C321.09038621 787.6897798 320.8385722 791.71011412 320 796 C318.28525229 798.83278835 317.08694327 799.34628039 314 801 C309.8797449 801.79746873 307.72910188 801.93775888 304.0625 799.94921875 C290.53042745 789.39092827 281.56000908 769.30823206 278 753 C276.87980469 753.5775 275.75960938 754.155 274.60546875 754.75 C273.1329735 755.50031605 271.66030836 756.25029875 270.1875 757 C269.08051758 757.57234375 269.08051758 757.57234375 267.95117188 758.15625 C266.88286133 758.69765625 266.88286133 758.69765625 265.79296875 759.25 C265.1383667 759.58515625 264.48376465 759.9203125 263.80932617 760.265625 C262 761 262 761 259 761 C263.783065 773.82875048 269.18331499 786.28932304 274.96606445 798.69848633 C277.63889091 804.6481286 279.03427789 809.43879961 278 816 C275.48577015 819.73325038 273.86635918 820.74796824 269.5625 822 C265.1777306 822 263.59757275 821.54695416 260 819 C257.91543127 815.50713128 256.49712916 811.77434745 255 808 C254.03628425 805.74523747 253.06732794 803.49270924 252.09375 801.2421875 C250.5227376 797.57816176 248.96146563 793.91132694 247.4375 790.22753906 C242.31106543 776.19637767 242.31106543 776.19637767 232.71386719 765.6171875 C227.91432141 764.01409641 223.17646232 763.97177835 218.15917969 764.06103516 C206.18468666 763.72254316 194.10870325 752.9343814 186.31616211 744.69921875 C177.92240303 734.91726445 172.62121269 723.49719602 167.625 711.75 C166.98397203 710.26796744 166.34194879 708.78636502 165.69897461 707.30517578 C163.78195634 702.87746105 161.88917728 698.43964858 160 694 C159.41664726 692.63307684 158.83315514 691.26621314 158.24951172 689.89941406 C155.13960544 682.6107967 152.05482954 675.31187608 149 668 C148.93530518 668.64324219 148.87061035 669.28648437 148.80395508 669.94921875 C145.48782948 701.87511121 145.48782948 701.87511121 136.9375 713.875 C134.09689379 718.4273322 133.73566878 721.14887228 134.7980957 726.23120117 C135.59260998 729.35579753 136.46420969 732.45512674 137.35253906 735.55419922 C138.44390904 739.67687813 139.11671853 743.84847695 139.75 748.0625 C139.87753662 748.90087402 140.00507324 749.73924805 140.13647461 750.60302734 C140.88988097 755.99555559 141.09564431 761.18902737 140.9375 766.625 C140.64679735 776.80441753 142.41115967 787.40139048 146.609375 796.734375 C148.42208245 800.99118238 148.79181975 804.45342205 148 809 C146.20606332 811.87029869 145.01736724 813.49131638 142 815 C134.89201406 815.5826218 134.89201406 815.5826218 131.3984375 813.30078125 C121.18674321 803.50487256 119.2948671 781.44921628 119 768 C119.03719552 765.49992948 119.07903611 762.99992469 119.125 760.5 C119.1956744 752.93783942 118.43464646 744.86929292 115 738 C114.28457031 738.39832031 113.56914062 738.79664063 112.83203125 739.20703125 C104.07112473 743.86515878 95.06914201 747.33378371 85 747 C84.93941406 747.70125 84.87882812 748.4025 84.81640625 749.125 C84.73261719 750.07375 84.64882813 751.0225 84.5625 752 C84.48128906 752.928125 84.40007812 753.85625 84.31640625 754.8125 C84.08096287 757.18437406 83.79409488 759.5512551 83.48046875 761.9140625 C81.88090769 774.60841934 83.27947674 787.12653303 84.93261719 799.73779297 C87.35292408 818.55122359 87.35292408 818.55122359 83 825 C78.97685134 827.68209911 75.72780081 827.68843415 71 827 C67.50109996 824.88608123 66.29421314 823.88263941 65 820 C64.72508879 817.90668069 64.49161106 815.80781923 64.28125 813.70703125 C64.15387451 812.4449585 64.02649902 811.18288574 63.89526367 809.88256836 C63.76282154 808.52594586 63.63108051 807.16925474 63.5 805.8125 C63.4337442 805.12850128 63.3674884 804.44450256 63.29922485 803.73977661 C62.97207489 800.34753302 62.65037172 796.95483288 62.33447266 793.56152344 C62.07243112 790.77125921 61.79530741 787.98341028 61.51171875 785.1953125 C60.41346695 772.46617721 61.73578279 759.5561136 64 747 C63.05640625 746.78085937 62.1128125 746.56171875 61.140625 746.3359375 C52.39723589 744.20925988 44.89623273 741.4113032 37 737 C36.54625 737.99 36.0925 738.98 35.625 740 C35.36976563 740.556875 35.11453125 741.11375 34.8515625 741.6875 C31.97899598 749.48823109 31.85558968 756.25886947 32.0625 764.5 C32.24025098 781.04353794 30.97064921 801.18601738 19 814 C15.34711807 815.21762731 12.84245864 815.39075851 9 815 C5.10946509 812.62245089 3.32230527 811.23675279 2.16015625 806.77734375 C1.97665073 802.44929895 3.03296665 799.46525708 4.8125 795.625 C9.57506462 785.04650353 10.16153202 776.09910649 9.875 764.5 C9.64987092 749.20374269 11.24630257 736.42515693 18.2421875 722.61328125 C19.27295136 719.05873991 18.43462526 717.37583925 17 714 C16.53722656 712.90945313 16.07445312 711.81890625 15.59765625 710.6953125 C15.09105469 709.51710938 14.58445313 708.33890625 14.0625 707.125 C7.0976979 690.14062091 7.42319377 673.42782929 9.16830444 655.36752319 C14.5245964 598.87457832 14.23029612 541.74744688 11.42242432 485.12104797 C11.14640103 479.49719629 10.93385642 473.88029947 10.8170166 468.2509613 C10.10123587 436.73784556 1.66298445 406.96326282 -6.47079182 376.72196674 C-8.18658839 370.33055105 -9.83698886 363.92303052 -11.4765625 357.51171875 C-14.92609796 343.9643941 -14.92609796 343.9643941 -18.5597229 330.46598816 C-19.55169591 326.83821327 -20.36828217 323.22199192 -21.08421326 319.53051758 C-24.79162275 302.21852515 -33.22268609 292.43534028 -45.85478401 280.45445061 C-48.39615368 278.02532941 -50.88700838 275.54533703 -53.38415527 273.07092285 C-58.10218453 268.41031165 -62.86125623 263.7942327 -67.63815641 259.19406176 C-73.58849606 253.45978263 -79.48375128 247.66980959 -85.37890625 241.87890625 C-91.40816722 235.95860618 -97.44167784 230.04330077 -103.51208496 224.16516113 C-104.43349777 223.27153366 -105.35491058 222.37790619 -106.304245 221.4571991 C-108.01088063 219.8033972 -109.71987776 218.1520268 -111.43183899 216.5037384 C-115.66935098 212.39466544 -119.69771436 208.19949497 -123.52744293 203.70633698 C-125.5545891 201.35736555 -127.72738607 199.17611218 -129.9375 197 C-131.09572266 195.8553125 -131.09572266 195.8553125 -132.27734375 194.6875 C-132.84582031 194.130625 -133.41429687 193.57375 -134 193 C-139.62841522 211.01311343 -142.89810853 228.22685573 -143.59814453 247.08081055 C-144.55977652 270.44674293 -150.44672409 292.75944619 -157.75 314.875 C-158.33322021 316.64157959 -158.33322021 316.64157959 -158.92822266 318.44384766 C-161.7428963 326.7428963 -161.7428963 326.7428963 -164 329 C-167.5733326 307.24458108 -170.92451528 285.46152377 -174.15133882 263.6522336 C-174.52540181 261.1243904 -174.89992767 258.59661615 -175.27457237 256.0688591 C-176.45324944 248.1151825 -177.63030217 240.16126815 -178.80490571 232.20698893 C-180.14993294 223.09874484 -181.50065872 213.99136882 -182.85608178 204.88466609 C-183.91384399 197.77550617 -184.96660637 190.665617 -186.01559371 183.55515707 C-186.63836753 179.33450163 -187.26320228 175.11417719 -187.89332008 170.89461136 C-188.48268131 166.94707028 -189.06580681 162.99865712 -189.6442337 159.04949951 C-189.8564337 157.6080656 -190.07082888 156.16695276 -190.28765678 154.72620773 C-193.27468468 134.85478863 -193.27468468 134.85478863 -190.58911133 130.94702148 C-189.59560669 130.29068726 -189.59560669 130.29068726 -188.58203125 129.62109375 C-187.45861328 128.84088867 -187.45861328 128.84088867 -186.3125 128.04492188 C-185.4875 127.51447266 -184.6625 126.98402344 -183.8125 126.4375 C-182.05688371 125.2303478 -180.30303962 124.02061503 -178.55078125 122.80859375 C-177.17720459 121.87635986 -177.17720459 121.87635986 -175.77587891 120.92529297 C-171.23090971 117.77299507 -166.87516699 114.38194323 -162.5 111 C-154.14079023 104.59728336 -145.71108727 98.29879423 -137.20703125 92.08984375 C-134.61575064 90.19708731 -132.04899253 88.28091521 -129.51171875 86.31640625 C-128.53847656 85.57261719 -127.56523438 84.82882813 -126.5625 84.0625 C-125.35787109 83.12083984 -125.35787109 83.12083984 -124.12890625 82.16015625 C-122 81 -122 81 -120.05419922 81.19897461 C-117.44376234 82.21690228 -116.61525238 83.37837175 -115.00390625 85.65625 C-114.45226807 86.42251709 -113.90062988 87.18878418 -113.33227539 87.97827148 C-112.74824951 88.81044189 -112.16422363 89.6426123 -111.5625 90.5 C-110.30347789 92.2523049 -109.04303245 94.00358793 -107.78125 95.75390625 C-107.14703125 96.63836426 -106.5128125 97.52282227 -105.859375 98.43408203 C-103.16258888 102.15561854 -100.37063913 105.79966357 -97.5625 109.4375 C-90.28840249 118.89337341 -83.14327176 128.44512271 -76 138 C-77.56308001 129.23630567 -79.86925738 120.68134029 -82.18359375 112.09375 C-82.59997527 110.53925975 -83.01605004 108.98468731 -83.43183899 107.43003845 C-84.3104908 104.14673961 -85.19094194 100.86393115 -86.07287598 97.58151245 C-87.44240535 92.48374902 -88.80727642 87.3847468 -90.17089844 82.28540039 C-90.39598021 81.44370206 -90.62106197 80.60200373 -90.8529644 79.73479939 C-91.30564898 78.04187374 -91.75831058 76.34894195 -92.21094894 74.65600395 C-92.88506013 72.13510879 -93.55951681 69.61430626 -94.23403931 67.09352112 C-97.5330982 54.76209851 -100.81631021 42.4266575 -104.056427 30.07958984 C-104.51678226 28.32591727 -104.97809789 26.57249651 -105.44039917 24.81933594 C-106.06174008 22.46223952 -106.67991276 20.10433945 -107.296875 17.74609375 C-107.63041992 16.47435303 -107.96396484 15.2026123 -108.30761719 13.89233398 C-109 11 -109 11 -109 9 C-88.61582981 6.90425695 -68.22048421 4.98663311 -47.80615234 3.21020508 C-43.95584562 2.87494098 -40.10607929 2.53382452 -36.25639725 2.19147205 C-33.23158105 1.92342666 -30.2064306 1.65931443 -27.18117523 1.39627647 C-25.76027842 1.27210575 -24.33950154 1.1465533 -22.91886139 1.01947975 C-15.26056797 0.33602088 -7.69113263 -0.19665551 0 0 Z M-75 139 C-74 141 -74 141 -74 141 Z " fill="#61A521" transform="translate(192,0)"/>
<path d="M0 0 C0.99 0.495 0.99 0.495 2 1 C2.66333008 3.01733398 2.66333008 3.01733398 3.26953125 5.74609375 C3.5113916 6.78813965 3.75325195 7.83018555 4.00244141 8.90380859 C4.26976074 10.06992676 4.53708008 11.23604492 4.8125 12.4375 C7.75872978 24.75065323 11.315877 36.80324469 15.125 48.875 C22.22437671 71.45500841 28.72743721 94.1774698 35 117 C35.28554749 118.03777588 35.57109497 119.07555176 35.86529541 120.14477539 C44.26458191 150.70616172 52.18611618 181.37859259 59.875 212.125 C60.07623348 212.92888908 60.27746696 213.73277817 60.48479843 214.56102753 C61.64592816 219.20002524 62.80398451 223.83977004 63.95716286 228.48075104 C64.30983228 229.89931425 64.66317819 231.31770948 65.01724815 232.73592377 C65.50455313 234.68941718 65.98843696 236.64376305 66.47216797 238.59814453 C66.74447235 239.69498566 67.01677673 240.79182678 67.29733276 241.92190552 C70.88874555 257.65439926 70.81000902 275.8178931 65 291 C63.80808802 292.88548145 62.6001161 294.76092248 61.375 296.625 C58.0880033 302.70926409 59.36771309 307.44468533 61.125 313.8125 C65.41272975 327.98725828 71.99295563 339.71483587 81.6640625 350.9296875 C84.09038621 354.6897798 83.8385722 358.71011412 83 363 C81.28525229 365.83278835 80.08694327 366.34628039 77 368 C72.8797449 368.79746873 70.72910188 368.93775888 67.0625 366.94921875 C53.53042745 356.39092827 44.56000908 336.30823206 41 320 C39.87980469 320.5775 38.75960938 321.155 37.60546875 321.75 C36.1329735 322.50031605 34.66030836 323.25029875 33.1875 324 C32.44951172 324.3815625 31.71152344 324.763125 30.95117188 325.15625 C30.23896484 325.5171875 29.52675781 325.878125 28.79296875 326.25 C28.1383667 326.58515625 27.48376465 326.9203125 26.80932617 327.265625 C25 328 25 328 22 328 C26.783065 340.82875048 32.18331499 353.28932304 37.96606445 365.69848633 C40.63889091 371.6481286 42.03427789 376.43879961 41 383 C38.48577015 386.73325038 36.86635918 387.74796824 32.5625 389 C28.1777306 389 26.59757275 388.54695416 23 386 C20.91543127 382.50713128 19.49712916 378.77434745 18 375 C17.03628425 372.74523747 16.06732794 370.49270924 15.09375 368.2421875 C13.5227376 364.57816176 11.96146563 360.91132694 10.4375 357.22753906 C5.31106543 343.19637767 5.31106543 343.19637767 -4.28613281 332.6171875 C-9.08567859 331.01409641 -13.82353768 330.97177835 -18.84082031 331.06103516 C-30.81531334 330.72254316 -42.89129675 319.9343814 -50.68383789 311.69921875 C-59.07759697 301.91726445 -64.37878731 290.49719602 -69.375 278.75 C-70.01602797 277.26796744 -70.65805121 275.78636502 -71.30102539 274.30517578 C-73.21804366 269.87746105 -75.11082272 265.43964858 -77 261 C-77.58335274 259.63307684 -78.16684486 258.26621314 -78.75048828 256.89941406 C-81.86039456 249.6107967 -84.94517046 242.31187608 -88 235 C-88.06469482 235.64324219 -88.12938965 236.28648437 -88.19604492 236.94921875 C-91.51217052 268.87511121 -91.51217052 268.87511121 -100.0625 280.875 C-102.90310621 285.4273322 -103.26433122 288.14887228 -102.2019043 293.23120117 C-101.40739002 296.35579753 -100.53579031 299.45512674 -99.64746094 302.55419922 C-98.55609096 306.67687813 -97.88328147 310.84847695 -97.25 315.0625 C-97.12246338 315.90087402 -96.99492676 316.73924805 -96.86352539 317.60302734 C-96.11011903 322.99555559 -95.90435569 328.18902737 -96.0625 333.625 C-96.35320265 343.80441753 -94.58884033 354.40139048 -90.390625 363.734375 C-88.57791755 367.99118238 -88.20818025 371.45342205 -89 376 C-90.79393668 378.87029869 -91.98263276 380.49131638 -95 382 C-102.10798594 382.5826218 -102.10798594 382.5826218 -105.6015625 380.30078125 C-115.81325679 370.50487256 -117.7051329 348.44921628 -118 335 C-117.96280448 332.49992948 -117.92096389 329.99992469 -117.875 327.5 C-117.8043256 319.93783942 -118.56535354 311.86929292 -122 305 C-123.07314453 305.59748047 -123.07314453 305.59748047 -124.16796875 306.20703125 C-132.92887527 310.86515878 -141.93085799 314.33378371 -152 314 C-152.06058594 314.70125 -152.12117188 315.4025 -152.18359375 316.125 C-152.30927734 317.548125 -152.30927734 317.548125 -152.4375 319 C-152.55931641 320.3921875 -152.55931641 320.3921875 -152.68359375 321.8125 C-152.91903713 324.18437406 -153.20590512 326.5512551 -153.51953125 328.9140625 C-155.11909231 341.60841934 -153.72052326 354.12653303 -152.06738281 366.73779297 C-149.64707592 385.55122359 -149.64707592 385.55122359 -154 392 C-158.02314866 394.68209911 -161.27219919 394.68843415 -166 394 C-169.49890004 391.88608123 -170.70578686 390.88263941 -172 387 C-172.27491121 384.90668069 -172.50838894 382.80781923 -172.71875 380.70703125 C-172.84612549 379.4449585 -172.97350098 378.18288574 -173.10473633 376.88256836 C-173.23717846 375.52594586 -173.36891949 374.16925474 -173.5 372.8125 C-173.5662558 372.12850128 -173.6325116 371.44450256 -173.70077515 370.73977661 C-174.02792511 367.34753302 -174.34962828 363.95483288 -174.66552734 360.56152344 C-174.92756888 357.77125921 -175.20469259 354.98341028 -175.48828125 352.1953125 C-176.58653305 339.46617721 -175.26421721 326.5561136 -173 314 C-173.94359375 313.78085937 -174.8871875 313.56171875 -175.859375 313.3359375 C-184.60276411 311.20925988 -192.10376727 308.4113032 -200 304 C-200.45375 304.99 -200.9075 305.98 -201.375 307 C-201.75785156 307.8353125 -201.75785156 307.8353125 -202.1484375 308.6875 C-205.02100402 316.48823109 -205.14441032 323.25886947 -204.9375 331.5 C-204.75974902 348.04353794 -206.02935079 368.18601738 -218 381 C-221.65288193 382.21762731 -224.15754136 382.39075851 -228 382 C-231.89053491 379.62245089 -233.67769473 378.23675279 -234.83984375 373.77734375 C-235.02334927 369.44929895 -233.96703335 366.46525708 -232.1875 362.625 C-227.42493538 352.04650353 -226.83846798 343.09910649 -227.125 331.5 C-227.35012908 316.20374269 -225.75369743 303.42515693 -218.7578125 289.61328125 C-217.72704864 286.05873991 -218.56537474 284.37583925 -220 281 C-220.46277344 279.90945313 -220.92554688 278.81890625 -221.40234375 277.6953125 C-221.90894531 276.51710938 -222.41554687 275.33890625 -222.9375 274.125 C-229.9023021 257.14062091 -229.57680623 240.42782929 -227.83169556 222.36752319 C-221.40066443 154.53927747 -222.66556194 85.67930121 -227.6328125 17.796875 C-227.98211682 12.84866543 -228.07324013 7.95940303 -228 3 C-226.63875 4.2065625 -226.63875 4.2065625 -225.25 5.4375 C-212.02901943 16.68996435 -198.74282048 26.40526284 -180.875 26.375 C-179.94155762 26.37411377 -179.00811523 26.37322754 -178.04638672 26.37231445 C-169.95517694 26.23392512 -163.34475025 24.54969124 -156.04296875 21.06640625 C-150.19179773 18.3059215 -145.31793132 17.88330012 -139.1796875 19.94921875 C-135.06238921 21.65311374 -131.03155935 23.4991116 -127.0234375 25.4453125 C-117.3497875 29.91203743 -109.03488806 30.63066721 -98.92675781 27.13598633 C-91.57685506 24.40994553 -84.835579 20.83237575 -78 17 C-77.89124113 33.69866964 -77.90161185 50.32803694 -79 67 C-48.80665382 61.73371869 -25.65880672 37.65180488 -8.49609375 13.6171875 C-5.42059599 9.22162898 -2.61276153 4.68533186 0 0 Z " fill="#F3F0E3" transform="translate(429,433)"/>
<path d="M0 0 C1.46304314 0.00449409 1.46304314 0.00449409 2.9556427 0.00907898 C3.69110825 0.01293106 4.42657379 0.01678314 5.18432617 0.02075195 C5.42409935 0.93679199 5.42409935 0.93679199 5.66871643 1.87133789 C7.36890327 8.36408885 9.07383729 14.85558115 10.78125 21.34643555 C11.41359558 23.75270635 12.04482314 26.1592713 12.67480469 28.56616211 C16.68246596 43.87395688 20.85298175 59.11584204 25.36923218 74.28179932 C26.14009899 76.87213577 26.90385984 79.46446267 27.66601562 82.05737305 C31.68395265 95.66328839 36.02710318 109.16158305 40.43432617 122.64575195 C40.82083344 123.82973572 41.2073407 125.01371948 41.6055603 126.23358154 C48.98961213 148.80358854 56.93117948 171.14780879 65.07125854 193.45417786 C68.51111967 202.88981287 71.86467465 212.35474022 75.18432617 221.83325195 C75.57666443 222.9531955 75.57666443 222.9531955 75.97692871 224.09576416 C77.476734 228.37993127 78.97210074 232.66562981 80.46429443 236.95245361 C81.1882132 239.03191749 81.91303618 241.11106469 82.63793945 243.19018555 C84.01168396 247.13228708 85.37997889 251.07625341 86.74682617 255.02075195 C87.14063477 256.15359619 87.53444336 257.28644043 87.94018555 258.45361328 C90.18173862 264.94973154 92.27771103 271.47588455 94.27539062 278.05102539 C95.03808974 280.54295987 95.825992 283.02227199 96.64135742 285.49731445 C99.70614708 294.84080538 102.34869779 304.25024497 104.80932617 313.77075195 C105.12321289 314.93582275 105.43709961 316.10089355 105.76049805 317.30126953 C108.29052503 326.82747125 108.29052503 326.82747125 108.60229492 331.5871582 C109.03870761 335.73091829 109.45282776 338.84502417 112.18432617 342.02075195 C120.05688903 347.99545066 129.23426002 351.95278115 138.18432617 356.02075195 C139.97433834 356.8677061 141.76350346 357.7164546 143.55151367 358.56762695 C147.71574726 360.51665208 151.91809025 362.30615714 156.18432617 364.02075195 C157.58424805 364.58729492 157.58424805 364.58729492 159.01245117 365.1652832 C171.27872521 369.49804774 183.58984867 367.16094994 195.18432617 362.02075195 C206.18199725 356.74854955 215.57102766 349.63405047 224.18432617 341.02075195 C224.83113031 339.00843205 225.39373215 336.96866161 225.91088867 334.91918945 C226.22026367 333.7074707 226.52963867 332.49575195 226.84838867 331.24731445 C227.16549805 329.97629883 227.48260742 328.7052832 227.80932617 327.39575195 C228.2965918 325.47762695 228.2965918 325.47762695 228.79370117 323.52075195 C229.59679868 320.35560294 230.39338165 317.18895577 231.18432617 314.02075195 C248.65711081 313.36278098 259.70602423 315.55287167 274.18432617 326.02075195 C275.17432617 326.68075195 276.16432617 327.34075195 277.18432617 328.02075195 C277.73922729 330.29684448 277.73922729 330.29684448 277.99633789 333.18432617 C278.10026352 334.27040665 278.20418915 335.35648712 278.31126404 336.47547913 C278.41117142 337.66346603 278.5110788 338.85145294 278.61401367 340.07543945 C278.72959122 341.30834213 278.84516876 342.54124481 278.96424866 343.81150818 C279.21201417 346.462098 279.45512804 349.11263166 279.69039917 351.76431274 C280.30090989 358.6353459 280.95814677 365.50195782 281.61791992 372.3684082 C281.68275385 373.04741621 281.74758778 373.72642422 281.81438637 374.42600822 C283.07364314 387.56257381 284.74672342 400.61192659 286.79907227 413.6472168 C286.99710449 414.94224121 287.19513672 416.23726563 287.39916992 417.5715332 C287.57569092 418.66119385 287.75221191 419.75085449 287.93408203 420.87353516 C288.32477265 425.78708912 288.05216766 430.44657892 285.21557617 434.59887695 C284.81395264 435.19676025 284.4123291 435.79464355 283.99853516 436.41064453 C283.56484619 437.02447998 283.13115723 437.63831543 282.68432617 438.27075195 C282.23581299 438.92261475 281.7872998 439.57447754 281.32519531 440.24609375 C274.67723862 449.78212598 267.08164867 458.50576177 259.18432617 467.02075195 C258.64678711 467.61243164 258.10924805 468.20411133 257.55541992 468.8137207 C246.02595399 480.97889653 230.68324456 492.30040761 214.18432617 496.02075195 C212.20432617 496.02075195 210.22432617 496.02075195 208.18432617 496.02075195 C208.18432617 479.85075195 208.18432617 463.68075195 208.18432617 447.02075195 C204.22432617 449.33075195 200.26432617 451.64075195 196.18432617 454.02075195 C186.52326384 458.56654653 176.60977525 461.34416833 166.12573242 458.0637207 C163.08560226 456.81841381 160.13940467 455.45563259 157.18432617 454.02075195 C145.41915222 448.53744761 145.41915222 448.53744761 132.94995117 450.08325195 C130.71895139 450.93123377 128.50001702 451.81200193 126.29760742 452.73168945 C115.4586699 457.21958077 101.59376762 458.30328216 90.24682617 454.58325195 C80.2636204 450.06553542 62.95159133 440.75623697 58.4059906 430.21595764 C56.26723867 423.58765547 54.56924854 416.87512556 52.91870117 410.1105957 C52.44246628 408.18202087 51.96621976 406.25344887 51.48951054 404.32499123 C50.98376676 402.27745523 50.47948127 400.22956418 49.97543335 398.18161011 C44.15478605 374.54997493 38.15492456 350.97126804 31.87182617 327.45825195 C31.55395142 326.26134735 31.23607666 325.06444275 30.90856934 323.83126831 C30.01042057 320.45397767 29.10471588 317.07881857 28.19604492 313.7043457 C27.93419907 312.71865601 27.67235321 311.73296631 27.40257263 310.71740723 C27.15354691 309.80100464 26.90452118 308.88460205 26.64794922 307.94042969 C26.43639694 307.15417709 26.22484467 306.3679245 26.00688171 305.55784607 C23.37313687 297.4343113 19.78560708 293.06524675 13.69311523 287.09130859 C12.82609985 286.2253154 11.95908447 285.3593222 11.0657959 284.46708679 C8.69656239 282.10436749 6.31885031 279.75083376 3.937047 277.4008286 C1.43708073 274.92973606 -1.05103742 272.44677258 -3.54034424 269.96495056 C-8.25925265 265.26361157 -12.98783065 260.57213189 -17.72037148 255.88451999 C-24.64724588 249.02273426 -31.5616755 242.14842629 -38.47348404 235.27146816 C-39.23740263 234.51140369 -39.23740263 234.51140369 -40.01675391 233.73598439 C-41.03323653 232.72460173 -42.04968533 231.71318508 -43.06609941 230.70173353 C-46.02371628 227.75927134 -48.98485515 224.82041419 -51.94918013 221.88471043 C-54.23690617 219.61817553 -56.52153545 217.34852082 -58.80688477 215.07958984 C-59.61857117 214.2777829 -60.43025757 213.47597595 -61.26654053 212.64987183 C-65.46543484 208.47523816 -69.49395516 204.22198009 -73.34212112 199.72083187 C-75.37314054 197.37758666 -77.54428826 195.19565466 -79.75317383 193.02075195 C-80.91139648 191.87606445 -80.91139648 191.87606445 -82.09301758 190.70825195 C-82.66149414 190.15137695 -83.2299707 189.59450195 -83.81567383 189.02075195 C-89.44408905 207.03386538 -92.71378235 224.24760768 -93.41381836 243.1015625 C-94.37545035 266.46749488 -100.26239792 288.78019815 -107.56567383 310.89575195 C-108.14889404 312.66233154 -108.14889404 312.66233154 -108.74389648 314.46459961 C-111.55857012 322.76364825 -111.55857012 322.76364825 -113.81567383 325.02075195 C-117.38900643 303.26533303 -120.74018911 281.48227572 -123.96701264 259.67298555 C-124.34107564 257.14514235 -124.7156015 254.6173681 -125.0902462 252.08961105 C-126.26892326 244.13593445 -127.44597599 236.1820201 -128.62057954 228.22774088 C-129.96560677 219.11949679 -131.31633254 210.01212077 -132.67175561 200.90541804 C-133.72951781 193.79625812 -134.7822802 186.68636896 -135.83126754 179.57590902 C-136.45404136 175.35525358 -137.07887611 171.13492915 -137.70899391 166.91536331 C-138.29835514 162.96782223 -138.88148064 159.01940907 -139.45990753 155.07025146 C-139.67210752 153.62881755 -139.88650271 152.18770471 -140.10333061 150.74695969 C-143.09035851 130.87554059 -143.09035851 130.87554059 -140.40478516 126.96777344 C-139.74244873 126.53021729 -139.0801123 126.09266113 -138.39770508 125.6418457 C-137.64875977 125.12170898 -136.89981445 124.60157227 -136.12817383 124.06567383 C-135.30317383 123.53522461 -134.47817383 123.00477539 -133.62817383 122.45825195 C-131.87255754 121.25109976 -130.11871345 120.04136698 -128.36645508 118.8293457 C-126.99287842 117.89711182 -126.99287842 117.89711182 -125.59155273 116.94604492 C-121.04658354 113.79374703 -116.69084082 110.40269518 -112.31567383 107.02075195 C-103.95646406 100.61803531 -95.5267611 94.31954618 -87.02270508 88.1105957 C-84.43142447 86.21783927 -81.86466636 84.30166716 -79.32739258 82.3371582 C-78.35415039 81.59336914 -77.3809082 80.84958008 -76.37817383 80.08325195 C-75.17354492 79.1415918 -75.17354492 79.1415918 -73.94458008 78.1809082 C-71.81567383 77.02075195 -71.81567383 77.02075195 -69.86987305 77.21972656 C-67.25943617 78.23765423 -66.4309262 79.3991237 -64.81958008 81.67700195 C-64.26794189 82.44326904 -63.71630371 83.20953613 -63.14794922 83.99902344 C-62.56392334 84.83119385 -61.97989746 85.66336426 -61.37817383 86.52075195 C-60.11915172 88.27305686 -58.85870628 90.02433989 -57.59692383 91.7746582 C-56.96270508 92.65911621 -56.32848633 93.54357422 -55.67504883 94.45483398 C-52.97826271 98.1763705 -50.18631295 101.82041552 -47.37817383 105.45825195 C-40.10407632 114.91412536 -32.95894559 124.46587466 -25.81567383 134.02075195 C-27.37875384 125.25705762 -29.68493121 116.70209224 -31.99926758 108.11450195 C-32.4156491 106.5600117 -32.83172387 105.00543926 -33.24751282 103.45079041 C-34.12616463 100.16749156 -35.00661576 96.88468311 -35.8885498 93.6022644 C-37.25807918 88.50450097 -38.62295025 83.40549875 -39.98657227 78.30615234 C-40.21165403 77.46445401 -40.4367358 76.62275568 -40.66863823 75.75555134 C-41.12132281 74.06262569 -41.57398441 72.36969391 -42.02662277 70.67675591 C-42.70073396 68.15586074 -43.37519063 65.63505821 -44.04971313 63.11427307 C-47.34877203 50.78285046 -50.63198404 38.44740945 -53.87210083 26.1003418 C-54.33245609 24.34666922 -54.79377172 22.59324846 -55.256073 20.84008789 C-55.87741391 18.48299147 -56.49558658 16.1250914 -57.11254883 13.7668457 C-57.44609375 12.49510498 -57.77963867 11.22336426 -58.12329102 9.91308594 C-58.81567383 7.02075195 -58.81567383 7.02075195 -58.81567383 5.02075195 C-44.59218138 3.57005748 -30.36750897 2.12084501 -16.12817383 0.83325195 C-15.24121826 0.74962402 -14.3542627 0.66599609 -13.44042969 0.57983398 C-8.94781814 0.18353988 -4.51140492 -0.01805837 0 0 Z M-24.81567383 135.02075195 C-23.81567383 137.02075195 -23.81567383 137.02075195 -23.81567383 137.02075195 Z " fill="#7DC333" transform="translate(141.815673828125,3.979248046875)"/>
<path d="M0 0 C0.99 0.495 0.99 0.495 2 1 C2.66333008 3.01733398 2.66333008 3.01733398 3.26953125 5.74609375 C3.5113916 6.78813965 3.75325195 7.83018555 4.00244141 8.90380859 C4.26976074 10.06992676 4.53708008 11.23604492 4.8125 12.4375 C7.75872978 24.75065323 11.315877 36.80324469 15.125 48.875 C22.22437671 71.45500841 28.72743721 94.1774698 35 117 C35.28554749 118.03777588 35.57109497 119.07555176 35.86529541 120.14477539 C44.26458191 150.70616172 52.18611618 181.37859259 59.875 212.125 C60.07623348 212.92888908 60.27746696 213.73277817 60.48479843 214.56102753 C61.64592816 219.20002524 62.80398451 223.83977004 63.95716286 228.48075104 C64.30983228 229.89931425 64.66317819 231.31770948 65.01724815 232.73592377 C65.50455313 234.68941718 65.98843696 236.64376305 66.47216797 238.59814453 C66.74447235 239.69498566 67.01677673 240.79182678 67.29733276 241.92190552 C70.88874555 257.65439926 70.81000902 275.8178931 65 291 C63.80808802 292.88548145 62.6001161 294.76092248 61.375 296.625 C58.0880033 302.70926409 59.36771309 307.44468533 61.125 313.8125 C65.41272975 327.98725828 71.99295563 339.71483587 81.6640625 350.9296875 C84.09038621 354.6897798 83.8385722 358.71011412 83 363 C81.28525229 365.83278835 80.08694327 366.34628039 77 368 C72.8797449 368.79746873 70.72910188 368.93775888 67.0625 366.94921875 C53.53042745 356.39092827 44.56000908 336.30823206 41 320 C39.31970703 320.86625 39.31970703 320.86625 37.60546875 321.75 C36.1329735 322.50031605 34.66030836 323.25029875 33.1875 324 C32.44951172 324.3815625 31.71152344 324.763125 30.95117188 325.15625 C30.23896484 325.5171875 29.52675781 325.878125 28.79296875 326.25 C28.1383667 326.58515625 27.48376465 326.9203125 26.80932617 327.265625 C25 328 25 328 22 328 C26.783065 340.82875048 32.18331499 353.28932304 37.96606445 365.69848633 C40.63889091 371.6481286 42.03427789 376.43879961 41 383 C38.48577015 386.73325038 36.86635918 387.74796824 32.5625 389 C28.1777306 389 26.59757275 388.54695416 23 386 C20.91543127 382.50713128 19.49712916 378.77434745 18 375 C17.03628425 372.74523747 16.06732794 370.49270924 15.09375 368.2421875 C13.5227376 364.57816176 11.96146563 360.91132694 10.4375 357.22753906 C5.31106543 343.19637767 5.31106543 343.19637767 -4.28613281 332.6171875 C-9.08567859 331.01409641 -13.82353768 330.97177835 -18.84082031 331.06103516 C-30.81540266 330.72254063 -42.89060099 319.93447524 -50.68359375 311.69970703 C-59.04335427 301.95663875 -64.35130977 290.58379665 -69.3125 278.875 C-70.27427275 276.6270883 -71.23789895 274.37997694 -72.20162964 272.13290405 C-72.84980198 270.62016349 -73.49623301 269.10667561 -74.14089966 267.59243774 C-75.9363817 263.39418246 -77.80072234 259.24271987 -79.77616882 255.12606812 C-80.65596996 253.29065648 -81.51825638 251.4479835 -82.37573242 249.60205078 C-83.41279871 247.382015 -84.47927208 245.1753244 -85.58325195 242.98779297 C-89.76412482 233.82488738 -89.1626379 226.02784758 -88.27966309 216.27099609 C-87.96330571 212.57081614 -87.71347321 208.8680724 -87.47753906 205.16210938 C-87.43267616 204.45976071 -87.38781326 203.75741205 -87.34159088 203.0337801 C-87.24773816 201.56365078 -87.15396704 200.09351624 -87.06027222 198.62337685 C-86.81055341 194.7499044 -86.54801789 190.87730439 -86.28613281 187.00463867 C-84.10464481 154.6571932 -82.10712054 122.31067832 -80.42819214 89.93278503 C-80.02681632 82.28294718 -79.54550762 74.64091606 -79 67 C-78.14607666 66.84200928 -77.29215332 66.68401855 -76.41235352 66.52124023 C-46.28509967 60.73116999 -22.56383638 34.35818732 -6 10 C-3.905903 6.71561665 -1.89703342 3.40185318 0 0 Z " fill="#E3E0CC" transform="translate(429,433)"/>
<path d="M0 0 C0.515625 0.7425 1.03125 1.485 1.5625 2.25 C5.24889127 6.40900553 8.40284708 8.74760335 13.9543457 9.28710938 C17.43561984 9.32193492 20.89580766 9.24952641 24.375 9.125 C32.22451967 8.8936277 39.44174254 8.68820611 47 11 C47.74958984 11.22768066 48.49917969 11.45536133 49.27148438 11.68994141 C62.48007033 15.96604328 74.0735886 22.25410823 85.92578125 29.390625 C118.23838519 49.38537458 118.23838519 49.38537458 154.75 52.16015625 C170.43873705 47.30645323 183.4410927 38.5589073 195 27 C195.64680414 24.98768009 196.20940597 22.94790966 196.7265625 20.8984375 C197.0359375 19.68671875 197.3453125 18.475 197.6640625 17.2265625 C198.13972656 15.32003906 198.13972656 15.32003906 198.625 13.375 C198.94984375 12.09625 199.2746875 10.8175 199.609375 9.5 C200.41247251 6.33485099 201.20905548 3.16820382 202 0 C219.47278464 -0.65797097 230.52169806 1.53211972 245 12 C245.99 12.66 246.98 13.32 248 14 C248.55490112 16.27609253 248.55490112 16.27609253 248.81201172 19.16357422 C248.91593735 20.24965469 249.01986298 21.33573517 249.12693787 22.45472717 C249.22684525 23.64271408 249.32675262 24.83070099 249.4296875 26.0546875 C249.54526505 27.28759018 249.66084259 28.52049286 249.77992249 29.79075623 C250.027688 32.44134604 250.27080187 35.0918797 250.506073 37.74356079 C251.11658372 44.61459395 251.7738206 51.48120586 252.43359375 58.34765625 C252.49842768 59.02666426 252.5632616 59.70567226 252.6300602 60.40525627 C253.88931697 73.54182186 255.56239725 86.59117464 257.61474609 99.62646484 C257.81277832 100.92148926 258.01081055 102.21651367 258.21484375 103.55078125 C258.39136475 104.64044189 258.56788574 105.73010254 258.74975586 106.8527832 C259.14044648 111.76633716 258.86784149 116.42582697 256.03125 120.578125 C255.62962646 121.1760083 255.22800293 121.7738916 254.81420898 122.38989258 C254.16367554 123.31064575 254.16367554 123.31064575 253.5 124.25 C253.05148682 124.90186279 252.60297363 125.55372559 252.14086914 126.2253418 C245.49291245 135.76137403 237.8973225 144.48500982 230 153 C229.46246094 153.59167969 228.92492187 154.18335938 228.37109375 154.79296875 C216.84162782 166.95814458 201.49891839 178.27965566 185 182 C183.02 182 181.04 182 179 182 C179 165.83 179 149.66 179 133 C175.04 135.31 171.08 137.62 167 140 C157.33893767 144.54579458 147.42544908 147.32341638 136.94140625 144.04296875 C133.90127609 142.79766186 130.9550785 141.43488064 128 140 C116.23482605 134.51669566 116.23482605 134.51669566 103.765625 136.0625 C101.53462522 136.91048182 99.31569085 137.79124998 97.11328125 138.7109375 C86.27434373 143.19882882 72.40944145 144.28253021 61.0625 140.5625 C51.08114766 136.0456222 33.78607973 126.74447346 29.22660828 116.21374512 C27.02791203 109.40793736 25.2945034 102.50739548 23.59375 95.5625 C23.26937353 94.25085427 22.94457484 92.9393129 22.61938477 91.62786865 C21.93183706 88.85335688 21.24604 86.07842195 20.56176758 83.30310059 C18.7803106 76.07979866 16.98717019 68.85940942 15.1875 61.640625 C15.00902023 60.92457344 14.83054047 60.20852188 14.64665222 59.47077179 C10.99092805 44.82256504 7.12506971 30.23465471 3.09960938 15.68359375 C2.88594727 14.90493958 2.67228516 14.1262854 2.45214844 13.32403564 C2.06224947 11.90474551 1.66810212 10.48661155 1.26855469 9.07000732 C0.388835 5.865 0 3.36838893 0 0 Z " fill="#B6DC79" transform="translate(171,318)"/>
<path d="M0 0 C51.26480454 -1.82302828 51.26480454 -1.82302828 75.80175781 7.84130859 C81.38848001 9.8653226 87.14784735 11.13408136 92.9375 12.4375 C104.94954065 15.16269245 104.94954065 15.16269245 110 17 C110.20227619 24.00742518 109.44411436 30.47841389 108.25 37.375 C107.87609189 39.61563358 107.50374676 41.85652843 107.1328125 44.09765625 C106.94235352 45.24379395 106.75189453 46.38993164 106.55566406 47.57080078 C105.67992639 52.97528732 104.90661959 58.39376009 104.125 63.8125 C101.04968608 84.80627192 97.91317184 105.87694803 93.4375 126.625 C93.26420166 127.43227539 93.09090332 128.23955078 92.91235352 129.07128906 C91.72550285 134.34546713 90.29784379 139.54112853 88.828125 144.7421875 C85.21898963 157.55405937 82.05269627 170.48183733 78.83652115 183.39657211 C78.30707866 185.52176132 77.77674458 187.64672631 77.2461853 189.77163696 C72.07485086 210.48835407 67.00666214 231.22738896 62.11328125 252.01171875 C61.94383499 252.72806488 61.77438873 253.44441101 61.59980774 254.1824646 C60.61048407 258.37193824 59.64358521 262.56574352 58.69287109 266.76416016 C58.24712582 268.70346328 57.80132599 270.64275386 57.35546875 272.58203125 C57.15037186 273.50465256 56.94527496 274.42727386 56.73396301 275.37785339 C56.53711411 276.22745132 56.3402652 277.07704926 56.13745117 277.95239258 C55.96590012 278.71038651 55.79434906 279.46838043 55.61759949 280.24934387 C55 282 55 282 53 283 C52.65855957 282.34217529 52.31711914 281.68435059 51.96533203 281.0065918 C50.9391752 279.03007968 49.91260761 277.05378079 48.88574219 275.07763672 C47.70011414 272.79482597 46.51589618 270.51128236 45.33300781 268.22705078 C42.67356326 263.09976225 40.00889175 257.97983382 37.2265625 252.91796875 C30.70520418 241.00358467 25.68569491 228.73998548 21 216 C20.7225293 215.25186035 20.44505859 214.5037207 20.15917969 213.73291016 C16.81189214 204.68148369 13.87839972 196.1013126 13.07470703 186.45678711 C13.00002575 185.62266108 12.92534447 184.78853504 12.84840012 183.92913246 C12.60228884 181.14997401 12.36708489 178.37002363 12.1328125 175.58984375 C11.96014234 173.59300472 11.78738001 171.59617366 11.61453247 169.59934998 C9.5504023 145.48650023 7.83830773 121.34649111 6.13342285 97.20611572 C5.78796456 92.3353496 5.43691644 87.46499237 5.0860405 82.59461403 C3.1063563 55.07538846 1.29105222 27.56078647 0 0 Z " fill="#3B891A" transform="translate(229,0)"/>
<path d="M0 0 C2.61043688 1.01792767 3.43894684 2.17939714 5.05029297 4.45727539 C5.87762939 5.60655518 5.87762939 5.60655518 6.72167969 6.77905273 C7.30578613 7.61130371 7.88989258 8.44355469 8.49169922 9.30102539 C9.75205652 11.05460888 11.01380304 12.80719463 12.27685547 14.55883789 C12.91123535 15.44345703 13.54561523 16.32807617 14.19921875 17.23950195 C16.87650445 20.93653822 19.64374734 24.56016884 22.42919922 28.17602539 C22.94659668 28.85141357 23.46399414 29.52680176 23.99707031 30.22265625 C27.07852005 34.24313872 30.17812311 38.24912618 33.28466797 42.25024414 C34.72876866 44.12126822 36.17278026 45.99236106 37.61669922 47.86352539 C38.29587402 48.73219238 38.97504883 49.60085937 39.67480469 50.49584961 C45.97224774 58.67699458 49.38610486 66.10163001 51.99169922 76.05102539 C55.28346786 88.18516886 58.79505655 100.24677961 62.36669922 112.30102539 C62.64748322 113.24902008 62.92826721 114.19701477 63.21755981 115.17373657 C65.15703892 121.71797717 67.10350353 128.26012012 69.05419922 134.80102539 C69.29906067 135.62237976 69.54392212 136.44373413 69.79620361 137.28997803 C75.97071517 158.03593707 75.97071517 158.03593707 82.67919922 178.61352539 C85.3155234 186.35447369 87.71641813 194.15689305 89.99676514 202.00912476 C90.54416739 203.89152802 91.09916286 205.77171784 91.65429688 207.65185547 C92.14615479 209.36924927 92.14615479 209.36924927 92.64794922 211.12133789 C92.94378906 212.14501465 93.23962891 213.16869141 93.54443359 214.22338867 C94.05419922 216.80102539 94.05419922 216.80102539 93.05419922 219.80102539 C81.3070984 208.07733544 69.56290072 196.35074618 57.82210445 184.6207428 C52.36998936 179.17377331 46.91694598 173.7277394 41.46166992 168.28393555 C36.70416062 163.53642627 31.94844068 158.78713289 27.1948176 154.03573227 C24.68021249 151.52242526 22.16474973 149.00999096 19.6471386 146.49969482 C16.82946122 143.6901372 14.01578198 140.87659588 11.20239258 138.06274414 C10.3766423 137.24058914 9.55089203 136.41843414 8.70011902 135.57136536 C4.47681845 131.34057666 0.40927727 127.03726996 -3.47714901 122.49397278 C-5.50721715 120.15386832 -7.67654535 117.97383074 -9.88330078 115.80102539 C-11.04152344 114.65633789 -11.04152344 114.65633789 -12.22314453 113.48852539 C-12.79162109 112.93165039 -13.36009766 112.37477539 -13.94580078 111.80102539 C-19.574216 129.81413882 -22.84390931 147.02788112 -23.54394531 165.88183594 C-24.5055773 189.24776832 -30.39252487 211.56047158 -37.69580078 233.67602539 C-38.08461426 234.85374512 -38.47342773 236.03146484 -38.87402344 237.24487305 C-41.68869708 245.54392169 -41.68869708 245.54392169 -43.94580078 247.80102539 C-47.51913338 226.04560647 -50.87031606 204.26254916 -54.0971396 182.45325899 C-54.47120259 179.92541579 -54.84572845 177.39764154 -55.22037315 174.86988449 C-56.39905022 166.91620789 -57.57610295 158.96229354 -58.75070649 151.00801432 C-60.09573372 141.89977023 -61.4464595 132.79239421 -62.80188257 123.68569148 C-63.85964477 116.57653156 -64.91240715 109.46664239 -65.96139449 102.35618246 C-66.58416831 98.13552702 -67.20900306 93.91520258 -67.83912086 89.69563675 C-68.42848209 85.74809567 -69.01160759 81.79968251 -69.59003448 77.8505249 C-69.80223448 76.40909099 -70.01662966 74.96797815 -70.23345757 73.52723312 C-73.22048546 53.65581402 -73.22048546 53.65581402 -70.53491211 49.74804688 C-69.87257568 49.31049072 -69.21023926 48.87293457 -68.52783203 48.42211914 C-67.77888672 47.90198242 -67.02994141 47.3818457 -66.25830078 46.84594727 C-65.43330078 46.31549805 -64.60830078 45.78504883 -63.75830078 45.23852539 C-62.00268449 44.03137319 -60.2488404 42.82164042 -58.49658203 41.60961914 C-57.12300537 40.67738525 -57.12300537 40.67738525 -55.72167969 39.72631836 C-51.17671049 36.57402047 -46.82096777 33.18296862 -42.44580078 29.80102539 C-34.08659101 23.39830875 -25.65688805 17.09981962 -17.15283203 10.89086914 C-14.56155142 8.9981127 -11.99479331 7.0819406 -9.45751953 5.11743164 C-8.48427734 4.37364258 -7.51103516 3.62985352 -6.50830078 2.86352539 C-5.70521484 2.23575195 -4.90212891 1.60797852 -4.07470703 0.96118164 C-1.94580078 -0.19897461 -1.94580078 -0.19897461 0 0 Z " fill="#348E0E" transform="translate(71.94580078125,81.198974609375)"/>
<path d="M0 0 C0.73822998 0.22051025 1.47645996 0.44102051 2.23706055 0.66821289 C3.51190308 1.04901001 3.51190308 1.04901001 4.8125 1.4375 C7.55673329 2.25720605 10.28267481 3.09422494 13 4 C16.37082151 4.23037432 19.74711957 4.18517364 23.125 4.1875 C24.49398437 4.20586914 24.49398437 4.20586914 25.890625 4.22460938 C27.24800781 4.22750977 27.24800781 4.22750977 28.6328125 4.23046875 C29.85315186 4.23663208 29.85315186 4.23663208 31.09814453 4.24291992 C33.73453625 4.02222248 36.10781855 3.57168699 38.68136597 2.9848175 C39.49049376 2.80138448 40.29962154 2.61795145 41.13326836 2.42895985 C41.7492898 2.2874031 42.36531124 2.14584635 43 2 C43.07119772 21.50307187 43.1235143 41.00611617 43.15543652 60.5092926 C43.17067571 69.57215834 43.19139028 78.63494096 43.22631836 87.69775391 C43.38329265 129.27761031 43.03616979 170.60171795 40.19407654 212.10258484 C39.85718565 217.13210968 39.55448888 222.16369517 39.25073242 227.1953125 C39.04314518 230.63026954 38.83500524 234.06518987 38.625 237.5 C38.54838371 238.7557785 38.54838371 238.7557785 38.47021961 240.03692627 C38.39504879 241.2443045 38.39504879 241.2443045 38.31835938 242.47607422 C38.27434494 243.18722382 38.23033051 243.89837341 38.1849823 244.631073 C37.70457937 251.29844075 36.89885061 257.12642366 32 262 C27.64890416 264.53154667 23.99214132 265.88096612 19 265 C6.87340129 259.51811291 -1.19634726 250.2836263 -6 238 C-8.51142851 228.63640234 -7.96695467 217.68293344 -5.43511963 208.39691162 C-2.5275732 197.69429151 -0.95624887 187.11223653 0.1484375 176.1015625 C0.23554615 175.24202469 0.3226548 174.38248688 0.41240311 173.49690247 C2.4539632 152.82720897 2.5470058 132.21691506 2.39447021 111.46543121 C2.37467858 108.45104622 2.36322997 105.43673852 2.35449219 102.42230225 C2.27491124 75.03439893 1.87121397 47.70050471 0.30703735 20.35174561 C-0.06535698 13.56384399 -0.09999387 6.79819417 0 0 Z " fill="#FEFEFE" transform="translate(225,455)"/>
<path d="M0 0 C17.47278464 -0.65797097 28.52169806 1.53211972 43 12 C43.99 12.66 44.98 13.32 46 14 C46.55490112 16.27609253 46.55490112 16.27609253 46.81201172 19.16357422 C46.91593735 20.24965469 47.01986298 21.33573517 47.12693787 22.45472717 C47.22684525 23.64271408 47.32675262 24.83070099 47.4296875 26.0546875 C47.54526505 27.28759018 47.66084259 28.52049286 47.77992249 29.79075623 C48.027688 32.44134604 48.27080187 35.0918797 48.506073 37.74356079 C49.11658372 44.61459395 49.7738206 51.48120586 50.43359375 58.34765625 C50.53084464 59.36616826 50.53084464 59.36616826 50.6300602 60.40525627 C51.88931697 73.54182186 53.56239725 86.59117464 55.61474609 99.62646484 C55.81277832 100.92148926 56.01081055 102.21651367 56.21484375 103.55078125 C56.39136475 104.64044189 56.56788574 105.73010254 56.74975586 106.8527832 C57.14044648 111.76633716 56.86784149 116.42582697 54.03125 120.578125 C53.62962646 121.1760083 53.22800293 121.7738916 52.81420898 122.38989258 C52.16367554 123.31064575 52.16367554 123.31064575 51.5 124.25 C51.05148682 124.90186279 50.60297363 125.55372559 50.14086914 126.2253418 C43.49291245 135.76137403 35.8973225 144.48500982 28 153 C27.19369141 153.88751953 27.19369141 153.88751953 26.37109375 154.79296875 C14.83300763 166.96724007 -2.99843865 181.5920291 -20.3515625 182.09765625 C-21.22554688 182.06542969 -22.09953125 182.03320312 -23 182 C-23.02760212 178.9791014 -23.04712053 175.95846768 -23.0625 172.9375 C-23.07087891 172.10927734 -23.07925781 171.28105469 -23.08789062 170.42773438 C-23.10716467 165.32011308 -22.90303544 160.27755314 -22.5234375 155.18359375 C-21.87815337 146.14904539 -21.75844338 137.11867081 -21.61239624 128.06451416 C-21.09923877 97.83310496 -20.23441323 67.88003805 -10.26953125 39.03125 C-9.03996759 35.3847795 -8.51274966 31.81664091 -8 28 C-7.36102817 25.99098048 -6.68944631 23.99226209 -6 22 C-4.91870682 18.21912195 -3.89890271 14.42176842 -2.875 10.625 C-2.59785156 9.60277344 -2.32070313 8.58054687 -2.03515625 7.52734375 C-1.35522786 5.01864244 -0.67688974 2.50952256 0 0 Z " fill="#8DB54D" transform="translate(373,318)"/>
<path d="M0 0 C0.14175352 7.89127064 -0.20570563 15.5522866 -1.13671875 23.38671875 C-1.31611244 24.95923653 -1.31611244 24.95923653 -1.49913025 26.56352234 C-1.88727776 29.93916437 -2.28649923 33.31336242 -2.6875 36.6875 C-2.89049713 38.42051361 -2.89049713 38.42051361 -3.09759521 40.1885376 C-5.32687786 59.19615735 -7.8448014 78.12368142 -11 97 C-11.17241211 98.051875 -11.34482422 99.10375 -11.52246094 100.1875 C-13.12891421 109.90763831 -15.01630237 119.43466002 -17.625 128.9375 C-20.73031088 140.27863538 -21.98137869 151.39570628 -22.4375 163.125 C-23.43049871 187.59611508 -29.08993119 210.67901697 -36.75 233.875 C-37.13881348 235.05271973 -37.52762695 236.23043945 -37.92822266 237.44384766 C-40.7428963 245.7428963 -40.7428963 245.7428963 -43 248 C-46.5733326 226.24458108 -49.92451528 204.46152377 -53.15133882 182.6522336 C-53.52540181 180.1243904 -53.89992767 177.59661615 -54.27457237 175.0688591 C-55.45324944 167.1151825 -56.63030217 159.16126815 -57.80490571 151.20698893 C-59.14993294 142.09874484 -60.50065872 132.99136882 -61.85608178 123.88466609 C-62.91384399 116.77550617 -63.96660637 109.665617 -65.01559371 102.55515707 C-65.63836753 98.33450163 -66.26320228 94.11417719 -66.89332008 89.89461136 C-67.48268131 85.94707028 -68.06580681 81.99865712 -68.6442337 78.04949951 C-68.8564337 76.6080656 -69.07082888 75.16695276 -69.28765678 73.72620773 C-72.27468468 53.85478863 -72.27468468 53.85478863 -69.58911133 49.94702148 C-68.9267749 49.50946533 -68.26443848 49.07190918 -67.58203125 48.62109375 C-66.83308594 48.10095703 -66.08414063 47.58082031 -65.3125 47.04492188 C-64.4875 46.51447266 -63.6625 45.98402344 -62.8125 45.4375 C-61.05688371 44.2303478 -59.30303962 43.02061503 -57.55078125 41.80859375 C-56.17720459 40.87635986 -56.17720459 40.87635986 -54.77587891 39.92529297 C-50.23090971 36.77299507 -45.87516699 33.38194323 -41.5 30 C-32.42931623 23.05233156 -23.26617137 16.23865268 -14.04296875 9.49511719 C-12.16110155 8.11789984 -10.28301034 6.73572644 -8.40625 5.3515625 C-6.90578125 4.24941406 -6.90578125 4.24941406 -5.375 3.125 C-4.53710938 2.50882812 -3.69921875 1.89265625 -2.8359375 1.2578125 C-1 0 -1 0 0 0 Z " fill="#4BA327" transform="translate(71,81)"/>
<path d="M0 0 C12.36197631 6.09282826 12.36197631 6.09282826 18.1875 9.2578125 C34.45082733 18.09156447 51.72132204 27.42178725 70.75 23.16015625 C83.78733059 19.1267321 94.78752428 12.59860316 104.91455078 3.50537109 C108.82166939 0 108.82166939 0 111 0 C110.40045227 2.48036242 109.7954684 4.95919973 109.1875 7.4375 C109.02185547 8.12521484 108.85621094 8.81292969 108.68554688 9.52148438 C107.77623619 13.21019752 106.75123666 16.79353446 105.4921875 20.37890625 C95.13749207 50.83370011 97.51001665 86.28981865 97 118 C96.67 118 96.34 118 96 118 C95.67 113.38 95.34 108.76 95 104 C93.30875 105.051875 91.6175 106.10375 89.875 107.1875 C79.30251134 113.29991413 68.43082516 117.92546858 56 116 C51.81004462 114.68896671 47.94453664 112.91532619 44 111 C32.91262835 105.64116179 32.91262835 105.64116179 21.03125 106.6875 C19.3422298 107.43181399 17.67006899 108.21408518 16 109 C14.68 109 13.36 109 12 109 C11.96036133 108.18362061 11.92072266 107.36724121 11.87988281 106.52612305 C10.30248145 75.16328799 7.31776637 43.92983378 1.43847656 13.05078125 C1.16342285 11.60251953 1.16342285 11.60251953 0.8828125 10.125 C0.71410645 9.26132812 0.54540039 8.39765625 0.37158203 7.5078125 C-0.00490018 4.96692862 -0.06491927 2.5645984 0 0 Z " fill="#9DC863" transform="translate(255,347)"/>
<path d="M0 0 C3.42539021 9.3327668 6.52422584 18.70419277 9.36328125 28.234375 C9.76261172 29.56465786 10.16229419 30.8948351 10.56230164 32.22491455 C11.60624182 35.69907606 12.64602961 39.17446511 13.68469238 42.65020752 C15.32821579 48.14720692 16.97836394 53.64222458 18.62777138 59.13746071 C19.03487388 60.49405653 19.44180409 61.85070407 19.84856224 63.20740318 C22.93699247 73.5078447 26.07836268 83.79121069 29.25177002 94.06581116 C31.85825037 102.51349206 34.40023752 110.97882301 36.90386963 119.45748901 C38.06666873 123.39453001 39.23445491 127.33009134 40.40234375 131.265625 C40.62954102 132.03136337 40.85673828 132.79710175 41.09082031 133.58604431 C43.17438063 140.60112668 45.29892609 147.60332793 47.43994141 154.60107422 C49.99943882 162.97304884 52.50793155 171.36011752 55.01617432 179.74755859 C57.63231188 188.49177257 60.29562263 197.22016974 63 205.9375 C66.17273986 216.17089285 69.17562687 226.44877119 72.1361084 236.74493408 C74.81353367 246.04710886 77.63758506 255.28904006 80.61962891 264.49804688 C82.35490487 269.88499104 83.95461072 275.28855167 85.4375 280.75 C86.04984578 282.95689521 86.66412064 285.16324899 87.27832031 287.36962891 C87.81621845 289.33015479 88.34233184 291.2939213 88.86230469 293.25927734 C89.81407252 296.82816013 90.81036619 300.38246741 91.8125 303.9375 C92.10761475 305.08250977 92.40272949 306.22751953 92.70678711 307.40722656 C94.17867926 313.18935009 94.17867926 313.18935009 98.04443359 317.41455078 C100.46840715 318.40149835 100.46840715 318.40149835 104 319 C104 319.33 104 319.66 104 320 C78.9807677 322.60908195 78.9807677 322.60908195 72.75 319.25 C70.33738539 317.27604259 68.53265483 315.704685 67 313 C67 312.34 67 311.68 67 311 C66.34 311 65.68 311 65 311 C62.83293607 303.72650352 60.84449192 296.46809495 59.1875 289.0625 C56.96184161 279.29439468 53.99297683 269.77370478 51.00488281 260.21630859 C49.96307484 256.88181438 48.9298641 253.54475041 47.8984375 250.20703125 C44.83419631 240.3013271 41.76611719 230.39727071 38.625 220.515625 C33.20252496 203.42056835 28.1349757 186.24473983 23.28588867 168.9777832 C21.00380139 160.87258975 18.65226309 152.80811186 16.0703125 144.79296875 C12.39497273 133.33694229 9.26682076 121.73649597 6.125 110.125 C5.80929047 108.96289001 5.49358093 107.80078003 5.16830444 106.60345459 C-0.03095817 87.46388662 -5.12567215 68.29700614 -10.164711 49.11470795 C-10.68154387 47.14766873 -11.19898498 45.18079025 -11.7164917 43.21392822 C-15.31708277 29.51460424 -18.8727805 15.81610766 -22 2 C-18.89610484 1.66410575 -15.79184301 1.33172763 -12.6875 1 C-11.80642578 0.90460937 -10.92535156 0.80921875 -10.01757812 0.7109375 C-9.17001953 0.62070313 -8.32246094 0.53046875 -7.44921875 0.4375 C-6.27879028 0.31181641 -6.27879028 0.31181641 -5.0847168 0.18359375 C-3 0 -3 0 0 0 Z " fill="#62A521" transform="translate(105,7)"/>
<path d="M0 0 C0.515625 0.7425 1.03125 1.485 1.5625 2.25 C5.32323968 6.49288579 8.45202758 8.73747555 14.09936523 9.31933594 C17.72001542 9.39328361 21.31751057 9.34870973 24.9375 9.25 C26.19369141 9.23195313 27.44988281 9.21390625 28.74414062 9.1953125 C31.83021916 9.14837594 34.91470781 9.08272414 38 9 C38 9.33 38 9.66 38 10 C35.69 10 33.38 10 31 10 C31.16491943 10.57403564 31.32983887 11.14807129 31.49975586 11.73950195 C35.43985129 25.50764014 39.17372564 39.32111941 42.75 53.1875 C42.94004608 53.92054352 43.13009216 54.65358704 43.32589722 55.40884399 C47.02486179 69.69576219 50.25701489 83.76681 51.625 98.5 C51.74979736 99.78922363 51.87459473 101.07844727 52.00317383 102.40673828 C53.04644096 113.59261113 53.66154126 124.77250649 54 136 C48.98029684 133.66778812 44.64024048 131.21082164 40.375 127.625 C39.49585938 126.89539063 38.61671875 126.16578125 37.7109375 125.4140625 C36.81632812 124.61742187 35.92171875 123.82078125 35 123 C34.0296582 122.22769043 33.05931641 121.45538086 32.05957031 120.65966797 C27.55061854 116.09156198 26.73088709 110.10378203 25.3359375 104.03125 C25.02020304 102.72888864 24.70246148 101.42701246 24.38285828 100.12559509 C23.70734503 97.35845605 23.04483398 94.58866464 22.39285278 91.81588745 C21.37270451 87.47779426 20.32504841 83.1466741 19.27124023 78.81665039 C18.91681424 77.3593391 18.56242892 75.90201792 18.20808411 74.44468689 C18.03251291 73.72270552 17.85694172 73.00072414 17.67605019 72.25686455 C17.14367656 70.06288395 16.614199 67.86822265 16.085495 65.6733551 C12.68530795 51.57518333 9.02134282 37.55005055 5.28997803 23.53613281 C4.80224335 21.70291631 4.31593503 19.86931955 3.83125305 18.03529358 C3.40256147 16.41327187 2.97058662 14.79211201 2.53434753 13.17210388 C1.37713654 8.79011801 0.55315204 4.49958661 0 0 Z " fill="#9DC863" transform="translate(171,318)"/>
<path d="M0 0 C0.33 0 0.66 0 1 0 C3.48447342 14.22007778 5.96209626 28.4413346 8.43187714 42.6639719 C9.57882802 49.26816081 10.72796963 55.87195433 11.88232422 62.47485352 C12.99621784 68.84762672 14.1043644 75.22137496 15.20854187 81.59583855 C15.63070869 84.02703354 16.05494132 86.45787076 16.48127747 88.88833809 C17.0782859 92.29385518 17.66792163 95.70057294 18.25585938 99.10766602 C18.43352341 100.11108032 18.61118744 101.11449463 18.79423523 102.14831543 C19.65432507 107.17955248 20.19736658 111.89562626 20 117 C19.29875 116.54109375 18.5975 116.0821875 17.875 115.609375 C6.8892221 108.50444255 -2.16764638 103.88825784 -15.4375 103.375 C-16.26443359 103.33632813 -17.09136719 103.29765625 -17.94335938 103.2578125 C-19.96191073 103.16446908 -21.98092331 103.08119039 -24 103 C-23.27881309 95.50714901 -21.5519182 88.31454783 -19.8125 81 C-19.49451287 79.64929776 -19.17672608 78.29854835 -18.85913086 76.94775391 C-16.78014209 68.13662329 -14.59010038 59.35613898 -12.34985352 50.5847168 C-9.54696461 39.455845 -7.13532589 28.23624585 -4.71508789 17.01904297 C-4.38818649 15.5192051 -4.06128231 14.01936783 -3.734375 12.51953125 C-3.58876633 11.83410751 -3.44315765 11.14868378 -3.2931366 10.44248962 C-2.49538197 6.79678034 -1.5014272 3.41850142 0 0 Z " fill="#3B891A" transform="translate(398,215)"/>
<path d="M0 0 C4.66831508 3.81086946 8.66352155 7.73077532 12.51953125 12.36328125 C13.92100715 14.11188885 13.92100715 14.11188885 16 15 C15.53415316 19.19262155 14.72611047 22.94338344 13.45703125 26.96875 C11.70521163 33.29917712 11.78215809 39.16724973 12 45.6875 C12.24455154 62.18308341 10.93222364 82.22715004 -1 95 C-4.65288193 96.21762731 -7.15754136 96.39075851 -11 96 C-14.89053491 93.62245089 -16.67769473 92.23675279 -17.83984375 87.77734375 C-18.02334927 83.44929895 -16.96703335 80.46525708 -15.1875 76.625 C-10.42493538 66.04650353 -9.83846798 57.09910649 -10.125 45.5 C-10.36291155 29.33524544 -8.24920104 15.6600943 -1 1 C-0.67 0.67 -0.34 0.34 0 0 Z " fill="#D6C57E" transform="translate(212,719)"/>
<path d="M0 0 C2 1 2 1 2.65429688 2.80322266 C2.84056641 3.5822998 3.02683594 4.36137695 3.21875 5.1640625 C3.42798096 6.0312793 3.63721191 6.89849609 3.8527832 7.79199219 C4.06636475 8.72688477 4.27994629 9.66177734 4.5 10.625 C4.72067139 11.58051758 4.94134277 12.53603516 5.16870117 13.52050781 C7.56258473 24.14453632 9.13452905 34.39980259 8.875 45.3125 C8.64754885 55.59755664 10.36588594 66.3007432 14.609375 75.734375 C16.42208245 79.99118238 16.79181975 83.45342205 16 88 C14.20606332 90.87029869 13.01736724 92.49131638 10 94 C2.89201406 94.5826218 2.89201406 94.5826218 -0.6015625 92.30078125 C-10.81325679 82.50487256 -12.7051329 60.44921628 -13 47 C-12.96280448 44.49992948 -12.92096389 41.99992469 -12.875 39.5 C-12.81043469 33.26299145 -13.69418692 27.80726425 -15.34375 21.8046875 C-16.49340697 16.8912726 -16.49340697 16.8912726 -16 14 C-13.76953125 11.46484375 -13.76953125 11.46484375 -10.8125 8.9375 C-9.84957031 8.10089844 -8.88664062 7.26429688 -7.89453125 6.40234375 C-5.28609582 4.23744795 -2.65779952 2.10388884 0 0 Z " fill="#D6C57E" transform="translate(324,721)"/>
<path d="M0 0 C6.6 0.33 13.2 0.66 20 1 C19.11003861 11.17098731 19.11003861 11.17098731 18.48046875 15.9140625 C16.88090769 28.60841934 18.27947674 41.12653303 19.93261719 53.73779297 C22.35292408 72.55122359 22.35292408 72.55122359 18 79 C13.97685134 81.68209911 10.72780081 81.68843415 6 81 C2.50109996 78.88608123 1.29421314 77.88263941 0 74 C-0.27491121 71.90668069 -0.50838894 69.80781923 -0.71875 67.70703125 C-0.90981323 65.81392212 -0.90981323 65.81392212 -1.10473633 63.88256836 C-1.23717846 62.52594586 -1.36891949 61.16925474 -1.5 59.8125 C-1.5662558 59.12850128 -1.6325116 58.44450256 -1.70077515 57.73977661 C-2.02792511 54.34753302 -2.34962828 50.95483288 -2.66552734 47.56152344 C-2.92756888 44.77125921 -3.20469259 41.98341028 -3.48828125 39.1953125 C-4.62225848 26.05210648 -3.62261689 12.67915911 0 0 Z " fill="#D6C57E" transform="translate(257,746)"/>
<path d="M0 0 C0.58394531 1.56621094 0.58394531 1.56621094 1.1796875 3.1640625 C5.62220671 14.90935301 10.66276634 26.31817448 15.96606445 37.69848633 C18.63889091 43.6481286 20.03427789 48.43879961 19 55 C16.48577015 58.73325038 14.86635918 59.74796824 10.5625 61 C6.1777306 61 4.59757275 60.54695416 1 58 C-1.08438944 54.50743169 -2.50755781 50.7759791 -4 47 C-8.63750004 35.82765356 -13.89610813 25.17592598 -19.58007812 14.50976562 C-20.15564453 13.42501953 -20.73121094 12.34027344 -21.32421875 11.22265625 C-21.84072998 10.26109619 -22.35724121 9.29953613 -22.8894043 8.30883789 C-24 6 -24 6 -24 4 C-22.49759766 3.81824219 -22.49759766 3.81824219 -20.96484375 3.6328125 C-19.6223597 3.46382849 -18.27991377 3.29454142 -16.9375 3.125 C-15.95233398 3.00705078 -15.95233398 3.00705078 -14.94726562 2.88671875 C-10.02187225 2.25588019 -4.85641348 0 0 0 Z " fill="#CCBA6D" transform="translate(451,761)"/>
<path d="M0 0 C0.66 0 1.32 0 2 0 C2.13986328 0.58789307 2.27972656 1.17578613 2.42382812 1.78149414 C6.78737401 19.7670902 12.47937578 33.80002732 24.6640625 47.9296875 C27.09038621 51.6897798 26.8385722 55.71011412 26 60 C24.28525229 62.83278835 23.08694327 63.34628039 20 65 C15.8797449 65.79746873 13.72910188 65.93775888 10.0625 63.94921875 C-4.06279005 52.9280751 -12.03791247 32.55056524 -17 16 C-16.27554687 15.43152344 -15.55109375 14.86304688 -14.8046875 14.27734375 C-8.21093726 9.03650772 -8.21093726 9.03650772 -2.4375 2.9375 C-1.633125 1.968125 -0.82875 0.99875 0 0 Z " fill="#CCB96C" transform="translate(486,736)"/>
</svg>
