<?xml version="1.0" encoding="UTF-8"?>
<svg version="1.1" xmlns="http://www.w3.org/2000/svg" width="512" height="512">
<path d="M0 0 C3.920909 3.37380541 6.35769549 5.86252365 7.0703125 11.15625 C7.24846164 15.95440023 7.10097955 19.42192866 5.0625 23.8125 C0.20874891 28.92171167 -4.57387244 30.96785965 -11.41796875 32.109375 C-12.25017441 32.26000397 -13.08238007 32.41063293 -13.93980408 32.56582642 C-16.79098551 33.07812209 -19.64535524 33.56989747 -22.5 34.0625 C-24.5658165 34.43054801 -26.63140034 34.79990375 -28.69677734 35.17041016 C-36.56458225 36.57474656 -44.43830922 37.9445492 -52.3125 39.3125 C-53.17535362 39.46241898 -54.03820724 39.61233795 -54.92720795 39.76679993 C-58.7494655 40.4308781 -62.57172791 41.09492812 -66.39403248 41.75873566 C-74.62039382 43.18765987 -82.84585966 44.62169129 -91.07104015 46.05739594 C-97.30204705 47.1440934 -103.53463137 48.22113586 -109.76855183 49.29098701 C-113.72231977 49.97114629 -117.67484125 50.65835406 -121.62710762 51.34717941 C-123.48820247 51.66994699 -125.34982445 51.98969147 -127.21198845 52.30623245 C-129.79007554 52.74486573 -132.36608732 53.19419471 -134.94189453 53.64599609 C-135.69076022 53.77070156 -136.43962591 53.89540703 -137.2111845 54.02389145 C-145.3783439 55.41907353 -145.3783439 55.41907353 -151.73046875 60.19140625 C-152.60608097 63.38239577 -152.609619 66.48449931 -152.67578125 69.77734375 C-153.62660148 73.56312492 -155.26776708 74.86750536 -158.3125 77.3125 C-161.64890267 78.51923106 -165.0559069 79.0813315 -168.546875 79.67578125 C-169.62032166 79.87448318 -170.69376831 80.07318512 -171.79974365 80.27790833 C-174.92595429 80.84968823 -178.05498748 81.40132059 -181.18649292 81.94324493 C-183.42470304 82.33198796 -185.6617809 82.72678011 -187.89868164 83.12298584 C-201.96732887 85.61379377 -216.04711206 88.03962282 -230.12890625 90.45483398 C-234.6324148 91.22757236 -239.13497996 92.00562262 -243.6370163 92.78689003 C-245.33508203 93.08041845 -247.03350963 93.37186183 -248.73230743 93.66112328 C-251.08837625 94.06233005 -253.44319409 94.47024227 -255.79785156 94.87963867 C-256.83406143 95.05343552 -256.83406143 95.05343552 -257.89120483 95.23074341 C-264.88760271 96.46210287 -268.56868522 98.19236925 -273.17578125 103.4609375 C-275.23448562 105.24489704 -277.01387485 106.24292944 -279.44604492 107.42822266 C-280.5308741 107.96003647 -280.5308741 107.96003647 -281.63761902 108.50259399 C-282.19032974 108.76986298 -282.74304047 109.03713196 -283.3125 109.3125 C-282.24127773 109.31488835 -281.17005547 109.31727671 -280.06637192 109.31973743 C-253.97499892 109.37858879 -227.88371785 109.4545065 -201.79244614 109.54821491 C-189.17479031 109.59313882 -176.55716249 109.6325614 -163.93945312 109.65893555 C-152.93907645 109.68194313 -141.93878866 109.71537212 -130.93848252 109.76120156 C-125.11644319 109.78509641 -119.2944917 109.80384972 -113.47240448 109.81011391 C-107.98619877 109.81618161 -102.5002177 109.83624247 -97.01409531 109.86677551 C-95.00668017 109.87552873 -92.99923565 109.87928398 -90.99180222 109.87750816 C-75.80358039 109.8683191 -60.88337486 110.10279023 -49.2421875 121.3046875 C-41.3125 130.09701883 -41.3125 130.09701883 -41.3125 134.3125 C-40.08732666 134.28893433 -40.08732666 134.28893433 -38.83740234 134.26489258 C-35.12083923 134.2023606 -31.40438704 134.16345056 -27.6875 134.125 C-26.40230469 134.09986328 -25.11710937 134.07472656 -23.79296875 134.04882812 C-21.92705078 134.03432617 -21.92705078 134.03432617 -20.0234375 134.01953125 C-18.31099854 133.99596558 -18.31099854 133.99596558 -16.56396484 133.97192383 C-11.95163829 134.45504408 -8.56938824 135.92992294 -5.4375 139.375 C-3.42196979 144.63777332 -3.3499643 150.0505411 -5.5625 155.25 C-9.70248879 160.12927251 -9.70248879 160.12927251 -13.41699219 160.55200195 C-15.97175003 160.60792878 -18.50823311 160.57357194 -21.0625 160.5 C-21.95066406 160.48646484 -22.83882813 160.47292969 -23.75390625 160.45898438 C-25.9407576 160.42371258 -28.12620896 160.37182693 -30.3125 160.3125 C-30.54396729 161.32007355 -30.77543457 162.32764709 -31.01391602 163.36575317 C-33.56331492 174.37887082 -36.35599946 185.31520359 -39.25 196.2421875 C-39.72836277 198.05506785 -40.20654264 199.86799647 -40.68455505 201.68096924 C-41.96050425 206.51764009 -43.239417 211.35352221 -44.51917648 216.1891861 C-45.31585303 219.20017254 -46.1118011 222.2113506 -46.90750122 225.22259521 C-50.43853966 238.58522004 -53.97592499 251.94615658 -57.51609039 265.30636597 C-58.29917131 268.2621894 -59.08188243 271.21811048 -59.86444092 274.17407227 C-62.71669808 284.94776616 -65.57272189 295.72044595 -68.43579102 306.49127197 C-69.31151512 309.78595277 -70.18578266 313.08101481 -71.05883789 316.37640381 C-72.07595718 320.21495639 -73.09640117 324.0526089 -74.11958504 327.88954926 C-74.49204008 329.28838906 -74.86333366 330.68753869 -75.23339653 332.08701324 C-75.7337254 333.97828418 -76.23866919 335.8683325 -76.74389648 337.75830078 C-77.02458481 338.81397247 -77.30527313 339.86964417 -77.59446716 340.95730591 C-78.3125 343.3125 -78.3125 343.3125 -79.3125 344.3125 C-81.81663517 344.41023112 -84.29316191 344.44245681 -86.79774475 344.43275452 C-87.59080833 344.43360894 -88.38387192 344.43446337 -89.20096773 344.43534368 C-91.87887396 344.4370009 -94.55671861 344.43147319 -97.23461914 344.42602539 C-99.14607237 344.42574354 -101.05752571 344.4259012 -102.96897888 344.4264679 C-108.17537459 344.42675597 -113.38174748 344.42085761 -118.58813787 344.41389394 C-124.02274159 344.40766208 -129.45734577 344.40705674 -134.89195251 344.40586853 C-145.19088758 344.40275472 -155.48981208 344.39454066 -165.78874248 344.38451904 C-177.51042757 344.37335945 -189.23211315 344.36784784 -200.95380223 344.36282361 C-225.07337536 344.35235808 -249.19293401 344.33401198 -273.3125 344.3125 C-273.3125 360.4825 -273.3125 376.6525 -273.3125 393.3125 C-349.8725 393.3125 -426.4325 393.3125 -505.3125 393.3125 C-505.3125 347.4425 -505.3125 301.5725 -505.3125 254.3125 C-494.53068876 255.51047903 -483.87929515 256.72934338 -473.1875 258.4375 C-472.02863281 258.61925781 -470.86976563 258.80101562 -469.67578125 258.98828125 C-466.88743685 259.42612045 -464.09970965 259.86750511 -461.3125 260.3125 C-461.34730469 259.24257813 -461.38210938 258.17265625 -461.41796875 257.0703125 C-461.24854153 251.0336834 -458.83159165 247.11898737 -455 242.5625 C-448.73914795 237.32085642 -443.51908052 235.03036046 -435.3125 235.3125 C-427.74543015 236.40005164 -422.36471481 239.61661359 -417.3125 245.3125 C-413.48374991 251.48790337 -412.17476535 258.35022656 -413.8203125 265.52734375 C-413.98273438 266.11644531 -414.14515625 266.70554687 -414.3125 267.3125 C-413.66192627 267.34335693 -413.01135254 267.37421387 -412.34106445 267.40600586 C-400.30152301 268.14928492 -388.42044176 270.09503246 -376.5 271.875 C-374.24680535 272.20809222 -371.99355057 272.54077794 -369.74023438 272.87304688 C-364.26362048 273.6815103 -358.78777144 274.49499701 -353.3125 275.3125 C-356.33695855 263.8272318 -359.36247216 252.34224207 -362.38926125 240.85758781 C-363.79532604 235.52237747 -365.20105366 230.18707881 -366.60595703 224.8515625 C-367.96675384 219.68360731 -369.32850636 214.51590475 -370.69086838 209.34836197 C-371.20538392 207.39612566 -371.71957919 205.4438049 -372.23341751 203.49139023 C-372.96411848 200.71521311 -373.6958174 197.93930218 -374.42822266 195.16357422 C-374.66164179 194.2786775 -374.89506092 193.39378078 -375.13555336 192.48206902 C-376.40474712 187.68731539 -377.69564809 182.89922416 -379.01043701 178.11676025 C-379.28896704 177.10318514 -379.56749706 176.08961002 -379.85446739 175.04532051 C-380.39260122 173.09218787 -380.93307556 171.13969821 -381.47617531 169.1879406 C-381.71674345 168.31575449 -381.95731159 167.44356838 -382.20516968 166.54495239 C-382.4193926 165.77411882 -382.63361553 165.00328526 -382.85433006 164.20909309 C-383.3125 162.3125 -383.3125 162.3125 -383.3125 160.3125 C-385.26542969 160.39951172 -385.26542969 160.39951172 -387.2578125 160.48828125 C-388.98433901 160.53519773 -390.71090448 160.58069586 -392.4375 160.625 C-393.72140625 160.6878418 -393.72140625 160.6878418 -395.03125 160.75195312 C-399.38085058 160.83559929 -402.38217114 160.75827468 -405.8671875 157.98046875 C-409.59889173 153.90897676 -409.7655338 150.21489612 -409.734375 144.89453125 C-409.03987432 140.64392985 -406.62476839 137.94780842 -403.3125 135.3125 C-400.13740018 134.25413339 -397.66967617 134.11006211 -394.33203125 133.99609375 C-392.58696289 133.93325195 -392.58696289 133.93325195 -390.80664062 133.86914062 C-389.59169922 133.82982422 -388.37675781 133.79050781 -387.125 133.75 C-385.89845703 133.70681641 -384.67191406 133.66363281 -383.40820312 133.61914062 C-380.37641619 133.5129691 -377.34454685 133.41092048 -374.3125 133.3125 C-374.94800781 132.21035156 -375.58351563 131.10820312 -376.23828125 129.97265625 C-381.11160167 121.52095451 -382.68311529 112.70348328 -380.62890625 103.125 C-378.67134248 96.10701203 -376.34810341 90.60662769 -371.3125 85.3125 C-370.6525 84.61253906 -369.9925 83.91257812 -369.3125 83.19140625 C-360.71376881 74.82299822 -351.8616731 72.84119508 -340.03710938 72.9609375 C-338.74611328 72.99445313 -337.45511719 73.02796875 -336.125 73.0625 C-334.77802172 73.08262111 -333.431014 73.10086185 -332.08398438 73.1171875 C-328.82605084 73.16389622 -325.56967345 73.22938438 -322.3125 73.3125 C-322.63476562 72.23097656 -322.95703125 71.14945312 -323.2890625 70.03515625 C-324.75061077 64.71891387 -325.17494447 61.1063845 -322.75 56.0625 C-317.87370156 50.56103509 -311.03265379 49.65609967 -304.0827179 48.47596741 C-303.1732477 48.31444528 -302.2637775 48.15292314 -301.3267476 47.9865064 C-298.28862234 47.44907679 -295.2485086 46.92390882 -292.20825195 46.39868164 C-290.02188359 46.01451131 -287.83564822 45.62958349 -285.64953613 45.24395752 C-279.69855361 44.19642748 -273.74576418 43.1595132 -267.79261041 42.12440419 C-261.49323188 41.02718494 -255.19558909 39.92009115 -248.89775085 38.81407166 C-238.25660238 36.94663487 -227.61443144 35.08514722 -216.97143555 33.22827148 C-206.18237598 31.34589385 -195.39387415 29.46037702 -184.60620117 27.57006836 C-183.94995597 27.45507856 -183.29371077 27.34008877 -182.61757936 27.22161444 C-178.00218991 26.41285642 -173.38683333 25.60391092 -168.77148438 24.79492188 C-153.31880218 22.08637131 -137.86582732 19.37957061 -122.41091919 16.68374634 C-91.44732259 11.28144262 -91.44732259 11.28144262 -60.50677502 5.74906504 C-57.99398352 5.29461828 -55.48092152 4.84170259 -52.96774197 4.38940716 C-52.17499624 4.2467007 -51.38225052 4.10399425 -50.5654822 3.95696336 C-49.02023457 3.67879958 -47.47497798 3.40068553 -45.92971176 3.12262505 C-41.6614727 2.35337446 -37.3954839 1.57297958 -33.13105059 0.7829175 C-30.0346346 0.21226463 -26.93542331 -0.3428369 -23.83666992 -0.90063477 C-22.77820295 -1.10131876 -21.71973598 -1.30200275 -20.62919426 -1.50876808 C-13.3382032 -2.80089445 -6.74826779 -3.4377968 0 0 Z " fill="#FEEAD6" transform="translate(505.3125,60.6875)"/>
<path d="M0 0 C3.920909 3.37380541 6.35769549 5.86252365 7.0703125 11.15625 C7.24846164 15.95440023 7.10097955 19.42192866 5.0625 23.8125 C0.20874891 28.92171167 -4.57387244 30.96785965 -11.41796875 32.109375 C-12.25017441 32.26000397 -13.08238007 32.41063293 -13.93980408 32.56582642 C-16.79098551 33.07812209 -19.64535524 33.56989747 -22.5 34.0625 C-24.5658165 34.43054801 -26.63140034 34.79990375 -28.69677734 35.17041016 C-36.56458225 36.57474656 -44.43830922 37.9445492 -52.3125 39.3125 C-53.17535362 39.46241898 -54.03820724 39.61233795 -54.92720795 39.76679993 C-58.7494655 40.4308781 -62.57172791 41.09492812 -66.39403248 41.75873566 C-74.62039382 43.18765987 -82.84585966 44.62169129 -91.07104015 46.05739594 C-97.30204705 47.1440934 -103.53463137 48.22113586 -109.76855183 49.29098701 C-113.72231977 49.97114629 -117.67484125 50.65835406 -121.62710762 51.34717941 C-123.48820247 51.66994699 -125.34982445 51.98969147 -127.21198845 52.30623245 C-129.79007554 52.74486573 -132.36608732 53.19419471 -134.94189453 53.64599609 C-135.69076022 53.77070156 -136.43962591 53.89540703 -137.2111845 54.02389145 C-145.3783439 55.41907353 -145.3783439 55.41907353 -151.73046875 60.19140625 C-152.60608097 63.38239577 -152.609619 66.48449931 -152.67578125 69.77734375 C-153.62660148 73.56312492 -155.26776708 74.86750536 -158.3125 77.3125 C-161.64890267 78.51923106 -165.0559069 79.0813315 -168.546875 79.67578125 C-170.15704498 79.97383415 -170.15704498 79.97383415 -171.79974365 80.27790833 C-174.92595429 80.84968823 -178.05498748 81.40132059 -181.18649292 81.94324493 C-183.42470304 82.33198796 -185.6617809 82.72678011 -187.89868164 83.12298584 C-201.96732887 85.61379377 -216.04711206 88.03962282 -230.12890625 90.45483398 C-234.6324148 91.22757236 -239.13497996 92.00562262 -243.6370163 92.78689003 C-245.33508203 93.08041845 -247.03350963 93.37186183 -248.73230743 93.66112328 C-251.08837625 94.06233005 -253.44319409 94.47024227 -255.79785156 94.87963867 C-256.83406143 95.05343552 -256.83406143 95.05343552 -257.89120483 95.23074341 C-264.88760271 96.46210287 -268.56868522 98.19236925 -273.17578125 103.4609375 C-275.23448562 105.24489704 -277.01387485 106.24292944 -279.44604492 107.42822266 C-280.5308741 107.96003647 -280.5308741 107.96003647 -281.63761902 108.50259399 C-282.19032974 108.76986298 -282.74304047 109.03713196 -283.3125 109.3125 C-282.24127773 109.31488835 -281.17005547 109.31727671 -280.06637192 109.31973743 C-253.97499892 109.37858879 -227.88371785 109.4545065 -201.79244614 109.54821491 C-189.17479031 109.59313882 -176.55716249 109.6325614 -163.93945312 109.65893555 C-152.93907645 109.68194313 -141.93878866 109.71537212 -130.93848252 109.76120156 C-125.11644319 109.78509641 -119.2944917 109.80384972 -113.47240448 109.81011391 C-107.98619877 109.81618161 -102.5002177 109.83624247 -97.01409531 109.86677551 C-95.00668017 109.87552873 -92.99923565 109.87928398 -90.99180222 109.87750816 C-75.80358039 109.8683191 -60.88337486 110.10279023 -49.2421875 121.3046875 C-41.3125 130.09701883 -41.3125 130.09701883 -41.3125 134.3125 C-40.08732666 134.28893433 -40.08732666 134.28893433 -38.83740234 134.26489258 C-35.12083923 134.2023606 -31.40438704 134.16345056 -27.6875 134.125 C-26.40230469 134.09986328 -25.11710937 134.07472656 -23.79296875 134.04882812 C-21.92705078 134.03432617 -21.92705078 134.03432617 -20.0234375 134.01953125 C-18.31099854 133.99596558 -18.31099854 133.99596558 -16.56396484 133.97192383 C-11.95163829 134.45504408 -8.56938824 135.92992294 -5.4375 139.375 C-3.42196979 144.63777332 -3.3499643 150.0505411 -5.5625 155.25 C-9.70248879 160.12927251 -9.70248879 160.12927251 -13.41699219 160.55200195 C-15.97175003 160.60792878 -18.50823311 160.57357194 -21.0625 160.5 C-21.95066406 160.48646484 -22.83882813 160.47292969 -23.75390625 160.45898438 C-25.94072578 160.42371309 -28.12629966 160.37442752 -30.3125 160.3125 C-30.57804687 161.446875 -30.84359375 162.58125 -31.1171875 163.75 C-31.47392786 165.27084048 -31.83070042 166.79167341 -32.1875 168.3125 C-32.44853516 169.42818359 -32.44853516 169.42818359 -32.71484375 170.56640625 C-32.97587891 171.67822266 -32.97587891 171.67822266 -33.2421875 172.8125 C-33.47784424 173.81796875 -33.47784424 173.81796875 -33.71826172 174.84375 C-34.55959527 178.33905192 -35.44055229 181.82470917 -36.3125 185.3125 C-148.8425 184.9825 -261.3725 184.6525 -377.3125 184.3125 C-383.3125 162.3125 -383.3125 162.3125 -383.3125 160.3125 C-385.26542969 160.39951172 -385.26542969 160.39951172 -387.2578125 160.48828125 C-388.98433901 160.53519773 -390.71090448 160.58069586 -392.4375 160.625 C-393.72140625 160.6878418 -393.72140625 160.6878418 -395.03125 160.75195312 C-399.38085058 160.83559929 -402.38217114 160.75827468 -405.8671875 157.98046875 C-409.59889173 153.90897676 -409.7655338 150.21489612 -409.734375 144.89453125 C-409.03987432 140.64392985 -406.62476839 137.94780842 -403.3125 135.3125 C-400.13740018 134.25413339 -397.66967617 134.11006211 -394.33203125 133.99609375 C-392.58696289 133.93325195 -392.58696289 133.93325195 -390.80664062 133.86914062 C-389.59169922 133.82982422 -388.37675781 133.79050781 -387.125 133.75 C-385.89845703 133.70681641 -384.67191406 133.66363281 -383.40820312 133.61914062 C-380.37641619 133.5129691 -377.34454685 133.41092048 -374.3125 133.3125 C-375.26576172 131.65927734 -375.26576172 131.65927734 -376.23828125 129.97265625 C-381.11160167 121.52095451 -382.68311529 112.70348328 -380.62890625 103.125 C-378.67134248 96.10701203 -376.34810341 90.60662769 -371.3125 85.3125 C-370.6525 84.61253906 -369.9925 83.91257812 -369.3125 83.19140625 C-360.71376881 74.82299822 -351.8616731 72.84119508 -340.03710938 72.9609375 C-338.74611328 72.99445313 -337.45511719 73.02796875 -336.125 73.0625 C-334.77802172 73.08262111 -333.431014 73.10086185 -332.08398438 73.1171875 C-328.82605084 73.16389622 -325.56967345 73.22938438 -322.3125 73.3125 C-322.63476562 72.23097656 -322.95703125 71.14945312 -323.2890625 70.03515625 C-324.75061077 64.71891387 -325.17494447 61.1063845 -322.75 56.0625 C-317.87370156 50.56103509 -311.03265379 49.65609967 -304.0827179 48.47596741 C-303.1732477 48.31444528 -302.2637775 48.15292314 -301.3267476 47.9865064 C-298.28862234 47.44907679 -295.2485086 46.92390882 -292.20825195 46.39868164 C-290.02188359 46.01451131 -287.83564822 45.62958349 -285.64953613 45.24395752 C-279.69855361 44.19642748 -273.74576418 43.1595132 -267.79261041 42.12440419 C-261.49323188 41.02718494 -255.19558909 39.92009115 -248.89775085 38.81407166 C-238.25660238 36.94663487 -227.61443144 35.08514722 -216.97143555 33.22827148 C-206.18237598 31.34589385 -195.39387415 29.46037702 -184.60620117 27.57006836 C-183.94995597 27.45507856 -183.29371077 27.34008877 -182.61757936 27.22161444 C-178.00218991 26.41285642 -173.38683333 25.60391092 -168.77148438 24.79492188 C-153.31880218 22.08637131 -137.86582732 19.37957061 -122.41091919 16.68374634 C-91.44732259 11.28144262 -91.44732259 11.28144262 -60.50677502 5.74906504 C-57.99398352 5.29461828 -55.48092152 4.84170259 -52.96774197 4.38940716 C-52.17499624 4.2467007 -51.38225052 4.10399425 -50.5654822 3.95696336 C-49.02023457 3.67879958 -47.47497798 3.40068553 -45.92971176 3.12262505 C-41.6614727 2.35337446 -37.3954839 1.57297958 -33.13105059 0.7829175 C-30.0346346 0.21226463 -26.93542331 -0.3428369 -23.83666992 -0.90063477 C-22.77820295 -1.10131876 -21.71973598 -1.30200275 -20.62919426 -1.50876808 C-13.3382032 -2.80089445 -6.74826779 -3.4377968 0 0 Z " fill="#F2EEEE" transform="translate(505.3125,60.6875)"/>
<path d="M0 0 C4.97779767 5.2843123 7.05253575 11.12734206 7.5234375 18.30859375 C7.32171952 20.88049794 6.93726118 23.02816861 6.2734375 25.49609375 C6.93633789 25.52985107 7.59923828 25.5636084 8.28222656 25.59838867 C19.94731015 26.33811182 31.4646501 28.12630402 43.0234375 29.80859375 C45.25022216 30.12954709 47.47702892 30.45034708 49.70385742 30.77099609 C61.26132219 32.44139411 72.80488324 34.16554069 84.32543945 36.07519531 C94.9093333 37.80901218 105.53874309 39.22878582 116.16723633 40.65869141 C126.58532659 42.07410705 136.89047252 43.76559959 147.2734375 45.49609375 C147.2734375 80.47609375 147.2734375 115.45609375 147.2734375 151.49609375 C70.7134375 151.49609375 -5.8465625 151.49609375 -84.7265625 151.49609375 C-84.7265625 105.62609375 -84.7265625 59.75609375 -84.7265625 12.49609375 C-73.94475126 13.69407278 -63.29335765 14.91293713 -52.6015625 16.62109375 C-51.44269531 16.80285156 -50.28382812 16.98460937 -49.08984375 17.171875 C-46.30149935 17.6097142 -43.51377215 18.05109886 -40.7265625 18.49609375 C-40.77876953 16.89121094 -40.77876953 16.89121094 -40.83203125 15.25390625 C-40.66260403 9.21727715 -38.24565415 5.30258112 -34.4140625 0.74609375 C-24.05303457 -7.92825522 -10.58210182 -9.21744163 0 0 Z " fill="#FEDFB3" transform="translate(84.7265625,302.50390625)"/>
<path d="M0 0 C0.65506457 -0.00205263 1.31012914 -0.00410527 1.98504415 -0.0062201 C4.19541453 -0.01190595 6.40572292 -0.01043091 8.61609936 -0.00901413 C10.21071084 -0.01159685 11.80532168 -0.01460975 13.39993161 -0.01801753 C17.79398218 -0.02610161 22.18801644 -0.02787788 26.58207357 -0.028615 C31.31633563 -0.0304631 36.05058916 -0.03800917 40.78484631 -0.04475021 C51.14217806 -0.05834381 61.49950595 -0.06435978 71.85684514 -0.06876087 C78.32094133 -0.07152142 84.78503602 -0.07575842 91.2491312 -0.08026505 C109.13769245 -0.09245879 127.0262525 -0.10275807 144.91481781 -0.10614014 C146.63284404 -0.10646949 146.63284404 -0.10646949 148.38557787 -0.10680549 C149.53370568 -0.10702377 150.6818335 -0.10724204 151.86475307 -0.10746694 C154.19138897 -0.10791041 156.51802486 -0.10835697 158.84466076 -0.10880661 C159.99875831 -0.10902804 161.15285586 -0.10924947 162.34192606 -0.10947761 C181.04859423 -0.11342686 199.75522348 -0.13088428 218.46187661 -0.15416613 C237.65639275 -0.17786284 256.85088934 -0.19034121 276.04542035 -0.19150805 C286.82703088 -0.19242573 297.60859068 -0.19820143 308.39018726 -0.21632767 C317.56978833 -0.23170595 326.749323 -0.23686255 335.92893449 -0.22858956 C340.61419018 -0.22467506 345.29931208 -0.22565159 349.98455143 -0.23964691 C354.27225407 -0.25233787 358.55972172 -0.25123081 362.84742381 -0.2390562 C364.39992275 -0.23709084 365.95243807 -0.24021615 367.50491396 -0.24890056 C369.61351715 -0.25995065 371.72128479 -0.25253564 373.8298645 -0.24050903 C375.0015741 -0.24110612 376.17328371 -0.24170321 377.38049966 -0.24231839 C381.96713938 0.28952636 385.35951293 1.76282863 388.47869396 5.19392776 C390.49422417 10.45670109 390.56622967 15.86946886 388.35369396 21.06892776 C384.21370517 25.94820027 384.21370517 25.94820027 380.49920177 26.37092972 C377.94444393 26.42685654 375.40796085 26.39249971 372.85369396 26.31892776 C371.52144787 26.29862503 371.52144787 26.29862503 370.16228771 26.27791214 C367.97546819 26.24264086 365.7898943 26.19335529 363.60369396 26.13142776 C363.33814709 27.26580276 363.07260021 28.40017776 362.79900646 29.56892776 C362.4422661 31.08976825 362.08549354 32.61060118 361.72869396 34.13142776 C361.46765881 35.24711136 361.46765881 35.24711136 361.20135021 36.38533401 C360.94031506 37.49715042 360.94031506 37.49715042 360.67400646 38.63142776 C360.51690197 39.30174026 360.35979748 39.97205276 360.19793224 40.66267776 C359.35659869 44.15797968 358.47564167 47.64363694 357.60369396 51.13142776 C245.07369396 50.80142776 132.54369396 50.47142776 16.60369396 50.13142776 C10.60369396 28.13142776 10.60369396 28.13142776 10.60369396 26.13142776 C8.65076427 26.21843948 8.65076427 26.21843948 6.65838146 26.30720901 C4.93185495 26.3541255 3.20528949 26.39962363 1.47869396 26.44392776 C0.62275646 26.4858223 -0.23318104 26.52771683 -1.11505604 26.57088089 C-5.46465662 26.65452705 -8.46597718 26.57720244 -11.95099354 23.79939651 C-15.68269777 19.72790452 -15.84933984 16.03382389 -15.81818104 10.71345901 C-15.12368036 6.46285761 -12.70857442 3.76673619 -9.39630604 1.13142776 C-6.04405801 0.01401176 -3.53374008 0.00376086 0 0 Z " fill="#C2E2E1" transform="translate(111.39630603790283,194.86857223510742)"/>
<path d="M0 0 C2.02451516 0.00747227 4.04903761 0.01316054 6.07356262 0.01715088 C11.36891094 0.03232956 16.66381143 0.07154353 21.95898438 0.1159668 C27.37558944 0.15708805 32.79226778 0.17519771 38.20898438 0.1953125 C48.81269537 0.23804604 59.41607588 0.30620205 70.01953125 0.390625 C70.13499285 11.01309218 67.32319156 19.44201139 60.01953125 27.390625 C56.00519281 31.37777831 52.10839801 33.88716131 47.01953125 36.390625 C48.09075352 36.39301335 49.16197578 36.39540171 50.26565933 36.39786243 C76.35703233 36.45671379 102.4483134 36.5326315 128.53958511 36.62633991 C141.15724094 36.67126382 153.77486876 36.7106864 166.39257812 36.73706055 C177.3929548 36.76006813 188.39324259 36.79349712 199.39354873 36.83932656 C205.21558806 36.86322141 211.03753955 36.88197472 216.85962677 36.88823891 C222.34583248 36.89430661 227.83181355 36.91436747 233.31793594 36.94490051 C235.32535108 36.95365373 237.3327956 36.95740898 239.34022903 36.95563316 C254.52845086 36.9464441 269.44865639 37.18091523 281.08984375 48.3828125 C289.01953125 57.17514383 289.01953125 57.17514383 289.01953125 62.390625 C246.93724753 62.52788875 204.85498958 62.63364765 162.77252643 62.69701698 C157.80692806 62.70452143 152.84133013 62.71228734 147.87573242 62.72021484 C146.39285952 62.72257564 146.39285952 62.72257564 144.88002958 62.72498412 C128.86251964 62.75110852 112.8451386 62.79842505 96.82770518 62.85354178 C80.39843879 62.90960511 63.96924001 62.94296799 47.53988189 62.95515597 C37.39793667 62.96339825 27.25635576 62.98945185 17.11452266 63.0381238 C10.16458684 63.06978309 3.21483998 63.07943844 -3.73516276 63.07163326 C-7.74808527 63.06778131 -11.7603702 63.07378096 -15.77318001 63.10585785 C-19.44563724 63.13500036 -23.11702665 63.13656914 -26.78953246 63.11601837 C-28.75034009 63.11227211 -30.71113467 63.13820254 -32.67176121 63.16511285 C-40.99153436 63.07964947 -40.99153436 63.07964947 -43.85966742 61.08132291 C-49.68669352 54.2852964 -51.39019185 44.72324429 -51.2578125 36.015625 C-50.30751598 27.02126919 -47.21936468 18.94982139 -40.98046875 12.390625 C-40.32046875 11.69066406 -39.66046875 10.99070313 -38.98046875 10.26953125 C-27.65284775 -0.75467133 -14.86507724 -0.16193401 0 0 Z " fill="#FEEAD7" transform="translate(174.98046875,133.609375)"/>
<path d="M0 0 C1.52452985 1.17723327 3.02618126 2.38486784 4.5 3.625 C5.20511719 4.19605469 5.91023438 4.76710938 6.63671875 5.35546875 C13.7471442 11.70744882 18.68023833 20.07627303 20.07421875 29.51171875 C20.41512209 41.13769831 17.38222805 49.37354187 9.87890625 58.17578125 C1.35834548 66.94818125 -8.0856183 71.85644223 -19.5 75.625 C-20.50160156 75.9653125 -21.50320313 76.305625 -22.53515625 76.65625 C-43.16533268 82.52728835 -66.88122635 79.11684495 -85.6171875 69.30859375 C-95.98575877 63.25323573 -105.88437474 54.11237598 -109.0859375 42.1171875 C-111.04464785 30.32796857 -109.03372967 21.52863106 -102.5 11.625 C-94.3707052 1.12794944 -82.14399434 -5.78964818 -69.5 -9.375 C-68.45585937 -9.67277344 -67.41171875 -9.97054688 -66.3359375 -10.27734375 C-44.73956579 -15.66402497 -18.74224936 -12.55214865 0 0 Z " fill="#DD455B" transform="translate(343.5,279.375)"/>
<path d="M0 0 C116.49 0 232.98 0 353 0 C349 17 349 17 347 25 C234.47 24.67 121.94 24.34 6 24 C0 2 0 2 0 0 Z " fill="#A1CAD5" transform="translate(122,221)"/>
<path d="M0 0 C76.56 0 153.12 0 232 0 C232 8.58 232 17.16 232 26 C155.44 26 78.88 26 0 26 C0 17.42 0 8.84 0 0 Z " fill="#FFAB57" transform="translate(0,428)"/>
<path d="M0 0 C66 0 132 0 200 0 C198.87377821 9.00977435 198.87377821 9.00977435 198.0625 12.02734375 C197.80339844 12.99704102 197.80339844 12.99704102 197.5390625 13.98632812 C197.27222656 14.9521582 197.27222656 14.9521582 197 15.9375 C196.73316406 16.94393555 196.73316406 16.94393555 196.4609375 17.97070312 C195.13455704 22.86544296 195.13455704 22.86544296 194 24 C191.49586483 24.09773112 189.01933809 24.12995681 186.51475525 24.12025452 C185.72169167 24.12110894 184.92862808 24.12196337 184.11153227 24.12284368 C181.43362604 24.1245009 178.75578139 24.11897319 176.07788086 24.11352539 C174.16642763 24.11324354 172.25497429 24.1134012 170.34352112 24.1139679 C165.13712541 24.11425597 159.93075252 24.10835761 154.72436213 24.10139394 C149.28975841 24.09516208 143.85515423 24.09455674 138.42054749 24.09336853 C128.12161242 24.09025472 117.82268792 24.08204066 107.52375752 24.07201904 C95.80207243 24.06085945 84.08038685 24.05534784 72.35869777 24.05032361 C48.23912579 24.03985808 24.11956393 24.02205733 0 24 C0 16.08 0 8.16 0 0 Z " fill="#A1CAD5" transform="translate(232,381)"/>
<path d="M0 0 C3.62833663 3.81930172 4.31000458 6.88279006 4.5 12 C4.31000458 17.11720994 3.62833663 20.18069828 0 24 C-4.84602669 27.80596179 -8.99728706 28.94679033 -14.9140625 29.9375 C-15.80901932 30.09920181 -16.70397614 30.26090363 -17.62605286 30.42750549 C-20.62343065 30.96544907 -23.62396045 31.48290622 -26.625 32 C-28.75288827 32.37637845 -30.88056895 32.75393219 -33.00805664 33.13256836 C-37.70771722 33.9666928 -42.40883983 34.79196415 -47.11083984 35.61279297 C-54.97923346 36.99045736 -62.83959774 38.41104663 -70.69982147 39.83446121 C-75.32229714 40.67028753 -79.94585777 41.50008215 -84.56952667 42.32927895 C-88.37200019 43.0112758 -92.17405454 43.69541797 -95.97515869 44.38500977 C-99.59257741 45.04077016 -103.21148204 45.68766067 -106.83160973 46.32829094 C-108.80584548 46.67978927 -110.7785435 47.0398908 -112.75117493 47.40028381 C-119.57862626 48.59958944 -126.06599606 49.33284871 -133 49 C-133.71414616 44.76450549 -134.42617492 40.52866219 -135.13623047 36.29248047 C-135.37815902 34.850976 -135.62066925 33.40956904 -135.86376953 31.96826172 C-136.21278862 29.89836486 -136.55972472 27.82812812 -136.90625 25.7578125 C-137.11572266 24.5114502 -137.32519531 23.26508789 -137.54101562 21.98095703 C-138 19 -138 19 -138 17 C-114.77560637 12.58436392 -91.52253089 8.33236601 -68.24651527 4.19758034 C-63.09651827 3.28261984 -57.94754858 2.3625307 -52.80053711 1.4309082 C-47.72110534 0.51162265 -42.63961569 -0.3953359 -37.55642509 -1.29359627 C-35.64560675 -1.63336674 -33.73554196 -1.97740646 -31.82631111 -2.32598686 C-29.17529747 -2.80914627 -26.52192113 -3.2763643 -23.86743164 -3.73999023 C-22.71500221 -3.95566147 -22.71500221 -3.95566147 -21.53929138 -4.1756897 C-13.57519835 -5.53146072 -6.36921502 -5.48048735 0 0 Z " fill="#C3C6D4" transform="translate(508,63)"/>
<path d="M0 0 C4.94220338 5.24652625 6.91520961 11.03322413 7.6484375 18.12109375 C6.91172262 24.75152765 3.7456931 31.4961975 -1.36328125 35.91015625 C-8.20495617 40.9857589 -14.23575777 42.42757444 -22.7265625 41.49609375 C-29.43431342 39.65292045 -33.74268837 35.00891416 -37.7265625 29.49609375 C-40.76226809 24.0400283 -41.56138034 17.67606467 -40.7265625 11.49609375 C-38.43324531 4.75324265 -34.34222374 -0.02067905 -28.2890625 -3.75390625 C-18.82828212 -8.40130714 -7.97912255 -6.95014068 0 0 Z " fill="#DD455B" transform="translate(84.7265625,302.50390625)"/>
</svg>
