<?xml version="1.0" encoding="UTF-8"?>
<svg id="Layer_1" xmlns="http://www.w3.org/2000/svg" viewBox="0 0 423.56 557.34">
  <defs>
    <style>
      .cls-1 {
        fill: #fcc703;
      }

      .cls-2 {
        fill: #76c505;
      }
    </style>
  </defs>
  <path class="cls-1" d="M411.95,419.7c1.73,32.89-22.51,90.02-44.23,112.74-42.98,31.03-98.53,32.86-144.03,3.61-9.19-5.91-15.33-5.5-24.14.02-42.97,26.91-87.92,28.29-131.82,4.1C23.83,515.98,1.03,477.03.41,426.52c-.64-51.79-.37-103.59-.22-155.38.28-95.04,79.59-155.27,170.95-130.02,2.93.81,5.89,1.46,8.84,2.19.19,10.86.24,21.73.64,32.58.15,4-1.62,9.32,3.03,11.45,4.82,2.21,7.77-2.55,10.15-5.6,14.16-18.08,32.72-30.06,53.29-39.38,22-7.56,44.71-8.01,67.59-6.78,25.25,6.68,49.09,15.97,67.6,35.57,4.88,5.16,15.8,16.58,24.46,33.89,19.56,33.7,18.14,49.28,14.83,87.71"/>
  <path class="cls-2" d="M247.11,142.36c-20.57,9.33-39.13,21.3-53.29,39.38-2.39,3.05-5.33,7.81-10.15,5.6-4.66-2.13-2.88-7.45-3.03-11.45-.4-10.85-.45-21.72-.64-32.58.33-21.93.75-43.85.93-65.78.03-4.14.27-9.38-5.09-10.47-7-1.42-7.17,4.75-8.67,9.21-7.8,23.07-21.14,32.47-39.42,27.8-20.2-5.16-29.09-22.4-23.82-46.22C111.94,21.61,145.31-2.98,182.05.29c34.7,3.09,62.71,33.91,63.84,70.79.73,23.75.83,47.52,1.22,71.29Z"/>
</svg>