<?xml version="1.0" encoding="UTF-8"?>
<svg id="Layer_1" xmlns="http://www.w3.org/2000/svg" viewBox="0 0 437.45 575.62">
  <defs>
    <style>
      .cls-1 {
        fill: #5cba1e;
      }

      .cls-2 {
        fill: #76c505;
      }
    </style>
  </defs>
  <path class="cls-1" d="M425.46,433.47c1.79,33.97-23.24,92.97-45.68,116.44-44.39,32.04-101.76,33.94-148.75,3.72-9.49-6.1-15.83-5.68-24.93.02-44.37,27.8-90.81,29.21-136.14,4.24C24.61,532.9,1.06,492.68.42,440.51c-.66-53.48-.38-106.98-.22-160.47.29-98.16,82.2-160.37,176.56-134.28,3.02.84,6.09,1.51,9.13,2.26.2,11.22.25,22.44.67,33.65.15,4.13-1.68,9.62,3.13,11.82,4.98,2.28,8.02-2.64,10.49-5.79,14.63-18.68,33.8-31.04,55.04-40.68,22.72-7.8,46.18-8.27,69.81-7,26.08,6.9,50.7,16.49,69.82,36.73,5.04,5.33,16.32,17.12,25.26,35,20.2,34.8,18.74,50.9,15.31,90.58"/>
  <path class="cls-2" d="M255.21,147.03c-21.24,9.63-40.41,22-55.04,40.68-2.46,3.15-5.5,8.07-10.49,5.79-4.81-2.2-2.98-7.69-3.13-11.82-.42-11.21-.47-22.43-.67-33.65.35-22.65.77-45.29.96-67.94.04-4.27.28-9.68-5.25-10.81-7.23-1.47-7.4,4.91-8.96,9.51-8.06,23.83-21.84,33.53-40.71,28.71-20.86-5.33-30.04-23.14-24.6-47.73C115.62,22.31,150.08-3.08,188.02.3c35.84,3.19,64.76,35.02,65.93,73.11.75,24.53.86,49.08,1.26,73.62Z"/>
</svg>