<?xml version="1.0" encoding="UTF-8"?>
<svg version="1.1" xmlns="http://www.w3.org/2000/svg" width="512" height="512">
<path d="M0 0 C11.22192959 5.29675077 17.59497335 20.98712442 21.63671875 31.9375 C24.75796388 40.99024589 26.70638633 50.4417235 27.953125 59.921875 C28.654375 59.45136719 29.355625 58.98085937 30.078125 58.49609375 C42.90675123 50.07730779 54.53112687 47.08108793 70 50.12109375 C77.33023432 52.10878956 84.25024008 55.38424129 90.953125 58.921875 C90.953125 59.581875 90.953125 60.241875 90.953125 60.921875 C89.64601563 61.25058594 89.64601563 61.25058594 88.3125 61.5859375 C74.73774745 65.199995 62.46444357 69.74336931 54.91015625 82.32421875 C53.16139905 85.4760934 51.53349088 88.68212494 49.953125 91.921875 C50.86843994 92.07644165 50.86843994 92.07644165 51.80224609 92.23413086 C58.03878357 93.37190177 63.71633046 95.08844102 69.578125 97.484375 C70.87290771 98.0105542 70.87290771 98.0105542 72.19384766 98.54736328 C90.89544864 106.34572758 107.05564912 117.5219934 121.56787109 131.58349609 C122.76238644 132.73759076 123.97524582 133.87264358 125.19140625 135.00390625 C134.10426284 143.48808837 142.02601302 154.14709197 147.953125 164.921875 C147.953125 165.581875 147.953125 166.241875 147.953125 166.921875 C148.61957031 166.78910156 149.28601563 166.65632812 149.97265625 166.51953125 C167.41596096 163.17724769 184.46362997 163.07060361 201.953125 165.921875 C200.25272541 150.1931788 195.84319583 139.62749433 183.953125 128.921875 C181.99929952 127.4462009 180.05592056 126.18355234 177.953125 124.921875 C185.45136743 120.37197061 196.11856014 122.5946937 204.265625 124.546875 C216.03313627 127.63954675 224.25811394 134.36949296 230.6796875 144.69921875 C231.09992188 145.43269531 231.52015625 146.16617188 231.953125 146.921875 C232.57058594 146.02726563 233.18804687 145.13265625 233.82421875 144.2109375 C244.90719629 128.31761687 258.83754519 110.03642541 278.953125 105.921875 C288.01586652 125.80711366 286.2267215 148.40994209 279.953125 168.921875 C280.819375 168.591875 281.685625 168.261875 282.578125 167.921875 C292.53526284 165.14032637 302.79552194 166.3359965 311.953125 170.921875 C315.11847491 172.73064638 318.04784405 174.72224104 320.953125 176.921875 C321.58089844 177.38464844 322.20867187 177.84742188 322.85546875 178.32421875 C327.67180749 182.12881018 330.78723752 186.70337915 333.953125 191.921875 C333.39367187 191.8496875 332.83421875 191.7775 332.2578125 191.703125 C317.92868338 190.04444767 304.64246967 189.48919649 292.703125 198.671875 C291.4390337 199.7387322 290.18323994 200.81601409 288.953125 201.921875 C290.46607425 205.62483919 292.6337124 207.6418914 295.640625 210.234375 C322.62855368 233.61272068 338.48734093 266.71337449 342.953125 301.921875 C344.54262023 334.09325852 339.37982016 361.37100533 326.21386719 390.78173828 C325.20291533 393.04734488 324.21426614 395.32183465 323.2265625 397.59765625 C307.36563181 433.6041666 280.06360663 463.37258404 243.16308594 478.18798828 C233.59031092 481.88428682 224.0070354 484.87664698 213.953125 486.921875 C212.39464844 487.25832031 212.39464844 487.25832031 210.8046875 487.6015625 C194.50293962 490.53990224 177.14131449 489.86736518 160.890625 487.109375 C153.86615706 485.92487894 148.90551944 485.3100057 142.7578125 489.625 C142.16226562 490.05296875 141.56671875 490.4809375 140.953125 490.921875 C131.62705291 493.75080386 119.14510188 493.05934501 110.2734375 489.1796875 C98.78616196 482.95257854 92.0735984 474.26626844 87.953125 461.921875 C87.84613281 461.05433594 87.73914063 460.18679688 87.62890625 459.29296875 C86.66668466 455.91685021 84.91490326 455.07490758 82.015625 453.171875 C73.02770521 446.96731101 58.98912549 436.99387598 53.953125 426.921875 C52.81875 427.06625 51.684375 427.210625 50.515625 427.359375 C45.99959444 427.92488867 41.47765319 428.42962309 36.953125 428.921875 C36.69789063 429.664375 36.44265625 430.406875 36.1796875 431.171875 C32.70530133 438.96158156 24.39185304 444.70746954 16.66015625 447.85546875 C4.00920829 452.28436008 -8.03154526 451.96815794 -20.171875 446.234375 C-26.39070698 442.94910515 -32.34254111 439.30445603 -35.578125 432.8828125 C-39.29323079 428.42703689 -43.51674285 428.14522548 -49.046875 427.046875 C-78.41019617 420.4383578 -101.45969671 406.45368013 -123.046875 385.921875 C-123.67980469 385.34179688 -124.31273437 384.76171875 -124.96484375 384.1640625 C-143.35289263 366.78058636 -155.94347018 342.8500293 -163.359375 318.921875 C-163.58987549 318.18855957 -163.82037598 317.45524414 -164.05786133 316.69970703 C-164.81011839 314.12219754 -165.44342718 311.53847854 -166.046875 308.921875 C-166.31612793 307.76502197 -166.58538086 306.60816895 -166.86279297 305.41625977 C-169.7742271 291.48777099 -169.57472446 277.32834584 -169.54785156 263.16625977 C-169.54315407 260.30710618 -169.55692788 257.44906528 -169.58886719 254.59008789 C-170.12136402 206.3084831 -155.67245731 166.14221324 -122.328125 131.11645508 C-118.56780325 127.28265697 -114.65941121 123.78071154 -110.421875 120.484375 C-109.81778809 120.01410889 -109.21370117 119.54384277 -108.59130859 119.05932617 C-102.6835792 114.53417491 -96.53838461 110.56583583 -90.046875 106.921875 C-89.46808594 106.59622559 -88.88929687 106.27057617 -88.29296875 105.93505859 C-76.45466586 99.37988602 -63.87681192 95.11757467 -51.046875 90.921875 C-58.77297578 76.00067694 -66.98715461 68.55127434 -83.046875 62.921875 C-86.04635346 62.10422056 -88.98517609 61.48318647 -92.046875 60.921875 C-84.21189762 52.25925916 -70.9377497 50.052596 -59.8046875 48.63671875 C-49.69439797 48.15427755 -40.07616975 52.07130729 -32.046875 57.921875 C-31.03610017 58.9109828 -30.03422779 59.90938576 -29.046875 60.921875 C-28.82773438 59.67535156 -28.60859375 58.42882812 -28.3828125 57.14453125 C-24.78761981 37.51834719 -19.37586722 19.28977699 -6.046875 3.921875 C-5.39976562 3.15746094 -4.75265625 2.39304687 -4.0859375 1.60546875 C-2.046875 -0.078125 -2.046875 -0.078125 0 0 Z " fill="#D00B2F" transform="translate(169.046875,10.078125)"/>
<path d="M0 0 C1.19592773 0.52513184 2.39185547 1.05026367 3.62402344 1.59130859 C37.40765266 16.83742192 62.52612654 43.17872416 75.88720703 77.69287109 C77.54638889 82.25097899 78.88369997 86.8590997 80.0625 91.5625 C80.38089844 92.81289063 80.69929688 94.06328125 81.02734375 95.3515625 C85.13661199 113.53189252 85.04148756 134.60738654 80.0625 152.5625 C79.71832031 153.82835937 79.37414062 155.09421875 79.01953125 156.3984375 C75.93851678 166.83618546 71.51977982 176.7855691 67.1875 186.75 C66.75200333 187.7563147 66.75200333 187.7563147 66.30770874 188.78295898 C63.08222042 196.20542861 59.68026911 203.50132237 55.89453125 210.65625 C55.41942612 211.55847542 55.41942612 211.55847542 54.9347229 212.47892761 C38.8927082 242.22422399 10.0147167 262.88464431 -21.78686523 272.61279297 C-42.99330994 278.73933807 -64.40334942 279.47263863 -85.9375 274.5625 C-87.0821875 274.33046875 -88.226875 274.0984375 -89.40625 273.859375 C-127.91964502 265.01170317 -166.40133596 242.05901073 -187.9375 208.5625 C-188.63488281 207.48742187 -189.33226562 206.41234375 -190.05078125 205.3046875 C-207.78485282 176.17260099 -212.72499914 140.52797161 -204.99609375 107.40625 C-202.04113516 95.89329575 -197.34131203 85.09650302 -192.5625 74.25 C-192.24834137 73.53492279 -191.93418274 72.81984558 -191.61050415 72.08309937 C-184.87835497 56.83739835 -177.74781001 42.37501829 -166.9375 29.5625 C-165.67292969 28.05042969 -165.67292969 28.05042969 -164.3828125 26.5078125 C-145.92922569 5.42582163 -120.41548917 -9.06023286 -92.9375 -14.4375 C-92.0611792 -14.61482666 -91.1848584 -14.79215332 -90.28198242 -14.97485352 C-57.62389449 -21.06420076 -29.50918113 -13.04984296 0 0 Z " fill="#FECBAE" transform="translate(413.9375,206.4375)"/>
<path d="M0 0 C-0.95519531 0.84820312 -1.91039063 1.69640625 -2.89453125 2.5703125 C-32.76661748 29.50250762 -50.98140956 66.34265237 -57 106 C-57.16918945 107.07499756 -57.33837891 108.14999512 -57.51269531 109.25756836 C-58.8910492 118.63789535 -59.39936413 127.84446445 -59.375 137.3125 C-59.37512085 138.04312653 -59.3752417 138.77375305 -59.37536621 139.52651978 C-59.33053309 158.74506925 -56.76463608 177.63002636 -51 196 C-50.77505859 196.75990234 -50.55011719 197.51980469 -50.31835938 198.30273438 C-38.28634946 238.84330603 -13.21662738 274.17015281 24.05322266 294.95507812 C31.42783 298.91335746 39.00853861 302.4821423 47 305 C46.60167969 304.02160156 46.20335937 303.04320312 45.79296875 302.03515625 C44.41601724 298.638589 43.05984715 295.23422445 41.71777344 291.82373047 C41.16265579 290.41327848 40.60200188 289.0050047 40.0390625 287.59765625 C26.67632992 251.31711886 35.66236034 205.25157404 51 171 C61.20487375 149.07331181 73.91016976 131.01342266 91 114 C91.52746826 113.45029541 92.05493652 112.90059082 92.59838867 112.33422852 C113.59711449 90.6834604 146.56442012 75.74294579 176.75878906 74.92529297 C179.5483672 74.90252288 182.33546587 74.91203375 185.125 74.9375 C186.55972656 74.94426758 186.55972656 74.94426758 188.0234375 74.95117188 C190.34902758 74.96279983 192.6744776 74.97913898 195 75 C192.52850258 76.64766495 190.72822519 77.56779414 188 78.55859375 C171.06474523 84.89666388 155.49580168 92.81659395 142 105 C141.15308594 105.72832031 140.30617187 106.45664063 139.43359375 107.20703125 C118.52593189 125.43340518 106.9990614 147.71124144 96.1875 172.75 C95.86085358 173.50276215 95.53420715 174.25552429 95.19766235 175.03109741 C90.19998384 186.58939855 85.75344208 198.16025673 83.3125 210.5625 C83.08175781 211.69816406 82.85101563 212.83382812 82.61328125 214.00390625 C75.80319307 254.10482828 86.35918705 291.23595517 107.99609375 324.8671875 C110 328 110 328 111 330 C105.62819824 332.62875405 100.95507399 333.6083965 95 334 C94.74476563 334.7425 94.48953125 335.485 94.2265625 336.25 C90.75217633 344.03970656 82.43872804 349.78559454 74.70703125 352.93359375 C62.05608329 357.36248508 50.01532974 357.04628294 37.875 351.3125 C31.65616802 348.02723015 25.70433389 344.38258103 22.46875 337.9609375 C18.75364421 333.50516189 14.53013215 333.22335048 9 332.125 C-20.36332117 325.5164828 -43.41282171 311.53180513 -65 291 C-65.63292969 290.41992188 -66.26585937 289.83984375 -66.91796875 289.2421875 C-85.30601763 271.85871136 -97.89659518 247.9281543 -105.3125 224 C-105.54300049 223.26668457 -105.77350098 222.53336914 -106.01098633 221.77783203 C-106.76324339 219.20032254 -107.39655218 216.61660354 -108 214 C-108.26925293 212.84314697 -108.53850586 211.68629395 -108.81591797 210.49438477 C-111.7273521 196.56589599 -111.52784946 182.40647084 -111.50097656 168.24438477 C-111.49627907 165.38523118 -111.51005288 162.52719028 -111.54199219 159.66821289 C-112.07448902 111.3866081 -97.62558231 71.22033824 -64.28125 36.19458008 C-60.52092825 32.36078197 -56.61253621 28.85883654 -52.375 25.5625 C-51.77091309 25.09223389 -51.16682617 24.62196777 -50.54443359 24.13745117 C-42.65827509 18.09687996 -10.99437432 -5.49718716 0 0 Z " fill="#A70825" transform="translate(111,105)"/>
<path d="M0 0 C0.99773437 0.51433594 0.99773437 0.51433594 2.015625 1.0390625 C5.35274413 2.65506901 8.33105535 2.17752958 12 2 C12.66 1.67 13.32 1.34 14 1 C19.25575165 0.4761424 23.64526095 0.33494628 28.4375 2.6875 C35.65189661 9.19805304 35.65189661 9.19805304 36.23828125 13.91796875 C36.433605 19.8907634 35.52467802 23.14166002 32 28 C28.26339044 31.83759901 25.291375 32.5849902 20 33 C18.65010065 36.66401252 17.74425652 40.22976795 17.0625 44.0625 C16.32784923 47.89772408 15.4903749 50.88703137 13 54 C12.34 54 11.68 54 11 54 C9.22331408 58.92005332 8.07973064 63.89618597 6.9765625 69 C5.83329081 72.51213063 4.10685747 74.97115428 2 78 C-2.68621395 85.95098627 -6.63982695 93.35012211 -6.87890625 102.73046875 C-7.05714568 106.07102072 -8.1306515 108.2627397 -10 111 C-10.7734375 111.53882813 -11.546875 112.07765625 -12.34375 112.6328125 C-15.88125044 115.78534966 -17.38602233 119.13835458 -19.25 123.4375 C-19.60352539 124.23575195 -19.95705078 125.03400391 -20.32128906 125.85644531 C-22.79294542 131.74640005 -23.68355692 136.94860954 -23.8125 143.35546875 C-24.0824421 147.16277707 -25.44365471 149.23062594 -28 152 C-28.80646973 152.58023926 -29.61293945 153.16047852 -30.44384766 153.75830078 C-33.45143971 156.39590444 -34.56251149 158.64652717 -36.1484375 162.3046875 C-36.41008698 162.90628693 -36.67173645 163.50788635 -36.9413147 164.12771606 C-37.48743112 165.39389316 -38.02659274 166.66309054 -38.55908203 167.93505859 C-39.37356724 169.87159345 -40.21815697 171.79289851 -41.06640625 173.71484375 C-41.59561323 174.95232986 -42.123019 176.19058812 -42.6484375 177.4296875 C-43.12458496 178.54585449 -43.60073242 179.66202148 -44.09130859 180.81201172 C-45.1017022 184.35680476 -44.85913997 186.45442346 -44 190 C-43.31442227 196.54108593 -44.11164034 201.58319708 -48 207 C-51.74029564 210.74029564 -54.70748444 211.24114654 -59.8125 211.3125 C-61.87591284 211.22833112 -63.93865836 211.1250104 -66 211 C-66.82371094 210.99097656 -67.64742188 210.98195313 -68.49609375 210.97265625 C-75.58749956 210.66540297 -80.01817972 207.22974691 -84.73828125 202.1171875 C-85.29902344 201.50101563 -85.85976563 200.88484375 -86.4375 200.25 C-89.68673165 196.85240161 -92.31386585 196.23891865 -96.85546875 195.50390625 C-100.64004407 194.61463445 -102.34953217 192.83978696 -105 190 C-107.97178249 184.74985093 -108.3846083 180.8652765 -108 175 C-107.76925781 174.41734375 -107.53851563 173.8346875 -107.30078125 173.234375 C-106.81569549 169.63088081 -108.51233988 166.67139724 -109.9375 163.4375 C-113 156.35504435 -113 156.35504435 -113 153 C-113.70125 152.938125 -114.4025 152.87625 -115.125 152.8125 C-118.89147393 151.74806172 -121.4240133 149.87207712 -124 147 C-126.64950489 142.23089121 -127.76209056 138.42989525 -127 133 C-124.85901901 128.32722403 -122.83771559 125.03638883 -118 123 C-118.14058476 120.54126232 -118.28722999 118.08314825 -118.4375 115.625 C-118.47681641 114.92632812 -118.51613281 114.22765625 -118.55664062 113.5078125 C-118.74280134 109.62639508 -118.74280134 109.62639508 -120 106 C-121.0861314 98.85078068 -119.58319632 94.58823912 -115.640625 88.68359375 C-113.86467235 85.77864263 -112.72524023 82.94753564 -111.5625 79.75 C-108.54880179 71.5112536 -104.87606479 63.31409718 -100 56 C-100.25313053 52.87805683 -101.06043821 50.88879369 -102.5625 48.125 C-104.73973456 43.39188138 -104.63435898 39.82844648 -102.9375 34.9375 C-99.92475895 30.36979583 -96.24110803 26.74703601 -91 25 C-85.68933397 24.59919502 -82.62258572 25.41995216 -78 28 C-77.34 28 -76.68 28 -76 28 C-75.319375 27.2575 -74.63875 26.515 -73.9375 25.75 C-71.13300794 22.82214319 -68.10228831 21.564766 -64.40234375 20.01953125 C-57.80971176 17.22168255 -52.69052639 14.37966187 -48.38671875 8.55078125 C-46.64764557 6.60595857 -45.48367755 5.85178755 -43 5 C-40.46769235 4.93441095 -38.02396833 4.95850178 -35.5 5.0625 C-27.11702581 5.23543348 -19.2820897 4.35095121 -11.8125 0.25 C-7.77130398 -1.54608712 -4.24030028 -1.0253817 0 0 Z " fill="#D00C2F" transform="translate(353,217)"/>
<path d="M0 0 C4.9366011 2.29199337 7.39931255 5.26303358 10 10 C10.69730806 12.3243602 11.36912152 14.65673706 12 17 C14.30645708 19.30645708 15.06665383 19.29879333 18.1875 19.75 C23.28694048 20.7863379 26.61366063 23.07897547 30 27 C31.70537941 29.90305339 32.24324535 31.97282536 32.1953125 35.328125 C32.18564453 36.52695312 32.18564453 36.52695312 32.17578125 37.75 C32.15064453 38.9875 32.15064453 38.9875 32.125 40.25 C32.11597656 41.09046875 32.10695313 41.9309375 32.09765625 42.796875 C32.07415817 44.86470604 32.03828908 46.93238995 32 49 C32.76828125 49.268125 33.5365625 49.53625 34.328125 49.8125 C38.51586906 51.67371958 40.94504822 54.89009645 43 59 C43.0952699 60.47668337 43.12985959 61.95775457 43.125 63.4375 C43.12757813 64.21996094 43.13015625 65.00242187 43.1328125 65.80859375 C43 68 43 68 42 71 C41.49912254 75.84455247 41.16078278 79.71320026 43.875 83.875 C44.57625 84.57625 45.2775 85.2775 46 86 C48.52120709 90.22568512 48.71968233 94.18817045 48 99 C46 102.3125 46 102.3125 44 105 C43.60199282 109.02351507 43.60199282 109.02351507 46 111.6875 C48.60608232 116.00382384 48.80752041 119.07995297 48 124 C46.5834589 128.75253728 44.6822781 131.93721449 40.375 134.5 C37 136 37 136 35 136 C34.60361328 137.24136719 34.60361328 137.24136719 34.19921875 138.5078125 C31.05979942 147.64996522 27.76077728 157.11978506 20.86328125 164.09375 C18.64555651 166.36261724 16.76277877 168.81052075 14.8125 171.3125 C-1.5146421 191.24648125 -23.34635397 203.40340174 -48 210 C-48.66 210 -49.32 210 -50 210 C-50 210.66 -50 211.32 -50 212 C-55.5287009 215.8460528 -60.25478403 217.20372825 -67 216 C-68.14275391 215.2575 -68.14275391 215.2575 -69.30859375 214.5 C-73.36640226 212.23846376 -77.50356407 212.56477258 -82.02929688 212.56054688 C-87.98423034 212.39685676 -91.42601195 210.50062022 -95.64453125 206.40234375 C-100.83135472 199.89713037 -100.24717772 194.21343075 -100.3125 186.1875 C-100.34150391 185.01123047 -100.37050781 183.83496094 -100.40039062 182.62304688 C-100.48116832 171.63106656 -100.48116832 171.63106656 -96 167 C-94.10546875 165.8828125 -94.10546875 165.8828125 -92.1875 165.125 C-85.65795303 161.34152418 -83.10022811 152.92164962 -81 146 C-80.35395122 142.57594148 -79.91038326 139.19148357 -79.5234375 135.73046875 C-78.73039439 131.59362447 -77.13399514 129.74224575 -74 127 C-73.34 127 -72.68 127 -72 127 C-71.81824219 126.43152344 -71.63648438 125.86304688 -71.44921875 125.27734375 C-69.85934957 120.39359176 -68.02428225 115.72332525 -66 111 C-65.51179928 109.48204256 -65.03303782 107.96102515 -64.5625 106.4375 C-63.2707686 102.44793375 -61.38262754 99.46564006 -59 96 C-56.2688677 91.12435185 -54.82717033 86.91243866 -54.5 81.3125 C-54.21053475 76.50603053 -53.30429654 73.68193044 -50 70 C-48.98486328 69.54560547 -48.98486328 69.54560547 -47.94921875 69.08203125 C-44.99198754 67.44044198 -44.81536527 64.9062869 -43.91796875 61.8125 C-42.83430779 58.49234726 -41.39927739 55.42131365 -39.9375 52.25 C-37.82500989 47.48019264 -36.63246275 43.4346797 -36.125 38.25 C-35.3944829 32.12546267 -33.2296415 29.2401072 -29.15625 24.74609375 C-26.149021 20.91623508 -24.36419695 16.74863403 -22.52270508 12.26416016 C-17.94008831 1.47867992 -11.05268714 -1.17114566 0 0 Z " fill="#A70B27" transform="translate(426,241)"/>
<path d="M0 0 C4.07746388 2.51361729 7.2408129 5.49208305 9 10 C9.23046875 12.25390625 9.23046875 12.25390625 9.1875 14.5625 C9.18105469 15.32691406 9.17460937 16.09132813 9.16796875 16.87890625 C9 19 9 19 8 22 C7.49912254 26.84455247 7.16078278 30.71320026 9.875 34.875 C10.57625 35.57625 11.2775 36.2775 12 37 C14.52120709 41.22568512 14.71968233 45.18817045 14 50 C12 53.3125 12 53.3125 10 56 C9.60199282 60.02351507 9.60199282 60.02351507 12 62.6875 C14.60608232 67.00382384 14.80752041 70.07995297 14 75 C12.5834589 79.75253728 10.6822781 82.93721449 6.375 85.5 C3 87 3 87 1 87 C0.73574219 87.82757813 0.47148437 88.65515625 0.19921875 89.5078125 C-2.94020058 98.64996522 -6.23922272 108.11978506 -13.13671875 115.09375 C-15.35444349 117.36261724 -17.23722123 119.81052075 -19.1875 122.3125 C-27.97975841 133.0470617 -43.38720932 149.15251057 -57.75 151.4375 C-62.93158041 150.73997956 -66.92163857 148.33960798 -70.3984375 144.42578125 C-73.3580862 139.92333695 -74.07103344 135.26516438 -73 130 C-71.35529233 126.40106402 -69.62724937 122.81362468 -66 121 C-67.216875 120.79375 -68.43375 120.5875 -69.6875 120.375 C-74.53197516 119.1896497 -76.21794459 117.04662605 -79 113 C-80.96048434 109.07903131 -80.55444525 104.13216813 -79.46875 99.95703125 C-78.02272833 96.27124775 -76.4185943 94.00400355 -73 92 C-74.175625 92.0928125 -74.175625 92.0928125 -75.375 92.1875 C-76.24125 92.125625 -77.1075 92.06375 -78 92 C-80.28062828 88.57905758 -80.21925007 87.31812778 -80.125 83.3125 C-80.10695313 82.31863281 -80.08890625 81.32476562 -80.0703125 80.30078125 C-80.04710937 79.54152344 -80.02390625 78.78226562 -80 78 C-81.15435547 77.57654297 -81.15435547 77.57654297 -82.33203125 77.14453125 C-86.4746194 75.36740339 -89.054606 72.62067542 -91.3125 68.75 C-92.67694937 63.29220252 -92.89869168 58.76409849 -90.3125 53.6875 C-87.1895627 50.05814043 -84.65649326 47.61218229 -80.125 45.9375 C-75.70431588 46.02591368 -73.08095653 47.91158353 -70 51 C-67.23410845 54.77983787 -66.68368336 57.42064629 -66.625 62.0625 C-66.43774537 66.86453705 -66.43774537 66.86453705 -63.5625 70.625 C-62.716875 71.07875 -61.87125 71.5325 -61 72 C-60.34 72.66 -59.68 73.32 -59 74 C-59.3609375 74.47308594 -59.721875 74.94617188 -60.09375 75.43359375 C-63.19001999 79.84577848 -64.91538277 83.42759981 -64.6328125 88.890625 C-63.632335 92.22555001 -61.50617181 93.75491614 -58.7265625 95.7109375 C-55.3414729 98.23826684 -54.64427133 101.02699347 -54 105 C-52.02 104.01 -50.04 103.02 -48 102 C-48.7425 101.608125 -49.485 101.21625 -50.25 100.8125 C-53.77928384 98.48638111 -56.10940073 95.78119855 -58 92 C-58.52113171 86.77159666 -58.64273534 82.35963246 -56.375 77.5625 C-53.7423299 74.72198753 -51.32136039 72.96262205 -48 71 C-48.59167969 71.05800781 -49.18335938 71.11601562 -49.79296875 71.17578125 C-54.1968936 71.42722884 -56.29508103 71.52493966 -59.9375 68.8125 C-63.57639469 63.85037088 -64.54279007 60.18780684 -64 54 C-62.13776477 48.6323808 -58.78572182 44.96939243 -54 42 C-50.15471598 41.30784888 -48.58135377 41.69668499 -45.125 43.5 C-44.42375 43.995 -43.7225 44.49 -43 45 C-43.04640625 44.27554688 -43.0928125 43.55109375 -43.140625 42.8046875 C-43.37099474 36.6340694 -43.32603769 32.79371744 -39 28 C-35.53999252 24.63104535 -32.89821994 23 -28 23 C-23.7067858 25.23247139 -20.42955369 27.79500324 -18 32 C-17.05089502 38.29968434 -18.1145875 44.53815565 -21.16796875 50.14453125 C-23.78703527 52.79710395 -25.83334318 52.6685441 -29.5 52.875 C-30.6446875 52.95492187 -31.789375 53.03484375 -32.96875 53.1171875 C-36 53 -36 53 -39 51 C-38.67 51.66 -38.34 52.32 -38 53 C-37.59443143 58.98213645 -38.23405863 62.68088198 -41 68 C-41.66 68.66 -42.32 69.32 -43 70 C-41.68 70.99 -40.36 71.98 -39 73 C-38.98582031 72.43152344 -38.97164063 71.86304688 -38.95703125 71.27734375 C-38.58418938 65.24133619 -37.21139824 61.38984732 -33 57 C-30.06218747 54.60336346 -28.32739893 54.04762166 -24.5625 53.5 C-20.19357194 54.11318289 -17.80680378 55.73213624 -15 59 C-13.47783823 61.28088637 -12.24969581 63.5486736 -11 66 C-10.2265625 64.63875 -10.2265625 64.63875 -9.4375 63.25 C-6.96443733 59.48237384 -3.98317039 57.9915852 0 56 C-1.2375 55.95875 -2.475 55.9175 -3.75 55.875 C-7.2842095 55.41755799 -7.86380279 55.13960214 -10.5 52.4375 C-12.95687317 46.80716566 -12.6559384 42.87410972 -10.6875 37.25 C-9.29659608 34.57122207 -7.93426374 32.30269492 -6 30 C-6.556875 29.938125 -7.11375 29.87625 -7.6875 29.8125 C-11.00086472 28.64834483 -12.70475296 26.60541556 -15 24 C-16.6557483 19.0327551 -16.82170312 14.16499103 -16 9 C-12.05812904 2.31326601 -7.87543742 -0.90373872 0 0 Z " fill="#D00B2F" transform="translate(460,290)"/>
<path d="M0 0 C0.66515625 0.34289062 1.3303125 0.68578125 2.015625 1.0390625 C5.35274413 2.65506901 8.33105535 2.17752958 12 2 C12.66 1.67 13.32 1.34 14 1 C19.25575165 0.4761424 23.64526095 0.33494628 28.4375 2.6875 C35.65189661 9.19805304 35.65189661 9.19805304 36.23828125 13.91796875 C36.433605 19.8907634 35.52467802 23.14166002 32 28 C28.26339044 31.83759901 25.291375 32.5849902 20 33 C18.65010065 36.66401252 17.74425652 40.22976795 17.0625 44.0625 C16.32784923 47.89772408 15.4903749 50.88703137 13 54 C12.34 54 11.68 54 11 54 C9.22331408 58.92005332 8.07973064 63.89618597 6.9765625 69 C5.83180867 72.51668378 4.10072626 74.95731108 2 78 C0.3480322 80.92255281 -1.20048862 83.89711168 -2.75 86.875 C-3.36681641 88.050625 -3.36681641 88.050625 -3.99609375 89.25 C-5.00036116 91.1651146 -6.00059713 93.08234235 -7 95 C-7.6084375 94.22140625 -8.216875 93.4428125 -8.84375 92.640625 C-12.08666044 88.66923468 -14.95645311 86.06854807 -20 85 C-20.08636719 84.11957031 -20.17273438 83.23914063 -20.26171875 82.33203125 C-20.80984522 74.9470255 -20.80984522 74.9470255 -24.5 68.875 C-25.325 68.25625 -26.15 67.6375 -27 67 C-27.66 66.01 -28.32 65.02 -29 64 C-28.401875 63.2575 -27.80375 62.515 -27.1875 61.75 C-25.41826778 59.52582236 -23.69139085 57.28337765 -22 55 C-22.87011719 54.76216797 -22.87011719 54.76216797 -23.7578125 54.51953125 C-30.60322224 52.47494517 -35.02484312 50.22608958 -38.875 43.9375 C-40 41 -40 41 -40 37 C-43.05066383 37.67116653 -43.05066383 37.67116653 -44.16796875 39.79296875 C-46.06605801 44.82780645 -45.36789236 49.75325366 -43.875 54.8125 C-41.62201598 58.64257283 -39.82716728 59.87379596 -36 62 C-36.7425 62.53625 -37.485 63.0725 -38.25 63.625 C-43.47044536 68.13356645 -45.4509121 72.13640124 -46 79 C-48.97 77.68 -51.94 76.36 -55 75 C-54.67 73.989375 -54.34 72.97875 -54 71.9375 C-52.62350448 67.0355915 -52.03205324 62.81490018 -54.5 58.1875 C-54.995 57.465625 -55.49 56.74375 -56 56 C-56 55.34 -56 54.68 -56 54 C-56.66 54 -57.32 54 -58 54 C-58 53.34 -58 52.68 -58 52 C-62.79440688 50.43447939 -66.90224851 49.33918036 -72 50 C-75.14535372 52.05131764 -76.63225713 53.65614949 -77.6328125 57.3125 C-78.46265164 63.10371785 -78.01175255 66.98041242 -75 72 C-72.14478896 75.00954677 -70.84966758 75.93587415 -66.6875 76.25 C-65.800625 76.1675 -64.91375 76.085 -64 76 C-64.30679688 76.55171875 -64.61359375 77.1034375 -64.9296875 77.671875 C-66.09442941 80.20540121 -66.62057956 82.51171762 -67.125 85.25 C-67.29257812 86.14203125 -67.46015625 87.0340625 -67.6328125 87.953125 C-67.75398438 88.62859375 -67.87515625 89.3040625 -68 90 C-70.97 90.495 -70.97 90.495 -74 91 C-73.54177532 87.53058454 -73.10868317 84.32604951 -72 81 C-72.721875 80.938125 -73.44375 80.87625 -74.1875 80.8125 C-78.824082 79.47304298 -81.13975363 76.24587406 -83.8125 72.375 C-85 70 -85 70 -85 67 C-88.70595357 67.84226218 -90.67216455 68.65444372 -93.3125 71.4375 C-95.5875278 76.24033647 -95.81281253 80.74003201 -96 86 C-96.74765625 85.94199219 -97.4953125 85.88398438 -98.265625 85.82421875 C-104.50519073 85.32207163 -104.50519073 85.32207163 -109.625 88.375 C-112.41048856 93.69275089 -112.47776064 98.00627564 -112 104 C-110.32525492 108.14279047 -107.79872678 110.64840723 -104 113 C-101.20456939 112.86363753 -99.45792625 112.24327332 -97 110.9375 C-94.55010213 109.78911037 -92.67361665 109.85146574 -90 110 C-91.1446875 111.0828125 -91.1446875 111.0828125 -92.3125 112.1875 C-96.1409242 116.19399045 -98.2124927 119.48744891 -99 125 C-99.9075 124.505 -100.815 124.01 -101.75 123.5 C-106.95973205 121.21201459 -112.425617 121.75285987 -118 122 C-118.06058594 121.01257813 -118.12117187 120.02515625 -118.18359375 119.0078125 C-118.26738281 117.72648437 -118.35117188 116.44515625 -118.4375 115.125 C-118.55931641 113.21074219 -118.55931641 113.21074219 -118.68359375 111.2578125 C-118.79206027 108.11699848 -118.79206027 108.11699848 -120 106 C-121.0861314 98.85078068 -119.58319632 94.58823912 -115.640625 88.68359375 C-113.86467235 85.77864263 -112.72524023 82.94753564 -111.5625 79.75 C-108.54880179 71.5112536 -104.87606479 63.31409718 -100 56 C-100.25313053 52.87805683 -101.06043821 50.88879369 -102.5625 48.125 C-104.73973456 43.39188138 -104.63435898 39.82844648 -102.9375 34.9375 C-99.92475895 30.36979583 -96.24110803 26.74703601 -91 25 C-85.68933397 24.59919502 -82.62258572 25.41995216 -78 28 C-77.34 28 -76.68 28 -76 28 C-75.319375 27.2575 -74.63875 26.515 -73.9375 25.75 C-71.13300794 22.82214319 -68.10228831 21.564766 -64.40234375 20.01953125 C-57.80971176 17.22168255 -52.69052639 14.37966187 -48.38671875 8.55078125 C-46.64764557 6.60595857 -45.48367755 5.85178755 -43 5 C-40.46769235 4.93441095 -38.02396833 4.95850178 -35.5 5.0625 C-27.11702581 5.23543348 -19.2820897 4.35095121 -11.8125 0.25 C-7.77130398 -1.54608712 -4.24030028 -1.0253817 0 0 Z " fill="#D00C2F" transform="translate(353,217)"/>
<path d="M0 0 C0.99 0.33 1.98 0.66 3 1 C2.6390625 1.4846875 2.278125 1.969375 1.90625 2.46875 C-1.65276823 7.60955411 -2.55618754 10.7706996 -2 17 C-2.65226562 16.86980469 -3.30453125 16.73960937 -3.9765625 16.60546875 C-9.0579152 15.69997133 -9.0579152 15.69997133 -13.9296875 16.90625 C-16.69965508 19.16632305 -19.01567002 21.55484507 -20 25 C-20.49156825 30.99713268 -19.67844819 34.64310362 -17 40 C-15.02 40 -13.04 40 -11 40 C-11.42152344 40.48210937 -11.84304688 40.96421875 -12.27734375 41.4609375 C-12.82519531 42.09257812 -13.37304688 42.72421875 -13.9375 43.375 C-14.48277344 44.00148438 -15.02804687 44.62796875 -15.58984375 45.2734375 C-19.09784799 49.56855627 -18.46000007 54.69466585 -18 60 C-16.66829691 62.97984167 -16.66829691 62.97984167 -15 65 C-15 65.66 -15 66.32 -15 67 C-11.37802806 68.49140021 -7.72433382 69.7874262 -4 71 C-6.27513561 78.30870877 -9.18458807 85.2136197 -12.390625 92.15820312 C-14.48107802 96.91167809 -15.45161881 99.81779605 -14 105 C-13.31442227 111.54108593 -14.11164034 116.58319708 -18 122 C-21.74029564 125.74029564 -24.70748444 126.24114654 -29.8125 126.3125 C-31.87591284 126.22833112 -33.93865836 126.1250104 -36 126 C-37.23556641 125.98646484 -37.23556641 125.98646484 -38.49609375 125.97265625 C-45.58749956 125.66540297 -50.01817972 122.22974691 -54.73828125 117.1171875 C-55.29902344 116.50101562 -55.85976563 115.88484375 -56.4375 115.25 C-59.68673165 111.85240161 -62.31386585 111.23891865 -66.85546875 110.50390625 C-70.64004407 109.61463445 -72.34953217 107.83978696 -75 105 C-77.97178249 99.74985093 -78.3846083 95.8652765 -78 90 C-77.76925781 89.41734375 -77.53851563 88.8346875 -77.30078125 88.234375 C-76.81569549 84.63088081 -78.51233988 81.67139724 -79.9375 78.4375 C-83 71.35504435 -83 71.35504435 -83 68 C-84.051875 67.9071875 -84.051875 67.9071875 -85.125 67.8125 C-88.89147393 66.74806172 -91.4240133 64.87207712 -94 62 C-96.64950489 57.23089121 -97.76209056 53.42989525 -97 48 C-94.85901901 43.32722403 -92.83771559 40.03638883 -88 38 C-88.33 38.639375 -88.66 39.27875 -89 39.9375 C-90.73516967 45.25145712 -90.69910614 50.04986182 -88.8125 55.3125 C-86.4417781 58.82770834 -83.78719238 61.10640381 -80 63 C-78.46331135 63.22467831 -76.92031946 63.40796805 -75.375 63.5625 C-74.55773437 63.64628906 -73.74046875 63.73007812 -72.8984375 63.81640625 C-71.95871094 63.90728516 -71.95871094 63.90728516 -71 64 C-70.95875 63.319375 -70.9175 62.63875 -70.875 61.9375 C-69.64669934 57.8139192 -67.2370442 54.82009471 -64 52 C-61.80078125 51.296875 -61.80078125 51.296875 -60 51 C-60.66 51.969375 -61.32 52.93875 -62 53.9375 C-64.47156455 58.28252807 -64.7331024 62.10073029 -64 67 C-62.31535569 71.69927097 -60.29718917 74.43997241 -56 77 C-52.69546124 77.89202273 -49.38448093 78.50054262 -46 79 C-45.62875 77.88625 -45.62875 77.88625 -45.25 76.75 C-44 74 -44 74 -41.875 72.3125 C-39.25403851 69.07998083 -39.56022745 66.4907913 -39.56640625 62.4375 C-40.07534411 59.57644394 -41.19069912 58.22683185 -43 56 C-43 55.34 -43 54.68 -43 54 C-44.32 53.34 -45.64 52.68 -47 52 C-46.34 50.35 -45.68 48.7 -45 47 C-42.9896084 49.0103916 -42.35171346 50.31399941 -41.25 52.875 C-39.22994726 56.9821921 -37.18914525 58.94649743 -33 61 C-29.26774656 61.79682803 -29.26774656 61.79682803 -26 62 C-26.05220703 60.80503906 -26.05220703 60.80503906 -26.10546875 59.5859375 C-26.33420366 50.63259978 -26.33420366 50.63259978 -24.25 46.6875 C-22.69620518 44.17405781 -22.69620518 44.17405781 -23.65625 42.1953125 C-24.71677044 40.31377862 -24.71677044 40.31377862 -25.921875 38.61328125 C-28.41301523 34.88559678 -28.3617246 31.34069514 -28 27 C-26.1384613 22.15392915 -23.35112756 18.86537668 -19 16 C-17.6696875 15.690625 -17.6696875 15.690625 -16.3125 15.375 C-13.78508042 14.21683804 -13.78508042 14.21683804 -13.2421875 11.65625 C-12.73399289 9.10811929 -12.31871182 6.57823595 -12 4 C-10 5 -8 6 -6 7 C-5.7525 6.401875 -5.505 5.80375 -5.25 5.1875 C-3.80517427 2.65905497 -2.51719455 1.44929383 0 0 Z " fill="#A70926" transform="translate(323,302)"/>
<path d="M0 0 C0.99 0.33 1.98 0.66 3 1 C2.34 1.94875 1.68 2.8975 1 3.875 C-1.61292682 8.47561759 -1.85362124 12.82705528 -1 18 C1.00058409 21.92971874 3.12572866 24.84762703 7 27 C9.65361464 27.81139371 12.28252985 28.4112148 15 29 C13.515 29.495 13.515 29.495 12 30 C13.63808445 35.5887587 15.33265647 39.23113006 19.94921875 42.87890625 C23.46141797 44.79890849 27.05468825 44.98210743 31 45 C30.01 46.423125 30.01 46.423125 29 47.875 C26.36733953 52.49386694 26.29612031 56.80674133 27 62 C28.65945498 66.71634572 30.72565357 69.39822391 35 72 C37.97002976 72.87852981 40.94592907 73.49431505 44 74 C43.39644592 77.85025879 42.23227397 80.86101159 40.4375 84.3125 C39.98246094 85.19550781 39.52742188 86.07851563 39.05859375 86.98828125 C38.70925781 87.65214844 38.35992187 88.31601562 38 89 C37.443125 88.2575 36.88625 87.515 36.3125 86.75 C32.97215773 82.77770108 30.11622004 80.08394492 25 79 C24.91363281 78.11957031 24.82726562 77.23914063 24.73828125 76.33203125 C24.19015478 68.9470255 24.19015478 68.9470255 20.5 62.875 C19.675 62.25625 18.85 61.6375 18 61 C17.34 60.01 16.68 59.02 16 58 C16.598125 57.2575 17.19625 56.515 17.8125 55.75 C19.58173222 53.52582236 21.30860915 51.28337765 23 49 C22.12988281 48.76216797 22.12988281 48.76216797 21.2421875 48.51953125 C14.39677776 46.47494517 9.97515688 44.22608958 6.125 37.9375 C5 35 5 35 5 31 C1.94933617 31.67116653 1.94933617 31.67116653 0.83203125 33.79296875 C-1.06605801 38.82780645 -0.36789236 43.75325366 1.125 48.8125 C3.37798402 52.64257283 5.17283272 53.87379596 9 56 C8.2575 56.53625 7.515 57.0725 6.75 57.625 C1.52955464 62.13356645 -0.4509121 66.13640124 -1 73 C-3.97 71.68 -6.94 70.36 -10 69 C-9.67 67.989375 -9.34 66.97875 -9 65.9375 C-7.62350448 61.0355915 -7.03205324 56.81490018 -9.5 52.1875 C-9.995 51.465625 -10.49 50.74375 -11 50 C-11 49.34 -11 48.68 -11 48 C-11.66 48 -12.32 48 -13 48 C-13 47.34 -13 46.68 -13 46 C-17.79440688 44.43447939 -21.90224851 43.33918036 -27 44 C-30.14535372 46.05131764 -31.63225713 47.65614949 -32.6328125 51.3125 C-33.46265164 57.10371785 -33.01175255 60.98041242 -30 66 C-27.14478896 69.00954677 -25.84966758 69.93587415 -21.6875 70.25 C-20.800625 70.1675 -19.91375 70.085 -19 70 C-19.30679688 70.55171875 -19.61359375 71.1034375 -19.9296875 71.671875 C-21.09442941 74.20540121 -21.62057956 76.51171762 -22.125 79.25 C-22.29257812 80.14203125 -22.46015625 81.0340625 -22.6328125 81.953125 C-22.75398438 82.62859375 -22.87515625 83.3040625 -23 84 C-25.97 84.495 -25.97 84.495 -29 85 C-28.54177532 81.53058454 -28.10868317 78.32604951 -27 75 C-27.721875 74.938125 -28.44375 74.87625 -29.1875 74.8125 C-33.824082 73.47304298 -36.13975363 70.24587406 -38.8125 66.375 C-40 64 -40 64 -40 61 C-43.70595357 61.84226218 -45.67216455 62.65444372 -48.3125 65.4375 C-50.5875278 70.24033647 -50.81281253 74.74003201 -51 80 C-51.74765625 79.94199219 -52.4953125 79.88398438 -53.265625 79.82421875 C-59.50519073 79.32207163 -59.50519073 79.32207163 -64.625 82.375 C-67.41048856 87.69275089 -67.47776064 92.00627564 -67 98 C-65.32525492 102.14279047 -62.79872678 104.64840723 -59 107 C-56.20456939 106.86363753 -54.45792625 106.24327332 -52 104.9375 C-49.55010213 103.78911037 -47.67361665 103.85146574 -45 104 C-46.1446875 105.0828125 -46.1446875 105.0828125 -47.3125 106.1875 C-51.1409242 110.19399045 -53.2124927 113.48744891 -54 119 C-54.9075 118.505 -55.815 118.01 -56.75 117.5 C-61.95973205 115.21201459 -67.425617 115.75285987 -73 116 C-73.06058594 115.01257813 -73.12117187 114.02515625 -73.18359375 113.0078125 C-73.26738281 111.72648437 -73.35117188 110.44515625 -73.4375 109.125 C-73.55931641 107.21074219 -73.55931641 107.21074219 -73.68359375 105.2578125 C-73.79206027 102.11699848 -73.79206027 102.11699848 -75 100 C-76.0861314 92.85078068 -74.58319632 88.58823912 -70.640625 82.68359375 C-68.86467235 79.77864263 -67.72524023 76.94753564 -66.5625 73.75 C-63.54880179 65.5112536 -59.87606479 57.31409718 -55 50 C-55.25313053 46.87805683 -56.06043821 44.88879369 -57.5625 42.125 C-59.73973456 37.39188138 -59.63435898 33.82844648 -57.9375 28.9375 C-54.92475895 24.36979583 -51.24110803 20.74703601 -46 19 C-40.68933397 18.59919502 -37.62258572 19.41995216 -33 22 C-32.34 22 -31.68 22 -31 22 C-30.319375 21.2575 -29.63875 20.515 -28.9375 19.75 C-26.13300794 16.82214319 -23.10228831 15.564766 -19.40234375 14.01953125 C-12.73726824 11.19093823 -7.62723087 8.26645641 -3.19140625 2.453125 C-2 1 -2 1 0 0 Z " fill="#A90B27" transform="translate(308,223)"/>
<path d="M0 0 C10.66224287 -0.62110153 10.66224287 -0.62110153 15.5 1.625 C19.94482605 5.84758475 22.73974212 9.75381079 23 16 C22.11543754 21.30737475 19.63659398 23.5492454 15.55859375 26.703125 C13.86465159 27.93611625 13.86465159 27.93611625 13 30 C11.02 30 9.04 30 7 30 C7.495 30.8971875 7.495 30.8971875 8 31.8125 C9 34 9 34 9 37 C9.66 37 10.32 37 11 37 C11.30292969 37.67546875 11.60585938 38.3509375 11.91796875 39.046875 C15.14330463 46.11784035 15.14330463 46.11784035 21 51 C24.18762109 51.79690838 24.18762109 51.79690838 27 52 C26.71125 52.495 26.4225 52.99 26.125 53.5 C24.58711584 56.91752035 23.85152195 60.3506202 23 64 C16.88225104 64.49940808 13.97504047 63.24900602 9 60 C9 63.96 9 67.92 9 72 C7.6696875 72.556875 7.6696875 72.556875 6.3125 73.125 C2.00325296 75.56419644 -0.7537294 78.5074588 -3 83 C-7.75 82.125 -7.75 82.125 -10 81 C-9.979375 82.175625 -9.95875 83.35125 -9.9375 84.5625 C-10.28693088 87.67964527 -10.79421528 88.79224038 -13.03515625 91.0546875 C-15.30820035 92.7909906 -17.61711325 94.41904629 -20 96 C-20.495 96.495 -20.495 96.495 -21 97 C-25.19820804 97.58579647 -26.70850664 97.2018031 -30.25 94.75 C-34.36044988 90.63955012 -35.30121101 87.92481449 -35.375 82.125 C-35.26729821 76.91730189 -34.75791395 73.85427072 -31 70 C-27.68232495 67.37317254 -25.04142776 65.94105126 -20.6875 66.1875 C-18 67 -18 67 -16 68 C-15.9175 66.96875 -15.835 65.9375 -15.75 64.875 C-14.90524545 60.51043482 -14.02702147 58.25986927 -11 55 C-8.23230492 54.19562208 -5.9185154 54.09728385 -3 54 C-3.77923828 53.67128906 -3.77923828 53.67128906 -4.57421875 53.3359375 C-10.35514629 50.70727174 -14.09031948 47.81936103 -17 42 C-17.86168036 35.37737099 -17.04696145 30.95538416 -13.19140625 25.49609375 C-12 24 -12 24 -11 23 C-9.31391034 22.92794489 -7.62499341 22.91613932 -5.9375 22.9375 C-5.01839844 22.94652344 -4.09929687 22.95554687 -3.15234375 22.96484375 C-2.44207031 22.97644531 -1.73179687 22.98804688 -1 23 C-1.32226562 22.45085937 -1.64453125 21.90171875 -1.9765625 21.3359375 C-3.84407677 17.0734431 -3.56554193 12.55721579 -3 8 C-1.92086109 5.53674815 -0.77948939 4.0575346 1 2 C0.505 1.01 0.505 1.01 0 0 Z " fill="#D00C2F" transform="translate(414,241)"/>
<path d="M0 0 C5.02055283 2.52100409 8.19365236 5.58095707 10 11 C10.98248485 16.89490911 9.98125887 19.54951816 6.625 24.5 C4.7265625 27.09375 4.7265625 27.09375 3 29 C2.34 29 1.68 29 1 29 C1 29.66 1 30.32 1 31 C1.556875 31.185625 2.11375 31.37125 2.6875 31.5625 C6.13416342 33.7050205 8.20615172 36.36959276 10 40 C11.17564573 45.55166039 9.61855951 50.04344093 7 55 C4.8125 57.9375 4.8125 57.9375 3 60 C3.94875 60.763125 4.8975 61.52625 5.875 62.3125 C8.16609895 64.15534046 9.31224944 65.46837417 11 68 C11.265625 70.7421875 11.265625 70.7421875 11.25 73.875 C11.25773437 75.41800781 11.25773437 75.41800781 11.265625 76.9921875 C10.99679588 80.036282 10.28164154 82.2434535 9 85 C8.34 85 7.68 85 7 85 C7 85.66 7 86.32 7 87 C3.41542091 89.27314771 1.70053224 90.11061035 -2.5625 89.4375 C-7.18645904 87.5038444 -9.91484543 85.53418405 -12.8125 81.4375 C-14.49531908 76.56618162 -14.69724522 72.10050034 -14 67 C-12.01031547 63.08924075 -10.63466354 61.42310902 -7 59 C-7.99 58.34 -8.98 57.68 -10 57 C-10.86625 58.11375 -10.86625 58.11375 -11.75 59.25 C-13.72296234 61.66139842 -15.80108002 63.80108002 -18 66 C-18.33 66.66 -18.66 67.32 -19 68 C-23.54239804 68.31326883 -26.1111075 68.42735216 -30.25 66.4375 C-34.81078459 62.39498639 -37.17638918 58.61504797 -37.5625 52.5625 C-37.30657496 46.58409096 -34.12908313 42.12908313 -30 38 C-25.40378416 37.65311579 -22.17196908 38.09281413 -18 40 C-17.34 40 -16.68 40 -16 40 C-15.5875 38.9275 -15.175 37.855 -14.75 36.75 C-13.36260851 33.47734926 -11.72000092 31.34482838 -9 29 C-9.78375 28.2575 -10.5675 27.515 -11.375 26.75 C-14.75843901 23.20544485 -16.28759481 20.60841202 -16.375 15.6875 C-16.2434931 10.69023777 -14.9865839 8.00830997 -12 4 C-8.02923595 0.63348266 -5.21191196 -0.95728995 0 0 Z " fill="#D00B2F" transform="translate(369,366)"/>
<path d="M0 0 C0.474375 0.45375 0.94875 0.9075 1.4375 1.375 C4.00731954 3.00464166 5.38232406 3.32747088 8.3125 3.8125 C13.36516345 4.80468969 16.65179326 7.12312904 20 11 C21.70537941 13.90305339 22.24324535 15.97282536 22.1953125 19.328125 C22.18886719 20.12734375 22.18242187 20.9265625 22.17578125 21.75 C22.15064453 22.9875 22.15064453 22.9875 22.125 24.25 C22.11597656 25.09046875 22.10695313 25.9309375 22.09765625 26.796875 C22.07415817 28.86470604 22.03828908 30.93238995 22 33 C20.91589844 33.27070313 19.83179688 33.54140625 18.71484375 33.8203125 C14.48021597 35.16506286 12.77729115 36.32890218 10.1015625 39.734375 C7.91869542 44.22395978 8.15047101 49.1662459 9 54 C11.3801375 58.52146185 11.3801375 58.52146185 15 62 C18.12549017 62.25048636 18.12549017 62.25048636 21 62 C19.8553125 63.0209375 19.8553125 63.0209375 18.6875 64.0625 C14.8248097 68.28451033 12.87295147 72.4005553 12.625 78.125 C13.03120411 83.17392181 13.03120411 83.17392181 16 87 C19.32995758 87.71854157 22.59938266 87.9298184 26 88 C23.69115845 89.77526478 21.47618697 91.29932173 18.9375 92.75 C15.23139619 95.58871781 14.50365367 97.65611161 13 102 C12.7525 101.484375 12.505 100.96875 12.25 100.4375 C8.89221821 93.08655825 8.89221821 93.08655825 3 88 C-1.23840134 87.4505776 -3.43917511 87.70880246 -7.25 89.6875 C-11.82778941 93.53700473 -13.07535334 96.44747323 -13.6875 102.3125 C-13.80376854 103.87414611 -13.91195873 105.4365085 -14 107 C-15.98 106.01 -17.96 105.02 -20 104 C-19.0409375 102.63875 -19.0409375 102.63875 -18.0625 101.25 C-14.5179982 95.66472443 -14.20878757 89.95606213 -15.5 83.5 C-15.665 83.005 -15.83 82.51 -16 82 C-15.21302734 82.74443359 -15.21302734 82.74443359 -14.41015625 83.50390625 C-11.19642038 85.49881847 -9.17574508 85.23945154 -5.4375 84.9375 C-4.30183594 84.86402344 -3.16617188 84.79054688 -1.99609375 84.71484375 C1.06992393 84.26344798 1.06992393 84.26344798 2.859375 82.109375 C4.35836366 79.33727269 4.70308454 77.14730384 5 74 C5.07605469 73.28199219 5.15210938 72.56398438 5.23046875 71.82421875 C5.48890348 67.66830885 5.40517942 64.89369136 2.75 61.5625 C-1.41608885 57.65903655 -1.41608885 57.65903655 -6.875 57.0625 C-11.33823775 58.40147133 -14.59244668 60.85088336 -17.1640625 64.77734375 C-18.26077943 67.69338083 -18.19251665 70.14423423 -18.125 73.25 C-18.10695313 74.32765625 -18.08890625 75.4053125 -18.0703125 76.515625 C-18.04710937 77.33546875 -18.02390625 78.1553125 -18 79 C-18.86625 78.505 -19.7325 78.01 -20.625 77.5 C-24.30686209 75.86361685 -26.04603538 75.2737616 -30 76 C-33.57328097 78.24734652 -36.29144578 80.7985385 -38.4375 84.4375 C-39.74907936 90.41247264 -39.24952976 95.05828121 -36.33203125 100.3984375 C-34.95773364 102.35242362 -34.95773364 102.35242362 -31.625 103 C-30.42875 103 -29.2325 103 -28 103 C-26.865625 103.020625 -25.73125 103.04125 -24.5625 103.0625 C-23.2940625 103.0315625 -23.2940625 103.0315625 -22 103 C-22.556875 103.4125 -23.11375 103.825 -23.6875 104.25 C-24.450625 104.8275 -25.21375 105.405 -26 106 C-26.86625 106.639375 -27.7325 107.27875 -28.625 107.9375 C-31.68684854 110.59647373 -32.81216395 112.55409924 -33.3359375 116.5859375 C-33.41974948 122.57011297 -33.25612393 126.40786629 -29 131 C-27.05583451 132.51265559 -25.12966832 133.74155963 -23 135 C-23.8971875 135.433125 -23.8971875 135.433125 -24.8125 135.875 C-27.19327792 137.04742026 -27.19327792 137.04742026 -30 139 C-30.20753906 138.41992188 -30.41507812 137.83984375 -30.62890625 137.2421875 C-32.38933065 132.77851728 -33.80199539 129.83487552 -37.75 127 C-39.86756233 125.34793628 -40.84823721 124.50650832 -41.625 121.9140625 C-41.95778323 115.81996962 -39.61864819 111.74301388 -36 107 C-36.49371094 106.70609375 -36.98742187 106.4121875 -37.49609375 106.109375 C-40.83792176 103.76942299 -42.75501959 102.21832541 -43.58203125 98.10546875 C-43.69154237 96.04003809 -43.74502264 93.97064816 -43.734375 91.90234375 C-44.04513697 88.5068122 -45.01726275 86.74238839 -47 84 C-49.06954847 82.21655822 -49.06954847 82.21655822 -51 81 C-50.505 80.01 -50.505 80.01 -50 79 C-49.67 79.33 -49.34 79.66 -49 80 C-44.74057316 80.59433863 -43.32432762 80.24165588 -39.8125 77.625 C-38.884375 76.75875 -37.95625 75.8925 -37 75 C-35.515 74.01 -35.515 74.01 -34 73 C-33.21011855 71.04614933 -33.21011855 71.04614933 -32.8125 68.875 C-32.4103125 66.956875 -32.4103125 66.956875 -32 65 C-29.69 65.66 -27.38 66.32 -25 67 C-24.814375 66.29875 -24.62875 65.5975 -24.4375 64.875 C-22.48827039 60.97654078 -19.65206981 58.36693166 -16 56 C-15.01 56 -14.02 56 -13 56 C-13.33 51.71 -13.66 47.42 -14 43 C-12.824375 43.639375 -11.64875 44.27875 -10.4375 44.9375 C-6.55010064 46.89852321 -3.31926806 47.64006099 1 48 C0.9175 47.13375 0.835 46.2675 0.75 45.375 C1.05628741 41.24011993 2.52108722 39.25357303 5 36 C4.154375 36.12375 3.30875 36.2475 2.4375 36.375 C-1.73482756 35.91983699 -3.42609441 34.72623038 -6.453125 31.93359375 C-9.05928719 28.67589102 -10.06326947 25.0145594 -11 21 C-11.66 21 -12.32 21 -13 21 C-13.99 18.36 -14.98 15.72 -16 13 C-13.69 13.33 -11.38 13.66 -9 14 C-8.79375 13.443125 -8.5875 12.88625 -8.375 12.3125 C-7 10 -7 10 -3.9375 7.5625 C-0.82306443 5.2976474 -0.82306443 5.2976474 -0.125 2.1875 C-0.08375 1.465625 -0.0425 0.74375 0 0 Z " fill="#A70925" transform="translate(436,257)"/>
<path d="M0 0 C4.07746388 2.51361729 7.2408129 5.49208305 9 10 C9.23046875 12.25390625 9.23046875 12.25390625 9.1875 14.5625 C9.18105469 15.32691406 9.17460937 16.09132813 9.16796875 16.87890625 C9 19 9 19 8 22 C7.49912254 26.84455247 7.16078278 30.71320026 9.875 34.875 C10.57625 35.57625 11.2775 36.2775 12 37 C14.52120709 41.22568512 14.71968233 45.18817045 14 50 C12 53.3125 12 53.3125 10 56 C9.60199282 60.02351507 9.60199282 60.02351507 12 62.6875 C14.60608232 67.00382384 14.80752041 70.07995297 14 75 C12.5834589 79.75253728 10.6822781 82.93721449 6.375 85.5 C3 87 3 87 1 87 C0.67 87.66 0.34 88.32 0 89 C-4.70507387 86.64746307 -8.57970413 83.719979 -11 79 C-11.97574085 73.10887294 -11.84575664 67.92832513 -9.4375 62.4375 C-6.48681996 59.48681996 -3.72601527 57.86300764 0 56 C-1.2375 55.95875 -2.475 55.9175 -3.75 55.875 C-7.2842095 55.41755799 -7.86380279 55.13960214 -10.5 52.4375 C-12.95687317 46.80716566 -12.6559384 42.87410972 -10.6875 37.25 C-9.29659608 34.57122207 -7.93426374 32.30269492 -6 30 C-6.8353125 29.9071875 -6.8353125 29.9071875 -7.6875 29.8125 C-11.00086472 28.64834483 -12.70475296 26.60541556 -15 24 C-16.6557483 19.0327551 -16.82170312 14.16499103 -16 9 C-12.05812904 2.31326601 -7.87543742 -0.90373872 0 0 Z " fill="#D00D30" transform="translate(460,290)"/>
<path d="M0 0 C1.14941259 2.29882518 2.26344451 4.58961391 3.3125 6.9375 C5.71201305 11.29217183 8.21837646 14.40612549 13 16 C11.54886573 25.58120707 6.68881251 36.19254766 -0.13671875 43.09375 C-2.35444349 45.36261724 -4.23722123 47.81052075 -6.1875 50.3125 C-13.30327338 59.00287864 -21.23426356 66.12850535 -30.625 72.25 C-31.22916748 72.64525879 -31.83333496 73.04051758 -32.45581055 73.44775391 C-33.92894751 74.36864873 -35.460804 75.19436022 -37 76 C-37.66 75.67 -38.32 75.34 -39 75 C-38.360625 74.175 -37.72125 73.35 -37.0625 72.5 C-34.53586919 68.76808594 -34.30639772 65.44276697 -34 61 C-33.39671875 60.84144531 -32.7934375 60.68289063 -32.171875 60.51953125 C-26.97495347 59.00236545 -23.95739019 57.80575906 -21 53 C-19.03423035 49.06846069 -19.52796333 44.28559608 -20 40 C-21.79045494 37.07139596 -21.79045494 37.07139596 -24 35 C-24.2475 33.9171875 -24.2475 33.9171875 -24.5 32.8125 C-24.83890051 30.7749381 -24.83890051 30.7749381 -27.0625 29.75 C-27.701875 29.5025 -28.34125 29.255 -29 29 C-28.05125 28.278125 -27.1025 27.55625 -26.125 26.8125 C-21.14119017 22.60264652 -20.73878664 18.0323485 -20.1484375 11.79296875 C-20.09945313 11.20128906 -20.05046875 10.60960937 -20 10 C-19.39929688 10.33257812 -18.79859375 10.66515625 -18.1796875 11.0078125 C-15.05152671 12.43174232 -13.28085026 11.91863807 -10 11 C-4.95507926 8.13131958 -1.84566321 5.53698962 0 0 Z " fill="#A60825" transform="translate(447,362)"/>
<path d="M0 0 C5.38137896 0.07687684 8.12118695 0.99452582 12.375 4.3125 C15.75353824 8.27250773 16.96549686 12.15464474 16.71484375 17.328125 C16.15573315 20.59281678 14.75990097 23.31188123 13.375 26.3125 C13.375 27.6325 13.375 28.9525 13.375 30.3125 C14.035 30.6425 14.695 30.9725 15.375 31.3125 C17.87332879 35.75397341 18.03560067 40.35799499 17.375 45.3125 C15.99438963 49.76810621 13.98002998 52.70747002 10.6875 56 C6.51689974 57.65250199 4.56484034 57.14256623 0.4921875 55.50390625 C-2.87369981 53.60981837 -4.46576777 51.51863271 -6.625 48.3125 C-7.058125 47.69375 -7.49125 47.075 -7.9375 46.4375 C-9.34596538 42.08406154 -9.50034559 38.23152686 -7.609375 34.0859375 C-5.52837484 30.63849747 -4.02501032 28.57917355 -0.625 26.3125 C-1.3675 26.10625 -2.11 25.9 -2.875 25.6875 C-6.68468482 23.78265759 -7.79570346 22.17434826 -9.625 18.3125 C-10.3851301 13.14515095 -10.64883997 8.17832326 -7.6875 3.6875 C-4.82254045 0.38845567 -4.35711339 0.1250531 0 0 Z " fill="#D00C2F" transform="translate(291.625,370.6875)"/>
<path d="M0 0 C0.99 0.33 1.98 0.66 3 1 C2.34 1.94875 1.68 2.8975 1 3.875 C-1.61292682 8.47561759 -1.85362124 12.82705528 -1 18 C1.00058409 21.92971874 3.12572866 24.84762703 7 27 C9.65361464 27.81139371 12.28252985 28.4112148 15 29 C14.01 29.33 13.02 29.66 12 30 C13.63808445 35.5887587 15.33265647 39.23113006 19.94921875 42.87890625 C23.46141797 44.79890849 27.05468825 44.98210743 31 45 C30.34 45.94875 29.68 46.8975 29 47.875 C26.36733953 52.49386694 26.29612031 56.80674133 27 62 C28.65945498 66.71634572 30.72565357 69.39822391 35 72 C37.97002976 72.87852981 40.94592907 73.49431505 44 74 C43.39644592 77.85025879 42.23227397 80.86101159 40.4375 84.3125 C39.75494141 85.63701172 39.75494141 85.63701172 39.05859375 86.98828125 C38.70925781 87.65214844 38.35992187 88.31601562 38 89 C37.443125 88.2575 36.88625 87.515 36.3125 86.75 C32.97215773 82.77770108 30.11622004 80.08394492 25 79 C24.91363281 78.11957031 24.82726562 77.23914063 24.73828125 76.33203125 C24.19015478 68.9470255 24.19015478 68.9470255 20.5 62.875 C19.675 62.25625 18.85 61.6375 18 61 C17.34 60.01 16.68 59.02 16 58 C16.598125 57.2575 17.19625 56.515 17.8125 55.75 C19.58173222 53.52582236 21.30860915 51.28337765 23 49 C22.12988281 48.76216797 22.12988281 48.76216797 21.2421875 48.51953125 C14.39677776 46.47494517 9.97515688 44.22608958 6.125 37.9375 C5 35 5 35 5 31 C1.94933617 31.67116653 1.94933617 31.67116653 0.83203125 33.79296875 C-1.06605801 38.82780645 -0.36789236 43.75325366 1.125 48.8125 C3.37798402 52.64257283 5.17283272 53.87379596 9 56 C8.2575 56.53625 7.515 57.0725 6.75 57.625 C1.52955464 62.13356645 -0.4509121 66.13640124 -1 73 C-3.97 71.68 -6.94 70.36 -10 69 C-9.67 67.989375 -9.34 66.97875 -9 65.9375 C-7.62350448 61.0355915 -7.03205324 56.81490018 -9.5 52.1875 C-9.995 51.465625 -10.49 50.74375 -11 50 C-11 49.34 -11 48.68 -11 48 C-11.66 48 -12.32 48 -13 48 C-13 47.34 -13 46.68 -13 46 C-14.65 45.34 -16.3 44.68 -18 44 C-18 43.67 -18 43.34 -18 43 C-16.73542969 42.80083984 -16.73542969 42.80083984 -15.4453125 42.59765625 C-14.34960938 42.42105469 -13.25390625 42.24445313 -12.125 42.0625 C-11.03445313 41.88847656 -9.94390625 41.71445312 -8.8203125 41.53515625 C-6.06178454 41.14448841 -6.06178454 41.14448841 -4 40 C-2.25636789 34.76910367 -1.9212132 30.37400733 -4.24609375 25.2578125 C-6.54407944 21.59589534 -8.42448682 18.68554767 -12.46875 16.92578125 C-14.67030705 16.43461108 -16.74936224 16.11227671 -19 16 C-16.59415622 13.29342575 -14.16167217 11.4352915 -11.0625 9.625 C-7.11009074 7.25502648 -4.80344571 4.62798857 -2 1 C-1.34 0.67 -0.68 0.34 0 0 Z " fill="#A70926" transform="translate(308,223)"/>
<path d="M0 0 C11.95910904 -0.56549202 11.95910904 -0.56549202 16 3 C20.35668801 7.25295735 21.70264213 10.83196055 23.25390625 16.66015625 C24.6760928 21.12031198 27.19658897 23.46439264 31 26 C30.67 26.886875 30.34 27.77375 30 28.6875 C28.34951604 34.31309323 28.84296578 40.19845814 29 46 C24.80398615 46.61191869 21.39670553 46.85787497 17.69140625 44.58203125 C14.34156071 41.69932013 11.69641736 39.14026613 10 35 C9.938125 34.154375 9.87625 33.30875 9.8125 32.4375 C9.544375 31.633125 9.27625 30.82875 9 30 C7.30299838 29.24940313 5.59855985 28.50828069 3.8515625 27.8828125 C0.13248072 26.10957941 -2.18603395 22.62793211 -4 19 C-4.81416949 11.819292 -3.60363993 7.19375612 0 1 C0 0.67 0 0.34 0 0 Z " fill="#D00B2F" transform="translate(310,222)"/>
<path d="M0 0 C1.2375 0.7115625 1.2375 0.7115625 2.5 1.4375 C6.52795901 3.23569599 9.63173579 3.6234255 14 4 C13.67 6.64 13.34 9.28 13 12 C11.35 12 9.7 12 8 12 C7.731875 12.556875 7.46375 13.11375 7.1875 13.6875 C6 16 6 16 4.4375 18.0625 C2.25813919 22.51597643 2.24889613 27.09932097 2 32 C1.25234375 31.94199219 0.5046875 31.88398438 -0.265625 31.82421875 C-6.50519073 31.32207163 -6.50519073 31.32207163 -11.625 34.375 C-14.41048856 39.69275089 -14.47776064 44.00627564 -14 50 C-12.32525492 54.14279047 -9.79872678 56.64840723 -6 59 C-3.20456939 58.86363753 -1.45792625 58.24327332 1 56.9375 C3.44989787 55.78911037 5.32638335 55.85146574 8 56 C7.236875 56.721875 6.47375 57.44375 5.6875 58.1875 C1.8590758 62.19399045 -0.2124927 65.48744891 -1 71 C-1.9075 70.505 -2.815 70.01 -3.75 69.5 C-8.95973205 67.21201459 -14.425617 67.75285987 -20 68 C-20.06058594 67.01257813 -20.12117187 66.02515625 -20.18359375 65.0078125 C-20.26738281 63.72648437 -20.35117188 62.44515625 -20.4375 61.125 C-20.55931641 59.21074219 -20.55931641 59.21074219 -20.68359375 57.2578125 C-20.79206027 54.11699848 -20.79206027 54.11699848 -22 52 C-23.0861314 44.85078068 -21.58319632 40.58823912 -17.640625 34.68359375 C-15.86467235 31.77864263 -14.72524023 28.94753564 -13.5625 25.75 C-10.21226505 16.62871516 -6.34968023 7.44732736 0 0 Z " fill="#70091A" transform="translate(255,271)"/>
<path d="M0 0 C9.73032529 -0.62329486 9.73032529 -0.62329486 14.4375 1.6875 C21.65189661 8.19805304 21.65189661 8.19805304 22.23828125 12.91796875 C22.47922668 20.28582627 20.52178855 23.88484943 15.875 29.625 C11.8722874 31.53934081 9.5353993 30.70631229 5.4453125 29.265625 C1.0255172 26.97806322 -1.79787787 23.40424426 -4 19 C-4.89776158 12.03866837 -3.07430265 7.1486053 0 1 C0 0.67 0 0.34 0 0 Z " fill="#D10E30" transform="translate(367,218)"/>
<path d="M0 0 C4.76064015 2.47553288 7.48707447 5.26410188 10 10 C10.25 12.875 10.25 12.875 10 15 C10.66 15.33 11.32 15.66 12 16 C6.5124645 28.02587567 6.5124645 28.02587567 2 31 C-2.52297946 31.44569506 -5.97477393 30.60176313 -9.875 28.3125 C-14.6546012 23.11116928 -15.557903 18.52802774 -15.3515625 11.625 C-14.69575245 6.72828495 -12.39444036 4.10087397 -8.625 1.125 C-5.39835874 -0.25784626 -3.48313618 -0.49759088 0 0 Z " fill="#D00D30" transform="translate(444,374)"/>
<path d="M0 0 C0.99 0.33 1.98 0.66 3 1 C2.6390625 1.4846875 2.278125 1.969375 1.90625 2.46875 C-1.65276823 7.60955411 -2.55618754 10.7706996 -2 17 C-2.65226562 16.86980469 -3.30453125 16.73960937 -3.9765625 16.60546875 C-9.0579152 15.69997133 -9.0579152 15.69997133 -13.9296875 16.90625 C-16.69965508 19.16632305 -19.01567002 21.55484507 -20 25 C-20.49156825 30.99713268 -19.67844819 34.64310362 -17 40 C-15.02 40 -13.04 40 -11 40 C-11.42152344 40.48210937 -11.84304688 40.96421875 -12.27734375 41.4609375 C-12.82519531 42.09257812 -13.37304688 42.72421875 -13.9375 43.375 C-14.48277344 44.00148438 -15.02804687 44.62796875 -15.58984375 45.2734375 C-19.09784799 49.56855627 -18.46000007 54.69466585 -18 60 C-16.66829691 62.97984167 -16.66829691 62.97984167 -15 65 C-15 65.66 -15 66.32 -15 67 C-14.2575 67.268125 -13.515 67.53625 -12.75 67.8125 C-10.13363446 68.94229421 -8.19812889 70.20893202 -6 72 C-12.27761975 72.50220958 -15.9591692 72.20069234 -21 68 C-22.875 66.375 -22.875 66.375 -24 65 C-24 64.34 -24 63.68 -24 63 C-24.54140625 63.32742188 -25.0828125 63.65484375 -25.640625 63.9921875 C-28.50719067 65.21664767 -30.6452987 65.19892146 -33.75 65.125 C-34.73484375 65.10695313 -35.7196875 65.08890625 -36.734375 65.0703125 C-37.48203125 65.04710937 -38.2296875 65.02390625 -39 65 C-39.28875 64.113125 -39.5775 63.22625 -39.875 62.3125 C-40.24625 61.219375 -40.6175 60.12625 -41 59 C-41.28875 58.0925 -41.5775 57.185 -41.875 56.25 C-43.20256499 53.59487002 -44.26020496 53.00459151 -47 52 C-46.34 50.35 -45.68 48.7 -45 47 C-42.9896084 49.0103916 -42.35171346 50.31399941 -41.25 52.875 C-39.22994726 56.9821921 -37.18914525 58.94649743 -33 61 C-29.26774656 61.79682803 -29.26774656 61.79682803 -26 62 C-26.05220703 60.80503906 -26.05220703 60.80503906 -26.10546875 59.5859375 C-26.33420366 50.63259978 -26.33420366 50.63259978 -24.25 46.6875 C-22.69620518 44.17405781 -22.69620518 44.17405781 -23.65625 42.1953125 C-24.71677044 40.31377862 -24.71677044 40.31377862 -25.921875 38.61328125 C-28.41301523 34.88559678 -28.3617246 31.34069514 -28 27 C-26.1384613 22.15392915 -23.35112756 18.86537668 -19 16 C-18.113125 15.79375 -17.22625 15.5875 -16.3125 15.375 C-13.78508042 14.21683804 -13.78508042 14.21683804 -13.2421875 11.65625 C-12.73399289 9.10811929 -12.31871182 6.57823595 -12 4 C-10 5 -8 6 -6 7 C-5.7525 6.401875 -5.505 5.80375 -5.25 5.1875 C-3.80517427 2.65905497 -2.51719455 1.44929383 0 0 Z " fill="#A90926" transform="translate(323,302)"/>
<path d="M0 0 C4.23660989 0.09753347 6.87220818 0.48475109 10.1875 3.3125 C14.93996288 8.59301431 15.52098337 12.66438853 15.484375 19.57421875 C15.01620742 23.89244863 13.2425164 26.2574836 10.1875 29.3125 C4.2937041 30.21526961 -0.20766643 29.37384947 -5.08203125 25.9296875 C-9.06995353 22.2028256 -10.56611028 18.06802674 -11.3125 12.75 C-10.33692498 6.04292175 -7.29784015 0.03282387 0 0 Z " fill="#D00B2F" transform="translate(261.8125,380.6875)"/>
<path d="M0 0 C5.53232267 2.1643187 9.32054403 5.64108806 12 11 C12.30537828 15.5716925 12.53420411 20.65308834 11 25 C7.27491011 28.86836258 2.22335098 29.90736038 -3 30.125 C-7.9915575 28.25316594 -11.62961984 23.74076033 -14 19 C-14.46836701 12.09158653 -13.38870933 7.32713085 -9.25 1.5625 C-5.96197714 -0.72084921 -3.93168587 -0.53310995 0 0 Z " fill="#D10D30" transform="translate(446,261)"/>
<path d="M0 0 C4.06923562 3.80100626 7.36205499 8.06722503 8.5625 13.5859375 C8.66897751 17.59215375 8.11065813 20.54619579 6 24 C0.81545228 26.72188755 -4.43867527 26.23886421 -10 25 C-13.61056255 23.22754202 -15.46482645 21.73817041 -17.8125 18.5 C-19.5377497 13.41505351 -19.74948132 8.3386395 -20 3 C-13.19736642 -1.79276457 -7.91560964 -3.55611717 0 0 Z " fill="#D00D30" transform="translate(298,240)"/>
<path d="M0 0 C2 0 2 0 4.5 2.4375 C5.325 3.283125 6.15 4.12875 7 5 C10.06416919 6.53208459 13.29707542 6.28287091 16.6875 6.42578125 C19 7 19 7 20.28515625 8.80859375 C21.70538164 13.16239946 21.90626017 17.04456941 19.984375 21.19140625 C17.95707506 24.50714079 15.81666022 27.31549979 13 30 C6.10349356 28.7115068 1.35789133 27.43120938 -2.9765625 21.71875 C-5.68688295 17.1670668 -5.6051465 12.12782036 -5 7 C-3.78665931 4.24240753 -2.14106704 2.14106704 0 0 Z " fill="#D00D30" transform="translate(339,268)"/>
<path d="M0 0 C2.625 1.6875 2.625 1.6875 3.625 4.6875 C3.295 5.3475 2.965 6.0075 2.625 6.6875 C2.05790672 12.75103588 2.29094521 17.40857992 5.625 22.6875 C1.07284545 25.35217584 -2.1055664 26.25208217 -7.375 25.6875 C-12.04713454 23.91208887 -15.17052308 21.51506965 -18.375 17.6875 C-19.6875 14.375 -19.6875 14.375 -20.375 11.6875 C-21.035 11.6875 -21.695 11.6875 -22.375 11.6875 C-21.8882738 7.41020913 -20.79703651 5.66691484 -17.5 2.9375 C-16.80132812 2.34453125 -16.10265625 1.7515625 -15.3828125 1.140625 C-10.57812916 -2.33669446 -5.35826028 -2.08376789 0 0 Z " fill="#D00F31" transform="translate(272.375,243.3125)"/>
<path d="M0 0 C2.0625 0.4375 2.0625 0.4375 4 1 C3.01 2.1446875 3.01 2.1446875 2 3.3125 C-0.99418222 7.77192032 -0.64677554 12.83331633 0 18 C0.9501456 20.75311443 0.9501456 20.75311443 2 23 C0.89591797 22.86078125 0.89591797 22.86078125 -0.23046875 22.71875 C-5.88406105 22.17177105 -5.88406105 22.17177105 -10.84375 24.4296875 C-14.36826305 29.53203487 -15.10382147 34.95429894 -14 41 C-11.99941591 44.92971874 -9.87427134 47.84762703 -6 50 C-3.34638536 50.81139371 -0.71747015 51.4112148 2 52 C-1 54 -1 54 -4.9375 54.1875 C-7.46601521 54.44314032 -8.60162098 54.58238109 -10.375 56.44140625 C-12.35136947 59.80559399 -13.52772091 63.10369751 -14 67 C-16.31 66.34 -18.62 65.68 -21 65 C-19.70677932 59.2392897 -17.62011357 55.66804118 -14 51 C-14.5775 50.79375 -15.155 50.5875 -15.75 50.375 C-19.01471209 48.37989816 -20.26414622 46.40971278 -22 43 C-22.97618965 37.63095694 -22.25330587 33.40341306 -19.36328125 28.80078125 C-18.1742654 27.23019011 -16.8815127 25.73922526 -15.57421875 24.265625 C-12.33140343 20.41145435 -10.6048174 16.08853314 -8.68359375 11.47851562 C-6.77204534 7.10862706 -4.61647838 4.23674815 -1 1 C-0.67 0.67 -0.34 0.34 0 0 Z " fill="#A90D28" transform="translate(412,242)"/>
<path d="M0 0 C2.0625 0.4375 2.0625 0.4375 4 1 C3.01 2.175625 3.01 2.175625 2 3.375 C-0.84907263 7.65367847 -0.68497068 12.03597719 0 17 C1.33637625 20.401685 2.43478846 22.43478846 5 25 C8.58343976 25.16677282 8.58343976 25.16677282 12 25 C11.65066406 25.45890625 11.30132812 25.9178125 10.94140625 26.390625 C10.48636719 27.00421875 10.03132813 27.6178125 9.5625 28.25 C9.11003906 28.85328125 8.65757812 29.4565625 8.19140625 30.078125 C5.67529821 34.13689601 5.60255495 38.31014838 6 43 C7.93547485 48.28661129 10.92674754 51.46337377 16 54 C18.70154832 54.57542004 21.23087852 54.80902611 24 55 C23.34 56.98 22.68 58.96 22 61 C21.34 61 20.68 61 20 61 C19.67 60.01 19.34 59.02 19 58 C18.35933594 57.98582031 17.71867187 57.97164063 17.05859375 57.95703125 C10.49845001 57.59529456 6.92903112 56.39326687 2 52 C2 51.34 2 50.68 2 50 C1.34 50 0.68 50 0 50 C-1.94654051 43.10146045 -1.2838943 36.70893951 1 30 C-0.3921875 29.01 -0.3921875 29.01 -1.8125 28 C-5.55690031 24.88845608 -6.58398446 21.53297656 -8 17 C-9.83154766 12.30168208 -11.79161741 8.86718805 -15 5 C-14.00097656 4.72285156 -13.00195312 4.44570312 -11.97265625 4.16015625 C-10.66922209 3.79444451 -9.36583931 3.42854962 -8.0625 3.0625 C-7.40314453 2.88009766 -6.74378906 2.69769531 -6.06445312 2.50976562 C-2.76178827 1.77403899 -2.76178827 1.77403899 0 0 Z " fill="#A60A26" transform="translate(339,218)"/>
<path d="M0 0 C-0.639375 0.78375 -1.27875 1.5675 -1.9375 2.375 C-5.8329178 7.33280448 -5.48982342 11.85494257 -5 18 C-3.32525492 22.14279047 -0.79872678 24.64840723 3 27 C5.79543061 26.86363753 7.54207375 26.24327332 10 24.9375 C12.44989787 23.78911037 14.32638335 23.85146574 17 24 C16.236875 24.721875 15.47375 25.44375 14.6875 26.1875 C10.8590758 30.19399045 8.7875073 33.48744891 8 39 C7.0925 38.505 6.185 38.01 5.25 37.5 C0.04026795 35.21201459 -5.425617 35.75285987 -11 36 C-11.06058594 35.01257813 -11.12117187 34.02515625 -11.18359375 33.0078125 C-11.26738281 31.72648437 -11.35117188 30.44515625 -11.4375 29.125 C-11.51871094 27.84882813 -11.59992188 26.57265625 -11.68359375 25.2578125 C-11.79206027 22.11699848 -11.79206027 22.11699848 -13 20 C-14.09472879 12.79419024 -12.48264871 8.05145916 -8.703125 1.93359375 C-5.86000373 -1.29426182 -3.98726587 -1.32908862 0 0 Z " fill="#A90B28" transform="translate(246,303)"/>
<path d="M0 0 C2.21422495 1.06610831 4.20381697 2.14353308 6.21875 3.5625 C9.64449878 5.33311173 11.98088382 5.30360958 15.8125 5.1875 C16.97394531 5.16042969 18.13539063 5.13335937 19.33203125 5.10546875 C20.21246094 5.07066406 21.09289062 5.03585937 22 5 C21.96519531 5.65226562 21.93039062 6.30453125 21.89453125 6.9765625 C21.72333233 12.50384189 21.98412753 16.17460405 25 21 C25.33 21.66 25.66 22.32 26 23 C23.62374823 23.10883596 21.25256024 23.18766696 18.875 23.25 C18.20984375 23.28351563 17.5446875 23.31703125 16.859375 23.3515625 C11.70309977 23.45266594 8.96487043 22.21460383 5 19 C1.76371885 15.8559644 -0.81877609 12.69170808 -1.1328125 8.02734375 C-1.11111111 2.22222222 -1.11111111 2.22222222 0 0 Z " fill="#700719" transform="translate(327,430)"/>
<path d="M0 0 C0.85078125 0.24363281 0.85078125 0.24363281 1.71875 0.4921875 C4.05543918 1.01234091 6.10980766 1.13318559 8.5 1.125 C9.2528125 1.12757813 10.005625 1.13015625 10.78125 1.1328125 C12.973535 1.00158417 14.89319137 0.60331338 17 0 C15.48142371 5.14356484 12.28947808 8.38243013 8.6875 12.1875 C8.06738037 12.84661377 7.44726074 13.50572754 6.80834961 14.18481445 C-0.78104641 22.07828669 -9.22330326 28.97635438 -19 34 C-19.66 33.67 -20.32 33.34 -21 33 C-20.360625 32.175 -19.72125 31.35 -19.0625 30.5 C-16.53586919 26.76808594 -16.30639772 23.44276697 -16 19 C-15.39671875 18.84144531 -14.7934375 18.68289063 -14.171875 18.51953125 C-8.97013866 17.00095983 -5.93689439 15.8165068 -3 11 C-2.608125 10.38125 -2.21625 9.7625 -1.8125 9.125 C-0.67221484 6.14271573 -0.36453512 3.15930439 0 0 Z " fill="#71091A" transform="translate(429,404)"/>
<path d="M0 0 C1.22024994 1.47714466 2.43753734 2.95851761 3.5859375 4.4921875 C6.07625307 7.14760687 8.17421794 7.94233366 11.796875 8.1953125 C12.77140625 8.17210937 13.7459375 8.14890625 14.75 8.125 C15.73484375 8.10695313 16.7196875 8.08890625 17.734375 8.0703125 C18.48203125 8.04710937 19.2296875 8.02390625 20 8 C17.94661139 14.51470776 15.50465317 20.78730029 12.8125 27.0625 C12.44447266 27.92810547 12.07644531 28.79371094 11.69726562 29.68554688 C10.80127408 31.79170883 9.90215345 33.89647192 9 36 C7.68 36 6.36 36 5 36 C5 32 5 32 6.5 28.75 C8.56047426 24.13611506 9.0111544 19.86208109 7.30859375 15.04296875 C5.83283771 12.10998081 4.1211114 10.09626804 1.5625 8.0625 C-3.9136368 6.42926622 -9.32821871 6.77279214 -15 7 C-15 5.35 -15 3.7 -15 2 C-14.22914063 1.93941406 -13.45828125 1.87882812 -12.6640625 1.81640625 C-11.15972656 1.69072266 -11.15972656 1.69072266 -9.625 1.5625 C-8.62726563 1.48128906 -7.62953125 1.40007812 -6.6015625 1.31640625 C-4.12756995 1.01551526 -2.44698344 0 0 0 Z " fill="#74081A" transform="translate(299,365)"/>
<path d="M0 0 C3.465 1.485 3.465 1.485 7 3 C6.45859375 3.8353125 6.45859375 3.8353125 5.90625 4.6875 C2.59518433 10.13236354 0.9883748 13.62676126 2 20 C4.21980128 25.03758983 6.8542116 28.74087338 12 31 C13.98451771 31.71143088 15.98202112 32.38991336 18 33 C15.37617868 36.26103507 12.43435992 37.06260309 8.5 38.25 C7.3553125 38.60578125 6.210625 38.9615625 5.03125 39.328125 C2 40 2 40 -1 39 C-0.67 38.01 -0.34 37.02 0 36 C0.80319492 28.80701904 0.80319492 28.80701904 -1.01171875 21.984375 C-2.45217676 20.20098266 -2.45217676 20.20098266 -5 18 C-6.00469476 17.0047169 -7.0058478 16.00581381 -8 15 C-7.38511719 14.38125 -7.38511719 14.38125 -6.7578125 13.75 C-2.61618292 9.31112428 -1.04827846 5.97518721 0 0 Z " fill="#73071A" transform="translate(379,410)"/>
<path d="M0 0 C0.66 0.33 1.32 0.66 2 1 C1.01 2.175625 1.01 2.175625 0 3.375 C-2.84271401 7.65937612 -2.7926432 12.0338477 -2 17 C0.3397123 21.85940247 3.20703262 24.55829963 8 27 C10.99632542 27.58357238 13.95249255 27.86455522 17 28 C13.98552165 30.57075841 11.64020229 31.52207066 7.75 32.1875 C6.85796875 32.34605469 5.9659375 32.50460937 5.046875 32.66796875 C4.37140625 32.77753906 3.6959375 32.88710938 3 33 C2.16121545 31.71186658 1.32913217 30.41936744 0.5 29.125 C0.0359375 28.40570313 -0.428125 27.68640625 -0.90625 26.9453125 C-2 25 -2 25 -2 23 C-2.61488281 22.80664062 -3.22976563 22.61328125 -3.86328125 22.4140625 C-4.67152344 22.15367187 -5.47976563 21.89328125 -6.3125 21.625 C-7.11300781 21.36976563 -7.91351563 21.11453125 -8.73828125 20.8515625 C-11 20 -11 20 -14 18 C-13.505 16.515 -13.505 16.515 -13 15 C-12.77820215 13.10787263 -12.59385985 11.21115528 -12.4375 9.3125 C-12.31181641 7.82169922 -12.31181641 7.82169922 -12.18359375 6.30078125 C-12.12300781 5.54152344 -12.06242187 4.78226562 -12 4 C-11.13375 4.268125 -10.2675 4.53625 -9.375 4.8125 C-5.66887413 5.01839588 -5.29015261 4.82153412 -2.625 2.5625 C-1.75875 1.716875 -0.8925 0.87125 0 0 Z " fill="#A80926" transform="translate(277,308)"/>
<path d="M0 0 C-0.66 1.134375 -1.32 2.26875 -2 3.4375 C-4.26300378 8.00391835 -4.93210324 11.9666425 -4 17 C-1.96995249 20.91509162 0.15360612 23.80206064 4 26 C6.31347872 26.73260159 8.645752 27.411438 11 28 C10.34 28.66 9.68 29.32 9 30 C7.68 30 6.36 30 5 30 C4.34 31.98 3.68 33.96 3 36 C2.38125 35.13375 2.38125 35.13375 1.75 34.25 C-0.717241 31.077833 -3.23675872 28.52123795 -6.5625 26.25 C-9.84167727 23.22306714 -11.14796467 20.35996456 -12 16 C-12.05956952 10.89404116 -10.98781545 6.685565 -9 2 C-9.33 1.34 -9.66 0.68 -10 0 C-3.375 -1.125 -3.375 -1.125 0 0 Z " fill="#A70B27" transform="translate(368,220)"/>
<path d="M0 0 C0.66 0.33 1.32 0.66 2 1 C1.360625 1.763125 0.72125 2.52625 0.0625 3.3125 C-3.17372662 7.52940136 -3.42796493 10.77882781 -3 16 C-1.60725774 20.49704728 0.25547867 23.91556782 4.3125 26.4375 C7.826425 28.16403891 11.11810563 28.68311066 15 29 C14 31 14 31 11.5 32.25 C6.31606079 33.36084412 1.84811606 32.59050637 -2.8046875 29.9921875 C-6.79502323 26.9944726 -8.56702133 23.69698565 -10 19 C-10.44188511 14.70389472 -10.50987137 10.06503829 -9 6 C-6.6875 4.375 -6.6875 4.375 -4 3 C-2.65368175 2.01755155 -1.31558703 1.02323436 0 0 Z " fill="#A90E29" transform="translate(255,381)"/>
<path d="M0 0 C0.66 0.33 1.32 0.66 2 1 C1.67644531 1.56976563 1.35289062 2.13953125 1.01953125 2.7265625 C-1.12236105 7.50273613 -0.54142609 12.48970618 1.1875 17.3125 C4.53678904 22.2786872 7.51119164 24.07007288 13.3125 25.25 C14.8726613 25.5142025 16.43458023 25.7689866 18 26 C17 29 17 29 15 30 C9.77159666 30.52113171 5.35963246 30.64273534 0.5625 28.375 C-3.97879296 24.16599676 -6.64757858 19.99558208 -7.375 13.8125 C-6.81460325 8.11513309 -4.00852876 4.00852876 0 0 Z " fill="#AA0F2A" transform="translate(233,340)"/>
<path d="M0 0 C0.99 0.99 1.98 1.98 3 3 C1.125 7.75 1.125 7.75 0 10 C-0.51472399 15.63664961 -0.78613214 20.45484372 1.8125 25.5625 C4.31120461 28.3760847 4.31120461 28.3760847 7 31 C2.26051656 31.59243543 -0.18095619 31.24689368 -4.0625 28.375 C-7.61114135 25.46967959 -10.8388786 22.31917747 -14 19 C-13.505 17.515 -13.505 17.515 -13 16 C-11.26057648 15.31079445 -9.52111088 14.62169447 -7.78125 13.93359375 C-4.20883306 12.06120855 -2.61333391 8.74537308 -1.31640625 5.0546875 C-0.82604264 3.38406942 -0.40632511 1.69302131 0 0 Z " fill="#730A1B" transform="translate(278,396)"/>
<path d="M0 0 C2.66666667 2.66666667 5.33333333 5.33333333 8 8 C6.99308773 10.16873412 5.99855869 12.00180164 4.5 13.875 C2.68327951 16.44868736 1.8881823 18.99384452 1 22 C-3.95 22.495 -3.95 22.495 -9 23 C-8.40277975 17.73284919 -6.66259825 13.45998089 -4.5 8.6875 C-4.01853516 7.59598633 -4.01853516 7.59598633 -3.52734375 6.48242188 C-1.15334821 1.15334821 -1.15334821 1.15334821 0 0 Z " fill="#720A1B" transform="translate(390,285)"/>
<path d="M0 0 C0.19335938 0.60328125 0.38671875 1.2065625 0.5859375 1.828125 C0.84632813 2.62734375 1.10671875 3.4265625 1.375 4.25 C1.63023437 5.03890625 1.88546875 5.8278125 2.1484375 6.640625 C2.95173667 8.86627958 3.89711662 10.90931672 5 13 C3.576875 13.928125 3.576875 13.928125 2.125 14.875 C-0.94445109 16.81970969 -0.94445109 16.81970969 -3 19 C-4.953125 19.0234375 -4.953125 19.0234375 -7 18 C-8.484375 15.1640625 -8.484375 15.1640625 -9.75 11.625 C-10.17796875 10.46226562 -10.6059375 9.29953125 -11.046875 8.1015625 C-12 5 -12 5 -12 2 C-10.37548581 1.66430703 -8.75037083 1.3315204 -7.125 1 C-6.22007812 0.814375 -5.31515625 0.62875 -4.3828125 0.4375 C-2 0 -2 0 0 0 Z " fill="#710719" transform="translate(252,368)"/>
<path d="M0 0 C1.14941259 2.29882518 2.26344451 4.58961391 3.3125 6.9375 C5.71201305 11.29217183 8.21837646 14.40612549 13 16 C12.39301257 20.12751449 10.96189209 23.3321148 9 27 C8.34 27 7.68 27 7 27 C6.84144531 26.39671875 6.68289063 25.7934375 6.51953125 25.171875 C4.99837468 19.96128345 3.82983883 16.92036766 -1 14 C-2.97711651 12.95548562 -4.97250996 11.94301862 -7 11 C-6.57847656 10.45730469 -6.15695312 9.91460937 -5.72265625 9.35546875 C-5.17480469 8.64003906 -4.62695312 7.92460937 -4.0625 7.1875 C-3.51722656 6.47980469 -2.97195313 5.77210938 -2.41015625 5.04296875 C-0.83143752 2.95874948 -0.83143752 2.95874948 0 0 Z " fill="#74081A" transform="translate(447,362)"/>
<path d="M0 0 C4 4.75 4 4.75 4 7 C4.639375 7.28875 5.27875 7.5775 5.9375 7.875 C8 9 8 9 9 11 C8.21625 11.598125 7.4325 12.19625 6.625 12.8125 C3.85425677 14.91085249 3.85425677 14.91085249 2 18 C-0.1640625 18.29296875 -0.1640625 18.29296875 -2.625 18.1875 C-3.85089844 18.14689453 -3.85089844 18.14689453 -5.1015625 18.10546875 C-5.72804688 18.07066406 -6.35453125 18.03585937 -7 18 C-6.44380331 13.3110507 -5.11817327 9.80075733 -2.9375 5.625 C-2.38964844 4.56539063 -1.84179688 3.50578125 -1.27734375 2.4140625 C-0.85582031 1.61742187 -0.43429687 0.82078125 0 0 Z " fill="#73091B" transform="translate(346,386)"/>
<path d="M0 0 C0.70898438 0.32613281 1.41796875 0.65226562 2.1484375 0.98828125 C5.18236092 2.06470065 7.42123104 2.23604195 10.625 2.1875 C12.03652344 2.17783203 12.03652344 2.17783203 13.4765625 2.16796875 C16.12600912 2.09828658 16.12600912 2.09828658 19 1 C18.39644592 4.85025879 17.23227397 7.86101159 15.4375 11.3125 C14.98246094 12.19550781 14.52742188 13.07851563 14.05859375 13.98828125 C13.70925781 14.65214844 13.35992187 15.31601562 13 16 C12.443125 15.2575 11.88625 14.515 11.3125 13.75 C8.1030715 9.93338232 5.09064191 6.75416917 0 6 C0 4.02 0 2.04 0 0 Z " fill="#72081A" transform="translate(333,296)"/>
<path d="M0 0 C-0.5746621 4.78642607 -1.98245643 8.53788787 -4.0625 12.875 C-4.61035156 14.02742188 -5.15820312 15.17984375 -5.72265625 16.3671875 C-6.35494141 17.67042969 -6.35494141 17.67042969 -7 19 C-9.12038635 16.38485683 -11.13091744 13.80362384 -13 11 C-11.56651626 7.50509052 -10.07516803 4.16395749 -8 1 C-4.94936685 -0.07669405 -3.13633481 0 0 0 Z " fill="#72091A" transform="translate(336,333)"/>
<path d="M0 0 C0.495 1.216875 0.99 2.43375 1.5 3.6875 C3.88071978 8.54382332 7.27657758 10.61535956 12 13 C10.35 14.98 8.7 16.96 7 19 C5 17 5 17 3.6875 14.125 C1.25753578 9.62506626 -2.25661086 6.86860784 -7 5 C-8.99110401 4.61709538 -10.99100513 4.27395385 -13 4 C-13 3.01 -13 2.02 -13 1 C-11.39602723 0.83147753 -9.7918131 0.66525114 -8.1875 0.5 C-7.29417969 0.4071875 -6.40085937 0.314375 -5.48046875 0.21875 C-3 0 -3 0 0 0 Z " fill="#720619" transform="translate(437,308)"/>
<path d="M0 0 C-0.9590625 1.175625 -0.9590625 1.175625 -1.9375 2.375 C-4.78860696 6.00368158 -5.19218584 8.07542597 -5.5625 12.625 C-5.706875 14.39875 -5.85125 16.1725 -6 18 C-9.63 17.67 -13.26 17.34 -17 17 C-15.68 16.67 -14.36 16.34 -13 16 C-13.103125 15.175 -13.20625 14.35 -13.3125 13.5 C-12.8866483 8.73046092 -10.97991018 5.68631941 -8 2 C-3.82978723 -1.27659574 -3.82978723 -1.27659574 0 0 Z " fill="#A60825" transform="translate(263,285)"/>
<path d="M0 0 C0.185625 1.03125 0.37125 2.0625 0.5625 3.125 C1.86623779 7.86674262 5.15464707 10.19309799 9 13 C8.2575 13.515625 7.515 14.03125 6.75 14.5625 C3.46371455 17.47534392 2.01236241 20.12433906 0 24 C-0.99 24 -1.98 24 -3 24 C-2.67 22.989375 -2.34 21.97875 -2 20.9375 C-0.13092723 14.19258522 -0.81103363 9.56800443 -4.125 3.50390625 C-4.41375 3.00761719 -4.7025 2.51132812 -5 2 C-2 0 -2 0 0 0 Z " fill="#730619" transform="translate(301,268)"/>
<path d="M0 0 C3.27148438 2.29492188 3.27148438 2.29492188 6.54296875 4.58984375 C9.07950299 6.0456289 11.1218182 6.59613435 14 7 C13.67 8.32 13.34 9.64 13 11 C6.565 11.495 6.565 11.495 0 12 C0 8.04 0 4.08 0 0 Z " fill="#710618" transform="translate(235,327)"/>
<path d="M0 0 C2.41824533 2.41824533 3.50075874 4.9390491 5 8 C5.99 9.485 5.99 9.485 7 11 C3.37 11.33 -0.26 11.66 -4 12 C-3.5317879 7.22423661 -2.75668002 3.95523655 0 0 Z " fill="#750B1C" transform="translate(360,354)"/>
<path d="M0 0 C1.15006793 2.30013587 2.28478287 4.60839977 3.375 6.9375 C4.97756241 9.95771378 6.78648096 12.40483975 9 15 C2.89529872 14.70220969 0.28332175 12.02632244 -4 8 C-2.68 5.36 -1.36 2.72 0 0 Z " fill="#A70825" transform="translate(447,362)"/>
<path d="M0 0 C0.66 0 1.32 0 2 0 C3.78305524 2.63892176 4.99059621 4.97178863 6 8 C1.05 9.485 1.05 9.485 -4 11 C-1.125 2.25 -1.125 2.25 0 0 Z " fill="#760B1D" transform="translate(371,328)"/>
<path d="M0 0 C2.42804771 2.42804771 3.51788243 4.91225506 5 8 C5.391875 8.78375 5.78375 9.5675 6.1875 10.375 C6.455625 10.91125 6.72375 11.4475 7 12 C2.70474476 12 1.16134621 9.76617793 -2 7 C-2.99 6.34 -3.98 5.68 -5 5 C-3.35 3.35 -1.7 1.7 0 0 Z " fill="#750619" transform="translate(440,337)"/>
<path d="M0 0 C3.69230769 0.69230769 3.69230769 0.69230769 5 2 C5.04092937 4.33297433 5.04241723 6.66705225 5 9 C3.68 9 2.36 9 1 9 C-1.14809171 5.77786243 -1.29386153 4.72224599 -1 1 C-0.67 0.67 -0.34 0.34 0 0 Z " fill="#F9B7A1" transform="translate(371,433)"/>
<path d="M0 0 C1.32 0.66 2.64 1.32 4 2 C4.125 7.75 4.125 7.75 3 10 C1.68 9.67 0.36 9.34 -1 9 C-1.625 5.625 -1.625 5.625 -2 2 C-1.34 1.34 -0.68 0.68 0 0 Z " fill="#FAB9A2" transform="translate(421,400)"/>
<path d="M0 0 C1.875 0.3125 1.875 0.3125 4 1 C6.1519437 4.22791555 6.20086443 5.28400809 6 9 C3.625 8.6875 3.625 8.6875 1 8 C-1 5 -1 5 -0.625 2.3125 C-0.41875 1.549375 -0.2125 0.78625 0 0 Z " fill="#FAB9A3" transform="translate(297,377)"/>
<path d="M0 0 C1.32 0.66 2.64 1.32 4 2 C4 3.98 4 5.96 4 8 C2.02 8.99 2.02 8.99 0 10 C-2 8 -2 8 -2.25 5 C-2 2 -2 2 0 0 Z " fill="#FAB9A2" transform="translate(435,323)"/>
<path d="M0 0 C1.9375 0.25 1.9375 0.25 4 1 C6 4 6 4 5.625 6.6875 C5.41875 7.450625 5.2125 8.21375 5 9 C2.13275314 8.42655063 1.1385485 8.1385485 -1 6 C-1.1875 3.4375 -1.1875 3.4375 -1 1 C-0.67 0.67 -0.34 0.34 0 0 Z " fill="#F9B6A0" transform="translate(448,269)"/>
<path d="M0 0 C2.86724686 0.57344937 3.8614515 0.8614515 6 3 C6.125 5.625 6.125 5.625 6 8 C4.68 8.33 3.36 8.66 2 9 C0.4375 7.3125 0.4375 7.3125 -1 5 C-0.6875 2.25 -0.6875 2.25 0 0 Z " fill="#FAB8A2" transform="translate(360,251)"/>
<path d="M0 0 C1.9375 0.5625 1.9375 0.5625 4 2 C4.75 5.625 4.75 5.625 5 9 C3.68 9.33 2.36 9.66 1 10 C-1.29404844 6.55892734 -1.26293056 5.03160191 -1 1 C-0.67 0.67 -0.34 0.34 0 0 Z " fill="#FABBA4" transform="translate(349,412)"/>
<path d="M0 0 C1.875 0.3125 1.875 0.3125 4 1 C6 4 6 4 5.625 6.6875 C5.41875 7.450625 5.2125 8.21375 5 9 C3.125 8.6875 3.125 8.6875 1 8 C-1 5 -1 5 -0.625 2.3125 C-0.41875 1.549375 -0.2125 0.78625 0 0 Z " fill="#FABBA4" transform="translate(267,387)"/>
<path d="M0 0 C1.32 0.66 2.64 1.32 4 2 C4 3.98 4 5.96 4 8 C2.02 8.99 2.02 8.99 0 10 C-2.14915785 6.77626323 -2.38286803 5.73296326 -2 2 C-1.34 1.34 -0.68 0.68 0 0 Z " fill="#FBBBA4" transform="translate(414,342)"/>
<path d="M0 0 C3.875 1.875 3.875 1.875 5 3 C4.71269945 5.33944736 4.38063221 7.6739143 4 10 C2.0625 9.625 2.0625 9.625 0 9 C-1.36623674 6.26752652 -1.128426 4.01801098 -1 1 C-0.67 0.67 -0.34 0.34 0 0 Z " fill="#FABAA3" transform="translate(319,326)"/>
<path d="M0 0 C2.86724686 0.57344937 3.8614515 0.8614515 6 3 C6.125 6.125 6.125 6.125 6 9 C3.625 8.6875 3.625 8.6875 1 8 C-1 5 -1 5 -0.625 2.3125 C-0.41875 1.549375 -0.2125 0.78625 0 0 Z " fill="#FABAA3" transform="translate(300,298)"/>
<path d="M0 0 C2.475 0.495 2.475 0.495 5 1 C5.33 3.31 5.66 5.62 6 8 C4.125 8.625 4.125 8.625 2 9 C0 7 0 7 -0.125 3.375 C-0.08375 2.26125 -0.0425 1.1475 0 0 Z " fill="#FABBA4" transform="translate(369,404)"/>
<path d="M0 0 C3.69230769 0.69230769 3.69230769 0.69230769 5 2 C4.71269945 4.33944736 4.38063221 6.6739143 4 9 C2.68 9 1.36 9 0 9 C-1.36623674 6.26752652 -1.128426 4.01801098 -1 1 C-0.67 0.67 -0.34 0.34 0 0 Z " fill="#FBBCA5" transform="translate(370,376)"/>
<path d="M0 0 C1.65 0.33 3.3 0.66 5 1 C4.67 3.31 4.34 5.62 4 8 C2.0625 8.5625 2.0625 8.5625 0 9 C-1 8 -1 8 -1.125 5.0625 C-1 2 -1 2 0 0 Z " fill="#FBBCA5" transform="translate(439,355)"/>
<path d="M0 0 C2.3125 -0.25 2.3125 -0.25 5 0 C6.875 1.75 6.875 1.75 8 4 C7.6875 6.25 7.6875 6.25 7 8 C3.76912579 7.44295272 1.97638863 6.66812465 0 4 C0 2.68 0 1.36 0 0 Z " fill="#FBBCA4" transform="translate(246,344)"/>
<path d="M0 0 C1.32 0.66 2.64 1.32 4 2 C4 4.31 4 6.62 4 9 C2.68 9 1.36 9 0 9 C-2 6 -2 6 -1.6875 3.375 C-1 1 -1 1 0 0 Z " fill="#FABAA3" transform="translate(271,336)"/>
<path d="M0 0 C1.32 0.66 2.64 1.32 4 2 C3.67 4.31 3.34 6.62 3 9 C1.68 9 0.36 9 -1 9 C-1.625 5.625 -1.625 5.625 -2 2 C-1.34 1.34 -0.68 0.68 0 0 Z " fill="#FBBDA5" transform="translate(416,303)"/>
<path d="M0 0 C1.875 0.3125 1.875 0.3125 4 1 C6 4 6 4 5.625 6.6875 C5.41875 7.450625 5.2125 8.21375 5 9 C3.125 8.6875 3.125 8.6875 1 8 C-1 5 -1 5 -0.625 2.3125 C-0.41875 1.549375 -0.2125 0.78625 0 0 Z " fill="#FABBA4" transform="translate(322,230)"/>
<path d="M0 0 C-0.66 2.31 -1.32 4.62 -2 7 C-5 7 -5 7 -6.38671875 5.6875 C-7.59114583 4.125 -8.79557292 2.5625 -10 1 C-6.78548731 -0.60725635 -3.56387464 -0.05748185 0 0 Z " fill="#760B1D" transform="translate(334,222)"/>
<path d="M0 0 C3.69230769 0.69230769 3.69230769 0.69230769 5 2 C5.04080783 3.99958364 5.04254356 6.00045254 5 8 C3.68 8.33 2.36 8.66 1 9 C-1.14809171 5.77786243 -1.29386153 4.72224599 -1 1 C-0.67 0.67 -0.34 0.34 0 0 Z " fill="#FBBFA6" transform="translate(300,405)"/>
<path d="M0 0 C1.32 0 2.64 0 4 0 C6.1519437 3.22791555 6.20086443 4.28400809 6 8 C4.125 8.625 4.125 8.625 2 9 C0 7 0 7 -0.125 3.375 C-0.08375 2.26125 -0.0425 1.1475 0 0 Z " fill="#FBBCA4" transform="translate(396,390)"/>
<path d="M0 0 C3.875 0.875 3.875 0.875 5 2 C5.04092937 4.33297433 5.04241723 6.66705225 5 9 C3.35 8.67 1.7 8.34 0 8 C-1.125 2.25 -1.125 2.25 0 0 Z " fill="#FBBEA6" transform="translate(320,351)"/>
<path d="M0 0 C3.69230769 0.69230769 3.69230769 0.69230769 5 2 C5.04080783 3.99958364 5.04254356 6.00045254 5 8 C3.68 8.33 2.36 8.66 1 9 C-1.14809171 5.77786243 -1.29386153 4.72224599 -1 1 C-0.67 0.67 -0.34 0.34 0 0 Z " fill="#FBBFA7" transform="translate(465,328)"/>
<path d="M0 0 C2.46800047 1.15173355 4.04783565 2.04783565 6 4 C5.625 6.625 5.625 6.625 5 9 C2.13275314 8.42655063 1.1385485 8.1385485 -1 6 C-1.1875 3.4375 -1.1875 3.4375 -1 1 C-0.67 0.67 -0.34 0.34 0 0 Z " fill="#FBBFA7" transform="translate(290,272)"/>
<path d="M0 0 C2.475 0.495 2.475 0.495 5 1 C6.125 6.75 6.125 6.75 5 9 C3.0625 8.625 3.0625 8.625 1 8 C-0.35439668 5.29120665 -0.06501451 2.99066732 0 0 Z " fill="#FCC0A7" transform="translate(403,419)"/>
<path d="M0 0 C2.86724686 0.57344937 3.8614515 0.8614515 6 3 C6.125 5.625 6.125 5.625 6 8 C4.125 8.625 4.125 8.625 2 9 C0 7 0 7 -0.125 3.375 C-0.08375 2.26125 -0.0425 1.1475 0 0 Z " fill="#FBBFA6" transform="translate(336,309)"/>
<path d="M0 0 C2 0.3125 2 0.3125 4 1 C5.35439668 3.70879335 5.06501451 6.00933268 5 9 C3.35 8.67 1.7 8.34 0 8 C-0.38063221 5.6739143 -0.71269945 3.33944736 -1 1 C-0.67 0.67 -0.34 0.34 0 0 Z " fill="#FBBEA6" transform="translate(323,288)"/>
<path d="M0 0 C2.475 0.495 2.475 0.495 5 1 C5.33 3.31 5.66 5.62 6 8 C5.01 8.33 4.02 8.66 3 9 C1.5 7.875 1.5 7.875 0 6 C-0.1875 2.8125 -0.1875 2.8125 0 0 Z " fill="#FCC2A8" transform="translate(426,249)"/>
<path d="M0 0 C1.43088528 2.86177057 0.59991697 4.93375773 0 8 C-3.3 7.67 -6.6 7.34 -10 7 C-7.0094833 3.66442368 -4.06815373 1.84916079 0 0 Z " fill="#770C1D" transform="translate(299,232)"/>
<path d="M0 0 C1.98 0.495 1.98 0.495 4 1 C4 3.31 4 5.62 4 8 C2.02 8.99 2.02 8.99 0 10 C-1 9 -1 9 -1.125 5.5625 C-1 2 -1 2 0 0 Z " fill="#FCC1A8" transform="translate(466,357)"/>
<path d="M0 0 C2.475 0.495 2.475 0.495 5 1 C5.33 3.31 5.66 5.62 6 8 C4.68 8 3.36 8 2 8 C0 6 0 6 -0.125 2.875 C-0.08375 1.92625 -0.0425 0.9775 0 0 Z " fill="#FCC4AA" transform="translate(255,310)"/>
<path d="M0 0 C4.875 0.875 4.875 0.875 6 2 C6.04080783 3.99958364 6.04254356 6.00045254 6 8 C4.68 8 3.36 8 2 8 C-0.1519437 4.77208445 -0.20086443 3.71599191 0 0 Z " fill="#FBC1A7" transform="translate(349,275)"/>
<path d="M0 0 C3.875 0.875 3.875 0.875 5 2 C5.04092937 4.33297433 5.04241723 6.66705225 5 9 C3.125 8.6875 3.125 8.6875 1 8 C-1 5 -1 5 -0.625 2.3125 C-0.41875 1.549375 -0.2125 0.78625 0 0 Z " fill="#FCC2A8" transform="translate(413,272)"/>
<path d="M0 0 C3.375 -0.125 3.375 -0.125 7 0 C7.66 0.66 8.32 1.32 9 2 C8.625 4.125 8.625 4.125 8 6 C2.25 5.25 2.25 5.25 0 3 C0 2.01 0 1.02 0 0 Z " fill="#FCC1A8" transform="translate(264,247)"/>
<path d="M0 0 C2.84326464 -0.23053497 4.46145349 -0.35903101 6.875 1.25 C8 3 8 3 7.6875 5.1875 C7.460625 5.785625 7.23375 6.38375 7 7 C2.25 6.25 2.25 6.25 0 4 C0 2.68 0 1.36 0 0 Z " fill="#FCC2A8" transform="translate(292,244)"/>
<path d="M0 0 C3.875 0.875 3.875 0.875 5 2 C5.04092937 4.33297433 5.04241723 6.66705225 5 9 C3.125 8.6875 3.125 8.6875 1 8 C-1 5 -1 5 -0.625 2.3125 C-0.41875 1.549375 -0.2125 0.78625 0 0 Z " fill="#FCC2A8" transform="translate(379,226)"/>
<path d="M0 0 C4.875 0.875 4.875 0.875 6 2 C6.04080783 3.99958364 6.04254356 6.00045254 6 8 C1.125 7.125 1.125 7.125 0 6 C-0.04080783 4.00041636 -0.04254356 1.99954746 0 0 Z " fill="#FCC2A9" transform="translate(273,359)"/>
<path d="M0 0 C0.99 0 1.98 0 3 0 C4.4783226 2.95664519 4.06032783 5.74229737 4 9 C2.35 8.67 0.7 8.34 -1 8 C-1.04241723 5.66705225 -1.04092937 3.33297433 -1 1 C-0.67 0.67 -0.34 0.34 0 0 Z " fill="#FDC4AA" transform="translate(446,383)"/>
<path d="M0 0 C2.0625 0.4375 2.0625 0.4375 4 1 C4 3.31 4 5.62 4 8 C2.0625 8.5625 2.0625 8.5625 0 9 C-1 8 -1 8 -1.125 4.5 C-1 1 -1 1 0 0 Z " fill="#FDC6AB" transform="translate(385,347)"/>
<path d="M0 0 C2.375 0.25 2.375 0.25 5 1 C6.3125 3.0625 6.3125 3.0625 7 5 C6.01 6.485 6.01 6.485 5 8 C3.68 7.67 2.36 7.34 1 7 C0.67 4.69 0.34 2.38 0 0 Z " fill="#FABCA4" transform="translate(294,342)"/>
<path d="M0 0 C2.0625 0.4375 2.0625 0.4375 4 1 C4 3.31 4 5.62 4 8 C2.0625 8.5625 2.0625 8.5625 0 9 C-1 8 -1 8 -1.125 4.5 C-1 1 -1 1 0 0 Z " fill="#FDC6AB" transform="translate(396,318)"/>
<path d="M0 0 C2.0625 0.4375 2.0625 0.4375 4 1 C4 3.31 4 5.62 4 8 C2.0625 8.5625 2.0625 8.5625 0 9 C-1 8 -1 8 -1.125 4.5 C-1 1 -1 1 0 0 Z " fill="#FDC6AB" transform="translate(461,300)"/>
<path d="M0 0 C0.99 0 1.98 0 3 0 C4.35439668 2.70879335 4.06501451 5.00933268 4 8 C2.0625 8.5625 2.0625 8.5625 0 9 C-1 8 -1 8 -1.125 4.5 C-1 1 -1 1 0 0 Z " fill="#FDC7AC" transform="translate(419,371)"/>
<path d="M0 0 C1.98 0 3.96 0 6 0 C6 1.98 6 3.96 6 6 C3.69 6 1.38 6 -1 6 C-0.67 4.02 -0.34 2.04 0 0 Z " fill="#700618" transform="translate(404,325)"/>
<path d="M0 0 C4.875 0.875 4.875 0.875 6 2 C6.04080783 3.99958364 6.04254356 6.00045254 6 8 C4.35 7.67 2.7 7.34 1 7 C0.67 4.69 0.34 2.38 0 0 Z " fill="#FDC5AB" transform="translate(289,314)"/>
<path d="M0 0 C0.99 0 1.98 0 3 0 C2.67 3.63 2.34 7.26 2 11 C0.35 11 -1.3 11 -3 11 C-2.01 7.37 -1.02 3.74 0 0 Z " fill="#720619" transform="translate(266,316)"/>
<path d="M0 0 C2.475 0.99 2.475 0.99 5 2 C4.34 3.65 3.68 5.3 3 7 C2.01 7 1.02 7 0 7 C-1 6 -1 6 -1.125 3.5 C-1 1 -1 1 0 0 Z " fill="#F8B7A1" transform="translate(336,246)"/>
<path d="M0 0 C0.33 0 0.66 0 1 0 C1.33 2.97 1.66 5.94 2 9 C0.35 9.33 -1.3 9.66 -3 10 C-2.49287967 6.28111761 -1.88391785 3.26545761 0 0 Z " fill="#780E1F" transform="translate(403,255)"/>
<path d="M0 0 C3.3 0.33 6.6 0.66 10 1 C9.01 2.485 9.01 2.485 8 4 C6.0546875 4.29296875 6.0546875 4.29296875 3.875 4.1875 C2.59625 4.125625 1.3175 4.06375 0 4 C0 2.68 0 1.36 0 0 Z " fill="#A40A25" transform="translate(328,330)"/>
<path d="M0 0 C2.475 0.495 2.475 0.495 5 1 C4.34 3.31 3.68 5.62 3 8 C1.5 6.8125 1.5 6.8125 0 5 C-0.1875 2.3125 -0.1875 2.3125 0 0 Z " fill="#FCC3A9" transform="translate(353,225)"/>
<path d="M0 0 C1.98 0.99 3.96 1.98 6 3 C5.67 4.32 5.34 5.64 5 7 C3.0625 6.3125 3.0625 6.3125 1 5 C0.25 2.375 0.25 2.375 0 0 Z " fill="#FBC0A7" transform="translate(272,294)"/>
<path d="M0 0 C-0.804375 0.3403125 -0.804375 0.3403125 -1.625 0.6875 C-4.78500863 2.43382056 -7.2676983 4.6402849 -10 7 C-9.649375 6.38125 -9.29875 5.7625 -8.9375 5.125 C-8.628125 4.42375 -8.31875 3.7225 -8 3 C-8.33 2.34 -8.66 1.68 -9 1 C-5.8035914 -0.06546953 -3.34252724 -0.07427838 0 0 Z " fill="#CF2A42" transform="translate(350,216)"/>
<path d="M0 0 C0.99 0.33 1.98 0.66 3 1 C3 2.32 3 3.64 3 5 C1.35 5 -0.3 5 -2 5 C-1.34 3.35 -0.68 1.7 0 0 Z " fill="#79061A" transform="translate(311,312)"/>
<path d="M0 0 C0.66 0.66 1.32 1.32 2 2 C1.625 4.125 1.625 4.125 1 6 C-1.475 5.01 -1.475 5.01 -4 4 C-2.68 2.68 -1.36 1.36 0 0 Z " fill="#7B081C" transform="translate(465,316)"/>
<path d="M0 0 C1.65 0 3.3 0 5 0 C4.34 1.98 3.68 3.96 3 6 C0 2.25 0 2.25 0 0 Z " fill="#7A1020" transform="translate(368,250)"/>
</svg>
