<?xml version="1.0" encoding="UTF-8"?>
<svg version="1.1" xmlns="http://www.w3.org/2000/svg" width="512" height="512">
<path d="M0 0 C4.83159012 4.41904055 7.14530862 8.984509 7.84155273 15.42529297 C7.86778441 16.75986969 7.87688937 18.09486558 7.87109375 19.4296875 C7.8763356 20.15632599 7.88157745 20.88296448 7.88697815 21.63162231 C7.89336951 23.16618585 7.89209891 24.70079856 7.88354492 26.23535156 C7.87514711 28.52243589 7.90364796 30.80691896 7.93554688 33.09375 C8.00554063 47.42033079 5.09609358 60.66318716 -0.1875 74 C-0.69845215 75.30892212 -0.69845215 75.30892212 -1.21972656 76.64428711 C-10.84333292 100.7271238 -24.63994126 122.58217055 -39.5625 143.6875 C-40.11083496 144.46399902 -40.65916992 145.24049805 -41.22412109 146.04052734 C-48.38921126 156.15161641 -55.78917674 166.03685581 -63.5625 175.6875 C-64.078125 176.32929199 -64.59375 176.97108398 -65.125 177.63232422 C-72.02497222 186.20960339 -79.02422782 194.6956859 -86.17675781 203.06347656 C-87.61979092 204.75464221 -89.05624817 206.45124619 -90.4921875 208.1484375 C-96.46939729 215.19258898 -102.60572667 222.05288114 -108.90234375 228.8125 C-110.95671494 231.03278957 -112.96586649 233.26967306 -114.9375 235.5625 C-122.49594541 244.29092591 -130.46786012 252.71786822 -138.70947266 260.80175781 C-140.46366329 262.58691835 -142.08976781 264.42624959 -143.7109375 266.33203125 C-147.84550715 271.08523159 -152.27443688 275.5074032 -156.75 279.9375 C-158.04200317 281.22382324 -158.04200317 281.22382324 -159.36010742 282.53613281 C-163.01263983 286.17244939 -166.67113635 289.80274371 -170.32910156 293.43359375 C-173.01315156 296.09947597 -175.69413241 298.7684181 -178.375 301.4375 C-179.19186279 302.24606445 -180.00872559 303.05462891 -180.8503418 303.88769531 C-185.09123815 308.11057895 -189.17046616 312.40356057 -193.05517578 316.95751953 C-195.42135792 319.67322517 -197.98478666 322.17471002 -200.5625 324.6875 C-204.55088006 328.62140584 -208.35413058 332.62682405 -211.98828125 336.89453125 C-214.11845098 339.32070471 -216.41670265 341.55387674 -218.72021484 343.81396484 C-220.49666034 345.62054353 -222.15725452 347.48139812 -223.80859375 349.40234375 C-227.47653383 353.62042641 -231.2790874 357.69444896 -235.125 361.75 C-236.54323925 363.25104655 -237.96120302 364.75235343 -239.37890625 366.25390625 C-240.08289551 366.99914551 -240.78688477 367.74438477 -241.51220703 368.51220703 C-243.93759483 371.0854632 -246.35225187 373.6684935 -248.7625885 376.25584412 C-251.06702659 378.72895537 -253.37395056 381.19973986 -255.68092346 383.67048645 C-256.88990101 384.96648693 -258.09786356 386.26343541 -259.30455017 387.56156921 C-269.64520093 398.68242725 -280.24179278 409.52391248 -290.99267578 420.24804688 C-293.59135314 422.84129284 -296.18454581 425.43993948 -298.77734375 428.0390625 C-300.45540812 429.71646707 -302.13378213 431.39356194 -303.8125 433.0703125 C-304.57409424 433.83393097 -305.33568848 434.59754944 -306.12036133 435.38430786 C-310.77548594 440.01929184 -315.57453824 444.41430614 -320.5625 448.6875 C-321.65753602 449.64827583 -322.75150522 450.61027093 -323.84375 451.57421875 C-342.17568568 467.59348417 -361.69070672 481.91373012 -384.5625 490.6875 C-385.44292969 491.04714844 -386.32335937 491.40679687 -387.23046875 491.77734375 C-399.67172855 496.06947949 -415.66303278 495.26249553 -427.87890625 490.6875 C-430.38945267 489.75198343 -432.67805766 489.24481874 -435.3125 488.8125 C-442.44523439 487.30742761 -448.81234611 482.49538678 -453.296875 476.828125 C-455.42108878 473.23531897 -456.47099208 469.44749358 -457.55078125 465.43359375 C-458.26275495 462.79736682 -459.02377541 460.29198424 -459.91796875 457.72265625 C-470.06759202 427.3759875 -460.42410708 397.22558498 -446.875 369.6875 C-432.51342933 341.3603476 -413.10995105 316.0077336 -393.06396484 291.52539062 C-391.72053439 289.88094437 -390.38511569 288.22996048 -389.05078125 286.578125 C-384.73877275 281.25019827 -380.29351073 276.08835089 -375.6796875 271.01953125 C-373.78198831 268.92926111 -371.91516585 266.81763885 -370.0625 264.6875 C-362.38448348 255.88243519 -354.48981149 247.26802591 -346.5625 238.6875 C-346.00820313 238.08663574 -345.45390625 237.48577148 -344.8828125 236.86669922 C-336.92748609 228.259478 -328.82184441 219.83706961 -320.46044922 211.62231445 C-319.45908936 210.6336438 -319.45908936 210.6336438 -318.4375 209.625 C-317.56738281 208.77228516 -317.56738281 208.77228516 -316.6796875 207.90234375 C-314.89528957 206.03563964 -313.22111417 204.13247903 -311.54272461 202.17211914 C-306.62707325 196.52336143 -301.30135225 191.28213685 -296.00390625 185.99609375 C-294.88949782 184.88100989 -293.77523771 183.76577778 -292.66111755 182.65040588 C-290.33713979 180.32496238 -288.01138536 178.00131489 -285.68432617 175.67895508 C-282.72129549 172.72162097 -279.7627783 169.75981872 -276.80558872 166.79664516 C-274.50897368 164.49639402 -272.20995434 162.19855769 -269.91023064 159.90141487 C-268.81920194 158.81104703 -267.72889823 157.7199532 -266.63937569 156.62808037 C-261.33969433 151.31947402 -256.01858976 146.10195685 -250.31700134 141.21961975 C-247.54006223 138.79465537 -244.95928895 136.18948049 -242.375 133.5625 C-241.8281958 133.01190918 -241.2813916 132.46131836 -240.71801758 131.89404297 C-238.99700493 130.16099183 -237.27932168 128.42470227 -235.5625 126.6875 C-222.40825612 113.3771006 -222.40825612 113.3771006 -216.13671875 108.0390625 C-214.17267289 106.35280972 -212.35993319 104.54912723 -210.5625 102.6875 C-207.47666001 99.55995947 -204.281257 96.65367743 -200.94921875 93.79296875 C-198.4423382 91.58149802 -196.00488074 89.30756131 -193.56811523 87.01953125 C-187.94422485 81.73925173 -182.23677645 76.69139288 -176.2109375 71.8671875 C-173.38424165 69.5407918 -170.69191098 67.1057807 -168 64.625 C-163.02988217 60.06203871 -157.87744082 55.83931609 -152.5625 51.6875 C-151.54929687 50.87925781 -150.53609375 50.07101563 -149.4921875 49.23828125 C-129.57745089 33.3742492 -109.04196001 18.70561995 -86.5625 6.6875 C-85.89863281 6.33026855 -85.23476563 5.97303711 -84.55078125 5.60498047 C-61.03423869 -6.94361949 -23.16854882 -19.5121064 0 0 Z " fill="#389248" transform="translate(468.5625,13.3125)"/>
<path d="M0 0 C1.71388916 0.01353516 1.71388916 0.01353516 3.46240234 0.02734375 C12.00549211 0.20256166 19.20612575 1.02998441 27.125 4.4375 C27.7658252 4.71126465 28.40665039 4.9850293 29.06689453 5.26708984 C47.03419214 13.11688006 60.93125174 25.60612114 69.41796875 43.44921875 C70.125 45.4375 70.125 45.4375 70.125 48.4375 C71.06859375 47.90640625 72.0121875 47.3753125 72.984375 46.828125 C92.23092045 36.17225824 113.87337779 31.16979589 135.75 36.9375 C137.90228205 37.69759961 140.02831525 38.5352902 142.125 39.4375 C142.7658252 39.71126465 143.40665039 39.9850293 144.06689453 40.26708984 C163.55992236 48.78346123 176.87853285 62.22896927 185.6875 81.4765625 C189.28549083 90.75688897 190.66147719 99.83449612 190.5625 109.75 C190.55347656 110.84304443 190.54445313 111.93608887 190.53515625 113.06225586 C190.12798046 132.15569006 182.77905016 150.824453 169.125 164.4375 C161.02897437 171.89824427 152.51844029 177.61674358 142.125 181.4375 C141.03445313 181.84871094 139.94390625 182.25992188 138.8203125 182.68359375 C118.50776985 189.2207038 96.70149464 186.33976753 77.91015625 176.85131836 C70.96498769 173.07881354 65.57438909 168.09867402 60.125 162.4375 C59.37605469 161.69628906 58.62710938 160.95507812 57.85546875 160.19140625 C52.47638062 154.58604673 45.125 145.52550087 45.125 137.4375 C43.72701172 138.23414063 43.72701172 138.23414063 42.30078125 139.046875 C23.16486412 149.73096914 1.83406044 154.21368493 -19.875 148.9375 C-33.83853853 144.44977821 -44.72203718 137.95523993 -54.875 127.4375 C-55.61234375 126.73109375 -56.3496875 126.0246875 -57.109375 125.296875 C-63.55233415 118.75402501 -67.29870986 110.78561838 -70.875 102.4375 C-71.33390625 101.37144531 -71.7928125 100.30539062 -72.265625 99.20703125 C-77.66421016 83.90470359 -77.28772393 63.34030914 -70.875 48.4375 C-70.60123535 47.7966748 -70.3274707 47.15584961 -70.04541016 46.49560547 C-61.52903877 27.00257764 -48.08353073 13.68396715 -28.8359375 4.875 C-19.35077083 1.20198309 -10.12976547 -0.0963163 0 0 Z " fill="#B3D34B" transform="translate(316.875,321.5625)"/>
<path d="M0 0 C6.00922677 5.11089534 9.67259429 9.75533226 10.53295898 17.71435547 C10.55919066 19.04893219 10.56829562 20.38392808 10.5625 21.71875 C10.56774185 22.44538849 10.5729837 23.17202698 10.5783844 23.92068481 C10.58477576 25.45524835 10.58350516 26.98986106 10.57495117 28.52441406 C10.56655336 30.81149839 10.59505421 33.09598146 10.62695312 35.3828125 C10.69694688 49.70939329 7.78749983 62.95224966 2.50390625 76.2890625 C1.9929541 77.59798462 1.9929541 77.59798462 1.47167969 78.93334961 C-8.15192667 103.0161863 -21.94853501 124.87123305 -36.87109375 145.9765625 C-37.41942871 146.75306152 -37.96776367 147.52956055 -38.53271484 148.32958984 C-45.69780501 158.44067891 -53.09777049 168.32591831 -60.87109375 177.9765625 C-61.38671875 178.61835449 -61.90234375 179.26014648 -62.43359375 179.92138672 C-69.33356597 188.49866589 -76.33282157 196.9847484 -83.48535156 205.35253906 C-84.92838467 207.04370471 -86.36484192 208.74030869 -87.80078125 210.4375 C-93.77799104 217.48165148 -99.91432042 224.34194364 -106.2109375 231.1015625 C-108.26530869 233.32185207 -110.27446024 235.55873556 -112.24609375 237.8515625 C-119.80453916 246.57998841 -127.77645387 255.00693072 -136.01806641 263.09082031 C-137.77225704 264.87598085 -139.39836156 266.71531209 -141.01953125 268.62109375 C-145.1541009 273.37429409 -149.58303063 277.7964657 -154.05859375 282.2265625 C-155.35059692 283.51288574 -155.35059692 283.51288574 -156.66870117 284.82519531 C-160.32123358 288.46151189 -163.9797301 292.09180621 -167.63769531 295.72265625 C-170.32174531 298.38853847 -173.00272616 301.0574806 -175.68359375 303.7265625 C-176.50045654 304.53512695 -177.31731934 305.34369141 -178.15893555 306.17675781 C-182.3998319 310.39964145 -186.47905991 314.69262307 -190.36376953 319.24658203 C-192.72995167 321.96228767 -195.29338041 324.46377252 -197.87109375 326.9765625 C-201.85947381 330.91046834 -205.66272433 334.91588655 -209.296875 339.18359375 C-211.42704473 341.60976721 -213.7252964 343.84293924 -216.02880859 346.10302734 C-217.80525409 347.90960603 -219.46584827 349.77046062 -221.1171875 351.69140625 C-224.78512758 355.90948891 -228.58768115 359.98351146 -232.43359375 364.0390625 C-233.851833 365.54010905 -235.26979677 367.04141593 -236.6875 368.54296875 C-237.39148926 369.28820801 -238.09547852 370.03344727 -238.82080078 370.80126953 C-241.24618858 373.3745257 -243.66084562 375.957556 -246.07118225 378.54490662 C-248.37562034 381.01801787 -250.68254431 383.48880236 -252.98951721 385.95954895 C-254.19849476 387.25554943 -255.40645731 388.55249791 -256.61314392 389.85063171 C-266.95379468 400.97148975 -277.55038653 411.81297498 -288.30126953 422.53710938 C-290.89994689 425.13035534 -293.49313956 427.72900198 -296.0859375 430.328125 C-297.76400187 432.00552957 -299.44237588 433.68262444 -301.12109375 435.359375 C-301.88268799 436.12299347 -302.64428223 436.88661194 -303.42895508 437.67337036 C-308.08407969 442.30835434 -312.88313199 446.70336864 -317.87109375 450.9765625 C-318.96612977 451.93733833 -320.06009897 452.89933343 -321.15234375 453.86328125 C-339.48427943 469.88254667 -358.99930047 484.20279262 -381.87109375 492.9765625 C-382.75152344 493.33621094 -383.63195312 493.69585937 -384.5390625 494.06640625 C-396.9803223 498.35854199 -412.97162653 497.55155803 -425.1875 492.9765625 C-427.69804642 492.04104593 -429.98665141 491.53388124 -432.62109375 491.1015625 C-439.72830625 489.60187546 -446.14228655 484.80489685 -450.58203125 479.125 C-457.12845434 468.21429484 -456.61018011 456.42889621 -454.14453125 444.4453125 C-445.51135892 411.7143287 -425.57829088 381.98679917 -405.87109375 354.9765625 C-401.93435731 356.28880798 -399.64390081 357.89566577 -396.87109375 360.9765625 C-397.2271167 361.47244873 -397.58313965 361.96833496 -397.94995117 362.47924805 C-430.45484115 405.90574186 -430.45484115 405.90574186 -443.87109375 456.9765625 C-443.360625 456.01878906 -442.85015625 455.06101562 -442.32421875 454.07421875 C-429.51815139 430.45280447 -412.30877957 409.34206701 -395.26269531 388.66796875 C-393.26491256 386.23978649 -391.28927951 383.79369835 -389.30859375 381.3515625 C-384.4449406 375.41400053 -379.4385308 369.60174126 -374.42822266 363.78808594 C-372.87657439 361.98293854 -371.3317579 360.17217691 -369.7890625 358.359375 C-364.33750623 351.95885058 -358.81194019 345.65352528 -353.1328125 339.453125 C-347.15232514 332.9929617 -347.15232514 332.9929617 -341.87109375 325.9765625 C-338.91699674 327.34810754 -336.43100999 328.96519974 -333.87109375 330.9765625 C-335.36667291 335.999451 -338.37001212 338.94502665 -341.93359375 342.6015625 C-346.74641772 347.65244866 -351.26624101 352.81628857 -355.62890625 358.265625 C-358.11017187 361.26562211 -360.71997564 364.12786537 -363.37109375 366.9765625 C-367.62967529 371.55927839 -371.65088967 376.27600743 -375.57421875 381.15234375 C-377.59653222 383.63896389 -379.66300312 386.07964249 -381.75341797 388.5090332 C-388.21871069 396.03725605 -394.23077192 403.87433457 -400.20947266 411.79150391 C-401.84532492 413.94267608 -403.50072149 416.07706501 -405.1640625 418.20703125 C-426.90009257 443.75272295 -426.90009257 443.75272295 -437.87109375 473.9765625 C-428.08967396 472.47039697 -420.21869659 465.16673705 -412.87109375 458.9765625 C-412.03408936 458.27490967 -412.03408936 458.27490967 -411.18017578 457.55908203 C-402.07799838 449.92689484 -402.07799838 449.92689484 -393.55711365 441.66163635 C-391.83410101 439.93959052 -390.03996398 438.36274618 -388.18774414 436.78100586 C-383.8384933 432.9983279 -379.74839047 428.99839835 -375.6796875 424.91796875 C-374.93074722 424.1699852 -374.18180695 423.42200165 -373.41017151 422.65135193 C-371.8383815 421.08023786 -370.26783526 419.50787858 -368.69848633 417.93432617 C-366.31508071 415.54556404 -363.92638307 413.16218804 -361.53710938 410.77929688 C-360.00098138 409.242508 -358.46516366 407.7054089 -356.9296875 406.16796875 C-356.22533066 405.46563614 -355.52097382 404.76330353 -354.79527283 404.03968811 C-350.84200629 400.06794326 -347.0632097 396.00074743 -343.41810608 391.74375916 C-341.03362659 389.01989969 -338.46190397 386.50211951 -335.87109375 383.9765625 C-331.88271369 380.04265666 -328.07946317 376.03723845 -324.4453125 371.76953125 C-322.31476393 369.3429263 -320.01606428 367.10938348 -317.7121582 364.84887695 C-315.94240769 363.04908692 -314.28894492 361.19554648 -312.64453125 359.28125 C-308.87425901 354.94473909 -304.95265746 350.76772024 -300.99609375 346.6015625 C-295.92358269 341.23647356 -290.88987239 335.84796794 -285.9765625 330.3359375 C-283.43827713 327.49155093 -280.87491742 324.67063701 -278.30859375 321.8515625 C-277.46167969 320.92085938 -276.61476563 319.99015625 -275.7421875 319.03125 C-275.12472656 318.35320312 -274.50726563 317.67515625 -273.87109375 316.9765625 C-270.93662489 318.39447813 -268.43776966 319.95988857 -265.87109375 321.9765625 C-267.47420933 325.80422611 -269.92593907 328.40181033 -272.74609375 331.4140625 C-273.23078125 331.93484375 -273.71546875 332.455625 -274.21484375 332.9921875 C-275.24273077 334.09650714 -276.27239654 335.19917345 -277.30371094 336.30029297 C-279.84008901 339.01287426 -282.35417747 341.74593804 -284.87109375 344.4765625 C-285.88408688 345.57294226 -286.89710764 346.6692965 -287.91015625 347.765625 C-290.69814389 350.78579378 -293.47273895 353.81795153 -296.24609375 356.8515625 C-300.9956226 362.0434706 -305.79200616 367.19069601 -310.60009766 372.32836914 C-313.43896688 375.3635721 -316.27056613 378.40453483 -319.078125 381.46875 C-324.39870805 387.27563198 -329.77158262 392.97232568 -335.421875 398.46484375 C-337.35634574 400.44867897 -339.15347306 402.45106915 -340.95214844 404.55322266 C-345.11325777 409.32293064 -349.54356797 413.79299338 -354.0234375 418.26171875 C-354.88240128 419.12163925 -355.74136505 419.98155975 -356.62635803 420.86753845 C-358.4328639 422.67472111 -360.24061837 424.48065642 -362.04956055 426.28540039 C-364.80046185 429.03094643 -367.54598596 431.78178796 -370.29101562 434.53320312 C-372.05566907 436.2971957 -373.82063272 438.060878 -375.5859375 439.82421875 C-376.39763901 440.63794449 -377.20934052 441.45167023 -378.04563904 442.29005432 C-382.29588609 446.52307283 -386.61788481 450.60717332 -391.170578 454.51416016 C-393.58324414 456.58899458 -395.90984758 458.75393334 -398.24609375 460.9140625 C-403.27568251 465.50751909 -408.49257116 469.79974886 -413.87109375 473.9765625 C-383.41732379 466.87233884 -360.8154378 447.38168603 -338.54833984 426.54052734 C-336.83664096 424.94443665 -335.11479616 423.35994635 -333.390625 421.77734375 C-326.06778258 415.03394984 -318.9215551 408.12948313 -311.87109375 401.1015625 C-310.68749268 399.92484985 -310.68749268 399.92484985 -309.47998047 398.72436523 C-305.29086682 394.52411744 -301.27912758 390.25359315 -297.4765625 385.69873047 C-295.2509772 383.31137057 -292.95458121 381.44658863 -289.953125 380.14453125 C-286.90297993 378.43347426 -284.83847846 375.88581791 -282.55859375 373.2890625 C-281.57938075 372.19548886 -280.59891559 371.1030351 -279.6171875 370.01171875 C-279.14522949 369.48594238 -278.67327148 368.96016602 -278.18701172 368.41845703 C-276.55384935 366.62894739 -274.85356381 364.91974753 -273.12109375 363.2265625 C-270.77044812 360.92058472 -268.5818613 358.53491491 -266.43359375 356.0390625 C-263.46503819 352.59235034 -260.33030271 349.38545391 -257.05859375 346.2265625 C-255.16206461 344.27584681 -253.37638333 342.28407238 -251.59375 340.23046875 C-247.93741501 336.02164686 -244.14459142 331.9588899 -240.30859375 327.9140625 C-238.90072384 326.42477955 -237.49317824 324.93518997 -236.0859375 323.4453125 C-235.3832373 322.70152344 -234.68053711 321.95773437 -233.95654297 321.19140625 C-230.74512565 317.78073218 -227.55945248 314.34627276 -224.37109375 310.9140625 C-220.23748014 306.46787093 -216.04964131 302.1053089 -211.71508789 297.85327148 C-209.99884111 296.10657626 -208.41381615 294.30949272 -206.83203125 292.44140625 C-202.1276365 287.02938666 -197.02426289 282.02140091 -191.93359375 276.9765625 C-190.95354065 276.00153864 -189.97372135 275.0262797 -188.99414062 274.05078125 C-186.62207062 271.69039632 -184.24768515 269.33239345 -181.87109375 266.9765625 C-182.18046875 266.3578125 -182.48984375 265.7390625 -182.80859375 265.1015625 C-183.49609375 263.7265625 -184.18359375 262.3515625 -184.87109375 260.9765625 C-179.85030372 255.06864039 -174.57234517 249.41084635 -169.2734375 243.75415039 C-164.67232555 238.84115017 -160.11300889 233.89290474 -155.5703125 228.92578125 C-148.36012207 221.04778736 -141.10161698 213.21539336 -133.80859375 205.4140625 C-128.69147102 199.9395091 -123.60426562 194.43959046 -118.55078125 188.90625 C-116.6449445 186.82260924 -114.73414626 184.74448613 -112.81640625 182.671875 C-112.31326904 182.12684326 -111.81013184 181.58181152 -111.29174805 181.02026367 C-110.32866578 179.97728124 -109.36406994 178.93569366 -108.39770508 177.89575195 C-106.3394752 175.66284259 -104.56147456 173.51213371 -102.87109375 170.9765625 C-102.27296875 171.3065625 -101.67484375 171.6365625 -101.05859375 171.9765625 C-98.81722904 173.18444238 -98.81722904 173.18444238 -95.87109375 172.9765625 C-94.39570686 171.72037831 -94.39570686 171.72037831 -93.04296875 169.9609375 C-92.22578369 168.96513672 -92.22578369 168.96513672 -91.39208984 167.94921875 C-90.80766113 167.21574219 -90.22323242 166.48226562 -89.62109375 165.7265625 C-89.0070166 164.96730469 -88.39293945 164.20804688 -87.76025391 163.42578125 C-67.8636716 138.63692712 -49.60299605 112.60479229 -33.87109375 84.9765625 C-33.51950195 84.3666748 -33.16791016 83.75678711 -32.80566406 83.12841797 C-26.36485753 71.88936465 -21.59764003 60.01902346 -16.87109375 47.9765625 C-17.20109375 47.6465625 -17.53109375 47.3165625 -17.87109375 46.9765625 C-18.36996094 47.6571875 -18.86882812 48.3378125 -19.3828125 49.0390625 C-28.13582814 60.85641934 -37.45773337 72.20554488 -46.9921875 83.39868164 C-49.78733858 86.68227111 -52.53194309 90.00082014 -55.24609375 93.3515625 C-63.43265066 103.39803484 -72.0150815 113.1033488 -80.76953125 122.65625 C-83.2235832 125.3657423 -85.56913538 128.13748051 -87.87109375 130.9765625 C-90.18109375 128.9965625 -92.49109375 127.0165625 -94.87109375 124.9765625 C-92.81809459 120.87056418 -90.29814803 117.7705095 -87.30859375 114.3515625 C-86.77065186 113.72983154 -86.23270996 113.10810059 -85.6784668 112.4675293 C-82.55540367 108.86934855 -79.3874858 105.31560799 -76.18359375 101.7890625 C-72.4062293 97.62583824 -68.84682107 93.31948359 -65.3125 88.94921875 C-62.59389534 85.63904571 -59.8001752 82.40167707 -56.99609375 79.1640625 C-52.03420926 73.41669684 -47.29943684 67.52469087 -42.64453125 61.52734375 C-40.7800519 59.12760401 -38.88957687 56.7525869 -36.97265625 54.39453125 C-31.38542652 47.51744542 -25.99954732 40.53410561 -20.80859375 33.3515625 C-19.98609131 32.21412598 -19.98609131 32.21412598 -19.14697266 31.05371094 C-13.62194676 23.65173177 -13.62194676 23.65173177 -10.87109375 14.9765625 C-17.64549864 19.12522906 -23.59186179 23.9999513 -29.58984375 29.16796875 C-32.59057225 31.7530081 -35.65859502 34.24553673 -38.74609375 36.7265625 C-42.41412547 39.70982419 -45.81666895 42.78943908 -49.09130859 46.19604492 C-50.85693122 47.96239414 -52.68490463 49.5944819 -54.578125 51.22265625 C-58.76483872 54.86135571 -62.83092056 58.61399663 -66.87109375 62.4140625 C-67.91873901 63.39475708 -67.91873901 63.39475708 -68.98754883 64.39526367 C-73.18177752 68.33577165 -77.28593744 72.33199016 -81.1953125 76.55859375 C-83.25775065 78.30373372 -85.33546842 79.09103747 -87.87109375 79.9765625 C-89.85109375 77.6665625 -91.83109375 75.3565625 -93.87109375 72.9765625 C-93.10925781 72.28691406 -92.34742188 71.59726563 -91.5625 70.88671875 C-86.65225307 66.42372918 -81.78186421 61.95263272 -77.12109375 57.2265625 C-73.95983896 54.02593265 -70.7044256 51.03781372 -67.2890625 48.11328125 C-63.97444914 45.18421258 -60.77589424 42.13669876 -57.55859375 39.1015625 C-52.31039804 34.16433732 -46.97578808 29.47655416 -41.33984375 24.984375 C-38.97294768 23.0593994 -36.73635563 21.04636967 -34.49609375 18.9765625 C-29.04563094 14.0522828 -22.96736215 10.04702301 -16.87109375 5.9765625 C-18.05774996 4.57570221 -18.05774996 4.57570221 -21.43359375 4.6640625 C-47.09630179 5.11001793 -71.38532218 22.55532215 -90.52929688 37.96362305 C-91.51833008 38.75119995 -91.51833008 38.75119995 -92.52734375 39.5546875 C-93.10291016 40.02293945 -93.67847656 40.49119141 -94.27148438 40.97363281 C-95.87109375 41.9765625 -95.87109375 41.9765625 -98.87109375 41.9765625 C-101.12109375 39.7265625 -101.12109375 39.7265625 -102.87109375 36.9765625 C-102.63052631 34.5490183 -102.22572673 33.34510771 -100.52685547 31.57958984 C-99.95725098 31.1614502 -99.38764648 30.74331055 -98.80078125 30.3125 C-98.15955322 29.83530518 -97.5183252 29.35811035 -96.85766602 28.86645508 C-96.16084717 28.36654053 -95.46402832 27.86662598 -94.74609375 27.3515625 C-94.02542725 26.82522217 -93.30476074 26.29888184 -92.56225586 25.7565918 C-90.34277065 24.14733769 -88.11006402 22.55856847 -85.87109375 20.9765625 C-84.90502197 20.28989502 -84.90502197 20.28989502 -83.91943359 19.58935547 C-62.25951154 4.31244715 -25.68958031 -18.10503755 0 0 Z " fill="#2B6E38" transform="translate(465.87109375,11.0234375)"/>
<path d="M0 0 C1.71388916 0.01353516 1.71388916 0.01353516 3.46240234 0.02734375 C12.00549211 0.20256166 19.20612575 1.02998441 27.125 4.4375 C27.7658252 4.71126465 28.40665039 4.9850293 29.06689453 5.26708984 C41.03469391 10.49574006 52.10860225 17.06609674 59.125 28.4375 C58.23039063 28.74042969 57.33578125 29.04335938 56.4140625 29.35546875 C45.63802763 33.08916953 36.06015707 37.17456506 27.125 44.4375 C27.50011719 44.91058594 27.87523437 45.38367188 28.26171875 45.87109375 C35.10789968 54.71767012 40.76493003 63.56608814 40.50390625 75.0859375 C40.125 77.4375 40.125 77.4375 38 80.625 C35.125 82.4375 35.125 82.4375 32.4921875 82.36328125 C27.95712111 81.11640105 24.35613097 78.8958313 20.375 76.4375 C18.85953006 75.52057701 17.34391213 74.60389855 15.828125 73.6875 C15.16458008 73.28015625 14.50103516 72.8728125 13.81738281 72.453125 C12.09967547 71.39284561 12.09967547 71.39284561 10.125 70.4375 C9.5 68.375 9.5 68.375 9.125 66.4375 C8.10944342 68.78597458 7.11267255 71.13981851 6.125 73.5 C5.83882813 74.15677734 5.55265625 74.81355469 5.2578125 75.49023438 C3.37580431 80.03842083 2.81796799 83.51859142 3.125 88.4375 C3.6597998 88.72471924 4.19459961 89.01193848 4.74560547 89.30786133 C7.16792352 90.61431259 9.58395337 91.93198974 12 93.25 C12.84175781 93.70181641 13.68351562 94.15363281 14.55078125 94.61914062 C15.35644531 95.06064453 16.16210938 95.50214844 16.9921875 95.95703125 C17.73581543 96.36026611 18.47944336 96.76350098 19.24560547 97.17895508 C21.125 98.4375 21.125 98.4375 23.125 101.4375 C23.5625 104.375 23.5625 104.375 23.125 107.4375 C17.68597083 113.38643815 9.80746392 114.75156572 2.125 115.4375 C4.59182297 126.87458831 8.80526248 136.64585589 15.55078125 146.171875 C17.125 148.4375 17.125 148.4375 17.125 149.4375 C-2.84627119 153.89325071 -23.54571879 149.85356264 -41.01318359 139.63964844 C-46.25592052 136.25448759 -50.56086154 131.90663744 -54.875 127.4375 C-55.61234375 126.73109375 -56.3496875 126.0246875 -57.109375 125.296875 C-63.55233415 118.75402501 -67.29870986 110.78561838 -70.875 102.4375 C-71.33390625 101.37144531 -71.7928125 100.30539062 -72.265625 99.20703125 C-77.66421016 83.90470359 -77.28772393 63.34030914 -70.875 48.4375 C-70.60123535 47.7966748 -70.3274707 47.15584961 -70.04541016 46.49560547 C-61.52903877 27.00257764 -48.08353073 13.68396715 -28.8359375 4.875 C-19.35077083 1.20198309 -10.12976547 -0.0963163 0 0 Z " fill="#B3D34B" transform="translate(316.875,321.5625)"/>
<path d="M0 0 C4.18460483 5.34488162 9.38258245 12.60710963 10.33984375 19.41796875 C9.86906347 22.99481664 8.44002643 23.75044101 5.625 25.9375 C-9.15470061 38.53693272 -16.71647132 55.93661327 -19 75 C-19.14000301 77.74352044 -19.23714569 80.44451556 -19.25 83.1875 C-19.25394775 83.92782471 -19.25789551 84.66814941 -19.26196289 85.4309082 C-19.2030644 91.04326675 -18.30319607 96.02885117 -16.55859375 101.38671875 C-15.83082473 104.79145634 -15.79694641 106.70257938 -17 110 C-19.35201749 111.87999696 -21.94557128 113.03568259 -24.6875 114.25 C-25.75000977 114.75660156 -25.75000977 114.75660156 -26.83398438 115.2734375 C-39.12203194 121.03736009 -39.12203194 121.03736009 -44 120 C-45.81149596 117.93104828 -47.11192571 116.14351487 -48.5 113.8125 C-49.08092407 112.86987305 -49.08092407 112.86987305 -49.67358398 111.90820312 C-54.28619982 104.19122055 -58.42259066 96.16067505 -58 87 C-57.05898438 86.75765625 -56.11796875 86.5153125 -55.1484375 86.265625 C-53.28058594 85.76289063 -53.28058594 85.76289063 -51.375 85.25 C-49.53035156 84.76273438 -49.53035156 84.76273438 -47.6484375 84.265625 C-43.88172506 82.95897101 -41.11420579 81.4809682 -38 79 C-37.24984805 75.95691709 -37.24984805 75.95691709 -38 73 C-40.02775829 70.56252739 -42.21307939 69.20686762 -45.01171875 67.765625 C-45.76904297 67.35570312 -46.52636719 66.94578125 -47.30664062 66.5234375 C-48.89658509 65.67303242 -50.4957574 64.83966399 -52.10351562 64.0234375 C-54.29024308 62.81877327 -56.16458233 61.69350096 -58 60 C-59.13493995 54.57891811 -57.23633409 50.12212969 -55.125 45.1875 C-54.72087891 44.18686523 -54.72087891 44.18686523 -54.30859375 43.16601562 C-53.13447743 40.32809056 -52.19149673 38.19149673 -50 36 C-50 37.98 -50 39.96 -50 42 C-49.1646875 42.23332031 -48.329375 42.46664062 -47.46875 42.70703125 C-42.72183582 44.47643282 -38.75713984 47.17134041 -34.56640625 49.98632812 C-31.30036304 52.06016538 -29.61737885 53.00793361 -25.65625 52.95703125 C-22.69567323 52.18784251 -22.69567323 52.18784251 -21 49 C-19.36705382 38.65167827 -23.78763384 30.27082881 -29.53515625 22.0078125 C-31.00604627 19.99171258 -32.49549618 17.99112375 -34 16 C-24.85467168 8.19413896 -12.49756952 0 0 0 Z " fill="#9ABD2D" transform="translate(377,350)"/>
<path d="M0 0 C3.0625 1.9375 3.0625 1.9375 5 5 C7.11385877 16.91447668 -0.46786614 29.0321693 -6.97192383 38.57128906 C-11.45705716 44.88622378 -16.59224035 50.47295154 -22 56 C-22.7734375 56.82371094 -23.546875 57.64742187 -24.34375 58.49609375 C-33.27631446 67.82181686 -45.54502802 77.6917397 -59 78.375 C-62.19319358 78.30946804 -62.8501205 78.11615661 -65.5 76.0625 C-68.15705105 70.63768744 -67.61538973 65.45482509 -65.9375 59.75 C-56.71546618 35.08642119 -36.17382272 12.34369275 -12.203125 1.19140625 C-7.96785947 -0.38390593 -4.40845051 -1.29825132 0 0 Z " fill="#46B75B" transform="translate(314,96)"/>
<path d="M0 0 C1.7143618 1.95927063 3.38405168 3.95880212 5 6 C3.65518859 8.9954078 2.16902939 11.07769082 -0.15458679 13.3883667 C-1.12799263 14.36372879 -1.12799263 14.36372879 -2.12106323 15.35879517 C-2.83223297 16.06120331 -3.54340271 16.76361145 -4.27612305 17.48730469 C-5.02594955 18.23581696 -5.77577606 18.98432922 -6.54832458 19.75552368 C-9.03156277 22.23226457 -11.52169749 24.70195529 -14.01171875 27.171875 C-15.74137844 28.89526232 -17.47052267 30.61916711 -19.19917297 32.34356689 C-23.75761281 36.88869133 -28.32157507 41.42822652 -32.887146 45.96618652 C-40.1781261 53.21410183 -47.46251781 60.46862211 -54.74353981 67.72653961 C-57.28192406 70.25474983 -59.82372394 72.7794878 -62.3658905 75.30389404 C-63.93634701 76.867516 -65.50669079 78.4312512 -67.0769043 79.99511719 C-68.12847717 81.03658401 -68.12847717 81.03658401 -69.20129395 82.09909058 C-73.08726229 85.97617587 -76.76289788 89.96703573 -80.3487978 94.12239456 C-82.79027884 96.89863727 -85.3811463 99.50561167 -88.0078125 102.10546875 C-88.56329773 102.65949371 -89.11878296 103.21351868 -89.69110107 103.78433228 C-90.8821148 104.9715784 -92.07428074 106.15766962 -93.26751709 107.34268188 C-95.16271893 109.22496176 -97.05464053 111.11048618 -98.94580078 112.99682617 C-103.64053678 117.67828905 -108.34073484 122.35425545 -113.04077148 127.03039551 C-117.0234563 130.99325528 -121.0040216 134.95822178 -124.98187256 138.92593384 C-126.83367034 140.77131359 -128.68848449 142.61362294 -130.54345703 144.45581055 C-135.72807906 149.61812765 -140.86475783 154.7614016 -145.58570862 160.35961914 C-148.2050576 163.39769883 -151.081419 166.18654707 -153.9375 169 C-154.52595703 169.58394531 -155.11441406 170.16789063 -155.72070312 170.76953125 C-157.14479793 172.18204805 -158.5720525 173.5913781 -160 175 C-162.31 173.02 -164.62 171.04 -167 169 C-165.39273353 165.78546706 -164.62096151 164.37778545 -162.20703125 162.046875 C-161.65853516 161.50933594 -161.11003906 160.97179687 -160.54492188 160.41796875 C-159.97322266 159.86753906 -159.40152344 159.31710937 -158.8125 158.75 C-155.36810206 155.41411869 -152.01899331 152.07161919 -148.9128418 148.41503906 C-144.48855321 143.33193317 -139.7224945 138.61608765 -134.9375 133.875 C-133.97748625 132.9194063 -133.01777547 131.96350816 -132.05834961 131.00732422 C-128.53229527 127.49449408 -125.0007571 123.98719427 -121.46936035 120.47973633 C-118.47308792 117.50334483 -115.47897769 114.52480843 -112.48757935 111.54351807 C-111.1011466 110.16346867 -109.71162702 108.78652256 -108.32202148 107.40966797 C-107.46423096 106.55518066 -106.60644043 105.70069336 -105.72265625 104.8203125 C-104.97765869 104.08055176 -104.23266113 103.34079102 -103.46508789 102.57861328 C-101.49879058 100.52176152 -99.63553464 98.43767317 -97.78034973 96.2833252 C-93.65197863 91.53344619 -89.24144681 87.0937593 -84.79174805 82.64648438 C-83.89660995 81.74798767 -83.00147186 80.84949097 -82.07920837 79.92376709 C-79.64808621 77.48389429 -77.21380919 75.04719394 -74.77862906 72.61137199 C-73.25618997 71.08821862 -71.73446651 69.56435401 -70.21299171 68.04023743 C-64.90289155 62.72092176 -59.59025143 57.4041585 -54.27514648 52.08984375 C-49.32112815 47.13642897 -44.37274639 42.17743158 -39.42690247 37.21585608 C-35.17299641 32.94890192 -30.91527191 28.68578394 -26.65451652 24.42566919 C-24.11252004 21.88392801 -21.57211025 19.34064844 -19.03552818 16.79350281 C-16.2163305 13.96288114 -13.38922212 11.14024561 -10.5612793 8.31835938 C-9.71919922 7.47065979 -8.87711914 6.62296021 -8.00952148 5.74957275 C-7.2427861 4.98703186 -6.47605072 4.22449097 -5.68608093 3.43884277 C-5.01857661 2.77079369 -4.35107229 2.1027446 -3.66334057 1.4144516 C-2 0 -2 0 0 0 Z " fill="#2B6E38" transform="translate(341,116)"/>
<path d="M0 0 C3.7952131 1.49097658 5.61042731 3.75700849 8 7 C7.12786865 7.86689453 6.2557373 8.73378906 5.35717773 9.62695312 C2.09122598 12.87466792 -1.17130299 16.12580327 -4.43286133 19.37792969 C-5.83917075 20.77924133 -7.24638022 22.17965036 -8.65454102 23.57910156 C-10.69009656 25.60239038 -12.72228531 27.62901128 -14.75390625 29.65625 C-15.37399063 30.2711731 -15.99407501 30.88609619 -16.63294983 31.51965332 C-20.4099141 35.2961422 -23.98760694 39.19318591 -27.46714783 43.24572754 C-29.53551386 45.61286877 -31.74848291 47.80773336 -34 50 C-37.45931825 53.42306791 -40.72917746 56.90958603 -43.890625 60.60546875 C-46.85545903 63.97110442 -49.93084922 67.22961961 -53 70.5 C-61.02489053 79.06831325 -68.60540967 87.87832848 -76 97 C-79.7694667 96.21436378 -81.60240794 95.10798971 -84 92 C-83.62788074 88.80925817 -82.49792783 87.10920921 -80.3046875 84.828125 C-79.7573999 84.25054443 -79.2101123 83.67296387 -78.64624023 83.07788086 C-78.06173096 82.47468018 -77.47722168 81.87147949 -76.875 81.25 C-75.67496308 79.98645363 -74.47573624 78.72213736 -73.27734375 77.45703125 C-72.41665283 76.55331787 -72.41665283 76.55331787 -71.53857422 75.63134766 C-69.78769488 73.77489323 -68.09987029 71.87347737 -66.4375 69.9375 C-62.43567016 65.30328223 -58.2550331 60.83407974 -54.09375 56.34375 C-51.29753628 53.326054 -48.52239141 50.28960986 -45.75 47.25 C-43.8370293 45.16324851 -41.91940802 43.08083079 -40 41 C-39.4548877 40.40832031 -38.90977539 39.81664062 -38.34814453 39.20703125 C-25.93344572 25.77076029 -12.98573369 12.88001316 0 0 Z " fill="#2B6E38" transform="translate(204,202)"/>
<path d="M0 0 C8.52090223 4.63879233 14.24352662 12.24091545 18 21 C18.4125 21.94875 18.825 22.8975 19.25 23.875 C20.31477698 28.31157076 20.72929991 32.47382942 20 37 C17.875 40.1875 17.875 40.1875 15 42 C9.22575319 41.8372245 5.01938961 38.94507763 0.25 36 C-1.26546994 35.08307701 -2.78108787 34.16639855 -4.296875 33.25 C-4.96041992 32.84265625 -5.62396484 32.4353125 -6.30761719 32.015625 C-8.02532453 30.95534561 -8.02532453 30.95534561 -10 30 C-10.08690253 25.56262288 -10.14035926 21.12546366 -10.1875 16.6875 C-10.21263672 15.42486328 -10.23777344 14.16222656 -10.26367188 12.86132812 C-10.27333984 11.65283203 -10.28300781 10.44433594 -10.29296875 9.19921875 C-10.31653442 7.52605591 -10.31653442 7.52605591 -10.34057617 5.8190918 C-10 3 -10 3 -8.6809082 1.14770508 C-5.68157789 -0.90020368 -3.52682294 -0.52035093 0 0 Z " fill="#C2DB73" transform="translate(337,362)"/>
<path d="M0 0 C1.875 1.0625 1.875 1.0625 3 3 C4.12493329 13.49937733 0.36683754 23.72037865 -6 32 C-14.60869565 40.7826087 -14.60869565 40.7826087 -20.4375 41.3125 C-24 41 -24 41 -25.7043457 39.36035156 C-27.35121628 36.36017354 -27.34315534 34.33456317 -27.29296875 30.921875 C-27.2784668 29.18164062 -27.2784668 29.18164062 -27.26367188 27.40625 C-27.23853516 26.1996875 -27.21339844 24.993125 -27.1875 23.75 C-27.17396484 22.52796875 -27.16042969 21.3059375 -27.14648438 20.046875 C-27.1111398 17.03080502 -27.0617956 14.01562513 -27 11 C-23.64094855 8.95172149 -20.26059884 6.94154164 -16.875 4.9375 C-15.92367188 4.35677734 -14.97234375 3.77605469 -13.9921875 3.17773438 C-13.0640625 2.63310547 -12.1359375 2.08847656 -11.1796875 1.52734375 C-10.33132324 1.01937256 -9.48295898 0.51140137 -8.60888672 -0.01196289 C-5.32863122 -1.25426066 -3.35726936 -0.87056618 0 0 Z " fill="#C2DB73" transform="translate(469,426)"/>
<path d="M0 0 C1.7043457 1.12817383 1.7043457 1.12817383 3 3 C3.34057617 5.8190918 3.34057617 5.8190918 3.29296875 9.19921875 C3.28330078 10.40771484 3.27363281 11.61621094 3.26367188 12.86132812 C3.23853516 14.12396484 3.21339844 15.38660156 3.1875 16.6875 C3.16719727 18.59885742 3.16719727 18.59885742 3.14648438 20.54882812 C3.11108199 23.69964057 3.0616979 26.84961045 3 30 C-0.17373115 31.85796915 -3.36591501 33.68167702 -6.5625 35.5 C-7.45775391 36.02464844 -8.35300781 36.54929687 -9.27539062 37.08984375 C-18.21366485 42.13194716 -18.21366485 42.13194716 -24 41 C-26.20954781 39.01637732 -26.86096057 37.70271282 -27.43359375 34.80859375 C-27.45183739 23.73470645 -23.50517989 15.05243259 -16 7 C-10.69631434 1.92086555 -7.6458209 -0.53654884 0 0 Z " fill="#C2DB73" transform="translate(304,362)"/>
<path d="M0 0 C1.80696329 1.17602836 3.49132455 2.4171058 5.01953125 3.9453125 C5.60482236 9.21293252 5.60482236 9.21293252 3.52734375 11.8125 C0.10975629 14.71904635 -3.56643014 16.97188651 -7.41796875 19.2578125 C-8.54428711 19.95874023 -8.54428711 19.95874023 -9.69335938 20.67382812 C-10.42619141 21.11017578 -11.15902344 21.54652344 -11.9140625 21.99609375 C-12.90490845 22.59417847 -12.90490845 22.59417847 -13.91577148 23.2043457 C-16.67615741 24.19497728 -18.19470778 23.79615191 -20.98046875 22.9453125 C-23.27636719 21.85375977 -23.27636719 21.85375977 -25.58984375 20.51171875 C-26.42644531 20.02767578 -27.26304687 19.54363281 -28.125 19.04492188 C-28.98480469 18.53767578 -29.84460938 18.03042969 -30.73046875 17.5078125 C-31.60574219 17.00443359 -32.48101562 16.50105469 -33.3828125 15.98242188 C-39.84919566 12.20785868 -39.84919566 12.20785868 -40.98046875 9.9453125 C-41.29296875 7.0703125 -41.29296875 7.0703125 -40.98046875 3.9453125 C-31.57664106 -7.3478687 -12.02098634 -6.4017087 0 0 Z " fill="#C2DB73" transform="translate(449.98046875,396.0546875)"/>
<path d="M0 0 C6.24078701 2.18330185 12.48513844 5.03210986 16.56640625 10.38378906 C19.01075106 18.43705556 18.52880175 28.23499773 16.56640625 36.38378906 C15.20556641 38.70043945 15.20556641 38.70043945 13.56640625 40.38378906 C10.05501857 41.07229645 7.72486888 41.01669432 4.54296875 39.27832031 C-4.81393442 32.59225732 -10.93891212 23.9687078 -13.1171875 12.62597656 C-14.31402853 4.14465863 -14.31402853 4.14465863 -12.43359375 0.38378906 C-8.48174085 -1.59213739 -4.16083031 -1.05356498 0 0 Z " fill="#C2DB73" transform="translate(405.43359375,426.6162109375)"/>
<path d="M0 0 C2.33744337 1.28971473 4.67339351 2.58060483 6.99926758 3.89111328 C7.8184668 4.33841797 8.63766602 4.78572266 9.48168945 5.24658203 C10.26479492 5.68357422 11.04790039 6.12056641 11.85473633 6.57080078 C12.56654053 6.9676709 13.27834473 7.36454102 14.01171875 7.7734375 C15.81176758 9.01611328 15.81176758 9.01611328 17.81176758 12.01611328 C18.24926758 14.95361328 18.24926758 14.95361328 17.81176758 18.01611328 C12.93020337 23.35532413 4.83846552 25.65288022 -2.21948242 26.28955078 C-11.24547396 26.55382531 -19.77823422 25.46589535 -26.99291992 19.53173828 C-28.18823242 18.01611328 -28.18823242 18.01611328 -28.62573242 15.07861328 C-28.06845905 11.17769965 -27.16703253 10.56671087 -24.18823242 8.01611328 C-21.44557917 6.12210814 -18.61626504 4.40433503 -15.75073242 2.70361328 C-14.99985352 2.23632812 -14.24897461 1.76904297 -13.4753418 1.28759766 C-12.74250977 0.85125 -12.00967773 0.41490234 -11.25463867 -0.03466797 C-10.59407471 -0.43339111 -9.93351074 -0.83211426 -9.25292969 -1.24291992 C-5.81589019 -2.47638508 -3.23255059 -1.45343957 0 0 Z " fill="#C2DB73" transform="translate(322.188232421875,410.98388671875)"/>
</svg>
