<?xml version="1.0" encoding="UTF-8"?>
<svg version="1.1" xmlns="http://www.w3.org/2000/svg" width="512" height="512">
<path d="M0 0 C1.76737448 -0.00461663 3.53474511 -0.01097465 5.30210781 -0.01890898 C10.1276178 -0.03552069 14.95280909 -0.02739324 19.77831984 -0.0149641 C24.99449734 -0.00588238 30.21062155 -0.01989879 35.42678833 -0.03088379 C45.63298546 -0.04864032 55.8390647 -0.04484179 66.04526639 -0.03323323 C74.34243309 -0.0241879 82.63956684 -0.02297966 90.93673706 -0.02732849 C92.1190769 -0.02794142 93.30141675 -0.02855436 94.51958507 -0.02918586 C96.92172663 -0.0304648 99.32386819 -0.03176166 101.72600973 -0.03307623 C124.2339286 -0.04447363 146.74178224 -0.03138148 169.24969041 -0.00987476 C188.5490613 0.00799544 207.84833593 0.00489109 227.14770508 -0.0135498 C249.57685079 -0.03497133 272.00593937 -0.04337507 294.43509388 -0.03110075 C296.82824007 -0.0298266 299.22138626 -0.02856911 301.61453247 -0.02732849 C303.38059512 -0.02640284 303.38059512 -0.02640284 305.18233579 -0.02545848 C313.46645033 -0.02200944 321.75052854 -0.02782433 330.03463745 -0.0372467 C340.13462415 -0.04848229 350.23448655 -0.04539379 360.33445907 -0.02412373 C365.48445712 -0.01363438 370.63424816 -0.00945542 375.78424454 -0.02272034 C380.50436263 -0.03469385 385.22408302 -0.02800029 389.94416535 -0.00681013 C391.64587709 -0.00236501 393.34762286 -0.00456294 395.04931247 -0.01431328 C411.57574978 -0.1016963 425.5109798 3.16102097 438.02563477 14.75793457 C449.04248065 26.64661718 452.90297932 40.12331694 452.78356934 56.05627441 C452.7898093 57.35677923 452.79604926 58.65728405 452.80247831 59.9971981 C452.81902094 63.56857315 452.81099505 67.13951513 452.79853344 70.71089077 C452.78942274 74.57736941 452.80348228 78.44377744 452.81445312 82.3102417 C452.83217917 89.8694707 452.82842488 97.42854025 452.81680256 104.98777533 C452.80774512 111.13486883 452.8065542 117.28191785 452.81089783 123.42901611 C452.81151076 124.30606622 452.81212369 125.18311633 452.8127552 126.08674371 C452.81403418 127.86881528 452.81533104 129.65088683 452.81664556 131.43295836 C452.82803403 148.11802254 452.81496492 164.8029986 452.7934441 181.48804832 C452.77557469 195.78443471 452.77867929 210.08069115 452.79711914 224.3770752 C452.81855654 241.00507812 452.82693556 257.63300394 452.81467009 274.26101875 C452.81339598 276.03629683 452.81213849 277.81157492 452.81089783 279.58685303 C452.81028073 280.46017599 452.80966362 281.33349896 452.80902782 282.23328626 C452.80558352 288.36837269 452.81138336 294.50340996 452.82081604 300.63848877 C452.83206935 308.12174871 452.82892628 315.60484095 452.80769306 323.08808184 C452.79722723 326.90142825 452.79298377 330.71449572 452.80628967 334.52783966 C452.8205305 338.67199767 452.80345334 342.81545992 452.78356934 346.95959473 C452.79249222 348.15018179 452.80141511 349.34076885 452.81060839 350.56743431 C452.67605581 365.08672242 447.91620215 377.70067983 437.90063477 388.32043457 C430.8879333 394.83445505 423.39534649 398.70739317 414.27563477 401.50793457 C413.71191276 401.68593432 413.14819076 401.86393407 412.56738627 402.04732776 C409.39734821 402.68445666 406.36083098 402.63624548 403.12714195 402.63936234 C402.04077693 402.64244129 402.04077693 402.64244129 400.93246514 402.64558244 C398.49275074 402.65126072 396.05309266 402.64979416 393.6133728 402.64837646 C391.85163229 402.65095963 390.08989236 402.65397266 388.32815325 402.65737987 C383.47662027 402.66545892 378.62510206 402.66723994 373.77356315 402.66797733 C368.54503211 402.66982633 363.31650877 402.67737293 358.08798218 402.68411255 C346.6498969 402.69770319 335.21181513 402.70372183 323.77372313 402.70812321 C316.63301869 402.7108846 309.49231561 402.71512178 302.35161209 402.71962738 C282.58521548 402.73182138 262.81881996 402.74212019 243.05241966 402.74550247 C241.1541974 402.74583182 241.1541974 402.74583182 239.2176272 402.74616782 C237.94909646 402.7463861 236.68056571 402.74660438 235.37359464 402.74682927 C232.80301817 402.74727274 230.2324417 402.7477193 227.66186523 402.74816895 C226.38676722 402.74839038 225.11166921 402.7486118 223.79793186 402.74883994 C203.13790696 402.75278774 182.47791734 402.77024062 161.81790607 402.79352847 C140.61191703 402.81723898 119.40594569 402.8297042 98.19994318 402.83087039 C86.29145234 402.83178736 74.38300746 402.83754516 62.47452927 402.85569 C52.33364432 402.87108696 42.19281952 402.87621385 32.05192511 402.8679519 C26.87808234 402.86404388 21.70436072 402.86498247 16.53053284 402.87900925 C11.79178202 402.89173894 7.0532435 402.89055875 2.31449302 402.87841853 C0.6024655 402.87645992 -1.10957701 402.87954755 -2.82158346 402.8882629 C-11.52133258 402.9297379 -19.52273869 402.81504997 -27.72436523 399.50793457 C-28.64088867 399.16633301 -29.55741211 398.82473145 -30.50170898 398.47277832 C-43.82477669 392.13649115 -52.71605048 381.41548153 -57.96264648 367.86730957 C-59.36218941 363.53231508 -59.84987991 359.50209619 -59.855793 354.9543047 C-59.85963414 353.84279665 -59.86347529 352.7312886 -59.86743283 351.58609849 C-59.86656635 350.37016234 -59.86569987 349.15422619 -59.86480713 347.90144348 C-59.86777825 346.60565736 -59.87074937 345.30987125 -59.87381053 343.97481889 C-59.88186921 340.37971732 -59.88366947 336.78463573 -59.884408 333.1895262 C-59.88626053 329.31139888 -59.89380888 325.43328187 -59.90054321 321.55516052 C-59.9141191 313.07571818 -59.92015012 304.59628056 -59.92455387 296.11682916 C-59.9273176 290.82090355 -59.93155519 285.52497977 -59.93605804 280.2290554 C-59.94824982 265.56245316 -59.95854926 250.89585238 -59.96193314 236.22924519 C-59.9621527 235.29073603 -59.96237227 234.35222688 -59.96259849 233.38527806 C-59.96281677 232.44453969 -59.96303504 231.50380132 -59.96325994 230.53455573 C-59.9637034 228.62830245 -59.96414996 226.72204918 -59.96459961 224.8157959 C-59.96482104 223.87023101 -59.96504247 222.92466613 -59.96527061 221.95044776 C-59.96921791 206.6318316 -59.98667027 191.31326303 -60.00995913 175.99466524 C-60.03368354 160.26242413 -60.04613549 144.53020688 -60.04730105 128.79794759 C-60.04821721 119.96684279 -60.05395456 111.1358 -60.07212067 102.3047123 C-60.08753636 94.78424832 -60.09263346 87.26386552 -60.08438256 79.74338875 C-60.08048123 75.90822432 -60.08138026 72.07322329 -60.09543991 68.23807907 C-60.11056164 64.07504989 -60.10229706 59.91238738 -60.09185791 55.74934387 C-60.09991431 54.54456133 -60.10797072 53.33977878 -60.11627126 52.09848768 C-60.0750463 45.06351188 -59.18830609 39.10521112 -56.72436523 32.50793457 C-56.38276367 31.59141113 -56.04116211 30.6748877 -55.68920898 29.73059082 C-49.95941625 17.68277567 -40.24705002 8.47410301 -27.94831753 3.35171938 C-18.50600226 0.16330516 -9.83760631 -0.05636749 0 0 Z " fill="#E7F8FC" transform="translate(59.724365234375,54.4920654296875)"/>
<path d="M0 0 C1.64388702 -0.01045349 1.64388702 -0.01045349 3.32098389 -0.02111816 C6.84423704 -0.03842411 10.3673311 -0.04483869 13.890625 -0.046875 C15.09227295 -0.04788208 16.2939209 -0.04888916 17.53198242 -0.04992676 C31.94335117 -0.04175868 46.28515444 0.11403483 60.640625 1.453125 C61.83913086 1.56237305 63.03763672 1.67162109 64.27246094 1.78417969 C84.29555547 3.97573356 100.95136833 10.91437074 113.953125 26.578125 C121.44188964 36.65166419 123.3336282 45.99156144 123.390625 58.203125 C123.4215625 59.81380859 123.4215625 59.81380859 123.453125 61.45703125 C123.50137881 71.48176015 121.62217902 80.5326608 117.515625 89.703125 C115.29645019 94.30459848 115.29645019 94.30459848 114.140625 99.203125 C115.22868981 101.81210263 115.22868981 101.81210263 116.890625 104.453125 C121.85750288 112.79555096 123.70139358 119.48096217 123.640625 129.203125 C123.63639526 130.71410767 123.63639526 130.71410767 123.63208008 132.25561523 C123.41290236 142.49667351 121.14532413 151.36601454 116.4375 160.51171875 C114.85550237 163.03573481 114.85550237 163.03573481 115.703125 165.203125 C116.1775 165.863125 116.651875 166.523125 117.140625 167.203125 C124.87820806 178.32590065 124.73967605 191.53014394 122.77001953 204.67675781 C119.68115649 219.50715748 112.37068846 234.08266713 102.140625 245.203125 C101.40328125 246.03199219 100.6659375 246.86085938 99.90625 247.71484375 C74.84109776 274.45919736 36.34021113 277.15511065 1.78820801 278.31573486 C-6.53148642 278.52427525 -14.84984603 278.57662007 -23.171875 278.578125 C-24.30728729 278.58002838 -25.44269958 278.58193176 -26.61251831 278.58389282 C-45.40956169 278.58031577 -63.8075855 277.49176559 -82.296875 273.953125 C-83.43592285 273.73696533 -84.5749707 273.52080566 -85.74853516 273.2980957 C-109.57106585 268.62325321 -132.48897039 260.76041366 -153.859375 249.203125 C-154.44734863 248.88907715 -155.03532227 248.5750293 -155.64111328 248.25146484 C-170.61313729 240.20051013 -184.15802909 230.46342111 -196.859375 219.203125 C-197.75398438 218.419375 -198.64859375 217.635625 -199.5703125 216.828125 C-208.86923499 208.58784907 -217.14117755 199.94032112 -224.859375 190.203125 C-225.81092482 189.06378676 -226.76410989 187.92581267 -227.71875 186.7890625 C-228.66222905 185.63604689 -229.60495184 184.482412 -230.546875 183.328125 C-231.23511353 182.5252002 -231.23511353 182.5252002 -231.93725586 181.70605469 C-233.18359375 180.1484375 -233.18359375 180.1484375 -234.859375 177.203125 C-234.13581842 172.38454611 -230.19399954 168.74972406 -227.046875 165.203125 C-226.47662598 164.5524707 -225.90637695 163.90181641 -225.31884766 163.23144531 C-219.44595937 156.60455084 -213.20056428 150.37792739 -206.859375 144.203125 C-205.85728077 143.20522363 -204.85593269 142.2065555 -203.859375 141.203125 C-204.69339844 140.39230469 -205.52742188 139.58148438 -206.38671875 138.74609375 C-213.36477633 131.9043101 -219.86544641 124.94074191 -225.859375 117.203125 C-226.72069248 116.13227994 -227.58269552 115.06198602 -228.4453125 113.9921875 C-229.2928712 112.91761564 -230.13925483 111.84211575 -230.984375 110.765625 C-231.75007813 109.79753906 -232.51578125 108.82945312 -233.3046875 107.83203125 C-234.859375 105.203125 -234.859375 105.203125 -234.90625 103.203125 C-233.37437823 100.276564 -231.24695536 98.00935395 -228.984375 95.640625 C-228.49042236 95.1154126 -227.99646973 94.5902002 -227.48754883 94.04907227 C-225.95294248 92.42581385 -224.40660283 90.81434526 -222.859375 89.203125 C-221.97378906 88.2646875 -221.08820313 87.32625 -220.17578125 86.359375 C-213.25824458 79.2054292 -205.8020473 73.1502207 -197.859375 67.203125 C-197.18519531 66.68991699 -196.51101562 66.17670898 -195.81640625 65.64794922 C-184.83136932 57.30510809 -173.43515107 50.1593631 -161.33007812 43.55371094 C-159.07469959 42.3208301 -156.83323556 41.06611634 -154.59375 39.8046875 C-108.85888013 14.39581524 -52.30107963 0.22563645 0 0 Z " fill="#FEA8B4" transform="translate(308.859375,117.796875)"/>
<path d="M0 0 C1.76737448 -0.00461663 3.53474511 -0.01097465 5.30210781 -0.01890898 C10.1276178 -0.03552069 14.95280909 -0.02739324 19.77831984 -0.0149641 C24.99449734 -0.00588238 30.21062155 -0.01989879 35.42678833 -0.03088379 C45.63298546 -0.04864032 55.8390647 -0.04484179 66.04526639 -0.03323323 C74.34243309 -0.0241879 82.63956684 -0.02297966 90.93673706 -0.02732849 C92.1190769 -0.02794142 93.30141675 -0.02855436 94.51958507 -0.02918586 C96.92172663 -0.0304648 99.32386819 -0.03176166 101.72600973 -0.03307623 C124.2339286 -0.04447363 146.74178224 -0.03138148 169.24969041 -0.00987476 C188.5490613 0.00799544 207.84833593 0.00489109 227.14770508 -0.0135498 C249.57685079 -0.03497133 272.00593937 -0.04337507 294.43509388 -0.03110075 C296.82824007 -0.0298266 299.22138626 -0.02856911 301.61453247 -0.02732849 C303.38059512 -0.02640284 303.38059512 -0.02640284 305.18233579 -0.02545848 C313.46645033 -0.02200944 321.75052854 -0.02782433 330.03463745 -0.0372467 C340.13462415 -0.04848229 350.23448655 -0.04539379 360.33445907 -0.02412373 C365.48445712 -0.01363438 370.63424816 -0.00945542 375.78424454 -0.02272034 C380.50436263 -0.03469385 385.22408302 -0.02800029 389.94416535 -0.00681013 C391.64587709 -0.00236501 393.34762286 -0.00456294 395.04931247 -0.01431328 C411.57574978 -0.1016963 425.5109798 3.16102097 438.02563477 14.75793457 C449.04248065 26.64661718 452.90297932 40.12331694 452.78356934 56.05627441 C452.7898093 57.35677923 452.79604926 58.65728405 452.80247831 59.9971981 C452.81902094 63.56857315 452.81099505 67.13951513 452.79853344 70.71089077 C452.78942274 74.57736941 452.80348228 78.44377744 452.81445312 82.3102417 C452.83217917 89.8694707 452.82842488 97.42854025 452.81680256 104.98777533 C452.80774512 111.13486883 452.8065542 117.28191785 452.81089783 123.42901611 C452.81151076 124.30606622 452.81212369 125.18311633 452.8127552 126.08674371 C452.81403418 127.86881528 452.81533104 129.65088683 452.81664556 131.43295836 C452.82803403 148.11802254 452.81496492 164.8029986 452.7934441 181.48804832 C452.77557469 195.78443471 452.77867929 210.08069115 452.79711914 224.3770752 C452.81855654 241.00507812 452.82693556 257.63300394 452.81467009 274.26101875 C452.81339598 276.03629683 452.81213849 277.81157492 452.81089783 279.58685303 C452.81028073 280.46017599 452.80966362 281.33349896 452.80902782 282.23328626 C452.80558352 288.36837269 452.81138336 294.50340996 452.82081604 300.63848877 C452.83206935 308.12174871 452.82892628 315.60484095 452.80769306 323.08808184 C452.79722723 326.90142825 452.79298377 330.71449572 452.80628967 334.52783966 C452.8205305 338.67199767 452.80345334 342.81545992 452.78356934 346.95959473 C452.79249222 348.15018179 452.80141511 349.34076885 452.81060839 350.56743431 C452.67605581 365.08672242 447.91620215 377.70067983 437.90063477 388.32043457 C430.8879333 394.83445505 423.39534649 398.70739317 414.27563477 401.50793457 C413.71191276 401.68593432 413.14819076 401.86393407 412.56738627 402.04732776 C409.39734821 402.68445666 406.36083098 402.63624548 403.12714195 402.63936234 C402.04077693 402.64244129 402.04077693 402.64244129 400.93246514 402.64558244 C398.49275074 402.65126072 396.05309266 402.64979416 393.6133728 402.64837646 C391.85163229 402.65095963 390.08989236 402.65397266 388.32815325 402.65737987 C383.47662027 402.66545892 378.62510206 402.66723994 373.77356315 402.66797733 C368.54503211 402.66982633 363.31650877 402.67737293 358.08798218 402.68411255 C346.6498969 402.69770319 335.21181513 402.70372183 323.77372313 402.70812321 C316.63301869 402.7108846 309.49231561 402.71512178 302.35161209 402.71962738 C282.58521548 402.73182138 262.81881996 402.74212019 243.05241966 402.74550247 C241.1541974 402.74583182 241.1541974 402.74583182 239.2176272 402.74616782 C237.94909646 402.7463861 236.68056571 402.74660438 235.37359464 402.74682927 C232.80301817 402.74727274 230.2324417 402.7477193 227.66186523 402.74816895 C226.38676722 402.74839038 225.11166921 402.7486118 223.79793186 402.74883994 C203.13790696 402.75278774 182.47791734 402.77024062 161.81790607 402.79352847 C140.61191703 402.81723898 119.40594569 402.8297042 98.19994318 402.83087039 C86.29145234 402.83178736 74.38300746 402.83754516 62.47452927 402.85569 C52.33364432 402.87108696 42.19281952 402.87621385 32.05192511 402.8679519 C26.87808234 402.86404388 21.70436072 402.86498247 16.53053284 402.87900925 C11.79178202 402.89173894 7.0532435 402.89055875 2.31449302 402.87841853 C0.6024655 402.87645992 -1.10957701 402.87954755 -2.82158346 402.8882629 C-11.52133258 402.9297379 -19.52273869 402.81504997 -27.72436523 399.50793457 C-28.64088867 399.16633301 -29.55741211 398.82473145 -30.50170898 398.47277832 C-43.82477669 392.13649115 -52.71605048 381.41548153 -57.96264648 367.86730957 C-59.36218941 363.53231508 -59.84987991 359.50209619 -59.855793 354.9543047 C-59.85963414 353.84279665 -59.86347529 352.7312886 -59.86743283 351.58609849 C-59.86656635 350.37016234 -59.86569987 349.15422619 -59.86480713 347.90144348 C-59.86777825 346.60565736 -59.87074937 345.30987125 -59.87381053 343.97481889 C-59.88186921 340.37971732 -59.88366947 336.78463573 -59.884408 333.1895262 C-59.88626053 329.31139888 -59.89380888 325.43328187 -59.90054321 321.55516052 C-59.9141191 313.07571818 -59.92015012 304.59628056 -59.92455387 296.11682916 C-59.9273176 290.82090355 -59.93155519 285.52497977 -59.93605804 280.2290554 C-59.94824982 265.56245316 -59.95854926 250.89585238 -59.96193314 236.22924519 C-59.9621527 235.29073603 -59.96237227 234.35222688 -59.96259849 233.38527806 C-59.96281677 232.44453969 -59.96303504 231.50380132 -59.96325994 230.53455573 C-59.9637034 228.62830245 -59.96414996 226.72204918 -59.96459961 224.8157959 C-59.96482104 223.87023101 -59.96504247 222.92466613 -59.96527061 221.95044776 C-59.96921791 206.6318316 -59.98667027 191.31326303 -60.00995913 175.99466524 C-60.03368354 160.26242413 -60.04613549 144.53020688 -60.04730105 128.79794759 C-60.04821721 119.96684279 -60.05395456 111.1358 -60.07212067 102.3047123 C-60.08753636 94.78424832 -60.09263346 87.26386552 -60.08438256 79.74338875 C-60.08048123 75.90822432 -60.08138026 72.07322329 -60.09543991 68.23807907 C-60.11056164 64.07504989 -60.10229706 59.91238738 -60.09185791 55.74934387 C-60.09991431 54.54456133 -60.10797072 53.33977878 -60.11627126 52.09848768 C-60.0750463 45.06351188 -59.18830609 39.10521112 -56.72436523 32.50793457 C-56.38276367 31.59141113 -56.04116211 30.6748877 -55.68920898 29.73059082 C-49.95941625 17.68277567 -40.24705002 8.47410301 -27.94831753 3.35171938 C-18.50600226 0.16330516 -9.83760631 -0.05636749 0 0 Z M-25.63128859 38.6777401 C-30.24429617 45.30666437 -30.57460807 51.49105795 -30.47953796 59.37402344 C-30.48819234 60.63732971 -30.49684672 61.90063598 -30.50576335 63.20222425 C-30.52873497 66.6837568 -30.51463364 70.16427356 -30.4940542 73.64578414 C-30.47835649 77.41003434 -30.49737016 81.1741368 -30.51185608 84.93836975 C-30.53463619 92.30256851 -30.52523358 99.66638676 -30.50435521 107.03057778 C-30.48804577 113.01760045 -30.48387787 119.00451956 -30.4883213 124.99156189 C-30.48895198 125.84490638 -30.48958265 126.69825088 -30.49023244 127.5774543 C-30.49157855 129.31121467 -30.49295812 131.04497502 -30.4943708 132.77873534 C-30.50629688 149.02166654 -30.48226913 165.26438956 -30.44535271 181.50727338 C-30.41446137 195.43286045 -30.41208994 209.35820798 -30.43115234 223.28381348 C-30.45328396 239.47010807 -30.45939093 255.6562685 -30.43882972 271.84256983 C-30.43666687 273.56981562 -30.43451777 275.29706143 -30.43238258 277.02430725 C-30.43131622 277.87406033 -30.43024985 278.7238134 -30.42915117 279.59931657 C-30.42269209 285.57648471 -30.42743615 291.5535836 -30.43640709 297.53074646 C-30.44696251 304.81878113 -30.43937869 312.10653526 -30.4089513 319.39451826 C-30.39386319 323.11030874 -30.38660577 326.82565714 -30.40114212 330.54146004 C-30.41663787 334.57532419 -30.39317114 338.60804328 -30.36601257 342.6418457 C-30.37648406 343.80819911 -30.38695555 344.97455253 -30.39774436 346.17624998 C-30.30410399 353.65155578 -28.89761432 359.23513442 -24.72436523 365.50793457 C-22.52768213 367.79353582 -22.52768213 367.79353582 -20.09936523 369.07043457 C-19.34397461 369.52547363 -18.58858398 369.9805127 -17.81030273 370.44934082 C-13.69707655 372.5367646 -10.43057147 372.63568271 -5.86791801 372.64215565 C-5.16310102 372.64450788 -4.45828403 372.64686011 -3.73210895 372.64928362 C-1.35246774 372.65598066 1.02711895 372.65551518 3.4067688 372.65510559 C5.12298633 372.65840378 6.83920309 372.66212925 8.55541885 372.66624707 C13.28572273 372.67628036 18.01601391 372.679986 22.74632692 372.68263638 C27.84261396 372.68653551 32.9388909 372.69611414 38.03517151 372.70484924 C50.34997652 372.72462502 62.66478237 372.73468141 74.9795993 372.74357703 C80.77630563 372.74795823 86.57301104 372.75332548 92.36971664 372.7585659 C111.63509748 372.77557951 130.90047775 372.79007411 150.16586494 372.79731464 C155.16697312 372.7992246 160.16808129 372.80114492 165.16918945 372.80310059 C166.41221851 372.80358433 167.65524758 372.80406807 168.93594418 372.80456647 C189.07616498 372.81286832 209.2163264 372.83820727 229.35652126 372.87068126 C250.02571772 372.90373697 270.69488398 372.92176207 291.36410701 372.92495888 C302.97246218 372.92712539 314.58073078 372.93589459 326.18906021 372.96142006 C336.07455727 372.98310673 345.95994675 372.99118748 355.8454649 372.98145328 C360.88959855 372.97690266 365.93351013 372.97883911 370.97761345 372.99821472 C375.59674724 373.01580473 380.21549629 373.01488249 384.83463393 372.99931743 C386.50428078 372.99693503 388.17395397 373.00129765 389.84356047 373.01314608 C399.47774952 373.07727194 407.8420519 372.989053 415.61547852 366.57824707 C416.40631836 365.61531738 416.40631836 365.61531738 417.21313477 364.63293457 C417.7584082 363.9961377 418.30368164 363.35934082 418.86547852 362.70324707 C422.99975994 356.26705272 422.56257617 349.5676501 422.5430603 342.18533325 C422.54985697 340.30563436 422.54985697 340.30563436 422.55679095 338.38796175 C422.5690082 334.91665299 422.568762 331.44544071 422.5664022 327.97411537 C422.56599371 324.22759648 422.57703613 320.48110839 422.58651733 316.73460388 C422.60312084 309.39738961 422.60862657 302.06020747 422.60974209 294.72297598 C422.61069278 288.75874707 422.61480415 282.79452875 422.62114334 276.83030319 C422.63875326 259.91765079 422.64798249 243.00502376 422.64648239 226.09236212 C422.64640248 225.18084869 422.64632257 224.26933525 422.64624023 223.3302002 C422.64611759 221.96125933 422.64611759 221.96125933 422.64599247 220.5646631 C422.64517944 205.77175953 422.66432216 190.97895775 422.69251697 176.18608363 C422.72124412 160.99396107 422.73505739 145.80188816 422.73332942 130.60973775 C422.7326655 122.08162536 422.73815858 113.5536197 422.75968552 105.02553177 C422.77789501 97.76522062 422.78224653 90.5050646 422.76866667 83.2447405 C422.76213605 79.5414118 422.76202292 75.83838074 422.77937317 72.13508034 C422.7979998 68.11799596 422.78555216 64.1016009 422.77011108 60.08450317 C422.78554177 58.33381466 422.78554177 58.33381466 422.80128419 56.5477587 C422.73468246 48.71543859 421.58911088 43.35800601 416.34594727 37.26574707 C415.38301758 36.45750488 415.38301758 36.45750488 414.40063477 35.63293457 C413.76383789 35.0786377 413.12704102 34.52434082 412.47094727 33.95324707 C407.57400741 30.72928311 402.79478765 30.25645195 397.03722 30.24507904 C395.97271905 30.23892114 395.97271905 30.23892114 394.88671303 30.23263884 C392.5085726 30.22132936 390.13066496 30.22420943 387.75250244 30.22705078 C386.03028178 30.22188175 384.30806352 30.21585495 382.58584857 30.20904398 C377.85284082 30.19291793 373.11989377 30.18932563 368.3868618 30.18784904 C363.2824173 30.18414555 358.17800421 30.16904976 353.07357788 30.15557861 C341.91246503 30.12842192 330.75136656 30.11636439 319.59022617 30.1075573 C312.62137358 30.10203136 305.65252652 30.09355651 298.68367767 30.08454895 C279.38901238 30.06016605 260.09435154 30.0395662 240.79967117 30.03279877 C239.56493602 30.03235963 238.33020086 30.0319205 237.05804949 30.03146806 C235.82036442 30.03103151 234.58267935 30.03059495 233.30748868 30.03014517 C230.79947487 30.02925824 228.29146107 30.02836511 225.78344727 30.02746582 C224.5393864 30.02702296 223.29532554 30.0265801 222.01356587 30.02612382 C201.85154018 30.01822635 181.68965899 29.98331266 161.52768913 29.93674678 C140.82787797 29.88932449 120.12813933 29.86439532 99.42827296 29.86206293 C87.80591508 29.86022926 76.18374553 29.84872027 64.56143951 29.81242371 C54.66575597 29.7816282 44.77031898 29.77137687 34.87459663 29.78789991 C29.82616594 29.79571514 24.77823184 29.79384415 19.72986221 29.76578522 C15.10569786 29.74031911 10.4824035 29.74268987 5.85824046 29.76696664 C4.18798891 29.77088287 2.51767587 29.76471264 0.84751073 29.74727792 C-9.75756332 29.64360612 -18.20250338 30.22484703 -25.63128859 38.6777401 Z " fill="#75E2F8" transform="translate(59.724365234375,54.4920654296875)"/>
<path d="M0 0 C0 89.43 0 178.86 0 271 C-10.06750473 270.37078095 -19.39461722 269.70469161 -29.1875 267.8125 C-30.34459473 267.59182861 -31.50168945 267.37115723 -32.69384766 267.14379883 C-56.5851857 262.4356353 -79.56175241 254.5939787 -101 243 C-101.58797363 242.68595215 -102.17594727 242.3719043 -102.78173828 242.04833984 C-117.75376229 233.99738513 -131.29865409 224.26029611 -144 213 C-144.89460938 212.21625 -145.78921875 211.4325 -146.7109375 210.625 C-156.00985999 202.38472407 -164.28180255 193.73719612 -172 184 C-172.95154982 182.86066176 -173.90473489 181.72268767 -174.859375 180.5859375 C-175.80285405 179.43292189 -176.74557684 178.279287 -177.6875 177.125 C-178.37573853 176.3220752 -178.37573853 176.3220752 -179.07788086 175.50292969 C-180.32421875 173.9453125 -180.32421875 173.9453125 -182 171 C-181.27644342 166.18142111 -177.33462454 162.54659906 -174.1875 159 C-173.61725098 158.3493457 -173.04700195 157.69869141 -172.45947266 157.02832031 C-166.58658437 150.40142584 -160.34118928 144.17480239 -154 138 C-152.99790577 137.00209863 -151.99655769 136.0034305 -151 135 C-151.83402344 134.18917969 -152.66804688 133.37835938 -153.52734375 132.54296875 C-160.50540133 125.7011851 -167.00607141 118.73761691 -173 111 C-173.86131748 109.92915494 -174.72332052 108.85886102 -175.5859375 107.7890625 C-176.4334962 106.71449064 -177.27987983 105.63899075 -178.125 104.5625 C-178.89070313 103.59441406 -179.65640625 102.62632812 -180.4453125 101.62890625 C-182 99 -182 99 -182.046875 97 C-180.51500323 94.073439 -178.38758036 91.80622895 -176.125 89.4375 C-175.63104736 88.9122876 -175.13709473 88.3870752 -174.62817383 87.84594727 C-173.09356748 86.22268885 -171.54722783 84.61122026 -170 83 C-169.11441406 82.0615625 -168.22882813 81.123125 -167.31640625 80.15625 C-160.39886958 73.0023042 -152.9426723 66.9470957 -145 61 C-144.32582031 60.48679199 -143.65164062 59.97358398 -142.95703125 59.44482422 C-131.97199432 51.10198309 -120.57577607 43.9562381 -108.47070312 37.35058594 C-106.21532459 36.1177051 -103.97386056 34.86299134 -101.734375 33.6015625 C-73.36123125 17.83832567 -33.31600457 0 0 0 Z " fill="#FEC9D0" transform="translate(256,124)"/>
<path d="M0 0 C26.96439908 -0.09031787 53.92867556 -0.16399236 80.89318752 -0.20724869 C93.41346594 -0.22786779 105.93364365 -0.25597612 118.45385742 -0.30175781 C129.36735526 -0.34164531 140.28078016 -0.36743755 151.19434887 -0.37635398 C156.97221695 -0.38156543 162.74987637 -0.39380104 168.52767754 -0.42292023 C173.9687061 -0.45011933 179.40944053 -0.4584358 184.85053062 -0.45243073 C186.84472503 -0.45352894 188.83892952 -0.46145586 190.83306503 -0.4768219 C193.56280937 -0.49682016 196.29145343 -0.49190347 199.02122498 -0.48101807 C199.80432665 -0.49266943 200.58742832 -0.5043208 201.39426035 -0.51632524 C208.16578644 -0.44368923 214.11720963 1.57922612 219.33984375 5.96484375 C219.86707031 6.61582031 220.39429688 7.26679687 220.9375 7.9375 C221.48277344 8.58589844 222.02804687 9.23429687 222.58984375 9.90234375 C225.31948609 13.96278124 226.24986697 17.52050119 226.25726891 22.38463211 C226.2637178 23.45843951 226.27016669 24.5322469 226.276811 25.63859391 C226.2721652 27.39932068 226.2721652 27.39932068 226.26742554 29.19561768 C226.27195665 30.44719028 226.27648776 31.69876289 226.28115618 32.98826194 C226.29338929 36.45989937 226.29312536 39.93144046 226.29076743 43.40309453 C226.29035934 47.14828683 226.30139776 50.8934482 226.31088257 54.6386261 C226.3274957 61.97564458 226.33299227 69.31263092 226.33410732 76.64966664 C226.33505774 82.61438761 226.3391677 88.57909799 226.34550858 94.54381561 C226.36312255 111.4573105 226.37234731 128.37078002 226.37084763 145.28428414 C226.37076772 146.19610026 226.3706878 147.10791637 226.37060547 148.04736328 C226.37052371 148.96029371 226.37044195 149.87322415 226.37035771 150.81381914 C226.36954497 165.60611075 226.38867919 180.39830049 226.4168822 195.19056264 C226.44561665 210.38152835 226.45942216 225.5724444 226.45769465 240.76343799 C226.4570309 249.29103823 226.46251659 257.81853172 226.48405075 266.34610748 C226.50227003 273.60751221 226.50660386 280.8687618 226.4930319 288.13017949 C226.4865057 291.83362515 226.48637207 295.53677323 226.5037384 299.24019051 C226.52239024 303.25916765 226.50990551 307.27745706 226.49447632 311.29644775 C226.50476344 312.46134271 226.51505057 313.62623766 226.52564943 314.82643247 C226.45844781 322.74835109 225.19970578 329.12019481 220.0703125 335.33984375 C219.42835938 335.86707031 218.78640625 336.39429688 218.125 336.9375 C217.16980469 337.75541016 217.16980469 337.75541016 216.1953125 338.58984375 C210.87663747 342.00628803 205.54328687 342.2858386 199.38198853 342.24050903 C198.10023037 342.24307231 198.10023037 342.24307231 196.7925781 342.24568737 C193.93666528 342.24897485 191.08098874 342.23799075 188.22509766 342.22705078 C186.17497768 342.22648651 184.12485729 342.22680354 182.07473755 342.22793579 C176.51325132 342.22850967 170.95185134 342.21674955 165.39038515 342.20278788 C159.57677936 342.19028648 153.7631716 342.18911048 147.94955444 342.18673706 C136.94245255 342.18052056 125.93539038 342.16410742 114.92830598 342.14403808 C102.39636729 342.12168439 89.8644267 342.11068698 77.33247304 342.10064721 C51.55495926 342.07974137 25.77748353 342.04415924 0 342 C0 331.77 0 321.54 0 311 C3.92003906 310.95101563 7.84007812 310.90203125 11.87890625 310.8515625 C15.07787285 310.80677716 18.27680526 310.76029771 21.4757309 310.71270752 C24.81200244 310.66352385 28.148216 310.61799985 31.48461914 310.578125 C48.08129243 310.3774473 64.49152706 309.74937128 81 308 C82.19761963 307.88011719 83.39523926 307.76023437 84.62915039 307.63671875 C108.41756944 305.14231583 129.79035637 300.44843458 148 284 C149.13501953 283.00419922 149.13501953 283.00419922 150.29296875 281.98828125 C160.01651862 272.93416683 166.61459553 261.46293257 171 249 C171.391875 247.99324219 171.78375 246.98648438 172.1875 245.94921875 C174.81719259 238.32493642 175.40994043 231.21302109 175.5 223.1875 C175.51844971 222.22094482 175.53689941 221.25438965 175.5559082 220.25854492 C175.48849145 212.49226842 173.83635928 206.20956445 168.625 200.3125 C167.820625 199.1678125 167.820625 199.1678125 167 198 C167.5 195.3125 167.5 195.3125 169 192 C169.675746 190.37875456 170.34166098 188.75339159 171 187.125 C171.33 186.34382812 171.66 185.56265625 172 184.7578125 C176.43886899 172.51624411 177.79602113 156.23466047 172.75 144 C171.51280994 141.55397955 170.16573788 139.26337802 168.70703125 136.9453125 C167.5625 135.125 167.5625 135.125 166 132 C166.7109375 129.3046875 166.7109375 129.3046875 168 126 C168.49129562 124.7084893 168.98216002 123.41681451 169.47265625 122.125 C170.26862836 120.05507748 171.06772948 117.98665668 171.87695312 115.921875 C172.13541016 115.24640625 172.39386719 114.5709375 172.66015625 113.875 C172.89355713 113.27429688 173.12695801 112.67359375 173.36743164 112.0546875 C175.40194221 105.44625794 175.25193657 98.65616771 175.3125 91.8125 C175.34150391 90.73935547 175.37050781 89.66621094 175.40039062 88.56054688 C175.50725067 74.97288069 170.1247184 63.19782292 160.875 53.3125 C137.41580453 31.07145371 98.32222858 33.60061505 68.25 33.6875 C66.47665283 33.6882402 66.47665283 33.6882402 64.66748047 33.68899536 C49.43047413 33.70845135 34.46693005 34.01110771 19.375 36.24609375 C12.95312101 37.14683695 6.46826149 37.53798132 0 38 C0 25.46 0 12.92 0 0 Z " fill="#CFF2FB" transform="translate(256,85)"/>
<path d="M0 0 C2.11026488 0.00113012 4.22053132 0.00049141 6.33079529 -0.00177002 C12.02419875 -0.00291167 17.71726105 0.02050853 23.41058564 0.04852581 C29.37361535 0.07363132 35.33665398 0.07588866 41.29972839 0.08062744 C52.57581438 0.09303039 63.85174416 0.12581567 75.12776154 0.1660254 C87.97181108 0.21082667 100.81586831 0.23275114 113.6599766 0.25280714 C140.06661998 0.29455071 166.47311395 0.36566185 192.87963867 0.45410156 C192.87963867 10.35410156 192.87963867 20.25410156 192.87963867 30.45410156 C190.27094879 30.45330597 187.66225891 30.45251038 184.97451782 30.45169067 C160.40157664 30.4470467 135.82883275 30.47548893 111.25596046 30.53437996 C98.62250072 30.56386216 85.98920909 30.58220484 73.35571289 30.57421875 C62.3428486 30.56728549 51.33024454 30.58135981 40.31744421 30.62053764 C34.48752848 30.64054709 28.65802128 30.65011984 22.82808304 30.6345253 C17.3367683 30.62016873 11.84623316 30.63397506 6.35501862 30.66905403 C4.3435365 30.6769996 2.33198373 30.67479988 0.32052994 30.6614933 C-13.02074598 30.37804016 -13.02074598 30.37804016 -25.16221046 35.28986931 C-31.8471929 42.67839839 -32.84817995 49.46090719 -32.75527954 59.19993591 C-32.76307949 60.46238776 -32.77087945 61.7248396 -32.77891576 63.02554756 C-32.79969162 66.50922273 -32.78951699 69.99220863 -32.77398467 73.47588551 C-32.76263657 77.24082624 -32.78015101 81.00565135 -32.79388428 84.77056885 C-32.81608515 92.13819914 -32.81132945 99.50557436 -32.79682107 106.87321454 C-32.78551553 112.86311481 -32.78400362 118.85294375 -32.78944016 124.84285164 C-32.79020632 125.69633162 -32.79097249 126.54981161 -32.79176187 127.42915462 C-32.79336055 129.16315653 -32.79498161 130.89715841 -32.79662482 132.63116027 C-32.81087332 148.88073314 -32.79450419 165.13016484 -32.76762299 181.37971456 C-32.74528903 195.31156335 -32.74916208 209.2432038 -32.7722168 223.17504883 C-32.79899765 239.36608959 -32.80949588 255.55700667 -32.79415548 271.74806648 C-32.79256279 273.47588954 -32.79099094 275.20371262 -32.78944016 276.93153572 C-32.78866878 277.78158378 -32.7878974 278.63163184 -32.78710265 279.50743894 C-32.7827922 285.48710565 -32.79005813 291.46669367 -32.80183792 297.44634819 C-32.81588707 304.73805603 -32.81201262 312.02949488 -32.7854342 319.32117205 C-32.77232762 323.03898814 -32.76708893 326.75635638 -32.78367996 330.47416878 C-32.80141838 334.51026057 -32.78018519 338.54522973 -32.75527954 342.58128357 C-32.76643315 343.7483191 -32.77758676 344.91535463 -32.78907835 346.11775488 C-32.70117661 353.47099937 -31.50690553 359.40206155 -27.12036133 365.45410156 C-21.03007948 370.47464321 -15.60948232 371.60285544 -7.82514954 371.61231995 C-6.54111096 371.61972691 -6.54111096 371.61972691 -5.23113221 371.62728351 C-2.35216956 371.64268669 0.52677073 371.65102677 3.40576172 371.65942383 C5.46529335 371.66900013 7.52482301 371.67901007 9.58435059 371.68942261 C15.18522137 371.71650454 20.78610061 371.7374963 26.3870008 371.75742459 C32.23667941 371.77926387 38.08633186 371.80666262 43.93598938 371.83348083 C55.01753134 371.88343558 66.0990878 371.92836409 77.18065816 371.9715032 C89.79477346 372.02085181 102.40886251 372.07577874 115.02295244 372.13118279 C140.97515689 372.24504555 166.92738678 372.35167736 192.87963867 372.45410156 C192.87963867 382.35410156 192.87963867 392.25410156 192.87963867 402.45410156 C165.15022688 402.52357975 137.4208361 402.5771015 109.69135475 402.60953808 C96.81577209 402.62499996 83.94024455 402.64607659 71.06469727 402.68041992 C59.84098981 402.71034296 48.61732227 402.7296815 37.39357603 402.73636705 C31.45195598 402.74027435 25.51045014 402.74944313 19.56886673 402.77129173 C13.97274355 402.79170265 8.37678126 402.797926 2.78062439 402.79342461 C0.73041789 402.79424774 -1.31979418 402.80018581 -3.36996841 402.81171799 C-23.09096887 402.91717678 -23.09096887 402.91717678 -31.12036133 399.45410156 C-32.03688477 399.1125 -32.9534082 398.77089844 -33.89770508 398.41894531 C-47.22077278 392.08265814 -56.11204657 381.36164853 -61.35864258 367.81347656 C-62.7581855 363.47848207 -63.24587601 359.44826318 -63.25178909 354.90047169 C-63.25563024 353.78896364 -63.25947138 352.67745559 -63.26342893 351.53226548 C-63.26256244 350.31632933 -63.26169596 349.10039318 -63.26080322 347.84761047 C-63.26377434 346.55182436 -63.26674547 345.25603824 -63.26980662 343.92098588 C-63.27786531 340.32588431 -63.27966556 336.73080272 -63.28040409 333.13569319 C-63.28225662 329.25756587 -63.28980497 325.37944886 -63.29653931 321.50132751 C-63.31011519 313.02188517 -63.31614621 304.54244755 -63.32054996 296.06299615 C-63.32331369 290.76707055 -63.32755129 285.47114677 -63.33205414 280.1752224 C-63.34424592 265.50862016 -63.35454536 250.84201938 -63.35792923 236.17541218 C-63.3581488 235.23690303 -63.35836836 234.29839387 -63.35859458 233.33144505 C-63.35881286 232.39070668 -63.35903114 231.44996832 -63.35925603 230.48072273 C-63.35969949 228.57446945 -63.36014606 226.66821617 -63.3605957 224.76196289 C-63.36081713 223.81639801 -63.36103856 222.87083312 -63.3612667 221.89661475 C-63.365214 206.57799859 -63.38266636 191.25943002 -63.40595523 175.94083223 C-63.42967963 160.20859112 -63.44213158 144.47637387 -63.44329715 128.74411458 C-63.4442133 119.91300978 -63.44995066 111.08196699 -63.46811676 102.25087929 C-63.48353245 94.73041531 -63.48862955 87.21003251 -63.48037866 79.68955574 C-63.47647733 75.85439132 -63.47737635 72.01939029 -63.491436 68.18424606 C-63.50655774 64.02121688 -63.49829315 59.85855437 -63.487854 55.69551086 C-63.49591041 54.49072832 -63.50396681 53.28594577 -63.51226735 52.04465467 C-63.47104239 45.00967887 -62.58430219 39.05137811 -60.12036133 32.45410156 C-59.77875977 31.53757812 -59.4371582 30.62105469 -59.08520508 29.67675781 C-53.33659261 17.58937114 -43.67813771 8.62059128 -31.46370411 3.2959938 C-21.04374363 -0.34136799 -10.91815944 -0.08234903 0 0 Z " fill="#A8EBFA" transform="translate(63.120361328125,54.5458984375)"/>
<path d="M0 0 C1.09592468 -0.00696899 2.19184937 -0.01393799 3.32098389 -0.02111816 C6.84423704 -0.03842411 10.3673311 -0.04483869 13.890625 -0.046875 C15.69309692 -0.04838562 15.69309692 -0.04838562 17.53198242 -0.04992676 C31.94335117 -0.04175868 46.28515444 0.11403483 60.640625 1.453125 C61.83913086 1.56237305 63.03763672 1.67162109 64.27246094 1.78417969 C84.29555547 3.97573356 100.95136833 10.91437074 113.953125 26.578125 C121.44188964 36.65166419 123.3336282 45.99156144 123.390625 58.203125 C123.4215625 59.81380859 123.4215625 59.81380859 123.453125 61.45703125 C123.50131925 71.46938636 121.55764577 80.53802799 117.640625 89.765625 C117.2384375 90.73628906 116.83625 91.70695312 116.421875 92.70703125 C115.21987391 95.04873459 114.11669836 96.4970384 112.140625 98.203125 C111.65335938 97.64625 111.16609375 97.089375 110.6640625 96.515625 C93.99814144 78.57703361 70.23621037 74.99208744 47.140625 71.203125 C45.62903809 70.95103271 45.62903809 70.95103271 44.08691406 70.69384766 C28.29612743 68.18840387 12.53059514 67.89616172 -3.421875 67.828125 C-4.38950775 67.82017914 -5.3571405 67.81223328 -6.35409546 67.80404663 C-22.17670153 67.70425491 -36.98569297 69.3715463 -52.859375 71.203125 C-52.859375 49.423125 -52.859375 27.643125 -52.859375 5.203125 C-15.62544888 0.06741105 -15.62544888 0.06741105 0 0 Z " fill="#FE637B" transform="translate(308.859375,117.796875)"/>
<path d="M0 0 C0 21.45 0 42.9 0 65 C-13.52059542 68.12013741 -13.52059542 68.12013741 -19.26953125 69.27758789 C-67.59602747 79.28007645 -111.47565415 103.51770984 -149 135 C-158.71136483 130.99321311 -166.74340717 119.01901335 -173 111 C-173.86431881 109.92687023 -174.72890989 108.8539597 -175.59375 107.78125 C-176.43875076 106.70931812 -177.28253234 105.63642387 -178.125 104.5625 C-178.89070313 103.59441406 -179.65640625 102.62632812 -180.4453125 101.62890625 C-182 99 -182 99 -182.046875 97 C-180.51500323 94.073439 -178.38758036 91.80622895 -176.125 89.4375 C-175.63104736 88.9122876 -175.13709473 88.3870752 -174.62817383 87.84594727 C-173.09356748 86.22268885 -171.54722783 84.61122026 -170 83 C-169.11441406 82.0615625 -168.22882813 81.123125 -167.31640625 80.15625 C-160.39886958 73.0023042 -152.9426723 66.9470957 -145 61 C-144.32582031 60.48679199 -143.65164062 59.97358398 -142.95703125 59.44482422 C-131.97199432 51.10198309 -120.57577607 43.9562381 -108.47070312 37.35058594 C-106.21532459 36.1177051 -103.97386056 34.86299134 -101.734375 33.6015625 C-73.36123125 17.83832567 -33.31600457 0 0 0 Z " fill="#FEA8B4" transform="translate(256,124)"/>
</svg>
