<?xml version="1.0" encoding="UTF-8"?>
<svg version="1.1" xmlns="http://www.w3.org/2000/svg" width="512" height="512">
<path d="M0 0 C9.32551863 6.43819459 15.67162611 14.81928779 18.84375 25.71484375 C19.44264291 29.38864954 19.76319906 32.99485469 19.84375 36.71484375 C20.49859375 36.72902344 21.1534375 36.74320313 21.828125 36.7578125 C34.65877855 37.428341 44.18289669 42.26664014 52.84375 51.71484375 C59.55767771 59.94756694 62.41869244 68.51218665 62.28125 79.08984375 C62.27295166 79.91983887 62.26465332 80.74983398 62.25610352 81.60498047 C61.92591007 93.6400028 57.46793994 101.85630746 49.1875 110.4296875 C40.36658448 118.6056776 29.69649101 121.71484375 17.84375 121.71484375 C9.46409954 120.95462804 2.75301181 118.70258594 -4.16796875 113.921875 C-6.19599359 112.4553766 -6.19599359 112.4553766 -9.15625 112.71484375 C-11.12654929 114.40360027 -12.91835 116.09896467 -14.72924805 117.94726562 C-15.56383545 118.78119591 -15.56383545 118.78119591 -16.4152832 119.63197327 C-18.25670924 121.47549307 -20.08727632 123.3294196 -21.91796875 125.18359375 C-23.19098081 126.46219965 -24.46465584 127.74014578 -25.7389679 129.01745605 C-29.09440244 132.38435595 -32.44073175 135.76016724 -35.78527832 139.13787842 C-39.19843013 142.58169456 -42.62006909 146.01705481 -46.04101562 149.453125 C-52.75445345 156.19875681 -59.4583078 162.9538281 -66.15625 169.71484375 C-65.19918887 170.83399313 -64.24176133 171.95282916 -63.28417969 173.0715332 C-62.75105164 173.69461868 -62.21792358 174.31770416 -61.66864014 174.95967102 C-59.37840071 177.61756047 -57.02498262 180.21811466 -54.671875 182.8203125 C-51.38159035 186.93316831 -50.70255205 190.21736396 -50.84765625 195.3984375 C-51.38348999 199.4205819 -52.63813398 201.48648987 -55.15625 204.71484375 C-59.77873329 207.5245885 -63.50117967 208.00691043 -68.75 207.625 C-76.41733715 207.91128045 -80.459891 211.20470653 -85.53125 216.46484375 C-86.18464355 217.13298096 -86.83803711 217.80111816 -87.51123047 218.48950195 C-103.8233887 235.62715792 -111.84594603 257.2826515 -111.4050293 280.81958008 C-111.38435394 281.62956451 -111.36367859 282.43954895 -111.34237671 283.27407837 C-111.23743918 287.57148749 -111.21308718 291.86948562 -111.18359375 296.16796875 C-111.17675064 297.00640823 -111.16990753 297.84484772 -111.16285706 298.70869446 C-110.83794939 352.34971988 -130.60964339 409.19171221 -166.15625 449.71484375 C-166.90648437 450.57464844 -167.65671875 451.43445313 -168.4296875 452.3203125 C-170.64139539 454.8150888 -172.88894524 457.27059869 -175.15625 459.71484375 C-175.73246094 460.35679687 -176.30867188 460.99875 -176.90234375 461.66015625 C-201.5020213 487.84867712 -240.17983675 505.37146802 -275.99169922 506.87597656 C-311.37644511 507.25032619 -311.37644511 507.25032619 -325.15625 503.71484375 C-326.37876465 503.41682861 -326.37876465 503.41682861 -327.62597656 503.11279297 C-355.46573143 496.21741769 -382.42899819 482.95957647 -402.15625 461.71484375 C-402.98125 460.88984375 -403.80625 460.06484375 -404.65625 459.21484375 C-405.48125 458.38984375 -406.30625 457.56484375 -407.15625 456.71484375 C-407.67396973 456.22105225 -408.19168945 455.72726074 -408.72509766 455.21850586 C-413.03012743 451.05461459 -416.62313909 446.69500682 -420.03125 441.77734375 C-420.8032373 440.66709839 -420.8032373 440.66709839 -421.59082031 439.53442383 C-440.63177556 411.74420283 -450.62854682 380.73002586 -450.46875 347.02734375 C-450.46692719 346.23048157 -450.46510437 345.43361938 -450.46322632 344.61260986 C-450.41862426 333.04193389 -449.97680312 321.98563699 -447.15625 310.71484375 C-446.99527832 310.01439941 -446.83430664 309.31395508 -446.66845703 308.59228516 C-441.06130537 284.30540057 -429.77078143 261.35046308 -413.15625 242.71484375 C-412.40472656 241.85503906 -411.65320313 240.99523437 -410.87890625 240.109375 C-408.66970944 237.61317142 -406.42567293 235.1563168 -404.15625 232.71484375 C-403.23972656 231.71710938 -403.23972656 231.71710938 -402.3046875 230.69921875 C-364.37014174 190.9890134 -303.77763596 170.22067212 -250.15625 167.71484375 C-245.30235646 167.65984842 -240.44899575 167.78363283 -235.5960083 167.86929321 C-206.43174369 168.30947632 -184.37774918 161.25749107 -163.15625 140.71484375 C-162.34285156 139.94140625 -161.52945312 139.16796875 -160.69140625 138.37109375 C-155.49023516 133.329814 -153.19291819 130.15179474 -152.28125 122.83984375 C-151.49804855 117.89362534 -150.6423432 114.49144472 -147.15625 110.71484375 C-143.10870665 107.8909763 -139.36864281 107.05084052 -134.51171875 107.24609375 C-126.08403151 108.92324544 -119.77255915 116.74004678 -114.15625 122.71484375 C-107.37909035 117.15647635 -101.27274647 110.95852714 -95.09765625 104.75390625 C-93.94202771 103.59640949 -92.78617586 102.43913564 -91.63011169 101.28207397 C-88.60797262 98.25614157 -85.58885047 95.22721678 -82.57037354 92.19763184 C-79.48169553 89.0986708 -76.39013665 86.00258662 -73.29882812 82.90625 C-67.24849902 76.84523981 -61.20135807 70.78106128 -55.15625 64.71484375 C-55.64561035 63.89282471 -56.1349707 63.07080566 -56.63916016 62.22387695 C-57.27644043 61.14452881 -57.9137207 60.06518066 -58.5703125 58.953125 C-59.20404785 57.88360596 -59.8377832 56.81408691 -60.49072266 55.7121582 C-65.93922806 45.90692501 -66.12204712 34.53552852 -63.43359375 23.83984375 C-59.69730506 12.19426862 -51.75265892 3.45242004 -40.96875 -2.09765625 C-28.46777315 -8.18080877 -11.80114997 -7.03365641 0 0 Z " fill="#AD6733" transform="translate(450.15625,5.28515625)"/>
<path d="M0 0 C9.32551863 6.43819459 15.67162611 14.81928779 18.84375 25.71484375 C19.44264291 29.38864954 19.76319906 32.99485469 19.84375 36.71484375 C20.49859375 36.72902344 21.1534375 36.74320313 21.828125 36.7578125 C34.65877855 37.428341 44.18289669 42.26664014 52.84375 51.71484375 C59.55767771 59.94756694 62.41869244 68.51218665 62.28125 79.08984375 C62.27295166 79.91983887 62.26465332 80.74983398 62.25610352 81.60498047 C61.92591007 93.6400028 57.46793994 101.85630746 49.1875 110.4296875 C40.36658448 118.6056776 29.69649101 121.71484375 17.84375 121.71484375 C9.46409954 120.95462804 2.75301181 118.70258594 -4.16796875 113.921875 C-6.19599359 112.4553766 -6.19599359 112.4553766 -9.15625 112.71484375 C-11.1064943 114.40967807 -12.87666857 116.10938883 -14.66577148 117.96313477 C-15.21573792 118.52069458 -15.76570435 119.07825439 -16.33233643 119.65270996 C-17.52727879 120.86578416 -18.71881179 122.08222393 -19.90734673 123.30157661 C-21.78706839 125.22871997 -23.67672537 127.14557431 -25.56959534 129.05979919 C-30.9499314 134.50446343 -36.3118531 139.96709909 -41.66625977 145.43725586 C-44.94006913 148.78041678 -48.22584689 152.11142475 -51.51918221 155.4353466 C-52.77393671 156.70691981 -54.02385212 157.98328647 -55.26885796 159.2644062 C-57.00721542 161.0529664 -58.76023384 162.82582539 -60.51733398 164.59594727 C-61.03123184 165.13253464 -61.5451297 165.66912201 -62.07460022 166.2219696 C-65.56607563 169.69501456 -65.56607563 169.69501456 -68.23260498 169.78460693 C-70.73871876 168.39092555 -72.53149715 166.7368386 -74.57348633 164.7175293 C-75.43730423 163.86962326 -76.30112213 163.02171722 -77.19111633 162.14811707 C-78.11418076 161.22525406 -79.03724518 160.30239105 -79.98828125 159.3515625 C-80.94873699 158.39820778 -81.90949062 157.44515307 -82.87052917 156.49238586 C-84.88041586 154.49593581 -86.88427549 152.49365578 -88.88452148 150.48754883 C-91.4514337 147.9147277 -94.03615878 145.36065985 -96.62611866 142.81106853 C-98.61384449 140.84915419 -100.59002475 138.8759231 -102.56305504 136.89924049 C-103.97332406 135.49149295 -105.39467607 134.09487682 -106.81611633 132.69841003 C-107.66417343 131.84104752 -108.51223053 130.983685 -109.38598633 130.1003418 C-110.1400325 129.34835007 -110.89407867 128.59635834 -111.67097473 127.82157898 C-113.15625 125.71484375 -113.15625 125.71484375 -113.22601318 123.79615784 C-111.63065266 120.69225 -109.27620483 118.4439826 -106.81030273 116.02832031 C-106.25420319 115.47178268 -105.69810364 114.91524506 -105.12515259 114.34184265 C-103.28707172 112.50585017 -101.43859668 110.68070936 -99.58984375 108.85546875 C-98.31266614 107.58388689 -97.03614969 106.31164064 -95.76026917 105.03875732 C-92.40161118 101.69154963 -89.03404136 98.35344892 -85.66455078 95.01715088 C-82.22733069 91.61062748 -78.79859523 88.1955879 -75.36914062 84.78125 C-68.63979791 78.08407471 -61.90101188 71.39648754 -55.15625 64.71484375 C-55.64561035 63.89282471 -56.1349707 63.07080566 -56.63916016 62.22387695 C-57.27644043 61.14452881 -57.9137207 60.06518066 -58.5703125 58.953125 C-59.20404785 57.88360596 -59.8377832 56.81408691 -60.49072266 55.7121582 C-65.93922806 45.90692501 -66.12204712 34.53552852 -63.43359375 23.83984375 C-59.69730506 12.19426862 -51.75265892 3.45242004 -40.96875 -2.09765625 C-28.46777315 -8.18080877 -11.80114997 -7.03365641 0 0 Z " fill="#F9EED7" transform="translate(450.15625,5.28515625)"/>
<path d="M0 0 C7.73384665 4.87658182 13.97252765 11.75484406 19.89038086 18.64477539 C23.83556189 23.16000404 28.01356185 27.4078585 32.2578125 31.640625 C33.05018814 32.43395737 33.84256378 33.22728973 34.65895081 34.04466248 C36.32422158 35.71060956 37.99073904 37.37531131 39.65844727 39.03881836 C42.19206497 41.56708009 44.72030042 44.10063536 47.24804688 46.63476562 C48.87598158 48.26203945 50.5042265 49.889003 52.1328125 51.515625 C52.87889267 52.2637294 53.62497284 53.0118338 54.3936615 53.78260803 C58.49239385 57.86333536 62.67834854 61.77474579 67.07475281 65.53387451 C69.26327042 67.45109647 71.21599785 69.51586867 73.13671875 71.69921875 C73.78382813 72.42496094 74.4309375 73.15070313 75.09765625 73.8984375 C78.44125889 78.14465588 79.21974883 81.35955663 79.0703125 86.6953125 C78.53447876 90.7174569 77.27983477 92.78336487 74.76171875 96.01171875 C70.13923546 98.8214635 66.41678908 99.30378543 61.16796875 98.921875 C53.5006316 99.20815545 49.45807775 102.50158153 44.38671875 107.76171875 C43.7333252 108.42985596 43.07993164 109.09799316 42.40673828 109.78637695 C26.09458005 126.92403292 18.07202272 148.5795265 18.51293945 172.11645508 C18.53361481 172.92643951 18.55429016 173.73642395 18.57559204 174.57095337 C18.68052957 178.86836249 18.70488157 183.16636062 18.734375 187.46484375 C18.74121811 188.30328323 18.74806122 189.14172272 18.75511169 190.00556946 C19.08001936 243.64659488 -0.69167464 300.48858721 -36.23828125 341.01171875 C-36.98851562 341.87152344 -37.73875 342.73132813 -38.51171875 343.6171875 C-40.72342664 346.1119638 -42.97097649 348.56747369 -45.23828125 351.01171875 C-45.81449219 351.65367187 -46.39070312 352.295625 -46.984375 352.95703125 C-71.03140373 378.55720883 -107.50992297 394.84980642 -142.23828125 398.01171875 C-144.91525603 398.08890087 -147.5631996 398.12966296 -150.23828125 398.109375 C-150.95943115 398.10796005 -151.68058105 398.1065451 -152.42358398 398.10508728 C-154.69519449 398.09955256 -156.96670125 398.08701298 -159.23828125 398.07421875 C-160.79166523 398.06919529 -162.34505077 398.06463387 -163.8984375 398.06054688 C-167.67842453 398.04960464 -171.45833539 398.03238635 -175.23828125 398.01171875 C-175.23828125 397.68171875 -175.23828125 397.35171875 -175.23828125 397.01171875 C-174.52510742 396.89691162 -173.81193359 396.78210449 -173.07714844 396.66381836 C-136.78933028 390.70224823 -106.05845078 377.68179525 -79.23828125 352.01171875 C-78.45582031 351.29242188 -77.67335938 350.573125 -76.8671875 349.83203125 C-65.94309651 339.44977518 -56.74453661 326.917414 -49.29101562 313.85107422 C-48.53614123 312.53214479 -47.77054515 311.2193296 -46.99804688 309.91064453 C-27.72501747 277.20980011 -13.54480296 236.86126351 -14.28125 198.51953125 C-14.30366392 196.49349965 -14.32511647 194.46745724 -14.34570312 192.44140625 C-14.38246898 189.30437777 -14.42518507 186.16792643 -14.48510742 183.03125 C-15.03420424 152.76138856 -8.51377402 129.29371933 12.76171875 107.01171875 C15.29840488 104.45560929 17.853877 101.91930631 20.41015625 99.3828125 C23.70710045 96.05848504 26.8170184 92.65139705 29.76171875 89.01171875 C30.63376953 87.96757812 30.63376953 87.96757812 31.5234375 86.90234375 C35.28247634 81.96039059 36.44565963 78.06595535 36.55859375 71.8828125 C34.19370596 63.36226089 25.99447494 57.06744871 19.83697701 51.12003899 C18.17038777 49.50738473 16.51324893 47.88556198 14.85862732 46.26063538 C10.15965057 41.64656452 5.45506972 37.03866641 0.71899414 32.46264648 C-2.19049555 29.65016811 -5.08010717 26.81855235 -7.95768929 23.97345161 C-9.05371196 22.89720131 -10.1570016 21.82829905 -11.26760674 20.7671032 C-12.81638214 19.28582217 -14.33857219 17.78139626 -15.85717773 16.26928711 C-17.16572975 14.99643105 -17.16572975 14.99643105 -18.50071716 13.69786072 C-20.23828125 11.01171875 -20.23828125 11.01171875 -20.16053772 7.33155823 C-19.04071422 3.30053823 -17.74795287 2.18437261 -14.23828125 0.01171875 C-9.39558535 -1.60251322 -4.77835031 -2.10981262 0 0 Z " fill="#9E5B29" transform="translate(320.23828125,113.98828125)"/>
<path d="M0 0 C8.98665912 7.38452932 15.4245055 15.79808598 17.3359375 27.5234375 C17.58351825 30.12638104 17.75591062 32.69909974 17.8125 35.3125 C18.46734375 35.32667969 19.1221875 35.34085938 19.796875 35.35546875 C32.62752855 36.02599725 42.15164669 40.86429639 50.8125 50.3125 C57.52642771 58.54522319 60.38744244 67.1098429 60.25 77.6875 C60.24170166 78.51749512 60.23340332 79.34749023 60.22485352 80.20263672 C59.89466007 92.23765905 55.43668994 100.45396371 47.15625 109.02734375 C38.1596743 117.36615094 27.77511241 119.87296012 15.8125 120.3125 C6.0625 119.5625 6.0625 119.5625 2.8125 116.3125 C3.51375 115.91160156 4.215 115.51070313 4.9375 115.09765625 C16.26720438 108.30906979 22.69698329 100.95932389 26.8125 88.3125 C29.31310558 77.98948722 27.9802725 68.01618916 23.8125 58.3125 C22.36465915 56.00895272 20.85709352 53.95661097 19.08203125 51.8984375 C17.8125 50.3125 17.8125 50.3125 16.8125 47.3125 C15.00055477 46.24958774 15.00055477 46.24958774 12.8125 45.3125 C11.22507432 44.3190091 9.64199677 43.3185489 8.0625 42.3125 C0.94537282 38.02971922 -6.00131128 37.03258141 -14.1875 36.3125 C-14.26226562 35.44109375 -14.33703125 34.5696875 -14.4140625 33.671875 C-15.51468284 23.70154961 -17.87406746 14.53860797 -25.1875 7.3125 C-25.1875 6.6525 -25.1875 5.9925 -25.1875 5.3125 C-25.703125 5.085625 -26.21875 4.85875 -26.75 4.625 C-29.52528626 3.13061509 -31.96076706 1.34231176 -34.50390625 -0.51171875 C-36.31863446 -1.77908114 -38.16140396 -2.79601774 -40.1875 -3.6875 C-31.20107675 -12.67392325 -8.83172555 -6.09728745 0 0 Z " fill="#E9E0C3" transform="translate(452.1875,6.6875)"/>
<path d="M0 0 C3.65005579 0.69894685 4.79314611 1.54452045 6.9375 4.5625 C8 7.5 8 7.5 7.9375 10.5625 C5.9375 13.4375 5.9375 13.4375 2.9375 15.5625 C-0.55405423 16.04409369 -2.82831435 16.26187187 -5.9375 14.5 C-7.72100044 11.42841591 -8.0625 9.10611243 -8.0625 5.5625 C-5.63177503 2.10055838 -4.18428713 0.76854253 0 0 Z " fill="#9E5B29" transform="translate(120.0625,434.4375)"/>
<path d="M0 0 C2.65359262 1.93640542 3.7609947 3.37858623 4.9375 6.4375 C5.01929321 9.79102143 3.98804097 11.34927871 2 14 C-1.04983996 15.52491998 -3.6423369 15.23562548 -7 15 C-9.68168885 13.39098669 -9.96054846 12.1296265 -10.875 9.125 C-11.02405268 5.39868289 -10.25133987 3.91840353 -8 1 C-5.15916359 -0.42041821 -3.14522722 -0.31452272 0 0 Z " fill="#9E5B29" transform="translate(173,435)"/>
<path d="M0 0 C2.375 1.625 2.375 1.625 4 4 C4.07635097 8.27565406 3.64385417 10.26416666 0.8125 13.5 C-2 15 -2 15 -5.125 14.9375 C-9.31553861 13.57102002 -9.31553861 13.57102002 -11 11 C-11.9375 8.125 -11.9375 8.125 -12 5 C-8.79482528 -0.15117365 -5.89123343 -1.86795206 0 0 Z " fill="#9E5B29" transform="translate(147,403)"/>
</svg>
