<?xml version="1.0" encoding="UTF-8"?>
<svg version="1.1" xmlns="http://www.w3.org/2000/svg" width="512" height="512">
<path d="M0 0 C1.85766658 -0.00345953 3.71533111 -0.00822607 5.57299137 -0.01418173 C10.66185615 -0.02668078 15.75055168 -0.02052628 20.83941698 -0.01122308 C26.33370123 -0.00442847 31.82795661 -0.01491587 37.32223511 -0.02316284 C48.07927356 -0.03649794 58.83624919 -0.03362341 69.59329009 -0.02492492 C78.33629735 -0.01814792 87.07928701 -0.01723173 95.82229614 -0.02049637 C97.06696657 -0.02095607 98.311637 -0.02141577 99.59402472 -0.0218894 C102.12260207 -0.02284858 104.65117942 -0.02382122 107.17975676 -0.02480717 C130.21075456 -0.03311662 153.24172271 -0.02450152 176.27271332 -0.00877938 C197.28688907 0.00545691 218.30101027 0.004183 239.31518555 -0.01016235 C262.93746101 -0.02623432 286.55971246 -0.03253644 310.18199444 -0.02332556 C312.70123481 -0.02236992 315.22047519 -0.02142681 317.73971558 -0.02049637 C319.59895451 -0.01980213 319.59895451 -0.01980213 321.49575382 -0.01909386 C330.22757421 -0.01650433 338.95937524 -0.0208742 347.69119263 -0.02793503 C358.33332978 -0.03635149 368.97540055 -0.03406675 379.61753011 -0.0180928 C385.04658998 -0.01021212 390.4755392 -0.00711513 395.90459824 -0.01704025 C400.87626949 -0.0259917 405.84772771 -0.02104672 410.81937969 -0.0051076 C412.61601453 -0.00176173 414.41266744 -0.00344949 416.20929062 -0.01073496 C430.78436314 -0.06529571 442.36666618 1.39974001 453.46850586 11.56845093 C459.43923643 17.78511548 462.90106015 25.75119074 462.91522694 34.31317997 C462.91968478 35.56004174 462.92414262 36.80690352 462.92873555 38.09154898 C462.92864625 39.48286189 462.92845639 40.87417479 462.92817688 42.26548767 C462.93147549 43.73762943 462.93520105 45.20977028 462.93931836 46.68190998 C462.94934702 50.73759059 462.95305655 54.79325639 462.95570767 58.84894764 C462.95960822 63.21927656 462.96918681 67.58959373 462.97792053 71.95991516 C462.99769321 82.52016737 463.00775271 93.08042056 463.01664832 103.64068666 C463.02103038 108.61291037 463.02639745 113.58513301 463.03163719 118.55735588 C463.04865117 135.08537989 463.0631451 151.61340324 463.07038593 168.14143467 C463.07229585 172.43164127 463.07421618 176.72184786 463.07617188 181.01205444 C463.07665562 182.07837492 463.07713936 183.1446954 463.07763775 184.24332862 C463.08593709 201.51497411 463.11127163 218.78655032 463.14375255 236.05816556 C463.17682385 253.78820478 463.19483481 271.5182088 463.19803017 289.24827904 C463.20019533 299.20396496 463.20894472 309.15954989 463.23449135 319.11520576 C463.25619938 327.59459147 463.26424829 336.07385166 463.25452457 344.553262 C463.24998001 348.87856398 463.25187502 353.20360699 463.27128601 357.52887344 C463.28891972 361.49241379 463.28791848 365.45550628 463.27238872 369.4190514 C463.27001293 370.8491491 463.27433476 372.27927782 463.28621737 373.70932812 C463.38580123 386.4908793 461.06571504 394.89223648 452.13647461 404.18563843 C440.94634952 414.61490924 428.10347047 414.82086881 413.56201172 414.76190186 C411.70434513 414.76536138 409.84668061 414.77012793 407.98902035 414.77608359 C402.90015557 414.78858264 397.81146004 414.78242813 392.72259474 414.77312493 C387.22831049 414.76633033 381.73405511 414.77681772 376.23977661 414.7850647 C365.48273816 414.7983998 354.72576253 414.79552526 343.96872163 414.78682677 C335.22571437 414.78004978 326.48272471 414.77913358 317.73971558 414.78239822 C316.49504515 414.78285792 315.25037472 414.78331762 313.967987 414.78379125 C311.43940965 414.78475043 308.9108323 414.78572307 306.38225496 414.78670903 C283.35125715 414.79501847 260.32028901 414.78640337 237.2892984 414.77068123 C216.27512265 414.75644495 195.26100144 414.75771885 174.24682617 414.77206421 C150.62455071 414.78813618 127.00229926 414.7944383 103.38001728 414.78522742 C100.86077691 414.78427178 98.34153653 414.78332867 95.82229614 414.78239822 C94.58280352 414.7819354 93.3433109 414.78147257 92.06625789 414.78099572 C83.33443751 414.77840618 74.60263648 414.78277606 65.87081909 414.78983688 C55.22868194 414.79825334 44.58661117 414.79596861 33.94448161 414.77999465 C28.51542174 414.77211397 23.08647252 414.76901698 17.65741348 414.77894211 C12.68574223 414.78789356 7.71428401 414.78294858 2.74263203 414.76700945 C0.94599719 414.76366358 -0.85065572 414.76535134 -2.6472789 414.77263682 C-17.22235142 414.82719757 -28.80465446 413.36216184 -39.90649414 403.19345093 C-45.87722471 396.97678637 -49.33904843 389.01071111 -49.35321522 380.44872189 C-49.35767306 379.20186011 -49.36213091 377.95499834 -49.36672384 376.67035288 C-49.36663454 375.27903997 -49.36644468 373.88772707 -49.36616516 372.49641418 C-49.36946377 371.02427243 -49.37318934 369.55213157 -49.37730664 368.07999188 C-49.3873353 364.02431127 -49.39104483 359.96864546 -49.39369595 355.91295421 C-49.3975965 351.54262529 -49.40717509 347.17230812 -49.41590881 342.80198669 C-49.43568149 332.24173448 -49.44574099 321.6814813 -49.4546366 311.12121519 C-49.45901867 306.14899148 -49.46438573 301.17676884 -49.46962547 296.20454597 C-49.48663945 279.67652196 -49.50113338 263.14849861 -49.50837421 246.62046719 C-49.51028413 242.33026059 -49.51220446 238.04005399 -49.51416016 233.74984741 C-49.5146439 232.68352693 -49.51512764 231.61720645 -49.51562604 230.51857323 C-49.52392537 213.24692774 -49.54925991 195.97535154 -49.58174083 178.7037363 C-49.61481213 160.97369707 -49.63282309 143.24369305 -49.63601846 125.51362282 C-49.63818361 115.55793689 -49.646933 105.60235196 -49.67247963 95.64669609 C-49.69418766 87.16731038 -49.70223657 78.6880502 -49.69251285 70.20863985 C-49.68796829 65.88333787 -49.6898633 61.55829487 -49.70927429 57.23302841 C-49.726908 53.26948807 -49.72590676 49.30639557 -49.710377 45.34285045 C-49.70800121 43.91275276 -49.71232305 42.48262404 -49.72420565 41.05257373 C-49.82378951 28.27102256 -47.50370332 19.86966538 -38.57446289 10.57626343 C-27.3843378 0.14699262 -14.54145875 -0.05896696 0 0 Z " fill="#D8D8D8" transform="translate(49.218994140625,48.619049072265625)"/>
<path d="M0 0 C9.05603605 1.24585149 17.36184695 6.36685842 25.18896484 10.81738281 C32.33173124 14.55452641 41.38978333 14.55910015 49.06005859 12.39941406 C52.10999697 11.1491033 55.02910132 9.76696108 57.96630859 8.27050781 C59.82434913 7.33367642 61.68313145 6.39834307 63.54248047 5.46411133 C65.31507347 4.56549223 67.07658288 3.6451083 68.83740234 2.72363281 C78.36368584 -1.70055877 92.54171772 -1.27499787 102.58740234 1.14160156 C105.51012931 2.35114257 108.20565842 3.72745369 110.96630859 5.27050781 C112.84527949 6.21943661 114.73364446 7.14794968 116.62255859 8.0769043 C118.43429397 8.97372259 120.23390353 9.89491547 122.03271484 10.81738281 C129.30864192 14.42143723 138.61087203 14.59497837 146.40380859 12.27050781 C151.3224087 10.35669161 155.96334111 7.71299128 160.5637207 5.13964844 C172.04468482 -1.24186042 185.56213757 -1.42374421 198.39208984 0.88769531 C201.09126888 1.81336218 203.45558278 2.91224631 205.96630859 4.27050781 C207.24597274 4.94162209 208.52594678 5.61214566 209.80615234 6.28222656 C211.83018137 7.34912673 213.84515364 8.4252839 215.84326172 9.54003906 C224.03065158 14.09922321 232.78143731 14.67433722 241.97802734 12.58691406 C247.53938576 10.67494919 252.41052145 8.00632944 257.28662109 4.73535156 C264.73102494 0.66588882 271.81027497 -0.28393631 280.21630859 -0.22949219 C281.73647583 -0.22199951 281.73647583 -0.22199951 283.28735352 -0.21435547 C294.72089278 0.05105127 303.11611094 3.65446449 312.64990234 9.93847656 C319.97332726 14.14975463 327.78924806 14.06263477 335.96630859 13.27050781 C340.24505878 12.08284977 344.02644988 10.30089536 347.96630859 8.27050781 C349.82285398 7.33213971 351.68117027 6.39738171 353.5402832 5.46411133 C355.31388377 4.56604161 357.07600654 3.64540991 358.83740234 2.72363281 C363.91469308 0.36564011 368.45962827 0.07117832 374.02880859 -0.04199219 C375.23666016 -0.079375 376.44451172 -0.11675781 377.68896484 -0.15527344 C380.96630859 0.27050781 380.96630859 0.27050781 383.37255859 2.10253906 C385.52424144 5.02946059 385.4851337 6.71284992 384.96630859 10.27050781 C383.18646455 13.40642351 382.44322652 14.11153517 378.96630859 15.27050781 C378.63630859 22.20050781 378.30630859 29.13050781 377.96630859 36.27050781 C379.61630859 36.60050781 381.26630859 36.93050781 382.96630859 37.27050781 C385.31180534 40.78875293 385.54622262 42.12826475 384.96630859 46.27050781 C382.59130859 49.14550781 382.59130859 49.14550781 379.96630859 51.27050781 C379.30630859 51.27050781 378.64630859 51.27050781 377.96630859 51.27050781 C377.96630859 57.87050781 377.96630859 64.47050781 377.96630859 71.27050781 C379.61630859 71.93050781 381.26630859 72.59050781 382.96630859 73.27050781 C384.96630859 76.27050781 384.96630859 76.27050781 384.77880859 79.77050781 C383.68209807 84.49479931 383.68209807 84.49479931 380.96630859 86.27050781 C379.97630859 86.27050781 378.98630859 86.27050781 377.96630859 86.27050781 C377.96630859 93.20050781 377.96630859 100.13050781 377.96630859 107.27050781 C379.61630859 107.93050781 381.26630859 108.59050781 382.96630859 109.27050781 C384.96630859 112.27050781 384.96630859 112.27050781 384.77880859 115.77050781 C383.68209807 120.49479931 383.68209807 120.49479931 380.96630859 122.27050781 C379.97630859 122.27050781 378.98630859 122.27050781 377.96630859 122.27050781 C377.96630859 129.20050781 377.96630859 136.13050781 377.96630859 143.27050781 C379.61630859 143.93050781 381.26630859 144.59050781 382.96630859 145.27050781 C384.96630859 148.27050781 384.96630859 148.27050781 384.77880859 151.77050781 C383.68209807 156.49479931 383.68209807 156.49479931 380.96630859 158.27050781 C379.97630859 158.27050781 378.98630859 158.27050781 377.96630859 158.27050781 C377.96630859 165.20050781 377.96630859 172.13050781 377.96630859 179.27050781 C379.61630859 179.93050781 381.26630859 180.59050781 382.96630859 181.27050781 C384.96630859 184.27050781 384.96630859 184.27050781 384.77880859 187.77050781 C383.68209807 192.49479931 383.68209807 192.49479931 380.96630859 194.27050781 C379.97630859 194.27050781 378.98630859 194.27050781 377.96630859 194.27050781 C377.96630859 201.20050781 377.96630859 208.13050781 377.96630859 215.27050781 C379.61630859 215.93050781 381.26630859 216.59050781 382.96630859 217.27050781 C384.96630859 219.27050781 384.96630859 219.27050781 385.40380859 222.08300781 C384.82766139 226.28065171 383.20173431 227.65135366 379.96630859 230.27050781 C379.30630859 230.27050781 378.64630859 230.27050781 377.96630859 230.27050781 C377.96630859 237.20050781 377.96630859 244.13050781 377.96630859 251.27050781 C379.28630859 251.60050781 380.60630859 251.93050781 381.96630859 252.27050781 C383.71630859 253.45800781 383.71630859 253.45800781 384.96630859 255.27050781 C385.46630859 258.14550781 385.46630859 258.14550781 384.96630859 261.27050781 C382.46837645 264.36101511 380.96003808 266.06545252 377.01318359 266.87988281 C375.92521484 266.92628906 374.83724609 266.97269531 373.71630859 267.02050781 C366.51835267 267.78495949 361.30998302 270.28833071 355.09228516 273.90820312 C346.35992218 278.96866867 338.76438911 280.83655179 328.65380859 280.77050781 C327.63561035 280.7647876 326.61741211 280.75906738 325.56835938 280.75317383 C317.74343921 280.56722397 311.78188699 279.23396827 304.96630859 275.27050781 C302.65485233 274.01857882 300.34232614 272.76862351 298.02880859 271.52050781 C296.46839844 270.63105469 296.46839844 270.63105469 294.87646484 269.72363281 C287.64497391 266.11274069 278.13697245 266.055247 270.35693359 267.88378906 C264.37314255 270.16285042 258.73467951 273.43528203 253.14233398 276.54003906 C246.32898046 280.29764701 240.9960136 280.47984537 233.34130859 280.52050781 C232.39384766 280.54113281 231.44638672 280.56175781 230.47021484 280.58300781 C220.61707621 280.63692376 212.69749579 278.08152583 204.21630859 273.20800781 C195.1098083 268.04891981 186.54775567 265.28710863 175.96630859 267.27050781 C170.98311948 269.00891261 166.41073963 271.69360014 161.80957031 274.24853516 C148.96234592 281.37151281 134.75029236 282.38016147 120.39208984 279.57128906 C114.93644422 277.72679832 110.22427329 274.68335429 105.34912109 271.66503906 C96.8186503 266.67261599 86.93620859 265.5535823 77.30224609 267.92675781 C71.29007506 270.19845762 65.71302706 273.50712418 60.14208984 276.68457031 C49.43985186 282.02910736 34.83505486 282.14163219 23.28662109 279.39550781 C20.37091125 278.1944566 17.70229933 276.83727174 14.96630859 275.27050781 C6.85624051 270.88617866 -0.03141363 267.84073844 -9.29931641 266.77832031 C-11.99739895 266.27724784 -13.32413985 265.8267224 -15.34619141 264.02050781 C-17.38092559 260.70464469 -17.76512623 259.09022302 -17.03369141 255.27050781 C-15.28369141 252.89550781 -15.28369141 252.89550781 -13.03369141 251.27050781 C-11.71369141 251.27050781 -10.39369141 251.27050781 -9.03369141 251.27050781 C-9.03369141 244.34050781 -9.03369141 237.41050781 -9.03369141 230.27050781 C-10.68369141 229.94050781 -12.33369141 229.61050781 -14.03369141 229.27050781 C-16.49147425 226.98222723 -16.98485817 225.60536432 -17.47119141 222.27050781 C-17.03369141 219.27050781 -17.03369141 219.27050781 -15.28369141 216.89550781 C-13.03369141 215.27050781 -13.03369141 215.27050781 -9.03369141 215.27050781 C-9.03369141 208.34050781 -9.03369141 201.41050781 -9.03369141 194.27050781 C-10.68369141 193.94050781 -12.33369141 193.61050781 -14.03369141 193.27050781 C-15.90869141 191.64550781 -15.90869141 191.64550781 -17.03369141 189.27050781 C-16.96585403 185.4037773 -16.89616791 183.16173353 -14.15869141 180.33300781 C-12.03369141 179.27050781 -12.03369141 179.27050781 -9.03369141 179.27050781 C-9.03369141 172.34050781 -9.03369141 165.41050781 -9.03369141 158.27050781 C-10.68369141 157.94050781 -12.33369141 157.61050781 -14.03369141 157.27050781 C-15.90869141 155.64550781 -15.90869141 155.64550781 -17.03369141 153.27050781 C-16.96585403 149.4037773 -16.89616791 147.16173353 -14.15869141 144.33300781 C-12.03369141 143.27050781 -12.03369141 143.27050781 -9.03369141 143.27050781 C-9.03369141 136.34050781 -9.03369141 129.41050781 -9.03369141 122.27050781 C-10.68369141 121.94050781 -12.33369141 121.61050781 -14.03369141 121.27050781 C-15.90869141 119.64550781 -15.90869141 119.64550781 -17.03369141 117.27050781 C-16.96585403 113.4037773 -16.89616791 111.16173353 -14.15869141 108.33300781 C-12.03369141 107.27050781 -12.03369141 107.27050781 -9.03369141 107.27050781 C-9.36369141 100.67050781 -9.69369141 94.07050781 -10.03369141 87.27050781 C-11.68369141 86.61050781 -13.33369141 85.95050781 -15.03369141 85.27050781 C-17.37918815 81.7522627 -17.61360543 80.41275087 -17.03369141 76.27050781 C-14.72119141 73.39550781 -14.72119141 73.39550781 -12.03369141 71.27050781 C-11.04369141 71.27050781 -10.05369141 71.27050781 -9.03369141 71.27050781 C-9.03369141 64.67050781 -9.03369141 58.07050781 -9.03369141 51.27050781 C-10.35369141 50.94050781 -11.67369141 50.61050781 -13.03369141 50.27050781 C-15.9831934 48.05838132 -16.92171418 46.94237115 -17.53369141 43.27050781 C-16.92518765 39.61948528 -15.92988267 38.5047125 -13.03369141 36.27050781 C-11.54869141 35.77550781 -11.54869141 35.77550781 -10.03369141 35.27050781 C-9.70369141 28.67050781 -9.37369141 22.07050781 -9.03369141 15.27050781 C-10.68369141 14.94050781 -12.33369141 14.61050781 -14.03369141 14.27050781 C-16.49147425 11.98222723 -16.98485817 10.60536432 -17.47119141 7.27050781 C-16.14487549 -1.8242299 -7.20959572 -0.61614592 0 0 Z " fill="#E4636D" transform="translate(72.03369140625,115.7294921875)"/>
<path d="M0 0 C2.48343378 -0.30068607 4.71929685 -0.40213106 7.20585632 -0.37752342 C7.96057948 -0.38188374 8.71530264 -0.38624407 9.4928962 -0.39073652 C12.04842039 -0.40177613 14.60341436 -0.39123072 17.15893555 -0.38095093 C18.99890007 -0.38440406 20.83886252 -0.38916629 22.67882061 -0.39513266 C27.75559832 -0.40771967 32.83220805 -0.40143748 37.90898657 -0.39217401 C43.37599196 -0.3854152 48.84296749 -0.39584893 54.30996704 -0.40411377 C65.02798542 -0.41748731 75.74594095 -0.41455729 86.46396184 -0.40587585 C95.17099733 -0.39911391 103.87801514 -0.39817611 112.58505249 -0.4014473 C113.82201518 -0.401907 115.05897786 -0.40236669 116.33342427 -0.40284032 C118.84591175 -0.40379945 121.35839922 -0.40477209 123.87088668 -0.4057581 C146.78412547 -0.41407822 169.69733672 -0.40543478 192.61056904 -0.38973031 C213.54280662 -0.37549271 234.47498946 -0.37676656 255.40722656 -0.39111328 C278.90631241 -0.40716533 302.40537415 -0.41349853 325.90446568 -0.40427649 C328.40795962 -0.40332079 330.91145356 -0.40237768 333.41494751 -0.4014473 C334.64686929 -0.40098447 335.87879107 -0.40052164 337.14804381 -0.40004479 C345.84946627 -0.39744929 354.55086936 -0.40183793 363.25228882 -0.40888596 C373.84946752 -0.41728044 384.44657951 -0.4150642 395.04375052 -0.39904372 C400.45556165 -0.39113327 405.86726138 -0.38811638 411.27907181 -0.39799118 C416.22597226 -0.40688148 421.17265726 -0.4020996 426.11953795 -0.38605852 C427.91626954 -0.38268653 429.71301906 -0.38445844 431.50973928 -0.39168589 C433.93813881 -0.40071062 436.36578463 -0.39155297 438.79414368 -0.37752342 C439.50385602 -0.38454692 440.21356837 -0.39157042 440.94478714 -0.39880675 C442.89413929 -0.37604749 442.89413929 -0.37604749 446 0 C448.29348397 3.44022596 448.25042105 4.68487868 448.25168228 8.73313904 C448.25689778 9.93555017 448.26211327 11.13796129 448.26748681 12.37680912 C448.26316233 13.71792217 448.258649 15.05903463 448.25396729 16.40014648 C448.25627039 17.81953053 448.2594459 19.23891338 448.26342177 20.65829372 C448.27179908 24.56789746 448.26763125 28.47740402 448.26144934 32.38700819 C448.25693781 36.59973795 448.26390213 40.8124506 448.26940918 45.025177 C448.27831876 53.28155892 448.27637422 61.53790456 448.2705839 69.79428792 C448.26607355 76.50233716 448.26545178 83.2103762 448.26763153 89.91842651 C448.267938 90.87187814 448.26824446 91.82532977 448.26856022 92.80767387 C448.26919964 94.74438008 448.26984807 96.68108628 448.2705054 98.61779249 C448.27621328 116.79325063 448.26964363 134.96868862 448.25890467 153.14414346 C448.24996874 168.75137917 448.25152065 184.35858514 448.26074219 199.96582031 C448.27143675 218.07468818 448.27566391 236.18353836 448.26951766 254.29240894 C448.26888054 256.22213045 448.2682518 258.15185197 448.26763153 260.08157349 C448.26732298 261.03112032 448.26701443 261.98066715 448.26669653 262.95898813 C448.26496714 269.66169911 448.26788993 276.36439891 448.27259064 283.06710815 C448.27819044 291.23156762 448.27670206 299.39598861 448.26602915 307.56044364 C448.26076026 311.72885618 448.25873632 315.89720449 448.26532745 320.06561661 C448.27126395 323.87757019 448.2680501 327.68939969 448.25737235 331.50134194 C448.25512851 332.88420238 448.25629649 334.26707319 448.26112393 335.64992702 C448.26716126 337.52223125 448.25980342 339.39456462 448.25168228 341.26686096 C448.25135758 342.30908593 448.25103287 343.3513109 448.25069833 344.42511845 C448 347 448 347 446 350 C443.51656622 350.30068607 441.28070315 350.40213106 438.79414368 350.37752342 C438.03942052 350.38188374 437.28469736 350.38624407 436.5071038 350.39073652 C433.95157961 350.40177613 431.39658564 350.39123072 428.84106445 350.38095093 C427.00109993 350.38440406 425.16113748 350.38916629 423.32117939 350.39513266 C418.24440168 350.40771967 413.16779195 350.40143748 408.09101343 350.39217401 C402.62400804 350.3854152 397.15703251 350.39584893 391.69003296 350.40411377 C380.97201458 350.41748731 370.25405905 350.41455729 359.53603816 350.40587585 C350.82900267 350.39911391 342.12198486 350.39817611 333.41494751 350.4014473 C331.55950348 350.40213684 331.55950348 350.40213684 329.66657573 350.40284032 C327.15408825 350.40379945 324.64160078 350.40477209 322.12911332 350.4057581 C299.21587453 350.41407822 276.30266328 350.40543478 253.38943096 350.38973031 C232.45719338 350.37549271 211.52501054 350.37676656 190.59277344 350.39111328 C167.09368759 350.40716533 143.59462585 350.41349853 120.09553432 350.40427649 C117.59204038 350.40332079 115.08854644 350.40237768 112.58505249 350.4014473 C111.35313071 350.40098447 110.12120893 350.40052164 108.85195619 350.40004479 C100.15053373 350.39744929 91.44913064 350.40183793 82.74771118 350.40888596 C72.15053248 350.41728044 61.55342049 350.4150642 50.95624948 350.39904372 C45.54443835 350.39113327 40.13273862 350.38811638 34.72092819 350.39799118 C29.77402774 350.40688148 24.82734274 350.4020996 19.88046205 350.38605852 C18.08373046 350.38268653 16.28698094 350.38445844 14.49026072 350.39168589 C12.06186119 350.40071062 9.63421537 350.39155297 7.20585632 350.37752342 C6.49614398 350.38454692 5.78643163 350.39157042 5.05521286 350.39880675 C3.10586071 350.37604749 3.10586071 350.37604749 0 350 C-2.29348397 346.55977404 -2.25042105 345.31512132 -2.25168228 341.26686096 C-2.25689778 340.06444983 -2.26211327 338.86203871 -2.26748681 337.62319088 C-2.26316233 336.28207783 -2.258649 334.94096537 -2.25396729 333.59985352 C-2.25627039 332.18046947 -2.2594459 330.76108662 -2.26342177 329.34170628 C-2.27179908 325.43210254 -2.26763125 321.52259598 -2.26144934 317.61299181 C-2.25693781 313.40026205 -2.26390213 309.1875494 -2.26940918 304.974823 C-2.27831876 296.71844108 -2.27637422 288.46209544 -2.2705839 280.20571208 C-2.26607355 273.49766284 -2.26545178 266.7896238 -2.26763153 260.08157349 C-2.267938 259.12812186 -2.26824446 258.17467023 -2.26856022 257.19232613 C-2.26919964 255.25561992 -2.26984807 253.31891372 -2.2705054 251.38220751 C-2.27621328 233.20674937 -2.26964363 215.03131138 -2.25890467 196.85585654 C-2.24996874 181.24862083 -2.25152065 165.64141486 -2.26074219 150.03417969 C-2.27143675 131.92531182 -2.27566391 113.81646164 -2.26951766 95.70759106 C-2.26888054 93.77786955 -2.2682518 91.84814803 -2.26763153 89.91842651 C-2.26732298 88.96887968 -2.26701443 88.01933285 -2.26669653 87.04101187 C-2.26496714 80.33830089 -2.26788993 73.63560109 -2.27259064 66.93289185 C-2.27819044 58.76843238 -2.27670206 50.60401139 -2.26602915 42.43955636 C-2.26076026 38.27114382 -2.25873632 34.10279551 -2.26532745 29.93438339 C-2.27126395 26.12242981 -2.2680501 22.31060031 -2.25737235 18.49865806 C-2.25512851 17.11579762 -2.25629649 15.73292681 -2.26112393 14.35007298 C-2.26716126 12.47776875 -2.25980342 10.60543538 -2.25168228 8.73313904 C-2.25135758 7.69091407 -2.25103287 6.6486891 -2.25069833 5.57488155 C-2 3 -2 3 0 0 Z M23.57421875 36.83984375 C21.79020263 38.96531876 21.79020263 38.96531876 21.4375 41.9375 C22.18444915 46.00422314 23.80045188 47.47012474 27 50 C27.99 50 28.98 50 30 50 C29.67 56.6 29.34 63.2 29 70 C27.35 70.66 25.7 71.32 24 72 C21.65450326 75.51824511 21.42008597 76.85775694 22 81 C24.18802581 83.93854074 24.18802581 83.93854074 27 86 C27.99 86 28.98 86 30 86 C30 92.6 30 99.2 30 106 C28.02 106.495 28.02 106.495 26 107 C23.050498 109.2121265 22.11197722 110.32813666 21.5 114 C22.10850376 117.65102254 23.10380874 118.76579531 26 121 C26.99 121.33 27.98 121.66 29 122 C29.33 128.6 29.66 135.2 30 142 C27.525 142.495 27.525 142.495 25 143 C22.97103788 144.53813421 22.97103788 144.53813421 22 147 C22.12317693 150.51054264 22.32129553 152.99810293 24.3125 155.9375 C26.23179989 157.35520885 26.23179989 157.35520885 30 157 C30 163.93 30 170.86 30 178 C28.35 178.33 26.7 178.66 25 179 C22.97103788 180.53813421 22.97103788 180.53813421 22 183 C22.12317693 186.51054264 22.32129553 188.99810293 24.3125 191.9375 C26.23179989 193.35520885 26.23179989 193.35520885 30 193 C30 199.93 30 206.86 30 214 C28.35 214.33 26.7 214.66 25 215 C22.97103788 216.53813421 22.97103788 216.53813421 22 219 C22.12317693 222.51054264 22.32129553 224.99810293 24.3125 227.9375 C26.23179989 229.35520885 26.23179989 229.35520885 30 229 C30 235.93 30 242.86 30 250 C28.35 250.33 26.7 250.66 25 251 C23.08333333 252.08333333 23.08333333 252.08333333 22 254 C21.414573 257.84709172 21.71410533 259.53031591 23.75 262.875 C25.96886633 265.45774902 25.96886633 265.45774902 30 265 C30 271.93 30 278.86 30 286 C28.35 286.33 26.7 286.66 25 287 C23.08333333 288.08333333 23.08333333 288.08333333 22 290 C21.34236545 293.78139867 21.67444951 295.46947328 23.6875 298.75 C26.4942899 301.25102228 29.14588936 301.41672441 32.8125 301.8125 C40.14238523 302.66848433 45.5984112 305.47023132 51.98046875 308.9296875 C60.57754774 313.4495902 67.64934245 315.68860902 77.4375 315.5 C78.96407227 315.47969727 78.96407227 315.47969727 80.52148438 315.45898438 C87.72240532 315.25985923 93.59971114 314.46245135 100 311 C101.27966415 310.32888573 102.55963819 309.65836215 103.83984375 308.98828125 C105.86387277 307.92138108 107.87884505 306.84522391 109.87695312 305.73046875 C118.06434298 301.1712846 126.81512871 300.59617059 136.01171875 302.68359375 C141.57307717 304.59555863 146.44421286 307.26417838 151.3203125 310.53515625 C158.7640803 314.6042713 165.84442385 315.55580929 174.25 315.5 C175.26779541 315.49355469 176.28559082 315.48710937 177.33422852 315.48046875 C187.12412828 315.24304318 194.30981923 312.60591404 202.80859375 307.88671875 C212.94218848 302.34580998 221.44505235 299.53119453 233.11328125 302.8984375 C236.18147256 304.10945871 239.06797744 305.48899605 242 307 C243.85654538 307.9383681 245.71486168 308.87312611 247.57397461 309.80639648 C249.34757517 310.70446621 251.10969795 311.6250979 252.87109375 312.546875 C258.98142359 315.38463118 265.06455367 315.24596002 271.6875 315.3125 C273.10192383 315.35600586 273.10192383 315.35600586 274.54492188 315.40039062 C284.18543769 315.48652582 291.50563294 312.0304013 299.75 307.375 C309.15521499 302.0700881 317.62790461 300.6138006 328.3828125 302.39453125 C334.12977637 304.08802821 339.39049557 307.2182342 344.59741211 310.13085938 C355.76167622 316.33633564 370.4938058 317.47924426 382.94140625 314.125 C387.2734697 312.50911376 391.16889853 310.4763755 395.17578125 308.1796875 C402.24901385 304.1305795 407.71060801 302.1496211 415.90625 301.6796875 C419.91852909 300.79820194 421.45086456 299.15718609 424 296 C424.75015195 292.95691709 424.75015195 292.95691709 424 290 C422.31167984 287.5608859 422.31167984 287.5608859 420 286 C419.01 286 418.02 286 417 286 C417 279.07 417 272.14 417 265 C418.65 264.34 420.3 263.68 422 263 C424.33043558 259.50434664 424.58763244 258.1134271 424 254 C421.02093958 250.86612729 421.02093958 250.86612729 417 250 C417 243.07 417 236.14 417 229 C418.32 228.67 419.64 228.34 421 228 C422.96057155 226.44245747 422.96057155 226.44245747 424 224 C423.93146246 220.09336034 423.87650389 217.87650389 421.0625 215.0625 C419.09035663 213.8473478 419.09035663 213.8473478 417 214 C417 207.07 417 200.14 417 193 C418.32 192.67 419.64 192.34 421 192 C422.96057155 190.44245747 422.96057155 190.44245747 424 188 C423.93146246 184.09336034 423.87650389 181.87650389 421.0625 179.0625 C419.09035663 177.8473478 419.09035663 177.8473478 417 178 C417 171.07 417 164.14 417 157 C418.32 156.67 419.64 156.34 421 156 C422.96057155 154.44245747 422.96057155 154.44245747 424 152 C423.93146246 148.09336034 423.87650389 145.87650389 421.0625 143.0625 C419.09035663 141.8473478 419.09035663 141.8473478 417 142 C417 135.07 417 128.14 417 121 C418.65 120.67 420.3 120.34 422 120 C423.60312943 117.86249409 423.96737236 116.18178257 424.4375 113.5625 C423.80126543 109.83598325 421.83879689 108.36566407 419 106 C418.34 106 417.68 106 417 106 C417 99.4 417 92.8 417 86 C418.65 85.34 420.3 84.68 422 84 C424.32749345 80.50875983 424.50299316 79.10777749 424 75 C422.31167984 72.5608859 422.31167984 72.5608859 420 71 C419.01 71 418.02 71 417 71 C417.02277466 67.56102661 417.10003904 64.1253887 417.1875 60.6875 C417.19620117 59.22280273 417.19620117 59.22280273 417.20507812 57.72851562 C417.28760674 55.06009027 417.40754555 52.60415112 418 50 C420.48828125 47.95703125 420.48828125 47.95703125 423 47 C424.42041821 44.15916359 424.31452272 42.14522722 424 39 C421.78881633 36.01409504 420.60504871 35.09677731 416.8984375 34.50390625 C404.92976399 34.70294184 396.65391932 37.3325256 386.35180664 43.13085938 C377.40109251 48.1483053 367.60721351 49.9974916 357.515625 47.34765625 C355.25289502 46.35664857 353.1506339 45.21634212 351 44 C349.23102308 43.0994664 347.46164978 42.19962958 345.68579102 41.31274414 C343.89491836 40.41625752 342.11321723 39.50151907 340.33203125 38.5859375 C329.6615022 33.50711594 315.36208061 32.77719908 303.8828125 35.9453125 C298.45859105 37.97460947 293.68954281 40.69173222 288.8671875 43.86328125 C281.17910853 48.54368079 272.80111557 48.88615351 264 48 C256.86618823 46.24269739 250.50758241 42.19735086 244.17578125 38.5859375 C233.44969728 33.22949212 218.85955617 33.14874807 207.28515625 35.875 C204.36586923 37.06622584 201.72485763 38.41541468 199 40 C196.68854374 41.25192899 194.37601755 42.5018843 192.0625 43.75 C191.02222656 44.34296875 189.98195312 44.9359375 188.91015625 45.546875 C181.83000572 49.08219849 172.17123256 49.38455581 164.578125 47.3515625 C162.30333029 46.3509949 160.17118715 45.21011239 158 44 C156.2300282 43.09998037 154.45971265 42.20057136 152.68359375 41.31274414 C150.89372604 40.41570841 149.11263681 39.50122072 147.33203125 38.5859375 C140.40468288 35.28874707 134.83251536 34.66188339 127.25 34.6875 C125.84234375 34.66333008 125.84234375 34.66333008 124.40625 34.63867188 C114.61639962 34.63191093 106.67640486 37.22046139 98.25 42.0625 C88.60514583 47.52658058 79.46535119 50.09129238 68.359375 47.34765625 C65.8149529 46.36611594 63.42968512 45.24000202 61 44 C59.20444283 43.10421648 57.40888376 42.20843678 55.61328125 41.31274414 C53.83424188 40.41739689 52.06526463 39.50213937 50.296875 38.5859375 C44.50128487 35.79801144 39.83086643 34.68968804 33.375 34.625 C32.08335938 34.59664062 30.79171875 34.56828125 29.4609375 34.5390625 C25.96065679 34.71533612 25.96065679 34.71533612 23.57421875 36.83984375 Z " fill="#F1F1F1" transform="translate(33,81)"/>
<path d="M0 0 C9.05603605 1.24585149 17.36184695 6.36685842 25.18896484 10.81738281 C32.33173124 14.55452641 41.38978333 14.55910015 49.06005859 12.39941406 C52.10999697 11.1491033 55.02910132 9.76696108 57.96630859 8.27050781 C59.82434913 7.33367642 61.68313145 6.39834307 63.54248047 5.46411133 C65.31507347 4.56549223 67.07658288 3.6451083 68.83740234 2.72363281 C78.36368584 -1.70055877 92.54171772 -1.27499787 102.58740234 1.14160156 C105.51012931 2.35114257 108.20565842 3.72745369 110.96630859 5.27050781 C112.84527949 6.21943661 114.73364446 7.14794968 116.62255859 8.0769043 C118.43429397 8.97372259 120.23390353 9.89491547 122.03271484 10.81738281 C129.30864192 14.42143723 138.61087203 14.59497837 146.40380859 12.27050781 C151.3224087 10.35669161 155.96334111 7.71299128 160.5637207 5.13964844 C172.04468482 -1.24186042 185.56213757 -1.42374421 198.39208984 0.88769531 C201.09126888 1.81336218 203.45558278 2.91224631 205.96630859 4.27050781 C207.24597274 4.94162209 208.52594678 5.61214566 209.80615234 6.28222656 C211.83018137 7.34912673 213.84515364 8.4252839 215.84326172 9.54003906 C224.03065158 14.09922321 232.78143731 14.67433722 241.97802734 12.58691406 C247.53938576 10.67494919 252.41052145 8.00632944 257.28662109 4.73535156 C264.73102494 0.66588882 271.81027497 -0.28393631 280.21630859 -0.22949219 C281.73647583 -0.22199951 281.73647583 -0.22199951 283.28735352 -0.21435547 C294.72089278 0.05105127 303.11611094 3.65446449 312.64990234 9.93847656 C319.97332726 14.14975463 327.78924806 14.06263477 335.96630859 13.27050781 C340.24505878 12.08284977 344.02644988 10.30089536 347.96630859 8.27050781 C349.82285398 7.33213971 351.68117027 6.39738171 353.5402832 5.46411133 C355.31388377 4.56604161 357.07600654 3.64540991 358.83740234 2.72363281 C363.91469308 0.36564011 368.45962827 0.07117832 374.02880859 -0.04199219 C375.23666016 -0.079375 376.44451172 -0.11675781 377.68896484 -0.15527344 C380.96630859 0.27050781 380.96630859 0.27050781 383.37255859 2.10253906 C385.52424144 5.02946059 385.4851337 6.71284992 384.96630859 10.27050781 C383.18646455 13.40642351 382.44322652 14.11153517 378.96630859 15.27050781 C378.63630859 22.20050781 378.30630859 29.13050781 377.96630859 36.27050781 C379.61630859 36.60050781 381.26630859 36.93050781 382.96630859 37.27050781 C385.31180534 40.78875293 385.54622262 42.12826475 384.96630859 46.27050781 C382.59130859 49.14550781 382.59130859 49.14550781 379.96630859 51.27050781 C379.30630859 51.27050781 378.64630859 51.27050781 377.96630859 51.27050781 C377.96630859 57.87050781 377.96630859 64.47050781 377.96630859 71.27050781 C377.63630859 71.27050781 377.30630859 71.27050781 376.96630859 71.27050781 C376.96630859 64.67050781 376.96630859 58.07050781 376.96630859 51.27050781 C369.66837825 51.98250102 364.22706741 53.32426509 357.96630859 57.14550781 C344.27912574 65.36857876 329.82408217 68.06827568 314.07568359 64.35253906 C308.08827269 62.16046564 302.67198529 59.14586376 297.38037109 55.60253906 C289.81524048 51.42825178 280.39507081 50.74591572 271.96630859 52.27050781 C266.9045559 53.9860837 262.2986628 56.64017244 257.68310547 59.30029297 C255.43753032 60.56933671 253.13423033 61.65898721 250.77880859 62.70800781 C250.14587891 62.99546875 249.51294922 63.28292969 248.86083984 63.57910156 C239.36746415 67.04369434 224.94677969 66.90092524 215.49365234 63.46191406 C211.37729689 61.52143738 207.35827025 59.39348517 203.40478516 57.13964844 C194.65303959 52.20420712 184.90455282 50.46924295 174.96630859 52.27050781 C169.9231032 53.99269041 165.34378335 56.6683916 160.73046875 59.30029297 C148.92720677 65.79159703 135.01538801 67.24017756 121.83740234 64.65722656 C119.08545929 63.70349973 116.57192955 62.57511527 113.96630859 61.27050781 C112.5952589 60.59984483 111.22416117 59.92928003 109.85302734 59.25878906 C107.01201386 57.85803572 104.18808499 56.42874854 101.37255859 54.97753906 C93.98785161 51.27671687 84.46319761 50.87952675 76.40380859 52.91894531 C74.16477947 53.91124231 72.08989774 55.04944405 69.96630859 56.27050781 C68.21499707 57.17227258 66.46314885 58.07312376 64.703125 58.95776367 C62.92682561 59.85243531 61.16109522 60.76799957 59.39599609 61.68457031 C48.99323472 66.49495883 35.20351557 67.44809094 24.05615234 64.36035156 C17.99907787 62.11511895 12.61934247 58.98161426 7.16162109 55.55957031 C2.54017572 52.84591022 -1.92228108 52.26694058 -7.15869141 51.95800781 C-10.8708608 51.62979771 -11.97397743 51.3123076 -15.15869141 49.08300781 C-17.39113233 45.73434642 -17.78871377 44.21340236 -17.03369141 40.27050781 C-14.8016271 37.42270162 -13.48376142 36.42053115 -10.03369141 35.27050781 C-9.70369141 28.67050781 -9.37369141 22.07050781 -9.03369141 15.27050781 C-10.68369141 14.94050781 -12.33369141 14.61050781 -14.03369141 14.27050781 C-16.49147425 11.98222723 -16.98485817 10.60536432 -17.47119141 7.27050781 C-16.14487549 -1.8242299 -7.20959572 -0.61614592 0 0 Z " fill="#E4646E" transform="translate(72.03369140625,115.7294921875)"/>
<path d="M0 0 C7.00051013 0 11.84083567 1.62763245 17.9375 4.8125 C18.98405762 5.35390625 18.98405762 5.35390625 20.05175781 5.90625 C21.42100855 6.61684945 22.7896803 7.32856587 24.15771484 8.04150391 C36.44819917 14.43594354 50.63424184 15.15736763 64 11.4375 C69.47321548 9.47221413 74.35029525 6.70454072 79.24609375 3.5859375 C86.91366093 -0.82971112 95.37790617 -1.03737224 104 0 C108.29887999 1.16862757 112.05790354 2.94480611 116 5 C117.85505258 5.93991353 119.71289444 6.87408269 121.57177734 7.80639648 C123.3463846 8.70391769 125.10912156 9.62479626 126.87109375 10.546875 C137.12926437 15.31096922 151.96090931 14.5290337 162.5 10.9375 C168.10550366 8.62779424 173.2721623 5.7112418 178.37890625 2.453125 C185.44449561 -1.46401247 195.32048317 -1.06352655 203.0078125 0.68359375 C208.57135912 2.59358625 213.44313134 5.26345287 218.3203125 8.53515625 C225.46004169 12.43806944 232.24495007 13.53211668 240.3125 13.4375 C241.23820801 13.42847656 242.16391602 13.41945312 243.11767578 13.41015625 C255.27581594 13.10316481 264.43665871 8.52143329 274.84765625 2.70703125 C282.06913191 -1.20348283 290.92371463 -1.08432218 298.87109375 0.61328125 C305.34288202 2.84934812 311.45181337 6.11589649 317.51928711 9.26953125 C324.36178316 12.81204619 329.53635714 13.20760535 337.125 13.25 C338.02476562 13.270625 338.92453125 13.29125 339.8515625 13.3125 C349.38437053 13.36728625 357.19950855 10.95973946 365.25 5.9375 C372.6338688 1.40573367 377.06094639 0 386 0 C386 6.93 386 13.86 386 21 C384.2675 21.061875 382.535 21.12375 380.75 21.1875 C370.62430542 22.04419801 362.24210009 26.64257502 353.5703125 31.66796875 C345.72552011 35.73343107 336.95435593 36.47097254 328.359375 34.34765625 C325.81467684 33.36600944 323.42922184 32.24160227 321 31 C319.22105899 30.10354151 317.44207271 29.20717104 315.66210938 28.31274414 C313.89863597 27.41867058 312.14624607 26.50283508 310.39453125 25.5859375 C303.4027384 22.31934614 297.27915996 21.66025068 289.6875 21.6875 C288.3581543 21.66333008 288.3581543 21.66333008 287.00195312 21.63867188 C277.39923553 21.6316677 269.50869436 24.31683235 261.25 29.0625 C251.56604788 34.54873067 242.39428062 37.10155532 231.25390625 34.3125 C225.77515133 32.20865811 220.71977393 29.24713396 215.60546875 26.390625 C203.73003484 20.05231245 190.89424663 19.39599864 178.01171875 22.94921875 C173.74977799 24.43619938 169.82628197 26.40196734 165.83984375 28.5078125 C162.53554525 30.24404638 159.16443412 31.75280058 155.7421875 33.23828125 C154.47894044 33.79059779 153.23315747 34.38342126 152 35 C143.04099619 35.73454198 135.98831048 35.08291424 128 31 C126.22105899 30.10354151 124.44207271 29.20717104 122.66210938 28.31274414 C120.89863597 27.41867058 119.14624607 26.50283508 117.39453125 25.5859375 C110.4027384 22.31934614 104.27915996 21.66025068 96.6875 21.6875 C95.3581543 21.66333008 95.3581543 21.66333008 94.00195312 21.63867188 C83.88524358 21.6312928 75.84150211 24.71206245 67.125 29.625 C65.67147037 30.43365381 64.21580875 31.23849001 62.7578125 32.0390625 C62.1302002 32.39178223 61.50258789 32.74450195 60.85595703 33.10791016 C53.99530182 36.40557316 44.95562079 36.12051773 37.80078125 34.09375 C32.80622249 32.05675348 28.17574366 29.55067592 23.5 26.875 C16.08318358 22.69968656 8.31854315 21.38642386 0 20 C0 13.4 0 6.8 0 0 Z " fill="#D82E3D" transform="translate(63,131)"/>
<path d="M0 0 C8.80421141 0 15.60901111 2.49803838 22.8125 7.5625 C32.59396858 13.98857915 45.69766221 15.31318023 56.98828125 13.52734375 C64.62530771 11.87314995 71.15601792 8.68744874 78 5 C87.11923339 0.33024764 95.26439638 -1.83735214 105.58203125 0.61328125 C108.14738803 1.60533575 110.54911238 2.74870294 113 4 C115.04947177 5.03289168 117.09990355 6.06384712 119.15087891 7.09375 C120.56553763 7.8095475 121.97561885 8.53448262 123.38037109 9.26953125 C130.36987581 12.87701756 136.39532334 13.20606948 144.1875 13.25 C145.53038086 13.2809375 145.53038086 13.2809375 146.90039062 13.3125 C157.08184901 13.37130987 165.10232744 10.31959726 173.875 5.375 C175.32852963 4.56634619 176.78419125 3.76150999 178.2421875 2.9609375 C178.8697998 2.60821777 179.49741211 2.25549805 180.14404297 1.89208984 C186.75866103 -1.28731221 195.59034533 -1.04896331 202.578125 0.61328125 C205.14491499 1.60420187 207.54689953 2.7510863 210 4 C211.35500242 4.67151471 212.71051482 5.34200091 214.06640625 6.01171875 C216.90696388 7.42023871 219.73538916 8.85004341 222.55859375 10.29296875 C232.0861412 15.01889183 246.86452835 14.87396647 257.08984375 12.09375 C260.20993969 10.91378644 263.07271137 9.59632595 266 8 C266.99257813 7.47277344 267.98515625 6.94554687 269.0078125 6.40234375 C270.84226384 5.40684815 272.66392296 4.38697558 274.46484375 3.33203125 C282.32821299 -0.79956954 291.16297909 -1.4428591 299.78125 0.6875 C305.07307985 2.69705564 309.6945883 5.62479444 314.48046875 8.609375 C325.93041541 14.92903548 340.21131992 15.64122272 352.64453125 12.2578125 C358.42665652 10.09035693 363.7410714 7.0739403 369.1171875 4.05859375 C375.09232002 0.80166863 378.97628862 0 386 0 C386 6.93 386 13.86 386 21 C382.7825 21.2475 382.7825 21.2475 379.5 21.5 C370.934943 22.43637279 364.2200377 25.99607751 356.74511719 30.05761719 C347.12665453 35.25169467 336.99193092 37.08086928 326.2109375 33.96484375 C323.05497867 32.5875967 320.14426778 30.81559292 317.1875 29.0625 C304.30658909 21.51057115 289.15485804 19.22362493 274.46875 22.87890625 C271.51442236 24.08208001 268.79130223 25.45693443 266 27 C264.13597198 27.94756032 262.26384631 28.87765168 260.39038086 29.80639648 C258.59520625 30.7024768 256.81279848 31.62400079 255.03125 32.546875 C247.84990299 35.9894795 238.52954834 36.90740518 230.89794922 34.27490234 C226.71903708 32.43594661 222.75670887 30.21412687 218.78466797 27.97021484 C206.4943749 21.28873404 192.42257894 20.04264965 178.734375 22.61328125 C176.01587625 23.55975244 173.5612379 24.68310289 171 26 C169.64388429 26.6718968 168.28705118 27.34234668 166.9296875 28.01171875 C164.77037213 29.08136061 162.61774741 30.15880476 160.47924805 31.26953125 C152.73119895 35.28384614 144.65570433 36.53989861 136 35 C130.97547612 33.26680187 126.40145817 30.57655057 121.7890625 27.97021484 C109.35415765 21.2267225 95.44517078 20.11939012 81.59375 22.61328125 C75.65577786 24.64328076 70.19682334 28.00340494 64.85546875 31.26953125 C57.12037978 35.94988531 48.79915265 35.64904182 40 35 C36.67966323 34.13473171 33.97534897 32.68554252 31 31 C29.24768804 30.09875364 27.4948987 29.1983276 25.73461914 28.31274414 C23.95932622 27.41752291 22.19420849 26.50220804 20.4296875 25.5859375 C13.43109625 22.34968687 7.89315465 21.78931546 0 21 C0 14.07 0 7.14 0 0 Z " fill="#D82E3D" transform="translate(63,346)"/>
<path d="M0 0 C10.2268942 0 16.23811241 2.85080453 24.8125 8.28125 C32.13817914 12.2313711 38.9050824 13.55974002 47.1875 13.5 C48.56397705 13.49250732 48.56397705 13.49250732 49.96826172 13.48486328 C61.48831548 13.19206612 70.70326885 9.11010957 80.59765625 3.33203125 C88.73331643 -1.17896082 98.2916933 -1.54989176 107.22265625 0.875 C110.24243806 2.11055003 113.1059665 3.49315827 116 5 C117.235909 5.62062529 118.47294369 6.23901262 119.7109375 6.85546875 C122.1419558 8.06600522 124.55692136 9.29750431 126.96875 10.546875 C136.41301339 15.07427961 149.88245269 14.28945609 159.75 11.5 C166.11911679 9.23233245 172.00540581 6.01682287 177.8828125 2.70703125 C185.2443336 -1.32427792 194.80152385 -1.08532015 202.9375 0.61328125 C209.35862245 2.83522454 215.42581408 6.10977066 221.43164062 9.26953125 C231.31286816 14.41130208 245.30617037 14.85627056 256.125 12.0625 C263.14793648 9.50530288 269.74328713 5.52283755 276.25756836 1.89208984 C283.10168383 -1.61195919 294.4141236 -1.14367685 301.75 1.0625 C306.38885062 2.91272859 310.60442847 5.61613803 314.8125 8.28125 C322.13781202 12.23117315 328.90532685 13.56049854 337.1875 13.5 C338.5650647 13.49141968 338.5650647 13.49141968 339.97045898 13.48266602 C351.97669739 13.17033766 361.29853974 8.8844268 371.37890625 2.453125 C376.41688414 -0.33991192 380.09748377 0 386 0 C386 6.6 386 13.2 386 20 C383.64875 20.350625 381.2975 20.70125 378.875 21.0625 C370.29409396 22.53295767 363.57100497 25.77141071 356 30 C346.76983276 34.81636453 338.60919973 36.70239993 328.25 34 C323.71798985 32.49895205 319.66889968 30.28807619 315.5 28 C303.33795215 21.36451652 291.56481949 18.97124843 277.765625 21.62109375 C271.24119103 23.60487435 265.30685543 26.77578 259.42529297 30.18164062 C253.44817201 33.57657992 247.44460775 35.28112376 240.5 35.3125 C239.6440625 35.32925781 238.788125 35.34601563 237.90625 35.36328125 C231.10785617 34.51348202 225.12050219 31.13920644 219.125 28 C205.35885047 21.03380587 192.37446209 18.5115838 177.0546875 22.80859375 C172.10976602 24.7372396 167.64341924 27.39008104 163.12890625 30.16015625 C154.17077194 35.42767343 143.04043782 35.58861161 132.953125 33.3125 C130.51816063 32.35761201 128.29285638 31.25762022 126 30 C123.89679845 28.95638607 121.79258886 27.91480176 119.6875 26.875 C118.72199219 26.37742188 117.75648438 25.87984375 116.76171875 25.3671875 C106.56313215 20.31838225 94.10093447 19.09438628 83 22 C77.87906665 23.77822059 73.20821599 26.48495768 68.46582031 29.078125 C58.39783114 34.55952896 49.34690163 36.87935654 37.9375 33.875 C34.38657198 32.69506781 31.45823591 31.13910154 28.3125 29.125 C19.63758153 23.62951453 10.10703521 21.2633794 0 20 C0 13.4 0 6.8 0 0 Z " fill="#D82E3D" transform="translate(63,167)"/>
<path d="M0 0 C11.2394958 1.12394958 11.2394958 1.12394958 17.125 4.3125 C17.7226416 4.62791748 18.3202832 4.94333496 18.93603516 5.26831055 C20.6317049 6.16448789 22.31626365 7.08159835 24 8 C36.11661393 14.49387152 49.07016787 16.24019565 62.4375 12.5625 C66.18819987 11.29381308 69.52830012 9.74846191 72.91796875 7.73046875 C84.55516598 0.8208829 94.61966581 -1.44478913 108.03515625 1.71484375 C111.45282147 2.97683423 114.46041974 4.69155337 117.6171875 6.49609375 C129.68826658 13.35232988 142.22863872 16.16243238 156.09375 13.37890625 C162.6794749 11.38725558 168.64192138 8.25451877 174.57421875 4.81835938 C182.19175939 0.4928631 190.27393059 -1.09790651 199 0 C206.06717456 1.97141607 212.41236825 5.15077979 218.8125 8.6875 C229.8019144 14.71987545 241.57051352 15.96328224 253.875 12.68359375 C259.14207865 10.98922102 264.14666186 9.1936319 268.8203125 6.18359375 C275.81956709 1.7531193 281.02091915 0.33985429 289.25 0.3125 C290.07741699 0.30573242 290.90483398 0.29896484 291.75732422 0.29199219 C297.92067095 0.47163855 302.56952768 2.16915467 308 5 C308.9266748 5.47095093 308.9266748 5.47095093 309.87207031 5.95141602 C311.58687765 6.8319863 313.29355728 7.72832755 315 8.625 C327.43370657 14.90895057 340.18841853 16.14644438 353.6875 11.9375 C359.69062434 9.73740207 364.98425619 6.86376294 370.4140625 3.515625 C375.74140542 0.39325483 379.71626553 0 386 0 C386 6.93 386 13.86 386 21 C382.16375 21.556875 382.16375 21.556875 378.25 22.125 C370.33020288 23.41956035 363.97331441 25.9821929 357 30 C347.9213094 34.75621682 339.28533345 36.74891394 329 35 C323.95212024 33.29711462 319.37923274 30.60129528 314.76855469 27.97021484 C302.81444516 21.41228673 289.14169325 20.05586588 275.80078125 22.61328125 C273.06654659 23.56377324 270.58242978 24.68892026 268 26 C266.64223227 26.67119064 265.28413118 27.34170714 263.92578125 28.01171875 C261.76792864 29.08147297 259.61681817 30.15928409 257.47949219 31.26953125 C248.78048005 35.77598934 238.76708999 36.76928497 229.25 33.875 C225.99123223 32.60870166 223.14672455 30.91494643 220.1875 29.0625 C207.45834198 21.28141407 192.68263211 19.45651616 178.14453125 22.91796875 C171.96775026 25.19828575 166.20990047 28.3438141 160.53515625 31.66796875 C152.923993 35.66705452 144.42261413 36.51531852 136 35 C130.95580715 33.2810164 126.37727976 30.60200497 121.76416016 27.97021484 C109.96089818 21.47891079 96.04907941 20.03033025 82.87109375 22.61328125 C80.1188306 23.56711901 77.60521739 24.69379294 75 26 C74.35869141 26.31630371 73.71738281 26.63260742 73.05664062 26.95849609 C70.18648635 28.37453516 67.31987671 29.79402988 64.47973633 31.26953125 C56.43788737 35.43503611 47.96932543 36.52514047 39 35 C33.94491362 33.29468349 29.34924079 30.5974038 24.72900391 27.96582031 C16.78551005 23.52859048 8.96874695 22.14494642 0 21 C0 14.07 0 7.14 0 0 Z " fill="#D82E3D" transform="translate(63,310)"/>
<path d="M0 0 C7.72138635 0 10.94398471 0.33440514 17.1875 3.8125 C17.85974609 4.16892578 18.53199219 4.52535156 19.22460938 4.89257812 C21.15585601 5.91743637 23.07830463 6.95737259 25 8 C35.86986543 13.79011327 49.17261382 14.62658332 61.16015625 11.96484375 C66.41251382 10.18034262 71.26992704 7.55441866 76.16796875 4.97265625 C86.1925954 -0.21591287 96.91918847 -2.73053501 108.11425781 0.63574219 C112.31675093 2.34149701 116.14482315 4.6161473 120 7 C131.15117219 13.36933273 144.49231768 14.89434276 157.09765625 12.3828125 C163.78638501 10.34828666 169.85303977 7.14253648 175.92578125 3.73046875 C183.97222974 -0.78381284 192.91562597 -1.48525622 202 0 C207.09098158 1.66877781 211.69447143 4.29717088 216.29394531 7.00708008 C227.38067747 13.45953281 240.85710121 15.07932664 253.4375 12.25 C258.89801788 10.33402882 264.0479693 8.17576979 269.015625 5.18359375 C278.64547345 -0.35916786 287.94860021 -2.22264068 299 0 C304.1114988 1.69685001 308.7140958 4.28618022 313.32714844 7.02978516 C315.56701919 8.32885789 317.87969234 9.39904273 320.25 10.4375 C320.89453125 10.72496094 321.5390625 11.01242188 322.203125 11.30859375 C332.57610627 15.29993654 346.81283593 13.72644847 357 10 C362.240355 7.55765191 367.2944467 4.77171336 372.30517578 1.89208984 C377.24322962 -0.70711049 379.64202024 0 386 0 C386 6.6 386 13.2 386 20 C383.586875 20.28875 381.17375 20.5775 378.6875 20.875 C368.65292884 22.37954059 360.47213712 26.93304632 351.81494141 32.01611328 C345.07958421 35.66737633 334.44046965 35.03887993 327.078125 33.31640625 C324.61795497 32.3476138 322.33195827 31.24599731 320 30 C304.51999383 22.15761592 290.47649881 17.44807358 273 23 C268.20824848 25.12385493 263.61705539 27.51729596 259 30 C250.45990231 34.47539028 241.55023099 35.55811071 232 34 C226.9472256 32.31989029 222.40233015 29.59846809 217.79541016 26.97021484 C205.92036811 20.55310618 192.24178345 19.34842807 179.1015625 21.96484375 C173.33408627 23.8897571 168.10716352 26.93714956 162.8203125 29.90625 C156.98904714 33.12934684 152.48044171 34.3642442 145.75 34.3125 C144.99001709 34.30686035 144.23003418 34.3012207 143.44702148 34.29541016 C134.20932195 34.09551564 128.18952272 31.28149636 120.41796875 26.42578125 C109.78139244 20.15380976 96.5623462 19.45838492 84.59375 21.61328125 C76.88670815 23.77850217 70.05522041 27.38747204 63.1171875 31.29296875 C55.66215873 35.37548451 45.39531219 35.22687921 37.1484375 33.3515625 C34.66036905 32.3779705 32.3588847 31.25588769 30 30 C28.22402812 29.10201422 26.44789733 28.20432455 24.66870117 27.31274414 C22.90220617 26.42031914 21.1479751 25.50374011 19.39453125 24.5859375 C12.81100718 21.51009081 7.3592655 20.81769617 0 20 C0 13.4 0 6.8 0 0 Z " fill="#D82E3D" transform="translate(63,239)"/>
<path d="M0 0 C9.0292887 0 9.0292887 0 12.625 1.5625 C13.45902344 1.92214844 14.29304688 2.28179687 15.15234375 2.65234375 C19.69148779 4.80049834 24.1568481 7.08552735 28.60546875 9.4140625 C40.19426013 14.82838851 53.7490794 14.60041615 65.72265625 10.41796875 C70.92240611 8.16825576 75.85799919 5.49593787 80.78515625 2.70703125 C88.27328836 -1.26904862 97.72684045 -1.298076 106 0 C111.11367066 1.64182573 115.713331 4.26977211 120.31030273 7.00708008 C131.15855902 13.38186094 143.94530985 15.06529532 156.3125 12.25 C164.05448179 9.62559939 170.94547713 6.66057229 177.87109375 2.26953125 C184.84916642 -1.89170474 195.19362785 -1.0134641 203 0 C208.115563 1.47174163 212.50737064 4.18832752 217 7 C227.67123639 13.10580308 240.09533411 14.72418776 252.1875 12.3828125 C259.99758001 10.21972661 266.8621609 6.65744353 273.8828125 2.70703125 C281.57764154 -1.5068037 292.43660549 -1.22159192 300.953125 0.6484375 C303.43021817 1.60810605 305.67816783 2.70801275 308 4 C321.98585887 11.73355989 334.53362317 16.03178533 350.7265625 11.7578125 C358.22095274 9.25968242 365.2860458 6.07123017 372.0625 2.015625 C376.90522017 -0.52289767 380.12833175 0 386 0 C386 6.6 386 13.2 386 20 C384.02 20.165 382.04 20.33 380 20.5 C373.9237119 21.34785415 369.2236972 23.0242735 363.8125 25.875 C362.79349609 26.41060547 362.79349609 26.41060547 361.75390625 26.95703125 C360.43354326 27.65559539 359.11401127 28.35573301 357.79541016 29.05761719 C348.77758292 33.79093417 339.11366955 36.03957443 329 34 C323.94572615 32.25204436 319.32856175 29.63181867 314.70800781 26.97021484 C302.01678751 19.76110828 287.58179888 19.18370065 273.51953125 22.73828125 C266.88611093 25.11629985 260.79206082 28.60387998 254.69482422 32.10791016 C248.06416666 35.59803155 236.5567639 35.14174157 229.5 33 C225.93436561 31.58060324 222.55270511 29.77066615 219.13696289 28.02734375 C206.53658388 21.60119364 194.23151278 18.67420836 180.01953125 21.6171875 C177.22514049 22.57260703 174.65478268 23.70297966 172 25 C171.35047363 25.31630371 170.70094727 25.63260742 170.03173828 25.95849609 C166.47071354 27.70064406 162.93019875 29.47706301 159.40625 31.29296875 C151.86278994 35.07334953 142.43694559 35.26582464 134.21484375 33.3515625 C131.71073258 32.37332875 129.38075741 31.25016942 127 30 C125.22303763 29.10252407 123.44595668 28.20527208 121.66650391 27.31274414 C119.90101523 26.41977048 118.14739871 25.50343841 116.39453125 24.5859375 C105.86618655 19.66705609 91.32042291 18.705067 80.1875 22.5 C78.43080437 23.27361636 76.70348695 24.11535656 75 25 C74.38721191 25.31630371 73.77442383 25.63260742 73.14306641 25.95849609 C69.79956498 27.69338486 66.48284738 29.46836219 63.1875 31.29296875 C55.88094895 35.20591337 47.10254526 35.25516383 39 34 C33.8804768 32.36082537 29.26287775 29.67756286 24.64501953 26.96582031 C16.62516248 22.25721917 9.24070333 21.0765868 0 20 C0 13.4 0 6.8 0 0 Z " fill="#D82E3D" transform="translate(63,275)"/>
<path d="M0 0 C9.03448276 0 9.03448276 0 12.5 1.5 C13.74136719 2.03560547 13.74136719 2.03560547 15.0078125 2.58203125 C19.53568491 4.72774625 24.01637362 6.9674449 28.46679688 9.26953125 C38.97064413 14.66034023 53.09228564 14.9704284 64.375 11.5 C69.58454013 9.4473078 74.43324577 6.66229922 79.19482422 3.73046875 C87.13460239 -1.11712084 95.97627266 -0.62789355 105 0 C108.34606406 0.84930678 111.0198131 2.28353175 114 4 C128.31201531 11.44622813 142.13713864 16.29867183 158.5234375 11.96484375 C163.56300943 10.0014774 168.34499707 7.47763372 173.1328125 4.97265625 C182.80693586 0.00655024 191.17610085 -1.86933952 202 0 C207.10439433 1.66708055 211.70057816 4.31637128 216.31103516 7.02978516 C218.55935647 8.32131868 220.87691196 9.39612858 223.25 10.4375 C223.89453125 10.72496094 224.5390625 11.01242188 225.203125 11.30859375 C236.51229765 15.6601667 251.01898456 14.0121462 261.94921875 9.50390625 C265.66821175 7.67059984 269.18908828 5.65891868 272.62109375 3.33203125 C280.83291184 -1.26604752 291.86601991 -1.44910134 300.91015625 0.6875 C305.25000655 2.33815622 309.0644454 4.6195319 313 7.0625 C324.50729216 14.05539293 338.07074964 14.92062142 351.2109375 12.37890625 C353.96489592 11.44851489 356.41907855 10.34030685 359 9 C359.61278809 8.68369629 360.22557617 8.36739258 360.85693359 8.04150391 C364.20043502 6.30661514 367.51715262 4.53163781 370.8125 2.70703125 C376.72849227 -0.46121461 378.3402592 0 386 0 C386 6.6 386 13.2 386 20 C384.1025 20.226875 382.205 20.45375 380.25 20.6875 C369.07225178 22.42114208 359.74305249 27.48242906 350 33 C343.76905923 36.11547039 332.36802689 35.26347072 325.83251953 33.37304688 C321.64762445 31.67022028 317.85400979 29.34877399 314 27 C301.32243819 20.67083788 287.72479336 18.51121287 273.8984375 22.80859375 C268.86043635 24.87947023 264.12578883 27.49254843 259.3828125 30.16015625 C250.34473496 35.07578503 240.08350869 35.63394172 230.01953125 33.3125 C227.56881055 32.35300087 225.31248849 31.25611916 223 30 C208.26357103 22.43424625 194.9513512 17.92411759 178.4375 22.5 C171.97553094 24.74025711 166.06053097 27.94739391 160.1171875 31.29296875 C152.65586955 35.37892858 143.30375267 35.24082753 135 34 C129.9005943 32.3781072 125.37009194 29.65094731 120.76757812 26.97021484 C116.75047823 24.76524868 112.36570431 23.35092598 108 22 C107.38640625 21.80792969 106.7728125 21.61585938 106.140625 21.41796875 C91.48408745 18.55619956 78.46907026 22.58831351 66.12890625 30.16015625 C57.43188698 35.27413387 47.88934039 35.22342355 38 34 C33.55839849 32.55542422 29.91377199 30.51467555 26 28 C24.53123702 27.22982513 23.05295054 26.47731782 21.5625 25.75 C20.386875 25.1725 19.21125 24.595 18 24 C14.09062342 22.2314725 10.43158718 21.47517395 6.1875 20.875 C4.145625 20.58625 2.10375 20.2975 0 20 C0 13.4 0 6.8 0 0 Z " fill="#D82E3D" transform="translate(63,203)"/>
<path d="M0 0 C0 6.93 0 13.86 0 21 C-2.145 21.165 -4.29 21.33 -6.5 21.5 C-15.06481902 22.43634677 -21.77643832 25.99550843 -29.25048828 30.05761719 C-37.35547984 34.42340946 -43.79116156 35.56961887 -53 35 C-45.84467744 29.46737478 -39.89889972 28.5493148 -31 28 C-31 22.72 -31 17.44 -31 12 C-28.12847538 10.36858874 -25.25308695 8.74476056 -22.375 7.125 C-21.16263672 6.43470703 -21.16263672 6.43470703 -19.92578125 5.73046875 C-12.89477829 1.78624758 -8.30399337 0 0 0 Z " fill="#C10C54" transform="translate(449,346)"/>
<path d="M0 0 C0 6.93 0 13.86 0 21 C-1.7325 21.061875 -3.465 21.12375 -5.25 21.1875 C-13.14929908 21.83253152 -19.98412847 24.5455362 -26.72265625 28.6640625 C-29 30 -29 30 -31 30 C-31 23.73 -31 17.46 -31 11 C-26.92786192 8.9441633 -22.85457722 6.89672547 -18.76513672 4.87646484 C-17.28749972 4.14275574 -15.81670739 3.39528346 -14.34765625 2.64453125 C-13.61417969 2.28746094 -12.88070313 1.93039063 -12.125 1.5625 C-11.50882812 1.25441406 -10.89265625 0.94632813 -10.2578125 0.62890625 C-8 0 -8 0 0 0 Z " fill="#C10C54" transform="translate(449,131)"/>
<path d="M0 0 C0 6.93 0 13.86 0 21 C-2.5575 21.37125 -5.115 21.7425 -7.75 22.125 C-14.88151339 23.27205543 -20.46400553 25.22380505 -26.77734375 28.79296875 C-29 30 -29 30 -31 30 C-31 24.06 -31 18.12 -31 12 C-28.15075294 10.36582867 -25.29613957 8.7425934 -22.4375 7.125 C-21.63763672 6.66480469 -20.83777344 6.20460938 -20.01367188 5.73046875 C-13.22122817 1.90452086 -7.95068884 0 0 0 Z " fill="#C10C54" transform="translate(449,310)"/>
<path d="M0 0 C0 6.6 0 13.2 0 20 C-2.51625 20.350625 -5.0325 20.70125 -7.625 21.0625 C-16.5055909 22.46937756 -23.16618403 25.6295553 -31 30 C-31 23.73 -31 17.46 -31 11 C-27.89727579 9.35139726 -24.79291675 7.70601659 -21.6875 6.0625 C-20.80642578 5.59392578 -19.92535156 5.12535156 -19.01757812 4.64257812 C-18.17001953 4.19462891 -17.32246094 3.74667969 -16.44921875 3.28515625 C-15.27879028 2.66459351 -15.27879028 2.66459351 -14.0847168 2.03149414 C-8.83848952 -0.5642794 -6.74552872 0 0 0 Z " fill="#C10B54" transform="translate(449,239)"/>
<path d="M0 0 C0 6.6 0 13.2 0 20 C-1.8975 20.226875 -3.795 20.45375 -5.75 20.6875 C-15.01797866 22.10245857 -22.67489462 25.83744731 -31 30 C-31 23.73 -31 17.46 -31 11 C-27.89727579 9.35139726 -24.79291675 7.70601659 -21.6875 6.0625 C-20.80642578 5.59392578 -19.92535156 5.12535156 -19.01757812 4.64257812 C-18.17001953 4.19462891 -17.32246094 3.74667969 -16.44921875 3.28515625 C-15.27879028 2.66459351 -15.27879028 2.66459351 -14.0847168 2.03149414 C-8.83848952 -0.5642794 -6.74552872 0 0 0 Z " fill="#C10B54" transform="translate(449,203)"/>
<path d="M0 0 C0 6.6 0 13.2 0 20 C-2.330625 20.350625 -4.66125 20.70125 -7.0625 21.0625 C-15.91426938 22.56404897 -23.01731268 25.93189973 -31 30 C-31 23.73 -31 17.46 -31 11 C-24.3125 7.6875 -24.3125 7.6875 -22.2355957 6.6628418 C-19.49266535 5.29753738 -16.81824354 3.89079445 -14.19140625 2.3125 C-9.52245393 -0.48387786 -5.49554931 0 0 0 Z " fill="#C10B54" transform="translate(449,167)"/>
<path d="M0 0 C0 6.6 0 13.2 0 20 C-2.02125 20.185625 -4.0425 20.37125 -6.125 20.5625 C-13.38567115 21.55964202 -18.76521196 24.00334526 -25.13671875 27.5390625 C-28 29 -28 29 -31 29 C-31 23.06 -31 17.12 -31 11 C-27.91941847 9.34883227 -24.83577189 7.70391567 -21.75 6.0625 C-20.87730469 5.59392578 -20.00460937 5.12535156 -19.10546875 4.64257812 C-18.26113281 4.19462891 -17.41679687 3.74667969 -16.546875 3.28515625 C-15.77182617 2.87144775 -14.99677734 2.45773926 -14.19824219 2.03149414 C-9.08413038 -0.36823069 -6.15506609 0 0 0 Z " fill="#C10B53" transform="translate(449,275)"/>
</svg>
