<?xml version="1.0" encoding="UTF-8"?>
<svg version="1.1" xmlns="http://www.w3.org/2000/svg" width="512" height="512">
<path d="M0 0 C1.48512833 -0.0064789 2.9702485 -0.01513353 4.45535284 -0.0257743 C8.53303268 -0.04859284 12.61014209 -0.04020218 16.6878413 -0.02663505 C21.08673225 -0.01738641 25.48550941 -0.03686659 29.8843689 -0.0526123 C38.50067835 -0.07871444 47.11677926 -0.07760714 55.73311322 -0.06657412 C62.73569565 -0.05801913 69.7382177 -0.05884377 76.74080086 -0.06637001 C78.23524493 -0.06795234 78.23524493 -0.06795234 79.75987979 -0.06956664 C81.78379048 -0.07173755 83.80770116 -0.07392432 85.83161182 -0.07612679 C104.81509555 -0.09556214 123.79846225 -0.08355357 142.78193641 -0.06134085 C159.07187584 -0.04309094 175.36158861 -0.05399124 191.65150452 -0.08564758 C210.56507937 -0.12240039 229.47851264 -0.13943531 248.39212328 -0.12623531 C250.40893302 -0.1248942 252.42574278 -0.12358522 254.44255257 -0.12230873 C255.43487735 -0.12167807 256.42720214 -0.1210474 257.44959737 -0.12039762 C264.44355251 -0.11736902 271.43740095 -0.12863669 278.43133354 -0.14555931 C286.95509424 -0.16587262 295.47853505 -0.16503254 304.00227898 -0.13692691 C308.35162822 -0.1231427 312.70041885 -0.11899472 317.04974747 -0.14087677 C321.03174241 -0.16064615 325.01268595 -0.15269557 328.99460799 -0.12268243 C330.4346457 -0.1166765 331.87476869 -0.12078198 333.31473803 -0.13604566 C346.24565997 -0.26311782 346.24565997 -0.26311782 351.44067675 4.76975888 C354.74813079 9.85321825 354.94691413 15.08976927 354.91306019 20.98165798 C354.91626667 21.81041023 354.91947314 22.63916248 354.92277679 23.49302843 C354.93109281 26.2762351 354.92514687 29.05922747 354.91928101 31.84243774 C354.92230095 33.85553125 354.92618964 35.86862361 354.93087357 37.88171393 C354.94118245 43.41863125 354.9389644 48.95548404 354.93469298 54.49240673 C354.93223101 60.46182323 354.9412333 66.43122399 354.94873047 72.40063477 C354.961494 84.09701115 354.96327496 95.79336942 354.96093021 107.4897508 C354.95909799 116.99422322 354.96085564 126.4986889 354.96515465 136.00316048 C354.96575705 137.3683547 354.96635824 138.73354893 354.96695825 140.09874316 C354.9678655 142.15592085 354.96877416 144.21309854 354.9696906 146.27027623 C354.97812082 165.39806694 354.98245532 184.52585511 354.97828388 203.65364742 C354.97812751 204.3748106 354.97797113 205.09597379 354.97781002 205.8389904 C354.97700422 209.49418576 354.97615845 213.1493811 354.97529671 216.80457645 C354.97504008 217.89348965 354.97504008 217.89348965 354.97477827 219.00440111 C354.97443161 220.47243224 354.97408308 221.94046338 354.97373268 223.40849451 C354.96837462 246.25470069 354.97630801 269.10086828 354.99476624 291.94706726 C355.01547672 317.61103912 355.02621082 343.27498708 355.02219075 368.93896776 C355.0217954 371.67475132 355.02143385 374.41053487 355.02109337 377.14631844 C355.02100264 377.81994491 355.02091191 378.49357138 355.02081842 379.18761077 C355.01965192 389.36152329 355.02630476 399.53541168 355.03690529 409.70931816 C355.04894665 421.27792081 355.05024977 432.84647125 355.03811512 444.415075 C355.03221045 450.31967277 355.03117083 456.22416652 355.04311752 462.12875748 C355.05392214 467.53156934 355.05093782 472.93418964 355.03685584 478.33699233 C355.03419392 480.29385584 355.03662198 482.25073409 355.0445917 484.20758318 C355.05466111 486.86388655 355.04630716 489.51951934 355.0333147 492.17579556 C355.04062405 492.93861195 355.0479334 493.70142834 355.05546424 494.48736039 C354.99035836 500.89265841 353.40820997 505.42907554 349.36742306 510.53904438 C344.26927277 514.33690061 337.36857653 513.33118332 331.31716919 513.28329468 C329.83204086 513.28977357 328.34692069 513.29842821 326.86181635 513.30906898 C322.78413651 513.33188751 318.7070271 513.32349685 314.62932789 513.30992973 C310.23043693 513.30068109 305.83165978 513.32016127 301.43280029 513.33590698 C292.81649084 513.36200912 284.20038993 513.36090182 275.58405597 513.3498688 C268.58147354 513.3413138 261.57895149 513.34213845 254.57636833 513.34966469 C253.08192426 513.35124702 253.08192426 513.35124702 251.5572894 513.35286132 C249.53337871 513.35503223 247.50946803 513.357219 245.48555737 513.35942147 C226.50207363 513.37885682 207.51870694 513.36684825 188.53523277 513.34463552 C172.24529335 513.32638561 155.95558058 513.33728592 139.66566467 513.36894226 C120.75208982 513.40569506 101.83865655 513.42272999 82.92504591 513.40952998 C80.90823617 513.40818887 78.89142641 513.40687989 76.87461662 513.40560341 C75.88229184 513.40497274 74.88996705 513.40434208 73.86757182 513.4036923 C66.87361668 513.4006637 59.87976823 513.41193137 52.88583565 513.42885399 C44.36207495 513.4491673 35.83863414 513.44832722 27.31489021 513.42022159 C22.96554097 513.40643738 18.61675034 513.4022894 14.26742172 513.42417145 C10.28542678 513.44394083 6.30448324 513.43599025 2.3225612 513.40597711 C0.88252349 513.39997118 -0.5575995 513.40407665 -1.99756884 513.41934033 C-14.92849078 513.5464125 -14.92849078 513.5464125 -20.12350756 508.5135358 C-23.4309616 503.43007643 -23.62974494 498.19352541 -23.595891 492.3016367 C-23.59909748 491.47288445 -23.60230395 490.6441322 -23.6056076 489.79026625 C-23.61392362 487.00705958 -23.60797768 484.22406721 -23.60211182 481.44085693 C-23.60513176 479.42776343 -23.60902045 477.41467107 -23.61370438 475.40158075 C-23.62401326 469.86466343 -23.62179521 464.32781064 -23.61752379 458.79088795 C-23.61506182 452.82147144 -23.62406411 446.85207069 -23.63156128 440.88265991 C-23.64432481 429.18628353 -23.64610577 417.48992526 -23.64376102 405.79354388 C-23.6419288 396.28907146 -23.64368645 386.78460578 -23.64798546 377.2801342 C-23.64858786 375.91493997 -23.64918906 374.54974575 -23.64978906 373.18455152 C-23.65069631 371.12737383 -23.65160497 369.07019614 -23.65252141 367.01301845 C-23.66095163 347.88522774 -23.66528613 328.75743957 -23.66111469 309.62964725 C-23.66095832 308.90848407 -23.66080194 308.18732089 -23.66064083 307.44430428 C-23.65983504 303.78910892 -23.65898926 300.13391357 -23.65812752 296.47871823 C-23.65795644 295.75277609 -23.65778535 295.02683396 -23.65760908 294.27889357 C-23.65726242 292.81086244 -23.65691389 291.3428313 -23.65656349 289.87480016 C-23.65120543 267.02859399 -23.65913882 244.1824264 -23.67759705 221.33622742 C-23.69830753 195.67225556 -23.70904163 170.0083076 -23.70502156 144.34432691 C-23.70462621 141.60854336 -23.70426466 138.8727598 -23.70392418 136.13697624 C-23.70383345 135.46334977 -23.70374272 134.7897233 -23.70364923 134.0956839 C-23.70248273 123.92177139 -23.70913558 113.747883 -23.7197361 103.57397652 C-23.73177746 92.00537387 -23.73308058 80.43682343 -23.72094593 68.86821968 C-23.71504126 62.96362191 -23.71400164 57.05912816 -23.72594833 51.1545372 C-23.73675295 45.75172534 -23.73376863 40.34910504 -23.71968665 34.94630235 C-23.71702473 32.98943884 -23.71945279 31.03256058 -23.72742251 29.0757115 C-23.73749192 26.41940812 -23.72913797 23.76377534 -23.71614552 21.10749912 C-23.72345486 20.34468273 -23.73076421 19.58186633 -23.73829505 18.79593429 C-23.67318917 12.39063627 -22.09104078 7.85421913 -18.05025387 2.7442503 C-12.95210358 -1.05360594 -6.05140734 -0.04788864 0 0 Z " fill="#FEF1E1" transform="translate(90.34141540527344,-0.6416473388671875)"/>
<path d="M0 0 C1.7688222 0.31734232 3.53743342 0.63586071 5.30595398 0.95487976 C6.29087169 1.13212932 7.27578939 1.30937887 8.29055309 1.49199963 C25.63321203 4.74361426 42.68557363 11.72012252 58.17919922 20.03515625 C59.92722649 20.96143726 61.69965258 21.84122288 63.47265625 22.71875 C92.59812797 37.42662941 119.10668902 58.96340651 144.18359375 79.67578125 C148.35408405 83.117448 152.55516166 86.52121991 156.75537109 89.92651367 C160.1395013 92.67131359 163.51761746 95.42256958 166.87890625 98.1953125 C176.58773762 106.18402695 186.55324985 113.78570312 196.65917969 121.26464844 C198.78137067 122.8379206 200.89582525 124.42088727 203.0078125 126.0078125 C224.40713316 142.01314745 247.31369791 155.71306443 272 166 C272.98742187 166.41765625 273.97484375 166.8353125 274.9921875 167.265625 C303.38964453 178.41229037 334.54158021 179.87184958 364.15014648 173.48071289 C368.40973327 172.76220639 372.69995834 172.39537645 377 172 C377.13920659 182.44002074 377.2457257 192.87981961 377.31087303 203.32058048 C377.34214567 208.16905126 377.38454364 213.01688568 377.45263672 217.86499023 C377.51797517 222.54642907 377.55373664 227.22725703 377.56926346 231.90911674 C377.58032391 233.69251557 377.6019232 235.4758821 377.63438034 237.25901985 C377.90935882 252.99606768 377.90935882 252.99606768 374.08837891 257.58764648 C369.95219627 260.81844654 368.3161381 261.12618343 363.15120411 261.1398077 C361.27067269 261.14834456 361.27067269 261.14834456 359.35215074 261.15705389 C357.94796814 261.15834665 356.54378543 261.15953465 355.13960266 261.16062927 C353.6579359 261.16535786 352.17627044 261.17050844 350.69460648 261.17604691 C346.60807586 261.1899839 342.52155416 261.19754532 338.43500578 261.2040199 C334.93356738 261.21038207 331.43214371 261.22045341 327.93071447 261.23058056 C316.39273696 261.2639368 304.85475049 261.28543189 293.31674054 261.30378041 C290.3133456 261.3085737 287.30995102 261.31355722 284.30655646 261.31858563 C265.66568093 261.34955497 247.02480233 261.37624739 228.38390827 261.39300442 C224.0642884 261.39695408 219.74466859 261.40095705 215.42504883 261.4050293 C214.35139469 261.40603766 213.27774054 261.40704602 212.17155143 261.40808494 C194.77491432 261.42509564 177.37841936 261.46620789 159.98185167 261.51705229 C142.13094908 261.5687964 124.28011963 261.59794246 106.42914265 261.6052013 C96.40249683 261.60986761 86.37608378 261.62466125 76.3495121 261.6649456 C67.81105756 261.69920889 59.27287777 261.71319998 50.73435841 261.70052146 C46.37690611 261.69468584 42.02003517 261.69862138 37.66267014 261.7286911 C33.67316391 261.75599784 29.68465355 261.75559805 25.69512572 261.73318065 C24.25225637 261.72995069 22.809321 261.73686732 21.36656169 261.75497787 C9.26097684 261.89771825 9.26097684 261.89771825 4.71904278 258.32948399 C-0.58827783 252.60025216 -0.2857436 246.21254667 -0.24050903 238.82546997 C-0.24221788 237.80353888 -0.24392673 236.7816078 -0.24568737 235.7287091 C-0.24898023 232.30620988 -0.23798175 228.88390693 -0.22705078 225.46142578 C-0.22648662 223.00737004 -0.22680331 220.55331397 -0.22793579 218.09925842 C-0.22839115 212.81675826 -0.22272023 207.53431913 -0.21146011 202.25183487 C-0.19519061 194.61430467 -0.18999562 186.97679835 -0.18748413 179.3392527 C-0.1831093 166.94718355 -0.16980596 154.55514077 -0.15087891 142.16308594 C-0.13251461 130.12695446 -0.1183608 118.09083016 -0.10986328 106.0546875 C-0.10933783 105.31250194 -0.10881239 104.57031638 -0.10827102 103.80564035 C-0.1056609 100.08223046 -0.10313349 96.35882052 -0.10064721 92.63541055 C-0.07992132 61.7569212 -0.04455266 30.87846461 0 0 Z " fill="#D77F4A" transform="translate(67,251)"/>
<path d="M0 0 C9.21174127 6.41732585 17.39665751 15.89923063 20 27 C21.19941295 38.93293495 19.89048096 49.14709942 12.5 58.9375 C10.72907458 61.09078432 9.10444902 62.91753318 6.91308594 64.64770508 C4.29929913 67.86156877 4.49287229 70.65248845 4.609375 74.609375 C4.61786469 75.69958954 4.61786469 75.69958954 4.62652588 76.81182861 C4.64885447 79.12523245 4.69903952 81.4370672 4.75 83.75 C4.77006977 85.32159216 4.78831971 86.89320868 4.8046875 88.46484375 C4.84870707 92.31049717 4.91770625 96.15498289 5 100 C5.7822998 99.20996582 6.56459961 98.41993164 7.37060547 97.60595703 C15.89144597 89.16106831 25.1674031 85.93463376 37.0625 85.625 C42.75755457 85.76909929 49.00733235 85.9775793 54 89 C57.95175895 96.0859126 56.53808619 105.57076207 54.875 113.1875 C51.77043841 124.09658446 45.54211981 132.30712545 35.890625 138.3125 C25.61458765 143.72932589 17.17017915 143 5 143 C5 154.88 5 166.76 5 179 C7.97 176.36 10.94 173.72 14 171 C21.10617954 166.18225116 28.4562426 165.55788886 36.8125 165.5 C38.15586426 165.49033203 38.15586426 165.49033203 39.52636719 165.48046875 C45.04593155 165.58752483 49.1810386 166.22830978 54 169 C57.77222238 173.76217024 56.46686372 181.31593416 56 187 C53.50016306 199.69803536 47.55027346 209.44528 37 217 C29.73901636 221.01395941 23.31308648 223.14620685 15 223.125 C13.989375 223.12757813 12.97875 223.13015625 11.9375 223.1328125 C9.17768203 223.0080335 6.6952018 222.57210544 4 222 C4.01571045 223.12494873 4.0314209 224.24989746 4.04760742 225.40893555 C4.10201216 229.59278165 4.13638836 233.77659662 4.16479492 237.96069336 C4.17985755 239.76966617 4.20031177 241.5786026 4.22631836 243.38745117 C4.2628132 245.99146515 4.27975157 248.5949952 4.29296875 251.19921875 C4.30845261 252.00461594 4.32393646 252.81001312 4.33988953 253.63981628 C4.34126464 258.25447766 3.99504689 261.24856838 1 265 C-1.925916 266.462958 -3.75617347 266.44523109 -7 266 C-10.47659072 262.7807107 -12.27271593 260.61416782 -12.56762695 255.83056641 C-12.56684388 254.2540101 -12.53909645 252.67729986 -12.48828125 251.1015625 C-12.48120651 250.26660248 -12.47413177 249.43164246 -12.46684265 248.57138062 C-12.43899925 245.92165027 -12.37628406 243.27408441 -12.3125 240.625 C-12.28740393 238.82164525 -12.26459305 237.01825715 -12.24414062 235.21484375 C-12.18920611 230.80907017 -12.10300712 226.40490121 -12 222 C-12.76948975 222.16008545 -13.53897949 222.3201709 -14.33178711 222.48510742 C-25.93987202 224.72515236 -36.59970244 222.18485347 -46.375 215.6875 C-55.14057483 209.05371297 -59.5323779 201.4028663 -63 191 C-63.30353383 187.50513458 -63.3233648 184.0064993 -63.375 180.5 C-63.43107422 179.05560547 -63.43107422 179.05560547 -63.48828125 177.58203125 C-63.52115631 174.96298514 -63.4957071 172.57256892 -63 170 C-56.21217972 163.91593366 -45.06556328 165.41837476 -36.54150391 165.77783203 C-26.64520719 166.64292617 -20.72277023 171.99340093 -13 178 C-12.67 166.45 -12.34 154.9 -12 143 C-15.09375 143.0825 -18.1875 143.165 -21.375 143.25 C-29.03396279 143.31766412 -35.27771873 143.00823874 -42 139 C-42.76183594 138.59910156 -43.52367187 138.19820312 -44.30859375 137.78515625 C-50.97720364 133.90544223 -55.00840793 128.50548414 -59 122 C-59.45761719 121.27554688 -59.91523438 120.55109375 -60.38671875 119.8046875 C-63.43103931 113.84422829 -63.40703744 107.62189375 -63.5 101.0625 C-63.51869141 100.1255127 -63.53738281 99.18852539 -63.55664062 98.22314453 C-63.54826172 97.3361084 -63.53988281 96.44907227 -63.53125 95.53515625 C-63.52673828 94.734729 -63.52222656 93.93430176 -63.51757812 93.10961914 C-63 91 -63 91 -61.1730957 89.28930664 C-53.14006905 84.5232788 -42.55853926 84.85040786 -33.67578125 86.6875 C-25.66763054 89.14839138 -18.87693659 93.02361234 -13 99 C-12.82598855 94.42866179 -12.6994954 89.85927952 -12.61547852 85.28540039 C-12.58043458 83.73232417 -12.53278143 82.17947629 -12.47192383 80.62719727 C-11.84539637 71.77658606 -11.84539637 71.77658606 -14.45092773 63.59692383 C-16.21190436 61.89513969 -18.04292456 60.46667386 -20 59 C-27.10008241 49.24521306 -28.69286766 39.21816151 -27.40478516 27.36083984 C-25.42721577 15.82700633 -17.6988911 7.02962344 -8.6015625 0.19921875 C-5.19129967 -1.37277928 -3.56045879 -1.11727938 0 0 Z " fill="#FA8802" transform="translate(340,107)"/>
<path d="M0 0 C1.35796992 -0.00433066 2.71593433 -0.01084817 4.07388449 -0.01936007 C7.80009834 -0.03634793 11.52563996 -0.02217351 15.25181842 -0.00284529 C19.27234153 0.01258164 23.29278226 -0.00082012 27.31330872 -0.0105896 C35.18735838 -0.02511893 43.06115028 -0.01287941 50.93517554 0.00852364 C60.10368666 0.03253086 69.27213867 0.03081944 78.44067425 0.02821773 C94.79908541 0.02452713 111.15737509 0.04535671 127.51574707 0.07946777 C143.39110382 0.11255938 159.26633308 0.12672611 175.14172363 0.1204834 C192.4266309 0.11371986 209.71148476 0.11617859 226.99638414 0.1358428 C227.91035232 0.13688229 228.8243205 0.13792177 229.76598468 0.13899276 C231.60166819 0.14108366 233.43735168 0.14319463 235.27303514 0.14532593 C241.66479059 0.1522225 248.05652958 0.15289067 254.44828796 0.15144348 C262.23712733 0.15000399 270.02586271 0.15969074 277.81466758 0.18338984 C281.78906824 0.19525251 285.76332394 0.20237322 289.73774147 0.19655228 C293.37586703 0.19138129 297.0136863 0.20006545 300.65175945 0.21982688 C302.59158443 0.22681348 304.53144513 0.21911754 306.47126532 0.21090555 C317.10645905 0.29435051 317.10645905 0.29435051 321.82873535 3.62145996 C331.71637724 14.57803611 326.82873535 17.9601186 326.82873535 38.62145996 C211.65873535 38.62145996 96.48873535 38.62145996 -22.17126465 38.62145996 C-22.17126465 9.29950045 -22.17126465 9.29950045 -16.80696869 2.72280121 C-11.96896316 -0.8854843 -5.75062495 -0.05719703 0 0 Z " fill="#FEF1E1" transform="translate(89.1712646484375,-0.6214599609375)"/>
<path d="M0 0 C124.08 0 248.16 0 376 0 C376 10.89 376 21.78 376 33 C251.92 33 127.84 33 0 33 C0 22.11 0 11.22 0 0 Z " fill="#FDB340" transform="translate(68,39)"/>
<path d="M0 0 C4.28656134 -0.14925086 8.57171473 -0.2576289 12.86010742 -0.32958984 C14.31610483 -0.35961041 15.77192369 -0.40044228 17.22729492 -0.45263672 C30.87024607 -0.92936882 30.87024607 -0.92936882 35.37109375 2.6484375 C39.55452515 6.84234319 40.22599499 12.32055584 40.26201695 18.03484112 C40.25676292 18.80199961 40.2515089 19.56915811 40.24609566 20.35956383 C40.24840335 21.19041325 40.25071103 22.02126268 40.25308865 22.87728935 C40.25839184 25.66757151 40.24940186 28.4576239 40.24050903 31.24789429 C40.24138103 33.26597575 40.24313191 35.28405699 40.24568737 37.30213702 C40.25016596 42.85257785 40.24215013 48.4029417 40.23213124 53.95337272 C40.22350645 59.93696324 40.22641622 65.9205493 40.22793579 71.90414429 C40.22898526 82.27276903 40.22277194 92.64137307 40.21146011 103.00999069 C40.19962657 113.88468927 40.19192832 124.75937782 40.18975449 135.63408279 C40.18961701 136.31020758 40.18947953 136.98633238 40.18933788 137.6829458 C40.18866122 141.11663395 40.18805845 144.55032212 40.18748413 147.98401029 C40.18328317 172.30559051 40.16980807 196.62715763 40.15087891 220.94873047 C40.13251057 244.57698497 40.11834308 268.20523588 40.10986328 291.83349609 C40.10960023 292.56180622 40.10933718 293.29011635 40.10906615 294.04049648 C40.10642912 301.3544779 40.10387749 308.66845934 40.10138843 315.98244081 C40.09631599 330.88189962 40.09067349 345.78135819 40.08468628 360.68081665 C40.08427441 361.70839893 40.08427441 361.70839893 40.08385422 362.75674045 C40.06545251 408.50449918 40.03372047 454.25225027 40 500 C39.67 500 39.34 500 39 500 C39 474.59 39 449.18 39 423 C32.4 424.32 25.8 425.64 19 427 C16.36 427.33 13.72 427.66 11 428 C11 310.85 11 193.7 11 73 C-104.17 73 -219.34 73 -338 73 C-338 61.45 -338 49.9 -338 38 C-222.83 38 -107.66 38 11 38 C12.5473554 12.68429225 12.5473554 12.68429225 6 4 C2.89985071 2.11431306 2.89985071 2.11431306 0 1 C0 0.67 0 0.34 0 0 Z M-337 39 C-337 49.89 -337 60.78 -337 72 C-212.92 72 -88.84 72 39 72 C39 61.11 39 50.22 39 39 C-85.08 39 -209.16 39 -337 39 Z " fill="#FDE6C3" transform="translate(405,0)"/>
<path d="M0 0 C2.64 0.99 5.28 1.98 8 3 C8.33 15.21 8.66 27.42 9 40 C11.97 37.36 14.94 34.72 18 32 C25.10617954 27.18225116 32.4562426 26.55788886 40.8125 26.5 C42.15586426 26.49033203 42.15586426 26.49033203 43.52636719 26.48046875 C49.04593155 26.58752483 53.1810386 27.22830978 58 30 C61.77222238 34.76217024 60.46686372 42.31593416 60 48 C57.50016306 60.69803536 51.55027346 70.44528 41 78 C33.73901636 82.01395941 27.31308648 84.14620685 19 84.125 C17.4840625 84.12886719 17.4840625 84.12886719 15.9375 84.1328125 C13.17768203 84.0080335 10.6952018 83.57210544 8 83 C8.01571045 84.12494873 8.0314209 85.24989746 8.04760742 86.40893555 C8.10201216 90.59278165 8.13638836 94.77659662 8.16479492 98.96069336 C8.17985755 100.76966617 8.20031177 102.5786026 8.22631836 104.38745117 C8.2628132 106.99146515 8.27975157 109.5949952 8.29296875 112.19921875 C8.30845261 113.00461594 8.32393646 113.81001312 8.33988953 114.63981628 C8.34126464 119.25447766 7.99504689 122.24856838 5 126 C2.074084 127.462958 0.24382653 127.44523109 -3 127 C-6.47659072 123.7807107 -8.27271593 121.61416782 -8.56762695 116.83056641 C-8.56684388 115.2540101 -8.53909645 113.67729986 -8.48828125 112.1015625 C-8.48120651 111.26660248 -8.47413177 110.43164246 -8.46684265 109.57138062 C-8.43899925 106.92165027 -8.37628406 104.27408441 -8.3125 101.625 C-8.28740393 99.82164525 -8.26459305 98.01825715 -8.24414062 96.21484375 C-8.18920611 91.80907017 -8.10300712 87.40490121 -8 83 C-8.76948975 83.16008545 -9.53897949 83.3201709 -10.33178711 83.48510742 C-21.93987202 85.72515236 -32.59970244 83.18485347 -42.375 76.6875 C-51.14057483 70.05371297 -55.5323779 62.4028663 -59 52 C-59.30353383 48.50513458 -59.3233648 45.0064993 -59.375 41.5 C-59.41238281 40.53707031 -59.44976562 39.57414062 -59.48828125 38.58203125 C-59.52115631 35.96298514 -59.4957071 33.57256892 -59 31 C-52.21217972 24.91593366 -41.06556328 26.41837476 -32.54150391 26.77783203 C-22.64520719 27.64292617 -16.72277023 32.99340093 -9 39 C-8.67 27.45 -8.34 15.9 -8 4 C-8.99 3.67 -9.98 3.34 -11 3 C-10.37351562 2.86722656 -9.74703125 2.73445312 -9.1015625 2.59765625 C-8.28429687 2.42105469 -7.46703125 2.24445313 -6.625 2.0625 C-5.81289063 1.88847656 -5.00078125 1.71445313 -4.1640625 1.53515625 C-1.970537 1.07669307 -1.970537 1.07669307 0 0 Z " fill="#FDA615" transform="translate(336,246)"/>
<path d="M0 0 C2.64 0.99 5.28 1.98 8 3 C8.33 15.21 8.66 27.42 9 40 C11.97 37.36 14.94 34.72 18 32 C26.03225973 27.05707094 33.73656642 26.32765401 43 27 C43.92280838 39.52968715 41.25952125 50.28370225 33.0078125 60 C24.37470196 68.59951867 14.86108203 72.35919263 2.74023438 72.41015625 C1.81533203 72.39855469 0.89042969 72.38695312 -0.0625 72.375 C-0.99126953 72.38660156 -1.92003906 72.39820313 -2.87695312 72.41015625 C-14.14640875 72.36270591 -22.90053025 68.63788825 -31.16796875 60.99609375 C-40.67418713 51.02615741 -43.27411703 40.43173431 -43 27 C-28.25455955 25.92976642 -20.65541695 29.93467571 -9 39 C-8.67 27.45 -8.34 15.9 -8 4 C-8.99 3.67 -9.98 3.34 -11 3 C-10.37351562 2.86722656 -9.74703125 2.73445312 -9.1015625 2.59765625 C-8.28429687 2.42105469 -7.46703125 2.24445313 -6.625 2.0625 C-5.81289063 1.88847656 -5.00078125 1.71445313 -4.1640625 1.53515625 C-1.970537 1.07669307 -1.970537 1.07669307 0 0 Z " fill="#FCB342" transform="translate(336,246)"/>
<path d="M0 0 C0.06316406 1.06476563 0.12632812 2.12953125 0.19140625 3.2265625 C1.15140284 15.68919494 3.87216436 26.59083351 13.3125 35.5625 C25.83887501 45.55786088 38.54705015 46.07308091 54 45 C63.96420693 43.11487977 71.99208116 37.08919407 78.39453125 29.3828125 C84.23621245 20.71267739 85.81514898 11.26763414 86 1 C92.10849414 0.62601056 96.64285578 0.8749992 102 4 C105.39348469 12.7599256 103.08452406 24.48250743 100 33 C95.67020476 42.56163115 88.59960291 49.70152217 79.1171875 54.2109375 C72.99380147 56.49308506 67.59626807 57.35480925 61.125 57.3125 C60.3306958 57.31266113 59.5363916 57.31282227 58.71801758 57.31298828 C54.41456793 57.24848734 50.75543395 56.91848253 46.6875 55.375 C43.19605362 53.66121573 43.19605362 53.66121573 40.3125 54.75 C39.1678125 55.36875 39.1678125 55.36875 38 56 C27.09020577 58.31812864 14.87037979 58.60258213 5 53 C4.23429687 52.59910156 3.46859375 52.19820312 2.6796875 51.78515625 C-3.97752016 47.89238228 -8.0089374 42.50462122 -12 36 C-12.45761719 35.27554688 -12.91523438 34.55109375 -13.38671875 33.8046875 C-16.43103931 27.84422829 -16.40703744 21.62189375 -16.5 15.0625 C-16.51869141 14.1255127 -16.53738281 13.18852539 -16.55664062 12.22314453 C-16.54826172 11.3361084 -16.53988281 10.44907227 -16.53125 9.53515625 C-16.52673828 8.734729 -16.52222656 7.93430176 -16.51757812 7.10961914 C-16 5 -16 5 -14.18164062 3.29077148 C-9.65872113 0.61477827 -5.17194604 -0.11532641 0 0 Z " fill="#E87501" transform="translate(293,193)"/>
<path d="M0 0 C9.21174127 6.41732585 17.39665751 15.89923063 20 27 C21.18427737 38.78235136 19.91875971 48.98933175 12.75 58.75 C8.3305136 64.00050094 4.02415994 68.86594002 -2.5 71.3125 C-10.08905678 70.63490564 -15.49272508 64.03347358 -20.16796875 58.4453125 C-27.34625465 48.86406096 -28.44026634 39.10695889 -27.37255859 27.40917969 C-25.58722873 15.86420254 -17.6511377 6.99376951 -8.6015625 0.19921875 C-5.19129967 -1.37277928 -3.56045879 -1.11727938 0 0 Z " fill="#FDA615" transform="translate(340,107)"/>
<path d="M0 0 C0.13920659 10.44002074 0.2457257 20.87981961 0.31087303 31.32058048 C0.34214567 36.16905126 0.38454364 41.01688568 0.45263672 45.86499023 C0.51797517 50.54642907 0.55373664 55.22725703 0.56926346 59.90911674 C0.58032391 61.69251557 0.6019232 63.4758821 0.63438034 65.25901985 C0.90935882 80.99606768 0.90935882 80.99606768 -2.91162109 85.58764648 C-7.37796419 89.07633709 -9.33475925 89.12059041 -14.9765625 89.09765625 C-15.66181 89.0962413 -16.3470575 89.09482635 -17.05307007 89.09336853 C-19.24375761 89.08776675 -21.4343433 89.07521406 -23.625 89.0625 C-25.10937352 89.05748522 -26.59374865 89.05292228 -28.078125 89.04882812 C-31.71878315 89.03779677 -35.35938164 89.02053099 -39 89 C-37.515 88.01 -37.515 88.01 -36 87 C-31.67761995 84.04813069 -30.3177149 82.03923338 -29 77 C-28.80932628 74.58051338 -28.71683191 72.1522492 -28.69702148 69.7253418 C-28.68858215 69.02381485 -28.68014282 68.3222879 -28.67144775 67.59950256 C-28.64582325 65.2994005 -28.63356942 62.99942625 -28.62109375 60.69921875 C-28.60490947 59.09592179 -28.5877285 57.49263462 -28.56959534 55.88935852 C-28.52404014 51.68289698 -28.48915734 47.47642231 -28.45739746 43.26983643 C-28.40538261 36.51923384 -28.34052757 29.76877386 -28.26918221 23.0183506 C-28.24629901 20.65789203 -28.23006653 18.29745192 -28.21446228 15.93693542 C-28.2010633 14.50051666 -28.18744917 13.06409988 -28.17358398 11.62768555 C-28.16407211 10.36893112 -28.15456024 9.1101767 -28.14476013 7.8132782 C-28 5 -28 5 -27 4 C-23.4469286 3.16833124 -19.84140921 2.5807714 -16.25 1.9375 C-15.24710937 1.75123047 -14.24421875 1.56496094 -13.2109375 1.37304688 C-12.23898437 1.19708984 -11.26703125 1.02113281 -10.265625 0.83984375 C-8.93192871 0.59802368 -8.93192871 0.59802368 -7.57128906 0.35131836 C-5.01035434 0.00141473 -2.58076665 -0.02422394 0 0 Z " fill="#C86D36" transform="translate(444,423)"/>
<path d="M0 0 C1.07672974 -0.0112793 2.15345947 -0.02255859 3.26281738 -0.03417969 C5.02716125 -0.0220343 5.02716125 -0.0220343 6.82714844 -0.00964355 C8.69107239 -0.02015747 8.69107239 -0.02015747 10.59265137 -0.03088379 C13.9978753 -0.04547416 17.40212726 -0.04205291 20.80729675 -0.02936745 C24.37154442 -0.01923659 27.9357507 -0.02863335 31.5 -0.03491211 C37.48542738 -0.04218831 43.47065729 -0.0326017 49.45605469 -0.0135498 C56.37491301 0.00821911 63.29329986 0.0011677 70.21214676 -0.02085543 C76.15368306 -0.03901038 82.09507746 -0.04156736 88.03663254 -0.03110075 C91.58476235 -0.02486625 95.13267058 -0.02402872 98.68078613 -0.0372467 C102.63600985 -0.05095221 106.59070592 -0.03195378 110.54589844 -0.00964355 C111.72212769 -0.01774048 112.89835693 -0.0258374 114.11022949 -0.03417969 C115.7253241 -0.01726074 115.7253241 -0.01726074 117.37304688 0 C118.30808044 0.0015081 119.24311401 0.0030162 120.20648193 0.00457001 C123.470398 0.6670346 124.66510223 1.90614169 126.68652344 4.50793457 C127.18652344 8.00793457 127.18652344 8.00793457 126.68652344 11.50793457 C124.66510223 14.10972745 123.470398 15.34883454 120.20648193 16.01129913 C119.27144836 16.01280724 118.33641479 16.01431534 117.37304688 16.01586914 C116.29631714 16.02714844 115.2195874 16.03842773 114.11022949 16.05004883 C112.34588562 16.03790344 112.34588562 16.03790344 110.54589844 16.0255127 C108.68197449 16.03602661 108.68197449 16.03602661 106.78039551 16.04675293 C103.37517158 16.0613433 99.97091962 16.05792205 96.56575012 16.04523659 C93.00150246 16.03510573 89.43729618 16.04450249 85.87304688 16.05078125 C79.8876195 16.05805745 73.90238958 16.04847084 67.91699219 16.02941895 C60.99813386 16.00765003 54.07974702 16.01470144 47.16090012 16.03672457 C41.21936382 16.05487952 35.27796941 16.0574365 29.33641434 16.04696989 C25.78828453 16.04073539 22.2403763 16.03989786 18.69226074 16.05311584 C14.73703703 16.06682135 10.78234095 16.04782292 6.82714844 16.0255127 C5.65091919 16.03360962 4.47468994 16.04170654 3.26281738 16.05004883 C1.64772278 16.03312988 1.64772278 16.03312988 0 16.01586914 C-0.93503357 16.01436104 -1.87006714 16.01285294 -2.83343506 16.01129913 C-6.09735113 15.34883454 -7.29205535 14.10972745 -9.31347656 11.50793457 C-9.81347656 8.00793457 -9.81347656 8.00793457 -9.31347656 4.50793457 C-6.46345352 0.83963939 -4.59331758 0.0074085 0 0 Z " fill="#FEDBA6" transform="translate(117.3134765625,139.4920654296875)"/>
<path d="M0 0 C1.8871875 0.0309375 1.8871875 0.0309375 3.8125 0.0625 C3.87566406 1.05507813 3.93882812 2.04765625 4.00390625 3.0703125 C5.00989562 15.24625275 8.2234313 27.20980418 17.83203125 35.609375 C26.98187616 42.32287067 35.79859116 44.48711028 46.8125 46.0625 C46.8125 48.3725 46.8125 50.6825 46.8125 53.0625 C36.79764977 57.6693311 26.36985049 58.72122425 15.6875 55.5 C4.34599974 51.28404964 -3.93359754 44.2513235 -9 33.3125 C-11.82100156 26.77581029 -12.4584922 21.62557488 -12.5625 14.5625 C-12.59988281 13.59957031 -12.63726562 12.63664062 -12.67578125 11.64453125 C-12.70865631 9.02548514 -12.6832071 6.63506892 -12.1875 4.0625 C-8.63357116 0.8770387 -4.70793559 -0.07717927 0 0 Z " fill="#FDA615" transform="translate(289.1875,272.9375)"/>
<path d="M0 0 C7.65096368 5.81473239 13.10442789 12.99744891 14.75390625 22.65625 C16.09509793 35.42950406 13.52769216 45.50908428 6 56 C4.69603768 57.36207115 3.36980206 58.70416133 2 60 C-4.95522736 56.87388706 -9.17036 50.35684195 -12.0703125 43.4765625 C-14.81823917 33.20070226 -14.77339209 21.70835518 -9.875 12.125 C-7.11278604 7.35441459 -4.23979273 3.51592568 0 0 Z " fill="#FDB441" transform="translate(326,112)"/>
<path d="M0 0 C9.24 0 18.48 0 28 0 C28 10.89 28 21.78 28 33 C18.76 33 9.52 33 0 33 C0 22.11 0 11.22 0 0 Z " fill="#FEA613" transform="translate(416,39)"/>
<path d="M0 0 C1.00461777 -0.01260864 2.00923553 -0.02521729 3.04429626 -0.03820801 C4.12352859 -0.03011108 5.20276093 -0.02201416 6.31469727 -0.01367188 C7.4291774 -0.01749878 8.54365753 -0.02132568 9.69190979 -0.02526855 C12.04803368 -0.02798964 14.40418769 -0.0206148 16.76025391 -0.00390625 C20.36437503 0.01747887 23.96649801 -0.00369252 27.57055664 -0.02929688 C29.86027458 -0.02665324 32.14999128 -0.02152753 34.43969727 -0.01367188 C35.51690536 -0.0217688 36.59411346 -0.02986572 37.70396423 -0.03820801 C42.23559328 0.01848915 45.13839427 0.05869344 49.12744141 2.33203125 C50.94360352 4.51757812 50.94360352 4.51757812 51.50610352 8.01757812 C50.85295803 12.08159447 50.10866803 13.0096994 46.94360352 15.51757812 C44.51538086 16.01878357 44.51538086 16.01878357 41.77954102 16.01928711 C40.7516748 16.02866806 39.72380859 16.03804901 38.66479492 16.04771423 C37.56055176 16.03648026 36.45630859 16.02524628 35.31860352 16.01367188 C33.61003174 16.01585472 33.61003174 16.01585472 31.86694336 16.01808167 C29.45952801 16.01642222 27.0521021 16.00485598 24.64477539 15.98413086 C20.95746855 15.95518696 17.27159997 15.96351988 13.58422852 15.9765625 C11.24567985 15.97032485 8.90713574 15.9619337 6.56860352 15.95117188 C5.46436035 15.95410751 4.36011719 15.95704315 3.22241211 15.96006775 C2.1945459 15.94738358 1.16667969 15.9346994 0.10766602 15.92163086 C-1.24657471 15.91352638 -1.24657471 15.91352638 -2.62817383 15.90525818 C-5.58257238 15.43357104 -6.95437184 14.63479048 -9.05639648 12.51757812 C-9.73981357 7.13566858 -9.73981357 7.13566858 -9.05639648 4.51757812 C-6.1976343 1.03006963 -4.4963587 0.01622261 0 0 Z " fill="#FEDBA6" transform="translate(117.056396484375,109.482421875)"/>
<path d="M0 0 C0.88449326 -0.01268417 1.76898651 -0.02536835 2.68028259 -0.03843689 C3.62827225 -0.03550125 4.5762619 -0.03256561 5.55297852 -0.02954102 C7.02493431 -0.03740379 7.02493431 -0.03740379 8.52662659 -0.04542542 C10.60026097 -0.05184374 12.67393177 -0.05051108 14.74755859 -0.04199219 C17.91708365 -0.03348698 21.08480358 -0.06223913 24.25415039 -0.09399414 C26.27042589 -0.0956064 28.28670458 -0.09502815 30.30297852 -0.09204102 C31.72192665 -0.10889198 31.72192665 -0.10889198 33.16954041 -0.12608337 C37.41132834 -0.08125466 39.87309658 0.04106004 43.59619141 2.21630859 C45.49438477 4.40405273 45.49438477 4.40405273 46.05688477 7.90405273 C45.49438477 11.40405273 45.49438477 11.40405273 44.11743164 13.58740234 C39.98603758 16.44869266 35.87513423 15.99494738 30.96313477 15.97045898 C29.42103333 15.97975685 29.42103333 15.97975685 27.84777832 15.98924255 C25.67579088 15.99634143 23.50374904 15.99316558 21.33178711 15.98046875 C18.00606348 15.96660143 14.68315203 16.00067641 11.35766602 16.03881836 C9.24698824 16.03976953 7.13630694 16.03791085 5.02563477 16.03295898 C3.53332336 16.0528463 3.53332336 16.0528463 2.01086426 16.07313538 C-4.84300935 15.98054663 -4.84300935 15.98054663 -8.16381836 13.09130859 C-10.00773307 9.39844666 -9.66565853 7.31919884 -8.50561523 3.40405273 C-5.72139291 0.76868742 -3.79836794 0.02646508 0 0 Z " fill="#FEDBA6" transform="translate(198.505615234375,109.595947265625)"/>
<path d="M0 0 C0.07428762 5.46261638 0.12866714 10.92493716 0.16479492 16.38793945 C0.17985946 18.24541345 0.20031509 20.10285201 0.22631836 21.96020508 C0.26280459 24.63371539 0.2797497 27.30675444 0.29296875 29.98046875 C0.30845261 30.80773972 0.32393646 31.63501068 0.33988953 32.48735046 C0.34124372 37.15144877 0.0424085 40.21513472 -3 44 C-5.925916 45.462958 -7.75617347 45.44523109 -11 45 C-14.47659072 41.7807107 -16.27271593 39.61416782 -16.56762695 34.83056641 C-16.56684388 33.2540101 -16.53909645 31.67729986 -16.48828125 30.1015625 C-16.48120651 29.26660248 -16.47413177 28.43164246 -16.46684265 27.57138062 C-16.43899925 24.92165027 -16.37628406 22.27408441 -16.3125 19.625 C-16.28740393 17.82164525 -16.26459305 16.01825715 -16.24414062 14.21484375 C-16.18920611 9.80907017 -16.10300712 5.40490121 -16 1 C-10.01651494 -2.31001301 -6.45358642 -2.03412361 0 0 Z " fill="#D8834F" transform="translate(344,328)"/>
<path d="M0 0 C0.17525427 5.29768631 0.30108431 10.59362557 0.38452148 15.89355469 C0.41936015 17.68975268 0.46685121 19.48575774 0.52807617 21.28125 C0.94101112 33.71787891 -0.14431775 42.38909543 -7 53 C-11.07639872 50.96180064 -12.85961756 46.16682109 -14.4239502 42.05981445 C-16.45649697 34.79191992 -15.58530195 26.71241257 -15.375 19.25 C-15.34484261 17.37764737 -15.31747706 15.50524759 -15.29296875 13.6328125 C-15.22747599 9.08735826 -15.12428067 4.54421126 -15 0 C-8.84103277 -3.46441907 -6.35012201 -3.00795253 0 0 Z " fill="#D77F4A" transform="translate(344,249)"/>
<path d="M0 0 C0.91394531 0.50015625 1.82789063 1.0003125 2.76953125 1.515625 C7.56284205 3.71811364 11.14182118 2.61939294 16 1 C16.14995619 5.64056727 16.25795465 10.27968102 16.32958984 14.92211914 C16.35949391 16.49626269 16.40023431 18.07024356 16.45263672 19.64379883 C16.78750216 29.96881655 16.25990588 37.29932389 10 46 C9.34 46.99 8.68 47.98 8 49 C7.51789063 48.09636719 7.03578125 47.19273437 6.5390625 46.26171875 C5.90112135 45.07026983 5.2630961 43.87886594 4.625 42.6875 C4.30789063 42.09259766 3.99078125 41.49769531 3.6640625 40.88476562 C2.20613651 38.16634112 0.71288297 35.56932446 -1 33 C-1.10230862 30.450964 -1.0923307 28.02810221 -0.9765625 25.48828125 C-0.95153656 24.76005661 -0.92651062 24.03183197 -0.90072632 23.28153992 C-0.81862297 20.95804619 -0.72199821 18.63541494 -0.625 16.3125 C-0.56675041 14.73636324 -0.50944734 13.16019119 -0.453125 11.58398438 C-0.31305901 7.72216114 -0.15996809 3.86104797 0 0 Z " fill="#D8824D" transform="translate(328,174)"/>
</svg>
