<?xml version="1.0" encoding="UTF-8"?>
<svg version="1.1" xmlns="http://www.w3.org/2000/svg" width="512" height="512">
<path d="M0 0 C1.09373428 -0.00101212 1.09373428 -0.00101212 2.20956421 -0.00204468 C53.8940527 0.07361565 100.99029482 20.78411749 138.1875 56.25 C138.96738281 56.97703125 139.74726563 57.7040625 140.55078125 58.453125 C147.17179011 64.8036486 152.68048057 71.9412877 158.1875 79.25 C158.79207031 80.03632812 159.39664062 80.82265625 160.01953125 81.6328125 C164.27143782 87.40547398 167.80218987 93.60697978 171.375 99.8125 C171.88667725 100.69945557 172.39835449 101.58641113 172.92553711 102.50024414 C181.1875 117.05227333 181.1875 117.05227333 181.1875 121.25 C182.02410156 120.98783691 182.86070312 120.72567383 183.72265625 120.45556641 C186.86060138 119.47343823 189.99917607 118.49337334 193.13818359 117.51464844 C194.49032495 117.09260765 195.8422188 116.66977298 197.19384766 116.24609375 C225.42329845 107.39961397 225.42329845 107.39961397 239.1875 114.25 C249.67341918 121.4430848 255.75483338 136.53662558 261.70654297 147.52783203 C263.33193761 150.5154928 264.9807651 153.48967497 266.62890625 156.46484375 C294.91501235 207.92371198 330.33319618 278.53845989 315.625 338.8125 C313.2500786 346.94911452 309.92215938 354.65645973 306.1875 362.25 C305.6409375 363.37148438 305.094375 364.49296875 304.53125 365.6484375 C286.43545007 400.90110434 254.34955954 427.9972113 217.1875 441.25 C215.37958984 441.91128906 215.37958984 441.91128906 213.53515625 442.5859375 C173.69592154 456.15347873 128.97635464 452.83466379 91.31640625 434.32080078 C74.94778031 426.08768227 61.46186445 415.83074901 48.1875 403.25 C44.45501009 404.89300991 41.50624849 407.23323062 38.3125 409.75 C33.53248436 413.47045694 28.71598745 417.13097865 23.8125 420.6875 C23.25449707 421.1 22.69649414 421.5125 22.12158203 421.9375 C13.08841796 428.43687361 3.75455962 430.5114926 -7.2265625 428.89453125 C-20.53793805 425.6642463 -31.72843794 414.23209557 -42.03515625 405.71142578 C-44.33446089 403.82081622 -46.66488141 401.97110836 -49 400.125 C-54.46608186 395.76308493 -59.79086775 391.2380642 -65.109375 386.69873047 C-66.78589988 385.27262688 -68.47015292 383.8561717 -70.15625 382.44140625 C-85.15026066 369.81019328 -99.0663107 356.08790795 -112.9375 342.25 C-113.57237335 341.61780548 -114.2072467 340.98561096 -114.86135864 340.33425903 C-121.39658492 333.81996036 -127.88319005 327.33005059 -133.8125 320.25 C-134.72444537 319.19330647 -135.63717523 318.13728933 -136.55078125 317.08203125 C-142.88594235 309.65095458 -148.99389176 302.09425025 -154.8125 294.25 C-155.27769043 293.62673828 -155.74288086 293.00347656 -156.22216797 292.36132812 C-177.89335003 263.13817717 -195.32190476 230.37587294 -195.125 193.3125 C-195.12284485 192.58323303 -195.1206897 191.85396606 -195.11846924 191.1026001 C-195.06244223 179.26470768 -194.39928242 167.82893085 -191.8125 156.25 C-191.61382324 155.34668945 -191.41514648 154.44337891 -191.21044922 153.51269531 C-179.79355823 103.07312748 -149.6610426 59.53407992 -106.49609375 31.0625 C-103.30341072 29.05678993 -100.07766991 27.13524691 -96.8125 25.25 C-95.6884375 24.59386719 -94.564375 23.93773438 -93.40625 23.26171875 C-64.97768196 7.13092405 -32.4520218 0.02711266 0 0 Z " fill="#E19974" transform="translate(194.8125,30.75)"/>
<path d="M0 0 C23.96564066 42.05448943 48.24430947 86.86014086 56.65771484 135.05419922 C56.97078596 136.83392587 57.321389 138.60694502 57.67578125 140.37890625 C62.64725487 167.40072545 56.1577373 190.60412887 41 213 C38.46843882 216.46152242 35.79861233 219.75222766 33 223 C32.41476562 223.70640625 31.82953125 224.4128125 31.2265625 225.140625 C12.55881893 247.27161512 -18.78712072 264.18828009 -47.6640625 266.81640625 C-49.10902378 266.88540119 -50.55442622 266.94532038 -52 267 C-53.0219043 267.04624512 -54.04380859 267.09249023 -55.09667969 267.14013672 C-88.35640307 268.44799878 -117.42345605 260.43728152 -144 240 C-144.74507813 239.49210938 -145.49015625 238.98421875 -146.2578125 238.4609375 C-153.16356039 233.34070618 -155.46945514 225.89529998 -158 218 C-158.22816406 217.2884375 -158.45632813 216.576875 -158.69140625 215.84375 C-160.32739071 210.60859972 -161.72177044 205.33294137 -163 200 C-163.16661133 199.32759277 -163.33322266 198.65518555 -163.50488281 197.96240234 C-171.69984446 163.52829331 -166.04556706 121.43830588 -148 91 C-117.32627724 44.23704152 -57.88491115 20.17848743 -7.55859375 1.546875 C-6.74704834 1.24620117 -5.93550293 0.94552734 -5.09936523 0.63574219 C-3 0 -3 0 0 0 Z " fill="#F3D5C6" transform="translate(422,181)"/>
<path d="M0 0 C0.87269531 0.32484375 1.74539063 0.6496875 2.64453125 0.984375 C14.89366567 7.0807184 21.41986519 23.91802944 27.70654297 35.52783203 C29.33193761 38.5154928 30.9807651 41.48967497 32.62890625 44.46484375 C60.91501235 95.92371198 96.33319618 166.53845989 81.625 226.8125 C79.2500786 234.94911452 75.92215938 242.65645973 72.1875 250.25 C71.6409375 251.37148438 71.094375 252.49296875 70.53125 253.6484375 C52.43545007 288.90110434 20.34955954 315.9972113 -16.8125 329.25 C-18.01777344 329.69085938 -19.22304688 330.13171875 -20.46484375 330.5859375 C-60.30407846 344.15347873 -105.02364536 340.83466379 -142.68359375 322.32080078 C-181.44862028 302.82270372 -210.42913213 269.07691388 -224.3828125 227.875 C-226.7531323 220.44778921 -228.44994066 212.92083605 -229.8125 205.25 C-230.03808594 203.99445313 -230.26367188 202.73890625 -230.49609375 201.4453125 C-233.30061296 182.83877817 -232.82566506 163.62442306 -228.8125 145.25 C-228.64089355 144.45899902 -228.46928711 143.66799805 -228.29248047 142.85302734 C-223.31860007 120.68614482 -213.90803879 103.17324977 -198.8125 86.25 C-197.93658203 85.26386719 -197.93658203 85.26386719 -197.04296875 84.2578125 C-180.07318777 66.29991769 -156.55113689 53.38227035 -134.8125 42.25 C-133.92965332 41.79560547 -133.04680664 41.34121094 -132.13720703 40.87304688 C-115.50741777 32.40120994 -98.23413974 25.59583149 -80.79681396 19.00061035 C-78.9191028 18.29032485 -77.04276073 17.57642306 -75.16650391 16.86230469 C-61.01274771 11.51244455 -46.70475212 6.86899842 -32.1875 2.625 C-31.43970276 2.40236481 -30.69190552 2.17972961 -29.92144775 1.9503479 C-10.07100899 -3.92573064 -10.07100899 -3.92573064 0 0 Z M-22.6875 42.9375 C-23.32820435 43.18131409 -23.96890869 43.42512817 -24.62902832 43.67633057 C-64.05388261 58.73590796 -103.86808305 76.92920986 -134.8125 106.25 C-135.52986328 106.91854004 -135.52986328 106.91854004 -136.26171875 107.60058594 C-160.88394693 130.65623276 -172.0224173 162.92014812 -173.26171875 196.2890625 C-173.93124787 220.4068535 -172.49459504 253.5209127 -156.8125 273.25 C-142.06371397 287.58020613 -122.36776305 296.60667356 -102.8125 302.25 C-101.73742187 302.57097656 -100.66234375 302.89195312 -99.5546875 303.22265625 C-66.84923055 311.3800498 -31.47383301 303.22416029 -2.93115234 286.55712891 C2.46920864 283.22530905 7.35307435 279.35521061 12.1875 275.25 C13.02796875 274.54875 13.8684375 273.8475 14.734375 273.125 C33.57903513 256.93629868 49.81686102 232.35105679 52.1875 207.25 C55.98696997 152.32051984 25.5280294 97.19393026 0.1875 50.25 C-0.37517578 49.1995752 -0.37517578 49.1995752 -0.94921875 48.12792969 C-3.61809888 43.02088141 -3.61809888 43.02088141 -6.8125 38.25 C-12.37256943 38.25 -17.53814091 40.97098403 -22.6875 42.9375 Z " fill="#EBBBA3" transform="translate(428.8125,142.75)"/>
<path d="M0 0 C40.99275259 7.94973768 75.74254495 25.1005233 106 54 C107.23943359 55.17755859 107.23943359 55.17755859 108.50390625 56.37890625 C113.50278849 61.24245496 117.86958567 66.38210527 122 72 C120.48044482 76.18594447 117.46636224 78.18649745 113.9375 80.625 C113.3189917 81.0573999 112.7004834 81.4897998 112.06323242 81.93530273 C93.53488156 94.6849296 73.68613349 104.26694863 52.32666016 111.23876953 C50.17385953 111.9431171 48.03004061 112.66977631 45.88671875 113.40234375 C9.75374875 125.5218689 -31.39501212 127.04607138 -69 122 C-70.05670898 121.86505127 -71.11341797 121.73010254 -72.20214844 121.59106445 C-101.50293301 117.67085245 -128.65432458 108.1417697 -155 95 C-146.55312276 66.62505315 -110.93055452 39.81181012 -86.11450195 26.17993164 C-68.73064984 16.90754243 -51.39112098 9.59721001 -32.08740234 5.45410156 C-30.09116456 5.01983229 -28.10195491 4.55362558 -26.11328125 4.0859375 C-17.21934602 2.09711604 -9.06460912 1.65284476 0 2 C0 1.34 0 0.68 0 0 Z " fill="#F3D5C6" transform="translate(227,33)"/>
<path d="M0 0 C11.77368402 11.09443302 21.14166994 28.97210985 27 44 C27 44.99 27 45.98 27 47 C26.28908203 47.23485107 25.57816406 47.46970215 24.84570312 47.71166992 C-22.27758219 63.378135 -70.97096863 82.18367075 -109 115 C-109.82757813 115.69351563 -110.65515625 116.38703125 -111.5078125 117.1015625 C-135.18430045 137.51232798 -148.49505549 167.66769693 -150.87109375 198.74658203 C-153.35203978 242.11614991 -142.26238379 284.70032433 -113.43359375 317.9609375 C-111.31266694 320.33079938 -109.17305095 322.6779692 -107 325 C-108.54767109 329.26601647 -111.75788531 331.47890093 -115.25 334.125 C-115.8675415 334.60001953 -116.48508301 335.07503906 -117.12133789 335.56445312 C-119.07195288 337.05524327 -121.03356198 338.53015689 -123 340 C-123.94818604 340.7110791 -123.94818604 340.7110791 -124.91552734 341.43652344 C-126.74808094 342.80247886 -128.58997629 344.15437851 -130.4375 345.5 C-130.99147461 345.90879395 -131.54544922 346.31758789 -132.11621094 346.73876953 C-141.13569523 353.19940073 -150.46802405 355.25632656 -161.4140625 353.64453125 C-174.31785389 350.51315516 -182.95577905 341.73466759 -190 331 C-191.44129269 328.98040438 -192.90541609 326.97858772 -194.37133789 324.97680664 C-206.88086413 307.87301578 -218.99064491 290.61968266 -229.64941406 272.29394531 C-230.99538315 270.00784164 -232.37661568 267.74752436 -233.7734375 265.4921875 C-234.20342041 264.79416016 -234.63340332 264.09613281 -235.07641602 263.37695312 C-235.8785256 262.07786196 -236.6860034 260.78206431 -237.49975586 259.49023438 C-238.39422866 258.02915824 -239.20661292 256.51834186 -240 255 C-239.505 254.01 -239.505 254.01 -239 253 C-238.10087891 254.00740234 -238.10087891 254.00740234 -237.18359375 255.03515625 C-230.1016257 262.87494342 -222.71227841 270.39963222 -215.25 277.875 C-214.75531219 278.37218536 -214.26062439 278.86937073 -213.75094604 279.38162231 C-208.56178204 284.59224733 -203.33540894 289.71143709 -197.74755859 294.49755859 C-195.16130787 296.72105496 -192.68320009 299.0503339 -190.1875 301.375 C-185.46368656 305.74360555 -180.58414388 309.85918263 -175.5703125 313.89453125 C-173.21063516 315.82745843 -170.94348849 317.82296619 -168.6875 319.875 C-163.21864924 324.79993252 -157.39467608 329.27248568 -151.57226562 333.76757812 C-150.09364254 334.9265982 -148.64707195 336.12618034 -147.203125 337.328125 C-145.19541237 339.20150338 -145.19541237 339.20150338 -143 339 C-141.20102714 334.99024122 -140.13396992 331.41108364 -140 327 C-141.99656084 322.80250595 -144.80508787 319.37760002 -147.67724609 315.76123047 C-173.79642009 280.98387329 -181.36946362 231.98832531 -176.22583008 189.74145508 C-172.09762167 161.8954397 -163.0588124 134.20025199 -144 113 C-143.07420201 111.94142089 -142.14842155 110.88282645 -141.22265625 109.82421875 C-135.42668805 103.28965271 -129.30153621 97.41794685 -122.59375 91.828125 C-122.07200195 91.38976318 -121.55025391 90.95140137 -121.01269531 90.49975586 C-119 89 -119 89 -115.94824219 87.25219727 C-109.26898475 83.14278274 -109.26898475 83.14278274 -106.03515625 76.27783203 C-105.67496481 71.97795042 -105.94845156 67.73266873 -106.25 63.4375 C-106.31029623 61.93706385 -106.36503125 60.43639337 -106.4140625 58.93554688 C-106.54530684 55.28543587 -106.75168113 51.64423858 -107 48 C-103.79330818 46.27867994 -100.85390334 45.5081141 -97.26538086 44.86035156 C-77.09821542 41.19705523 -57.36311801 34.04704656 -39 25 C-38.29230469 24.65501465 -37.58460938 24.3100293 -36.85546875 23.95458984 C-23.60209941 17.42640995 -11.24529794 9.60427904 0 0 Z " fill="#E19974" transform="translate(349,106)"/>
<path d="M0 0 C0.87269531 0.32484375 1.74539063 0.6496875 2.64453125 0.984375 C8.30944179 3.80377748 11.47975777 7.70369147 14.75 13 C15.12318359 13.58265625 15.49636719 14.1653125 15.88085938 14.765625 C18.62744177 19.12194351 20.93807841 23.61853785 23.1875 28.25 C19.43908406 29.56558834 15.68550469 30.86507481 11.92651367 32.15014648 C10.64961886 32.58915493 9.37419551 33.03246855 8.1003418 33.48022461 C6.26487368 34.12453771 4.42349062 34.75192142 2.58203125 35.37890625 C1.47706299 35.76119385 0.37209473 36.14348145 -0.76635742 36.53735352 C-3.95814008 37.28407256 -5.73524146 37.33028168 -8.8125 36.25 C-10.625 33.6875 -10.625 33.6875 -11.8125 31.25 C-20.42291272 32.71774185 -28.72131633 35.14439433 -37.0625 37.6875 C-38.13597687 38.01355225 -38.13597687 38.01355225 -39.23114014 38.34619141 C-61.7902604 45.226246 -83.84398107 53.35521867 -105.32568359 63.11962891 C-107.63487656 64.16926207 -109.95129608 65.20101163 -112.26953125 66.23046875 C-140.81033331 79.08671566 -178.46989212 99.55908739 -190.640625 130.34472656 C-202.73774754 163.31223857 -201.91979381 198.65741771 -187.67382812 230.82080078 C-181.57061172 243.7863775 -171.01724434 264.64762783 -157.8125 271.25 C-156.52052055 273.69139566 -155.30829111 276.13173735 -154.125 278.625 C-143.95235875 299.43309392 -129.33823607 317.1953547 -111.8125 332.25 C-114.6746426 333.6810713 -116.50846233 332.59846868 -119.42358398 331.66235352 C-120.19130127 331.40252686 -120.95901855 331.1427002 -121.75 330.875 C-122.54543213 330.60679443 -123.34086426 330.33858887 -124.16040039 330.06225586 C-137.41206361 325.4384974 -150.34800703 319.38837464 -161.8125 311.25 C-162.7715625 310.57453125 -163.730625 309.8990625 -164.71875 309.203125 C-199.10205252 284.21319894 -222.3811086 247.08669893 -229.8125 205.25 C-230.03808594 203.99445313 -230.26367188 202.73890625 -230.49609375 201.4453125 C-233.30061296 182.83877817 -232.82566506 163.62442306 -228.8125 145.25 C-228.64089355 144.45899902 -228.46928711 143.66799805 -228.29248047 142.85302734 C-223.31860007 120.68614482 -213.90803879 103.17324977 -198.8125 86.25 C-197.93658203 85.26386719 -197.93658203 85.26386719 -197.04296875 84.2578125 C-180.07318777 66.29991769 -156.55113689 53.38227035 -134.8125 42.25 C-133.92965332 41.79560547 -133.04680664 41.34121094 -132.13720703 40.87304688 C-115.50741777 32.40120994 -98.23413974 25.59583149 -80.79681396 19.00061035 C-78.9191028 18.29032485 -77.04276073 17.57642306 -75.16650391 16.86230469 C-61.01274771 11.51244455 -46.70475212 6.86899842 -32.1875 2.625 C-31.43970276 2.40236481 -30.69190552 2.17972961 -29.92144775 1.9503479 C-10.07100899 -3.92573064 -10.07100899 -3.92573064 0 0 Z " fill="#E8AD8C" transform="translate(428.8125,142.75)"/>
<path d="M0 0 C8.5265861 5.42600934 9.63571163 19.33642933 11.6875 28.5 C12.00944336 29.9228833 12.00944336 29.9228833 12.33789062 31.37451172 C16.59750134 51.19258875 17.08095018 73.31684084 12 93 C11.61714844 94.61455078 11.61714844 94.61455078 11.2265625 96.26171875 C2.03398939 130.54411296 -26.56806454 154.86129429 -55.828125 172.3125 C-65.49563017 177.78633855 -65.49563017 177.78633855 -71 177 C-77.91480639 172.91668761 -79.10032881 165.29121517 -81 158 C-89.43811577 123.27344847 -91.39657505 88.16129967 -72.8125 56.375 C-59.65940497 34.79732102 -40.1791833 18.89057933 -18.75195312 6.05712891 C-17.24332752 5.14682388 -15.75258473 4.20700029 -14.265625 3.26171875 C-9.28177363 0.211258 -5.85754869 -0.97625812 0 0 Z " fill="#E8AD8C" transform="translate(397,223)"/>
<path d="M0 0 C0.27433434 4.39203523 0.47254024 8.77940737 0.60424805 13.17749023 C0.65918835 14.66893407 0.73398397 16.15979559 0.82983398 17.64916992 C1.60370205 29.99381405 1.60370205 29.99381405 -2.32397461 34.90722656 C-5.11514837 37.19523511 -7.93031038 39.10852487 -11 41 C-12.66190482 42.27092192 -14.31059597 43.55957101 -15.9375 44.875 C-16.74960938 45.52597656 -17.56171875 46.17695313 -18.3984375 46.84765625 C-27.26041513 54.17941252 -35.04511943 61.79421816 -42 71 C-42.60328125 71.78761719 -43.2065625 72.57523437 -43.828125 73.38671875 C-63.12475949 99.68055628 -70.20075008 133.32817634 -70.3125 165.4375 C-70.31511841 166.15910309 -70.31773682 166.88070618 -70.32043457 167.62417603 C-70.32766455 186.36504507 -68.26099072 205.24083764 -62 223 C-61.73735352 223.76022461 -61.47470703 224.52044922 -61.20410156 225.30371094 C-55.04667772 242.94592091 -47.19031652 263.05881808 -34.1953125 276.92578125 C-33 279 -33 279 -33.36328125 282.015625 C-33.67652344 283.08296875 -33.98976562 284.1503125 -34.3125 285.25 C-34.61800781 286.32765625 -34.92351562 287.4053125 -35.23828125 288.515625 C-35.48964844 289.33546875 -35.74101562 290.1553125 -36 291 C-40.94143272 291 -42.87655937 289.12037759 -46.5 286.125 C-47.32371094 285.46371094 -47.32371094 285.46371094 -48.1640625 284.7890625 C-49.38361239 283.80467245 -50.58854478 282.80202272 -51.78198242 281.78613281 C-54.06810649 279.89135859 -54.06810649 279.89135859 -56.9621582 278.01855469 C-66.85016445 270.94561489 -68.81308076 263.59405856 -71.1875 252 C-71.58291706 250.24018226 -71.98225201 248.48124083 -72.38525391 246.72314453 C-73.43248664 242.10062305 -74.42207763 237.46763611 -75.39849854 232.82971191 C-76.19629504 229.07654687 -77.02848556 225.3314019 -77.86177063 221.58598328 C-80.34736419 210.41224498 -82.71749482 199.21691071 -85 188 C-85.22913086 186.87513184 -85.45826172 185.75026367 -85.69433594 184.59130859 C-93.44007793 145.9083155 -97.18775561 106.85813122 -97.18530273 67.43554688 C-97.18748043 63.53504366 -97.20567752 59.63482818 -97.22460938 55.734375 C-97.26591914 37.1241073 -96.87919221 18.42424068 -94 0 C-88.72185129 -0.08378014 -83.65831817 0.07735232 -78.421875 0.7121582 C-53.71270873 3.64886254 -28.95859229 2.39963643 -4.36547852 -0.83813477 C-2 -1 -2 -1 0 0 Z " fill="#E7AC8B" transform="translate(243,154)"/>
<path d="M0 0 C2.13684352 -0.00217577 4.27316005 -0.02036686 6.40991211 -0.03930664 C15.76436619 -0.07606999 24.72848662 0.70494324 33.97045898 2.18530273 C33.97045898 2.84530273 33.97045898 3.50530273 33.97045898 4.18530273 C32.78129883 4.20657227 32.78129883 4.20657227 31.56811523 4.22827148 C-19.74143802 6.32601013 -67.60427749 32.20458479 -102.02954102 69.43530273 C-109.25095262 77.72505051 -116.10643309 87.33908688 -121.02954102 97.18530273 C-119.60641602 97.64936523 -119.60641602 97.64936523 -118.15454102 98.12280273 C-115.02954102 99.18530273 -115.02954102 99.18530273 -113.02954102 100.18530273 C-113.62068934 104.89657576 -114.53635273 109.31069665 -115.84204102 113.87280273 C-121.86364159 135.74990055 -125.46171483 158.50105812 -126.02954102 181.18530273 C-126.06208984 182.24249512 -126.09463867 183.2996875 -126.12817383 184.38891602 C-127.448182 232.00921097 -112.13346978 273.61163034 -91.18359375 315.7512207 C-90.02514709 318.19457022 -89.00679019 320.66465831 -88.02954102 323.18530273 C-116.28512329 295.48375149 -140.11454845 257.83765596 -149.02954102 219.18530273 C-149.42399414 217.62102539 -149.42399414 217.62102539 -149.82641602 216.02514648 C-153.1468101 200.43275534 -151.65975411 182.81824743 -149.02954102 167.18530273 C-148.90595215 166.44393066 -148.78236328 165.70255859 -148.6550293 164.9387207 C-144.41113869 140.49905494 -134.30805673 118.10791766 -123.02954102 96.18530273 C-124.11750977 95.4956543 -125.20547852 94.80600586 -126.32641602 94.09545898 C-135.17355459 88.4506032 -143.75358184 82.64342116 -152.02954102 76.18530273 C-145.87649818 62.40505054 -131.64937711 51.2513287 -120.02954102 42.18530273 C-119.07047852 41.43249023 -118.11141602 40.67967773 -117.12329102 39.90405273 C-110.05171328 34.47010353 -102.74181989 29.65966983 -95.02954102 25.18530273 C-93.90161133 24.5265918 -92.77368164 23.86788086 -91.61157227 23.18920898 C-63.83274538 7.43508423 -31.76066175 -0.00360221 0 0 Z " fill="#EBBBA3" transform="translate(193.029541015625,30.814697265625)"/>
<path d="M0 0 C4.98061981 3.43109365 6.83572818 8.23543467 8 14 C8.39453125 17.0546875 8.39453125 17.0546875 8 20 C5.8671875 21.94921875 5.8671875 21.94921875 2.875 23.6875 C-22.23951296 39.28090065 -45.4429658 62.53263846 -53 92 C-53.26425781 93.02738281 -53.52851563 94.05476563 -53.80078125 95.11328125 C-59.07184179 116.77209399 -57.96076441 139.17261439 -52.8984375 160.796875 C-52.17457775 163.93198432 -51.79120329 166.76365094 -52 170 C-54.03369998 171.18280474 -56.07512682 172.34583227 -58.125 173.5 C-59.26195312 174.1496875 -60.39890625 174.799375 -61.5703125 175.46875 C-65.18304685 177.08172479 -67.11229658 177.6321469 -71 177 C-77.91480639 172.91668761 -79.10032881 165.29121517 -81 158 C-89.43811577 123.27344847 -91.39657505 88.16129967 -72.8125 56.375 C-59.65940497 34.79732102 -40.1791833 18.89057933 -18.75195312 6.05712891 C-17.24332752 5.14682388 -15.75258473 4.20700029 -14.265625 3.26171875 C-9.28177363 0.211258 -5.85754869 -0.97625812 0 0 Z " fill="#E19974" transform="translate(397,223)"/>
<path d="M0 0 C0.66 0 1.32 0 2 0 C2 0.66 2 1.32 2 2 C2.94875 2.309375 3.8975 2.61875 4.875 2.9375 C8 4 8 4 10 5 C9.40885167 9.71127303 8.49318829 14.12539391 7.1875 18.6875 C1.16589943 40.56459781 -2.43217382 63.31575538 -3 86 C-3.03254883 87.05719238 -3.06509766 88.11438477 -3.09863281 89.20361328 C-4.41864099 136.82390824 10.89607124 178.42632761 31.84594727 220.56591797 C33.00439392 223.00926748 34.02275083 225.47935557 35 228 C6.74441773 200.29844875 -17.08500743 162.65235323 -26 124 C-26.26296875 122.95714844 -26.5259375 121.91429687 -26.796875 120.83984375 C-30.11726909 105.2474526 -28.6302131 87.6329447 -26 72 C-25.87641113 71.25862793 -25.75282227 70.51725586 -25.62548828 69.75341797 C-21.54499334 46.25471317 -12.08015656 24.63164436 -1.25 3.52734375 C0.07388837 1.32053502 0.07388837 1.32053502 0 0 Z " fill="#E7AC8B" transform="translate(70,126)"/>
<path d="M0 0 C11.77368402 11.09443302 21.14166994 28.97210985 27 44 C27 44.99 27 45.98 27 47 C26.17387207 47.28198242 25.34774414 47.56396484 24.49658203 47.85449219 C21.38340038 48.91850753 18.27104055 49.98486525 15.15917969 51.05273438 C13.82127749 51.51133359 12.48306936 51.96904142 11.14453125 52.42578125 C3.99686277 54.86540463 -3.10253868 57.335981 -10.05126953 60.30957031 C-12 61 -12 61 -15 61 C-15.67608269 58.14777615 -16.34105115 55.29368707 -17 52.4375 C-17.19078125 51.63763672 -17.3815625 50.83777344 -17.578125 50.01367188 C-17.75859375 49.22412109 -17.9390625 48.43457031 -18.125 47.62109375 C-18.29257812 46.9036499 -18.46015625 46.18620605 -18.6328125 45.44702148 C-19.10766194 42.28251622 -19.05440485 39.19458478 -19 36 C-49.00929569 48.76832591 -78.75027258 61.87605951 -106 80 C-106.79585256 69.312837 -107.12825004 58.71600323 -107 48 C-103.89204936 46.12549191 -100.80936517 45.50007454 -97.26538086 44.86035156 C-77.09821542 41.19705523 -57.36311801 34.04704656 -39 25 C-38.29230469 24.65501465 -37.58460938 24.3100293 -36.85546875 23.95458984 C-23.60209941 17.42640995 -11.24529794 9.60427904 0 0 Z " fill="#E19974" transform="translate(349,106)"/>
<path d="M0 0 C3.36867466 3.36508715 6.72997059 6.73738881 10.08772278 10.1133728 C12.78407398 12.82321063 15.48316964 15.53030822 18.18237305 18.23730469 C19.59799159 19.65795294 21.01271144 21.0794973 22.42651367 22.50195312 C24.48635431 24.57403614 26.54950788 26.64277229 28.61328125 28.7109375 C29.23439285 29.33721039 29.85550446 29.96348328 30.49543762 30.60873413 C34.27203338 34.38580224 38.16697831 37.96899525 42.21481323 41.4541626 C44.807244 43.69901256 47.30314766 46.03761726 49.8125 48.375 C54.53631344 52.74360555 59.41585612 56.85918263 64.4296875 60.89453125 C66.78936484 62.82745843 69.05651151 64.82296619 71.3125 66.875 C76.78135076 71.79993252 82.60532392 76.27248568 88.42773438 80.76757812 C89.90635746 81.9265982 91.35292805 83.12618034 92.796875 84.328125 C94.80458763 86.20150338 94.80458763 86.20150338 97 86 C97.29245605 84.97640381 97.58491211 83.95280762 97.88623047 82.89819336 C101.59082031 69.93212891 105.29541016 56.96606445 109 44 C113.3039685 45.43465617 114.7000059 48.72345894 117.0625 52.375 C121.82614237 59.54659324 126.98543397 65.84191937 133 72 C131.45232891 76.26601647 128.24211469 78.47890093 124.75 81.125 C123.82368774 81.8375293 123.82368774 81.8375293 122.87866211 82.56445312 C120.92804712 84.05524327 118.96643802 85.53015689 117 87 C116.36787598 87.47405273 115.73575195 87.94810547 115.08447266 88.43652344 C113.25191906 89.80247886 111.41002371 91.15437851 109.5625 92.5 C109.00852539 92.90879395 108.45455078 93.31758789 107.88378906 93.73876953 C98.86430477 100.19940073 89.53197595 102.25632656 78.5859375 100.64453125 C65.68214611 97.51315516 57.04422095 88.73466759 50 78 C48.55870731 75.98040438 47.09458391 73.97858772 45.62866211 71.97680664 C33.11895284 54.87276553 21.00800159 37.61833383 10.34619141 19.29394531 C9.00720963 17.0122854 7.64065524 14.74989208 6.26171875 12.4921875 C5.62351196 11.44514648 5.62351196 11.44514648 4.97241211 10.37695312 C4.18032434 9.07974528 3.38572026 7.78406922 2.58813477 6.49023438 C0 2.22299788 0 2.22299788 0 0 Z " fill="#DC8758" transform="translate(109,359)"/>
<path d="M0 0 C0.67429967 3.39436356 1.3380828 6.79070193 2 10.1875 C2.19078125 11.14720703 2.3815625 12.10691406 2.578125 13.09570312 C2.75859375 14.02705078 2.9390625 14.95839844 3.125 15.91796875 C3.29257812 16.77156982 3.46015625 17.6251709 3.6328125 18.50463867 C4.00595229 21.04045103 4.06412996 23.44081397 4 26 C3.19594727 26.34144043 2.39189453 26.68288086 1.56347656 27.03466797 C-26.15106606 38.83608163 -52.57716629 51.3946685 -77.27880859 68.79980469 C-79.82516223 70.57538972 -82.40981409 72.28912451 -85 74 C-85.35079676 70.04727224 -85.61184532 66.09701699 -85.8359375 62.13525391 C-86.00373728 59.95135969 -86.29236151 57.80584647 -86.59375 55.63671875 C-87.0753238 51.31697294 -87.38030981 47.18165628 -86 43 C-82.46474848 38.91343112 -78.40842893 36.73802407 -73.62011719 34.33105469 C-70.662989 32.82879389 -67.7766264 31.2223486 -64.8828125 29.6015625 C-46.01552804 19.11645343 -26.7137571 10.1136234 -6.77734375 1.87109375 C-5.90327881 1.50943115 -5.02921387 1.14776855 -4.12866211 0.77514648 C-2 0 -2 0 0 0 Z " fill="#DC8758" transform="translate(330,142)"/>
<path d="M0 0 C3.92747419 3.67027677 6.8372894 7.45520081 9.6875 12 C10.07744141 12.60328125 10.46738281 13.2065625 10.86914062 13.828125 C12.96881496 17.13017694 14.60513031 20.35397318 16 24 C11.99896776 25.38996526 7.99707036 26.7774029 3.99438477 28.16259766 C2.63542563 28.63327335 1.27669703 29.10461525 -0.08178711 29.57666016 C-2.04479354 30.25863007 -4.00864183 30.93812677 -5.97265625 31.6171875 C-7.15093994 32.02565918 -8.32922363 32.43413086 -9.54321289 32.85498047 C-13.00987884 34.00327225 -16.48235157 35.0218934 -20 36 C-20.20496094 34.87980469 -20.40992188 33.75960937 -20.62109375 32.60546875 C-20.89311689 31.13279176 -21.16525849 29.66013664 -21.4375 28.1875 C-21.57220703 27.44951172 -21.70691406 26.71152344 -21.84570312 25.95117188 C-22.41419737 22.88684924 -23.01309651 19.96071047 -24 17 C-23.48614746 16.66266846 -22.97229492 16.32533691 -22.44287109 15.9777832 C-20.08441684 14.42644795 -17.72970212 12.86952396 -15.375 11.3125 C-14.56675781 10.78205078 -13.75851562 10.25160156 -12.92578125 9.70507812 C-8.37990758 6.69297484 -4.11047894 3.58502936 0 0 Z " fill="#E7AD8C" transform="translate(349,106)"/>
<path d="M0 0 C5.00231129 3.19112962 9.5501784 6.78975751 14.125 10.5625 C15.52288695 11.71030625 16.92130768 12.85746279 18.3203125 14.00390625 C18.93148926 14.50736572 19.54266602 15.0108252 20.17236328 15.52954102 C23.67967481 18.77138762 23.67967481 18.77138762 28 20 C28.19335938 19.28972656 28.38671875 18.57945312 28.5859375 17.84765625 C28.84632813 16.92855469 29.10671875 16.00945312 29.375 15.0625 C29.75785156 13.68771484 29.75785156 13.68771484 30.1484375 12.28515625 C31 10 31 10 33 9 C33.53109375 9.67546875 34.0621875 10.3509375 34.609375 11.046875 C35.31578125 11.93890625 36.0221875 12.8309375 36.75 13.75 C37.44609375 14.63171875 38.1421875 15.5134375 38.859375 16.421875 C40.79945897 18.75847248 42.81512186 20.8938562 45 23 C34.40551155 31.06560513 25.70304595 36.31460116 12 35 C9.91577148 34.26293945 9.91577148 34.26293945 8 33 C7.28173828 31.00390625 7.28173828 31.00390625 6.9453125 28.5625 C6.01676161 22.88915607 4.50740941 17.50645281 2.875 12 C2.32836581 10.14652871 1.7839765 8.29239338 1.2421875 6.4375 C0.88423096 5.22900391 0.88423096 5.22900391 0.51904297 3.99609375 C0 2 0 2 0 0 Z " fill="#E19974" transform="translate(178,425)"/>
<path d="M0 0 C3.43117231 3.33025548 6.59166135 6.78849411 9.66796875 10.44921875 C10.72555357 11.68048318 11.85228537 12.85228537 13 14 C6.5524329 19.07369299 0.97704975 22.90765908 -7 25 C-6.40577929 20.14719757 -5.42579433 15.67343699 -4 11 C-3.74863281 10.13246094 -3.49726563 9.26492188 -3.23828125 8.37109375 C-2.97402344 7.46488281 -2.70976562 6.55867188 -2.4375 5.625 C-2.18871094 4.77164062 -1.93992188 3.91828125 -1.68359375 3.0390625 C-1 1 -1 1 0 0 Z " fill="#E09873" transform="translate(210,434)"/>
<path d="M0 0 C1.33897583 0.95043374 2.67105427 1.91059147 4 2.875 C4.7425 3.40867187 5.485 3.94234375 6.25 4.4921875 C6.8275 4.98976563 7.405 5.48734375 8 6 C8 6.66 8 7.32 8 8 C6.5437455 8.67119549 5.08492133 9.33681807 3.625 10 C2.40683594 10.556875 2.40683594 10.556875 1.1640625 11.125 C-1 12 -1 12 -3 12 C-2.49202991 7.6822542 -1.80317221 3.96697886 0 0 Z " fill="#DC885A" transform="translate(206,447)"/>
<path d="M0 0 C0.66 0.33 1.32 0.66 2 1 C-6.91 9.91 -15.82 18.82 -25 28 C-25 24.5112936 -24.61199452 24.20928758 -22.32421875 21.77734375 C-21.74816895 21.16060791 -21.17211914 20.54387207 -20.57861328 19.90844727 C-19.64251221 18.93282837 -19.64251221 18.93282837 -18.6875 17.9375 C-17.74366455 16.93964478 -17.74366455 16.93964478 -16.78076172 15.92163086 C-11.43376251 10.32544717 -5.84628785 5.07075987 0 0 Z " fill="#EEC2AC" transform="translate(70,75)"/>
</svg>
