<?xml version="1.0" encoding="UTF-8"?>
<svg version="1.1" xmlns="http://www.w3.org/2000/svg" width="512" height="512">
<path d="M0 0 C99 0 198 0 300 0 C300.33 11.22 300.66 22.44 301 34 C302.6427412 41.98009362 302.6427412 41.98009362 304.86479522 49.6687853 C310.98677596 68.68600479 311.2536957 87.2703174 311.04459059 107.06558537 C311.00483472 111.81344673 311.0189378 116.56123784 311.02571106 121.30921936 C311.03037558 129.48891944 311.00272186 137.66796145 310.95157051 145.84749603 C310.87766886 157.67285092 310.85491121 169.49789549 310.84367859 181.3234562 C310.82409799 200.52066698 310.7645259 219.71752886 310.67895508 238.91455078 C310.59603765 257.5359526 310.53248288 276.15725884 310.49438477 294.77880859 C310.49202025 295.93129183 310.48965574 297.08377506 310.48721958 298.27118203 C310.47547219 304.05424232 310.46409931 309.83730327 310.45291245 315.62036467 C310.35997751 363.41381722 310.20178355 411.20689138 310 459 C306.7 459 303.4 459 300 459 C300 465.93 300 472.86 300 480 C201 480 102 480 0 480 C0 473.07 0 466.14 0 459 C-3.3 459 -6.6 459 -10 459 C-10.20664017 410.0565852 -10.36491024 361.11321503 -10.45958797 312.16944872 C-10.47084241 306.37256797 -10.4824915 300.57568807 -10.49438477 294.77880859 C-10.49674556 293.62490262 -10.49910635 292.47099665 -10.50153869 291.28212383 C-10.54054933 272.67301362 -10.61142563 254.06415727 -10.69437516 235.45519695 C-10.77896259 216.31714895 -10.82861783 197.17923259 -10.84679645 178.04100537 C-10.85905854 166.26064594 -10.8975802 154.48100439 -10.9712482 142.70086631 C-11.01934729 134.58916729 -11.03308437 126.47783159 -11.0215124 118.3660008 C-11.01582771 113.70698795 -11.02363673 109.04921614 -11.07284927 104.39043236 C-11.27069274 84.70322419 -10.43369457 66.6029815 -4.23745686 47.76114249 C0.77236739 31.30384647 -0.5519749 18.76714666 0 0 Z " fill="#F4C839" transform="translate(106,16)"/>
<path d="M0 0 C99 0 198 0 300 0 C300.33 11.22 300.66 22.44 301 34 C303.97 45.88 306.94 57.76 310 70 C310 96.07 310 122.14 310 149 C204.4 149 98.8 149 -10 149 C-10 70 -10 70 -1 34 C-0.67 22.78 -0.34 11.56 0 0 Z " fill="#8A7658" transform="translate(106,16)"/>
<path d="M0 0 C105.6 0 211.2 0 320 0 C320 38.94 320 77.88 320 118 C316.7 118 313.4 118 310 118 C310 124.93 310 131.86 310 139 C211 139 112 139 10 139 C10 132.07 10 125.14 10 118 C6.7 118 3.4 118 0 118 C0 79.06 0 40.12 0 0 Z " fill="#877354" transform="translate(96,357)"/>
<path d="M0 0 C99 0 198 0 300 0 C300 10.56 300 21.12 300 32 C201 32 102 32 0 32 C0 21.44 0 10.88 0 0 Z " fill="#867254" transform="translate(106,16)"/>
<path d="M0 0 C99 0 198 0 300 0 C300 6.93 300 13.86 300 21 C201 21 102 21 0 21 C0 14.07 0 7.14 0 0 Z " fill="#7D6948" transform="translate(106,475)"/>
<path d="M0 0 C6.93 0 13.86 0 21 0 C23.05743615 10.01163792 24.87951206 20.01090952 26.4453125 30.11328125 C26.66263182 31.50281345 26.88015553 32.8923137 27.09786987 34.28178406 C27.54857969 37.16288256 27.99706846 40.04431482 28.44384766 42.92602539 C29.01238206 46.59206036 29.58627799 50.25723217 30.16179085 53.92217731 C30.60995486 56.77968484 31.0554346 59.63760596 31.50011826 62.49565697 C31.81167073 64.49531522 32.12530344 66.49464903 32.43899536 68.49397278 C33.49434692 75.32183673 34.38891956 82.11775785 35 89 C30.38 89 25.76 89 21 89 C18.99308579 83.10468951 19 79.66812445 19 73 C13.06 73 7.12 73 1 73 C0.855625 74.340625 0.71125 75.68125 0.5625 77.0625 C0.12018891 81.05593729 -0.4081554 85.02618628 -1 89 C-5.29 89 -9.58 89 -14 89 C-13.29457212 79.88884204 -11.9938492 70.91444009 -10.56640625 61.89453125 C-10.32579921 60.36003271 -10.08540093 58.82550143 -9.84519958 57.29093933 C-9.34401562 54.09438863 -8.84029045 50.89825184 -8.3347168 47.70239258 C-7.68989331 43.62493423 -7.05155364 39.54649184 -6.41511631 35.46771717 C-5.92100509 32.30586987 -5.4234228 29.14457619 -4.92481804 25.98343468 C-4.68814512 24.48023905 -4.45253468 22.9768757 -4.21805 21.47333717 C-3.889204 19.3681261 -3.55565956 17.26370912 -3.22094727 15.15942383 C-2.93901268 13.37052483 -2.93901268 13.37052483 -2.65138245 11.54548645 C-1.93786804 7.66181463 -0.9576936 3.83077441 0 0 Z " fill="#544E42" transform="translate(248,217)"/>
<path d="M0 0 C5.04568162 3.22064784 8.06245592 7.13215199 9.9375 12.875 C10.18650142 16.56520108 10.02677037 20.1702795 9.9375 23.875 C5.6475 23.875 1.3575 23.875 -3.0625 23.875 C-3.51822917 21.3359375 -3.97395833 18.796875 -4.4296875 16.2578125 C-4.89294703 13.70994012 -4.89294703 13.70994012 -7.0625 11.875 C-11.16486398 11.38144208 -11.16486398 11.38144208 -14.7265625 13.1328125 C-16.36373173 15.26783436 -16.49527329 16.39191052 -16.5 19.0625 C-16.51933594 19.77792969 -16.53867187 20.49335938 -16.55859375 21.23046875 C-14.84583301 30.36069724 -8.52648137 35.73376703 -1.99414062 41.78710938 C4.68154525 48.16248324 9.51473521 54.85926492 10.17578125 64.265625 C10.44399271 78.21262117 10.44399271 78.21262117 5.9375 83.875 C0.90326261 88.78015438 -3.9343881 90.18241135 -10.875 90.3125 C-17.228061 90.2127137 -21.43843919 89.32390699 -26.0625 84.875 C-32.02018618 77.50628288 -32.28554125 71.01969119 -32.0625 61.875 C-27.4425 61.875 -22.8225 61.875 -18.0625 61.875 C-17.8671875 64.64192708 -17.671875 67.40885417 -17.4765625 70.17578125 C-17.22384528 73.09028433 -17.22384528 73.09028433 -15.0625 75.875 C-13.160506 76.35058206 -13.160506 76.35058206 -11.0625 76.25 C-10.010625 76.26160156 -10.010625 76.26160156 -8.9375 76.2734375 C-6.65191406 76.015914 -6.65191406 76.015914 -5.0625 72.875 C-4.03766923 67.41580532 -4.56061767 62.94859843 -7.5625 58.25 C-10.96529283 53.69685403 -14.92864477 49.7601378 -19.0625 45.875 C-25.68505876 39.56046723 -30.51752751 33.69226447 -31.3984375 24.2890625 C-31.4838608 16.00300286 -31.51353098 9.48873186 -25.56640625 3.32421875 C-18.99301438 -2.49511819 -8.15376568 -3.07348152 0 0 Z " fill="#544D42" transform="translate(319.0625,217.125)"/>
<path d="M0 0 C12.87 0 25.74 0 39 0 C39 4.29 39 8.58 39 13 C30.75 13 22.5 13 14 13 C14 21.25 14 29.5 14 38 C20.6 38 27.2 38 34 38 C34 42.29 34 46.58 34 51 C27.73 51 21.46 51 15 51 C15 59.58 15 68.16 15 77 C22.92 77 30.84 77 39 77 C39 81.29 39 85.58 39 90 C26.13 90 13.26 90 0 90 C0 60.3 0 30.6 0 0 Z " fill="#575042" transform="translate(190,216)"/>
<path d="M0 0 C4.62 0 9.24 0 14 0 C17.1148029 9.58400894 19.61558355 19.24178224 21.98095703 29.03515625 C22.2282959 30.04964844 22.47563477 31.06414062 22.73046875 32.109375 C22.95114014 33.02686523 23.17181152 33.94435547 23.39916992 34.88964844 C23.80595033 36.96810289 23.80595033 36.96810289 25 38 C25.12528076 37.45287354 25.25056152 36.90574707 25.37963867 36.34204102 C28.1988973 24.09712499 31.30120413 12.00928192 35 0 C39.29 0 43.58 0 48 0 C46.53445404 8.39358142 44.19481702 16.44896979 41.72949219 24.58935547 C40.96311188 27.12189868 40.20350659 29.65640081 39.4453125 32.19140625 C38.44230322 35.54363393 37.43747618 38.89529977 36.4296875 42.24609375 C36.08176147 43.43041992 36.08176147 43.43041992 35.72680664 44.63867188 C35.25105692 46.18433909 34.73573738 47.71850566 34.17749023 49.23632812 C31.38021697 57.21463796 31.44138204 65.27455671 31.3125 73.625 C31.27925644 75.12112232 31.24476053 76.61721735 31.20898438 78.11328125 C31.12258145 81.74220415 31.06184655 85.37024758 31 89 C26.38 89 21.76 89 17 89 C16.98582031 86.875625 16.97164062 84.75125 16.95703125 82.5625 C16.78379989 67.93347374 16.53236671 54.7790045 11 41 C9.94925476 37.89070838 8.97436896 34.75894259 8 31.625 C7.62621216 30.44284912 7.62621216 30.44284912 7.24487305 29.23681641 C5.44917494 23.5369456 3.74844344 17.81375954 2.125 12.0625 C1.90972656 11.3111377 1.69445312 10.55977539 1.47265625 9.78564453 C0.52187624 6.3595308 0 3.58610357 0 0 Z " fill="#534C42" transform="translate(136,217)"/>
<path d="M0 0 C14.52 0 29.04 0 44 0 C44 4.29 44 8.58 44 13 C39.05 13 34.1 13 29 13 C29 38.41 29 63.82 29 90 C24.38 90 19.76 90 15 90 C15 64.92 15 39.84 15 14 C10.05 14 5.1 14 0 14 C0 9.38 0 4.76 0 0 Z " fill="#554E42" transform="translate(333,216)"/>
<path d="M0 0 C2.31823669 3.76790408 2.72206108 7.78994368 3.2890625 12.08984375 C3.39721283 12.87138321 3.50536316 13.65292267 3.61679077 14.45814514 C3.84358642 16.10762512 4.06695155 17.75757994 4.28710938 19.40795898 C4.62348164 21.92613318 4.97098252 24.44257845 5.3203125 26.95898438 C5.53972124 28.56501431 5.75849246 30.1711315 5.9765625 31.77734375 C6.07965729 32.52644516 6.18275208 33.27554657 6.28897095 34.04734802 C6.78114748 37.76545351 7 41.23117898 7 45 C2.71 45 -1.58 45 -6 45 C-5.67264713 41.99926535 -5.33792491 38.9995582 -5 36 C-4.85433594 34.69289063 -4.70867187 33.38578125 -4.55859375 32.0390625 C-3.70497557 24.50062741 -2.74921442 17.01519427 -1.44140625 9.5390625 C-0.89001459 6.36734054 -0.43493301 3.18950872 0 0 Z " fill="#ECC239" transform="translate(257,233)"/>
<path d="M0 0 C2.64 0 5.28 0 8 0 C8 6.27 8 12.54 8 19 C5.36 19 2.72 19 0 19 C0 12.73 0 6.46 0 0 Z " fill="#7D6948" transform="translate(367,29)"/>
<path d="M0 0 C2.64 0 5.28 0 8 0 C8 6.27 8 12.54 8 19 C5.36 19 2.72 19 0 19 C0 12.73 0 6.46 0 0 Z " fill="#7D6948" transform="translate(342,29)"/>
<path d="M0 0 C2.64 0 5.28 0 8 0 C8 6.27 8 12.54 8 19 C5.36 19 2.72 19 0 19 C0 12.73 0 6.46 0 0 Z " fill="#7D6948" transform="translate(316,29)"/>
<path d="M0 0 C2.64 0 5.28 0 8 0 C8 6.27 8 12.54 8 19 C5.36 19 2.72 19 0 19 C0 12.73 0 6.46 0 0 Z " fill="#7D6948" transform="translate(239,29)"/>
<path d="M0 0 C2.64 0 5.28 0 8 0 C8 6.27 8 12.54 8 19 C5.36 19 2.72 19 0 19 C0 12.73 0 6.46 0 0 Z " fill="#7D6948" transform="translate(214,29)"/>
<path d="M0 0 C2.64 0 5.28 0 8 0 C8 6.27 8 12.54 8 19 C5.36 19 2.72 19 0 19 C0 12.73 0 6.46 0 0 Z " fill="#7D6948" transform="translate(188,29)"/>
<path d="M0 0 C2.64 0 5.28 0 8 0 C8 6.27 8 12.54 8 19 C5.36 19 2.72 19 0 19 C0 12.73 0 6.46 0 0 Z " fill="#7D6948" transform="translate(111,29)"/>
<path d="M0 0 C2.31 0 4.62 0 7 0 C7 6.27 7 12.54 7 19 C4.36 19 1.72 19 -1 19 C-1.02683987 16.02077407 -1.04676037 13.04178705 -1.0625 10.0625 C-1.07087891 9.21236328 -1.07925781 8.36222656 -1.08789062 7.48632812 C-1.09111328 6.67744141 -1.09433594 5.86855469 -1.09765625 5.03515625 C-1.10289307 4.2862915 -1.10812988 3.53742676 -1.11352539 2.76586914 C-1 1 -1 1 0 0 Z " fill="#7D6948" transform="translate(291,29)"/>
<path d="M0 0 C2.31 0 4.62 0 7 0 C7 6.27 7 12.54 7 19 C4.36 19 1.72 19 -1 19 C-1.02683987 16.02077407 -1.04676037 13.04178705 -1.0625 10.0625 C-1.07087891 9.21236328 -1.07925781 8.36222656 -1.08789062 7.48632812 C-1.09111328 6.67744141 -1.09433594 5.86855469 -1.09765625 5.03515625 C-1.10289307 4.2862915 -1.10812988 3.53742676 -1.11352539 2.76586914 C-1 1 -1 1 0 0 Z " fill="#7D6948" transform="translate(163,29)"/>
</svg>
