<?xml version="1.0" encoding="UTF-8"?>
<svg version="1.1" xmlns="http://www.w3.org/2000/svg" width="512" height="512">
<path d="M0 0 C0.85715607 -0.00067474 1.71431213 -0.00134949 2.59744263 -0.00204468 C40.78253984 0.04537701 77.76270564 6.34636549 112.625 22.25 C113.26663086 22.53987793 113.90826172 22.82975586 114.56933594 23.12841797 C128.55772043 29.52513517 141.05364624 38.1608575 152.625 48.25 C153.11597168 48.67394043 153.60694336 49.09788086 154.11279297 49.53466797 C161.39750243 55.85824862 167.73652187 62.58677149 173.625 70.25 C174.53849332 71.42101715 175.4525815 72.59157044 176.3671875 73.76171875 C183.40349434 82.80698868 183.40349434 82.80698868 184.625 85.25 C188.11379873 83.61410394 191.26208469 81.58324726 194.5 79.5 C216.72066405 65.60377004 241.99924249 61.95569499 267.46020508 67.41601562 C291.91624522 73.15163416 313.05788207 88.01940444 326.625 109.25 C334.63475461 123.07563865 339.99397864 138.18524791 340.625 154.25 C340.70234375 155.53970703 340.70234375 155.53970703 340.78125 156.85546875 C341.52785523 179.40916845 334.40865937 203.56916179 319.125 220.5 C318.4546875 221.18578125 317.784375 221.8715625 317.09375 222.578125 C315.40500182 224.12952393 315.40500182 224.12952393 315.625 226.25 C316.41261719 226.62769531 317.20023437 227.00539063 318.01171875 227.39453125 C337.75554145 237.37158722 349.72809282 251.99755961 357.94921875 272.5625 C364.29259835 292.14907561 362.25263919 315.29353406 353.3125 333.6875 C350.26385612 339.39078929 346.9439393 344.44047124 342.625 349.25 C341.89667969 350.07113281 341.16835938 350.89226562 340.41796875 351.73828125 C329.23493601 363.64396554 313.69046978 372.2545426 297.12402344 373.42700195 C271.95919671 374.01120206 251.80113805 370.39944381 232.85546875 352.65625 C227.80803455 347.74294343 227.80803455 347.74294343 225.625 345.25 C225.625 344.59 225.625 343.93 225.625 343.25 C222.52659002 346.18242373 220.09117533 349.27493476 217.625 352.75 C199.75891474 377.0388773 172.66464339 392.23198414 143.0625 397.125 C112.89966592 401.58125791 82.04225723 394.71863662 57.15625 376.9453125 C32.32446612 358.40333762 15.8036604 331.79968275 10.625 301.25 C6.20403114 270.29631021 13.19715559 238.63450414 31.73046875 213.29467773 C41.63832373 200.14044287 53.37313332 189.51608268 67.625 181.25 C67.04234375 180.84910156 66.4596875 180.44820312 65.859375 180.03515625 C54.41664092 172.10080762 43.70356116 163.84231479 33.625 154.25 C32.67367187 153.37794922 32.67367187 153.37794922 31.703125 152.48828125 C-4.06212408 118.68160533 -29.31741946 57.04341455 -31.49804688 8.51147461 C-31.49967033 6.42391407 -31.44454675 4.33640238 -31.375 2.25 C-22.94876987 -1.96311506 -9.30749526 0.00661036 0 0 Z " fill="#01135A" transform="translate(91.375,56.75)"/>
<path d="M0 0 C0.85715607 -0.00067474 1.71431213 -0.00134949 2.59744263 -0.00204468 C40.78253984 0.04537701 77.76270564 6.34636549 112.625 22.25 C113.26663086 22.53987793 113.90826172 22.82975586 114.56933594 23.12841797 C128.55772043 29.52513517 141.05364624 38.1608575 152.625 48.25 C153.11597168 48.67394043 153.60694336 49.09788086 154.11279297 49.53466797 C161.40008993 55.86049473 167.72045018 62.59671591 173.625 70.25 C174.53743889 71.38672183 175.45157232 72.52208506 176.3671875 73.65625 C177.2872379 74.81187978 178.20652286 75.96811942 179.125 77.125 C179.55893066 77.66044434 179.99286133 78.19588867 180.43994141 78.74755859 C184.80571175 84.33665599 184.80571175 84.33665599 184.625 88.25 C182.90633604 90.29264909 181.30326986 91.88774085 179.3125 93.625 C168.66427353 103.60790846 161.53795216 115.51221527 156.625 129.25 C156.22410156 130.33796875 155.82320312 131.4259375 155.41015625 132.546875 C151.52185732 144.77910366 151.79274828 157.52282196 151.625 170.25 C150.58085937 170.105625 149.53671875 169.96125 148.4609375 169.8125 C123.22970184 166.53197363 99.93176368 167.55808788 76.70043945 178.83398438 C71.27005712 181.38889236 71.27005712 181.38889236 67.921875 180.66796875 C66.78492188 179.96607422 66.78492188 179.96607422 65.625 179.25 C64.78582031 178.77304688 63.94664062 178.29609375 63.08203125 177.8046875 C52.7432248 171.23794189 43.58118587 163.58443412 34.625 155.25 C33.95855469 154.63769531 33.29210937 154.02539062 32.60546875 153.39453125 C-3.5090613 118.89816752 -29.27656332 57.95270689 -31.49804688 8.51147461 C-31.49967033 6.42391407 -31.44454675 4.33640238 -31.375 2.25 C-22.94876987 -1.96311506 -9.30749526 0.00661036 0 0 Z " fill="#3CB300" transform="translate(91.375,56.75)"/>
<path d="M0 0 C-3.46120608 1.82453341 -6.58292512 2.63121143 -10.4375 3.375 C-41.12642014 9.80415458 -66.97801774 26.56976153 -84.25048828 52.90673828 C-90.38850628 62.6544896 -94.85861282 72.92247678 -98 84 C-98.26852783 84.91950439 -98.53705566 85.83900879 -98.8137207 86.78637695 C-101.08792022 95.40755633 -101.495336 103.6279423 -101.44604492 112.48266602 C-101.43754621 114.79990034 -101.46639465 117.11464835 -101.49804688 119.43164062 C-101.54700463 129.83899493 -100.02364272 139.05524404 -97 149 C-96.75386963 149.82218018 -96.50773926 150.64436035 -96.25415039 151.49145508 C-91.45073608 166.54581298 -83.68093263 180.35589148 -73 192 C-72.56349121 192.4842041 -72.12698242 192.9684082 -71.67724609 193.46728516 C-52.99415483 213.99562 -27.3797442 225.80966459 0 229 C0 229.66 0 230.32 0 231 C-33.37122751 231.735229 -63.87895099 222.80542528 -88.42993164 199.59594727 C-110.50602725 178.03348813 -123.70147903 149.4139565 -124.24169922 118.41967773 C-124.3594676 85.86364839 -113.13533511 56.47773894 -90.76171875 32.6640625 C-82.50060061 24.69506311 -73.42631749 17.86214806 -63 13 C-62.34999023 12.6896582 -61.69998047 12.37931641 -61.03027344 12.05957031 C-41.11793595 2.66526211 -21.97455111 -1.04380724 0 0 Z " fill="#012C77" transform="translate(225,224)"/>
<path d="M0 0 C4.37133201 2.42851778 7.33270122 5.22054751 9.2109375 10.00390625 C10.22786362 12.09290096 10.22786362 12.09290096 12.58203125 12.5625 C13.87173828 12.7171875 13.87173828 12.7171875 15.1875 12.875 C19.63550148 13.61846999 22.23567301 14.45027964 25.375 17.875 C28.64864271 22.72902195 29.13050035 27.18832848 28.375 32.875 C27.0857996 36.29138106 26.06374912 38.29614406 23.26953125 40.64453125 C20.71258977 43.65486854 21.05466716 45.36893723 21.3125 49.25 C21.47781924 55.41502992 20.94946217 58.71376582 17.00390625 63.55859375 C13.53342653 67.16223336 10.8283938 68.29418875 5.8125 68.4375 C1.29973054 68.20908349 -1.62461979 66.97043725 -5.625 64.875 C-8.3254039 65.52163567 -8.3254039 65.52163567 -10.625 66.875 C-15.41997418 68.47332473 -20.11402145 68.88112612 -24.88671875 66.96875 C-29.50415058 64.30583183 -31.65680326 61.96052698 -33.625 56.875 C-33.671875 53.5078125 -33.671875 53.5078125 -33.375 50 C-33.12839793 44.99025281 -33.12839793 44.99025281 -35.171875 40.609375 C-36.46130879 39.38183403 -37.75165569 38.15525142 -39.04296875 36.9296875 C-41.72298208 33.44897884 -41.50704855 30.04400759 -41.25390625 25.7890625 C-40.26514809 21.20761166 -38.09955353 17.98297219 -34.625 14.875 C-31.60771875 13.02006462 -30.40980423 12.86816839 -26.6875 12.75 C-23.9620828 12.48250535 -22.97624943 12.28573522 -21.171875 10.17578125 C-20.34576828 8.76146564 -19.54879795 7.32974411 -18.78125 5.8828125 C-14.5115436 -1.53147497 -7.60473288 -2.36008951 0 0 Z " fill="#012C77" transform="translate(368.625,169.125)"/>
<path d="M0 0 C3.88790978 2.08795155 6.71516682 4.1919447 9 8 C9 8.66 9 9.32 9 10 C9.59167969 10.08636719 10.18335938 10.17273438 10.79296875 10.26171875 C16.35504727 11.25073434 19.36998484 12.40909847 23 17 C23.598125 17.7425 24.19625 18.485 24.8125 19.25 C26.54828202 23.26970573 26.90273829 26.69788784 26 31 C24.60509713 33.3331411 23.01884564 35.43310406 21.38671875 37.60546875 C19.33024148 41.15651261 19.42822214 44.45824021 19.25390625 48.484375 C18.74947749 53.4820999 15.97015177 56.10083494 12.4375 59.375 C5.89272983 62.46889135 -1.05229135 61.24702463 -8 60 C-8.99 60.495 -8.99 60.495 -10 61 C-15.67862925 61.59057744 -20.16922672 61.29370905 -25 58 C-30.34972329 53.37978443 -30.75326897 49.03389929 -31.34765625 42.12109375 C-32.11325666 38.45813131 -33.5220621 36.74843405 -36 34 C-38.10273134 29.79453732 -37.5314091 24.56772988 -37 20 C-35.00952136 15.72996905 -31.25551447 12.86827465 -27 11 C-23.6875 10.8125 -23.6875 10.8125 -21 11 C-20.814375 10.29875 -20.62875 9.5975 -20.4375 8.875 C-16.14606161 0.29212321 -8.9316843 -1.98481873 0 0 Z " fill="#012C77" transform="translate(409,324)"/>
<path d="M0 0 C2.68975896 2.26184276 4.76715791 4.41450002 6.75 7.3125 C6.75 7.9725 6.75 8.6325 6.75 9.3125 C7.34167969 9.39886719 7.93335938 9.48523438 8.54296875 9.57421875 C15.40872386 10.79504633 18.25339582 13.12717742 22.5625 18.625 C24.16162865 22.24408063 24.42835372 25.46120146 23.75 29.3125 C22.3056195 32.78443811 20.42120796 35.64129204 17.75 38.3125 C17.43660811 40.77611641 17.43660811 40.77611641 17.375 43.5625 C16.88813339 49.98410273 14.97875845 53.34906993 10.125 57.625 C6.08670178 60.49431716 3.73187539 60.55355849 -1.25 60.3125 C-2.67400514 59.98909957 -4.09130766 59.63466138 -5.5 59.25 C-9.15013477 57.98094743 -9.15013477 57.98094743 -12.25 59.3125 C-17.5732961 59.82226619 -21.90894804 59.98302598 -26.75 57.5625 C-31.21358982 53.54526916 -32.54442553 51.02523014 -33.125 45 C-33.6690055 40.77926766 -34.03947362 37.96784455 -36.875 34.75 C-40.11592014 30.90321051 -39.89078962 26.98976935 -39.671875 22.125 C-38.92830194 17.16784624 -36.85181096 14.52468127 -32.9375 11.5625 C-30.25 10.3125 -30.25 10.3125 -26.6875 9.5 C-22.3505179 8.00176982 -21.53975849 6.18140228 -19.25 2.3125 C-13.82530796 -2.60362717 -6.44838231 -3.34819851 0 0 Z " fill="#012C77" transform="translate(247.25,310.6875)"/>
<path d="M0 0 C0.92232422 0.00451172 1.84464844 0.00902344 2.79492188 0.01367188 C5.05085048 0.02536062 7.30663967 0.04174545 9.5625 0.0625 C6.78110888 2.84389112 3.66529807 2.99943388 -0.0625 3.75 C-14.54305424 6.94822535 -26.75223262 12.97395871 -38.4375 22.0625 C-39.30890625 22.73796875 -40.1803125 23.4134375 -41.078125 24.109375 C-54.4594194 35.30253321 -65.10738004 52.15052206 -69.4375 69.0625 C-69.71464844 70.10019531 -69.99179687 71.13789063 -70.27734375 72.20703125 C-73.322984 85.16152874 -73.65038137 98.9279783 -71.4375 112.0625 C-76.25350823 111.30004579 -80.68365702 109.64970144 -85.25 108 C-86.03826172 107.71833984 -86.82652344 107.43667969 -87.63867188 107.14648438 C-89.57272289 106.45491462 -91.50526488 105.75912722 -93.4375 105.0625 C-94.27296868 76.78188502 -94.27296868 76.78188502 -89.4375 64.0625 C-89.00179687 62.87785156 -88.56609375 61.69320312 -88.1171875 60.47265625 C-83.51965513 48.90345594 -77.00763842 39.33233457 -68.5 30.29296875 C-66.78844131 28.44202175 -65.31540637 26.57733386 -63.8125 24.5625 C-48.8806528 7.1693593 -21.8790007 -0.20477106 0 0 Z " fill="#012D77" transform="translate(336.4375,121.9375)"/>
<path d="M0 0 C0 0.33 0 0.66 0 1 C-0.99257813 1.08636719 -1.98515625 1.17273438 -3.0078125 1.26171875 C-23.45556568 3.27405341 -39.53084681 11.16856456 -53 27 C-65.75288952 44.6712394 -71.7638078 65.47869718 -68.69091797 87.18310547 C-65.14880032 106.58558641 -55.59818359 125.07644007 -39.44140625 136.8671875 C-29.15572755 143.66594817 -19.08737189 147.63633268 -7 150 C-7 150.33 -7 150.66 -7 151 C-24.68017931 150.42127073 -40.63599627 144.75559266 -54 133 C-54.80050781 132.32839844 -55.60101563 131.65679687 -56.42578125 130.96484375 C-70.06345505 118.59973672 -78.37702214 99.96580423 -79.46875 81.71484375 C-80.22987264 59.75079099 -75.02300346 41.56503121 -60.44921875 24.56640625 C-43.87931957 7.20368892 -23.69851529 -0.6146589 0 0 Z " fill="#012C76" transform="translate(381,279)"/>
<path d="M0 0 C0 0.33 0 0.66 0 1 C-1.55847656 1.16435547 -1.55847656 1.16435547 -3.1484375 1.33203125 C-11.03788733 2.21221219 -18.486884 3.29094375 -26 6 C-26.33 5.01 -26.66 4.02 -27 3 C-17.84802826 0.44596137 -9.48839486 -0.38408795 0 0 Z " fill="#01226C" transform="translate(381,279)"/>
</svg>
