<?xml version="1.0" encoding="UTF-8"?>
<svg version="1.1" xmlns="http://www.w3.org/2000/svg" width="512" height="512">
<path d="M0 0 C4.26517662 2.55910597 7.60839555 5.42972105 9.19140625 10.31640625 C10.41772251 17.7388468 8.65855698 25.18776541 7.3515625 32.49609375 C2.32625188 61.79844065 6.36309095 92.58079048 12.5625 121.375 C13.05878906 120.32441406 13.55507812 119.27382812 14.06640625 118.19140625 C17.90568678 110.20337938 21.83292638 103.1827866 27.5625 96.375 C38.44202606 82.65364842 45.26136849 68.15096546 43.5625 50.375 C42.10656341 41.87992649 39.78821986 33.92092832 35.5625 26.375 C35.5625 25.715 35.5625 25.055 35.5625 24.375 C41.19377236 24.91309936 46.04368559 25.96387589 51.3125 28 C52.00424316 28.26506348 52.69598633 28.53012695 53.40869141 28.80322266 C70.96754011 35.75621862 85.94939379 47.361749 94.5625 64.375 C96.36659802 68.66210662 98.00958975 72.99112061 99.5625 77.375 C103.63594733 77.375 106.79821884 73.08419585 109.5625 70.375 C120.09519258 58.87105503 124.70116666 44.35516954 124.75 28.875 C124.6571875 27.1425 124.6571875 27.1425 124.5625 25.375 C140.61175066 34.14508233 151.90928074 52.36505883 157.03564453 69.47119141 C158.98667753 76.52130974 159.81675174 83.19329 159.16796875 90.484375 C159.09328369 91.37543945 159.01859863 92.26650391 158.94165039 93.18457031 C158.77548768 94.94356457 158.56916671 96.69934425 158.31811523 98.44824219 C158.06325831 100.97622197 157.95590751 102.90312148 158.5625 105.375 C160.91737266 107.94801758 163.59824815 109.58154845 166.5625 111.375 C169.1875 113.8125 169.1875 113.8125 171.5625 116.375 C172.02140625 116.81714844 172.4803125 117.25929688 172.953125 117.71484375 C179.02617093 123.99565178 183.24843728 133.29275741 185.41796875 141.68359375 C186.33138865 144.57360207 186.33138865 144.57360207 189.06640625 145.84375 C190.07574219 146.1840625 191.08507812 146.524375 192.125 146.875 C207.88951236 152.81961325 217.75513801 163.95463487 224.8125 179 C228.94141155 188.16328616 228.70221164 196.51476626 228.1328125 206.35546875 C227.93965155 213.26536278 229.0798245 217.42684115 233.0390625 223.12548828 C241.29445963 235.31542885 241.67386713 250.55937327 239.6875 264.625 C239.16185664 270.2026601 240.50143009 272.70271458 243.8671875 277.0390625 C252.48459624 288.91281924 253.88262867 304.55744088 252 318.6875 C250.34903198 326.89516959 246.33462602 335.32583161 240.8046875 341.6171875 C240.06476563 342.52726562 239.32484375 343.43734375 238.5625 344.375 C238.88213489 347.34615156 238.88213489 347.34615156 240.5625 350.375 C241.23703141 351.82971232 241.90312938 353.28835335 242.5625 354.75 C242.8925 355.43835938 243.2225 356.12671875 243.5625 356.8359375 C248.48080421 369.32381929 248.94185483 386.40013828 243.81640625 398.84765625 C243.40261719 399.68167969 242.98882812 400.51570313 242.5625 401.375 C242.13839844 402.23996094 241.71429688 403.10492188 241.27734375 403.99609375 C237.78823756 410.38144966 233.16988378 415.73208623 227.5625 420.375 C226.9025 420.375 226.2425 420.375 225.5625 420.375 C225.53671875 421.24640625 225.5109375 422.1178125 225.484375 423.015625 C224.74501299 438.5422272 220.19488739 451.31929465 208.8125 462.25 C202.45415815 467.65846761 195.00723301 471.69029192 186.5625 472.375 C186.45035156 473.10074219 186.33820313 473.82648438 186.22265625 474.57421875 C184.28610921 482.79022009 178.16161926 490.31567524 171.5625 495.375 C157.70684872 503.75783436 145.28479764 506.0381884 129.5625 502.375 C128.88960938 502.13136719 128.21671875 501.88773437 127.5234375 501.63671875 C125.47213995 501.16496313 125.47213995 501.16496313 123.5546875 502.484375 C122.85601562 503.02578125 122.15734375 503.5671875 121.4375 504.125 C111.14236681 511.26517302 99.74073921 511.50885451 87.5625 510.375 C79.71944508 508.90770242 73.48270014 505.42180307 66.9375 500.9609375 C63.16421691 498.12245698 63.16421691 498.12245698 58.74609375 497.73046875 C57.66521484 498.04951172 57.66521484 498.04951172 56.5625 498.375 C41.10987041 499.52033464 26.89092264 496.03991792 14.71484375 486.03515625 C6.50440116 478.34421897 0.26034204 469.08218441 -3.4375 458.375 C-3.4375 457.385 -3.4375 456.395 -3.4375 455.375 C-4.8296875 455.4678125 -4.8296875 455.4678125 -6.25 455.5625 C-19.79532559 455.48090165 -32.47034934 448.21352344 -41.96484375 439.07421875 C-49.52572342 430.82055706 -53.9274259 420.9052223 -57.4375 410.375 C-59.94302597 409.0174712 -62.41276996 407.80358217 -65 406.625 C-80.01590582 399.43325856 -88.02493505 388.6190468 -94.4375 373.375 C-96.18866372 367.6502866 -97.4034045 362.04557849 -97.625 356.0625 C-98.66693236 351.33373004 -100.76330893 349.8194176 -104.2421875 346.62109375 C-113.868759 336.77184354 -117.88479435 322.51144647 -118.546875 309.07421875 C-118.31975922 301.39283852 -117.07537362 293.33934276 -114.13671875 286.2265625 C-113.11864377 283.35985673 -113.11864377 283.35985673 -114.6328125 280.8046875 C-115.26960938 279.96164062 -115.90640625 279.11859375 -116.5625 278.25 C-120.49495552 272.58354834 -122.66824852 267.0144491 -124.4375 260.375 C-124.65019531 259.62734375 -124.86289063 258.8796875 -125.08203125 258.109375 C-125.41320764 255.56186432 -125.3384464 253.52082249 -125.11328125 250.9765625 C-124.49142406 243.63675368 -124.49142406 243.63675368 -125.4375 236.375 C-128.08081091 233.57538897 -130.47896367 232.52750507 -134 231.0078125 C-147.37114912 224.65651667 -155.68108777 209.24095011 -160.6328125 195.94140625 C-164.23840637 184.4420122 -165.63610446 173.37953654 -165.4375 161.375 C-162.2962838 162.82424293 -159.69864105 164.61204231 -156.9375 166.6875 C-146.77076548 173.88518815 -135.74906223 177.49405009 -123.375 177.625 C-122.70178711 177.63442627 -122.02857422 177.64385254 -121.33496094 177.65356445 C-116.64914489 177.62317431 -112.841546 176.81819843 -108.4375 175.375 C-108.89640625 174.64796875 -109.3553125 173.9209375 -109.828125 173.171875 C-120.98897629 154.88308507 -123.25231166 134.79210696 -118.49609375 113.9921875 C-116.21279253 106.19020622 -113.18182254 98.5949138 -109.4375 91.375 C-108.7775 91.375 -108.1175 91.375 -107.4375 91.375 C-106.96441406 92.41398437 -106.49132812 93.45296875 -106.00390625 94.5234375 C-98.44394073 110.66053457 -88.43879572 121.8437245 -71.46875 128.37890625 C-62.90524567 131.1929444 -54.37212535 131.49580704 -45.4375 131.8125 C-33.0837078 132.26751997 -23.33834619 134.39073036 -12.4375 140.375 C-13.93211902 134.81531588 -15.45648034 129.26792877 -17.0859375 123.74609375 C-21.47173791 108.76641447 -24.89311771 93.77534696 -27.4375 78.375 C-27.57027344 77.59205566 -27.70304688 76.80911133 -27.83984375 76.00244141 C-31.21034988 55.26341422 -34.41977712 21.09286563 -23.4375 2.375 C-17.32690311 -3.16272843 -7.33131049 -3.37184318 0 0 Z " fill="#D42139" transform="translate(212.4375,1.625)"/>
<path d="M0 0 C2.64994833 1.96738588 4.84759359 4.08319554 7.0625 6.53125 C7.85914063 7.3046875 7.85914063 7.3046875 8.671875 8.09375 C15.14734493 14.74113506 19.60460565 23.87354991 21.9140625 32.8359375 C22.83096593 35.72928635 22.83096593 35.72928635 25.56640625 37 C26.57574219 37.3403125 27.58507812 37.680625 28.625 38.03125 C44.38951236 43.97586325 54.25513801 55.11088487 61.3125 70.15625 C65.44141155 79.31953616 65.20221164 87.67101626 64.6328125 97.51171875 C64.43965155 104.42161278 65.5798245 108.58309115 69.5390625 114.28173828 C77.79445963 126.47167885 78.17386713 141.71562327 76.1875 155.78125 C75.66185664 161.3589101 77.00143009 163.85896458 80.3671875 168.1953125 C88.98459624 180.06906924 90.38262867 195.71369088 88.5 209.84375 C86.84903198 218.05141959 82.83462602 226.48208161 77.3046875 232.7734375 C76.56476563 233.68351563 75.82484375 234.59359375 75.0625 235.53125 C75.38213489 238.50240156 75.38213489 238.50240156 77.0625 241.53125 C77.73703141 242.98596232 78.40312938 244.44460335 79.0625 245.90625 C79.3925 246.59460938 79.7225 247.28296875 80.0625 247.9921875 C84.98080421 260.48006929 85.44185483 277.55638828 80.31640625 290.00390625 C79.90261719 290.83792969 79.48882812 291.67195313 79.0625 292.53125 C78.63839844 293.39621094 78.21429688 294.26117188 77.77734375 295.15234375 C74.28823756 301.53769966 69.66988378 306.88833623 64.0625 311.53125 C63.4025 311.53125 62.7425 311.53125 62.0625 311.53125 C62.03671875 312.40265625 62.0109375 313.2740625 61.984375 314.171875 C61.24501299 329.6984772 56.69488739 342.47554465 45.3125 353.40625 C38.95415815 358.81471761 31.50723301 362.84654192 23.0625 363.53125 C23.05863281 364.26859375 23.05476562 365.0059375 23.05078125 365.765625 C21.72046898 369.48839608 19.9319014 370.09007285 16.48242188 371.765625 C15.74572266 372.10078125 15.00902344 372.4359375 14.25 372.78125 C13.52490234 373.131875 12.79980469 373.4825 12.05273438 373.84375 C1.43285115 378.89621045 -9.77425718 378.8016822 -21.06640625 375.5625 C-35.53373649 370.36607118 -47.71436702 359.56770049 -54.3203125 345.609375 C-55.26641732 343.26726936 -56.14669654 340.92967364 -56.9375 338.53125 C-55.87273437 338.57765625 -54.80796875 338.6240625 -53.7109375 338.671875 C-39.51027225 339.10459137 -26.97408708 337.26709646 -15.9375 327.53125 C-11.9812598 323.58999556 -8.56851981 319.48375788 -5.9375 314.53125 C-6.60136719 314.86898438 -7.26523437 315.20671875 -7.94921875 315.5546875 C-8.83222656 316.00070312 -9.71523438 316.44671875 -10.625 316.90625 C-11.49511719 317.34710938 -12.36523438 317.78796875 -13.26171875 318.2421875 C-14.14472656 318.66757812 -15.02773438 319.09296875 -15.9375 319.53125 C-16.66582031 319.90636719 -17.39414062 320.28148437 -18.14453125 320.66796875 C-28.74830508 323.94549884 -42.23542018 322.58999678 -52.20703125 318.0234375 C-56.3302362 315.77012664 -60.19623838 313.37521716 -63.9375 310.53125 C-64.989375 309.7475 -66.04125 308.96375 -67.125 308.15625 C-74.50388252 301.26929298 -78.88802178 292.66054706 -82.9375 283.53125 C-82.9375 282.87125 -82.9375 282.21125 -82.9375 281.53125 C-81.41382813 281.58345703 -81.41382813 281.58345703 -79.859375 281.63671875 C-66.56495938 281.95780856 -56.11192779 280.24988253 -44.9375 272.53125 C-43.6071875 271.665 -43.6071875 271.665 -42.25 270.78125 C-38.53172585 267.16346975 -35.79347197 262.84401458 -32.9375 258.53125 C-35.86779252 259.40938712 -35.86779252 259.40938712 -38.1171875 260.72265625 C-48.83975807 266.17718128 -61.17393701 266.24599846 -72.79296875 263.6796875 C-86.59532073 258.83154953 -97.37040313 249.05021887 -105.06640625 236.86328125 C-105.9375 234.53125 -105.9375 234.53125 -105.296875 232.48046875 C-103.83983999 230.39121452 -102.2794078 228.46811767 -100.625 226.53125 C-92.49524037 216.24600087 -90.74906461 205.33259936 -90.875 192.59375 C-90.87951172 191.71912109 -90.88402344 190.84449219 -90.88867188 189.94335938 C-90.90035166 187.80595953 -90.91828311 185.66859537 -90.9375 183.53125 C-90.47641846 183.92884521 -90.01533691 184.32644043 -89.5402832 184.73608398 C-74.78420977 197.42858711 -61.75750801 203.72915117 -42.05664062 202.7265625 C-30.28469322 201.64159039 -21.01316938 194.21206656 -13.46875 185.6796875 C-11.95870406 183.56100059 -11.35181027 182.07465474 -10.9375 179.53125 C-11.865625 180.129375 -12.79375 180.7275 -13.75 181.34375 C-24.11426481 187.1801396 -37.01179927 188.44724431 -48.5 185.40625 C-66.58576647 178.91392357 -77.22433901 167.51745789 -86.28515625 150.85546875 C-87.15729267 147.74815636 -86.38610711 146.35441402 -84.9375 143.53125 C-83.96513513 141.8483108 -82.97185556 140.17681566 -81.9375 138.53125 C-82.57816406 138.86898437 -83.21882813 139.20671875 -83.87890625 139.5546875 C-84.74386719 140.00070313 -85.60882813 140.44671875 -86.5 140.90625 C-87.34691406 141.34710938 -88.19382812 141.78796875 -89.06640625 142.2421875 C-99.86333628 147.08978874 -112.21775637 147.17969318 -123.375 143.46875 C-129.54492833 140.97241118 -134.75488144 137.6754906 -139.9375 133.53125 C-140.76121094 132.91378906 -141.58492187 132.29632813 -142.43359375 131.66015625 C-152.73607046 122.90064017 -160.00126338 108.78300215 -161.12670898 95.25732422 C-161.20455995 92.8660808 -161.21067012 90.48606479 -161.1875 88.09375 C-161.19523438 87.29904297 -161.20296875 86.50433594 -161.2109375 85.68554688 C-161.18609175 78.05169074 -160.46966049 70.28527713 -155.6171875 64.09765625 C-147.48514855 56.51405714 -136.22733678 55.14594642 -125.62890625 55.26171875 C-120.90823671 55.60640256 -117.28256951 56.70174705 -112.9375 58.53125 C-112.84275391 57.65726563 -112.84275391 57.65726563 -112.74609375 56.765625 C-111.15054964 46.08387705 -105.47676584 36.21862686 -96.9375 29.53125 C-90.27374789 24.92124444 -82.36150355 19.74149967 -73.9375 20.53125 C-73.73125 19.726875 -73.525 18.9225 -73.3125 18.09375 C-68.58211807 5.83776044 -59.68034458 -2.10152187 -47.9375 -7.46875 C-31.63142984 -14.2248476 -14.09886226 -9.71678345 0 0 Z " fill="#E4203B" transform="translate(375.9375,110.46875)"/>
<path d="M0 0 C4.26517662 2.55910597 7.60839555 5.42972105 9.19140625 10.31640625 C10.41772251 17.7388468 8.65855698 25.18776541 7.3515625 32.49609375 C2.32625188 61.79844065 6.36309095 92.58079048 12.5625 121.375 C13.05878906 120.32441406 13.55507812 119.27382812 14.06640625 118.19140625 C17.90568678 110.20337938 21.83292638 103.1827866 27.5625 96.375 C38.44202606 82.65364842 45.26136849 68.15096546 43.5625 50.375 C42.10656341 41.87992649 39.78821986 33.92092832 35.5625 26.375 C35.5625 25.715 35.5625 25.055 35.5625 24.375 C41.19377236 24.91309936 46.04368559 25.96387589 51.3125 28 C52.00424316 28.26506348 52.69598633 28.53012695 53.40869141 28.80322266 C70.96754011 35.75621862 85.94939379 47.361749 94.5625 64.375 C96.36659802 68.66210662 98.00958975 72.99112061 99.5625 77.375 C103.63594733 77.375 106.79821884 73.08419585 109.5625 70.375 C120.09519258 58.87105503 124.70116666 44.35516954 124.75 28.875 C124.6571875 27.1425 124.6571875 27.1425 124.5625 25.375 C140.60070507 34.13904648 151.90630564 52.35423227 157.03564453 69.44921875 C160.05478706 80.4848982 161.49749954 94.67575919 156.5625 105.375 C155.25925781 104.85099609 155.25925781 104.85099609 153.9296875 104.31640625 C152.77726562 103.86136719 151.62484375 103.40632813 150.4375 102.9375 C149.30054688 102.48503906 148.16359375 102.03257813 146.9921875 101.56640625 C135.45385169 97.55821443 123.69849756 98.64045009 112.5625 103.375 C103.63810622 108.2474413 96.11027377 115.13867982 92.375 124.6875 C90.85822637 128.00703824 90.12146848 129.12155949 86.75390625 130.6484375 C84.50668324 131.26781345 82.2493641 131.8514697 79.984375 132.40234375 C69.87342059 135.27634791 62.04216307 142.33391828 56.875 151.3046875 C54.15981891 156.53924335 51.87060898 161.61932049 50.5625 167.375 C49.386875 167.045 48.21125 166.715 47 166.375 C34.73634039 163.71401725 22.8632972 164.71108775 11.87890625 170.8828125 C2.7922991 176.82990698 -3.75105912 184.11602307 -7.4375 194.375 C-8.07816406 194.18164062 -8.71882812 193.98828125 -9.37890625 193.7890625 C-10.24386719 193.52867187 -11.10882813 193.26828125 -12 193 C-12.84691406 192.74476563 -13.69382813 192.48953125 -14.56640625 192.2265625 C-15.51386719 191.94554687 -16.46132812 191.66453125 -17.4375 191.375 C-18.55382812 191.01792969 -19.67015625 190.66085938 -20.8203125 190.29296875 C-31.35008969 187.62072508 -42.58931055 188.64775611 -52.12890625 193.83984375 C-53.83883668 194.85783727 -55.53485157 195.89985206 -57.2109375 196.97265625 C-62.74317656 200.45699629 -62.74317656 200.45699629 -65.48828125 200.1328125 C-66.23464844 199.92398438 -66.98101562 199.71515625 -67.75 199.5 C-78.40273481 197.10824861 -88.72891857 197.14730231 -98.4375 202.375 C-99.29085937 202.81070313 -100.14421875 203.24640625 -101.0234375 203.6953125 C-113.84097865 210.73918646 -120.17911542 222.70662412 -124.4375 236.375 C-132.43339876 232.98950244 -138.30779429 228.48396221 -144.4375 222.375 C-145.06527344 221.77042969 -145.69304687 221.16585937 -146.33984375 220.54296875 C-159.62903266 206.71136397 -165.73561912 185.22452921 -165.5 166.375 C-165.49097656 165.42625 -165.48195312 164.4775 -165.47265625 163.5 C-165.46105469 162.79875 -165.44945312 162.0975 -165.4375 161.375 C-162.2962838 162.82424293 -159.69864105 164.61204231 -156.9375 166.6875 C-146.77076548 173.88518815 -135.74906223 177.49405009 -123.375 177.625 C-122.70178711 177.63442627 -122.02857422 177.64385254 -121.33496094 177.65356445 C-116.64914489 177.62317431 -112.841546 176.81819843 -108.4375 175.375 C-108.89640625 174.64796875 -109.3553125 173.9209375 -109.828125 173.171875 C-120.98897629 154.88308507 -123.25231166 134.79210696 -118.49609375 113.9921875 C-116.21279253 106.19020622 -113.18182254 98.5949138 -109.4375 91.375 C-108.7775 91.375 -108.1175 91.375 -107.4375 91.375 C-106.96441406 92.41398437 -106.49132812 93.45296875 -106.00390625 94.5234375 C-98.44394073 110.66053457 -88.43879572 121.8437245 -71.46875 128.37890625 C-62.90524567 131.1929444 -54.37212535 131.49580704 -45.4375 131.8125 C-33.0837078 132.26751997 -23.33834619 134.39073036 -12.4375 140.375 C-13.93211902 134.81531588 -15.45648034 129.26792877 -17.0859375 123.74609375 C-21.47173791 108.76641447 -24.89311771 93.77534696 -27.4375 78.375 C-27.57027344 77.59205566 -27.70304688 76.80911133 -27.83984375 76.00244141 C-31.21034988 55.26341422 -34.41977712 21.09286563 -23.4375 2.375 C-17.32690311 -3.16272843 -7.33131049 -3.37184318 0 0 Z " fill="#409334" transform="translate(212.4375,1.625)"/>
<path d="M0 0 C-0.21112427 0.81247192 -0.21112427 0.81247192 -0.42651367 1.64135742 C-1.7950397 7.26564355 -2.35409146 12.53188124 -2.3125 18.3125 C-2.30686035 19.14209229 -2.3012207 19.97168457 -2.29541016 20.82641602 C-1.98847257 36.44528458 3.96762973 50.80378265 15 62 C18.81519787 65.25156143 22.87562748 68.15418296 27 71 C23.88056362 81.43345468 16.87152986 89.93758612 7.515625 95.46875 C-0.71850749 99.76047966 -7.75682739 101.33476279 -17 101 C-16.6759549 110.13807183 -15.31835403 118.95423169 -10.859375 127.078125 C-9.25097372 130.67509514 -10.29431972 134.242562 -11 138 C-11.10570312 138.71027344 -11.21140625 139.42054688 -11.3203125 140.15234375 C-12.22897636 143.90959669 -13.34934249 145.55672728 -16.5859375 147.76171875 C-28.99495238 154.21628191 -42.72072352 156.56642297 -56.3125 152.4375 C-72.0254164 146.33519011 -83.49807543 135.08031265 -90.4375 119.84375 C-93.60397336 112.43132374 -95.13358426 107.01505571 -95 99 C-91.2455906 100.42763648 -87.7433366 102.13586548 -84.1875 104 C-72.8080591 109.66898028 -61.65039277 110.8774523 -49.1875 107.375 C-43.48114222 105.43092223 -38.75187462 102.68362373 -34 99 C-38.97033972 95.22939745 -41.71969409 93.77543245 -48.0625 93.5625 C-63.42222601 92.7896373 -75.93835636 86.66421932 -87 76 C-98.56334978 62.70608087 -104.37855878 46.60930916 -103.21582031 29.03857422 C-102.52990982 22.55966855 -101.47133015 15.32643132 -96.6015625 10.7421875 C-94.44948171 9.30100427 -92.38723155 8.00646444 -90.0625 6.875 C-89.43472656 6.56304687 -88.80695313 6.25109375 -88.16015625 5.9296875 C-78.82775769 1.91321217 -69.03442731 1.77669891 -59.25 4.4375 C-55.77554253 5.19236725 -54.39977819 5.18359379 -51.125 3.6796875 C-48.34380919 1.87342499 -45.6811108 -0.04972159 -43 -2 C-30.21484839 -8.8267885 -12.07731403 -8.05154268 0 0 Z " fill="#DF243D" transform="translate(204,196)"/>
<path d="M0 0 C0.46108154 0.39759521 0.92216309 0.79519043 1.3972168 1.20483398 C15.25334 13.12324086 26.88411477 19.41448147 45.5 19.125 C46.60859375 19.11597656 47.7171875 19.10695313 48.859375 19.09765625 C51.57314592 19.07426167 54.28645545 19.04148175 57 19 C65.1292311 36.97122472 65.1292311 36.97122472 64.91015625 45.49609375 C64.77154588 53.35475116 64.77154588 53.35475116 68.484375 60.0234375 C70.55256295 61.91088742 72.73248181 63.64555708 74.91796875 65.39453125 C79.53679676 69.12011517 82.25992253 73.79824865 85 79 C85.48210937 79.85335937 85.96421875 80.70671875 86.4609375 81.5859375 C90.2604044 89.25075802 90.75746867 96.81871676 90.84106445 105.2590332 C90.99755676 110.52381119 90.99755676 110.52381119 93.71191406 114.83447266 C95.75432872 116.3295581 97.85441173 117.65943331 100 119 C111.43391886 130.58791103 116.97459191 145.3210744 117.375 161.4375 C116.97028607 179.1713285 116.97028607 179.1713285 112.296875 185.1953125 C109.51646194 187.37992276 106.72818188 188.7474051 103.5 190.1875 C101.81390625 190.95126953 101.81390625 190.95126953 100.09375 191.73046875 C89.60922687 196.03282988 77.50165102 194.77202159 67 191 C52.87704581 184.93897977 41.2814864 173.62471108 35.5 159.3125 C34.98345281 157.88086274 34.47658489 156.4454318 34 155 C35.06476563 155.04640625 36.12953125 155.0928125 37.2265625 155.140625 C51.42722775 155.57334137 63.96341292 153.73584646 75 144 C78.9562402 140.05874556 82.36898019 135.95250788 85 131 C84.00419922 131.50660156 84.00419922 131.50660156 82.98828125 132.0234375 C82.10527344 132.46945312 81.22226562 132.91546875 80.3125 133.375 C79.44238281 133.81585938 78.57226562 134.25671875 77.67578125 134.7109375 C76.79277344 135.13632812 75.90976562 135.56171875 75 136 C73.90751953 136.56267578 73.90751953 136.56267578 72.79296875 137.13671875 C62.18919492 140.41424884 48.70207982 139.05874678 38.73046875 134.4921875 C34.6072638 132.23887664 30.74126162 129.84396716 27 127 C25.948125 126.21625 24.89625 125.4325 23.8125 124.625 C16.43361748 117.73804298 12.04947822 109.12929706 8 100 C8 99.34 8 98.68 8 98 C9.01578125 98.03480469 10.0315625 98.06960938 11.078125 98.10546875 C24.37254062 98.42655856 34.82557221 96.71863253 46 89 C46.886875 88.4225 47.77375 87.845 48.6875 87.25 C52.40577415 83.63221975 55.14402803 79.31276458 58 75 C55.06970748 75.87813712 55.06970748 75.87813712 52.8203125 77.19140625 C42.09774193 82.64593128 29.76356299 82.71474846 18.14453125 80.1484375 C4.34217927 75.30029953 -6.43290313 65.51896887 -14.12890625 53.33203125 C-15 51 -15 51 -14.359375 48.94921875 C-12.90233999 46.85996452 -11.3419078 44.93686767 -9.6875 43 C-1.55774037 32.71475087 0.18843539 21.80134936 0.0625 9.0625 C0.05798828 8.18787109 0.05347656 7.31324219 0.04882812 6.41210938 C0.03714834 4.27470953 0.01921689 2.13734537 0 0 Z " fill="#E5203A" transform="translate(285,294)"/>
<path d="M0 0 C0.92401611 0.00572021 1.84803223 0.01144043 2.80004883 0.01733398 C17.7595891 0.40560485 29.68445432 7.58095947 39.9296875 18.26171875 C50.08496207 30.33427544 54.17904806 42.86084977 54.125 58.4375 C54.14111328 59.36240234 54.15722656 60.28730469 54.17382812 61.24023438 C54.17920287 68.90999747 53.53091213 76.59193121 48.125 82.375 C35.98931371 90.16015724 23.83734117 91.0942785 9.625 89.0390625 C7.20541367 88.37988033 5.07660406 87.57504222 2.8125 86.5 C1.48992187 85.89671875 1.48992187 85.89671875 0.140625 85.28125 C-5.38402479 82.40715473 -8.09684215 79.9628377 -10.21484375 74.12109375 C-14.02923157 63.84216112 -20.03577873 54.0982563 -28.89453125 47.4765625 C-32.43023154 42.88677779 -31.87752092 38.50659945 -31.75 32.875 C-31.76095703 31.84503906 -31.77191406 30.81507813 -31.78320312 29.75390625 C-31.71534012 22.56042777 -30.6908339 15.87912462 -27.1875 9.5 C-19.47362976 2.335037 -10.2805623 -0.0740688 0 0 Z " fill="#FE304A" transform="translate(307.1875,130.5)"/>
<path d="M0 0 C1.17462358 3.52387073 0.73773996 4.27669248 -0.4375 7.6875 C-4.8485707 23.28012201 -1.36052263 37.898511 5.875 52 C13.60803243 65.05070964 25.37450369 73.89802441 40 78 C40.91845703 78.28617188 40.91845703 78.28617188 41.85546875 78.578125 C44.97592916 79.19198606 48.07369388 79.15998323 51.25 79.25 C57.81270117 79.54141093 61.84248243 80.89503703 67 85 C60.39804615 92.70227949 50.81682468 96.45093729 40.84765625 97.25390625 C26.98997461 97.72858927 16.52579095 93.39311996 5 86 C7.07329515 103.45281287 14.44535243 118.62173246 28 130 C39.86517456 138.32753676 51.60439023 141.61787943 66 140 C72.79972472 138.53830996 78.83502727 136.19224849 85 133 C83.89609896 136.41205774 82.92699367 138.07130851 80.3125 140.625 C78.51935464 142.68791059 78.02357088 143.71803888 77.79296875 146.4765625 C78.82147774 160.25470181 84.11999316 173.27277677 94 183 C94 183.66 94 184.32 94 185 C81.10055297 189.1563045 69.00998764 187.36037386 56.9375 181.75 C47.08410194 176.55345048 38.87545464 169.27985954 33.5859375 159.34375 C31.65177514 156.48538198 30.19061353 155.85858023 27 154.625 C11.13107797 147.89590625 0.26026385 137.92749692 -6.2890625 121.83203125 C-11.03108512 107.82771264 -11.41002228 92.67410798 -5.69921875 78.8515625 C-4.68114377 75.98485673 -4.68114377 75.98485673 -6.1953125 73.4296875 C-6.83210938 72.58664062 -7.46890625 71.74359375 -8.125 70.875 C-16.41185598 58.93409729 -18.154973 45.21132985 -17 31 C-14.8547378 19.14936481 -9.08042422 7.97305541 0 0 Z " fill="#D7283F" transform="translate(104,209)"/>
<path d="M0 0 C0.88558594 0.30164063 1.77117187 0.60328125 2.68359375 0.9140625 C4.63596906 1.55335618 6.60444141 2.15088312 8.59765625 2.6484375 C12.73050906 3.86667937 15.29484425 4.80569824 17.54296875 8.61328125 C18.35793456 10.68893851 19.1279826 12.78271461 19.85546875 14.890625 C21.52872942 19.43641166 24.10800517 23.14647236 27 27 C27.61617188 27.82628906 28.23234375 28.65257812 28.8671875 29.50390625 C35.98745867 37.83697086 48.07487163 45.21447734 59.19140625 46.19287109 C70.67617493 46.58310726 79.72709513 46.61511825 90 41 C90.99 40.67 91.98 40.34 93 40 C90.16535762 48.32583443 82.97750011 55.22953281 75.5546875 59.75 C64.90984779 64.95848426 54.563315 65.54062252 43 65 C49.89579655 80.90975587 59.00753834 91.82228099 75 99 C86.24893731 103.22730765 98.34205713 103.78959112 109.51171875 99.15625 C113.05386126 97.51029367 116.54569445 95.82491614 120 94 C117.44538183 103.20197539 110.31231945 109.83279011 102.32421875 114.75390625 C89.96881079 121.37806615 78.47489059 122.13955784 65 119 C64.32710938 118.75636719 63.65421875 118.51273437 62.9609375 118.26171875 C60.90963995 117.78996313 60.90963995 117.78996313 58.9921875 119.109375 C58.29351562 119.65078125 57.59484375 120.1921875 56.875 120.75 C46.57986681 127.89017302 35.17823921 128.13385451 23 127 C14.41798586 125.39445615 6.8842399 121.31739677 0 116 C-0.66 115.01 -1.32 114.02 -2 113 C1.81653757 109.97371021 5.94036035 107.84334474 10.24609375 105.59765625 C13.0727613 103.95778813 15.50131944 102.09961724 18 100 C18.96421875 100.49371094 19.9284375 100.98742187 20.921875 101.49609375 C22.19780852 102.14344237 23.47385621 102.79056599 24.75 103.4375 C25.38421875 103.76298828 26.0184375 104.08847656 26.671875 104.42382812 C31.86015732 107.04499159 35.47959915 108.13842633 41.25 108.0625 C42.14203125 108.05347656 43.0340625 108.04445313 43.953125 108.03515625 C44.62859375 108.02355469 45.3040625 108.01195312 46 108 C45.443125 107.51273437 44.88625 107.02546875 44.3125 106.5234375 C33.84657836 96.80003057 26.92062743 84.2332211 25 70 C24.93343688 67.36410042 24.90432589 64.75851404 24.9375 62.125 C24.94201172 61.43664062 24.94652344 60.74828125 24.95117188 60.0390625 C24.96283664 58.35933665 24.98076729 56.67965625 25 55 C24.38640625 54.7009375 23.7728125 54.401875 23.140625 54.09375 C20.85771624 52.92730027 18.94652949 51.66845385 17 50 C17 49.34 17 48.68 17 48 C15.515 47.505 15.515 47.505 14 47 C4.45324341 35.80179025 -0.41669677 23.60727677 -0.125 9 C-0.11597656 8.12988281 -0.10695313 7.25976562 -0.09765625 6.36328125 C-0.07434619 4.2420658 -0.03848579 2.12099438 0 0 Z " fill="#D6283F" transform="translate(277,385)"/>
<path d="M0 0 C4.26517662 2.55910597 7.60839555 5.42972105 9.19140625 10.31640625 C10.41772251 17.7388468 8.65855698 25.18776541 7.3515625 32.49609375 C2.88965691 58.51325278 5.44283445 86.21129584 10.8125 111.875 C12.19297612 118.48895078 12.79750864 124.15641222 11.9296875 130.921875 C11.44097717 135.51783175 11.43245481 140.06904814 11.4375 144.6875 C11.43121582 145.94252319 11.43121582 145.94252319 11.42480469 147.22290039 C11.43503202 152.36059884 11.82519593 157.28994257 12.5625 162.375 C8.09635781 158.65321484 3.94304228 154.81947402 -0.0546875 150.59765625 C-2.29631688 148.38762982 -2.29631688 148.38762982 -4.55297852 146.9597168 C-11.35949652 142.29476348 -13.47876828 137.90753692 -15.625 130.0625 C-15.94686279 128.97235596 -16.26872559 127.88221191 -16.6003418 126.7590332 C-21.93806371 108.26277564 -26.14647032 89.49774128 -28.4375 70.375 C-28.5317627 69.63556152 -28.62602539 68.89612305 -28.72314453 68.13427734 C-29.61278465 60.43944734 -29.67877471 52.73876754 -29.6875 45 C-29.68883942 44.29756165 -29.69017883 43.59512329 -29.69155884 42.87139893 C-29.68794179 34.09942725 -29.43985363 25.44041301 -28.125 16.75 C-28.00737305 15.97092285 -27.88974609 15.1918457 -27.76855469 14.38916016 C-26.83990375 9.0915747 -25.50852386 4.25186538 -21.4375 0.5625 C-15.30314006 -3.07977621 -6.41181913 -2.94894735 0 0 Z " fill="#317626" transform="translate(212.4375,1.625)"/>
<path d="M0 0 C-0.14074951 0.54164795 -0.28149902 1.0832959 -0.42651367 1.64135742 C-1.7950397 7.26564355 -2.35409146 12.53188124 -2.3125 18.3125 C-2.30686035 19.14209229 -2.3012207 19.97168457 -2.29541016 20.82641602 C-1.98847257 36.44528458 3.96762973 50.80378265 15 62 C18.81519787 65.25156143 22.87562748 68.15418296 27 71 C26.657695 73.78047743 26.2623323 74.78324462 24.06640625 76.59765625 C12.26131541 83.50391064 1.23632994 85.93878628 -12.46484375 83.34375 C-27.60332478 79.1676173 -40.00398712 69.41769966 -48 56 C-56.06870118 40.28951305 -58.89661046 24.22468314 -53.4609375 7.01171875 C-51.10377025 2.15242476 -47.81091465 0.16531861 -43 -2 C-42.35160156 -2.32226562 -41.70320312 -2.64453125 -41.03515625 -2.9765625 C-28.62202907 -8.78927413 -11.40148199 -7.60098799 0 0 Z " fill="#FE304A" transform="translate(204,196)"/>
<path d="M0 0 C1.08667969 0.50660156 1.08667969 0.50660156 2.1953125 1.0234375 C3.64550781 1.69246094 3.64550781 1.69246094 5.125 2.375 C6.07632812 2.81585938 7.02765625 3.25671875 8.0078125 3.7109375 C14.06237154 6.31929844 19.02360764 7.38822254 25.5625 7.375 C26.74634277 7.37367065 26.74634277 7.37367065 27.95410156 7.37231445 C37.49547188 7.18183513 45.57206976 4.351106 54 0 C50.71540917 9.61427106 41.76840179 17.284326 33 22 C25.62922423 25.02551941 18.9498587 26.53897347 11 26 C19.41725069 38.79045915 30.02017739 47.80428535 44.875 52.375 C58.1196636 55.00747972 70.21118502 52.12246492 82 46 C78.79524614 56.25521234 70.78924554 62.28731207 61.70703125 67.25390625 C56.32376764 69.8359672 50.87699156 71.0675337 45 72 C56.34344209 82.82783108 69.33591437 86.73763526 84.65234375 86.39453125 C90.95090685 86.01258972 96.34948972 83.66381199 102 81 C103.66256296 80.32316426 105.32791826 79.65296623 107 79 C103.94136868 86.5075496 99.16427609 91.75929141 93 97 C92.34 97 91.68 97 91 97 C90.97421875 97.87140625 90.9484375 98.7428125 90.921875 99.640625 C90.18251299 115.1672272 85.63238739 127.94429465 74.25 138.875 C67.89165815 144.28346761 60.44473301 148.31529192 52 149 C52.144375 148.37996094 52.28875 147.75992188 52.4375 147.12109375 C56.48918196 127.7911944 53.16984366 111.54787181 43 95 C40.1056049 90.78409448 37.21908585 88.13306496 32.87890625 85.46484375 C30.43447201 83.64702277 29.20193761 82.6390146 28.27685547 79.71166992 C28.01140122 77.00128339 27.94265576 74.3481809 27.9375 71.625 C27.24684826 56.89923111 22.61379034 44.65274003 12 34 C10.35697481 32.76708221 8.71115138 31.5378843 7.0625 30.3125 C4.02246618 27.74096454 3.10504255 26.50351917 2.28125 22.5546875 C2.13499006 19.96902063 2.05463216 17.37881591 2.0390625 14.7890625 C1.98674047 9.71382579 1.05933569 4.94699483 0 0 Z " fill="#E5203A" transform="translate(347,325)"/>
<path d="M0 0 C0.66 0.33 1.32 0.66 2 1 C1.54625 1.474375 1.0925 1.94875 0.625 2.4375 C-4.95096523 11.23036824 -4.31563285 25.33378081 -2.61328125 35.25341797 C0.97331364 51.03802206 9.8579838 64.04754703 23.41796875 72.875 C35.18311586 80.0816717 48.12261548 82.24833283 61.53515625 79.1953125 C66.57113311 77.58529759 71.37834569 75.56758573 76 73 C75.01160977 75.73708064 74.2161033 77.76074278 72.25 79.9375 C70.70779153 81.97430528 70.70779153 81.97430528 71.4375 84.5625 C79.33950242 101.94690531 90.02359334 113.16234839 108 120 C111.38537214 120.92421045 111.38537214 120.92421045 115 121 C115.96679688 121.05027344 116.93359375 121.10054688 117.9296875 121.15234375 C128.63940504 121.46733544 136.8567833 119.44702272 146 114 C146.66 114.33 147.32 114.66 148 115 C141.01863681 126.2775867 133.48085599 133.71644113 120.6953125 138.14453125 C106.73993234 141.37521651 92.43451856 139.0814344 80.1875 131.75 C66.84862294 122.63768573 59.33629445 109.94162447 54 95 C52.87980469 95.4846875 51.75960937 95.969375 50.60546875 96.46875 C45.80550617 98.25831617 41.40092886 98.53826255 36.3125 98.5 C35.4361792 98.49500488 34.5598584 98.49000977 33.65698242 98.48486328 C22.228293 98.18032226 12.98039036 93.90270923 4 87 C3.33613281 86.52304687 2.67226562 86.04609375 1.98828125 85.5546875 C-8.9823197 76.97649658 -16.19567645 62.64724725 -18 49 C-19.21194741 33.34254274 -17.31858204 19.55096757 -7 7 C-4.75454787 4.56440877 -2.43753867 2.24282404 0 0 Z " fill="#C41B32" transform="translate(219,175)"/>
<path d="M0 0 C0.46108154 0.39759521 0.92216309 0.79519043 1.3972168 1.20483398 C15.25334 13.12324086 26.88411477 19.41448147 45.5 19.125 C46.60859375 19.11597656 47.7171875 19.10695313 48.859375 19.09765625 C51.57314592 19.07426167 54.28645545 19.04148175 57 19 C57.98293267 21.24842091 58.96144466 23.49859547 59.9375 25.75 C60.21529297 26.38421875 60.49308594 27.0184375 60.77929688 27.671875 C63.8470166 34.76828689 64.21117012 40.4560984 64.25 48.125 C64.270625 49.12015625 64.29125 50.1153125 64.3125 51.140625 C64.35340138 58.97323941 63.32376864 66.04098676 59.3125 72.875 C56.20326047 75.73213902 52.89252581 77.41389963 49 79 C48.13246094 79.35835938 47.26492188 79.71671875 46.37109375 80.0859375 C34.30836832 83.35671125 19.84407328 82.13312341 9 76 C-0.63025396 69.97478876 -10.88425111 62.018395 -15 51 C-13.99316674 47.77690573 -11.85761187 45.54061877 -9.6875 43 C-1.55774037 32.71475087 0.18843539 21.80134936 0.0625 9.0625 C0.05798828 8.18787109 0.05347656 7.31324219 0.04882812 6.41210938 C0.03714834 4.27470953 0.01921689 2.13734537 0 0 Z " fill="#FE2F4A" transform="translate(285,294)"/>
<path d="M0 0 C14.46627498 4.00183895 26.31327117 12.06891579 34.3125 25 C42.47208059 39.60135474 45.321627 54.19147829 42.3125 70.79296875 C40.87688294 75.60826763 39.31180979 80.0907311 34.91796875 82.9765625 C33.96857422 83.48316406 33.96857422 83.48316406 33 84 C32.21238281 84.46148437 31.42476563 84.92296875 30.61328125 85.3984375 C20.08512688 90.71390735 7.28293368 90.55020169 -4.0625 87.875 C-16.27561897 83.80396034 -28.67868993 74.35780101 -35 63 C-35 62.01 -35 61.02 -35 60 C-34.38253906 59.78085938 -33.76507813 59.56171875 -33.12890625 59.3359375 C-21.44690623 54.9618553 -11.63517187 48.30958818 -5.6875 37 C-1.50816872 27.73519924 0.16054834 19.30156304 0.0625 9.1875 C0.05798828 8.30384766 0.05347656 7.42019531 0.04882812 6.50976562 C0.03709866 4.33981441 0.01916495 2.16989828 0 0 Z " fill="#FE2F4A" transform="translate(398,146)"/>
<path d="M0 0 C4.02219461 2.18347708 6.88107423 4.65829382 10 8 C10.82177734 8.83144531 10.82177734 8.83144531 11.66015625 9.6796875 C22.76776271 21.44642665 26.65161899 36.31655881 26.2890625 52.203125 C25.14461387 67.2356124 25.14461387 67.2356124 21.296875 72.1953125 C18.51646194 74.37992276 15.72818188 75.7474051 12.5 77.1875 C11.3759375 77.69667969 10.251875 78.20585937 9.09375 78.73046875 C-1.39077313 83.03282988 -13.49834898 81.77202159 -24 78 C-38.12295419 71.93897977 -49.7185136 60.62471108 -55.5 46.3125 C-56.01654719 44.88086274 -56.52341511 43.4454318 -57 42 C-55.93523437 42.04640625 -54.87046875 42.0928125 -53.7734375 42.140625 C-38.29108647 42.61239633 -25.72286218 39.98539958 -14.04296875 29.19140625 C-6.31264567 21.0905666 -2.41583467 10.76529837 0 0 Z " fill="#FE2F4A" transform="translate(376,407)"/>
<path d="M0 0 C0.17015625 0.95519531 0.3403125 1.91039062 0.515625 2.89453125 C1.68242759 9.11954719 2.85646704 15.06372946 5.125 21 C8.06613655 28.76323251 8.54053046 34.25171137 5.69140625 42.18359375 C2.55378177 47.40813706 -2.44093211 49.06011693 -8 51 C-9.2375 51.45375 -10.475 51.9075 -11.75 52.375 C-25.25106992 55.07521398 -37.82991461 52.8530715 -49.625 45.875 C-63.39558589 36.55551258 -71.83631379 23.72474345 -76.6328125 7.9140625 C-77.26715303 4.60739378 -77.05598543 1.35912555 -77 -2 C-73.2455906 -0.57236352 -69.7433366 1.13586548 -66.1875 3 C-53.69528397 9.2233397 -41.47795895 9.80143207 -28.078125 5.3671875 C-24.85429251 3.93528221 -22.37608192 2.17679987 -19.5625 0.0625 C-12.97611226 -4.5362796 -7.18800495 -2.42398415 0 0 Z " fill="#FE2F4A" transform="translate(186,297)"/>
<path d="M0 0 C16.03820507 8.76404648 27.34380564 26.97923227 32.47314453 44.07421875 C35.49228706 55.1098982 36.93499954 69.30075919 32 80 C30.69675781 79.47599609 30.69675781 79.47599609 29.3671875 78.94140625 C28.21476562 78.48636719 27.06234375 78.03132813 25.875 77.5625 C24.73804688 77.11003906 23.60109375 76.65757813 22.4296875 76.19140625 C10.93075254 72.19690151 -0.91104363 73.21788756 -12 78 C-15.53237462 80.1090907 -18.76545099 82.46481294 -22 85 C-23.485 85.99 -23.485 85.99 -25 87 C-25.30003031 82.50223798 -25.51581997 78.00996711 -25.65917969 73.50512695 C-25.71899528 71.97870376 -25.80049964 70.4529525 -25.90527344 68.92895508 C-26.73027508 56.60650412 -26.73027508 56.60650412 -23.84790039 52.26446533 C-21.4723541 49.61015182 -18.84452056 47.4550132 -15.98925781 45.33911133 C-5.97037128 37.49927534 -2.10456815 23.97674738 -0.3046875 11.8828125 C0.11788658 7.88461161 0.13389355 4.01680637 0 0 Z " fill="#327626" transform="translate(337,27)"/>
<path d="M0 0 C3.1412162 1.44924293 5.73885895 3.23704231 8.5 5.3125 C21.63276367 14.61003181 37.14803505 18.1836672 53.01171875 15.48828125 C53.85347656 15.32714844 54.69523437 15.16601562 55.5625 15 C58.43715423 14.66573788 59.47769626 14.58813934 61.7734375 16.3984375 C62.92179062 17.76244379 64.02270412 19.16731912 65.08203125 20.6015625 C68.69488552 25.11946987 73.46960484 28.44517666 78 32 C79.66756265 33.33221258 81.33450717 34.66520069 83 36 C82.26136719 36.14695313 81.52273437 36.29390625 80.76171875 36.4453125 C68.71850051 39.10798083 57.33363866 44.37114798 50.09375 54.7265625 C46.15232058 61.18983871 43.28425268 67.79254435 41 75 C33.00410124 71.61450244 27.12970571 67.10896221 21 61 C20.05833984 60.09314453 20.05833984 60.09314453 19.09765625 59.16796875 C5.80846734 45.33636397 -0.29811912 23.84952921 -0.0625 5 C-0.05347656 4.05125 -0.04445312 3.1025 -0.03515625 2.125 C-0.02355469 1.42375 -0.01195312 0.7225 0 0 Z " fill="#327627" transform="translate(47,163)"/>
<path d="M0 0 C1.17462358 3.52387073 0.73773996 4.27669248 -0.4375 7.6875 C-4.8485707 23.28012201 -1.36052263 37.898511 5.875 52 C13.60803243 65.05070964 25.37450369 73.89802441 40 78 C40.91845703 78.28617188 40.91845703 78.28617188 41.85546875 78.578125 C44.97592916 79.19198606 48.07369388 79.15998323 51.25 79.25 C57.81270117 79.54141093 61.84248243 80.89503703 67 85 C60.39804615 92.70227949 50.81682468 96.45093729 40.84765625 97.25390625 C24.16414587 97.82538561 11.29230576 91.53889896 -0.73266602 80.37841797 C-11.15855339 70.23973108 -16.91101034 56.71417853 -17.29272461 42.17651367 C-17.42252567 27.89038428 -13.71112729 14.99350294 -4.21484375 3.91796875 C-2.8648701 2.55522939 -1.4414119 1.26562996 0 0 Z " fill="#C31B31" transform="translate(104,209)"/>
<path d="M0 0 C3 1 3 1 4.53515625 3.66015625 C5.03917969 4.78292969 5.54320312 5.90570313 6.0625 7.0625 C6.56910156 8.16722656 7.07570313 9.27195312 7.59765625 10.41015625 C12.58705472 23.18246042 13.76396613 40.83540121 8.51953125 53.71484375 C5.62617534 58.06603452 1.70762095 59.99750452 -3 62 C-3.67804688 62.33644531 -4.35609375 62.67289062 -5.0546875 63.01953125 C-15.29096131 67.38090083 -28.77232377 65.95061756 -38.98828125 62.3359375 C-46.26427437 59.10845417 -52.22316201 55.43163175 -57 49 C-56.20078125 48.85304688 -55.4015625 48.70609375 -54.578125 48.5546875 C-40.37331066 45.65370429 -29.4805684 40.17425777 -20.88671875 28.33984375 C-18.73838715 24.53689651 -17.826618 21.0199173 -16.8125 16.8125 C-15.44349171 11.30746244 -13.90260035 8.21511771 -9.06518555 5.08666992 C-6.43240243 3.60119243 -3.74061808 2.2735358 -1 1 C-0.67 0.67 -0.34 0.34 0 0 Z " fill="#FE2F4A" transform="translate(448,347)"/>
<path d="M0 0 C2.60276021 2.52839563 4.93206777 4.91008969 7.125 7.8125 C14.9111227 17.19453605 27.04056472 23.20144927 39 25 C41.14429729 25.09124669 43.29126813 25.13005591 45.4375 25.125 C46.52933594 25.12757813 47.62117188 25.13015625 48.74609375 25.1328125 C51.91192524 25.00359489 54.89035545 24.59097317 58 24 C58.76183594 25.61068359 58.76183594 25.61068359 59.5390625 27.25390625 C63.07311743 34.59585371 66.33222109 41.04883215 72 47 C72 47.66 72 48.32 72 49 C72.5775 49.268125 73.155 49.53625 73.75 49.8125 C76.0325868 51.01719859 77.9737942 52.40798115 80 54 C79.67 54.99 79.34 55.98 79 57 C76.375 58 76.375 58 73 59 C71.2675 59.7734375 71.2675 59.7734375 69.5 60.5625 C60.04185666 64.44709458 48.04309353 64.43115091 38.42578125 61.03125 C21.94097395 54.02321598 10.33523739 42.52744757 3.22265625 26.12109375 C-0.20199679 17.37892833 -0.23950179 9.35387538 0 0 Z " fill="#E51F3A" transform="translate(195,329)"/>
<path d="M0 0 C0.88558594 0.30164063 1.77117187 0.60328125 2.68359375 0.9140625 C4.63596906 1.55335618 6.60444141 2.15088312 8.59765625 2.6484375 C12.73050906 3.86667937 15.29484425 4.80569824 17.54296875 8.61328125 C18.35793456 10.68893851 19.1279826 12.78271461 19.85546875 14.890625 C21.52872942 19.43641166 24.10800517 23.14647236 27 27 C27.61617188 27.82628906 28.23234375 28.65257812 28.8671875 29.50390625 C35.98745867 37.83697086 48.07487163 45.21447734 59.19140625 46.19287109 C70.67617493 46.58310726 79.72709513 46.61511825 90 41 C90.99 40.67 91.98 40.34 93 40 C90.16340979 48.33155555 82.98102293 55.19992134 75.57421875 59.75 C62.42772462 66.13373008 49.69867411 66.57234565 36 62 C28.9798979 59.18990048 22.47794059 55.253001 17 50 C17 49.34 17 48.68 17 48 C15.515 47.505 15.515 47.505 14 47 C4.45324341 35.80179025 -0.41669677 23.60727677 -0.125 9 C-0.11597656 8.12988281 -0.10695313 7.25976562 -0.09765625 6.36328125 C-0.07434619 4.2420658 -0.03848579 2.12099438 0 0 Z " fill="#C41B32" transform="translate(277,385)"/>
<path d="M0 0 C0.99 0.33 1.98 0.66 3 1 C3.05534912 1.60473145 3.11069824 2.20946289 3.16772461 2.83251953 C3.42203865 5.59689466 3.67974082 8.36094407 3.9375 11.125 C4.02451172 12.07632812 4.11152344 13.02765625 4.20117188 14.0078125 C4.56242067 17.86113302 4.93632764 21.64559725 5.62109375 25.45703125 C6.06834714 28.45870088 5.59117915 30.59821162 4.26953125 33.33203125 C1.67964279 36.73474625 -2.15264806 38.34058085 -6 40 C-6.86322876 40.39058594 -6.86322876 40.39058594 -7.74389648 40.7890625 C-13.09512672 43.0385475 -17.91296881 43.54397416 -23.6875 43.5 C-24.5645459 43.49427979 -25.4415918 43.48855957 -26.34521484 43.48266602 C-41.74415514 43.06269492 -53.53854801 35.14834416 -64.015625 24.35546875 C-66.95135571 20.87073328 -69.06591274 17.1111503 -71 13 C-69.42825925 11.79719839 -67.84212442 10.61318725 -66.25 9.4375 C-65.36828125 8.77621094 -64.4865625 8.11492187 -63.578125 7.43359375 C-61 6 -61 6 -59.04296875 6.12890625 C-58.36878906 6.41636719 -57.69460937 6.70382812 -57 7 C-56.06285156 7.3815625 -55.12570313 7.763125 -54.16015625 8.15625 C-52.09724359 9.05113267 -50.03474228 9.94696417 -47.97265625 10.84375 C-37.33727107 14.98050954 -24.36704557 14.13430859 -13.9609375 9.70703125 C-8.47703231 7.11184984 -3.88049367 4.71202802 0 0 Z " fill="#FE2F4A" transform="translate(299,439)"/>
<path d="M0 0 C9.93300137 8.75526296 14.20641241 24.24277558 15.23828125 36.9296875 C15.47821076 45.84496286 14.30835512 55.10586505 10 63 C7.5781044 64.62430017 5.62132081 65.7469726 3 66.875 C2.3709375 67.16890625 1.741875 67.4628125 1.09375 67.765625 C-3.09036151 69.69811718 -6.56692502 71.13824713 -11.1875 71.0625 C-12.445625 71.041875 -13.70375 71.02125 -15 71 C-15.20753906 70.07960938 -15.41507812 69.15921875 -15.62890625 68.2109375 C-18.93449868 54.62896359 -23.82196233 42.99298244 -34 33 C-31.3458287 30.87785853 -28.90530048 29.43032519 -25.75 28.1875 C-14.61591298 23.35056055 -6.87756703 15.00342136 -2 4 C-1.33894534 2.66387539 -0.67371812 1.32978424 0 0 Z " fill="#FE2F4A" transform="translate(450,270)"/>
<path d="M0 0 C1.08667969 0.50660156 1.08667969 0.50660156 2.1953125 1.0234375 C3.64550781 1.69246094 3.64550781 1.69246094 5.125 2.375 C6.07632812 2.81585938 7.02765625 3.25671875 8.0078125 3.7109375 C14.06237154 6.31929844 19.02360764 7.38822254 25.5625 7.375 C26.74634277 7.37367065 26.74634277 7.37367065 27.95410156 7.37231445 C37.49547188 7.18183513 45.57206976 4.351106 54 0 C50.71540917 9.61427106 41.76840179 17.284326 33 22 C25.62922423 25.02551941 18.9498587 26.53897347 11 26 C19.41725069 38.79045915 30.02017739 47.80428535 44.875 52.375 C58.1196636 55.00747972 70.21118502 52.12246492 82 46 C78.79059547 56.2700945 70.73993197 62.37756099 61.6015625 67.2890625 C52.42635585 71.64180559 41.60590648 72.37720312 31.68359375 70.30859375 C29 69 29 69 28.0390625 66.7421875 C27.90242188 65.79601562 27.76578125 64.84984375 27.625 63.875 C24.75801008 50.07036068 17.13984173 36.14932694 5.2421875 28.14453125 C3 26 3 26 2.36328125 22.71484375 C2.34652344 21.46832031 2.32976562 20.22179687 2.3125 18.9375 C2.12310304 12.46392772 1.35599529 6.33236634 0 0 Z " fill="#C41B32" transform="translate(347,325)"/>
<path d="M0 0 C0.33 0 0.66 0 1 0 C1.02578125 0.90878906 1.0515625 1.81757813 1.078125 2.75390625 C1.85891821 20.05557396 6.24750436 35.82295943 18 49 C18 49.66 18 50.32 18 51 C3.96700582 53.6073388 -8.44740131 51.81562082 -20.77734375 44.54296875 C-27.73056696 39.71603875 -33.82278121 33.67588739 -39 27 C-39 26.34 -39 25.68 -39 25 C-38.29617187 24.93683594 -37.59234375 24.87367188 -36.8671875 24.80859375 C-24.36671215 23.2582737 -12.88618581 18.07679298 -5 8 C-3.54547368 5.86206558 -2.18590441 3.71752643 -0.91015625 1.46875 C-0.60980469 0.9840625 -0.30945313 0.499375 0 0 Z " fill="#FE2F4A" transform="translate(275,384)"/>
<path d="M0 0 C15.07858278 0.962045 15.07858278 0.962045 20.98046875 7.12109375 C30.39309444 15.87829482 43.38105703 17.66942088 55.65234375 17.39453125 C61.95090685 17.01258972 67.34948972 14.66381199 73 12 C74.66256296 11.32316426 76.32791826 10.65296623 78 10 C73.33607219 21.4478228 65.10369469 28.16915154 53.8828125 32.94140625 C48.0746358 35.0742191 42.89753724 35.21598873 36.75 35.25 C35.83347656 35.270625 34.91695313 35.29125 33.97265625 35.3125 C27.15666358 35.35139297 20.99028583 34.91921871 15.86328125 29.9140625 C15.35152344 29.15867187 14.83976562 28.40328125 14.3125 27.625 C10.9291841 22.89448139 7.72554846 19.04184058 2.6875 16 C1.16015625 14.80078125 1.16015625 14.80078125 0 13 C-0.51702615 8.62393332 -0.34672461 4.38542428 0 0 Z " fill="#D8283F" transform="translate(376,394)"/>
<path d="M0 0 C0.66 0 1.32 0 2 0 C2.29390625 1.57974609 2.29390625 1.57974609 2.59375 3.19140625 C4.17383745 11.03420278 6.13519184 18.17338276 9.9375 25.25 C10.26105469 25.85658447 10.58460938 26.46316895 10.91796875 27.08813477 C13.13111138 31.00010588 15.81046312 33.87148035 19 37 C19 37.66 19 38.32 19 39 C6.10055297 43.1563045 -5.99001236 41.36037386 -18.0625 35.75 C-28.38702903 30.30498234 -38.00313666 22.28762411 -42 11 C-40.70707031 11.04640625 -39.41414062 11.0928125 -38.08203125 11.140625 C-24.12406114 11.492936 -11.81951017 10.87736181 -1 1 C-0.67 0.67 -0.34 0.34 0 0 Z " fill="#E51F3A" transform="translate(179,355)"/>
<path d="M0 0 C4.21497509 1.4172946 7.60577523 3.10166906 11 6 C12.47559806 9.26868422 13.41193691 12.29223654 14.2878418 15.74536133 C16.60868159 24.87665462 21.00875929 32.64432663 28 39 C28 39.66 28 40.32 28 41 C8.30672088 41.77993185 8.30672088 41.77993185 -1 37 C-1.83660156 36.57589844 -2.67320312 36.15179688 -3.53515625 35.71484375 C-12.43328459 30.77755152 -20.62617954 24.34407098 -25 15 C-24.24976563 14.72027344 -23.49953125 14.44054687 -22.7265625 14.15234375 C-14.18110637 10.80519406 -6.38165664 6.72826419 0 0 Z " fill="#FE2F4A" transform="translate(203,398)"/>
<path d="M0 0 C0.97839844 0.48210937 1.95679688 0.96421875 2.96484375 1.4609375 C14.06007865 6.88290223 14.06007865 6.88290223 26.12109375 9.1171875 C33.29336619 9.55187068 38.77314962 12.55468685 45 16 C39.20480154 22.51959827 31.62280204 26.31470097 22.85058594 27.22241211 C7.57975395 27.98661108 -4.61316978 25.56760542 -17 16 C-17.66 15.01 -18.32 14.02 -19 13 C-15.16187317 9.94941334 -11.00095593 7.83565725 -6.65625 5.59765625 C-3.99408154 3.99644022 -2.09026215 2.28252683 0 0 Z " fill="#BF1A30" transform="translate(294,485)"/>
<path d="M0 0 C0.495 0.99 0.495 0.99 1 2 C-4.94018079 10.75885481 -12.04621222 18.03762679 -22 22 C-22.7321875 22.29777344 -23.464375 22.59554688 -24.21875 22.90234375 C-29.34061998 24.80550434 -33.54962291 25.2972933 -39 25 C-39.06058594 24.14277344 -39.12117188 23.28554688 -39.18359375 22.40234375 C-39.61143536 16.56395127 -40.059163 10.77942728 -41 5 C-40.04480469 5.15726562 -39.08960938 5.31453125 -38.10546875 5.4765625 C-25.46172021 7.26148756 -13.32910166 7.37523248 -2 1 C-1.34 0.67 -0.68 0.34 0 0 Z " fill="#C51B32" transform="translate(445,278)"/>
<path d="M0 0 C0.66 0 1.32 0 2 0 C-0.56912594 9.13467 -9.26157154 15.49877562 -17.00390625 20.22265625 C-21.67313176 22.77199855 -25.70448054 23.62174861 -31 24 C-30.25339288 18.27601207 -29.17122859 12.65146223 -28 7 C-26.45892578 6.85304687 -26.45892578 6.85304687 -24.88671875 6.703125 C-11.48915747 5.80885438 -11.48915747 5.80885438 0 0 Z " fill="#C51B32" transform="translate(390,183)"/>
<path d="M0 0 C0.495 0.99 0.495 0.99 1 2 C-5.94606163 12.89928642 -13.54076666 20.7620418 -26 25 C-27.98 25.33 -29.96 25.66 -32 26 C-31.01 20.39 -30.02 14.78 -29 9 C-26.89625 8.7525 -24.7925 8.505 -22.625 8.25 C-14.27351551 7.05934346 -7.05157257 4.70104838 0 0 Z " fill="#BD1A30" transform="translate(431,448)"/>
<path d="M0 0 C0.66 0 1.32 0 2 0 C2.40089844 0.89460938 2.80179687 1.78921875 3.21484375 2.7109375 C6.66313936 10.13573883 10.29565019 16.08590682 16.08203125 22.01171875 C18 24 18 24 20 27 C9.14651895 27.97877084 0.14842222 24.75574165 -9 19 C-7.30126869 14.41260481 -4.93873865 10.52626255 -2.33984375 6.40234375 C-1.11971254 4.21464494 -0.45735374 2.44486627 0 0 Z " fill="#E5203A" transform="translate(304,467)"/>
<path d="M0 0 C1 2 1 2 0.46557617 3.72241211 C0.18174072 4.42116455 -0.10209473 5.11991699 -0.39453125 5.83984375 C-2.45721355 11.69917633 -2.55748049 17.39957546 -2.6875 23.5625 C-2.72166016 24.66658203 -2.75582031 25.77066406 -2.79101562 26.90820312 C-2.87274786 29.60536703 -2.94213826 32.30223643 -3 35 C-6.1807469 33.74244185 -9.26313313 32.42552552 -12.3125 30.875 C-13.35857422 30.34519531 -13.35857422 30.34519531 -14.42578125 29.8046875 C-14.94527344 29.53914063 -15.46476562 29.27359375 -16 29 C-14.72804856 17.26689696 -8.8688878 7.65581804 0 0 Z " fill="#D72A40" transform="translate(279,140)"/>
<path d="M0 0 C0.33 0.66 0.66 1.32 1 2 C-4.09526065 10.94777481 -11.32023009 18.12809204 -21 22 C-21.66 22 -22.32 22 -23 22 C-23 17.71 -23 13.42 -23 9 C-21.92621094 8.68546875 -20.85242188 8.3709375 -19.74609375 8.046875 C-18.30975966 7.61503599 -16.87356932 7.18271868 -15.4375 6.75 C-14.73302734 6.54503906 -14.02855469 6.34007812 -13.30273438 6.12890625 C-8.41895088 4.64351588 -4.35015223 2.67525788 0 0 Z " fill="#D6283F" transform="translate(458,333)"/>
<path d="M0 0 C0.66 0.33 1.32 0.66 2 1 C1.55011719 1.66386719 1.10023438 2.32773438 0.63671875 3.01171875 C-1.26998621 6.49293425 -2.24711971 9.98877471 -3.1875 13.8125 C-3.36474609 14.50537109 -3.54199219 15.19824219 -3.72460938 15.91210938 C-4.15690974 17.60625944 -4.57945894 19.30289268 -5 21 C-9.95 21.495 -9.95 21.495 -15 22 C-12.68212138 12.96027337 -6.72295403 6.18591332 0 0 Z " fill="#C21E32" transform="translate(317,109)"/>
</svg>
