<?xml version="1.0" encoding="UTF-8"?>
<svg version="1.1" xmlns="http://www.w3.org/2000/svg" width="512" height="512">
<path d="M0 0 C1.8998031 -0.00807831 1.8998031 -0.00807831 3.83798605 -0.01631981 C7.33290839 -0.03071582 10.82759373 -0.02654818 14.32252872 -0.019153 C18.09971545 -0.01440909 21.87685181 -0.02694192 25.65402222 -0.03717041 C33.04565769 -0.05433956 40.43720808 -0.05520238 47.82885831 -0.04995751 C53.83829225 -0.04591124 59.84770111 -0.04736478 65.85713387 -0.05270576 C66.71338921 -0.05345419 67.56964456 -0.05420261 68.45184704 -0.05497371 C70.19148592 -0.05650523 71.9311248 -0.05804358 73.67076368 -0.05958868 C89.97323328 -0.07330677 106.27565484 -0.06788077 122.57812334 -0.05640347 C137.48265328 -0.04647067 152.38705909 -0.05941377 167.29156988 -0.08333766 C182.60810409 -0.10773706 197.9245805 -0.11733453 213.24113375 -0.11068493 C221.83521006 -0.10719473 230.4291909 -0.1094117 239.02325249 -0.12693596 C246.3387043 -0.14166841 253.65399341 -0.14227972 260.96944206 -0.12486505 C264.69936117 -0.11636142 268.42898974 -0.11418963 272.15889359 -0.1295166 C276.20797042 -0.14594872 280.25634837 -0.13119691 284.30541992 -0.11352539 C285.4763464 -0.1231304 286.64727288 -0.1327354 287.85368198 -0.14263147 C296.28592014 -0.06700045 302.85485943 1.67395592 310.02870178 6.13768005 C315.79133099 12.06495581 319.15011321 18.74536778 319.24745178 27.0556488 C318.82213132 34.76458209 316.88753659 40.29455554 311.84120178 46.13768005 C305.90270931 51.22781646 300.25965635 54.86082444 292.21620178 54.38768005 C291.32713119 57.14514209 291.32713119 57.14514209 291.21620178 60.38768005 C292.93480553 62.99045627 292.93480553 62.99045627 295.52870178 65.32518005 C321.08866003 91.35134614 332.38556538 129.61382824 332.25526428 165.3525238 C331.41855266 198.93603663 318.07949979 227.32478392 300.93788147 255.53807068 C297.92496051 260.52485648 294.98211754 265.55300843 292.02870178 270.57518005 C290.95293254 272.40262365 289.87619257 274.22949635 288.79823303 276.0556488 C288.34681946 276.82159363 287.89540588 277.58753845 287.43031311 278.37669373 C286.40468222 280.07549157 285.31694738 281.73656165 284.21620178 283.38768005 C282.14037645 283.76027554 282.14037645 283.76027554 279.5191555 283.75682354 C278.52240567 283.76279669 277.52565583 283.76876983 276.49870145 283.77492398 C275.39560687 283.76618546 274.29251229 283.75744693 273.1559906 283.7484436 C271.99046933 283.75100688 270.82494806 283.75357015 269.62410796 283.7562111 C266.37904545 283.76031115 263.13433884 283.75088648 259.88931847 283.73587692 C256.39375164 283.72295982 252.89820238 283.72730294 249.40261841 283.72958374 C243.3430065 283.73115923 237.28349125 283.72172137 231.22390366 283.70487022 C222.46269947 283.68052195 213.70154217 283.67267924 204.94030781 283.66890625 C190.7269074 283.6623352 176.51355856 283.64235634 162.30018616 283.61399841 C148.49061848 283.58647474 134.68106478 283.56523289 120.87147522 283.55247498 C120.02070693 283.55168681 119.16993863 283.55089863 118.29338948 283.55008658 C114.02547053 283.54617156 109.75755148 283.54238041 105.48963237 283.53865087 C70.06511875 283.50753461 34.64066501 283.45468106 -0.78379822 283.38768005 C-1.38930008 282.30691193 -1.99480194 281.2261438 -2.61865234 280.11262512 C-3.42764538 278.67091996 -4.23668407 277.22924042 -5.04576111 275.7875824 C-5.44310707 275.07806931 -5.84045303 274.36855621 -6.24983978 273.63754272 C-9.78067288 267.34974539 -13.47581236 261.17512689 -17.22129822 255.01268005 C-19.15755552 251.79059093 -21.0888894 248.56560899 -23.01817322 245.33934021 C-24.1114587 243.51165473 -25.20730732 241.68549654 -26.30723572 239.86180115 C-35.44254082 224.62661542 -42.43678728 207.90286514 -45.78379822 190.38768005 C-45.98618103 189.44924255 -46.18856384 188.51080505 -46.39707947 187.54393005 C-52.98495011 151.33304923 -44.64652744 112.42934644 -24.65879822 81.70018005 C-18.02179764 72.32873524 -10.58199634 63.79311492 -2.78379822 55.38768005 C-3.70161072 55.2897113 -4.61942322 55.19174255 -5.56504822 55.09080505 C-16.40552704 53.76990637 -23.34828272 52.12920854 -30.30723572 43.4384613 C-35.51428986 36.20644166 -35.79942538 29.15723001 -34.78379822 20.38768005 C-32.67223764 13.17318142 -28.25163464 7.27044173 -21.78379822 3.38768005 C-14.58840477 0.17046293 -7.78581355 -0.03988646 0 0 Z " fill="#FECD6B" transform="translate(80.78379821777344,228.61231994628906)"/>
<path d="M0 0 C1.8998031 -0.00807831 1.8998031 -0.00807831 3.83798605 -0.01631981 C7.33290839 -0.03071582 10.82759373 -0.02654818 14.32252872 -0.019153 C18.09971545 -0.01440909 21.87685181 -0.02694192 25.65402222 -0.03717041 C33.04565769 -0.05433956 40.43720808 -0.05520238 47.82885831 -0.04995751 C53.83829225 -0.04591124 59.84770111 -0.04736478 65.85713387 -0.05270576 C66.71338921 -0.05345419 67.56964456 -0.05420261 68.45184704 -0.05497371 C70.19148592 -0.05650523 71.9311248 -0.05804358 73.67076368 -0.05958868 C89.97323328 -0.07330677 106.27565484 -0.06788077 122.57812334 -0.05640347 C137.48265328 -0.04647067 152.38705909 -0.05941377 167.29156988 -0.08333766 C182.60810409 -0.10773706 197.9245805 -0.11733453 213.24113375 -0.11068493 C221.83521006 -0.10719473 230.4291909 -0.1094117 239.02325249 -0.12693596 C246.3387043 -0.14166841 253.65399341 -0.14227972 260.96944206 -0.12486505 C264.69936117 -0.11636142 268.42898974 -0.11418963 272.15889359 -0.1295166 C276.20797042 -0.14594872 280.25634837 -0.13119691 284.30541992 -0.11352539 C285.4763464 -0.1231304 286.64727288 -0.1327354 287.85368198 -0.14263147 C296.28592014 -0.06700045 302.85485943 1.67395592 310.02870178 6.13768005 C315.79133099 12.06495581 319.15011321 18.74536778 319.24745178 27.0556488 C318.82213132 34.76458209 316.88753659 40.29455554 311.84120178 46.13768005 C305.90270931 51.22781646 300.25965635 54.86082444 292.21620178 54.38768005 C291.32713119 57.14514209 291.32713119 57.14514209 291.21620178 60.38768005 C292.93480553 62.99045627 292.93480553 62.99045627 295.52870178 65.32518005 C308.42294371 78.45461003 327.21620178 105.27933179 327.21620178 124.38768005 C205.11620178 124.38768005 83.01620178 124.38768005 -42.78379822 124.38768005 C-36.76607907 97.30794389 -21.78958621 75.14172742 -2.78379822 55.38768005 C-3.70161072 55.2897113 -4.61942322 55.19174255 -5.56504822 55.09080505 C-16.40552704 53.76990637 -23.34828272 52.12920854 -30.30723572 43.4384613 C-35.51428986 36.20644166 -35.79942538 29.15723001 -34.78379822 20.38768005 C-32.67223764 13.17318142 -28.25163464 7.27044173 -21.78379822 3.38768005 C-14.58840477 0.17046293 -7.78581355 -0.03988646 0 0 Z " fill="#EFDAC1" transform="translate(80.78379821777344,228.61231994628906)"/>
<path d="M0 0 C1.19612411 -0.0038269 2.39224823 -0.00765381 3.62461853 -0.01159668 C6.13297374 -0.01429796 8.64135799 -0.00706317 11.1496582 0.00976562 C14.95914237 0.03121789 18.7667449 0.00989058 22.57617188 -0.015625 C25.02995202 -0.01298178 27.48373101 -0.00785692 29.9375 0 C31.05971451 -0.00809692 32.18192902 -0.01619385 33.33815002 -0.02453613 C46.70522689 0.13176671 59.2280893 4.96790608 69.33203125 13.859375 C75.1885769 20.09470221 79.6420142 26.6783758 82.90234375 34.53125 C84.24690234 34.53483253 84.24690234 34.53483253 85.61862373 34.53848743 C107.42681646 34.59761695 129.23489849 34.67315395 151.04297066 34.76696491 C161.58918382 34.81193527 172.13536312 34.85134711 182.68164062 34.87768555 C191.87350627 34.90065554 201.06526487 34.93404245 210.25704563 34.97995156 C215.12427224 35.00389719 219.99139273 35.02261721 224.85867691 35.02886391 C229.44039031 35.03490867 234.02183215 35.05488656 238.60344505 35.08552551 C240.28441546 35.09431548 241.96542134 35.09802633 243.6464138 35.09625816 C245.94363609 35.09460482 248.24003116 35.11130894 250.53713989 35.13252258 C251.82211931 35.13713155 253.10709873 35.14174051 254.43101692 35.14648914 C259.86550998 35.74884677 263.77411068 37.80220881 267.21484375 42.03125 C267.70597656 42.6190625 268.19710938 43.206875 268.703125 43.8125 C271.77031438 48.20847175 271.32739881 53.40652956 270.90234375 58.53125 C269.12218636 63.9764373 265.51408275 67.31351393 260.90234375 70.53125 C257.38865523 71.70247951 254.60778094 71.67087916 250.89790344 71.68946838 C250.1807185 71.69440636 249.46353357 71.69934434 248.72461575 71.70443195 C246.31551768 71.71982029 243.90644628 71.72817118 241.49731445 71.73657227 C239.77275354 71.74614974 238.04819499 71.75615974 236.32363892 71.76657104 C231.63596458 71.79364033 226.94828015 71.81463894 222.26057076 71.83457303 C217.3638145 71.8564201 212.46708941 71.88381504 207.57035828 71.91062927 C198.29503339 71.96057347 189.01969122 72.0055059 179.74433249 72.04865164 C169.18579753 72.09800925 158.62729385 72.15293285 148.06878912 72.20833123 C126.34666979 72.32217779 104.62452061 72.42901101 82.90234375 72.53125 C82.42966064 73.42618164 81.95697754 74.32111328 81.4699707 75.24316406 C80.83952123 76.42782261 80.20889675 77.61238802 79.578125 78.796875 C78.96106689 79.95993164 78.34400879 81.12298828 77.70825195 82.32128906 C75.44867911 86.33762862 73.14766986 90.40858695 68.90234375 92.53125 C68.89869812 93.62848389 68.89505249 94.72571777 68.89129639 95.85620117 C68.85429977 106.21405121 68.79647595 116.57160523 68.71844101 126.92922974 C68.67899006 132.25377608 68.64678979 137.57815763 68.63134766 142.90283203 C68.61616553 148.04478423 68.58169198 153.1862833 68.53403473 158.32803345 C68.51923704 160.28630629 68.51130366 162.24464384 68.5104599 164.20297241 C68.50808365 166.95351042 68.4809513 169.70280285 68.44824219 172.453125 C68.45578773 173.65830528 68.45578773 173.65830528 68.46348572 174.88783264 C68.33925004 181.67304303 66.3616171 187.0055098 61.58984375 191.90625 C56.14678675 195.19740075 51.24414483 195.9839272 45.04296875 195.06640625 C40.21531343 193.85949242 37.52608439 191.3572849 34.58984375 187.46875 C31.50520695 182.09919705 31.61809148 176.97505775 31.47265625 170.95507812 C31.23961712 165.42525367 30.28707783 161.0858888 26.3671875 156.88671875 C20.60855482 152.48305847 17.07721391 151.9241456 9.90234375 152.53125 C5.10332463 154.21979376 2.73532199 156.35544007 -0.09765625 160.53125 C-0.84570765 163.18544718 -1.45082992 165.71322544 -1.97265625 168.40625 C-3.36391799 174.62861365 -4.72700342 179.59019541 -10.09765625 183.53125 C-14.95601124 186.32030564 -19.5411354 187.46440617 -25.09765625 186.53125 C-30.62812648 184.81065926 -33.98537527 182.08855044 -37.1875 177.3125 C-39.38263163 173.0164484 -39.22137053 168.69487101 -39.17602539 163.96801758 C-39.16991079 162.40005053 -39.16398389 160.83208275 -39.15821838 159.26411438 C-39.15354616 158.43542658 -39.14887394 157.60673878 -39.14406013 156.75293922 C-39.12483385 152.34764321 -39.14010006 147.94241808 -39.15039062 143.53710938 C-39.16262448 137.93875211 -39.16437601 132.34115826 -39.12182617 126.74291992 C-39.08830195 122.21203361 -39.09395697 117.68265284 -39.12539482 113.15176964 C-39.13030079 111.43150684 -39.1211261 109.71114056 -39.09718513 107.99103737 C-38.75935961 96.72774893 -38.75935961 96.72774893 -44.03149414 87.10644531 C-45.37671367 85.90324793 -46.73076769 84.70977246 -48.09765625 83.53125 C-50.12109375 80.30859375 -50.12109375 80.30859375 -51.47265625 77.46875 C-51.93414062 76.52902344 -52.395625 75.58929688 -52.87109375 74.62109375 C-57.90873356 61.9307336 -58.10746402 46.24559232 -53.421875 33.421875 C-47.20510809 19.85135137 -37.19527823 8.94525625 -23.14674377 3.35754395 C-15.28056625 0.82457527 -8.23958372 -0.0595571 0 0 Z " fill="#FECC6A" transform="translate(208.09765625,-0.53125)"/>
<path d="M0 0 C26.73 0 53.46 0 81 0 C82.90561292 8.257656 84.57894582 15.79188733 85.25 24.125 C85.33008301 25.11290527 85.41016602 26.10081055 85.49267578 27.11865234 C88.28004565 65.91110862 74.50456677 98.58985546 54.72167969 131.15039062 C51.70875872 136.13717643 48.76591576 141.16532837 45.8125 146.1875 C44.73673076 148.0149436 43.65999079 149.84181629 42.58203125 151.66796875 C42.13061768 152.43391357 41.6792041 153.1998584 41.21411133 153.98901367 C40.18848043 155.68781152 39.1007456 157.3488816 38 159 C35.03648186 159.36914349 35.03648186 159.36914349 31.15377808 159.36076355 C30.08540764 159.36460846 30.08540764 159.36460846 28.99545395 159.36853105 C26.59684029 159.37349226 24.19884912 159.35693823 21.80029297 159.34057617 C20.0857342 159.3397304 18.37117434 159.34020406 16.65661621 159.34190369 C11.9914997 159.34276702 7.32661299 159.32508671 2.66155005 159.30418181 C-2.20982363 159.28547121 -7.08120214 159.28366902 -11.9526062 159.28010559 C-21.18199167 159.27076857 -30.41127097 159.24613243 -39.64060962 159.21605712 C-50.14588253 159.18256459 -60.65116042 159.16604007 -71.1564734 159.15097082 C-92.7710416 159.11958427 -114.38551412 159.06679166 -136 159 C-132.43433988 156.22762864 -128.67883856 154.26787527 -124.625 152.3125 C-89.99789307 135.20314358 -59.2099136 109.75084718 -37 78 C-36.5551123 77.37319336 -36.11022461 76.74638672 -35.65185547 76.10058594 C-19.27478243 52.90328784 -7.78478433 27.24674514 0 0 Z " fill="#FEB75E" transform="translate(327,353)"/>
<path d="M0 0 C9.71255822 3.88502329 17.42272497 12.31047111 21.85308838 21.83375549 C22.56872559 23.555837 23.28436279 25.2779185 24 27 C25.34455859 27.00358253 25.34455859 27.00358253 26.71627998 27.00723743 C48.52447271 27.06636695 70.33255474 27.14190395 92.14062691 27.23571491 C102.68684007 27.28068527 113.23301937 27.32009711 123.77929688 27.34643555 C132.97116252 27.36940554 142.16292112 27.40279245 151.35470188 27.44870156 C156.22192849 27.47264719 161.08904898 27.49136721 165.95633316 27.49761391 C170.53804656 27.50365867 175.1194884 27.52363656 179.7011013 27.55427551 C181.38207171 27.56306548 183.06307759 27.56677633 184.74407005 27.56500816 C187.04129234 27.56335482 189.33768741 27.58005894 191.63479614 27.60127258 C192.91977556 27.60588155 194.20475498 27.61049051 195.52867317 27.61523914 C200.96316623 28.21759677 204.87176693 30.27095881 208.3125 34.5 C208.80363281 35.0878125 209.29476562 35.675625 209.80078125 36.28125 C212.86797063 40.67722175 212.42505506 45.87527956 212 51 C210.21984261 56.4451873 206.611739 59.78226393 202 63 C198.48631148 64.17122951 195.70543719 64.13962916 191.99555969 64.15821838 C191.27837475 64.16315636 190.56118982 64.16809434 189.822272 64.17318195 C187.41317393 64.18857029 185.00410253 64.19692118 182.5949707 64.20532227 C180.87040979 64.21489974 179.14585124 64.22490974 177.42129517 64.23532104 C172.73362083 64.26239033 168.0459364 64.28338894 163.35822701 64.30332303 C158.46147075 64.3251701 153.56474566 64.35256504 148.66801453 64.37937927 C139.39268964 64.42932347 130.11734747 64.4742559 120.84198874 64.51740164 C110.28345378 64.56675925 99.7249501 64.62168285 89.16644537 64.67708123 C67.44432604 64.79092779 45.72217686 64.89776101 24 65 C23.5244165 65.89710693 23.04883301 66.79421387 22.55883789 67.71850586 C21.9260783 68.90485679 21.29317694 70.09113212 20.66015625 71.27734375 C20.04019775 72.44257568 19.42023926 73.60780762 18.78149414 74.80834961 C15.44608562 80.78392801 11.88177043 84.3708225 6 88 C5.2575 88.5775 4.515 89.155 3.75 89.75 C2 91 2 91 0 91 C0 60.97 0 30.94 0 0 Z " fill="#965735" transform="translate(267,7)"/>
<path d="M0 0 C1.00121462 -0.00709439 2.00242925 -0.01418877 3.03398371 -0.02149814 C6.39295861 -0.03911722 9.75078241 -0.02095253 13.10974121 -0.00291443 C15.51613391 -0.00805172 17.92252285 -0.01533155 20.3289032 -0.02459717 C26.18879306 -0.0412166 32.04837856 -0.03446047 37.90823877 -0.01650894 C42.67068675 -0.00248264 47.43304421 0.00140981 52.19551086 -0.00195122 C52.8733533 -0.00242866 53.55119574 -0.0029061 54.24957886 -0.00339801 C55.62660756 -0.00442434 57.00363623 -0.0054797 58.38066489 -0.00656378 C70.55686251 -0.0151312 82.73289916 0.00154541 94.90905762 0.03126526 C106.72390505 0.06010282 118.53852058 0.06718631 130.35339355 0.05177307 C143.21931837 0.03501165 156.08513308 0.03097606 168.95106077 0.04848343 C170.3230206 0.05032782 171.69498045 0.05216254 173.06694031 0.0539875 C173.74196882 0.05489959 174.41699734 0.05581168 175.11248127 0.05675141 C179.8691399 0.0623572 184.62574479 0.05904925 189.38240051 0.05244255 C195.78463739 0.04390327 202.18661504 0.05686743 208.58880043 0.08429146 C210.94102802 0.09118884 213.2932868 0.09125887 215.64551353 0.08407593 C218.85153535 0.0754126 222.05651654 0.09128549 225.26245117 0.11352539 C226.1977587 0.10528462 227.13306623 0.09704386 228.0967164 0.08855337 C232.31030993 0.14266271 234.54606781 0.2639401 238.19504547 2.53535557 C240.76689436 5.31528886 241.08264694 7.0584725 241.34216309 10.72584534 C241.13122559 12.62818909 241.13122559 12.62818909 239.31872559 15.06568909 C236.31347051 17.21229986 234.70837859 17.75376537 231.07284069 17.76520348 C230.21851017 17.77027802 229.36417965 17.77535256 228.48396033 17.78058088 C227.06789125 17.78132751 227.06789125 17.78132751 225.62321472 17.78208923 C224.62456337 17.78647149 223.62591202 17.79085374 222.59699851 17.79536879 C219.22909254 17.8087922 215.86121275 17.81494356 212.49328613 17.82106018 C210.08734009 17.82895827 207.68139525 17.83722703 205.27545166 17.84584045 C198.04001791 17.86982497 190.80458236 17.88499223 183.56912276 17.89790052 C181.52613314 17.90161171 179.48314421 17.905585 177.44015527 17.90965319 C164.75808497 17.93488763 152.07601362 17.95694442 139.39392376 17.96938133 C136.4558531 17.97231111 133.51778248 17.97527276 130.57971191 17.97828674 C129.48432482 17.97940582 129.48432482 17.97940582 128.36680869 17.9805475 C116.53326355 17.99320503 104.69986853 18.02643299 92.86639359 18.06808858 C80.72206184 18.11048865 68.57780699 18.13407407 56.43340141 18.1393019 C49.61274728 18.1427181 42.7923278 18.15449758 35.97174644 18.18740463 C29.55726435 18.2183014 23.14307956 18.22383281 16.72853088 18.21202087 C14.37144255 18.21179931 12.01433576 18.22017263 9.65731239 18.23767471 C6.44443857 18.26023741 3.23306698 18.25213041 0.02018738 18.2361908 C-0.91716651 18.25007288 -1.85452039 18.26395497 -2.82027894 18.27825773 C-7.30993577 18.22320445 -9.26335597 18.08421958 -12.94777203 15.30893898 C-14.86877441 12.62818909 -14.86877441 12.62818909 -15.49377441 9.12818909 C-13.90409863 0.22600468 -7.62585562 -0.0965004 0 0 Z " fill="#E6CCAF" transform="translate(131.8687744140625,273.37181091308594)"/>
<path d="M0 0 C6.27 0 12.54 0 19 0 C19 34.98 19 69.96 19 106 C3 106 3 106 1 105 C0.67 70.35 0.34 35.7 0 0 Z " fill="#C07441" transform="translate(195,0)"/>
<path d="M0 0 C0.66 0.33 1.32 0.66 2 1 C1.67 31.36 1.34 61.72 1 93 C-11.92719518 85.24368289 -20.69391951 75.97017618 -25.1171875 61.29296875 C-28.56012092 46.65364329 -26.42024591 31.0356007 -18.75 18.1875 C-13.64095593 10.68768531 -7.51814825 5.01209883 0 0 Z " fill="#C07541" transform="translate(178,6)"/>
<path d="M0 0 C6.27 0 12.54 0 19 0 C18.01 0.495 18.01 0.495 17 1 C17.00222061 2.30069931 17.00444122 3.60139862 17.00672913 4.94151306 C17.0269581 17.17031765 17.04197096 29.39911887 17.05181217 41.62793636 C17.05704162 47.91562024 17.06414039 54.20329066 17.07543945 60.4909668 C17.08626614 66.55337723 17.09227637 72.61577469 17.09487724 78.67819405 C17.09673189 80.99676277 17.10035325 83.31533074 17.10573006 85.63389397 C17.11293758 88.86914508 17.11399106 92.10434183 17.11352539 95.33959961 C17.11712067 96.30848114 17.12071594 97.27736267 17.12442017 98.27560425 C17.1230455 99.15205093 17.12167084 100.02849762 17.12025452 100.9315033 C17.12117631 101.69751327 17.1220981 102.46352324 17.12304783 103.25274563 C17 105 17 105 16 106 C10.72 106 5.44 106 0 106 C0 71.02 0 36.04 0 0 Z " fill="#BF7341" transform="translate(232,0)"/>
<path d="M0 0 C10.39303765 4.15721506 18.14711334 13.49539301 22.9375 23.5625 C28.02206717 40.01257025 28.09959582 57.37629466 20.125 72.75 C16.3058745 79.41935956 12.64593833 83.89931465 6 88 C5.2575 88.5775 4.515 89.155 3.75 89.75 C2 91 2 91 0 91 C0 60.97 0 30.94 0 0 Z " fill="#BE7240" transform="translate(267,7)"/>
</svg>
