<?xml version="1.0" encoding="UTF-8"?>
<svg version="1.1" xmlns="http://www.w3.org/2000/svg" width="512" height="512">
<path d="M0 0 C6.59775088 1.27336592 12.39195027 3.15466794 18.5 5.9375 C19.36294678 6.329375 20.22589355 6.72125 21.11499023 7.125 C34.28746841 13.29027543 46.06292228 21.43887722 57 31 C58.19882812 32.01707031 58.19882812 32.01707031 59.421875 33.0546875 C64.41700259 37.36256599 68.79790368 41.92358215 73 47 C73.80308594 47.95003906 74.60617187 48.90007812 75.43359375 49.87890625 C82 57.73605694 82 57.73605694 82 60 C82.44690186 59.67837891 82.89380371 59.35675781 83.35424805 59.02539062 C120.74577853 32.18657033 120.74577853 32.18657033 141 34 C153.75327879 36.67926025 164.42337653 42.19068385 172 53 C178.38046452 64.71339008 180.00123571 77.21109845 177.31640625 90.34375 C176.38608347 93.03049131 175.3139061 95.47995297 174 98 C173.43345703 99.11375 173.43345703 99.11375 172.85546875 100.25 C169.54295023 106.17450441 165.4935825 111.66296208 161.5625 117.1875 C161.0250415 117.94812744 160.48758301 118.70875488 159.93383789 119.49243164 C154.76287949 126.64747702 149.16620789 132.39514173 141.9375 137.5 C137.20683519 140.96044866 133.55662836 144.35662408 130 149 C130.70125 149.474375 131.4025 149.94875 132.125 150.4375 C135.29080427 153.25919511 137.1959445 156.14774316 139.45703125 159.69921875 C140.89176985 161.83861377 142.40832982 163.70942093 144.125 165.625 C151 173.38651316 151 173.38651316 151 178 C152.52239577 177.04415068 154.0427611 176.08506795 155.5625 175.125 C156.57699219 174.48433594 157.59148437 173.84367188 158.63671875 173.18359375 C160.90884893 171.72812484 163.13017153 170.21972676 165.33203125 168.66015625 C172.56940016 163.57756328 179.95325321 159.32004308 187.9375 155.5 C188.81325684 155.07871826 189.68901367 154.65743652 190.59130859 154.22338867 C199.0144356 150.30249933 207.3940765 147.16357678 216.625 150.1875 C220.68210804 152.36631728 223.90857406 154.81714812 226 159 C227.31218889 167.22194303 224.90290463 174.38221594 222.13452148 182.00952148 C219.45468965 189.64469427 218.79506952 196.68917042 222.0234375 204.27734375 C224.73024735 209.05215633 228.96271877 210.57978892 234 212 C236.9578847 212.22484229 236.9578847 212.22484229 239.9921875 212.08984375 C241.66861328 212.05987305 241.66861328 212.05987305 243.37890625 212.02929688 C245.70193443 211.96830116 248.02485917 211.90322411 250.34765625 211.83398438 C258.06814961 211.70516141 264.01610014 211.94765882 270.35546875 216.8046875 C280.03378813 227.74180748 282.49064148 242.05434719 285.6496582 255.9128418 C286.31590951 258.82741518 287.00170192 261.73691807 287.68945312 264.64648438 C288.12356273 266.52056342 288.55654569 268.39490387 288.98828125 270.26953125 C289.19133377 271.12803177 289.39438629 271.98653229 289.60359192 272.87104797 C290.76519949 278.03528419 291.38345074 282.7030209 291 288 C287.85448792 292.25569281 284.94062313 293.48086103 280 295 C279.98582031 296.22976563 279.97164063 297.45953125 279.95703125 298.7265625 C279.9101103 300.35941158 279.86186303 301.99222292 279.8125 303.625 C279.80379883 304.83736328 279.80379883 304.83736328 279.79492188 306.07421875 C279.63849021 310.35001758 279.2069407 312.6570697 276.94921875 316.3984375 C270.46675458 322.11674364 262.73644348 322.638428 254.44921875 323.38671875 C253.35462845 323.49345413 252.26003815 323.60018951 251.13227844 323.7101593 C248.82574283 323.93282848 246.51868986 324.15019551 244.21118164 324.36254883 C240.70783808 324.68562444 237.20650347 325.0259601 233.70507812 325.36914062 C231.45322253 325.58435625 229.20127199 325.79858126 226.94921875 326.01171875 C225.91552658 326.11167648 224.88183441 326.21163422 223.81681824 326.31462097 C209.65567966 327.60228404 198.43540642 326.69787904 185.1875 321.25 C178.69864121 318.69088168 178.69864121 318.69088168 172 320 C169.61601163 321.66246269 167.36645993 323.43312369 165.1171875 325.2734375 C160.90579265 328.70782223 157.86695869 330.27653553 152.4375 329.875 C148.35620469 329.3410561 144.47749955 328.35723781 140.5 327.3125 C129.59343421 324.73272683 122.27007564 328.34115865 113 334 C111.94425781 334.6703125 110.88851563 335.340625 109.80078125 336.03125 C90.75793687 348.11049803 90.75793687 348.11049803 80 346 C70.42584883 342.75376437 63.24999756 335.99553158 58.1640625 327.36328125 C55.72107912 322.4035331 53.86268127 317.19965494 52 312 C51.5153125 313.11117188 51.030625 314.22234375 50.53125 315.3671875 C46.59836153 324.17630276 42.62400966 331.85912717 36 339 C35.50628906 339.58394531 35.01257813 340.16789062 34.50390625 340.76953125 C28.4913628 347.43798854 20.46404206 352.12870964 13 357 C12.10152344 357.59941406 11.20304688 358.19882812 10.27734375 358.81640625 C5.22815335 361.94209554 0.89909089 363.29069149 -5 362 C-11.26717828 358.61709479 -16.76601945 353.88795742 -22.1875 349.3125 C-27.60533758 344.79183038 -33.05910491 340.33718893 -38.625 336 C-39.75923941 335.10692935 -40.89336046 334.21370834 -42.02734375 333.3203125 C-43.77228952 331.95829175 -45.53012015 330.61201999 -47.31640625 329.3046875 C-52.0597661 325.68032486 -54.08136202 321.92330115 -55 316 C-55.45325825 307.11897113 -52.07442386 299.09768107 -46.1875 292.5 C-41.93368898 288.51028368 -36.80596203 285.62693308 -31.77416992 282.7265625 C-26.34499498 279.52241648 -22.06798655 276.20395965 -20 270 C-19.73469867 265.7551787 -20.13953457 262.20960817 -21.0625 258.0625 C-22.68819091 249.7966631 -21.87794849 241.17596496 -20.4765625 232.9140625 C-17.76656278 216.34308062 -22.77053502 201.37055191 -28.9375 186.25 C-29.35628418 185.21375488 -29.77506836 184.17750977 -30.20654297 183.10986328 C-33.41177927 175.54640114 -37.19799277 171.29719396 -43.6875 166.3125 C-57.03371467 155.47660176 -68.9018542 142.89228925 -79 129 C-79.49242188 128.3306543 -79.98484375 127.66130859 -80.4921875 126.97167969 C-86.77376854 118.4282607 -92.87582499 109.76273675 -98.9375 101.0625 C-109.0587502 86.55668929 -119.34208499 72.31516764 -131 59 C-131.96679688 57.84951172 -131.96679688 57.84951172 -132.953125 56.67578125 C-136.93577503 51.96656669 -141.27732303 47.95708676 -146 44 C-147.33426974 42.85525721 -148.66766302 41.70949171 -150 40.5625 C-150.99 39.716875 -151.98 38.87125 -153 38 C-152 36 -152 36 -150.0234375 35.18359375 C-121.71534595 27.20889539 -96.30219487 37.87893162 -71 50 C-70.29004883 50.33644531 -69.58009766 50.67289063 -68.84863281 51.01953125 C-52.68072217 58.71634599 -37.72266444 67.9786571 -23.046875 78.21484375 C-22.33837402 78.70049805 -21.62987305 79.18615234 -20.89990234 79.68652344 C-19.33772421 80.76651809 -17.80164746 81.88417128 -16.2734375 83.01171875 C-14.00036195 84.28330465 -14.00036195 84.28330465 -11.4921875 83.3046875 C-10.62851563 82.83289063 -9.76484375 82.36109375 -8.875 81.875 C0.19296045 77.33493389 7.92758259 75.78936243 18 76 C17.61206324 37.01177525 17.61206324 37.01177525 1.31640625 3.31640625 C0.66478516 2.66478516 0.66478516 2.66478516 0 2 C0 1.34 0 0.68 0 0 Z " fill="#E7C597" transform="translate(187,75)"/>
<path d="M0 0 C5.17399961 2.42299777 9.93506111 5.73489416 14.71484375 8.84375 C16.93792137 10.32777464 16.93792137 10.32777464 19.03515625 11.33203125 C19.36515625 31.79203125 19.69515625 52.25203125 20.03515625 73.33203125 C20.69515625 73.66203125 21.35515625 73.99203125 22.03515625 74.33203125 C24.62425065 73.45374283 25.80250638 72.68107197 27.32788086 70.39257812 C27.69405518 69.61978516 28.06022949 68.84699219 28.4375 68.05078125 C28.85322266 67.20902344 29.26894531 66.36726563 29.69726562 65.5 C30.54680079 63.72287131 31.3931631 61.94422236 32.23632812 60.1640625 C35.45960608 53.65772399 35.45960608 53.65772399 38.8515625 51.73828125 C39.57214844 51.60421875 40.29273438 51.47015625 41.03515625 51.33203125 C41.03515625 50.67203125 41.03515625 50.01203125 41.03515625 49.33203125 C45.50574449 45.33203125 45.50574449 45.33203125 48.03515625 45.33203125 C48.36515625 44.34203125 48.69515625 43.35203125 49.03515625 42.33203125 C50.74316406 40.88085938 50.74316406 40.88085938 52.98828125 39.36328125 C53.82504395 38.79714111 54.66180664 38.23100098 55.52392578 37.64770508 C56.89073486 36.74894653 56.89073486 36.74894653 58.28515625 35.83203125 C59.22085449 35.21416748 60.15655273 34.59630371 61.12060547 33.9597168 C67.64594164 29.72342712 74.28982467 25.79400326 81.16015625 22.14453125 C81.98676758 21.69980469 82.81337891 21.25507813 83.66503906 20.796875 C91.39524925 16.81267703 100.21375863 13.31417768 109.03515625 14.33203125 C114.24174679 16.0376385 117.44060287 18.20886708 121.03515625 22.33203125 C124.21008402 28.6818868 121.95367925 36.09483508 119.88696289 42.45727539 C119.33031884 44.09083184 118.75848167 45.7193107 118.16967773 47.34155273 C115.4898459 54.97672552 114.83022577 62.02120167 118.05859375 69.609375 C120.7654036 74.38418758 124.99787502 75.91182017 130.03515625 77.33203125 C132.99304095 77.55687354 132.99304095 77.55687354 136.02734375 77.421875 C137.14496094 77.40189453 138.26257813 77.38191406 139.4140625 77.36132812 C141.73709068 77.30033241 144.06001542 77.23525536 146.3828125 77.16601562 C154.10330586 77.03719266 160.05125639 77.27969007 166.390625 82.13671875 C177.86699907 95.10575555 179.62929309 112.9165116 183.03515625 129.33203125 C181.90078125 129.78578125 180.76640625 130.23953125 179.59765625 130.70703125 C175.98793933 131.90298931 175.98793933 131.90298931 175.03515625 134.33203125 C174.93528898 137.8717711 174.83610206 141.40613263 174.86914062 144.94726562 C174.74256923 149.36192256 174.45436787 150.87304042 171.359375 154.26171875 C168.15324881 156.25848359 165.69934564 157.32867658 162.03515625 158.14453125 C161.04515625 158.37785156 160.05515625 158.61117187 159.03515625 158.8515625 C155.98175757 159.34058338 153.12189431 159.41930509 150.03515625 159.33203125 C150.50566406 158.32785156 150.97617187 157.32367188 151.4609375 156.2890625 C158.17651839 141.67449091 160.51457125 128.3265566 161.03515625 112.33203125 C160.04515625 112.82703125 160.04515625 112.82703125 159.03515625 113.33203125 C158.68208866 115.50777255 158.43087878 117.70018617 158.22265625 119.89453125 C156.72260446 132.90908715 152.58196087 150.78522663 143.03515625 160.33203125 C139.58857212 161.5202372 136.02683824 161.64192486 132.41015625 161.89453125 C131.26289063 161.97832031 130.115625 162.06210937 128.93359375 162.1484375 C124.29648535 162.36681836 119.67624731 162.36905185 115.03515625 162.33203125 C115.29731934 161.80359619 115.55948242 161.27516113 115.82958984 160.73071289 C117.03322884 158.29016315 118.22170955 155.84251273 119.41015625 153.39453125 C120.02890625 152.14833008 120.02890625 152.14833008 120.66015625 150.87695312 C123.30566834 145.39391597 124.93488188 140.32308566 126.03515625 134.33203125 C124.07001099 134.58629302 124.07001099 134.58629302 122.03515625 135.33203125 C120.88059832 137.81644648 119.99459086 140.11684995 119.16015625 142.70703125 C113.60080373 158.76638377 113.60080373 158.76638377 109.03515625 163.33203125 C98.60076153 164.48047092 90.30448798 161.96669712 81.03515625 157.33203125 C81.46828125 156.09453125 81.90140625 154.85703125 82.34765625 153.58203125 C89.90089873 130.88650645 89.52521987 110.23794885 80.03515625 88.33203125 C80.24011719 89.24984375 80.44507813 90.16765625 80.65625 91.11328125 C80.92566406 92.34046875 81.19507813 93.56765625 81.47265625 94.83203125 C81.73949219 96.03859375 82.00632812 97.24515625 82.28125 98.48828125 C85.85393841 116.70343873 85.48162955 138.43908464 77.03515625 155.33203125 C75.28515625 155.5 75.28515625 155.5 73.03515625 155.51953125 C66.95330586 156.03280843 63.49657097 159.45903147 59.03515625 163.33203125 C54.54668995 166.81059263 50.53303745 166.86740545 45.03515625 166.33203125 C44.04515625 166.00203125 43.05515625 165.67203125 42.03515625 165.33203125 C42.0508667 164.60314697 42.06657715 163.8742627 42.08276367 163.12329102 C42.53370975 138.96437799 40.68840137 118.84571455 29.03515625 97.33203125 C28.04515625 97.33203125 27.05515625 97.33203125 26.03515625 97.33203125 C26.72351563 99.12833984 26.72351563 99.12833984 27.42578125 100.9609375 C35.29063305 121.72165969 39.48944409 141.07192701 39.03515625 163.33203125 C34.08515625 163.00203125 29.13515625 162.67203125 24.03515625 162.33203125 C24.03515625 157.05203125 24.03515625 151.77203125 24.03515625 146.33203125 C23.04515625 146.66203125 22.05515625 146.99203125 21.03515625 147.33203125 C20.96167969 148.52699219 20.96167969 148.52699219 20.88671875 149.74609375 C20.81195313 150.80570313 20.7371875 151.8653125 20.66015625 152.95703125 C20.59054687 154.00117188 20.5209375 155.0453125 20.44921875 156.12109375 C20.01057508 159.52265125 19.47612529 162.21209529 18.03515625 165.33203125 C15.6015625 167.203125 15.6015625 167.203125 12.59765625 168.76953125 C8.38197836 171.04106139 4.37452459 173.39576169 0.41015625 176.08203125 C-6.86315079 180.73234968 -15.22464849 183.92250896 -23.96484375 182.33203125 C-34.65530661 178.44313533 -41.66343225 170.55835199 -47.08984375 160.76953125 C-64.37109549 123.68684522 -49.7616241 82.30344729 -36.74523926 46.44158936 C-33.21694794 36.90394406 -29.24059793 27.55717755 -24.96484375 18.33203125 C-24.6208252 17.58872559 -24.27680664 16.84541992 -23.92236328 16.07958984 C-18.92127811 5.50125763 -13.07463872 -4.4448573 0 0 Z " fill="#E6C292" transform="translate(290.96484375,209.66796875)"/>
<path d="M0 0 C6.59775088 1.27336592 12.39195027 3.15466794 18.5 5.9375 C19.36294678 6.329375 20.22589355 6.72125 21.11499023 7.125 C34.28746841 13.29027543 46.06292228 21.43887722 57 31 C57.79921875 31.67804688 58.5984375 32.35609375 59.421875 33.0546875 C64.41700259 37.36256599 68.79790368 41.92358215 73 47 C73.80308594 47.95003906 74.60617187 48.90007812 75.43359375 49.87890625 C82 57.73605694 82 57.73605694 82 60 C82.44690186 59.67837891 82.89380371 59.35675781 83.35424805 59.02539062 C120.74577853 32.18657033 120.74577853 32.18657033 141 34 C153.75327879 36.67926025 164.42337653 42.19068385 172 53 C178.38046452 64.71339008 180.00123571 77.21109845 177.31640625 90.34375 C176.38608347 93.03049131 175.3139061 95.47995297 174 98 C173.62230469 98.7425 173.24460937 99.485 172.85546875 100.25 C169.54295023 106.17450441 165.4935825 111.66296208 161.5625 117.1875 C161.0250415 117.94812744 160.48758301 118.70875488 159.93383789 119.49243164 C154.76287949 126.64747702 149.16620789 132.39514173 141.9375 137.5 C137.20683519 140.96044866 133.55662836 144.35662408 130 149 C130.70125 149.474375 131.4025 149.94875 132.125 150.4375 C135.29311473 153.26125443 137.19924176 156.15210949 139.4609375 159.70703125 C140.8740041 161.8122853 142.36009985 163.62735984 144.0625 165.5 C147.40491789 169.26573203 152 174.77899107 152 180 C147.52941176 184 147.52941176 184 145 184 C145 184.66 145 185.32 145 186 C144.278125 186.33902344 143.55625 186.67804688 142.8125 187.02734375 C137.97123526 190.42295304 136.21895356 195.97412831 133.75 201.21679688 C130.56550089 207.68033491 130.56550089 207.68033491 127.1875 209.58984375 C126.465625 209.72519531 125.74375 209.86054688 125 210 C123 208 123 208 122.75949097 205.4057312 C122.76393219 204.30874908 122.76837341 203.21176697 122.77294922 202.08154297 C122.77310028 200.84040741 122.77325134 199.59927185 122.77340698 198.32052612 C122.783621 196.9610783 122.794053 195.6016321 122.8046875 194.2421875 C122.80841716 192.85499271 122.81126435 191.46779529 122.81326294 190.08059692 C122.82090316 186.42759949 122.84055484 182.77476083 122.8626709 179.12182617 C122.88312104 175.39504138 122.89226287 171.66823096 122.90234375 167.94140625 C122.92380049 160.62753175 122.95794097 153.31378811 123 146 C122.06824951 145.70794678 121.13649902 145.41589355 120.17651367 145.11499023 C116.68742277 143.89028205 114.28838584 142.24265102 111.3125 140.0625 C105.74095561 136.22029605 100.62004889 134.25103286 94 133 C94 132.34 94 131.68 94 131 C97.17592274 129.94135909 99.22500357 129.63490814 102.296875 131.08203125 C103.86657968 132.01308158 105.41858999 132.97476655 106.94921875 133.96875 C107.62597656 134.3090625 108.30273438 134.649375 109 135 C112.29993928 133.90002024 112.66563152 133.38673807 114.6875 130.75 C120.47986966 123.84952484 127.94551523 118.54108784 135 113 C129.85802397 103.61475614 123.76322606 97.49148334 114.1875 92.625 C113.56069336 92.30345947 112.93388672 91.98191895 112.28808594 91.65063477 C101.22158535 86.359237 90.36781481 85.58047537 78.25 85.8125 C76.85938971 85.82759416 75.46876333 85.84127409 74.078125 85.85351562 C70.71832666 85.88851352 67.35938226 85.93761147 64 86 C61.11537567 95.23079785 60.86340318 104.08541585 60.67034912 113.70858765 C60.12151792 138.41448619 57.57532238 171.35498388 40.265625 190.96484375 C39.84796875 191.30644531 39.4303125 191.64804687 39 192 C29.98815834 172.40903988 36.92427929 151.36569362 41.85546875 131.56494141 C45.38484766 116.99995094 45.64961776 103.07885047 38.25 89.625 C34.16671934 83.29991819 29.68297158 80.57742657 22.765625 77.8671875 C21.87133789 77.5151123 20.97705078 77.16303711 20.05566406 76.80029297 C19.37729492 76.53619629 18.69892578 76.27209961 18 76 C17.93268677 74.77821045 17.93268677 74.77821045 17.86401367 73.53173828 C17.30838466 35.83681636 17.30838466 35.83681636 1.31640625 3.31640625 C0.88199219 2.88199219 0.44757813 2.44757813 0 2 C0 1.34 0 0.68 0 0 Z " fill="#E6C292" transform="translate(187,75)"/>
<path d="M0 0 C4.0531893 2.02659465 5.02377939 7.93965943 6.39941406 12.03515625 C12.52548945 32.0768858 10.14859133 50.90073257 2 70 C2.58007812 70.19335938 3.16015625 70.38671875 3.7578125 70.5859375 C11 73 11 73 13.875 74.09375 C17.35858551 75.1039898 20.25648444 75.19884726 23.875 75.125 C25.60363281 75.09792969 25.60363281 75.09792969 27.3671875 75.0703125 C28.23601562 75.04710937 29.10484375 75.02390625 30 75 C34.9444172 66.21525876 39.23727845 57.76040444 42 48 C43.65 47.67 45.3 47.34 47 47 C47 56.49143546 42.3751365 63.84376492 38 72 C37.67 72.66 37.34 73.32 37 74 C40.72975606 73.8897609 44.45853583 73.75921587 48.1875 73.625 C49.24259766 73.5940625 50.29769531 73.563125 51.38476562 73.53125 C52.40634766 73.49257813 53.42792969 73.45390625 54.48046875 73.4140625 C55.41785889 73.3826416 56.35524902 73.3512207 57.32104492 73.31884766 C60.2353117 72.97199334 62.39005577 72.34064841 65 71 C66.59561478 68.56349325 67.84067618 66.36241623 69.0625 63.75 C69.40684082 63.03271729 69.75118164 62.31543457 70.10595703 61.57641602 C75.4451654 50.11267281 77.67200771 38.47613808 79 26 C79.99 25.67 80.98 25.34 82 25 C82.71255046 42.10121101 80.59870792 55.86627406 72 71 C79.45881947 70.60237911 86.23412813 70.02682394 92.69140625 65.92578125 C95.1420688 62.31928382 94.43587047 57.49349435 94.43945312 53.24804688 C94.53166916 49.59438414 94.59118131 47.58680779 96.72265625 44.52734375 C99.20137293 42.86494543 101.05191135 42.32756541 104 42 C104.67885987 44.49723452 105.34317427 46.99696141 106 49.5 C106.19078125 50.19609375 106.3815625 50.8921875 106.578125 51.609375 C107.85746968 56.54399019 108.36052869 60.89797275 108 66 C104.85448792 70.25569281 101.94062313 71.48086103 97 73 C96.98582031 74.22976563 96.97164063 75.45953125 96.95703125 76.7265625 C96.9101103 78.35941158 96.86186303 79.99222292 96.8125 81.625 C96.80379883 82.83736328 96.80379883 82.83736328 96.79492188 84.07421875 C96.63849021 88.35001758 96.2069407 90.6570697 93.94921875 94.3984375 C87.46675458 100.11674364 79.73644348 100.638428 71.44921875 101.38671875 C69.8073333 101.54682182 69.8073333 101.54682182 68.13227844 101.7101593 C65.82574283 101.93282848 63.51868986 102.15019551 61.21118164 102.36254883 C57.70783808 102.68562444 54.20650347 103.0259601 50.70507812 103.36914062 C48.45322253 103.58435625 46.20127199 103.79858126 43.94921875 104.01171875 C42.3986805 104.16165535 42.3986805 104.16165535 40.81681824 104.31462097 C26.65567966 105.60228404 15.43540642 104.69787904 2.1875 99.25 C-4.30135879 96.69088168 -4.30135879 96.69088168 -11 98 C-13.38398837 99.66246269 -15.63354007 101.43312369 -17.8828125 103.2734375 C-22.09420735 106.70782223 -25.13304131 108.27653553 -30.5625 107.875 C-34.64379531 107.3410561 -38.52250045 106.35723781 -42.5 105.3125 C-53.40656579 102.73272683 -60.72992436 106.34115865 -70 112 C-71.05574219 112.6703125 -72.11148438 113.340625 -73.19921875 114.03125 C-92.24206313 126.11049803 -92.24206313 126.11049803 -103 124 C-112.57415117 120.75376437 -119.75000244 113.99553158 -124.8359375 105.36328125 C-127.27892088 100.4035331 -129.13731873 95.19965494 -131 90 C-131.4846875 91.11117187 -131.969375 92.22234375 -132.46875 93.3671875 C-136.40163847 102.17630276 -140.37599034 109.85912717 -147 117 C-147.49371094 117.58394531 -147.98742187 118.16789062 -148.49609375 118.76953125 C-154.5086372 125.43798854 -162.53595794 130.12870964 -170 135 C-170.89847656 135.59941406 -171.79695313 136.19882812 -172.72265625 136.81640625 C-177.77248951 139.94249351 -182.10023051 141.28955052 -188 140 C-194.35674056 136.5743129 -199.93579814 131.75797855 -205.4375 127.125 C-206.91475323 125.89119473 -208.39261551 124.65811831 -209.87109375 123.42578125 C-210.5760498 122.83748535 -211.28100586 122.24918945 -212.00732422 121.64306641 C-215.37850553 118.8633494 -218.83690515 116.19857395 -222.3125 113.55078125 C-224 112 -224 112 -225 109 C-221.95164793 109.59148988 -220.08209617 110.47012491 -217.6875 112.43359375 C-216.78644531 113.1596582 -216.78644531 113.1596582 -215.8671875 113.90039062 C-214.94292969 114.66125977 -214.94292969 114.66125977 -214 115.4375 C-206.55070862 121.76337861 -206.55070862 121.76337861 -197.05615234 123.27636719 C-193.67696535 122.82217107 -191.21423717 121.3626083 -188.3125 119.625 C-187.42292603 119.09241577 -187.42292603 119.09241577 -186.51538086 118.54907227 C-172.1811808 109.90999707 -172.1811808 109.90999707 -161 98 C-161.25851321 92.14036733 -167.25873602 87.0510874 -171 83 C-173.5510431 80.79720785 -176.1696354 78.82778313 -179 77 C-178.67 75.35 -178.34 73.7 -178 72 C-169.10159776 76.72727619 -163.37767056 83.64780542 -158 92 C-155.78986175 89.96110261 -154.40204742 88.1381134 -153.1328125 85.41796875 C-152.80410156 84.73283203 -152.47539062 84.04769531 -152.13671875 83.34179688 C-151.46815969 81.9182049 -150.801458 80.493739 -150.13671875 79.06835938 C-147.0700262 72.69035483 -143.63194195 67.14144619 -137 64 C-136.01 64 -135.02 64 -134 64 C-134 54.76 -134 45.52 -134 36 C-133.67 36 -133.34 36 -133 36 C-132.91363281 37.10214844 -132.82726562 38.20429688 -132.73828125 39.33984375 C-131.45910619 53.80127129 -129.20275648 72.88285055 -118.3203125 83.6640625 C-117 85 -117 85 -117 87 C-116.43667969 87.27585937 -115.87335938 87.55171875 -115.29296875 87.8359375 C-113.75533351 88.61654278 -112.23646222 89.43517697 -110.73828125 90.2890625 C-102.74986856 94.68847819 -97.23824143 95.09230214 -88.5 92.6875 C-80.54203246 89.86734398 -73.72436489 84.94160121 -66.82421875 80.17333984 C-65 79 -65 79 -62.82617188 78.08642578 C-61.9222168 77.54864502 -61.9222168 77.54864502 -61 77 C-60.31733975 74.10457895 -59.84225545 71.4356841 -59.5 68.5 C-59.15774455 65.5643159 -58.68266025 62.89542105 -58 60 C-55.90625 58.46875 -55.90625 58.46875 -54 58 C-53.97300275 60.27076842 -53.95360547 62.54162821 -53.9375 64.8125 C-53.92589844 66.07707031 -53.91429687 67.34164062 -53.90234375 68.64453125 C-54 72 -54 72 -55 75 C-54.33613281 74.98839844 -53.67226563 74.97679687 -52.98828125 74.96484375 C-52.10527344 74.95582031 -51.22226562 74.94679688 -50.3125 74.9375 C-49.44238281 74.92589844 -48.57226562 74.91429687 -47.67578125 74.90234375 C-45.01191443 74.99956517 -42.59426811 75.40635667 -40 76 C-40.742026 54.58359449 -43.91668142 34.99085421 -52.21484375 15.0859375 C-53 13 -53 13 -53 10 C-52.01 9.67 -51.02 9.34 -50 9 C-38.2863683 31.14786188 -33.43728575 53.00399681 -37 78 C-28.40512602 78.50067227 -23.8024431 78.2344122 -17.18359375 72.3984375 C-12.58202263 68.59831419 -9.70021619 67.36248466 -3.6875 67.7890625 C-3.130625 67.85867188 -2.57375 67.92828125 -2 68 C3.6375828 46.43487746 5.45777751 27.91933085 1 6 C0.65759743 4.00153269 0.32070387 2.00206397 0 0 Z " fill="#CFAA79" transform="translate(370,297)"/>
<path d="M0 0 C19.13121891 10.9782522 30.44230587 37.08387455 36.20751953 57.47998047 C38.92647843 67.56598997 40.25403329 77.12423522 39.77734375 87.59375 C39.13023437 87.80515625 38.483125 88.0165625 37.81640625 88.234375 C35.49048127 89.44008577 35.49048127 89.44008577 35.23828125 92.203125 C35.20992188 93.23953125 35.1815625 94.2759375 35.15234375 95.34375 C35.0066448 99.80437929 34.67970229 103.51242885 32.77734375 107.59375 C30.34375 109.46484375 30.34375 109.46484375 27.33984375 111.03125 C23.12416586 113.30278014 19.11671209 115.65748044 15.15234375 118.34375 C7.87903671 122.99406843 -0.48246099 126.18422771 -9.22265625 124.59375 C-19.91311911 120.70485408 -26.92124475 112.82007074 -32.34765625 103.03125 C-46.59778373 72.45285145 -38.55048052 39.06500559 -29.03515625 8.53125 C-28.70249756 7.4484375 -28.36983887 6.365625 -28.02709961 5.25 C-27.70620361 4.25871094 -27.38530762 3.26742188 -27.0546875 2.24609375 C-26.77343018 1.36945068 -26.49217285 0.49280762 -26.20239258 -0.41040039 C-25.7174231 -1.39834595 -25.7174231 -1.39834595 -25.22265625 -2.40625 C-16.7116116 -5.24326488 -7.94999982 -3.76084091 0 0 Z " fill="#F3E59D" transform="translate(276.22265625,267.40625)"/>
<path d="M0 0 C5.17939436 2.4100039 9.9398637 5.7315709 14.71875 8.83984375 C16.94182762 10.32386839 16.94182762 10.32386839 19.0390625 11.328125 C19.3690625 31.788125 19.6990625 52.248125 20.0390625 73.328125 C21.0290625 73.823125 21.0290625 73.823125 22.0390625 74.328125 C24.6281569 73.44983658 25.80641263 72.67716572 27.33178711 70.38867188 C27.69796143 69.61587891 28.06413574 68.84308594 28.44140625 68.046875 C28.85712891 67.20511719 29.27285156 66.36335938 29.70117188 65.49609375 C30.55070704 63.71896506 31.39706935 61.94031611 32.24023438 60.16015625 C35.46351233 53.65381774 35.46351233 53.65381774 38.85546875 51.734375 C39.57605469 51.6003125 40.29664063 51.46625 41.0390625 51.328125 C41.0390625 50.668125 41.0390625 50.008125 41.0390625 49.328125 C45.50965074 45.328125 45.50965074 45.328125 48.0390625 45.328125 C48.3690625 44.338125 48.6990625 43.348125 49.0390625 42.328125 C50.74707031 40.87695312 50.74707031 40.87695312 52.9921875 39.359375 C53.8289502 38.79323486 54.66571289 38.22709473 55.52783203 37.64379883 C56.89464111 36.74504028 56.89464111 36.74504028 58.2890625 35.828125 C59.22476074 35.21026123 60.16045898 34.59239746 61.12451172 33.95581055 C67.64984789 29.71952087 74.29373092 25.79009701 81.1640625 22.140625 C81.99067383 21.69589844 82.81728516 21.25117188 83.66894531 20.79296875 C91.3991555 16.80877078 100.21766488 13.31027143 109.0390625 14.328125 C114.24565304 16.03373225 117.44450912 18.20496083 121.0390625 22.328125 C122.5173851 25.28477019 122.09939033 28.07042237 122.0390625 31.328125 C120.67587891 31.946875 120.67587891 31.946875 119.28515625 32.578125 C100.16495066 41.29683176 100.16495066 41.29683176 83.0390625 53.328125 C82.0078125 54.09125 80.9765625 54.854375 79.9140625 55.640625 C72.05040882 62.9914317 67.24340265 72.38298183 64.0390625 82.515625 C62.42100195 87.52782038 60.92627041 91.55567376 56.2578125 94.42163086 C53.57898901 95.51609297 51.42964575 95.63151282 48.5390625 95.70703125 C47.4871875 95.74119141 46.4353125 95.77535156 45.3515625 95.81054688 C43.711875 95.85018555 43.711875 95.85018555 42.0390625 95.890625 C39.87228849 95.95067121 37.70561073 96.01432662 35.5390625 96.08203125 C34.58 96.10595947 33.6209375 96.1298877 32.6328125 96.15454102 C30.29996121 96.31066463 28.27631568 96.67350419 26.0390625 97.328125 C26.72742188 99.12443359 26.72742188 99.12443359 27.4296875 100.95703125 C35.2945393 121.71775344 39.49335034 141.06802076 39.0390625 163.328125 C34.0890625 162.998125 29.1390625 162.668125 24.0390625 162.328125 C24.07386719 160.33652344 24.10867188 158.34492188 24.14453125 156.29296875 C24.59907213 136.59943158 24.59907213 136.59943158 21.0390625 117.328125 C20.85633789 116.66586914 20.67361328 116.00361328 20.48535156 115.32128906 C15.22325661 96.37256289 5.17202386 71.72389579 -11.92578125 60.47265625 C-12.59738281 60.09496094 -13.26898438 59.71726562 -13.9609375 59.328125 C-14.68410156 58.91949219 -15.40726562 58.51085937 -16.15234375 58.08984375 C-23.5518457 54.54247131 -30.94299958 54.94326398 -38.9609375 55.328125 C-38.37348285 49.14936093 -35.86388261 43.79080529 -33.4609375 38.140625 C-33.01314941 37.08431885 -32.56536133 36.0280127 -32.10400391 34.93969727 C-30.73397955 31.73098142 -29.34903993 28.52905522 -27.9609375 25.328125 C-27.55713867 24.38356445 -27.15333984 23.43900391 -26.73730469 22.46582031 C-14.8711327 -5.0952885 -14.8711327 -5.0952885 0 0 Z " fill="#E8C89D" transform="translate(290.9609375,209.671875)"/>
<path d="M0 0 C0.68126953 0.35465332 1.36253906 0.70930664 2.06445312 1.07470703 C11.69532223 6.10342795 20.82039835 11.71310267 29.8125 17.8125 C30.74980957 18.44679932 31.68711914 19.08109863 32.65283203 19.73461914 C37.18337762 22.8586066 41.29467017 25.92180679 45 30 C44.05640625 30.63615234 44.05640625 30.63615234 43.09375 31.28515625 C30.22763675 40.1015441 18.85355712 50.57929885 15.359375 66.57421875 C12.97954872 82.63804613 17.94246543 97.96956696 24.1796875 112.62890625 C24.45039063 113.41136719 24.72109375 114.19382813 25 115 C24.67 115.66 24.34 116.32 24 117 C7.11056562 104.73931762 -7.75711929 89.8986875 -20 73 C-21.01943336 71.61320929 -22.03896977 70.22649432 -23.05859375 68.83984375 C-28.79579979 60.9914919 -34.38021702 53.03878997 -39.9375 45.0625 C-50.0587502 30.55668929 -60.34208499 16.31516764 -72 3 C-72.64453125 2.23300781 -73.2890625 1.46601563 -73.953125 0.67578125 C-77.93577503 -4.03343331 -82.27732303 -8.04291324 -87 -12 C-88.33426974 -13.14474279 -89.66766302 -14.29050829 -91 -15.4375 C-91.99 -16.283125 -92.98 -17.12875 -94 -18 C-93 -20 -93 -20 -90.77734375 -20.81640625 C-58.4024627 -29.322049 -28.30437464 -15.05718621 0 0 Z " fill="#7CAD45" transform="translate(128,131)"/>
<path d="M0 0 C6.59775088 1.27336592 12.39195027 3.15466794 18.5 5.9375 C19.36294678 6.329375 20.22589355 6.72125 21.11499023 7.125 C34.28746841 13.29027543 46.06292228 21.43887722 57 31 C57.79921875 31.67804688 58.5984375 32.35609375 59.421875 33.0546875 C66.67112222 39.30655507 72.56485773 46.35425907 78.4375 53.875 C79.11220337 54.73291138 79.11220337 54.73291138 79.80053711 55.6081543 C83 59.76379278 83 59.76379278 83 62 C81.87474845 63.02649277 80.69717355 63.99587696 79.5 64.9375 C68.1173956 74.64500481 62.75318387 86.4475426 61 101 C60.71312095 105.99876453 60.63882987 110.99418766 60.5625 116 C59.99108044 139.96866649 57.01722886 171.98723847 40.265625 190.96484375 C39.84796875 191.30644531 39.4303125 191.64804687 39 192 C29.98815834 172.40903988 36.92427929 151.36569362 41.85546875 131.56494141 C45.38484766 116.99995094 45.64961776 103.07885047 38.25 89.625 C34.16671934 83.29991819 29.68297158 80.57742657 22.765625 77.8671875 C21.87133789 77.5151123 20.97705078 77.16303711 20.05566406 76.80029297 C19.37729492 76.53619629 18.69892578 76.27209961 18 76 C17.93268677 74.77821045 17.93268677 74.77821045 17.86401367 73.53173828 C17.30838466 35.83681636 17.30838466 35.83681636 1.31640625 3.31640625 C0.88199219 2.88199219 0.44757813 2.44757813 0 2 C0 1.34 0 0.68 0 0 Z " fill="#75A347" transform="translate(187,75)"/>
<path d="M0 0 C0.33 0 0.66 0 1 0 C1.08636719 1.10214844 1.17273438 2.20429688 1.26171875 3.33984375 C2.54089381 17.80127129 4.79724352 36.88285055 15.6796875 47.6640625 C17 49 17 49 17 51 C17.56332031 51.27585937 18.12664062 51.55171875 18.70703125 51.8359375 C20.24466649 52.61654278 21.76353778 53.43517697 23.26171875 54.2890625 C31.25013144 58.68847819 36.76175857 59.09230214 45.5 56.6875 C53.45796754 53.86734398 60.27563511 48.94160121 67.17578125 44.17333984 C69 43 69 43 71.17382812 42.08642578 C72.0777832 41.54864502 72.0777832 41.54864502 73 41 C73.68266025 38.10457895 74.15774455 35.4356841 74.5 32.5 C74.84225545 29.5643159 75.31733975 26.89542105 76 24 C78.09375 22.46875 78.09375 22.46875 80 22 C81.21218351 39.2399432 75.4240779 57.18569931 64.7421875 70.8984375 C63.38673314 72.39963964 61.99939385 73.87340221 60.56640625 75.30078125 C58.76457734 77.02210461 58.76457734 77.02210461 58 80 C55.73864535 81.33984531 53.5524855 82.50311743 51.1875 83.625 C50.24293945 84.09292969 50.24293945 84.09292969 49.27929688 84.5703125 C42.46422624 87.88845812 35.88788854 89.61670502 28.47265625 87.1640625 C16.4182128 81.6290484 9.84838661 72.01675515 5.1875 60 C4.44999382 58.00306018 3.71791954 56.00406476 3 54 C2.5153125 55.11117187 2.030625 56.22234375 1.53125 57.3671875 C-2.40163847 66.17630276 -6.37599034 73.85912717 -13 81 C-13.49371094 81.58394531 -13.98742187 82.16789062 -14.49609375 82.76953125 C-20.5086372 89.43798854 -28.53595794 94.12870964 -36 99 C-36.89847656 99.59941406 -37.79695313 100.19882812 -38.72265625 100.81640625 C-43.77248951 103.94249351 -48.10023051 105.28955052 -54 104 C-60.35674056 100.5743129 -65.93579814 95.75797855 -71.4375 91.125 C-72.91475323 89.89119473 -74.39261551 88.65811831 -75.87109375 87.42578125 C-76.5760498 86.83748535 -77.28100586 86.24918945 -78.00732422 85.64306641 C-81.37850553 82.8633494 -84.83690515 80.19857395 -88.3125 77.55078125 C-90 76 -90 76 -91 73 C-87.95164793 73.59148988 -86.08209617 74.47012491 -83.6875 76.43359375 C-82.78644531 77.1596582 -82.78644531 77.1596582 -81.8671875 77.90039062 C-80.94292969 78.66125977 -80.94292969 78.66125977 -80 79.4375 C-72.55070862 85.76337861 -72.55070862 85.76337861 -63.05615234 87.27636719 C-59.67696535 86.82217107 -57.21423717 85.3626083 -54.3125 83.625 C-53.42292603 83.09241577 -53.42292603 83.09241577 -52.51538086 82.54907227 C-38.1811808 73.90999707 -38.1811808 73.90999707 -27 62 C-27.25851321 56.14036733 -33.25873602 51.0510874 -37 47 C-39.5510431 44.79720785 -42.1696354 42.82778313 -45 41 C-44.67 39.35 -44.34 37.7 -44 36 C-35.10159776 40.72727619 -29.37767056 47.64780542 -24 56 C-21.78986175 53.96110261 -20.40204742 52.1381134 -19.1328125 49.41796875 C-18.80410156 48.73283203 -18.47539062 48.04769531 -18.13671875 47.34179688 C-17.46815969 45.9182049 -16.801458 44.493739 -16.13671875 43.06835938 C-13.0700262 36.69035483 -9.63194195 31.14144619 -3 28 C-2.01 28 -1.02 28 0 28 C0 18.76 0 9.52 0 0 Z " fill="#D9C97E" transform="translate(236,333)"/>
<path d="M0 0 C9.56077308 10.22780376 12.20961668 21.67879926 11.97265625 35.37695312 C11.63171072 43.12140823 9.61950841 50.57254855 7.75 58.0625 C7.37136976 59.63306017 6.99440942 61.20402388 6.61914062 62.77539062 C5.93488435 65.63570974 5.2400576 68.49303424 4.53540039 71.34838867 C3.15942767 77.0713734 2.50518064 82.29711404 2.5 88.1875 C2.48775391 88.90873047 2.47550781 89.62996094 2.46289062 90.37304688 C2.44901196 95.53128327 3.28802242 99.91031337 4.6875 104.875 C5.03415557 106.53894675 5.37426972 108.20443851 5.6875 109.875 C0.00705119 105.91189618 -2.83745474 101.33640134 -5.3125 94.875 C-5.3125 93.885 -5.3125 92.895 -5.3125 91.875 C-13.2325 91.875 -21.1525 91.875 -29.3125 91.875 C-29.6425 90.555 -29.9725 89.235 -30.3125 87.875 C-23.03133639 85.44794546 -15.54734638 87.21454345 -8.3125 88.875 C-8.42207031 88.35035156 -8.53164062 87.82570313 -8.64453125 87.28515625 C-10.37176299 78.84559305 -11.83579243 70.36114616 -13.3125 61.875 C-15.54013988 61.05809823 -17.7694486 60.24638128 -20 59.4375 C-20.62583984 59.20740234 -21.25167969 58.97730469 -21.89648438 58.74023438 C-35.67930925 53.76109869 -53.37837076 53.63014658 -67.01953125 59.09765625 C-69.3125 59.875 -69.3125 59.875 -72.3125 58.875 C-65.80572999 55.37241955 -59.46624124 52.73246264 -52.3125 50.875 C-51.71695313 50.68550781 -51.12140625 50.49601562 -50.5078125 50.30078125 C-47.20555353 49.66030754 -43.91129854 49.77135219 -40.5625 49.8125 C-39.51642578 49.81926758 -39.51642578 49.81926758 -38.44921875 49.82617188 C-36.73694197 49.8378998 -35.02470967 49.85583347 -33.3125 49.875 C-33.26351562 49.07578125 -33.21453125 48.2765625 -33.1640625 47.453125 C-32.64480084 39.82535031 -31.70739515 32.3911826 -30.3125 24.875 C-38.88009986 22.24151644 -47.24703943 19.93489764 -56.125 18.625 C-57.41019531 18.43421875 -58.69539062 18.2434375 -60.01953125 18.046875 C-63.45533414 17.53882815 -63.45533414 17.53882815 -66.3125 19.875 C-63.35542126 12.82834428 -55.76686191 7.65316307 -49.3125 3.875 C-48.6525 3.875 -47.9925 3.875 -47.3125 3.875 C-47.3125 3.215 -47.3125 2.555 -47.3125 1.875 C-31.26300672 -5.97900735 -16.05200262 -10.29751112 0 0 Z " fill="#E6C495" transform="translate(220.3125,157.125)"/>
<path d="M0 0 C10.37629533 4.97197484 16.10018334 13.3717443 20 24 C23.07381192 34.74726493 22.13418444 48.15273141 17 58 C16.62230469 58.7425 16.24460937 59.485 15.85546875 60.25 C12.54295023 66.17450441 8.4935825 71.66296208 4.5625 77.1875 C4.0250415 77.94812744 3.48758301 78.70875488 2.93383789 79.49243164 C-2.23712051 86.64747702 -7.83379211 92.39514173 -15.0625 97.5 C-19.79316481 100.96044866 -23.44337164 104.35662408 -27 109 C-26.29875 109.474375 -25.5975 109.94875 -24.875 110.4375 C-21.70688527 113.26125443 -19.80075824 116.15210949 -17.5390625 119.70703125 C-16.1259959 121.8122853 -14.63990015 123.62735984 -12.9375 125.5 C-9.59508211 129.26573203 -5 134.77899107 -5 140 C-9.47058824 144 -9.47058824 144 -12 144 C-12 144.66 -12 145.32 -12 146 C-12.721875 146.33902344 -13.44375 146.67804688 -14.1875 147.02734375 C-19.02876474 150.42295304 -20.78104644 155.97412831 -23.25 161.21679688 C-26.43449911 167.68033491 -26.43449911 167.68033491 -29.8125 169.58984375 C-30.534375 169.72519531 -31.25625 169.86054688 -32 170 C-34 168 -34 168 -34.24050903 165.4057312 C-34.2338472 163.76025803 -34.2338472 163.76025803 -34.22705078 162.08154297 C-34.22689972 160.84040741 -34.22674866 159.59927185 -34.22659302 158.32052612 C-34.216379 156.9610783 -34.205947 155.6016321 -34.1953125 154.2421875 C-34.19158284 152.85499271 -34.18873565 151.46779529 -34.18673706 150.08059692 C-34.17909684 146.42759949 -34.15944516 142.77476083 -34.1373291 139.12182617 C-34.11687896 135.39504138 -34.10773713 131.66823096 -34.09765625 127.94140625 C-34.07619951 120.62753175 -34.04205903 113.31378811 -34 106 C-34.93175049 105.70794678 -35.86350098 105.41589355 -36.82348633 105.11499023 C-40.31257723 103.89028205 -42.71161416 102.24265102 -45.6875 100.0625 C-51.25904439 96.22029605 -56.37995111 94.25103286 -63 93 C-63 92.34 -63 91.68 -63 91 C-59.82407726 89.94135909 -57.77499643 89.63490814 -54.703125 91.08203125 C-53.13342032 92.01308158 -51.58141001 92.97476655 -50.05078125 93.96875 C-49.37402344 94.3090625 -48.69726562 94.649375 -48 95 C-44.70006072 93.90002024 -44.33436848 93.38673807 -42.3125 90.75 C-36.52013034 83.84952484 -29.05448477 78.54108784 -22 73 C-22.62390625 71.87722656 -23.2478125 70.75445312 -23.890625 69.59765625 C-24.24157227 68.96609619 -24.59251953 68.33453613 -24.95410156 67.68383789 C-25.95987435 65.88788406 -25.95987435 65.88788406 -27.75 64.4375 C-29.73559696 62.1540635 -29.19291348 59.89370226 -29 57 C-24.22864787 60.57851409 -21.70923672 63.68572797 -19 69 C-14.77439068 64.93620788 -11.58064539 60.42698544 -8.25 55.625 C-7.64800781 54.78710938 -7.04601562 53.94921875 -6.42578125 53.0859375 C-2.2233103 47.13933412 -2.2233103 47.13933412 -2 40 C0.475 39.505 0.475 39.505 3 39 C5.09177094 26.2793117 5.38051165 13.88996993 0 2 C0 1.34 0 0.68 0 0 Z " fill="#CEAA7A" transform="translate(344,115)"/>
<path d="M0 0 C0.68126953 0.35465332 1.36253906 0.70930664 2.06445312 1.07470703 C11.69532223 6.10342795 20.82039835 11.71310267 29.8125 17.8125 C30.74980957 18.44679932 31.68711914 19.08109863 32.65283203 19.73461914 C37.18337762 22.8586066 41.29467017 25.92180679 45 30 C44.05640625 30.63615234 44.05640625 30.63615234 43.09375 31.28515625 C33.02538456 38.18441269 26.17089736 44.33591799 20 55 C16.85541396 51.94186306 14.03874539 48.85487163 11.375 45.375 C-15.22704197 12.66466886 -49.47706702 -6.96366734 -89 -20 C-64.80047919 -36.13301388 -21.38717028 -11.3774146 0 0 Z " fill="#89B456" transform="translate(128,131)"/>
<path d="M0 0 C0.50682442 3.01982884 1.00563335 6.04062817 1.5 9.0625 C1.64308594 9.91005859 1.78617187 10.75761719 1.93359375 11.63085938 C3.3381001 20.29198186 3.40189725 26.37956893 -0.5 34.3125 C-1.0403186 35.43180908 -1.0403186 35.43180908 -1.59155273 36.57373047 C-4.66347512 42.72825787 -8.31484929 47.94927285 -13 53 C-13.49371094 53.58394531 -13.98742187 54.16789062 -14.49609375 54.76953125 C-20.5086372 61.43798854 -28.53595794 66.12870964 -36 71 C-36.89847656 71.59941406 -37.79695313 72.19882812 -38.72265625 72.81640625 C-43.77248951 75.94249351 -48.10023051 77.28955052 -54 76 C-60.35674056 72.5743129 -65.93579814 67.75797855 -71.4375 63.125 C-72.91475323 61.89119473 -74.39261551 60.65811831 -75.87109375 59.42578125 C-76.92852783 58.5433374 -76.92852783 58.5433374 -78.00732422 57.64306641 C-81.37850553 54.8633494 -84.83690515 52.19857395 -88.3125 49.55078125 C-90 48 -90 48 -91 45 C-87.95164793 45.59148988 -86.08209617 46.47012491 -83.6875 48.43359375 C-83.08679688 48.91763672 -82.48609375 49.40167969 -81.8671875 49.90039062 C-80.94292969 50.66125977 -80.94292969 50.66125977 -80 51.4375 C-72.55070862 57.76337861 -72.55070862 57.76337861 -63.05615234 59.27636719 C-59.67696535 58.82217107 -57.21423717 57.3626083 -54.3125 55.625 C-53.42292603 55.09241577 -53.42292603 55.09241577 -52.51538086 54.54907227 C-38.1811808 45.90999707 -38.1811808 45.90999707 -27 34 C-27.25851321 28.14036733 -33.25873602 23.0510874 -37 19 C-39.5510431 16.79720785 -42.1696354 14.82778313 -45 13 C-44.67 11.35 -44.34 9.7 -44 8 C-35.10159776 12.72727619 -29.37767056 19.64780542 -24 28 C-21.78986175 25.96110261 -20.40204742 24.1381134 -19.1328125 21.41796875 C-18.80410156 20.73283203 -18.47539062 20.04769531 -18.13671875 19.34179688 C-17.46815969 17.9182049 -16.801458 16.493739 -16.13671875 15.06835938 C-12.89246873 8.32107675 -8.41856007 0 0 0 Z " fill="#CEAA79" transform="translate(236,361)"/>
<path d="M0 0 C-0.763125 0.886875 -1.52625 1.77375 -2.3125 2.6875 C-7.23856626 8.43259896 -12.1151426 14.21987514 -17 20 C-18.21816406 19.71125 -19.43632812 19.4225 -20.69140625 19.125 C-22.31501171 18.74959989 -23.93871489 18.37462228 -25.5625 18 C-26.36236328 17.80921875 -27.16222656 17.6184375 -27.98632812 17.421875 C-32.78345532 16.32538878 -37.08016034 15.78867803 -42 16 C-40.49759766 16.38091797 -40.49759766 16.38091797 -38.96484375 16.76953125 C-37.62232073 17.11689735 -36.27987701 17.46457005 -34.9375 17.8125 C-34.28072266 17.97814453 -33.62394531 18.14378906 -32.94726562 18.31445312 C-28.41302384 19.49826995 -24.26833011 21.06287749 -20 23 C-20.98049918 27.67752727 -23.33059277 31.30536125 -25.75 35.375 C-26.18054688 36.1175 -26.61109375 36.86 -27.0546875 37.625 C-29.70632667 42.11849632 -32.54705393 46.08748916 -36 50 C-36.7321875 49.7834375 -37.464375 49.566875 -38.21875 49.34375 C-53.08837966 45.52013094 -68.84517976 46.20677691 -84 48 C-81.45848649 39.0787689 -74.78252933 32.13657416 -68 26 C-67.34 26 -66.68 26 -66 26 C-65.74057617 25.39639648 -65.48115234 24.79279297 -65.21386719 24.17089844 C-63.89282646 21.80832922 -62.77462538 20.81045456 -60.578125 19.265625 C-59.54461914 18.53363892 -59.54461914 18.53363892 -58.49023438 17.78686523 C-57.75095703 17.27969971 -57.01167969 16.77253418 -56.25 16.25 C-55.49009766 15.722854 -54.73019531 15.19570801 -53.94726562 14.65258789 C-37.32860554 3.26630668 -20.56864971 -6.20940369 0 0 Z " fill="#E8C99E" transform="translate(336,111)"/>
<path d="M0 0 C11.86709272 -0.98436714 23.06772663 2.58869126 33 9 C32.67 10.98 32.34 12.96 32 15 C32.58136719 15.26683594 33.16273438 15.53367187 33.76171875 15.80859375 C40.61098786 19.45436526 47.29571983 26.20672687 51 33 C50.79806542 37.72710504 47.05744091 40.40611426 43.85546875 43.49609375 C23.0524457 61.73786909 23.0524457 61.73786909 11.875 62.75 C3.630271 61.154246 -2.53216029 54.88986642 -8.8359375 49.63671875 C-10.99134794 47.8250788 -10.99134794 47.8250788 -14 47 C-14.33 47.66 -14.66 48.32 -15 49 C-16.48847937 47.76110404 -17.96550105 46.5084328 -19.4375 45.25 C-20.26121094 44.55390625 -21.08492187 43.8578125 -21.93359375 43.140625 C-24.01296451 40.98656985 -24.63867326 39.91689219 -25 37 C-21.05860922 38.66751148 -18.2107188 41.22710649 -15 44 C-11.71170727 42.57094152 -9.68712 40.79399195 -7.1875 38.25 C-2.15634137 33.65198748 3.16951437 31.61883126 9.45703125 29.30859375 C16.57162945 26.77649161 16.57162945 26.77649161 22.578125 22.38671875 C24 21 24 21 26 21 C26.28875 20.4225 26.5775 19.845 26.875 19.25 C27.91666667 17.16666667 28.95833333 15.08333333 30 13 C20.20262889 7.27444412 11.12628748 3.39885914 0 1 C0 0.67 0 0.34 0 0 Z " fill="#E3BB86" transform="translate(159,359)"/>
<path d="M0 0 C8.36644589 2.86849573 12.20297873 8.30775864 16 16 C22.10140923 30.77542757 18.77430579 46.31661469 15.0625 61.1875 C14.68386976 62.75806017 14.30690942 64.32902388 13.93164062 65.90039062 C13.24738435 68.76070974 12.5525576 71.61803424 11.84790039 74.47338867 C10.47192767 80.1963734 9.81768064 85.42211404 9.8125 91.3125 C9.79413086 92.3943457 9.79413086 92.3943457 9.77539062 93.49804688 C9.76151196 98.65628327 10.60052242 103.03531337 12 108 C12.34665557 109.66394675 12.68676972 111.32943851 13 113 C7.31955119 109.03689618 4.47504526 104.46140134 2 98 C2 97.01 2 96.02 2 95 C-5.92 95 -13.84 95 -22 95 C-22.33 93.68 -22.66 92.36 -23 91 C-15.71883639 88.57294546 -8.23484638 90.33954345 -1 92 C-1.10957031 91.47535156 -1.21914062 90.95070313 -1.33203125 90.41015625 C-3.05926299 81.97059305 -4.52329243 73.48614616 -6 65 C-8.18646304 64.2054739 -10.37422221 63.4145142 -12.5625 62.625 C-13.78066406 62.18414062 -14.99882812 61.74328125 -16.25390625 61.2890625 C-19.81766039 60.0627446 -23.36847363 59.00018873 -27 58 C-27 56.68 -27 55.36 -27 54 C-19.10538646 54.39473068 -13.21248563 56.76681679 -6 60 C-4.02 53.4 -2.04 46.8 0 40 C-1.65 39.34 -3.3 38.68 -5 38 C-6.64315694 37.05161842 -8.2681942 36.0712455 -9.875 35.0625 C-13.82724409 32.64263797 -17.68887249 30.68696294 -22 29 C-22 27.35 -22 25.7 -22 24 C-14.04152911 26.15093808 -6.13487179 30.49977012 0 36 C3.34284298 24.50897725 3.17203437 11.52694632 0 0 Z " fill="#D3B285" transform="translate(213,154)"/>
<path d="M0 0 C13.09220796 -1.12863862 25.00213482 4.91861568 35 13 C35.69706055 13.51224121 36.39412109 14.02448242 37.11230469 14.55224609 C40.63011537 17.47493842 42.71927777 19.6033693 43.63818359 24.17504883 C43.78644951 27.81515407 43.69972498 31.36270091 43.5 35 C43.46390625 36.25167969 43.4278125 37.50335938 43.390625 38.79296875 C43.29681689 41.86518432 43.16568726 44.93096213 43 48 C42.18595703 48.37656738 42.18595703 48.37656738 41.35546875 48.76074219 C40.64003906 49.10266602 39.92460937 49.44458984 39.1875 49.796875 C38.47980469 50.13041992 37.77210938 50.46396484 37.04296875 50.80761719 C28.76757423 55.63756781 24.95464153 67.72937914 21 76 C20.01 76 19.02 76 18 76 C16.30859375 73.875 16.30859375 73.875 14.4375 71 C10.38093561 65.16066243 5.75320288 61.11448321 0 57 C1.42311927 47.87396528 10.75893892 36.32360905 18 31 C24.11572674 27.5043062 30.42974316 24.5489132 37 22 C27.05737038 11.61547573 14.055127 5.55547764 0 3 C0 2.01 0 1.02 0 0 Z " fill="#E3BC86" transform="translate(193,313)"/>
<path d="M0 0 C41.77609715 8.15143359 77.52462005 36.94587928 104 69 C103.67 69.66 103.34 70.32 103 71 C102.52175781 70.63648438 102.04351562 70.27296875 101.55078125 69.8984375 C93.29687334 64.28059442 84.08105331 62.26099777 74.57080078 59.69824219 C61.74077244 56.21354313 50.88135938 52.62865595 43.52734375 40.79296875 C41.56726072 37.20867369 39.78964806 33.54654603 38 29.875 C33.39746565 20.51952167 29.77563016 15.15621057 19.875 10.97265625 C17.13669708 10.0462467 14.60399509 9.53830722 11.75 9.125 C6.28759312 8.24368515 3.27799311 5.33085844 0 1 C0 0.67 0 0.34 0 0 Z " fill="#89B456" transform="translate(38,115)"/>
<path d="M0 0 C6.22665312 5.2282102 8.48967509 15.91023185 9.73046875 23.6796875 C10.35972481 31.43139262 10.1369739 39.23053582 10 47 C17.54941352 43.2802266 24.18009889 38.85663977 30.87133789 33.78393555 C33.81593247 31.55842883 36.58603459 29.47168434 40 28 C40.96927343 43.83146602 35.1618582 60.38295967 26.4921875 73.4609375 C23.33075747 76.72167947 18.68449701 76.26150409 14.375 76.5625 C13.22773438 76.64628906 12.08046875 76.73007812 10.8984375 76.81640625 C6.2613291 77.03478711 1.64109106 77.0370206 -3 77 C-2.73783691 76.47156494 -2.47567383 75.94312988 -2.20556641 75.39868164 C-1.00192741 72.9581319 0.1865533 70.51048148 1.375 68.0625 C1.7875 67.23169922 2.2 66.40089844 2.625 65.54492188 C5.27051209 60.06188472 6.89972563 54.99105441 8 49 C5.525 49.495 5.525 49.495 3 50 C3.23783203 48.63294922 3.23783203 48.63294922 3.48046875 47.23828125 C5.72311316 31.35653475 4.39103585 15.34902265 0 0 Z " fill="#E3BB86" transform="translate(409,295)"/>
<path d="M0 0 C1.44173211 0.41257114 2.87829993 0.84321282 4.3125 1.28125 C5.11300781 1.51908203 5.91351563 1.75691406 6.73828125 2.00195312 C10.05321857 3.46476226 11.45182715 5.6678156 13.40234375 8.62890625 C15.2748597 11.40792136 17.39065136 13.88638289 19.5625 16.4375 C29 27.88365709 29 27.88365709 29 33 C24.52941176 37 24.52941176 37 22 37 C22 37.66 22 38.32 22 39 C21.278125 39.33902344 20.55625 39.67804688 19.8125 40.02734375 C14.97123526 43.42295304 13.21895356 48.97412831 10.75 54.21679688 C7.56550089 60.68033491 7.56550089 60.68033491 4.1875 62.58984375 C3.1046875 62.79287109 3.1046875 62.79287109 2 63 C0 61 0 61 -0.24050903 58.44369507 C-0.23606781 57.36447784 -0.23162659 56.28526062 -0.22705078 55.17333984 C-0.22689972 53.95222504 -0.22674866 52.73111023 -0.22659302 51.47299194 C-0.21637903 50.13563882 -0.20594702 48.79828735 -0.1953125 47.4609375 C-0.1915828 46.09616299 -0.18873563 44.73138581 -0.18673706 43.36660767 C-0.17909714 39.77279277 -0.15944572 36.17913927 -0.1373291 32.58538818 C-0.11687832 28.91892683 -0.107737 25.25243943 -0.09765625 21.5859375 C-0.07620003 14.39055138 -0.04205992 7.1952983 0 0 Z " fill="#D7B992" transform="translate(310,222)"/>
<path d="M0 0 C4.65149411 0.06763652 8.67274786 1.59717665 13 3.18359375 C18.36284206 5.12267507 23.31417879 6.64878009 29 7.24609375 C27.56501287 17.29100369 22.59584878 26.85232058 17 35.24609375 C6.8812674 37.08308 -2.06688449 33.71265151 -11 29.24609375 C-10.566875 28.00859375 -10.13375 26.77109375 -9.6875 25.49609375 C-7.36554394 18.51922104 -5.33471397 11.36141725 -4.375 4.05859375 C-3.87625066 0.31797369 -3.87625066 0.31797369 0 0 Z " fill="#E3BB86" transform="translate(383,337.75390625)"/>
<path d="M0 0 C2.65927684 2.65927684 3.1810914 5.59408266 4.125 9.125 C4.30675781 9.78371094 4.48851562 10.44242187 4.67578125 11.12109375 C5.12315437 12.74576456 5.56236535 14.37267893 6 16 C6.91523438 15.4225 7.83046875 14.845 8.7734375 14.25 C9.97381205 13.4997659 11.17434092 12.74977867 12.375 12 C12.97828125 11.6184375 13.5815625 11.236875 14.203125 10.84375 C18.7734375 8 18.7734375 8 21 8 C22.98 16.91 24.96 25.82 27 35 C24.69 35.99 22.38 36.98 20 38 C18.15926956 41.68146087 18.7957528 46.51750423 18.83398438 50.61523438 C18.70741298 55.02989131 18.41921162 56.54100917 15.32421875 59.9296875 C12.11809256 61.92645234 9.66418939 62.99664533 6 63.8125 C4.515 64.16248047 4.515 64.16248047 3 64.51953125 C-0.05339868 65.00855213 -2.91326194 65.08727384 -6 65 C-5.52949219 63.99582031 -5.05898438 62.99164063 -4.57421875 61.95703125 C2.14136214 47.34245966 4.479415 33.99452535 5 18 C4.01 18.33 3.02 18.66 2 19 C1.34 12.73 0.68 6.46 0 0 Z " fill="#E3BB86" transform="translate(447,304)"/>
<path d="M0 0 C2.07524945 3.11287418 3.24407086 6.00517888 4.5625 9.5 C4.99691406 10.6446875 5.43132812 11.789375 5.87890625 12.96875 C6.61815161 14.9675458 7.32608099 16.97824296 8 19 C7.01 19.33 6.02 19.66 5 20 C5.45890625 21.19753906 5.9178125 22.39507812 6.390625 23.62890625 C14.2554768 44.38962844 18.45428784 63.73989576 18 86 C13.05 85.67 8.1 85.34 3 85 C3.05220703 82.01259766 3.05220703 82.01259766 3.10546875 78.96484375 C3.46986657 57.62385582 3.46986657 57.62385582 -1.07421875 36.84765625 C-2.22920316 33.29498267 -2.47266041 30.71376035 -2 27 C-1.154375 26.175 -0.30875 25.35 0.5625 24.5 C1.7690625 23.2625 1.7690625 23.2625 3 22 C2.92979344 18.20884571 2.0540081 15.17473208 0.9375 11.5625 C-0.13771707 7.47667514 -0.14753192 4.20465983 0 0 Z " fill="#E6C392" transform="translate(312,287)"/>
<path d="M0 0 C-0.57937175 8.40089035 -2.20707764 17.41415527 -6 25 C-7.75 25.16796875 -7.75 25.16796875 -10 25.1875 C-16.08185039 25.70077718 -19.53858528 29.12700022 -24 33 C-28.4884663 36.47856138 -32.5021188 36.5353742 -38 36 C-38.99 35.67 -39.98 35.34 -41 35 C-40.67 27.41 -40.34 19.82 -40 12 C-37.03 12.33 -34.06 12.66 -31 13 C-19.42336146 13.97830748 -12.12940992 8.38570935 -3.15234375 1.57421875 C-1 0 -1 0 0 0 Z " fill="#E3BB86" transform="translate(374,340)"/>
<path d="M0 0 C4.22712987 4.15231341 8.12801647 8.51712821 12.01171875 12.98828125 C12.66785156 13.65214844 13.32398438 14.31601563 14 15 C14.66 15 15.32 15 16 15 C12.36505883 30.04993185 6.5980286 43.57810176 -1 57 C-6.62880168 51.37119832 -6.3539131 42.16636357 -6.47070312 34.68579102 C-6.28251363 22.92766199 -2.82944362 11.34662077 0 0 Z " fill="#8BB457" transform="translate(228,210)"/>
<path d="M0 0 C9.67353715 1.10798223 17.87911293 7.65142784 24 15 C25.05287814 16.63377642 26.0727001 18.29181597 27 20 C27.66 20.66 28.32 21.32 29 22 C27.68 22.33 26.36 22.66 25 23 C25.10570312 23.82757813 25.21140625 24.65515625 25.3203125 25.5078125 C24.87727842 30.33796456 22.69671493 33.03823069 19.875 36.875 C19.37379639 37.57882813 18.87259277 38.28265625 18.35620117 39.0078125 C16.91939854 41.01687137 15.46428773 43.01091742 14 45 C12.97712891 46.39605469 12.97712891 46.39605469 11.93359375 47.8203125 C10.63978304 49.55994232 9.32358583 51.28291567 8 53 C3.90057724 49.04786189 0.1304577 44.63773463 -2.125 39.375 C-1.88610867 34.83606475 0.97977232 31.96488079 4.16015625 28.95703125 C7.54319831 26.62566389 10.8710986 25.67028894 14.8125 24.75 C15.50537109 24.57726562 16.19824219 24.40453125 16.91210938 24.2265625 C18.60525594 23.80619508 20.30227443 23.40147473 22 23 C17.23245698 12.9859827 8.64535256 7.82267628 -1 3 C-0.67 2.01 -0.34 1.02 0 0 Z " fill="#E3BB86" transform="translate(318,132)"/>
<path d="M0 0 C1.44306519 0.47324707 1.44306519 0.47324707 2.9152832 0.95605469 C3.94484131 1.31602539 4.97439941 1.67599609 6.03515625 2.046875 C7.63846802 2.59843262 7.63846802 2.59843262 9.27416992 3.16113281 C44.25044641 15.52975023 82.90464324 39.64598836 103.09765625 71.796875 C103.80859375 74.5859375 103.80859375 74.5859375 104.09765625 76.796875 C103.10765625 76.796875 102.11765625 76.796875 101.09765625 76.796875 C99.14517413 74.76002637 97.37199084 72.73064962 95.59765625 70.546875 C94.5184937 69.25519993 93.43773286 67.96485871 92.35546875 66.67578125 C91.81051758 66.02367676 91.26556641 65.37157227 90.70410156 64.69970703 C66.92841663 36.53744437 31.86852504 11.17460049 -5.1171875 4.390625 C-6.90234375 3.796875 -6.90234375 3.796875 -8.90234375 0.796875 C-5.47611576 -1.37828834 -3.803704 -1.26057798 0 0 Z " fill="#76A447" transform="translate(42.90234375,111.203125)"/>
<path d="M0 0 C1.46239815 0.20160633 2.92011565 0.43737004 4.375 0.6875 C5.18710938 0.81511719 5.99921875 0.94273438 6.8359375 1.07421875 C9 2 9 2 10.06640625 4.28125 C10.52853516 5.62703125 10.52853516 5.62703125 11 7 C12.14290162 8.63624045 13.33543738 10.23838937 14.5625 11.8125 C26.00053625 27.28991482 33.69205125 45.27394172 41.46484375 62.77734375 C42.07654019 64.1496754 42.68827542 65.52198977 43.30004883 66.89428711 C44.48712898 69.55820465 45.66096284 72.22740896 46.8269043 74.90063477 C50.58419627 83.41607775 54.98574882 91.15770506 60 99 C61.53445094 102.06890187 60.54984289 104.70094266 60 108 C55.96992325 103.40379342 53.15783753 98.27836227 50.25 92.9375 C49.41106201 91.39678833 49.41106201 91.39678833 48.55517578 89.82495117 C43.51876729 80.36011938 39.16591752 70.63342352 34.875 60.8125 C22.77307689 31.81990578 22.77307689 31.81990578 4 7 C0 2.33333333 0 2.33333333 0 0 Z " fill="#88B356" transform="translate(187,75)"/>
<path d="M0 0 C5.01085646 2.30321173 7.26690581 4.14116588 10 9 C11.20161511 12.60484534 11.23017136 15.97289857 11.31640625 19.73046875 C11.33718735 20.48088943 11.35796844 21.23131012 11.37937927 22.00447083 C11.44469926 24.39872184 11.50367792 26.79308139 11.5625 29.1875 C11.60570193 30.81186013 11.64931676 32.43620933 11.69335938 34.06054688 C11.80036263 38.04025371 11.90167937 42.02006958 12 46 C8.16482971 46 7.04481963 44.50142279 4.41674805 41.88476562 C-2.72405694 34.34544787 -2.72405694 34.34544787 -3.59765625 30.0859375 C-3.31877125 27.55687077 -2.8018721 25.409859 -2 23 C-0.82501917 18.27489852 -0.6706832 13.5308298 -0.4375 8.6875 C-0.39431641 7.85154297 -0.35113281 7.01558594 -0.30664062 6.15429688 C-0.20114693 4.10303065 -0.10012685 2.0515352 0 0 Z " fill="#669933" transform="translate(232,179)"/>
<path d="M0 0 C11.99797715 -0.49231821 22.61271733 1.05560992 34 5 C33.67 5.66 33.34 6.32 33 7 C32.01 7 31.02 7 30 7 C30 7.66 30 8.32 30 9 C31.485 9.495 31.485 9.495 33 10 C31.33984375 10.5859375 29.6796875 11.171875 28.01953125 11.7578125 C21.47624323 15.78250416 18.83063466 23.10502674 15.8125 29.8125 C14.94963859 31.71740317 14.08142503 33.61989407 13.20703125 35.51953125 C12.8303833 36.35589111 12.45373535 37.19225098 12.06567383 38.05395508 C11 40 11 40 9 41 C6.8359375 40.66015625 6.8359375 40.66015625 4.375 40.0625 C3.55773437 39.86785156 2.74046875 39.67320312 1.8984375 39.47265625 C0.95871094 39.23869141 0.95871094 39.23869141 0 39 C0.125 36.6875 0.125 36.6875 1 34 C2.96466413 32.93224776 4.96855359 31.93446535 7 31 C9.88224813 27.93804335 10.5132796 25.36648688 11.0625 21.25 C11.93156398 15.31863833 13.10065112 9.69804664 15 4 C9.72 3.34 4.44 2.68 -1 2 C-0.67 1.34 -0.34 0.68 0 0 Z " fill="#E5C192" transform="translate(251,199)"/>
<path d="M0 0 C0.33 0 0.66 0 1 0 C1.08636719 1.10214844 1.17273438 2.20429688 1.26171875 3.33984375 C2.54089381 17.80127129 4.79724352 36.88285055 15.6796875 47.6640625 C17 49 17 49 17 51 C18.485 51.495 18.485 51.495 20 52 C16.49925018 56.17443363 13.02049157 60.3145494 9 64 C8.34 64 7.68 64 7 64 C-1.85673791 43.58904055 -0.35354697 21.73860578 0 0 Z " fill="#DDCE8A" transform="translate(236,333)"/>
<path d="M0 0 C9.53470071 4.56871076 14.94928961 11.94669039 19.28515625 21.421875 C20.14762936 24.53243376 20.21273952 25.99702594 19 29 C16.41796875 31.203125 16.41796875 31.203125 13.1875 33.25 C12.12917969 33.93578125 11.07085937 34.6215625 9.98046875 35.328125 C7.53296025 36.70103934 5.73302797 37.55000992 3 38 C3.15855469 37.19949219 3.31710937 36.39898437 3.48046875 35.57421875 C5.17779925 23.89709537 4.89945264 12.82691542 0 2 C0 1.34 0 0.68 0 0 Z " fill="#D3B287" transform="translate(344,115)"/>
<path d="M0 0 C0.81434143 2.85160391 1.11881242 5.36626131 1.09765625 8.328125 C1.09443359 9.12734375 1.09121094 9.9265625 1.08789062 10.75 C1.07951172 11.575 1.07113281 12.4 1.0625 13.25 C1.05798828 14.09046875 1.05347656 14.9309375 1.04882812 15.796875 C1.03707961 17.86461401 1.01914522 19.93231624 1 22 C-3.95 21.67 -8.9 21.34 -14 21 C-13.34 15.06 -12.68 9.12 -12 3 C-4 0 -4 0 0 0 Z " fill="#E3BB86" transform="translate(329,351)"/>
<path d="M0 0 C1.05469482 0.00563965 2.10938965 0.0112793 3.19604492 0.01708984 C16.91543704 0.2315051 27.58649696 3.70784908 38.75 11.8125 C41.0625 14.3125 41.0625 14.3125 41.4375 17.625 C41.251875 18.9553125 41.251875 18.9553125 41.0625 20.3125 C40.64742188 19.96058594 40.23234375 19.60867187 39.8046875 19.24609375 C25.10656572 7.4691468 9.78700963 3.93424336 -8.6875 3.625 C-10.07815502 3.59172686 -11.46878129 3.55722851 -12.859375 3.52148438 C-16.21866841 3.43983488 -19.57772796 3.37041607 -22.9375 3.3125 C-22.9375 2.9825 -22.9375 2.6525 -22.9375 2.3125 C-15.23571556 0.65894004 -7.87190027 -0.04417098 0 0 Z " fill="#DFBB90" transform="translate(273.9375,156.6875)"/>
<path d="M0 0 C3.99568654 3.00820918 6.00305597 5.37549804 8 10 C3.75174234 13.79732528 -0.5542532 17.45103042 -5.0625 20.9375 C-9.61600872 24.53385696 -13.37248605 28.48362502 -17 33 C-20.7910119 31.55049545 -24.3874638 29.84827434 -28 28 C-28 27.34 -28 26.68 -28 26 C-26.33710938 25.51080078 -26.33710938 25.51080078 -24.640625 25.01171875 C-23.17695417 24.570741 -21.71341956 24.12931092 -20.25 23.6875 C-19.52039063 23.47416016 -18.79078125 23.26082031 -18.0390625 23.04101562 C-14.10704043 21.84353618 -11.20938589 20.6563121 -8 18 C-7.34 18 -6.68 18 -6 18 C-3.98973944 14.41412982 -2.97196209 10.69906354 -1.875 6.75 C-1.52179688 5.48671875 -1.16859375 4.2234375 -0.8046875 2.921875 C-0.53914063 1.95765625 -0.27359375 0.9934375 0 0 Z " fill="#E3BB86" transform="translate(315,178)"/>
<path d="M0 0 C3.34318043 2.72332023 4.77355928 6.38731318 6.4375 10.25 C6.74316895 10.95801758 7.04883789 11.66603516 7.36376953 12.39550781 C11.91555654 23.25515015 14.56037385 34.19603785 15 46 C13.35 45.67 11.7 45.34 10 45 C9.8040625 43.88367188 9.608125 42.76734375 9.40625 41.6171875 C7.42424508 31.03428824 4.51348137 21.17554753 0.64257812 11.12451172 C0.30162109 10.23779785 -0.03933594 9.35108398 -0.390625 8.4375 C-0.70032227 7.65246094 -1.01001953 6.86742187 -1.32910156 6.05859375 C-2 4 -2 4 -2 1 C-1.34 0.67 -0.68 0.34 0 0 Z " fill="#DAB283" transform="translate(319,306)"/>
<path d="M0 0 C14.34701006 -1.23681121 26.49097256 6.12343453 37.30078125 14.859375 C40.48967116 17.74790855 41.88148172 19.06878492 42.4375 23.4375 C42.293125 24.283125 42.14875 25.12875 42 26 C41.030625 25.154375 40.06125 24.30875 39.0625 23.4375 C37.70996986 22.28973538 36.35569477 21.14402495 35 20 C34.02160156 19.15308594 34.02160156 19.15308594 33.0234375 18.2890625 C23.33559746 10.27028853 12.32813429 5.37079506 0 3 C0 2.01 0 1.02 0 0 Z " fill="#DAB283" transform="translate(193,313)"/>
<path d="M0 0 C6.27245705 5.26666948 8.50400425 16.01617812 9.7265625 23.8359375 C10.50131682 32.80095176 10.75899715 42.14872634 9 51 C8.67 50.34 8.34 49.68 8 49 C5.525 49.495 5.525 49.495 3 50 C3.15855469 49.08863281 3.31710937 48.17726563 3.48046875 47.23828125 C5.72311316 31.35653475 4.39103585 15.34902265 0 0 Z " fill="#DAB383" transform="translate(409,295)"/>
<path d="M0 0 C4.05153465 2.02576732 5.02386911 7.93657883 6.39941406 12.03076172 C9.26948431 21.4413254 10.56216251 31.1725665 10 41 C8.02 41.66 6.04 42.32 4 43 C4.05220703 41.13021484 4.05220703 41.13021484 4.10546875 39.22265625 C4.32422687 27.7452223 3.34811866 17.21743732 1 6 C0.65647634 4.00172509 0.31925154 2.00229607 0 0 Z " fill="#DAB283" transform="translate(370,297)"/>
<path d="M0 0 C9.67353715 1.10798223 17.87911293 7.65142784 24 15 C25.05287814 16.63377642 26.0727001 18.29181597 27 20 C27.66 20.66 28.32 21.32 29 22 C27.02 22.33 25.04 22.66 23 23 C22.5875 22.41992188 22.175 21.83984375 21.75 21.2421875 C15.45015242 12.72051867 8.31045047 7.87074492 -1 3 C-0.67 2.01 -0.34 1.02 0 0 Z " fill="#DAB283" transform="translate(318,132)"/>
<path d="M0 0 C5.49753128 2.17963795 8.03890379 7.12202286 11 12 C12.4375 15.625 12.4375 15.625 13 18 C9.535 20.475 9.535 20.475 6 23 C1.87867771 15.39140501 0.45649597 8.56323476 0 0 Z " fill="#CFAA7A" transform="translate(326,237)"/>
<path d="M0 0 C0.86625 0.165 1.7325 0.33 2.625 0.5 C-1.30942087 12.45213258 -14.45200602 19.42543358 -24.9375 25 C-26.071875 25.495 -27.20625 25.99 -28.375 26.5 C-29.035 26.17 -29.695 25.84 -30.375 25.5 C-29.69695312 25.02691406 -29.01890625 24.55382812 -28.3203125 24.06640625 C-20.11607352 18.23707855 -11.83650772 12.34899319 -6.125 3.9375 C-3.78463425 0.56068655 -3.78463425 0.56068655 0 0 Z " fill="#C19A6B" transform="translate(436.375,369.5)"/>
<path d="M0 0 C0.804375 0.309375 1.60875 0.61875 2.4375 0.9375 C2.1075 1.5975 1.7775 2.2575 1.4375 2.9375 C0.4475 2.9375 -0.5425 2.9375 -1.5625 2.9375 C-1.5625 3.5975 -1.5625 4.2575 -1.5625 4.9375 C-0.5725 5.2675 0.4175 5.5975 1.4375 5.9375 C0.385625 6.30875 -0.66625 6.68 -1.75 7.0625 C-8.28722021 9.8829942 -11.32224577 15.93702921 -14.5625 21.9375 C-14.8925 21.9375 -15.2225 21.9375 -15.5625 21.9375 C-16.02142255 16.20096813 -15.29708249 13.34239216 -11.5625 8.9375 C-9.30360504 7.09942701 -7.00694659 5.535792 -4.5625 3.9375 C-7.8625 2.9475 -11.1625 1.9575 -14.5625 0.9375 C-14.5625 0.2775 -14.5625 -0.3825 -14.5625 -1.0625 C-10.25436789 -3.21656606 -4.40628457 -1.31415505 0 0 Z " fill="#E4BC88" transform="translate(282.5625,203.0625)"/>
<path d="M0 0 C0.66 1.32 1.32 2.64 2 4 C0.91460937 4.51949219 -0.17078125 5.03898438 -1.2890625 5.57421875 C-2.73458808 6.27820848 -4.1798887 6.98266025 -5.625 7.6875 C-6.33785156 8.02716797 -7.05070312 8.36683594 -7.78515625 8.71679688 C-13.65886256 11.59976281 -18.29934101 15.1022628 -22.875 19.8125 C-23.57625 20.534375 -24.2775 21.25625 -25 22 C-22.23249236 13.14397556 -15.97828555 7.30425153 -8 3 C-5.35320159 1.8368133 -2.75296874 0.90097159 0 0 Z " fill="#DEBA8F" transform="translate(189,245)"/>
<path d="M0 0 C11.86709272 -0.98436714 23.06772663 2.58869126 33 9 C32.67 10.65 32.34 12.3 32 14 C31.05640625 13.46890625 30.1128125 12.9378125 29.140625 12.390625 C19.77018971 7.20267529 10.61979089 2.97443766 0 1 C0 0.67 0 0.34 0 0 Z " fill="#DBB384" transform="translate(159,359)"/>
<path d="M0 0 C11.79145269 -0.48624547 21.74444601 0.2813509 33 4 C33 5.65 33 7.3 33 9 C32.12601563 8.67386719 31.25203125 8.34773437 30.3515625 8.01171875 C20.34296508 4.45520457 10.50538692 2.48014043 0 1 C0 0.67 0 0.34 0 0 Z " fill="#DEBA8F" transform="translate(158,174)"/>
<path d="M0 0 C1.32 0.33 2.64 0.66 4 1 C2.92397036 10.47600298 -6.21765097 18.80647227 -13 25 C-13.66 24.67 -14.32 24.34 -15 24 C-14.5875 23.52433594 -14.175 23.04867188 -13.75 22.55859375 C-8.01894985 15.61225395 -4.05251886 7.98925147 0 0 Z " fill="#C29A6B" transform="translate(367,365)"/>
<path d="M0 0 C4.71580832 0.49712767 7.513852 1.68704063 11.3125 4.5 C12.17488281 5.1290625 13.03726562 5.758125 13.92578125 6.40625 C16 8 16 8 17 9 C17.04080783 10.99958364 17.04254356 13.00045254 17 15 C16.55011719 14.63648438 16.10023438 14.27296875 15.63671875 13.8984375 C10.09726001 9.56900081 4.23365797 6.23141829 -2 3 C-1.34 2.01 -0.68 1.02 0 0 Z " fill="#DAB283" transform="translate(298,162)"/>
<path d="M0 0 C1.98 0 3.96 0 6 0 C0.29921008 8.82780548 -7.4742668 15.55932732 -17 20 C-17 19.34 -17 18.68 -17 18 C-15.53125 16.58984375 -15.53125 16.58984375 -13.5 14.9375 C-8.56069382 10.74657354 -2.93340574 5.86681147 0 0 Z " fill="#C29A6B" transform="translate(399,373)"/>
<path d="M0 0 C0.02707139 2.24993359 0.04642829 4.49996095 0.0625 6.75 C0.07410156 8.00296875 0.08570313 9.2559375 0.09765625 10.546875 C0.02021027 13.28536501 -0.17219185 15.41880293 -1 18 C-2.65 18.33 -4.3 18.66 -6 19 C-5.85786703 17.10388566 -5.71113093 15.20811606 -5.5625 13.3125 C-5.48128906 12.25675781 -5.40007812 11.20101563 -5.31640625 10.11328125 C-4.75377671 4.57728445 -4.75377671 4.57728445 -4 2 C-1 0 -1 0 0 0 Z " fill="#ECD883" transform="translate(316,355)"/>
<path d="M0 0 C0.66 0 1.32 0 2 0 C5.7622397 8.17878195 6.79715535 15.97458015 6 25 C5.34 25.66 4.68 26.32 4 27 C3.89042969 26.01 3.78085937 25.02 3.66796875 24 C2.76411562 15.48053112 2.76411562 15.48053112 0.3125 7.3125 C-1.04311007 3.8911984 -1.06384919 3.27722668 0 0 Z " fill="#C29A6B" transform="translate(345,156)"/>
<path d="M0 0 C0.804375 0.309375 1.60875 0.61875 2.4375 0.9375 C2.1075 1.5975 1.7775 2.2575 1.4375 2.9375 C0.4475 2.9375 -0.5425 2.9375 -1.5625 2.9375 C-1.8925 3.5975 -2.2225 4.2575 -2.5625 4.9375 C-6.5225 3.6175 -10.4825 2.2975 -14.5625 0.9375 C-14.5625 0.2775 -14.5625 -0.3825 -14.5625 -1.0625 C-10.25436789 -3.21656606 -4.40628457 -1.31415505 0 0 Z " fill="#DAB283" transform="translate(282.5625,203.0625)"/>
<path d="M0 0 C2.07524945 3.11287418 3.24407086 6.00517888 4.5625 9.5 C4.99691406 10.6446875 5.43132812 11.789375 5.87890625 12.96875 C6.61815161 14.9675458 7.32608099 16.97824296 8 19 C6.68 19.33 5.36 19.66 4 20 C0.86301478 13.04407626 -0.12927864 7.62743978 0 0 Z " fill="#DEBA90" transform="translate(312,287)"/>
<path d="M0 0 C0.66 0 1.32 0 2 0 C5.50848663 7.30934715 5.30372936 13.99054432 5 22 C4.67 22 4.34 22 4 22 C3.80664062 20.98679688 3.61328125 19.97359375 3.4140625 18.9296875 C3.15125077 17.57808432 2.88821817 16.22652408 2.625 14.875 C2.43550781 13.87726563 2.43550781 13.87726563 2.2421875 12.859375 C1.4425726 8.781339 0.40130515 4.91146915 -1 1 C-0.67 0.67 -0.34 0.34 0 0 Z " fill="#C29A6B" transform="translate(324,186)"/>
<path d="M0 0 C4.41459584 0.40226457 6.53697056 3.40387125 9.25 6.5625 C9.70890625 7.08263672 10.1678125 7.60277344 10.640625 8.13867188 C11.7682143 9.41895555 12.88517315 10.70858798 14 12 C13.67 12.66 13.34 13.32 13 14 C12.31292969 13.37351563 11.62585938 12.74703125 10.91796875 12.1015625 C10.01691406 11.28429687 9.11585938 10.46703125 8.1875 9.625 C7.29417969 8.81289062 6.40085938 8.00078125 5.48046875 7.1640625 C3.00367326 4.90927093 3.00367326 4.90927093 0 3 C0 2.01 0 1.02 0 0 Z " fill="#C8A57A" transform="translate(213,192)"/>
<path d="M0 0 C3.03852705 1.40976705 5.5939595 3.08870228 8.25 5.125 C8.95640625 5.66382813 9.6628125 6.20265625 10.390625 6.7578125 C10.92171875 7.16773438 11.4528125 7.57765625 12 8 C11.01 8.99 10.02 9.98 9 11 C7.6781638 9.92807816 6.36782073 8.84197305 5.0625 7.75 C4.33160156 7.14671875 3.60070312 6.5434375 2.84765625 5.921875 C0.89673666 3.89258866 0.38268221 2.745593 0 0 Z " fill="#D4B48A" transform="translate(134,396)"/>
<path d="M0 0 C0.99 0 1.98 0 3 0 C3.37851209 5.93002267 2.10575375 10.47239641 0 16 C-0.66 15.67 -1.32 15.34 -2 15 C-1.34 10.05 -0.68 5.1 0 0 Z " fill="#C39B6C" transform="translate(329,374)"/>
<path d="M0 0 C2.52419593 2.52419593 2.78957038 4.42357863 3.625 7.875 C3.88539063 8.92429687 4.14578125 9.97359375 4.4140625 11.0546875 C5 14 5 14 5 18 C4.01 18.33 3.02 18.66 2 19 C1.34 12.73 0.68 6.46 0 0 Z " fill="#DBB384" transform="translate(447,304)"/>
<path d="M0 0 C5.99172349 1.8831131 9.46569804 5.9775709 13 11 C12.67 11.66 12.34 12.32 12 13 C11.505 12.278125 11.01 11.55625 10.5 10.8125 C7.78246969 7.7552784 5.1652678 6.14461643 1.609375 4.2109375 C1.07828125 3.81132812 0.5471875 3.41171875 0 3 C0 2.01 0 1.02 0 0 Z " fill="#C8A57A" transform="translate(208,216)"/>
<path d="M0 0 C0 0.99 0 1.98 0 3 C-0.89203125 3.13277344 -1.7840625 3.26554687 -2.703125 3.40234375 C-3.87359375 3.57894531 -5.0440625 3.75554687 -6.25 3.9375 C-7.99023438 4.19853516 -7.99023438 4.19853516 -9.765625 4.46484375 C-12.23106961 4.8727736 -14.59424562 5.33901303 -17 6 C-12.87434132 1.30936258 -6.15633202 -0.59577407 0 0 Z " fill="#DEBA90" transform="translate(193,313)"/>
<path d="M0 0 C2.83222793 3.37169992 4.52103176 6.85888893 6 11 C5.578125 13.21875 5.578125 13.21875 5 15 C3.96427104 13.25877451 2.9468748 11.50663405 1.9375 9.75 C1.08478516 8.28820312 1.08478516 8.28820312 0.21484375 6.796875 C-1 4 -1 4 -0.68359375 1.640625 C-0.45800781 1.09921875 -0.23242188 0.5578125 0 0 Z " fill="#C29B6C" transform="translate(212,391)"/>
<path d="M0 0 C2.45823172 3.68734758 3.01242616 6.69699971 4 11 C2.35 11.66 0.7 12.32 -1 13 C-0.67 8.71 -0.34 4.42 0 0 Z " fill="#E2BB86" transform="translate(328,250)"/>
<path d="M0 0 C3.53586014 3.17320782 5.58578031 5.16743695 6 10 C2.46413986 6.82679218 0.41421969 4.83256305 0 0 Z " fill="#DBB384" transform="translate(239,275)"/>
<path d="M0 0 C1.45823212 -0.0270043 2.91660675 -0.04639787 4.375 -0.0625 C5.18710937 -0.07410156 5.99921875 -0.08570313 6.8359375 -0.09765625 C9 0 9 0 11 1 C10.67 1.99 10.34 2.98 10 4 C6.7 3.34 3.4 2.68 0 2 C0 1.34 0 0.68 0 0 Z " fill="#DCB485" transform="translate(251,236)"/>
<path d="M0 0 C4.41889613 1.35021826 6.34345343 3.26115668 9 7 C5.56072421 5.7580393 2.74792181 4.44259716 0 2 C0 1.34 0 0.68 0 0 Z " fill="#C59D6E" transform="translate(297,212)"/>
</svg>
