<?xml version="1.0" encoding="UTF-8"?>
<svg version="1.1" xmlns="http://www.w3.org/2000/svg" width="512" height="512">
<path d="M0 0 C3.47177758 1.6538783 5.44733642 4.04539927 7.375 7.375 C9.22671987 15.15222346 6.91060114 20.61985855 3.890625 27.7734375 C3.45618073 28.83013641 3.02173645 29.88683533 2.5741272 30.97555542 C1.14403025 34.44681798 -0.30297753 37.91076306 -1.75 41.375 C-2.74587796 43.78431482 -3.74049215 46.19415237 -4.73388672 48.60449219 C-6.52837931 52.95557698 -8.32618591 57.30522985 -10.12975883 61.65255737 C-14.7423323 72.77159938 -19.28690412 83.91821556 -23.82775879 95.06671143 C-25.10062223 98.19017961 -26.37557549 101.31278545 -27.65136719 104.43505859 C-28.24928574 105.89868332 -28.24928574 105.89868332 -28.85928345 107.39187622 C-29.59245455 109.18645543 -30.32581344 110.98095794 -31.05941772 112.77536011 C-33.39947962 118.50639365 -35.70790321 124.24962017 -38 130 C-37.19899872 130.00586624 -36.39799744 130.01173248 -35.57272339 130.01777649 C-28.01028587 130.07576972 -20.44817533 130.147884 -12.8860302 130.23571491 C-8.99858564 130.28037165 -5.11124475 130.31963783 -1.22363281 130.34643555 C2.53076287 130.37251583 6.28475866 130.41295086 10.0389061 130.46318626 C11.46851488 130.47982321 12.89819278 130.49135723 14.32788467 130.49761391 C16.33605235 130.50728867 18.34409223 130.53707427 20.35205078 130.56762695 C22.0641423 130.58428154 22.0641423 130.58428154 23.81082153 130.60127258 C29.43689284 131.30467282 33.21755689 133.71528226 36.8125 138 C37.39644531 138.680625 37.98039062 139.36125 38.58203125 140.0625 C41.41443814 143.93267581 41.19478992 147.66105078 41.25 152.3125 C41.27578125 153.60800781 41.3015625 154.90351563 41.328125 156.23828125 C40.75784804 162.77609924 37.89692966 166.78636285 33 171 C27.13422469 175.05271749 20.95970176 174.33792515 14.125 174.1875 C12.9596875 174.17396484 11.794375 174.16042969 10.59375 174.14648438 C7.72866416 174.11125791 4.86465607 174.05937934 2 174 C1.97887146 174.54425436 1.95774292 175.08850872 1.93597412 175.64925563 C1.29739936 191.80758681 0.38393802 207.94180438 -0.62318039 224.08095169 C-0.8428609 227.60902273 -1.06005418 231.13724712 -1.27758789 234.66545105 C-1.70183659 241.54023152 -2.12829657 248.41487301 -2.55555248 255.28946717 C-3.05432604 263.31616973 -3.55084252 271.34301147 -4.04728889 279.36985825 C-4.93344574 293.69654918 -5.82161229 308.0231148 -6.7109375 322.34960938 C-7.57180409 336.21768134 -8.43123028 350.08584157 -9.2890625 363.95410156 C-9.34200029 364.80992439 -9.39493809 365.66574723 -9.44948006 366.54750408 C-9.50233099 367.40192545 -9.55518192 368.25634682 -9.6096344 369.13665974 C-10.59010148 384.98735847 -11.57185163 400.8379775 -12.5542345 416.6885576 C-12.90020652 422.27118663 -13.24581348 427.85383818 -13.59130859 433.43649673 C-14.01242408 440.2406128 -14.43429069 447.04468186 -14.85706806 453.84869488 C-15.07235487 457.31364179 -15.28734897 460.77860613 -15.50149536 464.24362373 C-15.73446877 468.01046447 -15.96864809 471.77722842 -16.203125 475.54397583 C-16.26956711 476.62268609 -16.33600922 477.70139635 -16.40446472 478.8127948 C-16.59586713 481.87571169 -16.79578709 484.93791183 -17 488 C-17.07520874 489.16121612 -17.15041748 490.32243225 -17.22790527 491.51883674 C-17.30835083 492.67573705 -17.38879639 493.83263736 -17.47167969 495.02459526 C-17.54279968 496.07163026 -17.61391968 497.11866525 -17.68719482 498.19742858 C-18.23822056 503.13433212 -19.56191879 506.48897631 -23.04757023 510.15142727 C-27.10611823 512.69256177 -30.29094456 512.5604725 -34.98887634 512.5146637 C-35.8954637 512.52160922 -36.80205105 512.52855475 -37.73611075 512.53571075 C-40.77476333 512.55401102 -43.81263786 512.5437079 -46.85131836 512.53344727 C-49.02949102 512.5405042 -51.20765877 512.54924825 -53.38581848 512.55955505 C-59.30317207 512.58208407 -65.22025863 512.57910101 -71.13763881 512.57023358 C-76.0756899 512.56512863 -81.0136906 512.57241227 -85.95173651 512.57970566 C-97.5999491 512.59671587 -109.24803072 512.59312748 -120.89624023 512.57641602 C-132.91774822 512.55949214 -144.93883649 512.57533054 -156.96031088 512.6076389 C-167.2780695 512.63431909 -177.595715 512.64161505 -187.91350466 512.63312382 C-194.07740208 512.62819022 -200.24108102 512.63043384 -206.4049511 512.65091133 C-212.20071792 512.66924361 -217.99596178 512.66333923 -223.79170036 512.63871193 C-225.91936989 512.63369636 -228.0470791 512.63721303 -230.17471695 512.64986038 C-233.07846178 512.66575626 -235.98047721 512.65087231 -238.88414001 512.62818909 C-240.14849433 512.64594268 -240.14849433 512.64594268 -241.43839115 512.66405493 C-245.46893242 512.60004441 -248.1964613 512.27455473 -251.44474125 509.77323818 C-255.37999703 505.50228065 -256.20707002 502.06395287 -256.5620575 496.36947632 C-256.63711958 495.23086025 -256.71218166 494.09224419 -256.78951836 492.9191246 C-256.86373072 491.66239063 -256.93794308 490.40565666 -257.0144043 489.11083984 C-257.10126405 487.7424693 -257.18885439 486.37414497 -257.27710152 485.00586319 C-257.5213063 481.18477417 -257.7547964 477.36309111 -257.98668122 473.54123735 C-258.24371893 469.33492532 -258.51045404 465.12922581 -258.77580261 460.9234314 C-259.32325122 452.21900962 -259.86079223 443.51399752 -260.39583343 434.80880535 C-260.88664623 426.82808343 -261.38179714 418.84763785 -261.87896729 410.86730957 C-261.9544645 409.65533818 -262.02996171 408.4433668 -262.10774672 407.19466901 C-262.26317794 404.69953884 -262.41860957 402.2044087 -262.5740416 399.70927858 C-264.36849556 370.89154563 -266.14315365 342.07261226 -267.91329418 313.25337812 C-268.60622405 301.97250706 -269.30150038 290.69178191 -269.99775866 279.41111584 C-270.72275131 267.6645253 -271.44615766 255.91783804 -272.16785735 244.17104471 C-272.56923136 237.63876637 -272.97123625 231.10652846 -273.37488747 224.57439041 C-273.75030802 218.4980812 -274.12367789 212.42164945 -274.49544525 206.34511566 C-274.63176736 204.12261549 -274.7688207 201.90016003 -274.90666008 199.67775345 C-275.09448539 196.64756088 -275.27966892 193.61721797 -275.46418762 190.58682251 C-275.54661806 189.2721051 -275.54661806 189.2721051 -275.63071376 187.93082774 C-275.91101745 183.27652903 -276.05382874 178.66275668 -276 174 C-277.08885498 174.02356567 -277.08885498 174.02356567 -278.19970703 174.04760742 C-281.50805788 174.11020355 -284.81628381 174.14906912 -288.125 174.1875 C-289.26710938 174.21263672 -290.40921875 174.23777344 -291.5859375 174.26367188 C-299.15681336 174.32969696 -303.80080252 173.75279783 -309.6875 168.6875 C-315.18332327 162.30046214 -315.53595848 156.75519045 -315.34375 148.5703125 C-314.64995957 141.36435277 -311.10640216 137.68105659 -305.68359375 133.1640625 C-302.69896651 131.10044552 -300.1564022 130.90023094 -296.65234375 130.96484375 C-255.36187031 130.96484375 -206.69095059 114.88551552 -170 97 C-169.23381348 96.63181152 -168.46762695 96.26362305 -167.67822266 95.88427734 C-152.07044322 88.30958381 -137.72461038 78.89277538 -125.08203125 66.9609375 C-123.1373859 65.12939535 -121.12556146 63.4451006 -119.0625 61.75 C-110.60823875 54.35039509 -103.67273582 45.08347384 -97.61181641 35.66967773 C-94.22260378 30.63870057 -90.40909151 27.74557808 -84.41015625 26.43359375 C-78.13062004 26.44404223 -73.69841229 27.69688682 -69 32 C-66.15244433 36.31726182 -64.58842313 40.63642352 -65.2265625 45.8515625 C-72.78115249 75.95716738 -112.46875194 103.19460381 -137 118 C-139.7971871 119.65255304 -142.61105915 121.2730433 -145.4375 122.875 C-146.08750977 123.24431641 -146.73751953 123.61363281 -147.40722656 123.99414062 C-148.03467773 124.34412109 -148.66212891 124.69410156 -149.30859375 125.0546875 C-149.85314209 125.35874512 -150.39769043 125.66280273 -150.95874023 125.97607422 C-153.90733404 127.45513203 -156.96796116 128.70055478 -160 130 C-114.46 130.495 -114.46 130.495 -68 131 C-67.01 128.03 -66.02 125.06 -65 122 C-64.0669722 119.57396502 -63.10986518 117.15705342 -62.12890625 114.75 C-61.71768524 113.73764282 -61.71768524 113.73764282 -61.29815674 112.70483398 C-60.38901784 110.46876011 -59.47580802 108.23437392 -58.5625 106 C-57.90757421 104.39201749 -57.25287686 102.78394192 -56.59838867 101.17578125 C-55.17347762 97.67636079 -53.74661843 94.17774281 -52.31835938 90.6796875 C-50.29830997 85.73209909 -48.28173481 80.78310176 -46.2658844 75.83380127 C-42.01057713 65.38637212 -37.74659485 54.9425354 -33.47377014 44.5022583 C-31.33308522 39.26933401 -29.20051848 34.03330109 -27.08195496 28.79138184 C-25.97533328 26.0559598 -24.86255358 23.32307519 -23.74813843 20.59082031 C-23.02661206 18.81547988 -22.31355581 17.03670428 -21.60083008 15.2578125 C-17.0579431 4.15584727 -12.76530672 -1.78714294 0 0 Z " fill="#D0E6F7" transform="translate(393,0)"/>
<path d="M0 0 C2.50533896 2.50533896 3.50007841 5.03382197 5 8.25 C10.37266695 19.31654161 17.3136052 28.98068852 26.3828125 37.328125 C28 39 28 39 28 41 C28.86238281 41.37511719 28.86238281 41.37511719 29.7421875 41.7578125 C32.31142528 43.17133778 34.02894814 44.82402452 36.125 46.875 C61.17597825 69.66519127 95.64933874 83.48729824 128 92 C128.95841797 92.25233398 129.91683594 92.50466797 130.90429688 92.76464844 C151.74695312 98.16558018 172.71738778 101.56214279 194.0625 104.1875 C195.08996338 104.31478485 195.08996338 104.31478485 196.13818359 104.44464111 C212.22771393 106.42003059 228.24876437 107.17483113 244.4375 107.5625 C246.15169986 107.60583788 247.86589265 107.64945612 249.58007812 107.69335938 C253.71996468 107.79930529 257.85996763 107.89993748 262 108 C261.35695417 126.27087221 260.38466935 144.51090076 259.2578125 162.7578125 C259.17335155 164.12997201 259.08890836 165.50213262 259.00448227 166.87429428 C258.65333986 172.574901 258.30079375 178.2754175 257.9440937 183.9756794 C257.43828345 192.05911818 256.94138469 200.1429954 256.45647156 208.22771561 C256.11121223 213.97237444 255.7561785 219.71637877 255.39385879 225.45998657 C255.17902765 228.86942688 254.96835044 232.27899901 254.76819229 235.68933487 C254.54376585 239.47229523 254.30337593 243.25392244 254.05908203 247.03564453 C253.96540848 248.70626953 253.96540848 248.70626953 253.86984253 250.41064453 C253.4022608 257.31612033 252.90949907 262.93683136 247.95266056 268.15547276 C243.89378791 270.69105077 240.70680726 270.56045058 236.01112366 270.5146637 C235.1045363 270.52160922 234.19794895 270.52855475 233.26388925 270.53571075 C230.22523667 270.55401102 227.18736214 270.5437079 224.14868164 270.53344727 C221.97050898 270.5405042 219.79234123 270.54924825 217.61418152 270.55955505 C211.69682793 270.58208407 205.77974137 270.57910101 199.86236119 270.57023358 C194.9243101 270.56512863 189.9863094 270.57241227 185.04826349 270.57970566 C173.4000509 270.59671587 161.75196928 270.59312748 150.10375977 270.57641602 C138.08225178 270.55949214 126.06116351 270.57533054 114.03968912 270.6076389 C103.7219305 270.63431909 93.404285 270.64161505 83.08649534 270.63312382 C76.92259792 270.62819022 70.75891898 270.63043384 64.5950489 270.65091133 C58.79928208 270.66924361 53.00403822 270.66333923 47.20829964 270.63871193 C45.08063011 270.63369636 42.9529209 270.63721303 40.82528305 270.64986038 C37.92153822 270.66575626 35.01952279 270.65087231 32.11585999 270.62818909 C31.27295711 270.64002482 30.43005424 270.65186054 29.56160885 270.66405493 C25.53106758 270.60004441 22.8035387 270.27455473 19.55525875 267.77323818 C15.42923975 263.29524415 14.76928442 259.68525201 14.39826965 253.71388245 C14.31525164 252.44378641 14.23223362 251.17369038 14.14669991 249.86510658 C14.06355097 248.46289574 13.980558 247.06067563 13.89770508 245.65844727 C13.80384273 244.17416055 13.70923828 242.68992061 13.61395073 241.20572472 C13.35613279 237.15704221 13.10870141 233.10778285 12.86304832 229.05834651 C12.59932629 224.74047173 12.32610056 220.4231979 12.0539093 216.10585022 C11.59398759 208.79184636 11.13984161 201.47750338 10.68951416 194.16290283 C10.07737578 184.22350736 9.45304596 174.28491119 8.82462287 164.34653354 C7.76286661 147.55269459 6.7149838 130.758032 5.6783886 113.96262169 C5.06519497 104.02881281 4.44774033 94.09528829 3.82484883 84.16208261 C3.37456246 76.97582921 2.9290382 69.78928983 2.48697788 62.60252577 C2.22738709 58.38415814 1.96590788 54.16593131 1.69913292 49.9480114 C0.64728524 33.29485114 -0.3751226 16.69679999 0 0 Z " fill="#96C8EF" transform="translate(122,242)"/>
<path d="M0 0 C3.47177758 1.6538783 5.44733642 4.04539927 7.375 7.375 C9.22671987 15.15222346 6.91060114 20.61985855 3.890625 27.7734375 C3.45618073 28.83013641 3.02173645 29.88683533 2.5741272 30.97555542 C1.14403025 34.44681798 -0.30297753 37.91076306 -1.75 41.375 C-2.74587796 43.78431482 -3.74049215 46.19415237 -4.73388672 48.60449219 C-6.52837931 52.95557698 -8.32618591 57.30522985 -10.12975883 61.65255737 C-14.7423323 72.77159938 -19.28690412 83.91821556 -23.82775879 95.06671143 C-25.10062223 98.19017961 -26.37557549 101.31278545 -27.65136719 104.43505859 C-28.24928574 105.89868332 -28.24928574 105.89868332 -28.85928345 107.39187622 C-29.59245455 109.18645543 -30.32581344 110.98095794 -31.05941772 112.77536011 C-33.39947962 118.50639365 -35.70790321 124.24962017 -38 130 C-37.19899872 130.00586624 -36.39799744 130.01173248 -35.57272339 130.01777649 C-28.01028587 130.07576972 -20.44817533 130.147884 -12.8860302 130.23571491 C-8.99858564 130.28037165 -5.11124475 130.31963783 -1.22363281 130.34643555 C2.53076287 130.37251583 6.28475866 130.41295086 10.0389061 130.46318626 C11.46851488 130.47982321 12.89819278 130.49135723 14.32788467 130.49761391 C16.33605235 130.50728867 18.34409223 130.53707427 20.35205078 130.56762695 C22.0641423 130.58428154 22.0641423 130.58428154 23.81082153 130.60127258 C29.43689284 131.30467282 33.21755689 133.71528226 36.8125 138 C37.39644531 138.680625 37.98039062 139.36125 38.58203125 140.0625 C41.41443814 143.93267581 41.19478992 147.66105078 41.25 152.3125 C41.27578125 153.60800781 41.3015625 154.90351563 41.328125 156.23828125 C40.75784804 162.77609924 37.89692966 166.78636285 33 171 C27.0891456 175.08150391 20.76580272 174.41774966 13.86669922 174.38095093 C12.51285869 174.38440904 11.15902097 174.38917464 9.80518913 174.39513266 C6.09053588 174.40765131 2.37611398 174.40146842 -1.33854008 174.39217401 C-5.3467827 174.38538738 -9.3549855 174.39586283 -13.36322021 174.40411377 C-21.2131399 174.41745742 -29.06297357 174.41457055 -36.91289663 174.40587585 C-43.2923818 174.3991022 -49.67184284 174.3981812 -56.05133057 174.4014473 C-56.95910378 174.401907 -57.86687699 174.40236669 -58.80215847 174.40284032 C-60.64625089 174.40379949 -62.4903433 174.40477213 -64.3344357 174.4057581 C-81.62871042 174.41431384 -98.92293744 174.40447496 -116.21720433 174.388357 C-131.05823823 174.37495365 -145.89920174 174.37728169 -160.74023438 174.39111328 C-177.97239529 174.40716583 -195.2045144 174.41348985 -212.43668175 174.40427649 C-214.27401097 174.40332084 -216.1113402 174.40237773 -217.94866943 174.4014473 C-218.8526834 174.40098447 -219.75669737 174.40052164 -220.6881057 174.40004479 C-227.06033018 174.39745393 -233.43252816 174.40182798 -239.80474854 174.40888596 C-247.56978698 174.41729754 -255.33473443 174.41502802 -263.09976244 174.39904372 C-267.06201975 174.39115639 -271.02412533 174.38807724 -274.98638153 174.39799118 C-278.6133913 174.40692909 -282.24010866 174.40202035 -285.86709189 174.38605852 C-287.80096259 174.38111884 -289.73485358 174.39091537 -291.66870308 174.40123022 C-299.17665592 174.35019047 -303.84940738 173.71097504 -309.6875 168.6875 C-315.18332327 162.30046214 -315.53595848 156.75519045 -315.34375 148.5703125 C-314.64995957 141.36435277 -311.10640216 137.68105659 -305.68359375 133.1640625 C-302.69896651 131.10044552 -300.1564022 130.90023094 -296.65234375 130.96484375 C-255.36187031 130.96484375 -206.69095059 114.88551552 -170 97 C-169.23381348 96.63181152 -168.46762695 96.26362305 -167.67822266 95.88427734 C-152.07044322 88.30958381 -137.72461038 78.89277538 -125.08203125 66.9609375 C-123.1373859 65.12939535 -121.12556146 63.4451006 -119.0625 61.75 C-110.60823875 54.35039509 -103.67273582 45.08347384 -97.61181641 35.66967773 C-94.22260378 30.63870057 -90.40909151 27.74557808 -84.41015625 26.43359375 C-78.13062004 26.44404223 -73.69841229 27.69688682 -69 32 C-66.15244433 36.31726182 -64.58842313 40.63642352 -65.2265625 45.8515625 C-72.78115249 75.95716738 -112.46875194 103.19460381 -137 118 C-139.7971871 119.65255304 -142.61105915 121.2730433 -145.4375 122.875 C-146.08750977 123.24431641 -146.73751953 123.61363281 -147.40722656 123.99414062 C-148.03467773 124.34412109 -148.66212891 124.69410156 -149.30859375 125.0546875 C-149.85314209 125.35874512 -150.39769043 125.66280273 -150.95874023 125.97607422 C-153.90733404 127.45513203 -156.96796116 128.70055478 -160 130 C-114.46 130.495 -114.46 130.495 -68 131 C-67.01 128.03 -66.02 125.06 -65 122 C-64.0669722 119.57396502 -63.10986518 117.15705342 -62.12890625 114.75 C-61.71768524 113.73764282 -61.71768524 113.73764282 -61.29815674 112.70483398 C-60.38901784 110.46876011 -59.47580802 108.23437392 -58.5625 106 C-57.90757421 104.39201749 -57.25287686 102.78394192 -56.59838867 101.17578125 C-55.17347762 97.67636079 -53.74661843 94.17774281 -52.31835938 90.6796875 C-50.29830997 85.73209909 -48.28173481 80.78310176 -46.2658844 75.83380127 C-42.01057713 65.38637212 -37.74659485 54.9425354 -33.47377014 44.5022583 C-31.33308522 39.26933401 -29.20051848 34.03330109 -27.08195496 28.79138184 C-25.97533328 26.0559598 -24.86255358 23.32307519 -23.74813843 20.59082031 C-23.02661206 18.81547988 -22.31355581 17.03670428 -21.60083008 15.2578125 C-17.0579431 4.15584727 -12.76530672 -1.78714294 0 0 Z " fill="#B2D7F3" transform="translate(393,0)"/>
<path d="M0 0 C1.20366211 0.00483398 1.20366211 0.00483398 2.43164062 0.00976562 C3.68170898 0.02233398 3.68170898 0.02233398 4.95703125 0.03515625 C6.22450195 0.04192383 6.22450195 0.04192383 7.51757812 0.04882812 C9.6015928 0.06060222 11.68557102 0.07853735 13.76953125 0.09765625 C14.20652344 1.11085937 14.20652344 1.11085937 14.65234375 2.14453125 C17.26852339 7.83760141 19.11078633 11.26828379 24.76953125 14.09765625 C27.7935884 15.1056753 29.81766628 15.22738453 32.98005962 15.23632145 C34.0658854 15.24179589 35.15171117 15.24727034 36.27044076 15.25291067 C38.06662393 15.25437783 38.06662393 15.25437783 39.89909363 15.25587463 C41.80179039 15.2632816 41.80179039 15.2632816 43.74292547 15.2708382 C47.27063205 15.28443781 50.79832897 15.29184293 54.32605493 15.29826486 C58.12768524 15.3062608 61.92929542 15.31996135 65.73091125 15.33297729 C72.3197536 15.35475149 78.90859797 15.37289253 85.4974575 15.38858223 C95.0239011 15.41127227 104.5503224 15.4394163 114.0767471 15.46890151 C129.53186779 15.51658804 144.98699758 15.55984935 160.44213867 15.6003418 C175.45744536 15.63969132 190.47274395 15.68111625 205.48803711 15.7253418 C206.41321757 15.72806607 207.33839803 15.73079034 208.29161426 15.73359717 C212.93286454 15.74727656 217.57411471 15.76099685 222.21536481 15.77473748 C260.73340345 15.88871893 299.25145947 15.99552459 337.76953125 16.09765625 C337.80165743 18.19130594 337.82465533 20.28509716 337.84375 22.37890625 C337.85752686 23.54486328 337.87130371 24.71082031 337.88549805 25.91210938 C337.69297233 31.20068954 335.81847737 33.87861076 332.45703125 37.78515625 C325.54706572 43.73094054 319.40074625 43.52535572 310.63623047 43.47860718 C309.28238994 43.48206529 307.92855222 43.48683089 306.57472038 43.49278891 C302.86006713 43.50530756 299.14564523 43.49912467 295.43099117 43.48983026 C291.42274855 43.48304363 287.41454575 43.49351908 283.40631104 43.50177002 C275.55639135 43.51511367 267.70655768 43.5122268 259.85663462 43.5035321 C253.47714945 43.49675845 247.09768841 43.49583745 240.71820068 43.49910355 C239.81042747 43.49956325 238.90265426 43.50002294 237.96737278 43.50049657 C236.12328036 43.50145574 234.27918795 43.50242838 232.43509555 43.50341435 C215.14082083 43.51197009 197.84659381 43.50213121 180.55232692 43.48601325 C165.71129302 43.4726099 150.87032951 43.47493794 136.02929688 43.48876953 C118.79713596 43.50482208 101.56501685 43.5111461 84.3328495 43.50193274 C82.49552028 43.50097709 80.65819105 43.50003398 78.82086182 43.49910355 C77.91684785 43.49864072 77.01283388 43.49817789 76.08142555 43.49770104 C69.70920107 43.49511018 63.33700309 43.49948423 56.96478271 43.50654221 C49.19974427 43.51495379 41.43479682 43.51268427 33.66976881 43.49669997 C29.7075115 43.48881264 25.74540592 43.48573349 21.78314972 43.49564743 C18.15613995 43.50458534 14.52942259 43.4996766 10.90243936 43.48371477 C8.96856866 43.47877509 7.03467767 43.48857162 5.10082817 43.49888647 C-2.40712467 43.44784672 -7.07987613 42.80863129 -12.91796875 37.78515625 C-18.41379202 31.39811839 -18.76642723 25.8528467 -18.57421875 17.66796875 C-17.88042832 10.46200902 -14.33687091 6.77871284 -8.9140625 2.26171875 C-5.99341962 0.24234154 -3.43832932 -0.02438531 0 0 Z " fill="#96C8EF" transform="translate(96.23046875,130.90234375)"/>
<path d="M0 0 C2.50533896 2.50533896 3.50007841 5.03382197 5 8.25 C10.37266695 19.31654161 17.3136052 28.98068852 26.3828125 37.328125 C28 39 28 39 28 41 C28.57363281 41.25910156 29.14726562 41.51820313 29.73828125 41.78515625 C32.18972216 43.10190603 34.09234822 44.60964713 36.1875 46.4375 C36.88230469 47.03433594 37.57710937 47.63117188 38.29296875 48.24609375 C41.13798699 51.16923606 41.16672726 54.16197773 41.37304688 58.05615234 C41.42980591 59.08928558 41.48656494 60.12241882 41.54504395 61.18685913 C41.60236694 62.30855499 41.65968994 63.43025085 41.71875 64.5859375 C41.78155151 65.75266998 41.84435303 66.91940247 41.90905762 68.12149048 C42.10993521 71.8724645 42.30497185 75.62371777 42.5 79.375 C42.63114238 81.83335299 42.76264889 84.29168659 42.89453125 86.75 C43.64578348 100.83103689 44.34813773 114.91402329 45 129 C43.66255737 129.07190552 43.66255737 129.07190552 42.2980957 129.14526367 C41.27159912 129.20045166 40.24510254 129.25563965 39.1875 129.3125 C37.56908203 129.39951172 37.56908203 129.39951172 35.91796875 129.48828125 C33.03359089 129.78331079 33.03359089 129.78331079 31.140625 131.29296875 C29.77137106 133.34216043 29.56714548 134.54718439 29.5625 137 C29.53349609 138.0209375 29.53349609 138.0209375 29.50390625 139.0625 C29.8670726 141.14122797 29.8670726 141.14122797 31.63671875 142.70703125 C34.59368451 144.32480921 36.89571245 144.50520176 40.25 144.6875 C41.86648437 144.78611328 41.86648437 144.78611328 43.515625 144.88671875 C44.33546875 144.92410156 45.1553125 144.96148437 46 145 C46 148.63 46 152.26 46 156 C45.09636719 156.13277344 44.19273437 156.26554688 43.26171875 156.40234375 C41.49248047 156.66724609 41.49248047 156.66724609 39.6875 156.9375 C38.51574219 157.11152344 37.34398437 157.28554688 36.13671875 157.46484375 C32.98358597 157.92093031 32.98358597 157.92093031 30 159 C29.91868537 160.43655854 29.86066441 161.8744483 29.8125 163.3125 C29.77769531 164.11300781 29.74289063 164.91351563 29.70703125 165.73828125 C30.06687495 168.51627459 30.83241353 169.29427215 33 171 C35.83269666 172.41634833 38.47466438 172.3463005 41.625 172.5625 C42.81351563 172.64628906 44.00203125 172.73007812 45.2265625 172.81640625 C46.14179688 172.87699219 47.05703125 172.93757812 48 173 C48 176.63 48 180.26 48 184 C47.10796875 184.04898438 46.2159375 184.09796875 45.296875 184.1484375 C43.54117188 184.26058594 43.54117188 184.26058594 41.75 184.375 C40.00976562 184.47941406 40.00976562 184.47941406 38.234375 184.5859375 C35.27336043 184.96500458 33.46455987 185.36869608 31 187 C29.47508002 190.04983996 29.76437452 192.6423369 30 196 C31.50955687 198.01769568 32.42820383 198.86995621 34.90112305 199.43237305 C35.94586792 199.47164917 35.94586792 199.47164917 37.01171875 199.51171875 C37.69451904 199.54483154 38.37731934 199.57794434 39.08081055 199.61206055 C39.94101807 199.63695557 40.80122559 199.66185059 41.6875 199.6875 C45.8021875 199.8421875 45.8021875 199.8421875 50 200 C50.495 214.355 50.495 214.355 51 229 C54.60897217 228.97381592 58.21794434 228.94763184 61.9362793 228.9206543 C73.8504849 228.8378644 85.7646991 228.78234518 97.67911053 228.74093914 C104.90398004 228.71516297 112.12857695 228.68002426 119.35327148 228.62280273 C125.65071715 228.57294907 131.94796539 228.54070469 138.24560291 228.52955753 C141.57996311 228.52304179 144.91362716 228.50511661 148.24783897 228.47134972 C151.97115156 228.43513653 155.69328814 228.43005174 159.41674805 228.43237305 C161.07291641 228.40540848 161.07291641 228.40540848 162.76254272 228.37789917 C170.22232806 228.42833683 170.22232806 228.42833683 174.188797 231.34407043 C176 234 176 234 176.5625 237.0625 C175.87808796 240.63665177 174.85181131 241.80003128 172 244 C168.69768375 245.10077208 166.27076853 245.12308443 162.7928009 245.12025452 C161.49289719 245.12162918 160.19299347 245.12300385 158.85369873 245.12442017 C157.41003395 245.120881 155.9663694 245.11724619 154.52270508 245.11352539 C153.00504051 245.11324337 151.4873758 245.11340155 149.9697113 245.1139679 C145.84604161 245.11425528 141.7224009 245.10836796 137.59873796 245.10139394 C133.29057349 245.09515071 128.9824084 245.09455583 124.67424011 245.09336853 C116.51449473 245.09025808 108.35476272 245.08204853 100.19502324 245.07201904 C90.90613586 245.06084903 81.61724785 245.05534521 72.32835543 245.05032361 C53.21889604 245.0398657 34.10944909 245.02227178 15 245 C12.95851737 233.83900913 12.25809208 222.68889774 11.57958984 211.38061523 C11.4517116 209.32247393 11.32332522 207.26436414 11.19447327 205.20628357 C10.84810239 199.64837066 10.50924992 194.09002356 10.17213392 188.53154254 C9.81672091 182.68707231 9.45544034 176.84296411 9.09512329 170.99879456 C8.49073764 161.18003973 7.89140303 151.36098601 7.29492188 141.54174805 C6.6080497 130.23577221 5.91248657 118.93035601 5.21237218 107.62519306 C4.60908788 97.87975112 4.01063014 88.13402121 3.41608775 78.38804203 C3.06206055 72.58479778 2.70643476 66.78166432 2.34641647 60.97878838 C2.00759715 55.51333573 1.67489814 50.047542 1.346632 44.58144569 C1.22618707 42.59174806 1.10373487 40.60217059 0.97896385 38.61273956 C0.17227017 25.72391053 -0.14575587 12.91392827 0 0 Z " fill="#79B9EB" transform="translate(122,242)"/>
<path d="M0 0 C0.97690292 -0.00671722 1.95380585 -0.01343445 2.96031189 -0.02035522 C6.16524448 -0.03923387 9.36996656 -0.04325421 12.57495117 -0.04541016 C14.82020654 -0.05184478 17.06546108 -0.05857363 19.31071472 -0.06558228 C24.0085952 -0.07752949 28.70640228 -0.0812657 33.40429688 -0.08007812 C39.39929588 -0.07987501 45.39382047 -0.10718139 51.38870716 -0.14162254 C56.02408475 -0.16394988 60.65934917 -0.16791388 65.29477501 -0.16685867 C67.50378746 -0.16920568 69.71280347 -0.17797792 71.92176247 -0.19352341 C98.21701783 -0.36126589 98.21701783 -0.36126589 108.74291992 7.91552734 C115.20076251 14.30292074 118.06167433 20.28969228 118.30541992 29.41552734 C117.93376164 38.93410884 115.0412473 46.15320758 108.11791992 52.91552734 C102.2701788 57.52824935 94.93541383 60.39478239 87.48814392 60.43769836 C86.20375427 60.44843132 86.20375427 60.44843132 84.89341736 60.4593811 C83.96195389 60.46207001 83.03049042 60.46475891 82.07080078 60.4675293 C81.08326813 60.47410049 80.09573547 60.48067169 79.07827759 60.48744202 C75.80893881 60.5071564 72.539646 60.51883537 69.27026367 60.52880859 C67.59182971 60.53492188 67.59182971 60.53492188 65.87948799 60.54115868 C59.95351471 60.56201445 54.02756453 60.57631665 48.1015625 60.58569336 C41.99761431 60.59673875 35.89403256 60.63111887 29.79021358 60.67086506 C25.08282318 60.69708621 20.37551922 60.70539024 15.66806221 60.70897484 C13.41913957 60.71382888 11.17022048 60.72540887 8.92136955 60.74401283 C5.76255678 60.7685141 2.60468064 60.76741865 -0.55419922 60.76049805 C-1.47149307 60.77330811 -2.38878693 60.78611816 -3.33387756 60.79931641 C-12.56946445 60.72610826 -22.4725582 57.94532901 -29.19458008 51.29052734 C-35.95821197 42.83598748 -38.32408577 35.11147077 -37.19458008 24.29052734 C-36.25884363 21.01292077 -34.9161051 18.22391537 -33.19458008 15.29052734 C-32.84395508 14.66404297 -32.49333008 14.03755859 -32.13208008 13.39208984 C-28.19993124 7.13888092 -22.34197731 2.92624293 -15.16474915 1.22982788 C-10.08334293 0.14510059 -5.18103794 -0.00520289 0 0 Z " fill="#79B9EB" transform="translate(215.194580078125,213.70947265625)"/>
<path d="M0 0 C4.4700214 1.77441728 7.28813104 3.9207148 9.9375 7.9375 C11.91177347 13.62805295 12.4932034 17.58478857 10.38671875 23.265625 C-5.68648562 54.95926742 -38.22995213 78.73593817 -68.3125 95.8125 C-68.94575195 96.1734375 -69.57900391 96.534375 -70.23144531 96.90625 C-72.13832546 97.97101546 -74.06500058 98.98727544 -76 100 C-76.64061591 100.34931957 -77.28123182 100.69863914 -77.94126034 101.05854416 C-84.22435844 104.20539748 -89.62805979 104.54993596 -96.57836914 104.45410156 C-98.26283142 104.45497772 -98.26283142 104.45497772 -99.98132324 104.45587158 C-103.66625667 104.45310106 -107.35036539 104.42205644 -111.03515625 104.390625 C-113.60061705 104.38315898 -116.16608357 104.37746775 -118.73155212 104.37347412 C-124.77692132 104.35979996 -130.82194047 104.3283254 -136.8671698 104.28807616 C-143.75475133 104.24322304 -150.64234751 104.22133756 -157.53003895 104.20129442 C-171.68685402 104.15958813 -185.84341094 104.08932117 -200 104 C-200 103.67 -200 103.34 -200 103 C-199.13238037 102.8047876 -198.26476074 102.6095752 -197.37084961 102.40844727 C-162.03031026 94.40572123 -125.70729488 85.94362699 -93 70 C-92.23381348 69.63181152 -91.46762695 69.26362305 -90.67822266 68.88427734 C-75.07044322 61.30958381 -60.72461038 51.89277538 -48.08203125 39.9609375 C-46.1373859 38.12939535 -44.12556146 36.4451006 -42.0625 34.75 C-33.60823875 27.35039509 -26.67273582 18.08347384 -20.61181641 8.66967773 C-15.58468191 1.20735488 -8.81979368 -1.58480668 0 0 Z " fill="#78B9EB" transform="translate(316,27)"/>
<path d="M0 0 C3.47177758 1.6538783 5.44733642 4.04539927 7.375 7.375 C9.22672268 15.15223524 6.91058618 20.61984416 3.890625 27.7734375 C3.45622604 28.83009109 3.02182709 29.88674469 2.57426453 30.97541809 C1.14419958 34.44676061 -0.30282135 37.91076141 -1.75 41.375 C-2.74658178 43.78505885 -3.74192865 46.19562868 -4.73608398 48.60668945 C-6.27217223 52.32984018 -7.80910082 56.05260458 -9.3525238 59.77272034 C-12.84718452 68.19597096 -16.30651006 76.63290706 -19.73828125 85.08203125 C-20.19099396 86.19598267 -20.64370667 87.30993408 -21.11013794 88.4576416 C-22.85058004 92.74096893 -24.59048277 97.0245145 -26.32922363 101.30853271 C-27.52065724 104.24175011 -28.71505567 107.17374386 -29.91015625 110.10546875 C-30.25202469 110.94914505 -30.59389313 111.79282135 -30.94612122 112.6620636 C-33.47738885 118.86221814 -36.2226241 124.88977302 -39 131 C-48.57 131 -58.14 131 -68 131 C-66.15000494 125.45001482 -64.32442708 120.13731617 -62.12890625 114.75 C-61.85475891 114.07509521 -61.58061157 113.40019043 -61.29815674 112.70483398 C-60.38901784 110.46876011 -59.47580802 108.23437392 -58.5625 106 C-57.90757421 104.39201749 -57.25287686 102.78394192 -56.59838867 101.17578125 C-55.17347762 97.67636079 -53.74661843 94.17774281 -52.31835938 90.6796875 C-50.29830997 85.73209909 -48.28173481 80.78310176 -46.2658844 75.83380127 C-42.01057713 65.38637212 -37.74659485 54.9425354 -33.47377014 44.5022583 C-31.33308522 39.26933401 -29.20051848 34.03330109 -27.08195496 28.79138184 C-25.97533328 26.0559598 -24.86255358 23.32307519 -23.74813843 20.59082031 C-23.02661206 18.81547988 -22.31355581 17.03670428 -21.60083008 15.2578125 C-17.0579431 4.15584727 -12.76530672 -1.78714294 0 0 Z " fill="#EBE5DD" transform="translate(393,0)"/>
<path d="M0 0 C12.54 0 25.08 0 38 0 C39.77663812 25.49475708 41.46779297 50.99277938 43.05131531 76.50008011 C43.1871614 78.68206137 43.32408026 80.86397288 43.46130371 83.04586792 C43.72112783 87.18011004 43.97608208 91.31463845 44.23046875 95.44921875 C44.34744362 97.30302155 44.34744362 97.30302155 44.46678162 99.1942749 C44.84862019 105.47747081 45.08287536 111.70525887 45 118 C38.337547 113.7169945 32.89197287 109.12034896 27.7734375 103.07421875 C26.66498858 101.77777299 25.52805021 100.50456456 24.3515625 99.26953125 C20.20601096 94.86123348 16.95977987 90.04420668 13.75 84.9375 C13.32549561 84.26460938 12.90099121 83.59171875 12.46362305 82.8984375 C9.89037989 78.71991992 7.82474603 74.55594056 6 70 C5.01 70.99 5.01 70.99 4 72 C3.47591006 63.64610533 2.95417263 55.29206841 2.43539429 46.93784237 C2.19440284 43.05817971 1.95261741 39.17857001 1.70898438 35.29907227 C1.47366543 31.55148842 1.24047533 27.8037775 1.00872803 24.05597115 C0.92017597 22.62988166 0.83087157 21.20383867 0.74078369 19.77784538 C0.61422802 17.77251514 0.49065445 15.76699739 0.3671875 13.76147461 C0.29612793 12.62230087 0.22506836 11.48312714 0.15185547 10.30943298 C-0.00568087 6.87619497 0 3.43685044 0 0 Z " fill="#C1DEF5" transform="translate(117,174)"/>
<path d="M0 0 C20.38383871 -0.1167747 40.76760959 -0.20495943 61.15171337 -0.25906086 C70.61631129 -0.28484823 80.08070145 -0.3200089 89.54516602 -0.37719727 C97.7939066 -0.42701597 106.04249672 -0.45928714 114.29138356 -0.47044247 C118.65964177 -0.47696387 123.02746952 -0.49230175 127.39558983 -0.52865028 C131.50703189 -0.56258576 135.61786615 -0.57305808 139.72943497 -0.56553841 C141.23833456 -0.56691407 142.74725445 -0.57686174 144.25603294 -0.59602737 C146.31756765 -0.62093022 148.37681191 -0.61491916 150.43840027 -0.60127258 C151.59156329 -0.60588155 152.74472631 -0.61049051 153.93283367 -0.61523914 C157.96440498 0.19344882 159.46368757 1.83258567 162 5 C162.5625 8.0625 162.5625 8.0625 162 11 C159.76793569 13.84780619 158.45007001 14.84997666 155 16 C152.93257798 16.09169854 150.86225484 16.12193837 148.7928009 16.12025452 C147.49289719 16.12162918 146.19299347 16.12300385 144.85369873 16.12442017 C143.41003395 16.120881 141.9663694 16.11724619 140.52270508 16.11352539 C139.00504051 16.11324337 137.4873758 16.11340155 135.9697113 16.1139679 C131.84604161 16.11425528 127.7224009 16.10836796 123.59873796 16.10139394 C119.29057349 16.09515071 114.9824084 16.09455583 110.67424011 16.09336853 C102.51449473 16.09025808 94.35476272 16.08204853 86.19502324 16.07201904 C76.90613586 16.06084903 67.61724785 16.05534521 58.32835543 16.05032361 C39.21889604 16.0398657 20.10944909 16.02227178 1 16 C0.08342019 10.61509359 -0.11138159 5.45769811 0 0 Z " fill="#5BAAE7" transform="translate(136,471)"/>
<path d="M0 0 C0.72407043 -0.00861557 1.44814087 -0.01723114 2.19415283 -0.02610779 C4.58365806 -0.04877931 6.9719915 -0.04202709 9.36157227 -0.03295898 C11.02539926 -0.0381944 12.68922327 -0.04447058 14.3530426 -0.05174255 C17.83918224 -0.06214913 21.32491377 -0.05758233 24.81103516 -0.04296875 C29.27473841 -0.02578737 33.73715366 -0.04926566 38.20071316 -0.08445835 C41.63662722 -0.10643909 45.07223346 -0.10498922 48.50819588 -0.09669304 C50.15360997 -0.09587374 51.79904671 -0.10273313 53.44439507 -0.11746407 C55.7475846 -0.13492229 58.04846509 -0.12036064 60.3515625 -0.09765625 C62.3153611 -0.09621361 62.3153611 -0.09621361 64.3188324 -0.09474182 C68.60496433 0.69216051 70.083306 2.14612079 72.74047852 5.53344727 C73.36547852 8.53344727 73.36547852 8.53344727 72.74047852 11.53344727 C70.09745271 14.89186036 68.61683789 16.37042475 64.36352539 17.16163635 C63.07510742 17.16259811 61.78668945 17.16355988 60.45922852 17.16455078 C59.38753418 17.17528374 59.38753418 17.17528374 58.29418945 17.18623352 C55.94229369 17.20308507 53.59231387 17.18374162 51.24047852 17.16235352 C49.60050296 17.16318255 47.96052748 17.16564326 46.32055664 17.16966248 C42.8873588 17.17251802 39.45481423 17.1578439 36.02172852 17.13037109 C31.62654179 17.09628805 27.23252291 17.10230845 22.83728027 17.12103367 C19.45196849 17.13161501 16.06692727 17.12265568 12.68164062 17.10764885 C11.06136886 17.10247485 9.44106874 17.10293935 7.82080078 17.1091938 C5.55382789 17.11466003 3.28851239 17.09422924 1.02172852 17.06689453 C-0.26668945 17.06069595 -1.55510742 17.05449738 -2.88256836 17.04811096 C-6.81079352 16.44943079 -8.48097911 15.32189615 -11.25952148 12.53344727 C-11.88842773 10.53344727 -11.88842773 10.53344727 -11.82202148 8.53344727 C-11.82331055 7.87344727 -11.82459961 7.21344727 -11.82592773 6.53344727 C-10.10163725 0.44491811 -5.62810893 0.02666324 0 0 Z " fill="#CFE5F7" transform="translate(162.259521484375,370.466552734375)"/>
<path d="M0 0 C0.72407043 -0.00700928 1.44814087 -0.01401855 2.19415283 -0.02124023 C4.58368476 -0.03882113 6.97202864 -0.02719697 9.36157227 -0.01367188 C11.02539802 -0.01636708 12.68922224 -0.02024974 14.3530426 -0.02526855 C17.83919275 -0.03116394 21.32493272 -0.02260076 24.81103516 -0.00390625 C29.27459397 0.01886597 33.7371898 0.00577203 38.20071316 -0.01819611 C41.63661418 -0.03266835 45.07228791 -0.02804133 48.50819588 -0.01768494 C50.15359677 -0.01502065 51.79901845 -0.01827693 53.44439507 -0.02760315 C55.74733783 -0.03779075 58.04873456 -0.02223843 60.3515625 0 C62.3153611 0.00477356 62.3153611 0.00477356 64.3188324 0.00964355 C68.30698968 0.60167525 69.98425306 1.61106547 72.74047852 4.51757812 C73.36176662 8.38337077 73.48684978 10.48127924 71.16577148 13.70397949 C67.94849456 16.10981215 65.23718693 16.0804984 61.37329102 16.03515625 C60.63786072 16.04216553 59.90243042 16.0491748 59.14471436 16.05639648 C56.71791634 16.07397694 54.29228802 16.06235452 51.86547852 16.04882812 C50.17683692 16.05152305 48.48819683 16.05540547 46.79956055 16.0604248 C43.26213798 16.06631989 39.72511968 16.05775686 36.18774414 16.0390625 C31.65459006 16.01627261 27.12238324 16.02939568 22.58926392 16.05335236 C19.10279205 16.06781026 15.61654457 16.06320445 12.13006592 16.05284119 C10.45871875 16.05017386 8.78735117 16.05344389 7.11602783 16.0627594 C4.77935877 16.07292532 2.44422107 16.05742561 0.10766602 16.03515625 C-0.58232483 16.04325317 -1.27231567 16.0513501 -1.98321533 16.05969238 C-5.2818275 16.00148464 -7.01609239 15.69931813 -9.6887207 13.70397949 C-11.98639289 10.50584408 -11.80776494 8.35528228 -11.25952148 4.51757812 C-8.05657963 0.07841256 -5.29094545 0.01286894 0 0 Z " fill="#D0E6F7" transform="translate(162.259521484375,398.482421875)"/>
<path d="M0 0 C0.7354303 -0.00700928 1.4708606 -0.01401855 2.22857666 -0.02124023 C4.65537467 -0.03882069 7.08100299 -0.02719827 9.5078125 -0.01367188 C11.1964541 -0.0163668 12.88509418 -0.02024922 14.57373047 -0.02526855 C18.11115304 -0.03116364 21.64817133 -0.02260061 25.18554688 -0.00390625 C29.71870095 0.01888364 34.25090777 0.00576057 38.7840271 -0.01819611 C42.27049897 -0.03265401 45.75674645 -0.0280482 49.2432251 -0.01768494 C50.91457227 -0.01501761 52.58593985 -0.01828764 54.25726318 -0.02760315 C56.59393225 -0.03776907 58.92906994 -0.02226936 61.265625 0 C61.95561584 -0.00809692 62.64560669 -0.01619385 63.35650635 -0.02453613 C66.67783161 0.03407241 68.38841892 0.33227207 71.06591797 2.36242676 C73.18934644 5.28305076 73.14858546 6.98084923 72.6328125 10.51757812 C70.85296845 13.65349383 70.10973043 14.35860548 66.6328125 15.51757812 C64.27796451 15.62783784 61.92010401 15.67667223 59.56274414 15.69458008 C58.84696701 15.70115128 58.13118988 15.70772247 57.39372253 15.7144928 C55.02680352 15.73419258 52.65994775 15.74587888 50.29296875 15.75585938 C49.48430296 15.7599349 48.67563717 15.76401043 47.84246635 15.76820946 C43.56498343 15.78905271 39.28753246 15.80336383 35.01000977 15.81274414 C30.59014936 15.82382505 26.17079012 15.85824881 21.75110722 15.89791584 C18.35305332 15.92403817 14.95511989 15.93243188 11.55697441 15.93602562 C9.92746012 15.94090036 8.29795152 15.95253962 6.66853523 15.97106361 C4.38937471 15.99537057 2.1115254 15.99450669 -0.16772461 15.98754883 C-2.11273109 15.99634819 -2.11273109 15.99634819 -4.09703064 16.00532532 C-7.3671875 15.51757812 -7.3671875 15.51757812 -9.78590393 13.70695496 C-12.0959917 10.50850736 -11.91644255 8.36236349 -11.3671875 4.51757812 C-8.22409861 0.14270517 -5.05970217 -0.05937473 0 0 Z " fill="#D0E6F7" transform="translate(162.3671875,426.482421875)"/>
<path d="M0 0 C1.12093552 0.00007553 2.24187103 0.00015106 3.39677429 0.00022888 C4.60622208 0.00539017 5.81566986 0.01055145 7.06176758 0.01586914 C8.30050125 0.01728409 9.53923492 0.01869904 10.81550598 0.02015686 C14.1051142 0.02480937 17.39467343 0.03379149 20.68426514 0.04486084 C24.04251506 0.0550991 27.40077216 0.05965965 30.7590332 0.06469727 C37.34564095 0.07573394 43.93221588 0.09247773 50.51879883 0.11352539 C50.54592036 2.03011339 50.5652498 3.94681269 50.58129883 5.86352539 C50.59290039 6.93086914 50.60450195 7.99821289 50.61645508 9.09790039 C50.5338997 11.6472104 50.26497441 13.6928613 49.51879883 16.11352539 C41.77757054 16.1895951 34.03643867 16.24213373 26.29492188 16.27832031 C23.66142169 16.29340596 21.02794662 16.31387705 18.39453125 16.33984375 C14.60906779 16.37623558 10.82393656 16.39325429 7.03833008 16.40649414 C5.86107864 16.421978 4.68382721 16.43746185 3.47090149 16.45341492 C1.81975594 16.45375481 1.81975594 16.45375481 0.13525391 16.45410156 C-1.31369514 16.46409431 -1.31369514 16.46409431 -2.79191589 16.47428894 C-5.99814823 16.04417772 -7.87693914 15.00208301 -10.48120117 13.11352539 C-12.00612115 10.06368543 -11.71682665 7.47118849 -11.48120117 4.11352539 C-8.58709759 -0.0209083 -4.71096899 -0.01058645 0 0 Z " fill="#5BAAE7" transform="translate(325.481201171875,470.886474609375)"/>
<path d="M0 0 C0.33 0 0.66 0 1 0 C1 2.31 1 4.62 1 7 C13.21 7 25.42 7 38 7 C39.08500036 10.25500109 39.17436797 12.89077228 39.3125 16.3125 C39.71810661 21.83120809 40.05512937 25.05512937 44 29 C47.10935018 30.42779274 47.10935018 30.42779274 50 31 C50 31.33 50 31.66 50 32 C44.27091299 32.12391543 38.54261176 32.21448818 32.8125 32.2746582 C30.86477057 32.29974946 28.9171348 32.33383061 26.96972656 32.37719727 C24.1644781 32.43808749 21.36047792 32.46626331 18.5546875 32.48828125 C17.68883026 32.51408768 16.82297302 32.5398941 15.93087769 32.56648254 C11.66703979 32.56844532 8.87484938 32.35334454 5.48632812 29.62304688 C-1.67145231 22.07167286 -0.19491853 9.78924188 0 0 Z " fill="#79B9EB" transform="translate(136,480)"/>
</svg>
