<?xml version="1.0" encoding="UTF-8"?>
<svg version="1.1" xmlns="http://www.w3.org/2000/svg" width="512" height="512">
<path d="M0 0 C4.73544283 0.39462024 8.65942958 0.96535762 13 3 C12.364296 10.22230374 10.51589455 16.92459829 8.5 23.875 C8.14252686 25.10879395 7.78505371 26.34258789 7.41674805 27.61376953 C-7.25997153 77.55224054 -29.69052789 128.84724995 -62.78515625 169.48828125 C-66.65814437 173.94674897 -66.65814437 173.94674897 -68.09765625 179.4375 C-67.62894363 181.79268408 -66.94014831 183.79492488 -66 186 C-65.62875 187.175625 -65.2575 188.35125 -64.875 189.5625 C-64.441875 190.7690625 -64.441875 190.7690625 -64 192 C-63.72027344 191.443125 -63.44054687 190.88625 -63.15234375 190.3125 C-55.64555279 176.02304583 -44.26565686 168.06032176 -29 163 C-26.27837752 162.43386898 -23.78299549 162.16055743 -21 162 C-20.67 165.96 -20.34 169.92 -20 174 C-17.44574449 172.9782978 -14.89205991 171.95284638 -12.37109375 170.8515625 C-2.52383963 166.73433508 7.50126516 164.71953041 18 163 C18.69593262 162.88527344 19.39186523 162.77054688 20.10888672 162.65234375 C31.68820681 160.84851572 43.36784771 160.7315935 55.05889893 160.44491577 C64.06040774 160.22149323 73.02836263 159.94568339 82 159.125 C82.78608643 159.05861328 83.57217285 158.99222656 84.38208008 158.92382812 C89.45108767 158.40738194 94.01881882 157.17922852 98.8359375 155.51904297 C101 155 101 155 104 156 C103.72285156 156.86882812 103.44570313 157.73765625 103.16015625 158.6328125 C102.79792969 159.78523437 102.43570312 160.93765625 102.0625 162.125 C101.70285156 163.26195312 101.34320313 164.39890625 100.97265625 165.5703125 C99.42120761 171.04088241 98.86848695 176.21328623 98.75390625 181.890625 C98.72245936 183.24072947 98.69070847 184.59082689 98.65869141 185.94091797 C98.63563934 186.99493805 98.63563934 186.99493805 98.61212158 188.07025146 C96.88088288 264.11911712 96.88088288 264.11911712 83 278 C87.62 278.33 92.24 278.66 97 279 C93.68150534 295.00685657 86.98589698 309.13939425 73.125 318.5 C71.75636504 319.34374628 70.38210658 320.17850693 69 321 C68.01 321.66 67.02 322.32 66 323 C66.81339844 323.18433594 67.62679688 323.36867188 68.46484375 323.55859375 C83.74582462 327.42610859 96.86486608 334.98851451 109 345 C109.56847656 345.46841309 110.13695312 345.93682617 110.72265625 346.41943359 C131.22962075 363.41076028 131.22962075 363.41076028 136 371 C135.75000848 373.58703834 135.27096633 374.7275608 133.42797852 376.58056641 C132.75178467 377.08249512 132.07559082 377.58442383 131.37890625 378.1015625 C130.61731201 378.66939453 129.85571777 379.23722656 129.07104492 379.82226562 C127.82931519 380.71461914 127.82931519 380.71461914 126.5625 381.625 C125.71083252 382.24310547 124.85916504 382.86121094 123.98168945 383.49804688 C115.69873905 389.39860765 107.0941784 394.46158018 98 399 C97.38318359 399.30905273 96.76636719 399.61810547 96.13085938 399.93652344 C86.762089 404.52794398 77.15182012 406.91064235 67 409 C67.721875 409.69867188 68.44375 410.39734375 69.1875 411.1171875 C70.115625 412.02726562 71.04375 412.93734375 72 413.875 C72.928125 414.77992188 73.85625 415.68484375 74.8125 416.6171875 C77 419 77 419 77 421 C74.94666066 422.54607948 72.91751597 423.94244776 70.75 425.3125 C70.11392822 425.71549316 69.47785645 426.11848633 68.82250977 426.53369141 C54.82642568 435.19469496 40.31773823 438.29053312 24 439 C24.721875 439.69867188 25.44375 440.39734375 26.1875 441.1171875 C27.115625 442.02726562 28.04375 442.93734375 29 443.875 C29.928125 444.77992188 30.85625 445.68484375 31.8125 446.6171875 C34 449 34 449 34 451 C12.23186253 457.59640529 -11.12808732 459.11082363 -33 452 C-33.97018066 451.68651611 -33.97018066 451.68651611 -34.95996094 451.36669922 C-46.46561039 447.497671 -57.4318238 441.4788474 -67 434 C-67.26167969 434.87527344 -67.52335937 435.75054687 -67.79296875 436.65234375 C-74.40899537 455.00164735 -91.75919321 467.63987302 -108.5625 475.8125 C-117.93992752 479.87240667 -128.43598614 482.52540951 -138.69140625 481.7109375 C-145.88349564 481.10977666 -145.88349564 481.10977666 -153 482 C-156.65035642 485.18277073 -158.12270217 488.61752433 -160 493 C-161.48828125 494.84375 -161.48828125 494.84375 -163 496 C-165.6875 496.1875 -165.6875 496.1875 -168 496 C-171.49367909 490.17720152 -171.04078585 483.55292591 -171 477 C-172.43279297 476.29037109 -172.43279297 476.29037109 -173.89453125 475.56640625 C-182.4581337 471.22569135 -189.84564748 466.48883136 -197 460 C-197.63164062 459.46117187 -198.26328125 458.92234375 -198.9140625 458.3671875 C-208.30334404 449.8353746 -214.13198218 437.4923401 -219 426 C-220.299375 427.4540625 -220.299375 427.4540625 -221.625 428.9375 C-237.12607017 444.28324882 -258.12973902 450.46199095 -279.45947266 450.36132812 C-295.91160316 450.04298832 -310.78783253 445.17512184 -324.3125 435.71875 C-326.8125216 433.67518624 -326.8125216 433.67518624 -329.3125 434.5 C-330.199375 434.995 -331.08625 435.49 -332 436 C-341.27734313 440.58693917 -341.27734313 440.58693917 -347 440 C-347.68691084 434.04677276 -346.73010635 431.30235068 -343.5625 426.1875 C-341.80788751 423.16607637 -341.80788751 423.16607637 -341 420 C-342.1208315 416.74359243 -343.74620832 414.56742352 -345.84375 411.84375 C-357.22924074 396.82810279 -359.48324688 376.49762482 -357.3125 358.3125 C-353.82404881 336.10670383 -342.88089549 317.46482244 -324.75 304.1875 C-323.17691154 303.10988997 -321.59758588 302.04094671 -320 301 C-323.34677376 297.53207606 -326.92979361 294.70246343 -330.78515625 291.828125 C-332.84056929 290.1315936 -334.21349173 288.48170526 -335.8125 286.375 C-338.70692446 283.65574215 -338.70692446 283.65574215 -341.71875 284.296875 C-343.80675284 284.85578485 -345.88174664 285.46539687 -347.94140625 286.12109375 C-352.11716624 287.32102478 -355.68410196 287.2157949 -360 287 C-360.85565171 281.4382639 -358.72491172 278.56709993 -355.60546875 274.24609375 C-354.81076172 273.13427734 -354.81076172 273.13427734 -354 272 C-353.39542969 271.18917969 -352.79085938 270.37835938 -352.16796875 269.54296875 C-350.69435817 267.055288 -350.69435817 267.055288 -351.6953125 264.4921875 C-352.16710937 263.62851562 -352.63890625 262.76484375 -353.125 261.875 C-362.15454785 243.96076336 -362.36842681 222.03267288 -356.39794922 203.08984375 C-349.05511761 181.30886009 -334.1873224 165.23646599 -313.84863281 154.88427734 C-294.69672655 145.72313042 -272.04513791 144.52988851 -251.94873047 151.27539062 C-242.01948285 154.96744862 -233.00179994 160.05243288 -225 167 C-223.989375 167.763125 -222.97875 168.52625 -221.9375 169.3125 C-217.78592571 173.11074882 -214.21940586 177.38333931 -211 182 C-211 182.66 -211 183.32 -211 184 C-210.19304687 183.70867187 -209.38609375 183.41734375 -208.5546875 183.1171875 C-199.25097466 179.97644367 -189.87645322 177.80486407 -180.25 175.875 C-179.60002045 175.740867 -178.95004089 175.60673401 -178.28036499 175.46853638 C-171.83492295 174.14024968 -165.51745257 172.91284689 -158.93359375 172.62109375 C-151.71425167 172.37490451 -151.71425167 172.37490451 -145 170 C-140.89555 165.39098089 -139.18012221 159.32425092 -137.09423828 153.625 C-135.25302461 149.20805904 -132.6466279 145.36398387 -129.9375 141.4375 C-129.42574219 140.69250244 -128.91398438 139.94750488 -128.38671875 139.17993164 C-126.94247077 137.10638425 -125.47753679 135.04992057 -124 133 C-123.58766113 132.42233887 -123.17532227 131.84467773 -122.75048828 131.24951172 C-118.29330894 125.07440218 -118.29330894 125.07440218 -116 123 C-110.97092353 123 -109.34848781 124.94917446 -105.9375 128.25 C-105.36531738 128.79430664 -104.79313477 129.33861328 -104.20361328 129.89941406 C-102.45222383 131.58334906 -100.72221685 133.2862719 -99 135 C-98.50483887 135.49113281 -98.00967773 135.98226562 -97.49951172 136.48828125 C-89.48272698 144.55227255 -83.21584927 153.5259396 -77 163 C-66.0357404 150.21359984 -57.44043412 135.52753275 -49 121 C-48.43079834 120.02619385 -48.43079834 120.02619385 -47.85009766 119.03271484 C-27.04830909 83.23287997 -11.81700979 44.43470304 -1.875 4.26953125 C-1 1 -1 1 0 0 Z M-159 183 C-158.06725891 184.12894876 -157.12859878 185.25300876 -156.1875 186.375 C-155.66542969 187.00148437 -155.14335937 187.62796875 -154.60546875 188.2734375 C-152.91774261 190.2221048 -152.91774261 190.2221048 -150 192 C-149.67 188.7 -149.34 185.4 -149 182 C-152.41099168 182 -155.63088314 182.49145406 -159 183 Z M-177.1875 186.25 C-178.80688477 186.58680786 -178.80688477 186.58680786 -180.45898438 186.93041992 C-188.7262488 188.67579985 -196.87822928 190.67019718 -205 193 C-203.69844994 197.07964281 -203.69844994 197.07964281 -202 201 C-201.410979 200.91435791 -200.82195801 200.82871582 -200.21508789 200.74047852 C-197.49777882 200.34628371 -194.7801438 199.95438023 -192.0625 199.5625 C-191.13630859 199.42779297 -190.21011719 199.29308594 -189.25585938 199.15429688 C-187.87817383 198.95610352 -187.87817383 198.95610352 -186.47265625 198.75390625 C-185.55629395 198.61815186 -184.63993164 198.48239746 -183.69580078 198.3425293 C-181 198 -181 198 -178.44091797 197.87036133 C-173.45735236 197.64233089 -173.45735236 197.64233089 -169.625 194.56640625 C-169.08875 193.57511719 -168.5525 192.58382812 -168 191.5625 C-167.443125 190.57378906 -166.88625 189.58507812 -166.3125 188.56640625 C-165.53562798 187.047344 -164.76303083 185.52606166 -164 184 C-168.4260539 184 -172.87025671 185.35014007 -177.1875 186.25 Z " fill="#545B69" transform="translate(368,8)"/>
<path d="M0 0 C4.73544283 0.39462024 8.65942958 0.96535762 13 3 C12.364296 10.22230374 10.51589455 16.92459829 8.5 23.875 C8.14252686 25.10879395 7.78505371 26.34258789 7.41674805 27.61376953 C-7.25997153 77.55224054 -29.69052789 128.84724995 -62.78515625 169.48828125 C-66.65814437 173.94674897 -66.65814437 173.94674897 -68.09765625 179.4375 C-67.62894363 181.79268408 -66.94014831 183.79492488 -66 186 C-65.62875 187.175625 -65.2575 188.35125 -64.875 189.5625 C-64.441875 190.7690625 -64.441875 190.7690625 -64 192 C-63.72027344 191.443125 -63.44054687 190.88625 -63.15234375 190.3125 C-55.64555279 176.02304583 -44.26565686 168.06032176 -29 163 C-26.27837752 162.43386898 -23.78299549 162.16055743 -21 162 C-20.67 165.96 -20.34 169.92 -20 174 C-17.44574449 172.9782978 -14.89205991 171.95284638 -12.37109375 170.8515625 C-2.52383963 166.73433508 7.50126516 164.71953041 18 163 C18.69593262 162.88527344 19.39186523 162.77054688 20.10888672 162.65234375 C31.68820681 160.84851572 43.36784771 160.7315935 55.05889893 160.44491577 C64.06040774 160.22149323 73.02836263 159.94568339 82 159.125 C82.78608643 159.05861328 83.57217285 158.99222656 84.38208008 158.92382812 C89.45108767 158.40738194 94.01881882 157.17922852 98.8359375 155.51904297 C101 155 101 155 104 156 C103.72285156 156.86882812 103.44570313 157.73765625 103.16015625 158.6328125 C102.79792969 159.78523437 102.43570312 160.93765625 102.0625 162.125 C101.70285156 163.26195312 101.34320313 164.39890625 100.97265625 165.5703125 C99.42120761 171.04088241 98.86848695 176.21328623 98.75390625 181.890625 C98.72245936 183.24072947 98.69070847 184.59082689 98.65869141 185.94091797 C98.63563934 186.99493805 98.63563934 186.99493805 98.61212158 188.07025146 C96.88088288 264.11911712 96.88088288 264.11911712 83 278 C87.62 278.33 92.24 278.66 97 279 C93.68150534 295.00685657 86.98589698 309.13939425 73.125 318.5 C71.75636504 319.34374628 70.38210658 320.17850693 69 321 C68.01 321.66 67.02 322.32 66 323 C66.81339844 323.18433594 67.62679688 323.36867188 68.46484375 323.55859375 C83.74582462 327.42610859 96.86486608 334.98851451 109 345 C109.56847656 345.46841309 110.13695312 345.93682617 110.72265625 346.41943359 C131.22962075 363.41076028 131.22962075 363.41076028 136 371 C135.75000848 373.58703834 135.27096633 374.7275608 133.42797852 376.58056641 C132.75178467 377.08249512 132.07559082 377.58442383 131.37890625 378.1015625 C130.61731201 378.66939453 129.85571777 379.23722656 129.07104492 379.82226562 C127.82931519 380.71461914 127.82931519 380.71461914 126.5625 381.625 C125.71083252 382.24310547 124.85916504 382.86121094 123.98168945 383.49804688 C115.69873905 389.39860765 107.0941784 394.46158018 98 399 C97.38318359 399.30905273 96.76636719 399.61810547 96.13085938 399.93652344 C86.762089 404.52794398 77.15182012 406.91064235 67 409 C67.721875 409.69867188 68.44375 410.39734375 69.1875 411.1171875 C70.115625 412.02726562 71.04375 412.93734375 72 413.875 C72.928125 414.77992188 73.85625 415.68484375 74.8125 416.6171875 C77 419 77 419 77 421 C74.94666066 422.54607948 72.91751597 423.94244776 70.75 425.3125 C70.11392822 425.71549316 69.47785645 426.11848633 68.82250977 426.53369141 C54.82642568 435.19469496 40.31773823 438.29053312 24 439 C24.721875 439.69867188 25.44375 440.39734375 26.1875 441.1171875 C27.115625 442.02726562 28.04375 442.93734375 29 443.875 C30.3921875 445.23238281 30.3921875 445.23238281 31.8125 446.6171875 C34 449 34 449 34 451 C12.23186253 457.59640529 -11.12808732 459.11082363 -33 452 C-33.97018066 451.68651611 -33.97018066 451.68651611 -34.95996094 451.36669922 C-45.04185309 447.97644077 -54.19709357 442.92503317 -63 437 C-63.65484375 436.56042969 -64.3096875 436.12085938 -64.984375 435.66796875 C-66.75144529 432.76589563 -65.69395948 430.2008466 -65 427 C-64.33002826 424.57841542 -63.64140299 422.16194001 -62.9375 419.75 C-58.05573399 401.36035054 -60.52485314 380.95029373 -69 364 C-69.49242187 363.01515625 -69.98484375 362.0303125 -70.4921875 361.015625 C-79.35127081 344.65387305 -92.66907862 334.39755389 -109 326 C-107.65725887 322.49284034 -106.11950615 319.11572568 -104.48681641 315.73461914 C-95.43413394 296.90953487 -92.24928174 274.89761239 -98.60546875 254.59375 C-102.68268073 244.08664909 -107.58834156 234.55870081 -115 226 C-115.63421875 225.17628906 -116.2684375 224.35257813 -116.921875 223.50390625 C-130.61240732 207.00835885 -151.6750687 200.8057986 -172 198 C-170.58832253 192.73829306 -168.25149768 189.27828642 -165 185 C-168.917666 185.76580826 -172.8339254 186.53859851 -176.75 187.3125 C-177.84183594 187.52583984 -178.93367188 187.73917969 -180.05859375 187.95898438 C-186.57029512 189.24976542 -192.96494354 190.72240523 -199.35253906 192.53588867 C-202.26262117 193.04603863 -204.18776865 192.87137838 -207 192 C-208.36328125 190.15234375 -208.36328125 190.15234375 -209.3125 187.9375 C-209.63863281 187.20402344 -209.96476563 186.47054687 -210.30078125 185.71484375 C-210.53152344 185.14894531 -210.76226562 184.58304688 -211 184 C-200.92910989 180.36418344 -190.73967271 177.97791807 -180.25 175.875 C-179.60002045 175.740867 -178.95004089 175.60673401 -178.28036499 175.46853638 C-171.83492295 174.14024968 -165.51745257 172.91284689 -158.93359375 172.62109375 C-151.71425167 172.37490451 -151.71425167 172.37490451 -145 170 C-140.89555 165.39098089 -139.18012221 159.32425092 -137.09423828 153.625 C-135.25302461 149.20805904 -132.6466279 145.36398387 -129.9375 141.4375 C-129.42574219 140.69250244 -128.91398437 139.94750488 -128.38671875 139.17993164 C-126.94247077 137.10638425 -125.47753679 135.04992057 -124 133 C-123.3814917 132.1335083 -123.3814917 132.1335083 -122.75048828 131.24951172 C-118.29330894 125.07440218 -118.29330894 125.07440218 -116 123 C-110.97092353 123 -109.34848781 124.94917446 -105.9375 128.25 C-105.36531738 128.79430664 -104.79313477 129.33861328 -104.20361328 129.89941406 C-102.45222383 131.58334906 -100.72221685 133.2862719 -99 135 C-98.50483887 135.49113281 -98.00967773 135.98226562 -97.49951172 136.48828125 C-89.48272698 144.55227255 -83.21584927 153.5259396 -77 163 C-66.0357404 150.21359984 -57.44043412 135.52753275 -49 121 C-48.62053223 120.3507959 -48.24106445 119.7015918 -47.85009766 119.03271484 C-27.04830909 83.23287997 -11.81700979 44.43470304 -1.875 4.26953125 C-1 1 -1 1 0 0 Z M-159 183 C-158.06725891 184.12894876 -157.12859878 185.25300876 -156.1875 186.375 C-155.66542969 187.00148437 -155.14335937 187.62796875 -154.60546875 188.2734375 C-152.91774261 190.2221048 -152.91774261 190.2221048 -150 192 C-149.67 188.7 -149.34 185.4 -149 182 C-152.41099168 182 -155.63088314 182.49145406 -159 183 Z " fill="#74AD29" transform="translate(368,8)"/>
<path d="M0 0 C4.73544283 0.39462024 8.65942958 0.96535762 13 3 C12.364296 10.22230374 10.51589455 16.92459829 8.5 23.875 C8.14252686 25.10879395 7.78505371 26.34258789 7.41674805 27.61376953 C-7.25997153 77.55224054 -29.69052789 128.84724995 -62.78515625 169.48828125 C-66.65814437 173.94674897 -66.65814437 173.94674897 -68.09765625 179.4375 C-67.62894363 181.79268408 -66.94014831 183.79492488 -66 186 C-65.62875 187.175625 -65.2575 188.35125 -64.875 189.5625 C-64.441875 190.7690625 -64.441875 190.7690625 -64 192 C-63.72027344 191.443125 -63.44054687 190.88625 -63.15234375 190.3125 C-55.64555279 176.02304583 -44.26565686 168.06032176 -29 163 C-26.27837752 162.43386898 -23.78299549 162.16055743 -21 162 C-20.67 165.96 -20.34 169.92 -20 174 C-17.44574449 172.9782978 -14.89205991 171.95284638 -12.37109375 170.8515625 C-2.52383963 166.73433508 7.50126516 164.71953041 18 163 C18.69593262 162.88527344 19.39186523 162.77054688 20.10888672 162.65234375 C31.68751983 160.84862274 43.36818723 160.72735121 55.05889893 160.44592285 C64.06618403 160.22715027 73.02619689 159.93009833 82 159.0625 C83.17912964 158.95035156 83.17912964 158.95035156 84.38208008 158.8359375 C89.99553974 158.23957997 95.48218035 157.18002432 101 156 C99.66569184 158.9623524 98.20617631 161.04307566 95.91154289 163.33455276 C95.2735828 163.97649495 94.63562271 164.61843714 93.97833049 165.27983212 C93.27600359 165.97633335 92.57367668 166.67283457 91.85006714 167.39044189 C91.10515176 168.13706612 90.36023638 168.88369035 89.59274781 169.65293956 C87.08853715 172.16045171 84.57723155 174.66073586 82.06591797 177.16113281 C80.27211285 178.95437396 78.47874766 180.74805528 76.68579102 182.54214478 C72.82111987 186.40727177 68.95340081 190.26930778 65.08288193 194.12857819 C59.48676819 199.7084391 53.89618404 205.29381328 48.30693485 210.88054928 C39.23864143 219.94446526 30.16589051 229.00390573 21.09033203 238.06054688 C12.27418758 246.8583338 3.46014577 255.65821848 -5.35107422 264.4609375 C-5.89418197 265.0035198 -6.43728972 265.5461021 -6.99685527 266.10512629 C-9.72144936 268.82711031 -12.44600213 271.54913566 -15.17053437 274.27118158 C-37.77395527 296.85386845 -60.38461153 319.42929783 -83 342 C-86.66081735 340.23621869 -89.88618024 338.04020352 -93.1875 335.6875 C-98.28448287 332.09934523 -103.44875185 328.85451778 -109 326 C-107.65725887 322.49284034 -106.11950615 319.11572568 -104.48681641 315.73461914 C-95.43413394 296.90953487 -92.24928174 274.89761239 -98.60546875 254.59375 C-102.68268073 244.08664909 -107.58834156 234.55870081 -115 226 C-115.63421875 225.17628906 -116.2684375 224.35257813 -116.921875 223.50390625 C-130.61240732 207.00835885 -151.6750687 200.8057986 -172 198 C-170.58832253 192.73829306 -168.25149768 189.27828642 -165 185 C-168.917666 185.76580826 -172.8339254 186.53859851 -176.75 187.3125 C-177.84183594 187.52583984 -178.93367188 187.73917969 -180.05859375 187.95898438 C-186.57029512 189.24976542 -192.96494354 190.72240523 -199.35253906 192.53588867 C-202.26262117 193.04603863 -204.18776865 192.87137838 -207 192 C-208.36328125 190.15234375 -208.36328125 190.15234375 -209.3125 187.9375 C-209.63863281 187.20402344 -209.96476563 186.47054687 -210.30078125 185.71484375 C-210.53152344 185.14894531 -210.76226562 184.58304688 -211 184 C-200.92910989 180.36418344 -190.73967271 177.97791807 -180.25 175.875 C-179.60002045 175.740867 -178.95004089 175.60673401 -178.28036499 175.46853638 C-171.83492295 174.14024968 -165.51745257 172.91284689 -158.93359375 172.62109375 C-151.71425167 172.37490451 -151.71425167 172.37490451 -145 170 C-140.89555 165.39098089 -139.18012221 159.32425092 -137.09423828 153.625 C-135.25302461 149.20805904 -132.6466279 145.36398387 -129.9375 141.4375 C-129.42574219 140.69250244 -128.91398437 139.94750488 -128.38671875 139.17993164 C-126.94247077 137.10638425 -125.47753679 135.04992057 -124 133 C-123.3814917 132.1335083 -123.3814917 132.1335083 -122.75048828 131.24951172 C-118.29330894 125.07440218 -118.29330894 125.07440218 -116 123 C-110.97092353 123 -109.34848781 124.94917446 -105.9375 128.25 C-105.36531738 128.79430664 -104.79313477 129.33861328 -104.20361328 129.89941406 C-102.45222383 131.58334906 -100.72221685 133.2862719 -99 135 C-98.50483887 135.49113281 -98.00967773 135.98226562 -97.49951172 136.48828125 C-89.48272698 144.55227255 -83.21584927 153.5259396 -77 163 C-66.0357404 150.21359984 -57.44043412 135.52753275 -49 121 C-48.62053223 120.3507959 -48.24106445 119.7015918 -47.85009766 119.03271484 C-27.04830909 83.23287997 -11.81700979 44.43470304 -1.875 4.26953125 C-1 1 -1 1 0 0 Z M-159 183 C-158.06725891 184.12894876 -157.12859878 185.25300876 -156.1875 186.375 C-155.66542969 187.00148437 -155.14335937 187.62796875 -154.60546875 188.2734375 C-152.91774261 190.2221048 -152.91774261 190.2221048 -150 192 C-149.67 188.7 -149.34 185.4 -149 182 C-152.41099168 182 -155.63088314 182.49145406 -159 183 Z " fill="#8BBE43" transform="translate(368,8)"/>
<path d="M0 0 C1.32039595 1.1157221 2.63368496 2.23994599 3.9375 3.375 C4.81728516 4.04208984 4.81728516 4.04208984 5.71484375 4.72265625 C20.25784864 16.03388228 28.91303699 35.4658638 31.58984375 53.28125 C34.21356428 76.6294147 27.20772052 98.3072215 12.88745117 116.66674805 C0.58390382 131.89395577 -17.46694718 142.13198704 -37.0625 144.375 C-58.50703529 145.67805336 -77.50374073 142.58923452 -95.375 130.09375 C-97.8750216 128.05018624 -97.8750216 128.05018624 -100.375 128.875 C-101.261875 129.37 -102.14875 129.865 -103.0625 130.375 C-112.33984313 134.96193917 -112.33984313 134.96193917 -118.0625 134.375 C-118.74941084 128.42177276 -117.79260635 125.67735068 -114.625 120.5625 C-112.87038751 117.54107637 -112.87038751 117.54107637 -112.0625 114.375 C-113.1833315 111.11859243 -114.80870832 108.94242352 -116.90625 106.21875 C-128.29174074 91.20310279 -130.54574688 70.87262482 -128.375 52.6875 C-124.93683473 30.8017997 -114.2306505 12.62020791 -96.8125 -1 C-67.63418718 -20.87143718 -28.37904645 -21.69313551 0 0 Z " fill="#5F6C7E" transform="translate(139.0625,313.625)"/>
<path d="M0 0 C1.010625 0.763125 2.02125 1.52625 3.0625 2.3125 C9.48346274 8.18699783 14.25830313 14.78882345 17.8984375 22.67578125 C18.93072541 24.85383552 20.09634908 26.83524735 21.375 28.875 C23 32 23 32 22.80224609 34.07910156 C21.39547776 37.44746836 17.79101581 38.33830244 14.625 39.75 C-4.48202587 48.83272939 -18.46653226 63.18449991 -25.875 83.25 C-26.60910318 85.49172448 -27.32066567 87.74107526 -28 90 C-28.23460938 90.76570313 -28.46921875 91.53140625 -28.7109375 92.3203125 C-31.4394165 102.72016725 -31.18386707 114.32573259 -31 125 C-31.59208252 124.93143799 -32.18416504 124.86287598 -32.79418945 124.79223633 C-52.19182288 122.68186752 -69.96020938 122.90777183 -87.6328125 132.046875 C-90.42664163 133.1717831 -92.01416105 133.45970996 -95 133 C-97.8671875 131.27734375 -97.8671875 131.27734375 -100.875 128.9375 C-101.40673828 128.53499023 -101.93847656 128.13248047 -102.48632812 127.71777344 C-105.59283964 125.31487351 -108.06092673 122.80785295 -110.5 119.75 C-112.00665507 117.96753543 -112.00665507 117.96753543 -114 117 C-117.20104644 117.27501948 -119.92828436 118.0800825 -122.9765625 119.0859375 C-127.1415435 120.3451178 -130.68034722 120.21598264 -135 120 C-135.85565171 114.4382639 -133.72491172 111.56709993 -130.60546875 107.24609375 C-129.81076172 106.13427734 -129.81076172 106.13427734 -129 105 C-128.39542969 104.18917969 -127.79085937 103.37835938 -127.16796875 102.54296875 C-125.69435817 100.055288 -125.69435817 100.055288 -126.6953125 97.4921875 C-127.16710937 96.62851562 -127.63890625 95.76484375 -128.125 94.875 C-137.15454785 76.96076336 -137.36842681 55.03267288 -131.39794922 36.08984375 C-124.05511761 14.30886009 -109.1873224 -1.76353401 -88.84863281 -12.11572266 C-59.75273861 -26.03348927 -24.28393088 -21.0845361 0 0 Z " fill="#565E70" transform="translate(143,175)"/>
<path d="M0 0 C4.73544283 0.39462024 8.65942958 0.96535762 13 3 C12.364296 10.22230374 10.51589455 16.92459829 8.5 23.875 C8.14252686 25.10879395 7.78505371 26.34258789 7.41674805 27.61376953 C-8.34821864 81.25507048 -33.81151059 142.93749332 -74 183 C-75.2751213 184.54206742 -76.52568919 186.10479052 -77.75 187.6875 C-81.21517631 192.07933363 -84.85266362 196.25678558 -88.62890625 200.3828125 C-90.54031742 202.49260737 -92.4154335 204.62372111 -94.28125 206.7734375 C-98.06694928 211.11114373 -101.98680141 215.31280228 -105.9375 219.5 C-106.62134766 220.22703125 -107.30519531 220.9540625 -108.00976562 221.703125 C-109.67194507 223.46991714 -111.33536639 225.23552048 -113 227 C-113.72058594 226.26523438 -114.44117188 225.53046875 -115.18359375 224.7734375 C-131.57517449 208.63193635 -149.57268423 201.09602676 -172 198 C-170.58832253 192.73829306 -168.25149768 189.27828642 -165 185 C-168.917666 185.76580826 -172.8339254 186.53859851 -176.75 187.3125 C-177.84183594 187.52583984 -178.93367188 187.73917969 -180.05859375 187.95898438 C-186.57029512 189.24976542 -192.96494354 190.72240523 -199.35253906 192.53588867 C-202.26262117 193.04603863 -204.18776865 192.87137838 -207 192 C-208.36328125 190.15234375 -208.36328125 190.15234375 -209.3125 187.9375 C-209.63863281 187.20402344 -209.96476563 186.47054687 -210.30078125 185.71484375 C-210.53152344 185.14894531 -210.76226562 184.58304688 -211 184 C-200.92910989 180.36418344 -190.73967271 177.97791807 -180.25 175.875 C-179.60002045 175.740867 -178.95004089 175.60673401 -178.28036499 175.46853638 C-171.83492295 174.14024968 -165.51745257 172.91284689 -158.93359375 172.62109375 C-151.71425167 172.37490451 -151.71425167 172.37490451 -145 170 C-140.89555 165.39098089 -139.18012221 159.32425092 -137.09423828 153.625 C-135.25302461 149.20805904 -132.6466279 145.36398387 -129.9375 141.4375 C-129.42574219 140.69250244 -128.91398437 139.94750488 -128.38671875 139.17993164 C-126.94247077 137.10638425 -125.47753679 135.04992057 -124 133 C-123.3814917 132.1335083 -123.3814917 132.1335083 -122.75048828 131.24951172 C-118.29330894 125.07440218 -118.29330894 125.07440218 -116 123 C-110.97092353 123 -109.34848781 124.94917446 -105.9375 128.25 C-105.36531738 128.79430664 -104.79313477 129.33861328 -104.20361328 129.89941406 C-102.45222383 131.58334906 -100.72221685 133.2862719 -99 135 C-98.50483887 135.49113281 -98.00967773 135.98226562 -97.49951172 136.48828125 C-89.48272698 144.55227255 -83.21584927 153.5259396 -77 163 C-66.0357404 150.21359984 -57.44043412 135.52753275 -49 121 C-48.62053223 120.3507959 -48.24106445 119.7015918 -47.85009766 119.03271484 C-27.04830909 83.23287997 -11.81700979 44.43470304 -1.875 4.26953125 C-1 1 -1 1 0 0 Z M-159 183 C-158.06725891 184.12894876 -157.12859878 185.25300876 -156.1875 186.375 C-155.66542969 187.00148437 -155.14335937 187.62796875 -154.60546875 188.2734375 C-152.91774261 190.2221048 -152.91774261 190.2221048 -150 192 C-149.67 188.7 -149.34 185.4 -149 182 C-152.41099168 182 -155.63088314 182.49145406 -159 183 Z " fill="#689B24" transform="translate(368,8)"/>
<path d="M0 0 C13.38180939 6.29669392 24.88138771 21.64412984 33.25 33.5 C33.98585327 34.52420044 33.98585327 34.52420044 34.73657227 35.5690918 C38.05629075 40.42451991 38.05629075 40.42451991 37.80761719 42.96679688 C36.81080478 45.47630525 35.8893462 47.04557641 34 49 C31.20954895 49.48101807 31.20954895 49.48101807 27.78442383 49.45410156 C26.5033223 49.45379944 25.22222076 49.45349731 23.90229797 49.45318604 C22.50386943 49.43275939 21.10544721 49.4118954 19.70703125 49.390625 C18.27643117 49.38316359 16.84582086 49.37747018 15.41520691 49.37347412 C11.65186285 49.35820957 7.88913742 49.31892176 4.1260376 49.2746582 C0.28528207 49.23372257 -3.55557353 49.21546682 -7.39648438 49.1953125 C-14.93127145 49.15242737 -22.46554901 49.08416728 -30 49 C-29.37053311 47.40903494 -28.73933723 45.8187539 -28.10742188 44.22875977 C-27.58045715 42.90026756 -27.58045715 42.90026756 -27.04284668 41.54493713 C-20.76044231 26.21351356 -10.87624092 12.39310538 0 0 Z " fill="#8BBE43" transform="translate(253,130)"/>
<path d="M0 0 C1.07345673 0.00141495 2.14691345 0.0028299 3.25289917 0.00428772 C6.6451916 0.009837 10.03741538 0.02237978 13.4296875 0.03515625 C15.74479071 0.04017781 18.05989496 0.04473957 20.375 0.04882812 C26.01825216 0.05978975 31.66146492 0.07647652 37.3046875 0.09765625 C34.95081976 4.15803543 32.27024774 7.51092803 29.0546875 10.91015625 C28.05781047 11.97843628 27.06171512 13.04744627 26.06640625 14.1171875 C25.5873584 14.63104004 25.10831055 15.14489258 24.61474609 15.67431641 C22.98605105 17.44384531 21.42365492 19.26448351 19.8671875 21.09765625 C14.99967709 26.72869771 9.603401 31.87724886 4.3046875 37.09765625 C1.14370318 35.62358127 -1.76640538 33.82698021 -4.71801758 31.97509766 C-17.86870525 23.80265704 -30.46973285 20.19950395 -45.6953125 18.09765625 C-44.52575295 14.22314379 -43.28522733 11.04965134 -40.8828125 7.78515625 C-40.40199219 7.10839844 -39.92117187 6.43164062 -39.42578125 5.734375 C-37.15837698 3.58980979 -35.81433089 3.12609715 -32.6953125 3.09765625 C-30.45703125 4.75 -30.45703125 4.75 -28.3828125 7.03515625 C-27.68542969 7.78667969 -26.98804688 8.53820312 -26.26953125 9.3125 C-25.49029297 10.19615234 -25.49029297 10.19615234 -24.6953125 11.09765625 C-24.56253906 10.45957031 -24.42976563 9.82148438 -24.29296875 9.1640625 C-24.11636719 8.33777344 -23.93976563 7.51148438 -23.7578125 6.66015625 C-23.49677734 5.42458984 -23.49677734 5.42458984 -23.23046875 4.1640625 C-22.6953125 2.09765625 -22.6953125 2.09765625 -21.6953125 1.09765625 C-14.52739958 -0.09944719 -7.24368808 -0.0366464 0 0 Z " fill="#8BBE43" transform="translate(241.6953125,187.90234375)"/>
<path d="M0 0 C4.81042605 2.74607156 7.8292483 6.2577612 9.37890625 11.609375 C10.26929674 17.04544323 9.7301095 21.74358951 6.75 26.4375 C2.30212345 31.21827375 -1.27745414 34.18558933 -7.9375 34.75 C-13.38656534 34.65985002 -17.91034149 32.70766371 -21.828125 28.90625 C-26.30693079 23.65523631 -26.59988174 20.16400148 -26.52734375 13.41796875 C-26.019034 7.95542878 -23.11017927 5.08791387 -19.1875 1.625 C-13.42311688 -2.66762573 -6.52858273 -2.89883939 0 0 Z " fill="#565E70" transform="translate(188.25,219.5625)"/>
<path d="M0 0 C5.27510024 4.87946772 8.11182865 8.92986393 8.9375 16.125 C8.77579979 22.23495795 5.29469648 26.56382138 1.0625 30.6875 C-3.80247597 33.77260671 -7.70052122 34.80913892 -13.48046875 33.84765625 C-18.40066346 32.54385224 -21.71575764 30.32375989 -24.875 26.25 C-27.80073959 20.96116304 -28.26580332 16.25407747 -27.5 10.3125 C-25.61694518 5.35575929 -22.50860989 1.32111538 -17.65625 -1.0625 C-11.65562359 -2.801812 -5.61512047 -2.70729022 0 0 Z " fill="#5E6B7D" transform="translate(95.5,168.6875)"/>
<path d="M0 0 C4.62105481 3.30075344 8.1381432 7.3330792 9.625 12.875 C10.29812148 18.82090639 8.95887582 23.0266501 5.625 27.875 C1.22803543 32.41778228 -2.22756725 34.07237206 -8.5 34.3125 C-14.21432787 34.26193073 -17.59855185 33.48596256 -21.8515625 29.63671875 C-26.05011375 24.78147102 -27.00349975 19.60812343 -26.78515625 13.37109375 C-25.96807721 8.39858416 -23.53844852 4.86424877 -19.87109375 1.4921875 C-13.97686393 -2.56986004 -6.55763839 -2.18587946 0 0 Z " fill="#5E6B7D" transform="translate(199.375,354.125)"/>
</svg>
