<?xml version="1.0" encoding="UTF-8"?>
<svg id="Layer_1" xmlns="http://www.w3.org/2000/svg" viewBox="0 0 574.84 487.71">
  <defs>
    <style>
      .cls-1 {
        fill: #ffd900;
      }

      .cls-2 {
        fill: #ffc903;
      }

      .cls-3 {
        fill: #fec803;
      }
    </style>
  </defs>
  <path class="cls-1" d="M534.5,1H40.34C18.06,1,0,19.06,0,41.34v110.76c5.41-1.6,11.16-2.46,17.1-2.46,33.42,0,60.51,27.09,60.51,60.51s-27.09,60.51-60.51,60.51c-5.94,0-11.69-.85-17.1-2.46v179.17c0,22.28,18.06,40.34,40.34,40.34h142.15c6.28-15.56,21.92-51.37,33.24-52.62,12.2-1.33,30.95,36.82,37.3,52.62h281.47c22.28,0,40.34-18.06,40.34-40.34V41.34c0-22.28-18.06-40.34-40.34-40.34ZM339.01,156.36c-.49,11.81-3.37,22.56-11.85,31.14-.17.17-.35.34-.53.51-1.09,2.93-2.63,5.65-4.96,7.79-2.34,2.15-5.26,3.41-8.28,4.45-.52,2.5-3.11,4.92-6.39,4.45-3.13-.44-6.34-1.48-9.69-2.86-7.93-2.56-19.63-.1-24.31-7.14-.96-1.44-3.29-4.4-4-6-1.58-1.4-7.6-5.4-9-7-8.25-9.42-2.23-23.81-3.57-36.11-.87-7.96-.4-15.97,1.15-23.79-.29-1.91-.35-3.83.08-5.64.45-1.88,1.46-3.39,2.66-4.79,2.91-8.89,7.15-17.38,12.37-25.05,10.28-15.12,31.13-31.03,48.47-16.08,4.11,3.54,7.11,7.74,9.27,12.36,1.46,2.01,2.7,4.19,3.83,6.29,6.99,12.93,6.95,26.93,4.87,40.91.21,8.88.25,17.78-.12,26.56Z"/>
  <path class="cls-2" d="M574.84,40.34v406.02c0,22.28-18.06,40.34-40.34,40.34h-84.27l-1.67-454.15-4.04-11.29c-2.49-6.95-7.31-12.82-13.64-16.6l-7.79-4.66h111.42c22.28,0,40.34,18.06,40.34,40.34Z"/>
  <path class="cls-3" d="M260.31,110.43s.02-.07.03-.11c2.91-8.87,7.15-17.34,12.35-25,10.28-15.12,31.13-31.03,48.47-16.08.32.27.62.56.92.84,0,0,0,0,.01-.01.58-.65.52-1.66-.14-2.22-21.16-17.85-62.44-16.98-84.1,2.69-15.75,14.31-29.34,31.95-29.68,54.7-.88,57.74,47.6,97.8,99.18,84.06,8.16-2.18,12.87-7.87,15.65-15.87-.41.48-.85.95-1.32,1.38-2.31,2.13-5.19,3.39-8.18,4.41-.07.02-.14.05-.2.09-2.48,1.39-6.39,1.4-6.3,1.4,3.16-.01-7.65.37-11-1-7.93-2.56-14-4-21-10-1.25-1.07-3.08-4.05-3.88-5.73-.09-.18-.2-.33-.34-.47-1.63-1.55-4.44-5.27-5.78-6.8-8.25-9.42-7.23-19.81-8.57-32.11-.87-7.94-.4-15.93,1.14-23.74,0-.04.02-.08.03-.11l2.71-10.32Z"/>
</svg>