<?xml version="1.0" encoding="UTF-8"?>
<svg version="1.1" xmlns="http://www.w3.org/2000/svg" width="512" height="512">
<path d="M0 0 C0.77159454 -0.00761353 1.54318909 -0.01522705 2.33816528 -0.02307129 C3.96352927 -0.03383053 5.58896215 -0.03674244 7.21435547 -0.03222656 C9.68185545 -0.0312553 12.14623027 -0.07289574 14.61328125 -0.1171875 C28.87065966 -0.2252411 28.87065966 -0.2252411 34.46948242 4.13012695 C38.41662457 8.04160001 40.59458596 10.88866423 41.3828125 16.40625 C41.28543314 23.19034556 36.9378794 27.43763931 32.8203125 32.46875 C31.49636049 34.14888202 30.18396398 35.83730989 28.87646484 37.53027344 C27.63331887 39.13730101 26.37562101 40.73304048 25.1171875 42.328125 C22.71640309 45.61083021 20.77166732 48.90618478 18.8203125 52.46875 C19.48530762 52.56816895 20.15030273 52.66758789 20.83544922 52.77001953 C27.87318596 53.92182836 34.28552677 55.82408423 40.9453125 58.34375 C41.86957031 58.68277344 42.79382813 59.02179688 43.74609375 59.37109375 C48.87335542 61.27302579 53.88875698 63.32632402 58.84936523 65.62890625 C60.80101647 66.46052774 62.70874527 67.05202145 64.7578125 67.59375 C67.8203125 68.46875 67.8203125 68.46875 69.8203125 70.46875 C72.91280552 70.66474199 72.91280552 70.66474199 76.57421875 70.48828125 C77.98840516 70.45361783 79.40263387 70.42064875 80.81689453 70.38916016 C81.56183167 70.37040833 82.3067688 70.35165649 83.07427979 70.33233643 C116.09519677 69.6016036 146.62531409 77.11496564 171.41015625 99.84375 C189.66525567 117.41256748 198.51977118 140.4365902 203.5703125 164.78125 C203.86856934 166.20050781 203.86856934 166.20050781 204.17285156 167.6484375 C207.49423267 184.76238063 208.17283986 202.08284558 208.0703125 219.46875 C208.06721069 220.41521393 208.06410889 221.36167786 208.06091309 222.33682251 C208.00741913 236.48435693 207.72785909 250.62523385 207.18151855 264.76245117 C207.10868288 266.65777763 207.04055225 268.55329212 206.97766113 270.44897461 C206.08532488 296.31396181 200.25990747 320.53289928 182.8203125 340.46875 C182.26601563 341.10683594 181.71171875 341.74492187 181.140625 342.40234375 C174.13698025 349.92539757 165.36384995 354.45668433 156.0078125 358.40625 C155.29061035 358.71304687 154.5734082 359.01984375 153.83447266 359.3359375 C149.6710241 361.01954959 146.3909937 361.82034086 141.8203125 361.46875 C141.6346875 362.5 141.4490625 363.53125 141.2578125 364.59375 C138.66067274 374.89086046 132.8291137 384.60297748 125.8203125 392.46875 C125.25054687 393.13132812 124.68078125 393.79390625 124.09375 394.4765625 C109.94735674 409.82690413 90.17227104 416.38811503 69.8203125 417.46875 C68.87285156 417.52289063 67.92539062 417.57703125 66.94921875 417.6328125 C55.64530645 417.97024272 44.00622906 416.1103343 33.8359375 411.04296875 C31.81190967 410.26254092 31.81190967 410.26254092 29.8046875 411.1328125 C27.57914494 412.63111084 25.75207639 414.29400034 23.8203125 416.15625 C9.30650948 429.1832732 -8.46167426 434.17409679 -27.70263672 433.36230469 C-48.86633664 432.15827698 -68.1029141 427.47618842 -83.1796875 411.46875 C-85.04316744 409.09837435 -86.82432926 406.71730101 -88.51171875 404.21875 C-91.26294537 401.33221715 -94.49205533 401.49946769 -98.35498047 401.3269043 C-99.53205566 401.31570557 -100.70913086 401.30450684 -101.921875 401.29296875 C-126.42421363 400.90464234 -147.42458442 398.21904998 -165.58203125 380.21484375 C-178.1796875 366.89732143 -178.1796875 366.89732143 -178.1796875 361.46875 C-179.40042969 361.44296875 -180.62117188 361.4171875 -181.87890625 361.390625 C-200.2838817 360.82818305 -214.88284253 356.33208944 -229.1796875 344.46875 C-230.1903125 343.705625 -231.2009375 342.9425 -232.2421875 342.15625 C-247.38321185 328.30382347 -257.7137213 306.92525689 -258.71118164 286.42651367 C-258.74203857 285.59482666 -258.77289551 284.76313965 -258.8046875 283.90625 C-258.84263428 283.02235596 -258.88058105 282.13846191 -258.91967773 281.2277832 C-259.33850594 270.31260722 -259.2723705 259.38965933 -259.1796875 248.46875 C-259.9634375 248.283125 -260.7471875 248.0975 -261.5546875 247.90625 C-264.1796875 246.46875 -264.1796875 246.46875 -265.59375 243.4375 C-266.6188893 238.767689 -265.6050622 234.55476885 -264.5546875 229.96875 C-264.36664551 229.07929688 -264.17860352 228.18984375 -263.98486328 227.2734375 C-262.89892434 222.25334341 -261.56883517 217.3782591 -260.0546875 212.46875 C-257.70027674 204.08631481 -257.42244693 195.61230357 -256.88916016 186.95410156 C-254.90903412 155.43252158 -245.04770648 131.22669774 -221.1796875 109.46875 C-209.215653 99.17835468 -186.56534311 80.46875 -170.1796875 80.46875 C-170.2621875 79.72625 -170.3446875 78.98375 -170.4296875 78.21875 C-170.1796875 75.46875 -170.1796875 75.46875 -168.4921875 73.34375 C-166.1796875 71.46875 -166.1796875 71.46875 -163.82421875 70.0625 C-161.28030367 68.52938722 -158.94184064 66.85816754 -156.5546875 65.09375 C-139.61236246 53.28395284 -120.23753403 51.56863066 -100.2578125 55.04443359 C-92.94486733 56.53760778 -85.2935788 58.59770906 -78.5 61.6875 C-73.81785574 63.26397955 -70.24965197 61.14487052 -66.01391602 59.04321289 C-65.0750354 58.57322876 -65.0750354 58.57322876 -64.1171875 58.09375 C-57.63640799 54.94278073 -51.27615466 52.85632738 -44.1796875 51.46875 C-44.07914063 50.89511719 -43.97859375 50.32148437 -43.875 49.73046875 C-39.95623496 32.04234437 -28.70466995 14.27513729 -14.1796875 3.46875 C-9.43874728 0.62796947 -5.42538391 0.00149408 0 0 Z " fill="#E1462A" transform="translate(282.1796875,39.53125)"/>
<path d="M0 0 C0.78761719 0.17144531 1.57523438 0.34289062 2.38671875 0.51953125 C20.01174202 5.03503308 35.58105942 15.52163798 44.94580078 31.17382812 C71.95274826 77.95751667 70.26119689 142.61050028 57.0625 193.5625 C54.98275872 201.19569422 52.56790692 208.73575234 49.82836914 216.15844727 C48.2443604 220.58058253 47.55308186 224.30735952 48 229 C48.70125 229.61875 49.4025 230.2375 50.125 230.875 C50.74375 231.57625 51.3625 232.2775 52 233 C51.05706378 244.69240915 43.64003589 256.42581124 36 265 C35.43023437 265.66257812 34.86046875 266.32515625 34.2734375 267.0078125 C20.12704424 282.35815413 0.35195854 288.91936503 -20 290 C-20.94746094 290.05414063 -21.89492188 290.10828125 -22.87109375 290.1640625 C-34.17500605 290.50149272 -45.81408344 288.6415843 -55.984375 283.57421875 C-58.00840283 282.79379092 -58.00840283 282.79379092 -60.015625 283.6640625 C-62.24116756 285.16236084 -64.06823611 286.82525034 -66 288.6875 C-80.51380302 301.7145232 -98.28198676 306.70534679 -117.52294922 305.89355469 C-140.20279354 304.60327175 -159.5710898 299.02136504 -175.20703125 281.53125 C-178.78554041 277.18339666 -178.78554041 277.18339666 -180 275 C-179 272 -179 272 -177.46289062 270.56152344 C-175.62400258 268.59865162 -175.5814985 267.67297495 -175.59375 265.015625 C-175.79786437 259.24939391 -177.64255057 254.16595847 -179.5 248.75 C-186.78505386 226.3133482 -192.03902469 202.55491236 -194.64501953 179.09667969 C-194.99277528 176.06302502 -195.38193877 173.03604749 -195.77482605 170.00796509 C-200.08951309 136.26955785 -200.53144263 102.2114786 -197.75 68.3125 C-197.66853226 67.27144104 -197.66853226 67.27144104 -197.5854187 66.20935059 C-195.94669611 46.17052813 -189.66403889 27.22698483 -174.24609375 13.55859375 C-159.75187583 2.0879415 -142.45227235 -2.52466895 -124.12890625 -1.25 C-114.0281465 -0.06385574 -106.30416437 5.29368539 -99 12 C-98.39929688 12.52078125 -97.79859375 13.0415625 -97.1796875 13.578125 C-78.64757148 30.64491092 -66.12906208 58.82968038 -61 83 C-60.8030957 83.9266748 -60.60619141 84.85334961 -60.40332031 85.80810547 C-54.7975948 112.67912103 -51.76247737 139.25259946 -51.6875 166.6875 C-51.68454926 167.644216 -51.68159851 168.60093201 -51.67855835 169.5866394 C-51.66554301 188.30405326 -53.31192787 206.49582347 -56 225 C-56.25350415 226.86966986 -56.50622462 228.73944632 -56.7578125 230.609375 C-58.07339485 239.95047786 -60.04616978 249.10682573 -62.28686523 258.26879883 C-65.31774442 268.67020493 -65.31774442 268.67020493 -63.4375 278.625 C-60.29629411 280.3969623 -58.55547488 280.59257915 -55 280 C-41.97168398 269.88331521 -41.83560034 231.16489772 -39.8828125 216.109375 C-39.5858425 213.73992007 -39.29138954 211.37014768 -39 209 C-38.87850586 208.02998047 -38.75701172 207.05996094 -38.63183594 206.06054688 C-31.37821212 145.47654855 -37.3626857 77.48042142 -69.5546875 24.55078125 C-70.95023188 22.08783401 -72.01612395 19.65073403 -73 17 C-51.06467639 0.68722139 -27.26055418 -6.41665218 0 0 Z " fill="#E87324" transform="translate(372,167)"/>
<path d="M0 0 C-1.30951023 2.85155031 -2.44462544 4.48697072 -4.625 6.875 C-32.95808814 39.29525733 -27.83085119 95.37410822 -25.43408203 135.57495117 C-25.10916391 140.252807 -24.724047 144.92310554 -24.30322266 149.59326172 C-24.00191449 152.97849054 -23.74023013 156.36526767 -23.48046875 159.75390625 C-21.16255708 187.53336801 -16.31682344 216.1259082 -7.73095703 242.68603516 C-6.90755569 245.29264768 -6.15181135 247.91417151 -5.40234375 250.54296875 C-4.87249398 252.38284077 -4.34254892 254.22268535 -3.8125 256.0625 C-3.57450684 256.90345215 -3.33651367 257.7444043 -3.09130859 258.61083984 C-2.86137207 259.39023926 -2.63143555 260.16963867 -2.39453125 260.97265625 C-2.19706299 261.65593994 -1.99959473 262.33922363 -1.79614258 263.04321289 C-0.85855451 265.34764969 0.44194978 267.07202391 2 269 C-23.67377217 269.64776136 -46.33229782 268.82510291 -65.98486328 250.15161133 C-71.39730513 244.78484803 -76.49178867 238.81005729 -80 232 C-80 231.34 -80 230.68 -80 230 C-81.22074219 229.97421875 -82.44148438 229.9484375 -83.69921875 229.921875 C-102.1041942 229.35943305 -116.70315503 224.86333944 -131 213 C-132.5159375 211.8553125 -132.5159375 211.8553125 -134.0625 210.6875 C-149.20352435 196.83507347 -159.5340338 175.45650689 -160.53149414 154.95776367 C-160.56235107 154.12607666 -160.59320801 153.29438965 -160.625 152.4375 C-160.66294678 151.55360596 -160.70089355 150.66971191 -160.73999023 149.7590332 C-161.15881844 138.84385722 -161.092683 127.92090933 -161 117 C-159.88109375 116.74605469 -158.7621875 116.49210937 -157.609375 116.23046875 C-154.05929792 115.39718032 -154.05929792 115.39718032 -152.765625 113.36328125 C-152.59546875 112.68652344 -152.4253125 112.00976562 -152.25 111.3125 C-151.92515625 110.09240234 -151.92515625 110.09240234 -151.59375 108.84765625 C-150.92844346 105.65681105 -150.34111869 102.45541148 -149.75 99.25 C-146.64760527 83.22363964 -140.82606585 68.27647169 -133 54 C-132.44699219 52.94554687 -131.89398438 51.89109375 -131.32421875 50.8046875 C-118.402765 27.18217302 -96.62404683 11.0205022 -71.24609375 2.78125 C-67.51545625 1.73682975 -63.78198782 0.83871598 -60 0 C-58.74445313 -0.2990625 -57.48890625 -0.598125 -56.1953125 -0.90625 C-37.82168845 -4.94485843 -18.25672913 -4.27176949 0 0 Z " fill="#E87324" transform="translate(184,171)"/>
<path d="M0 0 C0.77159454 -0.00761353 1.54318909 -0.01522705 2.33816528 -0.02307129 C3.96352927 -0.03383053 5.58896215 -0.03674244 7.21435547 -0.03222656 C9.68185545 -0.0312553 12.14623027 -0.07289574 14.61328125 -0.1171875 C28.87065966 -0.2252411 28.87065966 -0.2252411 34.46948242 4.13012695 C38.41662457 8.04160001 40.59458596 10.88866423 41.3828125 16.40625 C41.28543314 23.19034556 36.9378794 27.43763931 32.8203125 32.46875 C31.49636049 34.14888202 30.18396398 35.83730989 28.87646484 37.53027344 C27.63331887 39.13730101 26.37562101 40.73304048 25.1171875 42.328125 C22.71640309 45.61083021 20.77166732 48.90618478 18.8203125 52.46875 C19.48530762 52.56816895 20.15030273 52.66758789 20.83544922 52.77001953 C27.87318596 53.92182836 34.28552677 55.82408423 40.9453125 58.34375 C41.86957031 58.68277344 42.79382813 59.02179688 43.74609375 59.37109375 C48.87335542 61.27302579 53.88875698 63.32632402 58.84936523 65.62890625 C60.80101647 66.46052774 62.70874527 67.05202145 64.7578125 67.59375 C67.8203125 68.46875 67.8203125 68.46875 69.8203125 70.46875 C72.91280552 70.66474199 72.91280552 70.66474199 76.57421875 70.48828125 C77.98840516 70.45361783 79.40263387 70.42064875 80.81689453 70.38916016 C81.56183167 70.37040833 82.3067688 70.35165649 83.07427979 70.33233643 C116.09519677 69.6016036 146.62531409 77.11496564 171.41015625 99.84375 C189.66525567 117.41256748 198.51977118 140.4365902 203.5703125 164.78125 C203.86856934 166.20050781 203.86856934 166.20050781 204.17285156 167.6484375 C207.49423267 184.76238063 208.17283986 202.08284558 208.0703125 219.46875 C208.06721069 220.41521393 208.06410889 221.36167786 208.06091309 222.33682251 C208.00741913 236.48435693 207.72785909 250.62523385 207.18151855 264.76245117 C207.10868288 266.65777763 207.04055225 268.55329212 206.97766113 270.44897461 C206.08532488 296.31396181 200.25990747 320.53289928 182.8203125 340.46875 C182.26601563 341.10683594 181.71171875 341.74492187 181.140625 342.40234375 C173.30074326 350.82365212 162.82790321 356.35614703 151.8203125 359.46875 C151.1603125 359.13875 150.5003125 358.80875 149.8203125 358.46875 C150.3565625 357.355 150.8928125 356.24125 151.4453125 355.09375 C159.51501607 336.78721398 163.870613 317.13436856 167.0703125 297.46875 C167.23354004 296.46706787 167.39676758 295.46538574 167.56494141 294.43334961 C169.6891601 280.69831895 170.05927495 267.02525374 170.0703125 253.15625 C170.07131958 252.2736853 170.07232666 251.39112061 170.07336426 250.48181152 C170.06243282 236.27158053 169.28452258 222.48712899 166.8203125 208.46875 C166.68641113 207.63150391 166.55250977 206.79425781 166.41455078 205.93164062 C162.50777336 181.59123339 154.71575247 156.01853513 137.8203125 137.46875 C137.046875 136.55802734 137.046875 136.55802734 136.2578125 135.62890625 C128.26622462 126.81818061 116.70094299 120.88407832 105.8203125 116.46875 C105.19511719 116.18515625 104.56992187 115.9015625 103.92578125 115.609375 C83.08484474 106.70997727 56.43066025 108.04425039 35.61328125 116.046875 C26.48392901 119.75083214 17.76859641 124.28970604 10.20703125 130.67578125 C7.8203125 132.46875 7.8203125 132.46875 4.8203125 132.46875 C3.45619456 130.82718434 2.128066 129.15556248 0.8203125 127.46875 C-12.05541917 116.1443113 -25.79406468 111.37558064 -42.6796875 110.84375 C-43.69289062 110.80507812 -44.70609375 110.76640625 -45.75 110.7265625 C-48.22639034 110.63311381 -50.70278901 110.54735127 -53.1796875 110.46875 C-52.72179265 107.65596732 -52.26412638 104.85654485 -51.65771484 102.0715332 C-51.18629161 99.50470836 -51.02354046 97.11828715 -50.96875 94.51171875 C-50.64645655 82.87822238 -50.02691386 71.79867334 -47.1796875 60.46875 C-46.8997998 59.3235791 -46.8997998 59.3235791 -46.61425781 58.15527344 C-41.27906549 36.92477045 -31.12885156 13.62472182 -11.54882812 1.89233398 C-7.61867518 0.23170197 -4.19428162 0.00115505 0 0 Z " fill="#E87323" transform="translate(282.1796875,39.53125)"/>
<path d="M0 0 C0.77159454 -0.00761353 1.54318909 -0.01522705 2.33816528 -0.02307129 C3.96352927 -0.03383053 5.58896215 -0.03674244 7.21435547 -0.03222656 C9.68185545 -0.0312553 12.14623027 -0.07289574 14.61328125 -0.1171875 C28.87065966 -0.2252411 28.87065966 -0.2252411 34.46948242 4.13012695 C38.41662457 8.04160001 40.59458596 10.88866423 41.3828125 16.40625 C41.28542652 23.19080687 36.93803443 27.43672028 32.8203125 32.46875 C31.16791241 34.5891098 29.52095515 36.71247509 27.8828125 38.84375 C27.25306519 39.66141846 27.25306519 39.66141846 26.6105957 40.49560547 C12.58729472 58.76538009 2.50969397 75.77752313 4.8203125 99.46875 C6.74187705 108.31715205 12.43145076 116.29978751 19.8203125 121.46875 C18.52464078 125.35576516 16.74228199 126.28087435 13.4453125 128.65625 C12.46820313 129.37167969 11.49109375 130.08710938 10.484375 130.82421875 C7.8203125 132.46875 7.8203125 132.46875 4.8203125 132.46875 C3.45619456 130.82718434 2.128066 129.15556248 0.8203125 127.46875 C-12.05541917 116.1443113 -25.79406468 111.37558064 -42.6796875 110.84375 C-43.69289062 110.80507812 -44.70609375 110.76640625 -45.75 110.7265625 C-48.22639034 110.63311381 -50.70278901 110.54735127 -53.1796875 110.46875 C-52.72179265 107.65596732 -52.26412638 104.85654485 -51.65771484 102.0715332 C-51.18629161 99.50470836 -51.02354046 97.11828715 -50.96875 94.51171875 C-50.64645655 82.87822238 -50.02691386 71.79867334 -47.1796875 60.46875 C-46.8997998 59.3235791 -46.8997998 59.3235791 -46.61425781 58.15527344 C-41.27906549 36.92477045 -31.12885156 13.62472182 -11.54882812 1.89233398 C-7.61867518 0.23170197 -4.19428162 0.00115505 0 0 Z " fill="#8EC03E" transform="translate(282.1796875,39.53125)"/>
<path d="M0 0 C1.04892238 1.63631892 2.04906703 3.30485863 3 5 C5.96161064 6.48080532 8.760166 6.15890113 12.0625 6.25 C32.61799858 7.23563382 50.39182075 16.4286776 65.375 30.1796875 C67 32 67 32 67 34 C66.2881958 33.92998779 65.5763916 33.85997559 64.84301758 33.7878418 C27.5792583 30.370562 -12.37694243 35.28556471 -42.625 59.25 C-63.11330479 76.85008561 -77.33115987 98.2903577 -86 124 C-86.33 124 -86.66 124 -87 124 C-88.11209011 91.00799326 -81.87725554 62.003797 -59.37109375 37.08984375 C-46.71224199 23.98876136 -19.39307416 0 0 0 Z " fill="#E87323" transform="translate(112,120)"/>
<path d="M0 0 C-0.21934204 0.95531616 -0.21934204 0.95531616 -0.44311523 1.92993164 C-3.34516172 14.80323026 -5.56030574 27.24932806 -5.72241211 40.47290039 C-5.79876885 45.70072849 -6.43894108 49.96231983 -8 55 C-8.16928543 57.79244045 -8.16928543 57.79244045 -8 60 C-9.14597656 60.25394531 -10.29195313 60.50789063 -11.47265625 60.76953125 C-13.00268353 61.11683806 -14.53262705 61.46451401 -16.0625 61.8125 C-16.81466797 61.97814453 -17.56683594 62.14378906 -18.34179688 62.31445312 C-22.02274515 63.1589997 -25.38342332 64.09226963 -28.80859375 65.69921875 C-32 67 -32 67 -34.15234375 67.0546875 C-37.0519442 65.39952445 -38.67630196 62.79954472 -40.5625 60.125 C-55.18831406 40.37701945 -76.31641103 25.40973593 -100.94140625 21.37109375 C-106.94137727 20.64312792 -112.96536429 20.3094685 -119 20 C-106.93208645 7.53122918 -91.66140367 2.07368618 -74.4375 1.6875 C-60.87538646 2.17258305 -46.76143588 4.56039651 -34.3203125 10.21875 C-29.04004726 11.99661708 -24.50464372 8.94453056 -19.8125 6.625 C-6.04821519 0 -6.04821519 0 0 0 Z " fill="#E87324" transform="translate(238,91)"/>
<path d="M0 0 C12.25080427 3.19422811 23.97727955 6.94086582 35.62548828 11.92749023 C39.39018779 13.53797234 43.04098743 15.08777447 47.0078125 16.125 C50 17 50 17 52 19.25 C53.25915167 22.7126671 53.11722603 24.49935843 52 28 C48.95404551 31.65952806 45.32081034 33.55566342 41.125 35.625 C26.43719368 43.17651104 15.16561743 52.63665507 5.11328125 65.7421875 C2.98224639 68.01896781 2.04265916 68.68405796 -1 69 C-10.04693995 59.66626945 -14.28572976 50.64635241 -14.2421875 37.67211914 C-14.01856113 24.36495226 -8.48788559 10.37113521 0 0 Z " fill="#E87324" transform="translate(300,91)"/>
<path d="M0 0 C3.5 0.8125 3.5 0.8125 5.4375 1.875 C7.15657443 5.00978279 6.83052084 8.34382095 6.5 11.8125 C5.36328125 15.171875 5.36328125 15.171875 3.8125 18.5625 C-12.17059435 55.80082382 -8.24430641 94.77358779 5.5 131.8125 C5.995 132.8025 5.995 132.8025 6.5 133.8125 C6.87809179 137.82027293 6.84407297 140.16564281 4.9375 143.75 C2.5 145.8125 2.5 145.8125 -0.9375 146.5 C-4.86411145 145.74223288 -5.89087716 144.73829848 -8.29321289 141.66088867 C-10.44354843 138.36730374 -11.7123591 134.824443 -13 131.125 C-13.29479248 130.29774414 -13.58958496 129.47048828 -13.89331055 128.61816406 C-27.21558509 90.36859427 -28.30746503 46.83596432 -10.72973633 9.54931641 C-5.87027151 -0.31447883 -5.87027151 -0.31447883 0 0 Z " fill="#E1462A" transform="translate(101.5,255.1875)"/>
<path d="M0 0 C14.69315732 0 29.47523738 10.68995886 39.75 20.375 C57.44508692 39.20492623 62.22698139 62.0320473 62 87 C56.72 87 51.44 87 46 87 C45.89042969 85.62328125 45.78085937 84.2465625 45.66796875 82.828125 C43.85074674 61.17306009 39.53671238 43.07626903 23 28 C15.21820742 21.80467406 6.23679908 18.40303124 -3 15 C-2.22095672 4.44191344 -2.22095672 4.44191344 0 0 Z " fill="#F8B94A" transform="translate(354,185)"/>
<path d="M0 0 C1.8125 1.0625 1.8125 1.0625 3 3 C4.39733354 8.91179575 4.39733354 8.91179575 3.23925781 12.08349609 C1.80587576 14.30021183 0.69505254 15.03342343 -1.640625 16.2265625 C-2.74216919 16.80700317 -2.74216919 16.80700317 -3.8659668 17.39916992 C-4.65269775 17.80369385 -5.43942871 18.20821777 -6.25 18.625 C-21.49612965 26.78260203 -33.31997405 35.96600525 -43.88671875 49.7421875 C-46.01775361 52.01896781 -46.95734084 52.68405796 -50 53 C-51.12721436 51.73113036 -52.25168658 50.45982438 -53.375 49.1875 C-54.00148438 48.47980469 -54.62796875 47.77210938 -55.2734375 47.04296875 C-58.97936912 42.65789581 -58.97936912 42.65789581 -59.0703125 39.7578125 C-57.40114932 35.45697599 -54.25102097 32.93012721 -50.875 29.875 C-50.15505859 29.21483887 -49.43511719 28.55467773 -48.69335938 27.87451172 C-15.89877115 -1.7281273 -15.89877115 -1.7281273 0 0 Z " fill="#E0472A" transform="translate(349,107)"/>
<path d="M0 0 C5.28 0 10.56 0 16 0 C16 5.28 16 10.56 16 16 C10.72 16 5.44 16 0 16 C0 10.72 0 5.44 0 0 Z " fill="#F9BB4B" transform="translate(224,384)"/>
<path d="M0 0 C5.28 0 10.56 0 16 0 C16 5.28 16 10.56 16 16 C10.72 16 5.44 16 0 16 C0 10.72 0 5.44 0 0 Z " fill="#F9BB4B" transform="translate(200,344)"/>
<path d="M0 0 C5.28 0 10.56 0 16 0 C16 5.28 16 10.56 16 16 C10.72 16 5.44 16 0 16 C0 10.72 0 5.44 0 0 Z " fill="#F9BB4B" transform="translate(400,288)"/>
</svg>
