<?xml version="1.0" encoding="UTF-8"?>
<svg version="1.1" xmlns="http://www.w3.org/2000/svg" width="512" height="512">
<path d="M0 0 C1 1 1 1 1.1875 4.625 C1.15040203 8.73545466 0.29581353 12.11255942 -1 16 C-0.11183594 16.25394531 0.77632813 16.50789063 1.69140625 16.76953125 C9.25816104 19.58361361 19.30007606 27.60015212 23 35 C23.70125 34.175 24.4025 33.35 25.125 32.5 C28 30 28 30 31.0625 29.4375 C34.75853867 30.14525209 35.56846745 31.15478516 38 34 C51.30029512 56.13252235 53.64021063 80.94050533 48.18359375 105.97265625 C47.24687227 109.6999455 46.17636157 113.34151553 45 117 C44.41992188 118.81951172 44.41992188 118.81951172 43.828125 120.67578125 C37.56394832 139.18173058 27.55153652 156.33266012 16 172 C16.71929687 172.12761719 17.43859375 172.25523437 18.1796875 172.38671875 C20.95740604 172.99073788 23.47296658 173.79467066 26.125 174.8125 C26.97320312 175.12832031 27.82140625 175.44414062 28.6953125 175.76953125 C31.33406902 177.17835888 32.48202961 178.44085761 34 181 C34.77234598 187.30749217 32.81540877 193.02427947 31 199 C31.88558594 199.27070313 32.77117187 199.54140625 33.68359375 199.8203125 C45.14252744 203.89639963 57.09970542 213.96102976 64 224 C64.515625 223.05125 65.03125 222.1025 65.5625 221.125 C68.53233518 217.317519 70.26993894 216.66386822 75 216 C79.19259286 216.99122004 81.00997875 218.86393092 83.33520508 222.44116211 C83.88084106 223.33653687 83.88084106 223.33653687 84.4375 224.25 C84.82510498 224.87334229 85.21270996 225.49668457 85.61206055 226.13891602 C103.09630104 255.0036889 104.62026278 290.19228994 96.74609375 322.35546875 C91.99499635 340.39697815 84.80310555 357.57857105 76 374 C75.68595215 374.58942383 75.3719043 375.17884766 75.04833984 375.78613281 C67.15588347 390.45931686 57.42775663 404.03261246 47 417 C46.19175781 418.01449219 45.38351562 419.02898437 44.55078125 420.07421875 C30.80114292 436.90109572 14.71905086 453.38155202 -3 466 C-4.07366777 466.81109134 -5.14524548 467.6249559 -6.21484375 468.44140625 C-39.31860013 493.36928649 -78.3277397 506.98382581 -119.91503906 502.69970703 C-129.62175799 501.22927585 -144.91262269 498.21377178 -151.88671875 491.06640625 C-155.21372576 484.89101429 -152.5189585 477.37648494 -150.65625 471.08984375 C-150.4396875 470.40019531 -150.223125 469.71054687 -150 469 C-150.87398437 468.73058594 -151.74796875 468.46117187 -152.6484375 468.18359375 C-164.42328294 464.02534414 -175.8319099 455.30563796 -183 445 C-183.5775 445.94875 -184.155 446.8975 -184.75 447.875 C-187.85834502 452.19214586 -187.85834502 452.19214586 -191 453 C-194.61587277 453.20467204 -196.91839981 452.92743546 -199.7265625 450.51953125 C-212.40149665 435.55847884 -219.18680164 412.53595571 -219.09765625 393.19140625 C-219.09443359 391.95068359 -219.09121094 390.70996094 -219.08789062 389.43164062 C-219.07951172 388.15482422 -219.07113281 386.87800781 -219.0625 385.5625 C-219.05798828 384.25861328 -219.05347656 382.95472656 -219.04882812 381.61132812 C-219.03709251 378.40750448 -219.02067363 375.20377637 -219 372 C-220.41925781 371.70609375 -220.41925781 371.70609375 -221.8671875 371.40625 C-250.10790241 365.17434019 -274.62976374 348.95798503 -296 330 C-296.834104 329.26064209 -296.834104 329.26064209 -297.68505859 328.50634766 C-304.91825618 322.05354671 -311.73596668 315.415205 -318 308 C-318.47373047 307.44393066 -318.94746094 306.88786133 -319.43554688 306.31494141 C-353.35909549 266.30611562 -378.7214461 216.87771508 -374.71875 163.23046875 C-372.89545989 147.8902875 -367.95879473 134.16504187 -360 121 C-359.47148437 120.11699219 -358.94296875 119.23398438 -358.3984375 118.32421875 C-356.11061793 114.88025506 -354.68656571 113.28270353 -350.8125 111.6875 C-345.27540024 112.14136064 -340.87920775 114.45010662 -336 117 C-335.46632813 116.3709375 -334.93265625 115.741875 -334.3828125 115.09375 C-326.6664444 106.22927176 -318.5258169 99.28833313 -308 94 C-308.639375 93.278125 -309.27875 92.55625 -309.9375 91.8125 C-312.0401613 88.94523459 -312.82455116 87.50897685 -313 84 C-312.12779084 80.68768187 -311.5587599 79.34399225 -308.6015625 77.5234375 C-279.23709172 66.19383854 -249.83857181 68.17997669 -221 80 C-207.76999624 85.93060954 -195.68140905 93.45786637 -184 102 C-182.4189062 99.62835931 -181.0749905 97.33590387 -179.75 94.82421875 C-174.13877433 84.31515492 -168.25724981 74.44903667 -161 65 C-160.33484375 64.1234375 -159.6696875 63.246875 -158.984375 62.34375 C-153.70074341 55.556646 -147.91965648 49.23121735 -142 43 C-141.44425293 42.41025391 -140.88850586 41.82050781 -140.31591797 41.21289062 C-121.19363691 21.0439051 -98.18352118 4.57156331 -71.6875 -4.375 C-70.98343018 -4.6136377 -70.27936035 -4.85227539 -69.55395508 -5.09814453 C-47.54715227 -12.15890507 -20.17223168 -12.30460391 0 0 Z " fill="#9D5E5E" transform="translate(393,9)"/>
<path d="M0 0 C1 1 1 1 1.1875 4.625 C1.15040203 8.73545466 0.29581353 12.11255942 -1 16 C-0.11183594 16.25394531 0.77632812 16.50789063 1.69140625 16.76953125 C9.25816104 19.58361361 19.30007606 27.60015212 23 35 C23.70125 34.175 24.4025 33.35 25.125 32.5 C28 30 28 30 31.0625 29.4375 C34.75853867 30.14525209 35.56846745 31.15478516 38 34 C51.30029512 56.13252235 53.64021063 80.94050533 48.18359375 105.97265625 C47.24687227 109.6999455 46.17636157 113.34151553 45 117 C44.41992188 118.81951172 44.41992188 118.81951172 43.828125 120.67578125 C37.56394832 139.18173058 27.55153652 156.33266012 16 172 C15.28714844 171.86722656 14.57429687 171.73445312 13.83984375 171.59765625 C12.88207031 171.42105469 11.92429687 171.24445313 10.9375 171.0625 C9.99777344 170.88847656 9.05804688 170.71445313 8.08984375 170.53515625 C0.32872195 169.19094173 -7.13407782 168.78223143 -15.00366211 168.75976562 C-17.03347003 168.7501377 -19.0622289 168.71908477 -21.09179688 168.6875 C-30.08300886 168.6145125 -38.29859514 169.75148559 -47 172 C-47.79092041 172.19352051 -48.58184082 172.38704102 -49.39672852 172.58642578 C-67.78817338 177.22850245 -86.50375709 185.40514373 -101.76953125 196.76953125 C-105 199 -105 199 -108 199 C-108.25990723 198.4738208 -108.51981445 197.9476416 -108.78759766 197.40551758 C-118.51851756 177.87408082 -130.03668745 159.7808651 -144 143 C-144.47646973 142.4220166 -144.95293945 141.8440332 -145.44384766 141.24853516 C-156.7223969 127.61393971 -168.77038829 115.57339203 -183 105 C-182.52593713 99.04035247 -179.93483505 94.60669661 -177.0625 89.5 C-176.57031982 88.61650879 -176.07813965 87.73301758 -175.57104492 86.82275391 C-171.21687327 79.13826515 -166.37514057 71.99850517 -161 65 C-160.33484375 64.1234375 -159.6696875 63.246875 -158.984375 62.34375 C-153.70074341 55.556646 -147.91965648 49.23121735 -142 43 C-141.44425293 42.41025391 -140.88850586 41.82050781 -140.31591797 41.21289062 C-121.19363691 21.0439051 -98.18352118 4.57156331 -71.6875 -4.375 C-70.98343018 -4.6136377 -70.27936035 -4.85227539 -69.55395508 -5.09814453 C-47.54715227 -12.15890507 -20.17223168 -12.30460391 0 0 Z " fill="#865151" transform="translate(393,9)"/>
<path d="M0 0 C2.31055591 2.54870532 2.9505186 3.59590188 3.375 7.0625 C2.53829312 15.84792225 -0.52944738 23.94789468 -4 32 C-4.40412109 32.95737061 -4.40412109 32.95737061 -4.81640625 33.93408203 C-17.89574033 64.84179412 -37.56134733 92.67752069 -64.0559082 113.63354492 C-66.87108079 115.89637499 -69.59725872 118.23881425 -72.33203125 120.59765625 C-78.87951675 126.12741871 -85.9221496 130.80218846 -93.09637451 135.47183228 C-96.76143752 137.85975819 -100.4086437 140.27457298 -104.0546875 142.69140625 C-104.75884796 143.15800156 -105.46300842 143.62459686 -106.18850708 144.10533142 C-113.69962878 149.10083868 -120.94100316 154.38488888 -128 160 C-129.0003125 160.79148437 -130.000625 161.58296875 -131.03125 162.3984375 C-136.40339298 166.72271742 -141.57259657 171.24070222 -146.66796875 175.88671875 C-148.75034736 177.77376537 -150.86503064 179.61058233 -153 181.4375 C-160.57669787 188.04989087 -167.55215413 195.29007577 -174 203 C-174.44150391 203.5170752 -174.88300781 204.03415039 -175.33789062 204.56689453 C-186.87777516 218.11453749 -196.9441342 232.68598706 -205.72290039 248.16845703 C-206.14434326 248.77286621 -206.56578613 249.37727539 -207 250 C-207.66 250 -208.32 250 -209 250 C-229.38717301 225.80310274 -239.01079559 195.71685328 -239.375 164.3125 C-239.43107422 162.50749023 -239.43107422 162.50749023 -239.48828125 160.66601562 C-239.57268267 151.98673678 -237.82536571 145.73980942 -234 138 C-233.4112269 136.64222655 -232.82832847 135.2818755 -232.25390625 133.91796875 C-223.91260019 115.23887242 -212.7497168 97.95710412 -200 82 C-198.84951172 80.54980469 -198.84951172 80.54980469 -197.67578125 79.0703125 C-195.48171561 76.35234968 -193.25089827 73.67106594 -191 71 C-190.5359375 70.44570313 -190.071875 69.89140625 -189.59375 69.3203125 C-181.03804953 59.11585725 -172.15402471 49.6458276 -162 41 C-160.61748047 39.78376953 -160.61748047 39.78376953 -159.20703125 38.54296875 C-120.61787999 4.84496787 -50.28776089 -31.00177374 0 0 Z " fill="#AF6B6B" transform="translate(424,186)"/>
<path d="M0 0 C1.77869818 2.09886385 3.11303774 3.92036876 4.5 6.25 C4.88309326 6.87334229 5.26618652 7.49668457 5.66088867 8.13891602 C23.01204382 37.1206251 24.63568585 72.12929217 16.74609375 104.35546875 C11.99499635 122.39697815 4.80310555 139.57857105 -4 156 C-4.31404785 156.58942383 -4.6280957 157.17884766 -4.95166016 157.78613281 C-12.45382124 171.73370313 -20.55271045 184.9875934 -33 195 C-34.253945 196.12060115 -35.5040857 197.24547685 -36.75 198.375 C-59.07476733 217.7469925 -83.83909731 232.73014432 -112 242 C-113.71703125 242.59554687 -113.71703125 242.59554687 -115.46875 243.203125 C-149.91978716 254.62995416 -186.63524118 251.83308339 -219.83984375 238.11328125 C-222 237 -222 237 -223 235 C-221.9343268 232.62576513 -220.81495401 230.39897101 -219.5625 228.125 C-219.19560059 227.45098145 -218.82870117 226.77696289 -218.45068359 226.08251953 C-210.66739047 211.99672228 -200.97579325 199.09553249 -190.0859375 187.26953125 C-188.15845324 185.1723995 -186.29238643 183.03623645 -184.4375 180.875 C-178.45632007 174.02558428 -171.90867792 167.89650365 -165 162 C-164.08863281 161.19949219 -163.17726563 160.39898437 -162.23828125 159.57421875 C-149.67692146 148.62370429 -136.1400939 139.22260005 -121.98608398 130.45825195 C-113.95796799 125.44181899 -106.45276004 119.82674278 -99 114 C-98.10152344 113.30390625 -97.20304687 112.6078125 -96.27734375 111.890625 C-93.82323159 109.95925868 -91.40703289 107.9897145 -89 106 C-87.98164063 105.16726563 -86.96328125 104.33453125 -85.9140625 103.4765625 C-71.06469907 91.16013492 -57.37592554 77.60374248 -46 62 C-45.15552217 60.87326729 -44.31046579 59.74696797 -43.46484375 58.62109375 C-31.18043184 42.06682559 -20.68269025 23.63763236 -14.70263672 3.83007812 C-13.71083605 1.24684746 -12.46604084 0.19565617 -10 -1 C-6.22988135 -2.63371808 -3.66291739 -1.63149795 0 0 Z " fill="#AF6B6B" transform="translate(473,227)"/>
<path d="M0 0 C11.84933182 1.46589672 22.72466928 12.4532808 30.75 20.5625 C31.73226562 21.55443359 31.73226562 21.55443359 32.734375 22.56640625 C34.62377057 26.19941069 34.03176888 29.19963753 33 33 C31.72592318 36.44072118 30.183803 39.71058473 28.5625 43 C28.11729004 43.91700684 27.67208008 44.83401367 27.21337891 45.77880859 C11.74411456 77.038141 -12.44666334 105.69627893 -40 127 C-41.01707031 127.82242188 -42.03414062 128.64484375 -43.08203125 129.4921875 C-55.23345225 139.29433377 -68.03354602 148.31740485 -81.25 156.625 C-119.09670104 180.64053297 -152.7448794 214.26087024 -172 255 C-137.54959381 270.0628029 -101.08931931 272.30695412 -65 261 C-64.36771484 260.80599609 -63.73542969 260.61199219 -63.08398438 260.41210938 C-33.46965531 251.1850929 -7.68662231 234.908795 15 214 C16.4948602 212.66090674 17.99449524 211.32711461 19.5 210 C20.1290625 209.443125 20.758125 208.88625 21.40625 208.3125 C23 207 23 207 25 206 C22.71770736 210.90310715 19.38096633 214.81108215 16 219 C15.319375 219.86882812 14.63875 220.73765625 13.9375 221.6328125 C0.41577819 238.31256802 -15.49318603 254.53269443 -33 267 C-34.07366777 267.81109134 -35.14524548 268.6249559 -36.21484375 269.44140625 C-69.31860013 294.36928649 -108.3277397 307.98382581 -149.91503906 303.69970703 C-159.60687383 302.23153059 -174.93987667 299.21759605 -181.8828125 292.05859375 C-184.33774133 287.53500111 -183.40402019 282.65751872 -182.23828125 277.875 C-180.42648371 271.80225569 -178.27878793 265.92431246 -175.734375 260.12109375 C-174.78188644 257.74412739 -174.78188644 257.74412739 -175 254 C-177.23315537 252.33876561 -177.23315537 252.33876561 -180.1875 250.9375 C-190.43493929 245.30504223 -198.94458533 237.43008512 -207 229 C-196.68284292 210.29655042 -184.81405986 193.11706446 -170.26171875 177.4453125 C-168.3095112 175.3346356 -166.42693722 173.18772443 -164.5625 171 C-157.63719257 163.04569642 -149.98843179 155.86598863 -142 149 C-141.369729 148.45770752 -140.73945801 147.91541504 -140.09008789 147.35668945 C-125.61074644 134.99801232 -110.11134321 124.36446545 -94.25 113.875 C-80.9946258 105.09663881 -68.60178789 95.88141544 -57 85 C-55.58910329 83.76421458 -54.17289474 82.53445159 -52.75 81.3125 C-45.33441862 74.82950695 -39.1248395 67.71127334 -33 60 C-31.78957031 58.515 -31.78957031 58.515 -30.5546875 57 C-17.87412503 41.09960819 -7.60130273 22.63030856 -1.69140625 3.125 C-1 1 -1 1 0 0 Z " fill="#9D5E5E" transform="translate(423,208)"/>
<path d="M0 0 C3.1697361 1.38920533 6.05336782 3.19212271 9 5 C10.22503737 5.72303429 11.45031677 6.4456586 12.67578125 7.16796875 C21.88472855 12.67224451 30.15052637 18.69089655 38 26 C38.6614502 26.61230469 39.32290039 27.22460938 40.00439453 27.85546875 C55.17140436 42.04992152 66.81756217 57.96141216 77 76 C77.65226562 77.12921875 78.30453125 78.2584375 78.9765625 79.421875 C85.92850556 91.73704225 90.96818606 104.95577562 96.2265625 118.05566406 C103.53324959 136.24577943 111.21611387 154.98297832 122.98828125 170.81640625 C124.46328621 173.99991117 123.94733371 175.62637278 123 179 C121.74379635 182.12022377 120.31705858 185.14951995 118.875 188.1875 C115.24416426 195.98403575 112.0816914 203.8263818 109.38427734 211.99487305 C108.30310272 215.1309573 107.38922283 217.53828334 105.23828125 220.08984375 C101.72180721 221.51975379 99.65549483 220.99285045 96 220 C92.91363541 218.40009376 90.09665722 216.4899934 87.25 214.5 C86.45577637 213.95609619 85.66155273 213.41219238 84.84326172 212.85180664 C65.14489638 199.21216271 46.66791202 181.95735184 32 163 C31.00719327 161.75856818 30.01365217 160.51772343 29.01953125 159.27734375 C-1.33730108 120.9875413 -23.47708929 72.86833955 -18.57421875 23.05078125 C-17.45422713 14.02206872 -15.60159256 6.72885217 -9 0 C-5.91687281 -1.5415636 -3.20464785 -0.87230762 0 0 Z " fill="#AF6B6B" transform="translate(48,122)"/>
<path d="M0 0 C0.98355469 0.80308594 1.96710938 1.60617188 2.98046875 2.43359375 C2.98046875 3.09359375 2.98046875 3.75359375 2.98046875 4.43359375 C3.50769531 4.65402344 4.03492188 4.87445313 4.578125 5.1015625 C7.86156572 6.92213695 10.59260931 9.29989341 13.41796875 11.74609375 C14.03051514 12.27517334 14.64306152 12.80425293 15.27416992 13.34936523 C25.46813285 22.26073942 34.60610221 31.78821255 42.98046875 42.43359375 C43.93399437 43.59946194 44.88985978 44.76341915 45.84765625 45.92578125 C51.08629468 52.31299367 56.11918638 58.80673077 60.79296875 65.62109375 C61.23181396 66.24467773 61.67065918 66.86826172 62.12280273 67.51074219 C63.68296995 69.84282879 64.93065528 71.73365064 65.1328125 74.57421875 C63.31001835 77.51540524 60.56467571 79.12974709 57.73046875 80.99609375 C39.73587404 93.34862844 23.08798761 108.82312799 8.98046875 125.43359375 C8.13484375 126.41328125 7.28921875 127.39296875 6.41796875 128.40234375 C0.91667908 134.80553173 -4.29177826 141.32870536 -9.2421875 148.16796875 C-11.01953125 150.43359375 -11.01953125 150.43359375 -13.01953125 151.43359375 C-19.26851832 139.64801509 -24.85859099 127.76615223 -29.64453125 115.30859375 C-48.86088272 65.34946012 -76.07091936 21.95447935 -121.40625 -7.79296875 C-125.75224298 -10.74226743 -125.75224298 -10.74226743 -126.76953125 -13.87890625 C-127.07497634 -17.16244093 -126.58680975 -18.6719237 -125.01953125 -21.56640625 C-86.01204518 -45.58078693 -32.86677942 -23.89397167 0 0 Z " fill="#AF6B6B" transform="translate(207.01953125,109.56640625)"/>
<path d="M0 0 C1 1 1 1 1.375 4.1875 C0.99333239 25.67538621 -17.75302256 51.24678478 -32 66 C-33.21690479 67.40931069 -34.42604311 68.82538909 -35.625 70.25 C-39.11574686 74.23942498 -42.91295841 77.63191502 -47 81 C-47.51030762 81.42796875 -48.02061523 81.8559375 -48.54638672 82.296875 C-57.48984104 89.77844323 -66.78948154 96.27868827 -76.64013672 102.49902344 C-88.01163407 109.73179457 -99.30879351 117.07060944 -109.73901367 125.625 C-112.3781045 127.78527899 -114.85786343 129.64368206 -118 131 C-118.44988281 130.41734375 -118.89976562 129.8346875 -119.36328125 129.234375 C-132.09216525 113.01078737 -146.67358064 97.63546316 -163 85 C-163.86367187 84.30261719 -164.72734375 83.60523437 -165.6171875 82.88671875 C-168.04964289 80.90795018 -168.04964289 80.90795018 -171 79 C-162.05862647 66.2841942 -152.72208647 54.28640681 -142 43 C-141.44425293 42.41025391 -140.88850586 41.82050781 -140.31591797 41.21289062 C-121.19363691 21.0439051 -98.18352118 4.57156331 -71.6875 -4.375 C-70.98343018 -4.6136377 -70.27936035 -4.85227539 -69.55395508 -5.09814453 C-47.54715227 -12.15890507 -20.17223168 -12.30460391 0 0 Z " fill="#9C5D5D" transform="translate(393,9)"/>
<path d="M0 0 C10.83836634 8.76664641 14.97360108 26.88067551 16.52734375 40.1171875 C19.13887578 67.83636434 10.50372353 94.14570665 -3 118 C-3.50144531 117.82984375 -4.00289063 117.6596875 -4.51953125 117.484375 C-20.26611276 112.44117683 -35.3274681 110.39442557 -51.8125 110.6875 C-53.48631678 110.69904805 -55.16014679 110.70881614 -56.83398438 110.71679688 C-70.63074147 110.81691959 -84.08075713 111.49933339 -97.625 114.3125 C-98.65367187 114.51294922 -99.68234375 114.71339844 -100.7421875 114.91992188 C-107.21733352 116.23366067 -113.32044267 118.0198476 -119.51708984 120.31713867 C-122 121 -122 121 -125 120 C-116.06523436 112.94416302 -106.90054638 106.57007425 -97.1875 100.625 C-73.09033595 85.81301647 -50.41047478 68.49833311 -33 46 C-32.195625 44.96230469 -31.39125 43.92460938 -30.5625 42.85546875 C-21.76888441 31.19268405 -14.00467635 17.98951591 -9.81640625 3.93359375 C-7.92828966 -0.53826133 -4.25282233 -0.52075375 0 0 Z " fill="#9C5D5D" transform="translate(427,39)"/>
<path d="M0 0 C0.66 0 1.32 0 2 0 C2.49628906 0.88300781 2.99257812 1.76601563 3.50390625 2.67578125 C4.18995126 3.88810737 4.87615814 5.10034191 5.5625 6.3125 C5.88541016 6.88806641 6.20832031 7.46363281 6.54101562 8.05664062 C9.82079714 13.8353033 13.40373285 19.41438997 17 25 C16.60208252 25.67466309 16.20416504 26.34932617 15.79418945 27.04443359 C13.96356617 30.15263783 12.13801046 33.26379037 10.3125 36.375 C9.68666016 37.43589844 9.06082031 38.49679687 8.41601562 39.58984375 C4.69042533 45.94870468 1.18863531 52.35476119 -2 59 C-5.04500205 57.67855342 -6.72974423 56.4293858 -8.65625 53.734375 C-9.12160156 53.09113281 -9.58695313 52.44789063 -10.06640625 51.78515625 C-10.77603516 50.77775391 -10.77603516 50.77775391 -11.5 49.75 C-11.97308594 49.09386719 -12.44617188 48.43773437 -12.93359375 47.76171875 C-13.86412882 46.46515604 -14.78622559 45.16248997 -15.69921875 43.85351562 C-16.53614708 42.66095559 -17.39170351 41.4811435 -18.26953125 40.31835938 C-21.07303063 36.48883702 -21.07303063 36.48883702 -20.70678711 34.03735352 C-19.55517902 30.71777855 -17.79444024 27.73046342 -16.0625 24.6875 C-15.47275391 23.64420532 -15.47275391 23.64420532 -14.87109375 22.57983398 C-4.50311323 4.50311323 -4.50311323 4.50311323 0 0 Z " fill="#865151" transform="translate(194,262)"/>
<path d="M0 0 C0.969375 0.825 1.93875 1.65 2.9375 2.5 C3.58460938 3.05042969 4.23171875 3.60085938 4.8984375 4.16796875 C6.28121887 5.37340455 7.64173258 6.60495344 8.9765625 7.86328125 C15.41612615 13.88077612 22.54103215 18.37889138 30 23 C30.99 23.66 31.98 24.32 33 25 C32.39363767 30.76044212 30.24341721 35.72014369 28 41 C14.57390417 38.90292579 1.94467244 27.5353516 -6.3984375 17.28125 C-7.39533256 13.50081677 -5.32566553 10.55754437 -3.625 7.25 C-3.28210938 6.55261719 -2.93921875 5.85523438 -2.5859375 5.13671875 C-1.73807625 3.41744455 -0.87086187 1.70773888 0 0 Z " fill="#865151" transform="translate(216,437)"/>
</svg>
