<?xml version="1.0" encoding="UTF-8"?>
<svg version="1.1" xmlns="http://www.w3.org/2000/svg" width="512" height="512">
<path d="M0 0 C1.3440199 -0.00967334 1.3440199 -0.00967334 2.71519172 -0.0195421 C3.6955304 -0.01644489 4.67586908 -0.01334769 5.68591499 -0.01015663 C6.7304887 -0.01468774 7.77506241 -0.01921886 8.85128987 -0.02388728 C12.36270727 -0.03657998 15.87397055 -0.03490776 19.3854084 -0.03325844 C21.89840076 -0.03924062 24.41139127 -0.04604544 26.92437935 -0.05361366 C33.04867295 -0.06947237 39.17290979 -0.07572339 45.297222 -0.07683842 C50.27515133 -0.07778867 55.25306796 -0.08189779 60.23099327 -0.08823967 C74.34338042 -0.10585304 88.45573715 -0.11507836 102.56813537 -0.11357872 C103.32896828 -0.11349881 104.08980119 -0.1134189 104.87368965 -0.11333656 C106.01633192 -0.11321392 106.01633192 -0.11321392 107.18205787 -0.1130888 C119.52886813 -0.11227581 131.87555642 -0.13141641 144.22233139 -0.1596133 C156.89897481 -0.18833516 169.57555874 -0.20215399 182.25223553 -0.20042574 C189.36962479 -0.19976161 196.48688618 -0.20526399 203.60424614 -0.22678185 C210.29701942 -0.24688634 216.98947762 -0.24632714 223.68227959 -0.23174858 C226.14052919 -0.22965243 228.59879547 -0.23440904 231.05701637 -0.2464695 C234.40938513 -0.26185323 237.76081329 -0.25265842 241.11316109 -0.23720741 C242.08903832 -0.24749454 243.06491556 -0.25778167 244.07036483 -0.26838052 C249.87701655 -0.20912009 253.06196548 0.46755257 257.52652168 4.25726891 C263.60398674 10.94734394 267.26484229 20.31041337 271.242342 28.35272789 C272.41272031 30.71739494 273.5939373 33.07642068 274.77652168 35.43500328 C275.52455555 36.93663874 276.27197448 38.43858072 277.01870918 39.94086266 C277.3717411 40.64601509 277.72477303 41.35116753 278.08850288 42.07768822 C280.52652168 47.02612517 280.52652168 47.02612517 280.52652168 49.25726891 C281.26257637 49.21086266 281.99863106 49.16445641 282.75699043 49.11664391 C290.79653413 48.81927637 290.79653413 48.81927637 294.65152168 51.13226891 C298.6244074 55.63487272 297.71036859 60.38230188 297.71402168 66.13226891 C297.72626778 67.13902672 297.73851387 68.14578453 297.75113106 69.18305016 C297.75306465 70.15371422 297.75499825 71.12437828 297.75699043 72.12445641 C297.76109932 73.01245934 297.76520821 73.90046227 297.7694416 74.81537437 C297.50547707 77.4688149 296.97566932 79.02850698 295.52652168 81.25726891 C291.38669377 84.01715418 288.08438675 83.41980364 283.22842598 83.31537437 C282.33679756 83.29619957 281.44516914 83.27702477 280.52652168 83.25726891 C280.54319893 84.34394859 280.55987617 85.43062828 280.57705879 86.55023766 C280.74280375 103.16326352 280.01336334 119.73540964 279.29971504 136.32855797 C279.12137858 140.4760662 278.95067576 144.62384938 278.78210735 148.77176476 C278.65030791 151.99579743 278.51471236 155.21966175 278.37794495 158.44348717 C278.31342268 159.97440414 278.25003654 161.50536947 278.18783951 163.03638268 C278.10088143 165.16227928 278.00883649 167.28789681 277.9154377 169.41351891 C277.86436363 170.61814781 277.81328957 171.82277672 277.7606678 173.06390953 C277.55391779 175.883632 277.15813173 178.50577901 276.52652168 181.25726891 C277.19038887 181.22246422 277.85425606 181.18765953 278.53824043 181.15180016 C287.49640414 180.87717032 287.49640414 180.87717032 291.52652168 184.25726891 C292.76807225 186.74037003 292.66022363 188.40118817 292.66908455 191.17972374 C292.67258195 192.21753298 292.67607935 193.25534222 292.67968273 194.32460022 C292.67432333 196.03803147 292.67432333 196.03803147 292.66885567 197.7860775 C292.66643332 198.98712309 292.66401098 200.18816868 292.66151524 201.42560959 C292.5805222 215.80079339 291.97289415 230.15330339 291.34787869 244.51285791 C291.17886478 248.42304851 291.0162602 252.33350673 290.85280037 256.24393272 C290.57827105 262.79069613 290.29963218 269.33727321 290.01797676 275.88373375 C289.65874298 284.23366404 289.30607067 292.58385775 288.95556164 300.93415833 C288.65064713 308.1979728 288.34317412 315.46167864 288.03507113 322.72535849 C287.96979192 324.26521368 287.90459744 325.80507247 287.83949018 327.34493494 C287.46457897 336.21191512 287.07890283 345.07820047 286.67247581 353.94379997 C286.54168121 356.9131154 286.42851465 359.88239841 286.32214546 362.85266685 C286.2572234 364.38778319 286.19185708 365.92288085 286.12588692 367.4579525 C286.08060356 368.68710381 286.03532021 369.91625511 285.98866463 371.18265343 C285.48063699 374.56253764 284.55446897 376.52673937 282.52652168 379.25726891 C279.76200136 380.63952907 277.48038538 380.35252277 274.40152168 380.31976891 C273.30581856 380.31074547 272.21011543 380.30172203 271.08120918 380.29242516 C270.23816231 380.28082359 269.39511543 380.26922203 268.52652168 380.25726891 C268.50670235 381.09644859 268.48688301 381.93562828 268.46646309 382.80023766 C268.0132581 401.48930955 267.43917959 420.17415703 266.7124958 438.85468102 C266.63044034 440.99128686 266.55136023 443.12800913 266.47531319 445.26483727 C266.36674739 448.29005464 266.24689483 451.31462789 266.12417793 454.33930016 C266.09392021 455.23897011 266.06366249 456.13864006 266.03248787 457.06557274 C265.71285183 464.43062393 264.98086276 470.80292782 259.52652168 476.25726891 C255.29073189 478.92765812 252.45830716 479.38777576 247.52652168 479.25726891 C247.54746895 480.11481773 247.56841621 480.97236656 247.58999825 481.85590172 C247.65828695 485.04645363 247.70837682 488.23663236 247.74624825 491.42767906 C247.7663281 492.80703571 247.79359834 494.1863076 247.8282795 495.56537437 C247.87694985 497.55083869 247.89738586 499.53693145 247.91714668 501.52289391 C247.93809395 502.71688805 247.95904121 503.91088219 247.98062325 505.14105797 C247.52652168 508.25726891 247.52652168 508.25726891 246.09597969 510.42028618 C242.20327254 513.20329947 238.63714691 512.81058279 233.961092 512.76520348 C232.98044399 512.77144344 231.99979599 512.7776834 230.98943138 512.78411245 C227.69426059 512.80010282 224.39982333 512.78741425 221.10464668 512.77484703 C218.74604039 512.78026544 216.38743748 512.78738652 214.02884102 512.79608727 C207.61570664 512.81435675 201.20282902 512.80723797 194.78969002 512.79457092 C190.78615022 512.78746757 186.78262809 512.78879794 182.77908516 512.79253197 C182.11469531 512.7931449 181.45030547 512.79375783 180.76578259 512.79438934 C179.41613164 512.79566823 178.0664807 512.79696508 176.71682978 512.7982797 C164.05799806 512.80968877 151.39928217 512.79656673 138.74046946 512.77507824 C127.87612677 512.75720691 117.01195503 512.76031093 106.14761543 512.77875328 C93.53441617 512.80015428 80.92131844 512.8085901 68.30810356 512.79630423 C66.96338846 512.79503002 65.61867334 512.79377253 64.27395821 512.79253197 C63.61231454 512.79191487 62.95067088 512.79129776 62.2689774 512.79066196 C57.6040149 512.78720672 52.93915214 512.7932361 48.27420235 512.80245018 C41.99672377 512.8139826 35.71956884 512.80603034 29.44212532 512.78287315 C27.13462551 512.77757215 24.82709857 512.77912346 22.51960945 512.78792381 C19.37668573 512.79880761 16.23480792 512.78520179 13.09195137 512.76520348 C12.17250362 512.77412636 11.25305588 512.78304925 10.30574608 512.79224253 C4.16839984 512.71616688 4.16839984 512.71616688 0.95706367 510.42028618 C-1.05923564 507.37158837 -0.92783007 505.1553186 -0.86410332 501.52289391 C-0.85121269 500.22738609 -0.83832207 498.93187828 -0.82504082 497.59711266 C-0.79162198 496.23382066 -0.75776223 494.87053942 -0.72347832 493.50726891 C-0.70340539 492.12838826 -0.68515599 490.74947979 -0.66879082 489.37055016 C-0.62163279 485.99875146 -0.5558237 482.62836204 -0.47347832 479.25726891 C-1.39797783 479.17944176 -1.39797783 479.17944176 -2.3411541 479.10004234 C-3.15052422 479.02302086 -3.95989433 478.94599937 -4.79379082 478.86664391 C-5.59574883 478.79413414 -6.39770683 478.72162437 -7.2239666 478.64691734 C-11.59372252 477.8900115 -13.73926549 475.27992249 -16.22347832 471.81976891 C-18.5123022 467.12767994 -18.6483117 462.43381768 -18.86239433 457.27069664 C-18.90650444 456.24512909 -18.90650444 456.24512909 -18.95150566 455.198843 C-19.0473517 452.9463269 -19.13749633 450.69362377 -19.22738457 448.44086266 C-19.29294254 446.86248722 -19.35877857 445.2841233 -19.42487907 443.70577049 C-19.56261833 440.39645432 -19.69765359 437.08704244 -19.83065605 433.77753258 C-19.99998529 429.56706091 -20.17493871 425.35684724 -20.3518362 421.14668751 C-20.48846312 417.88393999 -20.62255552 414.62109207 -20.75587082 411.3582077 C-20.81941122 409.80788141 -20.88358949 408.25758111 -20.94845581 406.70730972 C-21.31551986 397.88757187 -21.56815895 389.08678403 -21.47347832 380.25726891 C-22.35551933 380.28603111 -23.23756035 380.31479332 -24.14632988 380.34442711 C-32.8228233 380.62735624 -32.8228233 380.62735624 -35.80160332 378.93305016 C-38.59130077 376.13683472 -38.62804093 373.23392532 -38.79891777 369.47333336 C-38.84613976 368.47839363 -38.89336174 367.4834539 -38.94201469 366.45836449 C-38.9897805 365.35688576 -39.03754631 364.25540703 -39.08675957 363.12055016 C-39.14113182 361.94281532 -39.19550407 360.76508049 -39.25152397 359.55165672 C-39.40241377 356.25558741 -39.5492028 352.95938598 -39.69381142 349.66303825 C-39.7861675 347.56547219 -39.87990248 345.46797238 -39.97411919 343.37048912 C-40.36252678 334.72212174 -40.74278167 326.07341803 -41.11822414 317.42447853 C-41.36606323 311.7168984 -41.6160602 306.00941699 -41.86739063 300.30198956 C-42.38181059 288.61873656 -42.88802008 276.93515236 -43.38763237 265.25125694 C-43.56778753 261.04137486 -43.75036526 256.8316089 -43.93505669 252.62192345 C-45.62335048 214.04050626 -45.62335048 214.04050626 -45.77425957 197.15570641 C-45.79256325 196.07600578 -45.81086693 194.99630516 -45.82972527 193.88388634 C-45.82987129 192.91575005 -45.83001732 191.94761375 -45.83016777 190.95014 C-45.83434212 190.13032646 -45.83851646 189.31051292 -45.84281731 188.46585655 C-45.37525253 185.66989452 -44.40453378 184.30891469 -42.47347832 182.25726891 C-39.45857275 181.25230038 -37.4316614 181.15391588 -34.28597832 181.19476891 C-33.38492363 181.20379234 -32.48386894 181.21281578 -31.55550957 181.22211266 C-30.5249041 181.239515 -30.5249041 181.239515 -29.47347832 181.25726891 C-29.63045692 180.57342125 -29.78743553 179.88957359 -29.94917107 179.18500328 C-30.53652023 175.90524256 -30.72122848 172.74304567 -30.86239433 169.41351891 C-30.89180107 168.74426384 -30.92120781 168.07500877 -30.95150566 167.38547325 C-31.04745908 165.17622204 -31.13762374 162.96677977 -31.22738457 160.75726891 C-31.29299824 159.20045632 -31.3588337 157.64365308 -31.42487907 156.08685875 C-31.56273686 152.81531372 -31.6976945 149.5436649 -31.83065605 146.27191734 C-31.9987317 142.14231678 -32.17422307 138.01307187 -32.35181427 133.88387108 C-33.07447166 117.00368775 -33.73284298 100.15731997 -33.47347832 83.25726891 C-34.35551933 83.29561852 -35.23756035 83.33396812 -36.14632988 83.37347984 C-44.86365567 83.75249401 -44.86365567 83.75249401 -47.80160332 81.36664391 C-51.44615459 76.76837828 -50.73172613 72.11231355 -50.78597832 66.44476891 C-50.81498222 65.44639 -50.84398613 64.44801109 -50.87386894 63.41937828 C-50.93790048 56.02619879 -50.93790048 56.02619879 -48.57894707 52.12055016 C-45.2123837 49.14123527 -43.26683184 49.1433927 -38.84847832 49.19476891 C-37.34414238 49.20830406 -37.34414238 49.20830406 -35.80941582 49.22211266 C-35.03855644 49.23371422 -34.26769707 49.24531578 -33.47347832 49.25726891 C-33.21985527 48.42767662 -32.96623222 47.59808434 -32.70492363 46.74335289 C-31.32128483 42.82642616 -29.61410881 39.19628714 -27.77035332 35.47992516 C-27.41008049 34.75035103 -27.04980766 34.0207769 -26.67861748 33.26909447 C-25.91758452 31.73258128 -25.15433903 30.19716218 -24.38900566 28.66278648 C-23.23117321 26.33523768 -22.08849624 24.00064435 -20.94613457 21.66547203 C-20.20096422 20.16566393 -19.45489903 18.66630003 -18.70785332 17.16742516 C-18.37324089 16.47866798 -18.03862846 15.78991081 -17.69387627 15.08028221 C-13.87145212 7.50510571 -9.26864495 0.01689507 0 0 Z " fill="#966A5B" transform="translate(132.47347831726074,-0.25726890563964844)"/>
<path d="M0 0 C1.3440199 -0.00967334 1.3440199 -0.00967334 2.71519172 -0.0195421 C3.6955304 -0.01644489 4.67586908 -0.01334769 5.68591499 -0.01015663 C6.7304887 -0.01468774 7.77506241 -0.01921886 8.85128987 -0.02388728 C12.36270727 -0.03657998 15.87397055 -0.03490776 19.3854084 -0.03325844 C21.89840076 -0.03924062 24.41139127 -0.04604544 26.92437935 -0.05361366 C33.04867295 -0.06947237 39.17290979 -0.07572339 45.297222 -0.07683842 C50.27515133 -0.07778867 55.25306796 -0.08189779 60.23099327 -0.08823967 C74.34338042 -0.10585304 88.45573715 -0.11507836 102.56813537 -0.11357872 C103.32896828 -0.11349881 104.08980119 -0.1134189 104.87368965 -0.11333656 C106.01633192 -0.11321392 106.01633192 -0.11321392 107.18205787 -0.1130888 C119.52886813 -0.11227581 131.87555642 -0.13141641 144.22233139 -0.1596133 C156.89897481 -0.18833516 169.57555874 -0.20215399 182.25223553 -0.20042574 C189.36962479 -0.19976161 196.48688618 -0.20526399 203.60424614 -0.22678185 C210.29701942 -0.24688634 216.98947762 -0.24632714 223.68227959 -0.23174858 C226.14052919 -0.22965243 228.59879547 -0.23440904 231.05701637 -0.2464695 C234.40938513 -0.26185323 237.76081329 -0.25265842 241.11316109 -0.23720741 C242.08903832 -0.24749454 243.06491556 -0.25778167 244.07036483 -0.26838052 C249.87701655 -0.20912009 253.06196548 0.46755257 257.52652168 4.25726891 C263.60398674 10.94734394 267.26484229 20.31041337 271.242342 28.35272789 C272.41272031 30.71739494 273.5939373 33.07642068 274.77652168 35.43500328 C275.52455555 36.93663874 276.27197448 38.43858072 277.01870918 39.94086266 C277.3717411 40.64601509 277.72477303 41.35116753 278.08850288 42.07768822 C280.52652168 47.02612517 280.52652168 47.02612517 280.52652168 49.25726891 C281.26257637 49.21086266 281.99863106 49.16445641 282.75699043 49.11664391 C290.79653413 48.81927637 290.79653413 48.81927637 294.65152168 51.13226891 C298.6244074 55.63487272 297.71036859 60.38230188 297.71402168 66.13226891 C297.72626778 67.13902672 297.73851387 68.14578453 297.75113106 69.18305016 C297.75306465 70.15371422 297.75499825 71.12437828 297.75699043 72.12445641 C297.76109932 73.01245934 297.76520821 73.90046227 297.7694416 74.81537437 C297.50547707 77.4688149 296.97566932 79.02850698 295.52652168 81.25726891 C291.38669377 84.01715418 288.08438675 83.41980364 283.22842598 83.31537437 C282.33679756 83.29619957 281.44516914 83.27702477 280.52652168 83.25726891 C280.54319893 84.34467369 280.55987617 85.43207848 280.57705879 86.55243492 C280.7425456 103.14655045 280.01345894 119.69942484 279.29971504 136.27362633 C279.12152463 140.41207294 278.95075861 144.5507883 278.78210735 148.68963337 C278.65017516 151.90941176 278.51461977 155.12902967 278.37794495 158.34860992 C278.31349761 159.87591235 278.25011005 161.4032599 278.18783951 162.93065262 C278.10069049 165.05394072 278.00870212 167.17696638 277.9154377 169.29999352 C277.86436363 170.50240181 277.81328957 171.7048101 277.7606678 172.94365501 C277.52652168 176.25726891 277.52652168 176.25726891 276.52652168 182.25726891 C175.54652168 182.25726891 74.56652168 182.25726891 -29.47347832 182.25726891 C-30.21687427 177.7968932 -30.67207904 173.78048051 -30.86239433 169.29999352 C-30.89180107 168.63059242 -30.92120781 167.96119133 -30.95150566 167.27150536 C-31.04725335 165.06768459 -31.13752653 162.86368086 -31.22738457 160.65961266 C-31.2930168 159.10423009 -31.35885204 157.54885608 -31.42487907 155.99349022 C-31.56261315 152.72791711 -31.69758135 149.46224408 -31.83065605 146.19647789 C-31.99886488 142.07475864 -32.17433522 137.953387 -32.35181427 133.83205795 C-33.07462496 116.9690227 -33.73240772 100.1402168 -33.47347832 83.25726891 C-34.35551933 83.29561852 -35.23756035 83.33396812 -36.14632988 83.37347984 C-44.86365567 83.75249401 -44.86365567 83.75249401 -47.80160332 81.36664391 C-51.44615459 76.76837828 -50.73172613 72.11231355 -50.78597832 66.44476891 C-50.81498222 65.44639 -50.84398613 64.44801109 -50.87386894 63.41937828 C-50.93790048 56.02619879 -50.93790048 56.02619879 -48.57894707 52.12055016 C-45.2123837 49.14123527 -43.26683184 49.1433927 -38.84847832 49.19476891 C-37.34414238 49.20830406 -37.34414238 49.20830406 -35.80941582 49.22211266 C-35.03855644 49.23371422 -34.26769707 49.24531578 -33.47347832 49.25726891 C-33.21985527 48.42767662 -32.96623222 47.59808434 -32.70492363 46.74335289 C-31.32128483 42.82642616 -29.61410881 39.19628714 -27.77035332 35.47992516 C-27.41008049 34.75035103 -27.04980766 34.0207769 -26.67861748 33.26909447 C-25.91758452 31.73258128 -25.15433903 30.19716218 -24.38900566 28.66278648 C-23.23117321 26.33523768 -22.08849624 24.00064435 -20.94613457 21.66547203 C-20.20096422 20.16566393 -19.45489903 18.66630003 -18.70785332 17.16742516 C-18.37324089 16.47866798 -18.03862846 15.78991081 -17.69387627 15.08028221 C-13.87145212 7.50510571 -9.26864495 0.01689507 0 0 Z " fill="#F3DAB2" transform="translate(132.47347831726074,-0.25726890563964844)"/>
<path d="M0 0 C95.7 0 191.4 0 290 0 C288.77923034 43.9477076 288.77923034 43.9477076 288.17993164 58.83911133 C288.09959916 60.87314317 288.02329191 62.9073369 287.95043945 64.94165039 C287.84116296 67.98882896 287.72073288 71.03538266 287.59765625 74.08203125 C287.55222435 75.43334892 287.55222435 75.43334892 287.50587463 76.81196594 C287.18609805 84.17578681 286.45334483 90.54665517 281 96 C276.76421021 98.67038921 273.93178547 99.13050686 269 99 C269.02094727 99.85754883 269.04189453 100.71509766 269.06347656 101.59863281 C269.13176527 104.78918472 269.18185513 107.97936346 269.21972656 111.17041016 C269.23980642 112.5497668 269.26707666 113.92903869 269.30175781 115.30810547 C269.35042817 117.29356979 269.37086418 119.27966254 269.390625 121.265625 C269.41157227 122.45961914 269.43251953 123.65361328 269.45410156 124.88378906 C269 128 269 128 267.56945801 130.16301727 C263.67675086 132.94603057 260.11062523 132.55331389 255.43457031 132.50793457 C254.45392231 132.51417453 253.47327431 132.5204145 252.4629097 132.52684355 C249.16773891 132.54283391 245.87330164 132.53014534 242.578125 132.51757812 C240.21951871 132.52299654 237.8609158 132.53011761 235.50231934 132.53881836 C229.08918495 132.55708785 222.67630733 132.54996907 216.26316833 132.53730202 C212.25962854 132.53019867 208.2561064 132.53152904 204.25256348 132.53526306 C203.58817363 132.53587599 202.92378378 132.53648893 202.23926091 132.53712043 C200.88960996 132.53839932 199.53995902 132.53969617 198.19030809 132.5410108 C185.53147638 132.55241986 172.87276049 132.53929782 160.21394777 132.51780933 C149.34960509 132.49993801 138.48543335 132.50304203 127.62109375 132.52148438 C115.00789449 132.54288538 102.39479676 132.5513212 89.78158188 132.53903532 C88.43686678 132.53776111 87.09215166 132.53650363 85.74743652 132.53526306 C85.08579286 132.53464596 84.42414919 132.53402886 83.74245572 132.53339306 C79.07749322 132.52993782 74.41263046 132.5359672 69.74768066 132.54518127 C63.47020208 132.55671369 57.19304716 132.54876144 50.91560364 132.52560425 C48.60810382 132.52030324 46.30057689 132.52185456 43.99308777 132.53065491 C40.85016404 132.5415387 37.70828624 132.52793288 34.56542969 132.50793457 C33.64598194 132.51685746 32.72653419 132.52578034 31.7792244 132.53497362 C25.64187815 132.45889798 25.64187815 132.45889798 22.43054199 130.16301727 C20.41424268 127.11431947 20.54564825 124.8980497 20.609375 121.265625 C20.62226563 119.97011719 20.63515625 118.67460937 20.6484375 117.33984375 C20.68185634 115.97655176 20.71571609 114.61327051 20.75 113.25 C20.77007293 111.87111936 20.78832233 110.49221088 20.8046875 109.11328125 C20.85184552 105.74148256 20.91765462 102.37109313 21 99 C20.38366699 98.94811523 19.76733398 98.89623047 19.13232422 98.84277344 C18.3229541 98.76575195 17.51358398 98.68873047 16.6796875 98.609375 C15.87772949 98.53686523 15.07577148 98.46435547 14.24951172 98.38964844 C9.8797558 97.63274259 7.73421283 95.02265359 5.25 91.5625 C2.96117612 86.87041104 2.82516662 82.17654877 2.61108398 77.01342773 C2.58167725 76.32971603 2.55227051 75.64600433 2.52197266 74.9415741 C2.42612662 72.68905799 2.33598199 70.43635487 2.24609375 68.18359375 C2.18053578 66.60521831 2.11469975 65.0268544 2.04859924 63.44850159 C1.91085998 60.13918541 1.77582473 56.82977353 1.64282227 53.52026367 C1.47349303 49.30979201 1.29853961 45.09957834 1.12164211 40.8894186 C0.9850152 37.62667108 0.8509228 34.36382316 0.7176075 31.1009388 C0.6540671 29.5506125 0.58988882 28.0003122 0.52502251 26.45004082 C0.43405242 24.26423081 0.34638044 22.07831077 0.25952148 19.89233398 C0.20924301 18.65499008 0.15896454 17.41764618 0.10716248 16.14280701 C-0.03198334 10.76355212 0 5.38105423 0 0 Z " fill="#F3DAB2" transform="translate(111,380)"/>
<path d="M0 0 C0.89027948 -0.01242768 1.78055896 -0.02485537 2.69781661 -0.03765965 C3.50727961 -0.05326923 4.3167426 -0.06887881 5.15073478 -0.08496141 C8.17152295 0.10445869 10.01741306 1.12497131 12.31341529 3.0506506 C13.55338177 5.53058357 13.44710477 7.1846141 13.45597816 9.95950985 C13.45947556 10.99530084 13.46297296 12.03109182 13.46657634 13.09827042 C13.46300341 14.23908664 13.45943048 15.37990286 13.45574927 16.55528927 C13.45332693 17.75555594 13.45090459 18.95582262 13.44840884 20.19246101 C13.36673122 34.69684166 12.75821702 49.17948435 12.1347723 63.66848683 C11.96607405 67.61320104 11.80333968 71.55816252 11.63969398 75.50308895 C11.36531615 82.0960157 11.08653838 88.6887444 10.80487037 95.28136349 C10.4799661 102.88702697 10.16181693 110.49295072 9.84721929 118.09904701 C9.54213387 125.47235384 9.23280645 132.84547652 8.92138457 140.21851826 C8.78972454 143.33673232 8.65945773 146.45499989 8.53032088 149.57331944 C8.37864942 153.23040519 8.22323032 156.88731322 8.06493163 160.54411793 C7.98035157 162.5178505 7.89941886 164.49173833 7.81860328 166.46562862 C7.74081389 168.2369289 7.74081389 168.2369289 7.66145301 170.04401302 C7.61812874 171.06531968 7.57480447 172.08662634 7.53016734 173.13888168 C7.3055725 176.15600786 6.85553591 179.07553562 6.31341529 182.0506506 C-19.88591238 182.14410453 -46.08521505 182.21463509 -72.28467584 182.25789928 C-84.44962663 182.27852181 -96.61447384 182.30663666 -108.77935815 182.35240841 C-119.38264607 182.39228545 -129.98585898 182.41808566 -140.58921981 182.42700458 C-146.20329696 182.43221781 -151.81715949 182.44446468 -157.43116784 182.47357082 C-162.71706894 182.50075342 -168.00266732 182.50908974 -173.28863168 182.50308132 C-175.22680709 182.50418028 -177.1649928 182.51211709 -179.10310769 182.5274725 C-181.75439012 182.54744499 -184.40453739 182.5425635 -187.05584741 182.53166866 C-188.19985064 182.54914571 -188.19985064 182.54914571 -189.36696506 182.56697583 C-195.85401827 182.49517762 -200.93206823 180.37126979 -205.89361596 176.1912756 C-206.68832299 175.25541622 -206.68832299 175.25541622 -207.49908471 174.3006506 C-208.31312768 173.38025997 -208.31312768 173.38025997 -209.14361596 172.4412756 C-214.34247261 164.3863382 -214.05918014 156.8908506 -213.87408471 147.5506506 C-213.86054955 146.2512756 -213.8470144 144.9519006 -213.83306909 143.6131506 C-213.79790805 140.42521648 -213.74869135 137.23815461 -213.68658471 134.0506506 C-210.81345519 134.99283001 -207.98992665 135.91934619 -205.21392846 137.1209631 C-192.10595344 142.45905247 -176.50238446 141.90098383 -163.53033471 136.4959631 C-159.89563752 134.6486582 -156.81763349 132.65985791 -153.68658471 130.0506506 C-153.53963159 130.88467403 -153.39267846 131.71869747 -153.24127221 132.57799435 C-151.06004652 143.52173012 -147.03623933 151.63498801 -137.68658471 158.0506506 C-127.31621063 164.02031243 -116.32871842 164.33986903 -104.59674096 162.5897131 C-90.07539071 158.58869277 -79.35567927 149.59655406 -71.69390893 136.8787756 C-65.94979434 126.45416821 -63.66979902 114.71494219 -66.38580346 103.04674435 C-69.78939627 92.72107671 -74.96060712 85.12172291 -84.68658471 80.0506506 C-94.94742903 74.89614195 -106.0227693 74.31785745 -116.99908471 77.6756506 C-125.34479859 80.85016273 -132.54565167 85.77256965 -139.68658471 91.0506506 C-139.89412377 90.04647091 -140.10166284 89.04229122 -140.31549096 88.00768185 C-144.2043264 70.31652555 -152.45833106 55.75657018 -167.40533471 45.09361935 C-182.69064311 35.57669519 -196.24707451 34.80502369 -213.68658471 35.0506506 C-213.68658471 23.8306506 -213.68658471 12.6106506 -213.68658471 1.0506506 C-186.34830949 0.91998768 -159.01003308 0.78957688 -131.67175508 0.65949917 C-118.97780444 0.59909401 -106.28385424 0.53860016 -93.58990502 0.47789669 C-82.52441193 0.42498085 -71.45891805 0.37223227 -60.3934232 0.31968355 C-54.53568987 0.29186006 -48.67795697 0.26395347 -42.820225 0.23584652 C-37.30293966 0.20937577 -31.78565331 0.18312922 -26.2683661 0.15705204 C-24.24719413 0.14746002 -22.22602255 0.13778723 -20.20485139 0.12802601 C-17.43640387 0.11466814 -14.66795511 0.10160624 -11.89950585 0.08861446 C-11.10764418 0.08472352 -10.3157825 0.08083257 -9.49992502 0.07682371 C-7.99763615 0.06989164 -6.49533572 0.06507714 -4.99303293 0.06258202 C-3.32858016 0.05397168 -1.66417931 0.03137503 0 0 Z " fill="#B47E5E" transform="translate(411.68658471107483,180.94934940338135)"/>
<path d="M0 0 C1.3440199 -0.00967334 1.3440199 -0.00967334 2.71519172 -0.0195421 C3.6955304 -0.01644489 4.67586908 -0.01334769 5.68591499 -0.01015663 C6.7304887 -0.01468774 7.77506241 -0.01921886 8.85128987 -0.02388728 C12.36270727 -0.03657998 15.87397055 -0.03490776 19.3854084 -0.03325844 C21.89840076 -0.03924062 24.41139127 -0.04604544 26.92437935 -0.05361366 C33.04867295 -0.06947237 39.17290979 -0.07572339 45.297222 -0.07683842 C50.27515133 -0.07778867 55.25306796 -0.08189779 60.23099327 -0.08823967 C74.34338042 -0.10585304 88.45573715 -0.11507836 102.56813537 -0.11357872 C103.32896828 -0.11349881 104.08980119 -0.1134189 104.87368965 -0.11333656 C106.01633192 -0.11321392 106.01633192 -0.11321392 107.18205787 -0.1130888 C119.52886813 -0.11227581 131.87555642 -0.13141641 144.22233139 -0.1596133 C156.89897481 -0.18833516 169.57555874 -0.20215399 182.25223553 -0.20042574 C189.36962479 -0.19976161 196.48688618 -0.20526399 203.60424614 -0.22678185 C210.29701942 -0.24688634 216.98947762 -0.24632714 223.68227959 -0.23174858 C226.14052919 -0.22965243 228.59879547 -0.23440904 231.05701637 -0.2464695 C234.40938513 -0.26185323 237.76081329 -0.25265842 241.11316109 -0.23720741 C242.08903832 -0.24749454 243.06491556 -0.25778167 244.07036483 -0.26838052 C249.87701655 -0.20912009 253.06196548 0.46755257 257.52652168 4.25726891 C263.60398674 10.94734394 267.26484229 20.31041337 271.242342 28.35272789 C272.41272031 30.71739494 273.5939373 33.07642068 274.77652168 35.43500328 C275.52455555 36.93663874 276.27197448 38.43858072 277.01870918 39.94086266 C277.3717411 40.64601509 277.72477303 41.35116753 278.08850288 42.07768822 C280.52652168 47.02612517 280.52652168 47.02612517 280.52652168 49.25726891 C281.26257637 49.21086266 281.99863106 49.16445641 282.75699043 49.11664391 C290.79653413 48.81927637 290.79653413 48.81927637 294.65152168 51.13226891 C298.6244074 55.63487272 297.71036859 60.38230188 297.71402168 66.13226891 C297.72626778 67.13902672 297.73851387 68.14578453 297.75113106 69.18305016 C297.75306465 70.15371422 297.75499825 71.12437828 297.75699043 72.12445641 C297.76109932 73.01245934 297.76520821 73.90046227 297.7694416 74.81537437 C297.50547707 77.4688149 296.97566932 79.02850698 295.52652168 81.25726891 C292.10895692 83.53564541 290.90468616 83.50901119 286.88988018 83.51453781 C285.1185391 83.52421115 285.1185391 83.52421115 283.31141335 83.53407991 C282.00773983 83.53098271 280.70406631 83.5278855 279.36088753 83.52469444 C277.9669641 83.52842904 276.57304276 83.5330298 275.17912477 83.53842509 C271.33986943 83.55069398 267.50070097 83.55039007 263.66143048 83.54803634 C259.52433998 83.54762915 255.38727771 83.55865782 251.25020027 83.56815147 C243.1418813 83.58478332 235.0335914 83.59026199 226.9252568 83.59137623 C220.33687555 83.59232559 213.74850393 83.59643027 207.16012573 83.60277748 C188.49402335 83.62039521 169.82794399 83.62961542 151.16183323 83.62811653 C150.15497583 83.62803662 149.14811843 83.62795671 148.1107502 83.62787437 C147.10266815 83.62779261 146.09458611 83.62771085 145.05595612 83.62762661 C128.71143065 83.62681338 112.36699726 83.64595914 96.02249844 83.67415111 C79.25299354 83.70284869 62.48353359 83.71669316 45.7140035 83.71496356 C36.29395215 83.71429861 26.87399734 83.71983659 17.45396805 83.74131966 C9.43480186 83.75949032 1.41577598 83.76391275 -6.60340183 83.75030081 C-10.69708013 83.74375047 -14.79048892 83.74372787 -18.88414192 83.76100731 C-22.62903653 83.77665248 -26.37344601 83.77396312 -30.11832816 83.75643905 C-32.1204419 83.75188272 -34.12257019 83.76709328 -36.12462658 83.78291833 C-37.30812838 83.77372074 -38.49163018 83.76452315 -39.71099567 83.75504684 C-41.24642368 83.75569895 -41.24642368 83.75569895 -42.81287044 83.75636423 C-46.18079233 83.12458603 -47.34161667 81.87946466 -49.47347832 79.25726891 C-51.40155516 75.40111522 -50.74537205 70.68677058 -50.78597832 66.44476891 C-50.81498222 65.44639 -50.84398613 64.44801109 -50.87386894 63.41937828 C-50.93790048 56.02619879 -50.93790048 56.02619879 -48.57894707 52.12055016 C-45.2123837 49.14123527 -43.26683184 49.1433927 -38.84847832 49.19476891 C-37.34414238 49.20830406 -37.34414238 49.20830406 -35.80941582 49.22211266 C-35.03855644 49.23371422 -34.26769707 49.24531578 -33.47347832 49.25726891 C-33.21985527 48.42767662 -32.96623222 47.59808434 -32.70492363 46.74335289 C-31.32128483 42.82642616 -29.61410881 39.19628714 -27.77035332 35.47992516 C-27.41008049 34.75035103 -27.04980766 34.0207769 -26.67861748 33.26909447 C-25.91758452 31.73258128 -25.15433903 30.19716218 -24.38900566 28.66278648 C-23.23117321 26.33523768 -22.08849624 24.00064435 -20.94613457 21.66547203 C-20.20096422 20.16566393 -19.45489903 18.66630003 -18.70785332 17.16742516 C-18.37324089 16.47866798 -18.03862846 15.78991081 -17.69387627 15.08028221 C-13.87145212 7.50510571 -9.26864495 0.01689507 0 0 Z " fill="#95695A" transform="translate(132.47347831726074,-0.25726890563964844)"/>
<path d="M0 0 C14.90072777 11.45090795 21.76375703 26.26432326 25.98828125 43.96484375 C26.58253906 43.44535156 27.17679687 42.92585938 27.7890625 42.390625 C40.0986777 32.03370148 52.8624512 27.63487839 68.98828125 28.96484375 C78.95260989 31.17356143 87.86995566 36.36495449 93.70703125 44.8125 C99.96498806 55.32510427 101.8177301 65.76924108 99.1171875 77.8671875 C96.7887725 85.84384761 93.24080221 92.50201036 87.98828125 98.96484375 C87.36566406 99.79628906 86.74304688 100.62773437 86.1015625 101.484375 C78.44416228 110.4722662 66.48712127 117.03579722 54.70678711 118.18798828 C52.31730169 118.30318626 49.94300678 118.34464212 47.55078125 118.33984375 C46.71329346 118.33823242 45.87580566 118.33662109 45.01293945 118.33496094 C38.89869102 118.21321309 34.17162694 117.37681672 28.98828125 113.96484375 C27.97765625 113.40796875 26.96703125 112.85109375 25.92578125 112.27734375 C16.49859616 104.85594272 12.1547136 96.65937176 9.98828125 84.96484375 C9.33085937 85.54492188 9.33085937 85.54492188 8.66015625 86.13671875 C-2.98265237 95.6970738 -16.53063916 96.34484029 -31.01171875 94.96484375 C-35.33704637 94.13698535 -39.04597259 92.85919571 -43.01171875 90.96484375 C-43.93984375 90.54074219 -44.86796875 90.11664063 -45.82421875 89.6796875 C-52.89491002 86.15416227 -58.43823732 81.51974691 -64.01171875 75.96484375 C-64.72328125 75.27648437 -65.43484375 74.588125 -66.16796875 73.87890625 C-77.52800944 62.12563338 -82.5514798 46.75873073 -82.43164062 30.66699219 C-81.989987 17.19655659 -76.35230828 6.77980802 -66.63671875 -2.41015625 C-62.41339036 -5.96664332 -58.21770471 -8.24648114 -53.01171875 -10.03515625 C-51.81546875 -10.44765625 -50.61921875 -10.86015625 -49.38671875 -11.28515625 C-31.82223314 -15.1612157 -14.5420602 -9.82673588 0 0 Z " fill="#734D4D" transform="translate(247.01171875,227.03515625)"/>
<path d="M0 0 C103.62 0 207.24 0 314 0 C314 5.28 314 10.56 314 16 C311.49740097 16.00586624 308.99480194 16.01173248 306.41636658 16.01777649 C282.85793082 16.07441463 259.29958705 16.14747958 235.74124813 16.23571491 C223.62902127 16.28068419 211.51682389 16.3200963 199.40454102 16.34643555 C188.84771946 16.36940639 178.29099111 16.40279431 167.73424345 16.44870156 C162.14431185 16.47264598 156.55447262 16.49136682 150.96449089 16.49761391 C145.70236727 16.50365917 140.44048004 16.52363911 135.17844391 16.55427551 C133.24794468 16.56306464 131.31741456 16.56677651 129.38689613 16.56500816 C126.7484975 16.56335456 124.11081873 16.58006207 121.47251892 16.60127258 C120.32998284 16.59400122 120.32998284 16.59400122 119.16436523 16.58658296 C113.13745764 16.6663949 108.5269621 18.01940808 103.6875 21.8125 C88.14630548 41.9584929 99.37413388 72.55889584 99 98 C168.63 98 238.26 98 310 98 C310 98.33 310 98.66 310 99 C209.02 99 108.04 99 4 99 C3.25660405 94.53962429 2.80139928 90.5232116 2.61108398 86.04272461 C2.58167725 85.37332352 2.55227051 84.70392242 2.52197266 84.01423645 C2.42622497 81.81041568 2.33595179 79.60641195 2.24609375 77.40234375 C2.18046152 75.84696118 2.11462628 74.29158717 2.04859924 72.73622131 C1.91086517 69.47064821 1.77589697 66.20497517 1.64282227 62.93920898 C1.47464057 58.81815473 1.29927471 54.69744526 1.12164211 50.5767889 C0.98375674 47.35662176 0.85012416 44.1362876 0.7176075 40.91589546 C0.65474609 39.40088974 0.5906154 37.88593598 0.52502251 36.37104607 C0.00259361 24.22717812 0 12.17469346 0 0 Z " fill="#E9C79E" transform="translate(99,83)"/>
<path d="M0 0 C95.7 0 191.4 0 290 0 C290 12 290 12 289 16 C288.03331894 16.00054477 287.06663788 16.00108953 286.07066345 16.00165081 C262.54263751 16.01605008 239.01479649 16.05908271 215.48687744 16.13209057 C204.10890563 16.16673476 192.7310549 16.19209536 181.35302734 16.19555664 C171.43523073 16.19859731 161.5176498 16.21910182 151.59993649 16.26052457 C146.34915998 16.28184672 141.09869005 16.29445911 135.84786987 16.28615379 C130.90324645 16.27860884 125.95924395 16.29445485 121.01473427 16.32806015 C119.20237368 16.336288 117.38995128 16.33604975 115.57759666 16.32659721 C102.87064338 16.05385634 102.87064338 16.05385634 92 22 C88.09372281 26.28430401 87.86577356 30.10916086 87.79467773 35.76635742 C87.78477814 36.44954544 87.77487854 37.13273346 87.76467896 37.83662415 C87.73311321 40.09287053 87.7083261 42.34913797 87.68359375 44.60546875 C87.66301996 46.17060389 87.64202338 47.73573352 87.62062073 49.30085754 C87.56544391 53.41897116 87.51601529 57.53713456 87.46777344 61.65533447 C87.41752635 65.85815864 87.36185703 70.06091058 87.30664062 74.26367188 C87.19911274 82.5090535 87.09765587 90.75449558 87 99 C77.73332854 99.09285147 68.46681825 99.16384147 59.19978237 99.20724869 C54.89628557 99.22808645 50.59310802 99.25633378 46.28979492 99.30175781 C42.13357994 99.3453525 37.97767124 99.36916576 33.82124519 99.37950897 C32.23885339 99.38687601 30.65647757 99.40126219 29.07421684 99.42292023 C26.85046592 99.45213691 24.62796598 99.45594863 22.40405273 99.45410156 C21.14052475 99.46298401 19.87699677 99.47186646 18.57518005 99.48101807 C12.94609737 98.72366028 9.24669478 96.5419646 5.625 92.0625 C3.01551449 87.14462346 2.83962172 82.52516849 2.61108398 77.01342773 C2.58167725 76.32971603 2.55227051 75.64600433 2.52197266 74.9415741 C2.42612662 72.68905799 2.33598199 70.43635487 2.24609375 68.18359375 C2.18053578 66.60521831 2.11469975 65.0268544 2.04859924 63.44850159 C1.91085998 60.13918541 1.77582473 56.82977353 1.64282227 53.52026367 C1.47349303 49.30979201 1.29853961 45.09957834 1.12164211 40.8894186 C0.9850152 37.62667108 0.8509228 34.36382316 0.7176075 31.1009388 C0.6540671 29.5506125 0.58988882 28.0003122 0.52502251 26.45004082 C0.43405242 24.26423081 0.34638044 22.07831077 0.25952148 19.89233398 C0.20924301 18.65499008 0.15896454 17.41764618 0.10716248 16.14280701 C-0.03198334 10.76355212 0 5.38105423 0 0 Z " fill="#EAC79F" transform="translate(111,380)"/>
<path d="M0 0 C81.84 0 163.68 0 248 0 C248 9.57 248 19.14 248 29 C243.49997405 33.50002595 243.49997405 33.50002595 239.77081299 33.50336456 C238.92930065 33.51379555 238.08778831 33.52422654 237.2207756 33.53497362 C235.84160398 33.52158929 235.84160398 33.52158929 234.43457031 33.50793457 C232.96359831 33.51729451 232.96359831 33.51729451 231.4629097 33.52684355 C228.16773891 33.54283391 224.87330164 33.53014534 221.578125 33.51757812 C219.21951871 33.52299654 216.8609158 33.53011761 214.50231934 33.53881836 C208.08918495 33.55708785 201.67630733 33.54996907 195.26316833 33.53730202 C191.25962854 33.53019867 187.2561064 33.53152904 183.25256348 33.53526306 C182.58817363 33.53587599 181.92378378 33.53648893 181.23926091 33.53712043 C179.88960996 33.53839932 178.53995902 33.53969617 177.19030809 33.5410108 C164.53147638 33.55241986 151.87276049 33.53929782 139.21394777 33.51780933 C128.34960509 33.49993801 117.48543335 33.50304203 106.62109375 33.52148438 C94.00789449 33.54288538 81.39479676 33.5513212 68.78158188 33.53903532 C67.43686678 33.53776111 66.09215166 33.53650363 64.74743652 33.53526306 C64.08579286 33.53464596 63.42414919 33.53402886 62.74245572 33.53339306 C58.07749322 33.52993782 53.41263046 33.5359672 48.74768066 33.54518127 C42.47020208 33.55671369 36.19304716 33.54876144 29.91560364 33.52560425 C27.60810382 33.52030324 25.30057689 33.52185456 22.99308777 33.53065491 C19.85016404 33.5415387 16.70828624 33.52793288 13.56542969 33.50793457 C12.64598194 33.51685746 11.72653419 33.52578034 10.7792244 33.53497362 C9.51695589 33.51932714 9.51695589 33.51932714 8.22918701 33.50336456 C7.50381115 33.50271515 6.77843529 33.50206574 6.03107834 33.50139666 C4 33 4 33 0 29 C0 19.43 0 9.86 0 0 Z " fill="#F8E9C6" transform="translate(132,479)"/>
<path d="M0 0 C0.82934555 -0.00014603 1.6586911 -0.00029205 2.51316833 -0.0004425 C5.2618977 0.00025568 8.01055978 0.00804368 10.75927734 0.01586914 C12.66213952 0.01773366 14.56500217 0.0191574 16.46786499 0.02015686 C21.4820284 0.0239794 26.49616295 0.03380746 31.51031494 0.04486084 C36.62454844 0.0550806 41.73878659 0.0596557 46.85302734 0.06469727 C56.89210254 0.07542994 66.93115629 0.09250323 76.97021484 0.11352539 C77.22270996 0.79987061 77.47520508 1.48621582 77.73535156 2.19335938 C78.07840332 3.0938501 78.42145508 3.99434082 78.77490234 4.92211914 C79.10989746 5.81471436 79.44489258 6.70730957 79.79003906 7.62695312 C81.78803068 11.8366231 84.81761327 14.03722461 88.97021484 16.11352539 C90.32496547 16.2107828 91.68433779 16.24733482 93.0425663 16.25219059 C93.89998031 16.25766503 94.75739433 16.26313948 95.64079058 16.26877981 C96.58824723 16.26975792 97.53570388 16.27073603 98.51187134 16.27174377 C100.0151401 16.27915074 100.0151401 16.27915074 101.54877794 16.28670734 C104.92835021 16.30214348 108.30790341 16.31045947 111.6875 16.31884766 C114.10155914 16.32842138 116.51561659 16.33843115 118.92967224 16.34884644 C124.1379996 16.37033124 129.34632839 16.38876487 134.55467606 16.40445137 C142.08512847 16.42713682 149.61555264 16.45528147 157.14598112 16.48477065 C169.36277053 16.53246283 181.57957147 16.5757226 193.79638672 16.61621094 C205.665862 16.6555576 217.53532702 16.69698183 229.40478516 16.74121094 C230.13607363 16.74393521 230.8673621 16.74665948 231.62081082 16.74946631 C235.28936714 16.76314565 238.9579233 16.77686595 242.62647939 16.79060662 C273.07436998 16.90459693 303.52228225 17.01132704 333.97021484 17.11352539 C334.02451444 18.86317897 334.06314308 20.61332326 334.09521484 22.36352539 C334.11841797 23.33805664 334.14162109 24.31258789 334.16552734 25.31665039 C333.96450947 28.1952263 333.56183113 29.73137121 331.97021484 32.11352539 C328.55265008 34.3919019 327.34837932 34.36526767 323.33357334 34.3707943 C321.56223226 34.38046763 321.56223226 34.38046763 319.75510651 34.39033639 C318.45143299 34.38723919 317.14775947 34.38414199 315.80458069 34.38095093 C314.41065726 34.38468553 313.01673592 34.38928628 311.62281793 34.39468157 C307.78356259 34.40695046 303.94439413 34.40664656 300.10512364 34.40429282 C295.96803314 34.40388564 291.83097087 34.4149143 287.69389343 34.42440796 C279.58557446 34.44103981 271.47728456 34.44651847 263.36894996 34.44763272 C256.78056872 34.44858208 250.19219709 34.45268676 243.60381889 34.45903397 C224.93771651 34.47665169 206.27163715 34.48587191 187.6055264 34.48437302 C186.59866899 34.48429311 185.59181159 34.48421319 184.55444336 34.48413086 C183.54636131 34.4840491 182.53827927 34.48396734 181.49964928 34.4838831 C165.15512381 34.48306986 148.81069042 34.50221562 132.4661916 34.53040759 C115.6966867 34.55910518 98.92722676 34.57294964 82.15769666 34.57122004 C72.73764531 34.57055509 63.3176905 34.57609308 53.89766121 34.59757614 C45.87849502 34.61574681 37.85946914 34.62016923 29.84029133 34.60655729 C25.74661303 34.60000696 21.65320424 34.59998436 17.55955124 34.61726379 C13.81465663 34.63290897 10.07024715 34.6302196 6.325365 34.61269553 C4.32325126 34.60813921 2.32112297 34.62334976 0.31906658 34.63917482 C-0.86443522 34.62997723 -2.04793702 34.62077964 -3.26730251 34.61130333 C-4.80273052 34.61195543 -4.80273052 34.61195543 -6.36917728 34.61262071 C-9.73709917 33.98084251 -10.89792351 32.73572115 -13.02978516 30.11352539 C-14.957862 26.2573717 -14.30167889 21.54302706 -14.34228516 17.30102539 C-14.37128906 16.30264648 -14.40029297 15.30426758 -14.43017578 14.27563477 C-14.49420732 6.88245528 -14.49420732 6.88245528 -12.13525391 2.97680664 C-8.28333164 -0.43203737 -4.91942082 -0.02245578 0 0 Z " fill="#795453" transform="translate(96.02978515625,48.886474609375)"/>
<path d="M0 0 C27.40732503 -0.09340502 54.81462624 -0.16396049 82.22207832 -0.20724869 C94.94758548 -0.2278816 107.67299379 -0.25601627 120.3984375 -0.30175781 C131.48879749 -0.34160308 142.57908591 -0.36742751 153.66951549 -0.37635398 C159.54286043 -0.3815726 165.41600058 -0.3938537 171.28927994 -0.42292023 C176.81647943 -0.45005263 182.34338958 -0.4584493 187.87064934 -0.45243073 C189.89996729 -0.45353193 191.92929483 -0.4614986 193.95855522 -0.4768219 C196.72875848 -0.4967156 199.49786851 -0.49194133 202.26809692 -0.48101807 C203.07160997 -0.49266943 203.87512301 -0.5043208 204.70298493 -0.51632524 C209.92422803 -0.46065431 212.82418103 0.60154371 217 4 C222.88886874 10.42686416 226.41395468 19.42852586 230.2421875 27.18359375 C230.5810498 27.86993896 230.91991211 28.55628418 231.26904297 29.26342773 C232 31 232 31 232 33 C203.41921927 33.09339994 174.83846138 33.163958 146.25755882 33.20724869 C132.98724647 33.22788267 119.71702888 33.25601941 106.44677734 33.30175781 C94.88177796 33.34159978 83.31684721 33.36742672 71.75178111 33.37635398 C65.62692879 33.38157315 59.50227282 33.39385782 53.37748337 33.42292023 C47.61390357 33.45004739 41.85060123 33.45845034 36.08696365 33.45243073 C33.97056827 33.45353216 31.85416371 33.46150191 29.73782349 33.4768219 C26.8493999 33.49670725 23.96202547 33.4919442 21.07357788 33.48101807 C20.2350463 33.49266943 19.39651473 33.5043208 18.5325731 33.51632524 C12.05909206 33.45008278 8.65758964 31.28847997 3.75 27.0625 C-0.71893043 21.79554628 -0.24559243 16.25051096 -0.125 9.6875 C-0.11597656 8.75615234 -0.10695312 7.82480469 -0.09765625 6.86523438 C-0.07418263 4.5765564 -0.04134729 2.28841328 0 0 Z " fill="#B47E5E" transform="translate(173,0)"/>
<path d="M0 0 C0.99 0 1.98 0 3 0 C3.64995297 1.41478135 4.29478722 2.83191487 4.9375 4.25 C5.47697266 5.43335938 5.47697266 5.43335938 6.02734375 6.640625 C10.28887181 16.97782559 8.45235057 28.34556117 4.5625 38.5078125 C2.3160136 43.52870961 -0.54253567 47.74584926 -4 52 C-4.62261719 52.83144531 -5.24523437 53.66289062 -5.88671875 54.51953125 C-13.54411897 63.50742245 -25.50115998 70.07095347 -37.28149414 71.22314453 C-39.67097956 71.33834251 -42.04527447 71.37979837 -44.4375 71.375 C-45.27498779 71.37338867 -46.11247559 71.37177734 -46.9753418 71.37011719 C-53.08959023 71.24836934 -57.81665431 70.41197297 -63 67 C-64.010625 66.443125 -65.02125 65.88625 -66.0625 65.3125 C-70.25094961 62.01520988 -73.57550006 58.06768013 -77 54 C-76.34257812 53.57847656 -75.68515625 53.15695312 -75.0078125 52.72265625 C-74.34523438 52.15417969 -73.68265625 51.58570313 -73 51 C-72.938125 49.2365625 -72.938125 49.2365625 -72.875 47.4375 C-72.40137801 41.93542326 -68.95453517 39.12029995 -65.05859375 35.51171875 C-56.66962979 28.62269726 -47.48424661 23.61244715 -37.7668457 18.87841797 C-29.85791003 15.00548058 -22.74707629 10.83161183 -16.5 4.5625 C-12.98685325 1.25301393 -10.82830261 0.51272368 -6 0.5625 C-5.071875 0.64628906 -4.14375 0.73007812 -3.1875 0.81640625 C-2.465625 0.87699219 -1.74375 0.93757813 -1 1 C-0.67 0.67 -0.34 0.34 0 0 Z " fill="#785353" transform="translate(339,274)"/>
<path d="M0 0 C4.72934702 2.95584189 8.28537592 6.04668275 11.5 10.609375 C11.5 11.269375 11.5 11.929375 11.5 12.609375 C8.00885773 14.93680318 7.40976893 14.63483008 3.4375 14.171875 C-1.64312929 14.07199369 -3.72185139 15.11167952 -7.375 18.609375 C-8.19613281 19.43308594 -9.01726562 20.25679688 -9.86328125 21.10546875 C-16.78458479 27.67814367 -25.4554284 31.66752369 -34.0625 35.546875 C-41.73259711 39.01935116 -48.05510183 43.12773588 -54.5 48.609375 C-55.24378906 49.2178125 -55.98757813 49.82625 -56.75390625 50.453125 C-60.11404728 53.43991703 -61.83355117 55.51725879 -62.4375 60.046875 C-62.458125 61.2225 -62.47875 62.398125 -62.5 63.609375 C-64.975 64.599375 -64.975 64.599375 -67.5 65.609375 C-70.99907236 58.91549745 -70.99907236 58.91549745 -71.5 55.609375 C-71.665 54.536875 -71.83 53.464375 -72 52.359375 C-71.36946494 47.63036206 -69.60119254 46.19773317 -66.38671875 42.859375 C-60.71982141 36.10133594 -58.50943433 28.02316574 -58.4375 19.421875 C-57.95485062 13.26464795 -56.55126885 9.92869176 -52.1484375 5.61328125 C-36.62175562 -6.13478336 -17.36958672 -9.66183261 0 0 Z " fill="#6E4848" transform="translate(329.5,261.390625)"/>
<path d="M0 0 C21.78 0 43.56 0 66 0 C66 10.89 66 21.78 66 33 C57.99210317 33.08390113 49.98579929 33.16403406 41.97784424 33.20700073 C38.24870995 33.22811707 34.51993975 33.25633054 30.79101562 33.30175781 C27.1989049 33.34524413 23.60714705 33.36914277 20.0147934 33.37950897 C18.64482823 33.3868955 17.27488223 33.40132001 15.90506744 33.42292023 C13.98540611 33.4519848 12.0653891 33.45363416 10.14550781 33.45410156 C9.05296692 33.46298401 7.96042603 33.47186646 6.83477783 33.48101807 C4 33 4 33 0 29 C0 19.43 0 9.86 0 0 Z " fill="#F4DBB3" transform="translate(132,479)"/>
<path d="M0 0 C4.93886255 1.16208531 7.69249234 4.19564315 11.1875 7.75 C12.18136719 8.74580078 12.18136719 8.74580078 13.1953125 9.76171875 C21.6951777 18.77824243 27.07744249 29.31391945 32.25 40.4375 C37.30539038 51.28737292 43.08901175 59.8492114 51.26953125 68.62109375 C54.60090271 72.31884823 55.7057485 74.76440413 55.56640625 79.80859375 C55.1875 81.75 55.1875 81.75 53.0625 84.25 C49.5280323 86.0940701 48.11368718 86.59682469 44.1875 85.75 C29.8026644 77.37770243 21.12609503 57.97905797 14.16796875 43.5703125 C9.86908627 34.71073358 5.28085108 27.40749883 -1.25 19.9765625 C-2.075 19.01492187 -2.9 18.05328125 -3.75 17.0625 C-4.52214844 16.19238281 -5.29429687 15.32226562 -6.08984375 14.42578125 C-8.15639446 11.21583287 -8.32181816 9.50043369 -7.8125 5.75 C-5.43883542 2.53857145 -3.87807732 1.03415395 0 0 Z " fill="#95695A" transform="translate(194.8125,225.25)"/>
<path d="M0 0 C3.125 0.6875 3.125 0.6875 5.0625 1.75 C6.88629692 5.07574732 6.80034597 6.94239963 6.125 10.6875 C-1.91763051 22.23408356 -16.5139891 28.61097594 -28.7578125 34.51513672 C-37.45320288 38.79227194 -45.3106248 43.81939558 -51.98828125 50.94140625 C-53.875 52.6875 -53.875 52.6875 -57.4375 53.1875 C-60.875 52.6875 -60.875 52.6875 -62.8125 51.0625 C-64.18324431 47.99848331 -64.21852078 46.02751528 -63.875 42.6875 C-55.95958635 31.21562169 -41.82973416 24.50349532 -29.6418457 18.56591797 C-21.69500265 14.67441766 -14.54624214 10.39065005 -8.125 4.25 C-5.10104512 1.45365463 -4.19831165 0.74486174 0 0 Z " fill="#95695A" transform="translate(330.875,274.3125)"/>
</svg>
