<?xml version="1.0" encoding="UTF-8"?>
<svg version="1.1" xmlns="http://www.w3.org/2000/svg" width="512" height="512">
<path d="M0 0 C20.59869562 -1.18383308 41.01212321 3.01362318 60 11 C60.7002832 11.29245605 61.40056641 11.58491211 62.12207031 11.88623047 C85.17269767 21.69754977 106.40946854 37.6152149 121.89453125 57.359375 C123.97819432 59.97265188 126.16953433 62.42100573 128.4375 64.875 C148.05961125 86.54820302 160.66243725 111.22886838 160.5 141.0625 C160.49355469 142.3203833 160.48710937 143.5782666 160.48046875 144.87426758 C160.17546323 160.64124701 157.03565381 174.95191663 149.328125 188.79174805 C147.04779264 193.21893249 146.84075194 195.68587884 148.28125 200.51953125 C148.82758561 202.02294804 149.39168782 203.52057412 150 205 C150.60247559 204.91959473 151.20495117 204.83918945 151.82568359 204.75634766 C162.16749563 203.38044896 172.51087139 202.01085937 182.875 200.8125 C183.56770996 200.72887207 184.26041992 200.64524414 184.97412109 200.55908203 C190.07496922 199.98519034 194.78433387 200 200 200 C200 210.56 200 221.12 200 232 C183.83 232 167.66 232 151 232 C150.67 233.98 150.34 235.96 150 238 C146.81927732 245.20096697 142.4558991 251.4129138 136 256 C135.34 256 134.68 256 134 256 C134.55429687 257.0621875 135.10859375 258.124375 135.6796875 259.21875 C136.41189234 260.64561071 137.14363873 262.07270673 137.875 263.5 C138.23980469 264.19609375 138.60460937 264.8921875 138.98046875 265.609375 C145.73822478 278.87915048 146.49876723 295.97145598 142.375 310.25 C141.63939123 312.1888726 140.85042688 314.10867207 140 316 C139.62230469 316.87785156 139.24460937 317.75570313 138.85546875 318.66015625 C133.03316503 330.60379439 123.1313883 340.89792687 114.1953125 350.59375 C112.37541359 352.58851464 110.61176815 354.61332806 108.8515625 356.66015625 C104.51972597 361.62056548 99.90756759 366.2843359 95.25 370.9375 C94.36111084 371.8255835 93.47222168 372.71366699 92.55639648 373.62866211 C87.41123822 378.72582713 82.26429676 383.57937279 76.5390625 388.01953125 C74.13525808 389.8944987 71.83371643 391.85972433 69.53637695 393.86279297 C45.82383558 414.43611105 18.23993498 430.49593829 -10 444 C-10.7228418 444.34885254 -11.44568359 444.69770508 -12.19042969 445.05712891 C-51.09479728 463.6893927 -93.22152998 474.36167554 -136 479 C-136.76931854 479.08968552 -137.53863708 479.17937103 -138.33126831 479.27177429 C-149.20692119 480.3694047 -160.13000321 480.12470554 -171.046875 480.09765625 C-173.27174854 480.09578821 -175.49662249 480.09436613 -177.72149658 480.09336853 C-183.54106813 480.08957375 -189.36061421 480.07976982 -195.18017578 480.06866455 C-201.13313452 480.05838468 -207.08609742 480.0538569 -213.0390625 480.04882812 C-224.69271944 480.03814448 -236.34635759 480.02110508 -248 480 C-247.2731762 476.15113876 -246.23017009 472.72095511 -244.8046875 469.06640625 C-244.34376709 467.87942139 -243.88284668 466.69243652 -243.40795898 465.46948242 C-242.8971758 464.16707526 -242.38618294 462.86475031 -241.875 461.5625 C-241.34099693 460.19450719 -240.80722969 458.8264223 -240.27368164 457.45825195 C-238.82607312 453.7503438 -237.37237406 450.04484822 -235.91766357 446.33972168 C-234.99018153 443.97496633 -234.06526276 441.60922362 -233.14111328 439.24316406 C-212.12214155 385.44245055 -189.0320263 328.80626507 -142.55078125 291.39453125 C-140.74394769 289.76974641 -139.40208735 287.97817157 -138 286 C-138.58523437 285.98582031 -139.17046875 285.97164063 -139.7734375 285.95703125 C-169.8584095 284.28564392 -201.22926607 267.20485287 -222.90234375 246.94140625 C-225.09761416 244.85319134 -225.09761416 244.85319134 -228.0625 242.625 C-234.95756694 236.46345082 -247.27660235 224.25769441 -248.23828125 214.609375 C-248.39615963 208.52690272 -248.25703612 204.73004013 -244 200 C-240.53388808 196.83996234 -236.63410612 195.80880188 -232.203125 194.6171875 C-231.4297731 194.40174789 -230.6564212 194.18630829 -229.8596344 193.96434021 C-228.1936775 193.50145874 -226.52660344 193.04258303 -224.85855103 192.58731079 C-222.22319333 191.86767997 -219.59117522 191.13682761 -216.9597168 190.40307617 C-209.36314558 188.28855327 -201.75879732 186.20325403 -194.14804077 184.14041138 C-175.41224159 179.05639351 -157.74736551 173.10671041 -140.14624023 164.87695312 C-120.99371502 155.93678302 -101.84309496 149.67667017 -81 146 C-79.9891333 145.81163574 -78.9782666 145.62327148 -77.93676758 145.42919922 C-64.85640046 143.31798207 -51.6486574 143.69704219 -38.4375 143.75 C-36.54186813 143.75265869 -36.54186813 143.75265869 -34.60794067 143.75537109 C-16.00470241 143.78609071 2.47736033 144.16118481 21 146 C20.10539062 145.23816406 19.21078125 144.47632813 18.2890625 143.69140625 C15.12050858 140.98901016 11.96212563 138.27500319 8.80810547 135.55566406 C7.26360621 134.22680243 5.71254463 132.90557439 4.16015625 131.5859375 C-5.15858477 123.48908512 -11.8423682 114.63591215 -17.69335938 103.85351562 C-27.08408032 86.7273317 -41.75064074 75.21377998 -60.27734375 69.03125 C-66.76977723 67.23271649 -73.35245714 66.06188022 -80 65 C-80 64.34 -80 63.68 -80 63 C-63.83653771 57.96025037 -47.70312029 53.80846592 -31 51 C-30.02579102 50.83483887 -29.05158203 50.66967773 -28.04785156 50.49951172 C-14.33667149 48.27862208 -0.73634713 47.71896947 13.125 47.6875 C13.91411774 47.68382416 14.70323547 47.68014832 15.51626587 47.67636108 C17.7845569 47.67082556 20.05209373 47.68161074 22.3203125 47.69921875 C23.63273926 47.70783936 24.94516602 47.71645996 26.29736328 47.7253418 C30.19870853 48.01474002 33.29761375 48.7970986 37 50 C27.74257811 31.63087491 17.39980541 15.41547099 1.36328125 2.20703125 C0.68845703 1.60955078 0.68845703 1.60955078 0 1 C0 0.67 0 0.34 0 0 Z " fill="#A24B32" transform="translate(280,16)"/>
<path d="M0 0 C20.59869562 -1.18383308 41.01212321 3.01362318 60 11 C60.7002832 11.29245605 61.40056641 11.58491211 62.12207031 11.88623047 C85.17269767 21.69754977 106.40946854 37.6152149 121.89453125 57.359375 C123.97819432 59.97265188 126.16953433 62.42100573 128.4375 64.875 C148.05961125 86.54820302 160.66243725 111.22886838 160.5 141.0625 C160.49355469 142.3203833 160.48710937 143.5782666 160.48046875 144.87426758 C160.17546323 160.64124701 157.03565381 174.95191663 149.328125 188.79174805 C147.04779264 193.21893249 146.84075194 195.68587884 148.28125 200.51953125 C148.82758561 202.02294804 149.39168782 203.52057412 150 205 C150.60247559 204.91959473 151.20495117 204.83918945 151.82568359 204.75634766 C162.16749563 203.38044896 172.51087139 202.01085937 182.875 200.8125 C183.56770996 200.72887207 184.26041992 200.64524414 184.97412109 200.55908203 C190.07496922 199.98519034 194.78433387 200 200 200 C200 210.56 200 221.12 200 232 C183.83 232 167.66 232 151 232 C150.67 233.98 150.34 235.96 150 238 C146.3363993 246.29417408 141.46285696 251.9769232 134 257 C131.59498911 254.67257011 129.29233067 252.34338218 127.12109375 249.79296875 C111.63504477 231.68313247 89.81338676 219.89823409 66.06640625 217.2734375 C-2.70313094 211.92715508 -75.53583492 237.09067737 -128.25 281.125 C-129.05953125 281.82882812 -129.8690625 282.53265625 -130.703125 283.2578125 C-133.70170786 285.5322478 -135.99285372 287.13672092 -139.88525391 286.87158203 C-142.18056286 286.50422719 -144.42334712 286.02645111 -146.6875 285.5 C-147.52619629 285.31131348 -148.36489258 285.12262695 -149.22900391 284.92822266 C-175.92428313 278.69381586 -200.12220504 266.79516752 -221 249 C-221.83015625 248.30390625 -222.6603125 247.6078125 -223.515625 246.890625 C-231.77098746 239.74948324 -247.09030623 226.12676373 -248.23828125 214.609375 C-248.39615963 208.52690272 -248.25703612 204.73004013 -244 200 C-240.53388808 196.83996234 -236.63410612 195.80880188 -232.203125 194.6171875 C-231.4297731 194.40174789 -230.6564212 194.18630829 -229.8596344 193.96434021 C-228.1936775 193.50145874 -226.52660344 193.04258303 -224.85855103 192.58731079 C-222.22319333 191.86767997 -219.59117522 191.13682761 -216.9597168 190.40307617 C-209.36314558 188.28855327 -201.75879732 186.20325403 -194.14804077 184.14041138 C-175.41224159 179.05639351 -157.74736551 173.10671041 -140.14624023 164.87695312 C-120.99371502 155.93678302 -101.84309496 149.67667017 -81 146 C-79.9891333 145.81163574 -78.9782666 145.62327148 -77.93676758 145.42919922 C-64.85640046 143.31798207 -51.6486574 143.69704219 -38.4375 143.75 C-36.54186813 143.75265869 -36.54186813 143.75265869 -34.60794067 143.75537109 C-16.00470241 143.78609071 2.47736033 144.16118481 21 146 C20.10539062 145.23816406 19.21078125 144.47632813 18.2890625 143.69140625 C15.12050858 140.98901016 11.96212563 138.27500319 8.80810547 135.55566406 C7.26360621 134.22680243 5.71254463 132.90557439 4.16015625 131.5859375 C-5.15858477 123.48908512 -11.8423682 114.63591215 -17.69335938 103.85351562 C-27.08408032 86.7273317 -41.75064074 75.21377998 -60.27734375 69.03125 C-66.76977723 67.23271649 -73.35245714 66.06188022 -80 65 C-80 64.34 -80 63.68 -80 63 C-63.83653771 57.96025037 -47.70312029 53.80846592 -31 51 C-30.02579102 50.83483887 -29.05158203 50.66967773 -28.04785156 50.49951172 C-14.33667149 48.27862208 -0.73634713 47.71896947 13.125 47.6875 C13.91411774 47.68382416 14.70323547 47.68014832 15.51626587 47.67636108 C17.7845569 47.67082556 20.05209373 47.68161074 22.3203125 47.69921875 C23.63273926 47.70783936 24.94516602 47.71645996 26.29736328 47.7253418 C30.19870853 48.01474002 33.29761375 48.7970986 37 50 C27.74257811 31.63087491 17.39980541 15.41547099 1.36328125 2.20703125 C0.68845703 1.60955078 0.68845703 1.60955078 0 1 C0 0.67 0 0.34 0 0 Z " fill="#883A1F" transform="translate(280,16)"/>
<path d="M0 0 C8.99864329 7.86572057 16.57644589 18.14270124 17.41015625 30.40234375 C17.7911101 44.30887539 14.5909051 53.88642714 5.03369141 64.20751953 C2.64838781 66.65399762 0.23105529 69.06311682 -2.203125 71.4609375 C-3.01523437 72.27240234 -3.82734375 73.08386719 -4.6640625 73.91992188 C-9.56024862 78.78079896 -14.5992085 83.40045271 -19.828125 87.8984375 C-21.41502356 89.33200077 -22.99890531 90.76891952 -24.578125 92.2109375 C-51.54178262 116.47003371 -81.78422188 136.11608724 -114.07080078 152.49658203 C-115.76322299 153.35702902 -117.45248906 154.22376195 -119.13623047 155.10107422 C-152.87495934 172.65637422 -196.74507124 188.9363113 -234.828125 177.8984375 C-235.80394531 177.63160156 -236.77976563 177.36476563 -237.78515625 177.08984375 C-246.62592948 174.42696025 -254.67596816 170.1607327 -262.828125 165.8984375 C-263.07811521 157.94041578 -262.54941695 150.66631914 -260.828125 142.8984375 C-260.66828125 142.0115625 -260.5084375 141.1246875 -260.34375 140.2109375 C-255.55751724 116.92656191 -240.33430638 99.07595598 -223.828125 82.8984375 C-222.590625 81.6609375 -222.590625 81.6609375 -221.328125 80.3984375 C-220.090625 79.1609375 -220.090625 79.1609375 -218.828125 77.8984375 C-218.26867187 77.31578125 -217.70921875 76.733125 -217.1328125 76.1328125 C-212.60475674 71.47643127 -207.82347517 67.3240715 -202.7578125 63.26171875 C-200.21896509 61.21371517 -197.72320245 59.12375932 -195.23803711 57.01123047 C-190.76422903 53.22126676 -186.27991897 49.66520348 -181.33984375 46.5078125 C-178.76907825 44.8606035 -176.24698152 43.14858706 -173.72314453 41.43066406 C-148.51669281 24.37522933 -121.47816261 11.08986879 -92.828125 0.8984375 C-91.80203125 0.52460938 -90.7759375 0.15078125 -89.71875 -0.234375 C-61.32970171 -10.53801435 -26.29527472 -20.20677152 0 0 Z " fill="#AD7D28" transform="translate(366.828125,275.1015625)"/>
<path d="M0 0 C20.59869562 -1.18383308 41.01212321 3.01362318 60 11 C61.0504248 11.43868408 61.0504248 11.43868408 62.12207031 11.88623047 C85.17269767 21.69754977 106.40946854 37.6152149 121.89453125 57.359375 C123.97819432 59.97265188 126.16953433 62.42100573 128.4375 64.875 C148.05960657 86.54819785 160.66244829 111.22887151 160.5 141.0625 C160.49033203 142.9482373 160.49033203 142.9482373 160.48046875 144.87207031 C160.13071015 162.9444653 155.38792774 178.11913434 147 194 C146.34 194 145.68 194 145 194 C143.80859375 192.1640625 143.80859375 192.1640625 142.4375 189.625 C134.60191752 176.22501836 122.66766683 166.16618191 108 161 C105.35373176 160.31063747 102.72739141 159.67048865 100.05859375 159.0859375 C98.89389053 158.82969101 98.89389053 158.82969101 97.70565796 158.56826782 C88.56008848 156.61502784 79.33427014 155.19532346 70.08740234 153.81738281 C67.13373941 153.37630508 64.18209687 152.92322335 61.23046875 152.46875 C50.95944494 150.90914822 40.72460279 149.52711015 30.35733032 148.78634644 C23.38838635 148.20841349 19.87807421 145.98778868 15 141 C13.84024041 140.00057426 12.66993921 139.01331525 11.4921875 138.03515625 C-0.4061269 128.14111539 -9.46838099 118.44514525 -17.02954102 104.92626953 C-26.89244883 87.35440212 -41.00520247 75.46253954 -60.27734375 69.03125 C-66.76977723 67.23271649 -73.35245714 66.06188022 -80 65 C-80 64.34 -80 63.68 -80 63 C-63.83653771 57.96025037 -47.70312029 53.80846592 -31 51 C-30.02579102 50.83483887 -29.05158203 50.66967773 -28.04785156 50.49951172 C-14.33667149 48.27862208 -0.73634713 47.71896947 13.125 47.6875 C13.91411774 47.68382416 14.70323547 47.68014832 15.51626587 47.67636108 C17.7845569 47.67082556 20.05209373 47.68161074 22.3203125 47.69921875 C23.63273926 47.70783936 24.94516602 47.71645996 26.29736328 47.7253418 C30.19870853 48.01474002 33.29761375 48.7970986 37 50 C27.74257811 31.63087491 17.39980541 15.41547099 1.36328125 2.20703125 C0.91339844 1.80871094 0.46351563 1.41039063 0 1 C0 0.67 0 0.34 0 0 Z " fill="#6CB468" transform="translate(280,16)"/>
<path d="M0 0 C2.72968225 3.25646303 4.14192664 6.53300623 5.625 10.5 C6.05039062 11.6240625 6.47578125 12.748125 6.9140625 13.90625 C11.54413711 27.09696616 10.71506785 44.28983334 5 57 C4.43345703 58.31677734 4.43345703 58.31677734 3.85546875 59.66015625 C-1.96683497 71.60379439 -11.8686117 81.89792687 -20.8046875 91.59375 C-22.62458641 93.58851464 -24.38823185 95.61332806 -26.1484375 97.66015625 C-30.48027403 102.62056548 -35.09243241 107.2843359 -39.75 111.9375 C-40.63888916 112.8255835 -41.52777832 113.71366699 -42.44360352 114.62866211 C-47.58876178 119.72582713 -52.73570324 124.57937279 -58.4609375 129.01953125 C-60.86474192 130.8944987 -63.16628357 132.85972433 -65.46362305 134.86279297 C-89.17616442 155.43611105 -116.76006502 171.49593829 -145 185 C-145.7228418 185.34885254 -146.44568359 185.69770508 -147.19042969 186.05712891 C-186.09479728 204.6893927 -228.22152998 215.36167554 -271 220 C-271.76931854 220.08968552 -272.53863708 220.17937103 -273.33126831 220.27177429 C-284.20692119 221.3694047 -295.13000321 221.12470554 -306.046875 221.09765625 C-308.27174854 221.09578821 -310.49662249 221.09436613 -312.72149658 221.09336853 C-318.54106813 221.08957375 -324.36061421 221.07976982 -330.18017578 221.06866455 C-336.13313452 221.05838468 -342.08609742 221.0538569 -348.0390625 221.04882812 C-359.69271944 221.03814448 -371.34635759 221.02110508 -383 221 C-382.32655058 217.46852271 -381.44960972 214.27438705 -380.15234375 210.91796875 C-379.79462891 209.98662109 -379.43691406 209.05527344 -379.06835938 208.09570312 C-378.69517578 207.13599609 -378.32199219 206.17628906 -377.9375 205.1875 C-377.56044922 204.20845703 -377.18339844 203.22941406 -376.79492188 202.22070312 C-375.86684405 199.8123999 -374.93509884 197.40558386 -374 195 C-373.67 195.66 -373.34 196.32 -373 197 C-363.32119215 196.96121534 -353.64278996 196.90085856 -343.96427536 196.81609726 C-339.46559363 196.77731028 -334.96708759 196.7447988 -330.46826172 196.72900391 C-297.18452372 196.603738 -264.56163943 194.38230782 -232 187 C-230.606604 186.68772461 -230.606604 186.68772461 -229.18505859 186.36914062 C-202.54274883 180.25744084 -176.68392486 170.65147263 -152 159 C-151.14083984 158.59990723 -150.28167969 158.19981445 -149.39648438 157.78759766 C-108.8050914 138.76532562 -73.31899006 111.30890897 -41.6875 79.8125 C-40.5579187 78.68992798 -40.5579187 78.68992798 -39.40551758 77.54467773 C-34.73287356 72.85859023 -30.2825611 68.04443877 -26 63 C-25.19139526 62.05145142 -25.19139526 62.05145142 -24.36645508 61.08374023 C-8.17429463 41.92526425 0.32016643 25.6488881 0 0 Z " fill="#893B20" transform="translate(415,275)"/>
<path d="M0 0 C1.17727158 -0.01191879 1.17727158 -0.01191879 2.37832642 -0.02407837 C18.76904494 -0.15203173 18.76904494 -0.15203173 24.9375 3.375 C28.28727695 7.25818092 29.25321241 12.36247545 30.5 17.25 C30.72051025 18.09498047 30.94102051 18.93996094 31.16821289 19.81054688 C32.43147466 24.82386577 33.32526006 29.72539525 33.875 34.875 C36.11173232 53.5606222 44.64765314 71.31552574 51.49658203 88.70214844 C53.6725649 94.24865578 55.80753934 99.81066139 57.9375 105.375 C50.08141289 104.90582917 42.39126841 104.22500317 34.6328125 102.890625 C31.72516382 102.48490658 28.91647778 102.22222144 25.9921875 102.046875 C15.83816373 101.40160772 9.28597276 100.88874983 1.9375 93.375 C0.77774041 92.37557426 -0.39256079 91.38831525 -1.5703125 90.41015625 C-13.4686269 80.51611539 -22.53088099 70.82014525 -30.09204102 57.30126953 C-39.95494883 39.72940212 -54.06770247 27.83753954 -73.33984375 21.40625 C-79.83227723 19.60771649 -86.41495714 18.43688022 -93.0625 17.375 C-93.0625 16.715 -93.0625 16.055 -93.0625 15.375 C-76.89903771 10.33525037 -60.76562029 6.18346592 -44.0625 3.375 C-43.08829102 3.20983887 -42.11408203 3.04467773 -41.11035156 2.87451172 C-27.42898202 0.65845069 -13.83229702 0.07466381 0 0 Z " fill="#3F863B" transform="translate(293.0625,63.625)"/>
<path d="M0 0 C1.67578125 2.5390625 1.67578125 2.5390625 3.3125 5.625 C5.25702962 8.7216164 5.25702962 8.7216164 8 11 C13.51263149 11.8666918 18.53972194 11.01913616 24 10 C32.91040511 8.40149077 41.80248054 7.30676681 50.8125 6.4375 C52.68905273 6.24897461 52.68905273 6.24897461 54.60351562 6.05664062 C68.40157681 4.6988716 82.06948045 3.84145085 95.9375 3.9375 C97.83918945 3.94426758 97.83918945 3.94426758 99.77929688 3.95117188 C102.85288579 3.96277032 105.92644981 3.98069647 109 4 C109 9.28 109 14.56 109 20 C107.31148926 20.06731323 107.31148926 20.06731323 105.58886719 20.13598633 C78.84907579 21.22052829 52.46074381 22.78468288 26 27 C26 27.66 26 28.32 26 29 C27.922393 30.67531428 29.83967571 32.22230754 31.875 33.75 C32.46708252 34.19520996 33.05916504 34.64041992 33.66918945 35.09912109 C35.43675162 36.41282076 37.21545763 37.70948926 39 39 C39.90363281 39.65742188 40.80726562 40.31484375 41.73828125 40.9921875 C42.54652344 41.53101563 43.35476562 42.06984375 44.1875 42.625 C44.88230469 43.09164062 45.57710938 43.55828125 46.29296875 44.0390625 C54.61238848 46.99227643 64.17955335 44.32764457 72.5625 42.75 C73.80032227 42.52183594 75.03814453 42.29367188 76.31347656 42.05859375 C89.95288067 39.50677422 103.20806543 36.42336851 116.4140625 32.1484375 C126.24489796 29 126.24489796 29 131 29 C131.67467562 30.74692795 132.33944156 32.49768525 133 34.25 C133.37125 35.22453125 133.7425 36.1990625 134.125 37.203125 C135 40 135 40 135 44 C117.42329599 51.14842029 98.4790915 54.97576055 80 59 C91.04583146 62.19382327 101.88520931 64.66921905 113.3190918 66.01098633 C114.58619995 66.16603638 114.58619995 66.16603638 115.87890625 66.32421875 C116.6272876 66.40760498 117.37566895 66.49099121 118.14672852 66.5769043 C120 67 120 67 122 69 C121.47680176 69.38220703 120.95360352 69.76441406 120.41455078 70.15820312 C118.85967549 71.29536604 117.30607083 72.4342674 115.75341797 73.57446289 C113.99381341 74.86352114 112.22975921 76.14652632 110.46142578 77.42358398 C105.03911305 81.32815966 105.03911305 81.32815966 100.109375 85.81640625 C97.76956724 88.16848573 96.06128762 89.70624154 93 91 C87.04839913 90.97560819 81.69146926 89.64021472 76 88 C74.96552734 87.71721191 74.96552734 87.71721191 73.91015625 87.42871094 C48.67114603 80.46497251 25.29602511 68.89110071 6.09765625 50.94140625 C3.90238584 48.85319134 3.90238584 48.85319134 0.9375 46.625 C-5.95756694 40.46345082 -18.27660235 28.25769441 -19.23828125 18.609375 C-19.39615963 12.52690272 -19.25703612 8.73004013 -15 4 C-10.754667 0.0376892 -5.61742185 -2.00622209 0 0 Z " fill="#51200A" transform="translate(51,212)"/>
<path d="M0 0 C4.19700391 1.43461224 7.16583664 3.49362181 10.625 6.25 C15.35966038 9.98390006 20.16077211 13.60167569 25.03881836 17.14648438 C69.5824876 49.56116125 101.44551886 92.50506733 113 147 C113.226875 148.02738281 113.45375 149.05476562 113.6875 150.11328125 C114.55481414 154.17881629 115.08753351 157.82756949 115 162 C114.22140625 161.68546875 113.4428125 161.3709375 112.640625 161.046875 C103.94674358 157.72156552 95.29353939 155.6138667 86.15234375 153.89453125 C85.34224854 153.73380127 84.53215332 153.57307129 83.69750977 153.4074707 C80.91160811 152.93028981 80.91160811 152.93028981 77.70678711 152.91088867 C74.10499825 152.70932373 71.34483893 152.36918849 68 151 C64.80206815 147.00133524 63.29714311 142.48731337 61.6875 137.6875 C61.2002252 136.36333483 60.70798581 135.04098657 60.2109375 133.72045898 C59.22247327 131.07181945 58.2635091 128.41541989 57.32958984 125.74707031 C56.15403102 122.43409257 54.91309216 119.16417807 53.61328125 115.8984375 C48.92544701 104.1173221 44.55957415 92.47693806 43.0625 79.8125 C41.17864641 64.29083456 36.63143021 50.60981629 29 37 C28.39800781 35.8965625 27.79601562 34.793125 27.17578125 33.65625 C20.21792022 21.27282092 11.15008062 9.8628846 0 1 C0 0.67 0 0.34 0 0 Z " fill="#529F4E" transform="translate(283,19)"/>
<path d="M0 0 C1.17727158 -0.01191879 1.17727158 -0.01191879 2.37832642 -0.02407837 C18.76904494 -0.15203173 18.76904494 -0.15203173 24.9375 3.375 C28.28709755 7.25797296 29.25368697 12.36253628 30.5 17.25 C30.71760986 18.0862793 30.93521973 18.92255859 31.15942383 19.78417969 C32.76983093 26.19168671 33.80350659 32.5019212 34.48046875 39.078125 C34.87228367 42.47218967 34.87228367 42.47218967 35.98828125 46.046875 C36.9375 49.375 36.9375 49.375 36.9375 53.375 C32.19492944 51.97826957 27.89357871 49.97658011 23.4519043 47.84619141 C2.25473718 37.73059681 -20.13460869 29.56012619 -43.0625 24.375 C-44.32835937 24.08238281 -45.59421875 23.78976563 -46.8984375 23.48828125 C-50.27903048 22.73663097 -53.66387113 22.03976848 -57.0625 21.375 C-58.07570312 21.16875 -59.08890625 20.9625 -60.1328125 20.75 C-66.47014641 19.55864741 -72.42054599 19.31307818 -78.859375 19.4375 C-83.71210362 19.34281261 -88.33830882 18.4353395 -93.0625 17.375 C-93.0625 16.715 -93.0625 16.055 -93.0625 15.375 C-76.89903771 10.33525037 -60.76562029 6.18346592 -44.0625 3.375 C-43.08829102 3.20983887 -42.11408203 3.04467773 -41.11035156 2.87451172 C-27.42898202 0.65845069 -13.83229702 0.07466381 0 0 Z " fill="#2D6628" transform="translate(293.0625,63.625)"/>
<path d="M0 0 C8.22686365 1.56186697 15.84205871 6.22964853 20.6640625 13.10546875 C25.22076063 20.84652611 26.51180284 28.15402032 26.3125 37 C26.30347656 37.77472656 26.29445313 38.54945313 26.28515625 39.34765625 C26.26189388 41.23190843 26.2260364 43.11599832 26.1875 45 C2.16817751 51.55072431 -23.87434116 48.81285476 -45.8125 37 C-44.62144803 33.4268441 -43.51795823 32.74996175 -40.5625 30.5 C-36.46399112 27.31097531 -32.45327028 24.05278388 -28.5 20.6875 C-27.95891602 20.22786865 -27.41783203 19.7682373 -26.86035156 19.29467773 C-25.74685131 18.34826799 -24.63373679 17.40140423 -23.52099609 16.45410156 C-20.6214785 13.98632123 -17.71729866 11.52405963 -14.8125 9.0625 C-14.28487061 8.61414795 -13.75724121 8.1657959 -13.21362305 7.70385742 C-11.75101091 6.46399473 -10.28189519 5.23181635 -8.8125 4 C-7.94238281 3.23558594 -7.07226562 2.47117187 -6.17578125 1.68359375 C-3.8125 0 -3.8125 0 0 0 Z " fill="#C89634" transform="translate(157.8125,408)"/>
<path d="M0 0 C34.9930087 2.65863589 70.1100097 3.45652225 105.1875 4.125 C105.1875 9.405 105.1875 14.685 105.1875 20.125 C76.77564981 20.66304661 48.55038019 19.79555485 20.1875 18.25 C18.55276569 18.16197255 16.91803059 18.07395973 15.28329468 17.98596191 C-33.6201771 15.33613577 -33.6201771 15.33613577 -49.8125 12.125 C-47.63314436 9.94564436 -45.9892833 9.215933 -43.1640625 8.03125 C-42.24109375 7.64066406 -41.318125 7.25007812 -40.3671875 6.84765625 C-39.40039062 6.44417969 -38.43359375 6.04070312 -37.4375 5.625 C-35.53341725 4.82395443 -33.62975521 4.02190793 -31.7265625 3.21875 C-30.4573999 2.68797852 -30.4573999 2.68797852 -29.16259766 2.14648438 C-26.83535609 1.18218032 -26.83535609 1.18218032 -24.81860352 0.00537109 C-17.84066204 -3.05687267 -7.41881751 -0.60912868 0 0 Z " fill="#52200A" transform="translate(166.8125,179.875)"/>
<path d="M0 0 C0 10.56 0 21.12 0 32 C-16.17 32 -32.34 32 -49 32 C-49.33 33.98 -49.66 35.96 -50 38 C-53.6636007 46.29417408 -58.53714304 51.9769232 -66 57 C-69.39419263 53.71529745 -72.61907735 50.29302848 -75.8125 46.8125 C-76.60269531 45.95269531 -77.39289063 45.09289062 -78.20703125 44.20703125 C-80 42 -80 42 -80 40 C-78.83984375 39.85304687 -77.6796875 39.70609375 -76.484375 39.5546875 C-61.60501144 37.64322913 -61.60501144 37.64322913 -49 30 C-48.89836068 27.48891093 -48.8614026 25.01098715 -48.875 22.5 C-48.87113281 21.81679687 -48.86726563 21.13359375 -48.86328125 20.4296875 C-48.87303137 15.22312357 -49.35926335 10.16657487 -50 5 C-39.05028834 3.53867181 -28.09895709 2.0813712 -17.125 0.8125 C-16.08593506 0.68705811 -16.08593506 0.68705811 -15.02587891 0.55908203 C-9.92503078 -0.01480966 -5.21566613 0 0 0 Z " fill="#512009" transform="translate(480,216)"/>
<path d="M0 0 C10.24436486 3.40555913 20.79720225 5.34448773 31.53320312 6.27758789 C36.69028959 6.76060209 36.69028959 6.76060209 38.890625 8.9609375 C38.36742676 9.34314453 37.84422852 9.72535156 37.30517578 10.11914062 C35.75030049 11.25630354 34.19669583 12.3952049 32.64404297 13.53540039 C30.88443841 14.82445864 29.12038421 16.10746382 27.35205078 17.38452148 C21.92973805 21.28909716 21.92973805 21.28909716 17 25.77734375 C14.66019224 28.12942323 12.95191262 29.66717904 9.890625 30.9609375 C3.93902413 30.93654569 -1.41790574 29.60115222 -7.109375 27.9609375 C-8.14384766 27.67814941 -8.14384766 27.67814941 -9.19921875 27.38964844 C-22.46895044 23.7283741 -35.17387423 18.66217884 -47.359375 12.2734375 C-48.08697021 11.8928418 -48.81456543 11.51224609 -49.56420898 11.12011719 C-50.24427002 10.7543457 -50.92433105 10.38857422 -51.625 10.01171875 C-52.22602539 9.68856689 -52.82705078 9.36541504 -53.44628906 9.0324707 C-55.26000732 7.86388447 -56.63959044 6.53342788 -58.109375 4.9609375 C-56.81128906 4.86296875 -55.51320313 4.765 -54.17578125 4.6640625 C-38.9477481 3.43725346 -23.39471239 1.95264359 -8.51977539 -1.66967773 C-5.31184887 -2.16128037 -2.99643651 -1.0814953 0 0 Z " fill="#662912" transform="translate(134.109375,272.0390625)"/>
<path d="M0 0 C6.6171211 3.95621919 10.10133146 10.11096945 11.98008728 17.42805481 C12.17099442 18.25230453 12.36190155 19.07655426 12.55859375 19.92578125 C12.77443619 20.79518845 12.99027863 21.66459564 13.21266174 22.56034851 C13.66071953 24.38091133 14.09974941 26.20371816 14.5300293 28.02856445 C15.19100552 30.82734348 15.88117537 33.61769798 16.57617188 36.40820312 C17.00952202 38.18447964 17.44122258 39.96115959 17.87109375 41.73828125 C18.0761705 42.57265213 18.28124725 43.40702301 18.49253845 44.26667786 C19.86647135 50.15058594 19.86647135 50.15058594 18.75 53.5 C16.72460938 54.75854492 16.72460938 54.75854492 14.09375 55.98046875 C12.68416016 56.64272461 12.68416016 56.64272461 11.24609375 57.31835938 C10.25738281 57.77017578 9.26867187 58.22199219 8.25 58.6875 C7.26128906 59.15091797 6.27257812 59.61433594 5.25390625 60.09179688 C-2.0644445 63.5 -2.0644445 63.5 -3.25 63.5 C-3.29898438 62.94763672 -3.34796875 62.39527344 -3.3984375 61.82617188 C-5.06558997 44.47916295 -9.45012663 29.08535035 -22.25 16.5 C-25.13323938 14.26897546 -28.08312514 12.3033593 -31.25 10.5 C-23.10364785 1.56529119 -12.18231939 -5.32829769 0 0 Z " fill="#C89634" transform="translate(243.25,369.5)"/>
<path d="M0 0 C3.00648964 1.62167486 5.70841732 3.47084714 8.48486328 5.46948242 C9.8403125 6.34926758 9.8403125 6.34926758 11.22314453 7.24682617 C17.14977663 11.36927894 20.56113527 15.6383032 21.92626953 22.77807617 C22.48043066 30.1472401 20.1154691 36.75974412 15.48486328 42.46948242 C11.96556331 44.76217258 8.69698593 46.35498177 4.82470703 47.96948242 C1.54154242 49.44402653 -0.76060326 51.19122302 -3.51513672 53.46948242 C-4.17513672 53.46948242 -4.83513672 53.46948242 -5.51513672 53.46948242 C-5.93923828 52.44209961 -6.36333984 51.4147168 -6.80029297 50.35620117 C-12.02302352 37.91740042 -17.56523143 27.7879486 -27.57373047 18.46557617 C-29.51513672 16.46948242 -29.51513672 16.46948242 -29.51513672 14.46948242 C-27.32941887 12.65140836 -24.99175196 11.14494625 -22.61669922 9.58276367 C-20.35203381 8.03971079 -18.31955307 6.50579047 -16.22607422 4.76245117 C-6.62290242 -2.86283158 -6.62290242 -2.86283158 0 0 Z " fill="#C89634" transform="translate(210.51513671875,310.530517578125)"/>
<path d="M0 0 C3 1 3 1 4.1328125 2.671875 C8.50678456 11.83310782 9.20975656 19.8733142 5.94921875 29.56640625 C2.17683074 39.23800184 -5.11133225 44.68302974 -13 51 C-14.83457117 52.49848582 -16.6679839 53.99839149 -18.5 55.5 C-19.37527344 56.21027344 -20.25054687 56.92054688 -21.15234375 57.65234375 C-23.29090758 59.41541215 -25.40378218 61.19605278 -27.50390625 63.00390625 C-28.09558594 63.51179688 -28.68726562 64.0196875 -29.296875 64.54296875 C-30.45545537 65.54006557 -31.61053716 66.5412451 -32.76171875 67.546875 C-36.77882119 71 -36.77882119 71 -39 71 C-39.65262059 48.64065105 -25.86332824 27.24732896 -11.3203125 11.4375 C-7.62015204 7.55046275 -3.83517097 3.75357159 0 0 Z " fill="#C89634" transform="translate(144,357)"/>
<path d="M0 0 C8.97243273 6.69773147 14.79189922 16.59695808 16.671875 27.578125 C17.23000855 33.52346063 17.08452288 39.48602583 16.94140625 45.44921875 C14.07023109 46.60480148 11.19386696 47.74688742 8.31640625 48.88671875 C7.50816406 49.21220703 6.69992188 49.53769531 5.8671875 49.87304688 C1.55991411 51.57144329 -2.42180926 52.91651374 -7.05859375 53.44921875 C-7.09597656 52.49402344 -7.13335937 51.53882813 -7.171875 50.5546875 C-8.07541546 32.78505848 -12.58590438 19.70936608 -26.05859375 7.44921875 C-26.71859375 6.78921875 -27.37859375 6.12921875 -28.05859375 5.44921875 C-19.82258785 -2.09847541 -10.61207065 -6.10998007 0 0 Z " fill="#C89634" transform="translate(207.05859375,394.55078125)"/>
<path d="M0 0 C11.58469952 6.76295972 20.61253938 14.16055368 26.140625 26.6875 C26.82421875 30.05078125 26.82421875 30.05078125 27.140625 32.6875 C26.53734375 33.13480469 25.9340625 33.58210938 25.3125 34.04296875 C24.51328125 34.64753906 23.7140625 35.25210938 22.890625 35.875 C21.70726562 36.76251953 21.70726562 36.76251953 20.5 37.66796875 C18.01139245 39.6026788 18.01139245 39.6026788 16.390625 42.40625 C13.8737818 44.95804935 13.43007298 45.03610875 10.03125 45.17578125 C8.48361893 45.14271221 6.93636584 45.08331107 5.390625 45 C4.59785156 44.97744141 3.80507812 44.95488281 2.98828125 44.93164062 C1.0382488 44.87290471 -0.91080812 44.78322654 -2.859375 44.6875 C-3.00632813 43.86507812 -3.15328125 43.04265625 -3.3046875 42.1953125 C-5.82232474 29.66500299 -10.58677244 21.40083826 -20.859375 13.6875 C-23.15351536 12.20009032 -25.42021944 10.93302625 -27.859375 9.6875 C-26.48342963 5.5596639 -24.40348306 5.09227321 -20.66601562 3.17578125 C-19.43141602 2.56283203 -19.43141602 2.56283203 -18.171875 1.9375 C-17.36814453 1.51339844 -16.56441406 1.08929688 -15.73632812 0.65234375 C-9.67881762 -2.38879399 -6.32261273 -2.90218289 0 0 Z " fill="#C89634" transform="translate(250.859375,291.3125)"/>
<path d="M0 0 C0.69851074 0.35835938 1.39702148 0.71671875 2.11669922 1.0859375 C15.15875007 8.05133865 24.13421935 18.72187733 29.1875 32.5625 C29.1875 33.5525 29.1875 34.5425 29.1875 35.5625 C28.56101562 35.90023437 27.93453125 36.23796875 27.2890625 36.5859375 C26.47179687 37.03195312 25.65453125 37.47796875 24.8125 37.9375 C24.00039063 38.37835938 23.18828125 38.81921875 22.3515625 39.2734375 C20.07935698 40.5068893 20.07935698 40.5068893 18.1875 42.5625 C15.5 42.25 15.5 42.25 12.1875 41.5625 C11.02605469 41.51609375 9.86460937 41.4696875 8.66796875 41.421875 C5.1875 40.5625 5.1875 40.5625 3.4375 37.75390625 C3.025 36.55636719 2.6125 35.35882813 2.1875 34.125 C-0.27643083 27.51257972 -3.44159899 22.14088737 -7.8125 16.5625 C-8.40289062 15.75554687 -8.99328125 14.94859375 -9.6015625 14.1171875 C-12.29337563 11.00685925 -15.27104111 8.69146676 -18.5625 6.25 C-19.16449219 5.79560547 -19.76648438 5.34121094 -20.38671875 4.87304688 C-21.85776738 3.76392291 -23.33455412 2.66241637 -24.8125 1.5625 C-16.65491909 -4.81333947 -8.86730925 -4.62380652 0 0 Z " fill="#C89634" transform="translate(288.8125,279.4375)"/>
<path d="M0 0 C3.2914911 -0.08857863 6.58266805 -0.1409104 9.875 -0.1875 C10.7928125 -0.21263672 11.710625 -0.23777344 12.65625 -0.26367188 C22.3136157 -0.3656863 30.21690964 1.31073771 37.30859375 8.1015625 C44.74900839 16.45269764 44.35110156 26.0583399 44.51489258 36.62890625 C44.546639 38.21004085 44.59450545 39.79093366 44.65844727 41.37109375 C45.18142203 54.50144704 45.18142203 54.50144704 42.28466797 58.17578125 C39.07064521 60.26596321 36.84152291 61 33 61 C32.75354736 59.96182129 32.50709473 58.92364258 32.25317383 57.85400391 C31.32430716 53.95578037 30.37919324 50.06164038 29.42944336 46.16845703 C29.02274525 44.49177287 28.62029916 42.8140508 28.22241211 41.13525391 C24.02602101 22.39130058 24.02602101 22.39130058 12 8 C8.08873474 5.78949795 4.09854511 3.83727884 0 2 C0 1.34 0 0.68 0 0 Z " fill="#C89634" transform="translate(244,352)"/>
<path d="M0 0 C12.93081467 7.31312219 20.51338582 22.20462575 25.40234375 35.69140625 C26.63807893 40.89450173 26.63807893 40.89450173 25.99609375 44.19140625 C23.56548942 46.8509296 20.73595419 48.85898304 17.80859375 50.94140625 C17.03966797 51.51761719 16.27074219 52.09382813 15.47851562 52.6875 C11.74252491 55.438985 8.37386877 57.5803774 3.99609375 59.19140625 C3.97627441 58.54179932 3.95645508 57.89219238 3.93603516 57.22290039 C3.83981442 54.23288103 3.73053476 51.24346977 3.62109375 48.25390625 C3.59015625 47.23232422 3.55921875 46.21074219 3.52734375 45.15820312 C3.04258138 32.51398458 0.29607314 20.49138564 -9.00390625 11.19140625 C-11.93273231 9.07246427 -14.9344917 7.09995248 -18.00390625 5.19140625 C-17.00390625 2.19140625 -17.00390625 2.19140625 -13.94140625 0.50390625 C-9.20114438 -1.30513246 -4.76120277 -1.92118708 0 0 Z " fill="#C89634" transform="translate(300.00390625,336.80859375)"/>
<path d="M0 0 C9.94877304 4.39090977 16.466303 15.80397474 20.45703125 25.48828125 C23.73275838 35.43971435 23.73275838 35.43971435 21.96484375 39.8671875 C19.77734375 41.01953125 19.77734375 41.01953125 16.96484375 41.8046875 C9.18591904 44.30000491 3.18928246 48.64669052 -3.03515625 53.8671875 C-2.70515625 52.8153125 -2.37515625 51.7634375 -2.03515625 50.6796875 C0.58318909 39.99909894 -0.29297832 27.7706964 -5.5703125 18.03515625 C-6.61941794 16.34121059 -7.70210599 14.66726088 -8.828125 13.0234375 C-10.03515625 10.8671875 -10.03515625 10.8671875 -10.03515625 6.8671875 C-8.42578125 4.91015625 -8.42578125 4.91015625 -6.28515625 3.0546875 C-5.5890625 2.42949219 -4.89296875 1.80429687 -4.17578125 1.16015625 C-2.03515625 -0.1328125 -2.03515625 -0.1328125 0 0 Z " fill="#C89634" transform="translate(168.03515625,337.1328125)"/>
<path d="M0 0 C0 0.66 0 1.32 0 2 C1.92229969 3.67523296 3.84042413 5.2215277 5.875 6.75 C6.75768555 7.41890259 6.75768555 7.41890259 7.65820312 8.10131836 C17.01986413 15.27669234 17.01986413 15.27669234 28 19 C28 19.33 28 19.66 28 20 C19.00863252 21.08772319 10.00896657 22.0700972 1 23 C-0.05960938 23.11649902 -1.11921875 23.23299805 -2.2109375 23.35302734 C-17.58498049 24.97971004 -17.58498049 24.97971004 -22.75390625 22.8828125 C-24.94400686 21.09130163 -26.36672005 19.3099245 -28 17 C-29.66653568 15.0415552 -31.33320716 13.08322594 -33 11.125 C-37 6.16554054 -37 6.16554054 -37 5 C-30.00329235 3.64903368 -23.00291924 2.31836599 -16 1 C-14.70449219 0.75378906 -13.40898438 0.50757813 -12.07421875 0.25390625 C-10.52154297 -0.02646484 -10.52154297 -0.02646484 -8.9375 -0.3125 C-8.05964844 -0.47363281 -7.18179688 -0.63476562 -6.27734375 -0.80078125 C-3.91653448 -1.00730144 -2.24336256 -0.72015565 0 0 Z " fill="#652911" transform="translate(77,239)"/>
<path d="M0 0 C3.89235338 2.72230727 7.36822167 5.9277724 10.8125 9.1875 C11.36196289 9.68926758 11.91142578 10.19103516 12.47753906 10.70800781 C14.00390625 12.21484375 14.00390625 12.21484375 16.25 15.25 C16.22858394 23.7842991 9.54578284 30.12562983 3.875 35.8125 C2.34068546 37.29929152 0.80156826 38.78122293 -0.75 40.25 C-4.02737004 38.61131498 -4.37491542 34.98809137 -5.5 31.6875 C-9.35442926 21.01279057 -13.83358168 15.06763208 -23.75 9.25 C-23.17660202 4.69339737 -23.17660202 4.69339737 -21.26171875 2.703125 C-20.65972656 2.30609375 -20.05773437 1.9090625 -19.4375 1.5 C-18.84324219 1.09265625 -18.24898438 0.6853125 -17.63671875 0.265625 C-12.13801439 -2.69434008 -5.47652552 -3.08054561 0 0 Z " fill="#C89634" transform="translate(365.75,305.75)"/>
<path d="M0 0 C8.6445843 4.40384483 12.03858352 12.19113208 15 21 C16.11656195 24.84423613 16.8510088 28.04673217 16 32 C13.39916605 35.27570105 10.44702304 37.65494924 7 40 C4.08981245 38.54490623 3.90839048 36.62909263 2.75 33.625 C-1.14631984 24.0375541 -5.66463542 15.93367899 -12.4609375 8.09375 C-14 6 -14 6 -14 3 C-9.8360184 -0.62669365 -5.2560469 -0.83576718 0 0 Z " fill="#C89634" transform="translate(334,328)"/>
<path d="M0 0 C6.07235165 4.27043598 9.81023729 10.50766102 13.625 16.75 C14.05941406 17.43835938 14.49382812 18.12671875 14.94140625 18.8359375 C15.91007655 21.54821435 15.57878914 23.04971697 14.625 25.75 C12.77734375 27.76953125 12.77734375 27.76953125 10.5625 29.5625 C9.82902344 30.16707031 9.09554687 30.77164063 8.33984375 31.39453125 C7.77394531 31.84183594 7.20804687 32.28914063 6.625 32.75 C4.33646291 29.80170447 2.37441368 26.75081634 0.4375 23.5625 C-4.98325338 15.04579334 -10.80794053 8.70335318 -19.2734375 3.16015625 C-21.375 1.75 -21.375 1.75 -23.375 -0.25 C-8.18706022 -4.6642288 -8.18706022 -4.6642288 0 0 Z " fill="#C89634" transform="translate(324.375,268.25)"/>
<path d="M0 0 C13.66092119 2.8236156 25.19068506 9.41706476 33.078125 21.0703125 C36.64271418 26.894346 36.64271418 26.894346 38 30 C37.505 31.485 37.505 31.485 37 33 C36.443125 32.60167969 35.88625 32.20335937 35.3125 31.79296875 C29.1621836 27.52307003 23.73513393 23.99253719 16.08984375 24.0078125 C13.29541739 23.6812837 12.31177407 23.3609783 10.44995117 21.20532227 C9.02233437 18.75048309 7.80247117 16.27150024 6.625 13.6875 C5.98884766 12.38522461 5.98884766 12.38522461 5.33984375 11.05664062 C4.55244361 9.43837188 3.77708609 7.81414565 3.01806641 6.18237305 C2.04766072 4.10216766 1.03567468 2.04835376 0 0 Z " fill="#C89534" transform="translate(344,265)"/>
<path d="M0 0 C1.16480606 2.84049196 1.03340859 3.91167984 -0.07421875 6.83984375 C-0.60660156 7.86207031 -1.13898438 8.88429687 -1.6875 9.9375 C-2.20699219 10.95714844 -2.72648437 11.97679687 -3.26171875 13.02734375 C-6.69776906 18.90337586 -10.44239791 22.25930629 -16 26 C-19.39419263 22.71529745 -22.61907735 19.29302848 -25.8125 15.8125 C-26.99779297 14.52279297 -26.99779297 14.52279297 -28.20703125 13.20703125 C-30 11 -30 11 -30 9 C-28.25976562 8.77957031 -28.25976562 8.77957031 -26.484375 8.5546875 C-16.56721496 7.17393821 -8.66265224 5.24854812 0 0 Z " fill="#662A12" transform="translate(430,247)"/>
<path d="M0 0 C2.1328125 2.43359375 2.1328125 2.43359375 4.125 5.4375 C7.00465689 9.76052357 7.00465689 9.76052357 11 13 C1.34132701 14.7165888 -8.31874104 16.41443736 -18 18 C-18.33 18.99 -18.66 19.98 -19 21 C-19.62460568 11.24921136 -19.62460568 11.24921136 -17.25 6.5 C-12.60162163 1.33513515 -7.12112364 -2.46041867 0 0 Z " fill="#652911" transform="translate(51,212)"/>
<path d="M0 0 C3.63 0 7.26 0 11 0 C9.68 0.99 8.36 1.98 7 3 C3.25 2.1875 3.25 2.1875 0 1 C0 0.67 0 0.34 0 0 Z " fill="#378533" transform="translate(213,82)"/>
</svg>
