<?xml version="1.0" encoding="UTF-8"?>
<svg id="Layer_1" xmlns="http://www.w3.org/2000/svg" viewBox="0 0 360.21 590.75">
  <defs>
    <style>
      .cls-1 {
        fill: #76c505;
      }

      .cls-2 {
        fill: #fb9903;
      }
    </style>
  </defs>
  <path class="cls-2" d="M20.22,346.63c.06-.62.14-1.23.24-1.85,6.4-39.11,12.72-78.22,19.21-117.32,8.17-49.24,50.53-74.13,97.14-55.74,40.48,15.98,80.55,33.09,120.19,51.06,38.11,17.28,51.18,63.81,27.41,98.85-18.59,27.41-39.67,53.13-59.57,79.65-2.53,3.37-110.35,112.34-178.08,181.22-18,18.31-49.02,3.88-46.62-21.68l20.09-214.2Z"/>
  <path class="cls-1" d="M266.99,203.67c-8.14-.17-22.98-3.15-35.85-10.58-18.74-10.81-38.9-17.24-59.07-24.37-58.3-20.6-68.33-65.22-55.79-117.56,2.79-11.66,9.64-15.42,21.72-12.05,14.41,4.02,28.83,8.02,41.04,16.68,8.09,5.74,11.57,3.73,16.52-3.83,16.05-24.55,39.76-39.38,66.58-49.73,13.42-5.18,21.91-1.5,27.13,12.92,8.74,24.11,12.95,48.5,8.35,73.79-1.77,9.72.74,13.83,10.39,15.9,16.75,3.6,31.6,11.67,45.14,22.19,5.78,4.49,8.86,9.24,5.97,17.1-10.49,28.51-54.86,59.79-92.12,59.54Z"/>
</svg>