<?xml version="1.0" encoding="UTF-8"?>
<svg id="Layer_1" xmlns="http://www.w3.org/2000/svg" viewBox="0 0 399.35 473.72">
  <defs>
    <style>
      .cls-1 {
        fill: #d59b64;
      }

      .cls-2 {
        fill: #e6ac6e;
      }

      .cls-3 {
        fill: #c58958;
      }
    </style>
  </defs>
  <path class="cls-2" d="M162.23,473.37c-71.91,2-139.46-50.82-156.55-119.74-10.53-42.45-6.85-83,14.54-121.03,10.49-18.65,24.33-35.2,41.8-48.3,10.11-7.58,20.06-15.12,31.73-20.41,8.55-3.87,10.67-13.67,15.31-20.93,19.79-30.94,37.53-63.26,59.2-92.92C191.46,18.29,223.57.98,263.09.05c58.56-1.38,99.95,25.91,124.62,78.52,19.03,40.58,13.52,80.42-7.74,118.14-14.43,25.6-26.59,52.57-42.71,77.03-12.26,18.6-9.91,38.67-12.43,58.41-4.3,33.66-18.23,62.72-40.61,88.03-26.94,30.46-61.15,47.04-100.82,53.03-6.9,1.04-14.1.15-21.16.15ZM192.25,383.7c21.53.04,40.43-19.71,40.48-42.32.05-20.23-15.35-34.68-35.55-35.81-18.96-1.05-39.37,25.95-38.92,42.98.57,21.48,13.18,35.1,33.99,35.14ZM308.75,160.34c-1.77,16.72,14.68,26.86,26.32,26.93,13.96.07,30.21-17.93,30.25-33.49.03-13.11-13-25.83-26.94-26.28-15.76-.52-29.62,14.84-29.64,32.84ZM139.12,373.7c-.02-11.45-6.72-18.43-17.71-18.44-10.62-.01-21.6,11.22-21.21,21.71.35,9.46,9.49,17.51,19.72,17.38,11.4-.14,19.21-8.55,19.2-20.65ZM323.32,107.67c10.55-.11,20.78-10.53,20.48-20.84-.31-10.44-9.28-18.12-20.94-17.93-7.69.13-17.52,11.45-17.54,20.21-.03,10.34,8.05,18.66,18.01,18.56Z"/>
  <path class="cls-3" d="M192.25,383.7c-20.81-.04-33.42-13.66-33.99-35.14-.45-17.03,19.96-44.04,38.92-42.98,20.21,1.12,35.61,15.58,35.55,35.81-.06,22.6-18.95,42.35-40.48,42.32Z"/>
  <path class="cls-3" d="M308.75,160.34c.02-18,13.88-33.36,29.64-32.84,13.94.46,26.97,13.17,26.94,26.28-.04,15.56-16.29,33.56-30.25,33.49-11.64-.06-28.09-10.2-26.32-26.93Z"/>
  <path class="cls-3" d="M139.12,373.7c.02,12.1-7.8,20.51-19.2,20.65-10.23.13-19.37-7.93-19.72-17.38-.39-10.49,10.58-21.72,21.21-21.71,10.99.01,17.7,6.99,17.71,18.44Z"/>
  <path class="cls-3" d="M323.32,107.67c-9.95.1-18.03-8.22-18.01-18.56.02-8.75,9.85-20.08,17.54-20.21,11.66-.2,20.63,7.49,20.94,17.93.31,10.31-9.93,20.73-20.48,20.84Z"/>
  <path class="cls-1" d="M124.46,198.16c14.66.15,27.35,10.81,26.59,23.8-1.14,19.37-11.28,34.91-31.71,34.59-14.01-.22-24.53-11.84-24.75-26.67-.19-12.89,12.81-33.98,29.87-31.71Z"/>
  <path class="cls-1" d="M322.88,107.64c-12.68.07-23.02-10.48-23.02-23.49,0-11.64,13.03-25.96,23.4-25.72,15.13.35,26.4,10.32,26.29,23.26-.11,13.23-13.12,25.88-26.67,25.96Z"/>
  <path class="cls-1" d="M185.48,153.94c-10.56-.05-16.49-5.43-16.53-14.99-.04-11.99,7.36-20.44,17.85-20.39,9.25.04,17.27,7.08,17.32,15.21.07,10.3-9.09,20.22-18.64,20.17Z"/>
</svg>