<?xml version="1.0" encoding="UTF-8"?>
<svg version="1.1" xmlns="http://www.w3.org/2000/svg" width="512" height="512">
<path d="M0 0 C1.00853027 -0.00700928 2.01706055 -0.01401855 3.05615234 -0.02124023 C6.39188114 -0.03885406 9.72676248 -0.02718497 13.0625 -0.01367188 C15.37890791 -0.0163658 17.69531472 -0.02024739 20.01171875 -0.02526855 C24.86729698 -0.03116822 29.72258096 -0.02258526 34.578125 -0.00390625 C40.80614646 0.01888316 47.03347845 0.00576265 53.26147461 -0.01819611 C58.04497485 -0.0326412 62.82831127 -0.02805393 67.61181641 -0.01768494 C69.90836671 -0.0150141 72.20493183 -0.01829988 74.50146484 -0.02760315 C77.7097114 -0.03774714 80.91683706 -0.02229671 84.125 0 C85.55271729 -0.01214539 85.55271729 -0.01214539 87.00927734 -0.02453613 C93.39320111 0.05777639 93.39320111 0.05777639 96.65124512 2.29602051 C98.14995737 4.65525105 98.56733057 5.81756917 98.58007812 8.58007812 C98.59268677 9.36769531 98.60529541 10.1553125 98.61828613 10.96679688 C98.61018921 11.80855469 98.60209229 12.6503125 98.59375 13.51757812 C98.5975769 14.39027344 98.60140381 15.26296875 98.60534668 16.16210938 C98.6080649 18.00456905 98.60070994 19.84706737 98.58398438 21.68945312 C98.56257248 24.50803746 98.58378801 27.32407297 98.609375 30.14257812 C98.60673171 31.93425041 98.60160669 33.72592111 98.59375 35.51757812 C98.60184692 36.35933594 98.60994385 37.20109375 98.61828613 38.06835938 C98.55744461 41.86891335 98.49215431 43.90015594 96.27929688 47.08007812 C94.0625 48.51757812 94.0625 48.51757812 90.0625 48.51757812 C90.14753557 58.76791143 90.24265209 69.01809972 90.35002708 79.26822472 C90.39960212 84.02969935 90.44592946 88.79115584 90.484375 93.55273438 C90.52172554 98.16294299 90.56820686 102.77298348 90.62056351 107.3830452 C90.63884726 109.12652204 90.65404683 110.87003455 90.66584396 112.61356735 C90.7282757 121.53613622 91.00047626 130.36960244 91.95166016 139.24658203 C92.06463471 140.32368722 92.06463471 140.32368722 92.17989159 141.42255211 C94.7693993 163.3065491 107.19428388 181.90301245 124.0625 195.51757812 C126.76605394 197.34544062 129.51859875 199.05331212 132.3046875 200.75195312 C150.98716037 212.71296975 163.94953833 230.95055085 169.10733032 252.52856445 C170.7184983 260.80969196 170.35822502 269.26899506 170.35302734 277.66992188 C170.35901894 279.60588844 170.36582593 281.54185263 170.37338257 283.47781372 C170.3909807 288.71327611 170.3957352 293.94867303 170.39701414 299.18416214 C170.39843926 302.45911584 170.40271557 305.73405308 170.40800858 309.00900269 C170.42648496 320.44514008 170.43468176 331.88123098 170.43310547 343.31738281 C170.43190316 353.96135872 170.4530292 364.60513215 170.4845928 375.24905682 C170.51077034 384.40433801 170.52147221 393.55955309 170.52019465 402.71487141 C170.51968567 408.17569933 170.52533457 413.63634697 170.54655075 419.09713745 C170.56595921 424.23218783 170.56603968 429.36688629 170.55151749 434.50194931 C170.54943188 436.38122956 170.55411541 438.26053201 170.5662384 440.13977432 C170.63884456 452.17866711 170.45557669 462.6819354 161.765625 471.98632812 C154.57231062 478.4537117 147.1284605 480.82294519 137.51177979 480.78500366 C136.66433 480.78953478 135.81688022 480.79406589 134.94375014 480.79873431 C132.11120729 480.81136905 129.27885694 480.80975853 126.44628906 480.80810547 C124.4123917 480.81409134 122.3784966 480.82089702 120.34460449 480.82846069 C114.8237911 480.84612305 109.30303972 480.85081621 103.78220081 480.85209227 C100.33104877 480.85351442 96.87991247 480.85778527 93.42876434 480.8630867 C81.38316345 480.88158857 69.33760682 480.88975721 57.29199219 480.88818359 C46.07325024 480.88698253 34.85470079 480.90807773 23.63600755 480.93967092 C13.99673505 480.96584649 4.35752537 480.97655033 -5.28178239 480.97527277 C-11.03553678 480.97476347 -16.78912013 480.98042923 -22.54283905 481.00162888 C-27.95689439 481.02103239 -33.37061592 481.02112108 -38.78468323 481.00659561 C-40.76716348 481.00450897 -42.74966475 481.0091997 -44.73210907 481.02131653 C-57.04905406 481.09169774 -67.87549998 481.12206399 -77.40625 472.22070312 C-83.73612361 465.1803335 -86.24428592 457.81668896 -86.20492554 448.38687134 C-86.21172221 447.18330004 -86.21172221 447.18330004 -86.21865618 445.95541418 C-86.23128458 443.27506731 -86.22968078 440.59492405 -86.22802734 437.91455078 C-86.2340139 435.9889093 -86.24081974 434.06327021 -86.24838257 432.13763428 C-86.2660451 426.90979642 -86.2707383 421.68202407 -86.27201414 416.45415926 C-86.27343711 413.1825305 -86.27770968 409.91091831 -86.28300858 406.63929367 C-86.3015156 395.20922543 -86.30967908 383.77920382 -86.30810547 372.34912109 C-86.3069066 361.72352463 -86.32795717 351.09813214 -86.3595928 340.47258723 C-86.38583261 331.3308809 -86.39646941 322.18924081 -86.39519465 313.04749715 C-86.39468692 307.59647859 -86.40026415 302.14564098 -86.42155075 296.69466019 C-86.44106105 291.55800301 -86.44097092 286.42169685 -86.42651749 281.28502655 C-86.42444347 279.41149502 -86.42904511 277.53794079 -86.4412384 275.66444778 C-86.52938823 261.16765127 -85.23283762 247.22328646 -78.1875 234.20507812 C-77.84533447 233.54902588 -77.50316895 232.89297363 -77.15063477 232.21704102 C-69.2913229 217.53447462 -58.99217172 208.00460579 -45.359375 198.77148438 C-25.96869741 185.5699696 -13.03998751 167.74702285 -8.27748108 144.6676178 C-6.4992317 133.42197223 -6.73182648 121.88458628 -6.62109375 110.52929688 C-6.60047233 108.73183268 -6.57947471 106.93437276 -6.55812073 105.13691711 C-6.50343487 100.45011912 -6.4537942 95.76328135 -6.40527344 91.07641602 C-6.35466289 86.27616925 -6.29918522 81.47597886 -6.24414062 76.67578125 C-6.13721528 67.28976193 -6.03563007 57.90369324 -5.9375 48.51757812 C-6.88625 48.41445313 -7.835 48.31132813 -8.8125 48.20507812 C-11.9375 47.51757812 -11.9375 47.51757812 -13.9375 44.51757812 C-14.15811147 41.51893068 -14.26555299 38.61550638 -14.2734375 35.61523438 C-14.2834227 34.30406898 -14.2834227 34.30406898 -14.29360962 32.96641541 C-14.30373288 31.11801254 -14.30842674 29.26957314 -14.30810547 27.42114258 C-14.31247854 24.59395125 -14.34880002 21.7683213 -14.38671875 18.94140625 C-14.39258701 17.14518763 -14.39655634 15.3489616 -14.3984375 13.55273438 C-14.41280853 12.70783951 -14.42717957 11.86294464 -14.44198608 10.9924469 C-14.43583282 10.20160202 -14.42967957 9.41075714 -14.42333984 8.59594727 C-14.42618988 7.90328262 -14.42903992 7.21061798 -14.43197632 6.4969635 C-12.60332731 -0.82310616 -6.16611205 -0.05245423 0 0 Z " fill="#D7322D" transform="translate(213.9375,15.482421875)"/>
<path d="M0 0 C1.11592624 -0.01169993 1.11592624 -0.01169993 2.25439644 -0.02363622 C4.74285794 -0.04355209 7.22978936 -0.0277946 9.71826172 -0.01205444 C11.50397636 -0.01883079 13.28968401 -0.02773402 15.07537842 -0.03860474 C19.92254513 -0.06140267 24.76917986 -0.0525597 29.6163559 -0.03670931 C34.6882623 -0.0240529 39.76012307 -0.0357897 44.83203125 -0.04364014 C53.34952983 -0.05273745 61.86681167 -0.04074662 70.38427734 -0.01693726 C80.23252037 0.01027414 90.08024585 0.00146004 99.92847633 -0.02606928 C108.38298282 -0.04875699 116.83733348 -0.05196208 125.29186058 -0.03887594 C130.34181578 -0.03107958 135.3915277 -0.03004495 140.44146729 -0.04655838 C145.18916304 -0.06099893 149.93619137 -0.05098905 154.683815 -0.0220871 C156.42649477 -0.01547406 158.16923067 -0.01737772 159.91188812 -0.02840042 C162.29065046 -0.04205976 164.66727263 -0.0249387 167.04589844 0 C167.73607622 -0.01115361 168.42625401 -0.02230722 169.13734627 -0.03379881 C172.80872393 0.04089908 174.48134851 0.60382742 177.45142365 2.82354927 C179.7853645 5.99105486 180.14726046 7.37131077 180.14440918 11.2517395 C180.15561798 12.37046951 180.16682678 13.48919952 180.17837524 14.64183044 C180.165112 15.85964706 180.15184875 17.07746368 180.13818359 18.33218384 C180.1437326 19.62210739 180.14928162 20.91203094 180.15499878 22.24104309 C180.16922916 25.77224685 180.15220348 29.30267026 180.12871361 32.83379936 C180.10858291 36.53235433 180.11448531 40.23087759 180.11682129 43.92947388 C180.11676774 50.14017582 180.0970253 56.3505733 180.06494141 62.56118774 C180.02804946 69.73731237 180.01926607 76.91303824 180.02623892 84.08924532 C180.03254841 90.99789078 180.02178142 97.90639978 180.00227356 104.8150177 C179.99410766 107.75271044 179.99138851 110.69033336 179.9929657 113.6280365 C179.9940094 117.73144594 179.9698132 121.83433155 179.94287109 125.93765259 C179.9458017 127.15546921 179.9487323 128.37328583 179.95175171 129.62800598 C179.93472702 131.306101 179.93472702 131.306101 179.9173584 133.01809692 C179.91176533 134.47262394 179.91176533 134.47262394 179.90605927 135.95653534 C179.44676071 139.16756411 178.46538531 141.051643 176.52294922 143.63491821 C173.04917006 144.7928446 169.9376748 144.78621972 166.32437134 144.78881836 C165.2171337 144.79539174 165.2171337 144.79539174 164.08752763 144.80209792 C161.60717731 144.81548236 159.1268625 144.82166391 156.64648438 144.82778931 C154.87092427 144.83569039 153.09536577 144.84395934 151.31980896 144.85256958 C145.48389214 144.87878315 139.64796815 144.89409388 133.81201172 144.90835571 C131.80403005 144.91371516 129.79604843 144.91909267 127.78806686 144.92448807 C119.43778671 144.94611341 111.08750848 144.96485168 102.73720741 144.97611046 C90.76297631 144.99236109 78.78906911 145.02556986 66.81496012 145.08251131 C58.39875517 145.12117244 49.98263701 145.14073845 41.56634557 145.14603102 C36.53753848 145.14968896 31.50907689 145.16175761 26.48036575 145.19413376 C21.75083977 145.22414805 17.02186958 145.23055005 12.29226875 145.21875 C10.55600859 145.21852873 8.81972313 145.22687825 7.08355141 145.24440384 C4.71352639 145.2670268 2.34552869 145.25883472 -0.02450562 145.24291992 C-0.71215669 145.25680201 -1.39980777 145.2706841 -2.10829675 145.28498685 C-5.77575893 145.22427246 -7.43515316 144.66619824 -10.40315247 142.45034218 C-12.74383543 139.27274429 -13.10445651 137.87384171 -13.11196899 133.98013306 C-13.12606812 132.85298889 -13.14016724 131.72584473 -13.1546936 130.56454468 C-13.14457245 129.33737732 -13.13445129 128.11020996 -13.12402344 126.84585571 C-13.13278503 125.54617859 -13.14154663 124.24650146 -13.15057373 122.90744019 C-13.17333634 119.34942485 -13.16454408 115.79213573 -13.1486783 112.23410797 C-13.13600319 108.50750294 -13.14776387 104.78095933 -13.15560913 101.05435181 C-13.16470107 94.79658871 -13.15273001 88.53912084 -13.12890625 82.28140259 C-13.10169549 75.05061115 -13.11051 67.82052465 -13.13803828 60.58975029 C-13.16074159 54.37724723 -13.16392357 48.16495616 -13.15084493 41.952425 C-13.143057 38.24383111 -13.14199029 34.53556836 -13.15852737 30.82699585 C-13.17567762 26.69223406 -13.15189698 22.55868396 -13.12402344 18.42398071 C-13.13414459 17.19681335 -13.14426575 15.969646 -13.1546936 14.70529175 C-13.14059448 13.57814758 -13.12649536 12.45100342 -13.11196899 11.28970337 C-13.11008387 10.31264435 -13.10819874 9.33558533 -13.10625648 8.32891846 C-11.4725195 1.33392811 -6.46638082 -0.10449986 0 0 Z " fill="#EF9059" transform="translate(172.47705078125,287.3650817871094)"/>
<path d="M0 0 C15.84 0 31.68 0 48 0 C48 68.64 48 137.28 48 208 C17.97 208.33 -12.06 208.66 -43 209 C-47.11909017 212.37497053 -47.11909017 212.37497053 -47.489398 215.49997711 C-47.48441201 216.44506889 -47.47942602 217.39016068 -47.47428894 218.3638916 C-47.47834244 219.4532753 -47.48239594 220.542659 -47.48657227 221.66505432 C-47.46264404 223.45217079 -47.46264404 223.45217079 -47.43823242 225.27539062 C-47.43721024 226.53488022 -47.43618805 227.79436981 -47.43513489 229.09202576 C-47.4320057 232.55508286 -47.40429645 236.01756939 -47.37264419 239.48046684 C-47.34375253 243.14045955 -47.33860693 246.80048332 -47.33113098 250.46057129 C-47.3134996 257.43358089 -47.27639689 264.40633714 -47.2315343 271.37921953 C-47.14808549 284.46454839 -47.10326395 297.55007934 -47.05862808 310.6355896 C-47.04845762 313.60192398 -47.03710541 316.56825025 -47.02477646 319.53457642 C-46.93706476 341.04727573 -47.19432228 362.49886027 -48 384 C-58.56 384 -69.12 384 -80 384 C-80.09279637 359.50344047 -80.16408087 335.00692363 -80.20724869 310.51022339 C-80.22782952 299.13468422 -80.2558641 287.75925661 -80.30175781 276.38378906 C-80.34176311 266.46308437 -80.36746532 256.54246052 -80.37635398 246.6216774 C-80.38154561 241.37398514 -80.39365354 236.12652405 -80.42292023 230.87890625 C-80.45030617 225.92785146 -80.4583987 220.97712051 -80.45243073 216.02599716 C-80.45352069 214.22018543 -80.46133526 212.41436153 -80.4768219 210.60861588 C-80.59335338 196.30531388 -79.19654376 182.52315938 -72.25 169.6875 C-71.90783447 169.03144775 -71.56566895 168.37539551 -71.21313477 167.69946289 C-63.3538229 153.0168965 -53.05467172 143.48702766 -39.421875 134.25390625 C-20.01752693 121.04308437 -7.13697325 103.24058579 -2.33998108 80.16371155 C-0.75209957 70.05809753 -0.8088238 59.71508511 -0.68359375 49.51171875 C-0.66295608 48.07297768 -0.64195821 46.63424173 -0.62062073 45.19551086 C-0.56610172 41.45566022 -0.51639094 37.71576147 -0.46777344 33.97583008 C-0.40807657 29.46342095 -0.34224499 24.95109744 -0.27747345 20.43875885 C-0.18035041 13.62589264 -0.0908911 6.81296501 0 0 Z " fill="#F04B37" transform="translate(208,80)"/>
<path d="M0 0 C0.88830505 -0.00073013 1.77661011 -0.00146027 2.6918335 -0.00221252 C5.61964588 0.00126302 8.54585521 0.04012245 11.47338867 0.0793457 C13.50647614 0.08867395 15.53957487 0.09579001 17.57267761 0.1007843 C22.91754314 0.11985309 28.26172671 0.16895337 33.60632324 0.2243042 C39.06256892 0.27549895 44.51892505 0.29829886 49.9753418 0.32348633 C60.6768129 0.3770718 71.3777784 0.46238358 82.07885742 0.56762695 C82.07885742 4.19762695 82.07885742 7.82762695 82.07885742 11.56762695 C80.75885742 12.22762695 79.43885742 12.88762695 78.07885742 13.56762695 C77.74885742 19.83762695 77.41885742 26.10762695 77.07885742 32.56762695 C70.80885742 32.56762695 64.53885742 32.56762695 58.07885742 32.56762695 C59.06885742 35.53762695 59.06885742 35.53762695 60.07885742 38.56762695 C59.51038086 38.91954102 58.9419043 39.27145508 58.35620117 39.6340332 C47.1559629 46.79545434 39.11137564 55.82290952 35.64135742 69.06762695 C33.25811378 83.5524522 35.80598675 97.39281274 44.07885742 109.56762695 C53.9943736 121.87139648 67.00131887 126.3402633 82.07885742 128.56762695 C82.07885742 133.84762695 82.07885742 139.12762695 82.07885742 144.56762695 C70.30039042 144.68346626 58.52205889 144.77231492 46.74313831 144.82668781 C41.27370397 144.85278393 35.80465929 144.88818284 30.33544922 144.94482422 C25.05752927 144.99914259 19.77998415 145.02904738 14.50180626 145.04201317 C12.48792303 145.0512533 10.47406038 145.06929726 8.46033669 145.09627724 C5.63977319 145.13256508 2.82075929 145.1375724 0 145.13525391 C-1.24941124 145.16221848 -1.24941124 145.16221848 -2.52406311 145.18972778 C-6.39562441 145.15528329 -8.5282159 144.79373005 -11.9382782 142.83146667 C-15.06637615 137.68254654 -14.61688565 132.69186802 -14.56811523 126.77856445 C-14.57687683 125.47888733 -14.58563843 124.17921021 -14.59466553 122.84014893 C-14.61742814 119.28213359 -14.60863588 115.72484447 -14.5927701 112.16681671 C-14.58009499 108.44021168 -14.59185566 104.71366807 -14.59970093 100.98706055 C-14.60879287 94.72929745 -14.5968218 88.47182958 -14.57299805 82.21411133 C-14.54578728 74.98331989 -14.55460179 67.75323339 -14.58213007 60.52245903 C-14.60483339 54.30995597 -14.60801537 48.0976649 -14.59493673 41.88513374 C-14.58714879 38.17653985 -14.58608209 34.4682771 -14.60261917 30.75970459 C-14.61976941 26.6249428 -14.59598877 22.4913927 -14.56811523 18.35668945 C-14.57823639 17.12952209 -14.58835754 15.90235474 -14.5987854 14.63800049 C-14.49718726 6.51580956 -14.49718726 6.51580956 -11.9382782 2.30378723 C-7.82740274 -0.06174736 -4.66800131 -0.10074397 0 0 Z " fill="#F9B890" transform="translate(173.921142578125,287.432373046875)"/>
<path d="M0 0 C5.28 0 10.56 0 16 0 C16 68.64 16 137.28 16 208 C-14.03 208.33 -44.06 208.66 -75 209 C-76.65 209.99 -78.3 210.98 -80 212 C-80.82990586 196.41621222 -76.88653152 184.5623282 -67.25 172.3125 C-63.43966323 168.07659315 -58.70796522 165.14543708 -54 162 C-28.30639301 144.15009044 -8.53562781 119.37518089 -2.80508137 87.99191093 C-1.05955717 77.81604885 -0.52829109 67.92667607 -0.48828125 57.6171875 C-0.47137308 55.93896223 -0.45321501 54.26074915 -0.43388367 52.58255005 C-0.38704202 48.23284727 -0.35681206 43.8831938 -0.33044434 39.5333252 C-0.30030022 35.06769046 -0.25388946 30.60222512 -0.20898438 26.13671875 C-0.1237036 17.42454994 -0.05754009 8.71239621 0 0 Z " fill="#F04B37" transform="translate(240,80)"/>
<path d="M0 0 C0.886875 0.309375 1.77375 0.61875 2.6875 0.9375 C3.30882812 1.12957031 3.93015625 1.32164062 4.5703125 1.51953125 C9.62553119 3.47049968 11.38980318 5.75946057 13.75 10.625 C15.82680179 15.17338563 15.82680179 15.17338563 20.3125 17.25 C23.55250487 16.94999955 25.03822227 16.70368515 27.6875 14.9375 C28.885353 12.70347171 28.885353 12.70347171 29.8125 10.125 C32.25822151 4.8841682 35.03476816 2.98932316 40.1875 0.58203125 C43.20383886 -0.19561861 44.74585023 -0.08448161 47.6875 0.9375 C58.09728525 8.4767581 66.92973271 19.41359065 69.3671875 32.265625 C71.15023524 47.13885253 68.58416647 59.78205457 59.6875 71.9375 C52.04773924 81.5147671 41.5679736 87.14519357 29.6875 89.9375 C15.56734848 91.12445597 3.35601127 88.70895105 -7.8828125 79.9296875 C-17.95769233 71.29837254 -24.18869082 61.1657972 -26.3125 47.9375 C-27.28606002 33.82087966 -24.31112837 21.00162467 -14.875 10.12890625 C-4.86769539 -0.13155933 -4.86769539 -0.13155933 0 0 Z " fill="#EF4B37" transform="translate(234.3125,326.0625)"/>
<path d="M0 0 C5.28 0 10.56 0 16 0 C16.06829403 9.59828866 16.12311093 19.19641093 16.15543652 28.79488945 C16.17096601 33.2538151 16.19196576 37.7125632 16.22631836 42.17138672 C16.25937321 46.4897341 16.27694804 50.80791279 16.28463173 55.12637711 C16.29009385 56.75826796 16.30075419 58.39015161 16.31719017 60.02196884 C16.46001433 74.81627625 15.35211776 89.80475574 9.8125 103.6875 C9.50989258 104.47020264 9.20728516 105.25290527 8.89550781 106.05932617 C-1.24385398 131.58156312 -18.26982977 149.9811153 -41.0546875 165.015625 C-52.5215476 172.82960723 -60.20081287 184.28089971 -63 198 C-63.08691679 199.97623477 -63.11768628 201.95520879 -63.11352539 203.93334961 C-63.1134549 205.14894562 -63.1133844 206.36454163 -63.11331177 207.61697388 C-63.10817707 208.96209749 -63.10295562 210.30722078 -63.09765625 211.65234375 C-63.09573615 213.0723363 -63.09427279 214.49232953 -63.0932312 215.912323 C-63.09006735 218.97554777 -63.08379239 222.03874503 -63.07516479 225.10195923 C-63.06157054 229.98488145 -63.05572981 234.86779466 -63.05102539 239.75073242 C-63.03898514 251.04039295 -63.01722046 262.33003073 -62.99479675 273.61967468 C-62.97442736 283.88663157 -62.95635349 294.15357908 -62.94658184 304.42055225 C-62.94249738 308.45924572 -62.93638137 312.49791101 -62.92483521 316.53659058 C-62.86114398 339.04306492 -63.26224113 361.50542431 -64 384 C-69.28 384 -74.56 384 -80 384 C-80.09277933 359.87732167 -80.16407219 335.75468664 -80.20724869 311.6318655 C-80.22783327 300.43005214 -80.25587511 289.228352 -80.30175781 278.02661133 C-80.34175153 268.25790342 -80.36746261 258.48927755 -80.37635398 248.72049004 C-80.38154756 243.55275278 -80.39366807 238.38525014 -80.42292023 233.21758842 C-80.45028778 228.34286756 -80.45840232 223.46847555 -80.45243073 218.59368515 C-80.45352149 216.81486658 -80.46134723 215.03603576 -80.4768219 213.25728416 C-80.64765545 192.58800252 -75.86022275 175.47112853 -61.2109375 160.171875 C-55.45648264 154.51908895 -49.70985258 150.12604642 -42.82421875 145.91015625 C-38.84992421 143.22214791 -35.45382575 140.0365466 -31.99609375 136.72265625 C-30 135 -30 135 -28 135 C-27.73316406 134.40703125 -27.46632812 133.8140625 -27.19140625 133.203125 C-25.97934963 130.96181375 -24.72064083 129.55421814 -22.9375 127.75 C-5.45731266 108.1212063 -0.58785644 82.31965013 -0.48828125 56.93359375 C-0.47137653 55.27635929 -0.45321887 53.6191372 -0.43388367 51.96192932 C-0.3870048 47.6631762 -0.35679834 43.36447313 -0.33044434 39.06555176 C-0.30031971 34.6536265 -0.25390188 30.24187318 -0.20898438 25.83007812 C-0.12366087 17.22012382 -0.05751775 8.61018498 0 0 Z " fill="#FE6854" transform="translate(224,80)"/>
<path d="M0 0 C1.00853027 -0.00700928 2.01706055 -0.01401855 3.05615234 -0.02124023 C6.39188114 -0.03885406 9.72676248 -0.02718497 13.0625 -0.01367188 C15.37890791 -0.0163658 17.69531472 -0.02024739 20.01171875 -0.02526855 C24.86729698 -0.03116822 29.72258096 -0.02258526 34.578125 -0.00390625 C40.80614646 0.01888316 47.03347845 0.00576265 53.26147461 -0.01819611 C58.04497485 -0.0326412 62.82831127 -0.02805393 67.61181641 -0.01768494 C69.90836671 -0.0150141 72.20493183 -0.01829988 74.50146484 -0.02760315 C77.7097114 -0.03774714 80.91683706 -0.02229671 84.125 0 C85.55271729 -0.01214539 85.55271729 -0.01214539 87.00927734 -0.02453613 C93.39320111 0.05777639 93.39320111 0.05777639 96.65124512 2.29602051 C98.14995737 4.65525105 98.56733057 5.81756917 98.58007812 8.58007812 C98.59268677 9.36769531 98.60529541 10.1553125 98.61828613 10.96679688 C98.61018921 11.80855469 98.60209229 12.6503125 98.59375 13.51757812 C98.59949036 14.82662109 98.59949036 14.82662109 98.60534668 16.16210938 C98.6080649 18.00456905 98.60070994 19.84706737 98.58398438 21.68945312 C98.56257248 24.50803746 98.58378801 27.32407297 98.609375 30.14257812 C98.60673171 31.93425041 98.60160669 33.72592111 98.59375 35.51757812 C98.60184692 36.35933594 98.60994385 37.20109375 98.61828613 38.06835938 C98.60567749 38.85597656 98.59306885 39.64359375 98.58007812 40.45507812 C98.57689575 41.14472656 98.57371338 41.834375 98.57043457 42.54492188 C97.76530425 45.67179186 96.73943632 46.67854925 94.0625 48.51757812 C90.75288099 49.11569435 87.48056152 49.06370153 84.125 49.03515625 C83.11646973 49.04216553 82.10793945 49.0491748 81.06884766 49.05639648 C77.73311886 49.07401031 74.39823752 49.06234122 71.0625 49.04882812 C68.74609209 49.05152205 66.42968528 49.05540364 64.11328125 49.0604248 C59.25770302 49.06632447 54.40241904 49.05774151 49.546875 49.0390625 C43.31885354 49.01627309 37.09152155 49.0293936 30.86352539 49.05335236 C26.08002515 49.06779745 21.29668873 49.06321018 16.51318359 49.05284119 C14.21663329 49.05017035 11.92006817 49.05345613 9.62353516 49.0627594 C6.4152886 49.07290339 3.20816294 49.05745296 0 49.03515625 C-0.95181152 49.04325317 -1.90362305 49.0513501 -2.88427734 49.05969238 C-9.26820111 48.97737986 -9.26820111 48.97737986 -12.52624512 46.73913574 C-14.02495737 44.3799052 -14.44233057 43.21758708 -14.45507812 40.45507812 C-14.46768677 39.66746094 -14.48029541 38.87984375 -14.49328613 38.06835938 C-14.48518921 37.22660156 -14.47709229 36.38484375 -14.46875 35.51757812 C-14.4725769 34.64488281 -14.47640381 33.7721875 -14.48034668 32.87304688 C-14.4830649 31.0305872 -14.47570994 29.18808888 -14.45898438 27.34570312 C-14.43757248 24.52711879 -14.45878801 21.71108328 -14.484375 18.89257812 C-14.48173171 17.10090584 -14.47660669 15.30923514 -14.46875 13.51757812 C-14.47684692 12.67582031 -14.48494385 11.8340625 -14.49328613 10.96679688 C-14.48067749 10.17917969 -14.46806885 9.3915625 -14.45507812 8.58007812 C-14.45189575 7.89042969 -14.44871338 7.20078125 -14.44543457 6.49023438 C-12.56450178 -0.81471008 -6.18642004 -0.05262699 0 0 Z " fill="#D6E5E5" transform="translate(213.9375,15.482421875)"/>
<path d="M0 0 C1.65 0.99 3.3 1.98 5 3 C7.0217702 3.44486411 7.0217702 3.44486411 9.0559845 3.39872742 C9.82854584 3.41126556 10.60110718 3.42380371 11.39707947 3.4367218 C12.64649071 3.43456917 12.64649071 3.43456917 13.92114258 3.43237305 C14.80944763 3.4425647 15.69775269 3.45275635 16.61297607 3.46325684 C19.54022537 3.49337767 22.46714736 3.50265144 25.39453125 3.51171875 C27.42763862 3.5285661 29.46073558 3.54671641 31.49382019 3.56611633 C36.83833564 3.61361628 42.18280886 3.64342579 47.52746582 3.66955566 C52.98389016 3.69936111 58.44016902 3.74589153 63.89648438 3.79101562 C74.59759689 3.87704889 85.29869422 3.94284806 96 4 C96 14.56 96 25.12 96 36 C64.32 36 32.64 36 0 36 C0 24.12 0 12.24 0 0 Z " fill="#F04B37" transform="translate(160,428)"/>
<path d="M0 0 C1.68738533 0.01061211 1.68738533 0.01061211 3.40885925 0.0214386 C6.99591024 0.04938981 10.58139087 0.11213408 14.16796875 0.17578125 C16.60219097 0.20086298 19.0364377 0.22367636 21.47070312 0.24414062 C27.43282595 0.29921899 33.39403515 0.3828542 39.35546875 0.48828125 C39.45444056 5.54193417 39.52698478 10.59502149 39.57519531 15.64941406 C39.59529503 17.36826404 39.62257964 19.08704577 39.65722656 20.80566406 C39.70581909 23.27816614 39.7284531 25.74976335 39.74609375 28.22265625 C39.76673889 28.98946716 39.78738403 29.75627808 39.80865479 30.54632568 C39.810065 33.90913149 39.74174236 35.98740021 37.65380859 38.69482422 C34.88438832 40.85587811 33.60221389 40.97611373 30.12792969 40.94238281 C29.08715271 40.94208069 28.04637573 40.94177856 26.97406006 40.94146729 C25.29887299 40.91049957 25.29887299 40.91049957 23.58984375 40.87890625 C22.4413092 40.87324646 21.29277466 40.86758667 20.10943604 40.86175537 C16.44102301 40.83936456 12.77358658 40.78916067 9.10546875 40.73828125 C6.61850369 40.71821986 4.13152332 40.69996847 1.64453125 40.68359375 C-4.45215614 40.6394908 -10.54827392 40.57255074 -16.64453125 40.48828125 C-16.76842605 35.5953896 -16.85900634 30.70341698 -16.91918945 25.80932617 C-16.94428472 24.14575286 -16.97836921 22.48228929 -17.02172852 20.8190918 C-17.08260585 18.42338972 -17.11078894 16.02914874 -17.1328125 13.6328125 C-17.15861893 12.89303665 -17.18442535 12.1532608 -17.21101379 11.3910675 C-17.2129606 7.78078202 -16.71775076 5.60925606 -14.84179688 2.50976562 C-10.00259939 -0.54983694 -5.60951805 -0.13283852 0 0 Z " fill="#9BD2EF" transform="translate(272.64453125,23.51171875)"/>
<path d="M0 0 C3 0.25 3 0.25 5 2.25 C5.22705078 4.22119141 5.22705078 4.22119141 5.1953125 6.6015625 C5.19031738 7.36807129 5.18532227 8.13458008 5.18017578 8.92431641 C5.15286377 10.38490479 5.15286377 10.38490479 5.125 11.875 C5.08375 14.96875 5.0425 18.0625 5 21.25 C11.27 21.25 17.54 21.25 24 21.25 C22 27.25 22 27.25 19.57421875 28.796875 C18.14529297 29.39242188 18.14529297 29.39242188 16.6875 30 C11.14144578 32.72234515 9.23728246 35.36090516 7.09765625 41.078125 C5.75740944 43.73000126 4.77906549 44.30282787 2 45.25 C-1.4375 45.375 -1.4375 45.375 -5 44.25 C-7.61022226 41.25029431 -9.38398805 37.82944296 -10.82421875 34.13671875 C-12.83462794 30.91071331 -16.27361537 30.16851007 -19.6875 28.7890625 C-22 27.25 -22 27.25 -24 21.25 C-17.73 21.25 -11.46 21.25 -5 21.25 C-5.07906775 15.0869817 -5.07906775 15.0869817 -5.18017578 8.92431641 C-5.1851709 8.15780762 -5.19016602 7.39129883 -5.1953125 6.6015625 C-5.20578613 5.81604004 -5.21625977 5.03051758 -5.22705078 4.22119141 C-4.81973587 0.68499723 -3.35040882 0.27920073 0 0 Z " fill="#6A9F41" transform="translate(256,298.75)"/>
<path d="M0 0 C1.9375 2.375 1.9375 2.375 3 5 C3.70125 5.515625 4.4025 6.03125 5.125 6.5625 C7 8 7 8 7.75 9.75 C8.41249392 15.71244524 8.34726869 19.86752135 5 25 C0.85456529 29.54986736 -2.39481217 30.82446141 -8.5390625 31.12890625 C-13.81879252 30.85234896 -17.00532815 28.88655534 -20.875 25.4375 C-23.90540637 21.40364781 -24.25800786 16.9256047 -24 12 C-22.35923209 6.11253869 -19.87401736 3.38197123 -15 0 C-10.15259303 -1.68426852 -4.92769682 -1.14310208 0 0 Z " fill="#FE8672" transform="translate(248,337)"/>
</svg>
