<?xml version="1.0" encoding="UTF-8"?>
<svg version="1.1" xmlns="http://www.w3.org/2000/svg" width="512" height="512">
<path d="M0 0 C4.12137801 1.97800704 6.27001763 4.30139863 8.8125 8.0625 C9.41707031 8.94035156 10.02164062 9.81820313 10.64453125 10.72265625 C12 13 12 13 12 15 C12.8206897 14.7054895 12.8206897 14.7054895 13.65795898 14.4050293 C57.16772993 -1.05531847 100.18832615 3.14270752 141.9375 22.8125 C158.40740615 30.87334759 173.6677291 40.58195053 188 52 C188.57758057 52.44037598 189.15516113 52.88075195 189.75024414 53.33447266 C193.92203912 56.60310824 193.92203912 56.60310824 194.6875 60.5 C192.77921278 70.21491677 177.66092699 77.82054719 170 83 C163.18501485 87.33267231 156.14220779 91.23669534 149 95 C148.21157715 95.41620605 147.4231543 95.83241211 146.61083984 96.26123047 C109.98379055 115.28075364 66.22993975 123.93725314 26.06665039 111.74267578 C2.75881548 104.22920229 -15.29296275 91.12234937 -32.28515625 73.65234375 C-33.72312274 71.88435628 -33.72312274 71.88435628 -35 72 C-35.64948119 75.97858003 -36.293915 79.95796229 -36.9375 83.9375 C-37.11990234 85.05447266 -37.30230469 86.17144531 -37.49023438 87.32226562 C-44.4201097 130.28749262 -38.88050376 173.64498274 -20 213 C-19.60941406 213.81694336 -19.21882813 214.63388672 -18.81640625 215.47558594 C-8.68395699 236.34677036 5.29274292 254.04665572 21 271 C32.22293223 266.99728185 37.72007998 255.47752329 42.875 245.4375 C50.72342683 230.84400609 63.93984829 221.27832556 79.4921875 216.18359375 C99.00138265 211.48693566 119.82676258 217.14106566 136.80224609 227.05224609 C154.54243153 238.1044065 167.72795464 253.03617577 178 271 C178.65097656 272.13308594 179.30195313 273.26617187 179.97265625 274.43359375 C183.50954821 281.03320095 186.05573013 287.66945127 188.25 294.8125 C188.48428711 295.56950195 188.71857422 296.32650391 188.95996094 297.10644531 C193.07735015 311.32532025 194.55715025 325.32301284 194.4375 340.0625 C194.43293793 341.26481766 194.43293793 341.26481766 194.42828369 342.49142456 C194.18351247 386.36367357 178.80032462 431.08340735 147.47607422 462.55859375 C124.64289834 484.8554959 96.12658608 490.50003319 65.23957825 490.30352783 C20.05071448 489.74085167 -23.41046994 469.74019555 -55 438 C-55.72703125 437.28457031 -56.4540625 436.56914062 -57.203125 435.83203125 C-58.21632813 434.83236328 -58.21632813 434.83236328 -59.25 433.8125 C-59.93578125 433.13832031 -60.6215625 432.46414063 -61.328125 431.76953125 C-63 430 -63 430 -64 428 C-67.79812546 429.26604182 -68.74560293 430.92044838 -71.1875 434.0625 C-78.26276303 442.89233712 -86.11454827 450.0134553 -95 457 C-95.9384375 457.74378906 -96.876875 458.48757813 -97.84375 459.25390625 C-123.27062554 478.90505334 -153.82769938 492.1155204 -186.5 488.375 C-212.8687356 484.18394269 -237.04951066 471.55767364 -257 454 C-257.82757813 453.28199219 -258.65515625 452.56398438 -259.5078125 451.82421875 C-262.04285576 449.58718214 -264.5283734 447.30685149 -267 445 C-268.29357422 443.80503906 -268.29357422 443.80503906 -269.61328125 442.5859375 C-281.92565553 430.79029094 -291.82042237 416.91707971 -300 402 C-300.34369629 401.38366699 -300.68739258 400.76733398 -301.04150391 400.13232422 C-307.21529983 388.94068947 -311.45289971 377.26148964 -315 365 C-315.36351562 363.75605469 -315.72703125 362.51210938 -316.1015625 361.23046875 C-322.91046932 332.37215805 -318.3726308 299.3995637 -303.75390625 273.75 C-292.97453119 256.84870815 -278.88114364 242.33000646 -259.0625 236.75 C-238.88083608 232.8198865 -221.58386727 238.58350593 -204.875 249.6875 C-198.34311869 253.92245602 -190.61256719 256.56102441 -183 258 C-182.98541748 257.21165771 -182.97083496 256.42331543 -182.95581055 255.61108398 C-181.52480412 185.91652008 -159.02800164 125.60762626 -108.58984375 76.40234375 C-95.13824115 63.51697541 -79.35167168 53.05500797 -63.87915039 42.77075195 C-61.63998657 41.28088613 -59.4068323 39.78228116 -57.17382812 38.28320312 C-55.74513912 37.33020807 -54.31611596 36.37771373 -52.88671875 35.42578125 C-52.22226242 34.9790657 -51.55780609 34.53235016 -50.87321472 34.07209778 C-46.22948457 31 -46.22948457 31 -44 31 C-44.103125 30.13375 -44.20625 29.2675 -44.3125 28.375 C-43.90668447 23.99219232 -42.11332208 21.90753564 -39 19 C-35.51299993 16.45145857 -31.86922882 14.19246728 -28.1875 11.9375 C-26.74793945 11.0393457 -26.74793945 11.0393457 -25.27929688 10.12304688 C-23.39829925 8.95079375 -21.51322114 7.78505837 -19.6237793 6.62646484 C-17.96286062 5.59687145 -16.31397844 4.54737467 -14.68286133 3.47119141 C-13.64875122 2.7912915 -13.64875122 2.7912915 -12.59375 2.09765625 C-11.71299805 1.50416382 -11.71299805 1.50416382 -10.81445312 0.89868164 C-7.40572624 -0.78962886 -3.66979998 -0.79062118 0 0 Z M-101 93 C-101.92554688 93.87269531 -102.85109375 94.74539062 -103.8046875 95.64453125 C-110.95769512 102.56450888 -117.07963359 110.01781444 -123 118 C-123.74894531 119.00417969 -124.49789062 120.00835937 -125.26953125 121.04296875 C-154.14570871 161.26150061 -167.10531592 208.81344152 -166 258 C-154.43175882 257.42158794 -145.52253024 252.52995102 -136.08251953 246.24389648 C-131.24176883 243.0559375 -126.52315829 240.72360629 -121 239 C-120.33484375 238.77699219 -119.6696875 238.55398437 -118.984375 238.32421875 C-103.83889224 234.07539057 -87.49917309 237.11245504 -73.83984375 244.23828125 C-70.0603995 246.58288834 -66.91502119 249.35783642 -63.7421875 252.4609375 C-62.13762413 254.22068871 -62.13762413 254.22068871 -60 254 C-59.74476563 254.58007812 -59.48953125 255.16015625 -59.2265625 255.7578125 C-57.87775365 258.22346943 -56.33642336 259.86669003 -54.375 261.875 C-50.33773393 266.28731264 -47.50779496 270.97537129 -44.70263672 276.21435547 C-42.42853971 280.59496139 -42.42853971 280.59496139 -39 284 C-35.82184318 284.46543273 -35.82184318 284.46543273 -32.1640625 284.3984375 C-31.15126724 284.40274277 -31.15126724 284.40274277 -30.11801147 284.40713501 C-28.68397182 284.40917683 -27.24990438 284.40363858 -25.81591797 284.39111328 C-23.66697031 284.37530867 -21.51997629 284.39082374 -19.37109375 284.41015625 C-10.54414829 284.42164269 -2.54817421 283.43309821 6 281 C2.8417333 276.61386454 -0.41621663 272.50097123 -4.125 268.5625 C-41.6859364 227.22026128 -59.14175703 168.3054151 -57.17285156 113.25878906 C-56.35996312 97.93331597 -53.96355655 82.74310615 -51.27050781 67.64990234 C-51.10518555 66.71742676 -50.93986328 65.78495117 -50.76953125 64.82421875 C-50.54680542 63.60351685 -50.54680542 63.60351685 -50.31958008 62.3581543 C-49.98346085 59.877959 -49.94531253 57.49980025 -50 55 C-64.47970893 55 -90.36102333 82.83934244 -101 93 Z " fill="#A92438" transform="translate(318,11)"/>
<path d="M0 0 C6.88876489 4.4716544 15.1334031 6.74298025 22.875 9.3125 C22.90005615 10.17004883 22.9251123 11.02759766 22.95092773 11.91113281 C23.04623412 15.1018437 23.14545751 18.29240219 23.24731445 21.48291016 C23.2905455 22.86209378 23.33222866 24.24132685 23.37231445 25.62060547 C23.43030403 27.60656938 23.49437723 29.59235269 23.55859375 31.578125 C23.59525146 32.77211914 23.63190918 33.96611328 23.66967773 35.19628906 C23.83708994 37.73713255 24.13817859 39.8896424 24.875 42.3125 C30.93550614 43.3937391 30.93550614 43.3937391 36.875 42.3125 C37.99365755 38.66591523 38.07870892 35.1588849 38.19140625 31.359375 C38.21218735 30.69915344 38.23296844 30.03893188 38.25437927 29.35870361 C38.31950147 27.26006985 38.37858502 25.16131628 38.4375 23.0625 C38.48072079 21.63540453 38.5243362 20.20832095 38.56835938 18.78125 C38.67514411 15.29179278 38.77651566 11.80220247 38.875 8.3125 C39.88280518 8.08763916 40.89061035 7.86277832 41.92895508 7.63110352 C52.61232817 5.18211534 61.01257985 0.89145285 70.10546875 -5.17578125 C82.85308494 -13.66543079 98.33430223 -15.27099109 113.234375 -13.2265625 C128.94836492 -9.69299334 142.11768081 -0.36105167 151.875 12.3125 C152.93654297 13.67761719 152.93654297 13.67761719 154.01953125 15.0703125 C166.66605524 32.26269095 174.40840931 53.88043431 174.875 75.3125 C174.92527344 76.45847656 174.97554688 77.60445313 175.02734375 78.78515625 C176.10096252 121.68696223 155.95958258 161.64752639 126.875 192.3125 C101.79673152 217.98521633 67.55810872 238.78407859 30.875 239.5625 C-0.07344811 238.82951044 -29.17036067 224.51401281 -52.125 204.3125 C-52.95257813 203.59449219 -53.78015625 202.87648438 -54.6328125 202.13671875 C-57.16785576 199.89968214 -59.6533734 197.61935149 -62.125 195.3125 C-62.98738281 194.51585937 -63.84976563 193.71921875 -64.73828125 192.8984375 C-77.05065553 181.10279094 -86.94542237 167.22957971 -95.125 152.3125 C-95.46869629 151.69616699 -95.81239258 151.07983398 -96.16650391 150.44482422 C-102.34029983 139.25318947 -106.57789971 127.57398964 -110.125 115.3125 C-110.48851563 114.06855469 -110.85203125 112.82460938 -111.2265625 111.54296875 C-118.03546932 82.68465805 -113.4976308 49.7120637 -98.87890625 24.0625 C-88.09953119 7.16120815 -74.00614364 -7.35749354 -54.1875 -12.9375 C-34.00583608 -16.8676135 -16.70886727 -11.10399407 0 0 Z " fill="#E3394E" transform="translate(113.125,260.6875)"/>
<path d="M0 0 C4.12137801 1.97800704 6.27001763 4.30139863 8.8125 8.0625 C9.41707031 8.94035156 10.02164063 9.81820313 10.64453125 10.72265625 C12 13 12 13 12 15 C12.8206897 14.7054895 12.8206897 14.7054895 13.65795898 14.4050293 C57.16772993 -1.05531847 100.18832615 3.14270752 141.9375 22.8125 C158.40740615 30.87334759 173.6677291 40.58195053 188 52 C188.57758057 52.44037598 189.15516113 52.88075195 189.75024414 53.33447266 C193.92203912 56.60310824 193.92203912 56.60310824 194.6875 60.5 C192.77921278 70.21491677 177.66092699 77.82054719 170 83 C163.18501485 87.33267231 156.14220779 91.23669534 149 95 C148.21157715 95.41620605 147.4231543 95.83241211 146.61083984 96.26123047 C109.98379055 115.28075364 66.22993975 123.93725314 26.06665039 111.74267578 C2.75881548 104.22920229 -15.29296275 91.12234937 -32.28515625 73.65234375 C-33.72312274 71.88435628 -33.72312274 71.88435628 -35 72 C-35.64948119 75.97858003 -36.293915 79.95796229 -36.9375 83.9375 C-37.11990234 85.05447266 -37.30230469 86.17144531 -37.49023438 87.32226562 C-44.4201097 130.28749262 -38.88050376 173.64498274 -20 213 C-19.60941406 213.81694336 -19.21882812 214.63388672 -18.81640625 215.47558594 C-7.32814989 239.13951072 9.18206109 260.14125627 28.30859375 278.15625 C28.81729004 278.64029297 29.32598633 279.12433594 29.85009766 279.62304688 C31.21593805 280.90908024 32.60143185 282.17415106 33.98828125 283.4375 C36.52694105 286.67121034 36.90552892 288.92357288 37 293 C34.67244292 296.31500554 33.11047362 297.7038737 29.1875 298.75 C24.27010061 297.59296485 21.5665136 294.4470008 18 291 C16.27625362 289.43152238 14.54695467 287.86912796 12.8125 286.3125 C12.01457031 285.58675781 11.21664062 284.86101562 10.39453125 284.11328125 C8.76569389 282.67575921 7.09496711 281.28464466 5.390625 279.9375 C1.77249384 277.0051584 -1.02713492 273.57179394 -4 270 C-4.42700195 269.49597656 -4.85400391 268.99195313 -5.29394531 268.47265625 C-43.12624541 223.65390352 -61.86386039 165.12440823 -57.765625 106.65625 C-56.57867189 93.53729455 -54.56492469 80.52856761 -52.27050781 67.56201172 C-52.10518555 66.62631348 -51.93986328 65.69061523 -51.76953125 64.7265625 C-51.62104736 63.90752441 -51.47256348 63.08848633 -51.31958008 62.24462891 C-50.90603066 59.71786673 -50.90603066 59.71786673 -51 56 C-68.75974346 67.60271137 -85.62693224 79.33447929 -101 94 C-101.85207031 94.79921875 -102.70414062 95.5984375 -103.58203125 96.421875 C-110.47000208 103.06036027 -116.30247425 110.34300772 -122 118 C-122.75023437 119.00546875 -123.50046875 120.0109375 -124.2734375 121.046875 C-156.20776 165.54741104 -165.01118176 214.88058316 -165.53173828 268.45385742 C-165.56533838 271.60871783 -165.61035814 274.76326709 -165.65625 277.91796875 C-165.6615271 278.87511276 -165.6668042 279.83225677 -165.67224121 280.81840515 C-165.68565552 281.70486221 -165.69906982 282.59131927 -165.71289062 283.50463867 C-165.72018188 284.27909836 -165.72747314 285.05355804 -165.73498535 285.85148621 C-166.03647756 288.29572912 -166.7223868 289.90376679 -168 292 C-170.95858947 294.04040653 -173.45021536 294.5324677 -177 294 C-179.24432982 292.12972515 -180.69443202 290.61113596 -182 288 C-182.10621867 286.21238959 -182.14880815 284.42084789 -182.16113281 282.63012695 C-182.17074036 281.50326981 -182.1803479 280.37641266 -182.19024658 279.21540833 C-182.19449646 277.98545639 -182.19874634 276.75550446 -182.203125 275.48828125 C-182.20882507 274.21389694 -182.21452515 272.93951263 -182.22039795 271.62651062 C-182.23093066 268.91026412 -182.23675316 266.19404727 -182.24023438 263.4777832 C-182.2445581 260.73838528 -182.25819929 257.99931321 -182.28125 255.26000977 C-182.45737029 233.89347108 -181.53100522 213.10748063 -176.25 192.3125 C-175.99468506 191.2819751 -175.73937012 190.2514502 -175.47631836 189.18969727 C-159.19685333 125.42395219 -117.635819 78.50166694 -63.87915039 42.77075195 C-61.63998657 41.28088613 -59.4068323 39.78228116 -57.17382812 38.28320312 C-55.74513912 37.33020807 -54.31611596 36.37771373 -52.88671875 35.42578125 C-52.22226242 34.9790657 -51.55780609 34.53235016 -50.87321472 34.07209778 C-46.22948457 31 -46.22948457 31 -44 31 C-44.103125 30.13375 -44.20625 29.2675 -44.3125 28.375 C-43.90668447 23.99219232 -42.11332208 21.90753564 -39 19 C-35.51299993 16.45145857 -31.86922882 14.19246728 -28.1875 11.9375 C-27.22779297 11.33873047 -26.26808594 10.73996094 -25.27929688 10.12304688 C-23.39829925 8.95079375 -21.51322114 7.78505837 -19.6237793 6.62646484 C-17.96286062 5.59687145 -16.31397844 4.54737467 -14.68286133 3.47119141 C-13.99345459 3.0179248 -13.30404785 2.5646582 -12.59375 2.09765625 C-12.00658203 1.70199463 -11.41941406 1.30633301 -10.81445312 0.89868164 C-7.40572624 -0.78962886 -3.66979998 -0.79062118 0 0 Z " fill="#7DB623" transform="translate(318,11)"/>
<path d="M0 0 C23.32705261 -1.59048086 45.00475592 9.41024621 62.1875 24.375 C72.41303942 33.97280032 80.06980866 43.88043329 87 56 C87.65097656 57.13308594 88.30195313 58.26617187 88.97265625 59.43359375 C92.50954821 66.03320095 95.05573013 72.66945127 97.25 79.8125 C97.48428711 80.56950195 97.71857422 81.32650391 97.95996094 82.10644531 C102.07735015 96.32532025 103.55715025 110.32301284 103.4375 125.0625 C103.43293793 126.26481766 103.43293793 126.26481766 103.42828369 127.49142456 C103.18351247 171.36367357 87.80032462 216.08340735 56.47607422 247.55859375 C33.64289834 269.8554959 5.12658608 275.50003319 -25.76042175 275.30352783 C-56.4676274 274.92117229 -85.44107935 264.88382016 -112 250 C-112 249.34 -112 248.68 -112 248 C-111.10498779 248.14002441 -110.20997559 248.28004883 -109.2878418 248.42431641 C-99.76295122 249.81730163 -90.44078808 250.40152228 -80.8125 250.375 C-79.73856995 250.37468277 -79.73856995 250.37468277 -78.64294434 250.37435913 C-51.82728471 250.29568256 -27.29621159 243.30394542 -7 225 C-5.86304688 223.98679687 -5.86304688 223.98679687 -4.703125 222.953125 C6.04289264 212.81681049 14.24025444 200.04651608 21 187 C21.4964502 186.04601318 21.4964502 186.04601318 22.00292969 185.07275391 C40.81129315 148.38294633 48.40828615 102.23611621 37 62 C36.76394043 61.16065918 36.52788086 60.32131836 36.28466797 59.45654297 C29.86718707 37.54773488 18.34587182 18.57606235 1.8359375 2.828125 C1.23007812 2.22484375 0.62421875 1.6215625 0 1 C0 0.67 0 0.34 0 0 Z " fill="#952335" transform="translate(409,226)"/>
<path d="M0 0 C21.46698391 8.62739306 36.08278207 25.90957036 45.24609375 46.76733398 C50.28571756 58.9886778 53.7115358 72.74987765 54 86 C54.05027344 87.14597656 54.10054688 88.29195313 54.15234375 89.47265625 C55.22596252 132.37446223 35.08458258 172.33502639 6 203 C-19.07826848 228.67271633 -53.31689128 249.47157859 -90 250.25 C-120.94844811 249.51701044 -150.04536067 235.20151281 -173 215 C-173.82757813 214.28199219 -174.65515625 213.56398438 -175.5078125 212.82421875 C-186.23423468 203.35873961 -195.56341694 193.51108621 -204 182 C-203.505 181.01 -203.505 181.01 -203 180 C-202.20980469 180.54527344 -201.41960937 181.09054687 -200.60546875 181.65234375 C-186.8588513 190.92674493 -172.22015955 198.2643308 -156 202 C-155.3596582 202.17515137 -154.71931641 202.35030273 -154.05957031 202.53076172 C-147.37438307 204.24846231 -140.87391509 204.29729758 -134 204.25 C-132.8759375 204.25773438 -131.751875 204.26546875 -130.59375 204.2734375 C-124.10780476 204.25828342 -118.24522595 203.74633889 -112 202 C-110.79859375 201.690625 -109.5971875 201.38125 -108.359375 201.0625 C-65.92424962 188.57077478 -30.63231492 157.20323986 -9.5 118.74609375 C7.27953317 87.28446905 15.0453275 51.46005623 4.72265625 16.578125 C3.88302565 13.83478353 2.99899735 11.11028713 2.0859375 8.390625 C1.18737608 5.58504475 0.49774024 2.8979543 0 0 Z " fill="#C73044" transform="translate(234,250)"/>
<path d="M0 0 C75.57 0 151.14 0 229 0 C227.87436471 5.62817646 227.87436471 5.62817646 225 7.7265625 C224.05435181 8.42942383 224.05435181 8.42942383 223.08959961 9.14648438 C222.40003174 9.63439453 221.71046387 10.12230469 221 10.625 C220.28013916 11.14642578 219.56027832 11.66785156 218.81860352 12.20507812 C216.56004839 13.82487224 214.28420027 15.41661707 212 17 C211.32308105 17.47276367 210.64616211 17.94552734 209.94873047 18.43261719 C171.33012245 45.14152404 123.39679794 62.60489761 76.015625 54.546875 C46.04366081 48.69496349 21.64050575 33.23908706 1 11 C0 9 0 9 0 0 Z " fill="#94D427" transform="translate(283,72)"/>
<path d="M0 0 C0.25394531 0.51949219 0.50789062 1.03898437 0.76953125 1.57421875 C2.33712571 4.75050565 3.90679366 7.8468753 5.75 10.875 C7 13 7 13 7 15 C5.27956284 16.27906846 3.49491932 17.47210991 1.6875 18.625 C-2.39996029 21.27993916 -6.39467069 23.97203009 -10.3125 26.875 C-13.94349551 29.5512941 -17.62806126 32.09564218 -21.40185547 34.56274414 C-34.2398157 42.96007591 -45.90623861 52.41683013 -57 63 C-57.85207031 63.79921875 -58.70414062 64.5984375 -59.58203125 65.421875 C-66.47000208 72.06036027 -72.30247425 79.34300772 -78 87 C-78.75023437 88.00546875 -79.50046875 89.0109375 -80.2734375 90.046875 C-112.20776 134.54741104 -121.01118176 183.88058316 -121.53173828 237.45385742 C-121.56533838 240.60871783 -121.61035814 243.76326709 -121.65625 246.91796875 C-121.6615271 247.87511276 -121.6668042 248.83225677 -121.67224121 249.81840515 C-121.68565552 250.70486221 -121.69906982 251.59131927 -121.71289062 252.50463867 C-121.72018188 253.27909836 -121.72747314 254.05355804 -121.73498535 254.85148621 C-122.03647756 257.29572912 -122.7223868 258.90376679 -124 261 C-126.95858947 263.04040653 -129.45021536 263.5324677 -133 263 C-135.24432982 261.12972515 -136.69443202 259.61113596 -138 257 C-138.10621867 255.21238959 -138.14880815 253.42084789 -138.16113281 251.63012695 C-138.17554413 249.93984123 -138.17554413 249.93984123 -138.19024658 248.21540833 C-138.19449646 246.98545639 -138.19874634 245.75550446 -138.203125 244.48828125 C-138.20882507 243.21389694 -138.21452515 241.93951263 -138.22039795 240.62651062 C-138.23093066 237.91026412 -138.23675316 235.19404727 -138.24023438 232.4777832 C-138.2445581 229.73838528 -138.25819929 226.99931321 -138.28125 224.26000977 C-138.45737029 202.89347108 -137.53100522 182.10748063 -132.25 161.3125 C-131.99468506 160.2819751 -131.73937012 159.2514502 -131.47631836 158.18969727 C-115.19685333 94.42395219 -73.635819 47.50166694 -19.87915039 11.77075195 C-17.63998657 10.28088613 -15.4068323 8.78228116 -13.17382812 7.28320312 C-11.74513912 6.33020807 -10.31611596 5.37771373 -8.88671875 4.42578125 C-8.22226242 3.9790657 -7.55780609 3.53235016 -6.87321472 3.07209778 C-2.22948457 0 -2.22948457 0 0 0 Z " fill="#95D427" transform="translate(274,42)"/>
<path d="M0 0 C42.24 0 84.48 0 128 0 C98.64373527 19.57084315 51.36775747 26.66455264 17 22 C11.66410388 20.90945189 8.84694903 19.46664464 5.125 15.5 C3.98417969 14.30890625 3.98417969 14.30890625 2.8203125 13.09375 C-1.26132989 8.39898536 0 7.8127967 0 0 Z " fill="#A0E32B" transform="translate(283,72)"/>
<path d="M0 0 C4.12687741 1.97759457 6.23273165 4.2810283 8.75 8.0625 C9.34296875 8.94035156 9.9359375 9.81820313 10.546875 10.72265625 C12.65316154 14.02363758 13.17980698 15.91093806 13.25 19.8125 C13.27578125 20.66457031 13.3015625 21.51664063 13.328125 22.39453125 C12.83261339 26.32912937 11.53162022 28.78725505 8.38525391 31.27856445 C6.35321165 32.66494755 4.28604966 33.96653785 2.1875 35.25 C0.64794202 36.20884032 -0.89111318 37.16848833 -2.4296875 38.12890625 C-3.19893555 38.60602051 -3.96818359 39.08313477 -4.76074219 39.57470703 C-6.84546035 40.90163514 -8.86776349 42.28502868 -10.8828125 43.71484375 C-21.87969474 51.44475165 -21.87969474 51.44475165 -28.82421875 50.671875 C-35.11707834 48.72865804 -38.1766802 44.09010359 -41.4375 38.625 C-43.94018972 33.66671418 -45.02411766 30.49299474 -44 25 C-39.93985339 18.93526217 -34.33065166 15.70002752 -28.1875 11.9375 C-27.22779297 11.33873047 -26.26808594 10.73996094 -25.27929688 10.12304688 C-23.39829925 8.95079375 -21.51322114 7.78505837 -19.6237793 6.62646484 C-17.96286062 5.59687145 -16.31397844 4.54737467 -14.68286133 3.47119141 C-13.99345459 3.0179248 -13.30404785 2.5646582 -12.59375 2.09765625 C-12.00658203 1.70199463 -11.41941406 1.30633301 -10.81445312 0.89868164 C-7.40572624 -0.78962886 -3.66979998 -0.79062118 0 0 Z " fill="#915D51" transform="translate(318,11)"/>
<path d="M0 0 C0.8971875 0.46277344 1.794375 0.92554688 2.71875 1.40234375 C3.82605469 1.96566406 4.93335938 2.52898438 6.07421875 3.109375 C18.41006891 9.79959385 29.86294933 17.75265295 40.74609375 26.609375 C41.319646 27.07448486 41.89319824 27.53959473 42.48413086 28.01879883 C43.71875 29.40234375 43.71875 29.40234375 43.71875 32.40234375 C11.70875 32.40234375 -20.30125 32.40234375 -53.28125 32.40234375 C-50.4886714 30.3079098 -48.1709042 28.71181235 -45.1484375 27.125 C-44.35091064 26.69993164 -43.55338379 26.27486328 -42.73168945 25.83691406 C-41.88179443 25.38413086 -41.03189941 24.93134766 -40.15625 24.46484375 C-27.49073672 17.60710673 -14.76108511 10.10080869 -4.10546875 0.31640625 C-2.28125 -0.59765625 -2.28125 -0.59765625 0 0 Z " fill="#77A61E" transform="translate(468.28125,38.59765625)"/>
<path d="M0 0 C4.9884097 1.92734011 7.14383991 5.67495758 10 10 C6.34564066 14.18769827 1.8500456 16.6985594 -2.875 19.5 C-4.45640922 20.4467817 -6.0371522 21.39467721 -7.6171875 22.34375 C-8.36967773 22.79298828 -9.12216797 23.24222656 -9.89746094 23.70507812 C-11.75603025 24.84974274 -13.53732494 26.05510714 -15.3203125 27.3125 C-19.04956696 29.66095179 -21.73539893 29.8427056 -26 29 C-30.49455939 26.7103188 -32.67347855 24.42039076 -35 20 C-35.66 19.34 -36.32 18.68 -37 18 C-33.27182252 15.56098445 -29.54228603 13.12405488 -25.8125 10.6875 C-24.75740234 9.99720703 -23.70230469 9.30691406 -22.61523438 8.59570312 C-21.59365234 7.92861328 -20.57207031 7.26152344 -19.51953125 6.57421875 C-18.58214111 5.96151123 -17.64475098 5.34880371 -16.67895508 4.7175293 C-10.67340281 0.86725497 -7.17434313 -0.92952256 0 0 Z " fill="#B97A61" transform="translate(318,11)"/>
</svg>
