<?xml version="1.0" encoding="UTF-8"?>
<svg version="1.1" xmlns="http://www.w3.org/2000/svg" width="512" height="512">
<path d="M0 0 C7.59 0 15.18 0 23 0 C25 7 25 7 25 11 C25.90552612 10.97824707 25.90552612 10.97824707 26.8293457 10.95605469 C33.06073187 10.87200092 39.02766205 11.33347433 45.1875 12.25 C46.10096191 12.38494873 47.01442383 12.51989746 47.95556641 12.65893555 C69.75380307 16.03443017 90.11188804 23.55983912 107 38 C108.12535156 38.90685547 108.12535156 38.90685547 109.2734375 39.83203125 C139.08260786 64.67300655 148.14912447 108.30091244 152 145 C152.10441406 145.96405762 152.20882813 146.92811523 152.31640625 147.92138672 C158.64454702 209.69084942 162.246591 297.62515063 121.265625 349.26953125 C120.51796875 350.17058594 119.7703125 351.07164062 119 352 C118.31421875 352.84949219 117.6284375 353.69898438 116.921875 354.57421875 C97.20524729 377.832537 67.66614196 388.17747493 38 391 C4.31808749 393.21606697 -45.18340664 396.06588074 -73.0703125 372.23046875 C-74.94124134 370.7807629 -74.94124134 370.7807629 -77.29296875 371.08203125 C-80.82060955 372.27827308 -84.03181097 373.94816572 -87.3125 375.6875 C-122.68362072 393.79191819 -163.06726643 396.44923182 -200.87890625 384.4375 C-207.53391486 382.19476366 -213.77176877 379.22216624 -220 376 C-220.64291992 375.67547852 -221.28583984 375.35095703 -221.94824219 375.01660156 C-254.76701287 358.3079815 -279.93106217 328.3318135 -291.5625 293.4375 C-296.33369022 278.31781484 -298.23754417 263.44474989 -298.25 247.625 C-298.25067474 246.85955872 -298.25134949 246.09411743 -298.25204468 245.30548096 C-298.23653477 234.25517967 -297.91661847 223.72525438 -295 213 C-294.81775879 212.3292041 -294.63551758 211.6584082 -294.44775391 210.96728516 C-283.6435334 172.07389654 -259.81133719 140.94920559 -224.96484375 120.6171875 C-210.40898376 112.40030883 -194.5186976 106.67093369 -178 104 C-176.86949219 103.81695312 -175.73898438 103.63390625 -174.57421875 103.4453125 C-167.93986883 102.6544942 -161.23484063 102.75996787 -154.5625 102.75 C-153.85222656 102.74766357 -153.14195312 102.74532715 -152.41015625 102.74291992 C-141.68058825 102.72958072 -131.44818968 103.35648213 -121 106 C-120.90589844 104.89398438 -120.81179687 103.78796875 -120.71484375 102.6484375 C-118.1936895 82.75010744 -106.47454211 61.5389177 -93 47 C-92.18144531 46.08992188 -91.36289063 45.17984375 -90.51953125 44.2421875 C-70.11313708 22.59995558 -41.06876718 13.32980954 -12 11 C-8.65891047 10.91578529 -5.34304255 10.94328767 -2 11 C-1.34 7.37 -0.68 3.74 0 0 Z " fill="#AC7653" transform="translate(330,62)"/>
<path d="M0 0 C0.82886719 0.69609375 1.65773438 1.3921875 2.51171875 2.109375 C23.16903726 19.88050615 37.38785801 44.6771885 44 71 C44.31839844 72.23878906 44.63679688 73.47757812 44.96484375 74.75390625 C51.18541255 101.99381138 47.47399435 132.64028 36 158 C35.70754395 158.65758301 35.41508789 159.31516602 35.11376953 159.99267578 C28.17097137 175.36680215 18.64535637 187.90045656 7 200 C6.43152344 200.63164062 5.86304688 201.26328125 5.27734375 201.9140625 C-14.66552912 223.43808386 -47.68649874 237.43982235 -76.64819336 239.22485352 C-80.60005027 239.3397551 -84.54688137 239.38658809 -88.5 239.375 C-89.20109894 239.37445618 -89.90219788 239.37391235 -90.62454224 239.37335205 C-102.44293001 239.33135889 -113.62157167 238.34554818 -125 235 C-126.09755615 234.67854004 -126.09755615 234.67854004 -127.21728516 234.35058594 C-162.28212643 223.69856473 -191.31366257 199.971534 -208.97265625 167.92822266 C-218.35049424 150.32694783 -224.03862603 130.932487 -225 111 C-225.04382813 110.11054688 -225.08765625 109.22109375 -225.1328125 108.3046875 C-225.70796594 94.38597429 -224.60776661 81.4623143 -221 68 C-220.79632813 67.23880859 -220.59265625 66.47761719 -220.3828125 65.69335938 C-215.75052453 49.06573312 -207.83029873 33.45326171 -197 20 C-196.2575 19.05640625 -195.515 18.1128125 -194.75 17.140625 C-174.95155871 -7.60742662 -146.90965731 -24.27021684 -116 -31 C-114.44925781 -31.33837891 -114.44925781 -31.33837891 -112.8671875 -31.68359375 C-72.77725915 -38.82492005 -30.46543524 -26.76840085 0 0 Z " fill="#96C554" transform="translate(265,206)"/>
<path d="M0 0 C5.84338469 0.50699 10.49240962 1.69228387 15.8125 4.125 C16.85724487 4.59631348 16.85724487 4.59631348 17.9230957 5.07714844 C45.30205303 17.72574024 63.5379069 41.36830139 73.85205078 69.30810547 C86.34073622 105.53661229 88.22280166 144.27423401 88.1875 182.25 C88.18689575 183.44831451 88.1862915 184.64662903 88.18566895 185.8812561 C88.1177979 235.44822246 86.2579142 293.91847927 53 334 C52.31421875 334.84949219 51.6284375 335.69898438 50.921875 336.57421875 C31.20524729 359.832537 1.66614196 370.17747493 -28 373 C-66.30596493 375.52030177 -110.52885304 375.81865571 -143 352 C-143 351.34 -143 350.68 -143 350 C-141.12721216 348.62561538 -139.198529 347.32721424 -137.25 346.0625 C-130.17555741 341.33905707 -124.11460405 335.88813724 -118 330 C-117.36707031 329.43023437 -116.73414063 328.86046875 -116.08203125 328.2734375 C-112.01749939 324.50819421 -108.78049417 320.19196941 -105.5 315.75 C-105.0153125 315.09829834 -104.530625 314.44659668 -104.03125 313.77514648 C-101.22272454 309.92251151 -99.04871111 306.09820102 -96.9375 301.8125 C-94.75820146 298.26918008 -93.0217424 296.77378746 -89.09765625 295.6484375 C-85.98221487 294.93478604 -82.84664656 294.39618995 -79.6953125 293.8671875 C-60.93155237 290.68520784 -44.02974098 279.37188885 -31 266 C-30.25234375 265.26136719 -29.5046875 264.52273438 -28.734375 263.76171875 C-13.61244454 247.95513395 -5.51509677 225.7202701 0 205 C0.33427002 203.78715332 0.33427002 203.78715332 0.67529297 202.54980469 C17.99636259 139.14527211 15.80446171 63.38597939 0 0 Z " fill="#96674D" transform="translate(396,80)"/>
<path d="M0 0 C0.495 4.95 0.495 4.95 1 10 C2.65614657 10.38218767 4.32457024 10.71395102 6 11 C7.66342837 9.33657163 7.36048097 7.2174291 7.5625 4.9375 C7.706875 3.308125 7.85125 1.67875 8 0 C12.95 0.495 12.95 0.495 18 1 C18.495 3.97 18.495 3.97 19 7 C21.41619823 7.25030977 21.41619823 7.25030977 24 7 C24.66 6.01 25.32 5.02 26 4 C29.34373475 4.55728913 32.03312999 5.35173889 35 7 C34.855625 7.680625 34.71125 8.36125 34.5625 9.0625 C33.93054091 12.36273082 33.45686059 15.67144426 33 19 C35.37305578 19.41780879 35.37305578 19.41780879 38 19 C39.01866229 17.34467377 40.01810813 15.67739862 41 14 C43.375 12.9375 43.375 12.9375 46 13 C48.875 14.375 48.875 14.375 51 17 C51.12251434 20.10014545 50.65277096 22.9752791 50 26 C51.216875 25.71125 52.43375 25.4225 53.6875 25.125 C57.47881128 24.61994077 57.47881128 24.61994077 59.64453125 26.19921875 C63 30.19290346 63 30.19290346 63 33 C60.69 34.32 58.38 35.64 56 37 C56 38.65 56 40.3 56 42 C60.3177458 41.49202991 64.03302114 40.80317221 68 39 C71 45.625 71 45.625 71 49 C70.01 49.66 69.02 50.32 68 51 C67.74969023 53.58380177 67.74969023 53.58380177 68 56 C70.97 56.495 70.97 56.495 74 57 C74.33 60.3 74.66 63.6 75 67 C70.05 67.495 70.05 67.495 65 68 C64.61781233 69.65614657 64.28604898 71.32457024 64 73 C65.66342837 74.66342837 67.7825709 74.36048097 70.0625 74.5625 C71.44115234 74.68818359 71.44115234 74.68818359 72.84765625 74.81640625 C73.55792969 74.87699219 74.26820313 74.93757813 75 75 C75.125 81.625 75.125 81.625 74 85 C71.03 85.495 71.03 85.495 68 86 C67.74969023 88.41619823 67.74969023 88.41619823 68 91 C68.99 91.66 69.98 92.32 71 93 C70.44271087 96.34373475 69.64826111 99.03312999 68 102 C66.9790625 101.7834375 66.9790625 101.7834375 65.9375 101.5625 C62.63726918 100.93054091 59.32855574 100.45686059 56 100 C56 101.65 56 103.3 56 105 C58.31 106.32 60.62 107.64 63 109 C61.87548273 111.9719385 60.77706209 114.33440687 59 117 C57.0546875 117.29296875 57.0546875 117.29296875 54.875 117.1875 C53.59625 117.125625 52.3175 117.06375 51 117 C50.29925156 120.153368 50 122.72724974 50 126 C44.88888889 130 44.88888889 130 42 130 C40.68 127.69 39.36 125.38 38 123 C36.35 123 34.7 123 33 123 C33.55312735 127.02992782 34.1558062 131.02022924 35 135 C29.375 138 29.375 138 26 138 C25.34 137.01 24.68 136.02 24 135 C22.35 135.33 20.7 135.66 19 136 C18.67 137.65 18.34 139.3 18 141 C14.7 141.33 11.4 141.66 8 142 C7.67 138.7 7.34 135.4 7 132 C5.34385343 131.61781233 3.67542976 131.28604898 2 131 C0.33657163 132.66342837 0.63951903 134.7825709 0.4375 137.0625 C0.31181641 138.44115234 0.31181641 138.44115234 0.18359375 139.84765625 C0.12300781 140.55792969 0.06242187 141.26820313 0 142 C-6.625 142.125 -6.625 142.125 -10 141 C-11.1875 137.9375 -11.1875 137.9375 -12 135 C-14.47266765 135.34444881 -14.47266765 135.34444881 -17 136 C-17.33 136.66 -17.66 137.32 -18 138 C-21.73487777 137.5020163 -23.81237635 137.12508244 -27 135 C-26.855625 134.319375 -26.71125 133.63875 -26.5625 132.9375 C-25.93054091 129.63726918 -25.45686059 126.32855574 -25 123 C-26.65 123 -28.3 123 -30 123 C-31.32 125.31 -32.64 127.62 -34 130 C-36.9719385 128.87548273 -39.33440687 127.77706209 -42 126 C-42.40843923 123.28796348 -42.13336867 120.7562858 -42 118 C-45.153368 117.29925156 -47.72724974 117 -51 117 C-52.8125 115.3125 -52.8125 115.3125 -54 113 C-54 110.4375 -54 110.4375 -53 108 C-52.154375 107.505 -51.30875 107.01 -50.4375 106.5 C-49.633125 106.005 -48.82875 105.51 -48 105 C-47.58219121 102.37305578 -47.58219121 102.37305578 -48 100 C-52.3177458 100.50797009 -56.03302114 101.19682779 -60 103 C-63 96.375 -63 96.375 -63 93 C-61.515 92.01 -61.515 92.01 -60 91 C-60.495 88.525 -60.495 88.525 -61 86 C-62.65 85.67 -64.3 85.34 -66 85 C-67.1577506 81.52674819 -67.06866652 78.63932552 -67 75 C-62.05 74.505 -62.05 74.505 -57 74 C-56.61781233 72.34385343 -56.28604898 70.67542976 -56 69 C-57.66342837 67.33657163 -59.7825709 67.63951903 -62.0625 67.4375 C-63.691875 67.293125 -65.32125 67.14875 -67 67 C-66.67 63.7 -66.34 60.4 -66 57 C-63.03 56.505 -63.03 56.505 -60 56 C-59.74969023 53.58380177 -59.74969023 53.58380177 -60 51 C-60.99 50.34 -61.98 49.68 -63 49 C-62.44271087 45.65626525 -61.64826111 42.96687001 -60 40 C-55.125 40.875 -55.125 40.875 -54 42 C-52.00041636 42.04080783 -49.99954746 42.04254356 -48 42 C-48 40.35 -48 38.7 -48 37 C-50.31 35.68 -52.62 34.36 -55 33 C-53.7508258 29.54074837 -52.32472205 26.85306797 -50 24 C-47.36 24.66 -44.72 25.32 -42 26 C-42.06960937 25.40832031 -42.13921875 24.81664062 -42.2109375 24.20703125 C-42.64499005 17.87193099 -42.64499005 17.87193099 -40.734375 15.2890625 C-36.81791908 12 -36.81791908 12 -34 12 C-32.68 14.31 -31.36 16.62 -30 19 C-28.35 19 -26.7 19 -25 19 C-25.55312735 14.97007218 -26.1558062 10.97977076 -27 7 C-21.375 4 -21.375 4 -18 4 C-17.34 4.99 -16.68 5.98 -16 7 C-13.43717258 7.72965366 -13.43717258 7.72965366 -11 8 C-10.67 5.69 -10.34 3.38 -10 1 C-2.25 0 -2.25 0 0 0 Z " fill="#B0D672" transform="translate(172,238)"/>
<path d="M0 0 C28.80017614 24.86636646 47.64831234 59.03980943 51.02636719 97.27246094 C53.74559301 134.86369793 43.29827405 173.11637282 18.79833984 202.14599609 C15.69587511 205.6970358 12.45864055 209.104576 9.1875 212.5 C8.54554688 213.20511719 7.90359375 213.91023437 7.2421875 214.63671875 C3.00886809 219.15409206 -1.72290729 222.83044204 -6.6875 226.5 C-7.35491211 226.9937915 -8.02232422 227.48758301 -8.70996094 227.99633789 C-13.55689 231.5 -13.55689 231.5 -15.8125 231.5 C-15.8125 232.16 -15.8125 232.82 -15.8125 233.5 C-48.03569212 253.86289115 -87.56179516 260.05422614 -124.7109375 251.984375 C-136.77193887 249.20451595 -147.8264792 245.18360165 -158.8125 239.5 C-159.45541992 239.17547852 -160.09833984 238.85095703 -160.76074219 238.51660156 C-193.57951287 221.8079815 -218.74356217 191.8318135 -230.375 156.9375 C-235.14619022 141.81781484 -237.05004417 126.94474989 -237.0625 111.125 C-237.06317474 110.35955872 -237.06384949 109.59411743 -237.06454468 108.80548096 C-237.04903477 97.75517967 -236.72911847 87.22525438 -233.8125 76.5 C-233.63025879 75.8292041 -233.44801758 75.1584082 -233.26025391 74.46728516 C-222.4560334 35.57389654 -198.62383719 4.44920559 -163.77734375 -15.8828125 C-149.22148376 -24.09969117 -133.3311976 -29.82906631 -116.8125 -32.5 C-115.68199219 -32.68304688 -114.55148438 -32.86609375 -113.38671875 -33.0546875 C-72.35845013 -37.94528055 -31.70398206 -26.63621598 0 0 Z M-181.8125 7.5 C-182.62074219 8.17417969 -183.42898437 8.84835938 -184.26171875 9.54296875 C-203.87402154 26.44587963 -218.47598313 50.39869067 -224.8125 75.5 C-224.99441895 76.20688965 -225.17633789 76.9137793 -225.36376953 77.64208984 C-228.78883163 91.3220716 -229.5052268 104.44172073 -228.8125 118.5 C-228.77382812 119.30179688 -228.73515625 120.10359375 -228.6953125 120.9296875 C-227.05741915 149.1592612 -215.32432765 177.1952854 -196.8125 198.5 C-196.11511719 199.31855469 -195.41773438 200.13710938 -194.69921875 200.98046875 C-175.66402912 222.78810163 -152.33725559 235.53742193 -124.8125 243.5 C-123.56855469 243.86351562 -122.32460937 244.22703125 -121.04296875 244.6015625 C-101.00719466 249.3288565 -76.48343045 248.28375534 -56.8125 242.5 C-55.71494385 242.17854004 -55.71494385 242.17854004 -54.59521484 241.85058594 C-18.84719542 230.99102841 10.50620159 206.64788159 28.4140625 174.01171875 C44.56771065 142.02464896 48.45180061 103.93697881 37.71484375 69.65625 C32.05920696 52.75805941 23.79298507 37.03973258 12.1875 23.5 C11.75856445 22.9942041 11.32962891 22.4884082 10.88769531 21.96728516 C-11.7210024 -4.4877403 -44.9082556 -22.52193144 -79.8125 -25.5 C-117.82601536 -27.6037316 -152.63820092 -17.41668993 -181.8125 7.5 Z " fill="#BE8165" transform="translate(268.8125,198.5)"/>
<path d="M0 0 C10.70226629 5.90418322 18.4996061 14.50327091 22.91015625 25.9765625 C25.90433067 38.01921114 24.81570602 50.63288518 18.796875 61.54296875 C12.79181695 71.25834803 4.34638751 77.86056457 -6.41015625 81.65625 C-18.28466393 84.43226776 -30.59384615 83.90209644 -41.203125 77.54296875 C-52.021562 70.67709456 -59.20118604 61.07106069 -62.203125 48.54296875 C-63.96857078 34.08393396 -61.07280393 22.16653993 -52.203125 10.54296875 C-39.19767048 -4.08816758 -17.62777178 -7.98618594 0 0 Z " fill="#DCF39C" transform="translate(195.203125,269.45703125)"/>
<path d="M0 0 C4.83985103 3.91219805 9.00885168 7.9998384 12.875 12.875 C13.38893311 13.52283447 13.90286621 14.17066895 14.43237305 14.83813477 C25.9117505 29.68803007 34.41852141 47.82255947 39 66 C39.2990625 67.17691406 39.598125 68.35382813 39.90625 69.56640625 C46.10495014 96.92774728 42.53001748 127.51645819 31 153 C30.70754395 153.65758301 30.41508789 154.31516602 30.11376953 154.99267578 C23.17097137 170.36680215 13.64535637 182.90045656 2 195 C1.43152344 195.63164062 0.86304688 196.26328125 0.27734375 196.9140625 C-19.66552912 218.43808386 -52.68649874 232.43982235 -81.64819336 234.22485352 C-85.60005027 234.3397551 -89.54688137 234.38658809 -93.5 234.375 C-94.20109894 234.37445618 -94.90219788 234.37391235 -95.62454224 234.37335205 C-107.44293001 234.33135889 -118.62157167 233.34554818 -130 230 C-130.7317041 229.78569336 -131.4634082 229.57138672 -132.21728516 229.35058594 C-150.63333719 223.75614519 -167.2417227 214.65220368 -182 202.3125 C-182.54035889 201.86092529 -183.08071777 201.40935059 -183.63745117 200.9440918 C-186.81953824 198.21207784 -189.48596701 195.35405844 -192 192 C-188.77785173 193.4679491 -186.21974683 195.32064775 -183.4375 197.5 C-155.29044149 218.04176058 -119.72414593 226.04701073 -85.30859375 221.30859375 C-50.25429464 215.57434395 -17.62279349 197.50365396 3.6875 168.6875 C25.73960397 137.98424561 34.45318647 101.42700621 28.34008789 64.05664062 C24.44305221 42.108676 16.14611167 20.9389451 1.46875 3.890625 C0 2 0 2 0 0 Z " fill="#88AA4F" transform="translate(270,211)"/>
<path d="M0 0 C7.59 0 15.18 0 23 0 C25 7 25 7 26 19 C16.43 19 6.86 19 -3 19 C-2.690625 16.421875 -2.38125 13.84375 -2.0625 11.1875 C-1.96718994 10.37949951 -1.87187988 9.57149902 -1.77368164 8.73901367 C-1.39999197 5.69021083 -0.97382819 2.92148456 0 0 Z " fill="#6E4532" transform="translate(330,62)"/>
<path d="M0 0 C2.5 0.125 2.5 0.125 3.5 1.125 C3.14773834 6.84026578 1.45710422 10.66780702 -1.4375 15.4375 C-1.79779297 16.05689453 -2.15808594 16.67628906 -2.52929688 17.31445312 C-4.02102506 19.84462193 -5.41547376 22.04047376 -7.5 24.125 C-10.125 23.75 -10.125 23.75 -12.5 23.125 C-13.3046875 21.171875 -13.3046875 21.171875 -13.5 18.125 C-12.18987422 15.01669226 -10.41797979 12.22550139 -8.625 9.375 C-8.15191406 8.59511719 -7.67882812 7.81523437 -7.19140625 7.01171875 C-3.0028618 0.15014309 -3.0028618 0.15014309 0 0 Z " fill="#3A4527" transform="translate(144.5,359.875)"/>
<path d="M0 0 C2.6953125 0.44921875 2.6953125 0.44921875 4.828125 3.1171875 C5.51093263 4.27955457 6.17442314 5.45343924 6.8203125 6.63671875 C7.15417969 7.21486328 7.48804688 7.79300781 7.83203125 8.38867188 C8.79974238 10.0679353 9.74784746 11.75844955 10.6953125 13.44921875 C11.27667969 14.35671875 11.85804688 15.26421875 12.45703125 16.19921875 C13.6953125 18.44921875 13.6953125 18.44921875 13.3828125 21.26171875 C13.1559375 21.98359375 12.9290625 22.70546875 12.6953125 23.44921875 C11.0453125 23.77921875 9.3953125 24.10921875 7.6953125 24.44921875 C4.60027805 19.95025115 1.58385322 15.41069935 -1.1796875 10.69921875 C-1.58960938 10.003125 -1.99953125 9.30703125 -2.421875 8.58984375 C-3.46735529 6.05478534 -3.53579132 4.16699967 -3.3046875 1.44921875 C-2.3046875 0.44921875 -2.3046875 0.44921875 0 0 Z " fill="#3A4527" transform="translate(207.3046875,359.55078125)"/>
<path d="M0 0 C1 1 1 1 1.30859375 3.375 C1 6 1 6 -0.65234375 7.625 C-1.40644531 8.07875 -2.16054687 8.5325 -2.9375 9 C-3.75605469 9.49628906 -4.57460937 9.99257813 -5.41796875 10.50390625 C-6.27003906 10.99761719 -7.12210938 11.49132812 -8 12 C-8.80050781 12.50402344 -9.60101563 13.00804687 -10.42578125 13.52734375 C-16.3034566 17.09346274 -16.3034566 17.09346274 -19.765625 16.62890625 C-20.87164062 16.31759766 -20.87164062 16.31759766 -22 16 C-22.33 14.35 -22.66 12.7 -23 11 C-18.5010324 7.90496555 -13.9614806 4.88854072 -9.25 2.125 C-8.55390625 1.71507812 -7.8578125 1.30515625 -7.140625 0.8828125 C-4.60556659 -0.16266779 -2.71778092 -0.23110382 0 0 Z " fill="#3A4427" transform="translate(124,337)"/>
<path d="M0 0 C1.02996094 -0.00128906 2.05992187 -0.00257813 3.12109375 -0.00390625 C4.74724609 0.00189453 4.74724609 0.00189453 6.40625 0.0078125 C7.49035156 0.00394531 8.57445312 0.00007813 9.69140625 -0.00390625 C10.72136719 -0.00261719 11.75132812 -0.00132812 12.8125 0 C14.24045898 0.00169189 14.24045898 0.00169189 15.69726562 0.00341797 C17.90625 0.1328125 17.90625 0.1328125 18.90625 1.1328125 C19.03125 4.1328125 19.03125 4.1328125 18.90625 7.1328125 C16.43026267 9.60879983 9.79764842 8.3183251 6.46875 8.3203125 C4.85516602 8.33868164 4.85516602 8.33868164 3.20898438 8.35742188 C2.18224609 8.35935547 1.15550781 8.36128906 0.09765625 8.36328125 C-1.32244751 8.36944458 -1.32244751 8.36944458 -2.77124023 8.37573242 C-5.09375 8.1328125 -5.09375 8.1328125 -7.09375 6.1328125 C-6.3951786 0.404527 -5.58542332 0.0066178 0 0 Z " fill="#384226" transform="translate(242.09375,304.8671875)"/>
<path d="M0 0 C1.61358398 -0.01836914 1.61358398 -0.01836914 3.25976562 -0.03710938 C4.28650391 -0.03904297 5.31324219 -0.04097656 6.37109375 -0.04296875 C7.79119751 -0.04913208 7.79119751 -0.04913208 9.23999023 -0.05541992 C11.5625 0.1875 11.5625 0.1875 13.5625 2.1875 C13.00694444 6.74305556 13.00694444 6.74305556 11.5625 8.1875 C9.86691274 8.28682153 8.16724253 8.31830007 6.46875 8.3203125 C5.43878906 8.32160156 4.40882812 8.32289063 3.34765625 8.32421875 C1.72150391 8.31841797 1.72150391 8.31841797 0.0625 8.3125 C-1.02160156 8.31636719 -2.10570313 8.32023437 -3.22265625 8.32421875 C-4.25261719 8.32292969 -5.28257813 8.32164062 -6.34375 8.3203125 C-7.29572266 8.31918457 -8.24769531 8.31805664 -9.22851562 8.31689453 C-11.4375 8.1875 -11.4375 8.1875 -12.4375 7.1875 C-12.5625 4.1875 -12.5625 4.1875 -12.4375 1.1875 C-9.96151267 -1.28848733 -3.32889842 0.0019874 0 0 Z " fill="#384226" transform="translate(103.4375,304.8125)"/>
<path d="M0 0 C3 0.125 3 0.125 4 1.125 C4.25208722 4.93088144 4.18522344 8.74925456 4.1875 12.5625 C4.19974609 13.63822266 4.21199219 14.71394531 4.22460938 15.82226562 C4.22750977 17.36237305 4.22750977 17.36237305 4.23046875 18.93359375 C4.23457764 19.88032959 4.23868652 20.82706543 4.24291992 21.80249023 C4 24.125 4 24.125 2 26.125 C-2.55555556 25.56944444 -2.55555556 25.56944444 -4 24.125 C-4.09932153 22.42941274 -4.13080007 20.72974253 -4.1328125 19.03125 C-4.13474609 17.48630859 -4.13474609 17.48630859 -4.13671875 15.91015625 C-4.13285156 14.82605469 -4.12898437 13.74195313 -4.125 12.625 C-4.12886719 11.54089844 -4.13273438 10.45679688 -4.13671875 9.33984375 C-4.13542969 8.30988281 -4.13414062 7.27992188 -4.1328125 6.21875 C-4.13168457 5.26677734 -4.13055664 4.31480469 -4.12939453 3.33398438 C-3.92827881 -0.09940255 -3.50758373 0.14614932 0 0 Z " fill="#374125" transform="translate(176,223.875)"/>
<path d="M0 0 C4.55555556 0.55555556 4.55555556 0.55555556 6 2 C6.0991918 3.61083745 6.1307982 5.22595644 6.1328125 6.83984375 C6.13410156 7.82017578 6.13539063 8.80050781 6.13671875 9.81054688 C6.13285156 10.84244141 6.12898437 11.87433594 6.125 12.9375 C6.12886719 13.96552734 6.13273438 14.99355469 6.13671875 16.05273438 C6.13542969 17.03435547 6.13414062 18.01597656 6.1328125 19.02734375 C6.13168457 19.93218506 6.13055664 20.83702637 6.12939453 21.76928711 C6 24 6 24 5 26 C3.00045254 26.04254356 0.99958364 26.04080783 -1 26 C-3.47598733 23.52401267 -2.1855126 16.89139842 -2.1875 13.5625 C-2.19974609 12.48677734 -2.21199219 11.41105469 -2.22460938 10.30273438 C-2.22654297 9.27599609 -2.22847656 8.24925781 -2.23046875 7.19140625 C-2.23457764 6.24467041 -2.23868652 5.29793457 -2.24291992 4.32250977 C-2 2 -2 2 0 0 Z " fill="#374125" transform="translate(174,368)"/>
<path d="M0 0 C5.90757935 0.32318818 9.89306744 2.23571359 14.875 5.3125 C15.55046875 5.70373047 16.2259375 6.09496094 16.921875 6.49804688 C21.79112553 9.44599674 21.79112553 9.44599674 22.76611328 12.03198242 C23 14 23 14 21.875 15.8125 C20 17 20 17 17.8671875 16.85546875 C13.92417116 15.6790102 10.72769755 13.66434742 7.25 11.5 C6.22326172 10.87544922 6.22326172 10.87544922 5.17578125 10.23828125 C0.18375319 7.18375319 0.18375319 7.18375319 -1 6 C-1.125 3.5 -1.125 3.5 -1 1 C-0.67 0.67 -0.34 0.34 0 0 Z " fill="#394427" transform="translate(228,337)"/>
<path d="M0 0 C4.14355594 1.24362446 7.55092939 3.35529506 11.21484375 5.62109375 C11.95541016 6.05164063 12.69597656 6.4821875 13.45898438 6.92578125 C15.43110939 8.13995591 17.20994635 9.28958757 18.90234375 10.87109375 C19.4453125 13.63671875 19.4453125 13.63671875 18.90234375 15.87109375 C17.90234375 16.87109375 17.90234375 16.87109375 15.359375 17.23046875 C10.60196939 16.73591359 7.54887519 14.68599856 3.58984375 12.12109375 C2.86216797 11.67765625 2.13449219 11.23421875 1.38476562 10.77734375 C-3.88011326 7.44079423 -3.88011326 7.44079423 -4.87963867 4.82324219 C-5.09765625 2.87109375 -5.09765625 2.87109375 -3.97265625 1.05859375 C-2.09765625 -0.12890625 -2.09765625 -0.12890625 0 0 Z " fill="#3A4427" transform="translate(106.09765625,264.12890625)"/>
<path d="M0 0 C1.8125 0.8125 1.8125 0.8125 3.8125 2.8125 C3.83203125 4.6796875 3.83203125 4.6796875 2.8125 6.8125 C0.71801556 8.3607242 -1.25451103 9.65506004 -3.5 10.9375 C-4.08201172 11.28425781 -4.66402344 11.63101562 -5.26367188 11.98828125 C-14.11930505 17.22343473 -14.11930505 17.22343473 -19.1875 16.8125 C-20.1875 15.8125 -20.1875 15.8125 -20.63671875 13.5078125 C-20.1875 10.8125 -20.1875 10.8125 -17.51953125 8.6796875 C-16.35716418 7.99687987 -15.18327951 7.33338936 -14 6.6875 C-13.42185547 6.35363281 -12.84371094 6.01976562 -12.24804688 5.67578125 C-10.56878345 4.70807012 -8.8782692 3.75996504 -7.1875 2.8125 C-6.26710937 2.23371094 -5.34671875 1.65492188 -4.3984375 1.05859375 C-2.1875 -0.1875 -2.1875 -0.1875 0 0 Z " fill="#394427" transform="translate(247.1875,264.1875)"/>
<path d="M0 0 C2.8992226 0.46761655 3.86675182 0.86675182 6 3 C5.78533622 7.90148954 3.01791398 11.70418775 0.5 15.75 C0.08363281 16.43449219 -0.33273438 17.11898437 -0.76171875 17.82421875 C-3.81624681 22.81624681 -3.81624681 22.81624681 -5 24 C-7.5 24.125 -7.5 24.125 -10 24 C-10.33 23.67 -10.66 23.34 -11 23 C-10.69534203 17.01347084 -8.68668476 13.11714393 -5.5 8.125 C-5.08363281 7.44953125 -4.66726562 6.7740625 -4.23828125 6.078125 C-1.23028274 1.23028274 -1.23028274 1.23028274 0 0 Z " fill="#394327" transform="translate(215,234)"/>
<path d="M0 0 C2.58993564 0.19447055 3.66758546 0.61364203 5.37207031 2.59472656 C5.77006836 3.26987305 6.16806641 3.94501953 6.578125 4.640625 C7.01640625 5.38183594 7.4546875 6.12304688 7.90625 6.88671875 C8.3496875 7.66660156 8.793125 8.44648438 9.25 9.25 C9.70890625 10.01441406 10.1678125 10.77882812 10.640625 11.56640625 C14.76987726 18.68199274 14.76987726 18.68199274 14 23 C13 24 13 24 10.625 24.30859375 C8 24 8 24 6.375 22.34765625 C5.92125 21.59355469 5.4675 20.83945313 5 20.0625 C4.50371094 19.24523437 4.00742188 18.42796875 3.49609375 17.5859375 C3.00238281 16.73257813 2.50867188 15.87921875 2 15 C1.49597656 14.18789062 0.99195313 13.37578125 0.47265625 12.5390625 C-3.07227886 6.62756406 -3.07227886 6.62756406 -2.75390625 3.86328125 C-2 2 -2 2 0 0 Z " fill="#394327" transform="translate(134,234)"/>
<path d="M0 0 C4.62 0 9.24 0 14 0 C14.59944878 8.15250345 14.59944878 8.15250345 12.1875 11.5625 C7.49265456 13.67978324 3.07054109 13.31968385 -2 13 C-1.85851011 11.3954444 -1.71164314 9.79136233 -1.5625 8.1875 C-1.48128906 7.29417969 -1.40007812 6.40085937 -1.31640625 5.48046875 C-1 3 -1 3 0 0 Z " fill="#7E513B" transform="translate(330,62)"/>
<path d="M0 0 C5.32356086 0.03943378 10.95377895 0.22352702 15 4 C15.375 6.625 15.375 6.625 15 9 C14.67 9.33 14.34 9.66 14 10 C8.67643914 9.96056622 3.04622105 9.77647298 -1 6 C-1.375 3.375 -1.375 3.375 -1 1 C-0.67 0.67 -0.34 0.34 0 0 Z " fill="#3A4527" transform="translate(240,323)"/>
<path d="M0 0 C2.625 0.375 2.625 0.375 4.375 2.3125 C5.98878748 6.26627933 6.59145059 10.10583739 6.625 14.375 C6.295 15.035 5.965 15.695 5.625 16.375 C3.25 16.5 3.25 16.5 0.625 16.375 C-2.78576723 12.96423277 -3.33011242 9.28771414 -3.5625 4.5625 C-3.325 0.525 -3.325 0.525 0 0 Z " fill="#3A4527" transform="translate(155.375,229.625)"/>
<path d="M0 0 C1 1 1 1 1.1875 3.4375 C1 6 1 6 -1 8 C-5.39112952 9.29574314 -9.38771728 10.41929843 -14 10 C-15 9 -15 9 -15.375 6.625 C-15 4 -15 4 -12.75 2.25 C-8.32175176 0.23715989 -4.89308274 -0.21747034 0 0 Z " fill="#3A4427" transform="translate(254,285)"/>
<path d="M0 0 C2.375 0.375 2.375 0.375 3.375 1.375 C3.24416424 6.24611583 3.01052199 12.73947801 -0.625 16.375 C-3.125 16.5 -3.125 16.5 -5.625 16.375 C-5.955 16.045 -6.285 15.715 -6.625 15.375 C-6.51800847 0.93114407 -6.51800847 0.93114407 0 0 Z " fill="#394427" transform="translate(196.625,229.625)"/>
<path d="M0 0 C2.625 0.375 2.625 0.375 5 1 C8.54076539 10.67387687 8.54076539 10.67387687 8 15 C7 16 7 16 4.625 16.375 C2 16 2 16 0.25 14.0625 C-1.34651985 10.15102638 -2.17507908 6.24358338 -2 2 C-1.34 1.34 -0.68 0.68 0 0 Z " fill="#394326" transform="translate(192,372)"/>
<path d="M0 0 C1.65 0.33 3.3 0.66 5 1 C6.79924513 6.07059992 4.97953776 10.25694914 3 15 C2 16 2 16 -0.5 16.125 C-3 16 -3 16 -4 15 C-3.95853935 9.40281247 -3.49272321 4.55572593 0 0 Z " fill="#394326" transform="translate(156,372)"/>
<path d="M0 0 C1.10214844 0.35771484 1.10214844 0.35771484 2.2265625 0.72265625 C2.953125 2.953125 2.953125 2.953125 3.2265625 5.72265625 C1.75 7.9609375 1.75 7.9609375 -0.3984375 10.03515625 C-1.09195313 10.73253906 -1.78546875 11.42992187 -2.5 12.1484375 C-5.16833521 13.99609917 -6.59610957 14.05153756 -9.7734375 13.72265625 C-10.7734375 11.22265625 -10.7734375 11.22265625 -10.7734375 7.72265625 C-5.0557594 -0.50557594 -5.0557594 -0.50557594 0 0 Z " fill="#384226" transform="translate(231.7734375,250.27734375)"/>
<path d="M0 0 C3.9406374 0 6.06514224 1.64176887 8.875 4.1875 C12.00973785 7.46441819 12.00973785 7.46441819 11.9375 11.4375 C11.628125 12.283125 11.31875 13.12875 11 14 C7.82267207 14.32888131 6.39489771 14.27344292 3.7265625 12.42578125 C3.03304687 11.72839844 2.33953125 11.03101563 1.625 10.3125 C0.91601562 9.62800781 0.20703125 8.94351562 -0.5234375 8.23828125 C-2 6 -2 6 -1.7890625 3.29296875 C-1 1 -1 1 0 0 Z " fill="#384226" transform="translate(119,250)"/>
<path d="M0 0 C3.97425433 0 6.06439011 1.6642389 8.875 4.25 C12.00991751 7.53387688 12.00991751 7.53387688 11.9375 10.9375 C11.628125 11.618125 11.31875 12.29875 11 13 C8.7734375 13.7265625 8.7734375 13.7265625 6 14 C3.7265625 12.5234375 3.7265625 12.5234375 1.625 10.375 C0.91601562 9.68148438 0.20703125 8.98796875 -0.5234375 8.2734375 C-2 6 -2 6 -1.7890625 3.2890625 C-1 1 -1 1 0 0 Z " fill="#374126" transform="translate(223,354)"/>
<path d="M0 0 C0.73476562 0.23976563 1.46953125 0.47953125 2.2265625 0.7265625 C2.953125 2.953125 2.953125 2.953125 3.2265625 5.7265625 C1.75 8 1.75 8 -0.3984375 10.1015625 C-1.09195313 10.81054688 -1.78546875 11.51953125 -2.5 12.25 C-4.7734375 13.7265625 -4.7734375 13.7265625 -7.546875 13.453125 C-8.64902344 13.09347656 -8.64902344 13.09347656 -9.7734375 12.7265625 C-10.5 10.5 -10.5 10.5 -10.7734375 7.7265625 C-9.296875 5.453125 -9.296875 5.453125 -7.1484375 3.3515625 C-6.45492187 2.64257812 -5.76140625 1.93359375 -5.046875 1.203125 C-2.7734375 -0.2734375 -2.7734375 -0.2734375 0 0 Z " fill="#374126" transform="translate(127.7734375,354.2734375)"/>
<path d="M0 0 C0.625 2.375 0.625 2.375 1 5 C-2.41076723 8.41076723 -6.08728586 8.95511242 -10.8125 9.1875 C-14 9 -14 9 -15 8 C-15.1875 5.5625 -15.1875 5.5625 -15 3 C-12.74829688 0.74829688 -11.67012422 0.48526 -8.625 -0.1875 C-7.85414062 -0.36667969 -7.08328125 -0.54585938 -6.2890625 -0.73046875 C-3.88917728 -1.01304909 -2.28329465 -0.73503321 0 0 Z " fill="#384326" transform="translate(112,324)"/>
<path d="M0 0 C8.59597603 0.99684428 8.59597603 0.99684428 12.01171875 4.08203125 C12.38671875 6.70703125 12.38671875 6.70703125 12.01171875 9.08203125 C11.68171875 9.41203125 11.35171875 9.74203125 11.01171875 10.08203125 C6.32119502 9.95604611 1.03874504 9.59892268 -2.98828125 7.08203125 C-3.92578125 4.58203125 -3.92578125 4.58203125 -3.98828125 2.08203125 C-1.98828125 0.08203125 -1.98828125 0.08203125 0 0 Z " fill="#394326" transform="translate(100.98828125,284.91796875)"/>
</svg>
