<?xml version="1.0" encoding="UTF-8"?>
<svg version="1.1" xmlns="http://www.w3.org/2000/svg" width="512" height="512">
<path d="M0 0 C2 1 2 1 2.85375977 3.46850586 C3.26839478 5.07544312 3.26839478 5.07544312 3.69140625 6.71484375 C4.14870117 8.45604492 4.14870117 8.45604492 4.61523438 10.23242188 C4.92783203 11.45509766 5.24042969 12.67777344 5.5625 13.9375 C6.18706441 16.34289978 6.81328273 18.74787091 7.44140625 21.15234375 C7.71670166 22.22476318 7.99199707 23.29718262 8.27563477 24.40209961 C8.8990724 26.95694007 8.8990724 26.95694007 10 29 C10.53367187 28.63237549 11.06734375 28.26475098 11.6171875 27.88598633 C14.07691655 26.19306078 16.53844426 24.50276828 19 22.8125 C20.25876953 21.9452832 20.25876953 21.9452832 21.54296875 21.06054688 C26.6218408 17.57620442 31.75248735 14.22503382 37 11 C50.11789482 42.78425496 42.8870569 82.03532823 33.26171875 113.77734375 C23.58458936 143.35177285 23.58458936 143.35177285 24 173.75 C24.66 174.8225 25.32 175.895 26 177 C26.44214844 177.77988281 26.88429688 178.55976563 27.33984375 179.36328125 C40.81709275 202.13291221 61.80811589 218.14816301 83.5 232.5 C97.26504762 241.6072642 110.26574235 251.19972461 122.31640625 262.50390625 C124.60284973 264.63059822 126.92987084 266.67072561 129.3125 268.6875 C133.28279647 272.1544051 136.64981444 275.93741867 140 280 C140.65790527 280.78141357 140.65790527 280.78141357 141.32910156 281.57861328 C158.1320343 301.57916097 172.89620529 326.17298937 174 353 C174.03996094 353.89589844 174.07992188 354.79179687 174.12109375 355.71484375 C174.62696328 378.3599445 167.74569073 399.7009429 153 417 C152.38382812 417.76054687 151.76765625 418.52109375 151.1328125 419.3046875 C139.39377624 433.30667051 121.97836163 441.64284174 104 444 C93.99990222 444.74700245 83.95996699 444.69738862 73.9375 444.75 C71.22065613 444.77606962 68.50388958 444.8078882 65.78710938 444.83984375 C59.19147425 444.91309691 52.5959438 444.96509343 46 445 C46.59425781 446.10730469 47.18851563 447.21460938 47.80078125 448.35546875 C48.13505127 448.97832764 48.46932129 449.60118652 48.8137207 450.24291992 C50.6500346 452.96281108 53.22616905 454.33570143 56 456 C57.38125018 458.76250036 57.19079306 460.94731099 57 464 C55 466 55 466 51.875 466.5625 C46.36029751 465.76197867 43.77786459 462.90984239 40 459 C39.236875 458.236875 38.47375 457.47375 37.6875 456.6875 C35.2089054 452.74010859 34.15068159 448.48940165 33 444 C32.01 444.33 31.02 444.66 30 445 C31.62989771 453.43801687 31.62989771 453.43801687 34.75 461.375 C36.44392919 464.9322513 35.95697355 467.24571914 35 471 C31.99449319 472.50275341 30.33001693 472.58765005 27 472 C19.91580521 464.55961664 18.529655 453.7712215 18 444 C16.68 444 15.36 444 14 444 C14.01571045 445.28688721 14.0314209 446.57377441 14.04760742 447.8996582 C14.10185775 452.66863764 14.1363323 457.43758974 14.16479492 462.20678711 C14.17989271 464.27193791 14.20037274 466.3370566 14.22631836 468.40209961 C14.26265795 471.36840739 14.2797163 474.33429171 14.29296875 477.30078125 C14.30845261 478.2258699 14.32393646 479.15095856 14.33988953 480.1040802 C14.34022942 481.39507881 14.34022942 481.39507881 14.34057617 482.7121582 C14.35056892 483.84800102 14.35056892 483.84800102 14.36076355 485.00679016 C13.89659468 487.57131188 13.08744048 488.47478939 11 490 C7.35265021 489.77669287 5.61627165 489.61627165 3 487 C2.75949097 485.12704468 2.75949097 485.12704468 2.77294922 482.82568359 C2.77317581 481.53457169 2.77317581 481.53457169 2.77340698 480.21737671 C2.78372955 479.28712677 2.79405212 478.35687683 2.8046875 477.3984375 C2.8075174 476.44683746 2.81034729 475.49523743 2.81326294 474.51480103 C2.82448011 471.46807408 2.84958737 468.42163846 2.875 465.375 C2.88502782 463.31250424 2.89415401 461.25000388 2.90234375 459.1875 C2.92442446 454.12488733 2.9589647 449.0624931 3 444 C1.68 444 0.36 444 -1 444 C-1.02578125 444.66644531 -1.0515625 445.33289063 -1.078125 446.01953125 C-1.82827844 458.20952469 -5.93619294 469.49325568 -14.9375 478.0625 C-18.62301497 480.39415233 -20.71418007 480.5769373 -25 480 C-27 478 -27 478 -27.625 474.8125 C-26.8081793 469.82989373 -24.8425419 468.89115522 -21.0390625 465.8671875 C-15.01379666 460.34979847 -14.09546252 451.71147958 -13 444 C-13.99 444.33 -14.98 444.66 -16 445 C-16.69830101 446.77335635 -16.69830101 446.77335635 -17.125 448.9375 C-19.45614094 456.5777839 -25.33313575 462.85188106 -32.25 466.75 C-36 468 -36 468 -38.9375 467.3125 C-41 466 -41 466 -42 465 C-42.46351931 459.6695279 -42.46351931 459.6695279 -40.875 457.375 C-39 456 -39 456 -36.0625 454.25 C-33.23322622 452.17134988 -32.38395604 451.2855339 -30.80859375 448.359375 C-30.21175781 447.25078125 -29.61492187 446.1421875 -29 445 C-29.80829254 444.99413376 -30.61658508 444.98826752 -31.44937134 444.98222351 C-39.12703643 444.92393131 -46.80439041 444.85165157 -54.48177528 444.76428509 C-58.4272819 444.71986288 -62.37269191 444.68054795 -66.31835938 444.65356445 C-70.13761921 444.62724648 -73.95650144 444.58665213 -77.77552414 444.53681374 C-79.22085184 444.52033493 -80.66624455 444.50870409 -82.11165237 444.50238609 C-106.3646347 444.38581825 -126.44683164 436.77565326 -143.60400391 419.46923828 C-157.4737661 404.87178657 -165.18081182 385.08791879 -166 365 C-166.03996094 364.06671875 -166.07992187 363.1334375 -166.12109375 362.171875 C-167.00737813 319.83876228 -146.61031406 283.79823841 -118.171875 253.94921875 C-109.98641535 245.5086486 -101.45332847 237.97539512 -92 231 C-52.93037863 202.14499018 -52.93037863 202.14499018 -31 160 C-30.47995619 154.84705923 -30.47205371 149.73461373 -30.5625 144.5625 C-30.57364924 143.14632162 -30.58479833 141.73014323 -30.59594727 140.31396484 C-30.722873 130.56974887 -31.54974256 121.04560968 -33.24609375 111.4453125 C-33.81988314 108.17588546 -34.31861659 104.90837642 -34.72265625 101.61328125 C-34.82457275 100.80157471 -34.92648926 99.98986816 -35.03149414 99.15356445 C-35 97 -35 97 -33 94.0625 C-29.70931591 91.80015469 -26.73306996 90.39075155 -23 89 C-24.81044723 73.29905251 -28.54483906 57.3721444 -33.875 42.5 C-35.79881159 36.96591861 -36.94054078 32.83135285 -36 27 C-32.12794629 22.46502659 -27.33290456 19.17640411 -22.5 15.75 C-21.71061035 15.18514893 -20.9212207 14.62029785 -20.10791016 14.03833008 C-13.45362133 9.28901829 -6.74855741 4.61429632 0 0 Z " fill="#FEEDC7" transform="translate(252,11)"/>
<path d="M0 0 C0.33 0 0.66 0 1 0 C0.72950304 15.73800471 -3.9504532 29.01784202 -11 43 C-11.28713867 43.58604004 -11.57427734 44.17208008 -11.87011719 44.77587891 C-18.44841549 58.15649324 -27.09746569 69.56944247 -36.5703125 81.03125 C-47.20695756 94.0277938 -56.51463799 107.50025571 -65 122 C-65.40089844 122.68304199 -65.80179687 123.36608398 -66.21484375 124.06982422 C-74.45998967 138.30443779 -80.90948237 154.0726705 -85 170 C-85.29777344 171.12148438 -85.59554687 172.24296875 -85.90234375 173.3984375 C-89.7497036 190.31263704 -90.40612288 210.39082729 -85 227 C-84.64808594 228.09957031 -84.29617187 229.19914063 -83.93359375 230.33203125 C-76.92764678 250.19377529 -61.45970824 267.00207621 -43 277 C-34.63473108 281.00132445 -26.12629558 282.06396968 -17 283 C-17 283.33 -17 283.66 -17 284 C-23.57951259 284.07686265 -30.15890694 284.12893606 -36.73876953 284.16479492 C-38.97123542 284.17976387 -41.2036725 284.20014629 -43.43603516 284.22631836 C-69.96373641 284.52925449 -91.44629076 280.0382474 -111.14453125 260.94140625 C-125.88145604 246.07629142 -134.14732324 225.90911712 -135 205 C-135.03996094 204.06671875 -135.07992187 203.1334375 -135.12109375 202.171875 C-136.00737813 159.83876228 -115.61031406 123.79823841 -87.171875 93.94921875 C-78.98641535 85.5086486 -70.45332847 77.97539512 -61 71 C-35.55501307 52.15352405 -9.07185617 31.77967007 0 0 Z " fill="#EAB198" transform="translate(221,171)"/>
<path d="M0 0 C2.54562205 3.05474647 4.83485553 6.21208244 7.0625 9.5 C21.35038141 30.02926858 39.83017861 44.82438262 60.5 58.5 C74.26504762 67.6072642 87.26574235 77.19972461 99.31640625 88.50390625 C101.60284973 90.63059822 103.92987084 92.67072561 106.3125 94.6875 C110.28279647 98.1544051 113.64981444 101.93741867 117 106 C117.65790527 106.78141357 117.65790527 106.78141357 118.32910156 107.57861328 C135.1320343 127.57916097 149.89620529 152.17298937 151 179 C151.03996094 179.89589844 151.07992187 180.79179687 151.12109375 181.71484375 C151.62696328 204.3599445 144.74569073 225.7009429 130 243 C129.07574219 244.14082031 129.07574219 244.14082031 128.1328125 245.3046875 C116.27363615 259.44997013 99.03979188 267.3275326 81 270 C74.65321622 270.5447571 68.29886479 270.3872351 61.9375 270.25 C60.28062109 270.22985953 58.62371792 270.21162238 56.96679688 270.1953125 C52.977245 270.15201618 48.98890598 270.08342978 45 270 C45 269.67 45 269.34 45 269 C46.01578125 268.76925781 47.0315625 268.53851563 48.078125 268.30078125 C70.12404012 263.14911225 89.21473488 252.70026101 101.9375 233.4375 C112.64458552 215.22763923 116.12326635 195.97807564 110.97290039 175.39331055 C103.63845038 149.09307132 87.2722726 125.30722721 69.55078125 104.953125 C67.10743546 102.12438164 64.76779987 99.23455728 62.4375 96.3125 C58.67145392 91.67736636 54.59715195 87.49503189 50.328125 83.32421875 C48.32171612 81.32117633 46.45901125 79.28396955 44.625 77.125 C42.13595321 74.20256624 39.49971877 71.50189667 36.74487305 68.82861328 C18.26819714 50.84144329 2.83778636 26.1076345 0 0 Z " fill="#EAB198" transform="translate(275,185)"/>
<path d="M0 0 C2 1 2 1 2.85375977 3.46850586 C3.13018311 4.53979736 3.40660645 5.61108887 3.69140625 6.71484375 C3.99626953 7.87564453 4.30113281 9.03644531 4.61523438 10.23242188 C5.08413086 12.06643555 5.08413086 12.06643555 5.5625 13.9375 C6.18706441 16.34289978 6.81328273 18.74787091 7.44140625 21.15234375 C7.71670166 22.22476318 7.99199707 23.29718262 8.27563477 24.40209961 C8.8990724 26.95694007 8.8990724 26.95694007 10 29 C10.53367187 28.63237549 11.06734375 28.26475098 11.6171875 27.88598633 C14.07691655 26.19306078 16.53844426 24.50276828 19 22.8125 C19.83917969 22.23435547 20.67835938 21.65621094 21.54296875 21.06054688 C26.6218408 17.57620442 31.75248735 14.22503382 37 11 C49.71102364 41.79841863 43.48754652 80.86862249 33.84765625 111.68359375 C31.34391669 116.177621 28.15555851 118.30315674 23.9375 121.125 C22.31987496 122.24676514 20.70270123 123.36918133 19.0859375 124.4921875 C18.2515918 125.06420898 17.41724609 125.63623047 16.55761719 126.22558594 C11.55041598 129.69946322 6.6606641 133.33891511 1.75170898 136.94970703 C0.68545288 137.72483643 0.68545288 137.72483643 -0.40234375 138.515625 C-1.02616943 138.97227539 -1.64999512 139.42892578 -2.29272461 139.89941406 C-4 141 -4 141 -7 142 C-7.01981934 141.16452637 -7.03963867 140.32905273 -7.06005859 139.46826172 C-7.13929229 136.29584955 -7.22600283 133.12374397 -7.31738281 129.95166016 C-7.37339734 127.93276376 -7.42119483 125.91364462 -7.46875 123.89453125 C-7.83899131 111.36803357 -9.67411532 99.2939619 -12 87 C-16.95 87.99 -16.95 87.99 -22 89 C-22.21092285 88.03400879 -22.4218457 87.06801758 -22.63916016 86.07275391 C-23.62238491 81.58746248 -24.62048568 77.10556828 -25.625 72.625 C-25.89461548 71.42100555 -25.89461548 71.42100555 -26.16967773 70.19268799 C-28.37044939 60.42400174 -30.59009459 50.75743554 -34.27197266 41.41650391 C-36.09483757 36.62749159 -36.95403821 32.06290731 -36 27 C-32.54228877 22.30739191 -27.23748196 19.10875196 -22.5 15.75 C-21.71061035 15.18514893 -20.9212207 14.62029785 -20.10791016 14.03833008 C-13.45362133 9.28901829 -6.74855741 4.61429632 0 0 Z " fill="#A8DA88" transform="translate(252,11)"/>
<path d="M0 0 C1.32 0.33 2.64 0.66 4 1 C5.49706936 5.61835993 3.82500072 8.93351361 2.0625 13.25 C1.7418457 14.04994385 1.42119141 14.8498877 1.09082031 15.67407227 C-3.940991 27.99665181 -10.2045759 39.46396302 -16.92602539 50.93334961 C-30.78958304 74.70048013 -40.44400617 99.74861694 -46.45068359 126.57324219 C-46.80407539 128.13444862 -47.17056037 129.69277919 -47.55322266 131.24707031 C-53.99080121 158.00790011 -52.25578539 191.20164343 -38.625 215.5 C-33.1020591 224.24766456 -26.90961228 231.58699288 -18.8605957 238.07055664 C-16.11876696 240.4002064 -15.06043166 241.58705032 -14.53125 245.203125 C-15 248 -15 248 -17 250 C-24.84790239 250.86080981 -31.60840979 246.36109605 -37.65429688 241.73388672 C-56.36086845 226.27545621 -67.21908949 203.99978244 -70 180 C-70.26414297 175.01677556 -70.28034498 170.05172097 -70.25 165.0625 C-70.25773438 163.79470703 -70.26546875 162.52691406 -70.2734375 161.22070312 C-70.19090617 120.96604856 -52.24102936 82.03235744 -29.06640625 49.91796875 C-17.71401388 34.1853154 -8.40267605 17.47262344 0 0 Z " fill="#EAB298" transform="translate(241,195)"/>
<path d="M0 0 C3.25 0.5625 3.25 0.5625 4.46557617 1.99169922 C4.84174072 2.63123535 5.21790527 3.27077148 5.60546875 3.9296875 C6.24959717 5.02349731 6.24959717 5.02349731 6.90673828 6.1394043 C9.30308772 10.46215387 11.56663344 14.84760811 13.8125 19.25 C17.77701211 26.94817142 21.88997661 34.51921596 26.25 42 C36.15472858 59.11866173 45.31553269 76.64239722 51.25 95.5625 C51.78753906 97.23119141 51.78753906 97.23119141 52.3359375 98.93359375 C57.99714449 120.15013553 55.28050501 144.67449529 44.5 163.75 C38.37191553 173.39547989 29.07197372 184.13430199 18.25 188.5625 C14.90022937 188.24347423 13.65820361 187.97070361 11.25 185.5625 C10.58714239 181.96681012 11.15076628 180.70860498 13.2265625 177.65234375 C14.10139303 176.59490785 14.98469414 175.54443986 15.875 174.5 C31.9957551 154.52094644 33.73068908 131.46136867 31.9765625 106.703125 C31.54241212 103.60673169 30.94287385 100.61186667 30.25 97.5625 C30.09402344 96.81790527 29.93804687 96.07331055 29.77734375 95.30615234 C25.17414889 73.36851907 16.80241967 53.7659014 7.25 33.5625 C6.81268555 32.63679199 6.37537109 31.71108398 5.92480469 30.75732422 C3.54786417 25.73127023 3.54786417 25.73127023 1.15478516 20.71289062 C0.17687596 18.66711758 -0.79038695 16.61691171 -1.75 14.5625 C-2.05454102 13.91603516 -2.35908203 13.26957031 -2.67285156 12.60351562 C-4.56102909 8.44208613 -5.0229483 6.01781907 -3.75 1.5625 C-2.75 0.5625 -2.75 0.5625 0 0 Z " fill="#EAB198" transform="translate(282.75,252.4375)"/>
<path d="M0 0 C2 1 2 1 2.86962891 3.42089844 C3.15241699 4.4730957 3.43520508 5.52529297 3.7265625 6.609375 C4.0359375 7.75664062 4.3453125 8.90390625 4.6640625 10.0859375 C4.98117187 11.29507812 5.29828125 12.50421875 5.625 13.75 C6.11226563 15.54050781 6.11226563 15.54050781 6.609375 17.3671875 C9.41099701 27.89092731 9.41099701 27.89092731 9 32 C6.8828125 33.9140625 6.8828125 33.9140625 4.125 35.625 C0.87682129 37.67014956 -0.84374985 38.76562478 -3 42 C-3.15000526 48.16896635 -1.34747227 54.51448913 0 60.5 C0.35856716 62.09276573 0.71275639 63.68652354 1.0625 65.28125 C1.21847656 65.97283203 1.37445313 66.66441406 1.53515625 67.37695312 C2.76915176 74.34021351 3.16576553 81.25857624 3.203125 88.3203125 C3.20882507 89.18204071 3.21452515 90.04376892 3.22039795 90.93161011 C3.22978156 92.74508462 3.23635524 94.55857567 3.24023438 96.37207031 C3.24990181 99.09732032 3.28097349 101.82180241 3.3125 104.546875 C3.37545238 115.10533541 2.60086954 124.74480209 0 135 C-0.0731543 135.73105957 -0.14630859 136.46211914 -0.22167969 137.21533203 C-1.51363509 140.17775172 -4.15425718 140.78904561 -7 142 C-7.01981934 141.16452637 -7.03963867 140.32905273 -7.06005859 139.46826172 C-7.13929229 136.29584955 -7.22600283 133.12374397 -7.31738281 129.95166016 C-7.37339734 127.93276376 -7.42119483 125.91364462 -7.46875 123.89453125 C-7.83899131 111.36803357 -9.67411532 99.2939619 -12 87 C-16.95 87.99 -16.95 87.99 -22 89 C-22.21092285 88.03400879 -22.4218457 87.06801758 -22.63916016 86.07275391 C-23.62238491 81.58746248 -24.62048568 77.10556828 -25.625 72.625 C-25.89461548 71.42100555 -25.89461548 71.42100555 -26.16967773 70.19268799 C-28.37044939 60.42400174 -30.59009459 50.75743554 -34.27197266 41.41650391 C-36.09483757 36.62749159 -36.95403821 32.06290731 -36 27 C-32.54228877 22.30739191 -27.23748196 19.10875196 -22.5 15.75 C-21.71061035 15.18514893 -20.9212207 14.62029785 -20.10791016 14.03833008 C-13.45362133 9.28901829 -6.74855741 4.61429632 0 0 Z " fill="#719B56" transform="translate(252,11)"/>
<path d="M0 0 C0.48557871 2.2904656 0.96349409 4.58213418 1.4375 6.875 C1.70433594 8.15117188 1.97117188 9.42734375 2.24609375 10.7421875 C3.14126356 15.47269216 3.58428402 20.20694425 4 25 C4.12093018 26.15177734 4.24186035 27.30355469 4.36645508 28.49023438 C6.6020899 51.89317758 6.6020899 51.89317758 2.30957031 58.66796875 C-3.67483333 64.73681323 -11.19815858 67.91849966 -19 71 C-19.01458252 70.20118408 -19.02916504 69.40236816 -19.04418945 68.5793457 C-19.34518915 53.75165394 -19.83445682 39.17623947 -22.28125 24.515625 C-22.45527344 23.41444336 -22.45527344 23.41444336 -22.6328125 22.29101562 C-22.89576554 20.65035651 -23.18531241 19.01387325 -23.4921875 17.38085938 C-24.52333133 10.79029387 -24.52333133 10.79029387 -22.0703125 7.0859375 C-18.45713735 4.63118492 -14.97850583 3.06758037 -10.875 1.625 C-10.15957031 1.35300781 -9.44414062 1.08101563 -8.70703125 0.80078125 C-3.40032087 -1.13344029 -3.40032087 -1.13344029 0 0 Z " fill="#A8DA88" transform="translate(241,98)"/>
<path d="M0 0 C3.63 0 7.26 0 11 0 C11.07408977 6.06890175 11.12857359 12.13754097 11.16479492 18.20678711 C11.17989271 20.27193791 11.20037274 22.3370566 11.22631836 24.40209961 C11.26265795 27.36840739 11.2797163 30.33429171 11.29296875 33.30078125 C11.30845261 34.2258699 11.32393646 35.15095856 11.33988953 36.1040802 C11.34022942 37.39507881 11.34022942 37.39507881 11.34057617 38.7121582 C11.34723801 39.46938675 11.35389984 40.2266153 11.36076355 41.00679016 C10.89659468 43.57131188 10.08744048 44.47478939 8 46 C4.35265021 45.77669287 2.61627165 45.61627165 0 43 C-0.24050903 41.12704468 -0.24050903 41.12704468 -0.22705078 38.82568359 C-0.22689972 37.96494232 -0.22674866 37.10420105 -0.22659302 36.21737671 C-0.21627045 35.28712677 -0.20594788 34.35687683 -0.1953125 33.3984375 C-0.1924826 32.44683746 -0.18965271 31.49523743 -0.18673706 30.51480103 C-0.17551989 27.46807408 -0.15041263 24.42163846 -0.125 21.375 C-0.11497218 19.31250424 -0.10584599 17.25000388 -0.09765625 15.1875 C-0.07557554 10.12488733 -0.0410353 5.0624931 0 0 Z " fill="#EAB098" transform="translate(255,455)"/>
<path d="M0 0 C3.96 0 7.92 0 12 0 C11.32473787 12.99879603 7.73941372 24.85007814 -1.9375 34.0625 C-5.62301497 36.39415233 -7.71418007 36.5769373 -12 36 C-14 34 -14 34 -14.625 30.8125 C-13.8081793 25.82989373 -11.8425419 24.89115522 -8.0390625 21.8671875 C-1.97986189 16.31872411 -1.1730794 7.72277275 0 0 Z " fill="#EAB198" transform="translate(239,455)"/>
<path d="M0 0 C1.89881785 0.12826755 3.79677993 0.28288382 5.6875 0.5 C3.94625504 9.90672562 -0.75317469 16.47667366 -8.50390625 22.0859375 C-11.68869501 23.88682374 -13.6433571 24.65660791 -17.25 23.8125 C-19.3125 22.5 -19.3125 22.5 -20.3125 21.5 C-20.77601931 16.1695279 -20.77601931 16.1695279 -19.1875 13.875 C-17.3125 12.5 -17.3125 12.5 -14.4375 10.8125 C-11.28862368 8.48233152 -10.77049515 7.59909795 -9.1875 4.25 C-6.83157295 0.0234199 -4.6992518 -0.02203635 0 0 Z " fill="#EAB098" transform="translate(230.3125,454.5)"/>
<path d="M0 0 C3.63 0 7.26 0 11 0 C11.2475 0.928125 11.495 1.85625 11.75 2.8125 C12.68137041 6.11584972 13.84552197 9.29160338 15.0625 12.5 C16.6116497 16.73977811 17.90564921 20.47116193 18 25 C16.9375 26.9375 16.9375 26.9375 15 28 C12.125 28.6875 12.125 28.6875 9 28 C1.89238821 20.47429339 0.62197594 9.82721985 0 0 Z " fill="#EAB198" transform="translate(270,455)"/>
<path d="M0 0 C4.1226204 -0.54034345 7.90018891 -0.7874157 12 0 C14.16750788 2.10261244 15.34862033 4.14473305 16.7578125 6.8046875 C18.32829695 9.58019776 20.17027176 10.62556057 23 12 C24.38125018 14.76250036 24.19079306 16.94731099 24 20 C22 22 22 22 18.875 22.5625 C13.36029751 21.76197867 10.77786459 18.90984239 7 15 C6.236875 14.236875 5.47375 13.47375 4.6875 12.6875 C2.2089054 8.74010859 1.15068159 4.48940165 0 0 Z " fill="#EAB198" transform="translate(285,455)"/>
<path d="M0 0 C2 2 2 2 2.3125 4.9375 C2 8 2 8 0.9375 9.9375 C-2.18142449 11.64787795 -4.65557801 10.80513863 -8 10 C-9.41441874 7.17116253 -9.31900332 5.12623255 -9 2 C-6.12524616 -1.3006433 -4.03854228 -1.38160657 0 0 Z " fill="#EAB098" transform="translate(296,486)"/>
<path d="M0 0 C2.4375 0.8125 2.4375 0.8125 4.4375 3.8125 C4.1133631 7.13490324 3.82973697 8.42026303 1.4375 10.8125 C-1.39636167 11.1758156 -2.96772151 11.1693671 -5.4375 9.6875 C-6.5625 7.8125 -6.5625 7.8125 -6.4375 4.75 C-5.31063606 0.96695678 -4.03725591 -0.29540897 0 0 Z " fill="#EBB59B" transform="translate(275.5625,229.1875)"/>
</svg>
