<?xml version="1.0" encoding="UTF-8"?>
<svg version="1.1" xmlns="http://www.w3.org/2000/svg" width="512" height="512">
<path d="M0 0 C1.18142578 -0.01611328 2.36285156 -0.03222656 3.58007812 -0.04882812 C16.50399385 -0.05590972 29.19438647 1.79618967 38.9375 10.875 C48.52382046 23.93222959 49.43984722 40.70035296 49.5625 56.25 C49.57643799 57.39927979 49.59037598 58.54855957 49.60473633 59.73266602 C49.54949966 69.59707348 48.15757853 77.13232346 41.25 84.4140625 C34.90698464 90.25251982 27.44901658 94.45159337 19.92163086 98.56054688 C16.28242141 100.56937817 13.20651151 102.27447699 11.3125 106.0625 C10.99187036 111.83383348 14.53321963 115.84358852 18.0625 120 C28.36973097 132.41423399 29.31622585 146.85479933 28.1875 162.3125 C26.04060968 174.40869347 19.97714895 185.71820422 10.1875 193.3125 C2.58956164 197.79508831 -3.60649931 200.39147538 -12.4140625 200.5234375 C-13.70957031 200.55179688 -15.00507813 200.58015625 -16.33984375 200.609375 C-18.38003833 200.65034472 -20.42001399 200.68727209 -22.46044922 200.71386719 C-36.48338554 200.73750774 -36.48338554 200.73750774 -48.75 206.6875 C-52.7290407 211.75173362 -54.21838777 215.33562598 -54.875 221.8125 C-55.03405223 223.2397068 -55.19422476 224.66678916 -55.35546875 226.09375 C-55.43200684 226.80273438 -55.50854492 227.51171875 -55.58740234 228.2421875 C-57.04301759 241.63005876 -59.10936695 250.52818521 -69.8125 259.3125 C-85.52345735 270.7917858 -105.9433045 272.91101209 -124.8125 270.3125 C-124.91739746 270.97193604 -125.02229492 271.63137207 -125.13037109 272.31079102 C-125.99587226 276.11942981 -127.34519297 279.6960539 -128.7265625 283.33984375 C-129.32617577 284.94378536 -129.9256158 286.54779175 -130.52490234 288.15185547 C-130.99437286 289.40261871 -130.99437286 289.40261871 -131.47332764 290.6786499 C-137.00773906 305.43836496 -142.29692105 320.20398395 -146.8125 335.3125 C-145.75675781 335.61800781 -144.70101563 335.92351562 -143.61328125 336.23828125 C-126.24165687 341.51017778 -109.68621268 349.47548061 -95.8125 361.3125 C-94.3275 362.55580078 -94.3275 362.55580078 -92.8125 363.82421875 C-75.96552001 378.3300726 -62.77428671 397.84373744 -60.60986328 420.42675781 C-59.36236222 439.91618717 -64.34355532 459.82567995 -77.17236328 474.91162109 C-98.87819404 499.16772669 -131.13901697 509.42093664 -162.8125 512.3125 C-165.64219369 512.46507088 -168.4673564 512.52101236 -171.30078125 512.55078125 C-172.07771835 512.5605751 -172.85465546 512.57036896 -173.65513611 512.58045959 C-205.49028056 512.89967513 -205.49028056 512.89967513 -220.8125 508.3125 C-221.93760986 507.99901611 -221.93760986 507.99901611 -223.08544922 507.67919922 C-239.68588042 503.00868802 -254.53791082 495.33715881 -267.8125 484.3125 C-268.74578125 483.55453125 -269.6790625 482.7965625 -270.640625 482.015625 C-285.25566816 469.52343727 -296.85742314 451.00917037 -298.68359375 431.54296875 C-299.97166151 409.25549324 -294.59845142 387.32334946 -279.54785156 370.25292969 C-260.36183513 349.29962089 -236.82663243 340.03703193 -209.8125 333.3125 C-213.26299854 315.12781618 -217.46164289 297.56027456 -223.05981445 279.8984375 C-223.79181123 277.38357865 -224.33929463 274.88738789 -224.8125 272.3125 C-227.00045083 272.85234273 -229.18781423 273.39456589 -231.375 273.9375 C-232.07665283 274.1113623 -232.77830566 274.28522461 -233.5012207 274.46435547 C-237.85827909 275.55139636 -242.20236048 276.67801666 -246.5390625 277.84375 C-284.86556158 288.12216288 -284.86556158 288.12216288 -301.140625 280.17578125 C-303.11947286 278.97865382 -304.96496354 277.70231346 -306.8125 276.3125 C-308.359375 275.19875 -308.359375 275.19875 -309.9375 274.0625 C-316.60414116 267.68571281 -320.64549595 260.50319456 -321.1875 251.1875 C-321.08174053 246.01409948 -319.43942843 241.41496679 -317.84765625 236.53125 C-315.0935981 228.34073517 -315.0935981 228.34073517 -315.6875 219.9375 C-321.58013511 212.65836251 -332.1470604 211.59807818 -340.79296875 209.68945312 C-350.93161334 207.32548707 -360.34831916 203.8656146 -366.8125 195.3125 C-372.59679563 185.57685437 -374.33784243 176.99917565 -371.6484375 165.875 C-370.93257552 163.08235162 -370.18445629 160.30152418 -369.4140625 157.5234375 C-367.46615415 149.84002121 -367.43570162 143.44386889 -371.46875 136.43359375 C-374.49668191 133.69331537 -377.62804396 132.08377734 -381.3125 130.375 C-382.02374023 130.02928955 -382.73498047 129.6835791 -383.46777344 129.32739258 C-386.65926272 127.77934098 -389.86616226 126.28872075 -393.109375 124.8515625 C-406.59698962 118.67865951 -416.97404523 107.96398601 -423.25 94.5 C-425.85550148 87.33769074 -426.37684021 78.95438282 -423.25 71.875 C-419.22208032 65.17593359 -413.29485852 61.25651464 -405.8125 59.3125 C-401.50220094 58.47945294 -397.4027257 58.17900772 -393.015625 58.13671875 C-391.7265625 58.11287109 -390.4375 58.08902344 -389.109375 58.06445312 C-387.09103809 58.02952789 -385.07328836 58.00007215 -383.0546875 57.98657227 C-372.06348139 57.89901977 -362.77203731 56.7595321 -354.453125 49.08203125 C-352.60554509 47.08928435 -350.99999192 44.99013557 -349.375 42.8125 C-342.27998485 33.41041979 -332.37889234 28.35709783 -320.828125 26.56640625 C-305.04307527 25.23735414 -291.15515944 29.8706742 -278.875 39.65234375 C-271.14119474 46.22453022 -265.12834047 53.69317682 -259.8125 62.3125 C-258.8225 63.89998047 -258.8225 63.89998047 -257.8125 65.51953125 C-252.60168117 75.16628421 -251.13269698 85.25805213 -249.67260742 96.05883789 C-248.51172573 104.15581196 -247.0917543 110.52444415 -240.8046875 116.08984375 C-240.10601562 116.47269531 -239.40734375 116.85554688 -238.6875 117.25 C-237.82898438 117.724375 -236.97046875 118.19875 -236.0859375 118.6875 C-231.86254676 120.78407583 -227.58836001 122.7632242 -223.3125 124.75 C-216.30987158 128.01247275 -209.73400978 131.26575871 -203.8125 136.3125 C-203.11125 136.87195313 -202.41 137.43140625 -201.6875 138.0078125 C-190.86174223 148.13645708 -187.43282231 167.78444558 -186.59521484 182.00024414 C-186.47246076 186.06552609 -186.42488481 190.12079402 -186.4375 194.1875 C-186.4387085 194.91137909 -186.43991699 195.63525818 -186.44116211 196.381073 C-186.53520211 217.23988996 -190.93235444 235.331162 -198.02807617 254.89086914 C-199.55383431 259.60110724 -200.09717705 262.48618653 -198.37109375 267.20703125 C-198.03746826 268.150625 -197.70384277 269.09421875 -197.36010742 270.06640625 C-196.99377197 271.07574219 -196.62743652 272.08507812 -196.25 273.125 C-182.20776814 313.47291012 -182.20776814 313.47291012 -182.8125 331.3125 C-180.1725 331.3125 -177.5325 331.3125 -174.8125 331.3125 C-174.66554688 330.72073975 -174.51859375 330.12897949 -174.3671875 329.51928711 C-172.01466774 320.46157903 -168.92922915 311.69068543 -165.8125 302.875 C-165.52792938 302.06690887 -165.24335876 301.25881775 -164.95016479 300.42623901 C-151.23281186 261.52568973 -151.23281186 261.52568973 -142.73828125 244.46484375 C-139.70707212 234.14338482 -142.93882661 223.15467021 -145.00387573 212.90036011 C-145.94667828 208.21632341 -146.85548023 203.52565304 -147.76953125 198.8359375 C-148.03897301 197.46111458 -148.03897301 197.46111458 -148.31385803 196.05851746 C-149.73128873 188.80535376 -151.04684725 181.5421778 -152.25 174.25 C-152.40114258 173.34419189 -152.55228516 172.43838379 -152.70800781 171.50512695 C-157.40870307 142.59807366 -156.12938837 113.70555712 -139.5234375 88.6796875 C-131.80266851 77.99752766 -122.52871944 73.93548457 -109.53125 71.7644043 C-105.98239086 71.33314522 -102.63751945 71.22824506 -99.06640625 71.28515625 C-97.81666016 71.29740234 -96.56691406 71.30964844 -95.27929688 71.32226562 C-92.68028206 71.35736988 -90.08131751 71.39642073 -87.48242188 71.43945312 C-75.80406058 71.73647543 -75.80406058 71.73647543 -65.4375 67 C-60.23187195 61.67042842 -60.52864488 56.32328574 -60.375 49.25 C-59.90472023 36.72101672 -58.82992382 25.7963423 -49.8125 16.3125 C-35.18297793 3.93671511 -18.80124628 -0.05078673 0 0 Z " fill="#B8C280" transform="translate(443.8125,-0.3125)"/>
<path d="M0 0 C7.73380526 6.57218647 13.74665953 14.04083307 19.0625 22.66015625 C20.0525 24.24763672 20.0525 24.24763672 21.0625 25.8671875 C26.27331883 35.51394046 27.74230302 45.60570838 29.20239258 56.40649414 C30.36327427 64.50346821 31.7832457 70.8721004 38.0703125 76.4375 C38.76898438 76.82035156 39.46765625 77.20320313 40.1875 77.59765625 C41.04601562 78.07203125 41.90453125 78.54640625 42.7890625 79.03515625 C47.01245324 81.13173208 51.28663999 83.11088045 55.5625 85.09765625 C62.56512842 88.360129 69.14099022 91.61341496 75.0625 96.66015625 C75.76375 97.21960938 76.465 97.7790625 77.1875 98.35546875 C88.01325777 108.48411333 91.44217769 128.13210183 92.27978516 142.34790039 C92.40253924 146.41318234 92.45011519 150.46845027 92.4375 154.53515625 C92.4362915 155.25903534 92.43508301 155.98291443 92.43383789 156.72872925 C92.35272195 174.72088843 91.1266808 205.3712569 78.44360352 219.45825195 C77.98783936 219.85488037 77.5320752 220.25150879 77.0625 220.66015625 C76.83699463 220.09844727 76.61148926 219.53673828 76.37915039 218.95800781 C58.9490776 175.65729788 37.82424824 135.26393214 5.9375 100.78515625 C5.35814697 100.1509375 4.77879395 99.51671875 4.18188477 98.86328125 C1.53880405 96.03287214 -1.00062762 93.49535845 -4.23046875 91.34375 C-8.1976563 88.55696754 -11.37174077 86.26438452 -12.44677734 81.31591797 C-13.08820515 75.23173782 -12.94001053 69.13824393 -12.89208984 63.02880859 C-13.06441417 50.24530855 -13.41222215 32.06291451 -19.9375 20.66015625 C-21.98187823 19.77888204 -21.98187823 19.77888204 -23.9375 19.66015625 C-31.55350582 32.92574016 -33.68404329 47.75661298 -35.9375 62.66015625 C-38.9375 63.66015625 -38.9375 63.66015625 -41.07421875 62.875 C-41.91597656 62.45347656 -42.75773437 62.03195313 -43.625 61.59765625 C-57.48020667 55.02695718 -72.36449764 48.86830867 -87.9375 49.66015625 C-86.83390338 59.22466026 -75.66548474 65.67672551 -68.62890625 71.29833984 C-65.20610529 74.05416891 -61.8260449 76.86241167 -58.4375 79.66015625 C-53.69745174 83.56836235 -48.95128081 87.46837861 -44.1875 91.34765625 C-39.67316424 95.03436379 -35.22119861 98.79021181 -30.78344727 102.56835938 C-27.27364381 105.5506205 -23.71545952 108.46237689 -20.125 111.34765625 C-15.44259722 115.15811599 -10.95749507 119.14486093 -6.9375 123.66015625 C-6.9375 123.99015625 -6.9375 124.32015625 -6.9375 124.66015625 C-7.85450684 124.64968262 -8.77151367 124.63920898 -9.71630859 124.62841797 C-13.16425156 124.59404731 -16.61200874 124.56911831 -20.06005859 124.55029297 C-21.54381204 124.54032194 -23.02754629 124.5267402 -24.51123047 124.50927734 C-35.66699614 124.38139601 -45.71828684 124.77270648 -55.9375 129.66015625 C-55.9375 130.65015625 -55.9375 131.64015625 -55.9375 132.66015625 C-36.444608 143.37357249 -15.00431838 150.36187584 5.94311523 157.66772461 C8.66512024 158.6285811 11.36651088 159.62879768 14.0625 160.66015625 C14.80806152 160.93230957 15.55362305 161.20446289 16.32177734 161.48486328 C22.35488447 164.01708488 24.92481922 168.07368703 28.0625 173.66015625 C28.52301758 174.46275879 28.98353516 175.26536133 29.45800781 176.09228516 C30.91369733 178.69712271 32.30953253 181.32590197 33.6875 183.97265625 C34.19458496 184.945979 34.70166992 185.91930176 35.22412109 186.92211914 C39.36330571 195.01407874 43.09904879 203.25106287 46.6875 211.59765625 C47.19619629 212.77561768 47.70489258 213.9535791 48.22900391 215.16723633 C50.67306666 220.94974411 52.77964869 226.51001617 54.0625 232.66015625 C53.17433594 232.87929688 52.28617188 233.0984375 51.37109375 233.32421875 C50.09363281 233.64132812 48.81617188 233.9584375 47.5 234.28515625 C46.79834717 234.45901855 46.09669434 234.63288086 45.3737793 234.81201172 C41.01672091 235.89905261 36.67263952 237.02567291 32.3359375 238.19140625 C-5.99056158 248.46981913 -5.99056158 248.46981913 -22.265625 240.5234375 C-24.24447286 239.32631007 -26.08996354 238.04996971 -27.9375 236.66015625 C-29.484375 235.54640625 -29.484375 235.54640625 -31.0625 234.41015625 C-37.72914116 228.03336906 -41.77049595 220.85085081 -42.3125 211.53515625 C-42.20674053 206.36175573 -40.56442843 201.76262304 -38.97265625 196.87890625 C-36.2185981 188.68839142 -36.2185981 188.68839142 -36.8125 180.28515625 C-42.70513511 173.00601876 -53.2720604 171.94573443 -61.91796875 170.03710938 C-72.05661334 167.67314332 -81.47331916 164.21327085 -87.9375 155.66015625 C-93.72179563 145.92451062 -95.46284243 137.3468319 -92.7734375 126.22265625 C-92.05757552 123.43000787 -91.30945629 120.64918043 -90.5390625 117.87109375 C-88.59115415 110.18767746 -88.56070162 103.79152514 -92.59375 96.78125 C-95.62168191 94.04097162 -98.75304396 92.43143359 -102.4375 90.72265625 C-103.14874023 90.3769458 -103.85998047 90.03123535 -104.59277344 89.67504883 C-107.78426272 88.12699723 -110.99116226 86.636377 -114.234375 85.19921875 C-127.72198962 79.02631576 -138.09904523 68.31164226 -144.375 54.84765625 C-146.98050148 47.68534699 -147.50184021 39.30203907 -144.375 32.22265625 C-140.34708032 25.52358984 -134.41985852 21.60417089 -126.9375 19.66015625 C-122.62720094 18.82710919 -118.5277257 18.52666397 -114.140625 18.484375 C-112.8515625 18.46052734 -111.5625 18.43667969 -110.234375 18.41210938 C-108.21603809 18.37718414 -106.19828836 18.3477284 -104.1796875 18.33422852 C-93.18848139 18.24667602 -83.89703731 17.10718835 -75.578125 9.4296875 C-73.73054509 7.4369406 -72.12499192 5.33779182 -70.5 3.16015625 C-63.40498485 -6.24192396 -53.50389234 -11.29524592 -41.953125 -13.0859375 C-26.16807527 -14.41498961 -12.28015944 -9.78166955 0 0 Z " fill="#567A39" transform="translate(164.9375,39.33984375)"/>
<path d="M0 0 C1.18142578 -0.01611328 2.36285156 -0.03222656 3.58007812 -0.04882812 C16.50399385 -0.05590972 29.19438647 1.79618967 38.9375 10.875 C48.52382046 23.93222959 49.43984722 40.70035296 49.5625 56.25 C49.57643799 57.39927979 49.59037598 58.54855957 49.60473633 59.73266602 C49.54949966 69.59707348 48.15757853 77.13232346 41.25 84.4140625 C34.90698464 90.25251982 27.44901658 94.45159337 19.92163086 98.56054688 C16.28242141 100.56937817 13.20651151 102.27447699 11.3125 106.0625 C10.99187036 111.83383348 14.53321963 115.84358852 18.0625 120 C28.36973097 132.41423399 29.31622585 146.85479933 28.1875 162.3125 C26.04060968 174.40869347 19.97714895 185.71820422 10.1875 193.3125 C2.58956164 197.79508831 -3.60649931 200.39147538 -12.4140625 200.5234375 C-13.70957031 200.55179688 -15.00507813 200.58015625 -16.33984375 200.609375 C-18.38003833 200.65034472 -20.42001399 200.68727209 -22.46044922 200.71386719 C-36.48338554 200.73750774 -36.48338554 200.73750774 -48.75 206.6875 C-52.7290407 211.75173362 -54.21838777 215.33562598 -54.875 221.8125 C-55.03405223 223.2397068 -55.19422476 224.66678916 -55.35546875 226.09375 C-55.43200684 226.80273438 -55.50854492 227.51171875 -55.58740234 228.2421875 C-57.04301759 241.63005876 -59.10936695 250.52818521 -69.8125 259.3125 C-85.63805806 270.87551935 -105.83919409 272.75080037 -124.8125 270.3125 C-122.21675758 261.85056714 -118.69000227 253.83539121 -115.125 245.75 C-114.81025726 245.03363373 -114.49551453 244.31726746 -114.17123413 243.57919312 C-109.9650627 234.01467793 -105.70642335 224.50715959 -100.83154297 215.26074219 C-99.65959212 213.02016534 -98.51958761 210.76446413 -97.37890625 208.5078125 C-90.94788331 195.8866778 -83.942907 183.6415916 -76.32299805 171.69702148 C-75.38679838 170.21910615 -74.48057771 168.72115046 -73.62426758 167.19555664 C-71.41352618 163.52852941 -69.62945399 161.92852175 -65.49609375 160.66796875 C-63.75244853 160.25660751 -62.0031541 159.86873763 -60.25 159.5 C-27.98124301 151.96126676 -27.98124301 151.96126676 0.1875 135.3125 C0.1875 134.3225 0.1875 133.3325 0.1875 132.3125 C-13.1291504 128.33354904 -29.55804963 132.36302334 -43.00439453 134.03710938 C-45.62999053 134.29460131 -48.17664056 134.363178 -50.8125 134.3125 C-46.92418584 128.39842856 -42.91560724 122.59665435 -38.75 116.875 C-38.18982178 116.1020459 -37.62964355 115.3290918 -37.05249023 114.53271484 C-35.30739724 112.12483265 -33.56023432 109.71846553 -31.8125 107.3125 C-28.03040353 102.10564116 -24.25576846 96.89366473 -20.50244141 91.66601562 C-19.34499854 90.05409 -18.18572753 88.44347594 -17.02490234 86.83398438 C-10.85711257 78.26275258 -4.7822952 69.69005575 0.4375 60.5 C0.79618164 59.87270996 1.15486328 59.24541992 1.52441406 58.59912109 C3.73688525 54.56762802 5.07649872 50.73950001 6.1875 46.3125 C-0.10906452 49.33910952 -5.07624353 53.0561905 -10.16015625 57.8359375 C-12.19497097 59.73589705 -14.25237576 61.54890196 -16.3671875 63.35546875 C-21.56832473 67.88794929 -26.41965889 72.76974365 -31.28540039 77.6550293 C-32.87209946 79.24708966 -34.46407742 80.8337299 -36.05664062 82.41992188 C-41.52007322 87.87978506 -46.79218759 93.43918477 -51.8125 99.3125 C-53.43217817 101.08820221 -55.05661718 102.85958307 -56.6875 104.625 C-69.217295 118.3964864 -80.73917817 133.31925408 -91.45703125 148.5390625 C-92.12798828 149.41691406 -92.12798828 149.41691406 -92.8125 150.3125 C-93.1425 150.3125 -93.4725 150.3125 -93.8125 150.3125 C-93.93254395 149.73508057 -94.05258789 149.15766113 -94.17626953 148.56274414 C-96.29737627 138.48898369 -98.48004181 128.48243153 -101.875 118.75 C-102.10783691 118.06752197 -102.34067383 117.38504395 -102.58056641 116.68188477 C-104.0639311 112.60648676 -105.81183106 109.45355111 -108.8125 106.3125 C-109.8025 105.9825 -110.7925 105.6525 -111.8125 105.3125 C-113.78128041 113.57739265 -113.98335061 121.53707545 -113.78124237 129.984375 C-113.6992061 133.84070758 -113.68577071 137.69764124 -113.66015625 141.5546875 C-113.62489129 146.41066619 -113.57121829 151.26375735 -113.43896484 156.11816406 C-112.86201016 178.30677285 -115.02659116 193.41570549 -127.0900116 212.44714355 C-129.85398577 217.04500975 -131.99092527 221.89838437 -134.125 226.8125 C-134.50418076 227.67016968 -134.88336151 228.52783936 -135.27403259 229.41149902 C-136.57721372 232.3608091 -137.79197481 235.25092444 -138.8125 238.3125 C-139.4725 238.3125 -140.1325 238.3125 -140.8125 238.3125 C-140.92730713 237.59747314 -141.04211426 236.88244629 -141.16040039 236.14575195 C-143.18300817 223.61981211 -145.2493356 211.10743995 -147.6328125 198.64453125 C-147.78743454 197.8358107 -147.94205658 197.02709015 -148.10136414 196.19386292 C-148.85868538 192.2463102 -149.62477676 188.30063874 -150.40063477 184.35668945 C-156.83184971 151.38155232 -158.88243997 117.85452221 -139.5234375 88.6796875 C-131.80266851 77.99752766 -122.52871944 73.93548457 -109.53125 71.7644043 C-105.98239086 71.33314522 -102.63751945 71.22824506 -99.06640625 71.28515625 C-97.81666016 71.29740234 -96.56691406 71.30964844 -95.27929688 71.32226562 C-92.68028206 71.35736988 -90.08131751 71.39642073 -87.48242188 71.43945312 C-75.80406058 71.73647543 -75.80406058 71.73647543 -65.4375 67 C-60.23187195 61.67042842 -60.52864488 56.32328574 -60.375 49.25 C-59.90472023 36.72101672 -58.82992382 25.7963423 -49.8125 16.3125 C-35.18297793 3.93671511 -18.80124628 -0.05078673 0 0 Z " fill="#6D9D48" transform="translate(443.8125,-0.3125)"/>
<path d="M0 0 C1.8125 0.125 1.8125 0.125 4 1 C9.35600185 9.57213535 10.01843608 21.04511033 11.125 30.9375 C11.21571777 31.71915527 11.30643555 32.50081055 11.39990234 33.30615234 C11.8763642 37.93345409 11.99931846 42.40475071 11.81640625 47.0546875 C11.12570456 58.84700877 11.12570456 58.84700877 15.94140625 69.14453125 C19.05706831 72.20407398 22.48346114 74.82432949 25.98535156 77.42431641 C29.18514403 79.92691706 31.89497568 82.81507394 34.625 85.8125 C35.4152356 86.67270752 35.4152356 86.67270752 36.22143555 87.55029297 C51.8617875 104.86887647 64.53922253 124.74573555 76 145 C76.64066406 146.11503906 77.28132812 147.23007813 77.94140625 148.37890625 C97.66224281 183.90934874 121.0147447 232.65299702 120 274 C118.7934375 274.06058594 117.586875 274.12117188 116.34375 274.18359375 C114.72915876 274.26807818 113.11457586 274.35272211 111.5 274.4375 C110.31277344 274.49647461 110.31277344 274.49647461 109.1015625 274.55664062 C104.02614559 274.82705218 99.03624555 275.3127142 94 276 C92.43867842 270.83224548 91.21707617 265.62858592 90.046875 260.359375 C87.13742215 247.29778879 83.75655622 234.44969406 79.81738281 221.66162109 C79.08769669 219.2855643 78.38186595 216.90381 77.6796875 214.51953125 C71.75024058 195.02194239 62.54106385 176.3076951 52.9375 158.375 C52.40181396 157.36808105 51.86612793 156.36116211 51.31420898 155.32373047 C50.80704346 154.39963379 50.29987793 153.47553711 49.77734375 152.5234375 C49.33640381 151.71825684 48.89546387 150.91307617 48.44116211 150.08349609 C45.46748332 145.78443209 41.70762036 144.34204734 36.890625 142.6171875 C35.6727832 142.17673096 34.45494141 141.73627441 33.20019531 141.2824707 C32.55618774 141.05306793 31.91218018 140.82366516 31.24865723 140.58731079 C29.22421112 139.86580898 27.20305509 139.13572168 25.18261719 138.40307617 C22.43510605 137.40710033 19.68673957 136.41355802 16.9375 135.42236328 C4.08907477 130.78564568 -8.74586434 126.13618628 -21.25 120.625 C-21.9831543 120.30313721 -22.71630859 119.98127441 -23.47167969 119.6496582 C-26.95136255 118.0781483 -30.06914134 116.46252557 -33 114 C-32.7890625 112.13671875 -32.7890625 112.13671875 -32 110 C-29.9609375 108.76953125 -29.9609375 108.76953125 -27.375 107.8125 C-26.53710938 107.48894531 -25.69921875 107.16539062 -24.8359375 106.83203125 C-19.1145395 105.15343927 -13.46930185 104.87772074 -7.53515625 104.90234375 C-6.51789711 104.90446617 -6.51789711 104.90446617 -5.48008728 104.90663147 C-3.34084422 104.91217255 -1.20171075 104.92471347 0.9375 104.9375 C2.39908702 104.94252264 3.86067569 104.9470842 5.32226562 104.95117188 C8.88154526 104.96212255 12.44076191 104.97934555 16 105 C11.80329076 100.72116848 7.65080526 96.52949683 2.9375 92.8125 C-1.65803213 89.12330893 -6.1251824 85.31529108 -10.5625 81.4375 C-15.39155315 77.22815731 -20.26369898 73.11066217 -25.29296875 69.140625 C-61.38469326 40.60056002 -61.38469326 40.60056002 -65 34 C-64.66015625 31.78125 -64.66015625 31.78125 -64 30 C-47.62573764 28.85092896 -29.41751421 36.78027066 -15 44 C-14.34 44 -13.68 44 -13 44 C-12.84144531 42.90945312 -12.68289062 41.81890625 -12.51953125 40.6953125 C-7.91748252 10.40583416 -7.91748252 10.40583416 0 0 Z " fill="#88C046" transform="translate(141,58)"/>
<path d="M0 0 C-0.480691 5.44086476 -1.91877905 9.45587988 -4.6875 14.1875 C-5.07905273 14.86893066 -5.47060547 15.55036133 -5.87402344 16.25244141 C-11.3420151 25.54886268 -17.69660408 34.2603011 -24 43 C-25.11071416 44.54684838 -26.22139232 46.09372261 -27.33203125 47.640625 C-29.9986013 51.34680055 -32.67771279 55.04372694 -35.36035156 58.73828125 C-37.07520403 61.10373588 -38.78442388 63.47317307 -40.4921875 65.84375 C-41.35734985 67.04427002 -41.35734985 67.04427002 -42.23999023 68.26904297 C-43.33109158 69.78337174 -44.42178351 71.29799564 -45.51196289 72.81298828 C-48.95305092 77.58405379 -52.45463955 82.30592071 -56 87 C-52.7082943 86.68791032 -49.41664298 86.37525044 -46.125 86.0625 C-45.2071875 85.97548828 -44.289375 85.88847656 -43.34375 85.79882812 C-42.42851562 85.71181641 -41.51328125 85.62480469 -40.5703125 85.53515625 C-39.18090454 85.40355103 -39.18090454 85.40355103 -37.76342773 85.26928711 C-35.95744482 85.09329991 -34.15219739 84.90954587 -32.34790039 84.71704102 C-27.27356166 84.17736218 -22.29162897 83.83922319 -17.1875 83.8125 C-15.94355469 83.79832031 -14.69960938 83.78414063 -13.41796875 83.76953125 C-10.14469603 83.99024335 -7.9327587 84.58668962 -5 86 C-5.32368857 88.8973495 -5.80777232 89.83882118 -8.07983398 91.74389648 C-14.84883086 95.93538144 -21.63326332 99.21587548 -29.0625 102.0625 C-30.15232178 102.48805176 -31.24214355 102.91360352 -32.36499023 103.35205078 C-38.72280163 105.810336 -45.1076339 108.18353753 -51.5625 110.375 C-52.27817139 110.62169434 -52.99384277 110.86838867 -53.73120117 111.12255859 C-57.23853012 112.28105341 -60.56743368 113.13956679 -64.23828125 113.58203125 C-70.56645464 114.42840408 -75.14211636 115.43501706 -79.20703125 120.6640625 C-81.92663011 124.68172163 -84.2439758 128.89563098 -86.50390625 133.18505859 C-88.04544449 136.08550505 -89.665037 138.92803981 -91.3125 141.76953125 C-94.1156843 146.61460121 -96.85220225 151.49254413 -99.55712891 156.39306641 C-100.78857057 158.61799603 -102.03721291 160.83173426 -103.29296875 163.04296875 C-111.35773337 177.49896116 -117.65897109 192.92472633 -124.18969727 208.11676025 C-124.94249578 209.86635336 -125.70052525 211.6136932 -126.45898438 213.36083984 C-128.71398201 218.63682646 -130.62075079 223.84793985 -132.19042969 229.36376953 C-133.86789712 234.82616198 -136.05470049 240.11469452 -138.125 245.4375 C-142.50666782 256.78659253 -146.51877178 268.20848003 -150.27001953 279.78295898 C-150.61661621 280.84973877 -150.96321289 281.91651855 -151.3203125 283.015625 C-151.77301514 284.42763184 -151.77301514 284.42763184 -152.23486328 285.86816406 C-153 288 -153 288 -154 289 C-163.01938416 288.79136656 -172.07717807 287.25553369 -181 286 C-179.77659962 279.94833637 -178.18242667 274.17507082 -176.12890625 268.35546875 C-175.71167297 267.1560817 -175.71167297 267.1560817 -175.28601074 265.9324646 C-174.38433861 263.34860142 -173.47416019 260.76785461 -172.5625 258.1875 C-172.25142303 257.30238739 -171.94034607 256.41727478 -171.61984253 255.50534058 C-166.11330791 239.85092576 -160.26407498 224.36865514 -154 209 C-153.62166016 208.06978027 -153.24332031 207.13956055 -152.85351562 206.18115234 C-150.92343328 201.44517382 -148.97463971 196.71756928 -147 192 C-146.34 192 -145.68 192 -145 192 C-144.87866699 191.278125 -144.75733398 190.55625 -144.63232422 189.8125 C-143.53233312 184.9198755 -141.22417975 180.53469217 -139.125 176 C-138.69703125 175.05382812 -138.2690625 174.10765625 -137.828125 173.1328125 C-137.14363281 171.64394531 -137.14363281 171.64394531 -136.4453125 170.125 C-135.94153076 169.01415039 -135.43774902 167.90330078 -134.91870117 166.75878906 C-133.55689616 163.93078454 -131.9599643 161.39351689 -130.20043945 158.79589844 C-119.70340789 142.54840994 -120.55462524 126.35834604 -120.89770508 107.70617676 C-120.97747596 102.78264925 -120.98753462 97.85856125 -121.00055027 92.93447495 C-121.01083 89.10843839 -121.03306256 85.28410869 -121.09690857 81.45855713 C-121.30958023 65.61916046 -121.30958023 65.61916046 -118 59 C-114.65766297 59.60769764 -114.02548781 59.97255159 -111.5625 62.625 C-104.00069341 74.09489623 -101.96026146 89.82445689 -99 103 C-98.62302979 102.48203857 -98.24605957 101.96407715 -97.85766602 101.43041992 C-90.80093607 91.75037828 -83.74299143 82.14580692 -76 73 C-75.13096145 71.95748863 -74.26250152 70.91449472 -73.39453125 69.87109375 C-67.62920675 62.96767389 -61.67221947 56.28226871 -55.55029297 49.69360352 C-54.38218246 48.41751177 -53.22714577 47.12943422 -52.07861328 45.83569336 C-46.46641457 39.51897386 -40.64462096 33.4583734 -34.67138672 27.48608398 C-33.1282647 25.94076934 -31.59335694 24.38759554 -30.05859375 22.83398438 C-23.69312922 16.43287944 -17.12822289 10.55722423 -10 5 C-9.29891113 4.45327637 -8.59782227 3.90655273 -7.87548828 3.34326172 C-3.41509639 0 -3.41509639 0 0 0 Z " fill="#ACD384" transform="translate(450,46)"/>
<path d="M0 0 C1.41389511 -0.01423004 1.41389511 -0.01423004 2.85635376 -0.02874756 C4.38840958 -0.03530365 4.38840958 -0.03530365 5.95141602 -0.04199219 C7.02338226 -0.04877991 8.09534851 -0.05556763 9.19979858 -0.06256104 C12.70166891 -0.07962996 16.20341293 -0.08577202 19.70532227 -0.08886719 C20.89056488 -0.09120361 22.0758075 -0.09354004 23.29696655 -0.09594727 C44.08469848 -0.11141891 64.60482828 0.93433839 85.26782227 3.16113281 C81.74866668 12.27954315 73.11073276 23.73967757 64.26782227 28.16113281 C48.10634825 29.63020152 33.29287922 28.25151031 18.26782227 22.16113281 C17.11733398 21.69562012 17.11733398 21.69562012 15.94360352 21.22070312 C6.51126277 17.29323017 -1.7771914 12.6213377 -9.73217773 6.16113281 C-9.40217773 4.51113281 -9.07217773 2.86113281 -8.73217773 1.16113281 C-5.75754692 0.30599537 -3.09109631 0.0257059 0 0 Z " fill="#6D9D48" transform="translate(288.732177734375,458.8388671875)"/>
<path d="M0 0 C2.85879514 1.18408841 4.87082437 2.67920574 7.2421875 4.66796875 C8.10328125 5.38339844 8.964375 6.09882813 9.8515625 6.8359375 C10.68171875 7.54363281 11.511875 8.25132812 12.3671875 8.98046875 C13.09421875 9.59535156 13.82125 10.21023438 14.5703125 10.84375 C16.1777879 12.21271787 17.77390621 13.59500676 19.3671875 14.98046875 C16.87030405 21.51516942 9.54103079 24.08004739 3.52587891 26.81884766 C-14.93686858 34.69736823 -41.52767889 40.53721282 -61.25 34.95703125 C-62.03632813 34.63476562 -62.82265625 34.3125 -63.6328125 33.98046875 C-63.6328125 32.66046875 -63.6328125 31.34046875 -63.6328125 29.98046875 C-52.60208619 20.65804076 -36.38668369 15.60521115 -23.17358398 9.93408203 C-21.07908331 9.03366933 -18.98675849 8.12833631 -16.89453125 7.22265625 C-16.26834396 6.95589081 -15.64215668 6.68912537 -14.99699402 6.41427612 C-11.82309513 5.03884464 -8.81425708 3.53854459 -5.84350586 1.77661133 C-2.6328125 -0.01953125 -2.6328125 -0.01953125 0 0 Z " fill="#6E9D48" transform="translate(336.6328125,353.01953125)"/>
<path d="M0 0 C1.093125 0.556875 2.18625 1.11375 3.3125 1.6875 C4.87357047 2.46122428 6.43619599 3.23181558 8 4 C9.19689453 4.59554688 9.19689453 4.59554688 10.41796875 5.203125 C18.35517259 8.99761276 26.59616713 11.49512587 35 14 C43.79528735 16.64163257 52.52811286 19.4394476 61.1875 22.5 C61.98969971 22.77247559 62.79189941 23.04495117 63.6184082 23.32568359 C68.56803427 25.11341349 71.57117542 26.98710711 75 31 C68.10460557 34.94918045 61.00518879 34.46341697 53.25 34.375 C52.54835724 34.37101196 51.84671448 34.36702393 51.12380981 34.36291504 C31.88959053 34.23542967 12.37704399 33.06411669 -6 27 C-5.09108471 17.46834886 -3.87172827 8.87114439 0 0 Z " fill="#6E9D48" transform="translate(151,392)"/>
<path d="M0 0 C0.66 0.33 1.32 0.66 2 1 C-4.6 7.6 -11.2 14.2 -18 21 C-18 16.81116298 -15.67400903 15.0691572 -12.9375 12.1875 C-12.43887451 11.65286133 -11.94024902 11.11822266 -11.42651367 10.56738281 C-7.83096005 6.75766304 -4.0942029 3.27536232 0 0 Z " fill="#A5BA76" transform="translate(179,356)"/>
</svg>
