<?xml version="1.0" encoding="UTF-8"?>
<svg version="1.1" xmlns="http://www.w3.org/2000/svg" width="512" height="512">
<path d="M0 0 C3.55005694 2.7611554 4.17566685 6.41026386 5.3671875 10.6328125 C5.78786499 12.03720581 5.78786499 12.03720581 6.21704102 13.4699707 C7.22706973 16.87218685 8.20260906 20.28348887 9.1796875 23.6953125 C9.8363066 25.94858777 10.49581256 28.20100856 11.15519714 30.45347595 C12.31682131 34.42771862 13.46819034 38.40490332 14.6171875 42.3828125 C14.84441498 43.16832489 15.07164246 43.95383728 15.30575562 44.76315308 C15.95462915 47.01396716 16.59749933 49.26640192 17.23828125 51.51953125 C17.43480286 52.19989441 17.63132446 52.88025757 17.83380127 53.58123779 C18.62774887 56.39426309 19.1796875 58.75475603 19.1796875 61.6953125 C20.29601562 61.80746094 21.41234375 61.91960937 22.5625 62.03515625 C37.8279358 63.96261027 52.48037219 69.93714101 66.1796875 76.6953125 C67.36739746 77.27587402 67.36739746 77.27587402 68.57910156 77.86816406 C79.50413332 83.25889061 89.55145042 89.2307242 99.1796875 96.6953125 C100.11941406 97.42363281 101.05914062 98.15195313 102.02734375 98.90234375 C112.18390161 107.01297629 121.74266432 115.77113405 130.30078125 125.55859375 C132.49503976 128.05393555 134.79294036 130.3855572 137.1796875 132.6953125 C137.62957031 132.11265625 138.07945312 131.53 138.54296875 130.9296875 C148.84628515 117.79760487 160.23513591 105.47208523 173.27734375 95.02734375 C175.83867708 92.96931414 178.36035952 90.87526543 180.87158203 88.75708008 C193.63546879 78.01117542 193.63546879 78.01117542 197.9296875 77.1328125 C200.98829083 77.89746333 201.524622 79.03999021 203.1796875 81.6953125 C204.11523437 84.57006836 204.11523437 84.57006836 204.8984375 87.91015625 C205.18968506 89.14491699 205.48093262 90.37967773 205.78100586 91.65185547 C206.08138966 92.97865503 206.3809347 94.30564474 206.6796875 95.6328125 C206.83309601 96.29927795 206.98650452 96.96574341 207.14456177 97.65240479 C209.81067796 109.25104685 211.80941048 120.87177937 213.1796875 132.6953125 C213.83227539 132.55432129 214.48486328 132.41333008 215.15722656 132.26806641 C235.3870828 127.94220748 254.63372676 125.55106882 275.3046875 125.3828125 C276.02834503 125.37309418 276.75200256 125.36337585 277.49758911 125.35336304 C279.56122982 125.32978948 281.62375184 125.32744857 283.6875 125.33203125 C285.49178467 125.32755981 285.49178467 125.32755981 287.33251953 125.32299805 C288.74186768 125.5072937 288.74186768 125.5072937 290.1796875 125.6953125 C292.1796875 128.6953125 292.1796875 128.6953125 292.078125 131.22265625 C290.80892365 136.12839537 288.84838871 140.62885052 286.8046875 145.2578125 C286.36133057 146.26706787 285.91797363 147.27632324 285.46118164 148.31616211 C274.07398984 173.86309671 260.14253557 197.8350012 240.1796875 217.6953125 C240.8094751 217.70989502 241.4392627 217.72447754 242.08813477 217.73950195 C244.97340071 217.81450244 247.85757473 217.91098889 250.7421875 218.0078125 C252.2281543 218.04165039 252.2281543 218.04165039 253.74414062 218.07617188 C260.27753088 218.31493365 265.77463204 218.76360556 270.921875 223.1953125 C275.82508837 229.68784331 275.73973367 235.3561722 274.73046875 243.17578125 C274.24170312 246.35449107 273.72824463 249.5264155 273.1796875 252.6953125 C274.19289063 252.73269531 275.20609375 252.77007812 276.25 252.80859375 C277.60159689 252.87429638 278.95315779 252.94074221 280.3046875 253.0078125 C281.30242187 253.04165039 281.30242187 253.04165039 282.3203125 253.07617188 C286.94048499 253.32529882 290.2552212 254.24397673 294.1796875 256.6953125 C296.59448127 260.31750316 296.52536112 263.0035883 296.4921875 267.1953125 C296.48372803 268.3232019 296.48372803 268.3232019 296.47509766 269.47387695 C295.44001061 319.13243415 268.95510017 365.19741436 234.49609375 399.35546875 C223.54010361 409.62772697 211.17061708 418.20351601 198.1796875 425.6953125 C197.04402344 426.35144531 195.90835937 427.00757813 194.73828125 427.68359375 C152.65241838 451.36551577 102.04055542 456.989143 55.1796875 446.6953125 C52.54621616 445.91425213 49.96844455 445.0195409 47.3671875 444.1328125 C39.53727254 441.88323782 33.65088454 443.92848379 26.12109375 446.24609375 C-18.57719124 459.92131466 -71.99586776 449.88609215 -112.69140625 428.7265625 C-138.62464878 414.36172441 -162.90448108 394.1601033 -179.8203125 369.6953125 C-180.53832031 368.67179687 -181.25632813 367.64828125 -181.99609375 366.59375 C-197.94636513 342.85249349 -208.73992131 316.8296418 -213.8203125 288.6953125 C-214.00577637 287.67542236 -214.19124023 286.65553223 -214.38232422 285.60473633 C-216.0251445 275.52432658 -216.21908059 265.56864148 -216.1953125 255.3828125 C-216.19476868 254.50402435 -216.19422485 253.62523621 -216.19366455 252.71981812 C-216.15213033 238.07668069 -215.1812038 223.99648443 -211.8203125 209.6953125 C-211.61132324 208.79409668 -211.40233398 207.89288086 -211.18701172 206.96435547 C-202.67560047 171.57346122 -183.79236354 140.80569065 -158.8203125 114.6953125 C-158.18351562 114.01726562 -157.54671875 113.33921875 -156.890625 112.640625 C-119.55350054 73.87432831 -67.89963505 59.39987517 -15.8203125 56.6953125 C-16.18382812 55.45966553 -16.54734375 54.22401855 -16.921875 52.95092773 C-18.27315646 48.34852177 -19.61203228 43.74258293 -20.94726562 39.13549805 C-21.52593783 37.1452605 -22.10793156 35.15598548 -22.69335938 33.16772461 C-23.5361878 30.30311132 -24.36685403 27.4352037 -25.1953125 24.56640625 C-25.45779785 23.68383652 -25.7202832 22.80126678 -25.99072266 21.89195251 C-27.39453495 16.98169888 -28.11095259 12.80270663 -27.8203125 7.6953125 C-22.30488748 5.58262427 -16.77692907 3.62295568 -11.1328125 1.8828125 C-10.39998047 1.64111328 -9.66714844 1.39941406 -8.91210938 1.15039062 C-5.71960157 0.17450231 -3.343258 -0.361183 0 0 Z " fill="#B47E5E" transform="translate(215.8203125,30.3046875)"/>
<path d="M0 0 C1.33804688 -0.0309375 1.33804688 -0.0309375 2.703125 -0.0625 C3.55390625 -0.06765625 4.4046875 -0.0728125 5.28125 -0.078125 C6.04501953 -0.0874707 6.80878906 -0.09681641 7.59570312 -0.10644531 C8.22412109 0.01118164 8.85253906 0.12880859 9.5 0.25 C11.52672417 3.29008626 12.23647671 5.43893922 13.1875 8.9375 C13.53425781 10.18789062 13.88101563 11.43828125 14.23828125 12.7265625 C14.533396 13.79245605 14.533396 13.79245605 14.83447266 14.87988281 C16.14176377 19.53548886 17.5146342 24.17218624 18.875 28.8125 C21.1084141 36.45131153 23.32124286 44.09542198 25.5 51.75 C28.77915368 63.26585414 32.13924603 74.75774574 35.5 86.25 C42.30074996 109.51930288 42.30074996 109.51930288 45.40234375 120.421875 C46.94035024 125.78574106 48.5008467 131.14297726 50.0625 136.5 C50.35576172 137.50675781 50.64902344 138.51351562 50.95117188 139.55078125 C51.23669922 140.52917969 51.52222656 141.50757813 51.81640625 142.515625 C52.09500488 143.47275391 52.37360352 144.42988281 52.66064453 145.41601562 C53.21996843 147.30450655 53.79388396 149.18873727 54.38232422 151.06835938 C54.65705566 151.94814453 54.93178711 152.82792969 55.21484375 153.734375 C55.46226318 154.51006836 55.70968262 155.28576172 55.96459961 156.08496094 C56.5 158.25 56.5 158.25 56.5 162.25 C55.30032089 162.24920441 54.10064178 162.24840881 52.86460876 162.24758911 C41.54987158 162.2439843 30.23558832 162.27180865 18.92099667 162.3302784 C13.10420487 162.3593308 7.28781608 162.37737065 1.47094727 162.37011719 C-4.14442369 162.36352224 -9.75899843 162.38601944 -15.37420464 162.42855453 C-17.51473595 162.43968265 -19.65534804 162.44038861 -21.79588509 162.43042374 C-24.79847784 162.4182391 -27.79864477 162.44335437 -30.80102539 162.47705078 C-32.12380745 162.45871941 -32.12380745 162.45871941 -33.47331238 162.4400177 C-39.15190129 162.55459502 -42.09666058 163.83237816 -46.21207333 167.7693615 C-50.30600029 172.47586073 -48.73943947 180.32153311 -48.5 186.25 C-48.09588554 191.62650809 -47.49254009 196.96567304 -46.8125 202.3125 C-46.72319214 203.02822174 -46.63388428 203.74394348 -46.54187012 204.48135376 C-40.72365133 250.64473106 -22.59601337 290.55154249 9.5 324.25 C10.26441406 325.07886719 11.02882812 325.90773438 11.81640625 326.76171875 C38.26587043 354.55379532 76.22551791 372.26230417 113.5 379.25 C114.75901123 379.49556641 114.75901123 379.49556641 116.04345703 379.74609375 C144.48034087 385.14035273 173.47381523 383.07084861 201.17919922 375.14404297 C202.09330566 374.88510254 203.00741211 374.62616211 203.94921875 374.359375 C204.75705811 374.12186523 205.56489746 373.88435547 206.3972168 373.63964844 C208.5 373.25 208.5 373.25 211.5 374.25 C170.09708553 392.51735532 119.61084974 402.94558873 75.328125 387.921875 C65.732962 384.66857939 59.80962253 385.91731849 50.44140625 388.80078125 C5.74312126 402.47600216 -47.67555526 392.44077965 -88.37109375 371.28125 C-114.30433628 356.91641191 -138.58416858 336.7147908 -155.5 312.25 C-156.21800781 311.22648437 -156.93601563 310.20296875 -157.67578125 309.1484375 C-173.62605263 285.40718099 -184.41960881 259.3843293 -189.5 231.25 C-189.68546387 230.23010986 -189.87092773 229.21021973 -190.06201172 228.15942383 C-191.704832 218.07901408 -191.89876809 208.12332898 -191.875 197.9375 C-191.87445618 197.05871185 -191.87391235 196.17992371 -191.87335205 195.27450562 C-191.83181783 180.63136819 -190.8608913 166.55117193 -187.5 152.25 C-187.29101074 151.34878418 -187.08202148 150.44756836 -186.86669922 149.51904297 C-178.35528797 114.12814872 -159.47205104 83.36037815 -134.5 57.25 C-133.54480469 56.23292969 -133.54480469 56.23292969 -132.5703125 55.1953125 C-98.92450868 20.26163102 -48.08347942 0.28792503 0 0 Z " fill="#B57F5F" transform="translate(191.5,87.75)"/>
<path d="M0 0 C3.55005694 2.7611554 4.17566685 6.41026386 5.3671875 10.6328125 C5.64763916 11.56907471 5.92809082 12.50533691 6.21704102 13.4699707 C7.22706973 16.87218685 8.20260906 20.28348887 9.1796875 23.6953125 C9.8363066 25.94858777 10.49581256 28.20100856 11.15519714 30.45347595 C12.31682131 34.42771862 13.46819034 38.40490332 14.6171875 42.3828125 C14.84441498 43.16832489 15.07164246 43.95383728 15.30575562 44.76315308 C15.95462915 47.01396716 16.59749933 49.26640192 17.23828125 51.51953125 C17.43480286 52.19989441 17.63132446 52.88025757 17.83380127 53.58123779 C18.62774887 56.39426309 19.1796875 58.75475603 19.1796875 61.6953125 C20.29601562 61.80746094 21.41234375 61.91960937 22.5625 62.03515625 C37.8279358 63.96261027 52.48037219 69.93714101 66.1796875 76.6953125 C67.36739746 77.27587402 67.36739746 77.27587402 68.57910156 77.86816406 C79.50413332 83.25889061 89.55145042 89.2307242 99.1796875 96.6953125 C100.58927734 97.78779297 100.58927734 97.78779297 102.02734375 98.90234375 C112.18390161 107.01297629 121.74266432 115.77113405 130.30078125 125.55859375 C132.49503976 128.05393555 134.79294036 130.3855572 137.1796875 132.6953125 C137.62957031 132.11265625 138.07945312 131.53 138.54296875 130.9296875 C148.84628515 117.79760487 160.23513591 105.47208523 173.27734375 95.02734375 C175.83867708 92.96931414 178.36035952 90.87526543 180.87158203 88.75708008 C193.63546879 78.01117542 193.63546879 78.01117542 197.9296875 77.1328125 C200.98829083 77.89746333 201.524622 79.03999021 203.1796875 81.6953125 C204.11523438 84.57006836 204.11523438 84.57006836 204.8984375 87.91015625 C205.18968506 89.14491699 205.48093262 90.37967773 205.78100586 91.65185547 C206.08138966 92.97865503 206.3809347 94.30564474 206.6796875 95.6328125 C206.83309601 96.29927795 206.98650452 96.96574341 207.14456177 97.65240479 C209.81067796 109.25104685 211.80941048 120.87177937 213.1796875 132.6953125 C213.83227539 132.55432129 214.48486328 132.41333008 215.15722656 132.26806641 C235.3870828 127.94220748 254.63372676 125.55106882 275.3046875 125.3828125 C276.02834503 125.37309418 276.75200256 125.36337585 277.49758911 125.35336304 C279.56122982 125.32978948 281.62375184 125.32744857 283.6875 125.33203125 C285.49178467 125.32755981 285.49178467 125.32755981 287.33251953 125.32299805 C288.74186768 125.5072937 288.74186768 125.5072937 290.1796875 125.6953125 C292.1796875 128.6953125 292.1796875 128.6953125 292.078125 131.22265625 C290.80892365 136.12839537 288.84838871 140.62885052 286.8046875 145.2578125 C286.36133057 146.26706787 285.91797363 147.27632324 285.46118164 148.31616211 C274.07398984 173.86309671 260.14253557 197.8350012 240.1796875 217.6953125 C240.8094751 217.70989502 241.4392627 217.72447754 242.08813477 217.73950195 C244.97340071 217.81450244 247.85757473 217.91098889 250.7421875 218.0078125 C252.2281543 218.04165039 252.2281543 218.04165039 253.74414062 218.07617188 C260.27753088 218.31493365 265.77463204 218.76360556 270.921875 223.1953125 C275.81324631 229.67216278 275.71298399 235.30316307 274.765625 243.10546875 C273.41128199 252.23212352 273.41128199 252.23212352 272.1796875 254.6953125 C271.22884277 254.59935791 271.22884277 254.59935791 270.25878906 254.50146484 C258.10358372 253.24118313 258.10358372 253.24118313 247.07373047 257.26757812 C243.39594725 261.43717592 240.91517026 266.28914649 238.45166016 271.24316406 C236.45217951 275.09782503 234.01013684 278.62092983 231.5546875 282.1953125 C230.74967758 283.41384956 229.94496241 284.63258143 229.140625 285.8515625 C227.1796875 288.6953125 227.1796875 288.6953125 225.1796875 290.6953125 C222.7590332 290.60083008 222.7590332 290.60083008 220.1796875 289.6953125 C218.45385742 287.75268555 218.45385742 287.75268555 216.91015625 285.20703125 C216.33072266 284.27181641 215.75128906 283.33660156 215.15429688 282.37304688 C214.56455078 281.38626953 213.97480469 280.39949219 213.3671875 279.3828125 C211.62258511 276.53348976 209.87737214 273.69068851 208.06878662 270.88143921 C206.1796875 267.6953125 206.1796875 267.6953125 204.96014404 264.55154419 C203.26042408 260.84574546 201.61100795 257.93683355 198.1796875 255.6953125 C190.1341783 253.22941964 181.22236895 253.88356636 172.90234375 253.92578125 C170.37289549 253.90496735 167.84346894 253.8813451 165.31407166 253.85505676 C160.0047945 253.8148087 154.69801594 253.8196045 149.38891602 253.85620117 C143.98580041 253.89247787 138.58898403 253.85789694 133.18676758 253.75366211 C94.20704312 251.67081786 94.20704312 251.67081786 61.15795898 269.13793945 C60.51793442 269.8438472 59.87790985 270.54975494 59.2184906 271.27705383 C57.1796875 272.6953125 57.1796875 272.6953125 54.09169006 272.51554871 C50.75494951 271.57567474 48.78076936 270.26282448 46.0546875 268.1328125 C44.71754067 267.09766924 43.37564418 266.06777004 42.00466919 265.0778656 C40.1796875 263.6953125 40.1796875 263.6953125 38.03610229 261.73670959 C28.00372462 253.5818692 17.50052432 254.57751401 5.1328125 254.6953125 C2.90792425 254.68778387 0.68304538 254.67674104 -1.54180908 254.66235352 C-7.36175235 254.63405889 -13.18058815 254.65311847 -19.00048828 254.68243408 C-24.95352205 254.70391011 -30.90636122 254.68005935 -36.859375 254.66015625 C-48.51326995 254.62780618 -60.16649892 254.64554015 -71.8203125 254.6953125 C-72.14726833 252.94798019 -72.47163555 251.20016339 -72.79492188 249.45214844 C-72.97583374 248.47888611 -73.15674561 247.50562378 -73.34313965 246.50286865 C-74.44624441 240.01249821 -75.63553256 232.27421641 -72.58203125 226.25390625 C-70.0803395 223.28043144 -66.92655075 219.97043366 -62.93628407 219.44921684 C-62.22373809 219.45106043 -61.51119211 219.45290401 -60.77705383 219.45480347 C-59.9567569 219.45205414 -59.13645996 219.44930481 -58.29130554 219.44647217 C-56.94695183 219.457258 -56.94695183 219.457258 -55.57543945 219.46826172 C-54.15563782 219.46782364 -54.15563782 219.46782364 -52.70715332 219.46737671 C-49.57420732 219.46877159 -46.44149827 219.48434033 -43.30859375 219.5 C-41.13811879 219.50372956 -38.96764216 219.5065768 -36.79716492 219.50857544 C-31.08099733 219.51621633 -25.36493118 219.53586879 -19.64880371 219.5579834 C-13.81731539 219.57843197 -7.9858107 219.58757504 -2.15429688 219.59765625 C9.29040918 219.61911421 20.73503991 219.6532557 32.1796875 219.6953125 C31.08739826 215.93186614 29.99307952 212.16901264 28.8984375 208.40625 C28.59389648 207.35687256 28.28935547 206.30749512 27.97558594 205.22631836 C25.9409902 198.23710521 23.83558766 191.27297094 21.6796875 184.3203125 C18.77758582 174.88020489 16.15069462 165.38269924 13.6640625 155.82470703 C12.32668308 150.73281256 10.89032193 145.72225756 9.19140625 140.73828125 C6.68967507 133.39255585 4.77658981 125.91262639 2.82421875 118.40625 C1.14545987 112.04063942 -0.74541412 105.8105627 -2.86962891 99.58007812 C-4.35143004 95.08368312 -5.55331105 90.52225177 -6.7578125 85.9453125 C-9.00228406 77.57891444 -11.43486774 69.3160743 -14.06933594 61.06347656 C-18.12987123 48.25879764 -22.11173423 35.41926066 -25.8203125 22.5078125 C-26.02785156 21.80865723 -26.23539063 21.10950195 -26.44921875 20.38916016 C-27.66584278 16.06184967 -28.00645364 12.18015049 -27.8203125 7.6953125 C-22.30488748 5.58262427 -16.77692907 3.62295568 -11.1328125 1.8828125 C-10.39998047 1.64111328 -9.66714844 1.39941406 -8.91210938 1.15039062 C-5.71960157 0.17450231 -3.343258 -0.361183 0 0 Z " fill="#B6E445" transform="translate(215.8203125,30.3046875)"/>
<path d="M0 0 C0.99 0.495 0.99 0.495 2 1 C1.41734375 1.70640625 0.8346875 2.4128125 0.234375 3.140625 C-24.42568746 34.00447675 -41.86208068 74.25366882 -42.23828125 114.16015625 C-42.24812042 115.01899918 -42.25795959 115.8778421 -42.26809692 116.76271057 C-42.51384078 143.61447568 -42.51384078 143.61447568 -38 170 C-37.75330566 170.9801709 -37.50661133 171.9603418 -37.25244141 172.97021484 C-33.76229566 186.59013905 -29.24105564 199.40716971 -23 212 C-22.65743164 212.70672852 -22.31486328 213.41345703 -21.96191406 214.14160156 C0.3871847 259.94371544 41.02895291 294.0302352 88.6484375 311.28833008 C112.66088475 319.55048692 135.84083997 321.85844903 161 321 C160.06542969 320.51273437 159.13085938 320.02546875 158.16796875 319.5234375 C140.09428862 309.86578146 124.43081818 297.49789927 110 283 C109.08992187 282.08992188 108.17984375 281.17984375 107.2421875 280.2421875 C76.6642449 248.09110316 56.36599764 201.32585621 55.63671875 156.83984375 C56.06184393 153.51655335 57.01618705 151.68070275 59 149 C62.10085571 146.93276286 62.72931681 146.75502577 66.23046875 146.8046875 C67.43413086 146.81435547 67.43413086 146.81435547 68.66210938 146.82421875 C69.91217773 146.84935547 69.91217773 146.84935547 71.1875 146.875 C72.03248047 146.88402344 72.87746094 146.89304687 73.74804688 146.90234375 C75.83215243 146.92589297 77.91611217 146.96176353 80 147 C80.10022461 147.72888428 80.20044922 148.45776855 80.30371094 149.20874023 C87.01414115 197.50938218 103.038563 238.34298465 137 274 C137.76441406 274.82886719 138.52882812 275.65773438 139.31640625 276.51171875 C165.76587043 304.30379532 203.72551791 322.01230417 241 329 C242.25901123 329.24556641 242.25901123 329.24556641 243.54345703 329.49609375 C271.98034087 334.89035273 300.97381523 332.82084861 328.67919922 324.89404297 C329.59330566 324.63510254 330.50741211 324.37616211 331.44921875 324.109375 C332.25705811 323.87186523 333.06489746 323.63435547 333.8972168 323.38964844 C336 323 336 323 339 324 C297.59708553 342.26735532 247.11084974 352.69558873 202.828125 337.671875 C193.232962 334.41857939 187.30962253 335.66731849 177.94140625 338.55078125 C133.24312126 352.22600216 79.82444474 342.19077965 39.12890625 321.03125 C13.19566372 306.66641191 -11.08416858 286.4647908 -28 262 C-28.71800781 260.97648437 -29.43601563 259.95296875 -30.17578125 258.8984375 C-46.12605263 235.15718099 -56.91960881 209.1343293 -62 181 C-62.18546387 179.98010986 -62.37092773 178.96021973 -62.56201172 177.90942383 C-64.204832 167.82901408 -64.39876809 157.87332898 -64.375 147.6875 C-64.37445618 146.80871185 -64.37391235 145.92992371 -64.37335205 145.02450562 C-64.33181783 130.38136819 -63.3608913 116.30117193 -60 102 C-59.79101074 101.09878418 -59.58202148 100.19756836 -59.36669922 99.26904297 C-50.02761604 60.43664544 -28.27514403 27.63252712 0 0 Z " fill="#9F6E50" transform="translate(64,138)"/>
<path d="M0 0 C1.0984472 -0.01366242 2.1968944 -0.02732484 3.32862788 -0.04140127 C5.36308649 -0.06758386 7.397447 -0.10535492 9.43140239 -0.15763152 C15.71156365 -0.22274597 20.81842272 0.34737258 25.76825523 4.60911179 C30.65962654 11.08596207 30.55936423 16.71696236 29.61200523 24.51926804 C28.25766222 33.64592281 28.25766222 33.64592281 27.02606773 36.10911179 C26.39217125 36.04514206 25.75827477 35.98117233 25.1051693 35.91526413 C12.94996395 34.65498241 12.94996395 34.65498241 1.9201107 38.68137741 C-1.75767251 42.8509752 -4.23844951 47.70294577 -6.70195961 52.65696335 C-8.70144026 56.51162431 -11.14348293 60.03472912 -13.59893227 63.60911179 C-14.40394219 64.82764884 -15.20865735 66.04638071 -16.01299477 67.26536179 C-17.97393227 70.10911179 -17.97393227 70.10911179 -19.97393227 72.10911179 C-22.39458656 72.01462936 -22.39458656 72.01462936 -24.97393227 71.10911179 C-26.69976234 69.16648483 -26.69976234 69.16648483 -28.24346352 66.62083054 C-28.82289711 65.68561569 -29.4023307 64.75040085 -29.99932289 63.78684616 C-30.58906898 62.80006882 -31.17881508 61.81329147 -31.78643227 60.79661179 C-33.53103466 57.94728904 -35.27624762 55.1044878 -37.08483315 52.29523849 C-38.97393227 49.10911179 -38.97393227 49.10911179 -40.19347572 45.96534348 C-41.89319569 42.25954474 -43.54261182 39.35063284 -46.97393227 37.10911179 C-55.01944146 34.64321893 -63.93125082 35.29736565 -72.25127602 35.33958054 C-74.78072427 35.31876664 -77.31015083 35.29514438 -79.83954811 35.26885605 C-85.14882527 35.22860799 -90.45560383 35.23340379 -95.76470375 35.27000046 C-101.16781936 35.30627716 -106.56463574 35.27169623 -111.96685219 35.1674614 C-150.94657665 33.08461714 -150.94657665 33.08461714 -183.99566078 50.55173874 C-184.95569763 51.61060036 -184.95569763 51.61060036 -185.93512917 52.69085312 C-187.97393227 54.10911179 -187.97393227 54.10911179 -191.0619297 53.92934799 C-194.39867025 52.98947402 -196.3728504 51.67662376 -199.09893227 49.54661179 C-200.43607909 48.51146853 -201.77797559 47.48156932 -203.14895058 46.49166489 C-204.97393227 45.10911179 -204.97393227 45.10911179 -207.11751747 43.15050888 C-217.14989514 34.99566849 -227.65309545 35.9913133 -240.02080727 36.10911179 C-242.24569551 36.10158316 -244.47057438 36.09054032 -246.69542885 36.0761528 C-252.51537211 36.04785818 -258.33420791 36.06691775 -264.15410805 36.09623337 C-270.10714182 36.1177094 -276.05998098 36.09385864 -282.01299477 36.07395554 C-293.66688972 36.04160546 -305.32011868 36.05933943 -316.97393227 36.10911179 C-317.3008881 34.36177948 -317.62525532 32.61396267 -317.94854164 30.86594772 C-318.12945351 29.89268539 -318.31036537 28.91942307 -318.49675941 27.91666794 C-319.59986418 21.42629749 -320.78915233 13.68801569 -317.73565102 7.66770554 C-315.07241779 4.50222486 -311.93670203 1.32771749 -307.68610793 0.85430276 C-306.77981476 0.85202444 -305.87352158 0.84974612 -304.93976498 0.84739876 C-303.89312374 0.83993327 -302.84648251 0.83246777 -301.76812488 0.82477605 C-300.61427694 0.82671079 -299.46042901 0.82864552 -298.27161598 0.83063889 C-296.43719689 0.82195028 -296.43719689 0.82195028 -294.56571883 0.81308615 C-291.16409433 0.79898843 -287.76266626 0.79385314 -284.36102664 0.79243755 C-280.69389538 0.78874979 -277.02680971 0.7735955 -273.35970497 0.75982285 C-266.99845608 0.73751285 -260.63722335 0.72252057 -254.27594376 0.71245575 C-245.05243102 0.69785508 -235.82897403 0.67230785 -226.60549399 0.64412446 C-211.60714647 0.59859899 -196.60879085 0.56202139 -181.61040688 0.53098679 C-167.09867318 0.50094085 -152.58696009 0.46662231 -138.07525063 0.4264946 C-137.18454881 0.42403305 -136.293847 0.4215715 -135.37615422 0.41903536 C-130.90437942 0.40665289 -126.43260484 0.39419352 -121.96083033 0.38170695 C-94.52373239 0.30523682 -67.0866226 0.23456358 -39.64948475 0.17401934 C-37.51273591 0.1692755 -35.37598731 0.16443673 -33.23923874 0.15957069 C-32.22046445 0.15728357 -32.22046445 0.15728357 -31.18110887 0.15495025 C-29.18381032 0.15042057 -27.18651221 0.14569597 -25.18921411 0.14096856 C-22.66551022 0.1361452 -20.14180156 0.13331657 -17.61809313 0.13268447 C-11.7439861 0.13011066 -5.87333138 0.09915699 0 0 Z " fill="#F9F7F7" transform="translate(460.97393226623535,248.89088821411133)"/>
<path d="M0 0 C16.53792035 1.6614308 32.19231366 7.69504487 47 15 C47.79180664 15.38704102 48.58361328 15.77408203 49.39941406 16.17285156 C60.32444582 21.56357811 70.37176292 27.5354117 80 35 C80.93972656 35.72832031 81.87945312 36.45664063 82.84765625 37.20703125 C93.73482207 45.90109892 104.00612161 55.34400856 113 66 C113.76183594 66.81597656 114.52367187 67.63195312 115.30859375 68.47265625 C117 71 117 71 117.0078125 73.4140625 C115.72110542 76.71561322 113.87985197 79.48124684 111.875 82.375 C104.28609685 93.79400118 99.20875846 105.6255628 96 119 C95.82339844 119.71140137 95.64679688 120.42280273 95.46484375 121.15576172 C94.89121893 123.49488742 94.34774157 125.83931219 93.8125 128.1875 C93.64532471 128.88004883 93.47814941 129.57259766 93.3059082 130.28613281 C91.3715117 139.24355464 91.49657785 147.56502093 91 157 C75.82 157 60.64 157 45 157 C43.989375 153.535 42.97875 150.07 41.9375 146.5 C41.59517334 145.32703369 41.25284668 144.15406738 40.90014648 142.94555664 C39.33683791 137.58859676 37.77604542 132.23093908 36.22265625 126.87109375 C33.36323513 117.0167652 30.45554664 107.18198967 27.4375 97.375 C24.88572307 89.06902255 22.52351755 80.72773199 20.26708984 72.3371582 C16.80019398 59.47989455 13.08061457 46.68905176 9.140625 33.96875 C5.65675804 22.71999313 2.48803882 11.51297467 0 0 Z " fill="#B57F5E" transform="translate(235,92)"/>
<path d="M0 0 C3.55009987 2.76118878 4.17560372 6.41031289 5.3671875 10.6328125 C5.65126465 11.58140137 5.9353418 12.52999023 6.22802734 13.50732422 C7.23428555 16.89713329 8.20667108 20.29581672 9.1796875 23.6953125 C9.58226379 25.07757562 9.98578484 26.45956385 10.39013672 27.84130859 C14.63311865 42.3427139 18.8330473 56.84074414 22.3503418 71.5378418 C24.28605235 79.45711815 26.73548256 87.21116377 29.16625977 94.98999023 C31.80131904 103.4237931 34.27383643 111.89195629 36.67578125 120.39453125 C38.34943895 126.31782415 40.07627618 132.22530529 41.8046875 138.1328125 C43.92515417 145.3852748 46.02725593 152.64210231 48.09375 159.91015625 C49.26514068 163.99316908 50.45408174 168.07081734 51.64575195 172.14794922 C52.8601275 176.3028554 54.07121279 180.45871677 55.28173828 184.61474609 C55.87021227 186.63360546 56.45969398 188.65217142 57.05029297 190.67041016 C57.86839859 193.46919255 58.6809483 196.26953326 59.4921875 199.0703125 C59.73437012 199.89474854 59.97655273 200.71918457 60.22607422 201.56860352 C61.87139337 207.27613089 63.00522894 212.82301968 64.1796875 218.6953125 C121.5996875 218.6953125 179.0196875 218.6953125 238.1796875 218.6953125 C238.1796875 219.0253125 238.1796875 219.3553125 238.1796875 219.6953125 C170.1996875 219.6953125 102.2196875 219.6953125 32.1796875 219.6953125 C29.8696875 211.7753125 27.5596875 203.8553125 25.1796875 195.6953125 C24.0246875 191.9415625 22.8696875 188.1878125 21.6796875 184.3203125 C18.78353336 174.87689753 16.15100173 165.38387969 13.6640625 155.82470703 C12.32668308 150.73281256 10.89032193 145.72225756 9.19140625 140.73828125 C6.68967507 133.39255585 4.77658981 125.91262639 2.82421875 118.40625 C1.14545987 112.04063942 -0.74541412 105.8105627 -2.86962891 99.58007812 C-4.35143004 95.08368312 -5.55331105 90.52225177 -6.7578125 85.9453125 C-9.00228406 77.57891444 -11.43486774 69.3160743 -14.06933594 61.06347656 C-18.12987123 48.25879764 -22.11173423 35.41926066 -25.8203125 22.5078125 C-26.13162109 21.45907959 -26.13162109 21.45907959 -26.44921875 20.38916016 C-27.66584278 16.06184967 -28.00645364 12.18015049 -27.8203125 7.6953125 C-22.30488748 5.58262427 -16.77692907 3.62295568 -11.1328125 1.8828125 C-10.39998047 1.64111328 -9.66714844 1.39941406 -8.91210938 1.15039062 C-5.71960157 0.17450231 -3.343258 -0.361183 0 0 Z " fill="#FBDE7D" transform="translate(215.8203125,30.3046875)"/>
<path d="M0 0 C1.49080078 0.02707031 1.49080078 0.02707031 3.01171875 0.0546875 C3.77097656 0.07789063 4.53023437 0.10109375 5.3125 0.125 C5.45945313 1.89617187 5.45945313 1.89617187 5.609375 3.703125 C5.75948409 5.26050684 5.91057747 6.81779402 6.0625 8.375 C6.124375 9.15230469 6.18625 9.92960937 6.25 10.73046875 C6.32734375 11.48457031 6.4046875 12.23867188 6.484375 13.015625 C6.5472168 13.70688477 6.61005859 14.39814453 6.67480469 15.11035156 C7.60466433 18.04802453 8.88906097 19.21991851 11.3125 21.125 C13.91992774 21.5079465 16.10503989 21.64991676 18.70800781 21.60742188 C19.44676651 21.61133438 20.18552521 21.61524689 20.94667053 21.61927795 C22.54809975 21.62524759 24.14958327 21.62209251 25.75098419 21.6108551 C28.29105107 21.59357705 30.82998122 21.60111034 33.37005615 21.6151123 C39.68078618 21.64475116 45.99129911 21.63160376 52.30206299 21.61993408 C57.63197142 21.61170799 62.96138344 21.61976919 68.29122162 21.64906311 C70.78408739 21.65612524 73.27606423 21.63951681 75.76885986 21.62194824 C83.48192575 21.62320524 89.72230978 21.6513598 96.3125 26.125 C97.07071045 26.61331299 97.8289209 27.10162598 98.61010742 27.60473633 C99.20670166 28.05099365 99.8032959 28.49725098 100.41796875 28.95703125 C101.42827148 29.68889648 101.42827148 29.68889648 102.45898438 30.43554688 C103.83660538 31.44931774 105.20890901 32.47034882 106.57617188 33.49804688 C110.33393465 36.27678234 110.33393465 36.27678234 114.7734375 37.28515625 C118.69459116 35.49349065 122.18689699 33.16461368 125.75 30.75 C127.22588422 29.76006194 128.70371426 28.77301793 130.18359375 27.7890625 C130.83255615 27.35029785 131.48151855 26.9115332 132.15014648 26.45947266 C132.86372314 26.01909668 133.5772998 25.5787207 134.3125 25.125 C135.5111544 24.35322418 135.5111544 24.35322418 136.73402405 23.56585693 C141.77182827 21.53740816 146.34796699 21.70633654 151.73046875 21.73681641 C152.87262848 21.73155945 154.01478821 21.72630249 155.19155884 21.72088623 C158.96117897 21.70769922 162.73037569 21.71642014 166.5 21.7265625 C169.1226408 21.7245414 171.74528105 21.72162967 174.36791992 21.71786499 C179.86218845 21.71241439 185.35633582 21.71958069 190.85058594 21.73388672 C197.19339426 21.75021201 203.53591324 21.74492301 209.87871456 21.7284075 C215.99231221 21.71312884 222.10578205 21.7147769 228.21939087 21.7235527 C230.8157251 21.72555353 233.41206673 21.72309958 236.00839233 21.71611404 C239.63730411 21.70849295 243.2656608 21.720114 246.89453125 21.73681641 C248.50311508 21.72770737 248.50311508 21.72770737 250.14419556 21.71841431 C256.5208829 21.77276824 261.1036117 22.36159728 266.11328125 26.67578125 C268.87749645 29.89712765 271.35593897 33.12420316 273.546875 36.76171875 C273.93319092 37.39746826 274.31950684 38.03321777 274.7175293 38.68823242 C275.47979476 39.96371268 276.22157615 41.25169543 276.94067383 42.55200195 C278.0895522 44.59463569 278.0895522 44.59463569 280.3125 47.125 C283.50078089 47.66891662 283.50078089 47.66891662 286.3125 47.125 C286.56386719 46.42375 286.81523437 45.7225 287.07421875 45 C288.46295457 41.77567962 290.17714153 39.0449255 292.125 36.125 C292.79144531 35.114375 293.45789063 34.10375 294.14453125 33.0625 C297.82604614 28.07421316 301.35859493 24.15143997 307.3125 22.125 C311.77866397 21.77540252 316.21136321 21.84293373 320.6875 21.9375 C322.50701172 21.95780273 322.50701172 21.95780273 324.36328125 21.97851562 C327.34681206 22.01375418 330.32942458 22.06302475 333.3125 22.125 C333.17165204 23.91706547 333.02466299 25.70864917 332.875 27.5 C332.79378906 28.49773437 332.71257812 29.49546875 332.62890625 30.5234375 C332.3125 33.125 332.3125 33.125 331.3125 35.125 C330.67860352 35.06103027 330.04470703 34.99706055 329.39160156 34.93115234 C317.23639622 33.67087063 317.23639622 33.67087063 306.20654297 37.69726562 C302.52875975 41.86686342 300.04798276 46.71883399 297.58447266 51.67285156 C295.58499201 55.52751253 293.14294934 59.05061733 290.6875 62.625 C289.88249008 63.84353706 289.07777491 65.06226893 288.2734375 66.28125 C286.3125 69.125 286.3125 69.125 284.3125 71.125 C281.8918457 71.03051758 281.8918457 71.03051758 279.3125 70.125 C277.58666992 68.18237305 277.58666992 68.18237305 276.04296875 65.63671875 C275.46353516 64.70150391 274.88410156 63.76628906 274.28710938 62.80273438 C273.69736328 61.81595703 273.10761719 60.82917969 272.5 59.8125 C270.75539761 56.96317726 269.01018464 54.12037601 267.20159912 51.31112671 C265.3125 48.125 265.3125 48.125 264.09295654 44.98123169 C262.39323658 41.27543296 260.74382045 38.36652105 257.3125 36.125 C249.2669908 33.65910714 240.35518145 34.31325386 232.03515625 34.35546875 C229.50570799 34.33465485 226.97628144 34.3110326 224.44688416 34.28474426 C219.137607 34.2444962 213.83082844 34.249292 208.52172852 34.28588867 C203.11861291 34.32216537 197.72179653 34.28758444 192.31958008 34.18334961 C153.33985562 32.10050536 153.33985562 32.10050536 120.29077148 49.56762695 C119.33073463 50.62648857 119.33073463 50.62648857 118.3513031 51.70674133 C116.3125 53.125 116.3125 53.125 113.22450256 52.94523621 C109.88776201 52.00536224 107.91358186 50.69251198 105.1875 48.5625 C103.85035317 47.52735674 102.50845668 46.49745754 101.13748169 45.5075531 C99.3125 44.125 99.3125 44.125 97.16891479 42.16639709 C87.13653712 34.0115567 76.63333682 35.00720151 64.265625 35.125 C62.04073675 35.11747137 59.81585788 35.10642854 57.59100342 35.09204102 C51.77106015 35.06374639 45.95222435 35.08280597 40.13232422 35.11212158 C34.17929045 35.13359761 28.22645128 35.10974685 22.2734375 35.08984375 C10.61954255 35.05749368 -1.03368642 35.07522765 -12.6875 35.125 C-13.01445583 33.37766769 -13.33882305 31.62985089 -13.66210938 29.88183594 C-13.84302124 28.90857361 -14.02393311 27.93531128 -14.21032715 26.93255615 C-15.31343191 20.44218571 -16.50272006 12.70390391 -13.44921875 6.68359375 C-9.55563927 2.05574122 -6.14297355 -0.14454055 0 0 Z " fill="#EFE7E4" transform="translate(156.6875,249.875)"/>
<path d="M0 0 C0.35191406 1.2375 0.70382813 2.475 1.06640625 3.75 C4.06848579 14.2908183 7.10384235 24.82129135 10.1796875 35.34082031 C11.87175504 41.12879483 13.55758037 46.91851974 15.234375 52.7109375 C16.01032551 55.3906514 16.78636616 58.07033919 17.5625 60.75 C17.75689667 61.42125916 17.95129333 62.09251831 18.15158081 62.78411865 C20.34947681 70.36953044 22.57402829 77.94517083 24.875 85.5 C28.13621457 96.2345378 31.13206889 107.04535481 34.16680908 117.8454895 C37.76819246 130.6612872 41.42689824 143.45766614 45.18505859 156.22851562 C46.65070533 161.21294394 48.10672291 166.20018177 49.5625 171.1875 C49.8505249 172.17339111 50.1385498 173.15928223 50.43530273 174.17504883 C52.67372143 181.84935537 54.87529222 189.53387413 57.04711914 197.22729492 C58.01345657 200.63422318 58.99718739 203.99196666 60.16796875 207.3359375 C61 210 61 210 61 214 C55.72 214 50.44 214 45 214 C42.07859303 205.57947402 39.4341539 197.17088426 37.125 188.5625 C33.15832654 173.77505961 28.88556684 159.08192879 24.37207031 144.45214844 C21.16950876 134.06982403 18.22017714 123.64513401 15.484375 113.12939453 C13.86532311 106.96506956 12.01144948 100.94156513 9.95727539 94.90893555 C8.47476251 90.40392638 7.26914573 85.83508722 6.0625 81.25 C3.81802844 72.88360194 1.38544476 64.6207618 -1.24902344 56.36816406 C-5.30955873 43.56348514 -9.29142173 30.72394816 -13 17.8125 C-13.31130859 16.76376709 -13.31130859 16.76376709 -13.62890625 15.69384766 C-14.84553028 11.36653717 -15.18614114 7.48483799 -15 3 C-13.72942818 2.52014033 -12.45853152 2.0411407 -11.1875 1.5625 C-10.47980469 1.29566406 -9.77210938 1.02882812 -9.04296875 0.75390625 C-5.47999374 -0.56092009 -3.64317272 -1.13063981 0 0 Z " fill="#FECF64" transform="translate(203,35)"/>
<path d="M0 0 C2.25 0.5625 2.25 0.5625 4 2.125 C5.75174545 5.54090362 6.31821324 7.6823706 6.25 11.5625 C4.05701953 14.37149066 1.29401594 16.33591409 -1.5625 18.4375 C-3.14195479 19.66365355 -4.72008572 20.89151435 -6.296875 22.12109375 C-7.06580078 22.71003418 -7.83472656 23.29897461 -8.62695312 23.90576172 C-12.12421019 26.634877 -15.35111201 29.61682663 -18.6171875 32.6171875 C-20.68526661 34.50345745 -22.80275837 36.31493391 -24.9375 38.125 C-28.94617841 41.63059726 -32.32676421 45.49401144 -35.75 49.5625 C-36.5853125 50.50996094 -37.420625 51.45742187 -38.28125 52.43359375 C-61.18117272 78.54431981 -71.16242934 107.26028927 -74.75 141.5625 C-79.04 141.5625 -83.33 141.5625 -87.75 141.5625 C-89.76621915 103.56797018 -74.1718866 69.07207548 -49.11328125 41.203125 C-41.40349391 32.7924479 -33.46485792 24.85106621 -24.51171875 17.75390625 C-21.99168085 15.75427222 -19.52466337 13.70782127 -17.06689453 11.63305664 C-4.30978894 0.88154774 -4.30978894 0.88154774 0 0 Z " fill="#ABD541" transform="translate(413.75,107.4375)"/>
<path d="M0 0 C5.44803372 4.81720876 8.6535525 10.21046316 9.31640625 17.4609375 C9.62343639 27.38494409 8.54531038 34.37509319 1.8125 41.8125 C-5.22738293 48.19889169 -12.12709398 49.75659761 -21.5625 49.44140625 C-29.77418355 48.38695143 -35.54039803 44.45950983 -40.59375 38.01171875 C-45.88506583 30.44219749 -45.88898969 23.10720551 -45 14 C-44.11710491 10.91461393 -42.88968326 8.57907911 -41 6 C-40.61457031 5.44957031 -40.22914062 4.89914063 -39.83203125 4.33203125 C-35.19870152 -1.74077957 -30.02991794 -4.52538776 -22.640625 -5.7421875 C-14.13879093 -6.57224822 -7.11754684 -4.76961688 0 0 Z " fill="#9B6A4D" transform="translate(164,149)"/>
<path d="M0 0 C1.07368019 6.69193122 1.12369061 13.29858435 1.0625 20.0625 C1.05798828 21.02349609 1.05347656 21.98449219 1.04882812 22.97460938 C1.03717706 25.31647422 1.02082025 27.65820181 1 30 C1.53399414 29.64558838 2.06798828 29.29117676 2.61816406 28.92602539 C3.68115723 28.23754517 3.68115723 28.23754517 4.765625 27.53515625 C5.46461914 27.07761963 6.16361328 26.62008301 6.88378906 26.14868164 C10.09277713 24.40683936 12.44550839 24.38479953 16 25 C18.4375 26.625 18.4375 26.625 20 29 C20.5625 31.9375 20.5625 31.9375 20 35 C17.42457412 38.00385211 14.81495714 40.20617743 11.40625 42.15625 C5.34025895 45.70249803 0.30532172 48.89020126 -1.87890625 55.859375 C-2.97264023 60.33463838 -3.70907209 64.86874906 -4.47119141 69.41015625 C-5.28169509 73.37960363 -6.68182772 77.02530399 -8.25 80.75 C-8.75015625 81.94109375 -9.2503125 83.1321875 -9.765625 84.359375 C-11 87 -11 87 -12 88 C-14.86267567 88.07325168 -17.700719 88.09238205 -20.5625 88.0625 C-21.36880859 88.05798828 -22.17511719 88.05347656 -23.00585938 88.04882812 C-25.00393756 88.03700518 -27.00197783 88.01906914 -29 88 C-28.77860352 87.47792969 -28.55720703 86.95585937 -28.32910156 86.41796875 C-16.67988333 58.73137723 -13.31474347 32.82552787 -16 3 C-3.003861 -1.5019305 -3.003861 -1.5019305 0 0 Z " fill="#ABD641" transform="translate(444,161)"/>
<path d="M0 0 C4.89909929 4.77480925 8.56605399 9.05916474 9.3359375 16.05078125 C9.43149896 24.03016343 8.9577428 29.80779376 3.3515625 35.74609375 C-3.07544273 41.59775572 -8.87117476 42.57663076 -17.48046875 42.44140625 C-23.65893807 41.66652608 -27.47958262 38.77494229 -31.5859375 34.25390625 C-35.51592153 29.15401369 -37.58357302 23.7438935 -37.37109375 17.20703125 C-36.12954584 9.82308845 -31.87066385 3.91899341 -26.09765625 -0.65625 C-18.38618378 -5.59618767 -7.50360734 -5.16915172 0 0 Z " fill="#9B6A4D" transform="translate(394,334)"/>
<path d="M0 0 C3.5 0.5 3.5 0.5 5.9375 2.0625 C8.09354356 5.42592795 7.76506224 7.52508423 7.5 11.5 C6.83561662 14.37504944 5.90055257 17.12921915 4.9296875 19.91381836 C4.52003754 21.12967117 4.52003754 21.12967117 4.10211182 22.37008667 C3.20309106 25.03019101 2.28918943 27.6849183 1.375 30.33984375 C0.74630678 32.19040517 0.11855324 34.04128608 -0.50830078 35.89247131 C-2.15608114 40.75030983 -3.8165527 45.60371601 -5.47973633 50.45629883 C-7.17649335 55.41420742 -8.86116809 60.3762165 -10.546875 65.33789062 C-13.8527979 75.06264636 -17.17325338 84.78234813 -20.5 94.5 C-26.11 94.5 -31.72 94.5 -37.5 94.5 C-36.84257812 92.52773437 -36.18515625 90.55546875 -35.5078125 88.5234375 C-35.27348511 87.82009277 -35.03915771 87.11674805 -34.79772949 86.39208984 C-33.55045248 82.64862227 -32.30107166 78.90587178 -31.04882812 75.1640625 C-28.01571429 66.09274978 -25.00884593 57.0136177 -22.04220581 47.9203186 C-20.43563541 43.00078357 -18.81955107 38.08439742 -17.20257568 33.16827393 C-16.40126719 30.72400443 -15.60426325 28.27831953 -14.81158447 25.83123779 C-13.68748027 22.3629414 -12.54846291 18.89986766 -11.40625 15.4375 C-11.07120453 14.3910733 -10.73615906 13.34464661 -10.39096069 12.26651001 C-10.06922882 11.30071014 -9.74749695 10.33491028 -9.41601562 9.33984375 C-9.14132446 8.49800537 -8.8666333 7.65616699 -8.58361816 6.78881836 C-6.57742619 2.55133954 -4.66013865 0.66573409 0 0 Z " fill="#ABD641" transform="translate(396.5,154.5)"/>
<path d="M0 0 C4.52508655 1.95046834 8.53120426 4.64330163 11 9 C12.45016555 13.35049665 12.51070107 17.45334185 12 22 C9.50665497 26.98669007 6.00649051 30.49675474 1 33 C-3.89911617 33.53749296 -7.8447045 33.56674874 -12.3125 31.375 C-17.07661069 27.16485567 -20.08038221 24.49033459 -21.125 18.125 C-21.42569648 12.57882054 -19.58696152 9.11977277 -16 5 C-10.80234602 0.28584872 -6.94122988 -0.99476224 0 0 Z " fill="#9F6E50" transform="translate(83,216)"/>
<path d="M0 0 C3.93792318 2.56821077 6.74612583 5.61725165 8.875 9.875 C9.41535594 14.8002115 9.41935469 18.74441718 7.25 23.25 C4.00726355 26.83407713 1.41024104 29.47035241 -3.5234375 30.2578125 C-9.20722994 30.51383919 -12.77438655 29.81126932 -17.125 25.875 C-20.55417072 22.17510527 -21.42469749 19.2957651 -21.625 14.375 C-21.41779901 9.44896351 -20.61314876 6.54202818 -17.125 2.875 C-11.68222564 -1.42263619 -6.68226353 -2.40561487 0 0 Z " fill="#9F6E50" transform="translate(336.125,397.125)"/>
<path d="M0 0 C-0.08730853 2.73064947 -0.19422124 5.4581619 -0.3125 8.1875 C-0.33505859 8.95642578 -0.35761719 9.72535156 -0.38085938 10.51757812 C-0.59783757 15.11357077 -0.96196467 18.33910387 -4 22 C-6.16867967 23.73770639 -8.25783064 25.28873071 -10.5625 26.8125 C-11.44711914 27.42254883 -11.44711914 27.42254883 -12.34960938 28.04492188 C-16.71517857 31 -16.71517857 31 -19 31 C-18.71681868 28.4363053 -18.42377507 25.87438474 -18.125 23.3125 C-18.04636719 22.59126953 -17.96773438 21.87003906 -17.88671875 21.12695312 C-16.75402749 11.5862075 -16.75402749 11.5862075 -13.54296875 8.68237305 C-11.7165734 7.27747297 -9.8490295 5.97392314 -7.9375 4.6875 C-6.96200195 4.0059082 -6.96200195 4.0059082 -5.96679688 3.31054688 C-1.18268327 0 -1.18268327 0 0 0 Z " fill="#9ACC3B" transform="translate(445,192)"/>
<path d="M0 0 C3.0099077 2.29014716 4.69783903 3.79135614 5.625 7.5 C4.69783903 11.20864386 3.0099077 12.70985284 0 15 C-3 15.625 -3 15.625 -6 15 C-8.9375 12.9375 -8.9375 12.9375 -11 10 C-11.06641554 6.14789873 -10.87229157 4.00151995 -8.3125 1.0625 C-5.2135552 -0.3613395 -3.37817188 -0.55153827 0 0 Z " fill="#9F6E50" transform="translate(222,346)"/>
<path d="M0 0 C2.9375 2.125 2.9375 2.125 5 5 C5.07478406 8.66441916 4.42692056 10.39914885 2.3125 13.375 C0 15 0 15 -2.9375 15.5625 C-7.12178713 14.79395747 -8.56927503 13.46194162 -11 10 C-11.06641554 6.14789873 -10.87229157 4.00151995 -8.3125 1.0625 C-5.2135552 -0.3613395 -3.37817188 -0.55153827 0 0 Z " fill="#9F6E50" transform="translate(191,346)"/>
<path d="M0 0 C3.14394163 2.1832928 3.92901313 3.78309567 5.125 7.4375 C5 11 5 11 2.4375 14 C-1 16 -1 16 -4.1875 16 C-8.58536585 14.43631436 -8.58536585 14.43631436 -10 12 C-10.39274738 8.90711442 -10.63577985 6.95310828 -10 4 C-7.02237714 0.59700244 -4.52746552 -0.92871088 0 0 Z " fill="#9F6E50" transform="translate(301,186)"/>
<path d="M0 0 C2.375 1.5625 2.375 1.5625 4 4 C4.56783945 7.97487617 4.62340519 10.06489221 2.375 13.4375 C-0.75683492 15.49791771 -2.31544773 15.6767545 -6 15 C-8.9375 12.9375 -8.9375 12.9375 -11 10 C-11.06641554 6.14789873 -10.87229157 4.00151995 -8.3125 1.0625 C-5.26397123 -0.33817538 -3.32073048 -0.4842732 0 0 Z " fill="#9F6E50" transform="translate(82,172)"/>
<path d="M0 0 C2.4375 1.625 2.4375 1.625 4 4 C4.5625 6.9375 4.5625 6.9375 4 10 C1.9375 12.9375 1.9375 12.9375 -1 15 C-4.85210127 15.06641554 -6.99848005 14.87229157 -9.9375 12.3125 C-11.33817538 9.26397123 -11.4842732 7.32073048 -11 4 C-8.05899778 -0.47032338 -5.13105401 -0.73300772 0 0 Z " fill="#9F6E50" transform="translate(313,161)"/>
<path d="M0 0 C4.71828358 1.48538557 4.71828358 1.48538557 6.375 4.0625 C7.25 6.4375 7.25 6.4375 7.375 9.0625 C6.2334081 11.3456838 5.18487317 13.25262683 3.375 15.0625 C-3.825 15.52701613 -3.825 15.52701613 -6.5625 13.9375 C-8.1470343 11.14126301 -8.625 9.30212268 -8.625 6.0625 C-6.1270096 1.769079 -5.09240499 0.08780009 0 0 Z " fill="#9F6E50" transform="translate(223.625,405.9375)"/>
<path d="M0 0 C1.9375 1.125 1.9375 1.125 3 3 C3.3898913 6.57400356 3.37020241 9.09763163 2 12.4375 C-0.58949107 14.4605399 -2.81364374 14.62470607 -6.0546875 14.4453125 C-8 14 -8 14 -10.5625 11.9375 C-12.44610971 8.08838451 -12.207644 6.07579849 -11 2 C-7.79952331 -1.93904824 -4.62362797 -1.17692348 0 0 Z " fill="#9F6E50" transform="translate(254,423)"/>
<path d="M0 0 C2.9375 0.5625 2.9375 0.5625 5.3125 2.125 C7.56090519 5.49760779 7.50533945 7.58762383 6.9375 11.5625 C5.3125 14 5.3125 14 2.9375 15.5625 C-0.38323048 16.0467732 -2.32647123 15.90067538 -5.375 14.5 C-7.93479157 11.56098005 -8.12891554 9.41460127 -8.0625 5.5625 C-5.63177503 2.10055838 -4.18428713 0.76854253 0 0 Z " fill="#9F6E50" transform="translate(388.0625,408.4375)"/>
<path d="M0 0 C3.36344489 2.48602449 4.80057749 3.91425523 5.5625 8.0625 C5 11 5 11 3.4375 13.375 C0.06489221 15.62340519 -2.02512383 15.56783945 -6 15 C-8.4375 13.4375 -8.4375 13.4375 -10 11 C-10.56783945 7.02512383 -10.62340519 4.93510779 -8.375 1.5625 C-5.24316508 -0.49791771 -3.68455227 -0.6767545 0 0 Z " fill="#9F6E50" transform="translate(206,321)"/>
</svg>
