<?xml version="1.0" encoding="UTF-8"?>
<svg version="1.1" xmlns="http://www.w3.org/2000/svg" width="512" height="512">
<path d="M0 0 C1.07035995 -0.00979385 2.14071991 -0.01958771 3.24351501 -0.02967834 C74.85716443 -0.54981165 135.05045272 17.20801315 197.39453125 52.23828125 C198.14250977 52.65787109 198.89048828 53.07746094 199.66113281 53.50976562 C220.85174384 65.47826899 241.32346482 79.0238524 258.95800781 95.86914062 C260.35051738 97.19633193 261.75902033 98.50667955 263.16796875 99.81640625 C272.70089574 108.93960859 280.33364236 119.45642365 287.51953125 130.48828125 C298.91807222 147.76163491 312.78713862 158.39990184 331.03125 167.5625 C337.39554135 170.81487979 343.06521463 175.25033139 345.39453125 182.23828125 C347.0717403 203.13465629 335.69299178 219.19859239 322.80517578 234.58251953 C315.24429899 243.45719354 307.03376605 251.70917159 298.83203125 259.98828125 C297.96980957 260.86363525 297.10758789 261.73898926 296.21923828 262.64086914 C271.69204444 287.19825173 248.11788288 288.36892521 214.89056396 288.53582764 C212.9589345 288.54567407 211.02732205 288.56008251 209.09576416 288.57940674 C182.96197649 288.80784002 164.23319527 281.48220262 141.46337891 269.19628906 C117.38607045 256.25664746 91.83977071 252.83038261 64.8629303 251.74504089 C13.95200797 249.68849306 -32.89326721 239.45388699 -81.20483398 223.58615112 C-83.14723946 222.94841173 -85.09057044 222.31348284 -87.03491211 221.68167114 C-103.01322356 216.47229765 -119.36920673 210.93263136 -132.60546875 200.23828125 C-133.43304688 199.58472656 -134.260625 198.93117188 -135.11328125 198.2578125 C-153.638785 182.70658688 -164.25467494 155.66728609 -166.85668945 131.94824219 C-168.73484175 103.70793012 -153.61413157 76.64260281 -137.60546875 54.23828125 C-137.12609863 53.56506836 -136.64672852 52.89185547 -136.15283203 52.19824219 C-130.83761138 44.79934289 -125.2414118 37.61886354 -119.41796875 30.61328125 C-118.96752197 30.05745361 -118.5170752 29.50162598 -118.05297852 28.92895508 C-111.43503911 21.15142679 -103.50742314 17.36695578 -93.79296875 14.73828125 C-92.75744873 14.44912842 -91.72192871 14.15997559 -90.6550293 13.86206055 C-61.2090333 5.83293026 -30.5882636 0.23352188 0 0 Z " fill="#F99746" transform="translate(166.60546875,111.76171875)"/>
<path d="M0 0 C6.00406959 5.51022837 8.61590743 13.12641949 10 21 C10.06984292 23.944252 9.9406099 26.87109669 9.8125 29.8125 C9.53822344 35.19431014 9.53822344 35.19431014 11.19140625 40.2265625 C12.35805672 41.41216089 13.56788649 42.55619864 14.80859375 43.6640625 C17.92825033 46.98947183 19.81225629 50.80217611 21.9375 54.8125 C30.41097494 70.48579514 38.47601778 79.70311495 54.75268555 87.01147461 C60.51688768 89.64191546 65.24285592 92.80251993 70 97 C70.81339844 97.62003906 71.62679688 98.24007812 72.46484375 98.87890625 C75.14030161 101.1173864 77.15320725 103.45186952 79.3125 106.1875 C80.09753906 107.15816406 80.88257813 108.12882812 81.69140625 109.12890625 C83.10099921 110.88195334 84.50586923 112.6388287 85.90234375 114.40234375 C96.30709593 126.91884268 110.1851774 132.60783221 124.703125 139.13671875 C135.04701195 143.79886077 145.24637588 148.675539 154 156 C154 156.33 154 156.66 154 157 C123.69447375 158.4230421 98.26119026 146.12961853 76.0703125 126.39453125 C74.25450536 124.73561396 72.44443594 123.07039091 70.640625 121.3984375 C67.13733232 118.21645273 63.48686757 115.24393939 59.80078125 112.27734375 C57.90164739 110.73313867 56.02441818 109.16167245 54.16796875 107.56640625 C29.35044384 86.27051138 0.6216606 74.65848887 -30.38525391 65.47363281 C-57.27157128 57.50262355 -83.19884558 48.19621156 -108 35 C-108.61697754 34.67290039 -109.23395508 34.34580078 -109.86962891 34.00878906 C-117.86875515 29.72391611 -125.12794076 24.95367344 -132 19 C-114.90104546 47.34826674 -88.50008846 63.02945983 -57.5958252 72.91345215 C-53.68400175 74.16679238 -49.78445788 75.45758787 -45.8828125 76.7421875 C-45.07581909 77.00704956 -44.26882568 77.27191162 -43.43737793 77.5447998 C-35.14214961 80.27096784 -26.87204425 83.06691358 -18.62286377 85.92938232 C-17.07154573 86.46588131 -15.51881702 86.99832298 -13.96453857 87.52618408 C0.59430569 92.47455643 14.44284541 98.34357392 26.6875 107.8125 C27.48438232 108.41360596 28.28126465 109.01471191 29.10229492 109.6340332 C34.86713171 114.02116876 40.4254531 118.62067774 45.90234375 123.359375 C49.71172884 126.64018513 53.66931438 129.72423942 57.63891602 132.80761719 C60.65155083 135.14944252 63.64021951 137.51180284 66.5859375 139.9375 C85.92881683 155.82814778 107.58511455 170.43364939 132 177 C133.24136719 177.36351562 133.24136719 177.36351562 134.5078125 177.734375 C145.18076059 180.41165689 157.20132238 179.53042483 168 178 C165.62750419 183.75112858 160.39800755 186.33091997 155.00390625 188.98046875 C147.42595259 191.89052113 139.02327867 192.24776562 131 193 C130.19095215 193.08830078 129.3819043 193.17660156 128.54833984 193.26757812 C119.10609066 194.20589636 109.65464488 194.22115385 100.17480469 194.24023438 C97.26989018 194.24993359 94.3656868 194.28104417 91.4609375 194.3125 C66.23562808 194.45565836 47.98519889 186.78341705 26.06884766 174.95800781 C1.9915392 162.01836621 -23.55476054 158.59210136 -50.53160095 157.50675964 C-101.44252328 155.45021181 -148.28779846 145.21560574 -196.59936523 129.34786987 C-198.54177071 128.71013048 -200.48510169 128.07520159 -202.42944336 127.44338989 C-218.40775481 122.2340164 -234.76373798 116.69435011 -248 106 C-248.82757813 105.34644531 -249.65515625 104.69289063 -250.5078125 104.01953125 C-267.34624791 89.88451437 -274.58402282 69.63711176 -280 49 C-280.20012695 48.24630127 -280.40025391 47.49260254 -280.60644531 46.71606445 C-281.91760059 41.38530482 -282.24978324 36.41356454 -282.125 30.9375 C-282.11597656 30.16728516 -282.10695313 29.39707031 -282.09765625 28.60351562 C-282.07445155 26.73553757 -282.03859819 24.86772338 -282 23 C-264.69539066 13.0341083 -247.54066339 5.24636976 -228 0.75 C-227.36247803 0.59909912 -226.72495605 0.44819824 -226.06811523 0.29272461 C-210.87168143 -2.990741 -195.29675689 -3.43515565 -179.8125 -3.4375 C-178.85153412 -3.43989685 -177.89056824 -3.4422937 -176.90048218 -3.44476318 C-154.09997485 -3.44523266 -131.42105232 -1.1111635 -109.09716797 3.59033203 C-106.50028899 4.09761526 -103.88792037 4.39087555 -101.26025391 4.69140625 C-94.85727747 5.56560826 -88.51537681 6.94982941 -82.17382812 8.18359375 C-78.78784617 8.82691129 -75.39882025 9.42859533 -72 10 C-71.00105713 10.17289551 -70.00211426 10.34579102 -68.97290039 10.52392578 C-62.330118 11.43894744 -58.59562922 10.57923177 -53.0625 6.875 C-51.69046183 6.03291545 -50.31543023 5.19568944 -48.9375 4.36328125 C-48.27234375 3.9554541 -47.6071875 3.54762695 -46.921875 3.12744141 C-33.39835824 -4.80594279 -13.60595734 -10.24212287 0 0 Z " fill="#E88B46" transform="translate(282,206)"/>
<path d="M0 0 C6.41278632 4.56776679 12.25948148 9.61722394 18 15 C18.95132812 15.88558594 19.90265625 16.77117187 20.8828125 17.68359375 C30.76109535 27.09132765 38.690335 37.84420871 46.125 49.25 C57.52354097 66.52335366 71.39260737 77.16162059 89.63671875 86.32421875 C96.0010101 89.57659854 101.67068338 94.01205014 104 101 C105.67720905 121.89637504 94.29846053 137.96031114 81.41064453 153.34423828 C74.17186741 161.84084375 66.33812654 169.76551858 58.48382568 177.69039917 C57.08600831 179.10127212 55.69165469 180.51557406 54.29736328 181.92993164 C53.42708496 182.80125732 52.55680664 183.67258301 51.66015625 184.5703125 C50.88293213 185.35164551 50.10570801 186.13297852 49.30493164 186.93798828 C44.48469569 191.25021292 40.37775265 192.58300998 34 193 C33.32211426 193.04463379 32.64422852 193.08926758 31.94580078 193.13525391 C14.06871898 194.02636287 -1.05546668 189.82922119 -17 182 C-17.62084473 181.70109863 -18.24168945 181.40219727 -18.88134766 181.09423828 C-40.16249227 170.74744985 -58.38877403 154.94410429 -76.4921875 139.93359375 C-79.3141445 137.60483592 -82.15180395 135.29650731 -85 133 C-85.65919434 132.46681152 -86.31838867 131.93362305 -86.99755859 131.38427734 C-103.54060848 118.06423786 -118.92599979 108.97295674 -139 102 C-139.68777527 101.76069763 -140.37555054 101.52139526 -141.08416748 101.27484131 C-162.12480315 93.9208173 -162.12480315 93.9208173 -183.30859375 86.99609375 C-201.0339431 81.42248321 -218.88048282 74.37038297 -233 62 C-233.98742187 61.17113281 -234.97484375 60.34226563 -235.9921875 59.48828125 C-243.75135658 52.81273302 -249.9130602 45.19596525 -256 37 C-256.59683594 36.20464844 -257.19367188 35.40929687 -257.80859375 34.58984375 C-258.20175781 34.06519531 -258.59492188 33.54054687 -259 33 C-258.67 32.34 -258.34 31.68 -258 31 C-257.46375 31.47308594 -256.9275 31.94617188 -256.375 32.43359375 C-248.83194908 38.79804296 -240.6828229 43.4118006 -232 48 C-231.37383789 48.33499512 -230.74767578 48.66999023 -230.10253906 49.01513672 C-204.57208544 62.59128318 -177.04187292 71.77702855 -149.3125 79.6875 C-116.14867563 89.17929071 -87.8464994 104.44127269 -62.4296875 127.81640625 C-58.93996702 130.95266629 -55.28876591 133.87626333 -51.63671875 136.8203125 C-49.25731785 138.78728391 -47.00480985 140.83075459 -44.75 142.9375 C-25.60667934 160.00667756 -2.9837679 167.84349262 22.37133789 169.22973633 C23.3174292 169.2892749 24.26352051 169.34881348 25.23828125 169.41015625 C26.08430908 169.45277588 26.93033691 169.49539551 27.80200195 169.53930664 C30.40437407 170.08475551 31.3361222 170.97530565 33 173 C33.17981829 167.11927592 32.5974659 161.91741124 31.3125 156.1875 C31.13170898 155.36419189 30.95091797 154.54088379 30.76464844 153.69262695 C30.19134709 151.12473503 29.59957746 148.56187575 29 146 C28.81808105 145.21625 28.63616211 144.4325 28.44873047 143.625 C25.98455942 133.19576488 22.80558349 123.17281961 18.94238281 113.17456055 C13.61238266 99.18796924 11.38305646 86.28012399 10.64556885 71.43380737 C9.51887572 49.21008061 7.05192317 28.06624361 0.953125 6.60546875 C0 3 0 3 0 0 Z " fill="#E59D75" transform="translate(408,193)"/>
<path d="M0 0 C23.30114539 21.99065573 27.03630683 54.31205979 29.35971069 84.65524292 C30.34711272 97.49971333 31.52172224 110.28449457 33.18334961 123.06201172 C33.30331299 123.98900879 33.42327637 124.91600586 33.546875 125.87109375 C33.65346436 126.66314209 33.76005371 127.45519043 33.86987305 128.27124023 C34.11287964 130.7156313 34.13594935 133.10766775 34.09765625 135.5625 C33.24945313 135.06621094 32.40125 134.56992187 31.52734375 134.05859375 C30.34301663 133.37141474 29.1580711 132.68530092 27.97265625 132 C27.34464111 131.63648438 26.71662598 131.27296875 26.06958008 130.8984375 C21.72108479 128.41141665 17.3145989 126.20126627 12.78515625 124.0625 C0.44388408 117.93327758 -5.60171334 109.42343245 -12.08984375 97.58203125 C-12.46955322 96.89181885 -12.8492627 96.20160645 -13.24047852 95.49047852 C-14.01452712 94.08112127 -14.78326277 92.66883286 -15.54663086 91.25366211 C-17.65737032 87.43377399 -19.68484802 84.56705678 -22.96484375 81.625 C-26.01533014 78.47700948 -26.21261806 75.94082163 -26.17041016 71.61254883 C-26.11666687 70.11995124 -26.05643647 68.62757321 -25.98974609 67.13549805 C-25.64634044 58.36138771 -27.58760573 48.94115542 -33.3203125 41.99609375 C-39.90080653 36.03302879 -46.78552585 34.85031658 -55.46875 35.21484375 C-67.97466079 36.481085 -80.86347146 41.99126001 -91.21484375 49.0625 C-100.13865871 54.60665316 -112.87844125 49.53088704 -122.58984375 47.5625 C-134.19077611 45.22605766 -134.19077611 45.22605766 -145.90234375 43.5625 C-149.03272579 43.10688808 -152.15949037 42.62935468 -155.28686523 42.15356445 C-160.08426755 41.42709205 -164.88513357 40.72550681 -169.68701172 40.02929688 C-171.56944091 39.75600875 -173.45148135 39.47996937 -175.33251953 39.19726562 C-192.35584482 36.68004211 -209.72857417 36.90414219 -226.90234375 36.5625 C-225.35687452 33.47156155 -222.85894436 33.00570593 -219.73828125 31.61328125 C-219.09152939 31.32395721 -218.44477753 31.03463318 -217.77842712 30.73654175 C-215.61522016 29.77378063 -213.4469736 28.82319248 -211.27734375 27.875 C-210.52738129 27.54569489 -209.77741882 27.21638977 -209.00473022 26.87710571 C-50.60282488 -42.49820017 -50.60282488 -42.49820017 0 0 Z " fill="#F99746" transform="translate(316.90234375,166.4375)"/>
<path d="M0 0 C1.07035995 -0.00979385 2.14071991 -0.01958771 3.24351501 -0.02967834 C49.75861584 -0.36751971 117.09436782 0.62338407 155.39453125 31.23828125 C152.06266574 30.61117617 148.84165373 29.83344701 145.59375 28.86328125 C144.25086914 28.46882813 144.25086914 28.46882813 142.88085938 28.06640625 C141.02574662 27.51751036 139.17156333 26.96546259 137.31835938 26.41015625 C136.41923828 26.1471875 135.52011719 25.88421875 134.59375 25.61328125 C133.78768311 25.37351563 132.98161621 25.13375 132.15112305 24.88671875 C125.84903892 23.40426942 119.58815504 23.07479617 113.14453125 23.03515625 C112.37716141 23.02818726 111.60979156 23.02121826 110.81916809 23.01403809 C108.34423291 22.99669562 105.86952474 22.99031373 103.39453125 22.98828125 C102.547164 22.98727417 101.69979675 22.98626709 100.82675171 22.98522949 C80.19677359 23.00178587 60.46265399 25.4691185 40.39453125 30.23828125 C39.73646484 30.39409668 39.07839844 30.54991211 38.40039062 30.71044922 C34.49752441 31.64464592 30.61107326 32.63663843 26.72579956 33.64094543 C24.34178668 34.25179588 21.95431372 34.84744734 19.56616211 35.44189453 C3.74384972 39.42529158 -11.76111306 44.25479814 -27.29296875 49.23828125 C-32.19190283 50.80331245 -37.09184764 52.3651578 -41.9921875 53.92578125 C-43.16617096 54.29994675 -44.34015442 54.67411224 -45.54971313 55.05961609 C-52.60630868 57.30293893 -59.67340089 59.50470904 -66.765625 61.6328125 C-67.52904709 61.86190308 -68.29246918 62.09099365 -69.07902527 62.32702637 C-89.23667945 68.32208867 -108.53260699 72.574028 -129.60546875 73.23828125 C-128.93902344 73.56699219 -128.27257812 73.89570313 -127.5859375 74.234375 C-118.6196764 78.86171814 -110.42439059 84.73904934 -103.60546875 92.23828125 C-103.60546875 92.89828125 -103.60546875 93.55828125 -103.60546875 94.23828125 C-104.18288818 94.3583252 -104.76030762 94.47836914 -105.35522461 94.60205078 C-124.24158945 98.57871827 -140.62284784 103.75346693 -157.55859375 113.06640625 C-160.50908766 114.68389465 -163.43190299 116.09579758 -166.60546875 117.23828125 C-165.45371951 110.4725315 -163.76400121 104.27567665 -161.16796875 97.92578125 C-160.82378906 97.07693359 -160.47960937 96.22808594 -160.125 95.35351562 C-154.12304904 80.92981306 -146.81897175 66.87538099 -137.60546875 54.23828125 C-137.17153809 53.63741699 -136.73760742 53.03655273 -136.29052734 52.41748047 C-130.89485688 44.97089993 -125.30274916 37.68073112 -119.41796875 30.61328125 C-118.96776367 30.05785645 -118.51755859 29.50243164 -118.05371094 28.93017578 C-111.43637264 21.1516105 -103.50764078 17.36701468 -93.79296875 14.73828125 C-92.75744873 14.44912842 -91.72192871 14.15997559 -90.6550293 13.86206055 C-61.2090333 5.83293026 -30.5882636 0.23352188 0 0 Z " fill="#FDB182" transform="translate(166.60546875,111.76171875)"/>
<path d="M0 0 C4.86566061 3.91849062 8.9656548 8.02092638 12.8125 12.9375 C13.32603027 13.58501221 13.83956055 14.23252441 14.36865234 14.8996582 C17.85124458 19.35537515 21.04312721 23.94832439 24.125 28.6875 C35.79515469 46.53950763 49.72926237 57.82847399 68.63671875 67.32421875 C75.0010101 70.57659854 80.67068338 75.01205014 83 82 C84.67572292 102.87785939 73.31676956 118.93846847 60.44140625 134.31347656 C53.74849688 142.14454328 46.5702508 149.5074221 39.3125 156.8125 C38.69979248 157.42996094 38.08708496 158.04742187 37.45581055 158.68359375 C33.12277431 163 33.12277431 163 32 163 C31.98541748 162.41210693 31.97083496 161.82421387 31.95581055 161.21850586 C31.30931841 137.79173266 25.74027811 118.74970781 17.85009766 96.80126953 C11.11222316 77.95475102 8.2670458 60.56945022 6.91088867 40.67089844 C6.07261988 29.72875259 3.87081992 19.13824156 1.51904297 8.43603516 C0.92261688 5.6368162 0.42902056 2.8296075 0 0 Z " fill="#F99746" transform="translate(429,212)"/>
<path d="M0 0 C23.30114539 21.99065573 27.03630683 54.31205979 29.35971069 84.65524292 C30.34711272 97.49971333 31.52172224 110.28449457 33.18334961 123.06201172 C33.30331299 123.98900879 33.42327637 124.91600586 33.546875 125.87109375 C33.65346436 126.66314209 33.76005371 127.45519043 33.86987305 128.27124023 C34.11287964 130.7156313 34.13594935 133.10766775 34.09765625 135.5625 C31.7918044 134.37646132 29.50567485 133.16613036 27.22265625 131.9375 C26.57167969 131.60621094 25.92070312 131.27492188 25.25 130.93359375 C21.9734698 129.14332467 20.39076522 128.19207725 18.77734375 124.7265625 C18.55304688 123.68242187 18.32875 122.63828125 18.09765625 121.5625 C17.75605469 120.45777344 17.41445313 119.35304688 17.0625 118.21484375 C16.0009746 114.19651887 15.27165658 110.23182937 14.66015625 106.125 C14.53237793 105.28445068 14.40459961 104.44390137 14.27294922 103.57788086 C13.2785653 96.66782767 12.65290375 89.74387931 12.07324219 82.78881836 C10.08275838 58.96989913 7.49756948 32.19099705 -11.90234375 15.5625 C-32.74173198 0.30830804 -61.06083692 -1.11488983 -85.76342773 2.69213867 C-108.77422766 6.72504124 -130.65900301 13.5104133 -152.02734375 22.875 C-152.76557373 23.19315674 -153.50380371 23.51131348 -154.2644043 23.83911133 C-158.24677315 25.63526629 -161.88792242 27.50566015 -165.42260742 30.07910156 C-178.0179254 38.93407566 -188.97975834 38.61323683 -203.96484375 37.6875 C-206.19965994 37.58887416 -208.43469531 37.49509074 -210.66992188 37.40625 C-216.08451992 37.18066631 -221.4933655 36.89585238 -226.90234375 36.5625 C-225.35687452 33.47156155 -222.85894436 33.00570593 -219.73828125 31.61328125 C-219.09152939 31.32395721 -218.44477753 31.03463318 -217.77842712 30.73654175 C-215.61522016 29.77378063 -213.4469736 28.82319248 -211.27734375 27.875 C-210.52738129 27.54569489 -209.77741882 27.21638977 -209.00473022 26.87710571 C-50.60282488 -42.49820017 -50.60282488 -42.49820017 0 0 Z " fill="#FDB181" transform="translate(316.90234375,166.4375)"/>
<path d="M0 0 C4.38897411 1.29265969 7.83099579 2.97353755 11.625 5.51953125 C12.66140625 6.21240234 13.6978125 6.90527344 14.765625 7.61914062 C16.36664063 8.70485352 16.36664063 8.70485352 18 9.8125 C19.06734375 10.52470703 20.1346875 11.23691406 21.234375 11.97070312 C24.17868429 13.95005533 27.09335793 15.96588882 30 18 C30.65355469 18.43231934 31.30710937 18.86463867 31.98046875 19.31005859 C36.62437145 22.6539552 37.68603307 26.69391699 39 32 C39.21269531 32.81726563 39.42539062 33.63453125 39.64453125 34.4765625 C44.4164228 53.62267952 46.70044944 72.92635208 47.65991211 92.59887695 C48.31542282 105.9634375 49.30461325 118.37025313 54 131 C54.30776367 131.84498047 54.61552734 132.68996094 54.93261719 133.56054688 C56.29286371 137.29356426 57.65984558 141.02388571 59.04614258 144.74731445 C64.99111011 160.8683271 70.92814497 179.67462714 70 197 C68.70722214 196.14751605 67.41587059 195.29286927 66.125 194.4375 C65.29613281 193.88835937 64.46726562 193.33921875 63.61328125 192.7734375 C61.94470555 191.64110063 60.29383652 190.48191021 58.66796875 189.2890625 C54.44781376 186.19568189 50.42285955 183.67804914 45.61206055 181.57788086 C37.6288662 178.02851518 34.18976483 174.1877403 31 166 C30.49210937 164.81664062 29.98421875 163.63328125 29.4609375 162.4140625 C21.01288261 142.48339068 18.65079429 123.37770837 17.4375 101.9375 C17.31111995 99.79228387 17.18417055 97.6471012 17.05664062 95.50195312 C16.09515118 79.19262496 16.09515118 79.19262496 15.74731445 71.64697266 C15.33863456 62.85008717 14.75822922 54.20143244 13.3125 45.5 C13.05521118 43.92762573 13.05521118 43.92762573 12.79272461 42.32348633 C10.48224044 29.03946517 6.36902697 16.45319568 0.8828125 4.15234375 C0 2 0 2 0 0 Z " fill="#F99746" transform="translate(372,170)"/>
<path d="M0 0 C1.07149292 -0.00961258 2.14298584 -0.01922516 3.24694824 -0.02912903 C6.69200871 -0.05369526 10.13689357 -0.06636962 13.58203125 -0.07421875 C14.75440338 -0.07750183 15.92677551 -0.08078491 17.13467407 -0.08416748 C31.87896286 -0.09751426 46.44760984 0.23103714 61.08203125 2.11328125 C61.76993744 2.20032318 62.45784363 2.28736511 63.16659546 2.37704468 C73.94108337 3.78483337 73.94108337 3.78483337 76.39453125 6.23828125 C75.82871338 6.30297607 75.26289551 6.3676709 74.67993164 6.43432617 C53.96320311 8.85145073 33.61272448 12.32671548 13.68164062 18.54492188 C9.19437024 19.90528139 4.66476722 21.11793231 0.14453125 22.36328125 C-10.89272431 25.4269632 -21.87741225 28.65740264 -32.85546875 31.92578125 C-33.64215942 32.1598468 -34.4288501 32.39391235 -35.23937988 32.6350708 C-42.66029185 34.84466819 -50.07500083 37.06710753 -57.46484375 39.37890625 C-77.57197233 45.58106603 -98.54697261 50.40027023 -119.66796875 50.55078125 C-120.78449829 50.55924072 -120.78449829 50.55924072 -121.92358398 50.56787109 C-125.62713867 50.51687104 -128.46151664 50.2879747 -131.60546875 48.23828125 C-129.40611711 41.8244652 -124.94910603 37.3240133 -120.60546875 32.23828125 C-119.86554688 31.32691406 -119.125625 30.41554687 -118.36328125 29.4765625 C-117.63882813 28.61417969 -116.914375 27.75179687 -116.16796875 26.86328125 C-115.52988281 26.09242188 -114.89179687 25.3215625 -114.234375 24.52734375 C-107.4669387 18.63474691 -98.87369183 16.10494745 -90.35546875 13.80078125 C-89.28699707 13.5078418 -88.21852539 13.21490234 -87.11767578 12.91308594 C-58.81135761 5.36527724 -29.35312286 0.22346844 0 0 Z " fill="#F99747" transform="translate(166.60546875,111.76171875)"/>
<path d="M0 0 C0.53367188 0.36351562 1.06734375 0.72703125 1.6171875 1.1015625 C21.73036652 14.67273866 41.74296946 21.23927786 65.24520874 26.42538452 C98.62847269 33.803001 125.66479054 47.02585977 152.05078125 69.03271484 C161.39550524 76.81642575 171.00593495 84.07037406 181 91 C181.82516113 91.57250488 182.65032227 92.14500977 183.50048828 92.73486328 C210.25138865 112.79017541 210.25138865 112.79017541 241 123 C241 123.33 241 123.66 241 124 C200.39448182 127.72714357 200.39448182 127.72714357 184 116 C182.52930001 115.01270465 181.05658104 114.02841129 179.58203125 113.046875 C171.3596005 107.48245328 163.55435857 101.44178735 156 95 C155.01128906 94.16082031 154.02257812 93.32164062 153.00390625 92.45703125 C152.4838501 92.01560791 151.96379395 91.57418457 151.42797852 91.11938477 C149.21438778 89.24300114 146.99668315 87.37153269 144.77734375 85.50195312 C143.56593078 84.4782426 142.3577192 83.45073449 141.15234375 82.41992188 C118.47146402 63.0689865 94.3674236 51.84799905 65.5625 44.5625 C37.50415386 37.43120381 16.61536415 26.17385647 0 2 C0 1.34 0 0.68 0 0 Z " fill="#E59D75" transform="translate(172,275)"/>
<path d="M0 0 C4.45251706 1.35757174 8.37187203 3.1254863 12.46484375 5.3359375 C13.06124161 5.65656158 13.65763947 5.97718567 14.27210999 6.30752563 C16.16299696 7.32559686 18.0502135 8.35027279 19.9375 9.375 C21.19964585 10.05510325 22.46201391 10.73479431 23.72460938 11.4140625 C26.12154473 12.70452305 28.51096264 14.00640478 30.89794922 15.31542969 C32.71741728 16.30349278 34.54819131 17.27203479 36.40283203 18.19238281 C40.81391622 20.4322546 40.81391622 20.4322546 41.765625 23.3359375 C41.84296875 24.21507812 41.9203125 25.09421875 42 26 C42.88414488 28.2215539 43.80518997 30.42856018 44.75 32.625 C54.71375077 56.82526138 56.40987111 82.32442587 57.5625 108.1875 C58.98233511 153.22650194 58.98233511 153.22650194 75.93359375 194.28515625 C77 196 77 196 77 198 C66.25058613 194.77517584 56.25160374 191.65568984 50.52734375 181.3828125 C45.56209833 170.38561932 42.1537307 159.03772027 41 147 C40.92402588 146.24960449 40.84805176 145.49920898 40.76977539 144.72607422 C40.14552929 138.03027025 39.81093097 131.33440521 39.53515625 124.6171875 C39.49629807 123.67158966 39.45743988 122.72599182 39.41740417 121.7517395 C39.2575181 117.80958389 39.10019388 113.86735918 38.95043945 109.92480469 C38.46200018 97.19783596 37.58505597 84.63767383 36 72 C35.85602783 70.73913574 35.71205566 69.47827148 35.5637207 68.17919922 C32.95456587 45.69746151 23.8711464 19.79208802 5.78515625 5.21484375 C4.37336673 4.16530602 2.94751538 3.13422798 1.50390625 2.12890625 C1.00761719 1.75636719 0.51132812 1.38382813 0 1 C0 0.67 0 0.34 0 0 Z " fill="#FDB182" transform="translate(332,148)"/>
<path d="M0 0 C6.40602497 4.56295075 12.25049389 9.63856002 18 15 C18.51320801 15.44448486 19.02641602 15.88896973 19.55517578 16.34692383 C21.32061029 18.36682195 21.72215279 19.89343031 22.31640625 22.5 C22.52330078 23.38816406 22.73019531 24.27632812 22.94335938 25.19140625 C23.14767578 26.11824219 23.35199219 27.04507813 23.5625 28 C23.87477539 29.34384766 23.87477539 29.34384766 24.19335938 30.71484375 C24.82411819 33.47120044 25.41964299 36.23261341 26 39 C26.18038818 39.84860596 26.36077637 40.69721191 26.54663086 41.5715332 C28.29577102 50.40166957 28.90428723 59.33813236 29.60180664 68.2980957 C30.78193519 83.26435045 32.97151123 97.3339384 38.1875 111.5 C38.98543302 113.7405089 39.78228198 115.98140412 40.578125 118.22265625 C40.97966797 119.3430127 41.38121094 120.46336914 41.79492188 121.61767578 C43.72699665 127.04048047 45.59325982 132.4842911 47.4375 137.9375 C47.93189575 139.36449219 47.93189575 139.36449219 48.4362793 140.8203125 C52.87193039 153.96160945 55.57704361 169.17892268 53 183 C50.59475711 186.90443312 48.12073801 189.02956774 44 191 C41.89448557 187.84172836 40.11770281 184.59110458 38.31640625 181.25390625 C37.0768182 178.97475409 37.0768182 178.97475409 35.390625 177.1328125 C33.47704104 174.19793374 33.46531902 171.79820258 33.1875 168.3125 C30.97327473 146.8259404 23.92665882 125.95388178 16.44921875 105.796875 C12.15787685 93.89757887 11.29385196 82.32426183 10.58203125 69.8046875 C9.34910515 48.2055489 6.87815082 27.47682001 0.953125 6.60546875 C0 3 0 3 0 0 Z " fill="#FDB182" transform="translate(408,193)"/>
<path d="M0 0 C2.30475464 2.09626199 3.58379347 3.89736312 4.76171875 6.7734375 C5.07181885 7.50957275 5.38191895 8.24570801 5.70141602 9.00415039 C6.02682373 9.78653076 6.35223145 10.56891113 6.6875 11.375 C10.15516062 19.42645184 14.0628555 26.73002959 19 34 C19.54011719 34.81855469 20.08023438 35.63710938 20.63671875 36.48046875 C29.6522552 49.16334206 43.18583815 56.12747077 58.25 58.6875 C67.17881498 60.06016367 76.17844457 60.49603219 85.1875 61 C119.64375215 62.93802819 146.48968866 74.34313971 171 99 C173.16493778 101.57111748 175.16195664 104.1865038 177 107 C171.67848552 105.48677313 167.30319383 103.01005579 162.5625 100.25 C154.57611094 95.71083221 146.63950751 92.12009643 138 89 C137.06800781 88.63390625 136.13601563 88.2678125 135.17578125 87.890625 C128.61388034 85.45682438 121.92477771 84.08777517 115.0625 82.8125 C114.16909912 82.64540527 113.27569824 82.47831055 112.35522461 82.30615234 C97.62004338 79.71391374 82.55030933 79.55499986 67.6328125 78.875 C62.47932783 78.63873709 57.32671775 78.39177183 52.1751709 78.11621094 C50.24494502 78.01308646 48.31438586 77.91624278 46.38378906 77.8203125 C45.4037793 77.75585938 44.42376953 77.69140625 43.4140625 77.625 C42.21064209 77.55152344 42.21064209 77.55152344 40.98291016 77.4765625 C38.52254994 76.88525209 37.64325041 75.88032305 36 74 C34.49361289 72.95796708 32.97094678 71.93928626 31.4375 70.9375 C13.53106649 58.45251943 4.66030609 40.73919625 0.625 19.75 C-0.29612393 13.1915976 -0.17593339 6.60727609 0 0 Z " fill="#E59D75" transform="translate(152,284)"/>
<path d="M0 0 C12.67067636 10.61896947 19.33330026 25.06121386 20.78515625 41.49609375 C21.30433433 53.17480921 21.29938842 64.89512145 19.78515625 76.49609375 C16.76553898 73.65019478 14.98180972 70.43232735 13.03515625 66.80859375 C10.67303096 62.44540773 8.52990992 59.01733787 4.78515625 55.68359375 C1.71968523 52.47346005 1.46852998 49.93123964 1.51489258 45.54174805 C1.5701491 44.05080001 1.63120212 42.56005572 1.69799805 41.06958008 C2.04038605 32.29504825 0.10029115 22.87522998 -5.6328125 15.9296875 C-12.21330653 9.96662254 -19.09802585 8.78391033 -27.78125 9.1484375 C-40.28716079 10.41467875 -53.17597146 15.92485376 -63.52734375 22.99609375 C-72.00092767 28.25913087 -83.78480843 23.79367952 -93.06958008 21.96704102 C-95.17178636 21.55478089 -97.2761032 21.15487337 -99.38085938 20.75585938 C-100.73061046 20.49421956 -102.08022528 20.23187562 -103.4296875 19.96875 C-104.6374585 19.73422119 -105.84522949 19.49969238 -107.08959961 19.25805664 C-109.76977412 18.60460577 -111.8402627 17.86419088 -114.21484375 16.49609375 C-84.25413698 0.51109669 -31.91024855 -23.91777508 0 0 Z " fill="#FDB182" transform="translate(289.21484375,192.50390625)"/>
<path d="M0 0 C6.36758906 5.84384797 9.5184146 14.64855187 10.16308594 23.15087891 C10.32615903 27.7763164 10.21359315 32.37808163 10 37 C0.18551612 41.0186549 -14.23580796 40.50078 -24.2265625 37.17578125 C-38.58607658 31.08815627 -50.59500751 23.71450234 -62 13 C-58.77874898 9.3740692 -55.1334481 7.20021597 -50.875 5 C-50.20774902 4.65114746 -49.54049805 4.30229492 -48.85302734 3.94287109 C-34.23938863 -3.59476411 -14.77232558 -11.12012701 0 0 Z " fill="#F89747" transform="translate(282,206)"/>
<path d="M0 0 C1.051875 1.07314453 1.051875 1.07314453 2.125 2.16796875 C12.75170983 12.77602213 24.49253911 20.70158737 37.875 27.5 C44.27171433 30.87647391 49.64962417 34.94887252 52 42 C53.84868526 65.03280001 39.70554497 82.21555024 25.55859375 98.875 C21.78115867 103.1997915 21.78115867 103.1997915 20 105 C19.67 105 19.34 105 19 105 C18.98018066 104.00371582 18.96036133 103.00743164 18.93994141 101.98095703 C18.77580611 94.01991175 18.57876612 86.06038046 18.328125 78.1015625 C18.3050528 77.33578888 18.28198059 76.57001526 18.25820923 75.78103638 C17.48981094 52.16767611 12.50827933 29.09313095 2.6015625 7.5625 C1.41203844 4.91653429 0.62450564 2.77558063 0 0 Z " fill="#FDB182" transform="translate(460,252)"/>
<path d="M0 0 C7.19419406 0.79047317 14.26449007 2.10038108 21.375 3.4375 C22.54289062 3.65470703 23.71078125 3.87191406 24.9140625 4.09570312 C27.20836268 4.52395534 29.50146435 4.9586872 31.79321289 5.40039062 C33.82062744 5.77947933 35.85359583 6.13084579 37.89233398 6.44335938 C43.38638185 7.33784612 46.36652943 8.45299183 50.3125 12.625 C61.3284376 23.37754669 78.11464842 33.89041662 94.04296875 34.02587891 C98.56086617 33.87173729 103.07124102 33.6952506 107.58203125 33.39453125 C115.75184571 33.13833498 115.75184571 33.13833498 119.1887207 35.51098633 C121.0641292 37.57081971 122.53827589 39.63023515 124 42 C124.45246094 42.70705078 124.90492188 43.41410156 125.37109375 44.14257812 C126.63004067 46.20947727 127.79452214 48.30460392 128.9375 50.4375 C129.33517578 51.15615234 129.73285156 51.87480469 130.14257812 52.61523438 C133 57.8235128 133 57.8235128 133 59 C104.34110823 61.05932156 73.04176521 46.45504297 48 34 C47.14873535 33.58250488 46.2974707 33.16500977 45.42041016 32.73486328 C29.85308454 25.0532763 12.75307623 16.08675864 1 3 C0.67 2.01 0.34 1.02 0 0 Z " fill="#E59D75" transform="translate(175,210)"/>
<path d="M0 0 C0.66 0 1.32 0 2 0 C5.15575671 12.32247857 6.80267854 22.71482149 0.7109375 34.4921875 C-7.5363021 47.59074452 -20.34032477 52.65483921 -35 56 C-40.64431968 56.81659456 -46.17720821 57.19242265 -51.875 57.31640625 C-52.68493408 57.33718735 -53.49486816 57.35796844 -54.3293457 57.37937927 C-56.88615424 57.44413656 -59.44305481 57.50341194 -62 57.5625 C-63.74610281 57.60575566 -65.49219672 57.64937204 -67.23828125 57.69335938 C-71.49209609 57.79974083 -75.74600236 57.90121018 -80 58 C-81.3410005 55.5664433 -82.67294856 53.12864699 -84 50.6875 C-84.3815625 49.99720703 -84.763125 49.30691406 -85.15625 48.59570312 C-88 43.33984375 -88 43.33984375 -88 40 C-86.33317469 40.1440088 -84.66654815 40.29031844 -83 40.4375 C-82.071875 40.51871094 -81.14375 40.59992188 -80.1875 40.68359375 C-77.89153156 40.91150238 -75.60104738 41.19730721 -73.31640625 41.51953125 C-54.49730762 43.89703303 -32.08152297 43.32121281 -16.25 31.75 C-6.01944674 23.26964721 -1.83436445 12.91296024 0 0 Z " fill="#E59D75" transform="translate(97,235)"/>
<path d="M0 0 C4.32118071 6.48177106 3.80356699 15.25350687 2.5390625 22.72265625 C0.14199705 31.84560535 -4.73455076 37.83202213 -12.7109375 42.75390625 C-22.04563726 47.83542369 -31.91644832 49.35512604 -42.4375 49.25 C-43.38890869 49.24613281 -44.34031738 49.24226563 -45.32055664 49.23828125 C-53.00857683 49.14601732 -60.5378277 48.45627348 -68.15234375 47.4375 C-71.84497999 47.01762664 -75.29404024 46.92269184 -79 47 C-79.67511172 44.29352533 -80.34027341 41.58522815 -81 38.875 C-81.28617187 37.73417969 -81.28617187 37.73417969 -81.578125 36.5703125 C-82.6127252 32.28411166 -83.2272711 28.44599099 -83 24 C-82.07960938 24.32613281 -81.15921875 24.65226562 -80.2109375 24.98828125 C-71.5481816 27.99960923 -63.02034028 30.27518041 -54 32 C-52.74896484 32.2784375 -52.74896484 32.2784375 -51.47265625 32.5625 C-38.92671453 34.78231907 -24.76381071 32.79081735 -14.1171875 25.65234375 C-7.16949802 20.23006949 -4.59724303 14.31617239 -2 6 C-1.5875 4.783125 -1.175 3.56625 -0.75 2.3125 C-0.37875 1.1678125 -0.37875 1.1678125 0 0 Z " fill="#E59D75" transform="translate(83,216)"/>
<path d="M0 0 C3.34305586 3.34305586 3.19754253 7.03880198 3.3125 11.625 C3.19506282 22.35092906 -1.51916979 30.57238174 -9.01171875 37.9921875 C-21.85636447 49.20126713 -38.11401625 53.69915885 -54.40063477 57.38793945 C-56.09773578 57.787548 -57.78499084 58.23238475 -59.45678711 58.72729492 C-63.54726106 59.87589829 -65.35749616 60.2443119 -69.44140625 58.69140625 C-70.98634766 57.63759766 -70.98634766 57.63759766 -72.5625 56.5625 C-73.11188232 56.19503662 -73.66126465 55.82757324 -74.22729492 55.44897461 C-78.76216132 52.35051533 -83.19001492 48.97113248 -87 45 C-87 44.67 -87 44.34 -87 44 C-86.27111572 43.95512451 -85.54223145 43.91024902 -84.79125977 43.86401367 C-50.94468891 42.1519043 -50.94468891 42.1519043 -20.05078125 29.33203125 C-18 28 -18 28 -15.85546875 27.07421875 C-13.4994686 25.71021866 -13.07230237 24.46720418 -12 22 C-11.098229 20.67722145 -10.18027731 19.36538839 -9.25 18.0625 C-5.40672565 12.4017166 -2.72652243 6.25553197 0 0 Z " fill="#E59D75" transform="translate(114,261)"/>
<path d="M0 0 C-18.82172393 21.34548326 -68.41430798 29.85021358 -95 32 C-98.67491275 32.12278945 -102.32570729 32.13497402 -106 32 C-93.23626175 12.95108761 -69.12874855 10.20252819 -48 6 C-14.8319677 -0.23542806 -14.8319677 -0.23542806 0 0 Z " fill="#FDB182" transform="translate(152,113)"/>
<path d="M0 0 C4.33533324 5.31342672 6.46656455 9.16962314 6.24609375 16.08203125 C5.67763674 20.51238667 3.28923446 22.72962866 0.125 25.6875 C-6.75110431 30.77581719 -14.57245828 31.80481299 -23 31 C-34.56232836 29.04347961 -44.61087368 25.38359384 -55 20 C-40.28704262 8.00495347 -18.14261777 3.64567969 0 0 Z " fill="#E59D75" transform="translate(63,205)"/>
<path d="M0 0 C2.76399725 4.14599588 2.3438271 7.49916076 2.3125 12.375 C2.30404053 13.72549438 2.30404053 13.72549438 2.29541016 15.10327148 C2.04810864 28.78688085 -1.14585086 40.98256403 -10.625 51.25 C-22.33427083 61.97792242 -22.33427083 61.97792242 -29.4765625 62.01171875 C-32.44222644 61.24441205 -35.15599513 60.14604306 -38 59 C-40.7453572 58.06668455 -43.50115892 57.16862933 -46.25805664 56.27001953 C-50.51606392 54.87824484 -54.75797292 53.4396073 -59 52 C-58.67 51.34 -58.34 50.68 -58 50 C-55.53348306 49.45388554 -53.11674255 49.01396457 -50.625 48.625 C-35.38022878 45.98042981 -21.06796295 40.01772067 -11.125 27.671875 C-5.82156434 20.03675642 -3.45465827 11.84488434 -1 3 C-0.67 2.01 -0.34 1.02 0 0 Z " fill="#E59D75" transform="translate(129,278)"/>
<path d="M0 0 C7.51481571 0.72827287 14.8877551 1.95315605 22.3125 3.3125 C23.45912109 3.51294922 24.60574219 3.71339844 25.78710938 3.91992188 C41.91848583 6.86866811 57.06306684 12.34727954 69 24 C69 24.33 69 24.66 69 25 C49.16556488 30.06063777 31.13749908 23.29722168 14.2578125 13.390625 C9.17322145 10.11818924 4.16435314 6.40264038 0 2 C0 1.34 0 0.68 0 0 Z " fill="#E88B46" transform="translate(222,219)"/>
<path d="M0 0 C10.43188182 3.91710977 23.07802309 9.08517502 29 19 C31.67369294 27.02107883 30.67960305 36.33512934 27.4765625 44.0546875 C19.22310757 60.51792829 19.22310757 60.51792829 14 64 C14.01571045 63.28569824 14.0314209 62.57139648 14.04760742 61.83544922 C14.4923148 38.54178951 11.93765741 20.47041597 0 0 Z " fill="#F99848" transform="translate(482,272)"/>
<path d="M0 0 C2.31361802 3.47042703 2.51020728 4.91834173 2 9 C-0.73105862 11.5966441 -2.69411376 12.43118738 -6.4375 12.4375 C-12.95136114 12.27197588 -18.90104049 10.14132748 -25 8 C-25 7.34 -25 6.68 -25 6 C-22.41767086 5.01811439 -19.83421317 4.03940411 -17.25 3.0625 C-16.15558594 2.64581055 -16.15558594 2.64581055 -15.0390625 2.22070312 C-14.33007812 1.95322266 -13.62109375 1.68574219 -12.890625 1.41015625 C-11.91657715 1.04096069 -11.91657715 1.04096069 -10.92285156 0.66430664 C-6.90064924 -0.72528357 -4.16330376 -1.3147275 0 0 Z " fill="#E88B47" transform="translate(50,210)"/>
<path d="M0 0 C0.99 0.33 1.98 0.66 3 1 C0.36 3.64 -2.28 6.28 -5 9 C-5 4.61031544 -2.87194899 3.23094261 0 0 Z " fill="#FA9C58" transform="translate(45,145)"/>
</svg>
