<?xml version="1.0" encoding="UTF-8"?>
<svg version="1.1" xmlns="http://www.w3.org/2000/svg" width="512" height="512">
<path d="M0 0 C17.62421815 11.4423676 37.44964551 39.91889063 42.375 60.375 C41.47170495 69.10685212 32.07253835 74.80688736 25.65625 80.07421875 C3.76141754 97.75072615 -19.87083586 113.36236534 -42.95874023 129.40673828 C-43.86180908 130.03435059 -44.76487793 130.66196289 -45.6953125 131.30859375 C-46.47922363 131.85314209 -47.26313477 132.39769043 -48.07080078 132.95874023 C-52.38544807 135.96547186 -56.69247497 138.98307697 -61 142 C-60.28401138 141.85045868 -59.56802277 141.70091736 -58.83033752 141.54684448 C2.24786725 128.79714589 2.24786725 128.79714589 22.0625 125.1875 C23.33988037 124.95208496 24.61726074 124.71666992 25.93334961 124.47412109 C31.04953734 123.56376229 35.78965466 122.89490047 41 123 C44.34153614 129.68829834 46.20115542 136.2550374 47.6875 143.5625 C47.89955078 144.55185547 48.11160156 145.54121094 48.33007812 146.56054688 C50.42638673 156.52627894 51.20421736 165.94980785 51.25 176.125 C51.2809375 177.85556641 51.2809375 177.85556641 51.3125 179.62109375 C51.36109541 190.15414885 51.36109541 190.15414885 48 195 C45.59466244 197.40533756 44.4881862 197.45271872 41.17871094 197.98632812 C40.16438995 198.15450546 39.15006897 198.3226828 38.10501099 198.49595642 C36.99270111 198.6726033 35.88039124 198.84925018 34.734375 199.03125 C32.33538215 199.42806155 29.93645937 199.82529686 27.53759766 200.22290039 C25.63340057 200.53446579 25.63340057 200.53446579 23.69073486 200.85232544 C-3.73992944 205.36065804 -30.93204485 210.64719787 -58 217 C-58.82761841 217.19400391 -59.65523682 217.38800781 -60.50793457 217.58789062 C-81.91438809 222.62395514 -103.03038169 228.36701986 -124 235 C-125.15290527 235.36061523 -126.30581055 235.72123047 -127.49365234 236.09277344 C-150.07257942 243.1947505 -172.11845947 251.79626152 -193 263 C-193.5966748 263.31501465 -194.19334961 263.6300293 -194.80810547 263.95458984 C-210.61307671 272.35297612 -221.77569412 282.26865938 -233 296 C-234.15650517 297.39409832 -235.31407182 298.7873167 -236.47265625 300.1796875 C-239.41962852 303.73051739 -242.34621575 307.29745245 -245.26367188 310.87255859 C-246.9803268 312.97589535 -248.70092147 315.07596109 -250.421875 317.17578125 C-256.18158563 324.21785204 -261.84240265 331.3164288 -267.359375 338.55078125 C-269.85423353 341.82073216 -272.38622668 345.06087977 -274.91992188 348.30078125 C-282.44186932 357.92554936 -289.79519017 367.66886333 -297.10009766 377.45898438 C-299.00233166 380.00311847 -300.91198596 382.54149963 -302.82421875 385.078125 C-309.35901704 393.75126474 -315.82561978 402.46462494 -322.15893555 411.28613281 C-325.4628098 415.88502083 -328.80454353 420.45300452 -332.17749023 425.00146484 C-339.36604559 434.69589336 -346.33377315 444.52849048 -353.21923828 454.43994141 C-356.28149593 458.84230413 -359.36046776 463.23295787 -362.4375 467.625 C-363.54043981 469.20046817 -364.64330691 470.77598725 -365.74609375 472.3515625 C-366.53765869 473.48029785 -366.53765869 473.48029785 -367.34521484 474.63183594 C-368.52778115 476.32420731 -369.7045501 478.02063565 -370.87744141 479.71972656 C-371.8062915 481.06115723 -371.8062915 481.06115723 -372.75390625 482.4296875 C-373.59610718 483.65147705 -373.59610718 483.65147705 -374.45532227 484.89794922 C-378.1511026 489.92729467 -381.94069931 491.80800642 -388 493 C-406.01505131 495.2018396 -424.79432701 485.60099046 -438.6171875 474.9140625 C-439.40351563 474.28242188 -440.18984375 473.65078125 -441 473 C-442.05574219 472.20722656 -442.05574219 472.20722656 -443.1328125 471.3984375 C-451.17979638 464.9924072 -459.47724335 454.4055038 -461 444 C-462.11855697 433.00085647 -461.09081517 425.49858195 -455 416 C-451.78595399 412.12262602 -448.27367946 408.65374548 -444.625 405.1875 C-443.7175 404.29869141 -442.81 403.40988281 -441.875 402.49414062 C-437.32617596 398.06657486 -432.6831229 393.78305822 -427.87646484 389.63793945 C-424.67341673 386.84204434 -421.59350008 383.91585194 -418.5 381 C-414.09024435 376.86267839 -409.66125621 372.77360318 -405.078125 368.828125 C-401.6333138 365.79772718 -398.28471699 362.66305985 -394.91967773 359.54467773 C-390.8252121 355.75319901 -386.6914128 352.00889179 -382.53515625 348.28515625 C-379.63086734 345.66726871 -376.75229225 343.02246797 -373.875 340.375 C-370.63788971 337.39775181 -367.3886208 334.44046979 -364.0625 331.5625 C-358.81963835 327.01434466 -353.76224274 322.26285057 -348.67138672 317.54638672 C-346.05791561 315.12837241 -343.43655631 312.71901797 -340.8125 310.3125 C-340.31363281 309.85488281 -339.81476563 309.39726562 -339.30078125 308.92578125 C-336.30213783 306.17965517 -333.28256762 303.45855371 -330.25 300.75 C-325.10456997 296.13400329 -320.07335144 291.39971595 -315.03979492 286.66259766 C-310.91212337 282.78111415 -306.75563076 278.93557077 -302.5625 275.125 C-298.35570938 271.2882248 -294.28912079 267.35543367 -290.328125 263.265625 C-288.38259136 261.37232045 -286.40277084 259.60240569 -284.34765625 257.83203125 C-271.89502394 247.0093095 -260.06100699 235.14114871 -250.32128906 221.80078125 C-248.80612941 219.7357743 -247.26022246 217.69576979 -245.7109375 215.65625 C-240.42512618 209.09740615 -240.42512618 209.09740615 -236 202 C-235.34 202 -234.68 202 -234 202 C-233.82476807 201.27369385 -233.64953613 200.5473877 -233.46899414 199.79907227 C-231.93544565 193.54197369 -230.25008662 187.35915601 -228.40234375 181.18823242 C-220.42322446 154.305142 -214.55423477 126.91073128 -209.015625 99.4375 C-208.7535022 98.1380844 -208.7535022 98.1380844 -208.48608398 96.81241798 C-206.71168306 88.00975135 -204.94840432 79.20500985 -203.21202087 70.39476109 C-197.17066406 39.76647982 -197.17066406 39.76647982 -193.765625 26.92578125 C-193.43132477 25.63392159 -193.43132477 25.63392159 -193.090271 24.31596375 C-191.81174438 19.74597345 -190.41042895 16.46163534 -187 13 C-166.65104446 2.65307346 -131.23810209 -0.65626453 -109 3 C-108.67 3.33 -108.34 3.66 -108 4 C-108.01059354 6.89242165 -108.09657526 9.74239376 -108.24609375 12.62890625 C-108.31466835 13.96545006 -108.31466835 13.96545006 -108.3846283 15.32899475 C-109.01001536 25.94479188 -110.52896249 36.42194049 -112.0625 46.9375 C-112.48673647 49.88977055 -112.90835846 52.84237613 -113.32627869 55.79554749 C-113.58370449 57.61029188 -113.8450081 59.42449197 -114.1108551 61.23802185 C-114.67720565 65.19135116 -115.16731093 68.99323568 -115 73 C-114.54898926 72.67427002 -114.09797852 72.34854004 -113.63330078 72.01293945 C-106.56542969 66.90836589 -99.49755859 61.80379232 -92.4296875 56.69921875 C-91.6977417 56.17054199 -90.9657959 55.64186523 -90.21166992 55.09716797 C-88.72243768 54.02171181 -87.23301336 52.9465216 -85.7434082 51.87158203 C-82.04973368 49.2056329 -78.35918333 46.53559657 -74.67578125 43.85546875 C-10.26036716 -2.9605012 -10.26036716 -2.9605012 0 0 Z " fill="#557939" transform="translate(461,10)"/>
<path d="M0 0 C17.62421815 11.4423676 37.44964551 39.91889063 42.375 60.375 C41.47170495 69.10685212 32.07253835 74.80688736 25.65625 80.07421875 C6.59892478 95.45990169 -13.85457755 109.14853235 -33.9375 123.13671875 C-34.92830566 123.82749512 -35.91911133 124.51827148 -36.93994141 125.22998047 C-38.93553993 126.6163997 -40.93522052 127.99696192 -42.93896484 129.37158203 C-48.76437182 133.35224274 -48.76437182 133.35224274 -54.2890625 137.73046875 C-65.30570968 146.74549976 -80.42597422 148.84168707 -94 152 C-94.89428711 152.20963379 -95.78857422 152.41926758 -96.70996094 152.63525391 C-99.50194664 153.28758151 -102.29448563 153.9368656 -105.09082031 154.5703125 C-111.15255291 155.96800523 -117.07948889 157.75883825 -123.02270508 159.58959961 C-127.57657855 160.98817555 -132.1358019 162.32437523 -136.73828125 163.5546875 C-169.68025433 172.37052307 -203.85562641 183.98263166 -233 202 C-234.53934546 198.92130907 -233.24007676 196.94085127 -232.2265625 193.703125 C-231.8140061 192.3598627 -231.40200573 191.01642953 -230.99047852 189.67285156 C-230.768367 188.95552856 -230.54625549 188.23820557 -230.31741333 187.49914551 C-219.86180732 153.53651325 -213.0308749 118.79418963 -206.02180481 83.99234009 C-203.95577695 73.7493066 -201.85318954 63.5144732 -199.68823242 53.29187012 C-199.32057339 51.5510277 -198.95569945 49.80959408 -198.59399414 48.06750488 C-196.84813083 39.66704095 -194.96145658 31.32470671 -192.5546875 23.0859375 C-192.28375778 22.09867172 -192.28375778 22.09867172 -192.00735474 21.09146118 C-190.64049298 16.64435169 -188.90266144 14.4908555 -185 12 C-182.25936908 11.00340694 -179.68861451 10.20019787 -176.875 9.5 C-176.05878174 9.2927832 -175.24256348 9.08556641 -174.40161133 8.87207031 C-153.86906032 3.91220504 -130.09381214 -0.51165389 -109 3 C-108.505 3.495 -108.505 3.495 -108 4 C-108.01059354 6.89242165 -108.09657526 9.74239376 -108.24609375 12.62890625 C-108.29181015 13.51993546 -108.33752655 14.41096466 -108.3846283 15.32899475 C-109.01001536 25.94479188 -110.52896249 36.42194049 -112.0625 46.9375 C-112.48673647 49.88977055 -112.90835846 52.84237613 -113.32627869 55.79554749 C-113.58370449 57.61029188 -113.8450081 59.42449197 -114.1108551 61.23802185 C-114.67720565 65.19135116 -115.16731093 68.99323568 -115 73 C-114.54898926 72.67427002 -114.09797852 72.34854004 -113.63330078 72.01293945 C-106.56542969 66.90836589 -99.49755859 61.80379232 -92.4296875 56.69921875 C-91.6977417 56.17054199 -90.9657959 55.64186523 -90.21166992 55.09716797 C-88.72243768 54.02171181 -87.23301336 52.9465216 -85.7434082 51.87158203 C-82.04973368 49.2056329 -78.35918333 46.53559657 -74.67578125 43.85546875 C-10.26036716 -2.9605012 -10.26036716 -2.9605012 0 0 Z " fill="#2B8644" transform="translate(461,10)"/>
<path d="M0 0 C17.62421815 11.4423676 37.44964551 39.91889063 42.375 60.375 C41.47170495 69.10685212 32.07253835 74.80688736 25.65625 80.07421875 C6.59892478 95.45990169 -13.85457755 109.14853235 -33.9375 123.13671875 C-34.92830566 123.82749512 -35.91911133 124.51827148 -36.93994141 125.22998047 C-38.93553993 126.6163997 -40.93522052 127.99696192 -42.93896484 129.37158203 C-48.76437182 133.35224274 -48.76437182 133.35224274 -54.2890625 137.73046875 C-65.30570968 146.74549976 -80.42597422 148.84168707 -94 152 C-94.89428711 152.20963379 -95.78857422 152.41926758 -96.70996094 152.63525391 C-100.12187976 153.43242447 -103.53587474 154.21807571 -106.953125 154.9921875 C-112.87590298 156.40537313 -118.68488112 158.24970344 -124.49267578 160.07080078 C-125.29688965 160.32071777 -126.10110352 160.57063477 -126.9296875 160.828125 C-127.64366699 161.0540332 -128.35764648 161.27994141 -129.09326172 161.51269531 C-131 162 -131 162 -134 162 C-133.65388672 160.50339844 -133.65388672 160.50339844 -133.30078125 158.9765625 C-129.37755556 141.80196157 -126.00746072 124.53472567 -123.265625 107.1328125 C-122.96014189 105.216781 -122.65455876 103.30076544 -122.34887695 101.38476562 C-121.74280163 97.58137846 -121.15919142 93.77536181 -120.58666992 89.96679688 C-120.30724175 88.19909783 -120.02708231 86.43151418 -119.74609375 84.6640625 C-119.62949402 83.84849884 -119.51289429 83.03293518 -119.39276123 82.19265747 C-118.63601249 77.56524532 -117.87972624 74.97842562 -114 72 C-113.42942871 71.55470947 -112.85885742 71.10941895 -112.27099609 70.65063477 C-111.40595459 70.05206665 -111.40595459 70.05206665 -110.5234375 69.44140625 C-109.862229 68.98000244 -109.20102051 68.51859863 -108.51977539 68.04321289 C-107.81199951 67.55457764 -107.10422363 67.06594238 -106.375 66.5625 C-104.83923158 65.49045978 -103.30409561 64.41751305 -101.76953125 63.34375 C-100.9801416 62.79203125 -100.19075195 62.2403125 -99.37744141 61.671875 C-95.58140883 59.00241196 -91.82097237 56.28447901 -88.0625 53.5625 C-87.31363525 53.02093262 -86.56477051 52.47936523 -85.79321289 51.92138672 C-82.08244133 49.23645714 -78.37557776 46.54623291 -74.671875 43.8515625 C-10.24776312 -2.95686446 -10.24776312 -2.95686446 0 0 Z " fill="#2B5629" transform="translate(461,10)"/>
<path d="M0 0 C21.341274 6.55029202 41.56329807 16.10573231 59.5 29.4375 C58.17853252 33.13475392 56.56692831 35.93613747 54.15625 39.02734375 C53.49214111 39.88674561 52.82803223 40.74614746 52.14379883 41.6315918 C51.08261841 42.98957886 51.08261841 42.98957886 50 44.375 C48.53359364 46.27483658 47.06874772 48.17587862 45.60546875 50.078125 C44.89567871 51.00044922 44.18588867 51.92277344 43.45458984 52.87304688 C41.01014945 56.08019176 38.63887459 59.33156407 36.3125 62.625 C35.92940674 63.16729248 35.54631348 63.70958496 35.15161133 64.26831055 C34.36146978 65.38810185 33.57168067 66.50814192 32.78222656 67.62841797 C30.27511428 71.16568035 27.72857207 74.67459904 25.1875 78.1875 C24.63868164 78.94716064 24.08986328 79.70682129 23.52441406 80.48950195 C20.77816543 84.29024273 18.02833262 88.08833431 15.2734375 91.8828125 C9.62316672 99.67246445 4.02249146 107.49412746 -1.5 115.375 C-2.07806396 116.1992749 -2.65612793 117.0235498 -3.25170898 117.87280273 C-6.2314711 122.13751184 -9.17220912 126.42409211 -12.0625 130.75 C-12.64 131.60988525 -13.2175 132.46977051 -13.8125 133.35571289 C-14.90383758 134.98498264 -15.98770879 136.61928934 -17.0625 138.25952148 C-20.80539632 143.84036022 -24.35524712 148.16750364 -30.75 150.75 C-48.26991766 153.9619849 -65.17481249 146.76884826 -79.66796875 137.38671875 C-82.35122625 135.48068066 -84.9344478 133.49835341 -87.5 131.4375 C-88.20382813 130.90898437 -88.90765625 130.38046875 -89.6328125 129.8359375 C-97.67979638 123.4299072 -105.97724335 112.8430038 -107.5 102.4375 C-108.61855697 91.43835647 -107.59081517 83.93608195 -101.5 74.4375 C-98.28595399 70.56012602 -94.77367946 67.09124548 -91.125 63.625 C-90.2175 62.73619141 -89.31 61.84738281 -88.375 60.93164062 C-83.82617596 56.50407486 -79.1831229 52.22055822 -74.37646484 48.07543945 C-71.17341673 45.27954434 -68.09350008 42.35335194 -65 39.4375 C-60.59024435 35.30017839 -56.16125621 31.21110318 -51.578125 27.265625 C-48.71485607 24.74680947 -45.92217018 22.15428496 -43.125 19.5625 C-38.37330938 15.16091236 -33.6215506 10.76211987 -28.75390625 6.48828125 C-26.48462978 4.48445916 -26.48462978 4.48445916 -24.52734375 2.29296875 C-17.22224982 -5.31212904 -9.35160324 -2.42041496 0 0 Z " fill="#E0DCCF" transform="translate(107.5,351.5625)"/>
<path d="M0 0 C5.93638285 4.93089795 11.42226023 10.22964797 16.875 15.6875 C17.76396973 16.57727539 18.65293945 17.46705078 19.56884766 18.38378906 C25.45157991 24.32180405 30.99614546 30.2936846 36 37 C36.91845703 38.20462891 36.91845703 38.20462891 37.85546875 39.43359375 C39.25265099 41.27838586 40.6309237 43.13438933 42 45 C41.22398437 45.88558594 40.44796875 46.77117187 39.6484375 47.68359375 C31.84830366 56.6163598 24.23398277 65.68479018 16.73632812 74.87255859 C15.0196732 76.97589535 13.29907853 79.07596109 11.578125 81.17578125 C5.82668183 88.20774389 0.1736833 95.29600561 -5.3359375 102.51953125 C-8.54542559 106.72596195 -11.80754221 110.89123239 -15.0625 115.0625 C-20.45670519 121.98237583 -25.77548713 128.95105407 -31 136 C-31.6084375 135.59910156 -32.216875 135.19820312 -32.84375 134.78515625 C-56.47109566 119.46212767 -81.02974827 107.68006181 -109 103 C-107.89388002 101.89388002 -106.7873709 100.7881481 -105.6796875 99.68359375 C-104.42982266 98.43082224 -103.18597249 97.17204426 -101.9453125 95.91015625 C-97.89992505 91.81577622 -93.79800283 87.89005464 -89.4296875 84.14453125 C-85.41316265 80.59939918 -81.52837343 76.91209556 -77.63037109 73.23754883 C-74.48406526 70.28108479 -71.30797837 67.37657322 -68.046875 64.546875 C-63.8411754 60.8913396 -59.79096235 57.08583024 -55.75 53.25 C-50.70483063 48.47746806 -45.64153139 43.73109157 -40.5 39.0625 C-36.31309077 35.24737916 -32.26876271 31.33441353 -28.328125 27.265625 C-26.37727798 25.36714971 -24.39085075 23.5970021 -22.328125 21.82421875 C-17.49247415 17.62649578 -13.00210218 13.11226287 -8.5 8.5625 C-7.26636719 7.32209961 -7.26636719 7.32209961 -6.0078125 6.05664062 C-4.00287887 4.04005041 -2.00033747 2.02114764 0 0 Z " fill="#B9D332" transform="translate(199,246)"/>
</svg>
