<?xml version="1.0" encoding="UTF-8"?>
<svg id="Layer_1" xmlns="http://www.w3.org/2000/svg" viewBox="0 0 307.13 667">
  <defs>
    <style>
      .cls-1 {
        fill: #c6effc;
      }

      .cls-2 {
        fill: #73d3fa;
      }

      .cls-3 {
        fill: #fefefe;
      }
    </style>
  </defs>
  <path class="cls-1" d="M219.03,55.98c7.78-.78,14.83.1,17.24,9.15,1.98,7.46-4.11,10.24-8.61,13.95-14.35,11.85-13.79,25.93,2.59,36.35,26.38,16.77,47.48,38.25,58.93,67.42,13.33,33.97,14.42,70.45,17.84,106.26.69,7.21-1.99,17.55-7.03,21.98-16.36,14.4-14.49,32.55-14.47,50.92.1,86.62.08,173.24.02,259.86-.02,31.4-12.99,44.84-44.13,44.96-60.12.23-120.25.19-180.37.02-30.79-.09-44.92-14.1-44.97-44.78-.15-92.57-.13-185.15.04-277.72.02-11.44.07-22.15-9.43-30.87-4.22-3.88-6.23-10.04-6.46-16.25-1.38-37.84,3.45-75.22,14.95-110.94,9.77-30.36,31.59-52.93,58.78-69.86,18.07-11.26,19.03-24.38,2.94-38.02-3.95-3.35-9.79-6.33-7.49-12.52,2.82-7.6,9.26-10.82,17.49-9.91,44.05,0,88.09,0,132.14,0ZM47.6,461.56c0,46.9-.11,93.81.05,140.71.07,21.75,6.82,28.67,28.11,28.74,50.17.17,100.34.19,150.5,0,23.29-.09,27.78-4.7,27.8-27.86.08-87.86.16-175.73-.08-263.59-.05-16.03-1.11-31.62,14.49-42.36,6-4.13,5.77-11.65,5.17-18.29-1.3-14.41-2.82-28.8-4.59-43.16-1.16-9.42-6.73-13.05-16.37-13.02-66.67.26-133.34.27-200.01,0-9.2-.04-13.29,3.46-13.81,12.39-1.43,24.43-16.97,49.9,6.66,72.52,3.22,3.08,1.98,11.32,2,17.17.14,45.58.08,91.17.09,136.75ZM153.83,131.3c0,.06,0,.12,0,.18-11.86,0-23.8-.86-35.57.23-13.44,1.24-22.28,9.62-22.4,23.23-.12,13.6,8.53,22.85,21.95,23.54,23.01,1.17,46.16,1.28,69.17.06,15.42-.81,24.13-11.31,22.82-26.71-1.16-13.57-10.37-20.58-24.32-20.53-10.55.03-21.09,0-31.64,0Z"/>
  <path class="cls-2" d="M219.03,55.98c-44.04,0-88.09,0-132.14,0C86.67-10.25,79.82,1.19,142.05.18c19.16-.31,38.34.36,57.48-.16,14.49-.4,20.54,6.01,19.88,20.26-.55,11.88-.29,23.8-.39,35.7Z"/>
  <path class="cls-2" d="M47.6,461.56c0-45.58.05-91.17-.08-136.75-.02-5.85,1.22-14.09-2-17.17-23.63-22.62-8.09-48.09-6.66-72.52.52-8.93,4.62-12.42,13.81-12.39,66.67.27,133.34.27,200.01,0,9.64-.04,15.2,3.6,16.37,13.02,1.77,14.36,3.29,28.75,4.59,43.16.6,6.64.83,14.16-5.17,18.29-15.6,10.74-14.53,26.34-14.49,42.36.25,87.86.17,175.73.08,263.59-.02,23.16-4.51,27.76-27.8,27.86-50.17.2-100.34.17-150.5,0-21.29-.07-28.03-6.99-28.11-28.74-.16-46.9-.05-93.81-.06-140.71Z"/>
  <path class="cls-3" d="M153.83,131.3c10.55,0,21.09.03,31.64,0,13.95-.05,23.16,6.96,24.32,20.53,1.31,15.4-7.4,25.9-22.82,26.71-23,1.21-46.16,1.11-69.17-.06-13.42-.68-22.07-9.94-21.95-23.54.12-13.61,8.96-22,22.4-23.23,11.76-1.08,23.7-.23,35.57-.23,0-.06,0-.12,0-.18Z"/>
</svg>