<?xml version="1.0" encoding="UTF-8"?>
<svg version="1.1" xmlns="http://www.w3.org/2000/svg" width="512" height="512">
<path d="M0 0 C7.19105246 4.61312799 11.21571584 11.27993347 13.16015625 19.5 C14.06992256 23.78499091 14.83658299 28.09100969 15.56201172 32.41064453 C15.98704239 34.92339551 16.44279687 37.42840632 16.91015625 39.93359375 C19 51.26137571 19 51.26137571 19 56 C19.60473145 55.98428955 20.20946289 55.9685791 20.83251953 55.95239258 C23.59658296 55.8896812 26.36049621 55.85089589 29.125 55.8125 C30.07632813 55.78736328 31.02765625 55.76222656 32.0078125 55.73632812 C37.41637479 55.67998893 41.41717559 55.789237 46 59 C49.56439272 62.73021825 50.50233335 65.02746365 50.51757812 70.16381836 C50.53018677 71.38536118 50.54279541 72.60690399 50.55578613 73.86546326 C50.54768921 75.17700882 50.53959229 76.48855438 50.53125 77.83984375 C50.5339472 79.20838191 50.53783152 80.5769182 50.54284668 81.94544983 C50.54873317 84.80944112 50.5402085 87.67293225 50.52148438 90.53686523 C50.49871579 94.19661085 50.51180827 97.85518163 50.53577423 101.514884 C50.55027437 104.34005986 50.54560683 107.16496027 50.53526306 109.99014473 C50.53131969 111.99196769 50.54340884 113.99380163 50.55578613 115.99559021 C50.43951268 127.2893919 50.43951268 127.2893919 46 132 C42.80759585 134.29370214 39.61172382 134.37314845 35.75 134.625 C34.67234375 134.69976562 33.5946875 134.77453125 32.484375 134.8515625 C31.66453125 134.90054688 30.8446875 134.94953125 30 135 C30.50748779 135.3717334 31.01497559 135.7434668 31.5378418 136.12646484 C37.37014791 140.40203998 43.18918639 144.69526618 49 149 C49.6914209 149.51079102 50.3828418 150.02158203 51.09521484 150.54785156 C52.86144257 151.8570833 54.61966393 153.17621793 56.375 154.5 C57.35210937 155.2321875 58.32921875 155.964375 59.3359375 156.71875 C63.22268616 160.04699225 66.15558525 163.73337788 69 168 C69.433125 167.030625 69.86625 166.06125 70.3125 165.0625 C76.59210265 154.26674476 91.06172664 146.70444 100.97631836 139.48291016 C102.99551039 138.00328989 105.00018872 136.50568084 107 135 C106.19175781 134.96261719 105.38351563 134.92523438 104.55078125 134.88671875 C102.94783203 134.78810547 102.94783203 134.78810547 101.3125 134.6875 C99.72888672 134.60048828 99.72888672 134.60048828 98.11328125 134.51171875 C94.62243954 133.93794176 92.76153897 133.20640848 90 131 C87.53150192 126.82957188 86.62115214 123.73205475 86.59594727 118.90625 C86.57692101 117.13411133 86.57692101 117.13411133 86.55751038 115.32617188 C86.56044601 114.06353516 86.56338165 112.80089844 86.56640625 111.5 C86.5611644 110.19095703 86.55592255 108.88191406 86.55052185 107.53320312 C86.54161366 104.7694328 86.54398795 102.00595181 86.55395508 99.2421875 C86.56545166 95.71141521 86.54521287 92.18164208 86.51603794 88.65100098 C86.4932182 85.26728188 86.50014457 81.88379411 86.50390625 78.5 C86.49267227 77.23736328 86.48143829 75.97472656 86.46986389 74.67382812 C86.55666794 63.74182943 86.55666794 63.74182943 91 59 C96.26509479 55.18320636 101.64466793 55.6478774 107.875 55.8125 C108.84953125 55.82603516 109.8240625 55.83957031 110.828125 55.85351562 C113.21932863 55.88868038 115.60936975 55.9378933 118 56 C118.16604736 54.95658447 118.33209473 53.91316895 118.50317383 52.83813477 C119.12738534 48.92868039 119.76159726 45.02090083 120.39868164 41.11352539 C120.67187636 39.42938874 120.9424382 37.74482262 121.21020508 36.05981445 C125.24972534 10.67176815 125.24972534 10.67176815 136 1 C143.52617025 -4.01744683 151.16322127 -4.76367224 160 -4 C168.52966559 -1.97145489 174.82290677 2.86033019 180.1015625 9.73828125 C182.2087397 13.35863714 183.19146739 16.754182 184 20.8125 C184.15952148 21.56644043 184.31904297 22.32038086 184.48339844 23.09716797 C186.71484154 33.9912211 188.3384403 45.00752709 190 56 C190.60473145 55.98428955 191.20946289 55.9685791 191.83251953 55.95239258 C194.59658296 55.8896812 197.36049621 55.85089589 200.125 55.8125 C201.07632812 55.78736328 202.02765625 55.76222656 203.0078125 55.73632812 C208.39080902 55.68025524 212.48323552 55.72568897 217 59 C222.35127166 64.70524206 221.56248368 71.05475794 221.49609375 78.53515625 C221.49754898 79.84657089 221.49900421 81.15798553 221.50050354 82.50914001 C221.5018838 85.27721371 221.48939169 88.0447669 221.46655273 90.81274414 C221.43814041 94.35247225 221.4409175 97.8913382 221.45364285 101.43113041 C221.46228651 104.820062 221.44714947 108.20873919 221.43359375 111.59765625 C221.43652939 112.86545425 221.43946503 114.13325226 221.44248962 115.43946838 C221.42980545 116.6209697 221.41712128 117.80247101 221.40405273 119.01977539 C221.39864975 120.05646866 221.39324677 121.09316193 221.38768005 122.16127014 C220.80577231 126.42220351 218.8206688 129.04696527 216.0625 132.25 C212.67383765 134.18637849 210.6603938 134.35034339 206.80859375 134.609375 C205.17942017 134.72490723 205.17942017 134.72490723 203.51733398 134.84277344 C202.68661377 134.8946582 201.85589355 134.94654297 201 135 C203.28619078 136.74484291 205.57270966 138.48925339 207.85961914 140.2331543 C209.7916187 141.70659158 211.72309407 143.18071645 213.65405273 144.65551758 C219.75918333 149.31408829 219.75918333 149.31408829 225.92578125 153.890625 C226.96089844 154.64859375 227.99601562 155.4065625 229.0625 156.1875 C229.94035156 156.82042969 230.81820313 157.45335937 231.72265625 158.10546875 C235.17753152 160.97959312 237.572705 163.71811501 239 168 C239.30550781 167.52691406 239.61101562 167.05382812 239.92578125 166.56640625 C249.00183814 153.45086488 264.86530039 143.7564664 278 135 C277.20335937 134.97421875 276.40671875 134.9484375 275.5859375 134.921875 C264.71178685 134.33980368 264.71178685 134.33980368 260 130 C257.85246988 126.65577367 257.73252325 123.87995549 257.69360352 119.94970703 C257.67761612 118.72808868 257.66162872 117.50647034 257.64515686 116.24783325 C257.63711281 114.27277298 257.63711281 114.27277298 257.62890625 112.2578125 C257.61993428 110.88784693 257.61081233 109.51788233 257.60154724 108.1479187 C257.5850748 105.27811303 257.57736035 102.40842378 257.57446289 99.53857422 C257.56908058 95.87088778 257.53140187 92.20430355 257.48571873 88.53692818 C257.45589639 85.70750994 257.44873824 82.8783555 257.44773674 80.04879379 C257.44151365 78.04243992 257.41206873 76.03620126 257.38221741 74.03005981 C257.43247413 63.87636966 257.43247413 63.87636966 260.22241211 60.24951172 C264.47819248 56.8028421 267.64615507 55.73798963 273.08203125 55.8046875 C274.01337891 55.81113281 274.94472656 55.81757812 275.90429688 55.82421875 C276.86400391 55.84097656 277.82371094 55.85773438 278.8125 55.875 C279.79154297 55.88402344 280.77058594 55.89304688 281.77929688 55.90234375 C284.18645061 55.92582818 286.59309743 55.9586716 289 56 C289.07021362 55.15864502 289.07021362 55.15864502 289.1418457 54.30029297 C289.8200204 46.84859615 290.93710472 39.50034737 292.1875 32.125 C292.37119141 30.93519531 292.55488281 29.74539062 292.74414062 28.51953125 C294.46994499 18.42936514 297.29114135 8.7178376 305.375 1.9375 C313.65939296 -3.70469454 320.95024288 -5.06423421 331 -4 C338.94213563 -2.12337723 345.73139093 2.16809122 350.33740234 8.97705078 C354.17835351 16.16084705 355.61495564 23.58015916 356.94067383 31.52392578 C357.31460315 33.76259128 357.71097263 35.99639229 358.11132812 38.23046875 C360.16881752 49.97826183 360.16881752 49.97826183 360 56 C360.59949463 55.98428955 361.19898926 55.9685791 361.81665039 55.95239258 C364.56516877 55.8895587 367.31353542 55.85085765 370.0625 55.8125 C371.00544922 55.78736328 371.94839844 55.76222656 372.91992188 55.73632812 C378.72771325 55.6756195 383.01986562 55.87234873 388 59 C392.89247271 65.33533754 392.56814434 71.37575358 392.49609375 79.16015625 C392.49754898 80.42339218 392.49900421 81.68662811 392.50050354 82.98814392 C392.49884718 85.65224312 392.48942136 88.31490072 392.46655273 90.97875977 C392.43813965 94.38048804 392.44091996 97.78131906 392.45364285 101.18311405 C392.46229695 104.44635196 392.44714484 107.70944632 392.43359375 110.97265625 C392.43652939 112.18840836 392.43946503 113.40416046 392.44248962 114.65675354 C392.32449265 125.24467521 392.32449265 125.24467521 389 130 C385.23544161 133.48221651 382.24940368 134.23432709 377.28125 134.60546875 C376.29189453 134.6830542 375.30253906 134.76063965 374.28320312 134.84057617 C373.52974609 134.89318604 372.77628906 134.9457959 372 135 C373.86202116 136.45762969 375.72512244 137.91385175 377.58935547 139.36865234 C379.20941934 140.6330044 380.82821615 141.89898151 382.44580078 143.16650391 C386.45257014 146.29349034 390.47668601 149.37201766 394.6171875 152.3203125 C395.33519531 152.8369043 396.05320312 153.35349609 396.79296875 153.88574219 C398.14239597 154.85097507 399.50134611 155.80308489 400.87109375 156.73925781 C405.54952062 160.10645544 408.17562923 163.4995299 410 169 C410.56222685 173.16506821 410.54881161 177.28238832 410.52139282 181.48045349 C410.52904392 182.72642227 410.53669501 183.97239104 410.54457796 185.25611645 C410.56159851 188.69844057 410.56078918 192.13990666 410.55221677 195.58220541 C410.54727218 199.30079009 410.56532296 203.01927545 410.58029175 206.73782349 C410.60576134 214.01630927 410.60937628 221.2946474 410.60469122 228.57317024 C410.60112211 234.49015797 410.60463006 240.40710095 410.61314011 246.32408333 C410.61433048 247.16688608 410.61552086 248.00968883 410.61674731 248.87803106 C410.61917086 250.59029222 410.62159913 252.30255336 410.62403207 254.0148145 C410.6457734 270.06402928 410.64146247 286.11315995 410.62926237 302.16237945 C410.61892287 316.83814507 410.64143944 331.51364523 410.67945881 346.18935835 C410.71822043 361.26743567 410.73472692 376.34538743 410.72721231 391.4235149 C410.72338917 399.88516386 410.72835445 408.34658684 410.75664139 416.80819511 C410.78047721 424.01104326 410.78327009 431.2135263 410.75906105 438.4163795 C410.74728911 442.08959579 410.74506655 445.76214441 410.76906586 449.43531609 C410.79480649 453.42139514 410.77384161 457.40646449 410.7484436 461.39256287 C410.76319217 462.54762957 410.77794074 463.70269626 410.79313624 464.89276499 C410.69191187 472.44554423 409.09621665 477.33280081 404 483 C399.16114161 487.28262075 394.59312398 488.12055133 388.2958374 488.14717102 C387.13233261 488.15432632 385.96882782 488.16148163 384.77006531 488.16885376 C382.86086052 488.17288712 382.86086052 488.17288712 380.91308594 488.17700195 C379.5560336 488.18327005 378.19898297 488.18991716 376.8419342 488.19691467 C372.38942654 488.21791596 367.93691868 488.22831326 363.484375 488.23828125 C361.94914991 488.24233025 360.41392499 488.24644722 358.87870026 488.25063133 C351.66522578 488.26967424 344.45176148 488.28390725 337.23826671 488.2922433 C328.92223218 488.30201322 320.60646399 488.32832992 312.29052329 488.36874419 C305.85554907 488.39894003 299.42065106 488.41371545 292.98560739 488.41702431 C289.14555546 488.41937081 285.30578837 488.42827867 281.46581268 488.45348549 C277.85089962 488.47683237 274.23645761 488.48097328 270.62148857 488.47072411 C268.67163422 488.46999578 266.72180343 488.48904023 264.77204895 488.50878906 C256.80789 488.46171517 251.10102196 487.68141933 244.9765625 482.18359375 C244.53054688 481.60738281 244.08453125 481.03117187 243.625 480.4375 C243.16351563 479.85871094 242.70203125 479.27992188 242.2265625 478.68359375 C241.11023455 477.15130921 240.05160449 475.57740673 239 474 C238.46375 475.051875 237.9275 476.10375 237.375 477.1875 C234.23650532 482.66600308 230.04505231 486.01135226 224 488 C221.22067547 488.25726891 221.22067547 488.25726891 218.13761902 488.26742554 C216.3776786 488.28022049 216.3776786 488.28022049 214.58218384 488.29327393 C212.66434586 488.29191437 212.66434586 488.29191437 210.70776367 488.29052734 C209.34070978 488.29651512 207.97365926 488.30332124 206.60661316 488.31088257 C202.89986059 488.32852572 199.1932004 488.33323726 195.4864099 488.33451414 C193.16814388 488.33593739 190.84990122 488.34021031 188.53164101 488.34550858 C180.43701313 488.36400413 172.34245105 488.37217989 164.24780273 488.37060547 C156.71386003 488.36940458 149.18020405 488.39049761 141.64633387 488.4220928 C135.1688656 488.44828529 128.6914908 488.4589715 122.21397001 488.45769465 C118.34935852 488.45718583 114.48500187 488.46282397 110.62044334 488.48405075 C106.98333492 488.50348325 103.34672306 488.50352395 99.70959663 488.48901749 C97.74784044 488.48594542 95.78608394 488.50257124 93.82440186 488.51989746 C85.85401302 488.46331761 80.06523587 487.71992626 73.9765625 482.1484375 C73.53054687 481.56320312 73.08453125 480.97796875 72.625 480.375 C72.16351563 479.78460938 71.70203125 479.19421875 71.2265625 478.5859375 C70.82179687 478.06257813 70.41703125 477.53921875 70 477 C69.34 476.34 68.68 475.68 68 475 C67.46375 475.886875 66.9275 476.77375 66.375 477.6875 C63.01194002 482.71426457 58.7981533 486.10056729 53 488 C50.23349953 488.25447559 50.23349953 488.25447559 47.16885376 488.26069641 C46.00252914 488.26778122 44.83620453 488.27486603 43.63453674 488.28216553 C42.36375778 488.27968811 41.09297882 488.27721069 39.78369141 488.2746582 C38.42486796 488.27900791 37.06604697 488.28419192 35.70722961 488.29014587 C32.02326117 488.30352037 28.33939542 488.30411621 24.65540743 488.30158257 C21.57648628 488.30051166 18.49758581 488.30539938 15.4186691 488.310188 C8.15246936 488.32127814 0.8863213 488.32172358 -6.37988281 488.31567383 C-13.86721997 488.30963564 -21.35436913 488.32194217 -28.84167421 488.3432439 C-35.27751211 488.36087856 -41.71329028 488.36685826 -48.14915144 488.36360615 C-51.98964718 488.36179589 -55.83000885 488.36440362 -59.67048264 488.37832069 C-63.28372478 488.39092462 -66.89667468 488.38893096 -70.50991249 488.37590981 C-72.46110933 488.37242828 -74.41231519 488.38370353 -76.36347961 488.39547729 C-85.14864677 488.34289727 -91.46545443 487.35793623 -98 481 C-102.62954477 474.71630037 -102.56668247 469.2763376 -102.50793457 461.6330719 C-102.51417453 460.38725198 -102.5204145 459.14143206 -102.52684355 457.85786003 C-102.54001567 454.41133092 -102.53530589 450.96567667 -102.52289867 447.51920116 C-102.51383708 443.79790642 -102.52782345 440.07668735 -102.53881836 436.35540771 C-102.55659691 429.06975175 -102.55276644 421.78426069 -102.5411678 414.49859829 C-102.53213043 408.5763369 -102.53091079 402.6541217 -102.53526306 396.73185539 C-102.53587599 395.88862843 -102.53648893 395.04540146 -102.53712043 394.17662216 C-102.53839935 392.46355374 -102.5396962 390.75048533 -102.5410108 389.03741693 C-102.55241483 372.97678245 -102.53930604 356.91623933 -102.51780933 340.85561984 C-102.49994175 327.08005171 -102.50303998 313.30461843 -102.52148438 299.52905273 C-102.54289982 283.52703489 -102.55131279 267.52509711 -102.53903532 251.52306694 C-102.53776114 249.81603143 -102.53650366 248.10899591 -102.53526306 246.40196037 C-102.53464596 245.56209735 -102.53402886 244.72223433 -102.53339306 243.85692092 C-102.52994194 237.9434744 -102.53576343 232.03007873 -102.54518127 226.11664009 C-102.55641028 218.90757281 -102.55334246 211.6986797 -102.5320583 204.48963232 C-102.52155941 200.81263629 -102.51740591 197.13593045 -102.53065491 193.45893669 C-102.54480875 189.47043162 -102.5278868 185.48239975 -102.50793457 181.49391174 C-102.51685746 180.33525008 -102.52578034 179.17658842 -102.53497362 177.9828158 C-102.46128009 170.39481745 -101.48426367 164.76711902 -96.14746094 158.99707031 C-95.51614258 158.52881836 -94.88482422 158.06056641 -94.234375 157.578125 C-93.15712158 156.76045654 -93.15712158 156.76045654 -92.05810547 155.92626953 C-91.29643066 155.37310059 -90.53475586 154.81993164 -89.75 154.25 C-88.96383301 153.65944824 -88.17766602 153.06889648 -87.36767578 152.46044922 C-85.73689072 151.237932 -84.10092295 150.02229911 -82.45996094 148.81347656 C-80.04698378 147.03463632 -77.65013804 145.2361782 -75.2578125 143.4296875 C-71.51568488 140.6055327 -67.76161044 137.79814619 -64 135 C-64.73605469 134.96261719 -65.47210938 134.92523438 -66.23046875 134.88671875 C-72.72114996 134.44943375 -77.27728626 134.11167284 -81.75 129 C-83.96380754 125.45790793 -84.13694208 122.52620753 -84.17700195 118.44628906 C-84.18983719 117.30790588 -84.20267242 116.16952271 -84.21589661 114.99664307 C-84.22328354 113.7654071 -84.23067047 112.53417114 -84.23828125 111.265625 C-84.246353 109.99910095 -84.25442474 108.7325769 -84.26274109 107.42767334 C-84.27658256 104.74438825 -84.28759848 102.06122603 -84.29516602 99.37792969 C-84.30621111 95.95374725 -84.34059346 92.53021812 -84.38033772 89.10626602 C-84.41289505 85.82611763 -84.41729071 82.54591033 -84.42578125 79.265625 C-84.44328934 78.04248596 -84.46079742 76.81934692 -84.47883606 75.55914307 C-84.46175026 68.83715939 -84.17995478 64.38897418 -80 59 C-74.2389981 55.38194403 -68.71647781 55.63512123 -62.0625 55.8125 C-61.09248047 55.82603516 -60.12246094 55.83957031 -59.12304688 55.85351562 C-56.74810871 55.88861323 -54.37435622 55.93777725 -52 56 C-51.95391602 55.36908447 -51.90783203 54.73816895 -51.86035156 54.08813477 C-51.22817398 46.29338523 -50.08426169 38.64058222 -48.75 30.9375 C-48.55792969 29.73544922 -48.36585937 28.53339844 -48.16796875 27.29492188 C-46.38648483 17.02617964 -43.64129331 8.12888705 -35.22265625 1.47265625 C-23.99111086 -5.96898278 -11.9559366 -5.89048584 0 0 Z " fill="#E9F6FE" transform="translate(102,14)"/>
<path d="M0 0 C56.43 0 112.86 0 171 0 C171 75.57 171 151.14 171 229 C227.43 229 283.86 229 342 229 C342 278 342 278 336 287 C330.75021617 291.19982706 326.88056506 292.11933627 320.2958374 292.14717102 C319.13233261 292.15432632 317.96882782 292.16148163 316.77006531 292.16885376 C314.86086052 292.17288712 314.86086052 292.17288712 312.91308594 292.17700195 C311.5560336 292.18327005 310.19898297 292.18991716 308.8419342 292.19691467 C304.38942654 292.21791596 299.93691868 292.22831326 295.484375 292.23828125 C293.94914991 292.24233025 292.41392499 292.24644722 290.87870026 292.25063133 C283.66522578 292.26967424 276.45176148 292.28390725 269.23826671 292.2922433 C260.92223218 292.30201322 252.60646399 292.32832992 244.29052329 292.36874419 C237.85554907 292.39894003 231.42065106 292.41371545 224.98560739 292.41702431 C221.14555546 292.41937081 217.30578837 292.42827867 213.46581268 292.45348549 C209.85089962 292.47683237 206.23645761 292.48097328 202.62148857 292.47072411 C200.67163422 292.46999578 198.72180343 292.48904023 196.77204895 292.50878906 C188.80789 292.46171517 183.10102196 291.68141933 176.9765625 286.18359375 C176.53054688 285.60738281 176.08453125 285.03117187 175.625 284.4375 C175.16351563 283.85871094 174.70203125 283.27992188 174.2265625 282.68359375 C173.11023455 281.15130921 172.05160449 279.57740673 171 278 C170.46375 279.051875 169.9275 280.10375 169.375 281.1875 C166.23650532 286.66600308 162.04505231 290.01135226 156 292 C153.22067547 292.25726891 153.22067547 292.25726891 150.13761902 292.26742554 C148.3776786 292.28022049 148.3776786 292.28022049 146.58218384 292.29327393 C144.66434586 292.29191437 144.66434586 292.29191437 142.70776367 292.29052734 C141.34070978 292.29651512 139.97365926 292.30332124 138.60661316 292.31088257 C134.89986059 292.32852572 131.1932004 292.33323726 127.4864099 292.33451414 C125.16814388 292.33593739 122.84990122 292.34021031 120.53164101 292.34550858 C112.43701313 292.36400413 104.34245105 292.37217989 96.24780273 292.37060547 C88.71386003 292.36940458 81.18020405 292.39049761 73.64633387 292.4220928 C67.1688656 292.44828529 60.6914908 292.4589715 54.21397001 292.45769465 C50.34935852 292.45718583 46.48500187 292.46282397 42.62044334 292.48405075 C38.98333492 292.50348325 35.34672306 292.50352395 31.70959663 292.48901749 C29.74784044 292.48594542 27.78608394 292.50257124 25.82440186 292.51989746 C17.85401302 292.46331761 12.06523587 291.71992626 5.9765625 286.1484375 C5.53054687 285.56320312 5.08453125 284.97796875 4.625 284.375 C4.16351563 283.78460938 3.70203125 283.19421875 3.2265625 282.5859375 C2.82179687 282.06257813 2.41703125 281.53921875 2 281 C1.34 280.34 0.68 279.68 0 279 C-0.53625 279.886875 -1.0725 280.77375 -1.625 281.6875 C-4.98805998 286.71426457 -9.2018467 290.10056729 -15 292 C-17.76650047 292.25447559 -17.76650047 292.25447559 -20.83114624 292.26069641 C-21.99747086 292.26778122 -23.16379547 292.27486603 -24.36546326 292.28216553 C-25.63624222 292.27968811 -26.90702118 292.27721069 -28.21630859 292.2746582 C-29.57513204 292.27900791 -30.93395303 292.28419192 -32.29277039 292.29014587 C-35.97673883 292.30352037 -39.66060458 292.30411621 -43.34459257 292.30158257 C-46.42351372 292.30051166 -49.50241419 292.30539938 -52.5813309 292.310188 C-59.84753064 292.32127814 -67.1136787 292.32172358 -74.37988281 292.31567383 C-81.86721997 292.30963564 -89.35436913 292.32194217 -96.84167421 292.3432439 C-103.27751211 292.36087856 -109.71329028 292.36685826 -116.14915144 292.36360615 C-119.98964718 292.36179589 -123.83000885 292.36440362 -127.67048264 292.37832069 C-131.28372478 292.39092462 -134.89667468 292.38893096 -138.50991249 292.37590981 C-140.46110933 292.37242828 -142.41231519 292.38370353 -144.36347961 292.39547729 C-153.14864677 292.34289727 -159.46545443 291.35793623 -166 285 C-175.28485579 268.75150237 -170 247.71422513 -170 229 C-113.9 228.67 -57.8 228.34 0 228 C0 152.76 0 77.52 0 0 Z " fill="#FEE077" transform="translate(170,210)"/>
<path d="M0 0 C56.43 0 112.86 0 171 0 C171 75.57 171 151.14 171 229 C114.57 229 58.14 229 0 229 C0 153.43 0 77.86 0 0 Z " fill="#A2E52E" transform="translate(341,210)"/>
<path d="M0 0 C56.1 0 112.2 0 170 0 C171.67542033 3.35084066 171.13640052 7.12893566 171.12698364 10.81361389 C171.12854363 11.73750001 171.13010362 12.66138613 171.13171089 13.61326879 C171.13571897 16.72795359 171.13253198 19.84259018 171.12939453 22.95727539 C171.13074865 25.18252084 171.13252864 27.40776607 171.13470459 29.63301086 C171.13927743 35.69062319 171.13749004 41.74821856 171.1343255 47.80583119 C171.13180145 54.13149516 171.13413954 60.45715763 171.13571167 66.78282166 C171.13764991 78.08770466 171.13453404 89.39257901 171.12945233 100.69746029 C171.12498329 110.95724624 171.12576124 121.21702089 171.13037109 131.47680664 C171.13571673 143.37980762 171.13771785 155.28280171 171.13475883 167.18580431 C171.13319573 173.49091294 171.13300321 179.79601377 171.13629532 186.1011219 C171.13917276 192.02634016 171.1372007 197.95153693 171.13140106 203.87675285 C171.13007284 206.05812418 171.13046863 208.23949729 171.13266373 210.42086792 C171.13537276 213.38506004 171.13199717 216.34918216 171.12698364 219.31336975 C171.12921436 220.18844698 171.13144509 221.06352422 171.13374341 221.96511894 C171.11414991 227.88585009 171.11414991 227.88585009 170 229 C167.81040962 229.09698498 165.6176247 229.12186727 163.42588806 229.12025452 C162.73251343 229.12111053 162.03913879 229.12196655 161.32475281 229.12284851 C158.97681162 229.12451343 156.62894061 229.1189644 154.28100586 229.11352539 C152.57879164 229.11321929 150.8765773 229.11335214 149.17436314 229.11389065 C144.59972393 229.11411719 140.02511067 229.10830492 135.4504776 229.10128021 C131.16396499 229.09560176 126.87745882 229.09531799 122.59094238 229.09460449 C110.03979146 229.08934898 97.48864541 229.07538794 84.9375 229.0625 C56.908125 229.041875 28.87875 229.02125 0 229 C0 153.43 0 77.86 0 0 Z " fill="#FC8087" transform="translate(0,210)"/>
<path d="M0 0 C168.96 0 337.92 0 512 0 C512 49 512 49 506 58 C500.75021617 62.19982706 496.88056506 63.11933627 490.2958374 63.14717102 C489.13233261 63.15432632 487.96882782 63.16148163 486.77006531 63.16885376 C485.49726212 63.17154266 484.22445892 63.17423157 482.91308594 63.17700195 C481.5560336 63.18327005 480.19898297 63.18991716 478.8419342 63.19691467 C474.38942654 63.21791596 469.93691868 63.22831326 465.484375 63.23828125 C463.94914991 63.24233025 462.41392499 63.24644722 460.87870026 63.25063133 C453.66522578 63.26967424 446.45176148 63.28390725 439.23826671 63.2922433 C430.92223218 63.30201322 422.60646399 63.32832992 414.29052329 63.36874419 C407.85554907 63.39894003 401.42065106 63.41371545 394.98560739 63.41702431 C391.14555546 63.41937081 387.30578837 63.42827867 383.46581268 63.45348549 C379.85089962 63.47683237 376.23645761 63.48097328 372.62148857 63.47072411 C370.67163422 63.46999578 368.72180343 63.48904023 366.77204895 63.50878906 C358.80789 63.46171517 353.10102196 62.68141933 346.9765625 57.18359375 C346.53054688 56.60738281 346.08453125 56.03117187 345.625 55.4375 C344.93277344 54.56931641 344.93277344 54.56931641 344.2265625 53.68359375 C343.11023455 52.15130921 342.05160449 50.57740673 341 49 C340.46375 50.051875 339.9275 51.10375 339.375 52.1875 C336.23650532 57.66600308 332.04505231 61.01135226 326 63 C323.22067547 63.25726891 323.22067547 63.25726891 320.13761902 63.26742554 C318.3776786 63.28022049 318.3776786 63.28022049 316.58218384 63.29327393 C314.66434586 63.29191437 314.66434586 63.29191437 312.70776367 63.29052734 C311.34070978 63.29651512 309.97365926 63.30332124 308.60661316 63.31088257 C304.89986059 63.32852572 301.1932004 63.33323726 297.4864099 63.33451414 C295.16814388 63.33593739 292.84990122 63.34021031 290.53164101 63.34550858 C282.43701313 63.36400413 274.34245105 63.37217989 266.24780273 63.37060547 C258.71386003 63.36940458 251.18020405 63.39049761 243.64633387 63.4220928 C237.1688656 63.44828529 230.6914908 63.4589715 224.21397001 63.45769465 C220.34935852 63.45718583 216.48500187 63.46282397 212.62044334 63.48405075 C208.98333492 63.50348325 205.34672306 63.50352395 201.70959663 63.48901749 C199.74784044 63.48594542 197.78608394 63.50257124 195.82440186 63.51989746 C187.85401302 63.46331761 182.06523587 62.71992626 175.9765625 57.1484375 C175.53054687 56.56320312 175.08453125 55.97796875 174.625 55.375 C174.16351563 54.78460938 173.70203125 54.19421875 173.2265625 53.5859375 C172.82179687 53.06257813 172.41703125 52.53921875 172 52 C171.34 51.34 170.68 50.68 170 50 C169.46375 50.886875 168.9275 51.77375 168.375 52.6875 C165.01194002 57.71426457 160.7981533 61.10056729 155 63 C152.23349953 63.25447559 152.23349953 63.25447559 149.16885376 63.26069641 C147.41936684 63.27132362 147.41936684 63.27132362 145.63453674 63.28216553 C144.36375778 63.27968811 143.09297882 63.27721069 141.78369141 63.2746582 C140.42486796 63.27900791 139.06604697 63.28419192 137.70722961 63.29014587 C134.02326117 63.30352037 130.33939542 63.30411621 126.65540743 63.30158257 C123.57648628 63.30051166 120.49758581 63.30539938 117.4186691 63.310188 C110.15246936 63.32127814 102.8863213 63.32172358 95.62011719 63.31567383 C88.13278003 63.30963564 80.64563087 63.32194217 73.15832579 63.3432439 C66.72248789 63.36087856 60.28670972 63.36685826 53.85084856 63.36360615 C50.01035282 63.36179589 46.16999115 63.36440362 42.32951736 63.37832069 C38.71627522 63.39092462 35.10332532 63.38893096 31.49008751 63.37590981 C29.53889067 63.37242828 27.58768481 63.38370353 25.63652039 63.39547729 C16.85135323 63.34289727 10.53454557 62.35793623 4 56 C-5.28485579 39.75150237 0 18.71422513 0 0 Z " fill="#E9F5FE" transform="translate(0,439)"/>
<path d="M0 0 C9.66757633 7.62944923 11.7925158 18.49016457 13.72192383 30.05126953 C14.09585315 32.28993503 14.49222263 34.52373604 14.89257812 36.7578125 C16.95006752 48.50560558 16.95006752 48.50560558 16.78125 54.52734375 C17.38074463 54.5116333 17.98023926 54.49592285 18.59790039 54.47973633 C21.34641877 54.41690245 24.09478542 54.3782014 26.84375 54.33984375 C28.25817383 54.30213867 28.25817383 54.30213867 29.70117188 54.26367188 C35.50896325 54.20296325 39.80111562 54.39969248 44.78125 57.52734375 C49.67372271 63.86268129 49.34939434 69.90309733 49.27734375 77.6875 C49.27879898 78.95073593 49.28025421 80.21397186 49.28175354 81.51548767 C49.28009718 84.17958687 49.27067136 86.84224447 49.24780273 89.50610352 C49.21938965 92.90783179 49.22216996 96.30866281 49.23489285 99.7104578 C49.24354695 102.97369571 49.22839484 106.23679007 49.21484375 109.5 C49.21777939 110.71575211 49.22071503 111.93150421 49.22373962 113.18409729 C49.10152176 124.15076147 49.10152176 124.15076147 45.78125 128.52734375 C40.3647256 133.29656971 35.46620554 133.09832405 28.45507812 133.04492188 C27.32267197 133.05193115 26.19026581 133.05894043 25.02354431 133.06616211 C21.28627893 133.08374426 17.54977287 133.07211769 13.8125 133.05859375 C11.2122788 133.06128858 8.61205858 133.06517092 6.01184082 133.07019043 C0.56459012 133.07608582 -4.88237606 133.06790349 -10.32958984 133.04882812 C-16.61794494 133.02706083 -22.90578121 133.03411287 -29.19412374 133.05613375 C-35.2554294 133.07650608 -41.31648221 133.07430774 -47.37782288 133.06260681 C-49.95182874 133.05993915 -52.52584786 133.06321062 -55.09983826 133.07252502 C-58.69777461 133.08268757 -62.29471585 133.06719164 -65.89257812 133.04492188 C-66.95561661 133.0530188 -68.01865509 133.06111572 -69.11390686 133.06945801 C-75.0973611 133.00087377 -78.73398799 132.64201833 -83.21875 128.52734375 C-85.53981547 125.32293233 -85.48663749 122.36582156 -85.52514648 118.47705078 C-85.54113388 117.25543243 -85.55712128 116.03381409 -85.57359314 114.775177 C-85.57895584 113.45847015 -85.58431854 112.14176331 -85.58984375 110.78515625 C-85.59881572 109.41519068 -85.60793767 108.04522608 -85.61720276 106.67526245 C-85.6336752 103.80545678 -85.64138965 100.93576753 -85.64428711 98.06591797 C-85.64966942 94.39823153 -85.68734813 90.7316473 -85.73303127 87.06427193 C-85.76285361 84.23485369 -85.77001176 81.40569925 -85.77101326 78.57613754 C-85.77723635 76.56978367 -85.80668127 74.56354501 -85.83653259 72.55740356 C-85.78627587 62.40371341 -85.78627587 62.40371341 -82.99633789 58.77685547 C-78.74055752 55.33018585 -75.57259493 54.26533338 -70.13671875 54.33203125 C-69.20537109 54.33847656 -68.27402344 54.34492187 -67.31445312 54.3515625 C-66.35474609 54.36832031 -65.39503906 54.38507813 -64.40625 54.40234375 C-63.42720703 54.41136719 -62.44816406 54.42039063 -61.43945312 54.4296875 C-59.03229939 54.45317193 -56.62565257 54.48601535 -54.21875 54.52734375 C-54.17194092 53.96644043 -54.12513184 53.40553711 -54.0769043 52.82763672 C-53.3987296 45.3759399 -52.28164528 38.02769112 -51.03125 30.65234375 C-50.84755859 29.46253906 -50.66386719 28.27273437 -50.47460938 27.046875 C-48.74880501 16.95670889 -45.92760865 7.24518135 -37.84375 0.46484375 C-25.94618915 -7.6381462 -12.17824111 -8.08309313 0 0 Z " fill="#A2E52E" transform="translate(445.21875,15.47265625)"/>
<path d="M0 0 C7.63891449 5.45825551 12.14558138 11.5045013 14 20.8125 C14.15952148 21.56644043 14.31904297 22.32038086 14.48339844 23.09716797 C16.71484154 33.9912211 18.3384403 45.00752709 20 56 C20.60473145 55.98428955 21.20946289 55.9685791 21.83251953 55.95239258 C24.59658296 55.8896812 27.36049621 55.85089589 30.125 55.8125 C31.07632813 55.78736328 32.02765625 55.76222656 33.0078125 55.73632812 C38.39080902 55.68025524 42.48323552 55.72568897 47 59 C52.35127166 64.70524206 51.56248368 71.05475794 51.49609375 78.53515625 C51.49754898 79.84657089 51.49900421 81.15798553 51.50050354 82.50914001 C51.5018838 85.27721371 51.48939169 88.0447669 51.46655273 90.81274414 C51.43814041 94.35247225 51.4409175 97.8913382 51.45364285 101.43113041 C51.46228651 104.820062 51.44714947 108.20873919 51.43359375 111.59765625 C51.43652939 112.86545425 51.43946503 114.13325226 51.44248962 115.43946838 C51.42980545 116.6209697 51.41712128 117.80247101 51.40405273 119.01977539 C51.39864975 120.05646866 51.39324677 121.09316193 51.38768005 122.16127014 C50.78790844 126.5530091 48.87618566 128.9905431 46.02001953 132.28114319 C41.36743528 134.92918107 36.94450827 134.54894564 31.6796875 134.50170898 C30.5360675 134.50711197 29.39244751 134.51251495 28.21417236 134.51808167 C24.43418494 134.53058811 20.65495626 134.51406406 16.875 134.49609375 C14.24853475 134.49624869 11.62206927 134.49773687 8.99560547 134.50050354 C3.49112084 134.50320351 -2.01314546 134.48974868 -7.51757812 134.46655273 C-13.87573315 134.43994413 -20.23352323 134.43819658 -26.59171486 134.4499411 C-32.71547334 134.46073145 -38.83907902 134.45442061 -44.96282959 134.44038582 C-47.5655682 134.4358671 -50.16831754 134.43553817 -52.77105713 134.43945122 C-56.40749165 134.44235904 -60.04332846 134.42587576 -63.6796875 134.40405273 C-64.75724304 134.40855438 -65.83479858 134.41305603 -66.94500732 134.41769409 C-76.44313695 134.3229094 -76.44313695 134.3229094 -80 131 C-82.60951696 126.90208991 -83.37888856 123.72426253 -83.40405273 118.90625 C-83.41673691 117.72482422 -83.42942108 116.54339844 -83.44248962 115.32617188 C-83.43955399 114.06353516 -83.43661835 112.80089844 -83.43359375 111.5 C-83.4388356 110.19095703 -83.44407745 108.88191406 -83.44947815 107.53320312 C-83.45838634 104.7694328 -83.45601205 102.00595181 -83.44604492 99.2421875 C-83.43454834 95.71141521 -83.45478713 92.18164208 -83.48396206 88.65100098 C-83.5067818 85.26728188 -83.49985543 81.88379411 -83.49609375 78.5 C-83.50732773 77.23736328 -83.51856171 75.97472656 -83.53013611 74.67382812 C-83.44333206 63.74182943 -83.44333206 63.74182943 -79 59 C-73.73490521 55.18320636 -68.35533207 55.6478774 -62.125 55.8125 C-61.15046875 55.82603516 -60.1759375 55.83957031 -59.171875 55.85351562 C-56.78067137 55.88868038 -54.39063025 55.9378933 -52 56 C-51.83395264 54.95658447 -51.66790527 53.91316895 -51.49682617 52.83813477 C-50.87261466 48.92868039 -50.23840274 45.02090083 -49.60131836 41.11352539 C-49.32812364 39.42938874 -49.0575618 37.74482262 -48.78979492 36.05981445 C-44.75027466 10.67176815 -44.75027466 10.67176815 -34 1 C-23.70635985 -5.86242677 -10.68731592 -6.13531099 0 0 Z " fill="#FEE177" transform="translate(272,14)"/>
<path d="M0 0 C7.19105246 4.61312799 11.21571584 11.27993347 13.16015625 19.5 C14.06992256 23.78499091 14.83658299 28.09100969 15.56201172 32.41064453 C15.98704239 34.92339551 16.44279687 37.42840632 16.91015625 39.93359375 C19 51.26137571 19 51.26137571 19 56 C19.60473145 55.98428955 20.20946289 55.9685791 20.83251953 55.95239258 C23.59658296 55.8896812 26.36049621 55.85089589 29.125 55.8125 C30.07632813 55.78736328 31.02765625 55.76222656 32.0078125 55.73632812 C37.41637479 55.67998893 41.41717559 55.789237 46 59 C49.56439272 62.73021825 50.50233335 65.02746365 50.51757812 70.16381836 C50.53018677 71.38536118 50.54279541 72.60690399 50.55578613 73.86546326 C50.54768921 75.17700882 50.53959229 76.48855438 50.53125 77.83984375 C50.5339472 79.20838191 50.53783152 80.5769182 50.54284668 81.94544983 C50.54873317 84.80944112 50.5402085 87.67293225 50.52148438 90.53686523 C50.49871579 94.19661085 50.51180827 97.85518163 50.53577423 101.514884 C50.55027437 104.34005986 50.54560683 107.16496027 50.53526306 109.99014473 C50.53131969 111.99196769 50.54340884 113.99380163 50.55578613 115.99559021 C50.4374196 127.49269593 50.4374196 127.49269593 46 132 C42.9517452 133.86994822 40.66343459 134.25214277 37.1108551 134.26069641 C36.12812622 134.26778122 35.14539734 134.27486603 34.13288879 134.28216553 C32.52518867 134.2784494 32.52518867 134.2784494 30.88500977 134.2746582 C29.75128937 134.27976913 28.61756897 134.28488007 27.44949341 134.29014587 C23.69674419 134.30406156 19.94417822 134.30308362 16.19140625 134.30078125 C13.58593172 134.30466699 10.98045782 134.30900141 8.37498474 134.31376648 C2.91167574 134.32197801 -2.55158155 134.32107234 -8.01489258 134.31567383 C-14.32585718 134.30963352 -20.63659887 134.32194725 -26.94752544 134.3432439 C-33.02373297 134.36299294 -39.09983636 134.36603261 -45.17607307 134.36250877 C-47.75928331 134.36302274 -50.34249704 134.36827445 -52.92568779 134.37832069 C-56.53583902 134.39063763 -60.14547248 134.38392145 -63.75561523 134.37231445 C-64.82539108 134.37995819 -65.89516693 134.38760193 -66.99736023 134.39547729 C-76.03479705 134.33115637 -76.03479705 134.33115637 -80 131 C-83.5034716 126.99603246 -84.12570266 123.67089245 -84.17700195 118.44628906 C-84.18983719 117.30790588 -84.20267242 116.16952271 -84.21589661 114.99664307 C-84.22328354 113.7654071 -84.23067047 112.53417114 -84.23828125 111.265625 C-84.246353 109.99910095 -84.25442474 108.7325769 -84.26274109 107.42767334 C-84.27658256 104.74438825 -84.28759848 102.06122603 -84.29516602 99.37792969 C-84.30621111 95.95374725 -84.34059346 92.53021812 -84.38033772 89.10626602 C-84.41289505 85.82611763 -84.41729071 82.54591033 -84.42578125 79.265625 C-84.44328934 78.04248596 -84.46079742 76.81934692 -84.47883606 75.55914307 C-84.46175026 68.83715939 -84.17995478 64.38897418 -80 59 C-74.2389981 55.38194403 -68.71647781 55.63512123 -62.0625 55.8125 C-61.09248047 55.82603516 -60.12246094 55.83957031 -59.12304688 55.85351562 C-56.74810871 55.88861323 -54.37435622 55.93777725 -52 56 C-51.95391602 55.36908447 -51.90783203 54.73816895 -51.86035156 54.08813477 C-51.22817398 46.29338523 -50.08426169 38.64058222 -48.75 30.9375 C-48.55792969 29.73544922 -48.36585937 28.53339844 -48.16796875 27.29492188 C-46.38648483 17.02617964 -43.64129331 8.12888705 -35.22265625 1.47265625 C-23.99111086 -5.96898278 -11.9559366 -5.89048584 0 0 Z " fill="#FC8087" transform="translate(102,14)"/>
<path d="M0 0 C9.57 0 19.14 0 29 0 C29 75.57 29 151.14 29 229 C19.43 229 9.86 229 0 229 C0 153.43 0 77.86 0 0 Z " fill="#FED15B" transform="translate(312,210)"/>
<path d="M0 0 C9.57 0 19.14 0 29 0 C29 75.24 29 150.48 29 228 C19.43 228 9.86 228 0 228 C0 152.76 0 77.52 0 0 Z " fill="#97D729" transform="translate(483,211)"/>
<path d="M0 0 C9.24 0 18.48 0 28 0 C29.86808518 1.86808518 29.1255227 4.55347832 29.13374341 7.03954315 C29.13039732 8.35318218 29.13039732 8.35318218 29.12698364 9.69335938 C29.12854363 10.61639107 29.13010362 11.53942276 29.13171089 12.49042511 C29.1357251 15.60821593 29.13252962 18.72595875 29.12939453 21.84375 C29.13074839 24.06884795 29.13252823 26.29394567 29.13470459 28.51904297 C29.13928081 34.5808466 29.13748859 40.64263331 29.1343255 46.70443726 C29.13180287 53.03277636 29.13413917 59.36111397 29.13571167 65.68945312 C29.13765053 77.0008837 29.13453273 88.31230563 29.12945233 99.62373447 C29.12498429 109.88978515 29.12576022 120.15582453 29.13037109 130.421875 C29.13571678 142.32962974 29.13771774 154.23737761 29.13475883 166.14513397 C29.13319561 172.45361096 29.13300352 178.76208015 29.13629532 185.07055664 C29.13917286 190.99986551 29.1372005 196.92915293 29.13140106 202.85845947 C29.13007283 205.04144251 29.13046863 207.22442733 29.13266373 209.40740967 C29.13537278 212.37384481 29.13199713 215.34021001 29.12698364 218.30664062 C29.12921436 219.18239998 29.13144509 220.05815933 29.13374341 220.96045685 C29.11414982 226.88585018 29.11414982 226.88585018 28 228 C18.76 228 9.52 228 0 228 C0 152.76 0 77.52 0 0 Z " fill="#FD656F" transform="translate(142,211)"/>
<path d="M0 0 C7.63891449 5.45825551 12.14558138 11.5045013 14 20.8125 C14.23928223 21.94341064 14.23928223 21.94341064 14.48339844 23.09716797 C16.71484154 33.9912211 18.3384403 45.00752709 20 56 C20.60473145 55.98428955 21.20946289 55.9685791 21.83251953 55.95239258 C24.59658296 55.8896812 27.36049621 55.85089589 30.125 55.8125 C31.07632813 55.78736328 32.02765625 55.76222656 33.0078125 55.73632812 C38.39080902 55.68025524 42.48323552 55.72568897 47 59 C52.35127166 64.70524206 51.56248368 71.05475794 51.49609375 78.53515625 C51.49754898 79.84657089 51.49900421 81.15798553 51.50050354 82.50914001 C51.5018838 85.27721371 51.48939169 88.0447669 51.46655273 90.81274414 C51.43814041 94.35247225 51.4409175 97.8913382 51.45364285 101.43113041 C51.46228651 104.820062 51.44714947 108.20873919 51.43359375 111.59765625 C51.43652939 112.86545425 51.43946503 114.13325226 51.44248962 115.43946838 C51.42980545 116.6209697 51.41712128 117.80247101 51.40405273 119.01977539 C51.39864975 120.05646866 51.39324677 121.09316193 51.38768005 122.16127014 C50.78860464 126.54791122 48.81254987 129.15730252 45.7890625 132.29296875 C42.25801257 134.45412956 39.38073766 134.48782249 35.375 134.3125 C34.67439453 134.29703125 33.97378906 134.2815625 33.25195312 134.265625 C27.4778471 134.10714085 21.73869998 133.65024105 16 133 C16.42428787 132.62960098 16.84857574 132.25920197 17.28572083 131.87757874 C21.84034588 127.36640373 22.70892067 123.91099026 22.80802917 117.58506775 C22.79274673 116.52445633 22.77746429 115.46384491 22.76171875 114.37109375 C22.76677177 112.70929832 22.76677177 112.70929832 22.77192688 111.01393127 C22.77162882 108.67989442 22.75645401 106.34581762 22.72729492 104.01196289 C22.68758249 100.44490924 22.70661417 96.88156898 22.73242188 93.31445312 C22.72486333 91.04165229 22.71391044 88.76885967 22.69921875 86.49609375 C22.70620285 85.4334581 22.71318695 84.37082245 22.72038269 83.27598572 C22.61630017 76.85721759 22.61630017 76.85721759 19.64379883 71.34399414 C15.57389221 67.7356117 12.4480536 67.90686422 7.1875 67.75 C-0.72537123 67.19528325 -0.72537123 67.19528325 -3.6875 65 C-10.2613824 56.47172013 -10.68542202 44.00726287 -12.375 33.63549805 C-12.743381 31.38995682 -13.12141795 29.14618413 -13.5 26.90234375 C-13.60634766 26.22815903 -13.71269531 25.5539743 -13.82226562 24.85935974 C-15.0167212 17.80356965 -16.97101984 11.4869394 -21.875 6.125 C-22.53242188 5.38507812 -23.18984375 4.64515625 -23.8671875 3.8828125 C-26.14892675 1.86852986 -28.12817637 0.95060364 -31 0 C-23.37396365 -7.62603635 -8.38830142 -4.81550637 0 0 Z " fill="#FED15B" transform="translate(272,14)"/>
<path d="M0 0 C7.76061783 4.47830173 12.11254691 9.97935196 15.28125 18.31640625 C16.49484567 23.12576097 17.40574318 27.94973866 18.22192383 32.84033203 C18.59585315 35.07899753 18.99222263 37.31279854 19.39257812 39.546875 C21.45006752 51.29466808 21.45006752 51.29466808 21.28125 57.31640625 C21.88074463 57.3006958 22.48023926 57.28498535 23.09790039 57.26879883 C25.84641877 57.20596495 28.59478542 57.1672639 31.34375 57.12890625 C32.75817383 57.09120117 32.75817383 57.09120117 34.20117188 57.05273438 C40.00896325 56.99202575 44.30111562 57.18875498 49.28125 60.31640625 C54.17372271 66.65174379 53.84939434 72.69215983 53.77734375 80.4765625 C53.77879898 81.73979843 53.78025421 83.00303436 53.78175354 84.30455017 C53.78009718 86.96864937 53.77067136 89.63130697 53.74780273 92.29516602 C53.71938965 95.69689429 53.72216996 99.09772531 53.73489285 102.4995203 C53.74354695 105.76275821 53.72839484 109.02585257 53.71484375 112.2890625 C53.71777939 113.50481461 53.72071503 114.72056671 53.72373962 115.97315979 C53.60531636 126.59933197 53.60531636 126.59933197 50.28125 131.31640625 C45.88635548 135.09689326 42.82219528 135.80395885 37.09375 135.62890625 C35.78921875 135.59410156 34.4846875 135.55929688 33.140625 135.5234375 C28.16983589 135.25678586 23.22603168 134.89209809 18.28125 134.31640625 C19.085625 133.55328125 19.89 132.79015625 20.71875 132.00390625 C24.07174528 128.48735022 24.40519709 126.13529963 24.45825195 121.46533203 C24.47108719 120.48065948 24.48392242 119.49598694 24.49714661 118.48147583 C24.50453354 117.41895599 24.51192047 116.35643616 24.51953125 115.26171875 C24.527603 114.16801971 24.53567474 113.07432068 24.54399109 111.94747925 C24.55782548 109.63248274 24.56855052 107.31746589 24.57641602 105.00244141 C24.59364891 101.46217314 24.63754433 97.92283384 24.68164062 94.3828125 C24.69176589 92.13412145 24.70028251 89.88542247 24.70703125 87.63671875 C24.72453934 86.57824738 24.74204742 85.519776 24.76008606 84.42922974 C24.76476156 78.50604245 24.76476156 78.50604245 22.36865234 73.18994141 C18.10126083 69.35977036 15.17973405 69.14065523 9.46875 69.06640625 C0.22628171 68.4515227 0.22628171 68.4515227 -3.33056641 64.47338867 C-9.03662042 55.60722841 -9.09789064 41.29431006 -10.56054688 31.04492188 C-12.25188464 20.41608018 -15.22657866 10.07410116 -24.203125 3.40234375 C-24.70328125 3.04398438 -25.2034375 2.685625 -25.71875 2.31640625 C-26.37875 1.65640625 -27.03875 0.99640625 -27.71875 0.31640625 C-19.09018774 -4.49953548 -8.8764665 -4.13562644 0 0 Z " fill="#97D729" transform="translate(440.71875,12.68359375)"/>
<path d="M0 0 C8.41642526 9.00361772 10.26652955 18.47778724 12.24951172 30.28564453 C12.67454239 32.79839551 13.13029687 35.30340632 13.59765625 37.80859375 C15.6875 49.13637571 15.6875 49.13637571 15.6875 53.875 C16.29223145 53.85928955 16.89696289 53.8435791 17.52001953 53.82739258 C20.28408296 53.7646812 23.04799621 53.72589589 25.8125 53.6875 C26.76382813 53.66236328 27.71515625 53.63722656 28.6953125 53.61132812 C34.10387479 53.55498893 38.10467559 53.664237 42.6875 56.875 C46.25189272 60.60521825 47.18983335 62.90246365 47.20507812 68.03881836 C47.21768677 69.26036118 47.23029541 70.48190399 47.24328613 71.74046326 C47.23518921 73.05200882 47.22709229 74.36355438 47.21875 75.71484375 C47.2214472 77.08338191 47.22533152 78.4519182 47.23034668 79.82044983 C47.23623317 82.68444112 47.2277085 85.54793225 47.20898438 88.41186523 C47.18621579 92.07161085 47.19930827 95.73018163 47.22327423 99.389884 C47.23777437 102.21505986 47.23310683 105.03996027 47.22276306 107.86514473 C47.21881969 109.86696769 47.23090884 111.86880163 47.24328613 113.87059021 C47.12712548 125.15343563 47.12712548 125.15343563 42.6875 129.875 C39.27090938 132.45035665 35.79388636 132.1099227 31.625 132.0625 C30.96685303 132.05605469 30.30870605 132.04960937 29.63061523 132.04296875 C23.95103345 131.95481712 18.32729397 131.53160803 12.6875 130.875 C13.95703125 129.37760417 15.2265625 127.88020833 16.49609375 126.3828125 C18.68773601 123.60912754 18.82425373 121.7119409 18.86450195 118.24511719 C18.87733719 117.28361755 18.89017242 116.32211792 18.90339661 115.33148193 C18.91078354 114.28881165 18.91817047 113.24614136 18.92578125 112.171875 C18.933853 111.10132874 18.94192474 110.03078247 18.95024109 108.92779541 C18.96408978 106.65809757 18.97480841 104.38837883 18.98266602 102.11865234 C18.99986149 98.6529165 19.04373964 95.18813867 19.08789062 91.72265625 C19.09801891 89.51823619 19.10653459 87.31380801 19.11328125 85.109375 C19.13078934 84.07480164 19.14829742 83.04022827 19.16633606 81.9743042 C19.14823786 75.94825634 18.70855759 72.46471575 14.6875 67.875 C11.3288334 65.38122609 7.89918598 65.61425144 3.8125 65.5 C-5.24225664 64.94524336 -5.24225664 64.94524336 -9.3125 60.875 C-12.27557436 55.95882148 -13.00960535 51.51412193 -13.6875 45.9375 C-16.07188632 20.77057602 -16.07188632 20.77057602 -29.09375 0.41015625 C-30.85000538 -0.86872098 -30.85000538 -0.86872098 -33.3125 -2.125 C-25.29648052 -11.34342241 -8.60814748 -5.52220782 0 0 Z " fill="#FD646F" transform="translate(105.3125,16.125)"/>
<path d="M0 0 C1.38112221 -0.01051392 1.38112221 -0.01051392 2.79014587 -0.02124023 C5.83371132 -0.03884545 8.87634697 -0.02718835 11.91992188 -0.01367188 C14.03454772 -0.01636606 16.14917235 -0.02024786 18.26379395 -0.02526855 C22.69567662 -0.03116704 27.12723683 -0.02258918 31.55908203 -0.00390625 C37.2423189 0.01888326 42.9248002 0.00576209 48.60800934 -0.01819611 C52.97460634 -0.03264448 57.34102396 -0.02805245 61.70762634 -0.01768494 C63.80321848 -0.015015 65.89882685 -0.01829674 67.99440002 -0.02760315 C70.92248728 -0.03775273 73.84934795 -0.02228963 76.77734375 0 C78.07882607 -0.01214539 78.07882607 -0.01214539 79.40660095 -0.02453613 C85.28520092 0.05844419 85.28520092 0.05844419 88.39562988 2.42492676 C91.67692052 7.02399188 91.14591584 11.33026109 91.20117188 16.83007812 C91.24467773 18.25610352 91.24467773 18.25610352 91.2890625 19.7109375 C91.32943476 24.1549913 91.34987028 26.76159312 88.99414062 30.62304688 C85.0263213 34.19334812 81.3030021 33.68503056 76.20385742 33.71044922 C74.85484344 33.72271545 74.85484344 33.72271545 73.47857666 33.73522949 C70.49418814 33.76009821 67.50984721 33.77660279 64.52539062 33.79101562 C63.50743723 33.7963393 62.48948383 33.80166298 61.44068336 33.80714798 C56.05331805 33.83388526 50.66597596 33.85325881 45.27856445 33.86767578 C39.70970051 33.88433018 34.14142761 33.92911317 28.57278728 33.98004723 C24.29455371 34.01367684 20.01646119 34.0252485 15.73810768 34.03090286 C13.68516329 34.03762658 11.63222855 34.05287759 9.57941246 34.07679367 C6.70633926 34.1083576 3.83487046 34.1084952 0.96166992 34.10107422 C0.11316971 34.11747955 -0.73533051 34.13388489 -1.60954285 34.15078735 C-5.9448321 34.10493477 -7.60781469 33.91127012 -11.13894653 31.15031433 C-13.4110494 28.11750997 -13.74308387 26.66827191 -13.74023438 22.91992188 C-13.74216797 21.87126953 -13.74410156 20.82261719 -13.74609375 19.7421875 C-13.72224609 18.65744141 -13.69839844 17.57269531 -13.67382812 16.45507812 C-13.68478516 15.36646484 -13.69574219 14.27785156 -13.70703125 13.15625 C-13.63430982 5.27809491 -13.63430982 5.27809491 -11.64744568 2.3888092 C-7.88412069 -0.38789595 -4.56616842 -0.04261132 0 0 Z " fill="#918290" transform="translate(388.111328125,274.482421875)"/>
<path d="M0 0 C0.90924225 -0.00671722 1.8184845 -0.01343445 2.75527954 -0.02035522 C5.76675859 -0.0393827 8.77801533 -0.04326185 11.78955078 -0.04541016 C13.88078911 -0.0518349 15.97202652 -0.05856302 18.06326294 -0.06558228 C22.44974858 -0.07756702 26.83615539 -0.08126188 31.22265625 -0.08007812 C36.84411541 -0.0798749 42.46506923 -0.10717581 48.08640862 -0.14162254 C52.4066907 -0.16385803 56.72685054 -0.16791669 61.04718399 -0.16685867 C63.11963772 -0.16921973 65.19209456 -0.17807155 67.26449203 -0.19352341 C70.16366724 -0.21311488 73.06174469 -0.20737208 75.9609375 -0.1953125 C77.24535736 -0.21217102 77.24535736 -0.21217102 78.5557251 -0.22937012 C82.58868705 -0.18673146 84.63074402 -0.00491394 88.14123535 2.15977478 C90.60727293 4.82890073 90.7526293 6.15778616 90.77392578 9.75537109 C90.78037109 10.80273438 90.78681641 11.85009766 90.79345703 12.92919922 C90.76445312 14.56211914 90.76445312 14.56211914 90.73486328 16.22802734 C90.75419922 17.31277344 90.77353516 18.39751953 90.79345703 19.51513672 C90.78701172 20.56378906 90.78056641 21.61244141 90.77392578 22.69287109 C90.76828613 23.64669678 90.76264648 24.60052246 90.75683594 25.58325195 C89.82550306 29.48044073 88.25616379 30.82675411 85.10986328 33.29052734 C82.07006407 34.02115507 79.10791136 33.9845899 75.99267578 33.95336914 C75.08314148 33.96373703 74.17360718 33.97410492 73.23651123 33.98478699 C70.23550054 34.01185103 67.23595176 34.00219717 64.23486328 33.98974609 C62.14648023 33.99565478 60.05810057 34.0029014 57.96972656 34.01142883 C53.59503518 34.02330828 49.22085262 34.01660214 44.84619141 33.99731445 C39.24013731 33.97442222 33.63559828 34.00121165 28.0296936 34.04237652 C23.71791278 34.06795085 19.40649468 34.06537569 15.09466553 34.05448341 C13.02779769 34.05299642 10.9609021 34.06069017 8.894104 34.07773399 C6.0041511 34.09769806 3.11687999 34.07932725 0.22705078 34.05102539 C-0.62608704 34.06474182 -1.47922485 34.07845825 -2.35821533 34.09259033 C-8.00954382 33.98197829 -8.00954382 33.98197829 -10.54185581 31.99357986 C-13.2756237 28.84231364 -14.51672105 26.40988282 -14.44873047 22.25146484 C-14.44164062 21.34138672 -14.43455078 20.43130859 -14.42724609 19.49365234 C-14.394375 18.56037109 -14.36150391 17.62708984 -14.32763672 16.66552734 C-14.32183594 15.72451172 -14.31603516 14.78349609 -14.31005859 13.81396484 C-14.16893152 5.86568833 -14.16893152 5.86568833 -11.89013672 2.29052734 C-7.95079265 -0.33570204 -4.57269444 -0.00481742 0 0 Z " fill="#918190" transform="translate(46.89013671875,274.70947265625)"/>
<path d="M0 0 C0.9095343 -0.0087616 1.8190686 -0.01752319 2.75616455 -0.02655029 C5.75720176 -0.04852422 8.75676079 -0.0339985 11.7578125 -0.01708984 C13.84619428 -0.02045855 15.93457415 -0.02531162 18.02294922 -0.03158569 C22.39765101 -0.03895432 26.771842 -0.02825152 31.14648438 -0.00488281 C36.75239723 0.02360458 42.35711323 0.00720061 47.96298218 -0.02274513 C52.27474984 -0.04081815 56.58623402 -0.03505997 60.89801025 -0.02210617 C62.96486554 -0.01877219 65.03174661 -0.02285894 67.09857178 -0.03450394 C69.98828233 -0.04721243 72.87605845 -0.02783536 75.765625 0 C77.04533173 -0.01518173 77.04533173 -0.01518173 78.35089111 -0.03067017 C82.69856023 0.04686591 84.38128481 0.25289301 87.91517639 3.02967834 C90.10841132 5.94705787 90.49702979 7.21025108 90.44140625 10.80712891 C90.43431641 11.76554687 90.42722656 12.72396484 90.41992188 13.71142578 C90.37061523 15.19545898 90.37061523 15.19545898 90.3203125 16.70947266 C90.31161133 18.19930664 90.31161133 18.19930664 90.30273438 19.71923828 C90.15847838 28.28804453 90.15847838 28.28804453 87.8828125 31.64697266 C84.01899725 34.43288404 79.51055528 33.94236359 74.95507812 33.9375 C74.05383713 33.94421722 73.15259613 33.95093445 72.2240448 33.95785522 C69.24566127 33.97684971 66.26750282 33.98075983 63.2890625 33.98291016 C61.21927802 33.98933588 59.14949447 33.99606407 57.07971191 34.00308228 C52.74208468 34.01505782 48.40453713 34.01876269 44.06689453 34.01757812 C38.50477703 34.01737465 32.94316884 34.04470534 27.38117218 34.07912254 C23.1072555 34.10133986 18.83346254 34.10541729 14.55949402 34.10435867 C12.50854228 34.10672133 10.45758747 34.11558209 8.4066925 34.13102341 C5.54094525 34.15058354 2.67631143 34.14488521 -0.18945312 34.1328125 C-1.03840652 34.14405151 -1.88735992 34.15529053 -2.76203918 34.16687012 C-8.51710537 34.10515061 -8.51710537 34.10515061 -11.6126709 31.74160767 C-14.98600157 27.04515133 -14.41319777 22.46069585 -14.4921875 16.83447266 C-14.52957031 15.83609375 -14.56695312 14.83771484 -14.60546875 13.80908203 C-14.62287109 12.35791992 -14.62287109 12.35791992 -14.640625 10.87744141 C-14.66044434 9.99467529 -14.68026367 9.11190918 -14.70068359 8.20239258 C-12.90381917 0.33302858 -6.76432738 -0.08024824 0 0 Z " fill="#918290" transform="translate(218.1171875,274.35302734375)"/>
<path d="M0 0 C9.9 0 19.8 0 30 0 C30.06907308 6.26262605 30.12874712 12.52391689 30.16479492 18.78662109 C30.17983076 20.91459648 30.20026483 23.04254114 30.22631836 25.17041016 C30.26293089 28.23868417 30.27977881 31.30654649 30.29296875 34.375 C30.30845261 35.31802979 30.32393646 36.26105957 30.33988953 37.23266602 C30.34158671 43.97612704 29.60627032 49.87029464 25.1328125 55.2421875 C24.13894531 56.05042969 24.13894531 56.05042969 23.125 56.875 C22.46757812 57.42929687 21.81015625 57.98359375 21.1328125 58.5546875 C16.38250034 61.7737635 12.4258278 62.24218788 6.73046875 62.1953125 C6.04946609 62.1924826 5.36846344 62.18965271 4.66682434 62.18673706 C2.50686545 62.17560525 0.34733206 62.15051457 -1.8125 62.125 C-3.28319711 62.11496111 -4.75390076 62.10583685 -6.22460938 62.09765625 C-9.81654286 62.07568913 -13.40822985 62.0412082 -17 62 C-14 60 -14 60 -11.1875 58.8125 C-6.3600792 56.06749602 -2.76980875 52.30942626 -1 47 C-0.88574862 45.45102275 -0.82382085 43.89788234 -0.79467773 42.3449707 C-0.77473251 41.40422195 -0.75478729 40.46347321 -0.73423767 39.49421692 C-0.71752518 38.48163315 -0.70081268 37.46904938 -0.68359375 36.42578125 C-0.66281265 35.38681198 -0.64203156 34.34784271 -0.62062073 33.27738953 C-0.55519344 29.95582747 -0.49627179 26.63418584 -0.4375 23.3125 C-0.39430831 21.0618407 -0.35069381 18.81118948 -0.30664062 16.56054688 C-0.19872273 11.04044499 -0.0995982 5.5202834 0 0 Z " fill="#D8ECFE" transform="translate(141,440)"/>
<path d="M0 0 C27.8070108 -2.91672125 27.8070108 -2.91672125 39.01489258 5.26806641 C42.40553747 8.08625652 45.68357043 10.98884355 48.87597656 14.02978516 C51.74592349 16.69190834 54.7992549 18.87362845 58 21.125 C63.61545238 25.33258968 67.75102992 29.18008719 70 36 C70.22705078 38.9543457 70.22705078 38.9543457 70.1953125 42.17578125 C70.19031738 43.21903564 70.18532227 44.26229004 70.18017578 45.3371582 C70.16196777 46.649021 70.14375977 47.96088379 70.125 49.3125 C70.08375 53.499375 70.0425 57.68625 70 62 C60.1 62 50.2 62 40 62 C39.75 48.9375 39.75 48.9375 39.70214844 44.85913086 C39.47739367 36.9388912 39.02835755 32.05366419 33.29003906 26.27929688 C28.34706898 21.77035578 22.91141433 17.85925533 17.5 13.9375 C14.33223318 11.62650479 11.16524328 9.31445048 8 7 C7.21625 6.42781738 6.4325 5.85563477 5.625 5.26611328 C4.8928125 4.72583496 4.160625 4.18555664 3.40625 3.62890625 C2.74947266 3.14623291 2.09269531 2.66355957 1.41601562 2.16625977 C0.94873047 1.78139404 0.48144531 1.39652832 0 1 C0 0.67 0 0.34 0 0 Z " fill="#D8ECFE" transform="translate(101,148)"/>
<path d="M0 0 C29.40040089 -2.66345095 29.40040089 -2.66345095 40.3125 6.1875 C42.53616665 8.09238414 44.69850809 10.03908753 46.83105469 12.04541016 C49.05570596 14.05020057 51.35607609 15.79859122 53.7890625 17.54296875 C54.56983154 18.10411377 55.35060059 18.66525879 56.1550293 19.2434082 C57.62496256 20.29416914 59.09758355 21.34118542 60.57348633 22.38354492 C65.25418015 25.88183251 68.48764037 29.24372127 70 35 C70.4446104 39.6859263 70.37806838 44.29887026 70.25 49 C70.1675 53.29 70.085 57.58 70 62 C60.43 62 50.86 62 41 62 C40.8125 50.125 40.8125 50.125 40.79223633 46.44580078 C40.5492879 37.89039631 39.11994049 31.04377509 32.84741211 24.88720703 C30.32373267 22.80364839 27.73395857 20.88995157 25.0625 19 C24.13477783 18.3186499 23.20705566 17.6372998 22.2512207 16.93530273 C19.51620122 14.93438643 16.76240872 12.96287151 14 11 C12.50254159 9.92847286 11.00513989 8.85686646 9.5078125 7.78515625 C7.64936881 6.45655112 5.7889457 5.13293019 3.91235352 3.83007812 C2.59209254 2.90944726 1.2930957 1.95841211 0 1 C0 0.67 0 0.34 0 0 Z " fill="#D8ECFE" transform="translate(442,148)"/>
<path d="M0 0 C28.35554303 -2.55227934 28.35554303 -2.55227934 37.73828125 4.40014648 C40.58533787 6.86497144 43.31223796 9.41855622 45.9765625 12.07958984 C49.33804988 15.26992041 53.10688963 17.87796763 56.875 20.5625 C66.93083529 27.79250588 66.93083529 27.79250588 69 34 C69.0833804 36.13794525 69.10733747 38.27842009 69.09765625 40.41796875 C69.09515869 41.5474292 69.09266113 42.67688965 69.09008789 43.84057617 C69.08098389 45.27506104 69.07187988 46.7095459 69.0625 48.1875 C69.041875 52.745625 69.02125 57.30375 69 62 C59.43 62 49.86 62 40 62 C39.75 49.5 39.75 49.5 39.70214844 45.60742188 C39.46353821 37.53486126 38.50287774 31.7149786 32.87109375 25.7421875 C32.06800781 25.12601563 31.26492188 24.50984375 30.4375 23.875 C29.00857422 22.76511719 29.00857422 22.76511719 27.55078125 21.6328125 C22.27961947 17.69846082 16.97709678 13.80261359 11.63842773 9.96044922 C7.40464841 6.89073126 3.56102363 3.83494852 0 0 Z " fill="#D8ECFE" transform="translate(272,148)"/>
<path d="M0 0 C9.57 0 19.14 0 29 0 C29.13821509 6.67271764 29.25751151 13.3404158 29.32958984 20.01342773 C29.35965186 22.28020104 29.40051357 24.54685908 29.45263672 26.81323242 C29.52591663 30.08280964 29.55956336 33.35084147 29.5859375 36.62109375 C29.61690521 37.62458359 29.64787292 38.62807343 29.67977905 39.66197205 C29.68320837 46.92880782 27.81756623 51.53155187 23 57 C17.6715972 61.73017817 12.74560214 62.12600657 5.828125 62.09765625 C4.8044986 62.09553383 4.8044986 62.09553383 3.76019287 62.09336853 C1.59008316 62.08779084 -0.5799217 62.07524254 -2.75 62.0625 C-4.22525892 62.05748211 -5.70051947 62.05291971 -7.17578125 62.04882812 C-10.78388798 62.03782875 -14.39193375 62.02057953 -18 62 C-15.6129711 60.4086474 -13.71778938 59.45448819 -11.125 58.375 C-6.38031621 56.05945451 -4.23580245 52.67311499 -2 48 C-1.07076023 45.21228069 -0.85132662 43.41765752 -0.79467773 40.52856445 C-0.77473251 39.62785721 -0.75478729 38.72714996 -0.73423767 37.79914856 C-0.71752518 36.83031235 -0.70081268 35.86147614 -0.68359375 34.86328125 C-0.66281265 33.86870407 -0.64203156 32.87412689 -0.62062073 31.84941101 C-0.55520588 28.67051133 -0.4962776 25.49152866 -0.4375 22.3125 C-0.39430712 20.15819452 -0.35069258 18.00389746 -0.30664062 15.84960938 C-0.19873877 10.56649009 -0.09960509 5.28330833 0 0 Z " fill="#D8ECFE" transform="translate(483,440)"/>
<path d="M0 0 C9.57 0 19.14 0 29 0 C29.09200167 6.70845492 29.1715915 13.41470708 29.21972656 20.12329102 C29.2397992 22.40364005 29.26706343 24.68393789 29.30175781 26.96411133 C29.35046609 30.24833842 29.37301286 33.53188292 29.390625 36.81640625 C29.41127014 37.83021866 29.43191528 38.84403107 29.45318604 39.88856506 C29.45541725 46.98169488 28.30108807 51.31054862 23.47265625 56.70703125 C17.77372703 61.17461288 13.73345685 62.25285623 6.51171875 62.1953125 C5.80852005 62.1924826 5.10532135 62.18965271 4.3808136 62.18673706 C2.14953108 62.17560151 -0.08134017 62.15050997 -2.3125 62.125 C-3.83137438 62.1149616 -5.3502551 62.10583726 -6.86914062 62.09765625 C-10.57955921 62.07568413 -14.28973942 62.04120047 -18 62 C-17.38125 61.69223633 -16.7625 61.38447266 -16.125 61.06738281 C-8.90095324 57.43876006 -3.68716933 54.06150798 -1 46 C-0.88599048 44.48165793 -0.82387323 42.95910409 -0.79467773 41.43676758 C-0.77473251 40.51603958 -0.75478729 39.59531158 -0.73423767 38.64668274 C-0.71752518 37.65597275 -0.70081268 36.66526276 -0.68359375 35.64453125 C-0.66281265 34.62775803 -0.64203156 33.6109848 -0.62062073 32.56340027 C-0.55519952 29.31316937 -0.49627463 26.06285723 -0.4375 22.8125 C-0.39430773 20.61001762 -0.35069321 18.40754347 -0.30664062 16.20507812 C-0.19873057 10.80346751 -0.09960157 5.40179583 0 0 Z " fill="#D8ECFE" transform="translate(312,440)"/>
<path d="M0 0 C0.68505615 -0.00525696 1.3701123 -0.01051392 2.07592773 -0.01593018 C4.33543858 -0.02910959 6.59424202 -0.02039897 8.85375977 -0.01025391 C10.42790359 -0.01227548 12.00204651 -0.01518762 13.57618713 -0.01895142 C16.87396163 -0.02337216 20.17149217 -0.0169528 23.46923828 -0.00292969 C27.69052562 0.0141482 31.91124012 0.00432863 36.13250637 -0.01364708 C39.38308503 -0.02450379 42.63352861 -0.02102972 45.8841114 -0.0132637 C47.44019705 -0.01126617 48.99629506 -0.01370525 50.55236626 -0.02070236 C52.73055216 -0.02834662 54.90781974 -0.01667171 57.0859375 0 C58.94314674 0.00358017 58.94314674 0.00358017 60.83787537 0.00723267 C64.41026377 0.42343811 66.29886289 1.16550375 69.10766602 3.38818359 C70.23266602 6.76318359 70.23266602 6.76318359 70.10766602 10.38818359 C67.52559868 13.74819224 66.01261308 15.21412635 61.80664062 16.02310181 C60.55375244 16.02707977 59.30086426 16.03105774 58.01000977 16.03515625 C57.31505402 16.04391785 56.62009827 16.05267944 55.90408325 16.06170654 C53.61713389 16.08363304 51.33213345 16.06917459 49.04516602 16.05224609 C47.45002879 16.05561624 45.85489408 16.06047051 44.25976562 16.06674194 C40.9207305 16.07410403 37.58236529 16.06343011 34.2434082 16.04003906 C29.96911801 16.01155058 25.69639754 16.02795827 21.42216492 16.05790138 C18.12947825 16.07599299 14.8371621 16.07020804 11.54446411 16.05726242 C9.96883965 16.0539335 8.39318125 16.05799746 6.81759644 16.06966019 C4.61260247 16.08240105 2.41012902 16.06295317 0.20532227 16.03515625 C-1.67401001 16.0291893 -1.67401001 16.0291893 -3.59130859 16.02310181 C-7.79713983 15.21415351 -9.31323005 13.75069914 -11.89233398 10.38818359 C-11.95483398 6.76318359 -11.95483398 6.76318359 -10.89233398 3.38818359 C-7.56379496 -0.04422381 -4.64199945 0.0089542 0 0 Z " fill="#928390" transform="translate(226.892333984375,366.61181640625)"/>
<path d="M0 0 C0.70441727 -0.00846954 1.40883453 -0.01693909 2.13459778 -0.02566528 C4.46442702 -0.04907365 6.79359718 -0.05005647 9.12353516 -0.04882812 C10.74395004 -0.05592832 12.3643624 -0.06362711 13.98477173 -0.07189941 C17.38265976 -0.08535365 20.78031543 -0.08690924 24.17822266 -0.08105469 C28.52870069 -0.0751629 32.87806106 -0.10572287 37.22832298 -0.14617157 C40.57585639 -0.17204862 43.92312087 -0.17492593 47.27074051 -0.17127991 C48.87430247 -0.17297172 50.47787677 -0.18262027 52.08134079 -0.20042419 C54.32711772 -0.22261224 56.57063571 -0.21291586 58.81640625 -0.1953125 C60.09309174 -0.19736694 61.36977722 -0.19942139 62.68515015 -0.20153809 C66.91422603 0.58242686 68.3910032 2.10137848 71.03759766 5.41992188 C71.66259766 7.91992188 71.66259766 7.91992188 71.03759766 10.41992188 C68.40880816 13.70150598 66.92012037 15.25017773 62.73657227 16.05484009 C61.48368408 16.05881805 60.2307959 16.06279602 58.93994141 16.06689453 C58.24498566 16.07565613 57.55002991 16.08441772 56.83401489 16.09344482 C54.54706554 16.11537132 52.26206509 16.10091287 49.97509766 16.08398438 C48.37996043 16.08735452 46.78482572 16.0922088 45.18969727 16.09848022 C41.85066214 16.10584231 38.51229693 16.09516839 35.17333984 16.07177734 C30.89904965 16.04328886 26.62632918 16.05969655 22.35209656 16.08963966 C19.05940989 16.10773127 15.76709374 16.10194632 12.47439575 16.0890007 C10.89877129 16.08567178 9.32311289 16.08973574 7.74752808 16.10139847 C5.54253411 16.11413933 3.34006066 16.09469145 1.13525391 16.06689453 C-0.74407837 16.06092758 -0.74407837 16.06092758 -2.66137695 16.05484009 C-6.86706585 15.24591917 -8.38626669 13.78494746 -10.96240234 10.41992188 C-10.96240234 6.97294883 -10.77497326 4.63421398 -8.83505249 1.73522949 C-5.96076822 -0.28360355 -3.47951457 0.02297453 0 0 Z " fill="#938390" transform="translate(225.96240234375,333.580078125)"/>
<path d="M0 0 C1.04221458 -0.01051392 1.04221458 -0.01051392 2.10548401 -0.02124023 C4.39763604 -0.038816 6.68854874 -0.02719902 8.98071289 -0.01367188 C10.577278 -0.01636725 12.17384151 -0.02025005 13.770401 -0.02526855 C17.11532227 -0.03116325 20.45981598 -0.02260316 23.8046875 -0.00390625 C28.08665796 0.01886532 32.36762456 0.00577222 36.64955807 -0.01819611 C39.94649273 -0.03267096 43.24319061 -0.02804016 46.54013252 -0.01768494 C48.11854738 -0.01502133 49.69698392 -0.01827456 51.27537346 -0.02760315 C53.48493998 -0.03779514 55.69289673 -0.02223295 57.90234375 0 C59.78620033 0.00477356 59.78620033 0.00477356 61.70811462 0.00964355 C65.62164046 0.6105996 67.29718531 1.67425794 70.01586914 4.51757812 C70.57836914 8.01757812 70.57836914 8.01757812 70.01586914 11.51757812 C67.77807297 14.59105156 66.58305465 15.42825977 62.79040527 16.0255127 C61.51451538 16.02869507 60.23862549 16.03187744 58.92407227 16.03515625 C57.86481789 16.04567017 57.86481789 16.04567017 56.78416443 16.05639648 C54.45474685 16.07397187 52.12654862 16.06235659 49.79711914 16.04882812 C48.17573819 16.0515232 46.55435882 16.05540575 44.9329834 16.0604248 C41.5367899 16.06631919 38.14101755 16.05775922 34.74487305 16.0390625 C30.39330779 16.01627251 26.04272932 16.02939598 21.69120026 16.05335236 C18.34369482 16.06781223 14.99642303 16.06320358 11.64891052 16.05284119 C10.04454939 16.0501744 8.44016698 16.05344201 6.83583069 16.0627594 C4.59253829 16.07292871 2.35083979 16.05742148 0.10766602 16.03515625 C-1.16822388 16.03197388 -2.44411377 16.0287915 -3.75866699 16.0255127 C-6.98413086 15.51757812 -6.98413086 15.51757812 -9.39611816 13.70397949 C-11.71662248 10.50907191 -11.5337244 8.36473291 -10.98413086 4.51757812 C-7.81991528 0.17941806 -5.20748094 0.01320375 0 0 Z " fill="#928190" transform="translate(55.984130859375,366.482421875)"/>
<path d="M0 0 C0.70616959 -0.00700928 1.41233917 -0.01401855 2.13990784 -0.02124023 C4.46932542 -0.03881562 6.79752364 -0.02720034 9.12695312 -0.01367188 C10.74833407 -0.01636695 12.36971345 -0.0202495 13.99108887 -0.02526855 C17.38728236 -0.03116294 20.78305472 -0.02260297 24.17919922 -0.00390625 C28.53076448 0.01888374 32.88134295 0.00576027 37.23287201 -0.01819611 C40.58037745 -0.03265598 43.92764924 -0.02804733 47.27516174 -0.01768494 C48.87952288 -0.01501815 50.48390528 -0.01828576 52.08824158 -0.02760315 C54.33153397 -0.03777246 56.57323248 -0.02226523 58.81640625 0 C60.09229614 0.00318237 61.36818604 0.00636475 62.68273926 0.00964355 C66.46594873 0.60540992 67.6550867 1.47282153 69.90820312 4.51757812 C70.47070312 7.45507812 70.47070312 7.45507812 69.90820312 10.51757812 C67.29159847 13.83684847 65.8038506 15.34748208 61.60044861 16.14576721 C60.34454422 16.14672897 59.08863983 16.14769073 57.79467773 16.14868164 C56.74983467 16.1594146 56.74983467 16.1594146 55.68388367 16.17036438 C53.39209478 16.18720974 51.10227358 16.1678786 48.81054688 16.14648438 C47.21301614 16.14731338 45.61548549 16.14977396 44.01795959 16.15379333 C40.67471553 16.15664832 37.33214255 16.14197871 33.98901367 16.11450195 C29.70581938 16.08039117 25.42382256 16.0864489 21.14057064 16.10516453 C17.8436537 16.11573667 14.54701505 16.1067954 11.25012398 16.09177971 C9.67089222 16.08660081 8.09163137 16.08707618 6.51240349 16.09332466 C4.30507845 16.09878093 2.099464 16.07839358 -0.10766602 16.05102539 C-1.99032921 16.04172752 -1.99032921 16.04172752 -3.911026 16.03224182 C-7.66894152 15.42419341 -8.8690533 14.56359157 -11.09179688 11.51757812 C-11.64139042 7.67042334 -11.82428849 5.52608434 -9.50378418 2.33117676 C-6.22579623 -0.13357687 -4.08004802 0.01017661 0 0 Z " fill="#928190" transform="translate(56.091796875,333.482421875)"/>
<path d="M0 0 C0.68520218 -0.00700928 1.37040436 -0.01401855 2.07637024 -0.02124023 C4.33062844 -0.03877733 6.58362073 -0.0272142 8.83789062 -0.01367188 C10.41060628 -0.01636806 11.98332031 -0.02025153 13.55603027 -0.02526855 C16.8478995 -0.03115774 20.13933378 -0.02261981 23.43115234 -0.00390625 C27.64471813 0.01888353 31.85726474 0.00575726 36.07079315 -0.01819611 C39.31711466 -0.03267009 42.56319567 -0.02804088 45.80952454 -0.01768494 C47.36281964 -0.01502205 48.91613677 -0.01827203 50.46940613 -0.02760315 C52.64295036 -0.03779588 54.81485848 -0.02223303 56.98828125 0 C58.84096619 0.00477356 58.84096619 0.00477356 60.7310791 0.00964355 C64.61512837 0.6142423 66.29052117 1.69908513 68.99414062 4.51757812 C69.55664062 8.01757812 69.55664062 8.01757812 68.99414062 11.51757812 C66.75679798 14.58903474 65.55799725 15.42760764 61.76867676 16.03224182 C60.49278687 16.0384404 59.21689697 16.04463898 57.90234375 16.05102539 C57.19617416 16.05964096 56.49000458 16.06825653 55.76243591 16.07713318 C53.43304577 16.09979757 51.10485814 16.09305474 48.77539062 16.08398438 C47.15400841 16.08921954 45.53262924 16.09549563 43.91125488 16.10276794 C40.51507219 16.11317274 37.11930848 16.10860946 33.72314453 16.09399414 C29.37143136 16.07679932 25.02103767 16.10030831 20.66947174 16.13548374 C17.32195287 16.15744569 13.9747504 16.15601943 10.62718201 16.14771843 C9.02280733 16.14689836 7.41840956 16.15377248 5.81410217 16.16848946 C3.57055563 16.18591644 1.32938836 16.17141354 -0.9140625 16.14868164 C-2.18995239 16.14771988 -3.46584229 16.14675812 -4.78039551 16.14576721 C-8.00585938 15.51757812 -8.00585938 15.51757812 -10.41394043 13.16954041 C-12.37136517 9.90868558 -12.72146259 8.25461713 -12.00585938 4.51757812 C-8.1576577 0.57037726 -5.42168191 0.01396931 0 0 Z " fill="#91838F" transform="translate(398.005859375,366.482421875)"/>
<path d="M0 0 C0.70616959 -0.00700928 1.41233917 -0.01401855 2.13990784 -0.02124023 C4.46932542 -0.03881562 6.79752364 -0.02720034 9.12695312 -0.01367188 C10.74833407 -0.01636695 12.36971345 -0.0202495 13.99108887 -0.02526855 C17.38728236 -0.03116294 20.78305472 -0.02260297 24.17919922 -0.00390625 C28.53076448 0.01888374 32.88134295 0.00576027 37.23287201 -0.01819611 C40.58037745 -0.03265598 43.92764924 -0.02804733 47.27516174 -0.01768494 C48.87952288 -0.01501815 50.48390528 -0.01828576 52.08824158 -0.02760315 C54.33153397 -0.03777246 56.57323248 -0.02226523 58.81640625 0 C60.09229614 0.00318237 61.36818604 0.00636475 62.68273926 0.00964355 C66.47538863 0.60689648 67.67040696 1.44410469 69.90820312 4.51757812 C70.47070312 8.01757812 70.47070312 8.01757812 69.90820312 11.51757812 C67.20549723 14.33384061 65.52548774 15.42021742 61.6451416 16.03224182 C60.41001831 16.0384404 59.17489502 16.04463898 57.90234375 16.05102539 C57.21714157 16.05964096 56.53193939 16.06825653 55.82597351 16.07713318 C53.57174392 16.09974818 51.31876194 16.09306404 49.06445312 16.08398438 C47.49173617 16.08922169 45.91902236 16.09549857 44.34631348 16.10276794 C41.05445547 16.11316357 37.76302998 16.10862263 34.47119141 16.09399414 C30.25747288 16.07679944 26.0451171 16.10031271 21.8315506 16.13548374 C18.5852153 16.15746714 15.33920571 16.15601427 12.09281921 16.14771843 C10.53951014 16.14689956 8.98617699 16.15375081 7.43293762 16.16848946 C5.2591322 16.18595668 3.08777059 16.17138084 0.9140625 16.14868164 C-0.32106079 16.14771988 -1.55618408 16.14675812 -2.82873535 16.14576721 C-6.9991016 15.34290813 -8.48968699 13.80787043 -11.09179688 10.51757812 C-11.65429688 7.45507812 -11.65429688 7.45507812 -11.09179688 4.51757812 C-7.87028842 0.16418165 -5.25922077 0.01311775 0 0 Z " fill="#91838F" transform="translate(397.091796875,333.482421875)"/>
</svg>
