<?xml version="1.0" encoding="UTF-8"?>
<svg version="1.1" xmlns="http://www.w3.org/2000/svg" width="512" height="512">
<path d="M0 0 C1.88851685 -0.00954712 1.88851685 -0.00954712 3.81518555 -0.01928711 C10.8626054 0.07989135 15.31992171 0.31992171 20.5 5.5 C22.03604389 11.31244776 20.94721932 14.99312332 18.1875 20.125 C17.82358154 20.82085205 17.45966309 21.5167041 17.0847168 22.23364258 C2.84998917 48.57586206 -22.36774274 67.63023858 -50.8203125 76.24609375 C-65.46325555 80.35116073 -81.45420969 82.35708729 -96.5 79.5 C-96.16226563 80.67433594 -95.82453125 81.84867187 -95.4765625 83.05859375 C-92.45731386 93.85322532 -90.45786878 104.33439528 -89.5 115.5 C-88.33210937 115.47679688 -87.16421875 115.45359375 -85.9609375 115.4296875 C-54.41890306 115.47124486 -23.98748198 133.93191512 -1.5 154.5 C-0.67886719 155.24894531 0.14226562 155.99789062 0.98828125 156.76953125 C15.82255084 170.97143411 26.89217631 188.97683511 35.5 207.5 C40.41407079 206.44698483 45.282786 205.30174625 50.14526367 204.02954102 C58.21306257 201.93760368 66.20381551 200.42504405 74.5 199.5 C75.96179688 199.33177734 75.96179688 199.33177734 77.453125 199.16015625 C124.36647093 194.67759833 172.67765075 204.67665368 209.9765625 234.5234375 C222.57129883 244.9582588 232.62133834 256.82226224 241.5 270.5 C242.09039062 271.36625 242.68078125 272.2325 243.2890625 273.125 C258.42878124 296.44178608 264.07425449 325.30776622 263.89111328 352.64746094 C263.87501564 355.49723141 263.89106669 358.34558432 263.91015625 361.1953125 C263.9279673 376.0361673 262.26647035 390.0812595 257.875 404.3125 C257.62484131 405.13161865 257.37468262 405.9507373 257.11694336 406.79467773 C252.77690568 420.43275606 246.87494602 433.85187639 238.5 445.5 C237.84773438 446.43457031 237.19546875 447.36914062 236.5234375 448.33203125 C214.03586738 479.52842398 181.87984671 499.31430788 144.75 508.3125 C143.94796143 508.50739014 143.14592285 508.70228027 142.31958008 508.90307617 C128.88323467 511.96741105 115.6754888 512.85002266 101.94995117 512.81567383 C99.33274176 512.81252436 96.71667944 512.83603887 94.09960938 512.86132812 C59.17685086 512.99288128 23.96310476 503.05203594 -4.5 482.5 C-5.2528125 481.95988281 -6.005625 481.41976563 -6.78125 480.86328125 C-22.40199653 469.1760198 -35.95614885 454.58749398 -45.5 437.5 C-45.5 436.84 -45.5 436.18 -45.5 435.5 C-59.55337919 440.25881623 -66.98576181 443.59064246 -73.9375 457.125 C-77.40193733 463.84367285 -81.06496028 467.27859657 -87.73046875 470.6171875 C-95.38460758 473.05701173 -105.83910728 472.82694 -113.1875 469.5 C-120.6103459 465.00358912 -124.06600327 457.8210574 -127.71484375 450.2109375 C-132.25420252 443.31746926 -138.30314267 440.3966764 -145.875 437.6875 C-164.71411095 430.52022007 -180.12332908 420.82657543 -194.80859375 406.98046875 C-197.41919566 404.50572594 -197.41919566 404.50572594 -200.078125 402.4921875 C-204.57302662 398.79476843 -207.93300992 394.06983073 -211.5 389.5 C-212.16257813 388.65308594 -212.82515625 387.80617188 -213.5078125 386.93359375 C-234.22872822 359.45950509 -247.49297504 324.57075649 -247.703125 289.9765625 C-247.71018463 289.19702713 -247.71724426 288.41749176 -247.72451782 287.61433411 C-247.95169712 255.1868097 -247.95169712 255.1868097 -244.5 241.5 C-244.29600586 240.66839355 -244.09201172 239.83678711 -243.88183594 238.97998047 C-233.26413933 196.70238359 -209.00486203 157.96325511 -171.3125 134.875 C-152.43727888 123.69413653 -130.66240304 115.23982238 -108.5 115.5 C-111.94544298 93.99273169 -117.91987784 74.21383598 -130.76953125 56.34375 C-133.04580963 52.60304874 -132.81225156 50.65200177 -132.10546875 46.48828125 C-131.5 44.5 -131.5 44.5 -129.8125 42.5 C-125.98833394 40.84630657 -123.08987106 39.92927706 -119.0625 41.375 C-111.93842534 47.28276923 -107.64901746 55.36914161 -103.5 63.5 C-101.03185761 60.36418384 -99.06261194 57.07465544 -97.0625 53.625 C-81.50035755 27.84387681 -55.73364605 10.20622229 -26.8125 2.5625 C-17.91968495 0.41532115 -9.12473799 0.04024203 0 0 Z " fill="#AFDC82" transform="translate(248.5,-0.5)"/>
<path d="M0 0 C11.88 0 23.76 0 36 0 C33.525 1.98 33.525 1.98 31 4 C28.19013694 6.58200006 27.80069823 8.62384541 27.6257782 12.3019104 C27.61098945 14.09916209 27.61286442 15.89659624 27.62768555 17.69384766 C27.62403488 18.6763298 27.62038422 19.65881195 27.61662292 20.67106628 C27.60851595 23.91890743 27.62212711 27.16624998 27.63671875 30.4140625 C27.63723725 32.66799926 27.63671993 34.92193649 27.63520813 37.1758728 C27.63529785 41.89856724 27.64572956 46.62109097 27.66381836 51.34375 C27.68653142 57.40813658 27.68704494 63.47227424 27.68030071 69.53669167 C27.67696565 74.1896894 27.68358165 78.84263 27.69342995 83.49561691 C27.69728828 85.73241248 27.69842755 87.96921439 27.6968441 90.20601273 C27.6964748 93.32577979 27.70905473 96.44522284 27.7253418 99.56494141 C27.72286438 100.49589127 27.72038696 101.42684113 27.71783447 102.38600159 C27.72491928 103.23279984 27.73200409 104.07959808 27.73930359 104.95205688 C27.74135646 105.68982676 27.74340933 106.42759663 27.74552441 107.18772316 C27.84987625 109.25115059 27.84987625 109.25115059 30 111 C40.4341543 110.10286862 50.16555331 95.99850045 57.23828125 88.9296875 C58.60964399 87.56154303 59.98107976 86.19347175 61.35258484 84.82546997 C64.21282295 81.97119088 67.07101599 79.11488178 69.92797852 76.25732422 C73.58573065 72.59947002 77.25034201 68.94857111 80.91671467 65.29936028 C83.74513199 62.48206086 86.56899329 59.6602288 89.39159203 56.83710098 C90.74115828 55.48871283 92.09234191 54.14194142 93.44518471 52.79684067 C95.33323534 50.91859637 97.21483442 49.03411132 99.0949707 47.14794922 C99.6513623 46.59717712 100.20775391 46.04640503 100.78100586 45.47894287 C105.84822006 40.42790941 105.84822006 40.42790941 108.328125 33.90234375 C108.19136118 30.46273379 107.91496534 27.31305998 107 24 C117.40925743 30.22978286 126.43262274 38.54077842 134 48 C133.29875 47.91878906 132.5975 47.83757812 131.875 47.75390625 C130.92625 47.69074219 129.9775 47.62757813 129 47.5625 C128.071875 47.48128906 127.14375 47.40007812 126.1875 47.31640625 C122.73950046 48.05586694 121.79872675 48.80367221 119.24768066 51.10787964 C118.54250809 51.74426739 117.83733551 52.38065514 117.11079407 53.03632736 C113.97020511 55.95801863 110.89328933 58.93519714 107.84960938 61.95751953 C107.18519836 62.61375305 106.52078735 63.26998657 105.83624268 63.94610596 C103.66910887 66.08870085 101.50589298 68.23518187 99.34375 70.3828125 C98.22943352 71.48914347 98.22943352 71.48914347 97.09260559 72.61782455 C93.17312413 76.51073226 89.25721805 80.40720011 85.34375 84.30615234 C82.10715469 87.52933409 78.86341567 90.7450618 75.61328125 93.95458984 C71.67673974 97.84197047 67.75246809 101.74133679 63.83686829 105.64980698 C62.34511569 107.13483423 60.84910161 108.61559333 59.34880066 110.0919838 C57.25908944 112.1502326 55.18553925 114.22352743 53.11523438 116.30126953 C52.18031158 117.21158432 52.18031158 117.21158432 51.22650146 118.14028931 C47.9164913 121.44373668 47.9164913 121.44373668 46.49279785 125.79367065 C46.83881351 128.19262068 46.83881351 128.19262068 49 130 C50.97399271 130.30589136 50.97399271 130.30589136 53.26899719 130.26069641 C54.16483521 130.26778122 55.06067322 130.27486603 55.98365784 130.28216553 C56.96914108 130.27968811 57.95462433 130.27721069 58.9699707 130.2746582 C60.00586334 130.27976913 61.04175598 130.28488007 62.10903931 130.29014587 C65.54801139 130.30409399 68.98678417 130.30308088 72.42578125 130.30078125 C74.80991186 130.30466591 77.19404177 130.3090001 79.57817078 130.31376648 C84.58265421 130.32124037 89.58706712 130.32092939 94.59155273 130.31567383 C101.00773567 130.30988415 107.42362947 130.32679266 113.8397646 130.3500185 C118.7665323 130.36474642 123.69323028 130.3656287 128.6200161 130.36250877 C130.98552205 130.36302267 133.35103183 130.36827318 135.71651649 130.37832069 C139.0251507 130.39064634 142.33322064 130.38391575 145.6418457 130.37231445 C147.11096153 130.38378006 147.11096153 130.38378006 148.60975647 130.39547729 C157.1403785 130.32930831 159.80301057 128.19698943 166 122 C166 133.55 166 145.1 166 157 C164 156 164 156 162.625 153.5625 C160.83971218 150.74723843 160.02788102 150.18430686 157 149 C154.77507142 148.7053378 154.77507142 148.7053378 152.38764954 148.75276184 C151.0058551 148.74647011 151.0058551 148.74647011 149.59614563 148.74005127 C148.0912281 148.74848053 148.0912281 148.74848053 146.5559082 148.75708008 C145.4937912 148.75518173 144.43167419 148.75328339 143.33737183 148.75132751 C139.82510001 148.74762127 136.3130347 148.75832017 132.80078125 148.76953125 C130.36508712 148.77072302 127.92939253 148.77117622 125.49369812 148.7709198 C120.39021934 148.77248429 115.28681074 148.78077292 110.18334961 148.79418945 C103.62567671 148.81120623 97.06808077 148.81500302 90.51038837 148.81424427 C85.48257201 148.81451549 80.45477263 148.81998849 75.4269619 148.82724571 C73.00791744 148.83043817 70.58887105 148.83240113 68.1698246 148.83313942 C64.79848537 148.83529536 61.42722964 148.84402255 58.0559082 148.85473633 C56.54188164 148.85405655 56.54188164 148.85405655 54.99726868 148.85336304 C54.08453186 148.85762802 53.17179504 148.86189301 52.23139954 148.86628723 C51.03486991 148.868801 51.03486991 148.868801 49.81416798 148.87136555 C47.97922655 148.8023322 47.97922655 148.8023322 47 150 C47.06497781 155.66425024 48.57259134 158.26750611 52.48895264 162.26879883 C53.12891174 162.89189941 53.76887085 163.515 54.42822266 164.15698242 C55.09987457 164.83432938 55.77152649 165.51167633 56.46353149 166.20954895 C58.68266146 168.43977204 60.92262064 170.64768857 63.1640625 172.85546875 C64.71637519 174.40420309 66.26757831 175.9540503 67.81771851 177.50495911 C71.06867424 180.75122508 74.32945017 183.98717387 77.59814453 187.21557617 C81.77968727 191.3462137 85.94127351 195.49626078 90.0962925 199.65355968 C93.29881518 202.85526485 96.50911148 206.04907778 99.72205734 209.24032021 C101.25876109 210.76750224 102.79367644 212.29648607 104.32674026 213.82732201 C106.47554805 215.96959447 108.63396895 218.10168524 110.79541016 220.23120117 C111.42322388 220.86037445 112.0510376 221.48954773 112.69787598 222.13778687 C116.9032954 226.2531008 121.42551856 230.42624696 127.43359375 231.390625 C128.09488281 231.34421875 128.75617188 231.2978125 129.4375 231.25 C130.613125 231.1675 131.78875 231.085 133 231 C129.62784365 238.54166986 122.50537851 243.54856503 116.125 248.5 C115.55354248 248.94553223 114.98208496 249.39106445 114.39331055 249.85009766 C110.25094781 253 110.25094781 253 108 253 C108.03480469 252.41992188 108.06960938 251.83984375 108.10546875 251.2421875 C108.14607422 250.07042969 108.14607422 250.07042969 108.1875 248.875 C108.22230469 248.10929688 108.25710938 247.34359375 108.29296875 246.5546875 C107.51536231 239.77395938 102.91990554 235.47427469 98.32885742 230.89306641 C97.31853203 229.86762726 97.31853203 229.86762726 96.28779602 228.82147217 C94.0682485 226.57352272 91.83764417 224.33696858 89.60546875 222.1015625 C88.0544905 220.54094165 86.50373793 218.98009648 84.95320129 217.41903687 C81.70614542 214.1540418 78.45297143 210.89528412 75.19604492 207.64013672 C71.02098465 203.46538203 66.86698045 199.27033246 62.71795177 195.06972694 C59.52402998 191.84248584 56.31660273 188.6289355 53.10518837 185.41910934 C51.56735058 183.87772846 50.03438199 182.33147374 48.50639915 180.78032303 C46.3713213 178.61590961 44.21814072 176.47126899 42.05932617 174.33056641 C41.43105927 173.68544098 40.80279236 173.04031555 40.15548706 172.37564087 C36.50977706 168.79769259 36.50977706 168.79769259 31.62129211 167.5418396 C29.08142304 167.72697636 29.08142304 167.72697636 28 169 C27.89398806 172.07323326 27.85322552 175.12411596 27.85473633 178.19799805 C27.85137772 179.16386337 27.8480191 180.1297287 27.84455872 181.12486267 C27.83501364 184.33716091 27.83310354 187.54940719 27.83203125 190.76171875 C27.82882012 192.98794069 27.82545616 195.21416242 27.82194519 197.44038391 C27.81594431 202.11708058 27.81410617 206.79375874 27.81469727 211.47045898 C27.81479871 217.46164872 27.80116911 223.45271947 27.78392506 229.44388103 C27.77279986 234.04641768 27.77077825 238.64892567 27.77130699 243.25147438 C27.77012679 245.45985129 27.76570277 247.66822893 27.75797462 249.87659264 C27.74816849 252.96948906 27.75105583 256.06212867 27.75708008 259.1550293 C27.75146057 260.06696045 27.74584106 260.9788916 27.74005127 261.91845703 C27.76336207 266.63241505 27.97276643 270.64050411 30 275 C32.50995496 276.43923199 32.50995496 276.43923199 35 277 C35 277.33 35 277.66 35 278 C30.70394268 278.82222554 26.66033397 279.11770795 22.2890625 279.09765625 C21.04511719 279.09443359 19.80117188 279.09121094 18.51953125 279.08789062 C16.59173828 279.07532227 16.59173828 279.07532227 14.625 279.0625 C13.31660156 279.05798828 12.00820313 279.05347656 10.66015625 279.04882812 C7.44005719 279.03707594 4.2200523 279.02064543 1 279 C1 278.34 1 277.68 1 277 C1.94875 276.79375 2.8975 276.5875 3.875 276.375 C7.17211333 275.32958139 7.17211333 275.32958139 8.18112183 272.53036499 C9.23162443 268.00141584 9.2635194 263.77220666 9.22705078 259.13916016 C9.22734283 258.16292694 9.22763489 257.18669373 9.22793579 256.18087769 C9.22654687 252.96684763 9.21100612 249.75305186 9.1953125 246.5390625 C9.19158082 244.30561449 9.18873458 242.07216484 9.18673706 239.8387146 C9.17911284 233.96970067 9.15947467 228.10078623 9.1373291 222.23181152 C9.11684463 216.23919012 9.10772978 210.24655259 9.09765625 204.25390625 C9.07622771 192.50256053 9.04210631 180.75128855 9 169 C5.85119903 167.93269815 5.85119903 167.93269815 2 168 C-0.86105578 169.65731224 -2.9973927 171.95519511 -5.28051758 174.32470703 C-5.97083069 175.00903305 -6.6611438 175.69335907 -7.37237549 176.39842224 C-9.64963777 178.66596218 -11.8969252 180.9609033 -14.14453125 183.2578125 C-15.7200395 184.84062893 -17.29710398 186.42189772 -18.87565613 188.00167847 C-22.18040974 191.31720379 -25.47154783 194.64547956 -28.75268555 197.984375 C-32.95856396 202.26377849 -37.18797734 206.51890198 -41.42667103 210.7657795 C-44.68361393 214.03131012 -47.93220996 217.30503328 -51.17789268 220.58175278 C-52.73490074 222.1533367 -54.2934586 223.72338676 -55.8535862 225.29187393 C-58.03241478 227.48662729 -60.20086802 229.6911156 -62.36645508 231.89892578 C-63.01216965 232.54642288 -63.65788422 233.19391998 -64.32316589 233.86103821 C-68.09683311 237.73502267 -70.7507154 240.86399973 -71.1953125 246.45703125 C-71.17210937 247.23433594 -71.14890625 248.01164063 -71.125 248.8125 C-71.10695313 249.60269531 -71.08890625 250.39289063 -71.0703125 251.20703125 C-71.04710937 251.79871094 -71.02390625 252.39039063 -71 253 C-75.94856953 251.4723166 -79.19560739 248.54885971 -83 245.1875 C-83.90492188 244.40536133 -83.90492188 244.40536133 -84.828125 243.60742188 C-88.35683672 240.53514135 -91.82793858 237.44240756 -95 234 C-95 233.34 -95 232.68 -95 232 C-94.1646875 231.88785156 -94.1646875 231.88785156 -93.3125 231.7734375 C-92.549375 231.64195312 -91.78625 231.51046875 -91 231.375 C-90.2575 231.25898438 -89.515 231.14296875 -88.75 231.0234375 C-81.74190824 228.41531244 -76.17223075 222.47493947 -70.95727539 217.27954102 C-69.97769867 216.31485901 -69.97769867 216.31485901 -68.97833252 215.33068848 C-66.84594878 213.22723033 -64.72117238 211.11631401 -62.59765625 209.00390625 C-61.86705931 208.27896406 -61.13646236 207.55402187 -60.38372612 206.80711174 C-56.52571742 202.97894199 -52.67338701 199.14516778 -48.82592773 195.30639648 C-44.85587893 191.34736369 -40.86758052 187.40725929 -36.8747797 183.47119236 C-33.79953518 180.43318166 -30.73777574 177.38185084 -27.67956352 174.32670403 C-26.21450623 172.86769408 -24.74445501 171.41368079 -23.26933479 169.96484566 C-21.21078225 167.94041153 -19.17200597 165.89788187 -17.13696289 163.84985352 C-16.52662704 163.25794724 -15.9162912 162.66604095 -15.28746033 162.05619812 C-11.5444966 158.23792161 -10.09589653 155.57244276 -10 150 C-11.56373658 148.43626342 -13.0879995 148.86439119 -15.26263428 148.85282898 C-16.18234009 148.84567368 -17.1020459 148.83851837 -18.04962158 148.83114624 C-19.06675232 148.82845734 -20.08388306 148.82576843 -21.13183594 148.82299805 C-22.72934692 148.81314125 -22.72934692 148.81314125 -24.35913086 148.80308533 C-27.90087953 148.78329547 -31.44258568 148.77167676 -34.984375 148.76171875 C-36.19079903 148.75764322 -37.39722305 148.7535677 -38.64020538 148.74936867 C-45.02608572 148.72848311 -51.41194442 148.71419248 -57.79785156 148.70483398 C-64.40355234 148.69376763 -71.00891643 148.65937177 -77.61449814 148.61966228 C-82.68451576 148.59354865 -87.75445259 148.58514677 -92.82453156 148.58155251 C-95.25983198 148.57667254 -97.69512846 148.56501877 -100.13036346 148.54651451 C-103.53737731 148.52223673 -106.94351256 148.52306779 -110.35058594 148.5300293 C-111.35961975 148.51721924 -112.36865356 148.50440918 -113.40826416 148.49121094 C-117.78362346 148.52384486 -120.28910992 148.56456382 -124.08355713 150.88874817 C-125.87943537 152.86717981 -127.02639908 154.52174311 -128 157 C-128.33 157 -128.66 157 -129 157 C-129 145.45 -129 133.9 -129 122 C-127.35 123.65 -125.7 125.3 -124 127 C-121.05968005 129.59521638 -119.35199183 130.37505391 -115.43234253 130.3742218 C-114.52100555 130.38123611 -113.60966858 130.38825043 -112.67071533 130.39547729 C-111.67835876 130.38783356 -110.6860022 130.38018982 -109.66357422 130.37231445 C-108.61281708 130.37596512 -107.56205994 130.37961578 -106.47946167 130.38337708 C-103.00437285 130.39148697 -99.5297496 130.37787022 -96.0546875 130.36328125 C-93.643809 130.36276278 -91.23293008 130.36327998 -88.822052 130.36479187 C-83.76981291 130.36470213 -78.71773335 130.35426773 -73.66552734 130.33618164 C-67.17740639 130.31347026 -60.68951811 130.31295462 -54.20136833 130.31969929 C-49.22411008 130.32303412 -44.24690526 130.31641875 -39.26965714 130.30657005 C-36.87656051 130.3027112 -34.48345795 130.30157266 -32.09035873 130.3031559 C-28.75266861 130.30352513 -25.4152815 130.29094699 -22.07763672 130.2746582 C-21.08123169 130.27713562 -20.08482666 130.27961304 -19.05822754 130.28216553 C-18.15253021 130.27508072 -17.24683289 130.26799591 -16.31369019 130.26069641 C-15.12960477 130.25761711 -15.12960477 130.25761711 -13.92159843 130.25447559 C-11.76111522 130.16655234 -11.76111522 130.16655234 -10 128 C-9.27447924 125.72824413 -9.27447924 125.72824413 -10 123 C-11.93430085 120.3148754 -14.27651516 118.07232986 -16.63769531 115.76293945 C-17.34328079 115.05341125 -18.04886627 114.34388306 -18.77583313 113.612854 C-21.11462959 111.26733718 -23.47090061 108.94026609 -25.828125 106.61328125 C-27.45616676 104.9894888 -29.08325002 103.36473481 -30.70941162 101.73905945 C-34.12176423 98.33287747 -37.54223041 94.93513687 -40.96923828 91.54370117 C-45.36400182 87.19419205 -49.74337464 82.82958956 -54.1174202 78.45925617 C-57.47776428 75.10333965 -60.84351454 71.75289185 -64.21120453 68.40434837 C-65.82780893 66.79662966 -67.44333799 65.18782891 -69.0577774 63.57793617 C-71.31502047 61.32972892 -73.57880424 59.088332 -75.84472656 56.84887695 C-76.51294937 56.18131882 -77.18117218 55.51376068 -77.86964417 54.82597351 C-78.48937607 54.21621674 -79.10910797 53.60645996 -79.74761963 52.97822571 C-80.28225956 52.44823628 -80.81689949 51.91824686 -81.36774063 51.37219715 C-84.89401609 48.40775092 -87.69523797 47.75513784 -92.25 47.875 C-93.14203125 47.89304687 -94.0340625 47.91109375 -94.953125 47.9296875 C-95.62859375 47.95289063 -96.3040625 47.97609375 -97 48 C-89.48508695 38.98210434 -81.68340175 31.69293945 -72 25 C-71 28 -71 28 -71.3125 31.6875 C-71.39303081 38.28063387 -66.15237649 42.88919406 -61.83100891 47.41622925 C-60.69228862 48.56362069 -59.54825862 49.70576091 -58.3996582 50.84326172 C-57.45459915 51.79116829 -57.45459915 51.79116829 -56.490448 52.75822449 C-54.432061 54.82027976 -52.36662828 56.87510828 -50.30078125 58.9296875 C-48.8588622 60.37041289 -47.41731433 61.81150986 -45.97612 63.25296021 C-42.96755421 66.2599682 -39.95567784 69.2636055 -36.94116211 72.26464844 C-33.07570154 76.1130513 -29.21692543 79.96807315 -25.36036396 83.82539177 C-22.38988091 86.79560321 -19.41680153 89.76320401 -16.44283104 92.72992325 C-15.01845696 94.15111514 -13.59468775 95.57291351 -12.17153358 96.995327 C-10.18757824 98.97711793 -8.2003678 100.95558379 -6.2121582 102.93310547 C-5.33077934 103.81516411 -5.33077934 103.81516411 -4.43159485 104.71504211 C-2.04641211 107.08146882 0.19499386 109.12999591 3 111 C6.31086259 110.71725862 6.31086259 110.71725862 9 109 C9.11668942 105.89113738 9.16803906 102.80420803 9.17700195 99.69433594 C9.18685875 98.22849815 9.18685875 98.22849815 9.19691467 96.73304749 C9.21670296 93.48348931 9.22832308 90.23397748 9.23828125 86.984375 C9.24235678 85.87724403 9.2464323 84.77011307 9.25063133 83.62943268 C9.27151654 77.76874475 9.28580713 71.90808041 9.29516602 66.04736328 C9.30623033 59.98645619 9.34062379 53.92591627 9.38033772 47.86513901 C9.40645864 43.21202909 9.41485389 38.55900718 9.41844749 33.90583038 C9.42332584 31.67148613 9.43497508 29.43714613 9.45348549 27.20287323 C9.47777828 24.07603237 9.47692959 20.95014811 9.4699707 17.82324219 C9.48278076 16.89836502 9.49559082 15.97348785 9.50878906 15.02058411 C9.47493412 10.85073106 9.36249943 8.5916936 7.14250183 4.96807861 C4.85350696 2.8654331 2.95753611 1.90369159 0 1 C0 0.67 0 0.34 0 0 Z " fill="#FEF5D6" transform="translate(329,216)"/>
<path d="M0 0 C0.495 0.99 0.495 0.99 1 2 C-0.10389455 4.20472273 -1.26589413 6.30708396 -2.5 8.4375 C-15.41399932 31.89940144 -20.22286296 58.29666303 -20.25 84.875 C-20.25100708 85.56086182 -20.25201416 86.24672363 -20.25305176 86.95336914 C-20.24191273 98.2011705 -19.4997911 109.00953911 -17 120 C-16.7215625 121.258125 -16.443125 122.51625 -16.15625 123.8125 C-12.17492745 140.01236416 -5.89617614 155.34059399 2 170 C2.32081543 170.60682617 2.64163086 171.21365234 2.97216797 171.83886719 C9.94476223 184.96250067 18.78598677 196.23299879 29 207 C29.46212891 207.49467773 29.92425781 207.98935547 30.40039062 208.49902344 C43.14124194 222.06644374 57.46964222 232.49914985 74 241 C74.60634277 241.31807617 75.21268555 241.63615234 75.83740234 241.96386719 C93.79646635 251.29185864 113.90686657 256.20597023 134 258 C134.56267578 259.45019531 134.56267578 259.45019531 135.13671875 260.9296875 C137.83557755 267.81594181 140.59223433 274.52903705 144.1171875 281.046875 C145 283 145 283 145 286 C143.85402344 286.4125 142.70804688 286.825 141.52734375 287.25 C129.28350481 291.83638406 123.61923378 295.80698286 117.5625 307.625 C114.09806267 314.34367285 110.43503972 317.77859657 103.76953125 321.1171875 C96.11539242 323.55701173 85.66089272 323.32694 78.3125 320 C70.8896541 315.50358912 67.43399673 308.3210574 63.78515625 300.7109375 C59.24579748 293.81746926 53.19685733 290.8966764 45.625 288.1875 C26.78588905 281.02022007 11.37667092 271.32657543 -3.30859375 257.48046875 C-5.91919566 255.00572594 -5.91919566 255.00572594 -8.578125 252.9921875 C-13.07302662 249.29476843 -16.43300992 244.56983073 -20 240 C-20.66257813 239.15308594 -21.32515625 238.30617188 -22.0078125 237.43359375 C-42.72872822 209.95950509 -55.99297504 175.07075649 -56.203125 140.4765625 C-56.21018463 139.69702713 -56.21724426 138.91749176 -56.22451782 138.11433411 C-56.45169712 105.6868097 -56.45169712 105.6868097 -53 92 C-52.79600586 91.16839355 -52.59201172 90.33678711 -52.38183594 89.47998047 C-43.56362863 54.36759897 -26.03444921 25.01791974 0 0 Z " fill="#96CD82" transform="translate(57,149)"/>
<path d="M0 0 C0.75925781 -0.02578125 1.51851563 -0.0515625 2.30078125 -0.078125 C6.46575194 0.49447326 8.96480213 2.47769207 11.79296875 5.5 C25.11298326 23.09341504 40.61731549 51.01617694 38.4296875 73.953125 C37.60174238 76.51539727 36.59592812 77.99475247 34.8125 80 C34.04292969 80.88945312 34.04292969 80.88945312 33.2578125 81.796875 C30.5337056 84.31769034 27.81726708 84.3770114 24.28479004 84.39044189 C22.93463554 84.39900711 22.93463554 84.39900711 21.5572052 84.40774536 C20.07966011 84.40942215 20.07966011 84.40942215 18.57226562 84.41113281 C17.01338875 84.41858017 17.01338875 84.41858017 15.42301941 84.42617798 C11.97992292 84.44080212 8.53687246 84.44760099 5.09375 84.453125 C2.70625812 84.45887492 0.31876626 84.46463267 -2.06872559 84.47039795 C-7.07560441 84.48090774 -12.08246717 84.48675099 -17.08935547 84.49023438 C-23.51577589 84.49572817 -29.9419854 84.51977532 -36.36833954 84.54820633 C-41.29930246 84.56679414 -46.2302141 84.57203618 -51.16120911 84.57357025 C-53.53116513 84.57660453 -55.90112009 84.58465893 -58.27104187 84.59775543 C-61.57994857 84.61473999 -64.88833347 84.61295451 -68.19726562 84.60644531 C-69.67481071 84.62026749 -69.67481071 84.62026749 -71.1822052 84.6343689 C-72.0823082 84.62879974 -72.98241119 84.62323059 -73.90979004 84.61749268 C-74.692183 84.61895924 -75.47457596 84.6204258 -76.2806778 84.6219368 C-78.3125 84.25 -78.3125 84.25 -80.08766937 83.03953171 C-81.76116555 80.59447979 -81.73202624 79.15827901 -81.3125 76.25 C-80.14678383 74.46625137 -80.14678383 74.46625137 -78.47866821 72.8081665 C-77.85049698 72.17167679 -77.22232574 71.53518707 -76.57511902 70.87940979 C-75.87695572 70.19765182 -75.17879242 69.51589386 -74.45947266 68.81347656 C-73.73116745 68.08283493 -73.00286224 67.3521933 -72.25248718 66.59941101 C-69.83899586 64.18430309 -67.40814277 61.78750873 -64.9765625 59.390625 C-63.2988187 57.71966829 -61.62210426 56.04767745 -59.94638062 54.37469482 C-56.43131887 50.87031853 -52.90839733 47.37411979 -49.37890625 43.88427734 C-44.84667051 39.40294844 -40.32742674 34.90881022 -35.81311989 30.40942764 C-31.51732947 26.12840586 -27.21632285 21.85264356 -22.9140625 17.578125 C-22.0889278 16.75790108 -21.26379311 15.93767715 -20.41365433 15.09259796 C-18.08668627 12.78185417 -15.75617781 10.47474971 -13.42431641 8.16894531 C-12.73020157 7.47909042 -12.03608673 6.78923553 -11.32093811 6.07847595 C-10.68712723 5.45326553 -10.05331635 4.82805511 -9.40029907 4.18389893 C-8.84906687 3.63823902 -8.29783466 3.09257912 -7.72989845 2.53038406 C-5.21490549 0.25850568 -3.29742331 0.06650265 0 0 Z " fill="#E0F487" transform="translate(456.3125,262.75)"/>
<path d="M0 0 C5.10957386 3.02739099 9.10331973 6.80119392 13.29052734 10.98413086 C13.99366058 11.67894058 14.69679382 12.37375031 15.42123413 13.08961487 C17.73156803 15.37595374 20.03426408 17.66978853 22.3359375 19.96484375 C23.94154485 21.5614819 25.54722834 23.15804349 27.15298462 24.75453186 C30.51049619 28.09558309 33.86361533 31.44097692 37.21435547 34.78881836 C41.51357073 39.08263081 45.82873783 43.3600256 50.1479702 47.63368893 C53.4660121 50.9220416 56.77279665 54.22153786 60.07652664 57.52426338 C61.66331056 59.10683447 63.2542263 60.68527378 64.84928513 62.25950432 C67.07343145 64.45688741 69.2813303 66.66941595 71.48583984 68.88647461 C72.14966675 69.53546722 72.81349365 70.18445984 73.49743652 70.8531189 C77.84236008 75.26908391 77.84236008 75.26908391 78.59463501 78.75709534 C77.88622931 81.42913182 77.1471807 82.28974721 75 84 C72.96373367 84.38590336 72.96373367 84.38590336 70.58624268 84.40113831 C69.68350616 84.41393326 68.78076965 84.42672821 67.85067749 84.43991089 C66.86258087 84.43855133 65.87448425 84.43719177 64.85644531 84.43579102 C63.29257584 84.45090477 63.29257584 84.45090477 61.69711304 84.46632385 C58.24067541 84.49488604 54.7846734 84.50068512 51.328125 84.50390625 C48.92779357 84.51354331 46.52746392 84.52363548 44.12713623 84.53416443 C39.08992428 84.55214772 34.0528668 84.55768336 29.015625 84.5559082 C22.56461981 84.55560363 16.11460746 84.59652294 9.66383743 84.64822483 C4.70350611 84.6816069 -0.25658598 84.68766514 -5.21701813 84.68607903 C-7.5948554 84.68961751 -9.97269897 84.70287806 -12.35042572 84.72607613 C-15.68060898 84.75551829 -19.00864836 84.74682943 -22.33886719 84.72875977 C-23.31886688 84.74561829 -24.29886658 84.76247681 -25.30856323 84.77984619 C-31.19458436 84.69881199 -34.39086646 83.71848426 -38.64824295 79.57984829 C-40.96110749 76.87671825 -42.00543421 75.53730734 -41.96875 71.91015625 C-39.09221802 48.29862288 -30.62375239 25.86677543 -16 7 C-15.58041016 6.45553223 -15.16082031 5.91106445 -14.72851562 5.35009766 C-10.69513831 0.27823119 -6.45212166 -1.23166596 0 0 Z " fill="#E0F487" transform="translate(242,263)"/>
<path d="M0 0 C1.39224792 -0.01052147 1.39224792 -0.01052147 2.81262207 -0.02125549 C4.32920914 -0.00978989 4.32920914 -0.00978989 5.87643433 0.00190735 C6.94669861 -0.00174332 8.01696289 -0.00539398 9.11965942 -0.00915527 C12.65967642 -0.01726593 16.19923652 -0.00364772 19.73922729 0.01094055 C22.19494629 0.01145902 24.6506657 0.01094184 27.10638428 0.00942993 C32.25277909 0.00951967 37.39901731 0.01995478 42.54537964 0.03804016 C49.15456767 0.0607511 55.76352728 0.06126729 62.37274361 0.05452251 C67.44264775 0.05118774 72.51249944 0.05780295 77.58239365 0.06765175 C80.02014771 0.07151074 82.45790761 0.07264909 84.89566422 0.0710659 C88.29561826 0.07069669 91.6952748 0.08327436 95.09518433 0.0995636 C96.61784409 0.09584747 96.61784409 0.09584747 98.17126465 0.09205627 C99.09379028 0.09914108 100.01631592 0.10622589 100.96679688 0.11352539 C101.77093584 0.11557826 102.57507481 0.11763113 103.40358162 0.11974621 C105.35641479 0.3742218 105.35641479 0.3742218 107.35641479 2.3742218 C107.4150432 8.09605164 105.62014256 10.80876512 101.80400085 14.70648193 C101.15469101 15.33893326 100.50538116 15.97138458 99.83639526 16.6230011 C99.15498978 17.31010162 98.47358429 17.99720215 97.77153015 18.7051239 C95.5199391 20.96780926 93.24750593 23.20819687 90.97360229 25.44844055 C89.39886938 27.01959519 87.82524598 28.59186259 86.25268555 30.16519165 C82.95465275 33.45853448 79.64679547 36.74156298 76.33102417 40.01704407 C72.08894779 44.20821431 67.86682491 48.41879896 63.65127373 52.63663006 C60.4024283 55.88465803 57.14580887 59.12479503 53.88653946 62.36236 C52.32750648 63.91187032 50.77026283 65.46318317 49.21487045 67.01634789 C47.03493178 69.18975232 44.84537668 71.35297955 42.65280151 73.5136261 C42.01563705 74.15215012 41.3784726 74.79067413 40.72200012 75.44854736 C35.80835327 80.258377 29.66494636 85.51968885 22.51266479 86.0148468 C13.25737678 83.26508732 6.21168405 67.15883026 1.89938354 59.2882843 C-5.21935107 45.80154683 -15.72844146 23.69401851 -11.64358521 8.3742218 C-8.97744886 3.04194911 -6.14472055 -0.00128058 0 0 Z " fill="#E1F487" transform="translate(212.64358520507813,363.6257781982422)"/>
<path d="M0 0 C0.91266632 -0.00708481 1.82533264 -0.01416962 2.76565552 -0.02146912 C3.76984024 -0.0189917 4.77402496 -0.01651428 5.80863953 -0.01396179 C6.86403931 -0.01907272 7.91943909 -0.02418365 9.00682068 -0.02944946 C12.51072291 -0.04339816 16.01442956 -0.04238443 19.51835632 -0.04008484 C21.94732741 -0.04396946 24.37629782 -0.04830364 26.80526733 -0.05307007 C31.90390725 -0.06054407 37.00247794 -0.06023289 42.10112 -0.05497742 C48.63836916 -0.04918757 55.17533456 -0.06609663 61.71253681 -0.08932209 C66.73195048 -0.10404916 71.75129571 -0.1049324 76.77072716 -0.10181236 C79.18089039 -0.1023263 81.59105738 -0.10757751 84.00119972 -0.11762428 C87.37209648 -0.12994834 90.74243926 -0.12322027 94.11332703 -0.11161804 C95.11143906 -0.11926178 96.10955109 -0.12690552 97.13790894 -0.13478088 C102.11984832 -0.09684374 105.64358907 -0.03967526 109.65507507 3.26069641 C112.08478917 5.88223004 113.64816379 7.78069351 113.66532898 11.45649719 C111.01911788 34.18840704 103.00729835 55.6535731 89.65507507 74.26069641 C88.65153992 75.78243469 88.65153992 75.78243469 87.62773132 77.33491516 C83.08482821 83.784938 83.08482821 83.784938 79.40116882 85.01069641 C73.32082387 85.33991983 68.46911673 82.61711436 63.88721085 78.78032494 C62.00708791 77.0214234 60.17727263 75.22256541 58.35868835 73.40010071 C57.66676895 72.71825714 56.97484955 72.03641357 56.26196289 71.33390808 C53.99181806 69.0921127 51.73301606 66.83931023 49.47538757 64.58491516 C47.89616968 63.01534323 46.31672901 61.4459954 44.73707581 59.87686157 C41.43518168 56.59289327 38.1395102 53.3028202 34.84745789 50.00898743 C30.629113 45.79033696 26.39046667 41.59274129 22.14627266 37.40011883 C18.88123453 34.16842799 15.62991437 30.92320208 12.38230515 27.67400551 C10.82500662 26.12024563 9.26284435 24.57134469 7.69575882 23.02745628 C5.5076848 20.86877535 3.33944076 18.69191099 1.1750946 16.50947571 C0.52578476 15.87702438 -0.12352509 15.24457306 -0.79251099 14.59295654 C-4.6086527 10.69523973 -6.40355333 7.98252625 -6.34492493 2.26069641 C-3.91563728 -0.16859123 -3.32570869 0.0085827 0 0 Z " fill="#E1F487" transform="translate(381.3449249267578,363.7393035888672)"/>
<path d="M0 0 C1.25901123 -0.00636475 2.51802246 -0.01272949 3.81518555 -0.01928711 C10.8626054 0.07989135 15.31992171 0.31992171 20.5 5.5 C22.03604389 11.31244776 20.94721932 14.99312332 18.1875 20.125 C17.82358154 20.82085205 17.45966309 21.5167041 17.0847168 22.23364258 C2.84998917 48.57586206 -22.36774274 67.63023858 -50.8203125 76.24609375 C-63.80057623 79.88503791 -77.04913734 81.27716095 -90.5 80.5 C-91.74265625 80.43554688 -92.9853125 80.37109375 -94.265625 80.3046875 C-97.5 79.5 -97.5 79.5 -99.3125 77.2421875 C-99.704375 76.29601562 -100.09625 75.34984375 -100.5 74.375 C-100.9125 73.44429688 -101.325 72.51359375 -101.75 71.5546875 C-103.4863887 64.48252102 -100.70416543 59.2083612 -97.19799805 53.19604492 C-81.7019925 27.73903303 -55.34739376 10.10413763 -26.8125 2.5625 C-17.91968495 0.41532115 -9.12473799 0.04024203 0 0 Z " fill="#95D6A4" transform="translate(248.5,-0.5)"/>
<path d="M0 0 C3.06189254 3.06189254 4.37380124 5.02279992 4.38569641 9.29992676 C4.39278122 10.14954483 4.39986603 10.9991629 4.40716553 11.87452698 C4.40468811 12.80345261 4.40221069 13.73237823 4.3996582 14.68945312 C4.40476913 15.67018295 4.40988007 16.65091278 4.41514587 17.66136169 C4.42906915 20.90971951 4.4280832 24.15786585 4.42578125 27.40625 C4.42966633 29.65922119 4.4340006 31.91219164 4.43876648 34.16516113 C4.44623433 38.8895912 4.44593305 43.61394655 4.44067383 48.33837891 C4.4348748 54.40162047 4.45181812 60.464557 4.4750185 66.52774811 C4.48972733 71.18078407 4.49063149 75.83374606 4.48750877 80.48680115 C4.4880233 82.72277939 4.49328552 84.95876163 4.50332069 87.19471741 C4.51561412 90.31686423 4.50893628 93.43841016 4.49731445 96.56054688 C4.50495819 97.4894725 4.51260193 98.41839813 4.52047729 99.37547302 C4.51346298 100.22509109 4.50644867 101.07470917 4.4992218 101.95007324 C4.49938954 102.68822014 4.49955729 103.42636703 4.49973011 104.18688202 C4.01578266 106.6898761 3.14062519 107.60523041 1.125 109.125 C-9.21200379 108.51650225 -19.37618622 93.7879957 -26.33203125 86.8359375 C-27.72581416 85.44537271 -29.11967017 84.05488118 -30.51359558 82.66445923 C-33.42091245 79.76310206 -36.32618366 76.85971405 -39.23022461 73.95507812 C-42.94851059 70.23669009 -46.67365613 66.52525614 -50.40056324 62.8155117 C-53.27530335 59.95188887 -56.14548827 57.08373385 -59.01441002 54.21428299 C-60.386305 52.84356624 -61.75981766 51.47446653 -63.13498878 50.10703659 C-65.05417116 48.19765912 -66.96690539 46.2820409 -68.87817383 44.36474609 C-69.44391617 43.80462326 -70.00965851 43.24450043 -70.59254456 42.66740417 C-77.46616561 35.73861986 -77.46616561 35.73861986 -78.203125 31.02734375 C-77.91649989 23.81872223 -77.91649989 23.81872223 -76.875 21.125 C-73.84677433 18.6641543 -70.30553187 16.96813923 -66.875 15.125 C-65.87210937 14.56554687 -64.86921875 14.00609375 -63.8359375 13.4296875 C-50.25382097 6.20101927 -35.62769526 1.60750421 -20.5625 -1.375 C-19.70970459 -1.54733154 -18.85690918 -1.71966309 -17.97827148 -1.8972168 C-11.62989039 -3.0464981 -5.63073135 -3.6722161 0 0 Z " fill="#E1F487" transform="translate(334.875,218.875)"/>
<path d="M0 0 C1.035802 0.56690552 1.035802 0.56690552 2.0925293 1.14526367 C3.05968872 1.66672974 3.05968872 1.66672974 4.04638672 2.19873047 C8.26587493 4.65024798 10.64970077 7.24465765 12.9675293 11.52026367 C13.61660777 15.54455018 13.92713591 17.91087562 11.82926464 21.42928505 C8.23757666 26.0695263 4.44295265 30.32739651 0.27539062 34.45532227 C-0.36440231 35.09701355 -1.00419525 35.73870483 -1.66337585 36.39984131 C-3.7542275 38.4943621 -5.85212788 40.58165606 -7.95043945 42.66870117 C-9.41477873 44.13184683 -10.87874688 45.59536402 -12.34236145 47.05923462 C-15.39800556 50.11332079 -18.45696124 53.16403623 -21.51855469 56.2121582 C-25.44454877 60.12109562 -29.36385996 64.03665147 -33.28095531 67.95450401 C-36.29776145 70.97103855 -39.31716398 73.9849626 -42.33745766 76.99800491 C-43.78416054 78.4415254 -45.23025836 79.88565255 -46.6757412 81.33039474 C-48.69082925 83.34331856 -50.70917286 85.35291793 -52.72851562 87.36157227 C-53.32545227 87.9589621 -53.92238892 88.55635193 -54.53741455 89.17184448 C-56.94285595 91.55865951 -59.2037565 93.6344542 -62.0324707 95.52026367 C-65.35487394 95.19612677 -66.64023373 94.91250064 -69.0324707 92.52026367 C-69.29253292 90.71357346 -69.29253292 90.71357346 -69.30662537 88.48577881 C-69.31660049 87.64187088 -69.32657562 86.79796295 -69.33685303 85.92848206 C-69.3375177 85.00067429 -69.33818237 84.07286652 -69.33886719 83.11694336 C-69.3471907 82.14117844 -69.35551422 81.16541351 -69.36408997 80.16007996 C-69.38826769 76.92072607 -69.39697249 73.68157334 -69.40356445 70.44213867 C-69.41252634 68.19492531 -69.4216481 65.94771258 -69.43092346 63.70050049 C-69.44743818 58.98269194 -69.45511783 54.26495455 -69.45800781 49.54711914 C-69.46338773 43.50303387 -69.50104166 37.4596182 -69.54675198 31.41572189 C-69.57650623 26.77113408 -69.58373106 22.12670761 -69.58473396 17.48203278 C-69.58894109 15.25409129 -69.60139501 13.02614953 -69.62225151 10.7983017 C-69.64912508 7.67875651 -69.64435124 4.56076418 -69.63183594 1.44116211 C-69.64667023 0.52145126 -69.66150452 -0.39825958 -69.67678833 -1.34584045 C-69.62718997 -5.69010963 -69.41595126 -8.57067773 -66.61976624 -12.0133667 C-52.63794971 -25.3416963 -14.33898408 -7.55122479 0 0 Z " fill="#E1F487" transform="translate(425.032470703125,232.479736328125)"/>
<path d="M0 0 C4.93452736 0.79032332 7.18022756 3.56735059 10.58746338 7.06315613 C11.28738403 7.75738174 11.98730469 8.45160736 12.70843506 9.16687012 C15.01864013 11.46595961 17.30653173 13.78594459 19.59429932 16.10734558 C21.19409557 17.7107184 22.79500267 19.31298357 24.39697266 20.91418457 C27.75175889 24.27366419 31.09622289 27.64298592 34.4331665 31.02018738 C38.71085693 35.3488269 43.00801069 39.65747503 47.31238174 43.95956707 C50.61952174 47.26752295 53.91878367 50.58324146 57.21544647 53.90163612 C58.79729985 55.49303614 60.38097685 57.0826256 61.96649933 58.6703701 C64.18114589 60.89152289 66.38563255 63.12227655 68.58746338 65.35612488 C69.24409973 66.01140167 69.90073608 66.66667847 70.57727051 67.34181213 C73.71828405 70.54981899 76.06423559 73.11186015 77.32867432 77.53312683 C77.590354 78.30011902 77.85203369 79.06711121 78.12164307 79.85734558 C78.64440015 82.98871226 78.57503537 84.57624266 77.32867432 87.53312683 C72.54225582 92.03642385 66.20322174 94.74637404 60.32867432 97.53312683 C59.28767578 98.0380365 59.28767578 98.0380365 58.22564697 98.55314636 C39.57728306 107.42487472 18.00890606 112.7969053 -2.67132568 112.53312683 C-0.69132568 111.54312683 -0.69132568 111.54312683 1.32867432 110.53312683 C0.12211182 109.38843933 0.12211182 109.38843933 -1.10882568 108.22062683 C-4.25175857 104.92438014 -4.79500934 102.77052582 -4.80503845 98.38943481 C-4.80930344 97.54678574 -4.81356842 96.70413666 -4.81796265 95.83595276 C-4.81750946 94.91480682 -4.81705627 93.99366089 -4.81658936 93.04460144 C-4.81994797 92.07201889 -4.82330658 91.09943634 -4.82676697 90.09738159 C-4.83628032 86.87673167 -4.83822007 83.65613369 -4.83929443 80.43547058 C-4.842506 78.2025246 -4.84587 75.96957883 -4.84938049 73.7366333 C-4.8553722 69.05510469 -4.85722027 64.37359455 -4.85662842 59.69206238 C-4.85652662 53.68035836 -4.87019656 47.66877199 -4.88740063 41.65709591 C-4.89849253 37.04614717 -4.90054852 32.43522716 -4.90001869 27.82426643 C-4.90120238 25.6070013 -4.90564574 23.38973551 -4.91335106 21.17248344 C-4.92309728 18.07898967 -4.92029458 14.98575522 -4.91424561 11.89225769 C-4.92267487 10.50750244 -4.92267487 10.50750244 -4.93127441 9.09477234 C-4.92707993 8.25494308 -4.92288544 7.41511383 -4.91856384 6.54983521 C-4.91910861 5.81814086 -4.91965338 5.08644651 -4.92021465 4.33257961 C-4.47990383 1.14915798 -2.97316429 0.59336593 0 0 Z " fill="#E0F487" transform="translate(360.67132568359375,382.4668731689453)"/>
<path d="M0 0 C3.10845947 0.95680237 3.10845947 0.95680237 4.10845947 1.95680237 C4.21980327 5.02994688 4.26586552 8.08082184 4.26959229 11.15480042 C4.27703964 12.6035984 4.27703964 12.6035984 4.28463745 14.08166504 C4.29930502 17.29395752 4.30606981 20.50620057 4.31158447 23.71852112 C4.31733354 25.94474286 4.3230913 28.17096458 4.32885742 30.39718628 C4.33938144 35.07388033 4.34521447 39.75055712 4.34869385 44.42726135 C4.35417188 50.41850186 4.37817936 56.40951433 4.4066658 62.4006834 C4.42529855 67.00322126 4.4304982 71.60570436 4.43202972 76.20827675 C4.43505693 78.41666214 4.44308773 80.62504655 4.4562149 82.833395 C4.47328324 85.92638269 4.47139268 89.01881589 4.46490479 92.11183167 C4.47411957 93.02376282 4.48333435 93.93569397 4.49282837 94.8752594 C4.4593137 99.97976141 3.99006488 103.55511924 1.10845947 107.95680237 C-4.49504946 112.05693086 -10.32347248 111.65508468 -16.91351318 110.64772034 C-37.02214249 107.1788821 -61.1700286 100.79989988 -76.89154053 86.95680237 C-78.39121267 82.45778595 -78.55012038 78.63017687 -76.79760742 74.17724609 C-74.39359491 70.11548571 -71.46371201 67.07065882 -68.14447021 63.74220276 C-67.46277267 63.0472168 -66.78107513 62.35223083 -66.07872009 61.63618469 C-63.83180289 59.35069922 -61.57361211 57.07680797 -59.31341553 54.80445862 C-57.74255757 53.21887766 -56.17177827 51.63321877 -54.60107422 50.04748535 C-51.31145344 46.7309096 -48.0152001 43.42107868 -44.715271 40.11476135 C-40.48518086 35.87377181 -36.28114278 31.60791266 -32.08277512 27.33554935 C-28.85002155 24.05448833 -25.59950859 20.7914745 -22.34378815 17.53321648 C-20.78545397 15.96764211 -19.23375399 14.39543533 -17.68886566 12.81659126 C-15.52971654 10.61362429 -13.34682673 8.4372343 -11.15618896 6.26564026 C-10.20515541 5.2785331 -10.20515541 5.2785331 -9.23490906 4.27148438 C-4.79727741 -0.05325167 -4.79727741 -0.05325167 0 0 Z " fill="#E0F487" transform="translate(334.89154052734375,383.04319763183594)"/>
<path d="M0 0 C1.25901123 -0.00636475 2.51802246 -0.01272949 3.81518555 -0.01928711 C14.05947229 0.12488091 14.05947229 0.12488091 18.5 3.5 C18.995 4.985 18.995 4.985 19.5 6.5 C18.81301025 6.8810791 18.12602051 7.2621582 17.41821289 7.65478516 C-4.03948423 19.56011666 -25.4697491 31.51259839 -46.82592773 43.59936523 C-56.05386647 48.81936151 -65.29962727 54.00712376 -74.55859375 59.171875 C-78.37758322 61.30403603 -82.18157802 63.45924787 -85.97265625 65.640625 C-86.80627686 66.11604736 -87.63989746 66.59146973 -88.4987793 67.08129883 C-90.04009262 67.96098603 -91.57702892 68.84840445 -93.10864258 69.74487305 C-94.86391803 70.7408947 -96.67821822 71.63157488 -98.5 72.5 C-99.49 72.17 -100.48 71.84 -101.5 71.5 C-102.84594203 64.96566853 -102.3141147 61.59431481 -98.875 55.9375 C-98.4718457 55.25276611 -98.06869141 54.56803223 -97.65332031 53.86254883 C-81.42404039 27.33017204 -54.22927798 9.18230772 -24.22802734 1.93847656 C-16.18707157 0.27722989 -8.19242071 0.03613031 0 0 Z " fill="#78C3A4" transform="translate(248.5,-0.5)"/>
<path d="M0 0 C10.64113797 8.42104444 16.68895259 24.66474026 21 37 C21.49960012 38.28661368 21.99962724 39.57306161 22.5 40.859375 C24.02842742 44.92616987 25.14399071 49.02098841 26.125 53.25 C26.38265137 54.3471936 26.38265137 54.3471936 26.64550781 55.46655273 C28.03486452 61.63435228 28.67997918 67.67958875 29 74 C22.73 74 16.46 74 10 74 C9.484375 70.926875 8.96875 67.85375 8.4375 64.6875 C5.11968232 46.6385718 -1.51759546 29.79652817 -12.26953125 14.84375 C-14.54613606 11.1025123 -14.30322186 9.15348988 -13.6171875 4.98828125 C-13 3 -13 3 -11.125 1 C-6.91271885 -0.98224995 -4.46466112 -1.45960075 0 0 Z " fill="#B4E6A0" transform="translate(130,41)"/>
<path d="M0 0 C5.28097404 1.79353835 7.79895251 4.60999202 11 9 C12.59402391 13.78207174 12.96277713 18.43559362 11.1640625 23.2265625 C8.25410786 28.44104498 4.72206494 31.29081177 -1 33 C-5.68858436 33.95592497 -9.08351036 33.26764791 -13.25 30.9375 C-17.07741239 28.24776334 -19.56269949 25.49156409 -21 21 C-21.79431193 16.33341743 -21.52758809 12.40972913 -19.3125 8.1875 C-13.82963728 0.63004058 -8.9291895 -0.74295259 0 0 Z " fill="#FFFEFE" transform="translate(352,339)"/>
<path d="M0 0 C2.3374763 3.50621444 3.13234455 6.89608929 4.0625 10.9375 C4.2387793 11.691521 4.41505859 12.44554199 4.59667969 13.22241211 C6.00059442 19.47567125 6.67557798 25.59266501 7 32 C0.73 32 -5.54 32 -12 32 C-12.26554688 30.576875 -12.53109375 29.15375 -12.8046875 27.6875 C-13.16133382 25.79164324 -13.51811164 23.89581121 -13.875 22 C-14.04902344 21.06542969 -14.22304687 20.13085938 -14.40234375 19.16796875 C-15.43030968 13.72355658 -16.5967386 8.36020571 -18 3 C-17.13375 3.825 -16.2675 4.65 -15.375 5.5 C-12.97043142 7.49624561 -12.08210864 7.98686262 -8.875 8.5 C-5.63831017 7.93709742 -4.27391695 7.35512827 -2 5 C-0.73152315 2.41501488 -0.73152315 2.41501488 0 0 Z " fill="#CCF49F" transform="translate(152,83)"/>
</svg>
