<?xml version="1.0" encoding="UTF-8"?>
<!DOCTYPE svg PUBLIC "-//W3C//DTD SVG 1.1//EN" "http://www.w3.org/Graphics/SVG/1.1/DTD/svg11.dtd">
<svg xmlns="http://www.w3.org/2000/svg" version="1.1" width="512px" height="512px" style="shape-rendering:geometricPrecision; text-rendering:geometricPrecision; image-rendering:optimizeQuality; fill-rule:evenodd; clip-rule:evenodd" xmlns:xlink="http://www.w3.org/1999/xlink">
<g><path style="opacity:1" fill="#bb5d4c" d="M 411.5,-0.5 C 420.5,-0.5 429.5,-0.5 438.5,-0.5C 478.5,8.16667 502.833,32.5 511.5,72.5C 511.5,81.5 511.5,90.5 511.5,99.5C 500.922,145.74 471.922,170.407 424.5,173.5C 417.73,173.608 411.063,172.942 404.5,171.5C 451.908,155.044 473.408,121.711 469,71.5C 460.877,36.2152 439.71,12.8819 405.5,1.5C 407.5,0.833333 409.5,0.166667 411.5,-0.5 Z"/></g>
<g><path style="opacity:0.994" fill="#ca6e59" d="M 405.5,1.5 C 439.71,12.8819 460.877,36.2152 469,71.5C 473.408,121.711 451.908,155.044 404.5,171.5C 367.175,161.007 345.008,136.673 338,98.5C 334.675,54.6326 352.842,23.4659 392.5,5C 396.716,3.31578 401.049,2.14911 405.5,1.5 Z"/></g>
<g><path style="opacity:1" fill="#bb5d4c" d="M 173.5,145.5 C 169.726,181.081 151.726,206.414 119.5,221.5C 102.537,227.681 85.2039,229.015 67.5,225.5C 113.624,208.295 134.79,174.962 131,125.5C 122.791,89.7959 101.291,66.4625 66.5,55.5C 111.058,47.6943 144.224,63.6943 166,103.5C 171.844,116.897 174.344,130.897 173.5,145.5 Z"/></g>
<g><path style="opacity:0.995" fill="#ca6e59" d="M 66.5,55.5 C 101.291,66.4625 122.791,89.7959 131,125.5C 134.79,174.962 113.624,208.295 67.5,225.5C 30.0177,215.354 7.35104,191.354 -0.5,153.5C -0.5,144.5 -0.5,135.5 -0.5,126.5C 7.06265,88.9363 29.396,65.2696 66.5,55.5 Z"/></g>
<g><path style="opacity:1" fill="#ea9a8b" d="M 375.5,82.5 C 379.007,81.9935 382.174,82.6602 385,84.5C 386.754,93.7614 390.088,102.428 395,110.5C 404.476,120.154 415.976,125.321 429.5,126C 433.875,131.121 433.209,135.455 427.5,139C 399.982,139.492 381.816,126.659 373,100.5C 371.71,95.89 371.376,91.2233 372,86.5C 372.69,84.6498 373.856,83.3164 375.5,82.5 Z"/></g>
<g><path style="opacity:1" fill="#ea9b8c" d="M 79.5,86.5 C 87.0247,84.7586 92.0247,87.4253 94.5,94.5C 93.8015,98.0327 91.8015,100.533 88.5,102C 62.5067,104.076 48.6734,118.243 47,144.5C 43.6269,147.886 39.7936,148.386 35.5,146C 31.7417,123.502 39.7417,106.169 59.5,94C 65.8779,90.3787 72.5446,87.8787 79.5,86.5 Z"/></g>
<g><path style="opacity:0.995" fill="#a44f3d" d="M 119.5,221.5 C 151.726,206.414 169.726,181.081 173.5,145.5C 214.567,132.387 249.067,142.054 277,174.5C 300.318,209.542 300.318,244.542 277,279.5C 249.832,311.755 215.999,321.588 175.5,309C 137.659,292.287 118.992,263.121 119.5,221.5 Z"/></g>
<g><path style="opacity:0.995" fill="#a44f3d" d="M 397.5,431.5 C 397.919,390.816 379.919,361.65 343.5,344C 332.592,339.585 321.258,337.418 309.5,337.5C 314.312,300.023 334.312,274.523 369.5,261C 417.746,249.214 453.579,265.047 477,308.5C 492.392,350.773 482.892,386.273 448.5,415C 433.275,425.891 416.275,431.391 397.5,431.5 Z"/></g>
<g><path style="opacity:1" fill="#bb5d4c" d="M 309.5,337.5 C 321.258,337.418 332.592,339.585 343.5,344C 379.919,361.65 397.919,390.816 397.5,431.5C 391.128,475.202 366.461,501.869 323.5,511.5C 314.5,511.5 305.5,511.5 296.5,511.5C 294.626,510.715 292.626,510.048 290.5,509.5C 317.525,501.222 337.025,484.222 349,458.5C 352.343,450.094 354.509,441.428 355.5,432.5C 359.09,432.456 361.59,430.789 363,427.5C 363.809,410.453 357.975,396.119 345.5,384.5C 338.388,370.796 328.388,359.629 315.5,351C 307.012,346.46 298.345,342.627 289.5,339.5C 296.078,338.053 302.745,337.387 309.5,337.5 Z"/></g>
<g><path style="opacity:0.995" fill="#ca6d58" d="M 289.5,339.5 C 298.345,342.627 307.012,346.46 315.5,351C 328.388,359.629 338.388,370.796 345.5,384.5C 334.272,375.036 321.272,370.869 306.5,372C 301.257,376.588 301.257,381.255 306.5,386C 333.222,387.61 347.388,401.776 349,428.5C 350.571,430.923 352.737,432.256 355.5,432.5C 354.509,441.428 352.343,450.094 349,458.5C 337.025,484.222 317.525,501.222 290.5,509.5C 259.101,501.936 237.934,482.936 227,452.5C 216.008,410.467 227.842,376.634 262.5,351C 270.958,345.903 279.958,342.069 289.5,339.5 Z"/></g>
<g><path style="opacity:1" fill="#ea9b8b" d="M 345.5,384.5 C 357.975,396.119 363.809,410.453 363,427.5C 361.59,430.789 359.09,432.456 355.5,432.5C 352.737,432.256 350.571,430.923 349,428.5C 347.388,401.776 333.222,387.61 306.5,386C 301.257,381.255 301.257,376.588 306.5,372C 321.272,370.869 334.272,375.036 345.5,384.5 Z"/></g>
</svg>
