<?xml version="1.0" encoding="UTF-8"?>
<!DOCTYPE svg PUBLIC "-//W3C//DTD SVG 1.1//EN" "http://www.w3.org/Graphics/SVG/1.1/DTD/svg11.dtd">
<svg xmlns="http://www.w3.org/2000/svg" version="1.1" width="512px" height="512px" style="shape-rendering:geometricPrecision; text-rendering:geometricPrecision; image-rendering:optimizeQuality; fill-rule:evenodd; clip-rule:evenodd" xmlns:xlink="http://www.w3.org/1999/xlink">
<g><path style="opacity:0.992" fill="#6fd7a3" d="M 370.5,-0.5 C 373.833,-0.5 377.167,-0.5 380.5,-0.5C 383.2,1.04602 385.033,3.37935 386,6.5C 387.317,12.7575 387.817,19.0908 387.5,25.5C 366.124,48.5626 350.624,75.2292 341,105.5C 337.942,95.382 331.775,92.5487 322.5,97C 313.093,105.637 306.593,116.137 303,128.5C 296.359,146.6 294.859,165.1 298.5,184C 298.369,186.253 297.869,188.419 297,190.5C 285.632,202.035 274.132,213.369 262.5,224.5C 261.884,220.137 261.05,215.803 260,211.5C 257.406,204.655 254.573,197.989 251.5,191.5C 257.81,186.698 262.81,180.865 266.5,174C 260.055,155.157 258.888,135.99 263,116.5C 264.241,111.165 267.074,106.998 271.5,104C 276.345,102.837 280.179,104.337 283,108.5C 283.085,82.1591 289.418,57.4925 302,34.5C 306.323,27.337 312.49,22.6703 320.5,20.5C 324.31,20.9878 327.477,22.6545 330,25.5C 332.254,29.0066 334.254,32.6733 336,36.5C 343.609,20.3959 355.109,8.06252 370.5,-0.5 Z"/></g>
<g><path style="opacity:1" fill="#9be69c" d="M 485.5,123.5 C 463.042,144.743 437.042,160.409 407.5,170.5C 417.944,176.305 419.277,183.805 411.5,193C 391.665,207.557 369.331,215.057 344.5,215.5C 339.588,215.579 334.921,214.912 330.5,213.5C 347.138,211.12 362.471,205.287 376.5,196C 381.58,192.602 384.58,187.936 385.5,182C 385.458,180.033 384.958,178.199 384,176.5C 381.591,174.38 379.091,172.38 376.5,170.5C 400.433,161.703 422.433,149.536 442.5,134C 449.032,127.802 455.199,121.302 461,114.5C 474.244,92.6549 468.077,80.6549 442.5,78.5C 453.484,67.006 462.318,54.006 469,39.5C 471.514,34.2758 473.014,28.7758 473.5,23C 473.352,18.9046 472.352,15.0712 470.5,11.5C 478.178,7.00439 486.511,5.50439 495.5,7C 500.099,8.59806 502.932,11.7647 504,16.5C 505.048,25.9808 503.381,34.9808 499,43.5C 492.051,56.449 483.551,68.2824 473.5,79C 498.176,79.5392 505.01,90.7059 494,112.5C 491.158,116.197 488.325,119.863 485.5,123.5 Z"/></g>
<g><path style="opacity:0.999" fill="#baf39a" d="M 470.5,11.5 C 472.352,15.0712 473.352,18.9046 473.5,23C 473.014,28.7758 471.514,34.2758 469,39.5C 462.318,54.006 453.484,67.006 442.5,78.5C 468.077,80.6549 474.244,92.6549 461,114.5C 455.199,121.302 449.032,127.802 442.5,134C 422.433,149.536 400.433,161.703 376.5,170.5C 379.091,172.38 381.591,174.38 384,176.5C 384.958,178.199 385.458,180.033 385.5,182C 384.58,187.936 381.58,192.602 376.5,196C 362.471,205.287 347.138,211.12 330.5,213.5C 327.813,213.336 325.146,213.503 322.5,214C 310.631,225.702 298.965,237.535 287.5,249.5C 285.167,251.167 283.167,253.167 281.5,255.5C 278.833,257.5 276.5,259.833 274.5,262.5C 267.874,252.874 259.874,244.54 250.5,237.5C 254.5,233.167 258.5,228.833 262.5,224.5C 274.132,213.369 285.632,202.035 297,190.5C 297.869,188.419 298.369,186.253 298.5,184C 294.859,165.1 296.359,146.6 303,128.5C 306.593,116.137 313.093,105.637 322.5,97C 331.775,92.5487 337.942,95.382 341,105.5C 350.624,75.2292 366.124,48.5626 387.5,25.5C 394.217,19.4716 401.883,14.9716 410.5,12C 418.915,10.0242 425.082,12.8575 429,20.5C 430.851,26.0083 431.851,31.675 432,37.5C 443.249,26.4608 456.083,17.7941 470.5,11.5 Z"/></g>
<g><path style="opacity:0.992" fill="#6fd7a2" d="M 485.5,123.5 C 491.909,123.183 498.243,123.683 504.5,125C 507.358,126.694 509.691,128.861 511.5,131.5C 511.5,134.167 511.5,136.833 511.5,139.5C 503.198,155.357 490.864,167.19 474.5,175C 479.929,176.802 484.429,179.969 488,184.5C 490.168,189.657 489.835,194.657 487,199.5C 475.679,210.748 462.179,218.248 446.5,222C 432.364,225.559 418.031,227.892 403.5,229C 409.102,234.672 408.768,240.005 402.5,245C 397.465,247.593 392.132,249.259 386.5,250C 369.543,251.974 353.043,250.141 337,244.5C 330.126,248.201 324.293,253.201 319.5,259.5C 309.583,253.973 298.916,250.64 287.5,249.5C 298.965,237.535 310.631,225.702 322.5,214C 325.146,213.503 327.813,213.336 330.5,213.5C 334.921,214.912 339.588,215.579 344.5,215.5C 369.331,215.057 391.665,207.557 411.5,193C 419.277,183.805 417.944,176.305 407.5,170.5C 437.042,160.409 463.042,144.743 485.5,123.5 Z"/></g>
<g><path style="opacity:0.99" fill="#fe8b00" d="M 251.5,191.5 C 254.573,197.989 257.406,204.655 260,211.5C 261.05,215.803 261.884,220.137 262.5,224.5C 258.5,228.833 254.5,233.167 250.5,237.5C 244.386,234.573 238.052,232.24 231.5,230.5C 211.005,226.912 194.672,233.579 182.5,250.5C 200.845,257.018 217.012,267.018 231,280.5C 234.202,288.952 231.368,293.119 222.5,293C 207.825,278.91 190.658,269.076 171,263.5C 166.488,267.678 162.322,272.178 158.5,277C 170.169,281.248 180.669,287.415 190,295.5C 191.833,304.333 188.333,307.833 179.5,306C 170.137,299.068 159.971,293.568 149,289.5C 147.629,291.041 146.129,292.375 144.5,293.5C 143.833,293.5 143.5,293.833 143.5,294.5C 112.749,300.631 81.7491,305.131 50.5,308C 39.8333,308.667 29.1667,308.667 18.5,308C 11.1798,307.732 4.84647,305.232 -0.5,300.5C -0.5,298.167 -0.5,295.833 -0.5,293.5C 4.47524,284.68 11.1419,277.18 19.5,271C 39.2171,256.813 59.5504,243.646 80.5,231.5C 88.2368,241.955 94.7368,253.288 100,265.5C 105.121,269.875 109.455,269.209 113,263.5C 112.841,256.684 110.841,250.351 107,244.5C 103.073,237.637 98.9061,230.97 94.5,224.5C 99.2019,221.818 103.869,219.151 108.5,216.5C 114.308,223.427 119.142,231.094 123,239.5C 127.625,243.646 131.959,243.313 136,238.5C 136.667,235.833 136.667,233.167 136,230.5C 132.325,223.142 128.159,216.142 123.5,209.5C 150.544,195.098 178.544,182.931 207.5,173C 221.57,171.025 233.903,174.692 244.5,184C 246.333,186.998 248.666,189.498 251.5,191.5 Z"/></g>
<g><path style="opacity:0.985" fill="#fea612" d="M 123.5,209.5 C 128.159,216.142 132.325,223.142 136,230.5C 136.667,233.167 136.667,235.833 136,238.5C 131.959,243.313 127.625,243.646 123,239.5C 119.142,231.094 114.308,223.427 108.5,216.5C 108.037,207.793 112.037,204.293 120.5,206C 121.71,207.039 122.71,208.206 123.5,209.5 Z"/></g>
<g><path style="opacity:0.995" fill="#fea612" d="M 94.5,224.5 C 98.9061,230.97 103.073,237.637 107,244.5C 110.841,250.351 112.841,256.684 113,263.5C 109.455,269.209 105.121,269.875 100,265.5C 94.7368,253.288 88.2368,241.955 80.5,231.5C 82.0063,222.747 86.673,220.413 94.5,224.5 Z"/></g>
<g><path style="opacity:0.997" fill="#fea613" d="M 231.5,230.5 C 242.882,240.401 250.382,252.735 254,267.5C 256.375,280.662 253.709,292.662 246,303.5C 194.923,352.263 139.423,395.096 79.5,432C 69.4455,437.694 59.1122,442.861 48.5,447.5C 47.8933,447.376 47.56,447.043 47.5,446.5C 48.2868,441.304 49.7868,436.304 52,431.5C 56.1932,423.114 60.3599,414.78 64.5,406.5C 73.165,408.334 80.4984,412.5 86.5,419C 96.0679,419.761 99.2346,415.594 96,406.5C 89.0365,400.608 81.5365,395.608 73.5,391.5C 83.0761,376.582 93.0761,361.916 103.5,347.5C 116.222,352.061 127.556,358.894 137.5,368C 145.122,369.378 148.622,366.211 148,358.5C 143.144,352.98 137.644,348.147 131.5,344C 125.273,340.726 119.273,337.226 113.5,333.5C 123.469,320.524 133.469,307.524 143.5,294.5C 144.167,294.5 144.5,294.167 144.5,293.5C 146.129,292.375 147.629,291.041 149,289.5C 159.971,293.568 170.137,299.068 179.5,306C 188.333,307.833 191.833,304.333 190,295.5C 180.669,287.415 170.169,281.248 158.5,277C 162.322,272.178 166.488,267.678 171,263.5C 190.658,269.076 207.825,278.91 222.5,293C 231.368,293.119 234.202,288.952 231,280.5C 217.012,267.018 200.845,257.018 182.5,250.5C 194.672,233.579 211.005,226.912 231.5,230.5 Z"/></g>
<g><path style="opacity:1" fill="#fd9737" d="M 231.5,230.5 C 238.052,232.24 244.386,234.573 250.5,237.5C 259.874,244.54 267.874,252.874 274.5,262.5C 276.313,267.468 278.146,272.468 280,277.5C 282.216,290.284 280.216,302.284 274,313.5C 257.048,332.123 238.548,348.956 218.5,364C 217.748,364.671 217.414,365.504 217.5,366.5C 182.044,394.779 145.044,420.946 106.5,445C 93.2329,452.967 79.2329,459.3 64.5,464C 49.008,467.344 43.3413,461.511 47.5,446.5C 47.56,447.043 47.8933,447.376 48.5,447.5C 59.1122,442.861 69.4455,437.694 79.5,432C 139.423,395.096 194.923,352.263 246,303.5C 253.709,292.662 256.375,280.662 254,267.5C 250.382,252.735 242.882,240.401 231.5,230.5 Z"/></g>
<g><path style="opacity:1" fill="#f77c00" d="M 287.5,249.5 C 298.916,250.64 309.583,253.973 319.5,259.5C 340.217,276.379 344.884,297.045 333.5,321.5C 328.006,317.522 322.339,313.689 316.5,310C 313.794,308.092 310.794,307.259 307.5,307.5C 310.294,293.342 307.127,280.675 298,269.5C 292.558,264.541 287.058,259.874 281.5,255.5C 283.167,253.167 285.167,251.167 287.5,249.5 Z"/></g>
<g><path style="opacity:0.994" fill="#fe8b00" d="M 281.5,255.5 C 287.058,259.874 292.558,264.541 298,269.5C 307.127,280.675 310.294,293.342 307.5,307.5C 301.562,310.03 300.229,314.03 303.5,319.5C 300.945,323.128 298.945,327.128 297.5,331.5C 288.999,328.816 284.832,331.816 285,340.5C 286.36,343.023 288.193,345.023 290.5,346.5C 273.697,382.112 255.364,416.778 235.5,450.5C 228.851,451.47 226.518,455.137 228.5,461.5C 221.185,473.33 212.852,484.497 203.5,495C 202.906,495.464 202.239,495.631 201.5,495.5C 201.663,451.863 206.996,408.863 217.5,366.5C 217.414,365.504 217.748,364.671 218.5,364C 238.548,348.956 257.048,332.123 274,313.5C 280.216,302.284 282.216,290.284 280,277.5C 278.146,272.468 276.313,267.468 274.5,262.5C 276.5,259.833 278.833,257.5 281.5,255.5 Z"/></g>
<g><path style="opacity:0.995" fill="#fda612" d="M 307.5,307.5 C 310.794,307.259 313.794,308.092 316.5,310C 322.339,313.689 328.006,317.522 333.5,321.5C 336.045,328.072 334.045,332.406 327.5,334.5C 326.048,333.698 324.382,333.198 322.5,333C 316.1,328.478 309.767,323.978 303.5,319.5C 300.229,314.03 301.562,310.03 307.5,307.5 Z"/></g>
<g><path style="opacity:1" fill="#f87d00" d="M 303.5,319.5 C 309.767,323.978 316.1,328.478 322.5,333C 324.382,333.198 326.048,333.698 327.5,334.5C 325.223,339.387 323.223,344.387 321.5,349.5C 313.888,343.022 305.888,337.022 297.5,331.5C 298.945,327.128 300.945,323.128 303.5,319.5 Z"/></g>
<g><path style="opacity:0.99" fill="#fda612" d="M 297.5,331.5 C 305.888,337.022 313.888,343.022 321.5,349.5C 324.861,353.396 325.361,357.729 323,362.5C 320.096,364.227 316.93,364.893 313.5,364.5C 306.985,356.98 299.319,350.98 290.5,346.5C 288.193,345.023 286.36,343.023 285,340.5C 284.832,331.816 288.999,328.816 297.5,331.5 Z"/></g>
<g><path style="opacity:0.986" fill="#ff8b00" d="M 113.5,333.5 C 119.273,337.226 125.273,340.726 131.5,344C 137.644,348.147 143.144,352.98 148,358.5C 148.622,366.211 145.122,369.378 137.5,368C 127.556,358.894 116.222,352.061 103.5,347.5C 99.2754,342.752 99.6087,338.252 104.5,334C 107.482,333.502 110.482,333.335 113.5,333.5 Z"/></g>
<g><path style="opacity:1" fill="#f87c00" d="M 290.5,346.5 C 299.319,350.98 306.985,356.98 313.5,364.5C 297.107,398.512 279.107,431.512 259.5,463.5C 254.337,459.856 249.004,456.356 243.5,453C 240.904,451.864 238.237,451.031 235.5,450.5C 255.364,416.778 273.697,382.112 290.5,346.5 Z"/></g>
<g><path style="opacity:0.984" fill="#ff8b00" d="M 73.5,391.5 C 81.5365,395.608 89.0365,400.608 96,406.5C 99.2346,415.594 96.0679,419.761 86.5,419C 80.4984,412.5 73.165,408.334 64.5,406.5C 59.0262,396.45 62.0262,391.45 73.5,391.5 Z"/></g>
<g><path style="opacity:0.989" fill="#fda612" d="M 235.5,450.5 C 238.237,451.031 240.904,451.864 243.5,453C 249.004,456.356 254.337,459.856 259.5,463.5C 263.926,474.019 260.593,478.685 249.5,477.5C 248.04,475.537 246.373,473.704 244.5,472C 238.93,468.725 233.597,465.225 228.5,461.5C 226.518,455.137 228.851,451.47 235.5,450.5 Z"/></g>
<g><path style="opacity:1" fill="#f87c00" d="M 228.5,461.5 C 233.597,465.225 238.93,468.725 244.5,472C 246.373,473.704 248.04,475.537 249.5,477.5C 244.579,484.267 239.413,490.933 234,497.5C 229.078,503.016 223.578,507.682 217.5,511.5C 214.5,511.5 211.5,511.5 208.5,511.5C 204.621,506.87 202.288,501.537 201.5,495.5C 202.239,495.631 202.906,495.464 203.5,495C 212.852,484.497 221.185,473.33 228.5,461.5 Z"/></g>
</svg>
