<?xml version="1.0" encoding="UTF-8"?>
<svg version="1.1" xmlns="http://www.w3.org/2000/svg" width="512" height="512">
<path d="M0 0 C40.73313352 27.90019131 55.52892148 85.86233358 64.06689453 131.52294922 C70.33975987 165.67674547 72.88928891 199.6833291 74.27734375 234.33984375 C74.99164551 233.75178955 75.70594727 233.16373535 76.44189453 232.55786133 C109.76792811 205.19310531 147.39096208 186.22745358 191.27734375 186.02734375 C192.84572998 186.01900513 192.84572998 186.01900513 194.44580078 186.01049805 C201.89122545 186.08243155 201.89122545 186.08243155 205.27734375 188.33984375 C204.70628906 188.72914063 204.13523437 189.1184375 203.546875 189.51953125 C176.57330846 208.13086333 154.62220001 230.13677717 139.29052734 259.41162109 C138.3027443 261.29150313 137.28600812 263.15328913 136.265625 265.015625 C123.60231878 288.64346344 117.06649839 315.12552361 112.27734375 341.33984375 C113.80198242 341.09971558 113.80198242 341.09971558 115.35742188 340.85473633 C130.89055139 338.81441681 149.61861565 338.32701426 164.27734375 344.33984375 C165.65792969 344.90058594 165.65792969 344.90058594 167.06640625 345.47265625 C183.48823106 352.96418358 193.29942334 366.32603126 199.96484375 382.65234375 C204.58866695 395.31565308 205.71287355 407.01585802 205.27734375 420.33984375 C203.00375468 417.412768 201.06638867 414.38642543 199.15234375 411.21484375 C190.48263492 397.61174411 179.73851524 388.35737186 163.8203125 384.7890625 C148.8060883 382.13678019 132.93344623 387.407835 120.27734375 395.33984375 C109.98853635 403.06067294 102.89042314 415.51343373 95.47314453 425.85546875 C87.9718151 436.292101 80.38680462 446.25185299 71.27734375 455.33984375 C70.80651367 455.81856934 70.33568359 456.29729492 69.85058594 456.79052734 C47.47463219 479.34285084 16.07252051 490.43135947 -15.35147095 490.80085754 C-17.72551892 490.80818285 -20.09867791 490.796059 -22.47265625 490.77734375 C-23.2976059 490.77430237 -24.12255554 490.77126099 -24.97250366 490.76812744 C-38.19518473 490.69630408 -50.92259195 489.92133687 -63.72265625 486.33984375 C-64.84607422 486.02635986 -64.84607422 486.02635986 -65.9921875 485.70654297 C-81.24779001 481.24808645 -95.86625698 473.99016102 -107.72265625 463.33984375 C-108.99882812 462.22416016 -108.99882812 462.22416016 -110.30078125 461.0859375 C-117.86162999 454.39662372 -124.79072479 447.61535349 -130.84765625 439.52734375 C-131.39969727 438.7988623 -131.95173828 438.07038086 -132.52050781 437.31982422 C-136.58686261 431.92678377 -140.53851544 426.45467941 -144.47265625 420.96484375 C-158.68651945 401.17464294 -171.21807196 388.94839044 -195.72265625 384.33984375 C-208.08446683 382.92975129 -220.30629918 386.86913591 -230.25390625 394.20703125 C-238.76390731 401.3774951 -244.93399135 410.32718078 -249.72265625 420.33984375 C-250.05265625 420.33984375 -250.38265625 420.33984375 -250.72265625 420.33984375 C-251.77040101 397.08573084 -245.89982226 376.34068819 -230.97265625 358.21484375 C-221.23306854 347.72605699 -205.83116495 340.78756311 -191.51220703 340.21044922 C-190.3261084 340.20932129 -189.14000977 340.20819336 -187.91796875 340.20703125 C-186.61214844 340.20574219 -185.30632812 340.20445312 -183.9609375 340.203125 C-182.94700928 340.20626709 -182.94700928 340.20626709 -181.91259766 340.20947266 C-179.86092676 340.21480923 -177.80947651 340.20952261 -175.7578125 340.203125 C-173.79521484 340.20505859 -173.79521484 340.20505859 -171.79296875 340.20703125 C-170.60461426 340.20815918 -169.41625977 340.20928711 -168.19189453 340.21044922 C-164.64079619 340.34289694 -161.22900314 340.77607378 -157.72265625 341.33984375 C-165.87852753 300.39314659 -178.16588428 262.26989789 -204.72265625 229.33984375 C-205.21378906 228.7277002 -205.70492187 228.11555664 -206.2109375 227.48486328 C-218.97537437 211.71876299 -233.83667154 199.47685962 -250.72265625 188.33984375 C-246.24808744 185.35679788 -241.99183608 185.99892972 -236.72265625 186.02734375 C-235.64266357 186.0329834 -234.5626709 186.03862305 -233.44995117 186.04443359 C-189.35382052 186.70156516 -153.14501653 207.49494962 -119.72265625 234.33984375 C-119.68301758 233.22577148 -119.64337891 232.11169922 -119.60253906 230.96386719 C-116.9212209 157.7170177 -110.43692918 60.81106714 -54.375 6.71484375 C-39.15416403 -6.91441732 -17.96281515 -10.95293607 0 0 Z " fill="#368B4F" transform="translate(278.72265625,13.66015625)"/>
<path d="M0 0 C40.73313352 27.90019131 55.52892148 85.86233358 64.06689453 131.52294922 C67.77544363 151.7118185 70.51490405 171.88571284 72.27734375 192.33984375 C72.4090041 193.69672687 72.54160836 195.05351927 72.67578125 196.41015625 C72.92117176 199.26862412 73.0743487 202.10877693 73.16601562 204.97558594 C73.25504126 206.8662094 73.38865859 208.75471392 73.53710938 210.64160156 C75.4197916 235.35340671 75.4197916 235.35340671 70.47265625 242.00390625 C67.6165306 245.04384789 64.40789199 247.54590154 61.03369141 249.98535156 C58.45125662 251.97692068 56.53601363 254.34717089 54.52734375 256.90234375 C53.82996094 257.78535156 53.13257813 258.66835938 52.4140625 259.578125 C51.70894531 260.48949219 51.00382813 261.40085937 50.27734375 262.33984375 C49.47941406 263.34402344 48.68148437 264.34820312 47.859375 265.3828125 C37.69380117 278.25564123 29.01082302 291.88440708 21.27734375 306.33984375 C20.95056641 306.94280273 20.62378906 307.54576172 20.28710938 308.16699219 C5.39835091 335.84558677 -3.93866191 365.78550034 -10.72265625 396.33984375 C-10.94163574 397.30100098 -11.16061523 398.2621582 -11.38623047 399.25244141 C-16.78478329 423.1638211 -19.98757855 447.88798831 -21.72265625 472.33984375 C-22.38265625 472.33984375 -23.04265625 472.33984375 -23.72265625 472.33984375 C-23.820625 471.17195313 -23.91859375 470.0040625 -24.01953125 468.80078125 C-26.15503995 444.40488854 -29.44783794 420.26008211 -34.72265625 396.33984375 C-34.93615723 395.34243164 -35.1496582 394.34501953 -35.36962891 393.31738281 C-40.96635598 367.36094135 -49.42389458 342.37000805 -60.72265625 318.33984375 C-61.24424316 317.22416016 -61.24424316 317.22416016 -61.77636719 316.0859375 C-72.43996474 293.48951419 -86.18215031 273.04876967 -102.72265625 254.33984375 C-103.92921875 252.96699219 -103.92921875 252.96699219 -105.16015625 251.56640625 C-109.07847154 246.98800447 -109.07847154 246.98800447 -113.52294922 242.95874023 C-116.61880251 240.41339166 -118.46117768 238.53786816 -119.33203125 234.54785156 C-119.52875574 231.05706099 -119.48191546 227.64627974 -119.34765625 224.15234375 C-119.30753418 222.19482178 -119.30753418 222.19482178 -119.26660156 220.19775391 C-118.63690151 194.46968047 -115.96104969 168.70954758 -111.72265625 143.33984375 C-111.45630371 141.73786133 -111.45630371 141.73786133 -111.18457031 140.10351562 C-103.20593935 93.25572528 -88.74943295 30.51145369 -47.22265625 0.90234375 C-32.6146809 -7.9548645 -14.80543953 -9.02770703 0 0 Z " fill="#F9B43C" transform="translate(278.72265625,13.66015625)"/>
<path d="M0 0 C1.56838623 -0.00833862 1.56838623 -0.00833862 3.16845703 -0.0168457 C10.6138817 0.0550878 10.6138817 0.0550878 14 2.3125 C13.42894531 2.70179688 12.85789062 3.09109375 12.26953125 3.4921875 C-14.70403529 22.10351958 -36.65514374 44.10943342 -51.98681641 73.38427734 C-52.97459945 75.26415938 -53.99133563 77.12594538 -55.01171875 78.98828125 C-67.25017816 101.82341897 -73.78056253 127.34172973 -78.45703125 152.6796875 C-79 155.3125 -79 155.3125 -80 157.3125 C-82.73111251 158.00205321 -85.42613802 158.58715221 -88.1875 159.125 C-125.80225835 167.03842656 -155.82999959 190.81439879 -177 222.3125 C-180.84455082 228.20791755 -184.45809714 234.23164895 -188 240.3125 C-188.35658691 240.91433105 -188.71317383 241.51616211 -189.08056641 242.13623047 C-200.00694473 260.72332651 -207.39414626 281.56847582 -213 302.3125 C-213.66 302.3125 -214.32 302.3125 -215 302.3125 C-215.32871094 301.12398438 -215.65742188 299.93546875 -215.99609375 298.7109375 C-221.00448262 281.07535972 -227.67525558 264.21581693 -236.078125 247.91796875 C-236.53131104 247.0374585 -236.53131104 247.0374585 -236.99365234 246.13916016 C-237.9912508 244.27221215 -237.9912508 244.27221215 -239.24462891 242.41943359 C-243.3333906 235.95330766 -244.41500409 229.20987961 -245.53967285 221.76281738 C-246.11931857 217.95935391 -246.76784235 214.16762797 -247.4140625 210.375 C-247.60929504 209.22321259 -247.60929504 209.22321259 -247.80847168 208.04815674 C-253.08834952 177.32597953 -262.74602276 147.50100951 -276 119.3125 C-276.34772461 118.56871094 -276.69544922 117.82492187 -277.05371094 117.05859375 C-284.52893921 101.21840271 -293.44467834 86.28760189 -304 72.3125 C-304.43425293 71.7340332 -304.86850586 71.15556641 -305.31591797 70.55957031 C-311.62276879 62.20420272 -318.34836829 54.34911986 -325.58740234 46.78808594 C-326.89591149 45.42122986 -328.19262729 44.0431102 -329.48828125 42.6640625 C-338.89006974 32.90836053 -349.79488805 24.87724148 -361 17.3125 C-360.67 16.6525 -360.34 15.9925 -360 15.3125 C-343.60363064 23.95966242 -329.23331793 33.41668632 -315 45.3125 C-313.71222656 46.31410156 -313.71222656 46.31410156 -312.3984375 47.3359375 C-310.22066676 49.13064759 -308.48733779 50.90090822 -306.6875 53.0625 C-304.27643882 55.89015923 -301.79450665 58.54040807 -299.125 61.125 C-294.33487144 65.85985785 -290.17046171 71.03176562 -286 76.3125 C-285.19433594 77.32441406 -284.38867188 78.33632813 -283.55859375 79.37890625 C-273.41024185 92.2522232 -264.72893931 105.86554944 -257 120.3125 C-256.67322266 120.91545898 -256.34644531 121.51841797 -256.00976562 122.13964844 C-236.27705711 158.82327391 -225.12002234 200.29370305 -219 241.3125 C-218.72712158 243.12645264 -218.72712158 243.12645264 -218.44873047 244.97705078 C-217.86499885 248.92007646 -217.3032479 252.86508719 -216.75 256.8125 C-216.5744458 258.0286499 -216.3988916 259.2447998 -216.21801758 260.49780273 C-215.05064614 269.17736552 -214.80598559 277.57261283 -215 286.3125 C-214.34 286.3125 -213.68 286.3125 -213 286.3125 C-213.02537842 285.6630542 -213.05075684 285.0136084 -213.0769043 284.34448242 C-213.27959052 274.63953516 -212.08373154 265.22244661 -210.8125 255.625 C-210.70084503 254.76655487 -210.58919006 253.90810974 -210.47415161 253.02365112 C-207.87842107 233.15768776 -204.10835726 213.68902753 -199 194.3125 C-198.62725523 192.8155143 -198.25624008 191.31809714 -197.88671875 189.8203125 C-191.6529812 164.86468655 -182.02660764 141.03328766 -170 118.3125 C-169.49049805 117.34135254 -169.49049805 117.34135254 -168.97070312 116.35058594 C-157.99606668 95.596874 -143.49337146 77.08328987 -127.48046875 59.984375 C-125.25018616 57.58199186 -123.12249691 55.12205518 -121 52.625 C-116.49144363 47.55173556 -111.36828246 43.44247143 -106 39.3125 C-105.46552246 38.89242676 -104.93104492 38.47235352 -104.38037109 38.03955078 C-74.39602006 14.55195429 -38.26419605 0.17447421 0 0 Z " fill="#368B4F" transform="translate(470,199.6875)"/>
<path d="M0 0 C0.77786865 0.00870117 1.5557373 0.01740234 2.35717773 0.02636719 C10.61538887 0.22996459 18.50886282 1.63502812 26.5625 3.375 C27.27293457 3.51953613 27.98336914 3.66407227 28.71533203 3.81298828 C39.17604178 5.94479169 48.81711123 9.02067736 58.5625 13.375 C59.60019531 13.83777344 60.63789063 14.30054688 61.70703125 14.77734375 C105.53161871 35.51217478 133.75183819 81.40141748 149.88183594 125.41259766 C155.5625 141.79035151 155.5625 141.79035151 155.5625 146.375 C132.18981611 145.50450898 108.09746452 135.91602207 90.5625 120.375 C89.70914063 119.62992187 88.85578125 118.88484375 87.9765625 118.1171875 C80.42191081 111.42462819 73.49315259 104.64880203 67.4375 96.5625 C66.88545898 95.83401855 66.33341797 95.10553711 65.76464844 94.35498047 C61.69829364 88.96194002 57.74664081 83.48983566 53.8125 78 C39.5986368 58.20979919 27.06708429 45.98354669 2.5625 41.375 C-9.79931058 39.96490754 -22.02114293 43.90429216 -31.96875 51.2421875 C-40.47875106 58.41265135 -46.6488351 67.36233703 -51.4375 77.375 C-51.7675 77.375 -52.0975 77.375 -52.4375 77.375 C-53.48524476 54.12088709 -47.61466601 33.37584444 -32.6875 15.25 C-24.12428575 6.02807696 -12.64645792 -0.24150003 0 0 Z " fill="#5EB377" transform="translate(80.4375,356.625)"/>
<path d="M0 0 C1.35158203 0.78117187 1.35158203 0.78117187 2.73046875 1.578125 C19.7013194 11.74689381 27.633128 27.08672015 33.03515625 45.53515625 C35.30218238 54.71924814 35.30679082 63.61447357 35 73 C32.72641093 70.07292425 30.78904492 67.04658168 28.875 63.875 C20.20529117 50.27190036 9.46117149 41.01752811 -6.45703125 37.44921875 C-21.47125545 34.79693644 -37.34389752 40.06799125 -50 48 C-60.2888074 55.72082919 -67.38692061 68.17358998 -74.80419922 78.515625 C-82.30552865 88.95225725 -89.89053913 98.91200924 -99 108 C-99.47083008 108.47872559 -99.94166016 108.95745117 -100.42675781 109.45068359 C-117.72405785 126.88432287 -145.02174271 141.97527878 -170.125 142.125 C-171.07375 142.08375 -172.0225 142.0425 -173 142 C-171.77047154 134.65969517 -169.76643822 127.88798041 -167.125 120.9375 C-166.73425293 119.9067334 -166.34350586 118.8759668 -165.94091797 117.81396484 C-148.28164859 72.27960409 -119.82190158 28.75808238 -74 8 C-54.87725014 -0.02573075 -19.4073726 -12.42656626 0 0 Z " fill="#5EB377" transform="translate(449,361)"/>
<path d="M0 0 C16.53152728 7.77698655 30.86961909 17.46241068 45 29 C45.53302734 29.42933838 46.06605469 29.85867676 46.61523438 30.30102539 C49.47100173 32.62907737 52.02373717 34.97785573 54.375 37.8125 C56.76428041 40.62095241 59.22616624 43.2477562 61.875 45.8125 C66.66512856 50.54735785 70.82953829 55.71926562 75 61 C75.80566406 62.01191406 76.61132812 63.02382813 77.44140625 64.06640625 C87.58975815 76.9397232 96.27106069 90.55304944 104 105 C104.32677734 105.60295898 104.65355469 106.20591797 104.99023438 106.82714844 C124.72294289 143.51077391 135.87997766 184.98120305 142 226 C142.27287842 227.81395264 142.27287842 227.81395264 142.55126953 229.66455078 C143.13500115 233.60757646 143.6967521 237.55258719 144.25 241.5 C144.4255542 242.7161499 144.6011084 243.9322998 144.78198242 245.18530273 C145.94935386 253.86486552 146.19401441 262.26011283 146 271 C146.66 271 147.32 271 148 271 C147.97462158 270.3505542 147.94924316 269.7011084 147.9230957 269.03198242 C147.72040948 259.32703516 148.91626846 249.90994661 150.1875 240.3125 C150.29915497 239.45405487 150.41080994 238.59560974 150.52584839 237.71115112 C153.12157893 217.84518776 156.89164274 198.37652753 162 179 C162.37274477 177.5030143 162.74375992 176.00559714 163.11328125 174.5078125 C169.3470188 149.55218655 178.97339236 125.72078766 191 103 C191.50950195 102.02885254 191.50950195 102.02885254 192.02929688 101.03808594 C203.00393332 80.284374 217.50662854 61.77078987 233.51953125 44.671875 C235.74981384 42.26949186 237.87750309 39.80955518 240 37.3125 C244.50855637 32.23923556 249.63171754 28.12997143 255 24 C255.80171631 23.36989014 255.80171631 23.36989014 256.61962891 22.72705078 C264.43618733 16.60411786 272.57116342 11.31247626 281.1875 6.375 C282.09677246 5.85381592 283.00604492 5.33263184 283.94287109 4.7956543 C291.03132452 0.81613664 291.03132452 0.81613664 295 0 C292.09343752 3.05666664 289.03988966 5.53005241 285.625 8 C270.00292977 19.52953473 255.94214884 32.66807318 244 48 C243.00416474 49.2436966 242.00805297 50.48717183 241.01171875 51.73046875 C229.13365966 66.72313879 218.99234427 82.83941262 210.86767578 100.16308594 C210.02610211 101.9447405 209.15218679 103.71100624 208.27734375 105.4765625 C192.04147699 138.83590605 179.39015233 179.06848674 176.66015625 216.2578125 C175.79512166 221.16138137 173.67724031 224.59337525 171.125 228.8125 C160.65395404 247.00678484 153.46452665 266.77894571 148 287 C147.34 287 146.68 287 146 287 C145.67128906 285.81148438 145.34257812 284.62296875 145.00390625 283.3984375 C139.99551738 265.76285972 133.32474442 248.90331693 124.921875 232.60546875 C124.46868896 231.7249585 124.46868896 231.7249585 124.00634766 230.82666016 C123.0087492 228.95971215 123.0087492 228.95971215 121.75537109 227.10693359 C117.6666094 220.64080766 116.58499591 213.89737961 115.46032715 206.45031738 C114.88068143 202.64685391 114.23215765 198.85512797 113.5859375 195.0625 C113.39070496 193.91071259 113.39070496 193.91071259 113.19152832 192.73565674 C107.91165048 162.01347953 98.25397724 132.18850951 85 104 C84.65227539 103.25621094 84.30455078 102.51242187 83.94628906 101.74609375 C76.47106079 85.90590271 67.55532166 70.97510189 57 57 C56.56574707 56.4215332 56.13149414 55.84306641 55.68408203 55.24707031 C49.37723121 46.89170272 42.65163171 39.03661986 35.41259766 31.47558594 C34.10408851 30.10872986 32.80737271 28.7306102 31.51171875 27.3515625 C22.6056537 18.11024459 12.40225435 10.38026049 1.6953125 3.33984375 C1.13585937 2.89769531 0.57640625 2.45554688 0 2 C0 1.34 0 0.68 0 0 Z " fill="#24783C" transform="translate(109,215)"/>
<path d="M0 0 C1.27278809 0.3700415 1.27278809 0.3700415 2.57128906 0.74755859 C46.71862366 13.81844337 77.41243396 44.30658865 99.12890625 84.06689453 C101.55450173 88.64845057 103.79752329 93.30801267 106 98 C106.48847412 99.01900391 106.48847412 99.01900391 106.98681641 100.05859375 C111.47267518 109.45461973 115.1840486 119.00412323 118.5 128.875 C118.850625 129.91591797 119.20125 130.95683594 119.5625 132.02929688 C120.9486359 136.26874881 122 139.49836743 122 144 C122.66 144 123.32 144 124 144 C124.10570312 142.86433594 124.21140625 141.72867188 124.3203125 140.55859375 C124.920429 135.82307238 126.2685327 131.54415529 127.875 127.0625 C128.17817139 126.21059082 128.48134277 125.35868164 128.79370117 124.48095703 C139.22608798 95.8683187 153.01488654 69.11228049 173 46 C173.71671875 45.16082031 174.4334375 44.32164062 175.171875 43.45703125 C189.2384176 27.37029371 205.65264509 15.8492756 225 7 C226.051875 6.49597656 227.10375 5.99195313 228.1875 5.47265625 C233.38910328 3.27105082 238.95079968 2.19721804 244.4375 0.9375 C246.62375886 0.42604168 248.80995812 -0.08567145 250.99609375 -0.59765625 C252.0425708 -0.83661621 253.08904785 -1.07557617 254.16723633 -1.32177734 C255.80246572 -1.71328534 257.43276595 -2.13133564 259.04174805 -2.61962891 C265.22921769 -4.49431619 271.50641558 -4.30151965 277.92651367 -4.26074219 C279.92950063 -4.25004273 281.93256575 -4.26169555 283.93554688 -4.2734375 C290.9438557 -4.25941387 297.23754732 -3.87062357 304 -2 C304 -1.67 304 -1.34 304 -1 C303.43941895 -0.97083496 302.87883789 -0.94166992 302.30126953 -0.91162109 C268.44576287 1.02278399 234.74194824 9.92363811 209 33 C208.02546875 33.84304688 207.0509375 34.68609375 206.046875 35.5546875 C176.23655599 61.68424686 158.75587677 98.58147234 145.93212891 135.38964844 C144.66368918 138.94181122 143.3243825 142.46831333 142 146 C129.46 146 116.92 146 104 146 C102.14336641 141.66785495 100.53630055 137.70241163 99.1628418 133.25561523 C91.5221457 108.69563187 79.95215588 84.93418774 65 64 C64.60731934 63.44892578 64.21463867 62.89785156 63.81005859 62.33007812 C39.81551482 29.05924174 7.47175362 8.8384538 -32.875 1.2734375 C-41.21282435 0.00381425 -49.58415198 -0.55209772 -58 -1 C-43.07555456 -9.29135858 -15.71519352 -4.69592081 0 0 Z " fill="#4A9F63" transform="translate(133,358)"/>
<path d="M0 0 C0.33 0 0.66 0 1 0 C1.95364679 11.39267322 2 22.51311128 2 34 C-11.2 34 -24.4 34 -38 34 C-38 23.44 -38 12.88 -38 2 C-25.46 2 -12.92 2 0 2 C0 1.34 0 0.68 0 0 Z " fill="#FADB63" transform="translate(350,206)"/>
<path d="M0 0 C12.87 0 25.74 0 39 0 C39 10.56 39 21.12 39 32 C25.8 32 12.6 32 -1 32 C-1 21.32812627 -0.81849535 10.64043957 0 0 Z " fill="#FAC74F" transform="translate(161,208)"/>
<path d="M0 0 C10.89 0 21.78 0 33 0 C33 10.56 33 21.12 33 32 C20.79 32 8.58 32 -4 32 C-2.85030864 14.75462963 -2.85030864 14.75462963 -1.4375 7.5625 C-0.963125 5.066875 -0.48875 2.57125 0 0 Z " fill="#FAC84F" transform="translate(167,160)"/>
<path d="M0 0 C10.89 0 21.78 0 33 0 C33.474375 2.495625 33.94875 4.99125 34.4375 7.5625 C34.58501709 8.31345947 34.73253418 9.06441895 34.88452148 9.83813477 C36.24910173 17.304167 36.48265021 24.23975309 37 32 C24.79 32 12.58 32 0 32 C0 21.44 0 10.88 0 0 Z " fill="#FADB63" transform="translate(312,160)"/>
<path d="M0 0 C10.56 0 21.12 0 32 0 C32 10.56 32 21.12 32 32 C21.44 32 10.88 32 0 32 C0 21.44 0 10.88 0 0 Z " fill="#FADB63" transform="translate(264,256)"/>
<path d="M0 0 C10.56 0 21.12 0 32 0 C32 10.56 32 21.12 32 32 C21.44 32 10.88 32 0 32 C0 21.44 0 10.88 0 0 Z " fill="#FADB63" transform="translate(216,256)"/>
<path d="M0 0 C10.56 0 21.12 0 32 0 C32 10.56 32 21.12 32 32 C21.44 32 10.88 32 0 32 C0 21.44 0 10.88 0 0 Z " fill="#FADB63" transform="translate(264,208)"/>
<path d="M0 0 C10.56 0 21.12 0 32 0 C32 10.56 32 21.12 32 32 C21.44 32 10.88 32 0 32 C0 21.44 0 10.88 0 0 Z " fill="#FADB63" transform="translate(216,208)"/>
<path d="M0 0 C10.56 0 21.12 0 32 0 C32 10.56 32 21.12 32 32 C21.44 32 10.88 32 0 32 C0 21.44 0 10.88 0 0 Z " fill="#FADB63" transform="translate(264,160)"/>
<path d="M0 0 C10.56 0 21.12 0 32 0 C32 10.56 32 21.12 32 32 C21.44 32 10.88 32 0 32 C0 21.44 0 10.88 0 0 Z " fill="#FADB63" transform="translate(216,160)"/>
<path d="M0 0 C10.56 0 21.12 0 32 0 C32 10.56 32 21.12 32 32 C21.44 32 10.88 32 0 32 C0 21.44 0 10.88 0 0 Z " fill="#FADB63" transform="translate(264,112)"/>
<path d="M0 0 C10.56 0 21.12 0 32 0 C32 10.56 32 21.12 32 32 C21.44 32 10.88 32 0 32 C0 21.44 0 10.88 0 0 Z " fill="#FADB63" transform="translate(216,112)"/>
<path d="M0 0 C10.56 0 21.12 0 32 0 C32 10.56 32 21.12 32 32 C21.44 32 10.88 32 0 32 C0 21.44 0 10.88 0 0 Z " fill="#FADB63" transform="translate(264,64)"/>
<path d="M0 0 C10.56 0 21.12 0 32 0 C32 10.56 32 21.12 32 32 C21.44 32 10.88 32 0 32 C0 21.44 0 10.88 0 0 Z " fill="#FADB63" transform="translate(216,64)"/>
<path d="M0 0 C-0.66 0 -1.32 0 -2 0 C-2 12.87 -2 25.74 -2 39 C-12.56 39 -23.12 39 -34 39 C-35.38493376 21.24766732 -35.38493376 21.24766732 -31.8671875 16.5 C-29.06256732 13.6875675 -26.22080963 11.32032319 -23 9 C-22.22527344 8.38898437 -21.45054687 7.77796875 -20.65234375 7.1484375 C-15.22579152 3.14992533 -6.74528235 -2.24842745 0 0 Z " fill="#FAC850" transform="translate(250,9)"/>
<path d="M0 0 C8.81600908 2.64480272 13.91520014 4.71575701 21 10 C22.03640625 10.73734375 23.0728125 11.4746875 24.140625 12.234375 C31.45231808 18.27120877 31.45231808 18.27120877 32.47265625 23.35498047 C32.94601361 29.03634463 32.44926637 34.24122197 32 40 C21.44 40 10.88 40 0 40 C0 26.8 0 13.6 0 0 Z " fill="#FADB63" transform="translate(264,8)"/>
<path d="M0 0 C10.56 0 21.12 0 32 0 C32.0825 3.609375 32.165 7.21875 32.25 10.9375 C32.28641602 12.05632568 32.32283203 13.17515137 32.36035156 14.32788086 C32.3703418 15.23932861 32.38033203 16.15077637 32.390625 17.08984375 C32.41157227 18.00628662 32.43251953 18.92272949 32.45410156 19.86694336 C32 23 32 23 28 32 C18.76 32 9.52 32 0 32 C0 21.44 0 10.88 0 0 Z " fill="#F9DB63" transform="translate(264,304)"/>
<path d="M0 0 C10.56 0 21.12 0 32 0 C32 10.56 32 21.12 32 32 C22.76 32 13.52 32 4 32 C-0.5 21.875 -0.5 21.875 -0.390625 17.08984375 C-0.38063477 16.178396 -0.37064453 15.26694824 -0.36035156 14.32788086 C-0.32393555 13.20905518 -0.28751953 12.09022949 -0.25 10.9375 C-0.1675 7.328125 -0.085 3.71875 0 0 Z " fill="#F9DB63" transform="translate(216,304)"/>
<path d="M0 0 C7.59 0 15.18 0 23 0 C23 10.56 23 21.12 23 32 C13.1 32 3.2 32 -7 32 C-6.37822134 27.02577071 -5.80492176 22.72565116 -4.58984375 17.96875 C-4.32236328 16.91171875 -4.05488281 15.8546875 -3.77929688 14.765625 C-3.50150391 13.68796875 -3.22371094 12.6103125 -2.9375 11.5 C-2.65583984 10.39140625 -2.37417969 9.2828125 -2.08398438 8.140625 C-1.39362359 5.425986 -0.69740413 2.71283807 0 0 Z " fill="#F9C84F" transform="translate(177,112)"/>
<path d="M0 0 C7.59 0 15.18 0 23 0 C23.9850871 3.83189842 24.96323137 7.66535001 25.9375 11.5 C26.35418945 13.11648437 26.35418945 13.11648437 26.77929688 14.765625 C27.04677734 15.82265625 27.31425781 16.8796875 27.58984375 17.96875 C27.83597412 18.93232422 28.08210449 19.89589844 28.33569336 20.88867188 C29.11769067 24.55121275 29.53547832 28.28382655 30 32 C20.1 32 10.2 32 0 32 C0 21.44 0 10.88 0 0 Z " fill="#FADB63" transform="translate(312,112)"/>
<path d="M0 0 C11.22 0 22.44 0 34 0 C28 7 28 7 25.0703125 10.359375 C24.08814044 11.48923468 23.10637771 12.6194503 22.125 13.75 C21.60325195 14.3476416 21.08150391 14.9452832 20.54394531 15.56103516 C16.58881446 20.15176846 13.25065821 24.89534096 10.109375 30.0859375 C8 32 8 32 0 32 C0 21.44 0 10.88 0 0 Z " fill="#F8DB63" transform="translate(312,256)"/>
<path d="M0 0 C4.95 0 9.9 0 15 0 C15 10.56 15 21.12 15 32 C9.72 32 4.44 32 -1 32 C-1.09546889 21.26505414 -1.12489602 10.6865122 0 0 Z " fill="#FADB63" transform="translate(185,208)"/>
<path d="M0 0 C6.6 0 13.2 0 20 0 C20 10.56 20 21.12 20 32 C16.7 32 13.4 32 10 32 C9.58105469 30.72898437 9.16210938 29.45796875 8.73046875 28.1484375 C7.58242067 24.70226848 6.39665271 21.27259329 5.17578125 17.8515625 C4.86962891 16.99175781 4.56347656 16.13195312 4.24804688 15.24609375 C3.6156036 13.47419631 2.9801041 11.70338722 2.34179688 9.93359375 C1.88836914 8.65548828 1.88836914 8.65548828 1.42578125 7.3515625 C1.15161377 6.58666504 0.87744629 5.82176758 0.5949707 5.03369141 C0 3 0 3 0 0 Z " fill="#F8DB63" transform="translate(228,352)"/>
<path d="M0 0 C6.6 0 13.2 0 20 0 C19.25131895 4.49208631 18.41760902 8.05130954 16.93359375 12.2734375 C16.53076172 13.42714844 16.12792969 14.58085937 15.71289062 15.76953125 C15.29201172 16.95933594 14.87113281 18.14914062 14.4375 19.375 C14.01275391 20.58800781 13.58800781 21.80101562 13.15039062 23.05078125 C12.10459637 26.03540754 11.05433507 29.01838236 10 32 C6.7 32 3.4 32 0 32 C0 21.44 0 10.88 0 0 Z " fill="#F9DB63" transform="translate(264,352)"/>
<path d="M0 0 C0 10.89 0 21.78 0 33 C-7.92 33 -15.84 33 -24 33 C-21.68898154 26.06694461 -9.01761583 0 0 0 Z " fill="#FADB63" transform="translate(248,15)"/>
<path d="M0 0 C5.28 0 10.56 0 16 0 C16 10.56 16 21.12 16 32 C8 32 8 32 5.46875 30.33203125 C-1.8621168 20.95026718 -0.76305759 11.41406977 0 0 Z " fill="#F9DB63" transform="translate(184,256)"/>
<path d="M0 0 C1.98 0 3.96 0 6 0 C7.63076793 4.01851766 9.25357494 8.04020451 10.875 12.0625 C11.56529297 13.7630957 11.56529297 13.7630957 12.26953125 15.49804688 C12.71425781 16.60341797 13.15898437 17.70878906 13.6171875 18.84765625 C14.02565918 19.85836182 14.43413086 20.86906738 14.85498047 21.91040039 C16.07918006 25.21365109 17.03221202 28.61274208 18 32 C12.06 32 6.12 32 0 32 C0 21.44 0 10.88 0 0 Z " fill="#FADB63" transform="translate(312,64)"/>
<path d="M0 0 C1.98 0 3.96 0 6 0 C6 10.56 6 21.12 6 32 C0.06 32 -5.88 32 -12 32 C-8.46313924 21.05257384 -4.74989379 10.47671608 0 0 Z " fill="#FAC74F" transform="translate(194,64)"/>
<path d="M0 0 C3.3 0 6.6 0 10 0 C10 10.56 10 21.12 10 32 C5.71 32 1.42 32 -3 32 C-3.43141554 21.07080643 -1.78575871 10.7570703 0 0 Z " fill="#FADB63" transform="translate(190,160)"/>
<path d="M0 0 C5.94 0 11.88 0 18 0 C18 6.6 18 13.2 18 20 C13.97836114 15.97836114 10.05943619 11.91114435 6.1875 7.75 C5.2912793 6.79480469 5.2912793 6.79480469 4.37695312 5.8203125 C3.81298828 5.21445312 3.24902344 4.60859375 2.66796875 3.984375 C2.15516357 3.43491211 1.6423584 2.88544922 1.11401367 2.31933594 C0 1 0 1 0 0 Z " fill="#F6C64F" transform="translate(166,256)"/>
<path d="M0 0 C0.33 0 0.66 0 1 0 C1 10.56 1 21.12 1 32 C-1.31 32 -3.62 32 -6 32 C-5.34941146 24.82856996 -4.01874321 17.95786552 -2.4375 10.9375 C-2.20353516 9.88111328 -1.96957031 8.82472656 -1.72851562 7.73632812 C-1.15653688 5.15658727 -0.58028727 2.57788225 0 0 Z " fill="#FADA62" transform="translate(199,112)"/>
<path d="M0 0 C1.65 0 3.3 0 5 0 C4.48400816 7.8822202 2.9078547 15.34458305 1 23 C0.67 23 0.34 23 0 23 C0 15.41 0 7.82 0 0 Z " fill="#EDD661" transform="translate(264,400)"/>
<path d="M0 0 C1.65 0 3.3 0 5 0 C5 7.59 5 15.18 5 23 C4.67 23 4.34 23 4 23 C3.32488828 20.29352533 2.65972659 17.58522815 2 14.875 C1.80921875 14.11445313 1.6184375 13.35390625 1.421875 12.5703125 C0.3872748 8.28411166 -0.2272711 4.44599099 0 0 Z " fill="#F2D862" transform="translate(243,400)"/>
<path d="M0 0 C0.66 0 1.32 0 2 0 C2.1958009 1.91583647 2.38132214 3.83272539 2.5625 5.75 C2.66691406 6.81734375 2.77132813 7.8846875 2.87890625 8.984375 C2.98560074 11.64141204 2.81930395 13.49960572 2 16 C1.34 16 0.68 16 0 16 C-0.9360342 12.20732808 -0.98276252 9.06325435 -0.5625 5.1875 C-0.40974609 3.72376953 -0.40974609 3.72376953 -0.25390625 2.23046875 C-0.12822266 1.12638672 -0.12822266 1.12638672 0 0 Z " fill="#5D893D" transform="translate(255,486)"/>
</svg>
