<?xml version="1.0" encoding="UTF-8"?>
<svg version="1.1" xmlns="http://www.w3.org/2000/svg" width="512" height="512">
<path d="M0 0 C68.64 0 137.28 0 208 0 C208.33 15.84 208.66 31.68 209 48 C213.49384371 57.86661824 216.82828471 64.42438179 223.4375 72.3125 C224.82341813 74.13219992 226.19908802 75.95975023 227.56445312 77.79492188 C230.51005637 81.71726838 233.53479174 85.55360142 236.66526794 89.32978821 C239.75461901 93.19563571 240.24940005 95.26202061 240.24609566 100.14757061 C240.25007775 101.44240012 240.25405985 102.73722963 240.25816262 104.07129639 C240.25245612 105.51666311 240.24656491 106.96202911 240.24050903 108.40739441 C240.24138066 109.93616044 240.24313084 111.46492617 240.24568737 112.99369031 C240.2501734 117.20553257 240.24214003 121.4172737 240.23213124 125.62910306 C240.22351708 130.16692507 240.22641546 134.70474109 240.22793579 139.24256897 C240.22898593 147.108287 240.22269585 154.97397192 240.21146011 162.83968163 C240.19522556 174.21225879 240.18999921 185.5848199 240.18748413 196.95740739 C240.18310381 215.40740503 240.16978558 233.857385 240.15087891 252.30737305 C240.13252882 270.23282789 240.11839098 288.15827792 240.10986328 306.08374023 C240.10932729 307.19941236 240.10879129 308.31508449 240.10823905 309.46456486 C240.10408036 318.18948626 240.10016646 326.91440777 240.09632993 335.63932931 C240.0774529 378.42623575 240.03721859 421.213098 240 464 C150.24 464 60.48 464 -32 464 C-33.16960912 372.88251994 -33.16960912 372.88251994 -33.41601562 334.57617188 C-33.47277748 325.81110051 -33.53136676 317.04604428 -33.59301758 308.28100586 C-33.60449065 306.63360874 -33.60449065 306.63360874 -33.6161955 304.95293087 C-33.74167321 287.31699589 -33.96992216 269.68385685 -34.23743109 252.04956927 C-34.51048261 233.89588741 -34.67008777 215.74364909 -34.72856635 197.58799869 C-34.76448628 187.41231912 -34.85016679 177.24246985 -35.06617165 167.0688839 C-36.72435723 86.72568609 -36.72435723 86.72568609 -7.57534778 55.72346222 C-6.50001908 54.61363523 -5.41703442 53.51110843 -4.32240409 52.42031413 C7.6249357 39.5884001 -0.36518616 17.52893564 0 0 Z " fill="#AD6327" transform="translate(152,24)"/>
<path d="M0 0 C0.86051468 0.00037766 1.72102936 0.00075531 2.60762024 0.00114441 C3.52238632 0.02695084 4.4371524 0.05275726 5.37963867 0.0793457 C6.32699387 0.08642044 7.27434906 0.09349518 8.25041199 0.1007843 C11.26695764 0.12870361 14.28162582 0.1914378 17.29760742 0.25512695 C19.34640868 0.28021299 21.39523913 0.30302563 23.4440918 0.32348633 C28.45848363 0.37852237 33.47147756 0.4647784 38.48510742 0.56762695 C38.48510742 5.84762695 38.48510742 11.12762695 38.48510742 16.56762695 C27.92510742 16.56762695 17.36510742 16.56762695 6.48510742 16.56762695 C6.48510742 35.04762695 6.48510742 53.52762695 6.48510742 72.56762695 C61.92510742 72.56762695 117.36510742 72.56762695 174.48510742 72.56762695 C174.48510742 141.20762695 174.48510742 209.84762695 174.48510742 280.56762695 C105.84510742 280.56762695 37.20510742 280.56762695 -33.51489258 280.56762695 C-33.51489258 211.92762695 -33.51489258 143.28762695 -33.51489258 72.56762695 C-25.59489258 72.56762695 -17.67489258 72.56762695 -9.51489258 72.56762695 C-9.54107666 70.56418213 -9.56726074 68.5607373 -9.59423828 66.49658203 C-9.67715348 59.87103702 -9.73234237 53.24546885 -9.77395344 46.61954212 C-9.80002765 42.60285267 -9.83538436 38.58669557 -9.89208984 34.5703125 C-9.94648967 30.69289114 -9.97632949 26.8159812 -9.98927879 22.93820763 C-9.99850459 21.46019122 -10.01652116 19.98220224 -10.04354286 18.50440407 C-10.07994346 16.43087321 -10.08483397 14.35944442 -10.08251953 12.28564453 C-10.09362259 11.10649979 -10.10472565 9.92735504 -10.11616516 8.71247864 C-9.07172073 3.24969367 -5.63537122 -0.08311757 0 0 Z " fill="#F3F3E5" transform="translate(153.514892578125,143.432373046875)"/>
<path d="M0 0 C21.12 0 42.24 0 64 0 C64 89.76 64 179.52 64 272 C-25.76 272 -115.52 272 -208 272 C-208 250.88 -208 229.76 -208 208 C-139.36 208 -70.72 208 0 208 C0 139.36 0 70.72 0 0 Z " fill="#AD6327" transform="translate(328,216)"/>
<path d="M0 0 C68.64 0 137.28 0 208 0 C208 56.41507779 208 56.41507779 193.6875 73.3125 C192.30497975 75.11875626 190.93321533 76.9332953 189.57226562 78.75585938 C186.62719339 82.6578872 183.60035768 86.46847149 180.4617157 90.21626282 C178.92892568 91.96052706 178.92892568 91.96052706 177.92472076 94.08141994 C175.45246622 96.54578691 173.56640352 96.47928367 170.1687482 96.51632524 C169.36816948 96.50467387 168.56759076 96.4930225 167.74275208 96.48101807 C166.46483883 96.48614462 166.46483883 96.48614462 165.16110915 96.49137473 C162.2956258 96.49798315 159.43107141 96.47592892 156.56567383 96.45410156 C154.51599652 96.45297372 152.4663176 96.4536057 150.41664124 96.45587158 C144.84247579 96.45702214 139.26865265 96.43345747 133.69456697 96.40557575 C127.87294884 96.380619 122.0513234 96.37822462 116.22966003 96.37347412 C105.2011518 96.36102749 94.17280164 96.32818302 83.14436311 96.28807616 C70.59074571 96.24341095 58.03712089 96.22138462 45.48344386 96.20129442 C19.65554151 96.1594519 -6.1722204 96.08906705 -32 96 C-30.69879297 92.62044785 -29.45180162 90.0311679 -27.12670898 87.24682617 C-23.81736621 83.20155424 -20.65180336 79.06743055 -17.51391602 74.88793945 C-16.16585238 73.13474347 -14.78114433 71.40890992 -13.35571289 69.71801758 C4.90124587 47.89851398 -0.64240303 30.83534525 0 0 Z " fill="#C57031" transform="translate(152,24)"/>
<path d="M0 0 C21.12 0 42.24 0 64 0 C64 68.64 64 137.28 64 208 C42.88 208 21.76 208 0 208 C0 139.36 0 70.72 0 0 Z " fill="#AA8777" transform="translate(328,216)"/>
<path d="M0 0 C0.86051468 0.00037766 1.72102936 0.00075531 2.60762024 0.00114441 C3.52238632 0.02695084 4.4371524 0.05275726 5.37963867 0.0793457 C6.32699387 0.08642044 7.27434906 0.09349518 8.25041199 0.1007843 C11.26695764 0.12870361 14.28162582 0.1914378 17.29760742 0.25512695 C19.34640868 0.28021299 21.39523913 0.30302563 23.4440918 0.32348633 C28.45848363 0.37852237 33.47147756 0.4647784 38.48510742 0.56762695 C38.48510742 5.84762695 38.48510742 11.12762695 38.48510742 16.56762695 C27.92510742 16.56762695 17.36510742 16.56762695 6.48510742 16.56762695 C6.48510742 35.04762695 6.48510742 53.52762695 6.48510742 72.56762695 C61.92510742 72.56762695 117.36510742 72.56762695 174.48510742 72.56762695 C174.48510742 83.12762695 174.48510742 93.68762695 174.48510742 104.56762695 C151.15316267 117.17440355 127.69823568 128.01453437 100.83666992 120.0480957 C90.42309797 116.59618013 80.0743571 112.73291898 69.94873047 108.50976562 C50.09073586 100.91567176 26.9285839 105.39130687 8.11328125 113.62988281 C-5.30315937 119.81537594 -16.33699571 128.07634158 -26.99145508 138.2199707 C-29.51489258 140.56762695 -29.51489258 140.56762695 -33.51489258 143.56762695 C-33.51489258 120.13762695 -33.51489258 96.70762695 -33.51489258 72.56762695 C-25.59489258 72.56762695 -17.67489258 72.56762695 -9.51489258 72.56762695 C-9.54107666 70.56418213 -9.56726074 68.5607373 -9.59423828 66.49658203 C-9.67715348 59.87103702 -9.73234237 53.24546885 -9.77395344 46.61954212 C-9.80002765 42.60285267 -9.83538436 38.58669557 -9.89208984 34.5703125 C-9.94648967 30.69289114 -9.97632949 26.8159812 -9.98927879 22.93820763 C-9.99850459 21.46019122 -10.01652116 19.98220224 -10.04354286 18.50440407 C-10.07994346 16.43087321 -10.08483397 14.35944442 -10.08251953 12.28564453 C-10.09362259 11.10649979 -10.10472565 9.92735504 -10.11616516 8.71247864 C-9.07172073 3.24969367 -5.63537122 -0.08311757 0 0 Z " fill="#CEAC9A" transform="translate(153.514892578125,143.432373046875)"/>
<path d="M0 0 C68.64 0 137.28 0 208 0 C208 15.84 208 31.68 208 48 C139.36 48 70.72 48 0 48 C0 32.16 0 16.32 0 0 Z " fill="#CEAC9A" transform="translate(152,24)"/>
<path d="M0 0 C0.52561523 0.53351074 1.05123047 1.06702148 1.59277344 1.61669922 C2.8576345 2.86898864 4.12826992 4.11677408 5.44445801 5.31500244 C23.59997164 21.85527432 32.51660746 39.66667989 33.6506958 63.97854614 C34.55334379 90.64902082 33.31339256 117.36731744 32 144 C10.88 144 -10.24 144 -32 144 C-37.30346136 41.48673339 -37.30346136 41.48673339 -11.57839966 12.46398926 C-9.27126153 9.99574127 -6.86325002 7.66516373 -4.39389038 5.36068726 C-2.71017918 3.71708285 -1.31920728 1.94601623 0 0 Z " fill="#884B1F" transform="translate(360,72)"/>
<path d="M0 0 C21.12 0 42.24 0 64 0 C64 21.12 64 42.24 64 64 C42.88 64 21.76 64 0 64 C0 42.88 0 21.76 0 0 Z " fill="#894C1F" transform="translate(328,424)"/>
<path d="M0 0 C15.4698666 7.22212004 29.56341869 21.75463807 36.00390625 37.55078125 C38.63465518 46.39059637 37.03900566 53.5029034 32.80712891 61.50854492 C28.27556796 69.43821822 22.36760549 73.37826533 13.828125 76.3203125 C3.50559462 78.79376227 -4.29050384 77.36817789 -13.296875 72.0703125 C-20.69871834 67.13575028 -24.76409859 59.75720097 -27.171875 51.3203125 C-27.532935 46.6929675 -27.50131993 42.06706593 -27.48754883 37.42773438 C-27.48441314 35.22214164 -27.50779387 33.01792497 -27.53320312 30.8125 C-27.58031188 20.29191601 -27.41977028 8.63407473 -20.171875 0.3203125 C-13.74831382 -4.88798035 -7.07114321 -2.76276907 0 0 Z " fill="#AD6428" transform="translate(195.171875,314.6796875)"/>
<path d="M0 0 C7.38926724 4.63640298 9.70457481 11.14573122 11.75 19.375 C13.84327826 30.19027102 15.60386486 43.13611826 9.62109375 52.94921875 C5.46281201 58.20969565 0.78518435 62.80261453 -6 64 C-13.16256604 64.69528761 -19.14253255 64.47362585 -25 60 C-31.35771734 54.04881521 -34.90943251 49.05470288 -35.375 40.25 C-35.0403246 27.79263774 -26.78390158 16.67399072 -18.4375 8 C-12.93951837 2.80379437 -8.00704973 -1.3102445 0 0 Z " fill="#CEAC9A" transform="translate(267,296)"/>
<path d="M0 0 C0.86051468 0.00037766 1.72102936 0.00075531 2.60762024 0.00114441 C3.52238632 0.02695084 4.4371524 0.05275726 5.37963867 0.0793457 C6.32699387 0.08642044 7.27434906 0.09349518 8.25041199 0.1007843 C11.26695764 0.12870361 14.28162582 0.1914378 17.29760742 0.25512695 C19.34640868 0.28021299 21.39523913 0.30302563 23.4440918 0.32348633 C28.45848363 0.37852237 33.47147756 0.4647784 38.48510742 0.56762695 C38.48510742 5.84762695 38.48510742 11.12762695 38.48510742 16.56762695 C27.92510742 16.56762695 17.36510742 16.56762695 6.48510742 16.56762695 C6.48510742 35.04762695 6.48510742 53.52762695 6.48510742 72.56762695 C1.20510742 72.56762695 -4.07489258 72.56762695 -9.51489258 72.56762695 C-9.62793532 63.91829203 -9.71963169 55.26944911 -9.77395344 46.61954212 C-9.80002765 42.60285267 -9.83538436 38.58669557 -9.89208984 34.5703125 C-9.94648967 30.69289114 -9.97632949 26.8159812 -9.98927879 22.93820763 C-9.99850459 21.46019122 -10.01652116 19.98220224 -10.04354286 18.50440407 C-10.07994346 16.43087321 -10.08483397 14.35944442 -10.08251953 12.28564453 C-10.09362259 11.10649979 -10.10472565 9.92735504 -10.11616516 8.71247864 C-9.07172073 3.24969367 -5.63537122 -0.08311757 0 0 Z " fill="#F3F3E5" transform="translate(153.514892578125,143.432373046875)"/>
<path d="M0 0 C2.70714099 2.59003623 4.94438269 5.16455975 7.02441406 8.27783203 C7.86483246 9.52900314 7.86483246 9.52900314 8.722229 10.80545044 C9.31404968 11.69722992 9.90587036 12.5890094 10.515625 13.5078125 C11.13145447 14.42964325 11.74728394 15.351474 12.3817749 16.30123901 C13.67833654 18.24472338 14.97257879 20.18975684 16.26464844 22.13623047 C18.25027879 25.1254197 20.24570888 28.10789229 22.2421875 31.08984375 C23.50059247 32.9787721 24.75842507 34.86808191 26.015625 36.7578125 C26.6155426 37.65364044 27.21546021 38.54946838 27.83355713 39.47244263 C28.38122742 40.30025238 28.92889771 41.12806213 29.49316406 41.98095703 C29.97851624 42.71057648 30.46386841 43.44019592 30.96392822 44.19192505 C32 46 32 46 32 48 C11.21 48 -9.58 48 -31 48 C-29.53000043 44.32500109 -28.35056149 41.77809343 -26.21850586 38.59277344 C-25.66130356 37.7555072 -25.10410126 36.91824097 -24.53001404 36.05560303 C-23.93100784 35.16584778 -23.33200165 34.27609253 -22.71484375 33.359375 C-22.09855606 32.43658752 -21.48226837 31.51380005 -20.8473053 30.56304932 C-19.54740231 28.61839699 -18.24530417 26.67521046 -16.94116211 24.73339844 C-14.93734286 21.74976602 -12.93976682 18.76203317 -10.94335938 15.7734375 C-9.68004593 13.88517681 -8.41638609 11.99714782 -7.15234375 10.109375 C-6.55131332 9.21152283 -5.9502829 8.31367065 -5.33103943 7.38861084 C-4.77698929 6.56395325 -4.22293915 5.73929565 -3.65209961 4.88964844 C-3.16293564 4.16082458 -2.67377167 3.43200073 -2.16978455 2.68109131 C-1 1 -1 1 0 0 Z " fill="#703D1A" transform="translate(360,72)"/>
<path d="M0 0 C5.66390106 10.62607986 11.21393895 21.30521986 16.625 32.0625 C17.15770508 33.11501953 17.69041016 34.16753906 18.23925781 35.25195312 C18.73006836 36.23228516 19.22087891 37.21261719 19.7265625 38.22265625 C20.16564941 39.09672119 20.60473633 39.97078613 21.05712891 40.87133789 C22 43 22 43 22 45 C20.06629769 46.00732399 18.12789694 47.00563288 16.1875 48 C15.10855469 48.556875 14.02960938 49.11375 12.91796875 49.6875 C10 51 10 51 7 51 C4.11080819 45.42466151 1.24691468 39.83686359 -1.59985352 34.23974609 C-2.57097533 32.33770248 -3.54782509 30.43857197 -4.53051758 28.54248047 C-5.94311833 25.81445332 -7.33470106 23.07656873 -8.72265625 20.3359375 C-9.38661156 19.06996231 -9.38661156 19.06996231 -10.0639801 17.77841187 C-11.90901643 14.09112294 -13.01726098 11.73902193 -12.91967773 7.56103516 C-10.78511479 1.61689783 -5.80551377 -0.15277668 0 0 Z " fill="#713E1B" transform="translate(185,312)"/>
<path d="M0 0 C5.28 0 10.56 0 16 0 C16 7.92 16 15.84 16 24 C10.72 24 5.44 24 0 24 C0 16.08 0 8.16 0 0 Z " fill="#AD6327" transform="translate(320,24)"/>
<path d="M0 0 C5.28 0 10.56 0 16 0 C16 7.92 16 15.84 16 24 C10.72 24 5.44 24 0 24 C0 16.08 0 8.16 0 0 Z " fill="#AD6327" transform="translate(288,24)"/>
<path d="M0 0 C5.28 0 10.56 0 16 0 C16 7.92 16 15.84 16 24 C10.72 24 5.44 24 0 24 C0 16.08 0 8.16 0 0 Z " fill="#AD6327" transform="translate(176,24)"/>
<path d="M0 0 C5.28 0 10.56 0 16 0 C16 5.28 16 10.56 16 16 C10.72 16 5.44 16 0 16 C0 10.72 0 5.44 0 0 Z " fill="#FFD782" transform="translate(152,448)"/>
<path d="M0 0 C5.28 0 10.56 0 16 0 C16 5.28 16 10.56 16 16 C10.72 16 5.44 16 0 16 C0 10.72 0 5.44 0 0 Z " fill="#FFD782" transform="translate(280,384)"/>
<path d="M0 0 C5.28 0 10.56 0 16 0 C16 5.28 16 10.56 16 16 C10.72 16 5.44 16 0 16 C0 10.72 0 5.44 0 0 Z " fill="#FFD782" transform="translate(200,272)"/>
</svg>
