<?xml version="1.0" encoding="UTF-8"?>
<svg version="1.1" xmlns="http://www.w3.org/2000/svg" width="512" height="512">
<path d="M0 0 C0.90492188 0.22574707 1.80984375 0.45149414 2.7421875 0.68408203 C27.72979205 7.10911099 50.78676045 17.31391108 72 32 C73.74769851 33.17011154 75.49748429 34.33711574 77.25 35.5 C78.5 36.33333333 79.75 37.16666667 81 38 C81.78503906 37.21753906 82.57007813 36.43507812 83.37890625 35.62890625 C84.43935595 34.60599459 85.50059623 33.58390208 86.5625 32.5625 C87.07619141 32.04623047 87.58988281 31.52996094 88.11914062 30.99804688 C91.88626207 27.41811159 94.61520449 26.11566387 100 26 C102.92346557 27.36428393 104.72750909 28.72750909 107 31 C107.72771687 34.10406667 107.6752137 36.89007412 107 40 C104.99585982 43.03369847 102.64903892 45.51990489 100 48 C101.23492187 48.14695313 102.46984375 48.29390625 103.7421875 48.4453125 C136.19944284 52.61824987 161.56379582 67.45314373 181.90234375 93.4296875 C196.97494949 114.27841653 206.17213949 137.67327365 211.75 162.625 C211.94875732 163.50559082 212.14751465 164.38618164 212.35229492 165.29345703 C215.56556351 180.43011447 216.32739827 195.36354935 216.26074219 210.79443359 C216.24996258 213.76029655 216.26073581 216.7255608 216.2734375 219.69140625 C216.27967506 229.65279573 216.0357063 239.21098862 214 249 C207.24473393 247.12877706 200.87394355 244.84985452 194.5 241.9375 C193.63906738 241.5453833 192.77813477 241.1532666 191.89111328 240.74926758 C172.56917105 231.80353054 154.36738742 220.63948951 138 207 C136.67275333 205.99193549 135.34123043 204.98938299 134 204 C133.5875 205.24652344 133.175 206.49304688 132.75 207.77734375 C123.12543888 236.37119405 108.83764516 260.20981897 88 282 C87.12601562 282.92683594 86.25203125 283.85367187 85.3515625 284.80859375 C73.36629717 297.19805425 58.47990518 309.26004741 43 317 C50.83103572 315.75426944 58.58767168 314.31048191 66.33642578 312.62988281 C67.39810471 312.40204605 68.45978363 312.17420929 69.55363464 311.93946838 C71.83397993 311.45000885 74.11409124 310.95945813 76.39398575 310.46790314 C79.99882789 309.69160046 83.60468295 308.92018595 87.21090698 308.15032959 C97.45512357 305.96337068 107.69885116 303.77428887 117.93847656 301.56591797 C124.22011351 300.2115333 130.50404514 298.86830836 136.78966904 297.53255463 C139.18367533 297.02157187 141.57678336 296.50636226 143.96896744 295.98691559 C147.29632631 295.26486653 150.62640667 294.5570329 153.95751953 293.85253906 C154.95070694 293.63342361 155.94389435 293.41430817 156.96717834 293.18855286 C157.86972855 293.00066696 158.77227875 292.81278107 159.70217896 292.61920166 C160.48855303 292.4503458 161.2749271 292.28148994 162.08513069 292.10751724 C163.032991 292.05429621 163.032991 292.05429621 164 292 C170.19422432 298.19422432 168.86227047 315.77397655 169.00683594 324.24951172 C168.90315234 365.9673468 152.33874289 404.58361571 123 434 C94.4581368 462.21332376 55.870956 477.50208096 15.8125 477.3125 C14.54801025 477.30686035 13.28352051 477.3012207 11.98071289 477.29541016 C-27.93737626 476.7817162 -65.58616257 460.16510737 -93.44604492 431.70776367 C-94.6361923 430.4771337 -95.818995 429.23940635 -97 428 C-97.55123535 428.16604736 -98.1024707 428.33209473 -98.67041016 428.50317383 C-142.1467696 441.42240123 -187.03361525 440.20310604 -227.609375 418.58984375 C-242.91631226 410.19053991 -242.91631226 410.19053991 -245.140625 404.25390625 C-245.66269531 402.87428711 -245.66269531 402.87428711 -246.1953125 401.46679688 C-246.54335937 400.50837891 -246.89140625 399.54996094 -247.25 398.5625 C-247.61351562 397.60794922 -247.97703125 396.65339844 -248.3515625 395.66992188 C-249.90678084 391.49246508 -251 388.51262527 -251 384 C-249.56982422 382.51123047 -249.56982422 382.51123047 -247.5546875 381.1171875 C-246.44262939 380.33251099 -246.44262939 380.33251099 -245.30810547 379.53198242 C-244.10371826 378.71177612 -244.10371826 378.71177612 -242.875 377.875 C-242.06562988 377.30821533 -241.25625977 376.74143066 -240.42236328 376.1574707 C-238.76167845 374.99492606 -237.0974203 373.83746975 -235.4296875 372.68505859 C-231.88300028 370.22532837 -228.38022632 367.70575513 -224.875 365.1875 C-222.91771292 363.79019249 -220.95884377 362.39512507 -219 361 C-219.64582031 360.731875 -220.29164063 360.46375 -220.95703125 360.1875 C-223.01567697 359.33137374 -225.07278311 358.47154206 -227.12890625 357.609375 C-229.8987275 356.45123124 -232.67910825 355.32240964 -235.46484375 354.203125 C-260.51204753 344.04815394 -281.16402268 331.87902711 -292.80859375 306.30078125 C-299.92257294 286.59156023 -296.7580789 265.08490163 -288.4375 246.375 C-285.51607077 240.19712158 -282.03606638 235.19795322 -277.47900391 230.13720703 C-248.89729067 198.2691284 -226.60033503 155.79379729 -207.1875 117.875 C-199.43026089 102.75662119 -190.85387098 89.07431795 -180 76 C-179.52304688 75.42008301 -179.04609375 74.84016602 -178.5546875 74.24267578 C-168.12444609 61.605769 -156.95910191 50.06822533 -144 40 C-142.73389069 38.98237311 -141.46830129 37.96409915 -140.203125 36.9453125 C-115.63613076 17.39810045 -86.22724901 2.77032006 -55 -2 C-53.82824219 -2.18304687 -52.65648437 -2.36609375 -51.44921875 -2.5546875 C-34.62362025 -4.57158542 -16.47524303 -4.1222431 0 0 Z " fill="#F27025" transform="translate(296,19)"/>
<path d="M0 0 C3.00635508 1.89500107 5.45459759 4.05192066 8.03515625 6.49609375 C11.63732965 9.97921766 11.63732965 9.97921766 15.67578125 12.89453125 C18.44623732 15.46021448 18.88533535 18.68584074 19.66015625 22.24609375 C19.82451172 22.92865234 19.98886719 23.61121094 20.15820312 24.31445312 C24.10556802 41.23858036 24.19946222 60.59121005 20.47265625 77.55859375 C20.25480469 78.69941406 20.03695312 79.84023438 19.8125 81.015625 C18.16595413 89.32033448 16.28343057 97.93704511 12.47265625 105.55859375 C13.12137695 105.3877124 13.77009766 105.21683105 14.43847656 105.04077148 C24.78229915 102.38070452 35.23120805 100.26541489 45.68945312 98.11352539 C48.13339755 97.60971704 50.57647761 97.10185784 53.01953125 96.59375 C53.73050964 96.44881607 54.44148804 96.30388214 55.17401123 96.15455627 C59.95983131 95.15748257 64.68948231 94.00110329 69.42529297 92.78833008 C81.10509543 89.82322891 92.90212773 87.3701463 104.68359375 84.84765625 C105.91310383 84.58404675 107.14261391 84.32043724 108.40938187 84.04883957 C114.22651928 82.80206892 120.04413901 81.55758979 125.86252916 80.31668055 C132.5548435 78.88928324 139.2449913 77.4522203 145.93354833 76.00732195 C151.75670445 74.75010138 157.58251301 73.50550273 163.40935135 72.26545334 C165.88144625 71.73743457 168.35270409 71.20548133 170.82310104 70.66957474 C174.25535108 69.92594847 177.69036114 69.19676873 181.12646484 68.47119141 C182.66292412 68.13320526 182.66292412 68.13320526 184.23042297 67.78839111 C185.62606224 67.49827652 185.62606224 67.49827652 187.04989624 67.20230103 C187.86057241 67.02866846 188.67124859 66.8550359 189.50649071 66.67614174 C190.47974265 66.61795548 190.47974265 66.61795548 191.47265625 66.55859375 C197.66688057 72.75281807 196.33492672 90.3325703 196.47949219 98.80810547 C196.37580859 140.52594055 179.81139914 179.14220946 150.47265625 208.55859375 C121.93079305 236.77191751 83.34361225 252.06067471 43.28515625 251.87109375 C42.0206665 251.8654541 40.75617676 251.85981445 39.45336914 251.85400391 C-0.46472001 251.34030995 -38.11350632 234.72370112 -65.97338867 206.26635742 C-67.16353605 205.03572745 -68.34633875 203.7980001 -69.52734375 202.55859375 C-70.0785791 202.72464111 -70.62981445 202.89068848 -71.19775391 203.06176758 C-114.67411335 215.98099498 -159.560959 214.76169979 -200.13671875 193.1484375 C-215.44365601 184.74913366 -215.44365601 184.74913366 -217.66796875 178.8125 C-218.01601562 177.89275391 -218.3640625 176.97300781 -218.72265625 176.02539062 C-219.07070312 175.06697266 -219.41875 174.10855469 -219.77734375 173.12109375 C-220.14085937 172.16654297 -220.504375 171.21199219 -220.87890625 170.22851562 C-222.43412459 166.05105883 -223.52734375 163.07121902 -223.52734375 158.55859375 C-222.11303711 157.08569336 -222.11303711 157.08569336 -220.1171875 155.7109375 C-219.38153564 155.19329834 -218.64588379 154.67565918 -217.88793945 154.14233398 C-217.08831787 153.59907471 -216.28869629 153.05581543 -215.46484375 152.49609375 C-213.81066114 151.34061182 -212.157024 150.18434864 -210.50390625 149.02734375 C-209.66891602 148.44855469 -208.83392578 147.86976563 -207.97363281 147.2734375 C-203.77048386 144.32703847 -199.66754559 141.24515061 -195.56420898 138.16186523 C-192.27406884 135.7235901 -188.94280016 133.63237291 -185.35620117 131.63793945 C-181.83304927 129.55866372 -178.57412059 127.09983998 -175.27734375 124.68359375 C-174.50229492 124.11987061 -173.72724609 123.55614746 -172.92871094 122.9753418 C-166.38336411 118.20690817 -159.87007085 113.39471715 -153.35668945 108.58276367 C-147.64420589 104.36703664 -141.88818977 100.21851265 -136.1015625 96.10546875 C-129.65208864 91.51869162 -123.25026982 86.86526022 -116.83740234 82.22753906 C-114.57553546 80.59341076 -112.31158067 78.96222245 -110.046875 77.33203125 C-102.25750279 71.7221131 -94.49757405 66.07587253 -86.77734375 60.37109375 C-80.26011502 55.55572446 -73.7062106 50.79994902 -67.1015625 46.10546875 C-60.65208864 41.51869162 -54.25026982 36.86526022 -47.83740234 32.22753906 C-45.57553546 30.59341076 -43.31158067 28.96222245 -41.046875 27.33203125 C-32.28571512 21.02200148 -23.56316346 14.66392195 -14.89477539 8.22680664 C-13.43289202 7.14426375 -11.96628555 6.06805812 -10.49414062 4.99951172 C-9.25335502 4.09048533 -8.02796464 3.15969247 -6.82617188 2.19970703 C-4.34844332 0.31142536 -3.13998843 -0.54840602 0 0 Z " fill="#FECA2D" transform="translate(268.52734375,244.44140625)"/>
<path d="M0 0 C0.90492188 0.22574707 1.80984375 0.45149414 2.7421875 0.68408203 C27.72979205 7.10911099 50.78676045 17.31391108 72 32 C73.74769851 33.17011154 75.49748429 34.33711574 77.25 35.5 C78.5 36.33333333 79.75 37.16666667 81 38 C81.78503906 37.21753906 82.57007813 36.43507812 83.37890625 35.62890625 C84.43935595 34.60599459 85.50059623 33.58390208 86.5625 32.5625 C87.07619141 32.04623047 87.58988281 31.52996094 88.11914062 30.99804688 C91.88626207 27.41811159 94.61520449 26.11566387 100 26 C102.92346557 27.36428393 104.72750909 28.72750909 107 31 C107.72771687 34.10406667 107.6752137 36.89007412 107 40 C104.99585982 43.03369847 102.64903892 45.51990489 100 48 C101.23492187 48.14695313 102.46984375 48.29390625 103.7421875 48.4453125 C136.19944284 52.61824987 161.56379582 67.45314373 181.90234375 93.4296875 C196.97494949 114.27841653 206.17213949 137.67327365 211.75 162.625 C211.94875732 163.50559082 212.14751465 164.38618164 212.35229492 165.29345703 C215.56556351 180.43011447 216.32739827 195.36354935 216.26074219 210.79443359 C216.24996258 213.76029655 216.26073581 216.7255608 216.2734375 219.69140625 C216.27967506 229.65279573 216.0357063 239.21098862 214 249 C207.24473393 247.12877706 200.87394355 244.84985452 194.5 241.9375 C193.63906738 241.5453833 192.77813477 241.1532666 191.89111328 240.74926758 C172.56917105 231.80353054 154.36738742 220.63948951 138 207 C136.67275333 205.99193549 135.34123043 204.98938299 134 204 C133.5875 205.24652344 133.175 206.49304688 132.75 207.77734375 C123.11087787 236.41445374 108.8029122 260.13571473 88 282 C87.15695312 282.91910156 86.31390625 283.83820313 85.4453125 284.78515625 C84.65898437 285.61917969 83.87265625 286.45320313 83.0625 287.3125 C82.37285156 288.05113281 81.68320312 288.78976562 80.97265625 289.55078125 C79 291 79 291 77.03881836 290.80761719 C74.50207875 289.80276332 73.84485132 288.82333088 72.40625 286.52734375 C71.93960938 285.80063477 71.47296875 285.07392578 70.9921875 284.32519531 C70.49976563 283.53725586 70.00734375 282.74931641 69.5 281.9375 C68.43068315 280.28282435 67.35768148 278.6305249 66.28125 276.98046875 C65.73597656 276.14435059 65.19070313 275.30823242 64.62890625 274.44677734 C57.38608725 263.56735108 49.08704957 253.52046715 40.48242188 243.70458984 C39.01830449 242.02104775 37.57624623 240.3211585 36.140625 238.61328125 C26.89644584 227.6369952 17.16767843 217.07402056 6.953125 206.9921875 C4.46724036 204.52362401 2.11117743 202.0135084 -0.15625 199.34375 C-5.57282287 193.05512118 -11.6021182 187.33145352 -17.5 181.5 C-31.19717143 167.95710081 -31.19717143 167.95710081 -36.47851562 161.74414062 C-39.15894552 158.6714527 -42.08805511 155.85105254 -45 153 C-49.24013573 148.80367993 -53.38150676 144.59920864 -57.23828125 140.04296875 C-59.09060206 137.89493375 -61.00808151 135.81416247 -62.93823242 133.73608398 C-68.5509359 127.68657198 -73.88160955 121.47783495 -79 115 C-79.49258301 114.38527832 -79.98516602 113.77055664 -80.49267578 113.13720703 C-92.09455972 98.61985119 -102.04133654 83.71866592 -108 66 C-108.33902344 64.99324219 -108.67804688 63.98648438 -109.02734375 62.94921875 C-111.96826609 52.50013522 -111.47342015 41.73884686 -111 31 C-110.98888184 30.23171875 -110.97776367 29.4634375 -110.96630859 28.671875 C-110.85902401 23.92101013 -110.32925908 20.17038186 -108 16 C-103.19997599 11.80654619 -96.93279602 10.00601245 -91 8 C-89.24406115 7.36007389 -87.48886301 6.71811198 -85.734375 6.07421875 C-75.65162798 2.46949178 -65.59269968 -0.38184376 -55 -2 C-53.82824219 -2.18304687 -52.65648437 -2.36609375 -51.44921875 -2.5546875 C-34.62362025 -4.57158542 -16.47524303 -4.1222431 0 0 Z " fill="#F15225" transform="translate(296,19)"/>
<path d="M0 0 C2.72038749 1.67408461 3.72533179 2.87474638 4.484375 5.984375 C4.82543071 9.7884579 4.57348334 12.13906347 2.42578125 15.36328125 C0.69235539 17.34283248 -1.07981867 19.20227921 -3 21 C-1.76507813 21.14695312 -0.53015625 21.29390625 0.7421875 21.4453125 C33.19944284 25.61824987 58.56379582 40.45314373 78.90234375 66.4296875 C93.97494949 87.27841653 103.17213949 110.67327365 108.75 135.625 C109.04813599 136.94588623 109.04813599 136.94588623 109.35229492 138.29345703 C112.56556351 153.43011447 113.32739827 168.36354935 113.26074219 183.79443359 C113.24996258 186.76029655 113.26073581 189.7255608 113.2734375 192.69140625 C113.27967506 202.65279573 113.0357063 212.21098862 111 222 C104.24473393 220.12877706 97.87394355 217.84985452 91.5 214.9375 C90.63906738 214.5453833 89.77813477 214.1532666 88.89111328 213.74926758 C69.6060821 204.82061974 51.28113394 193.6973211 35 180 C33.78763672 179.05640625 33.78763672 179.05640625 32.55078125 178.09375 C29.8491571 175.87618408 27.44366208 173.49745339 25 171 C24.22140625 170.24460938 23.4428125 169.48921875 22.640625 168.7109375 C-3.14882121 143.51144594 -23.65709566 109.89266869 -24.24145508 72.94775391 C-24.29208201 58.07500906 -21.68287247 44.77789944 -16 31 C-15.67 30.67 -15.34 30.34 -15 30 C-15.61488281 29.91363281 -16.22976563 29.82726562 -16.86328125 29.73828125 C-23.41838917 28.59871703 -23.41838917 28.59871703 -26.125 25.8125 C-27.2822493 22.09277011 -27.57560137 19.54852831 -26 16 C-19.50225324 7.29025434 -11.63575557 -2.65376881 0 0 Z " fill="#407A26" transform="translate(399,46)"/>
<path d="M0 0 C0.33 0 0.66 0 1 0 C1.1451001 1.04937744 1.2902002 2.09875488 1.43969727 3.17993164 C6.98505509 42.97075689 15.01719092 81.5429773 30 119 C30.3187207 119.79680176 30.63744141 120.59360352 30.96582031 121.41455078 C38.65363227 140.39638986 47.16566636 159.76305354 58.8046875 176.6796875 C60 179 60 179 59.80102539 180.95776367 C58.78584103 183.54600419 57.63259088 184.38685605 55.37890625 185.99609375 C54.61763428 186.54789307 53.8563623 187.09969238 53.07202148 187.66821289 C52.24387939 188.25207764 51.4157373 188.83594238 50.5625 189.4375 C49.70793213 190.05294678 48.85336426 190.66839355 47.97290039 191.30249023 C46.19250771 192.58342255 44.40884352 193.85981896 42.62207031 195.13183594 C40.195533 196.86068729 37.77904553 198.60231428 35.3671875 200.3515625 C31.68189702 203.02417537 27.99005721 205.68750876 24.29541016 208.34716797 C20.23632527 211.26995086 16.18064807 214.1974511 12.125 217.125 C11.36952881 217.66970947 10.61405762 218.21441895 9.83569336 218.77563477 C9.12936768 219.28537842 8.42304199 219.79512207 7.6953125 220.3203125 C7.07672363 220.76648926 6.45813477 221.21266602 5.82080078 221.67236328 C4.5102898 222.62792224 3.23591287 223.63375758 1.98754883 224.66918945 C-0.64090312 226.42913191 -2.56454998 226.13261396 -5.60888672 225.60986328 C-10.59374099 224.33845569 -15.31083978 222.38728576 -20.0625 220.4375 C-21.16924072 219.98713379 -22.27598145 219.53676758 -23.41625977 219.07275391 C-36.15150617 213.80819453 -47.50561458 208.08320859 -58 199 C-59.5159375 197.88625 -59.5159375 197.88625 -61.0625 196.75 C-71.68316926 187.72393548 -78.9168012 173.67873917 -81 160 C-82.71536598 138.69244502 -79.54139867 116.03430608 -65.22412109 99.20654297 C-64.31263959 98.18026032 -63.39749692 97.15721938 -62.47900391 96.13720703 C-39.36650175 70.36719701 -22.41900665 37.48195176 -4.99731445 7.73950195 C-4.48644287 6.86898193 -3.97557129 5.99846191 -3.44921875 5.1015625 C-2.99893311 4.33150879 -2.54864746 3.56145508 -2.0847168 2.76806641 C-1 1 -1 1 0 0 Z " fill="#F18F18" transform="translate(81,153)"/>
<path d="M0 0 C1.67895508 2.20532227 1.67895508 2.20532227 3.51953125 5.31640625 C3.85447601 5.87523499 4.18942078 6.43406372 4.53451538 7.00982666 C5.6373681 8.85485549 6.72470576 10.70856013 7.8125 12.5625 C8.57803406 13.84858495 9.3447287 15.13397974 10.11254883 16.41870117 C11.67248542 19.03094333 13.2273276 21.64611017 14.77832031 24.26367188 C17.87004352 29.4738288 21.02810225 34.64319426 24.1875 39.8125 C25.32713689 41.68340254 26.46646083 43.55449573 27.60546875 45.42578125 C28.44343994 46.8017749 28.44343994 46.8017749 29.29833984 48.20556641 C31.61371213 52.00782626 33.92835553 55.81052956 36.24291992 59.61328125 C37.41355235 61.53652118 38.5842879 63.45969835 39.75512695 65.3828125 C42.64859747 70.13553632 45.54066682 74.88910103 48.4296875 79.64453125 C54.62935489 89.84554603 60.85887222 100.02715591 67.125 110.1875 C71.79704859 117.76417019 76.43740078 125.35690487 81 133 C87.51566813 143.91168783 94.19087578 154.72395452 100.86523438 165.5390625 C104.22128494 170.9783665 107.56922269 176.42266633 110.91809082 181.86639404 C112.63261263 184.65328996 114.3475738 187.43991541 116.0625 190.2265625 C117.04166667 191.81770833 118.02083333 193.40885417 119 195 C117 196 117 196 114.87133789 195.35424805 C113.99727295 194.99371338 113.12320801 194.63317871 112.22265625 194.26171875 C111.24401611 193.85920898 110.26537598 193.45669922 109.25708008 193.04199219 C108.20286865 192.59500977 107.14865723 192.14802734 106.0625 191.6875 C104.97799561 191.22891602 103.89349121 190.77033203 102.77612305 190.29785156 C81.22159048 181.04322749 60.91385339 169.24122204 43 154 C42.195625 153.37351563 41.39125 152.74703125 40.5625 152.1015625 C37.85585387 149.88178259 35.44733574 147.50120791 33 145 C32.22140625 144.24460938 31.4428125 143.48921875 30.640625 142.7109375 C4.85117879 117.51144594 -15.65709566 83.89266869 -16.24145508 46.94775391 C-16.29062223 32.5038504 -15.32087251 13.5679612 -5.5234375 2.1015625 C-3 0 -3 0 0 0 Z " fill="#57A532" transform="translate(391,72)"/>
<path d="M0 0 C2.9350082 3.63031766 5.7565013 7.33195478 8.5625 11.0625 C13.66535655 17.75140534 19.19933943 23.91350978 25 30 C26.14855469 31.24523437 26.14855469 31.24523437 27.3203125 32.515625 C51.51051241 57.93583507 83.28172539 71.66276761 116.09350586 81.99780273 C118.53652671 82.84018833 120.73316085 83.77171271 123 85 C114.78856743 91.41091912 106.4510144 97.59045858 97.95117188 103.61230469 C95.08018628 105.65418183 92.22173047 107.71321182 89.36547852 109.77563477 C87.83422143 110.88061377 86.30086111 111.98268418 84.76538086 113.08178711 C81.04769125 115.75158002 77.38428119 118.46060526 73.80078125 121.30859375 C72.80582642 122.08408569 72.80582642 122.08408569 71.79077148 122.87524414 C70.55295915 123.84426175 69.32855226 124.83076617 68.12133789 125.83764648 C65.05956918 128.2100864 63.22006079 128.99555669 59.32421875 129.07421875 C53.63953449 127.93619026 48.2806324 125.62998915 42.9375 123.4375 C41.83075928 122.98713379 40.72401855 122.53676758 39.58374023 122.07275391 C26.84849383 116.80819453 15.49438542 111.08320859 5 102 C3.989375 101.2575 2.97875 100.515 1.9375 99.75 C-8.68316926 90.72393548 -15.9168012 76.67873917 -18 63 C-19.40334976 45.56817931 -17.35054107 30.92199585 -10.125 15 C-9.65223633 13.95791382 -9.65223633 13.95791382 -9.16992188 12.89477539 C-6.77932423 7.94051328 -3.74805853 4.01297777 0 0 Z " fill="#E48218" transform="translate(18,250)"/>
<path d="M0 0 C6.19422432 6.19422432 4.86227047 23.77397655 5.00683594 32.24951172 C4.90315234 73.9673468 -11.66125711 112.58361571 -41 142 C-69.5418632 170.21332376 -108.129044 185.50208096 -148.1875 185.3125 C-149.45198975 185.30686035 -150.71647949 185.3012207 -152.01928711 185.29541016 C-191.93737626 184.7817162 -229.58616257 168.16510737 -257.44604492 139.70776367 C-258.6361923 138.4771337 -259.818995 137.23940635 -261 136 C-261.55123535 136.16604736 -262.1024707 136.33209473 -262.67041016 136.50317383 C-306.1467696 149.42240123 -351.03361525 148.20310604 -391.609375 126.58984375 C-406.91631226 118.19053991 -406.91631226 118.19053991 -409.140625 112.25390625 C-409.48867188 111.33416016 -409.83671875 110.41441406 -410.1953125 109.46679688 C-410.54335938 108.50837891 -410.89140625 107.54996094 -411.25 106.5625 C-411.61351562 105.60794922 -411.97703125 104.65339844 -412.3515625 103.66992188 C-413.90678084 99.49246508 -415 96.51262527 -415 92 C-413.03125 90.296875 -413.03125 90.296875 -410.5 88.75 C-409.24703125 87.96882813 -409.24703125 87.96882813 -407.96875 87.171875 C-407.3190625 86.78515625 -406.669375 86.3984375 -406 86 C-404.49115787 89.43368594 -402.99446599 92.87253549 -401.5 96.3125 C-401.07074219 97.28896484 -400.64148438 98.26542969 -400.19921875 99.27148438 C-399.79316406 100.20927734 -399.38710938 101.14707031 -398.96875 102.11328125 C-398.59169922 102.97735596 -398.21464844 103.84143066 -397.82617188 104.73168945 C-397 107 -397 107 -397 110 C-396.33484375 110.24234375 -395.6696875 110.4846875 -394.984375 110.734375 C-391.98446683 112.00658737 -389.22376499 113.48954984 -386.38061523 115.0715332 C-364.05977991 127.41743352 -340.92295347 132.22179837 -315.5625 132.3125 C-314.4334021 132.31742462 -314.4334021 132.31742462 -313.28149414 132.32244873 C-301.36653137 132.33924197 -290.51606191 131.18606993 -279 128 C-276.94152924 127.563863 -274.87955396 127.14345303 -272.8125 126.75 C-271.554375 126.5025 -270.29625 126.255 -269 126 C-269.52207031 125.30519531 -270.04414063 124.61039062 -270.58203125 123.89453125 C-282.22347191 107.80854757 -297 84.56326961 -297 64 C-292.79018866 62.33565598 -290.37219878 61.93488173 -286 63 C-285.6596875 64.23492187 -285.319375 65.46984375 -284.96875 66.7421875 C-278.5621735 89.38251092 -269.39451479 108.09674947 -254 126 C-253.42765625 126.70640625 -252.8553125 127.4128125 -252.265625 128.140625 C-247.4978777 133.90732887 -241.90525441 138.43648366 -236 143 C-235.14535156 143.6703125 -234.29070312 144.340625 -233.41015625 145.03125 C-209.22687091 163.35963468 -180.47947616 173.43527656 -150.125 173.25 C-148.86558594 173.25773438 -147.60617187 173.26546875 -146.30859375 173.2734375 C-134.07541983 173.24829223 -122.36403017 171.7755139 -110.625 168.3125 C-109.73361328 168.05267334 -108.84222656 167.79284668 -107.92382812 167.52514648 C-99.61855298 165.02301143 -91.77739148 161.82310838 -84 158 C-82.86046875 157.44441406 -81.7209375 156.88882813 -80.546875 156.31640625 C-48.08472765 139.66224772 -25.0465775 109.2959825 -13.64501953 75.09130859 C-10.35819584 64.43463495 -7.83459324 53.38697357 -7.8671875 42.21484375 C-7.86623077 41.47730362 -7.86527405 40.73976349 -7.86428833 39.97987366 C-7.86361052 38.42253534 -7.86543689 36.86519415 -7.86962891 35.30786133 C-7.87492897 32.96884506 -7.86969829 30.63002556 -7.86328125 28.29101562 C-7.85977148 19.474113 -8.14936559 10.7824612 -9 2 C-7.54166667 1.625 -6.08333333 1.25 -4.625 0.875 C-3.81289063 0.66617187 -3.00078125 0.45734375 -2.1640625 0.2421875 C-1.44992187 0.16226562 -0.73578125 0.08234375 0 0 Z " fill="#E45023" transform="translate(460,311)"/>
<path d="M0 0 C3.16491811 1.38273121 5.74205512 3.26881331 8.46435547 5.37573242 C24.12461941 17.4281833 41.8095974 27.30721867 60 35 C61.07725342 35.45729492 61.07725342 35.45729492 62.17626953 35.92382812 C84.94763217 45.46042502 109.9262579 52.02076238 134.7109375 52.23828125 C135.6291629 52.24784851 136.54738831 52.25741577 137.49343872 52.26727295 C140.45399397 52.29180095 143.41435594 52.30439168 146.375 52.3125 C147.88284058 52.31792313 147.88284058 52.31792313 149.42114258 52.32345581 C165.33398684 52.34648706 180.40587063 51.34621194 196 48 C197.66627819 47.66473012 199.332847 47.33089235 201 47 C196.77253466 51.55796306 192.05566557 53.73963766 186.5 56.375 C185.48349365 56.85960693 184.4669873 57.34421387 183.41967773 57.84350586 C173.87521892 62.26980332 164.17021909 65.38560185 154 68 C153.34370605 68.1841748 152.68741211 68.36834961 152.01123047 68.55810547 C131.50337545 74.14276516 106.29651315 72.7019521 86 67 C85.00323242 66.72712158 85.00323242 66.72712158 83.98632812 66.44873047 C50.53646538 57.02516642 22.06315471 34.7672493 3 6 C1.9693385 4.01562683 0.96090303 2.01907538 0 0 Z " fill="#EEB329" transform="translate(189,414)"/>
<path d="M0 0 C0.66 0.33 1.32 0.66 2 1 C0.68 2.65 -0.64 4.3 -2 6 C28.08526616 29.84728441 72.48086066 41.5730701 110.4375 39.75 C117.1858235 39.42915573 117.1858235 39.42915573 120.41796875 41.6953125 C122.51344458 44.37100017 124 46.54457289 124 50 C121.2308922 50.79813668 118.45993142 51.5885573 115.6875 52.375 C114.92115234 52.59671875 114.15480469 52.8184375 113.36523438 53.046875 C102.34123927 56.15737984 91.89526648 57.32633045 80.46777344 57.26074219 C78.26729345 57.25008376 76.06764183 57.2606613 73.8671875 57.2734375 C61.46014193 57.28680613 49.16836154 56.32743349 37.1875 52.875 C36.4459668 52.66399658 35.70443359 52.45299316 34.94042969 52.2355957 C27.00296862 49.86521917 19.52814071 46.62978418 12.10009766 42.98681641 C10.11653516 42.05475879 8.12160617 41.25960907 6.07421875 40.48046875 C-4.04734979 36.01219306 -6.71847827 29.71950139 -10.68969727 19.76904297 C-13.2442584 12.70112081 -13.2442584 12.70112081 -12.24267578 9.82617188 C-10.40728103 7.12897095 -8.03765714 5.60766777 -5.375 3.75 C-4.37210938 3.04359375 -3.36921875 2.3371875 -2.3359375 1.609375 C-1.56507812 1.07828125 -0.79421875 0.5471875 0 0 Z " fill="#EFB329" transform="translate(67,387)"/>
<path d="M0 0 C6.19422432 6.19422432 4.86227047 23.77397655 5.00683594 32.24951172 C4.92074251 66.88981821 -6.44196488 99.94599555 -27.67871094 127.29443359 C-28.56839932 128.44287466 -29.4438983 129.6024334 -30.30566406 130.77197266 C-38.16937121 141.31188624 -47.06164035 145.71676006 -60 148 C-63.06640625 148.13671875 -63.06640625 148.13671875 -65 148 C-61.89901018 144.84742255 -58.72943946 141.81614996 -55.4465332 138.85424805 C-29.43031247 115.30243549 -12.94002688 84.87863176 -8 50 C-7.90860441 47.39522561 -7.85959078 44.81872452 -7.8671875 42.21484375 C-7.86623077 41.47730362 -7.86527405 40.73976349 -7.86428833 39.97987366 C-7.86361052 38.42253534 -7.86543689 36.86519415 -7.86962891 35.30786133 C-7.87492897 32.96884506 -7.86969829 30.63002556 -7.86328125 28.29101562 C-7.85977148 19.474113 -8.14936559 10.7824612 -9 2 C-7.54166667 1.625 -6.08333333 1.25 -4.625 0.875 C-3.81289063 0.66617187 -3.00078125 0.45734375 -2.1640625 0.2421875 C-1.44992187 0.16226562 -0.73578125 0.08234375 0 0 Z M-67 148 C-65 149 -65 149 -65 149 Z " fill="#F25325" transform="translate(460,311)"/>
<path d="M0 0 C2.66666667 3.33333333 5.33333333 6.66666667 8 10 C-0.00376373 16.77573 -8.06051869 23.29885851 -16.875 29 C-17.53878662 29.43159424 -18.20257324 29.86318848 -18.88647461 30.30786133 C-20.90068563 31.58371865 -22.93938269 32.80065445 -25 34 C-25.70560059 34.42498779 -26.41120117 34.84997559 -27.13818359 35.2878418 C-34.23646638 39.2322472 -41.75177123 40.80486689 -49.63378906 42.36791992 C-51.89442182 42.81635263 -54.150332 43.28433153 -56.40625 43.75585938 C-57.85133224 44.05320457 -59.2966375 44.34946844 -60.7421875 44.64453125 C-61.74691605 44.85067802 -61.74691605 44.85067802 -62.77194214 45.06098938 C-65.95125823 45.68868116 -68.73639366 46 -72 46 C-71.56582418 43.69120621 -71.10961209 41.39311504 -70.60864258 39.09765625 C-69.95342569 36.02903588 -69.95342569 36.02903588 -69.70898438 32.98925781 C-69.22983264 29.58815568 -68.60718643 27.0469966 -67 24 C-63.34893575 21.62665593 -59.55880502 20.54954642 -55.34976196 19.50561523 C-52.56571463 18.81466004 -49.8172625 18.01375046 -47.0620575 17.2166748 C-45.61384555 16.79821112 -44.16402354 16.38528326 -42.71272278 15.97766113 C-34.40530159 13.62069974 -26.37345071 10.58035465 -18.3125 7.5 C-16.92829113 6.97746743 -15.54393603 6.45532206 -14.15942383 5.93359375 C-6.95475916 3.25488775 -6.95475916 3.25488775 0 0 Z " fill="#E46823" transform="translate(366,301)"/>
<path d="M0 0 C4.37903077 1.97308053 7.78848328 4.90092575 11.46484375 7.94921875 C13.86178534 9.96325402 13.86178534 9.96325402 16.06640625 11.33203125 C22.19082074 15.49874953 23.29303222 22.00707604 24.62548828 28.91162109 C28.86007925 52.52484871 31.67113421 88.65446784 19 110 C15.54296875 111.37109375 15.54296875 111.37109375 12 112 C10.2984375 112.309375 10.2984375 112.309375 8.5625 112.625 C7.716875 112.74875 6.87125 112.8725 6 113 C6.18175781 112.40574219 6.36351562 111.81148438 6.55078125 111.19921875 C14.7119155 84.28840171 22.74097939 47.51493512 9 21 C6.54727786 18.32664394 6.54727786 18.32664394 3.625 16.25 C2.68914062 15.53328125 1.75328125 14.8165625 0.7890625 14.078125 C-1.08373527 12.68270706 -2.96410155 11.29739449 -4.8515625 9.921875 C-5.56054688 9.28765625 -6.26953125 8.6534375 -7 8 C-7 7.01 -7 6.02 -7 5 C-5.46875 3.61328125 -5.46875 3.61328125 -3.5 2.3125 C-2.8503125 1.87550781 -2.200625 1.43851563 -1.53125 0.98828125 C-1.0259375 0.66214844 -0.520625 0.33601562 0 0 Z " fill="#F25326" transform="translate(275,237)"/>
<path d="M0 0 C2.72038749 1.67408461 3.72533179 2.87474638 4.484375 5.984375 C4.80449132 9.5549032 4.57337431 12.04553099 2.70703125 15.15234375 C-0.79626715 19.32904505 -4.85363482 22.64558205 -9.30078125 25.7734375 C-11.1352512 27.02893048 -11.1352512 27.02893048 -13 29 C-17.20690111 29.69844304 -20.85011473 29.71867829 -24.5 27.4375 C-26.63343088 23.97067483 -27.20252217 22.1179508 -27 18 C-21.70540517 8.21573185 -11.60574187 -2.64692358 0 0 Z " fill="#66390F" transform="translate(399,46)"/>
<path d="M0 0 C0.35191406 1.24652344 0.70382813 2.49304688 1.06640625 3.77734375 C4.35510113 15.19648582 8.23461254 26.11574224 13 37 C9.10082032 35.38462556 6.28706228 32.72075127 3.25 29.875 C2.74339844 29.40707031 2.23679688 28.93914062 1.71484375 28.45703125 C0.47280859 27.30873459 -0.76411494 26.15491328 -2 25 C-2.66 25.33 -3.32 25.66 -4 26 C-7.40664869 18.33936361 -11 9.49793568 -11 1 C-6.79018866 -0.66434402 -4.37219878 -1.06511827 0 0 Z " fill="#F25626" transform="translate(174,374)"/>
<path d="M0 0 C0.66 0.33 1.32 0.66 2 1 C-2.06273205 5.83922692 -6.31223868 10.50533343 -10.6875 15.0625 C-11.15067627 15.56370361 -11.61385254 16.06490723 -12.09106445 16.58129883 C-13.44921875 17.97265625 -13.44921875 17.97265625 -16 20 C-18.19140625 19.9921875 -18.19140625 19.9921875 -20 19 C-24 13.77777778 -24 13.77777778 -24 11 C-20.04755036 9.13309636 -16.08717336 7.28366591 -12.125 5.4375 C-10.99707031 4.90447266 -9.86914062 4.37144531 -8.70703125 3.82226562 C-7.63066406 3.32275391 -6.55429687 2.82324219 -5.4453125 2.30859375 C-3.95281982 1.60947876 -3.95281982 1.60947876 -2.43017578 0.89624023 C-1.62821777 0.60048096 -0.82625977 0.30472168 0 0 Z " fill="#E44F24" transform="translate(391,290)"/>
</svg>
