<?xml version="1.0" encoding="UTF-8"?>
<!DOCTYPE svg PUBLIC "-//W3C//DTD SVG 1.1//EN" "http://www.w3.org/Graphics/SVG/1.1/DTD/svg11.dtd">
<svg xmlns="http://www.w3.org/2000/svg" version="1.1" width="512px" height="512px" style="shape-rendering:geometricPrecision; text-rendering:geometricPrecision; image-rendering:optimizeQuality; fill-rule:evenodd; clip-rule:evenodd" xmlns:xlink="http://www.w3.org/1999/xlink">
<g><path style="opacity:0.999" fill="#ffd150" d="M 91.5,-0.5 C 139.5,-0.5 187.5,-0.5 235.5,-0.5C 246.083,2.915 253.249,9.915 257,20.5C 257.5,34.8295 257.667,49.1628 257.5,63.5C 246.5,63.5 235.5,63.5 224.5,63.5C 179.5,63.5 134.5,63.5 89.5,63.5C 82.8333,63.5 76.1667,63.5 69.5,63.5C 69.3334,50.8289 69.5001,38.1623 70,25.5C 71.5863,12.091 78.753,3.42436 91.5,-0.5 Z"/></g>
<g><path style="opacity:1" fill="#ffc930" d="M 235.5,-0.5 C 251.167,-0.5 266.833,-0.5 282.5,-0.5C 292.908,3.41106 299.741,10.7444 303,21.5C 303.5,35.496 303.667,49.496 303.5,63.5C 296.833,63.5 290.167,63.5 283.5,63.5C 274.833,63.5 266.167,63.5 257.5,63.5C 257.667,49.1628 257.5,34.8295 257,20.5C 253.249,9.915 246.083,2.915 235.5,-0.5 Z"/></g>
<g><path style="opacity:0.998" fill="#fef6d6" d="M 89.5,63.5 C 134.5,63.5 179.5,63.5 224.5,63.5C 225.589,75.3253 220.922,83.9919 210.5,89.5C 225.122,111.067 240.955,131.734 258,151.5C 280.661,180.99 290.495,214.323 287.5,251.5C 306.674,251.17 325.674,251.503 344.5,252.5C 325.5,252.5 306.5,252.5 287.5,252.5C 200.5,252.5 113.5,252.5 26.5,252.5C 24.8295,217.35 33.9961,185.35 54,156.5C 68.0919,137.985 82.4253,119.652 97,101.5C 99.2933,97.7478 101.46,93.9144 103.5,90C 93.2137,84.2658 88.547,75.4324 89.5,63.5 Z"/></g>
<g><path style="opacity:1" fill="#fef2bd" d="M 224.5,63.5 C 235.5,63.5 246.5,63.5 257.5,63.5C 266.167,63.5 274.833,63.5 283.5,63.5C 285.009,75.1495 280.675,83.8161 270.5,89.5C 276.086,98.3393 281.919,107.006 288,115.5C 298.712,127.876 309.045,140.543 319,153.5C 340.623,183.319 349.79,216.652 346.5,253.5C 369.024,252.592 382.024,263.259 385.5,285.5C 411.291,286.14 428.791,298.473 438,322.5C 439.16,327.453 439.993,332.453 440.5,337.5C 458.29,340.04 466.957,350.373 466.5,368.5C 457.348,369.494 448.015,369.827 438.5,369.5C 432.5,369.5 426.5,369.5 420.5,369.5C 421.18,351.189 412.514,340.856 394.5,338.5C 392.786,311.289 378.786,294.122 352.5,287C 348.179,286.501 343.846,286.334 339.5,286.5C 339.785,283.171 339.118,280.171 337.5,277.5C 337.5,269.5 337.5,261.5 337.5,253.5C 340.059,253.802 342.393,253.468 344.5,252.5C 325.674,251.503 306.674,251.17 287.5,251.5C 290.495,214.323 280.661,180.99 258,151.5C 240.955,131.734 225.122,111.067 210.5,89.5C 220.922,83.9919 225.589,75.3253 224.5,63.5 Z"/></g>
<g><path style="opacity:1" fill="#7f8a91" d="M 26.5,252.5 C 113.5,252.5 200.5,252.5 287.5,252.5C 287.169,273.34 287.503,294.007 288.5,314.5C 284.624,322.002 282.624,330.002 282.5,338.5C 269.528,339.291 261.028,345.958 257,358.5C 256.501,362.152 256.335,365.818 256.5,369.5C 250.5,369.5 244.5,369.5 238.5,369.5C 238.5,387.167 238.5,404.833 238.5,422.5C 167.833,422.5 97.1667,422.5 26.5,422.5C 26.5,365.833 26.5,309.167 26.5,252.5 Z"/></g>
<g><path style="opacity:1" fill="#6b7c85" d="M 287.5,252.5 C 306.5,252.5 325.5,252.5 344.5,252.5C 342.393,253.468 340.059,253.802 337.5,253.5C 337.5,261.5 337.5,269.5 337.5,277.5C 337.5,280.5 337.5,283.5 337.5,286.5C 315.63,286.265 299.297,295.599 288.5,314.5C 287.503,294.007 287.169,273.34 287.5,252.5 Z"/></g>
<g><path style="opacity:1" fill="#fef6d6" d="M 337.5,277.5 C 339.118,280.171 339.785,283.171 339.5,286.5C 343.846,286.334 348.179,286.501 352.5,287C 378.786,294.122 392.786,311.289 394.5,338.5C 412.514,340.856 421.18,351.189 420.5,369.5C 365.833,369.5 311.167,369.5 256.5,369.5C 256.335,365.818 256.501,362.152 257,358.5C 261.028,345.958 269.528,339.291 282.5,338.5C 282.624,330.002 284.624,322.002 288.5,314.5C 299.297,295.599 315.63,286.265 337.5,286.5C 337.5,283.5 337.5,280.5 337.5,277.5 Z"/></g>
<g><path style="opacity:1" fill="#fed050" d="M 256.5,369.5 C 311.167,369.5 365.833,369.5 420.5,369.5C 426.5,369.5 432.5,369.5 438.5,369.5C 438.76,396.515 438.427,423.515 437.5,450.5C 434.784,460.385 428.45,466.885 418.5,470C 400.219,471.281 381.885,471.947 363.5,472C 359.723,474.955 358.557,478.788 360,483.5C 361.214,485.049 362.714,486.215 364.5,487C 382.198,487.792 399.865,487.626 417.5,486.5C 417.938,486.435 418.272,486.601 418.5,487C 405.816,501.008 390.149,509.174 371.5,511.5C 349.5,511.5 327.5,511.5 305.5,511.5C 283.297,508.06 265.297,497.394 251.5,479.5C 241.352,461.903 237.019,442.903 238.5,422.5C 238.5,404.833 238.5,387.167 238.5,369.5C 244.5,369.5 250.5,369.5 256.5,369.5 Z"/></g>
<g><path style="opacity:1" fill="#fec930" d="M 466.5,368.5 C 472.5,368.5 478.5,368.5 484.5,368.5C 484.667,391.836 484.5,415.169 484,438.5C 480.408,477.727 459.575,502.06 421.5,511.5C 404.833,511.5 388.167,511.5 371.5,511.5C 390.149,509.174 405.816,501.008 418.5,487C 418.272,486.601 417.938,486.435 417.5,486.5C 442.385,479.766 454.552,463.433 454,437.5C 448.837,431.938 444.171,432.271 440,438.5C 439.811,442.767 438.977,446.767 437.5,450.5C 438.427,423.515 438.76,396.515 438.5,369.5C 448.015,369.827 457.348,369.494 466.5,368.5 Z"/></g>
<g><path style="opacity:0.999" fill="#fff6d6" d="M 26.5,422.5 C 97.1667,422.5 167.833,422.5 238.5,422.5C 237.019,442.903 241.352,461.903 251.5,479.5C 250.239,490.18 248.906,500.847 247.5,511.5C 184.5,511.5 121.5,511.5 58.5,511.5C 42.1827,506.682 31.6827,496.015 27,479.5C 26.5001,460.503 26.3334,441.503 26.5,422.5 Z"/></g>
<g><path style="opacity:1" fill="#f2ab02" d="M 417.5,486.5 C 399.865,487.626 382.198,487.792 364.5,487C 362.714,486.215 361.214,485.049 360,483.5C 358.557,478.788 359.723,474.955 363.5,472C 381.885,471.947 400.219,471.281 418.5,470C 428.45,466.885 434.784,460.385 437.5,450.5C 438.977,446.767 439.811,442.767 440,438.5C 444.171,432.271 448.837,431.938 454,437.5C 454.552,463.433 442.385,479.766 417.5,486.5 Z"/></g>
<g><path style="opacity:1" fill="#fff1bb" d="M 251.5,479.5 C 265.297,497.394 283.297,508.06 305.5,511.5C 286.167,511.5 266.833,511.5 247.5,511.5C 248.906,500.847 250.239,490.18 251.5,479.5 Z"/></g>
</svg>
