<?xml version="1.0" encoding="UTF-8"?>
<svg id="Layer_1" xmlns="http://www.w3.org/2000/svg" viewBox="0 0 442.24 527.49">
  <defs>
    <style>
      .cls-1 {
        fill: #438dc6;
      }

      .cls-2 {
        fill: #99e1fb;
      }

      .cls-3 {
        fill: #e2f6fd;
      }

      .cls-4 {
        fill: #4997d1;
      }

      .cls-5 {
        fill: #fdfefe;
      }
    </style>
  </defs>
  <path class="cls-3" d="M288.62,130.51c6.32,18.41,1.12,37.47,3.18,56.13-11.14.21-22.3.92-33.41.5-15.21-.57-21.38,6.46-20.45,21.26,1.32,21.06,3.09,42.14,3.18,63.22.13,30.61,2.61,61.18,4.68,91.57,1.49,21.94-1.45,44.42,4.7,66.05.08.88.26,1.74.56,2.57-54.7.02-109.4-.1-164.09.11-28.99.11-57.97.79-86.95,1.21.03-101.15.06-202.31.09-303.46,3.86.34,7.73.98,11.59.98,92.31,0,184.62-.07,276.93-.13ZM190.63,196.39c-4.45,1.43-4.23,5.91-5.75,9.27-7.12,15.74-20.8,18.63-36.09,18.59-16.48-.04-32.9-.17-41.92-17.66-1.67-3.24-.79-9.03-5.98-8.63-6.46.49-7.3,6.87-7.16,11.54.34,11.57-4.34,16.08-15.92,15.02-13.32-1.22-11.94,6.17-7.49,14.55,2.68,5.05,6.31,10.08,11.64,11.58,13.26,3.74,16.98,12.29,15.06,24.87-1.75,11.4,2.7,15.94,14.77,15.47,21.74-.84,43.57-1.03,65.29.05,13.84.69,19.75-3.5,17.72-17.66-1.59-11.09.66-18.83,14.46-20.62,9.17-1.19,14.98-9.33,17.74-18.41,1.39-4.57,1.21-10.65-5.1-9.5-18.99,3.47-23.92-7.39-25.86-22.74-.3-2.39-1.76-5.41-5.41-5.72ZM146.61,298.07c-15.05,0-30.11,0-45.16,0-5.64,0-12.87-.35-13.33,6.76-1.1,17.14-3.27,34.59,1.34,51.47,2.82,10.31,11.64,14.91,21.86,15.08,22.85.4,45.73.64,68.57-.03,16-.47,24.19-9.58,24.59-25.55.29-11.7-.23-23.43.17-35.13.32-9.34-3.59-13-12.88-12.74-15.04.42-30.11.11-45.16.13Z"/>
  <path class="cls-2" d="M250.48,429.23c-6.14-21.63-3.19-44.12-4.69-66.05-2.07-30.39-4.55-60.96-4.68-91.57-.09-21.08-1.86-42.16-3.18-63.22-.93-14.79,5.24-21.83,20.45-21.26,11.11.42,22.27-.29,33.41-.5,42.41.18,84.82.34,127.23.58,19.21.11,24.12,4.35,23.07,23.84-3.78,69.99-8.34,139.94-12.38,209.91-1.57,27.24-3.06,54.5-3.59,81.77-.29,14.95-6.46,20.78-21.34,20.87-38.98.23-78.02-2.12-116.94,1.85.04-7.3.09-14.6.13-21.91,30.16-.09,60.32-.14,90.49-.27,20.77-.09,26.33-5.67,26.89-26.89.15-5.59.03-11.18.26-16.76,2.33-55.13,4.65-110.27,7.14-165.4.45-9.89-.72-18.79-13.02-18.89-39.66-.33-79.32-.35-118.97.07-9.61.1-15.87,5.94-15.09,16.22,3.52,46.69,5.63,93.45,6.55,140.26-7.24-.89-14.49-1.78-21.73-2.67Z"/>
  <path class="cls-4" d="M0,433.12c28.98-.42,57.97-1.1,86.95-1.21,54.7-.21,109.4-.09,164.1-.11.08,6.12.21,12.25.23,18.37.1,25.36.02,50.74,9.57,74.89-78.21.21-156.43.57-234.64.53-18.5,0-25.96-8.25-26.11-27.07-.17-21.8-.08-43.6-.1-65.4Z"/>
  <path class="cls-4" d="M288.62,130.51c-92.31.06-184.62.13-276.93.13-3.86,0-7.73-.64-11.59-.98C6.84,90.62,13.34,51.55,15.96,11.95c.17,2.22.44,4.43.5,6.65.58,24.57.58,24.23,24.88,24.68,24.95.46,49.97-2,74.86,1.57-10.52,9.4-14.86,20.66-10.38,34.57-1.88,16.21,6.37,23.78,21.66,24.41,12.24.51,24.51.17,36.77.12,15.96-.06,23.21-8.42,22.72-24.05,2.31-13.77,1.55-26.56-11.32-35.49,32.86-.42,65.73-.85,98.59-1.27,7.35,28.7,11.1,58,14.39,87.37Z"/>
  <path class="cls-1" d="M116.19,44.85c-24.88-3.57-49.9-1.11-74.86-1.57-24.31-.45-24.3-.11-24.88-24.68-.05-2.22-.32-4.43-.5-6.65C17.86,2.24,24.93.06,33.41.06,107.68.04,181.95.09,256.23,0c12.34-.02,18.93,5.33,18.64,18.06-.19,8.36-.43,16.72-.64,25.09-32.87.42-65.73.85-98.59,1.27-19.82-1.19-39.65-1.94-59.45.44Z"/>
  <path class="cls-4" d="M190.63,196.39c3.65.31,5.11,3.33,5.41,5.72,1.94,15.35,6.88,26.21,25.86,22.74,6.31-1.15,6.49,4.93,5.1,9.5-2.77,9.09-8.57,17.22-17.74,18.41-13.8,1.79-16.06,9.53-14.46,20.62,2.03,14.16-3.89,18.35-17.72,17.66-21.72-1.08-43.55-.9-65.29-.05-12.06.47-16.52-4.07-14.77-15.47,1.93-12.58-1.79-21.13-15.06-24.87-5.32-1.5-8.96-6.53-11.64-11.58-4.45-8.39-5.83-15.77,7.49-14.55,11.58,1.06,16.27-3.46,15.92-15.02-.14-4.67.7-11.05,7.16-11.54,5.19-.39,4.31,5.39,5.98,8.63,9.02,17.49,25.44,17.62,41.92,17.66,15.29.04,28.97-2.85,36.09-18.59,1.52-3.36,1.31-7.83,5.75-9.27ZM141.48,259.05c-1.4-5.35,2.32-14.21-7.24-13.79-8.68.38-6.75,8.64-6.75,14.37,0,5.74-1.85,14.29,6.63,14.46,10.41.21,5.77-9.48,7.36-15.05ZM164.85,259.14c-1.14-5.46,1.91-14.06-7.26-13.76-8.56.28-6.78,8.48-6.78,14.15,0,5.69-1.75,14.15,6.51,14.42,10.13.33,6.27-9.12,7.53-14.81Z"/>
  <path class="cls-4" d="M146.61,298.06c15.05,0,30.12.3,45.16-.12,9.3-.26,13.2,3.4,12.88,12.74-.4,11.7.12,23.43-.17,35.13-.4,15.97-8.59,25.08-24.59,25.55-22.84.67-45.72.43-68.57.03-10.22-.18-19.04-4.77-21.86-15.08-4.61-16.88-2.44-34.33-1.34-51.47.46-7.11,7.69-6.76,13.33-6.76,15.05,0,30.11,0,45.16-.01Z"/>
  <path class="cls-5" d="M287.98,503.56c-10.05-5.51-12.4-14.73-13.05-25.31-.95-15.44,1.85-31.12-2.71-46.35-.91-46.82-3.03-93.57-6.55-140.26-.77-10.28,5.48-16.12,15.09-16.22,39.65-.42,79.32-.39,118.97-.07,12.3.1,13.47,9,13.02,18.89-2.49,55.13-4.81,110.26-7.14,165.4-.24,5.58-.12,11.17-.26,16.76-.56,21.22-6.12,26.81-26.89,26.89-30.16.13-60.32.18-90.49.27Z"/>
  <path class="cls-3" d="M116.19,44.85c19.8-2.38,39.63-1.62,59.45-.44,12.86,8.93,13.62,21.73,11.31,35.5-27.11,11.14-54.16,11.7-81.14-.48-4.48-13.91-.14-25.17,10.38-34.57Z"/>
  <path class="cls-2" d="M105.81,79.42c26.98,12.19,54.03,11.62,81.14.48.49,15.64-6.76,24-22.72,24.05-12.26.04-24.53.39-36.77-.12-15.29-.64-23.53-8.21-21.66-24.41Z"/>
  <path class="cls-3" d="M141.48,259.05c-1.59,5.56,3.05,15.26-7.36,15.05-8.48-.17-6.62-8.72-6.63-14.46,0-5.73-1.93-13.99,6.75-14.37,9.55-.42,5.83,8.44,7.24,13.79Z"/>
  <path class="cls-3" d="M164.85,259.14c-1.26,5.69,2.6,15.14-7.53,14.81-8.27-.27-6.51-8.72-6.51-14.42,0-5.67-1.78-13.87,6.78-14.15,9.17-.3,6.12,8.3,7.26,13.76Z"/>
  <rect class="cls-2" x="247.3" y="241.48" width="180.79" height="286.01" rx="18.17" ry="18.17"/>
  <rect class="cls-3" x="259.16" y="254.82" width="156.9" height="248.21" rx="18.17" ry="18.17"/>
</svg>