<?xml version="1.0" encoding="UTF-8"?>
<!DOCTYPE svg PUBLIC "-//W3C//DTD SVG 1.1//EN" "http://www.w3.org/Graphics/SVG/1.1/DTD/svg11.dtd">
<svg xmlns="http://www.w3.org/2000/svg" version="1.1" width="512px" height="512px" style="shape-rendering:geometricPrecision; text-rendering:geometricPrecision; image-rendering:optimizeQuality; fill-rule:evenodd; clip-rule:evenodd" xmlns:xlink="http://www.w3.org/1999/xlink">
<g><path style="opacity:0.998" fill="#86e095" d="M 313.5,456.5 C 299.861,454.398 286.861,450.065 274.5,443.5C 269.833,440.5 265.167,437.5 260.5,434.5C 255.504,429.336 250.671,424.003 246,418.5C 244.223,415.941 242.723,413.274 241.5,410.5C 244.602,410.846 247.435,410.179 250,408.5C 252.636,402.551 255.636,396.884 259,391.5C 292.335,405.915 326.835,410.082 362.5,404C 368.33,397.994 367.663,392.994 360.5,389C 327.239,394.007 295.239,389.674 264.5,376C 269.8,363.904 275.466,352.071 281.5,340.5C 328.817,354.999 376.15,355.166 423.5,341C 428.924,338.983 430.758,335.15 429,329.5C 427.291,326.613 424.791,325.279 421.5,325.5C 378.351,338.293 335.017,338.793 291.5,327C 289.714,326.804 288.381,325.971 287.5,324.5C 292.978,313.045 298.312,301.545 303.5,290C 358.285,297.027 409.952,287.36 458.5,261C 460.429,257.744 460.929,254.244 460,250.5C 458.257,248.129 455.923,246.795 453,246.5C 441.263,251.858 429.43,257.025 417.5,262C 382.766,274.756 347.099,278.422 310.5,273C 316.167,260.667 321.833,248.333 327.5,236C 364.177,237.198 399.177,230.198 432.5,215C 439.167,211.667 445.833,208.333 452.5,205C 457.228,195.843 454.562,191.176 444.5,191C 416.806,206.564 387.139,215.898 355.5,219C 348.842,219.5 342.175,219.666 335.5,219.5C 340.263,206.635 345.596,193.968 351.5,181.5C 381.878,176.207 410.545,166.04 437.5,151C 445.003,143.845 443.836,138.679 434,135.5C 421.239,141.464 408.405,147.297 395.5,153C 385.939,156.41 376.273,159.41 366.5,162C 364.421,162.808 362.421,162.641 360.5,161.5C 366.981,146.715 373.647,132.048 380.5,117.5C 397.292,111.439 413.625,104.272 429.5,96C 433.779,90.967 433.446,86.3003 428.5,82C 426.167,81.3333 423.833,81.3333 421.5,82C 410.87,87.8314 400.203,92.6647 389.5,96.5C 399.392,73.715 409.559,51.0483 420,28.5C 420.452,20.2922 416.619,17.1255 408.5,19C 407,19.8333 405.833,21 405,22.5C 395.31,45.0783 385.143,67.4117 374.5,89.5C 370.688,78.2883 367.188,66.955 364,55.5C 359.048,48.8518 354.048,48.8518 349,55.5C 352.307,74.7112 357.807,93.3779 365.5,111.5C 358.667,126.5 351.833,141.5 345,156.5C 332.129,133.89 322.796,109.89 317,84.5C 311.592,78.9876 306.592,79.3209 302,85.5C 307.979,117.433 319.479,147.266 336.5,175C 331.198,187.902 325.698,200.735 320,213.5C 299.377,191.602 284.377,166.269 275,137.5C 272.329,128.822 269.663,120.156 267,111.5C 261.837,105.938 257.171,106.271 253,112.5C 258.593,146.614 271.593,177.614 292,205.5C 298.847,213.678 305.68,221.845 312.5,230C 306.954,242.257 301.287,254.424 295.5,266.5C 269.027,244.225 248.86,217.225 235,185.5C 230.132,171.897 225.466,158.23 221,144.5C 215.933,138.912 211.267,139.245 207,145.5C 214.619,185.735 231.619,221.401 258,252.5C 267.702,263.24 277.869,273.407 288.5,283C 283.561,295.042 278.228,306.875 272.5,318.5C 232.146,293.984 201.813,260.484 181.5,218C 172.39,215.437 168.556,218.937 170,228.5C 183.403,257.918 202.237,283.418 226.5,305C 239.122,315.472 252.122,325.305 265.5,334.5C 260.656,346.56 255.156,358.227 249,369.5C 219.015,356.1 195.182,335.6 177.5,308C 168.479,304.051 163.979,306.884 164,316.5C 184.028,346.862 210.528,369.696 243.5,385C 239.108,391.586 236.941,398.753 237,406.5C 238.481,407.471 239.315,408.804 239.5,410.5C 237.5,410.833 235.5,411.167 233.5,411.5C 224.83,412.789 216.163,412.789 207.5,411.5C 190.704,407.77 175.37,400.77 161.5,390.5C 156.859,386.195 152.193,381.861 147.5,377.5C 145.237,373.897 142.57,370.564 139.5,367.5C 140.833,367.167 142.167,366.833 143.5,366.5C 150.128,367.805 156.795,368.305 163.5,368C 156.611,359.707 150.611,350.873 145.5,341.5C 143.831,337.496 142.164,333.496 140.5,329.5C 136.367,318.575 134.367,307.242 134.5,295.5C 134.033,292.62 134.866,290.287 137,288.5C 142.466,290.567 147.799,292.9 153,295.5C 145.496,278.641 140.162,260.974 137,242.5C 136.285,229.148 136.452,215.815 137.5,202.5C 138.929,196.868 140.596,191.202 142.5,185.5C 148.203,191.205 154.203,196.538 160.5,201.5C 161.388,187.058 163.055,172.725 165.5,158.5C 172.167,134.549 183.5,113.216 199.5,94.5C 203.022,102.395 206.356,110.395 209.5,118.5C 226.531,82.6347 252.365,54.968 287,35.5C 292.333,44.1667 297.667,52.8333 303,61.5C 309.5,49.6667 318.667,40.5 330.5,34C 358.888,18.3214 389.222,9.65477 421.5,8C 442.198,35.5742 455.698,66.4075 462,100.5C 462.981,110.664 462.148,120.664 459.5,130.5C 469.5,128.833 479.5,127.167 489.5,125.5C 497.871,164.239 494.205,201.739 478.5,238C 486.784,235.294 495.117,232.46 503.5,229.5C 498.084,269.359 480.417,302.526 450.5,329C 458.825,330.399 467.158,331.732 475.5,333C 454.065,366.397 424.065,388.063 385.5,398C 391.511,400.339 397.178,403.172 402.5,406.5C 390.449,421.004 375.116,430.504 356.5,435C 346.318,437.597 335.985,439.264 325.5,440C 330.833,445.333 336.167,450.667 341.5,456C 341.167,456.333 340.833,456.667 340.5,457C 331.477,457.681 322.477,457.514 313.5,456.5 Z"/></g>
<g><path style="opacity:1" fill="#69c378" d="M 241.5,410.5 C 240.833,410.5 240.167,410.5 239.5,410.5C 239.315,408.804 238.481,407.471 237,406.5C 236.941,398.753 239.108,391.586 243.5,385C 210.528,369.696 184.028,346.862 164,316.5C 163.979,306.884 168.479,304.051 177.5,308C 195.182,335.6 219.015,356.1 249,369.5C 255.156,358.227 260.656,346.56 265.5,334.5C 252.122,325.305 239.122,315.472 226.5,305C 202.237,283.418 183.403,257.918 170,228.5C 168.556,218.937 172.39,215.437 181.5,218C 201.813,260.484 232.146,293.984 272.5,318.5C 278.228,306.875 283.561,295.042 288.5,283C 277.869,273.407 267.702,263.24 258,252.5C 231.619,221.401 214.619,185.735 207,145.5C 211.267,139.245 215.933,138.912 221,144.5C 225.466,158.23 230.132,171.897 235,185.5C 248.86,217.225 269.027,244.225 295.5,266.5C 301.287,254.424 306.954,242.257 312.5,230C 305.68,221.845 298.847,213.678 292,205.5C 271.593,177.614 258.593,146.614 253,112.5C 257.171,106.271 261.837,105.938 267,111.5C 269.663,120.156 272.329,128.822 275,137.5C 284.377,166.269 299.377,191.602 320,213.5C 325.698,200.735 331.198,187.902 336.5,175C 319.479,147.266 307.979,117.433 302,85.5C 306.592,79.3209 311.592,78.9876 317,84.5C 322.796,109.89 332.129,133.89 345,156.5C 351.833,141.5 358.667,126.5 365.5,111.5C 357.807,93.3779 352.307,74.7112 349,55.5C 354.048,48.8518 359.048,48.8518 364,55.5C 367.188,66.955 370.688,78.2883 374.5,89.5C 385.143,67.4117 395.31,45.0783 405,22.5C 405.833,21 407,19.8333 408.5,19C 416.619,17.1255 420.452,20.2922 420,28.5C 409.559,51.0483 399.392,73.715 389.5,96.5C 400.203,92.6647 410.87,87.8314 421.5,82C 423.833,81.3333 426.167,81.3333 428.5,82C 433.446,86.3003 433.779,90.967 429.5,96C 413.625,104.272 397.292,111.439 380.5,117.5C 373.647,132.048 366.981,146.715 360.5,161.5C 362.421,162.641 364.421,162.808 366.5,162C 376.273,159.41 385.939,156.41 395.5,153C 408.405,147.297 421.239,141.464 434,135.5C 443.836,138.679 445.003,143.845 437.5,151C 410.545,166.04 381.878,176.207 351.5,181.5C 345.596,193.968 340.263,206.635 335.5,219.5C 342.175,219.666 348.842,219.5 355.5,219C 387.139,215.898 416.806,206.564 444.5,191C 454.562,191.176 457.228,195.843 452.5,205C 445.833,208.333 439.167,211.667 432.5,215C 399.177,230.198 364.177,237.198 327.5,236C 321.833,248.333 316.167,260.667 310.5,273C 347.099,278.422 382.766,274.756 417.5,262C 429.43,257.025 441.263,251.858 453,246.5C 455.923,246.795 458.257,248.129 460,250.5C 460.929,254.244 460.429,257.744 458.5,261C 409.952,287.36 358.285,297.027 303.5,290C 298.312,301.545 292.978,313.045 287.5,324.5C 288.381,325.971 289.714,326.804 291.5,327C 335.017,338.793 378.351,338.293 421.5,325.5C 424.791,325.279 427.291,326.613 429,329.5C 430.758,335.15 428.924,338.983 423.5,341C 376.15,355.166 328.817,354.999 281.5,340.5C 275.466,352.071 269.8,363.904 264.5,376C 295.239,389.674 327.239,394.007 360.5,389C 367.663,392.994 368.33,397.994 362.5,404C 326.835,410.082 292.335,405.915 259,391.5C 255.636,396.884 252.636,402.551 250,408.5C 247.435,410.179 244.602,410.846 241.5,410.5 Z"/></g>
<g><path style="opacity:0.992" fill="#4aa459" d="M 165.5,158.5 C 163.055,172.725 161.388,187.058 160.5,201.5C 154.203,196.538 148.203,191.205 142.5,185.5C 140.596,191.202 138.929,196.868 137.5,202.5C 136.821,198.324 134.321,195.99 130,195.5C 125.219,196.112 122.719,198.778 122.5,203.5C 125.215,216.456 127.715,229.456 130,242.5C 131.398,251.797 131.732,261.13 131,270.5C 120.076,262.288 109.243,253.954 98.5,245.5C 95.8489,229.718 92.6822,214.051 89,198.5C 86.5647,193.776 82.7314,192.276 77.5,194C 75.6667,194.5 74.5,195.667 74,197.5C 73.3333,200.167 73.3333,202.833 74,205.5C 76.7048,213.691 78.3715,222.024 79,230.5C 62.8333,218.333 46.6667,206.167 30.5,194C 20.4384,194.176 17.7718,198.843 22.5,208C 38.3084,219.641 53.9751,231.475 69.5,243.5C 58.8804,244.875 48.2137,245.708 37.5,246C 32.5541,250.3 32.2207,254.967 36.5,260C 38.8701,261.036 41.3701,261.536 44,261.5C 58.9262,260.88 73.7595,259.713 88.5,258C 99.5,266.333 110.5,274.667 121.5,283C 99.5739,288.866 77.2406,291.866 54.5,292C 49.7762,294.435 48.2762,298.269 50,303.5C 50.8333,305 52,306.167 53.5,307C 81.2561,308.154 108.256,304.321 134.5,295.5C 134.367,307.242 136.367,318.575 140.5,329.5C 116.266,335.796 91.5988,339.629 66.5,341C 60.7949,346.814 61.4616,351.814 68.5,356C 93.3437,355.693 117.677,352.026 141.5,345C 143.544,344.502 144.878,343.335 145.5,341.5C 150.611,350.873 156.611,359.707 163.5,368C 156.795,368.305 150.128,367.805 143.5,366.5C 142.167,366.833 140.833,367.167 139.5,367.5C 142.57,370.564 145.237,373.897 147.5,377.5C 142.386,379.613 137.053,381.113 131.5,382C 116.528,383.907 101.528,385.573 86.5,387C 80.271,391.171 79.9377,395.837 85.5,401C 111.519,402.385 136.852,398.885 161.5,390.5C 175.37,400.77 190.704,407.77 207.5,411.5C 206.127,411.343 204.793,411.51 203.5,412C 184.574,423.475 164.241,431.309 142.5,435.5C 138.37,440.252 138.704,444.752 143.5,449C 159.964,448.301 175.63,444.301 190.5,437C 205.887,429.985 220.22,421.485 233.5,411.5C 235.5,411.167 237.5,410.833 239.5,410.5C 240.167,410.5 240.833,410.5 241.5,410.5C 242.723,413.274 244.223,415.941 246,418.5C 250.671,424.003 255.504,429.336 260.5,434.5C 249.805,444.191 237.471,451.358 223.5,456C 218.167,460.667 218.167,465.333 223.5,470C 226.167,470.667 228.833,470.667 231.5,470C 247.818,464.141 262.151,455.308 274.5,443.5C 286.861,450.065 299.861,454.398 313.5,456.5C 302.958,477.54 286.958,493.04 265.5,503C 264.167,503.667 262.833,503.667 261.5,503C 264.367,496.939 266.033,490.772 266.5,484.5C 246.179,494.598 224.845,497.765 202.5,494C 198.995,493.343 195.995,491.843 193.5,489.5C 196.309,485.523 199.309,481.69 202.5,478C 169.791,484.97 138.457,480.97 108.5,466C 107.643,465.311 106.977,464.478 106.5,463.5C 112.167,459.333 117.833,455.167 123.5,451C 88.8352,442.679 60.8352,424.345 39.5,396C 47.2117,394.746 54.8783,393.413 62.5,392C 35.295,370.937 16.9617,343.77 7.5,310.5C 7.60816,309.558 7.94149,308.725 8.5,308C 16.6078,305.64 24.6078,302.973 32.5,300C 24.3105,292.483 18.4772,283.316 15,272.5C 7.21031,244.505 5.54364,216.171 10,187.5C 39.8113,174.17 70.978,169.004 103.5,172C 110.648,173.216 117.315,175.716 123.5,179.5C 124.411,170.847 125.078,162.181 125.5,153.5C 139.097,153.2 152.43,154.866 165.5,158.5 Z"/></g>
<g><path style="opacity:1" fill="#2d873c" d="M 137.5,202.5 C 136.452,215.815 136.285,229.148 137,242.5C 140.162,260.974 145.496,278.641 153,295.5C 147.799,292.9 142.466,290.567 137,288.5C 134.866,290.287 134.033,292.62 134.5,295.5C 108.256,304.321 81.2561,308.154 53.5,307C 52,306.167 50.8333,305 50,303.5C 48.2762,298.269 49.7762,294.435 54.5,292C 77.2406,291.866 99.5739,288.866 121.5,283C 110.5,274.667 99.5,266.333 88.5,258C 73.7595,259.713 58.9262,260.88 44,261.5C 41.3701,261.536 38.8701,261.036 36.5,260C 32.2207,254.967 32.5541,250.3 37.5,246C 48.2137,245.708 58.8804,244.875 69.5,243.5C 53.9751,231.475 38.3084,219.641 22.5,208C 17.7718,198.843 20.4384,194.176 30.5,194C 46.6667,206.167 62.8333,218.333 79,230.5C 78.3715,222.024 76.7048,213.691 74,205.5C 73.3333,202.833 73.3333,200.167 74,197.5C 74.5,195.667 75.6667,194.5 77.5,194C 82.7314,192.276 86.5647,193.776 89,198.5C 92.6822,214.051 95.8489,229.718 98.5,245.5C 109.243,253.954 120.076,262.288 131,270.5C 131.732,261.13 131.398,251.797 130,242.5C 127.715,229.456 125.215,216.456 122.5,203.5C 122.719,198.778 125.219,196.112 130,195.5C 134.321,195.99 136.821,198.324 137.5,202.5 Z"/></g>
<g><path style="opacity:1" fill="#2d873c" d="M 140.5,329.5 C 142.164,333.496 143.831,337.496 145.5,341.5C 144.878,343.335 143.544,344.502 141.5,345C 117.677,352.026 93.3437,355.693 68.5,356C 61.4616,351.814 60.7949,346.814 66.5,341C 91.5988,339.629 116.266,335.796 140.5,329.5 Z"/></g>
<g><path style="opacity:1" fill="#2d873c" d="M 147.5,377.5 C 152.193,381.861 156.859,386.195 161.5,390.5C 136.852,398.885 111.519,402.385 85.5,401C 79.9377,395.837 80.271,391.171 86.5,387C 101.528,385.573 116.528,383.907 131.5,382C 137.053,381.113 142.386,379.613 147.5,377.5 Z"/></g>
<g><path style="opacity:1" fill="#2d873c" d="M 207.5,411.5 C 216.163,412.789 224.83,412.789 233.5,411.5C 220.22,421.485 205.887,429.985 190.5,437C 175.63,444.301 159.964,448.301 143.5,449C 138.704,444.752 138.37,440.252 142.5,435.5C 164.241,431.309 184.574,423.475 203.5,412C 204.793,411.51 206.127,411.343 207.5,411.5 Z"/></g>
<g><path style="opacity:1" fill="#2d873c" d="M 260.5,434.5 C 265.167,437.5 269.833,440.5 274.5,443.5C 262.151,455.308 247.818,464.141 231.5,470C 228.833,470.667 226.167,470.667 223.5,470C 218.167,465.333 218.167,460.667 223.5,456C 237.471,451.358 249.805,444.191 260.5,434.5 Z"/></g>
</svg>
