<?xml version="1.0" encoding="UTF-8"?>
<!DOCTYPE svg PUBLIC "-//W3C//DTD SVG 1.1//EN" "http://www.w3.org/Graphics/SVG/1.1/DTD/svg11.dtd">
<svg xmlns="http://www.w3.org/2000/svg" version="1.1" width="512px" height="512px" style="shape-rendering:geometricPrecision; text-rendering:geometricPrecision; image-rendering:optimizeQuality; fill-rule:evenodd; clip-rule:evenodd" xmlns:xlink="http://www.w3.org/1999/xlink">
<g><path style="opacity:1" fill="#d8cdcb" d="M 190.5,104.5 C 139.4,110.625 98.2333,133.958 67,174.5C 41.8296,210.738 38.8296,248.738 58,288.5C 71.2119,310.678 89.7119,326.678 113.5,336.5C 121.096,340.259 129.096,343.259 137.5,345.5C 136.64,347.931 134.973,349.264 132.5,349.5C 95.5848,346.79 64.4182,332.123 39,305.5C 12.88,271.355 8.21329,234.355 25,194.5C 42.4567,159.378 69.2901,134.211 105.5,119C 132.702,107.392 161.036,102.559 190.5,104.5 Z"/></g>
<g><path style="opacity:0.997" fill="#eee5e3" d="M 190.5,104.5 C 218.496,105.831 243.829,114.497 266.5,130.5C 213.397,117.281 165.397,127.447 122.5,161C 90.1137,189.938 74.2803,226.104 75,269.5C 78.7931,297.104 91.6264,319.437 113.5,336.5C 89.7119,326.678 71.2119,310.678 58,288.5C 38.8296,248.738 41.8296,210.738 67,174.5C 98.2333,133.958 139.4,110.625 190.5,104.5 Z"/></g>
<g><path style="opacity:0.991" fill="#9be047" d="M 382.5,167.5 C 381.833,167.5 381.5,167.833 381.5,168.5C 376.587,178.59 369.92,187.423 361.5,195C 366.832,194.502 372.166,193.669 377.5,192.5C 377.029,197.11 375.196,201.11 372,204.5C 366.812,210.168 360.979,215.002 354.5,219C 360.196,219.17 365.862,219.67 371.5,220.5C 367.351,231.997 359.351,238.663 347.5,240.5C 345.833,240.5 344.167,240.5 342.5,240.5C 333.019,238.416 323.352,238.082 313.5,239.5C 325.457,203.066 345.623,172.066 374,146.5C 375.378,140.212 372.878,137.379 366.5,138C 342.264,158.724 323.597,183.557 310.5,212.5C 310.811,204.706 309.977,197.039 308,189.5C 304.655,179.145 300.488,169.145 295.5,159.5C 300.83,151.839 307.497,145.505 315.5,140.5C 316.325,144.122 316.825,147.789 317,151.5C 323.91,141.958 332.41,134.125 342.5,128C 344.218,127.654 345.885,127.154 347.5,126.5C 348.122,130.126 348.289,133.793 348,137.5C 358.898,128.81 371.398,124.476 385.5,124.5C 391.215,125.007 396.882,125.84 402.5,127C 395.705,130.743 390.872,136.243 388,143.5C 387.109,151.731 385.275,159.731 382.5,167.5 Z"/></g>
<g><path style="opacity:1" fill="#dfd7d4" d="M 266.5,130.5 C 277.861,138.527 287.527,148.194 295.5,159.5C 300.488,169.145 304.655,179.145 308,189.5C 309.977,197.039 310.811,204.706 310.5,212.5C 310.053,220.52 309.387,228.52 308.5,236.5C 307.566,237.568 307.232,238.901 307.5,240.5C 285.734,243.691 264.734,249.524 244.5,258C 216.125,270.35 189.125,285.017 163.5,302C 148.761,314.05 143.761,329.217 148.5,347.5C 148.5,348.5 148.5,349.5 148.5,350.5C 142.974,350.821 137.64,350.488 132.5,349.5C 134.973,349.264 136.64,347.931 137.5,345.5C 129.096,343.259 121.096,340.259 113.5,336.5C 91.6264,319.437 78.7931,297.104 75,269.5C 74.2803,226.104 90.1137,189.938 122.5,161C 165.397,127.447 213.397,117.281 266.5,130.5 Z"/></g>
<g><path style="opacity:1" fill="#85ba3a" d="M 313.5,239.5 C 311.833,239.5 310.167,239.5 308.5,239.5C 308.5,238.5 308.5,237.5 308.5,236.5C 309.387,228.52 310.053,220.52 310.5,212.5C 323.597,183.557 342.264,158.724 366.5,138C 372.878,137.379 375.378,140.212 374,146.5C 345.623,172.066 325.457,203.066 313.5,239.5 Z"/></g>
<g><path style="opacity:0.987" fill="#81c83d" d="M 411.5,265.5 C 404.167,265.167 396.833,264.833 389.5,264.5C 385.5,264.5 381.5,264.5 377.5,264.5C 376.947,260.505 375.614,256.839 373.5,253.5C 396.422,221.425 426.089,197.592 462.5,182C 464.703,179.24 465.036,176.24 463.5,173C 459.041,171.017 454.708,171.35 450.5,174C 415.898,190.775 387.231,214.609 364.5,245.5C 358.689,243.968 353.022,242.301 347.5,240.5C 359.351,238.663 367.351,231.997 371.5,220.5C 365.862,219.67 360.196,219.17 354.5,219C 360.979,215.002 366.812,210.168 372,204.5C 375.196,201.11 377.029,197.11 377.5,192.5C 372.166,193.669 366.832,194.502 361.5,195C 369.92,187.423 376.587,178.59 381.5,168.5C 382.167,168.5 382.5,168.167 382.5,167.5C 390.285,161.015 399.285,157.681 409.5,157.5C 409.105,160.686 408.105,163.686 406.5,166.5C 406.833,166.833 407.167,167.167 407.5,167.5C 417.444,160.362 428.444,155.695 440.5,153.5C 442.299,153.577 443.966,154.077 445.5,155C 443.522,158.114 442.022,161.281 441,164.5C 460.201,158.254 478.368,160.588 495.5,171.5C 489.765,173.535 484.431,176.368 479.5,180C 470.5,199.667 456.167,214 436.5,223C 441.792,224.162 447.125,225.162 452.5,226C 445.441,235.205 436.108,240.872 424.5,243C 424.167,243.333 423.833,243.667 423.5,244C 427.721,245.361 431.887,246.861 436,248.5C 437.257,248.85 437.591,249.517 437,250.5C 430.343,258.741 421.843,263.741 411.5,265.5 Z"/></g>
<g><path style="opacity:1" fill="#c6bebd" d="M 161.5,159.5 C 169.543,159.04 172.71,162.706 171,170.5C 166.585,175.726 162.251,175.726 158,170.5C 156.663,165.872 157.83,162.205 161.5,159.5 Z"/></g>
<g><path style="opacity:1" fill="#c6bebd" d="M 237.5,159.5 C 246.049,159.521 248.716,163.354 245.5,171C 237.246,174.081 233.746,171.248 235,162.5C 236.045,161.627 236.878,160.627 237.5,159.5 Z"/></g>
<g><path style="opacity:1" fill="#6ba331" d="M 373.5,253.5 C 370.474,250.805 367.474,248.138 364.5,245.5C 387.231,214.609 415.898,190.775 450.5,174C 454.708,171.35 459.041,171.017 463.5,173C 465.036,176.24 464.703,179.24 462.5,182C 426.089,197.592 396.422,221.425 373.5,253.5 Z"/></g>
<g><path style="opacity:1" fill="#c6bebd" d="M 278.5,204.5 C 285.669,203.513 289.169,206.513 289,213.5C 286.051,218.69 282.051,219.69 277,216.5C 274.66,212.052 275.16,208.052 278.5,204.5 Z"/></g>
<g><path style="opacity:1" fill="#c6bebd" d="M 180.5,220.5 C 187.169,220.005 190.336,223.005 190,229.5C 186.468,235.29 182.135,235.957 177,231.5C 175.663,226.872 176.83,223.205 180.5,220.5 Z"/></g>
<g><path style="opacity:1" fill="#c7bebd" d="M 118.5,232.5 C 125.88,232.043 128.713,235.376 127,242.5C 123.098,247.804 119.098,247.804 115,242.5C 113.756,238.191 114.923,234.858 118.5,232.5 Z"/></g>
<g><path style="opacity:1" fill="#cccec0" d="M 308.5,236.5 C 308.5,237.5 308.5,238.5 308.5,239.5C 310.167,239.5 311.833,239.5 313.5,239.5C 323.352,238.082 333.019,238.416 342.5,240.5C 315.592,243.078 289.925,250.245 265.5,262C 240.501,273.696 216.501,287.03 193.5,302C 172.868,320.89 171.201,341.223 188.5,363C 198.155,370.72 209.155,375.22 221.5,376.5C 200.126,380.192 180.126,376.359 161.5,365C 155.55,360.222 151.216,354.389 148.5,347.5C 143.761,329.217 148.761,314.05 163.5,302C 189.125,285.017 216.125,270.35 244.5,258C 264.734,249.524 285.734,243.691 307.5,240.5C 307.232,238.901 307.566,237.568 308.5,236.5 Z"/></g>
<g><path style="opacity:1" fill="#eaece3" d="M 342.5,240.5 C 344.167,240.5 345.833,240.5 347.5,240.5C 353.022,242.301 358.689,243.968 364.5,245.5C 367.474,248.138 370.474,250.805 373.5,253.5C 375.614,256.839 376.947,260.505 377.5,264.5C 381.5,264.5 385.5,264.5 389.5,264.5C 385.232,264.869 381.232,265.869 377.5,267.5C 377.814,281.726 373.98,294.726 366,306.5C 342.539,339.503 311.039,361.003 271.5,371C 254.991,374.815 238.324,376.648 221.5,376.5C 209.155,375.22 198.155,370.72 188.5,363C 171.201,341.223 172.868,320.89 193.5,302C 216.501,287.03 240.501,273.696 265.5,262C 289.925,250.245 315.592,243.078 342.5,240.5 Z"/></g>
<g><path style="opacity:0.997" fill="#eee5e3" d="M 389.5,264.5 C 396.833,264.833 404.167,265.167 411.5,265.5C 424.175,267.676 435.842,272.509 446.5,280C 453.571,286.309 457.905,294.142 459.5,303.5C 457.824,311.216 454.657,318.549 450,325.5C 433.08,343.881 412.246,355.381 387.5,360C 373.683,363.124 359.683,364.29 345.5,363.5C 365.199,345.104 376.699,322.437 380,295.5C 380.985,285.863 380.151,276.53 377.5,267.5C 381.232,265.869 385.232,264.869 389.5,264.5 Z"/></g>
<g><path style="opacity:0.992" fill="#dddcd4" d="M 377.5,267.5 C 380.151,276.53 380.985,285.863 380,295.5C 376.699,322.437 365.199,345.104 345.5,363.5C 334.992,371.989 323.659,379.322 311.5,385.5C 310.702,385.957 310.369,386.624 310.5,387.5C 283.211,399.113 254.711,405.78 225,407.5C 189.618,408.17 164.952,392.503 151,360.5C 149.85,357.232 149.016,353.899 148.5,350.5C 148.5,349.5 148.5,348.5 148.5,347.5C 151.216,354.389 155.55,360.222 161.5,365C 180.126,376.359 200.126,380.192 221.5,376.5C 238.324,376.648 254.991,374.815 271.5,371C 311.039,361.003 342.539,339.503 366,306.5C 373.98,294.726 377.814,281.726 377.5,267.5 Z"/></g>
<g><path style="opacity:1" fill="#cfc3c1" d="M 394.5,277.5 C 400.487,276.977 402.487,279.477 400.5,285C 397.49,287.222 394.99,286.722 393,283.5C 392.252,281.16 392.752,279.16 394.5,277.5 Z"/></g>
<g><path style="opacity:1" fill="#c6bebd" d="M 130.5,288.5 C 141.152,289.317 143.152,293.817 136.5,302C 128.164,303.327 124.997,299.827 127,291.5C 128.145,290.364 129.312,289.364 130.5,288.5 Z"/></g>
<g><path style="opacity:0.99" fill="#e0d7d5" d="M 459.5,303.5 C 467.831,354.002 447.164,385.502 397.5,398C 376.655,404.37 355.655,405.037 334.5,400C 325.749,397.126 317.749,392.959 310.5,387.5C 310.369,386.624 310.702,385.957 311.5,385.5C 323.659,379.322 334.992,371.989 345.5,363.5C 359.683,364.29 373.683,363.124 387.5,360C 412.246,355.381 433.08,343.881 450,325.5C 454.657,318.549 457.824,311.216 459.5,303.5 Z"/></g>
<g><path style="opacity:1" fill="#cccfc0" d="M 292.5,308.5 C 298.651,309.103 299.984,311.936 296.5,317C 291.502,318.33 289.336,316.496 290,311.5C 290.698,310.309 291.531,309.309 292.5,308.5 Z"/></g>
<g><path style="opacity:1" fill="#cccfbf" d="M 198.5,320.5 C 205.142,320.64 207.976,323.973 207,330.5C 202.667,335.833 198.333,335.833 194,330.5C 192.571,325.783 194.071,322.45 198.5,320.5 Z"/></g>
<g><path style="opacity:1" fill="#d0c4c2" d="M 391.5,325.5 C 395.756,324.454 398.422,325.954 399.5,330C 397.532,334.741 394.532,335.575 390.5,332.5C 389.073,329.884 389.406,327.551 391.5,325.5 Z"/></g>
<g><path style="opacity:1" fill="#cbcebe" d="M 247.5,336.5 C 256.711,335.542 260.545,339.542 259,348.5C 253.208,355.408 247.874,355.074 243,347.5C 241.776,342.626 243.276,338.959 247.5,336.5 Z"/></g>
</svg>
