<?xml version="1.0" encoding="UTF-8"?>
<svg version="1.1" xmlns="http://www.w3.org/2000/svg" width="512" height="512">
<path d="M0 0 C15.67794827 13.39443128 25.3045428 34.38634702 27.17578125 54.78515625 C29.01775499 85.94103114 18.22058531 111.71018698 -1.89453125 135.203125 C-10.87386779 145.94077269 -16.23302537 157.32681742 -16.13671875 171.41015625 C-16.13542969 172.22282959 -16.13414062 173.03550293 -16.1328125 173.87280273 C-16.03539494 180.288358 -15.28148552 186.50971785 -14.32421875 192.84765625 C-9.27704125 226.58467208 -18.24026213 259.84432744 -38.44921875 287.47265625 C-39.88135557 289.26474189 -41.3389548 291.03684913 -42.82421875 292.78515625 C-43.95150391 294.11933594 -43.95150391 294.11933594 -45.1015625 295.48046875 C-60.68644286 313.32981891 -81.1035268 325.13222019 -104.92236328 326.94482422 C-134.6871356 328.59348203 -163.38523158 316.06607148 -185.33642578 296.43261719 C-202.80539127 280.34172721 -213.64947868 259.04228438 -214.80322266 235.19824219 C-215.57049192 205.8551969 -202.53321007 175.96867453 -183.82421875 153.78515625 C-183.09460938 152.91503906 -182.365 152.04492188 -181.61328125 151.1484375 C-172.78894112 141.0020392 -162.67856568 132.46471992 -152.05078125 124.29296875 C-137.36851771 112.93503297 -135.19394518 101.12832804 -132.44921875 83.16015625 C-127.5629999 52.59013347 -117.09347399 22.22561871 -91.53515625 2.72265625 C-63.05087215 -17.63498772 -28.62691555 -23.35932615 0 0 Z " fill="#E7A763" transform="translate(466.82421875,167.21484375)"/>
<path d="M0 0 C4.53949081 2.36091165 8.78640664 5.09743786 13 8 C13.61230469 8.40734375 14.22460938 8.8146875 14.85546875 9.234375 C23.22034168 15.42393245 30.19816782 26.73764323 31.75 37.0625 C31.8325 38.031875 31.915 39.00125 32 40 C32.7528125 39.80664062 33.505625 39.61328125 34.28125 39.4140625 C55.53201021 34.20453148 77.27416511 33.6272778 99 36 C100 39 100 39 98.75 41.7421875 C97.58555014 43.82676069 96.4188906 45.91010113 95.25 47.9921875 C93.82974931 51.40966573 93.69013273 52.58130079 95 56 C96.79263498 58.70903028 96.79263498 58.70903028 99.0625 61.4375 C113.77435089 80.29998352 122.31995564 102.87353288 120 127 C117.94628597 140.75307074 111.85756361 152.47239457 103 163 C102.2575 163.99 101.515 164.98 100.75 166 C94.27726817 173.66116783 85.27614797 179.46344347 77 185 C76.43152344 185.43570313 75.86304688 185.87140625 75.27734375 186.3203125 C66.3813228 192.57157046 52.17022095 188.7516244 42.13671875 187.03515625 C20.31159319 182.89541215 0.07048632 172.52085037 -13 154.10546875 C-25.22154327 135.12865839 -28.11602512 114.09937212 -29 92 C-32.3 90.68 -35.6 89.36 -39 88 C-39 83.06820607 -35.25752937 80.46346513 -32 77 C-31.40960938 76.35675781 -30.81921875 75.71351563 -30.2109375 75.05078125 C-17.30963572 61.51813917 -1.10803375 52.21292101 16 45 C13.17937709 34.11571395 9.83843552 26.00356573 0.4375 19.43359375 C-8.05562652 14.43843761 -17.3905852 11.33668201 -26.84570312 8.73608398 C-31.78895369 7.31656946 -31.78895369 7.31656946 -34 4 C-34.33470491 0.31824596 -34.4957479 -2.10293238 -32.6875 -5.375 C-25.35055413 -12.44020714 -7.96378546 -3.70008508 0 0 Z " fill="#FDB52E" transform="translate(58,305)"/>
<path d="M0 0 C7.46149712 5.99709114 11.65178644 13.78721228 16.18212891 22.03466797 C26.82304256 42.25410348 26.82304256 42.25410348 45.4453125 54.328125 C49.34781992 55.42512366 53.27372891 56.2141158 57.2578125 56.953125 C58.30662598 57.16130859 59.35543945 57.36949219 60.43603516 57.58398438 C64.20208515 58.33079645 67.97214535 59.05368393 71.74658203 59.75683594 C82.99017354 61.85462258 93.33869206 64.76018723 100.4453125 74.328125 C105.81465635 83.36611555 108.94024641 92.08541599 107.01953125 102.67578125 C103.34675056 116.89372368 92.57812648 129.23699006 80.16699219 136.80737305 C60.7976606 147.88881467 38.17375218 150.89164949 16.47998047 145.23706055 C-13.38479769 136.59581666 -35.67216217 117.65768002 -51.4375 91.1640625 C-56.56807108 81.59902797 -60.10179943 70.23517934 -60.5546875 59.328125 C-60.60625 58.17054688 -60.6578125 57.01296875 -60.7109375 55.8203125 C-61.29567929 36.10650718 -56.04490254 18.69423829 -43.5546875 3.328125 C-31.84258581 -8.40637077 -13.57320563 -8.88277066 0 0 Z " fill="#76A125" transform="translate(176.5546875,179.671875)"/>
<path d="M0 0 C2.97919754 2.0718011 5.48629938 4.38982473 8 7 C8.59425781 7.59683594 9.18851563 8.19367187 9.80078125 8.80859375 C24.99951191 25.01832645 28.63197561 45.00567735 28.3359375 66.4453125 C27.48646217 90.65886975 14.78711753 112.1582013 -2 129 C-20.14338046 145.85143696 -44.30714702 156.12522156 -69.16015625 155.33984375 C-89.73281646 154.18757795 -108.11429511 144.71142769 -122.6640625 130.375 C-129.1963276 123.05545865 -133.00066878 114.65992644 -133.375 104.75 C-132.2582514 93.58251398 -128.83751388 84.69844187 -119.96557617 77.38110352 C-116.70738601 75.09175042 -113.25152562 73.83215508 -109.5 72.5625 C-108.69264404 72.2744751 -107.88528809 71.9864502 -107.0534668 71.68969727 C-102.38314282 70.05492877 -97.67729228 68.59091928 -92.92578125 67.2109375 C-91.90871094 66.91372803 -90.89164063 66.61651855 -89.84375 66.31030273 C-87.87340644 65.74297201 -85.89823893 65.19204681 -83.91796875 64.66040039 C-71.72460111 61.19022807 -65.20579037 53.74402919 -59 43 C-54.91863883 35.42160957 -51.40162139 27.67241415 -48.875 19.4375 C-47.18367372 14.03855018 -44.84164071 10.13857913 -41 6 C-40.48695313 5.44570313 -39.97390625 4.89140625 -39.4453125 4.3203125 C-28.70873241 -6.00529801 -12.81694195 -6.70515945 0 0 Z " fill="#E8A863" transform="translate(344,22)"/>
<path d="M0 0 C21.23222735 14.29092226 37.80933187 32.77227839 43.57958984 58.41845703 C46.50379774 74.89118931 44.12701932 91.90166609 35.20703125 106.10546875 C24.75240421 120.36005969 11.28297378 128.85437206 -5.953125 133.05078125 C-7.09201172 133.33888672 -7.09201172 133.33888672 -8.25390625 133.6328125 C-25.5178776 136.30610473 -41.38677756 132.93906151 -55.83984375 123.08203125 C-73.99207658 109.1070905 -83.627742 86.99753647 -86.63671875 64.71484375 C-88.80262192 39.63315026 -85.04952766 15.27712271 -69.33984375 -5.03515625 C-52.21614134 -24.40660003 -18.37584903 -11.19933502 0 0 Z " fill="#8B411B" transform="translate(104.953125,31.94921875)"/>
<path d="M0 0 C1.20509945 2.93199454 1.16377214 5.91618606 1.1875 9.0625 C1.20167969 9.91972656 1.21585938 10.77695313 1.23046875 11.66015625 C1 14 1 14 -1 17 C-3.65378886 18.01096719 -6.17741753 18.29623143 -9 18 C-11.34392072 15.77628034 -12.57050822 13.85898355 -14 11 C-14.680625 11.350625 -15.36125 11.70125 -16.0625 12.0625 C-19.8180978 13.26109504 -22.20103588 12.98491662 -26 12 C-28 10.3125 -28 10.3125 -29 8 C-29 3.78043104 -28.27050949 2.30349845 -25.4375 -0.875 C-24.633125 -1.57625 -23.82875 -2.2775 -23 -3 C-44.16673394 2.94153935 -61.85398006 17.26848793 -73.27734375 35.92578125 C-84.02338182 55.10295122 -89.61841324 75.21769271 -92.37304688 96.93359375 C-95.22003834 117.73211714 -104.04576263 126.9663122 -119.81640625 139.60546875 C-144.82674175 159.718044 -162.67638965 184.62903389 -171 216 C-171.18925049 216.66999023 -171.37850098 217.33998047 -171.57348633 218.03027344 C-177.22163239 240.03865354 -173.01161499 262.46334763 -161.9375 281.80078125 C-159.7869442 285.3517998 -157.47638759 288.67235417 -155 292 C-155 292.66 -155 293.32 -155 294 C-154.13375 294.3403125 -154.13375 294.3403125 -153.25 294.6875 C-151 296 -151 296 -149.26171875 298.25 C-146.67443119 301.39585569 -143.76652237 303.83567873 -140.5625 306.3125 C-139.952854 306.78526367 -139.34320801 307.25802734 -138.71508789 307.74511719 C-128.82193627 316.14241856 -128.82193627 316.14241856 -117.28125 319.86328125 C-114.72889388 319.08592818 -114.72889388 319.08592818 -112.5625 316.4375 C-110 314 -110 314 -107 313.375 C-102.92038965 314.22491882 -101.41332678 315.63596874 -99 319 C-98.6149245 323.33209942 -100.43312954 326.00213053 -102.9375 329.375 C-105.68564709 332.27304602 -107.47683298 333.57537172 -111.5 333.75 C-139.63834841 331.24598408 -166.45528985 314.4883997 -185 294 C-199.43188209 276.56889961 -206.4071038 254.35511235 -204.74609375 231.859375 C-202.26529929 206.09251981 -190.60899667 180.69352463 -174 161 C-173.27039063 160.12988281 -172.54078125 159.25976562 -171.7890625 158.36328125 C-162.96472237 148.21688295 -152.85434693 139.67956367 -142.2265625 131.5078125 C-127.54429896 120.14987672 -125.36972643 108.34317179 -122.625 90.375 C-117.73878115 59.80497722 -107.26925524 29.44046246 -81.7109375 9.9375 C-59.73206323 -5.77074444 -24.6008682 -18.20567395 0 0 Z " fill="#E49949" transform="translate(457,160)"/>
<path d="M0 0 C0.81984375 0.444646 1.6396875 0.88929199 2.484375 1.34741211 C3.34546875 1.83346924 4.2065625 2.31952637 5.09375 2.8203125 C5.98578125 3.31990479 6.8778125 3.81949707 7.796875 4.33422852 C22.97829874 13.00952367 40.20753002 25.48236444 47.59375 41.9453125 C47.93103325 45.288816 47.93255297 46.4438841 46.03125 49.2578125 C42.62809143 51.61384536 40.65171087 51.58604316 36.59375 50.9453125 C33.38901234 48.44405384 31.21829099 45.44810838 28.84375 42.1953125 C21.33999351 32.10209848 12.09631127 25.57341111 1.59375 18.9453125 C2.25675982 22.22973214 3.47489729 24.79577514 5.09765625 27.71875 C5.59072266 28.62625 6.08378906 29.53375 6.59179688 30.46875 C7.63238057 32.36544437 8.67923835 34.25871043 9.73242188 36.1484375 C14.47713401 44.92895328 14.47713401 44.92895328 13.59375 49.9453125 C12.03125 52.3203125 12.03125 52.3203125 9.59375 53.9453125 C6.09375 54.5078125 6.09375 54.5078125 2.59375 53.9453125 C-1.81989731 49.53166519 -4.342129 43.63179697 -7.15625 38.1328125 C-7.66285156 37.15376953 -8.16945312 36.17472656 -8.69140625 35.16601562 C-9.93465434 32.76162074 -11.17274685 30.35471712 -12.40625 27.9453125 C-12.71024843 42.047462 -12.24164741 54.19062807 -6.3984375 67.27734375 C-4.96613721 71.1287654 -5.0139957 73.09613885 -6.40625 76.9453125 C-8.69325048 79.57112786 -10.00946707 79.89672684 -13.46875 80.3203125 C-16.40625 79.9453125 -16.40625 79.9453125 -18.28125 78.4453125 C-18.6525 77.9503125 -19.02375 77.4553125 -19.40625 76.9453125 C-19.64871809 82.51473104 -18.85606607 87.21788847 -17.34375 92.5703125 C-17.12187012 93.35647949 -16.89999023 94.14264648 -16.67138672 94.95263672 C-13.45252231 105.76212465 -8.14519154 118.16297362 1.8125 124.31640625 C3.69928394 125.27640723 5.64267697 126.12380807 7.59375 126.9453125 C7.17222656 126.52121094 6.75070313 126.09710938 6.31640625 125.66015625 C3.44103679 122.58181954 1.7363564 120.40482202 0.46875 116.3203125 C0.59375 112.9453125 0.59375 112.9453125 2.15625 110.0078125 C4.59375 107.9453125 4.59375 107.9453125 7.53125 107.3828125 C11.23122071 108.06239896 12.95328795 109.30485045 15.59375 111.9453125 C15.59375 112.6053125 15.59375 113.2653125 15.59375 113.9453125 C16.16609375 114.21601563 16.7384375 114.48671875 17.328125 114.765625 C19.63992669 115.96935623 21.70368316 117.33458265 23.84375 118.8203125 C27.95141993 121.59963146 32.11274088 123.82701728 36.59375 125.9453125 C36.92375 125.6153125 37.25375 125.2853125 37.59375 124.9453125 C37.13935547 124.09151001 37.13935547 124.09151001 36.67578125 123.22045898 C35.30015337 120.61549596 33.94690211 117.99951611 32.59375 115.3828125 C32.11679688 114.48755859 31.63984375 113.59230469 31.1484375 112.66992188 C28.49156853 107.48902738 26.85573976 103.78789355 27.59375 97.9453125 C28.59375 96.0078125 28.59375 96.0078125 30.59375 94.9453125 C36.16767317 94.23751273 36.16767317 94.23751273 38.59375 94.9453125 C42.64693604 98.98231816 44.8779257 104.16953988 47.34375 109.2578125 C47.75496094 110.09376953 48.16617188 110.92972656 48.58984375 111.79101562 C49.59668273 113.83981587 50.59778335 115.89121098 51.59375 117.9453125 C54.53190598 112.26074916 54.75318884 107.100298 54.71875 100.7578125 C54.72261719 100.03400391 54.72648437 99.31019531 54.73046875 98.56445312 C54.79829326 94.62614748 54.79829326 94.62614748 53.59375 90.9453125 C53.04810137 86.85294775 53.24051826 85.40955994 55.78125 82.0703125 C58.59375 79.9453125 58.59375 79.9453125 61.09375 79.3203125 C64.80758628 80.24877157 66.24533259 81.96218769 68.59375 84.9453125 C73.58823318 96.36127405 70.09828799 110.97617544 68.59375 122.9453125 C69.5425 122.2853125 70.49125 121.6253125 71.46875 120.9453125 C74.59375 118.9453125 74.59375 118.9453125 76.59375 118.9453125 C71.97761427 129.65081878 60.71969456 136.20014584 50.59375 140.9453125 C46.3138433 142.54332961 42.03157673 143.86485125 37.59375 144.9453125 C36.45486328 145.23341797 36.45486328 145.23341797 35.29296875 145.52734375 C18.0289974 148.20063598 2.16009744 144.83359276 -12.29296875 134.9765625 C-30.44520158 121.00162175 -40.080867 98.89206772 -43.08984375 76.609375 C-45.25574692 51.52768151 -41.50265266 27.17165396 -25.79296875 6.859375 C-19.51438045 -0.24337167 -8.82393211 -4.80791172 0 0 Z " fill="#6D3315" transform="translate(61.40625,20.0546875)"/>
<path d="M0 0 C4.53949081 2.36091165 8.78640664 5.09743786 13 8 C13.61230469 8.40734375 14.22460938 8.8146875 14.85546875 9.234375 C23.22034168 15.42393245 30.19816782 26.73764323 31.75 37.0625 C31.8325 38.031875 31.915 39.00125 32 40 C32.7528125 39.80664062 33.505625 39.61328125 34.28125 39.4140625 C55.53201021 34.20453148 77.27416511 33.6272778 99 36 C100.30310976 39.90932927 99.41923843 40.92180986 97.625 44.5625 C91.93966218 55.43307649 84.1498724 63.37413911 72.6875 67.8125 C67.50075063 69.42655837 62.37898986 69.27146304 57 69 C57.34933594 69.75925781 57.69867188 70.51851563 58.05859375 71.30078125 C58.51363281 72.29464844 58.96867187 73.28851563 59.4375 74.3125 C59.88996094 75.29863281 60.34242187 76.28476562 60.80859375 77.30078125 C64.80284722 86.35005715 64.64287751 100.11465637 61.1796875 109.3828125 C60.79039063 110.24648438 60.40109375 111.11015625 60 112 C59.58089355 112.96244629 59.58089355 112.96244629 59.15332031 113.94433594 C58.17398435 116.16556173 57.1576057 118.36556394 56.125 120.5625 C55.79757813 121.27881592 55.47015625 121.99513184 55.1328125 122.7331543 C53.69497716 125.63866286 52.65619222 127.65950163 49.7265625 129.1796875 C45.78991722 128.92025242 42.68578159 127.36234892 39.25 125.5625 C38.5398877 125.19560059 37.82977539 124.82870117 37.09814453 124.45068359 C24.89841785 117.93134142 17.91987436 109.40398803 13.625 96.25 C12.34282985 92.01779609 11.82785156 88.42289063 12 84 C11.05640625 84.70576172 11.05640625 84.70576172 10.09375 85.42578125 C-0.13305152 92.86485525 -7.19032193 95.02810865 -20 94 C-27.28672574 92.80573854 -33.56606277 90.5881573 -40 87 C-27.4219527 66.99350594 -5.26177787 53.96418177 16 45 C13.17937709 34.11571395 9.83843552 26.00356573 0.4375 19.43359375 C-8.05562652 14.43843761 -17.3905852 11.33668201 -26.84570312 8.73608398 C-31.78895369 7.31656946 -31.78895369 7.31656946 -34 4 C-34.33470491 0.31824596 -34.4957479 -2.10293238 -32.6875 -5.375 C-25.35055413 -12.44020714 -7.96378546 -3.70008508 0 0 Z " fill="#8C421B" transform="translate(58,305)"/>
<path d="M0 0 C1.33333333 1.66666667 2.66666667 3.33333333 4 5 C4.7425 5.825 5.485 6.65 6.25 7.5 C8.29969853 10.42814076 8.46378797 11.50577931 8 15 C2.83426571 21.77024267 -5.28188377 25.82124386 -13 29 C-13.66 29 -14.32 29 -15 29 C-14.83991455 29.58015869 -14.6798291 30.16031738 -14.51489258 30.75805664 C-11.97209558 41.82989392 -13.94143838 53.6281203 -18 64 C-18.28875 64.845625 -18.5775 65.69125 -18.875 66.5625 C-22.27388403 76.0308198 -27.66433433 87.33216716 -37 92 C-49.70088747 93.75184655 -63.04445711 85.16129808 -73 78 C-73.65355469 77.53078125 -74.30710938 77.0615625 -74.98046875 76.578125 C-80.7957198 72.00808223 -85.0903014 65.77707701 -88.41015625 59.2109375 C-89.7814939 56.78268407 -89.7814939 56.78268407 -92.26171875 56.51171875 C-93.06222656 56.56972656 -93.86273438 56.62773437 -94.6875 56.6875 C-95.49574219 56.73261719 -96.30398437 56.77773438 -97.13671875 56.82421875 C-97.75160156 56.88222656 -98.36648437 56.94023437 -99 57 C-99.59739986 71.26518457 -91.70507557 83.68127741 -82.75 94.1875 C-68.14934514 109.72220349 -46.38848429 118.76729578 -25.15039062 119.54052734 C-13.32997331 119.64088938 -3.89253129 117.12512891 6.2578125 110.953125 C8 110 8 110 10 110 C8.44741769 113.81088384 5.9590471 116.25335975 3 119 C2.41734375 119.57621094 1.8346875 120.15242188 1.234375 120.74609375 C-6.47825716 128.06131929 -17.11346213 137.53982704 -28.25 137.8125 C-30.50707125 137.6088335 -32.75782162 137.32937332 -35 137 C-36.54010036 136.83219245 -38.0804886 136.66701442 -39.62109375 136.50390625 C-62.38127584 133.83513368 -84.95997099 125.87636221 -100.46875 108.18359375 C-116.04480608 88.27220206 -120.92298402 64.78383011 -120 40 C-118.96875 40.165 -117.9375 40.33 -116.875 40.5 C-106.00693996 41.79106387 -95.32495561 42.38689444 -86.125 35.62109375 C-84.72662864 34.44121792 -83.35995398 33.22395858 -82 32 C-81.34 32 -80.68 32 -80 32 C-79.65388672 33.68416016 -79.65388672 33.68416016 -79.30078125 35.40234375 C-76.75770653 47.33790427 -76.75770653 47.33790427 -71 58 C-70.37351562 58.91265625 -70.37351562 58.91265625 -69.734375 59.84375 C-64.13099928 67.1861044 -53.97258366 73.69760117 -45 76 C-42.41263159 76.19425175 -42.41263159 76.19425175 -40 75 C-38.50975397 72.64297822 -37.4379538 70.60281573 -36.375 68.0625 C-36.07650146 67.37446289 -35.77800293 66.68642578 -35.47045898 65.97753906 C-34.62428322 63.99359523 -33.81039289 61.99875767 -33 60 C-32.63261719 59.15824219 -32.26523438 58.31648438 -31.88671875 57.44921875 C-28.07248141 47.27189351 -28.28493575 33.8644553 -32.5 23.9375 C-33.33147118 22.29072513 -34.16426177 20.64461345 -35 19 C-35 18.34 -35 17.68 -35 17 C-34.35675781 16.98582031 -33.71351562 16.97164063 -33.05078125 16.95703125 C-22.16304755 16.38235772 -11.53207931 13.22072656 -4 5 C-2.61973133 3.3719908 -1.26438322 1.71956118 0 0 Z " fill="#FCAA11" transform="translate(150,357)"/>
<path d="M0 0 C-1.83788592 5.59914083 -3.85407523 11.12641924 -5.87890625 16.66015625 C-12.1635668 35.38275128 -8.72133737 57.71621939 -0.375 75.125 C3.53653742 82.8107628 8.4731392 89.41404671 14 96 C14.64582031 96.80953125 15.29164063 97.6190625 15.95703125 98.453125 C32.33601089 118.1768647 57.86298038 129.58750258 83 132 C100.72471364 133.4563392 115.33512846 129.01249177 131 121 C130.08352866 126.89729386 125.38063348 130.35047087 121 134 C101.9828989 146.71531201 80.89167973 151.00049169 58.25390625 147.34765625 C30.15656701 141.74806103 5.6680865 124.65950602 -10.2109375 100.97680664 C-18.24158725 88.64923401 -24.3796705 74.93960211 -25 60 C-25.0515625 58.84242188 -25.103125 57.68484375 -25.15625 56.4921875 C-25.74158287 36.75845492 -20.46941309 19.37324901 -8 4 C-3.63157895 0 -3.63157895 0 0 0 Z " fill="#658A20" transform="translate(141,179)"/>
<path d="M0 0 C1.14017392 3.42052177 0.727029 4.5453924 0 8 C-0.60175535 16.72052009 -0.80839205 24.41175629 4 32 C4.4125 32.66128906 4.825 33.32257813 5.25 34.00390625 C16.38457353 50.16801725 35.38072533 59.74082647 54.2265625 63.4609375 C76.41630003 66.6309 97.20392118 59.79328892 115.4609375 47.40625 C116.29882812 46.9421875 117.13671875 46.478125 118 46 C118.99 46.33 119.98 46.66 121 47 C104.65051115 64.46422672 81.42808902 79.0936368 56.85546875 80.23828125 C33.47833585 80.80043667 13.46408719 73.73172465 -4 58 C-11.99281918 50.12437758 -16.94356853 41.17158043 -17.375 29.75 C-16.33220606 19.32206055 -13.4019744 10.55133153 -5.25 3.4375 C-3.51410306 2.05738374 -1.98565151 0.99282576 0 0 Z " fill="#E49949" transform="translate(228,97)"/>
<path d="M0 0 C3.71383628 0.92845907 5.15158259 2.64187519 7.5 5.625 C12.49448318 17.04096155 9.00453799 31.65586294 7.5 43.625 C8.44875 42.965 9.3975 42.305 10.375 41.625 C13.5 39.625 13.5 39.625 15.5 39.625 C10.83623616 50.44096296 -0.46790429 56.62732595 -10.5 61.625 C-11.29792969 62.0271875 -12.09585938 62.429375 -12.91796875 62.84375 C-19.81517647 64.93065097 -25.11542272 63.46126451 -31.375 60.5 C-32.41926147 60.0213147 -32.41926147 60.0213147 -33.48461914 59.53295898 C-55.13229902 49.4333862 -55.13229902 49.4333862 -59.76171875 40.07421875 C-60.72586843 36.87569044 -60.40340628 34.82166838 -59.5 31.625 C-58.3125 29.75 -58.3125 29.75 -56.5 28.625 C-52.57788999 28.02815717 -50.97481262 28.3153396 -47.625 30.5 C-46.92375 31.20125 -46.2225 31.9025 -45.5 32.625 C-45.5 33.285 -45.5 33.945 -45.5 34.625 C-44.92765625 34.89570313 -44.3553125 35.16640625 -43.765625 35.4453125 C-41.45382331 36.64904373 -39.39006684 38.01427015 -37.25 39.5 C-33.14233007 42.27931896 -28.98100912 44.50670478 -24.5 46.625 C-24.17 46.295 -23.84 45.965 -23.5 45.625 C-23.80292969 45.05579834 -24.10585937 44.48659668 -24.41796875 43.90014648 C-25.79359663 41.29518346 -27.14684789 38.67920361 -28.5 36.0625 C-28.97695312 35.16724609 -29.45390625 34.27199219 -29.9453125 33.34960938 C-32.60218147 28.16871488 -34.23801024 24.46758105 -33.5 18.625 C-32.5 16.6875 -32.5 16.6875 -30.5 15.625 C-24.92607683 14.91720023 -24.92607683 14.91720023 -22.5 15.625 C-18.44681396 19.66200566 -16.2158243 24.84922738 -13.75 29.9375 C-13.33878906 30.77345703 -12.92757812 31.60941406 -12.50390625 32.47070312 C-11.49706727 34.51950337 -10.49596665 36.57089848 -9.5 38.625 C-6.56184402 32.94043666 -6.34056116 27.7799855 -6.375 21.4375 C-6.37113281 20.71369141 -6.36726563 19.98988281 -6.36328125 19.24414062 C-6.29545674 15.30583498 -6.29545674 15.30583498 -7.5 11.625 C-8.04564863 7.53263525 -7.85323174 6.08924744 -5.3125 2.75 C-2.5 0.625 -2.5 0.625 0 0 Z " fill="#663014" transform="translate(122.5,99.375)"/>
<path d="M0 0 C0.66 0.33 1.32 0.66 2 1 C2.45703125 3.08203125 2.45703125 3.08203125 2.8125 5.8125 C5.11547345 19.28140534 11.2797504 28.83376399 21.9375 37.3125 C27.37491392 41.14811062 33.4507753 44.60303235 40 46 C38.53967505 51.31027254 36.01679014 55.46330032 33 60 C21.72413378 58.87809391 11.50954638 52.36083099 4 44 C-2.3018434 35.77651826 -6.40583362 25.4268022 -6 15 C-6.6290625 15.47050781 -7.258125 15.94101562 -7.90625 16.42578125 C-18.13305152 23.86485525 -25.19032193 26.02810865 -38 25 C-45.28672574 23.80573854 -51.56606277 21.5881573 -58 18 C-55.62057443 14.26090268 -53.33785763 10.93326883 -50 8 C-49.319375 7.360625 -48.63875 6.72125 -47.9375 6.0625 C-43.05930449 4.2980463 -38.77379622 6.43482091 -34 8 C-24.74217985 10.74104087 -15.53053643 9.18504374 -7 5 C-4.49881302 3.46181358 -2.29922094 1.83937675 0 0 Z " fill="#743717" transform="translate(76,374)"/>
<path d="M0 0 C3.23306803 2.9583629 5.227555 5.90852615 7.3125 9.75 C12.9433631 19.52365456 18.00858454 25.51793941 29 29 C35.28168703 30.58507425 41.63199954 31.81878541 48 33 C45.40408399 41.97701006 38.9635465 48.10459787 31 52.75 C24.25341707 55.416226 15.86660241 55.12303164 9.1875 52.4375 C0.55512714 47.92332336 -5.56369451 41.22420095 -9.10546875 32.17578125 C-11.22252678 24.659763 -11.19956603 16.54181774 -7.8125 9.4375 C-5.65203747 5.6906407 -3.2767421 2.80863609 0 0 Z " fill="#5E801E" transform="translate(193,205)"/>
<path d="M0 0 C4.53949081 2.36091165 8.78640664 5.09743786 13 8 C13.61230469 8.40734375 14.22460938 8.8146875 14.85546875 9.234375 C22.70930226 15.04579068 29.57328651 25.70790882 31.45703125 35.3359375 C31.70446119 37.21640508 31.86242329 39.10832018 32 41 C29.89936424 41.69821417 27.79434263 42.38324472 25.6875 43.0625 C24.51574219 43.44535156 23.34398437 43.82820313 22.13671875 44.22265625 C19 45 19 45 16 44 C15.04296875 41.55859375 15.04296875 41.55859375 14.1875 38.4375 C11.2890323 29.21709144 6.35477931 22.91378847 -2 18 C-10.00595629 14.00723353 -18.23839332 11.10349527 -26.84570312 8.73608398 C-31.78895369 7.31656946 -31.78895369 7.31656946 -34 4 C-34.33470491 0.31824596 -34.4957479 -2.10293238 -32.6875 -5.375 C-25.35055413 -12.44020714 -7.96378546 -3.70008508 0 0 Z " fill="#662F13" transform="translate(58,305)"/>
<path d="M0 0 C4.51154907 0.3697991 6.34395549 1.46058562 9.8125 4.3125 C10.39773438 5.075625 10.98296875 5.83875 11.5859375 6.625 C14.16521042 9.73822766 17.0689214 12.16591507 20.25 14.625 C20.859646 15.09776367 21.46929199 15.57052734 22.09741211 16.05761719 C31.99056373 24.45491856 31.99056373 24.45491856 43.53125 28.17578125 C46.08360612 27.39842818 46.08360612 27.39842818 48.25 24.75 C50.8125 22.3125 50.8125 22.3125 53.8125 21.6875 C57.89211035 22.53741882 59.39917322 23.94846874 61.8125 27.3125 C62.1975755 31.64459942 60.37937046 34.31463053 57.875 37.6875 C55.12685291 40.58554602 53.33566702 41.88787172 49.3125 42.0625 C30.45766963 40.38461917 12.41008537 31.53912522 -3.1875 21.3125 C-3.97640625 20.85101563 -4.7653125 20.38953125 -5.578125 19.9140625 C-7.1875 18.3125 -7.1875 18.3125 -7.68359375 15.5703125 C-7.66425781 14.53648437 -7.64492188 13.50265625 -7.625 12.4375 C-7.62371094 11.40882813 -7.62242187 10.38015625 -7.62109375 9.3203125 C-6.89501024 4.28351696 -5.19550733 0.50936346 0 0 Z " fill="#E49949" transform="translate(296.1875,451.6875)"/>
<path d="M0 0 C7.91406785 5.43969428 11.62698237 17.87545211 13.375 26.8125 C14.70387292 37.04619149 16.20427705 50.64006889 11 60 C8.73776513 62.00434009 7.49325654 62.91368011 4.5 63.4375 C1.1189229 62.84581151 0.10663071 61.68015933 -2 59 C-2.37475586 56.10595703 -2.37475586 56.10595703 -2.21484375 52.7578125 C-2.17584961 51.53263916 -2.13685547 50.30746582 -2.09667969 49.04516602 C-2.04415039 47.75151123 -1.99162109 46.45785645 -1.9375 45.125 C-1.67452675 32.81588705 -2.04302642 23.29977679 -9.140625 12.84765625 C-11.32103668 9.50832827 -11.68008756 7.91050345 -11 4 C-8.0716941 -0.45102496 -5.1162218 -0.97031793 0 0 Z " fill="#EBBD8D" transform="translate(339,50)"/>
<path d="M0 0 C3.125 0.5 3.125 0.5 6.0625 2.5625 C8.125 5.5 8.125 5.5 8.07421875 8.62890625 C6.87180129 13.53259226 4.70137736 17.15187049 2 21.375 C1.25556641 22.56319336 1.25556641 22.56319336 0.49609375 23.77539062 C-8.44089593 37.87726395 -8.44089593 37.87726395 -13.875 41.5 C-17.2793983 41.35815007 -19.18862618 41.11773643 -21.75 38.8125 C-23.25238517 35.72426382 -23.24429103 33.92913097 -22.875 30.5 C-21.43949704 27.9524877 -20.01925981 25.72167998 -18.3125 23.375 C-17.39027911 22.05674639 -16.47103807 20.73640346 -15.5546875 19.4140625 C-15.09932617 18.75954102 -14.64396484 18.10501953 -14.17480469 17.43066406 C-11.67288049 13.71443255 -9.52388236 9.8046238 -7.34765625 5.890625 C-5.21291444 2.42520859 -4.08262021 0.71002091 0 0 Z " fill="#E08A2F" transform="translate(384.875,423.5)"/>
<path d="M0 0 C2.875 1 2.875 1 4.8125 2.5 C8.06038133 10.14207373 3.02712552 20.54027445 0.5625 27.875 C0.17126953 29.09703125 -0.21996094 30.3190625 -0.62304688 31.578125 C-1.01169922 32.74601562 -1.40035156 33.91390625 -1.80078125 35.1171875 C-2.15052002 36.17534668 -2.50025879 37.23350586 -2.8605957 38.32373047 C-4.2486014 41.26161779 -5.3228126 42.40879975 -8.125 44 C-11.74252119 44.52755517 -13.42682885 44.45932313 -16.5 42.4375 C-18.7214345 39.10534824 -18.36378862 36.96912344 -18.125 33 C-17.05706767 28.67883799 -15.5924582 24.50158135 -14.12719727 20.30151367 C-13.43778697 18.31332759 -12.77780186 16.31691174 -12.11914062 14.31835938 C-11.68143706 13.04106579 -11.24204068 11.76435078 -10.80078125 10.48828125 C-10.40802002 9.33884033 -10.01525879 8.18939941 -9.6105957 7.00512695 C-7.42153779 2.57700635 -5.07147032 0 0 0 Z " fill="#E08A2F" transform="translate(409.125,367)"/>
<path d="M0 0 C2.1640625 1.3515625 2.1640625 1.3515625 4 4 C4.5635429 7.63084881 4.469948 11.20924509 4.375 14.875 C4.35920898 15.90407471 4.34341797 16.93314941 4.32714844 17.9934082 C3.86663999 38.6627785 3.86663999 38.6627785 0.140625 43.328125 C-2 45 -2 45 -5.5 45.5625 C-9 45 -9 45 -11.2265625 42.87109375 C-13.42948556 39.30468748 -13.31279665 37.63578114 -12.875 33.5 C-12.74480469 32.19417969 -12.61460937 30.88835937 -12.48046875 29.54296875 C-12.40103027 28.82544434 -12.3215918 28.10791992 -12.23974609 27.36865234 C-11.97409916 24.74410387 -11.79014102 22.12026374 -11.61328125 19.48828125 C-11.47216079 17.59629383 -11.3302392 15.70436599 -11.1875 13.8125 C-11.12997559 12.90371094 -11.07245117 11.99492187 -11.01318359 11.05859375 C-10.47015787 4.64342517 -10.47015787 4.64342517 -8.11328125 1.41796875 C-5.18224169 -0.5486992 -3.45782168 -0.57630361 0 0 Z " fill="#E08A2F" transform="translate(419,307)"/>
<path d="M0 0 C3.5 0.8125 3.5 0.8125 5.4375 1.9375 C7.11988266 4.90641057 6.709062 7.44950779 6.5 10.8125 C5.37011719 14.0222168 5.37011719 14.0222168 3.796875 17.26171875 C3.22839844 18.43927734 2.65992188 19.61683594 2.07421875 20.83007812 C1.77435059 21.43279541 1.47448242 22.0355127 1.16552734 22.65649414 C0.25087688 24.49823431 -0.63956371 26.35026073 -1.52734375 28.20507812 C-6.61952755 38.62402948 -6.61952755 38.62402948 -10.5 41.8125 C-14 42.375 -14 42.375 -17.5 41.8125 C-20 39.6875 -20 39.6875 -21.5 36.8125 C-21.11710186 32.56780059 -19.96195324 29.21630825 -18.1015625 25.40625 C-17.62203125 24.41496094 -17.1425 23.42367188 -16.6484375 22.40234375 C-16.14570313 21.38269531 -15.64296875 20.36304688 -15.125 19.3125 C-14.63 18.29285156 -14.135 17.27320313 -13.625 16.22265625 C-12.67303698 14.26527775 -11.71530523 12.31069107 -10.75097656 10.359375 C-9.75205282 8.32565672 -8.78799064 6.27482721 -7.8359375 4.21875 C-5.74560271 0.45370254 -4.27691027 -0.22912019 0 0 Z " fill="#E08A2F" transform="translate(443.5,253.1875)"/>
<path d="M0 0 C2.4375 1.5 2.4375 1.5 4 4 C4.77387177 10.59863874 4.77387177 10.59863874 3.01391602 13.78564453 C1.61160466 15.55788444 0.13040418 17.18505217 -1.4375 18.8125 C-2.53903657 20.01967009 -3.6392825 21.22801904 -4.73828125 22.4375 C-5.28822754 23.03175781 -5.83817383 23.62601562 -6.40478516 24.23828125 C-9.52409843 27.68317941 -12.36203782 31.35530385 -15.2578125 34.98828125 C-17.50902659 37.58777734 -18.44498134 37.93967189 -21.875 38.3125 C-25 38 -25 38 -27.375 36.375 C-29.47555322 33.30496068 -29.33219058 31.67229864 -29 28 C-25.69083477 21.30718672 -20.26941104 16.14658754 -14.9453125 11.0390625 C-12.6178971 8.5994825 -11.32225779 6.08526819 -10 3 C-7.40911549 -0.88632677 -4.40734285 -0.54125263 0 0 Z " fill="#E08A2F" transform="translate(367,288)"/>
<path d="M0 0 C3.68736254 1.01221717 5.17389169 1.60288649 7.1875 4.875 C6.9616475 10.61028468 5.36646346 13.56502077 1.75 17.9375 C0.83546915 19.05608876 -0.07588623 20.17727974 -0.984375 21.30078125 C-1.45294922 21.87908691 -1.92152344 22.45739258 -2.40429688 23.05322266 C-3.84480825 24.91679684 -5.15642311 26.82701704 -6.453125 28.79296875 C-6.88052979 29.43290771 -7.30793457 30.07284668 -7.74829102 30.73217773 C-8.56484991 31.96697022 -9.36571124 33.21233085 -10.14819336 34.46899414 C-12.35097387 37.74568301 -13.57260778 38.80757083 -17.42578125 39.890625 C-20.8125 39.875 -20.8125 39.875 -23.8125 37.875 C-25.8125 34.875 -25.8125 34.875 -25.78125 31.70703125 C-24.5440942 26.81328192 -22.29222532 23.57557209 -19.3125 19.5625 C-18.77149658 18.82136963 -18.23049316 18.08023926 -17.6730957 17.31665039 C-16.07427335 15.15223254 -14.45058809 13.0098053 -12.8125 10.875 C-12.37212402 10.29556641 -11.93174805 9.71613281 -11.47802734 9.11914062 C-5.37835411 1.23437635 -5.37835411 1.23437635 0 0 Z " fill="#E08A2F" transform="translate(414.8125,179.125)"/>
<path d="M0 0 C2.875 2.0625 2.875 2.0625 5 5 C4.93085346 11.68992737 1.78346037 16.8084331 -1.375 22.5625 C-2.36229474 24.39696561 -3.34928216 26.23159666 -4.3359375 28.06640625 C-4.80008057 28.92105469 -5.26422363 29.77570313 -5.74243164 30.65625 C-7.21956946 33.40921506 -8.60467603 36.20492246 -10 39 C-11.3125 40.875 -11.3125 40.875 -13 42 C-16.25996064 42.41616519 -18.34303035 42.2766188 -21.375 41 C-23.4121787 38.49270314 -23.44759402 36.60445206 -23.37890625 33.43408203 C-22.5933374 28.38761206 -20.08647333 23.95917482 -17.8125 19.4375 C-17.08836914 17.93413086 -17.08836914 17.93413086 -16.34960938 16.40039062 C-7.77395392 -1.08473776 -7.77395392 -1.08473776 0 0 Z " fill="#E08A2F" transform="translate(331,336)"/>
<path d="M0 0 C2.19140625 1.58984375 2.19140625 1.58984375 4 4 C5.62394346 14.549239 5.16010531 33.8774013 -1 43 C-4.01868434 44.50934217 -6.67297229 44.17510672 -10 44 C-13 42 -13 42 -13.8125 38.625 C-14.22471275 34.09874236 -13.39324857 30.00506829 -12.53125 25.5703125 C-11.76936897 20.45002379 -11.64775715 15.31663495 -11.60595703 10.14306641 C-11.49962088 6.58740287 -11.30095524 4.41332908 -9.1796875 1.5 C-5.97339122 -0.70648346 -3.79654527 -0.54236361 0 0 Z " fill="#E08A2F" transform="translate(458,194)"/>
<path d="M0 0 C3.14905465 0.33995476 3.94960935 0.8225419 6.5 2.9375 C8.3006071 6.5387142 7.81989457 7.9384496 6.9375 11.8125 C6.26533907 13.79145521 5.53565839 15.75155579 4.7578125 17.69140625 C4.32339844 18.77744141 3.88898438 19.86347656 3.44140625 20.98242188 C2.75884766 22.66174805 2.75884766 22.66174805 2.0625 24.375 C1.39154297 26.06012695 1.39154297 26.06012695 0.70703125 27.77929688 C-4.19323694 39.94323694 -4.19323694 39.94323694 -7.0625 42.8125 C-10.83386766 43.1682894 -13.23789449 43.28664817 -16.5625 41.375 C-18.84868036 37.46944188 -17.91703681 34.1447551 -17.0625 29.8125 C-16.00186886 26.21202632 -14.68760326 22.74084118 -13.3125 19.25 C-12.80976563 17.90905273 -12.80976563 17.90905273 -12.296875 16.54101562 C-6.12012968 0.54932841 -6.12012968 0.54932841 0 0 Z " fill="#E08A2F" transform="translate(382.0625,230.1875)"/>
<path d="M0 0 C1.99480063 0.32993851 3.9644818 0.80189076 5.9296875 1.27734375 C8.9489421 5.80622565 8.39885179 10.25652686 7.57910156 15.53466797 C7.11817199 17.77538044 6.60151463 19.99358428 6.0546875 22.21484375 C5.68248551 23.78749854 5.3113836 25.36041411 4.94140625 26.93359375 C4.76399902 27.67996094 4.5865918 28.42632812 4.40380859 29.1953125 C3.63276506 32.58123383 3.05788028 35.99998075 2.51953125 39.4296875 C1.77478955 41.76255388 0.86378681 42.79027683 -1.0703125 44.27734375 C-4.89571484 44.76421314 -7.15508573 44.81709287 -10.5078125 42.83984375 C-14.854644 35.7110401 -11.01953327 25.03372858 -9.3203125 17.46484375 C-9.06765625 16.25119141 -8.815 15.03753906 -8.5546875 13.78710938 C-8.296875 12.62244141 -8.0390625 11.45777344 -7.7734375 10.2578125 C-7.54301758 9.20489014 -7.31259766 8.15196777 -7.07519531 7.06713867 C-5.77928228 3.46937429 -4.00011075 0.53586389 0 0 Z " fill="#E08A2F" transform="translate(304.0703125,391.72265625)"/>
<path d="M0 0 C2.21484375 0.796875 2.21484375 0.796875 4.5625 1.875 C5.47128906 2.25140625 6.38007813 2.6278125 7.31640625 3.015625 C14.25389823 6.13404245 14.25389823 6.13404245 15.33203125 8.72265625 C15.59100686 11.14122504 15.73164965 13.5042432 15.75 15.9375 C15.76417969 16.79472656 15.77835937 17.65195313 15.79296875 18.53515625 C15.5625 20.875 15.5625 20.875 13.5625 23.875 C10.90871114 24.88596719 8.38508247 25.17123143 5.5625 24.875 C3.21857928 22.65128034 1.99199178 20.73398355 0.5625 17.875 C-0.118125 18.225625 -0.79875 18.57625 -1.5 18.9375 C-5.2555978 20.13609504 -7.63853588 19.85991662 -11.4375 18.875 C-13.4375 17.1875 -13.4375 17.1875 -14.4375 14.875 C-14.0243496 8.63470745 -11.39506723 5.71195883 -6.96484375 1.5546875 C-4.17649316 -0.29846668 -3.2314667 -0.63362092 0 0 Z " fill="#E08A2F" transform="translate(442.4375,153.125)"/>
<path d="M0 0 C0.99773437 0.02320313 1.99546875 0.04640625 3.0234375 0.0703125 C4.52777344 0.09738281 4.52777344 0.09738281 6.0625 0.125 C6.83335937 0.14820313 7.60421875 0.17140625 8.3984375 0.1953125 C6.68025317 7.83168731 0.76521041 13.89774078 -5.6015625 18.1953125 C-12.49578293 22.21694108 -20.46039696 22.51396259 -28.16015625 20.5390625 C-33.87994554 18.23925121 -38.21364674 14.45171034 -42.6015625 10.1953125 C-39.6015625 10.1953125 -39.6015625 10.1953125 -36.83984375 11.171875 C-29.68999582 13.43153743 -21.37071888 13.384382 -14.4765625 10.3203125 C-13.17240488 9.63524916 -11.87961705 8.92792117 -10.6015625 8.1953125 C-9.88484375 7.86273438 -9.168125 7.53015625 -8.4296875 7.1875 C-6.08185656 5.91324987 -5.65349644 4.59973293 -4.6015625 2.1953125 C-2.6015625 0.1953125 -2.6015625 0.1953125 0 0 Z " fill="#4D6818" transform="translate(232.6015625,237.8046875)"/>
<path d="M0 0 C-0.52268466 2.76276177 -1.10869587 5.3260876 -2 8 C-4.23128541 9.47486797 -6.41023035 10.78604672 -8.75 12.0625 C-9.37132812 12.41376953 -9.99265625 12.76503906 -10.6328125 13.12695312 C-16.8471324 16.59464851 -21.7467972 18.92010713 -29 18 C-31.7971815 17.18868158 -34.37034312 16.05616176 -37 14.8125 C-37.69480469 14.49659912 -38.38960937 14.18069824 -39.10546875 13.85522461 C-43.9942994 11.59024221 -48.55457768 9.05622784 -53 6 C-51 5 -51 5 -48.98046875 5.41796875 C-31.04919639 8.91961958 -16.63017474 0 0 0 Z " fill="#4E250F" transform="translate(128,145)"/>
<path d="M0 0 C-0.1340625 1.16402344 -0.268125 2.32804687 -0.40625 3.52734375 C-1.18220023 10.53138749 -1.84907028 17.54592659 -2.5 24.5625 C-2.56692047 25.28267303 -2.63384094 26.00284607 -2.70278931 26.74484253 C-3.90511069 39.8168976 -4.65466457 52.87534577 -5 66 C-6.82675041 63.25987438 -7.64237877 61.35239828 -8.5625 58.25 C-8.81128906 57.43015625 -9.06007812 56.6103125 -9.31640625 55.765625 C-11.28343027 47.80760783 -11.18338356 39.89231184 -11.1875 31.75 C-11.19974609 30.49058594 -11.21199219 29.23117188 -11.22460938 27.93359375 C-11.2559142 7.83589575 -11.2559142 7.83589575 -6.0625 2.3125 C-3 0 -3 0 0 0 Z " fill="#4E250F" transform="translate(44,22)"/>
<path d="M0 0 C3.6875 0.3125 3.6875 0.3125 5.90234375 1.62890625 C8.79164931 5.97234808 8.10521849 10.47933972 7.9375 15.5625 C7.91945313 16.59375 7.90140625 17.625 7.8828125 18.6875 C7.83572712 21.23011064 7.7699805 23.77083162 7.6875 26.3125 C1.59938019 25.20446857 -3.11902 22.99045402 -7.3125 18.3125 C-8.650737 13.03622181 -8.38438324 8.33247944 -5.82421875 3.5078125 C-3.64552215 0.34391718 -3.64552215 0.34391718 0 0 Z " fill="#D17C20" transform="translate(296.3125,451.6875)"/>
<path d="M0 0 C4.00066083 0.69941623 5.45339824 2.22706175 7.79296875 5.48828125 C8.17804425 9.82038067 6.35983921 12.49041178 3.85546875 15.86328125 C1.70554128 18.17655023 0.44140583 19.33473135 -2.6484375 20.06640625 C-7.76757963 20.16019206 -12.39424482 19.16229392 -17.20703125 17.48828125 C-15.72137027 12.60552961 -12.97221352 9.70382394 -9.45703125 6.17578125 C-8.94398438 5.62599609 -8.4309375 5.07621094 -7.90234375 4.50976562 C-5.31077834 1.88889859 -3.68544972 0.56112206 0 0 Z " fill="#DF8A2E" transform="translate(350.20703125,473.51171875)"/>
<path d="M0 0 C1.19287411 3.87684087 2 6.91621923 2 11 C-0.10063576 11.69821417 -2.20565737 12.38324472 -4.3125 13.0625 C-5.48425781 13.44535156 -6.65601562 13.82820313 -7.86328125 14.22265625 C-11 15 -11 15 -14 14 C-14.33 10.7 -14.66 7.4 -15 4 C-9.93448224 1.71555081 -5.63745903 0 0 0 Z " fill="#4E250F" transform="translate(88,335)"/>
<path d="M0 0 C5.23272633 1.63958758 10.15196636 3.38952035 15 6 C13.625 8.5 13.625 8.5 11 11 C5.11424111 12.05431855 -0.43429318 10.93589802 -6 9 C-4.68775452 5.06326356 -3.08089673 2.77280706 0 0 Z " fill="#D17D22" transform="translate(339,482)"/>
<path d="M0 0 C5.28 1.65 10.56 3.3 16 5 C16 5.33 16 5.66 16 6 C10.98391475 7.0176403 6.21391694 7.11856434 1.125 7.0625 C0.34125 7.05798828 -0.4425 7.05347656 -1.25 7.04882812 C-3.16670014 7.03714093 -5.08336048 7.01920908 -7 7 C-6.21625 6.401875 -5.4325 5.80375 -4.625 5.1875 C-1.85425677 3.08914751 -1.85425677 3.08914751 0 0 Z " fill="#E49A4B" transform="translate(354,487)"/>
<path d="M0 0 C0.66 0 1.32 0 2 0 C0.46356148 3.68069887 -1.78150945 5.98775204 -4.625 8.75 C-5.85089844 9.94882813 -5.85089844 9.94882813 -7.1015625 11.171875 C-7.72804687 11.77515625 -8.35453125 12.3784375 -9 13 C-10 11 -10 11 -9.4375 7.5 C-8 4 -8 4 -5 2.6875 C-3.515 2.3471875 -3.515 2.3471875 -2 2 C-1.34 1.34 -0.68 0.68 0 0 Z " fill="#763717" transform="translate(136,139)"/>
<path d="M0 0 C0.66 0.33 1.32 0.66 2 1 C-3.94 6.94 -9.88 12.88 -16 19 C-16 13.49581073 -10.69222469 9.76817235 -7 6 C-4.72454022 3.90179524 -2.40856363 1.94734932 0 0 Z " fill="#E9A649" transform="translate(375,170)"/>
</svg>
