<?xml version="1.0" encoding="UTF-8"?>
<!DOCTYPE svg PUBLIC "-//W3C//DTD SVG 1.1//EN" "http://www.w3.org/Graphics/SVG/1.1/DTD/svg11.dtd">
<svg xmlns="http://www.w3.org/2000/svg" version="1.1" width="512px" height="512px" style="shape-rendering:geometricPrecision; text-rendering:geometricPrecision; image-rendering:optimizeQuality; fill-rule:evenodd; clip-rule:evenodd" xmlns:xlink="http://www.w3.org/1999/xlink">
<g><path style="opacity:0.995" fill="#f2435a" d="M 475.5,63.5 C 331.5,63.5 187.5,63.5 43.5,63.5C 43.5,44.8333 43.5,26.1667 43.5,7.5C 56.8066,12.483 70.14,17.483 83.5,22.5C 96.7136,17.5959 109.88,12.5959 123,7.5C 133.886,12.3592 144.719,17.3592 155.5,22.5C 168.714,17.5959 181.88,12.5959 195,7.5C 205.886,12.3592 216.719,17.3592 227.5,22.5C 240.714,17.5959 253.88,12.5959 267,7.5C 277.886,12.3592 288.719,17.3592 299.5,22.5C 310.167,17.5 320.833,12.5 331.5,7.5C 342.167,12.5 352.833,17.5 363.5,22.5C 376.714,17.5959 389.88,12.5959 403,7.5C 413.886,12.3592 424.719,17.3592 435.5,22.5C 448.86,17.483 462.193,12.483 475.5,7.5C 475.5,26.1667 475.5,44.8333 475.5,63.5 Z"/></g>
<g><path style="opacity:1" fill="#ffce44" d="M 43.5,63.5 C 187.5,63.5 331.5,63.5 475.5,63.5C 462.754,74.387 449.754,85.0536 436.5,95.5C 435.502,103.472 435.169,111.472 435.5,119.5C 363.596,143.69 291.596,167.69 219.5,191.5C 171.409,178.357 123.409,165.023 75.5,151.5C 75.6666,132.83 75.4999,114.164 75,95.5C 64.2979,84.9651 53.7979,74.2984 43.5,63.5 Z"/></g>
<g><path style="opacity:1" fill="#ff5665" d="M 144.5,95.5 C 194.501,95.3333 244.501,95.5 294.5,96C 306.107,101.098 310.274,109.931 307,122.5C 304.833,128.667 300.667,132.833 294.5,135C 244.5,135.667 194.5,135.667 144.5,135C 135.183,131.846 130.85,125.346 131.5,115.5C 131.058,105.629 135.391,98.9619 144.5,95.5 Z"/></g>
<g><path style="opacity:1" fill="#ff5665" d="M 435.5,119.5 C 435.167,218.169 435.5,316.836 436.5,415.5C 446.827,426.161 457.161,436.827 467.5,447.5C 323.5,447.5 179.5,447.5 35.5,447.5C 48.2458,436.613 61.2458,425.946 74.5,415.5C 75.5,327.503 75.8333,239.503 75.5,151.5C 123.409,165.023 171.409,178.357 219.5,191.5C 291.596,167.69 363.596,143.69 435.5,119.5 Z"/></g>
<g><path style="opacity:1" fill="#f3445a" d="M 344.5,183.5 C 349.28,182.641 352.78,184.308 355,188.5C 355.667,193.167 355.667,197.833 355,202.5C 352.774,206.861 349.274,208.361 344.5,207C 342.333,206.167 340.833,204.667 340,202.5C 339.333,197.833 339.333,193.167 340,188.5C 341.025,186.313 342.525,184.646 344.5,183.5 Z"/></g>
<g><path style="opacity:1" fill="#ffce43" d="M 371.5,279.5 C 364.608,279.941 358.275,282.108 352.5,286C 342.28,289.15 332.946,287.484 324.5,281C 318.475,279.128 312.475,279.128 306.5,281C 293.751,289.568 281.085,289.568 268.5,281C 262.475,279.128 256.475,279.128 250.5,281C 237.751,289.568 225.085,289.568 212.5,281C 206.5,279 200.5,279 194.5,281C 181.833,289.667 169.167,289.667 156.5,281C 153.568,280.047 150.568,279.547 147.5,279.5C 147.5,266.167 147.5,252.833 147.5,239.5C 154.392,239.941 160.725,242.108 166.5,246C 172.485,247.942 178.485,247.942 184.5,246C 197.123,237.438 209.789,237.438 222.5,246C 228.475,247.872 234.475,247.872 240.5,246C 253.085,237.432 265.751,237.432 278.5,246C 284.475,247.872 290.475,247.872 296.5,246C 309.085,237.432 321.751,237.432 334.5,246C 340.475,247.872 346.475,247.872 352.5,246C 358.304,242.089 364.637,239.922 371.5,239.5C 371.5,252.833 371.5,266.167 371.5,279.5 Z"/></g>
<g><path style="opacity:1" fill="#f3445a" d="M 112.5,239.5 C 117.28,238.641 120.78,240.308 123,244.5C 123.667,249.167 123.667,253.833 123,258.5C 120.774,262.861 117.274,264.361 112.5,263C 110.333,262.167 108.833,260.667 108,258.5C 107.333,253.833 107.333,249.167 108,244.5C 109.025,242.313 110.525,240.646 112.5,239.5 Z"/></g>
<g><path style="opacity:1" fill="#ffbc1c" d="M 147.5,279.5 C 150.568,279.547 153.568,280.047 156.5,281C 169.167,289.667 181.833,289.667 194.5,281C 200.5,279 206.5,279 212.5,281C 225.085,289.568 237.751,289.568 250.5,281C 256.475,279.128 262.475,279.128 268.5,281C 281.085,289.568 293.751,289.568 306.5,281C 312.475,279.128 318.475,279.128 324.5,281C 332.946,287.484 342.28,289.15 352.5,286C 358.275,282.108 364.608,279.941 371.5,279.5C 371.5,292.833 371.5,306.167 371.5,319.5C 364.617,319.935 358.284,322.102 352.5,326C 346.485,327.942 340.485,327.942 334.5,326C 321.767,317.375 309.1,317.375 296.5,326C 290.475,327.872 284.475,327.872 278.5,326C 265.767,317.375 253.1,317.375 240.5,326C 234.475,327.872 228.475,327.872 222.5,326C 209.833,317.333 197.167,317.333 184.5,326C 178.5,328 172.5,328 166.5,326C 160.716,322.102 154.383,319.935 147.5,319.5C 147.5,306.167 147.5,292.833 147.5,279.5 Z"/></g>
<g><path style="opacity:1" fill="#ffce44" d="M 147.5,319.5 C 154.383,319.935 160.716,322.102 166.5,326C 172.5,328 178.5,328 184.5,326C 197.167,317.333 209.833,317.333 222.5,326C 228.475,327.872 234.475,327.872 240.5,326C 253.1,317.375 265.767,317.375 278.5,326C 284.475,327.872 290.475,327.872 296.5,326C 309.1,317.375 321.767,317.375 334.5,326C 340.485,327.942 346.485,327.942 352.5,326C 358.284,322.102 364.617,319.935 371.5,319.5C 371.5,332.833 371.5,346.167 371.5,359.5C 364.54,359.765 358.206,361.931 352.5,366C 346.475,367.872 340.475,367.872 334.5,366C 322.599,357.892 310.599,357.558 298.5,365C 287.793,369.195 277.793,367.862 268.5,361C 259.122,358.056 250.455,359.389 242.5,365C 235.927,367.725 229.26,368.059 222.5,366C 209.767,357.375 197.1,357.375 184.5,366C 178.485,367.942 172.485,367.942 166.5,366C 160.716,362.102 154.383,359.935 147.5,359.5C 147.5,346.167 147.5,332.833 147.5,319.5 Z"/></g>
<g><path style="opacity:1" fill="#f3445a" d="M 400.5,327.5 C 405.28,326.641 408.78,328.308 411,332.5C 411.667,337.167 411.667,341.833 411,346.5C 408.774,350.861 405.274,352.361 400.5,351C 398.333,350.167 396.833,348.667 396,346.5C 395.333,341.833 395.333,337.167 396,332.5C 397.025,330.313 398.525,328.646 400.5,327.5 Z"/></g>
<g><path style="opacity:1" fill="#f3445a" d="M 112.5,359.5 C 117.28,358.641 120.78,360.308 123,364.5C 123.667,369.167 123.667,373.833 123,378.5C 120.774,382.861 117.274,384.361 112.5,383C 110.333,382.167 108.833,380.667 108,378.5C 107.333,373.833 107.333,369.167 108,364.5C 109.025,362.313 110.525,360.646 112.5,359.5 Z"/></g>
<g><path style="opacity:1" fill="#f3445a" d="M 144.5,399.5 C 221.167,399.333 297.834,399.5 374.5,400C 379.535,403.013 380.702,407.18 378,412.5C 377.097,413.701 375.931,414.535 374.5,415C 297.833,415.667 221.167,415.667 144.5,415C 139.465,411.987 138.298,407.82 141,402.5C 142.145,401.364 143.312,400.364 144.5,399.5 Z"/></g>
<g><path style="opacity:0.996" fill="#f34359" d="M 35.5,447.5 C 179.5,447.5 323.5,447.5 467.5,447.5C 467.5,466.167 467.5,484.833 467.5,503.5C 454.193,498.517 440.86,493.517 427.5,488.5C 414.442,493.797 401.276,498.797 388,503.5C 377.114,498.641 366.281,493.641 355.5,488.5C 342.442,493.797 329.276,498.797 316,503.5C 305.114,498.641 294.281,493.641 283.5,488.5C 270.442,493.797 257.276,498.797 244,503.5C 233.225,498.78 222.559,493.78 212,488.5C 201.341,493.913 190.508,498.913 179.5,503.5C 168.833,498.5 158.167,493.5 147.5,488.5C 134.442,493.797 121.276,498.797 108,503.5C 97.1141,498.641 86.2808,493.641 75.5,488.5C 62.14,493.517 48.8066,498.517 35.5,503.5C 35.5,484.833 35.5,466.167 35.5,447.5 Z"/></g>
</svg>
