<?xml version="1.0" encoding="UTF-8"?>
<svg version="1.1" xmlns="http://www.w3.org/2000/svg" width="512" height="512">
<path d="M0 0 C1.18991246 -0.00709439 2.37982491 -0.01418877 3.60579532 -0.02149814 C6.90095937 -0.03604188 10.19468346 -0.02819617 13.48974168 -0.01077521 C17.04604195 0.00260316 20.60223378 -0.01283986 24.15852356 -0.02459717 C31.12183886 -0.04297418 38.08487351 -0.03446143 45.04818005 -0.01650894 C50.70686286 -0.00248314 56.36546949 0.00140991 62.02416801 -0.00195122 C62.82954158 -0.00242866 63.63491515 -0.0029061 64.46469397 -0.00339801 C66.10078313 -0.00442434 67.73687227 -0.0054797 69.37296139 -0.00656378 C83.83910542 -0.01513082 98.30511393 0.00154485 112.77122498 0.03126526 C126.81034536 0.06010805 140.84927058 0.06718369 154.88841248 0.05177307 C170.17551266 0.03501556 185.46252017 0.03097167 200.74962276 0.04848343 C202.37938653 0.05032783 204.00915032 0.05216256 205.63891411 0.0539875 C206.44079671 0.05489959 207.24267931 0.05581168 208.06886138 0.05675141 C213.72171045 0.06235921 219.3745143 0.05904742 225.02736092 0.05244255 C231.91485584 0.04471459 238.80215856 0.05144259 245.68961472 0.07661759 C249.20420929 0.08912468 252.71850445 0.09524478 256.23311043 0.08407593 C260.04100895 0.07220341 263.84838958 0.0912697 267.65625 0.11352539 C268.76985903 0.10528462 269.88346806 0.09704386 271.03082281 0.08855337 C278.5039016 0.16950088 278.5039016 0.16950088 282.42765713 2.53535557 C285.75826975 6.32986216 285.45595583 9.68220708 285.50291443 14.52272034 C285.51098618 15.30708969 285.51905792 16.09145905 285.52737427 16.89959717 C285.54121379 18.56146536 285.55193655 20.22336195 285.55979919 21.88526917 C285.57699671 24.42057044 285.62087973 26.95456223 285.6650238 29.48951721 C285.67515233 31.104742 285.68366794 32.71997788 285.69041443 34.33522034 C285.70792252 35.09059586 285.7254306 35.84597137 285.74346924 36.62423706 C285.72837717 40.3070907 285.39459832 42.42243803 283.40989685 45.56446838 C281.12120937 47.76616125 279.28237297 48.70610193 276.26463318 49.62818909 C277.26881287 50.10127502 278.27299255 50.57436096 279.30760193 51.06178284 C293.73801756 57.98419447 305.7450772 66.52375225 317.26463318 77.62818909 C318.25191052 74.21798655 319.21703921 70.81608375 320.08885193 67.37428284 C324.74236475 49.53932645 333.5914269 33.91373071 349.26463318 23.62818909 C360.92834308 17.40857782 372.73619164 15.86287514 385.76463318 18.27662659 C392.83971315 20.43231502 398.4956419 24.06898628 404.26463318 28.62818909 C405.50793396 29.56211487 405.50793396 29.56211487 406.77635193 30.51490784 C420.77535437 42.40417051 427.57980143 61.88826358 429.26463318 79.62818909 C430.64707038 102.23557433 426.12463506 124.29474779 410.95213318 141.81568909 C404.89138001 148.30426013 398.17813178 153.5906898 390.26463318 157.62818909 C389.60463318 157.62818909 388.94463318 157.62818909 388.26463318 157.62818909 C387.24917551 160.67456208 387.11043547 162.82596007 387.05931091 166.01759338 C387.03936569 167.11850815 387.01942047 168.21942291 386.99887085 169.35369873 C386.98215836 170.54127274 386.96544586 171.72884674 386.94822693 172.95240784 C386.91705528 174.77721428 386.91705528 174.77721428 386.88525391 176.6388855 C386.81978601 180.53109505 386.76088603 184.42337294 386.70213318 188.31568909 C386.65894535 190.95176391 386.61533098 193.58783178 386.5712738 196.22389221 C386.4641074 202.6919186 386.36233573 209.1600132 386.26463318 215.62818909 C387.91463318 215.62818909 389.56463318 215.62818909 391.26463318 215.62818909 C392.32005356 241.82280014 393.36077533 268.01796271 394.38478088 294.21382141 C394.87655433 306.7869344 395.3728939 319.35983906 395.87889099 331.93238831 C396.33388825 343.2398051 396.77998571 354.54753514 397.21599579 365.85570049 C397.44909119 371.89360688 397.68641624 377.93127932 397.9339447 383.96861267 C398.16754787 389.66986404 398.38965735 395.37145048 398.60317612 401.07348824 C398.68356784 403.16712458 398.76807699 405.26060766 398.85709 407.35389519 C400.03191357 435.12734177 400.03191357 435.12734177 392.26463318 444.62818909 C386.74767986 449.99995942 381.43069435 451.81080473 373.88963318 452.06568909 C365.72948869 451.83173999 360.11856912 449.89921899 354.38963318 444.00318909 C346.4862987 435.25988669 348.03710653 422.79962541 348.49119568 411.91163635 C348.55138543 410.17538919 348.61008225 408.4390897 348.66737366 406.70274448 C348.81907201 402.21617556 348.98987141 397.73054216 349.16485596 393.24482965 C349.3201282 389.17284165 349.45591838 385.10024648 349.59178162 381.02757263 C349.88883824 372.22568542 350.21374797 363.42495455 350.5446701 354.62428355 C350.67485601 351.15416466 350.80354025 347.68399064 350.93224907 344.2138167 C351.23571816 336.03196028 351.54136796 327.85018757 351.84861755 319.66847229 C352.16330852 311.28778769 352.47457686 302.90698084 352.78417778 294.52610677 C353.05336293 287.24186867 353.32442482 279.95770211 353.59701729 272.67359072 C353.75843782 268.36006603 353.91923616 264.04652081 354.07829285 259.73290825 C354.22716576 255.69815127 354.37841483 251.66348987 354.53141022 247.62888718 C354.58664409 246.16250075 354.64109136 244.69608441 354.69463348 243.22963524 C355.03190229 234.0093022 355.54619695 224.82635254 356.26463318 215.62818909 C357.91463318 215.62818909 359.56463318 215.62818909 361.26463318 215.62818909 C361.24835877 208.02884622 361.19357774 200.43047932 361.11204529 192.83155823 C361.08885145 190.24666166 361.07446637 187.66167041 361.06907654 185.07667542 C361.05979777 181.36017246 361.01882609 177.6451618 360.97166443 173.92897034 C360.9775634 172.19590385 360.9775634 172.19590385 360.98358154 170.42782593 C360.93653756 163.98296315 360.93653756 163.98296315 357.88597107 158.47242737 C355.25762427 156.62325798 352.64905228 154.83922457 349.88963318 153.19068909 C333.76126373 143.10775932 324.18466821 127.32513097 319.68650818 108.94850159 C319.17542664 106.13755311 319.03369522 103.47642388 319.26463318 100.62818909 C314.00621715 102.63966085 309.05373615 104.63499973 304.26463318 107.62818909 C303.60463318 107.62818909 302.94463318 107.62818909 302.26463318 107.62818909 C302.45799255 108.40678284 302.65135193 109.18537659 302.85057068 109.98756409 C307.32084569 129.19646861 307.56125081 148.47237017 307.53929138 168.11036682 C307.54364858 170.71288193 307.54883505 173.31539575 307.55477905 175.91790771 C307.56740905 182.20144151 307.56933495 188.48493236 307.56697879 194.76847672 C307.56518395 199.8789716 307.56696996 204.98945362 307.57120323 210.09994698 C307.57179842 210.83172987 307.57239361 211.56351276 307.57300683 212.3174709 C307.57421876 213.80472771 307.57543289 215.29198452 307.57664921 216.77924133 C307.5874774 230.664948 307.58538345 244.55063025 307.57926437 258.43633825 C307.57408673 271.11363991 307.58538138 283.79086494 307.60436258 296.46815144 C307.62376886 309.53066797 307.6319929 322.59314826 307.62823933 335.65567929 C307.62633315 342.9714413 307.62875878 350.28713794 307.64295387 357.60288811 C307.6561566 364.47560183 307.65357022 371.3481595 307.64054298 378.22087288 C307.63818264 380.73585691 307.64089236 383.25085184 307.64916611 385.76582336 C307.71544618 407.48517191 306.2487415 425.7440088 290.19041443 441.92897034 C281.33776028 450.0961052 269.15901083 456.73361638 256.82632542 456.76241016 C255.93811244 456.76686801 255.04989946 456.77132585 254.13477093 456.77591878 C253.16309804 456.77573442 252.19142514 456.77555006 251.19030762 456.77536011 C250.15475642 456.7790368 249.11920523 456.78271348 248.05227369 456.78650159 C244.57105325 456.79754295 241.08986266 456.80138309 237.60862732 456.80519104 C235.11684575 456.81145547 232.62506513 456.81810225 230.13328552 456.82510376 C222.64650421 456.84433523 215.15973082 456.85493389 207.67293206 456.86383155 C204.14359157 456.86821806 200.61425257 456.87358404 197.08491325 456.87882042 C185.3452959 456.89583352 173.60567946 456.91032535 161.86605167 456.91756916 C158.82044537 456.91947894 155.77483907 456.92139928 152.72923279 456.9233551 C151.5938307 456.92408071 151.5938307 456.92408071 150.4354912 456.92482098 C138.18718006 456.93311249 125.93896687 456.95843413 113.69069845 456.99093578 C101.10329896 457.02406369 88.51594913 457.04202321 75.92850584 457.0452134 C68.86621652 457.04737353 61.80406989 457.05604863 54.7418232 457.08167458 C48.09257165 457.10574663 41.44352984 457.10917136 34.7942276 457.09891319 C32.35987686 457.09841871 29.92551333 457.10471306 27.4912014 457.11846924 C7.38968226 457.22566232 -8.17493034 455.29659918 -23.37989807 441.01100159 C-35.82611089 428.42030537 -40.06092477 414.65347404 -39.99606323 397.24751282 C-39.99988878 396.14376477 -40.00371433 395.04001673 -40.0076558 393.90282178 C-40.01792516 390.22626732 -40.01400505 386.54987082 -40.01002502 382.87330627 C-40.01437509 380.22775257 -40.01949544 377.58221019 -40.0255127 374.93666077 C-40.03822922 368.50702936 -40.04005686 362.07743978 -40.03771243 355.64779791 C-40.03592417 350.41271333 -40.0376898 345.17764137 -40.04193687 339.94255829 C-40.04282966 338.82177111 -40.04282966 338.82177111 -40.04374048 337.67834176 C-40.04495235 336.15993919 -40.04616649 334.64153662 -40.04738285 333.12313405 C-40.05824859 318.89574368 -40.05610164 304.66837704 -40.04999801 290.44098535 C-40.04484081 277.47166832 -40.0560543 264.50242667 -40.07509623 251.53312454 C-40.09455187 238.17820808 -40.10271646 224.82332713 -40.09897298 211.46839643 C-40.09707117 203.98620198 -40.09944703 196.50407151 -40.11368752 189.02188873 C-40.12570194 182.64519337 -40.12689591 176.26860125 -40.11489735 169.89190421 C-40.10907555 166.64860591 -40.10939826 163.40553092 -40.11989975 160.16223907 C-40.16624117 144.72232402 -39.3090365 129.86144731 -36.73536682 114.62818909 C-36.5386202 113.43878094 -36.34187357 112.24937279 -36.13916492 111.02392197 C-36.00591155 110.23333012 -35.87265818 109.44273827 -35.73536682 108.62818909 C-44.93334581 102.46294937 -53.76422405 99.66320256 -64.73536682 98.62818909 C-60.89701658 82.45228448 -46.83286488 70.52605394 -33.35646057 61.94947815 C-26.40782319 57.6800605 -19.08627116 54.14227994 -11.73536682 50.62818909 C-11.07536682 50.29818909 -10.41536682 49.96818909 -9.73536682 49.62818909 C-10.68411682 49.03006409 -11.63286682 48.43193909 -12.61036682 47.81568909 C-15.73536682 45.62818909 -15.73536682 45.62818909 -17.73536682 42.62818909 C-17.9794323 39.85804586 -18.11132183 37.19078636 -18.14161682 34.41725159 C-18.15301697 33.61210114 -18.16441711 32.80695068 -18.17616272 31.97740173 C-18.1950451 30.27446231 -18.20812375 28.5714501 -18.21583557 26.86842346 C-18.23525013 24.26881388 -18.29729231 21.67236866 -18.36036682 19.07350159 C-18.37342804 17.41727033 -18.38392855 15.7610165 -18.39161682 14.10475159 C-18.41631042 13.33063934 -18.44100403 12.5565271 -18.46644592 11.75895691 C-18.43420994 7.83455011 -17.99256389 5.92928085 -15.42427158 2.92266941 C-10.81632469 -0.62351723 -5.57607212 -0.05938291 0 0 Z " fill="#69554F" transform="translate(73.73536682128906,27.371810913085938)"/>
<path d="M0 0 C1.18991246 -0.00709439 2.37982491 -0.01418877 3.60579532 -0.02149814 C6.90095937 -0.03604188 10.19468346 -0.02819617 13.48974168 -0.01077521 C17.04604195 0.00260316 20.60223378 -0.01283986 24.15852356 -0.02459717 C31.12183886 -0.04297418 38.08487351 -0.03446143 45.04818005 -0.01650894 C50.70686286 -0.00248314 56.36546949 0.00140991 62.02416801 -0.00195122 C62.82954158 -0.00242866 63.63491515 -0.0029061 64.46469397 -0.00339801 C66.10078313 -0.00442434 67.73687227 -0.0054797 69.37296139 -0.00656378 C83.83910542 -0.01513082 98.30511393 0.00154485 112.77122498 0.03126526 C126.81034536 0.06010805 140.84927058 0.06718369 154.88841248 0.05177307 C170.17551266 0.03501556 185.46252017 0.03097167 200.74962276 0.04848343 C202.37938653 0.05032783 204.00915032 0.05216256 205.63891411 0.0539875 C206.44079671 0.05489959 207.24267931 0.05581168 208.06886138 0.05675141 C213.72171045 0.06235921 219.3745143 0.05904742 225.02736092 0.05244255 C231.91485584 0.04471459 238.80215856 0.05144259 245.68961472 0.07661759 C249.20420929 0.08912468 252.71850445 0.09524478 256.23311043 0.08407593 C260.04100895 0.07220341 263.84838958 0.0912697 267.65625 0.11352539 C268.76985903 0.10528462 269.88346806 0.09704386 271.03082281 0.08855337 C278.5039016 0.16950088 278.5039016 0.16950088 282.42765713 2.53535557 C285.75826975 6.32986216 285.45595583 9.68220708 285.50291443 14.52272034 C285.51098618 15.30708969 285.51905792 16.09145905 285.52737427 16.89959717 C285.54121379 18.56146536 285.55193655 20.22336195 285.55979919 21.88526917 C285.57699671 24.42057044 285.62087973 26.95456223 285.6650238 29.48951721 C285.67515233 31.104742 285.68366794 32.71997788 285.69041443 34.33522034 C285.70792252 35.09059586 285.7254306 35.84597137 285.74346924 36.62423706 C285.72837717 40.3070907 285.39459832 42.42243803 283.40989685 45.56446838 C281.12120937 47.76616125 279.28237297 48.70610193 276.26463318 49.62818909 C277.26881287 50.10127502 278.27299255 50.57436096 279.30760193 51.06178284 C293.73801756 57.98419447 305.7450772 66.52375225 317.26463318 77.62818909 C318.25191052 74.21798655 319.21703921 70.81608375 320.08885193 67.37428284 C324.74236475 49.53932645 333.5914269 33.91373071 349.26463318 23.62818909 C360.92834308 17.40857782 372.73619164 15.86287514 385.76463318 18.27662659 C392.83971315 20.43231502 398.4956419 24.06898628 404.26463318 28.62818909 C405.50793396 29.56211487 405.50793396 29.56211487 406.77635193 30.51490784 C420.77535437 42.40417051 427.57980143 61.88826358 429.26463318 79.62818909 C430.64707038 102.23557433 426.12463506 124.29474779 410.95213318 141.81568909 C404.89138001 148.30426013 398.17813178 153.5906898 390.26463318 157.62818909 C389.60463318 157.62818909 388.94463318 157.62818909 388.26463318 157.62818909 C387.24917551 160.67456208 387.11043547 162.82596007 387.05931091 166.01759338 C387.03936569 167.11850815 387.01942047 168.21942291 386.99887085 169.35369873 C386.98215836 170.54127274 386.96544586 171.72884674 386.94822693 172.95240784 C386.91705528 174.77721428 386.91705528 174.77721428 386.88525391 176.6388855 C386.81978601 180.53109505 386.76088603 184.42337294 386.70213318 188.31568909 C386.65894535 190.95176391 386.61533098 193.58783178 386.5712738 196.22389221 C386.4641074 202.6919186 386.36233573 209.1600132 386.26463318 215.62818909 C387.91463318 215.62818909 389.56463318 215.62818909 391.26463318 215.62818909 C392.32005356 241.82280014 393.36077533 268.01796271 394.38478088 294.21382141 C394.87655433 306.7869344 395.3728939 319.35983906 395.87889099 331.93238831 C396.33388825 343.2398051 396.77998571 354.54753514 397.21599579 365.85570049 C397.44909119 371.89360688 397.68641624 377.93127932 397.9339447 383.96861267 C398.16754787 389.66986404 398.38965735 395.37145048 398.60317612 401.07348824 C398.68356784 403.16712458 398.76807699 405.26060766 398.85709 407.35389519 C400.03191357 435.12734177 400.03191357 435.12734177 392.26463318 444.62818909 C386.74767986 449.99995942 381.43069435 451.81080473 373.88963318 452.06568909 C365.72948869 451.83173999 360.11856912 449.89921899 354.38963318 444.00318909 C346.4862987 435.25988669 348.03710653 422.79962541 348.49119568 411.91163635 C348.55138543 410.17538919 348.61008225 408.4390897 348.66737366 406.70274448 C348.81907201 402.21617556 348.98987141 397.73054216 349.16485596 393.24482965 C349.3201282 389.17284165 349.45591838 385.10024648 349.59178162 381.02757263 C349.88883824 372.22568542 350.21374797 363.42495455 350.5446701 354.62428355 C350.67485601 351.15416466 350.80354025 347.68399064 350.93224907 344.2138167 C351.23571816 336.03196028 351.54136796 327.85018757 351.84861755 319.66847229 C352.16330852 311.28778769 352.47457686 302.90698084 352.78417778 294.52610677 C353.05336293 287.24186867 353.32442482 279.95770211 353.59701729 272.67359072 C353.75843782 268.36006603 353.91923616 264.04652081 354.07829285 259.73290825 C354.22716576 255.69815127 354.37841483 251.66348987 354.53141022 247.62888718 C354.58664409 246.16250075 354.64109136 244.69608441 354.69463348 243.22963524 C355.03190229 234.0093022 355.54619695 224.82635254 356.26463318 215.62818909 C357.91463318 215.62818909 359.56463318 215.62818909 361.26463318 215.62818909 C361.24835877 208.02884622 361.19357774 200.43047932 361.11204529 192.83155823 C361.08885145 190.24666166 361.07446637 187.66167041 361.06907654 185.07667542 C361.05979777 181.36017246 361.01882609 177.6451618 360.97166443 173.92897034 C360.9775634 172.19590385 360.9775634 172.19590385 360.98358154 170.42782593 C360.93653756 163.98296315 360.93653756 163.98296315 357.88597107 158.47242737 C355.25762427 156.62325798 352.64905228 154.83922457 349.88963318 153.19068909 C333.76126373 143.10775932 324.18466821 127.32513097 319.68650818 108.94850159 C319.17542664 106.13755311 319.03369522 103.47642388 319.26463318 100.62818909 C314.00621715 102.63966085 309.05373615 104.63499973 304.26463318 107.62818909 C303.60463318 107.62818909 302.94463318 107.62818909 302.26463318 107.62818909 C302.45799255 108.40678284 302.65135193 109.18537659 302.85057068 109.98756409 C304.51493834 117.13940136 305.69507255 124.2042756 306.45213318 131.50318909 C306.53576111 132.26728088 306.61938904 133.03137268 306.70555115 133.81861877 C307.47471518 141.82784936 307.26463318 149.46674573 307.26463318 157.62818909 C192.75463318 157.62818909 78.24463318 157.62818909 -39.73536682 157.62818909 C-39.73536682 133.46946816 -39.73536682 133.46946816 -38.29786682 124.69068909 C-38.16315979 123.78641174 -38.02845276 122.8821344 -37.8896637 121.95045471 C-37.22056709 117.50177827 -36.48797819 113.06348134 -35.73536682 108.62818909 C-44.93334581 102.46294937 -53.76422405 99.66320256 -64.73536682 98.62818909 C-60.89701658 82.45228448 -46.83286488 70.52605394 -33.35646057 61.94947815 C-26.40782319 57.6800605 -19.08627116 54.14227994 -11.73536682 50.62818909 C-11.07536682 50.29818909 -10.41536682 49.96818909 -9.73536682 49.62818909 C-10.68411682 49.03006409 -11.63286682 48.43193909 -12.61036682 47.81568909 C-15.73536682 45.62818909 -15.73536682 45.62818909 -17.73536682 42.62818909 C-17.9794323 39.85804586 -18.11132183 37.19078636 -18.14161682 34.41725159 C-18.15301697 33.61210114 -18.16441711 32.80695068 -18.17616272 31.97740173 C-18.1950451 30.27446231 -18.20812375 28.5714501 -18.21583557 26.86842346 C-18.23525013 24.26881388 -18.29729231 21.67236866 -18.36036682 19.07350159 C-18.37342804 17.41727033 -18.38392855 15.7610165 -18.39161682 14.10475159 C-18.41631042 13.33063934 -18.44100403 12.5565271 -18.46644592 11.75895691 C-18.43420994 7.83455011 -17.99256389 5.92928085 -15.42427158 2.92266941 C-10.81632469 -0.62351723 -5.57607212 -0.05938291 0 0 Z " fill="#EABD8C" transform="translate(73.73536682128906,27.371810913085938)"/>
<path d="M0 0 C5.60379191 4.34762895 9.51643797 9.34037749 13.1875 15.375 C13.66960937 16.15875 14.15171875 16.9425 14.6484375 17.75 C19.58566186 27.08584242 20.57846036 38.06158816 22.1875 48.375 C22.60708984 47.17617188 22.60708984 47.17617188 23.03515625 45.953125 C29.65117294 27.82821754 39.83524108 11.69432486 57.3125 2.5 C68.24187765 -2.52480675 80.70520459 -3.64380339 92.1875 0.375 C104.20849668 4.94777116 112.52777931 13.97612395 118.1875 25.375 C124.96342607 41.50815731 121.28838771 61.32561289 115.06152344 76.98510742 C111.52578598 85.38473194 106.65388993 90.97522854 100.125 97.25 C89.68741599 107.48137035 85.82119423 119.65269124 85.625 133.9375 C85.44581492 144.12450343 84.17418762 152.17258483 79.5 161.3125 C79.14478271 162.00980225 78.78956543 162.70710449 78.42358398 163.42553711 C71.61233865 176.46967153 62.09350432 185.57026046 48.0859375 190.45703125 C35.55655342 193.90485937 20.93324981 192.33842393 9.7578125 185.99609375 C7.85649951 184.84149019 6.01000457 183.64918657 4.1875 182.375 C3.58164063 182.76171875 2.97578125 183.1484375 2.3515625 183.546875 C-10.46737788 191.51433948 -22.90235918 195.73993227 -38.078125 192.7265625 C-51.19895396 188.70787928 -61.93095847 180.86763497 -68.5625 168.75 C-74.86199487 154.86975706 -77.85167561 138.67963412 -73.0625 123.875 C-72.3423369 122.02974223 -71.59309891 120.19551543 -70.8125 118.375 C-70.08193491 116.54222347 -69.35270184 114.70891526 -68.625 112.875 C-68.30144531 112.1015625 -67.97789063 111.328125 -67.64453125 110.53125 C-63.87684374 100.76710208 -64.59499655 88.38631591 -68.66015625 78.8671875 C-69.04042969 78.04476562 -69.42070313 77.22234375 -69.8125 76.375 C-70.55162891 74.60830162 -71.28104454 72.8375036 -72 71.0625 C-72.32355469 70.30324219 -72.64710937 69.54398437 -72.98046875 68.76171875 C-78.58766408 52.67722885 -74.60098013 32.94396888 -67.625 17.9375 C-61.61037933 6.82574317 -54.15469304 -0.11462281 -42.8125 -5.625 C-41.70455078 -6.16640625 -41.70455078 -6.16640625 -40.57421875 -6.71875 C-26.59901013 -12.40358062 -11.96125648 -7.99610818 0 0 Z " fill="#DDAC7A" transform="translate(186.8125,213.625)"/>
<path d="M0 0 C2.48341913 1.69572672 4.86380526 3.45221898 7.22265625 5.31640625 C8.05152344 5.93902344 8.88039063 6.56164063 9.734375 7.203125 C23.73337744 19.09238767 30.5378245 38.57648074 32.22265625 56.31640625 C33.60509345 78.92379149 29.08265813 100.98296495 13.91015625 118.50390625 C7.84940308 124.99247729 1.13615485 130.27890696 -6.77734375 134.31640625 C-7.43734375 134.31640625 -8.09734375 134.31640625 -8.77734375 134.31640625 C-9.79280141 137.36277924 -9.93154145 139.51417723 -9.98266602 142.70581055 C-10.00261124 143.80672531 -10.02255646 144.90764008 -10.04310608 146.04191589 C-10.05981857 147.2294899 -10.07653107 148.4170639 -10.09375 149.640625 C-10.12492165 151.46543144 -10.12492165 151.46543144 -10.15672302 153.32710266 C-10.22219092 157.21931221 -10.2810909 161.1115901 -10.33984375 165.00390625 C-10.38303157 167.63998107 -10.42664595 170.27604894 -10.47070312 172.91210938 C-10.57786953 179.38013576 -10.6796412 185.84823036 -10.77734375 192.31640625 C-9.12734375 192.31640625 -7.47734375 192.31640625 -5.77734375 192.31640625 C-4.72192336 218.5110173 -3.6812016 244.70617987 -2.65719604 270.90203857 C-2.1654226 283.47515156 -1.66908303 296.04805622 -1.16308594 308.62060547 C-0.70808868 319.92802226 -0.26199122 331.23575231 0.17401886 342.54391766 C0.40711426 348.58182404 0.64443932 354.61949648 0.89196777 360.65682983 C1.12557094 366.3580812 1.34768042 372.05966764 1.56119919 377.7617054 C1.64159092 379.85534174 1.72610006 381.94882483 1.81511307 384.04211235 C2.98993664 411.81555894 2.98993664 411.81555894 -4.77734375 421.31640625 C-10.29429707 426.68817659 -15.61128258 428.4990219 -23.15234375 428.75390625 C-31.31248824 428.51995715 -36.92340781 426.58743615 -42.65234375 420.69140625 C-50.55567823 411.94810385 -49.0048704 399.48784257 -48.55078125 388.59985352 C-48.4905915 386.86360635 -48.43189468 385.12730686 -48.37460327 383.39096165 C-48.22290492 378.90439272 -48.05210552 374.41875932 -47.87712097 369.93304682 C-47.72184873 365.86105882 -47.58605855 361.78846364 -47.45019531 357.71578979 C-47.15313869 348.91390258 -46.82822896 340.11317171 -46.49730682 331.31250072 C-46.36712092 327.84238183 -46.23843668 324.37220781 -46.10972786 320.90203387 C-45.80625877 312.72017744 -45.50060897 304.53840473 -45.19335938 296.35668945 C-44.87866841 287.97600485 -44.56740007 279.595198 -44.25779915 271.21432394 C-43.988614 263.93008584 -43.71755211 256.64591927 -43.44495964 249.36180788 C-43.28353911 245.04828319 -43.12274077 240.73473797 -42.96368408 236.42112541 C-42.81481117 232.38636843 -42.6635621 228.35170703 -42.51056671 224.31710434 C-42.45533284 222.85071791 -42.40088556 221.38430158 -42.34734344 219.9178524 C-42.01007464 210.69751937 -41.49577998 201.5145697 -40.77734375 192.31640625 C-39.12734375 192.31640625 -37.47734375 192.31640625 -35.77734375 192.31640625 C-35.79361816 184.71706338 -35.84839919 177.11869649 -35.92993164 169.51977539 C-35.95312548 166.93487883 -35.96751056 164.34988758 -35.97290039 161.76489258 C-35.98217916 158.04838962 -36.02315084 154.33337896 -36.0703125 150.6171875 C-36.06637985 149.46180984 -36.0624472 148.30643219 -36.05839539 147.11604309 C-36.10543937 140.67118031 -36.10543937 140.67118031 -39.15600586 135.16064453 C-41.78435266 133.31147514 -44.39292465 131.52744173 -47.15234375 129.87890625 C-64.56739072 118.99158773 -73.21455527 102.33720476 -77.79980469 82.77490234 C-78.91593166 77.59358207 -78.91593166 77.59358207 -77.77734375 75.31640625 C-73.81734375 75.31640625 -69.85734375 75.31640625 -65.77734375 75.31640625 C-70.43805385 67.57126547 -70.43805385 67.57126547 -76.27734375 60.75390625 C-78.00357506 58.79689535 -78.71763814 57.76177779 -79.06640625 55.16015625 C-78.88141012 52.44687973 -78.40048261 49.9647464 -77.77734375 47.31640625 C-77.535 46.24003906 -77.29265625 45.16367188 -77.04296875 44.0546875 C-72.50470365 26.27981588 -63.3318159 10.5240286 -47.77734375 0.31640625 C-32.8807815 -7.62710633 -14.85207939 -9.00315924 0 0 Z " fill="#F4F4F4" transform="translate(470.77734375,50.68359375)"/>
<path d="M0 0 C114.51 0 229.02 0 347 0 C347 16.76552198 341.71844039 30.41512631 329.92578125 42.30078125 C321.0731271 50.46791612 308.89437765 57.10542729 296.56169224 57.13422108 C295.67347926 57.13867892 294.78526628 57.14313676 293.87013775 57.14772969 C292.89846486 57.14754533 291.92679196 57.14736097 290.92567444 57.14717102 C289.89012324 57.15084771 288.85457205 57.1545244 287.78764051 57.1583125 C284.30642007 57.16935386 280.82522948 57.173194 277.34399414 57.17700195 C274.85221258 57.18326638 272.36043195 57.18991316 269.86865234 57.19691467 C262.38187103 57.21614615 254.89509764 57.2267448 247.40829888 57.23564246 C243.87895839 57.24002897 240.34961939 57.24539495 236.82028008 57.25063133 C225.08066272 57.26764444 213.34104629 57.28213627 201.6014185 57.28938007 C198.55581219 57.29128985 195.51020589 57.2932102 192.46459961 57.29516602 C191.32919752 57.29589163 191.32919752 57.29589163 190.17085802 57.2966319 C177.92254688 57.30492341 165.67433369 57.33024504 153.42606527 57.36274669 C140.83866578 57.3958746 128.25131595 57.41383412 115.66387266 57.41702431 C108.60158334 57.41918444 101.53943672 57.42785954 94.47719002 57.45348549 C87.82793847 57.47755754 81.17889666 57.48098228 74.52959442 57.47072411 C72.09524368 57.47022963 69.66088015 57.47652398 67.22656822 57.49028015 C47.12504908 57.59747323 31.56043648 55.66841009 16.35546875 41.3828125 C4.47481418 29.36423988 0 16.71942299 0 0 Z " fill="#F7EB7C" transform="translate(34,427)"/>
<path d="M0 0 C1.18991246 -0.00709439 2.37982491 -0.01418877 3.60579532 -0.02149814 C6.90095937 -0.03604188 10.19468346 -0.02819617 13.48974168 -0.01077521 C17.04604195 0.00260316 20.60223378 -0.01283986 24.15852356 -0.02459717 C31.12183886 -0.04297418 38.08487351 -0.03446143 45.04818005 -0.01650894 C50.70686286 -0.00248314 56.36546949 0.00140991 62.02416801 -0.00195122 C63.23222836 -0.00266738 63.23222836 -0.00266738 64.46469397 -0.00339801 C66.10078313 -0.00442434 67.73687227 -0.0054797 69.37296139 -0.00656378 C83.83910542 -0.01513082 98.30511393 0.00154485 112.77122498 0.03126526 C126.81034536 0.06010805 140.84927058 0.06718369 154.88841248 0.05177307 C170.17551266 0.03501556 185.46252017 0.03097167 200.74962276 0.04848343 C202.37938653 0.05032783 204.00915032 0.05216256 205.63891411 0.0539875 C206.44079671 0.05489959 207.24267931 0.05581168 208.06886138 0.05675141 C213.72171045 0.06235921 219.3745143 0.05904742 225.02736092 0.05244255 C231.91485584 0.04471459 238.80215856 0.05144259 245.68961472 0.07661759 C249.20420929 0.08912468 252.71850445 0.09524478 256.23311043 0.08407593 C260.04100895 0.07220341 263.84838958 0.0912697 267.65625 0.11352539 C268.76985903 0.10528462 269.88346806 0.09704386 271.03082281 0.08855337 C278.5039016 0.16950088 278.5039016 0.16950088 282.42765713 2.53535557 C285.75826975 6.32986216 285.45595583 9.68220708 285.50291443 14.52272034 C285.51098618 15.30708969 285.51905792 16.09145905 285.52737427 16.89959717 C285.54121379 18.56146536 285.55193655 20.22336195 285.55979919 21.88526917 C285.57699671 24.42057044 285.62087973 26.95456223 285.6650238 29.48951721 C285.67515233 31.104742 285.68366794 32.71997788 285.69041443 34.33522034 C285.70792252 35.09059586 285.7254306 35.84597137 285.74346924 36.62423706 C285.72822652 40.34385449 285.39521342 42.42521887 283.36302185 45.58399963 C280.29628894 48.57152199 278.65528306 48.75394499 274.48784924 48.76241016 C272.96599916 48.76909693 272.96599916 48.76909693 271.41340464 48.77591878 C269.72886013 48.77564224 269.72886013 48.77564224 268.01028442 48.77536011 C266.82378967 48.7790368 265.63729491 48.78271348 264.41484576 48.78650159 C261.11114563 48.79564025 257.80749522 48.80024069 254.50378716 48.8028909 C250.94472168 48.80678963 247.38567065 48.81636822 243.82661438 48.82510376 C235.22668651 48.8448798 226.62675745 48.85493557 218.02681252 48.86383155 C213.97941 48.86821236 209.9320088 48.87357968 205.88460732 48.87882042 C192.43452952 48.89583341 178.98445256 48.91032853 165.53436565 48.91756916 C162.04284349 48.91947913 158.55132133 48.92139945 155.05979919 48.9233551 C153.75805968 48.92408071 153.75805968 48.92408071 152.4300224 48.92482098 C138.36555838 48.93312481 124.30117932 48.95846734 110.23675241 48.99093578 C95.80527486 49.02398067 81.37384053 49.04201557 66.94232494 49.0452134 C58.83621855 49.04738083 50.73023607 49.0561634 42.62416649 49.08167458 C35.72197119 49.10334648 28.81992989 49.11144937 21.91770443 49.10170779 C18.39501218 49.09715289 14.87263789 49.09911773 11.34998894 49.11846924 C7.53317038 49.13925601 3.71679345 49.12914839 -0.10006714 49.11593628 C-1.21640465 49.12690553 -2.33274215 49.13787477 -3.48290807 49.14917642 C-10.97451823 49.08629953 -10.97451823 49.08629953 -14.90007305 46.72270489 C-19.48188328 41.49374696 -18.07870017 33.58147466 -18.14039612 26.94386292 C-18.16197938 25.19691707 -18.19608674 23.45007947 -18.24293518 21.70362854 C-18.30995553 19.18189847 -18.33739463 16.66240295 -18.35646057 14.13990784 C-18.38429123 13.36265854 -18.41212189 12.58540924 -18.4407959 11.78460693 C-18.42591436 7.84802176 -18.00102477 5.93943329 -15.4252634 2.92167759 C-10.81653507 -0.62297862 -5.57593824 -0.05938148 0 0 Z " fill="#F5F5F5" transform="translate(73.73536682128906,27.371810913085938)"/>
<path d="M0 0 C0.82612793 0.58193115 1.65225586 1.1638623 2.50341797 1.76342773 C15.29136014 10.74102779 26.83064094 13.96784085 42.5 12.5625 C52.03422105 10.62239688 59.8226914 5.88691588 67.66015625 0.31640625 C68.21388916 -0.07651611 68.76762207 -0.46943848 69.33813477 -0.87426758 C70.91190038 -1.99950884 72.47202597 -3.14375619 74.03125 -4.2890625 C82.16314136 -9.63492678 89.81533325 -11.08468419 99.4375 -10.9375 C100.94860352 -10.96070312 100.94860352 -10.96070312 102.49023438 -10.984375 C114.23065159 -10.92397414 122.69090334 -6.84140242 132 0 C146.12852006 10.01494229 158.05693964 14.51088314 175.65625 12.13671875 C184.27426561 10.28838119 191.76866181 6.22762113 198.71875 0.84375 C200.5 -0.4375 200.5 -0.4375 202.5 -0.4375 C204.56936695 7.12258727 205.88253227 14.59013447 206.6875 22.375 C206.77112793 23.14295898 206.85475586 23.91091797 206.94091797 24.70214844 C207.70660393 32.72785459 207.5 40.38707809 207.5 48.5625 C107.18 48.5625 6.86 48.5625 -96.5 48.5625 C-96.5 21.86607143 -96.5 21.86607143 -94.5 13.5625 C-93.54480469 13.34335938 -92.58960937 13.12421875 -91.60546875 12.8984375 C-78.90160166 9.84416318 -69.74188843 4.61315724 -59.36328125 -3.3828125 C-41.009803 -16.55324846 -17.21037185 -11.93387275 0 0 Z " fill="#F7EB7D" transform="translate(173.5,136.4375)"/>
<path d="M0 0 C9.95060441 8.26281753 17.46843626 18.50154495 18.83984375 31.6171875 C20.06759826 49.88377902 17.38388501 70.61724799 4.953125 85.0078125 C2.66049203 87.34629813 0.29863257 89.6057678 -2.0625 91.875 C-12.50008401 102.10637035 -16.36630577 114.27769124 -16.5625 128.5625 C-16.74168508 138.74950343 -18.01331238 146.79758483 -22.6875 155.9375 C-23.04271729 156.63480225 -23.39793457 157.33210449 -23.76391602 158.05053711 C-30.57516135 171.09467153 -40.09399568 180.19526046 -54.1015625 185.08203125 C-65.09698442 188.10774462 -80.02387794 187.60597164 -90 182 C-92.48492151 180.44747382 -94.70579246 178.83536603 -97 177 C-95.26169318 173.25595455 -92.96792576 170.23894498 -90.4375 167 C-89.0482778 165.06716912 -88.00060834 163.15515643 -87 161 C-84.27844151 162.04059589 -81.86037528 163.08643435 -79.375 164.625 C-73.40808931 167.05596361 -67.9534902 167.03850902 -61.8671875 164.8984375 C-50.21752187 159.43856915 -45.11783732 152.63000803 -40 141 C-39.62101562 140.23558594 -39.24203125 139.47117187 -38.8515625 138.68359375 C-37.63136062 134.83827865 -37.67094214 131.19781454 -37.6875 127.1875 C-37.67138672 126.41857422 -37.65527344 125.64964844 -37.63867188 124.85742188 C-37.63200805 116.96078427 -39.93185161 110.19440358 -45 104 C-51.06165971 99.56705727 -57.60082004 97.86758464 -65 99 C-73.2413604 101.93483399 -79.31924132 106.41700318 -85 113 C-89.53925629 106.19111556 -91.84086445 99.25400274 -91 91 C-89.08719649 86.04860127 -86.60435076 81.62546554 -84 77 C-81.12268087 70.75458156 -80.92309867 64.72206056 -80.81201172 57.9543457 C-80.59922658 47.60243256 -79.92537382 39.26530269 -75 30 C-74.47019531 28.9790625 -73.94039062 27.958125 -73.39453125 26.90625 C-64.71868878 11.18252635 -53.38463921 -0.31537628 -36.25 -6.3125 C-23.61634251 -9.00870739 -10.82368336 -6.98143927 0 0 Z " fill="#FDD7B1" transform="translate(289,219)"/>
<path d="M0 0 C14.19 0 28.38 0 43 0 C43 79.86 43 159.72 43 242 C28.81 242 14.62 242 0 242 C0 162.14 0 82.28 0 0 Z " fill="#54443F" transform="translate(34,185)"/>
<path d="M0 0 C11.55 0 23.1 0 35 0 C36.05487439 26.19463406 37.0961421 52.38977234 38.12014771 78.58563232 C38.61192115 91.15874531 39.10826072 103.73164997 39.61425781 116.30419922 C40.06925507 127.61161601 40.51535253 138.91934606 40.95136261 150.22751141 C41.18445801 156.26541779 41.42178307 162.30309023 41.66931152 168.34042358 C41.90291469 174.04167495 42.12502417 179.74326139 42.33854294 185.44529915 C42.41893467 187.53893549 42.50344381 189.63241858 42.59245682 191.7257061 C43.76728039 219.49915269 43.76728039 219.49915269 36 229 C30.48304668 234.37177034 25.16606117 236.18261565 17.625 236.4375 C9.46485551 236.2035509 3.85393594 234.2710299 -1.875 228.375 C-9.77833448 219.6316976 -8.22752665 207.17143632 -7.7734375 196.28344727 C-7.71324775 194.5472001 -7.65455093 192.81090061 -7.59725952 191.0745554 C-7.44556117 186.58798647 -7.27476177 182.10235307 -7.09977722 177.61664057 C-6.94450498 173.54465257 -6.8087148 169.47205739 -6.67285156 165.39938354 C-6.37579494 156.59749633 -6.05088521 147.79676546 -5.71996307 138.99609447 C-5.58977717 135.52597558 -5.46109293 132.05580156 -5.33238411 128.58562762 C-5.02891502 120.40377119 -4.72326522 112.22199848 -4.41601562 104.0402832 C-4.10132466 95.6595986 -3.79005632 87.27879175 -3.4804554 78.89791769 C-3.21127025 71.61367959 -2.94020836 64.32951302 -2.66761589 57.04540163 C-2.50619536 52.73187694 -2.34539702 48.41833172 -2.18634033 44.10471916 C-2.03746742 40.06996218 -1.88621835 36.03530078 -1.73322296 32.00069809 C-1.67798909 30.53431166 -1.62354181 29.06789533 -1.56999969 27.60144615 C-1.49600825 25.57865094 -1.41870273 23.55597781 -1.34130859 21.53330994 C-1.29928314 20.4095996 -1.25725769 19.28588926 -1.21395874 18.1281271 C-0.9004875 12.08000241 -0.43148943 6.04085203 0 0 Z " fill="#363636" transform="translate(430,243)"/>
<path d="M0 0 C0 65.34 0 130.68 0 198 C-3.96 198 -7.92 198 -12 198 C-12.00410889 196.39036377 -12.00821777 194.78072754 -12.01245117 193.12231445 C-12.03422631 187.14900715 -12.08850082 181.17636006 -12.15258789 175.20336914 C-12.17578173 172.61847258 -12.19016681 170.03348133 -12.19555664 167.44848633 C-12.20483541 163.73198337 -12.24580709 160.01697271 -12.29296875 156.30078125 C-12.2890361 155.14540359 -12.28510345 153.99002594 -12.28105164 152.79963684 C-12.32809562 146.35477406 -12.32809562 146.35477406 -15.37866211 140.84423828 C-18.00700891 138.99506889 -20.6155809 137.21103548 -23.375 135.5625 C-40.79004697 124.67518148 -49.43721152 108.02079851 -54.02246094 88.45849609 C-55.13858791 83.27717582 -55.13858791 83.27717582 -54 81 C-50.04 81 -46.08 81 -42 81 C-46.6607101 73.25485922 -46.6607101 73.25485922 -52.5 66.4375 C-54.22623131 64.4804891 -54.94029439 63.44537154 -55.2890625 60.84375 C-55.10406637 58.13047348 -54.62313886 55.64834015 -54 53 C-53.75765625 51.92363281 -53.5153125 50.84726563 -53.265625 49.73828125 C-48.7273599 31.96340963 -39.55447215 16.20762235 -24 6 C-15.61994347 1.53137943 -9.75695563 0 0 0 Z " fill="#E6E6E6" transform="translate(447,45)"/>
<path d="M0 0 C1.48762093 0.00424484 1.48762093 0.00424484 3.0052948 0.00857544 C6.16381034 0.01974446 9.32203932 0.04484323 12.48046875 0.0703125 C14.62564694 0.08034653 16.77082958 0.08947164 18.91601562 0.09765625 C24.16676396 0.11967305 29.41734588 0.15311807 34.66796875 0.1953125 C32.27188443 4.44062985 29.8909528 8.38187669 26.91796875 12.2578125 C15.52461153 27.82873404 6.8521238 46.06901203 3.66796875 65.1953125 C3.54083496 65.92733887 3.41370117 66.65936523 3.28271484 67.41357422 C0.90459104 81.3441819 0.10116817 95.07301154 -0.33203125 109.1953125 C-14.52203125 109.1953125 -28.71203125 109.1953125 -43.33203125 109.1953125 C-43.33203125 85.03659157 -43.33203125 85.03659157 -41.89453125 76.2578125 C-41.75982422 75.35353516 -41.62511719 74.44925781 -41.48632812 73.51757812 C-40.81723152 69.06890168 -40.08464262 64.63060476 -39.33203125 60.1953125 C-48.53001024 54.03007279 -57.36088848 51.23032597 -68.33203125 50.1953125 C-64.49480225 34.02413314 -50.42798957 22.07889627 -36.9465332 13.5144043 C-30.00067507 9.25223719 -22.71390873 5.63469005 -15.33203125 2.1953125 C-14.64802246 1.83574463 -13.96401367 1.47617676 -13.25927734 1.10571289 C-8.85559635 -0.2638723 -4.58376227 -0.04936415 0 0 Z " fill="#D3A06C" transform="translate(77.33203125,75.8046875)"/>
<path d="M0 0 C-1.42885893 4.43555734 -3.0877316 8.73465105 -4.8125 13.0625 C-13.78833145 36.59998077 -17.63262654 62.89192422 -18 88 C-18.02046387 89.20043945 -18.04092773 90.40087891 -18.06201172 91.63769531 C-18.66214306 130.26362654 -14.19611356 165.58829543 -1 202 C-12.75875639 202.43422291 -23.7622816 196.72677901 -32.2890625 188.8984375 C-43.45303493 177.06546297 -47.63704206 161.47631471 -47.47680664 145.5 C-47.22301341 138.83954528 -45.62634469 133.12516999 -43 127 C-42.26943491 125.16722347 -41.54020184 123.33391526 -40.8125 121.5 C-40.48894531 120.7265625 -40.16539063 119.953125 -39.83203125 119.15625 C-36.06434374 109.39210208 -36.78249655 97.01131591 -40.84765625 87.4921875 C-41.22792969 86.66976562 -41.60820313 85.84734375 -42 85 C-42.73912891 83.23330162 -43.46854454 81.4625036 -44.1875 79.6875 C-44.51105469 78.92824219 -44.83460937 78.16898437 -45.16796875 77.38671875 C-50.77516408 61.30222885 -46.78848013 41.56896888 -39.8125 26.5625 C-32.70710099 13.43557641 -22.3805947 4.72355197 -7.98046875 0.421875 C-5.28527404 -0.15224932 -2.74058777 -0.21081444 0 0 Z " fill="#E8BB8B" transform="translate(159,205)"/>
<path d="M0 0 C6.11236413 3.60147596 9.90888003 9.35591403 12.1171875 16.05859375 C14.49445804 28.42457118 12.59559407 40.20715007 5.98828125 50.9296875 C0.80286701 58.10949183 -5.75579788 64.08921193 -14.4375 66.375 C-20.49941061 66.96741399 -26.31492255 67.32257922 -31.9375 64.8125 C-38.09249825 58.8113767 -43.36763843 53.09781806 -43.8359375 44.10546875 C-43.84898742 42.59118191 -43.8405653 41.07658298 -43.8125 39.5625 C-43.80162354 38.76642334 -43.79074707 37.97034668 -43.77954102 37.15014648 C-43.4609153 25.36820919 -39.60567137 15.3748585 -31.00390625 7.0078125 C-22.01593099 -0.46164639 -11.48136108 -5.19705549 0 0 Z " fill="#E48E66" transform="translate(274.4375,234.625)"/>
<path d="M0 0 C1.68526291 0.01061211 1.68526291 0.01061211 3.40457153 0.0214386 C6.98133854 0.04935318 10.55652126 0.11209058 14.1328125 0.17578125 C16.56247734 0.20086772 18.9921668 0.22368027 21.421875 0.24414062 C27.36828395 0.29491256 33.31128202 0.39278023 39.2578125 0.48828125 C39.2578125 15.99828125 39.2578125 31.50828125 39.2578125 47.48828125 C32.08588345 47.72300821 24.91585012 47.945185 17.74291992 48.13525391 C15.30324777 48.20369382 12.86377035 48.27948774 10.42456055 48.36279297 C6.91740805 48.48129232 3.41040465 48.57328816 -0.09765625 48.66015625 C-1.73229073 48.72393463 -1.73229073 48.72393463 -3.39994812 48.78900146 C-10.98394979 48.94000729 -10.98394979 48.94000729 -14.9074707 46.60253906 C-19.47510331 41.33897308 -18.08532735 33.46238472 -18.1472168 26.80395508 C-18.16880006 25.05700923 -18.20290742 23.31017163 -18.24975586 21.5637207 C-18.31677621 19.04199063 -18.34421531 16.52249511 -18.36328125 14 C-18.39111191 13.2227507 -18.41894257 12.4455014 -18.44761658 11.6446991 C-18.432494 7.64435298 -17.88812981 5.67832625 -15.43725586 2.48681641 C-10.81155693 -0.7285248 -5.40772174 -0.1286692 0 0 Z " fill="#E6E6E6" transform="translate(73.7421875,27.51171875)"/>
<path d="M0 0 C6.16058694 3.11414285 8.97626812 7.77916459 11.77734375 13.8984375 C14.90784586 24.8221905 13.63945699 36.69828167 8.6796875 46.76953125 C2.90334457 56.27025134 -4.67944329 63.23054263 -15.22265625 66.8984375 C-22.26145152 67.91159743 -27.45308177 66.89357683 -33.54296875 63.28515625 C-35.22265625 61.8984375 -35.22265625 61.8984375 -36.22265625 58.8984375 C-35.69921875 56.91796875 -35.69921875 56.91796875 -34.84765625 54.7109375 C-32.25191535 47.97899265 -32.0125062 40.84988966 -31.97265625 33.7109375 C-31.95912109 32.60890991 -31.95912109 32.60890991 -31.9453125 31.48461914 C-31.97077011 26.59622746 -32.75451709 22.53617408 -34.22265625 17.8359375 C-35.57996789 12.62749762 -35.57996789 12.62749762 -34.0625 9.53125 C-25.12828452 -0.19181818 -12.42999665 -5.36582033 0 0 Z " fill="#E48E66" transform="translate(239.22265625,319.1015625)"/>
<path d="M0 0 C14.19 0 28.38 0 43 0 C43.495 5.445 43.495 5.445 44 11 C47.77136911 26.83351658 55.44442503 39.2078239 69.0625 48.1875 C75.76753384 52.20272375 82.39348252 54.26658072 90 56 C90 56.33 90 56.66 90 57 C83.97180865 57.09983628 77.94411212 57.17192045 71.9152832 57.21972656 C69.86995038 57.2396826 67.82467342 57.26685738 65.77954102 57.30175781 C46.20718493 57.62708664 31.11709689 55.25187708 16.35546875 41.3828125 C4.47481418 29.36423988 0 16.71942299 0 0 Z " fill="#D7BE69" transform="translate(34,427)"/>
<path d="M0 0 C3.45103978 1.26699013 6.26386587 2.74046709 9.25 4.875 C19.7018499 11.87705631 26.19152267 12.37547325 40 14 C39.34 25.55 38.68 37.1 38 49 C23.81 49 9.62 49 -5 49 C-5 24.7421875 -5 24.7421875 -3.625 16.0625 C-3.49867187 15.15822266 -3.37234375 14.25394531 -3.2421875 13.32226562 C-2.56235476 8.68920547 -1.66752145 4.40080661 0 0 Z " fill="#D7BE69" transform="translate(39,136)"/>
<path d="M0 0 C0.33 0 0.66 0 1 0 C1.89000593 10.84488709 0.42764452 18.56386572 -5 28 C-7.203125 30.3984375 -7.203125 30.3984375 -9 32 C-9.23573348 26.84005612 -8.59130747 23.06402073 -6.75 18.25 C-6.29753906 17.04601562 -5.84507812 15.84203125 -5.37890625 14.6015625 C-4.92386719 13.41304688 -4.46882812 12.22453125 -4 11 C-3.22530809 8.87640365 -2.45404707 6.75154993 -1.6875 4.625 C-1.12542394 3.08317872 -0.56310022 1.54144753 0 0 Z " fill="#745E55" transform="translate(207,277)"/>
</svg>
