<?xml version="1.0" encoding="UTF-8"?>
<svg version="1.1" xmlns="http://www.w3.org/2000/svg" width="512" height="512">
<path d="M0 0 C1.06805878 -0.01283524 2.13611755 -0.02567047 3.23654175 -0.03889465 C4.97401169 -0.04997505 4.97401169 -0.04997505 6.74658203 -0.0612793 C8.52598679 -0.07338692 8.52598679 -0.07338692 10.34133911 -0.08573914 C12.85482314 -0.09958762 15.36832604 -0.11030634 17.88183594 -0.11816406 C21.73164303 -0.13539621 25.58059592 -0.17927942 29.43017578 -0.22338867 C31.86897153 -0.23351352 34.3077746 -0.24203027 36.74658203 -0.2487793 C37.90084686 -0.26628738 39.05511169 -0.28379547 40.24435425 -0.30183411 C41.8558989 -0.29744576 41.8558989 -0.29744576 43.5 -0.29296875 C44.44438934 -0.29883499 45.38877869 -0.30470123 46.36178589 -0.31074524 C49.63614435 0.32361036 50.81189863 1.61691184 52.87939453 4.17700195 C54.0763534 7.84457327 53.84968599 10.90971508 53.32080078 14.6965332 C53.18222656 15.71811523 53.04365234 16.73969727 52.90087891 17.79223633 C52.74941406 18.84733398 52.59794922 19.90243164 52.44189453 20.98950195 C52.22049805 22.60115234 52.22049805 22.60115234 51.99462891 24.24536133 C51.63020825 26.89034997 51.25822987 29.53404597 50.87939453 32.17700195 C51.58966797 32.16540039 52.29994141 32.15379883 53.03173828 32.1418457 C53.95083984 32.13282227 54.86994141 32.12379883 55.81689453 32.11450195 C56.73341797 32.10290039 57.64994141 32.09129883 58.59423828 32.0793457 C60.87939453 32.17700195 60.87939453 32.17700195 61.87939453 33.17700195 C61.97856024 34.7995774 62.0101923 36.42640027 62.01220703 38.05200195 C62.01349609 39.0368457 62.01478516 40.02168945 62.01611328 41.03637695 C62.01224609 42.0727832 62.00837891 43.10918945 62.00439453 44.17700195 C62.00826172 45.2134082 62.01212891 46.24981445 62.01611328 47.31762695 C62.01417969 48.79489258 62.01417969 48.79489258 62.01220703 50.30200195 C62.0110791 51.21208008 62.00995117 52.1221582 62.00878906 53.05981445 C61.87939453 55.17700195 61.87939453 55.17700195 60.87939453 56.17700195 C58.5464202 56.21793133 56.21234229 56.21941919 53.87939453 56.17700195 C53.97241961 62.66935284 54.07981367 69.16135696 54.19677734 75.65332031 C54.23484775 77.85769383 54.26973712 80.06212483 54.30126953 82.26660156 C54.34740029 85.45178657 54.40531136 88.63658315 54.46533203 91.8215332 C54.48265884 93.27847343 54.48265884 93.27847343 54.50033569 94.7648468 C54.74766758 106.46748092 56.23894773 117.69344476 64.28955078 126.74731445 C69.43387088 131.37341066 75.96274249 134.24427096 82.12939453 137.23950195 C91.64199616 141.97147387 96.66329433 147.81778437 100.94415569 157.61343384 C102.27646689 162.68997848 102.15806768 167.56413103 102.14009094 172.79174805 C102.14391649 173.96870428 102.14774204 175.14566051 102.15168351 176.35828209 C102.16020789 179.61684233 102.15978323 182.87525837 102.15550292 186.13382244 C102.15303467 189.65125907 102.162051 193.16866926 102.16954041 196.68609619 C102.18228605 203.57345934 102.18408132 210.4607835 102.18174014 217.34815645 C102.17995691 222.9457928 102.18170673 228.54341731 102.18596458 234.14105225 C102.18655977 234.93781101 102.18715496 235.73456977 102.18776819 236.55547273 C102.18897994 238.17408514 102.19019407 239.79269755 102.19141056 241.41130996 C102.20228529 256.58816822 102.20012375 271.76500426 102.19402572 286.94186378 C102.1888549 300.82755576 102.20011646 314.71317762 102.21912394 328.59885573 C102.23849245 342.85757777 102.24676018 357.11626662 102.24300069 371.37500191 C102.24108736 379.37988722 102.24358911 387.38471282 102.25771523 395.3895874 C102.26961732 402.20308091 102.27104701 409.01647794 102.25892506 415.82997274 C102.2530285 419.30617789 102.25195827 422.78220648 102.26392746 426.25839996 C102.27433658 430.0265169 102.26634064 433.79415643 102.25361633 437.56225586 C102.26099062 438.6612792 102.2683649 439.76030254 102.27596265 440.89262962 C102.22588966 447.92055186 101.31948381 452.33023113 96.62939453 457.80200195 C89.2014048 464.217084 83.87606564 464.75754217 74.24633789 464.67871094 C72.35731499 464.68681541 72.35731499 464.68681541 70.43013 464.69508362 C66.99205767 464.7089896 63.5544885 464.69790391 60.11644435 464.6813724 C56.51045176 464.66747261 52.90448692 464.67398746 49.29847717 464.67750549 C43.2452081 464.68020339 37.19213779 464.66676719 31.13891602 464.64355469 C24.14909166 464.61693544 17.15959926 464.61520317 10.16974157 464.62694305 C3.43303442 464.63773593 -3.30355311 464.63152273 -10.04025078 464.61738777 C-12.90176675 464.61164224 -15.76319478 464.61169929 -18.62471199 464.61645317 C-22.62230514 464.62212783 -26.61940577 464.60287099 -30.61694336 464.58105469 C-31.7999704 464.58555634 -32.98299744 464.59005798 -34.20187378 464.59469604 C-41.48652071 464.52862131 -46.07086165 463.79106808 -51.74560547 458.92700195 C-56.92233041 452.93289939 -58.73099279 448.60200423 -58.51123047 440.8371582 C-58.50557068 440.07020126 -58.49991089 439.30324432 -58.49407959 438.51304626 C-58.47187041 436.08786882 -58.42170809 433.66422501 -58.37060547 431.23950195 C-58.35052027 429.58522657 -58.33227305 427.93092779 -58.31591797 426.27661133 C-58.27205706 422.24282647 -58.20314184 418.21017329 -58.12060547 414.17700195 C-58.89017578 413.89985352 -59.65974609 413.62270508 -60.45263672 413.3371582 C-63.12060547 412.17700195 -63.12060547 412.17700195 -65.80810547 409.61450195 C-69.79738778 406.14556081 -74.03400013 406.31996867 -79.12060547 406.17700195 C-79.95076172 406.08032227 -80.78091797 405.98364258 -81.63623047 405.8840332 C-86.69227093 405.4626965 -89.54578288 406.11550374 -93.60498047 409.2043457 C-99.07477686 413.20158235 -104.77272637 416.69392025 -110.58407593 420.17010498 C-113.67618894 422.02100989 -116.76005189 423.88553301 -119.84326172 425.7512207 C-120.4617952 426.1254718 -121.08032867 426.4997229 -121.71760559 426.88531494 C-132.51087249 433.43131021 -143.14183568 440.24719481 -153.69482422 447.1730957 C-160.60699814 451.70771081 -167.55700066 456.17184057 -174.68310547 460.36450195 C-175.31394043 460.75162354 -175.94477539 461.13874512 -176.59472656 461.53759766 C-181.2980602 464.23705936 -184.71505247 464.54135414 -190.12060547 464.17700195 C-189.79060547 461.20700195 -189.46060547 458.23700195 -189.12060547 455.17700195 C-189.81025391 455.21180664 -190.49990234 455.24661133 -191.21044922 455.2824707 C-199.56139982 455.52303307 -207.33237338 454.73171186 -213.77294922 448.8293457 C-220.15841543 441.00020887 -221.85839376 432.00051636 -221.12060547 422.17700195 C-219.8159102 413.78493663 -217.01442261 407.09087138 -212.12060547 400.17700195 C-211.66814453 399.52860352 -211.21568359 398.88020508 -210.74951172 398.2121582 C-205.84850652 391.86723079 -198.00153521 386.7531879 -190.12060547 385.17700195 C-186.11426556 385.0324433 -182.12727763 385.06030276 -178.12060547 385.17700195 C-177.96591797 383.56825195 -177.96591797 383.56825195 -177.80810547 381.92700195 C-175.13002973 361.57362633 -165.78796923 347.06949202 -150.12060547 334.17700195 C-151.01362203 333.1121334 -151.91020017 332.05025154 -152.80810547 330.98950195 C-153.55640625 330.10198242 -153.55640625 330.10198242 -154.31982422 329.1965332 C-154.91408203 328.53008789 -155.50833984 327.86364258 -156.12060547 327.17700195 C-156.87212891 326.25661133 -157.62365234 325.3362207 -158.39794922 324.38793945 C-160.95562141 321.84408177 -160.95562141 321.84408177 -164.36279297 322.1340332 C-178.34644483 325.42695767 -198.64821823 330.4684211 -207.12060547 343.17700195 C-207.0300746 345.13945892 -207.0300746 345.13945892 -206.55810547 347.23950195 C-205.46951551 355.43047761 -208.61938874 362.48470326 -213.32373047 369.07543945 C-220.69890444 377.7011864 -230.8593847 383.09579169 -242.12060547 384.17700195 C-249.02165651 384.26362602 -255.50274235 383.44453969 -261.12060547 379.17700195 C-266.45564634 373.33639611 -267.48806869 368.11394918 -267.39404297 360.30981445 C-266.58477424 351.03790706 -260.90212768 344.56344076 -254.27685547 338.4855957 C-245.69068122 331.46534258 -236.6255893 329.50221175 -225.67138672 329.77075195 C-220.93964173 330.31211772 -217.17418008 331.71629541 -213.12060547 334.17700195 C-212.58435547 333.69231445 -212.04810547 333.20762695 -211.49560547 332.70825195 C-199.38371497 322.34939824 -184.735587 316.11730012 -169.12060547 313.17700195 C-171.34486367 309.23956105 -173.91911179 305.83966826 -176.80810547 302.36450195 C-177.61634766 301.38868164 -178.42458984 300.41286133 -179.25732422 299.4074707 C-179.87220703 298.67141602 -180.48708984 297.93536133 -181.12060547 297.17700195 C-191.82862808 298.409733 -201.6503004 301.76163903 -211.80810547 305.17700195 C-215.38572683 306.36608764 -218.96569012 307.54799361 -222.54638672 308.7277832 C-223.44095581 309.02308426 -224.3355249 309.31838531 -225.25720215 309.62263489 C-232.94861071 312.14899815 -240.69029663 314.47782843 -248.45605469 316.76303101 C-267.31844398 322.32561825 -286.23167279 328.41029673 -303.48388672 337.99731445 C-306.27609255 339.24656803 -308.09951345 339.43013535 -311.12060547 339.17700195 C-313.47293818 334.74908155 -313.33960376 330.92563709 -312.12060547 326.17700195 C-307.2434453 314.79696157 -296.36562209 308.79922962 -285.43945312 304.09985352 C-260.55977816 294.19827725 -232.4344164 291.30447477 -205.85473633 290.60595703 C-199.76889725 290.40751194 -194.05290381 289.54532073 -188.12060547 288.17700195 C-188.9744529 286.92027458 -189.82871114 285.66382633 -190.68310547 284.4074707 C-191.22741211 283.60591553 -191.77171875 282.80436035 -192.33251953 281.97851562 C-193.53313626 280.22332675 -194.74359599 278.47483385 -195.96337891 276.73291016 C-198.49574013 273.10776678 -200.89151392 269.63113033 -202.88623047 265.67700195 C-205.02187718 261.63051344 -206.99695122 259.01121217 -211.36425781 257.2956543 C-217.58898621 255.4246709 -223.95947953 254.25543716 -230.32958984 252.99731445 C-236.52126185 251.65753999 -242.58625103 249.89087288 -248.67675781 248.15637207 C-261.22597113 244.59788667 -273.74198054 241.5842294 -286.640625 239.56665039 C-289.2507403 239.15655549 -291.85555469 238.72055532 -294.46044922 238.27856445 C-298.67824326 237.56365697 -302.89835364 236.86507262 -307.12060547 236.17700195 C-307.45060547 234.52700195 -307.78060547 232.87700195 -308.12060547 231.17700195 C-300.65779169 224.41382697 -291.58661321 222.86254567 -281.74169922 223.02856445 C-259.51888953 224.28708423 -239.59609981 232.99885416 -220.12060547 243.17700195 C-220.14123047 242.20762695 -220.16185547 241.23825195 -220.18310547 240.23950195 C-220.12060547 237.17700195 -220.12060547 237.17700195 -219.12060547 236.17700195 C-219.06883088 233.3809826 -219.07928549 230.60851693 -219.12841797 227.8137207 C-219.14599002 226.03963843 -219.16289264 224.26554943 -219.17919922 222.49145508 C-219.20966534 219.71009189 -219.24450282 216.9290763 -219.29199219 214.14794922 C-219.66353675 191.16854419 -218.4138645 162.71961339 -201.49560547 145.11450195 C-198.41099122 142.15298264 -195.71979878 140.24969256 -191.37060547 140.05200195 C-190.62810547 140.09325195 -189.88560547 140.13450195 -189.12060547 140.17700195 C-188.95405468 144.98846923 -189.37842514 148.83265345 -190.84326172 153.41137695 C-191.21354492 154.60738525 -191.58382812 155.80339355 -191.96533203 157.03564453 C-192.16388794 157.66789948 -192.36244385 158.30015442 -192.5670166 158.9515686 C-196.82962392 172.61923426 -200.11807637 186.36064342 -202.68994141 200.44189453 C-202.95710784 201.90309193 -203.22435956 203.36427374 -203.49169922 204.82543945 C-203.62101837 205.53667465 -203.75033752 206.24790985 -203.88357544 206.98069763 C-204.74109989 211.55736083 -205.85660235 215.98974074 -207.15576172 220.46606445 C-210.75927064 232.6929212 -210.75927064 232.6929212 -207.72998047 244.62231445 C-204.89418779 249.02724851 -201.59790415 252.95698165 -198.1171875 256.86303711 C-194.97521537 260.50446678 -192.32440438 264.45613983 -189.62060547 268.42700195 C-185.89253373 273.75806085 -182.04836071 278.99140537 -178.12060547 284.17700195 C-178.54173763 280.17624646 -179.01378642 276.55086864 -180.12060547 272.67700195 C-187.70074873 246.14650055 -177.59268993 216.02813816 -164.68310547 192.73950195 C-161.05930487 186.39304531 -157.00460575 180.63264087 -152.12060547 175.17700195 C-151.52376953 174.47575195 -150.92693359 173.77450195 -150.31201172 173.05200195 C-147.51433972 169.96147787 -145.45071675 167.87071685 -141.24560547 167.17700195 C-140.21435547 167.17700195 -139.18310547 167.17700195 -138.12060547 167.17700195 C-137.12060547 168.17700195 -137.12060547 168.17700195 -136.91357422 172.12231445 C-136.98246399 177.34765506 -138.0529645 182.03235452 -139.43310547 187.05200195 C-139.8241748 188.51536987 -139.8241748 188.51536987 -140.22314453 190.00830078 C-142.89755884 199.78372032 -145.99025831 209.42680183 -149.07876587 219.07723999 C-153.35366083 232.44426912 -157.2029092 245.90278927 -160.85986328 259.45117188 C-161.24830017 260.88467348 -161.63727791 262.31802867 -162.02685547 263.7512207 C-162.21036057 264.42707718 -162.39386566 265.10293365 -162.58293152 265.79927063 C-163.50957907 269.15685959 -164.52094832 272.42249237 -165.81201172 275.6574707 C-168.32722333 282.42226374 -169.69242264 290.02722543 -168.12060547 297.17700195 C-165.57992264 302.14685348 -161.62292636 305.95754143 -157.59179688 309.74194336 C-155.55762218 311.72615824 -153.83723587 313.91739844 -152.12060547 316.17700195 C-150.69180399 310.90829648 -150.05838246 306.5121619 -150.30810547 301.05200195 C-150.5987796 280.26880126 -135.91102362 261.12533473 -122.48779297 246.6105957 C-111.65461635 235.47351809 -92.01406923 216.88892661 -75.07763672 216.0793457 C-74.36994141 216.09094727 -73.66224609 216.10254883 -72.93310547 216.11450195 C-71.67498047 216.13512695 -70.41685547 216.15575195 -69.12060547 216.17700195 C-68.34966897 218.44300235 -67.99266392 219.75733858 -68.70019531 222.078125 C-71.2267242 226.90623467 -74.11380198 230.93673011 -77.74560547 234.98950195 C-78.27049561 235.58843262 -78.79538574 236.18736328 -79.33618164 236.80444336 C-83.46761549 241.50058762 -87.6736493 246.13082081 -91.89794922 250.7434082 C-105.45172822 265.58348609 -118.47881536 281.06100517 -131.05029297 296.73950195 C-133.12060547 299.17700195 -133.12060547 299.17700195 -135.69482422 301.3605957 C-139.08773085 305.29986411 -139.90965336 309.24607539 -141.05810547 314.23950195 C-141.29078125 315.13733398 -141.52345703 316.03516602 -141.76318359 316.96020508 C-143.09585765 321.65781443 -143.09585765 321.65781443 -142.29663086 326.30493164 C-140.65874746 328.91221623 -138.69138813 331.08865802 -136.62060547 333.36450195 C-135.42951172 334.68514648 -135.42951172 334.68514648 -134.21435547 336.0324707 C-132.30704457 338.2202703 -132.30704457 338.2202703 -130.12060547 339.17700195 C-129.76869141 338.28239258 -129.41677734 337.3877832 -129.05419922 336.46606445 C-118.62435465 310.92247644 -98.5648245 294.32535433 -74.12060547 282.67700195 C-73.43933594 282.35086914 -72.75806641 282.02473633 -72.05615234 281.6887207 C-67.47802117 279.58537598 -63.0128853 278.38035371 -58.12060547 277.17700195 C-58.12429264 276.58838694 -58.12797981 275.99977192 -58.13177872 275.39332008 C-58.22031906 261.03612877 -58.28640682 246.67896191 -58.32785416 232.321558 C-58.3484333 225.37825304 -58.37646413 218.43513092 -58.42236328 211.49194336 C-58.46666241 204.78756582 -58.48976388 198.08341718 -58.50011444 191.37888718 C-58.50748789 188.82490429 -58.52188642 186.27093143 -58.5435257 183.71702957 C-58.57269055 180.13135851 -58.57655584 176.54646453 -58.57470703 172.96069336 C-58.58908813 171.91196045 -58.60346924 170.86322754 -58.61828613 169.78271484 C-58.55811442 158.95147519 -54.8344132 149.86119813 -47.12060547 142.17700195 C-42.10387422 138.42966891 -36.47748305 135.85193661 -30.87060547 133.11450195 C-22.44945364 128.93088235 -18.23893484 124.67885615 -14.12060547 116.17700195 C-13.70810547 115.33137695 -13.29560547 114.48575195 -12.87060547 113.61450195 C-10.74407376 106.7032739 -10.92554888 99.27950677 -10.80419922 92.11450195 C-10.77302757 90.56666016 -10.77302757 90.56666016 -10.7412262 88.98754883 C-10.67626442 85.71742899 -10.61709582 82.44723441 -10.55810547 79.17700195 C-10.5148694 76.94912989 -10.47125355 74.72126516 -10.42724609 72.4934082 C-10.32063836 67.05468329 -10.21877662 61.61588535 -10.12060547 56.17700195 C-11.82216797 56.20793945 -11.82216797 56.20793945 -13.55810547 56.23950195 C-17.12060547 56.17700195 -17.12060547 56.17700195 -18.12060547 55.17700195 C-18.21977117 53.55442651 -18.25140324 51.92760364 -18.25341797 50.30200195 C-18.25470703 49.3171582 -18.25599609 48.33231445 -18.25732422 47.31762695 C-18.25345703 46.2812207 -18.24958984 45.24481445 -18.24560547 44.17700195 C-18.24947266 43.1405957 -18.25333984 42.10418945 -18.25732422 41.03637695 C-18.25539063 39.55911133 -18.25539063 39.55911133 -18.25341797 38.05200195 C-18.25229004 37.14192383 -18.25116211 36.2318457 -18.25 35.29418945 C-18.12060547 33.17700195 -18.12060547 33.17700195 -17.12060547 32.17700195 C-15.43451581 32.10494684 -13.74559888 32.09314128 -12.05810547 32.11450195 C-11.13900391 32.12352539 -10.21990234 32.13254883 -9.27294922 32.1418457 C-8.56267578 32.15344727 -7.85240234 32.16504883 -7.12060547 32.17700195 C-7.22719482 31.45109863 -7.33378418 30.72519531 -7.44360352 29.97729492 C-7.9178842 26.67131837 -8.3632252 23.3620576 -8.80810547 20.05200195 C-8.97632813 18.90989258 -9.14455078 17.7677832 -9.31787109 16.59106445 C-10.71273017 5.92814172 -10.71273017 5.92814172 -7.12060547 1.17700195 C-4.59843078 -0.08408539 -2.82320056 0.02947839 0 0 Z M-89.44067383 320.83300781 C-98.38614467 326.74616171 -107.40150375 332.5340744 -116.74560547 337.80200195 C-120.22519763 339.99149109 -121.92044308 342.14788536 -123.12060547 346.17700195 C-121.78907193 350.12167006 -118.91040364 352.61935946 -115.99560547 355.48950195 C-115.50640625 355.97153076 -115.01720703 356.45355957 -114.51318359 356.95019531 C-109.66150791 361.69484874 -104.7783983 366.40514006 -99.12060547 370.17700195 C-98.79189453 369.2334082 -98.79189453 369.2334082 -98.45654297 368.27075195 C-94.5153992 357.63286796 -89.1327964 350.768996 -79.12060547 345.17700195 C-72.22085001 342.2106504 -65.69488217 341.86557256 -58.12060547 341.17700195 C-58.12060547 328.30700195 -58.12060547 315.43700195 -58.12060547 302.17700195 C-67.44016835 302.17700195 -81.70589021 315.7137787 -89.44067383 320.83300781 Z M-154.12060547 350.17700195 C-161.92212099 358.65106191 -165.80452794 368.05418505 -168.49560547 379.11450195 C-168.67567139 379.84862305 -168.8557373 380.58274414 -169.04125977 381.33911133 C-170.24298696 386.33352292 -170.24298696 386.33352292 -169.12060547 391.17700195 C-167.78612172 393.07932705 -167.78612172 393.07932705 -166.18310547 394.92700195 C-159.91197582 403.15316003 -160.88988656 412.33299538 -161.12060547 422.17700195 C-157.66990275 420.17168792 -154.38582401 417.99127534 -151.11035156 415.71264648 C-136.67261907 405.75858792 -119.98967964 397.50050718 -102.16357422 396.8605957 C-101.05175781 396.81870117 -99.93994141 396.77680664 -98.79443359 396.73364258 C-97.64394531 396.69432617 -96.49345703 396.65500977 -95.30810547 396.61450195 C-93.55336914 396.54972656 -93.55336914 396.54972656 -91.76318359 396.48364258 C-88.88243516 396.37781917 -86.00160424 396.2757337 -83.12060547 396.17700195 C-86.67232977 392.526801 -90.38910005 389.18142181 -94.30810547 385.92700195 C-99.15042525 381.86764603 -103.91007006 377.73824139 -108.58032227 373.48046875 C-110.17540659 372.03408523 -111.77802361 370.59592093 -113.39135742 369.16992188 C-120.41073779 362.95233836 -126.9955464 356.35974813 -133.546875 349.65478516 C-134.92128972 348.25038921 -136.30208999 346.8522513 -137.68310547 345.4543457 C-138.48876953 344.63184326 -139.29443359 343.80934082 -140.12451172 342.96191406 C-145.19548511 338.42743676 -150.42435005 346.5417958 -154.12060547 350.17700195 Z M-83.58935547 358.4152832 C-88.38861092 363.93687558 -90.70396539 370.09380155 -92.12060547 377.17700195 C-89.04556164 379.70863887 -85.96365711 382.23170194 -82.87548828 384.74731445 C-81.66834983 385.73075947 -80.46201432 386.71519063 -79.25634766 387.70043945 C-77.31917727 389.28084026 -75.37670083 390.85451222 -73.43310547 392.42700195 C-72.82845459 392.92167969 -72.22380371 393.41635742 -71.60083008 393.92602539 C-67.23934675 397.44070469 -62.94498746 400.16176321 -58.12060547 403.17700195 C-58.12060547 385.68700195 -58.12060547 368.19700195 -58.12060547 350.17700195 C-68.59246856 350.17700195 -75.86142612 351.17946256 -83.58935547 358.4152832 Z " fill="#DDB789" transform="translate(361.12060546875,23.822998046875)"/>
<path d="M0 0 C0.16655079 4.81146728 -0.25781967 8.6556515 -1.72265625 13.234375 C-2.09293945 14.4303833 -2.46322266 15.6263916 -2.84472656 16.85864258 C-3.04328247 17.49089752 -3.24183838 18.12315247 -3.44641113 18.77456665 C-7.70901845 32.44223231 -10.9974709 46.18364146 -13.56933594 60.26489258 C-13.83650238 61.72608998 -14.10375409 63.18727178 -14.37109375 64.6484375 C-14.5004129 65.3596727 -14.62973206 66.0709079 -14.76296997 66.80369568 C-15.62049442 71.38035887 -16.73599688 75.81273879 -18.03515625 80.2890625 C-21.63866517 92.51591925 -21.63866517 92.51591925 -18.609375 104.4453125 C-15.77358232 108.85024655 -12.47729868 112.77997969 -8.99658203 116.68603516 C-5.85460991 120.32746482 -3.20379891 124.27913788 -0.5 128.25 C3.22807174 133.5810589 7.07224476 138.81440342 11 144 C10.57886784 139.9992445 10.10681905 136.37386668 9 132.5 C1.41985674 105.9694986 11.52791554 75.8511362 24.4375 52.5625 C28.0613006 46.21604335 32.11599972 40.45563892 37 35 C37.89525391 33.948125 37.89525391 33.948125 38.80859375 32.875 C41.60626575 29.78447592 43.66988872 27.6937149 47.875 27 C48.90625 27 49.9375 27 51 27 C52 28 52 28 52.20703125 31.9453125 C52.13814148 37.17065311 51.06764096 41.85535256 49.6875 46.875 C49.29643066 48.33836792 49.29643066 48.33836792 48.89746094 49.83129883 C46.22304662 59.60671837 43.13034716 69.24979987 40.0418396 78.90023804 C35.76694464 92.26726716 31.91769627 105.72578732 28.26074219 119.27416992 C27.8723053 120.70767153 27.48332756 122.14102672 27.09375 123.57421875 C26.9102449 124.25007523 26.72673981 124.9259317 26.53767395 125.62226868 C25.6110264 128.97985764 24.59965714 132.24549041 23.30859375 135.48046875 C20.79338213 142.24526178 19.42818283 149.85022347 21 157 C23.54068283 161.96985153 27.49767911 165.78053948 31.52880859 169.56494141 C33.56298329 171.54915629 35.2833696 173.74039649 37 176 C38.42880148 170.73129453 39.06222301 166.33515994 38.8125 160.875 C38.52182586 140.09179931 53.20958185 120.94833278 66.6328125 106.43359375 C77.46598912 95.29651613 97.10653624 76.71192465 114.04296875 75.90234375 C115.10451172 75.91974609 115.10451172 75.91974609 116.1875 75.9375 C117.445625 75.958125 118.70375 75.97875 120 76 C120.7709365 78.2660004 121.12794155 79.58033663 120.42041016 81.90112305 C117.89388127 86.72923272 115.00680349 90.75972815 111.375 94.8125 C110.85010986 95.41143066 110.32521973 96.01036133 109.78442383 96.62744141 C105.65298998 101.32358567 101.44695617 105.95381885 97.22265625 110.56640625 C83.66887725 125.40648413 70.64179011 140.88400321 58.0703125 156.5625 C56 159 56 159 53.42578125 161.18359375 C50.03287462 165.12286216 49.21095211 169.06907344 48.0625 174.0625 C47.82982422 174.96033203 47.59714844 175.85816406 47.35742188 176.78320312 C46.02474782 181.48081248 46.02474782 181.48081248 46.82397461 186.12792969 C48.46185801 188.73521428 50.42921734 190.91165606 52.5 193.1875 C53.69109375 194.50814453 53.69109375 194.50814453 54.90625 195.85546875 C56.81356089 198.04326835 56.81356089 198.04326835 59 199 C59.99 197.02 60.98 195.04 62 193 C62.33 193 62.66 193 63 193 C63.33 194.65 63.66 196.3 64 198 C65.98 198.33 67.96 198.66 70 199 C69.01 201.97 68.02 204.94 67 208 C75.97548665 217.12531236 75.97548665 217.12531236 85.4765625 225.6953125 C86.69958301 226.74271981 87.86139532 227.86139532 89 229 C89.40089844 228.0821875 89.80179688 227.164375 90.21484375 226.21875 C95.94164731 213.64821918 103.32113743 206.65240097 116.3125 201.75 C125.31406363 199.9191735 133.5834215 201.25663169 142.375 203.5 C144.27742371 203.97368558 146.18104059 204.44261028 148.0859375 204.90625 C148.9114209 205.11572266 149.7369043 205.32519531 150.58740234 205.54101562 C153.26973149 206.05131504 155.2864949 206.42305296 158 206 C161.62464904 202.34453386 162.50222378 199.91686105 162.5300293 194.8203125 C162.54652023 193.59554199 162.56301117 192.37077148 162.58000183 191.10888672 C162.57809341 189.7942041 162.576185 188.47952148 162.57421875 187.125 C162.58667416 185.75405093 162.60101124 184.38311779 162.61714172 183.01220703 C162.65510892 179.41052957 162.67034269 175.80912667 162.67993164 172.20727539 C162.69969621 166.44303344 162.75669012 160.67900007 162.80869484 154.91497803 C162.82397478 152.90705934 162.8304775 150.89908004 162.83683777 148.89111328 C162.84387222 147.66634277 162.85090668 146.44157227 162.8581543 145.1796875 C162.86163376 144.10444824 162.86511322 143.02920898 162.86869812 141.92138672 C163 139 163 139 163.57136536 136.17626953 C163.71281479 135.45810059 163.85426422 134.73993164 164 134 C163.67 133.67 163.34 133.34 163 133 C162.87421369 130.93168929 162.8191693 128.85905349 162.79125977 126.78710938 C162.78147598 126.13817719 162.7716922 125.489245 162.76161194 124.82064819 C162.73157665 122.66170309 162.71023973 120.50282089 162.69140625 118.34375 C162.68483442 117.60568619 162.6782626 116.86762238 162.67149162 116.10719299 C162.63884811 112.19355182 162.6144205 108.27993826 162.5949707 104.36621094 C162.57722043 101.13598466 162.54251181 97.90664181 162.49243164 94.67675781 C162.431959 90.77216042 162.4014567 86.86837649 162.39179802 82.96333313 C162.38327984 81.48023527 162.36455183 79.99715696 162.3350544 78.514328 C162.18864567 70.72931546 162.130047 64.00985767 167.28086853 57.71498108 C173.35725579 51.65326366 178.64905076 51.47860202 186.98120117 51.46986389 C188.42497401 51.48034313 189.86874063 51.49171227 191.3125 51.50390625 C192.81030345 51.50375106 194.30810729 51.50225878 195.8059082 51.49949646 C198.93621703 51.4981163 202.06606555 51.51060543 205.19628906 51.53344727 C209.19425133 51.56183119 213.19144958 51.55908965 217.18946838 51.54635715 C220.27972863 51.53937822 223.36981452 51.54721438 226.46005249 51.55961418 C227.93353607 51.56410722 229.40703851 51.56448439 230.88052368 51.56054878 C232.94547426 51.55761457 235.00939845 51.574246 237.07421875 51.59594727 C238.24557373 51.60135025 239.41692871 51.60675323 240.6237793 51.61231995 C247.12594014 52.35894118 251.75735603 54.93239748 256 60 C258.79497798 64.66453827 259.37629432 68.10471416 259.38095093 73.51464844 C259.3856309 74.25058102 259.39031087 74.9865136 259.39513266 75.74474716 C259.40705633 78.19980885 259.39763599 80.65430961 259.38818359 83.109375 C259.39225047 84.87390467 259.397593 86.63843179 259.40411377 88.4029541 C259.41777935 93.18803665 259.41249183 97.97292496 259.40297651 102.75801086 C259.39537602 107.76804118 259.40242661 112.77805497 259.40713501 117.78808594 C259.41259142 126.20120222 259.40540394 134.61423947 259.39111328 143.02734375 C259.374787 152.75107532 259.38007559 162.47461818 259.3965925 172.19834518 C259.41021061 180.55009958 259.41212543 188.9017972 259.40427649 197.25355911 C259.39960177 202.24031924 259.39896962 207.2269907 259.40888596 212.21374512 C259.41755805 216.90220464 259.41152922 221.59042108 259.39420319 226.27885437 C259.39023965 227.99854631 259.39137012 229.71825874 259.39799118 231.4379425 C259.40620216 233.78735415 259.39589109 236.13598925 259.38095093 238.48535156 C259.37981985 239.79940979 259.37868877 241.11346802 259.37752342 242.46734619 C258.69447512 248.85893159 255.79574 252.87343302 251 257 C246.56815299 259.61607114 243.32928033 260.38039405 238.20361328 260.40405273 C237.22671036 260.41434761 237.22671036 260.41434761 236.23007202 260.42485046 C234.09325892 260.44303852 231.95718584 260.43929219 229.8203125 260.43359375 C228.32347376 260.43816006 226.82663711 260.44346697 225.32980347 260.44947815 C222.19780951 260.45839401 219.06607073 260.45600445 215.93408203 260.44604492 C211.93721258 260.43456842 207.94122839 260.45475326 203.94447517 260.48396206 C200.85418174 260.50238629 197.7640979 260.50201913 194.67376328 260.49632454 C193.20108678 260.49617202 191.72839545 260.50215846 190.25577164 260.51461601 C182.28869395 260.57251469 175.82937024 260.51550485 169 256 C167.16015625 254.18359375 167.16015625 254.18359375 166.0625 252.4375 C165.68222656 251.85871094 165.30195313 251.27992188 164.91015625 250.68359375 C163.06686342 247.27389757 162.92457906 244.35948865 162.86108398 240.55395508 C162.69157313 233.16958524 161.86470091 228.19018026 157.27734375 222.11328125 C155.73632673 219.5637699 155.75898991 217.92801621 156 215 C155.113125 214.896875 154.22625 214.79375 153.3125 214.6875 C149.78857654 214.20728598 146.43895409 213.33646211 143 212.4375 C132.0440529 209.89077812 121.01104842 209.2794009 111 215 C103.28024065 220.09795429 100.31980701 227.33235746 98 236 C104.86800611 242.57133198 112.06394805 248.45771746 119.65673828 254.16943359 C123.98901669 257.43574984 128.18730335 260.78821782 132.3125 264.3125 C138.79793534 269.79539883 145.79996031 274.3543057 152.9765625 278.875 C153.89179688 279.473125 154.80703125 280.07125 155.75 280.6875 C156.56984375 281.20699219 157.3896875 281.72648437 158.234375 282.26171875 C160 284 160 284 160.390625 286.58203125 C160 289 160 289 158 291 C154.83675268 290.6292074 152.65492673 289.29680453 150.05859375 287.5234375 C149.31504639 287.02070313 148.57149902 286.51796875 147.80541992 286 C147.02400635 285.46375 146.24259277 284.9275 145.4375 284.375 C143.81835396 283.27769256 142.19856368 282.18133514 140.578125 281.0859375 C139.4015332 280.28881348 139.4015332 280.28881348 138.20117188 279.47558594 C134.60662011 277.06592856 130.94230665 274.77591909 127.26171875 272.5 C125 271 125 271 122.5 268.859375 C118.54057073 265.91454948 114.7925948 266.19590169 110 266 C108.75283203 265.85304688 108.75283203 265.85304688 107.48046875 265.703125 C102.42608029 265.28922232 99.57375593 265.93931346 95.515625 269.02734375 C90.0458286 273.0245804 84.3478791 276.5169183 78.53652954 279.99310303 C75.44441652 281.84400794 72.36055358 283.70853106 69.27734375 285.57421875 C68.65881027 285.94846985 68.04027679 286.32272095 67.40299988 286.70831299 C56.60973298 293.25430826 45.97876979 300.07019285 35.42578125 306.99609375 C28.51360732 311.53070886 21.56360481 315.99483861 14.4375 320.1875 C13.80666504 320.57462158 13.17583008 320.96174316 12.52587891 321.3605957 C7.82254527 324.0600574 4.405553 324.36435219 -1 324 C-0.67 321.03 -0.34 318.06 0 315 C-0.68964844 315.03480469 -1.37929687 315.06960938 -2.08984375 315.10546875 C-10.44079435 315.34603111 -18.21176791 314.55470991 -24.65234375 308.65234375 C-31.03780997 300.82320691 -32.73778829 291.82351441 -32 282 C-30.69530473 273.60793467 -27.89381714 266.91386943 -23 260 C-22.54753906 259.35160156 -22.09507812 258.70320313 -21.62890625 258.03515625 C-16.72790105 251.69022884 -8.88092974 246.57618595 -1 245 C3.00633991 244.85544134 6.99332784 244.88330081 11 245 C11.103125 243.9275 11.20625 242.855 11.3125 241.75 C13.99057574 221.39662437 23.33263624 206.89249007 39 194 C38.10698344 192.93513145 37.2104053 191.87324959 36.3125 190.8125 C35.56419922 189.92498047 35.56419922 189.92498047 34.80078125 189.01953125 C34.20652344 188.35308594 33.61226562 187.68664062 33 187 C32.24847656 186.07960938 31.49695313 185.15921875 30.72265625 184.2109375 C28.16498406 181.66707982 28.16498406 181.66707982 24.7578125 181.95703125 C10.77416064 185.24995572 -9.52761276 190.29141915 -18 203 C-17.90946913 204.96245696 -17.90946913 204.96245696 -17.4375 207.0625 C-16.34891004 215.25347565 -19.49878327 222.30770131 -24.203125 228.8984375 C-31.57829897 237.52418445 -41.73877924 242.91878973 -53 244 C-59.90105104 244.08662407 -66.38213688 243.26753774 -72 239 C-77.33504087 233.15939415 -78.36746322 227.93694723 -78.2734375 220.1328125 C-77.46416877 210.8609051 -71.78152221 204.38643881 -65.15625 198.30859375 C-56.57007575 191.28834063 -47.50498383 189.32520979 -36.55078125 189.59375 C-31.81903626 190.13511576 -28.05357462 191.53929346 -24 194 C-23.46375 193.5153125 -22.9275 193.030625 -22.375 192.53125 C-10.2631095 182.17239628 4.38501847 175.94029817 20 173 C17.7757418 169.0625591 15.20149367 165.6626663 12.3125 162.1875 C11.50425781 161.21167969 10.69601563 160.23585938 9.86328125 159.23046875 C9.24839844 158.49441406 8.63351563 157.75835937 8 157 C-2.70802262 158.23273105 -12.52969493 161.58463708 -22.6875 165 C-26.26512137 166.18908569 -29.84508465 167.37099166 -33.42578125 168.55078125 C-34.32035034 168.84608231 -35.21491943 169.14138336 -36.13659668 169.44563293 C-43.82800524 171.97199619 -51.56969116 174.30082648 -59.33544922 176.58602905 C-78.19783851 182.14861629 -97.11106732 188.23329477 -114.36328125 197.8203125 C-117.15548708 199.06956607 -118.97890798 199.25313339 -122 199 C-124.35233271 194.5720796 -124.21899829 190.74863514 -123 186 C-118.12283983 174.61995961 -107.24501662 168.62222767 -96.31884766 163.92285156 C-71.43917269 154.0212753 -43.31381093 151.12747282 -16.73413086 150.42895508 C-10.64829178 150.23050998 -4.93229834 149.36831878 1 148 C0.14615257 146.74327263 -0.70810567 145.48682438 -1.5625 144.23046875 C-2.10680664 143.42891357 -2.65111328 142.6273584 -3.21191406 141.80151367 C-4.41253079 140.0463248 -5.62299052 138.29783189 -6.84277344 136.5559082 C-9.37513467 132.93076483 -11.77090845 129.45412838 -13.765625 125.5 C-15.90127172 121.45351149 -17.87634575 118.83421021 -22.24365234 117.11865234 C-28.46838074 115.24766895 -34.83887406 114.07843521 -41.20898438 112.8203125 C-47.40065638 111.48053803 -53.46564556 109.71387093 -59.55615234 107.97937012 C-72.10536566 104.42088471 -84.62137508 101.40722745 -97.52001953 99.38964844 C-100.13013483 98.97955354 -102.73494922 98.54355336 -105.33984375 98.1015625 C-109.55763779 97.38665502 -113.77774817 96.68807067 -118 96 C-118.495 93.525 -118.495 93.525 -119 91 C-111.53718622 84.23682501 -102.46600774 82.68554371 -92.62109375 82.8515625 C-70.39828406 84.11008227 -50.47549434 92.8218522 -31 103 C-31.020625 102.030625 -31.04125 101.06125 -31.0625 100.0625 C-31 97 -31 97 -30 96 C-29.94822541 93.20398065 -29.95868002 90.43151498 -30.0078125 87.63671875 C-30.02538455 85.86263648 -30.04228717 84.08854748 -30.05859375 82.31445312 C-30.08905987 79.53308993 -30.12389736 76.75207435 -30.17138672 73.97094727 C-30.54293128 50.99154224 -29.29325904 22.54261143 -12.375 4.9375 C-8.50278189 1.21980703 -5.41666155 -0.30092564 0 0 Z M35 210 C27.19848448 218.47405996 23.31607753 227.8771831 20.625 238.9375 C20.44493408 239.67162109 20.26486816 240.40574219 20.0793457 241.16210938 C18.8776185 246.15652097 18.8776185 246.15652097 20 251 C21.33448375 252.90232509 21.33448375 252.90232509 22.9375 254.75 C29.20862965 262.97615808 28.2307189 272.15599343 28 282 C31.45070272 279.99468597 34.73478146 277.81427339 38.01025391 275.53564453 C52.4479864 265.58158597 69.13092583 257.32350523 86.95703125 256.68359375 C88.06884766 256.64169922 89.18066406 256.59980469 90.32617188 256.55664062 C91.47666016 256.51732422 92.62714844 256.47800781 93.8125 256.4375 C95.56723633 256.37272461 95.56723633 256.37272461 97.35742188 256.30664062 C100.23817031 256.20081721 103.11900123 256.09873175 106 256 C102.4482757 252.34979905 98.73150542 249.00441986 94.8125 245.75 C89.97018022 241.69064407 85.2105354 237.56123943 80.5402832 233.3034668 C78.94519888 231.85708327 77.34258186 230.41891898 75.72924805 228.99291992 C68.70986767 222.77533641 62.12505907 216.18274618 55.57373047 209.4777832 C54.19931575 208.07338726 52.81851548 206.67524934 51.4375 205.27734375 C50.63183594 204.45484131 49.82617188 203.63233887 48.99609375 202.78491211 C43.92512036 198.2504348 38.69625542 206.36479384 35 210 Z " fill="#726357" transform="translate(172,164)"/>
<path d="M0 0 C1.49780345 -0.00015519 2.99560729 -0.00164747 4.4934082 -0.00440979 C7.62371703 -0.00578995 10.75356555 0.00669918 13.88378906 0.02954102 C17.88175133 0.05792494 21.87894958 0.0551834 25.87696838 0.0424509 C28.96722863 0.03547197 32.05731452 0.04330813 35.14755249 0.05570793 C36.62103607 0.06020097 38.09453851 0.06057814 39.56802368 0.05664253 C41.63297426 0.05370832 43.69689845 0.07033975 45.76171875 0.09204102 C46.93307373 0.097444 48.10442871 0.10284698 49.3112793 0.1084137 C55.81344014 0.85503493 60.44485603 3.42849123 64.6875 8.49609375 C67.48247798 13.16063202 68.06379432 16.60080791 68.06845093 22.01074219 C68.0731309 22.74667477 68.07781087 23.48260735 68.08263266 24.24084091 C68.09455633 26.6959026 68.08513599 29.15040336 68.07568359 31.60546875 C68.07975047 33.36999842 68.085093 35.13452554 68.09161377 36.89904785 C68.10527935 41.6841304 68.09999183 46.46901871 68.09047651 51.25410461 C68.08287602 56.26413493 68.08992661 61.27414872 68.09463501 66.28417969 C68.10009142 74.69729597 68.09290394 83.11033322 68.07861328 91.5234375 C68.062287 101.24716907 68.06757559 110.97071193 68.0840925 120.69443893 C68.09771061 129.04619333 68.09962543 137.39789095 68.09177649 145.74965286 C68.08710177 150.73641299 68.08646962 155.72308445 68.09638596 160.70983887 C68.10505805 165.39829839 68.09902922 170.08651483 68.08170319 174.77494812 C68.07773965 176.49464006 68.07887012 178.21435249 68.08549118 179.93403625 C68.09370216 182.2834479 68.08339109 184.632083 68.06845093 186.98144531 C68.06731985 188.29550354 68.06618877 189.60956177 68.06502342 190.96343994 C67.38197512 197.35502534 64.48324 201.36952677 59.6875 205.49609375 C55.25565299 208.11216489 52.01678033 208.8764878 46.89111328 208.90014648 C46.23984467 208.90700974 45.58857605 208.91387299 44.91757202 208.92094421 C42.78075892 208.93913227 40.64468584 208.93538594 38.5078125 208.9296875 C37.01097376 208.93425381 35.51413711 208.93956072 34.01730347 208.9455719 C30.88530951 208.95448776 27.75357073 208.9520982 24.62158203 208.94213867 C20.62471258 208.93066217 16.62872839 208.95084701 12.63197517 208.98005581 C9.54168174 208.99848004 6.4515979 208.99811288 3.36126328 208.99241829 C1.88858678 208.99226577 0.41589545 208.99825221 -1.05672836 209.01070976 C-9.02380605 209.06860844 -15.48312976 209.0115986 -22.3125 204.49609375 C-24.15234375 202.6796875 -24.15234375 202.6796875 -25.25 200.93359375 C-25.63027344 200.35480469 -26.01054687 199.77601563 -26.40234375 199.1796875 C-28.5978766 195.11842287 -28.4293173 191.28350397 -28.375 186.80859375 C-28.37048828 186.10669922 -28.36597656 185.40480469 -28.36132812 184.68164062 C-28.34956927 182.95308837 -28.33163454 181.2245801 -28.3125 179.49609375 C-26.93578125 180.31013672 -26.93578125 180.31013672 -25.53125 181.140625 C-12.1137196 188.99831426 0.49968572 193.73840223 16.3984375 191.03515625 C23.62341154 189.14554765 29.44343514 185.79206402 33.6875 179.55859375 C35.80814071 173.06413157 34.66736574 168.0184515 31.99609375 161.91796875 C27.10721543 152.86989544 18.05049884 148.66048978 8.6328125 145.45703125 C-4.52765008 141.79944814 -16.119819 143.25189882 -28.3125 149.49609375 C-28.33569531 141.49865493 -28.35345173 133.50123023 -28.36431217 125.50376606 C-28.36952527 121.79001487 -28.37659433 118.07628675 -28.38793945 114.36254883 C-28.39882426 110.77695172 -28.40478869 107.19137675 -28.40737724 103.60576439 C-28.40922141 102.2394698 -28.4128226 100.87317639 -28.41823006 99.50689125 C-28.42551462 97.58964856 -28.42590869 95.67238348 -28.42602539 93.75512695 C-28.428246 92.66480667 -28.43046661 91.57448639 -28.43275452 90.4511261 C-28.3125 87.49609375 -28.3125 87.49609375 -27.74290466 84.66740417 C-27.60087112 83.95087173 -27.45883759 83.23433929 -27.3125 82.49609375 C-27.6425 82.16609375 -27.9725 81.83609375 -28.3125 81.49609375 C-28.43828631 79.42778304 -28.4933307 77.35514724 -28.52124023 75.28320312 C-28.53102402 74.63427094 -28.5408078 73.98533875 -28.55088806 73.31674194 C-28.58092335 71.15779684 -28.60226027 68.99891464 -28.62109375 66.83984375 C-28.62766558 66.10177994 -28.6342374 65.36371613 -28.64100838 64.60328674 C-28.67365189 60.68964557 -28.6980795 56.77603201 -28.7175293 52.86230469 C-28.73527957 49.63207841 -28.76998819 46.40273556 -28.82006836 43.17285156 C-28.880541 39.26825417 -28.9110433 35.36447024 -28.92070198 31.45942688 C-28.92922016 29.97632902 -28.94794817 28.49325071 -28.9774456 27.01042175 C-29.12385433 19.22540921 -29.182453 12.50595142 -24.03163147 6.21107483 C-16.98225272 -0.82128505 -9.40073683 -0.07939856 0 0 Z " fill="#588970" transform="translate(363.3125,215.50390625)"/>
<path d="M0 0 C7.92 0 15.84 0 24 0 C24.2475 2.289375 24.495 4.57875 24.75 6.9375 C25.5365142 13.19190401 26.76138292 18.55226001 30 24 C30.40992188 24.69609375 30.81984375 25.3921875 31.2421875 26.109375 C36.37703989 33.82615882 44.14146006 37.10883226 52.25 41.0625 C61.76260163 45.79447191 66.7838998 51.64078242 71.06476116 61.43643188 C72.39707236 66.51297652 72.27867315 71.38712907 72.26069641 76.61474609 C72.26643473 78.38018044 72.26643473 78.38018044 72.27228898 80.18128014 C72.28081336 83.43984038 72.2803887 86.69825642 72.27610838 89.95682049 C72.27364014 93.47425712 72.28265647 96.99166731 72.29014587 100.50909424 C72.30289152 107.39645739 72.30468679 114.28378154 72.30234561 121.1711545 C72.30056238 126.76879085 72.3023122 132.36641536 72.30657005 137.96405029 C72.30716524 138.76080905 72.30776043 139.55756781 72.30837366 140.37847078 C72.30958541 141.99708319 72.31079954 143.6156956 72.31201603 145.234308 C72.32289076 160.41116627 72.32072922 175.58800231 72.31463119 190.76486182 C72.30946037 204.6505538 72.32072192 218.53617567 72.33972941 232.42185378 C72.35909792 246.68057582 72.36736565 260.93926467 72.36360615 275.19799995 C72.36169283 283.20288526 72.36419458 291.20771087 72.37832069 299.21258545 C72.39022279 306.02607895 72.39165247 312.83947599 72.37953053 319.65297079 C72.37363397 323.12917594 72.37256374 326.60520453 72.38453293 330.08139801 C72.39494205 333.84951495 72.38694611 337.61715447 72.3742218 341.38525391 C72.38159609 342.48427725 72.38897037 343.58330059 72.39656812 344.71562767 C72.34649513 351.74354991 71.44008927 356.15322918 66.75 361.625 C59.05720901 368.26877403 53.55038228 368.53334418 43.5625 368.25 C42.35400391 368.23195313 41.14550781 368.21390625 39.90039062 368.1953125 C36.93276816 368.14839357 33.96680339 368.08275602 31 368 C34 366 34 366 35.8671875 365.0625 C42.09788328 361.76532247 44.67331 357.57071482 47 351 C47.65327638 347.02254177 47.66875246 343.14526087 47.62145996 339.12097168 C47.62784878 337.96383777 47.6342376 336.80670386 47.64082003 335.61450529 C47.65336909 332.42940684 47.64371514 329.24530248 47.62430525 326.06026816 C47.60879873 322.61506494 47.62230051 319.16995415 47.63204956 315.7247467 C47.64653846 308.98621714 47.63438034 302.24799002 47.61293632 295.50948918 C47.58886154 287.65440698 47.59064468 279.79939313 47.59324223 271.94428223 C47.59692837 257.92421801 47.57614193 243.90429577 47.54199219 229.88427734 C47.50890347 216.29472261 47.4947344 202.70531686 47.50097656 189.11572266 C47.50774822 174.30062725 47.50525834 159.48559414 47.48561716 144.67050791 C47.48457768 143.8863008 47.48353819 143.10209369 47.4824672 142.29412273 C47.48037639 140.71930319 47.47826541 139.14448369 47.47613403 137.56966421 C47.46925284 132.1004689 47.46856673 126.63129284 47.47001648 121.16209412 C47.47145964 114.4926193 47.46170257 107.82326559 47.43807012 101.15383089 C47.4262507 97.7540756 47.41905775 94.35448862 47.42490768 90.95471382 C47.42863109 87.2626269 47.41384385 83.57105575 47.39440918 79.87902832 C47.39973711 78.81383956 47.40506503 77.74865081 47.41055441 76.65118361 C47.31633734 66.25282929 45.0006342 56.92913936 38 49 C33.4265525 45.00317023 28.70599238 42.12598781 23 40.0625 C13.0598152 36.35837453 6.48535053 29.47255846 2 20 C-0.7064673 13.47987423 -0.14344069 6.95687353 0 0 Z " fill="#D1A779" transform="translate(391,120)"/>
<path d="M0 0 C-0.2436026 1.04680687 -0.2436026 1.04680687 -0.49212646 2.11476135 C-1.03387625 5.19245159 -1.12462663 8.03934789 -1.12597656 11.16381836 C-1.12978333 12.38536118 -1.13359009 13.60690399 -1.13751221 14.86546326 C-1.13853943 16.17700882 -1.13956665 17.48855438 -1.140625 18.83984375 C-1.15256227 20.90996451 -1.16792109 22.9800438 -1.18333054 25.05014133 C-1.22123359 30.14438185 -1.25261396 35.23836566 -1.25048828 40.33276367 C-1.2496995 43.88558726 -1.27312675 47.43754694 -1.3123703 50.99014473 C-1.3278509 52.99190092 -1.31750869 54.99380333 -1.30670166 56.99559021 C-1.44263183 67.13685675 -1.44263183 67.13685675 -4.04199219 70.93579102 C-7 73 -7 73 -15 72 C-21.27 70.68 -27.54 69.36 -34 68 C-34.33 55.13 -34.66 42.26 -35 29 C-44.25498715 34.28856409 -53.21340379 39.61489544 -62.0625 45.5 C-92.49657291 65.66693546 -92.49657291 65.66693546 -101 65 C-102 64 -102 64 -102.375 60.5625 C-102.1746559 50.32673799 -94.44210325 42.23917704 -88 35 C-87.38382813 34.30003906 -86.76765625 33.60007812 -86.1328125 32.87890625 C-72.31825538 18.14535498 -51.51334051 6.63147962 -32 2 C-30.60626961 1.63079318 -29.21307329 1.25956653 -27.8203125 0.88671875 C-7.63294508 -4.36667339 -7.63294508 -4.36667339 0 0 Z " fill="#74AA8D" transform="translate(337,298)"/>
<path d="M0 0 C1.06805878 -0.01283524 2.13611755 -0.02567047 3.23654175 -0.03889465 C4.97401169 -0.04997505 4.97401169 -0.04997505 6.74658203 -0.0612793 C8.52598679 -0.07338692 8.52598679 -0.07338692 10.34133911 -0.08573914 C12.85482314 -0.09958762 15.36832604 -0.11030634 17.88183594 -0.11816406 C21.73164303 -0.13539621 25.58059592 -0.17927942 29.43017578 -0.22338867 C31.86897153 -0.23351352 34.3077746 -0.24203027 36.74658203 -0.2487793 C37.90084686 -0.26628738 39.05511169 -0.28379547 40.24435425 -0.30183411 C41.31871735 -0.29890854 42.39308044 -0.29598297 43.5 -0.29296875 C44.44438934 -0.29883499 45.38877869 -0.30470123 46.36178589 -0.31074524 C49.63399561 0.32319408 50.80967716 1.6223622 52.87939453 4.17700195 C54.29346505 8.29280153 53.73166494 12.02575584 53.20751953 16.29418945 C53.12543243 16.98020737 53.04334534 17.66622528 52.95877075 18.37303162 C52.69016387 20.60039357 52.4101805 22.82614527 52.12939453 25.05200195 C51.94089219 26.58603718 51.75290691 28.12013603 51.56542969 29.65429688 C51.18900608 32.72125647 50.80740664 35.78750531 50.42138672 38.85327148 C49.93889037 42.68754154 49.47366108 46.52373133 49.01220703 50.3605957 C48.76047145 52.40367166 48.50793411 54.44664908 48.25439453 56.48950195 C48.14385742 57.41166504 48.03332031 58.33382812 47.91943359 59.28393555 C46.61859635 69.43780013 46.61859635 69.43780013 43.87939453 72.17700195 C42.5087986 72.28012232 41.13299795 72.31549148 39.75854492 72.32226562 C38.88416275 72.32864548 38.00978058 72.33502533 37.10890198 72.34159851 C35.68238564 72.34326775 35.68238564 72.34326775 34.22705078 72.3449707 C32.77134926 72.3499633 32.77134926 72.3499633 31.28623962 72.35505676 C29.22916133 72.36013025 27.17207478 72.36246496 25.11499023 72.36230469 C21.95884709 72.36449021 18.80305383 72.38263887 15.64697266 72.40161133 C13.65283323 72.40454529 11.65869214 72.40653007 9.66455078 72.4074707 C8.71556412 72.41465622 7.76657745 72.42184174 6.78883362 72.429245 C5.91129929 72.42616837 5.03376495 72.42309174 4.12963867 72.41992188 C3.35544083 72.42134689 2.58124298 72.42277191 1.78358459 72.42424011 C-0.12060547 72.17700195 -0.12060547 72.17700195 -2.12060547 70.17700195 C-2.70288086 67.78515625 -2.70288086 67.78515625 -3.15576172 64.8137207 C-3.32092285 63.7313916 -3.48608398 62.6490625 -3.65625 61.53393555 C-4.37187155 56.36054103 -4.98851964 51.180847 -5.55810547 45.98950195 C-6.32517655 39.02810394 -7.11662424 32.0784777 -8.08544922 25.1418457 C-8.23763916 24.01480225 -8.3898291 22.88775879 -8.54663086 21.7265625 C-8.83958476 19.57361416 -9.1467228 17.42253448 -9.4699707 15.27392578 C-10.21167456 9.6920165 -10.57845237 5.98930502 -7.12060547 1.17700195 C-4.59843078 -0.08408539 -2.82320056 0.02947839 0 0 Z " fill="#A99F94" transform="translate(361.12060546875,23.822998046875)"/>
<path d="M0 0 C5.93732351 4.10404467 8.97028958 8.80921109 10.7578125 15.7890625 C12.03960386 23.30890516 12.42482746 30.92361468 8.2265625 37.5390625 C6.16259933 39.47874402 4.01002349 41.28236549 1.8359375 43.09765625 C-2.36943265 47.03232144 -5.7189233 51.59750901 -9.1953125 56.171875 C-16.15636662 65.3117206 -16.15636662 65.3117206 -19.1484375 66.4140625 C-20.0146875 66.4553125 -20.8809375 66.4965625 -21.7734375 66.5390625 C-22.8459375 66.6215625 -23.9184375 66.7040625 -25.0234375 66.7890625 C-31.44367567 66.36104662 -37.56925301 64.64209648 -42.42578125 60.19140625 C-48.81124747 52.36226941 -50.51122579 43.36257691 -49.7734375 33.5390625 C-48.46874223 25.14699717 -45.66725464 18.45293193 -40.7734375 11.5390625 C-40.32097656 10.89066406 -39.86851562 10.24226563 -39.40234375 9.57421875 C-30.04749652 -2.53673079 -13.61439476 -7.73643385 0 0 Z " fill="#6F7484" transform="translate(189.7734375,412.4609375)"/>
<path d="M0 0 C7.97749631 6.01938358 12.15608584 12.2259386 13.7109375 22.24609375 C12.71951654 28.19461948 9.68496982 32.70586209 4.9609375 36.43359375 C-4.44306324 42.43269767 -15.2473639 42.7377725 -25.9765625 40.87109375 C-37.46966669 38.22308254 -47.75047158 33.35426548 -54.66015625 23.55078125 C-58.47601033 17.37034874 -58.72575136 11.84465434 -57.8515625 4.62109375 C-55.8515625 1.62109375 -55.8515625 1.62109375 -52.8515625 -0.37890625 C-52.28179687 -0.80429687 -51.71203125 -1.2296875 -51.125 -1.66796875 C-35.91450847 -12.37164798 -14.98012695 -9.97845665 0 0 Z " fill="#6E7382" transform="translate(385.8515625,366.37890625)"/>
<path d="M0 0 C4.52544669 3.66292343 8.59118452 8.46662105 9.390625 14.33984375 C10.10671471 22.52183175 7.06912484 29.59935882 2.375 36.17578125 C-5.00017397 44.8015282 -15.16065424 50.19613348 -26.421875 51.27734375 C-33.32292604 51.36396782 -39.80401188 50.54488149 -45.421875 46.27734375 C-50.75691587 40.4367379 -51.78933822 35.21429098 -51.6953125 27.41015625 C-50.88604377 18.13824885 -45.20339721 11.66378256 -38.578125 5.5859375 C-28.44313566 -2.70066239 -11.89584992 -7.26681267 0 0 Z " fill="#6F7483" transform="translate(145.421875,356.72265625)"/>
<path d="M0 0 C1.8871875 0.0309375 1.8871875 0.0309375 3.8125 0.0625 C4.5834365 2.3285004 4.94044155 3.64283663 4.23291016 5.96362305 C1.70638127 10.79173272 -1.18069651 14.82222815 -4.8125 18.875 C-5.59983521 19.773396 -5.59983521 19.773396 -6.40307617 20.68994141 C-10.53451002 25.38608567 -14.74054383 30.01631885 -18.96484375 34.62890625 C-28.2097933 44.75123238 -37.00791734 55.29693507 -45.875 65.75 C-46.3282666 66.28351074 -46.7815332 66.81702148 -47.24853516 67.36669922 C-50.16989729 70.81883363 -52.99848937 74.33432111 -55.8125 77.875 C-65.73150301 89.99428275 -65.73150301 89.99428275 -72.625 92.125 C-75.1875 92.0625 -75.1875 92.0625 -77.1875 91.0625 C-78.83193487 69.39250269 -67.42372495 51.52590526 -54 35.44140625 C-42.21703344 21.95411774 -19.7703871 -0.32410471 0 0 Z " fill="#73AA8D" transform="translate(288.1875,239.9375)"/>
<path d="M0 0 C1 1 1 1 1.20703125 4.9453125 C1.13814148 10.17065311 0.06764096 14.85535256 -1.3125 19.875 C-1.70356934 21.33836792 -1.70356934 21.33836792 -2.10253906 22.83129883 C-4.77695338 32.60671837 -7.86965284 42.24979987 -10.9581604 51.90023804 C-15.23305536 65.26726716 -19.08230373 78.72578732 -22.73925781 92.27416992 C-24.55239133 98.96790171 -26.37044392 105.56938688 -29 112 C-29.66 112 -30.32 112 -31 112 C-31.33 112.99 -31.66 113.98 -32 115 C-36.52812426 115.36714521 -36.52812426 115.36714521 -38.56640625 113.78125 C-45.86418759 104.71370698 -44.6066555 88.1646783 -43.69140625 77.35546875 C-40.39118962 49.46425739 -28.42048101 19.93107376 -7 1 C-4.51588385 -0.24205807 -2.74800896 -0.14092354 0 0 Z " fill="#73AA8D" transform="translate(223,191)"/>
<path d="M0 0 C1.51400391 0.01740234 1.51400391 0.01740234 3.05859375 0.03515625 C4.07050781 0.04417969 5.08242188 0.05320313 6.125 0.0625 C7.29869141 0.07990234 7.29869141 0.07990234 8.49609375 0.09765625 C8.66214111 1.60332153 8.66214111 1.60332153 8.83154297 3.1394043 C9.24561932 6.87688087 9.66903067 10.61325159 10.09521484 14.34936523 C10.27808794 15.96398904 10.45845609 17.57889866 10.63623047 19.1940918 C10.89276578 21.52082404 11.15840582 23.84636659 11.42578125 26.171875 C11.5029538 26.88977707 11.58012634 27.60767914 11.65963745 28.34733582 C12.13524705 32.39541046 12.94737967 35.22587104 14.49609375 39.09765625 C29.01609375 39.09765625 43.53609375 39.09765625 58.49609375 39.09765625 C60.02373963 35.27854156 60.82178561 32.87530348 61.3125 28.96484375 C61.43689453 27.99289063 61.56128906 27.0209375 61.68945312 26.01953125 C61.81126953 25.0140625 61.93308594 24.00859375 62.05859375 22.97265625 C62.18427734 21.99039063 62.30996094 21.008125 62.43945312 19.99609375 C63.27146715 13.37483033 63.93368508 6.74697558 64.49609375 0.09765625 C72.9921875 0 72.9921875 0 75.49609375 0.09765625 C77.15003492 1.75159742 76.62609058 3.70081038 76.62890625 5.97265625 C76.63019531 6.9575 76.63148438 7.94234375 76.6328125 8.95703125 C76.62894531 9.9934375 76.62507813 11.02984375 76.62109375 12.09765625 C76.62496094 13.1340625 76.62882812 14.17046875 76.6328125 15.23828125 C76.63152344 16.223125 76.63023437 17.20796875 76.62890625 18.22265625 C76.62777832 19.13273437 76.62665039 20.0428125 76.62548828 20.98046875 C76.49609375 23.09765625 76.49609375 23.09765625 75.49609375 24.09765625 C73.18609375 24.09765625 70.87609375 24.09765625 68.49609375 24.09765625 C68.49609375 37.29765625 68.49609375 50.49765625 68.49609375 64.09765625 C47.37609375 64.09765625 26.25609375 64.09765625 4.49609375 64.09765625 C4.49609375 50.89765625 4.49609375 37.69765625 4.49609375 24.09765625 C2.18609375 24.09765625 -0.12390625 24.09765625 -2.50390625 24.09765625 C-4.15784742 22.44371508 -3.63390308 20.49450212 -3.63671875 18.22265625 C-3.63800781 17.2378125 -3.63929688 16.25296875 -3.640625 15.23828125 C-3.63675781 14.201875 -3.63289063 13.16546875 -3.62890625 12.09765625 C-3.63470703 10.54304688 -3.63470703 10.54304688 -3.640625 8.95703125 C-3.63933594 7.9721875 -3.63804687 6.98734375 -3.63671875 5.97265625 C-3.63559082 5.06257813 -3.63446289 4.1525 -3.63330078 3.21484375 C-3.44379172 0.11404647 -3.12308348 0.12180513 0 0 Z " fill="#CBCBCB" transform="translate(346.50390625,55.90234375)"/>
<path d="M0 0 C0.67289062 0.48597656 1.34578125 0.97195313 2.0390625 1.47265625 C1.61639973 6.40372186 -0.34081452 8.22834104 -3.9609375 11.47265625 C-6.67560618 13.41316187 -9.49343805 15.16390178 -12.3359375 16.91015625 C-13.16101807 17.42457275 -13.98609863 17.93898926 -14.83618164 18.46899414 C-22.29683403 23.10523188 -29.81990667 27.6397416 -37.33496094 32.18701172 C-44.4864529 36.53111953 -51.51553618 41.037742 -58.51196289 45.6262207 C-64.73597669 49.69958702 -71.01574573 53.67521546 -77.3359375 57.59765625 C-78.21008301 58.14236572 -79.08422852 58.6870752 -79.98486328 59.24829102 C-92.39211564 66.91587117 -92.39211564 66.91587117 -100.9609375 66.47265625 C-100.84362516 59.27819166 -99.02393608 55.12360239 -94.5234375 49.59765625 C-93.9864624 48.91147217 -93.4494873 48.22528809 -92.89624023 47.51831055 C-75.7752248 25.89907999 -31.45968796 -16.22788653 0 0 Z " fill="#73A98D" transform="translate(271.9609375,421.52734375)"/>
<path d="M0 0 C-0.3473708 2.54615405 -0.59248754 3.68573394 -2.66552734 5.28442383 C-10.25760146 8.95610656 -18.12165202 11.46819668 -26.16601562 13.9336853 C-28.67839442 14.70386834 -31.18712546 15.4850803 -33.6953125 16.26879883 C-41.02608012 18.5551958 -48.36610775 20.81061242 -55.71365356 23.04246521 C-75.2409975 28.97749397 -94.73022816 35.05481833 -112.66015625 45.00390625 C-115.28144931 46.11981565 -117.17975643 46.19605971 -120 46 C-122.35233271 41.5720796 -122.21899829 37.74863514 -121 33 C-116.12283983 21.61995961 -105.24501662 15.62222767 -94.31884766 10.92285156 C-67.48750448 0.24455327 -28.53507174 -7.48460898 0 0 Z " fill="#73AA8D" transform="translate(170,317)"/>
<path d="M0 0 C1.06805878 -0.01283524 2.13611755 -0.02567047 3.23654175 -0.03889465 C4.97401169 -0.04997505 4.97401169 -0.04997505 6.74658203 -0.0612793 C8.52598679 -0.07338692 8.52598679 -0.07338692 10.34133911 -0.08573914 C12.85482314 -0.09958762 15.36832604 -0.11030634 17.88183594 -0.11816406 C21.73164303 -0.13539621 25.58059592 -0.17927942 29.43017578 -0.22338867 C31.86897153 -0.23351352 34.3077746 -0.24203027 36.74658203 -0.2487793 C37.90084686 -0.26628738 39.05511169 -0.28379547 40.24435425 -0.30183411 C41.31871735 -0.29890854 42.39308044 -0.29598297 43.5 -0.29296875 C44.44438934 -0.29883499 45.38877869 -0.30470123 46.36178589 -0.31074524 C49.70182921 0.33633577 50.8440174 1.48508463 52.87939453 4.17700195 C54.71447528 13.35240571 52.08963584 22.89848529 50.87939453 32.17700195 C31.73939453 32.17700195 12.59939453 32.17700195 -7.12060547 32.17700195 C-10.12060547 7.17700195 -10.12060547 7.17700195 -7.12060547 1.17700195 C-4.59843078 -0.08408539 -2.82320056 0.02947839 0 0 Z " fill="#8B6238" transform="translate(361.12060546875,23.822998046875)"/>
<path d="M0 0 C0.11606911 7.84964098 0.20480322 15.69907935 0.25906086 23.54936409 C0.28510794 27.19500252 0.32041371 30.84005204 0.37719727 34.48535156 C0.43169587 38.00617091 0.4614573 41.5264254 0.47438622 45.04763412 C0.48806304 47.03854776 0.52706858 49.02923546 0.56648254 51.01980591 C0.56961104 61.13303795 0.56961104 61.13303795 -2.03051758 64.93310547 C-5 67 -5 67 -8.6875 67.00390625 C-10.13129637 66.69757446 -11.56879652 66.36061574 -13 66 C-14.64533372 65.6732553 -16.29118906 65.34912852 -17.9375 65.02734375 C-19.62572584 64.66745065 -21.31322522 64.30413384 -23 63.9375 C-23.87011719 63.75123047 -24.74023438 63.56496094 -25.63671875 63.37304688 C-27.75846252 62.9183875 -29.87932571 62.45962195 -32 62 C-32.2481016 56.28946457 -32.42904829 50.58209154 -32.54931641 44.86743164 C-32.59946277 42.92612045 -32.66760381 40.98518435 -32.75439453 39.04516602 C-33.45618351 22.94942947 -33.45618351 22.94942947 -29.96240234 18.2722168 C-27.37619739 16.44615795 -24.92226786 15.20131627 -22 14 C-20.80591799 13.2825448 -19.62357937 12.54470135 -18.4609375 11.77734375 C-17.44257813 11.17019531 -16.42421875 10.56304687 -15.375 9.9375 C-10.84149064 7.18845709 -6.55026839 4.31701873 -2.390625 1.03125 C-1 0 -1 0 0 0 Z " fill="#DDB789" transform="translate(335,304)"/>
<path d="M0 0 C0.16655079 4.81146728 -0.25781967 8.6556515 -1.72265625 13.234375 C-2.09293945 14.43054443 -2.46322266 15.62671387 -2.84472656 16.85913086 C-3.14256042 17.80754349 -3.14256042 17.80754349 -3.44641113 18.77511597 C-7.27079848 31.03425894 -10.31688765 43.33073063 -12.75 55.9375 C-12.96313339 57.03877228 -12.96313339 57.03877228 -13.18057251 58.16229248 C-13.87350758 61.75654268 -14.55716026 65.35246391 -15.234375 68.94970703 C-16.36209088 74.93375621 -17.5424959 80.90657245 -18.75 86.875 C-18.9365918 87.84300537 -19.12318359 88.81101074 -19.31542969 89.80834961 C-20.23629 94.35189424 -21.04422292 98.28194357 -24 102 C-24.66 102 -25.32 102 -26 102 C-30.49528098 92.42309705 -30.24147945 82.71363058 -30.25 72.3125 C-30.25101212 71.20760223 -30.25101212 71.20760223 -30.25204468 70.0803833 C-30.22009825 48.10781244 -28.5018844 21.71910834 -12.375 4.9375 C-8.50278189 1.21980703 -5.41666155 -0.30092564 0 0 Z " fill="#73AA8D" transform="translate(172,164)"/>
<path d="M0 0 C0.6192334 0.29664551 1.2384668 0.59329102 1.87646484 0.89892578 C10.23362884 4.95811972 17.05604372 9.86315687 24 16 C23.67 16.99 23.34 17.98 23 19 C16.20367869 19.4764231 10.21192458 17.7103655 3.6875 15.9375 C2.50196533 15.62385498 1.31643066 15.31020996 0.0949707 14.98706055 C-5.87461707 13.40230864 -11.83120016 11.77365629 -17.78125 10.1171875 C-31.44529197 6.32934735 -45.00676965 3.2768646 -59 1 C-60.78925986 0.69908787 -62.57832468 0.39701355 -64.3671875 0.09375 C-68.57603632 -0.61735604 -72.78707903 -1.31344992 -77 -2 C-77.33 -3.65 -77.66 -5.3 -78 -7 C-57.28050898 -25.77703874 -21.34306567 -10.32500522 0 0 Z " fill="#73A98D" transform="translate(131,262)"/>
<path d="M0 0 C8.49609375 -0.09765625 8.49609375 -0.09765625 11 0 C12.65394117 1.65394117 12.12999683 3.60315413 12.1328125 5.875 C12.13474609 7.35226563 12.13474609 7.35226563 12.13671875 8.859375 C12.13285156 9.89578125 12.12898438 10.9321875 12.125 12 C12.13080078 13.55460937 12.13080078 13.55460937 12.13671875 15.140625 C12.13542969 16.12546875 12.13414062 17.1103125 12.1328125 18.125 C12.13168457 19.03507812 12.13055664 19.94515625 12.12939453 20.8828125 C12 23 12 23 11 24 C8.69 24 6.38 24 4 24 C4 37.2 4 50.4 4 64 C-3.92 64 -11.84 64 -20 64 C-20 56.08 -20 48.16 -20 40 C-15.38 39.67 -10.76 39.34 -6 39 C-4.47235412 35.18088531 -3.67430814 32.77764723 -3.18359375 28.8671875 C-3.05919922 27.89523438 -2.93480469 26.92328125 -2.80664062 25.921875 C-2.68482422 24.91640625 -2.56300781 23.9109375 -2.4375 22.875 C-2.24897461 21.40160156 -2.24897461 21.40160156 -2.05664062 19.8984375 C-1.2246266 13.27717408 -0.56240867 6.64931933 0 0 Z " fill="#BCBCBC" transform="translate(411,56)"/>
<path d="M0 0 C16.5 0 33 0 50 0 C50 11.35294118 50 11.35294118 48 15 C46.45843445 16.54156555 45.02554236 16.13468494 42.87915039 16.14526367 C42.00476822 16.15164352 41.13038605 16.15802338 40.22950745 16.16459656 C38.8029911 16.16626579 38.8029911 16.16626579 37.34765625 16.16796875 C35.89195473 16.17296135 35.89195473 16.17296135 34.40684509 16.17805481 C32.3497668 16.1831283 30.29268025 16.18546301 28.2355957 16.18530273 C25.07945256 16.18748826 21.92365929 16.20563691 18.76757812 16.22460938 C16.7734387 16.22754333 14.77929761 16.22952811 12.78515625 16.23046875 C11.83616959 16.23765427 10.88718292 16.24483978 9.90943909 16.25224304 C9.03190475 16.24916641 8.15437042 16.24608978 7.25024414 16.24291992 C6.4760463 16.24434494 5.70184845 16.24576996 4.90419006 16.24723816 C3 16 3 16 1 14 C0 10 0 10 0 0 Z " fill="#A68D74" transform="translate(358,80)"/>
<path d="M0 0 C1.51400391 0.01740234 1.51400391 0.01740234 3.05859375 0.03515625 C4.07050781 0.04417969 5.08242188 0.05320313 6.125 0.0625 C7.29869141 0.07990234 7.29869141 0.07990234 8.49609375 0.09765625 C9.68006258 8.12115929 10.78154803 15.96220939 10.49609375 24.09765625 C8.35032738 24.12451563 6.2044673 24.14398713 4.05859375 24.16015625 C2.86363281 24.17175781 1.66867187 24.18335937 0.4375 24.1953125 C-2.50390625 24.09765625 -2.50390625 24.09765625 -3.50390625 23.09765625 C-3.60307195 21.47508081 -3.63470402 19.84825794 -3.63671875 18.22265625 C-3.63800781 17.2378125 -3.63929688 16.25296875 -3.640625 15.23828125 C-3.63675781 14.201875 -3.63289063 13.16546875 -3.62890625 12.09765625 C-3.63470703 10.54304688 -3.63470703 10.54304688 -3.640625 8.95703125 C-3.63933594 7.9721875 -3.63804687 6.98734375 -3.63671875 5.97265625 C-3.63559082 5.06257813 -3.63446289 4.1525 -3.63330078 3.21484375 C-3.44379172 0.11404647 -3.12308348 0.12180513 0 0 Z " fill="#B8B8B8" transform="translate(346.50390625,55.90234375)"/>
<path d="M0 0 C3.63 0 7.26 0 11 0 C12.65394117 1.65394117 12.12999683 3.60315413 12.1328125 5.875 C12.13474609 7.35226563 12.13474609 7.35226563 12.13671875 8.859375 C12.13285156 9.89578125 12.12898438 10.9321875 12.125 12 C12.12886719 13.03640625 12.13273437 14.0728125 12.13671875 15.140625 C12.13542969 16.12546875 12.13414062 17.1103125 12.1328125 18.125 C12.13168457 19.03507812 12.13055664 19.94515625 12.12939453 20.8828125 C12 23 12 23 11 24 C6.66469082 24.14393457 2.33842269 24.04212061 -2 24 C-1.34 16.08 -0.68 8.16 0 0 Z " fill="#B2B2B2" transform="translate(411,56)"/>
<path d="M0 0 C0.66 0.33 1.32 0.66 2 1 C-1.63 4.63 -5.26 8.26 -9 12 C-9 7.8407692 -6.75316432 5.85455565 -4 3 C-1.6875 1.125 -1.6875 1.125 0 0 Z " fill="#DDAD79" transform="translate(318,163)"/>
</svg>
