<?xml version="1.0" encoding="UTF-8"?>
<!DOCTYPE svg PUBLIC "-//W3C//DTD SVG 1.1//EN" "http://www.w3.org/Graphics/SVG/1.1/DTD/svg11.dtd">
<svg xmlns="http://www.w3.org/2000/svg" version="1.1" width="512px" height="512px" style="shape-rendering:geometricPrecision; text-rendering:geometricPrecision; image-rendering:optimizeQuality; fill-rule:evenodd; clip-rule:evenodd" xmlns:xlink="http://www.w3.org/1999/xlink">
<g><path style="opacity:0.986" fill="#659c35" d="M 428.5,-0.5 C 439.167,-0.5 449.833,-0.5 460.5,-0.5C 475.069,0.856263 489.735,2.52293 504.5,4.5C 498,20.8333 491.5,37.1667 485,53.5C 472.869,81.46 453.369,102.46 426.5,116.5C 412.339,122.05 397.672,125.883 382.5,128C 363.802,128.053 345.136,127.22 326.5,125.5C 321.833,124.833 317.167,124.167 312.5,123.5C 314.857,123.663 317.19,123.497 319.5,123C 355.896,87.6581 398.23,61.6581 446.5,45C 449.478,44.304 452.478,43.804 455.5,43.5C 454.587,36.4351 456.087,35.7684 460,41.5C 463.113,35.4464 461.28,32.1131 454.5,31.5C 438.909,34.9748 423.909,40.1415 409.5,47C 375.877,63.2947 345.21,83.7947 317.5,108.5C 323.961,89.4365 331.961,71.1032 341.5,53.5C 362.698,23.0611 391.698,5.06111 428.5,-0.5 Z"/></g>
<g><path style="opacity:1" fill="#87bf56" d="M 312.5,123.5 C 313.073,118.446 314.74,113.446 317.5,108.5C 345.21,83.7947 375.877,63.2947 409.5,47C 423.909,40.1415 438.909,34.9748 454.5,31.5C 461.28,32.1131 463.113,35.4464 460,41.5C 456.087,35.7684 454.587,36.4351 455.5,43.5C 452.478,43.804 449.478,44.304 446.5,45C 398.23,61.6581 355.896,87.6581 319.5,123C 317.19,123.497 314.857,123.663 312.5,123.5 Z"/></g>
<g><path style="opacity:0.995" fill="#ec8e20" d="M 341.5,53.5 C 331.961,71.1032 323.961,89.4365 317.5,108.5C 313.238,109.867 309.071,111.533 305,113.5C 296.773,109.869 288.273,107.036 279.5,105C 268.128,103.702 263.961,108.536 267,119.5C 268.731,121.617 270.898,123.117 273.5,124C 277.377,124.257 281.043,125.257 284.5,127C 280.667,130.833 276.833,134.667 273,138.5C 270.032,149.376 274.199,154.209 285.5,153C 291.707,147.125 298.207,141.625 305,136.5C 312.979,142.143 319.145,149.309 323.5,158C 334.445,161.059 339.279,156.893 338,145.5C 335.136,138.44 330.803,132.44 325,127.5C 324.472,126.184 324.972,125.517 326.5,125.5C 345.136,127.22 363.802,128.053 382.5,128C 397.672,125.883 412.339,122.05 426.5,116.5C 486.173,191.012 499.673,273.345 467,363.5C 428.039,449.903 361.539,499.236 267.5,511.5C 252.833,511.5 238.167,511.5 223.5,511.5C 140.689,501.195 78.1888,460.195 36,388.5C -3.33333,311.5 -3.33333,234.5 36,157.5C 83.0444,78.3716 152.878,37.3716 245.5,34.5C 278.801,34.4269 310.801,40.7603 341.5,53.5 Z"/></g>
<g><path style="opacity:1" fill="#ee771d" d="M 196.5,84.5 C 212.151,82.0028 221.151,88.5028 223.5,104C 220.749,120.05 211.416,126.05 195.5,122C 183.497,114.823 180.664,104.99 187,92.5C 189.772,89.2166 192.939,86.5499 196.5,84.5 Z"/></g>
<g><path style="opacity:1" fill="#9b6025" d="M 317.5,108.5 C 314.74,113.446 313.073,118.446 312.5,123.5C 317.167,124.167 321.833,124.833 326.5,125.5C 324.972,125.517 324.472,126.184 325,127.5C 330.803,132.44 335.136,138.44 338,145.5C 339.279,156.893 334.445,161.059 323.5,158C 319.145,149.309 312.979,142.143 305,136.5C 298.207,141.625 291.707,147.125 285.5,153C 274.199,154.209 270.032,149.376 273,138.5C 276.833,134.667 280.667,130.833 284.5,127C 281.043,125.257 277.377,124.257 273.5,124C 270.898,123.117 268.731,121.617 267,119.5C 263.961,108.536 268.128,103.702 279.5,105C 288.273,107.036 296.773,109.869 305,113.5C 309.071,111.533 313.238,109.867 317.5,108.5 Z"/></g>
<g><path style="opacity:1" fill="#ee771d" d="M 129.5,113.5 C 146.466,113.299 154.3,121.632 153,138.5C 149.207,149.816 141.373,154.649 129.5,153C 117.877,148.927 113.043,140.761 115,128.5C 117.351,120.984 122.184,115.984 129.5,113.5 Z"/></g>
<g><path style="opacity:1" fill="#ee771d" d="M 377.5,163.5 C 394.491,162.658 402.658,170.658 402,187.5C 396.187,201.999 386.02,206.165 371.5,200C 360.294,189.954 359.628,179.287 369.5,168C 372.099,166.205 374.766,164.705 377.5,163.5 Z"/></g>
<g><path style="opacity:1" fill="#ee771d" d="M 426.5,213.5 C 444.67,212.169 452.837,220.502 451,238.5C 445.86,251.116 436.694,255.282 423.5,251C 413.387,244.738 410.22,235.905 414,224.5C 417.122,219.539 421.288,215.872 426.5,213.5 Z"/></g>
<g><path style="opacity:1" fill="#ee771d" d="M 366.5,253.5 C 384.346,252.511 392.512,260.844 391,278.5C 386.493,290.174 377.993,294.674 365.5,292C 353.759,286.247 349.926,277.08 354,264.5C 357.122,259.539 361.288,255.872 366.5,253.5 Z"/></g>
<g><path style="opacity:1" fill="#ee771d" d="M 429.5,274.5 C 447.681,273.18 455.848,281.513 454,299.5C 452.167,306.667 447.667,311.167 440.5,313C 429.562,315.447 421.728,311.614 417,301.5C 413.606,288.957 417.772,279.957 429.5,274.5 Z"/></g>
<g><path style="opacity:1" fill="#ee771d" d="M 377.5,322.5 C 394.004,321.508 402.171,329.175 402,345.5C 396.853,360.985 386.687,365.485 371.5,359C 360.294,348.954 359.628,338.287 369.5,327C 372.099,325.205 374.766,323.705 377.5,322.5 Z"/></g>
</svg>
