<?xml version="1.0" encoding="UTF-8"?>
<svg version="1.1" xmlns="http://www.w3.org/2000/svg" width="512" height="512">
<path d="M0 0 C0.70260956 0.05867249 1.40521912 0.11734497 2.12911987 0.17779541 C14.32602626 1.23161505 25.65847688 3.13687154 34.5078125 12.31640625 C41.43830729 21.25964953 41.61264525 32.02137174 42.125 42.875 C42.20455491 44.40886443 42.28430935 45.94271853 42.36425781 47.4765625 C45.0944913 101.82871272 38.69620233 159.61096427 1.03515625 202.015625 C-0.79111589 204.02676703 -2.64714075 205.9995594 -4.51953125 207.96875 C-6.31846924 209.89203855 -8.00756401 211.80066204 -9.671875 213.83203125 C-15.76074534 221.1048486 -23.72931992 226.63032988 -31.18359375 232.4296875 C-33.19039009 233.98261741 -33.19039009 233.98261741 -35.0625 235.6875 C-34.52584717 235.87747559 -33.98919434 236.06745117 -33.4362793 236.26318359 C-8.84868881 245.06031492 12.8535643 256.65598723 31.9375 274.6875 C33.28758458 275.83814027 34.64161589 276.9841696 36 278.125 C64.35074238 302.95320525 80.9664066 339.77643315 88.1875 376.125 C88.33872314 376.87330078 88.48994629 377.62160156 88.64575195 378.39257812 C91.74859539 395.28213811 92.24466421 412.36785626 92.14331055 429.49267578 C92.12485589 432.7126448 92.12280327 435.93232684 92.12304688 439.15234375 C92.0617918 476.64098916 92.0617918 476.64098916 81.94140625 486.97265625 C72.80436897 494.79168035 61.44074168 495.40665984 49.9375 496.6875 C49.06416016 496.79191406 48.19082031 496.89632813 47.29101562 497.00390625 C-9.65000311 503.63373747 -66.92676056 496.57316248 -113.23242188 460.62719727 C-130.647245 446.77329184 -145.97891138 430.0741254 -157.0625 410.6875 C-160.23013795 413.65716058 -162.95321451 416.76270607 -165.625 420.1875 C-178.53538416 436.45217089 -193.33460204 449.8523468 -211.0625 460.6875 C-211.74795898 461.10773438 -212.43341797 461.52796875 -213.13964844 461.9609375 C-246.17466207 481.91801667 -285.00698325 489.02894685 -323.0625 491.6875 C-323.83932129 491.74389648 -324.61614258 491.80029297 -325.41650391 491.85839844 C-330.29666736 492.20529544 -335.17474142 492.47299022 -340.0625 492.6875 C-341.10019531 492.74164063 -342.13789063 492.79578125 -343.20703125 492.8515625 C-352.27500323 493.13057702 -360.12819667 491.31467607 -367.24609375 485.4765625 C-387.21779177 465.8055137 -388.14046964 417.656223 -388.484375 391.16699219 C-388.76159576 348.11229723 -377.15007422 307.66992439 -350.0625 273.6875 C-349.35504639 272.79853027 -349.35504639 272.79853027 -348.63330078 271.89160156 C-320.17315757 236.5597746 -280.50136027 215.66664077 -236.01953125 208.23046875 C-233.14412787 207.84428315 -233.14412787 207.84428315 -231.0625 206.6875 C-231.2790625 204.97820312 -231.2790625 204.97820312 -231.5 203.234375 C-234.59388399 177.50701082 -233.37732265 151.67025636 -226.0625 126.6875 C-225.84142578 125.93114258 -225.62035156 125.17478516 -225.39257812 124.39550781 C-219.42424022 104.62235581 -209.93743726 85.86214603 -197.0625 69.6875 C-196.63646484 69.15012207 -196.21042969 68.61274414 -195.77148438 68.05908203 C-171.78204337 38.05451082 -140.07854238 16.33537629 -103.0625 5.6875 C-102.39105957 5.49317383 -101.71961914 5.29884766 -101.02783203 5.09863281 C-68.57528942 -4.01448011 -33.29055883 -2.87902809 0 0 Z " fill="#38A44D" transform="translate(404.0625,7.3125)"/>
<path d="M0 0 C0.70260956 0.05867249 1.40521912 0.11734497 2.12911987 0.17779541 C14.23755297 1.22397091 25.63471819 3.0972071 34.42578125 12.234375 C36.09666598 14.46222131 36.99577818 16.05101082 36.73828125 18.86328125 C35.65688712 22.6771737 34.12668901 26.20215847 32.5 29.8125 C32.14583008 30.59947266 31.79166016 31.38644531 31.42675781 32.19726562 C20.11342162 56.98259714 5.38025634 78.80171998 -12.0625 99.6875 C-12.86300781 100.67492187 -13.66351563 101.66234375 -14.48828125 102.6796875 C-21.1799545 110.81746905 -28.49340657 118.306783 -35.9375 125.75 C-36.44154358 126.25494995 -36.94558716 126.7598999 -37.46490479 127.28015137 C-42.4864388 132.30066404 -47.47857855 137.28661276 -53.0625 141.6875 C-52.4025 142.6775 -51.7425 143.6675 -51.0625 144.6875 C-51.50694444 150.13194444 -51.50694444 150.13194444 -54.0625 152.6875 C-57.76315191 152.8725326 -60.99463911 152.89453322 -64.63012695 152.18969727 C-68.85828307 151.57106741 -72.97874087 151.50671757 -77.24609375 151.484375 C-78.13086899 151.47749664 -79.01564423 151.47061829 -79.92723083 151.46353149 C-82.78486237 151.44636554 -85.64231957 151.44007131 -88.5 151.4375 C-89.95155487 151.43499237 -89.95155487 151.43499237 -91.43243408 151.43243408 C-121.36843144 150.4564449 -121.36843144 150.4564449 -146.6875 163.5625 C-147.74384644 164.56591431 -147.74384644 164.56591431 -148.8215332 165.58959961 C-156.74682048 173.18808953 -164.06766263 181.22660436 -171.0625 189.6875 C-170.49402344 189.55472656 -169.92554688 189.42195312 -169.33984375 189.28515625 C-168.18162109 189.02025391 -168.18162109 189.02025391 -167 188.75 C-166.24589844 188.57597656 -165.49179688 188.40195313 -164.71484375 188.22265625 C-147.7295926 184.7955879 -124.91170397 183.68042395 -109.17578125 192.26171875 C-107.0625 193.6875 -107.0625 193.6875 -106.0625 194.6875 C-105.875 197.125 -105.875 197.125 -106.0625 199.6875 C-108.0625 201.6875 -108.0625 201.6875 -111.4375 202 C-116.16920412 201.90519354 -120.51128615 200.65536871 -125.03515625 199.34375 C-131.14617271 198.01903933 -135.57513546 198.50689495 -141.14453125 201.3125 C-142.78905273 202.12460937 -142.78905273 202.12460937 -144.46679688 202.953125 C-145.59150391 203.52546875 -146.71621094 204.0978125 -147.875 204.6875 C-150.1299557 205.81561305 -152.38639122 206.94077461 -154.64453125 208.0625 C-155.63686768 208.56523437 -156.6292041 209.06796875 -157.65161133 209.5859375 C-160.0625 210.6875 -160.0625 210.6875 -162.0625 210.6875 C-162.0625 211.3475 -162.0625 212.0075 -162.0625 212.6875 C-161.03189453 212.52701172 -161.03189453 212.52701172 -159.98046875 212.36328125 C-159.07941406 212.24339844 -158.17835938 212.12351563 -157.25 212 C-156.35667969 211.87238281 -155.46335938 211.74476563 -154.54296875 211.61328125 C-152.0625 211.6875 -152.0625 211.6875 -150.17578125 212.73046875 C-148.77623589 215.19072217 -148.9555199 216.8954449 -149.48828125 219.63085938 C-150.63108164 223.72395058 -152.3396913 227.56055192 -154.0625 231.4375 C-154.46766846 232.36071045 -154.87283691 233.2839209 -155.2902832 234.23510742 C-156.53657374 237.05766703 -157.79827591 239.87293532 -159.0625 242.6875 C-159.41876465 243.4933252 -159.7750293 244.29915039 -160.14208984 245.12939453 C-165.55229862 257.32232103 -172.00444317 268.77138748 -178.828125 280.2265625 C-184.9300573 290.00124865 -184.9300573 290.00124865 -188.8125 300.75 C-189.03421875 301.68972656 -189.2559375 302.62945312 -189.484375 303.59765625 C-193.10757123 322.96217122 -192.07713966 342.97137651 -184.85546875 361.34375 C-183.72093901 364.69703988 -183.61528158 367.18428904 -184.0625 370.6875 C-186.0625 372.6875 -186.0625 372.6875 -189 373.125 C-190.010625 372.980625 -191.02125 372.83625 -192.0625 372.6875 C-193.8125 370.25 -193.8125 370.25 -195.0625 367.6875 C-195.7225 367.3575 -196.3825 367.0275 -197.0625 366.6875 C-197.46867554 367.79544922 -197.46867554 367.79544922 -197.88305664 368.92578125 C-199.00956748 371.56355617 -200.23886012 373.5739829 -201.93359375 375.875 C-202.50247314 376.64980713 -203.07135254 377.42461426 -203.6574707 378.22290039 C-204.26550537 379.03621826 -204.87354004 379.84953613 -205.5 380.6875 C-206.44008911 381.95291626 -206.44008911 381.95291626 -207.39916992 383.24389648 C-212.68792246 390.30430383 -218.23204342 397.0711198 -224.0625 403.6875 C-224.76117188 404.49703125 -225.45984375 405.3065625 -226.1796875 406.140625 C-236.51905806 417.92360579 -247.63538705 429.11698549 -260.0625 438.6875 C-261.46048828 439.82832031 -261.46048828 439.82832031 -262.88671875 440.9921875 C-288.15136285 461.24272169 -319.04046505 476.93503863 -351.0625 482.6875 C-351.7539209 482.83155273 -352.4453418 482.97560547 -353.15771484 483.12402344 C-366.24765216 485.79913268 -366.24765216 485.79913268 -370.37109375 483.2734375 C-372.04441651 481.1118884 -373.04151949 479.22412211 -374.0625 476.6875 C-374.54356201 475.62587646 -375.02462402 474.56425293 -375.52026367 473.47045898 C-377.03609025 469.93200699 -377.9471494 466.42908533 -378.74609375 462.65625 C-378.95685547 461.66631798 -378.95685547 461.66631798 -379.171875 460.65638733 C-379.62537995 458.5021604 -380.0648116 456.34549855 -380.5 454.1875 C-380.65179718 453.43830292 -380.80359436 452.68910583 -380.95999146 451.91720581 C-392.4004803 395.01869778 -392.8293313 336.91734818 -359.73779297 286.67626953 C-356.68482398 282.21011637 -353.4339075 277.91706295 -350.0625 273.6875 C-349.35504639 272.79853027 -349.35504639 272.79853027 -348.63330078 271.89160156 C-320.17315757 236.5597746 -280.50136027 215.66664077 -236.01953125 208.23046875 C-233.14412787 207.84428315 -233.14412787 207.84428315 -231.0625 206.6875 C-231.2790625 204.97820312 -231.2790625 204.97820312 -231.5 203.234375 C-234.59388399 177.50701082 -233.37732265 151.67025636 -226.0625 126.6875 C-225.84142578 125.93114258 -225.62035156 125.17478516 -225.39257812 124.39550781 C-219.42424022 104.62235581 -209.93743726 85.86214603 -197.0625 69.6875 C-196.63646484 69.15012207 -196.21042969 68.61274414 -195.77148438 68.05908203 C-171.78204337 38.05451082 -140.07854238 16.33537629 -103.0625 5.6875 C-102.39105957 5.49317383 -101.71961914 5.29884766 -101.02783203 5.09863281 C-68.57528942 -4.01448011 -33.29055883 -2.87902809 0 0 Z " fill="#3EB655" transform="translate(404.0625,7.3125)"/>
<path d="M0 0 C5.03150026 0.71059913 8.24274783 3.29997233 12.3046875 6.234375 C13.13242676 6.81622559 13.96016602 7.39807617 14.81298828 7.99755859 C21.05323268 12.41261203 27.19858903 16.96153662 33.26513672 21.61230469 C51.61616235 35.65373018 76.34841831 37.59872986 98.734375 35.06640625 C104.25029526 34.34522494 104.25029526 34.34522494 109.4296875 32.484375 C110.92618112 32.36432047 112.42843543 32.30906049 113.9296875 32.296875 C115.12078125 32.27560547 115.12078125 32.27560547 116.3359375 32.25390625 C118.4296875 32.484375 118.4296875 32.484375 120.4296875 34.484375 C120.0546875 38.109375 120.0546875 38.109375 119.4296875 41.484375 C113.69658061 43.88185606 108.62487223 45.06849454 102.4296875 45.484375 C105.9060948 49.01478474 109.47823934 52.42216389 113.10205078 55.80078125 C119.85213766 62.09655017 126.51835547 68.4666363 133.0546875 74.984375 C134.01145386 75.93437378 134.01145386 75.93437378 134.98754883 76.90356445 C139.33665006 81.26639427 143.40874955 85.81956137 147.4296875 90.484375 C148.3671494 91.54415576 149.30587051 92.60282455 150.24609375 93.66015625 C177.50297194 124.63745579 218.4296875 178.16965098 218.4296875 221.484375 C214.79059023 227.72705406 209.15951561 231.29232762 202.4296875 233.484375 C195.84556048 235.00806656 189.13721629 235.73751838 182.4296875 236.484375 C181.55634766 236.58878906 180.68300781 236.69320312 179.78320312 236.80078125 C122.84218439 243.43061247 65.56542694 236.37003748 19.25976562 200.42407227 C3.03765949 187.51900154 -9.83945064 172.50528235 -21.5703125 155.484375 C-22.21097656 154.60523438 -22.85164062 153.72609375 -23.51171875 152.8203125 C-25.00402044 149.52733682 -24.62948579 147.93304323 -23.5703125 144.484375 C-22.18658739 141.75662785 -20.57752705 139.19408736 -18.9453125 136.609375 C1.77793113 102.54102918 7.92083141 62.44053434 3.3046875 23.171875 C3.21227783 22.26542236 3.11986816 21.35896973 3.0246582 20.42504883 C2.41893197 16.03992624 1.89389384 13.40066823 -1.65625 10.578125 C-2.61789062 9.8871875 -3.57953125 9.19625 -4.5703125 8.484375 C-5.0703125 5.296875 -5.0703125 5.296875 -4.5703125 2.484375 C-2.5703125 0.484375 -2.5703125 0.484375 0 0 Z " fill="#3EB655" transform="translate(271.5703125,267.515625)"/>
<path d="M0 0 C2.4375 0.75 2.4375 0.75 4.4375 2.75 C4.18359199 8.87553063 1.90216309 13.9536089 -0.5625 19.5 C-0.96766846 20.42321045 -1.37283691 21.3464209 -1.7902832 22.29760742 C-3.03657374 25.12016703 -4.29827591 27.93543532 -5.5625 30.75 C-6.09689697 31.95873779 -6.09689697 31.95873779 -6.64208984 33.19189453 C-12.05229862 45.38482103 -18.50444317 56.83388748 -25.328125 68.2890625 C-31.4300573 78.06374865 -31.4300573 78.06374865 -35.3125 88.8125 C-35.53421875 89.75222656 -35.7559375 90.69195312 -35.984375 91.66015625 C-39.60757123 111.02467122 -38.57713966 131.03387651 -31.35546875 149.40625 C-30.22093901 152.75953988 -30.11528158 155.24678904 -30.5625 158.75 C-32.5625 160.75 -32.5625 160.75 -35.5 161.1875 C-38.5625 160.75 -38.5625 160.75 -40.09375 158.734375 C-41.88565223 155.09338217 -43.02506038 151.45913152 -44.125 147.5625 C-44.33318359 146.85802734 -44.54136719 146.15355469 -44.75585938 145.42773438 C-47.63274698 135.46234001 -48.8979922 125.99902935 -49.1875 115.625 C-49.22617188 114.47773438 -49.26484375 113.33046875 -49.3046875 112.1484375 C-49.39799846 109.34910883 -49.48378645 106.54977064 -49.5625 103.75 C-50.24054688 104.63300781 -50.91859375 105.51601563 -51.6171875 106.42578125 C-56.86846903 113.21518254 -62.22160423 119.77407384 -68.078125 126.0546875 C-70.01236506 128.15315549 -71.87988519 130.27739401 -73.73828125 132.44140625 C-78.10611807 137.45070658 -82.79167167 142.12536444 -87.5 146.8125 C-88.78293945 148.10124023 -88.78293945 148.10124023 -90.09179688 149.41601562 C-97.56883279 156.88164493 -105.42284968 163.72417782 -113.625 170.375 C-114.62756836 171.19484375 -114.62756836 171.19484375 -115.65039062 172.03125 C-127.42846757 181.60022213 -127.42846757 181.60022213 -131.875 182.1875 C-134.5625 181.75 -134.5625 181.75 -136.5625 179.75 C-137.0703125 176.9453125 -137.0703125 176.9453125 -136.5625 173.75 C-134.53444264 171.72194264 -132.75728882 170.24342898 -130.4375 168.625 C-129.1436828 167.66695996 -127.85207771 166.70592657 -126.5625 165.7421875 C-125.89734375 165.25073242 -125.2321875 164.75927734 -124.546875 164.25292969 C-121.40527627 161.87353971 -118.41769473 159.32699191 -115.4375 156.75 C-114.85452148 156.2461377 -114.27154297 155.74227539 -113.67089844 155.22314453 C-102.14247456 145.20416532 -91.29131548 134.6120036 -80.5625 123.75 C-84.10495831 123.75 -87.17340816 124.6492298 -90.5625 125.5625 C-99.79913942 127.96197414 -109.11806592 129.43840133 -118.5625 130.75 C-119.92761719 130.95109375 -119.92761719 130.95109375 -121.3203125 131.15625 C-127.04236745 131.87399905 -132.80292613 131.88052197 -138.5625 131.9375 C-139.41328125 131.95063232 -140.2640625 131.96376465 -141.140625 131.97729492 C-141.93984375 131.97834229 -142.7390625 131.97938965 -143.5625 131.98046875 C-144.284375 131.98457764 -145.00625 131.98868652 -145.75 131.99291992 C-147.5625 131.75 -147.5625 131.75 -149.5625 129.75 C-150.11102939 124.59382376 -150.11102939 124.59382376 -148.49584961 122.10913086 C-145.63630601 120.09889229 -142.70247107 120.12594945 -139.31640625 119.94140625 C-137.83365203 119.83546333 -136.3509049 119.72942106 -134.86816406 119.62329102 C-133.70565125 119.54777512 -133.70565125 119.54777512 -132.51965332 119.47073364 C-118.61616597 118.55202051 -105.1076998 117.1419157 -91.5625 113.75 C-90.87333496 113.5835498 -90.18416992 113.41709961 -89.47412109 113.24560547 C-86.24880945 112.46206384 -83.06327737 111.6229363 -79.875 110.6953125 C-76.5625 109.75 -76.5625 109.75 -73.6875 109.2421875 C-63.03802481 106.79652314 -57.41299079 96.19648404 -51.5625 87.75 C-51.05702637 87.02055176 -50.55155273 86.29110352 -50.03076172 85.53955078 C-47.13443741 81.32216496 -44.33526663 77.04934601 -41.5625 72.75 C-40.23607832 70.74528181 -38.9000874 68.74730245 -37.5625 66.75 C-38.10551758 66.95157715 -38.64853516 67.1531543 -39.20800781 67.36083984 C-58.62765934 74.51479949 -78.77237813 79.02575059 -99.5625 74.75 C-102.1875 73 -102.1875 73 -103.5625 70.75 C-103.40099795 67.35845705 -102.97953243 66.16703243 -100.5625 63.75 C-97.48413086 63.60229492 -97.48413086 63.60229492 -93.52734375 63.73046875 C-92.07148831 63.76523504 -90.61559337 63.79837663 -89.15966797 63.83007812 C-88.01712555 63.85823608 -88.01712555 63.85823608 -86.85150146 63.88696289 C-73.65448261 64.17058559 -61.83248673 64.25033888 -49.5625 58.75 C-48.86511719 58.43933594 -48.16773438 58.12867188 -47.44921875 57.80859375 C-41.22648554 54.99012667 -35.24733914 52.04723945 -29.7265625 48 C-26.5625 45.75 -26.5625 45.75 -24.5625 45.75 C-24.21251953 44.56857422 -24.21251953 44.56857422 -23.85546875 43.36328125 C-22.19126993 38.71257459 -20.04401437 34.37046604 -17.875 29.9375 C-14.20456578 22.37125986 -10.78718163 14.77125384 -7.80786133 6.9050293 C-4.92454789 -0.4804437 -4.92454789 -0.4804437 0 0 Z " fill="#89D297" transform="translate(250.5625,219.25)"/>
<path d="M0 0 C0.94875 0.2475 1.8975 0.495 2.875 0.75 C4.43076012 3.86152024 4.60642946 5.29233344 3.875 8.75 C1.98510742 10.16894531 1.98510742 10.16894531 -0.51953125 11.578125 C-1.43017334 12.09922852 -2.34081543 12.62033203 -3.27905273 13.15722656 C-4.21821533 13.6828418 -5.15737793 14.20845703 -6.125 14.75 C-7.82162583 15.72688926 -9.51695996 16.70602564 -11.2109375 17.6875 C-12.06913086 18.18290283 -12.92732422 18.67830566 -13.81152344 19.1887207 C-22.39206575 24.1717 -30.74882085 29.36503012 -38.875 35.0625 C-39.6592334 35.61228516 -40.4434668 36.16207031 -41.25146484 36.72851562 C-47.04847376 40.85708101 -52.6049606 45.25972149 -58.125 49.75 C-56.82578613 49.73952637 -55.52657227 49.72905273 -54.18798828 49.71826172 C-49.27883763 49.68153433 -44.36969858 49.65891157 -39.46044922 49.64013672 C-37.3523554 49.63019742 -35.24427491 49.6166413 -33.13623047 49.59912109 C-22.68092957 49.51452323 -12.27841764 49.50407388 -1.8671875 50.5703125 C-1.1351712 50.6399118 -0.40315491 50.70951111 0.3510437 50.78121948 C4.32840319 51.25350012 6.93020536 51.97971171 9.875 54.75 C9.125 60.5 9.125 60.5 6.875 62.75 C3.17434809 62.9350326 -0.05713911 62.95703322 -3.69262695 62.25219727 C-7.92078307 61.63356741 -12.04124087 61.56921757 -16.30859375 61.546875 C-17.19336899 61.53999664 -18.07814423 61.53311829 -18.98973083 61.52603149 C-21.84736237 61.50886554 -24.70481957 61.50257131 -27.5625 61.5 C-28.53020325 61.49832825 -29.49790649 61.49665649 -30.49493408 61.49493408 C-60.43093144 60.5189449 -60.43093144 60.5189449 -85.75 73.625 C-86.80634644 74.62841431 -86.80634644 74.62841431 -87.8840332 75.65209961 C-95.80932048 83.25058953 -103.13016263 91.28910436 -110.125 99.75 C-109.55652344 99.61722656 -108.98804688 99.48445313 -108.40234375 99.34765625 C-107.24412109 99.08275391 -107.24412109 99.08275391 -106.0625 98.8125 C-104.93134766 98.55146484 -104.93134766 98.55146484 -103.77734375 98.28515625 C-86.7920926 94.8580879 -63.97420397 93.74292395 -48.23828125 102.32421875 C-46.125 103.75 -46.125 103.75 -45.125 104.75 C-44.9375 107.1875 -44.9375 107.1875 -45.125 109.75 C-47.125 111.75 -47.125 111.75 -50.5 112.0625 C-55.27402554 111.95833944 -59.67078999 110.69594841 -64.265625 109.484375 C-67.89159594 108.5531147 -71.39672312 107.96021793 -75.125 107.75 C-76.83236328 107.65332031 -76.83236328 107.65332031 -78.57421875 107.5546875 C-96.10588291 107.03955535 -113.68764375 111.46585582 -128.125 121.75 C-128.62 122.245 -128.62 122.245 -129.125 122.75 C-131.5625 122.9375 -131.5625 122.9375 -134.125 122.75 C-136.125 120.75 -136.125 120.75 -136.6171875 117.60546875 C-135.9496484 112.37641246 -133.66216918 109.92858377 -130.25 106.0625 C-129.36622681 105.0115918 -129.36622681 105.0115918 -128.46459961 103.93945312 C-125.7887914 100.7680176 -123.05610675 97.65835924 -120.24609375 94.60546875 C-113.32561634 86.88200464 -110.21918354 79.46429715 -107.125 69.75 C-106.54166667 68.16666667 -105.95833333 66.58333333 -105.375 65 C-102.47292171 55.76143123 -101.93230564 46.6913757 -101.875 37.0625 C-101.86573486 36.08845215 -101.85646973 35.1144043 -101.84692383 34.11083984 C-101.87006143 28.77285923 -102.30406704 23.92153337 -103.671875 18.75439453 C-104.44462574 15.33613829 -104.37009713 12.24263414 -104.125 8.75 C-102.125 6.75 -102.125 6.75 -99.125 6.5 C-96.125 6.75 -96.125 6.75 -94.125 8.75 C-91.26134566 17.94729588 -90.66843974 27.02778752 -90.78881836 36.61132812 C-90.81273434 38.64492633 -90.80930571 40.67723096 -90.80273438 42.7109375 C-90.83912964 49.43413482 -91.21450654 55.31064755 -93.125 61.75 C-93.125 63.07 -93.125 64.39 -93.125 65.75 C-92.31417969 64.91597656 -91.50335938 64.08195312 -90.66796875 63.22265625 C-83.81918359 56.23739545 -76.81446625 49.81405062 -69.125 43.75 C-68.09909302 42.89096143 -67.07576637 42.02883434 -66.0546875 41.1640625 C-48.2942455 26.28826171 -28.26599233 13.86975932 -7.96484375 2.79296875 C-2.66221938 -0.21297755 -2.66221938 -0.21297755 0 0 Z " fill="#89D297" transform="translate(343.125,97.25)"/>
<path d="M0 0 C5.03150026 0.71059913 8.24274783 3.29997233 12.3046875 6.234375 C13.13242676 6.81622559 13.96016602 7.39807617 14.81298828 7.99755859 C21.05323268 12.41261203 27.19858903 16.96153662 33.26513672 21.61230469 C51.61616235 35.65373018 76.34841831 37.59872986 98.734375 35.06640625 C104.25029526 34.34522494 104.25029526 34.34522494 109.4296875 32.484375 C110.92618112 32.36432047 112.42843543 32.30906049 113.9296875 32.296875 C115.12078125 32.27560547 115.12078125 32.27560547 116.3359375 32.25390625 C118.4296875 32.484375 118.4296875 32.484375 120.4296875 34.484375 C120.0546875 38.109375 120.0546875 38.109375 119.4296875 41.484375 C106.66524072 46.88471787 93.79133652 46.74824264 80.1796875 46.609375 C78.45182813 46.59931988 76.72396307 46.59019853 74.99609375 46.58203125 C70.80714827 46.56023039 66.61848256 46.5258419 62.4296875 46.484375 C63.44953735 47.4885144 63.44953735 47.4885144 64.48999023 48.51293945 C67.06174875 51.04792373 69.62641067 53.58999347 72.18920898 56.1340332 C73.28988669 57.22478191 74.39236733 58.3137149 75.49682617 59.40063477 C82.64207456 66.43540637 89.20203405 73.61282407 95.4296875 81.484375 C96.29272283 82.51222147 97.16109517 83.53565972 98.0390625 84.55078125 C108.32214862 96.54146014 117.31877841 109.44693876 125.7421875 122.796875 C126.31171143 123.68624756 126.88123535 124.57562012 127.46801758 125.49194336 C127.98775146 126.33120361 128.50748535 127.17046387 129.04296875 128.03515625 C129.50485596 128.77419189 129.96674316 129.51322754 130.44262695 130.2746582 C131.60282325 132.87197126 131.69396806 134.66783212 131.4296875 137.484375 C130.3046875 139.359375 130.3046875 139.359375 128.4296875 140.484375 C125.6640625 140.5859375 125.6640625 140.5859375 122.4296875 139.484375 C120.13419241 136.90618736 118.51340373 133.97252977 116.8046875 130.984375 C115.75506106 129.23861984 114.70158572 127.49517378 113.64453125 125.75390625 C113.1119873 124.87041504 112.57944336 123.98692383 112.03076172 123.07666016 C102.24341951 107.23006065 90.21228385 92.85465487 78.4296875 78.484375 C78.56600586 79.5978833 78.56600586 79.5978833 78.70507812 80.73388672 C81.08176434 100.5792166 82.28962218 120.04696426 81.1015625 140.04296875 C81.04581055 141.01419678 80.99005859 141.9854248 80.93261719 142.98608398 C80.36196129 145.8208033 79.73992032 146.79083319 77.4296875 148.484375 C74.68407446 148.89621696 73.15005338 148.94484375 70.78735352 147.43457031 C68.70761817 144.4471713 69.1008916 141.40744006 69.20703125 137.90625 C69.21688049 137.15113129 69.22672974 136.39601257 69.23687744 135.61801147 C69.25821161 133.99787778 69.28560753 132.37781478 69.31845093 130.75787354 C69.40002397 126.53415725 69.42525893 122.31033607 69.4453125 118.0859375 C69.45155891 116.83531021 69.45155891 116.83531021 69.45793152 115.55941772 C69.48850899 100.33823517 68.03083021 85.28282081 64.4296875 70.484375 C64.213125 69.25267578 64.213125 69.25267578 63.9921875 67.99609375 C61.56722853 57.33006328 49.30656188 49.12722124 41.18359375 42.6796875 C38.35536754 40.42512987 35.61533973 38.08561391 32.8671875 35.734375 C22.33997499 26.9479906 11.107449 18.89134381 -0.6015625 11.75390625 C-2.5703125 10.484375 -2.5703125 10.484375 -4.5703125 8.484375 C-4.8203125 5.484375 -4.8203125 5.484375 -4.5703125 2.484375 C-2.5703125 0.484375 -2.5703125 0.484375 0 0 Z " fill="#89D297" transform="translate(271.5703125,267.515625)"/>
<path d="M0 0 C2.93298024 0.01093839 5.8653755 -0.00008041 8.79833984 -0.01269531 C10.66943494 -0.01137713 12.54052968 -0.00882187 14.41162109 -0.00488281 C15.28540405 -0.00893127 16.15918701 -0.01297974 17.05944824 -0.01715088 C23.15031849 0.03068958 23.15031849 0.03068958 25.38037109 2.26074219 C12.08482909 12.96460168 -1.65379801 22.84597935 -16.05712891 32.01074219 C-16.88043701 32.53659912 -17.70374512 33.06245605 -18.55200195 33.60424805 C-19.31552979 34.08385986 -20.07905762 34.56347168 -20.86572266 35.05761719 C-21.54304443 35.48397461 -22.22036621 35.91033203 -22.91821289 36.34960938 C-24.61962891 37.26074219 -24.61962891 37.26074219 -26.61962891 37.26074219 C-26.61962891 37.92074219 -26.61962891 38.58074219 -26.61962891 39.26074219 C-27.26287109 39.11926758 -27.90611328 38.97779297 -28.56884766 38.83203125 C-35.98015243 37.32809672 -43.07086354 36.95758187 -50.61962891 37.01074219 C-51.71791016 37.00300781 -52.81619141 36.99527344 -53.94775391 36.98730469 C-61.05845577 37.00415469 -67.6721773 37.78737419 -74.61962891 39.26074219 C-76.61870561 39.59956875 -78.61818617 39.93618391 -80.61962891 40.26074219 C-77.20060197 35.43903753 -73.62954741 31.12340161 -69.37744141 27.01855469 C-67.6560821 25.29719538 -66.11417734 23.50576518 -64.55712891 21.63574219 C-61.12816828 17.70366092 -57.48712482 14.0169167 -53.74462891 10.38574219 C-53.17993896 9.81388184 -52.61524902 9.24202148 -52.03344727 8.65283203 C-47.48473167 4.32706101 -43.77849549 3.03966694 -37.61962891 2.26074219 C-36.37004395 2.08075684 -35.12045898 1.90077148 -33.83300781 1.71533203 C-22.56207759 0.20424441 -11.3596689 -0.05059986 0 0 Z " fill="#3EB655" transform="translate(312.61962890625,157.7392578125)"/>
<path d="M0 0 C0.33 0 0.66 0 1 0 C2.05480835 43.54014449 -11.57599895 98.72759493 -38 134 C-38.33 134 -38.66 134 -39 134 C-42.83331203 118.07350121 -44.01065931 101.01659401 -40 85 C-39.79503906 83.67162109 -39.79503906 83.67162109 -39.5859375 82.31640625 C-38.01468359 73.67450974 -33.71701231 67.22813477 -29.09375 59.94140625 C-17.38069184 41.42900657 -6.72312263 20.89921864 0 0 Z " fill="#3EB655" transform="translate(254,226)"/>
<path d="M0 0 C5.01534541 0.67475531 9.31334409 2.73548881 13.875 4.8125 C14.74777588 5.20920898 15.62055176 5.60591797 16.51977539 6.01464844 C42.86847847 18.15441389 68.69657236 32.64817682 91.125 51.1875 C94.75434569 54.10229615 97.36134125 54.90130513 102 55 C102 55.33 102 55.66 102 56 C88.63404443 56.34258167 76.02237764 56.37922458 63 53 C62.0419043 52.76651855 62.0419043 52.76651855 61.06445312 52.52832031 C52.49245799 50.38318067 46.4035924 47.17516147 39.78515625 41.17578125 C35.09118099 37.07415714 29.9179463 33.61233955 24.77484131 30.10583496 C23.63927708 29.33103651 22.50614197 28.55266506 21.37554932 27.77062988 C19.76819393 26.65980912 18.15179715 25.56210684 16.53515625 24.46484375 C15.11795288 23.49985962 15.11795288 23.49985962 13.67211914 22.51538086 C11.03562731 21.02020454 8.98495181 20.39278353 6 20 C4.99513105 17.04329782 3.99693976 14.08438423 3 11.125 C2.71382813 10.28324219 2.42765625 9.44148438 2.1328125 8.57421875 C1.86210937 7.76855469 1.59140625 6.96289062 1.3125 6.1328125 C1.06113281 5.38918457 0.80976563 4.64555664 0.55078125 3.87939453 C0 2 0 2 0 0 Z " fill="#3EB655" transform="translate(264,248)"/>
</svg>
