<?xml version="1.0" encoding="UTF-8"?>
<svg version="1.1" xmlns="http://www.w3.org/2000/svg" width="512" height="512">
<path d="M0 0 C0.87060059 0.05712158 1.74120117 0.11424316 2.63818359 0.1730957 C34.97277964 2.57055021 63.55935654 16.31700003 87.4375 37.875 C88.17613281 38.54144531 88.91476562 39.20789063 89.67578125 39.89453125 C111.14460243 60.33078387 127.37246764 92.53074875 128.5338856 122.34965909 C128.57507482 125.33555906 128.58518797 128.3201016 128.58467102 131.30628967 C128.58834771 132.45143191 128.5920244 133.59657415 128.5958125 134.77641767 C128.60681792 138.61014565 128.61068776 142.4438465 128.61450195 146.27758789 C128.62023978 149.02747324 128.6274031 151.77735458 128.63441467 154.52723694 C128.65412368 162.77209368 128.66423451 171.01695156 128.67314246 179.26182595 C128.67753121 183.1467086 128.68289619 187.0315899 128.68813133 190.91647148 C128.70513187 203.8314603 128.71962848 216.74644829 128.72688007 229.66144657 C128.72878985 233.00842858 128.73071021 236.35541059 128.73266602 239.70239258 C128.73314976 240.53423234 128.7336335 241.3660721 128.7341319 242.22311913 C128.74244177 255.71430377 128.76780003 269.20540002 128.80024669 282.69654603 C128.83330023 296.55301044 128.85132696 310.40942987 128.85452431 324.26593393 C128.85669011 332.04391787 128.86544987 339.82177259 128.89098549 347.59971809 C128.91266852 354.21923034 128.92075449 360.83858193 128.91101871 367.45812566 C128.90646797 370.83523736 128.91057765 374.21174803 128.92778015 377.58885956 C128.9453881 381.24975335 128.9384468 384.90980063 128.92524719 388.57069397 C128.94170106 390.17151442 128.94170106 390.17151442 128.95848733 391.80467469 C128.90606034 397.81042485 128.46633197 401.31361314 124.4375 405.875 C118.92788321 409.86947217 114.01672884 410.02174588 107.37761307 410.00642776 C106.55484485 410.0084804 105.73207664 410.01053303 104.88437605 410.01264787 C102.10952766 410.01833143 99.33472869 410.01685895 96.55987549 410.01544189 C94.55747125 410.01802475 92.55506752 410.02103769 90.55266452 410.0244453 C85.03597938 410.03252785 79.51930724 410.03430556 74.00261688 410.03504276 C68.05837148 410.03689113 62.11413285 410.04443734 56.16989136 410.05117798 C42.48760248 410.06547948 28.80531456 410.07128889 15.12301991 410.07586992 C8.36257228 410.07820552 1.60212551 410.08180812 -5.15832145 410.0855653 C-28.29758739 410.09840073 -51.43685286 410.10912016 -74.57612228 410.1125679 C-76.0287547 410.11278953 -77.48138711 410.11301132 -78.93401952 410.11323325 C-80.39016967 410.11345389 -81.84631982 410.11367438 -83.30246997 410.1138947 C-86.22378206 410.11433726 -89.14509416 410.11478437 -92.06640625 410.11523438 C-92.79072218 410.11534377 -93.51503811 410.11545316 -94.26130301 410.11556586 C-117.75054619 410.119197 -141.23975851 410.13511921 -164.72898987 410.15842474 C-189.56014734 410.18301669 -214.39128717 410.19674043 -239.22245717 410.19793582 C-241.94789839 410.19810728 -244.67333961 410.1983227 -247.39878082 410.19857025 C-248.06986657 410.19862602 -248.74095232 410.19868179 -249.432374 410.19873925 C-260.23524931 410.19989022 -271.03809297 410.21091606 -281.84095759 410.22545731 C-292.69767041 410.23981843 -303.55434069 410.2428088 -314.4110603 410.23501733 C-320.29349306 410.23110363 -326.17581926 410.23207556 -332.05823898 410.24607468 C-337.44205755 410.25877025 -342.82568899 410.25765431 -348.20950714 410.24548396 C-350.15837478 410.24351943 -352.10725548 410.24664013 -354.05610475 410.25532833 C-356.70404696 410.26638684 -359.35132485 410.25895635 -361.9992485 410.2469368 C-363.13557708 410.25832959 -363.13557708 410.25832959 -364.29486179 410.26995254 C-369.64833469 410.21745188 -373.67039385 409.08888646 -378.5625 406.875 C-381.98258076 403.27953049 -383.68477706 400.75804028 -383.69672108 395.83502579 C-383.70117892 394.98479536 -383.70563676 394.13456494 -383.71022969 393.25856996 C-383.71004533 392.31909697 -383.70986097 391.37962399 -383.70967102 390.41168213 C-383.71334771 389.4178199 -383.7170244 388.42395767 -383.7208125 387.3999784 C-383.73188229 384.04822266 -383.73569875 380.69649788 -383.73950195 377.34472656 C-383.74576409 374.95025534 -383.75241066 372.55578509 -383.75941467 370.16131592 C-383.77866658 362.95998502 -383.78924653 355.75865666 -383.79814246 348.55730784 C-383.80252426 345.16702662 -383.80789137 341.77674696 -383.81313133 338.38646698 C-383.83014479 327.11786854 -383.84463912 315.84927108 -383.85188007 304.58066177 C-383.85379001 301.65566252 -383.85571033 298.73066328 -383.85766602 295.80566406 C-383.85814976 295.07865892 -383.8586335 294.35165379 -383.8591319 293.60261819 C-383.86743277 281.8247389 -383.89277009 270.04696115 -383.92524669 258.26912621 C-383.95830974 246.1801592 -383.97632817 234.09124382 -383.97952431 222.00223136 C-383.98169018 215.21344187 -383.9904497 208.42480044 -384.01598549 201.63605499 C-384.03920763 195.25029533 -384.04352291 188.86480242 -384.03322411 182.47901154 C-384.03272722 180.13363764 -384.03909241 177.78825088 -384.05278015 175.44291687 C-384.0704083 172.2437064 -384.06343704 169.04546269 -384.05024719 165.84625244 C-384.06121644 164.91570235 -384.07218568 163.98515225 -384.08348733 163.02640367 C-384.02679677 157.34035447 -383.27918842 154.24262635 -379.5625 149.875 C-377.44140625 148.37988281 -377.44140625 148.37988281 -375.125 147.328125 C-374.24070312 146.92271484 -373.35640625 146.51730469 -372.4453125 146.09960938 C-367.18006928 143.86295118 -361.88799657 141.71426665 -356.5625 139.625 C-353.86370793 138.55689206 -351.16632305 137.48524477 -348.46875 136.4140625 C-347.75505249 136.13114349 -347.04135498 135.84822449 -346.30603027 135.55673218 C-337.54126858 132.07972684 -328.80189965 128.54015733 -320.0625 125 C-319.19455811 124.64865997 -318.32661621 124.29731995 -317.43237305 123.93533325 C-306.48999368 119.50555605 -295.5545249 115.05905421 -284.625 110.59765625 C-280.10420673 108.75250598 -275.58338439 106.90742699 -271.0625 105.0625 C-269.9281955 104.59956543 -268.79389099 104.13663086 -267.62521362 103.65966797 C-249.93647089 96.4432387 -232.21310373 89.31747348 -214.46795654 82.24102783 C-200.23509892 76.56368213 -186.03328779 70.81826348 -171.86541748 64.98074341 C-157.51868355 59.07053769 -143.13985178 53.24189447 -128.75 47.4375 C-127.64184937 46.99048737 -126.53369873 46.54347473 -125.39196777 46.08291626 C-120.95988445 44.29521672 -116.52772666 42.50770203 -112.09542847 40.72053528 C-102.56103237 36.87574951 -93.0304614 33.02156376 -83.50158691 29.16311646 C-80.96052281 28.1343212 -78.4192519 27.10603836 -75.87792969 26.07788086 C-67.87821546 22.84082392 -59.88045332 19.59907968 -51.88696289 16.34667969 C-48.02273909 14.7747269 -44.15767802 13.20483888 -40.2925415 11.63513184 C-38.45581666 10.88852705 -36.61950073 10.14091537 -34.78363037 9.39221191 C-32.240894 8.35528563 -29.69676993 7.32183401 -27.15234375 6.2890625 C-26.41359512 5.98672699 -25.6748465 5.68439148 -24.91371155 5.37289429 C-16.38351154 1.91961082 -9.2974022 -0.70184652 0 0 Z " fill="#FEDEA0" transform="translate(383.5625,51.125)"/>
<path d="M0 0 C0 54.12 0 108.24 0 164 C-4.455 164.99 -4.455 164.99 -9 166 C-18.84585718 168.91371089 -25.38456704 173.68583795 -30.4375 182.6875 C-34.87325966 191.23268278 -35.20696725 200.41398442 -32.81640625 209.7421875 C-29.48224158 218.96298741 -23.72534158 225.51072736 -15.25 230.25 C-10.03064027 232.57245334 -10.03064027 232.57245334 0 234 C0 246.21 0 258.42 0 271 C-26.73 271 -53.46 271 -81 271 C-81 267.04 -81 263.08 -81 259 C-83.05461386 248.61278548 -86.85354939 240.35886938 -95.8203125 234.28515625 C-104.34112934 229.26123378 -112.10147411 227.75173457 -122 229 C-131.04006006 231.43220663 -138.64291426 235.82112594 -143.78515625 243.75390625 C-147.73546769 250.76734335 -149.16137267 255.70328578 -149.0625 263.75 C-149.05798828 264.44738281 -149.05347656 265.14476562 -149.04882812 265.86328125 C-149.0371002 267.57555803 -149.01916653 269.28779033 -149 271 C-150.15987427 271.00364563 -151.31974854 271.00729126 -152.51477051 271.01104736 C-163.46125725 271.04803591 -174.40746368 271.10585103 -185.35373688 271.18390274 C-190.9809534 271.22336208 -196.6080138 271.25555828 -202.23535156 271.27099609 C-207.66906572 271.28617261 -213.1023506 271.32063644 -218.53587341 271.36830902 C-220.60579186 271.38311244 -222.67577159 271.39104042 -224.7457428 271.39188385 C-227.65192083 271.39425833 -230.55691718 271.42137728 -233.46289062 271.45410156 C-234.31309784 271.4490712 -235.16330505 271.44404083 -236.03927612 271.43885803 C-241.80168452 271.53883125 -246.16430498 272.8003746 -251 276 C-252.89290509 277.93704708 -252.89290509 277.93704708 -254 280 C-254.66 280.99 -255.32 281.98 -256 283 C-256.09343057 260.28649819 -256.16397299 237.57302806 -256.20724869 214.85937309 C-256.2278762 204.31308444 -256.25600048 193.76691516 -256.30175781 183.22070312 C-256.3416197 174.02890065 -256.36743144 164.83718463 -256.37635398 155.64529812 C-256.38156981 150.77797883 -256.39383293 145.91090688 -256.42292023 141.04366684 C-256.45007904 136.46198536 -256.45844404 131.88065303 -256.45243073 127.2988987 C-256.45353075 125.61788981 -256.46148195 123.9368692 -256.4768219 122.25592995 C-256.49675782 119.95859367 -256.49192704 117.66257126 -256.48101807 115.36520386 C-256.48470524 114.08022444 -256.48839241 112.79524502 -256.49219131 111.47132683 C-255.91053253 107.36900385 -254.56586428 105.21341844 -252 102 C-249.87890625 100.50488281 -249.87890625 100.50488281 -247.5625 99.453125 C-246.23605469 98.84500977 -246.23605469 98.84500977 -244.8828125 98.22460938 C-239.61756928 95.98795118 -234.32549657 93.83926665 -229 91.75 C-226.30120793 90.68189206 -223.60382305 89.61024477 -220.90625 88.5390625 C-219.83570374 88.11468399 -219.83570374 88.11468399 -218.74353027 87.68173218 C-209.97876858 84.20472684 -201.23939965 80.66515733 -192.5 77.125 C-191.63205811 76.77365997 -190.76411621 76.42231995 -189.86987305 76.06033325 C-178.92749368 71.63055605 -167.9920249 67.18405421 -157.0625 62.72265625 C-152.54170673 60.87750598 -148.02088439 59.03242699 -143.5 57.1875 C-142.3656955 56.72456543 -141.23139099 56.26163086 -140.06271362 55.78466797 C-122.38304039 48.57193876 -104.66915837 41.44877819 -86.93264771 34.37710571 C-72.90387056 28.78240339 -58.90355609 23.12450795 -44.9375 17.375 C-34.03264413 12.88703618 -23.12756639 8.40164544 -12.1875 4 C-10.64727173 3.37617432 -10.64727173 3.37617432 -9.07592773 2.73974609 C-8.15755127 2.37187988 -7.2391748 2.00401367 -6.29296875 1.625 C-5.5043042 1.30789062 -4.71563965 0.99078125 -3.90307617 0.6640625 C-2 0 -2 0 0 0 Z " fill="#FEF9C6" transform="translate(256,99)"/>
<path d="M0 0 C0.83118996 -0.00235223 1.66237993 -0.00470446 2.51875746 -0.00712797 C5.33427609 -0.01384248 8.14974883 -0.01335901 10.96527481 -0.01294994 C12.99212727 -0.01624704 15.01897906 -0.01997228 17.04583001 -0.02409142 C22.63930293 -0.03413702 28.23276512 -0.03783232 33.82624578 -0.04048073 C39.84956286 -0.0443762 45.87287138 -0.05395501 51.89618301 -0.0626936 C65.76562103 -0.08154366 79.63505825 -0.09171709 93.50450538 -0.10015428 C100.3555072 -0.10435845 107.20650815 -0.10958074 114.05750923 -0.11483881 C137.50060757 -0.13273013 160.94370616 -0.1477271 184.3868103 -0.155159 C185.8590175 -0.15563376 187.33122469 -0.15610965 188.80343188 -0.15658666 C189.53352797 -0.15682303 190.26362405 -0.15705941 191.01584426 -0.15730295 C194.7149912 -0.15850417 198.41413813 -0.15971961 202.11328506 -0.16094494 C203.21445348 -0.16130516 203.21445348 -0.16130516 204.33786773 -0.16167267 C228.14547704 -0.16956754 251.95303656 -0.19300267 275.76062412 -0.22550088 C300.92025576 -0.2597821 326.07985825 -0.27950854 351.23951364 -0.28280324 C354.00033714 -0.28322079 356.76116062 -0.28370036 359.5219841 -0.28422642 C360.54170285 -0.28441121 360.54170285 -0.28441121 361.58202197 -0.28459973 C372.53232781 -0.28693387 383.48257593 -0.30260573 394.43286118 -0.32306826 C405.43541304 -0.3433026 416.43790483 -0.34848091 427.44047329 -0.33929763 C433.40368624 -0.33473802 439.36671137 -0.33673538 445.32989883 -0.35605907 C450.78528749 -0.3735851 456.24034983 -0.37277933 461.69574144 -0.35716178 C463.67289905 -0.35476958 465.65007863 -0.35919196 467.62720248 -0.37099043 C470.30869268 -0.38600535 472.98901101 -0.37650937 475.67047119 -0.36076355 C476.44347537 -0.37098576 477.21647955 -0.38120796 478.0129081 -0.39173993 C483.18659857 -0.32514011 486.10130985 0.87198338 490.08691788 4.13422108 C493.72771759 8.50409136 494.58968705 11.50541505 494.604496 17.14593983 C494.61500992 18.15692234 494.61500992 18.15692234 494.62573624 19.18832874 C494.64323559 21.39988785 494.63172386 23.61015065 494.61816788 25.82172108 C494.62086515 27.36819165 494.62474953 28.91466058 494.62976456 30.46112537 C494.63564863 33.69574667 494.62713242 36.92992489 494.60840225 40.16449451 C494.58561272 44.30059041 494.59874176 48.43564797 494.62269211 52.57170582 C494.63718001 55.76316552 494.63253054 58.95438102 494.62218094 62.14584827 C494.61952189 63.67040602 494.62275442 65.19498628 494.63209915 66.71951771 C494.642315 68.85443909 494.62669727 70.98770366 494.604496 73.12250233 C494.60131363 74.33462391 494.59813126 75.54674549 494.59485245 76.79559803 C493.98384042 80.81174291 492.59535299 82.97485289 490.08691788 86.13422108 C484.57730109 90.12869325 479.66614672 90.28096696 473.02703094 90.26564884 C471.79287862 90.26872779 471.79287862 90.26872779 470.53379393 90.27186894 C467.75894554 90.27755251 464.98414657 90.27608002 462.20929337 90.27466297 C460.20688913 90.27724583 458.2044854 90.28025876 456.2020824 90.28366637 C450.68539726 90.29174893 445.16872512 90.29352664 439.65203476 90.29426384 C433.70778935 90.2961122 427.76355073 90.30365842 421.81930923 90.31039906 C408.13702035 90.32470056 394.45473244 90.33050997 380.77243779 90.335091 C374.01199016 90.3374266 367.25154339 90.3410292 360.49109642 90.34478638 C337.35183048 90.35762181 314.21256502 90.36834124 291.07329559 90.37178898 C289.62066318 90.37201061 288.16803077 90.3722324 286.71539836 90.37245433 C285.25924821 90.37267497 283.80309806 90.37289545 282.34694791 90.37311578 C279.42563581 90.37355833 276.50432372 90.37400545 273.58301163 90.37445545 C272.8586957 90.37456484 272.13437976 90.37467423 271.38811487 90.37478694 C247.89887169 90.37841807 224.40965937 90.39434028 200.92042801 90.41764582 C176.08927054 90.44223776 151.25813071 90.45596151 126.42696071 90.4571569 C123.70151949 90.45732835 120.97607827 90.45754378 118.25063705 90.45779133 C117.57955131 90.4578471 116.90846556 90.45790287 116.21704388 90.45796032 C105.41416857 90.45911129 94.61132491 90.47013714 83.80846029 90.48467838 C72.95174747 90.4990395 62.09507718 90.50202988 51.23835757 90.49423841 C45.35592482 90.49032471 39.47359862 90.49129664 33.59117889 90.50529575 C28.20736033 90.51799133 22.82372888 90.51687539 17.43991074 90.50470504 C15.4910431 90.50274051 13.54216239 90.5058612 11.59331313 90.5145494 C8.94537092 90.52560792 6.29809303 90.51817743 3.65016937 90.50615788 C2.51384079 90.51755067 2.51384079 90.51755067 1.35455608 90.52917361 C-3.99891681 90.47667295 -8.02097597 89.34810754 -12.91308212 87.13422108 C-17.25331001 82.5714174 -18.03905877 79.86366291 -18.07421494 73.66840076 C-18.07917984 73.0047501 -18.08414474 72.34109943 -18.0892601 71.65733814 C-18.10389035 69.45691363 -18.11068628 67.25656129 -18.11620712 65.05609608 C-18.12195933 63.52633125 -18.12771706 61.99656643 -18.13348007 60.46680164 C-18.14399352 57.25551486 -18.14983344 54.04425312 -18.1533165 50.83295155 C-18.15879189 46.72609977 -18.18279773 42.61958111 -18.21128845 38.5128336 C-18.2299539 35.35060137 -18.23512257 32.18844861 -18.23665237 29.02616596 C-18.23967231 27.51275537 -18.24767856 25.99934596 -18.26083755 24.48598957 C-18.27797506 22.36294578 -18.27599924 20.24070523 -18.26952744 18.11761951 C-18.27317307 16.91119801 -18.2768187 15.7047765 -18.2805748 14.46179676 C-17.72505682 9.43168802 -16.09488182 6.20072324 -12.35058212 2.82172108 C-8.15252406 -0.08462682 -4.97696382 -0.00943793 0 0 Z " fill="#7F4F7A" transform="translate(17.913082122802734,370.86577892303467)"/>
<path d="M0 0 C7.11888624 4.62212915 13.52111384 10.00742262 19.8125 15.6875 C20.55113281 16.35394531 21.28976562 17.02039063 22.05078125 17.70703125 C43.39364811 38.02338748 59.67683676 70.11783643 60.89833069 99.77114868 C60.92735441 102.07599974 60.92511921 104.37861251 60.91015625 106.68359375 C60.90803383 107.93391136 60.90803383 107.93391136 60.90586853 109.20948792 C60.90031168 111.84802986 60.8877674 114.48648409 60.875 117.125 C60.86997942 118.92382689 60.86541749 120.72265513 60.86132812 122.52148438 C60.85035643 126.91018958 60.83312196 131.29882996 60.8125 135.6875 C60.1525 134.6975 59.4925 133.7075 58.8125 132.6875 C56.09580492 128.84665524 54.31948361 127.04491306 49.8125 125.6875 C47.05081168 125.49054719 44.38998745 125.39367167 41.62915039 125.39697266 C40.81875809 125.39025543 40.00836578 125.38353821 39.17341614 125.37661743 C36.50226666 125.3576646 33.83136873 125.35371485 31.16015625 125.3515625 C29.29837441 125.3451335 27.43659357 125.33840506 25.57481384 125.33139038 C21.67525897 125.31942501 17.77579264 125.31570888 13.8762207 125.31689453 C8.88489521 125.31709786 3.89413816 125.28977758 -1.09705257 125.25535011 C-4.941275 125.23309115 -8.7853603 125.22905666 -12.62964058 125.23011398 C-14.46960983 125.22775721 -16.30958281 125.2189294 -18.14948845 125.20344925 C-20.72498078 125.18380606 -23.29924282 125.1896199 -25.87475586 125.20166016 C-26.63079102 125.19042114 -27.38682617 125.17918213 -28.16577148 125.16760254 C-34.22738954 125.23944483 -37.65655 127.33109828 -42 131.375 C-44.33693118 135.92586598 -44.90473833 140.41847966 -43.3515625 145.33203125 C-42.98804688 146.23308594 -42.62453125 147.13414062 -42.25 148.0625 C-38.71623968 156.90305719 -39.42603065 164.50130503 -42.99609375 173.24609375 C-46.69464782 180.82509799 -52.80690255 184.95179158 -60.5 188 C-70.3106369 189.8291018 -78.39530101 188.87304368 -86.96875 183.58984375 C-92.58237659 179.36530333 -96.74323288 172.51494458 -98.1875 165.6875 C-98.82573086 159.1088127 -98.40269863 153.66373501 -96.125 147.4375 C-94.1970256 142.1631129 -93.59700824 139.11388366 -95.1875 133.6875 C-97.42495709 129.97497861 -100.07137487 127.16613109 -104.1875 125.6875 C-107.15347703 125.47764205 -110.02815696 125.3763417 -112.99511719 125.36865234 C-113.89760822 125.35849909 -114.80009926 125.34834583 -115.72993851 125.3378849 C-118.64808 125.30727609 -121.56612403 125.29010021 -124.484375 125.2734375 C-126.28728068 125.25650167 -128.09017831 125.23868489 -129.89306641 125.2199707 C-136.57445183 125.1567998 -143.2559897 125.11068507 -149.9375 125.0625 C-164.87 124.93875 -179.8025 124.815 -195.1875 124.6875 C-195.1875 91.6875 -195.1875 58.6875 -195.1875 24.6875 C-187.845 21.75875 -180.5025 18.83 -172.9375 15.8125 C-153.94037345 8.22392284 -134.97807205 0.5555881 -116.05761719 -7.22216797 C-107.44227056 -10.76300819 -98.82022741 -14.28664366 -90.1796875 -17.765625 C-88.91537399 -18.27775543 -88.91537399 -18.27775543 -87.6255188 -18.80023193 C-86.8401474 -19.11526672 -86.054776 -19.43030151 -85.24560547 -19.75488281 C-84.55675262 -20.03229309 -83.86789978 -20.30970337 -83.15817261 -20.59552002 C-57.50615738 -29.92836471 -21.49737816 -13.51742687 0 0 Z " fill="#FFC56E" transform="translate(451.1875,73.3125)"/>
<path d="M0 0 C31.23682698 -0.08817639 62.47353393 -0.16203505 93.71044651 -0.20426132 C97.39794764 -0.20926417 101.08544849 -0.21444145 104.77294922 -0.21972656 C105.50706659 -0.2207758 106.24118396 -0.22182505 106.99754731 -0.22290608 C118.88547715 -0.24031301 130.77332964 -0.27185226 142.66121359 -0.30861118 C154.85859159 -0.34601265 167.05592907 -0.36823416 179.25336206 -0.37635398 C186.78032989 -0.38184342 194.30707911 -0.3991834 201.83397965 -0.43166587 C207.60488652 -0.45530223 213.3756532 -0.45782184 219.14659882 -0.45243073 C221.51455151 -0.45353274 223.88251235 -0.46151009 226.2504158 -0.4768219 C229.48037058 -0.49668663 232.70938561 -0.49195131 235.93936157 -0.48101807 C236.8790578 -0.49266943 237.81875404 -0.5043208 238.78692591 -0.51632524 C244.36298403 -0.46521375 247.59545022 0.24617828 252 4 C255.64079972 8.36987029 256.50276917 11.37119397 256.51757812 17.01171875 C256.52809204 18.02270126 256.52809204 18.02270126 256.53881836 19.05410767 C256.55631771 21.26566677 256.54480598 23.47592957 256.53125 25.6875 C256.53394727 27.23397058 256.53783165 28.7804395 256.54284668 30.3269043 C256.54873075 33.56152559 256.54021455 36.79570382 256.52148438 40.03027344 C256.49869485 44.16636933 256.51182388 48.3014269 256.53577423 52.43748474 C256.55026213 55.62894444 256.54561266 58.82015994 256.53526306 62.0116272 C256.53260401 63.53618494 256.53583655 65.06076521 256.54518127 66.58529663 C256.55539712 68.72021801 256.53977939 70.85348258 256.51757812 72.98828125 C256.51439575 74.20040283 256.51121338 75.41252441 256.50793457 76.66137695 C255.76880587 81.51962499 253.77380128 84.55091799 249.98113728 87.6492815 C245.65476023 89.60951243 241.71936248 89.40413498 237.02165222 89.36076355 C236.00874266 89.36332682 234.99583311 89.3658901 233.95222932 89.36853105 C230.55417319 89.37347706 227.1565602 89.35696212 223.75854492 89.34057617 C221.32434093 89.33973008 218.89013617 89.34020469 216.45593262 89.34190369 C211.21323033 89.3425871 205.97062846 89.33407152 200.72795677 89.31719017 C193.14796518 89.29279858 185.56802773 89.28499474 177.98800115 89.2812262 C165.68964257 89.27466196 153.39134373 89.25470155 141.09301758 89.22631836 C129.14705707 89.19877707 117.2011128 89.17754384 105.25512695 89.16479492 C104.15041552 89.16361267 104.15041552 89.16361267 103.02338668 89.16240653 C99.32867435 89.15849139 95.63396191 89.15470027 91.9392494 89.15097082 C61.29278071 89.11987576 30.64642167 89.06457316 0 89 C0 59.63 0 30.26 0 0 Z " fill="#6B3F67" transform="translate(256,371)"/>
<path d="M0 0 C0 32.67 0 65.34 0 99 C-81.51 99.33 -163.02 99.66 -247 100 C-244.45425717 98.30283811 -242.33100624 97.22468666 -239.52758789 96.08666992 C-238.61247437 95.71331512 -237.69736084 95.33996033 -236.7545166 94.95529175 C-235.75400269 94.55110016 -234.75348877 94.14690857 -233.72265625 93.73046875 C-232.670177 93.30226837 -231.61769775 92.87406799 -230.5333252 92.43289185 C-227.0443767 91.01447064 -223.5534713 89.60093464 -220.0625 88.1875 C-217.61505729 87.1938392 -215.16771162 86.19993938 -212.72045898 85.20581055 C-205.14931671 82.13141209 -197.57499454 79.06489251 -190 76 C-188.8445166 75.53243286 -187.6890332 75.06486572 -186.49853516 74.58312988 C-173.49153038 69.32064304 -160.4806212 64.06785668 -147.46789551 58.8195343 C-136.16388973 54.26014971 -124.86285351 49.69342796 -113.5625 45.125 C-112.58690125 44.73061737 -111.61130249 44.33623474 -110.60614014 43.92990112 C-96.32549222 38.15672445 -82.04858755 32.37436889 -67.77441406 26.58520508 C-56.55671495 22.03573096 -45.33741212 17.49022808 -34.11685181 12.94781494 C-32.2723994 12.20110607 -30.42797716 11.4543227 -28.58358765 10.7074585 C-24.44263204 9.03066728 -20.3012955 7.35484364 -16.15869141 5.68212891 C-13.65292921 4.67014163 -11.15033509 3.65163863 -8.64990234 2.62646484 C-7.74836426 2.25859863 -6.84682617 1.89073242 -5.91796875 1.51171875 C-4.82198364 1.06058716 -4.82198364 1.06058716 -3.70385742 0.6003418 C-2 0 -2 0 0 0 Z " fill="#FFDEA0" transform="translate(256,99)"/>
<path d="M0 0 C8.52658814 5.96083669 13.81698874 13.45809981 15.7265625 23.7265625 C16.31804985 28.64435736 16.57538705 33.27383884 15 38 C121.92 38 228.84 38 339 38 C339 38.33 339 38.66 339 39 C178.62 39 18.24 39 -147 39 C-147 38.67 -147 38.34 -147 38 C-115.98 38 -84.96 38 -53 38 C-53.33 37.01 -53.66 36.02 -54 35 C-55.01799057 24.03574088 -52.61086074 15.39746732 -45.6875 6.8125 C-33.40496391 -6.37985357 -15.6596665 -9.13850226 0 0 Z " fill="#F6D6A0" transform="translate(160,332)"/>
<path d="M0 0 C11.16061697 1.24006855 19.41043364 3.41694964 27 12 C33.83227098 21.58036219 35.95537125 29.69283494 34.7578125 41.359375 C33.02442315 51.33520756 27.12410162 59.20367702 19 65 C12.66539078 69.26643085 8.11714663 69.26207758 0 70 C0 46.9 0 23.8 0 0 Z " fill="#FFC56E" transform="translate(256,263)"/>
<path d="M0 0 C3.93792318 2.56821077 6.74612583 5.61725165 8.875 9.875 C9.48650944 15.78625789 8.79010741 19.28690035 5.3515625 24.17578125 C2.57485937 27.37119359 -0.14115125 28.59312221 -4.296875 29.18359375 C-9.72631379 29.48421704 -12.93948143 28.57383037 -17.125 24.875 C-20.77921278 20.73996975 -21.78470869 17.49772456 -21.50390625 12.1171875 C-20.75355672 7.6769748 -19.00995823 4.45201951 -15.546875 1.5546875 C-10.39503604 -1.7638394 -5.81722761 -2.09420194 0 0 Z " fill="#FFA763" transform="translate(329.125,139.125)"/>
<path d="M0 0 C3.93792318 2.56821077 6.74612583 5.61725165 8.875 9.875 C9.48650944 15.78625789 8.79010741 19.28690035 5.3515625 24.17578125 C2.57485937 27.37119359 -0.14115125 28.59312221 -4.296875 29.18359375 C-9.72631379 29.48421704 -12.93948143 28.57383037 -17.125 24.875 C-20.77921278 20.73996975 -21.78470869 17.49772456 -21.50390625 12.1171875 C-20.75355672 7.6769748 -19.00995823 4.45201951 -15.546875 1.5546875 C-10.39503604 -1.7638394 -5.81722761 -2.09420194 0 0 Z " fill="#FFA763" transform="translate(410.125,112.125)"/>
<path d="M0 0 C4.36492736 2.40706674 5.93942071 4.83284673 7.8125 9.4375 C8.54513195 14.47434465 7.62316908 18.24825853 5.203125 22.63671875 C2.26361229 26.44322257 -1.62393072 27.92478614 -6.23828125 28.84765625 C-11.09020485 29.21508347 -14.09662806 27.81441529 -17.7109375 24.84375 C-21.36740479 21.3614002 -22.39402178 18.53657965 -22.6875 13.5625 C-22.51527162 8.30953437 -20.9924296 5.04217015 -17.1875 1.4375 C-11.50890504 -2.38937921 -6.23976682 -2.68576234 0 0 Z " fill="#FFC56E" transform="translate(439.1875,314.5625)"/>
<path d="M0 0 C4.32625381 2.20394062 7.64014223 4.73410327 10 9 C10.79163639 14.28296123 10.67068694 18.58123916 8.375 23.4375 C4.47379661 27.64669313 1.3348814 30.2058043 -4.5 30.5 C-10.3348814 30.2058043 -13.47379661 27.64669313 -17.375 23.4375 C-19.68105331 18.55931031 -20.02898713 14.29851582 -19 9 C-14.77231383 1.33561411 -8.46252394 -1.19211207 0 0 Z " fill="#FFDEA1" transform="translate(81,258)"/>
</svg>
