<?xml version="1.0" encoding="UTF-8"?>
<!DOCTYPE svg PUBLIC "-//W3C//DTD SVG 1.1//EN" "http://www.w3.org/Graphics/SVG/1.1/DTD/svg11.dtd">
<svg xmlns="http://www.w3.org/2000/svg" version="1.1" width="512px" height="512px" style="shape-rendering:geometricPrecision; text-rendering:geometricPrecision; image-rendering:optimizeQuality; fill-rule:evenodd; clip-rule:evenodd" xmlns:xlink="http://www.w3.org/1999/xlink">
<g><path style="opacity:0.999" fill="#fabd19" d="M 391.5,23.5 C 347.832,23.3333 304.165,23.5 260.5,24C 258.333,24.8333 256.833,26.3333 256,28.5C 255.5,40.1619 255.333,51.8286 255.5,63.5C 212.833,63.5 170.167,63.5 127.5,63.5C 124.039,63.8541 121.539,62.5208 120,59.5C 119.333,46.1667 119.333,32.8333 120,19.5C 120.5,17.6667 121.667,16.5 123.5,16C 211.5,15.3333 299.5,15.3333 387.5,16C 390.521,17.5388 391.854,20.0388 391.5,23.5 Z"/></g>
<g><path style="opacity:1" fill="#f5871d" d="M 391.5,23.5 C 391.667,35.5046 391.5,47.5046 391,59.5C 389.461,62.5208 386.961,63.8541 383.5,63.5C 340.833,63.5 298.167,63.5 255.5,63.5C 255.333,51.8286 255.5,40.1619 256,28.5C 256.833,26.3333 258.333,24.8333 260.5,24C 304.165,23.5 347.832,23.3333 391.5,23.5 Z"/></g>
<g><path style="opacity:1" fill="#68a040" d="M 127.5,63.5 C 170.167,63.5 212.833,63.5 255.5,63.5C 298.167,63.5 340.833,63.5 383.5,63.5C 383.5,71.5 383.5,79.5 383.5,87.5C 298.167,87.5 212.833,87.5 127.5,87.5C 127.5,79.5 127.5,71.5 127.5,63.5 Z"/></g>
<g><path style="opacity:0.999" fill="#91b845" d="M 127.5,87.5 C 212.833,87.5 298.167,87.5 383.5,87.5C 403.833,88.5 414.5,99.1667 415.5,119.5C 363.832,119.333 312.166,119.5 260.5,120C 258.333,120.833 256.833,122.333 256,124.5C 255.5,141.497 255.333,158.497 255.5,175.5C 251.5,175.5 247.5,175.5 243.5,175.5C 207.5,175.5 171.5,175.5 135.5,175.5C 135.5,168.5 135.5,161.5 135.5,154.5C 139.575,160.206 144.408,160.872 150,156.5C 152.853,146.019 149.019,142.186 138.5,145C 137.364,146.145 136.364,147.312 135.5,148.5C 135.667,137.828 135.5,127.161 135,116.5C 131.108,110.741 126.441,110.074 121,114.5C 119.524,134.741 119.024,155.075 119.5,175.5C 111.5,175.5 103.5,175.5 95.5,175.5C 95.3334,154.164 95.5,132.831 96,111.5C 99.1667,99 107,91.1667 119.5,88C 122.146,87.5026 124.813,87.3359 127.5,87.5 Z"/></g>
<g><path style="opacity:1" fill="#aed662" d="M 135.5,148.5 C 135.5,150.5 135.5,152.5 135.5,154.5C 135.5,161.5 135.5,168.5 135.5,175.5C 130.167,175.5 124.833,175.5 119.5,175.5C 119.024,155.075 119.524,134.741 121,114.5C 126.441,110.074 131.108,110.741 135,116.5C 135.5,127.161 135.667,137.828 135.5,148.5 Z"/></g>
<g><path style="opacity:1" fill="#689f41" d="M 415.5,119.5 C 415.5,138.167 415.5,156.833 415.5,175.5C 366.167,175.5 316.833,175.5 267.5,175.5C 263.5,175.5 259.5,175.5 255.5,175.5C 255.333,158.497 255.5,141.497 256,124.5C 256.833,122.333 258.333,120.833 260.5,120C 312.166,119.5 363.832,119.333 415.5,119.5 Z"/></g>
<g><path style="opacity:1" fill="#69a041" d="M 207.5,127.5 C 220.018,127.505 224.851,133.505 222,145.5C 214.966,153.413 207.966,153.413 201,145.5C 197.82,137.532 199.987,131.532 207.5,127.5 Z"/></g>
<g><path style="opacity:1" fill="#4b8c41" d="M 367.5,135.5 C 374.663,134.331 379.829,136.998 383,143.5C 383.833,154.667 378.667,159.833 367.5,159C 356.874,151.132 356.874,143.299 367.5,135.5 Z"/></g>
<g><path style="opacity:1" fill="#6aa041" d="M 135.5,154.5 C 135.5,152.5 135.5,150.5 135.5,148.5C 136.364,147.312 137.364,146.145 138.5,145C 149.019,142.186 152.853,146.019 150,156.5C 144.408,160.872 139.575,160.206 135.5,154.5 Z"/></g>
<g><path style="opacity:1" fill="#f9be18" d="M 95.5,175.5 C 103.5,175.5 111.5,175.5 119.5,175.5C 119.5,250.167 119.5,324.833 119.5,399.5C 111.5,399.5 103.5,399.5 95.5,399.5C 95.5,324.833 95.5,250.167 95.5,175.5 Z"/></g>
<g><path style="opacity:1" fill="#fedc36" d="M 119.5,175.5 C 124.833,175.5 130.167,175.5 135.5,175.5C 135.5,250.167 135.5,324.833 135.5,399.5C 130.167,399.5 124.833,399.5 119.5,399.5C 119.5,324.833 119.5,250.167 119.5,175.5 Z"/></g>
<g><path style="opacity:1" fill="#f9be1b" d="M 135.5,175.5 C 171.5,175.5 207.5,175.5 243.5,175.5C 181.93,187.241 148.597,224.408 143.5,287C 148.175,349.562 181.175,387.062 242.5,399.5C 206.833,399.5 171.167,399.5 135.5,399.5C 135.5,324.833 135.5,250.167 135.5,175.5 Z"/></g>
<g><path style="opacity:1" fill="#d7e5e5" d="M 243.5,175.5 C 247.5,175.5 251.5,175.5 255.5,175.5C 259.5,175.5 263.5,175.5 267.5,175.5C 329.321,187.324 362.654,224.657 367.5,287.5C 362.635,350.36 329.301,387.694 267.5,399.5C 263.5,399.5 259.5,399.5 255.5,399.5C 251.167,399.5 246.833,399.5 242.5,399.5C 181.175,387.062 148.175,349.562 143.5,287C 148.597,224.408 181.93,187.241 243.5,175.5 Z"/></g>
<g><path style="opacity:1" fill="#f4871e" d="M 267.5,175.5 C 316.833,175.5 366.167,175.5 415.5,175.5C 415.5,250.167 415.5,324.833 415.5,399.5C 366.167,399.5 316.833,399.5 267.5,399.5C 329.301,387.694 362.635,350.36 367.5,287.5C 362.654,224.657 329.321,187.324 267.5,175.5 Z"/></g>
<g><path style="opacity:1" fill="#69a041" d="M 318.5,218.5 C 280.167,257.5 241.5,296.167 202.5,334.5C 201.442,333.4 200.608,332.066 200,330.5C 199.333,314.833 199.333,299.167 200,283.5C 207.092,248.408 227.925,226.242 262.5,217C 279.455,215.407 296.455,215.073 313.5,216C 315.491,216.374 317.158,217.207 318.5,218.5 Z"/></g>
<g><path style="opacity:1" fill="#90b845" d="M 324.5,224.5 C 285.5,262.833 246.833,301.5 208.5,340.5C 203.369,345.13 198.369,349.963 193.5,355C 189,355.833 187.167,354 188,349.5C 193.037,344.631 197.87,339.631 202.5,334.5C 241.5,296.167 280.167,257.5 318.5,218.5C 322.164,215.552 324.83,216.385 326.5,221C 326.022,222.303 325.355,223.469 324.5,224.5 Z"/></g>
<g><path style="opacity:1" fill="#4b8c41" d="M 324.5,224.5 C 325.558,225.6 326.392,226.934 327,228.5C 327.667,243.167 327.667,257.833 327,272.5C 319.531,311.969 296.031,335.469 256.5,343C 241.833,343.667 227.167,343.667 212.5,343C 210.934,342.392 209.6,341.558 208.5,340.5C 246.833,301.5 285.5,262.833 324.5,224.5 Z"/></g>
<g><path style="opacity:1" fill="#8fb844" d="M 254.5,231.5 C 265.468,230.797 269.968,235.797 268,246.5C 264.723,252.109 259.89,253.942 253.5,252C 245.196,244.683 245.529,237.85 254.5,231.5 Z"/></g>
<g><path style="opacity:1" fill="#90b844" d="M 95.5,399.5 C 103.5,399.5 111.5,399.5 119.5,399.5C 119.5,408.167 119.5,416.833 119.5,425.5C 112.016,413.922 104.016,413.589 95.5,424.5C 95.5,416.167 95.5,407.833 95.5,399.5 Z"/></g>
<g><path style="opacity:1" fill="#aed762" d="M 119.5,399.5 C 124.833,399.5 130.167,399.5 135.5,399.5C 135.5,420.833 135.5,442.167 135.5,463.5C 130.167,463.5 124.833,463.5 119.5,463.5C 119.5,453.167 119.5,442.833 119.5,432.5C 119.5,430.167 119.5,427.833 119.5,425.5C 119.5,416.833 119.5,408.167 119.5,399.5 Z"/></g>
<g><path style="opacity:1" fill="#90b844" d="M 135.5,399.5 C 171.167,399.5 206.833,399.5 242.5,399.5C 246.833,399.5 251.167,399.5 255.5,399.5C 255.5,420.833 255.5,442.167 255.5,463.5C 232.498,463.667 209.498,463.5 186.5,463C 192.259,459.108 192.926,454.441 188.5,449C 177.981,446.186 174.147,450.019 177,460.5C 177.903,461.701 179.069,462.535 180.5,463C 165.504,463.5 150.504,463.667 135.5,463.5C 135.5,442.167 135.5,420.833 135.5,399.5 Z"/></g>
<g><path style="opacity:1" fill="#69a041" d="M 255.5,399.5 C 259.5,399.5 263.5,399.5 267.5,399.5C 316.833,399.5 366.167,399.5 415.5,399.5C 415.667,423.502 415.5,447.502 415,471.5C 411.833,484 404,491.833 391.5,495C 300.833,495.667 210.167,495.667 119.5,495C 109.69,492.354 102.523,486.52 98,477.5C 96.0255,473.037 95.1922,468.371 95.5,463.5C 103.5,463.5 111.5,463.5 119.5,463.5C 124.833,463.5 130.167,463.5 135.5,463.5C 150.504,463.667 165.504,463.5 180.5,463C 179.069,462.535 177.903,461.701 177,460.5C 174.147,450.019 177.981,446.186 188.5,449C 192.926,454.441 192.259,459.108 186.5,463C 209.498,463.5 232.498,463.667 255.5,463.5C 255.5,442.167 255.5,420.833 255.5,399.5 Z"/></g>
<g><path style="opacity:1" fill="#69a041" d="M 119.5,425.5 C 119.5,427.833 119.5,430.167 119.5,432.5C 114.689,440.766 108.023,442.599 99.5,438C 97.7518,435.987 96.4185,433.82 95.5,431.5C 95.5,429.167 95.5,426.833 95.5,424.5C 104.016,413.589 112.016,413.922 119.5,425.5 Z"/></g>
<g><path style="opacity:1" fill="#4c8c41" d="M 324.5,431.5 C 332.678,430.842 336.178,434.509 335,442.5C 331.108,448.259 326.441,448.926 321,444.5C 318.325,439.011 319.492,434.678 324.5,431.5 Z"/></g>
<g><path style="opacity:1" fill="#90b844" d="M 95.5,431.5 C 96.4185,433.82 97.7518,435.987 99.5,438C 108.023,442.599 114.689,440.766 119.5,432.5C 119.5,442.833 119.5,453.167 119.5,463.5C 111.5,463.5 103.5,463.5 95.5,463.5C 95.5,452.833 95.5,442.167 95.5,431.5 Z"/></g>
</svg>
