<?xml version="1.0" encoding="UTF-8"?>
<!DOCTYPE svg PUBLIC "-//W3C//DTD SVG 1.1//EN" "http://www.w3.org/Graphics/SVG/1.1/DTD/svg11.dtd">
<svg xmlns="http://www.w3.org/2000/svg" version="1.1" width="512px" height="512px" style="shape-rendering:geometricPrecision; text-rendering:geometricPrecision; image-rendering:optimizeQuality; fill-rule:evenodd; clip-rule:evenodd" xmlns:xlink="http://www.w3.org/1999/xlink">
<g><path style="opacity:1" fill="#5d762d" d="M 365.5,38.5 C 365.273,46.2314 366.607,53.5647 369.5,60.5C 368.564,61.9744 367.23,62.9744 365.5,63.5C 364.25,63.4226 363.417,62.756 363,61.5C 362.794,58.3771 362.127,55.3771 361,52.5C 356.498,48.1328 352.832,48.7995 350,54.5C 348.526,57.7556 347.36,61.089 346.5,64.5C 342.734,64.7153 339.4,66.0487 336.5,68.5C 335.548,66.9547 335.215,65.288 335.5,63.5C 337.252,63.5824 338.252,62.7491 338.5,61C 336.613,54.952 335.28,48.7853 334.5,42.5C 334.574,37.0185 336.741,32.6852 341,29.5C 343.468,30.1043 345.468,31.4376 347,33.5C 349.999,27.4984 353.499,21.8317 357.5,16.5C 359.074,15.3691 360.741,15.2025 362.5,16C 365.837,23.191 366.837,30.691 365.5,38.5 Z"/></g>
<g><path style="opacity:0.945" fill="#729936" d="M 369.5,60.5 C 366.607,53.5647 365.273,46.2314 365.5,38.5C 370.346,36.4239 375.346,36.0906 380.5,37.5C 380.376,46.7513 376.71,54.418 369.5,60.5 Z"/></g>
<g><path style="opacity:1" fill="#5d762d" d="M 328.5,49.5 C 326.168,57.4845 323.835,65.4845 321.5,73.5C 318.916,72.6072 316.249,72.2739 313.5,72.5C 313.448,74.9029 313.781,77.2362 314.5,79.5C 311.633,83.2397 309.3,87.2397 307.5,91.5C 302.589,90.2235 299.422,92.2235 298,97.5C 297.329,98.2524 296.496,98.5858 295.5,98.5C 295.65,94.8053 294.65,91.472 292.5,88.5C 292.464,82.1037 290.464,76.437 286.5,71.5C 288.5,71.8333 290.5,72.1667 292.5,72.5C 293.02,64.5867 295.02,57.0867 298.5,50C 301.064,49.5498 302.564,50.7164 303,53.5C 304.954,57.9809 306.287,62.6475 307,67.5C 309.616,65.3095 312.616,63.9762 316,63.5C 317.322,58.0227 319.822,53.1894 323.5,49C 325.387,48.2204 327.054,48.3871 328.5,49.5 Z"/></g>
<g><path style="opacity:0.983" fill="#729936" d="M 328.5,49.5 C 329.458,49.9528 330.292,50.6195 331,51.5C 332.442,55.6086 333.942,59.6086 335.5,63.5C 335.215,65.288 335.548,66.9547 336.5,68.5C 339.4,66.0487 342.734,64.7153 346.5,64.5C 347.36,61.089 348.526,57.7556 350,54.5C 352.832,48.7995 356.498,48.1328 361,52.5C 362.127,55.3771 362.794,58.3771 363,61.5C 363.417,62.756 364.25,63.4226 365.5,63.5C 360.103,68.545 359.27,74.2116 363,80.5C 369.955,75.1368 377.789,73.3035 386.5,75C 389.699,84.0521 388.033,92.2187 381.5,99.5C 381.808,100.308 382.308,100.975 383,101.5C 386.073,100.383 389.24,100.216 392.5,101C 394.418,102.77 394.918,104.937 394,107.5C 389.184,114.831 382.351,118.998 373.5,120C 377.553,124.96 377.22,129.626 372.5,134C 363.476,136.169 356.143,140.836 350.5,148C 352.566,152.53 352.899,157.196 351.5,162C 352.886,164.783 354.386,164.95 356,162.5C 357.864,156.44 360.53,150.774 364,145.5C 366.54,142.345 369.207,142.011 372,144.5C 372.186,146.9 372.686,149.234 373.5,151.5C 383.878,144.454 395.211,142.621 407.5,146C 408.516,146.519 409.182,147.353 409.5,148.5C 406.369,156.798 400.702,162.631 392.5,166C 395.869,166.663 399.203,166.496 402.5,165.5C 404.266,165.434 405.266,166.268 405.5,168C 402.179,175.321 396.846,180.654 389.5,184C 392.695,185.695 395.028,188.195 396.5,191.5C 396,192.5 395.5,193.5 395,194.5C 387.2,200.648 378.367,204.482 368.5,206C 376.413,208.872 383.247,213.372 389,219.5C 391.245,222.881 391.912,226.548 391,230.5C 381.762,237.697 371.596,239.364 360.5,235.5C 360.868,237.506 360.368,239.506 359,241.5C 357.874,242.944 356.374,243.61 354.5,243.5C 340.002,236.754 325.336,230.254 310.5,224C 303.363,221.559 296.696,222.392 290.5,226.5C 286.132,209.631 275.465,198.797 258.5,194C 252.175,193.5 245.842,193.334 239.5,193.5C 240.162,189.18 242.162,185.513 245.5,182.5C 234.409,182.456 225.742,177.956 219.5,169C 220.101,167.395 221.101,166.062 222.5,165C 225.564,163.141 228.564,161.308 231.5,159.5C 234.493,162.501 237.159,165.835 239.5,169.5C 241.583,170.959 243.75,172.292 246,173.5C 248.186,172.033 248.852,170.033 248,167.5C 245.331,164 242.498,160.667 239.5,157.5C 240.675,157.719 241.675,157.386 242.5,156.5C 239.854,153.628 239.021,150.295 240,146.5C 241.049,145.483 242.216,145.316 243.5,146C 247.4,147.565 251.066,149.565 254.5,152C 260.239,158.065 265.572,164.399 270.5,171C 278.147,175.636 280.647,173.802 278,165.5C 272.301,160.135 266.967,154.469 262,148.5C 255.322,137.487 253.822,125.82 257.5,113.5C 261.707,114.226 266.04,114.226 270.5,113.5C 264.988,107.144 261.655,99.8104 260.5,91.5C 261.5,91.5 262.5,91.5 263.5,91.5C 263.03,94.3456 263.863,96.6789 266,98.5C 267.868,96.2439 269.368,93.7439 270.5,91C 276.706,89.7548 282.539,90.5881 288,93.5C 288.833,95.1667 289.667,96.8333 290.5,98.5C 292.167,99.6664 293.834,99.6664 295.5,98.5C 296.496,98.5858 297.329,98.2524 298,97.5C 299.422,92.2235 302.589,90.2235 307.5,91.5C 306.362,96.524 306.362,101.524 307.5,106.5C 312.843,107.375 316.343,105.041 318,99.5C 318.988,92.3321 318.322,85.3321 316,78.5C 315.617,79.056 315.117,79.3893 314.5,79.5C 313.781,77.2362 313.448,74.9029 313.5,72.5C 316.249,72.2739 318.916,72.6072 321.5,73.5C 323.835,65.4845 326.168,57.4845 328.5,49.5 Z M 357.5,85.5 C 356.181,93.7766 352.181,100.943 345.5,107C 342.062,109.367 340.562,108.534 341,104.5C 345.274,97.0618 350.774,90.7285 357.5,85.5 Z M 332.5,162.5 C 331.257,177.13 324.591,188.964 312.5,198C 309.446,200.208 306.113,201.208 302.5,201C 302.043,200.586 301.709,200.086 301.5,199.5C 307.14,183.197 317.473,170.864 332.5,162.5 Z M 286.5,170.5 C 287.29,171.609 287.79,172.942 288,174.5C 288.667,180.167 288.667,185.833 288,191.5C 284.958,196.642 281.292,197.309 277,193.5C 276.333,191.167 276.333,188.833 277,186.5C 279.926,180.974 283.093,175.641 286.5,170.5 Z"/></g>
<g><path style="opacity:1" fill="#5c762d" d="M 263.5,91.5 C 262.5,91.5 261.5,91.5 260.5,91.5C 261.655,99.8104 264.988,107.144 270.5,113.5C 266.04,114.226 261.707,114.226 257.5,113.5C 253.822,125.82 255.322,137.487 262,148.5C 266.967,154.469 272.301,160.135 278,165.5C 280.647,173.802 278.147,175.636 270.5,171C 265.572,164.399 260.239,158.065 254.5,152C 251.066,149.565 247.4,147.565 243.5,146C 242.216,145.316 241.049,145.483 240,146.5C 239.021,150.295 239.854,153.628 242.5,156.5C 241.675,157.386 240.675,157.719 239.5,157.5C 225.617,145.007 221.617,129.841 227.5,112C 231.718,113.134 236.051,113.8 240.5,114C 233.76,107.611 230.426,99.778 230.5,90.5C 233.833,91.1667 237.167,91.8333 240.5,92.5C 238.687,80.9282 242.353,71.5948 251.5,64.5C 259.018,71.8755 263.018,80.8755 263.5,91.5 Z"/></g>
<g><path style="opacity:0.903" fill="#729735" d="M 286.5,71.5 C 290.464,76.437 292.464,82.1037 292.5,88.5C 286.051,84.599 283.051,78.9323 283.5,71.5C 284.5,71.5 285.5,71.5 286.5,71.5 Z"/></g>
<g><path style="opacity:1" fill="#5c762d" d="M 231.5,159.5 C 228.564,161.308 225.564,163.141 222.5,165C 221.101,166.062 220.101,167.395 219.5,169C 225.742,177.956 234.409,182.456 245.5,182.5C 242.162,185.513 240.162,189.18 239.5,193.5C 245.842,193.334 252.175,193.5 258.5,194C 275.465,198.797 286.132,209.631 290.5,226.5C 286.682,230.121 283.849,234.454 282,239.5C 279.492,248.205 276.325,256.539 272.5,264.5C 272.816,261.022 272.316,257.688 271,254.5C 267.169,253.495 263.669,252.162 260.5,250.5C 265.205,225.411 256.205,207.244 233.5,196C 225.635,193.422 217.635,192.755 209.5,194C 209.091,189.641 210.757,185.975 214.5,183C 203.469,182.488 194.802,177.821 188.5,169C 190.544,165.29 193.544,162.624 197.5,161C 202.067,159.192 206.733,157.692 211.5,156.5C 208.829,153.315 208.162,149.815 209.5,146C 219.23,146.558 226.564,151.058 231.5,159.5 Z"/></g>
<g><path style="opacity:1" fill="#5c762d" d="M 75.5,182.5 C 73.1667,182.5 70.8333,182.5 68.5,182.5C 69.9011,190.802 73.5678,197.969 79.5,204C 72.3223,205.259 70.8223,208.759 75,214.5C 77.5641,216.727 80.3974,218.561 83.5,220C 89.3045,221.076 94.9712,222.576 100.5,224.5C 100.5,225.5 100.5,226.5 100.5,227.5C 99.4693,228.355 98.3026,229.022 97,229.5C 91.8894,226.946 86.8894,226.946 82,229.5C 82.906,236.125 86.0727,241.625 91.5,246C 91.171,249.892 90.171,253.392 88.5,256.5C 83.6926,254.757 78.8592,253.09 74,251.5C 74.603,256.379 76.603,260.712 80,264.5C 82.6877,266.364 85.1877,268.364 87.5,270.5C 86.403,272.774 85.0696,274.941 83.5,277C 84.2718,278.221 85.2718,279.221 86.5,280C 92.4928,279.513 98.4928,278.68 104.5,277.5C 107.253,277.353 109.753,278.02 112,279.5C 112.756,281.809 112.256,283.809 110.5,285.5C 105.313,283.508 101.146,284.841 98,289.5C 96.5555,292.055 95.3888,294.721 94.5,297.5C 95.4295,299.606 96.5962,301.606 98,303.5C 98.9149,305.92 98.0815,307.253 95.5,307.5C 86.3933,302.807 76.7267,300.807 66.5,301.5C 65.0351,300.594 64.0351,299.261 63.5,297.5C 65.166,292.32 68.166,288.154 72.5,285C 75.4816,284.502 78.4816,284.335 81.5,284.5C 82.3261,279.49 80.1594,277.157 75,277.5C 70.2202,278.817 65.3869,279.817 60.5,280.5C 52.4789,279.77 51.4789,276.604 57.5,271C 50.5411,266.375 44.5411,260.708 39.5,254C 46.098,252.008 52.598,252.508 59,255.5C 59.2117,252.242 59.7117,249.076 60.5,246C 57.2809,242.448 54.4476,238.615 52,234.5C 50.2684,228.728 52.4351,226.061 58.5,226.5C 61.4525,226.651 64.2859,227.317 67,228.5C 69.9654,227.278 70.1321,225.778 67.5,224C 58.7392,222.972 50.9059,219.806 44,214.5C 39.9439,208.18 41.7772,204.68 49.5,204C 44.5579,199.286 40.7246,193.786 38,187.5C 37.0191,184.443 38.0191,182.443 41,181.5C 48.2257,182.517 54.7257,185.183 60.5,189.5C 61.3333,186.5 62.1667,183.5 63,180.5C 63.6322,178.035 65.1322,176.369 67.5,175.5C 70.8044,177.14 73.471,179.473 75.5,182.5 Z"/></g>
<g><path style="opacity:0.977" fill="#729936" d="M 75.5,182.5 C 77.5703,184.964 79.4037,187.631 81,190.5C 82.1653,196.336 83.832,202.003 86,207.5C 89.1845,210.844 93.0178,212.011 97.5,211C 95.4201,202.561 97.0868,194.894 102.5,188C 106.514,187.495 110.181,188.495 113.5,191C 117.205,194.932 120.538,199.099 123.5,203.5C 128.731,190.295 133.564,190.295 138,203.5C 138.903,209.169 138.403,214.669 136.5,220C 141.717,219.262 145.55,221.095 148,225.5C 148.218,229.992 148.051,234.492 147.5,239C 147.319,243.775 148.319,248.275 150.5,252.5C 155.796,253.898 160.63,256.232 165,259.5C 166.44,258.07 166.774,256.403 166,254.5C 158.835,249.165 155.168,242.165 155,233.5C 158.004,232.713 160.837,233.379 163.5,235.5C 162.918,224.974 165.418,215.307 171,206.5C 172.96,204.215 175.126,202.215 177.5,200.5C 183.667,206.811 186.833,214.478 187,223.5C 188.52,220.618 189.853,217.618 191,214.5C 192.049,213.483 193.216,213.316 194.5,214C 198.716,220.147 201.049,226.98 201.5,234.5C 205.141,232.115 208.641,232.115 212,234.5C 212.972,238.097 213.472,241.764 213.5,245.5C 213.084,251.978 212.251,258.312 211,264.5C 218.461,255.517 227.961,251.683 239.5,253C 240.308,253.308 240.975,253.808 241.5,254.5C 244.781,266.658 241.781,276.991 232.5,285.5C 237.766,286.698 239.266,289.698 237,294.5C 223.128,304.033 210.128,314.699 198,326.5C 194.669,332.382 193.669,338.715 195,345.5C 198.377,354.862 203.377,363.195 210,370.5C 214.143,376.136 218.477,376.47 223,371.5C 229.491,329.174 241.991,288.841 260.5,250.5C 263.669,252.162 267.169,253.495 271,254.5C 272.316,257.688 272.816,261.022 272.5,264.5C 266.245,279.424 260.078,294.424 254,309.5C 240.506,344.967 234.506,381.633 236,419.5C 235.684,423.137 237.018,425.804 240,427.5C 251.219,423.975 262.052,419.475 272.5,414C 280.468,409.368 286.301,402.868 290,394.5C 290.667,392.167 290.667,389.833 290,387.5C 283.597,373.026 276.43,359.026 268.5,345.5C 269.209,341.64 271.542,339.973 275.5,340.5C 272.452,331.298 272.952,322.298 277,313.5C 281.827,309.558 286.66,309.725 291.5,314C 296.136,318.771 299.636,324.271 302,330.5C 303.163,321.004 306.663,312.504 312.5,305C 316.672,304.132 319.838,305.632 322,309.5C 324.495,302.503 328.995,297.169 335.5,293.5C 336.086,293.709 336.586,294.043 337,294.5C 337.333,298.167 337.667,301.833 338,305.5C 340.91,297.757 346.077,292.091 353.5,288.5C 354.478,288.977 355.311,289.643 356,290.5C 360.051,301.925 358.884,312.759 352.5,323C 362.776,322.774 364.11,326.108 356.5,333C 352.779,335.527 348.779,337.527 344.5,339C 342.963,340.11 342.297,341.61 342.5,343.5C 347.855,342.401 353.188,342.234 358.5,343C 364.078,337.288 367.578,330.455 369,322.5C 372.448,318.209 376.448,317.542 381,320.5C 382.396,315.322 384.396,310.322 387,305.5C 395.368,296.506 399.202,298.006 398.5,310C 399.025,310.692 399.692,311.192 400.5,311.5C 407.021,304.701 414.521,303.034 423,306.5C 424.683,314.414 423.183,321.581 418.5,328C 422.5,330 426.5,330 430.5,328C 434.072,324.185 437.405,320.185 440.5,316C 445.041,312.649 450.041,310.149 455.5,308.5C 457.425,308.59 458.592,309.59 459,311.5C 459.294,315.616 458.961,319.616 458,323.5C 484.509,320.701 486.342,326.201 463.5,340C 468.623,343.501 468.623,346.835 463.5,350C 460.751,351.084 457.918,351.917 455,352.5C 449.434,351.826 443.934,350.826 438.5,349.5C 436.51,350.463 436.177,351.796 437.5,353.5C 441.707,353.981 445.707,355.148 449.5,357C 451.19,360.525 450.524,363.525 447.5,366C 444.603,367.737 441.603,369.237 438.5,370.5C 437.571,373.525 436.238,376.358 434.5,379C 439.604,379.954 444.604,381.287 449.5,383C 451.592,383.953 451.925,385.286 450.5,387C 444.037,389.932 437.371,392.265 430.5,394C 433.856,401.15 431.523,403.484 423.5,401C 419.468,396.638 414.634,393.472 409,391.5C 406.46,392.207 405.293,393.873 405.5,396.5C 410.772,397.272 413.939,400.272 415,405.5C 417.067,411.586 415.233,415.752 409.5,418C 408.549,418.718 408.383,419.551 409,420.5C 417.868,420.529 426.368,422.362 434.5,426C 436.976,427.309 438.976,429.142 440.5,431.5C 434.162,439.501 425.828,443.501 415.5,443.5C 416.933,446.333 417.6,449.333 417.5,452.5C 409.321,452.497 402.155,449.83 396,444.5C 395.781,448.192 396.615,451.692 398.5,455C 387.318,460.971 375.985,460.971 364.5,455C 357.929,449.421 351.095,444.254 344,439.5C 340.434,440.619 339.767,442.619 342,445.5C 346.353,449.6 351.186,453.1 356.5,456C 359.333,458.833 362.167,461.667 365,464.5C 367.076,467.893 368.242,471.56 368.5,475.5C 364.743,475.929 361.243,475.263 358,473.5C 357.389,480.278 355.389,486.611 352,492.5C 350.484,495.006 348.318,495.84 345.5,495C 338.483,489.133 334.483,481.633 333.5,472.5C 332.002,474.829 330.002,476.663 327.5,478C 326.056,478.781 324.723,478.614 323.5,477.5C 324.67,456.81 315.67,442.31 296.5,434C 284.16,430.387 272.16,431.387 260.5,437C 255.167,439 249.833,441 244.5,443C 243.667,443.833 242.833,444.667 242,445.5C 243.169,451.673 245.169,457.673 248,463.5C 252.656,471.981 257.156,480.481 261.5,489C 261.507,490.812 260.84,492.312 259.5,493.5C 256.897,494.562 254.23,494.728 251.5,494C 239.327,474.808 231.161,453.975 227,431.5C 225.054,420.874 223.387,410.208 222,399.5C 220.939,396.438 219.106,393.938 216.5,392C 195.75,378.48 173.083,373.48 148.5,377C 140.683,378.154 135.183,382.321 132,389.5C 130.629,393.073 129.129,396.573 127.5,400C 124.273,400.287 122.273,398.787 121.5,395.5C 122.654,390.556 123.988,385.556 125.5,380.5C 113.767,381.669 112.1,378.503 120.5,371C 129.097,365.914 138.43,363.247 148.5,363C 151.995,362.003 154.328,359.836 155.5,356.5C 155.182,355.353 154.516,354.519 153.5,354C 152,353.833 150.5,353.667 149,353.5C 140.837,355.612 132.67,357.612 124.5,359.5C 126.057,355.529 124.557,353.529 120,353.5C 116.179,354.608 112.345,355.608 108.5,356.5C 102.8,354.9 97.9667,351.9 94,347.5C 93.3333,346.5 93.3333,345.5 94,344.5C 97.2258,342.131 99.3924,339.131 100.5,335.5C 93.1948,336.517 85.8615,336.683 78.5,336C 76.7888,334.867 76.2888,333.367 77,331.5C 78.8333,329.667 80.6667,327.833 82.5,326C 72.5852,322.919 66.2518,316.419 63.5,306.5C 68.1799,307.145 69.1799,305.478 66.5,301.5C 76.7267,300.807 86.3933,302.807 95.5,307.5C 98.0815,307.253 98.9149,305.92 98,303.5C 96.5962,301.606 95.4295,299.606 94.5,297.5C 95.3888,294.721 96.5555,292.055 98,289.5C 101.146,284.841 105.313,283.508 110.5,285.5C 112.256,283.809 112.756,281.809 112,279.5C 109.753,278.02 107.253,277.353 104.5,277.5C 98.4928,278.68 92.4928,279.513 86.5,280C 85.2718,279.221 84.2718,278.221 83.5,277C 85.0696,274.941 86.403,272.774 87.5,270.5C 89.5825,271.588 91.7492,272.588 94,273.5C 96.9827,270.195 97.316,266.528 95,262.5C 92.9373,260.266 90.7706,258.266 88.5,256.5C 90.171,253.392 91.171,249.892 91.5,246C 86.0727,241.625 82.906,236.125 82,229.5C 86.8894,226.946 91.8894,226.946 97,229.5C 98.3026,229.022 99.4693,228.355 100.5,227.5C 102.621,231.741 104.787,236.075 107,240.5C 109.574,244.595 111.407,244.428 112.5,240C 110.277,231.383 106.11,223.883 100,217.5C 99.2967,219.929 99.4634,222.262 100.5,224.5C 94.9712,222.576 89.3045,221.076 83.5,220C 80.3974,218.561 77.5641,216.727 75,214.5C 70.8223,208.759 72.3223,205.259 79.5,204C 73.5678,197.969 69.9011,190.802 68.5,182.5C 70.8333,182.5 73.1667,182.5 75.5,182.5 Z M 155.5,275.5 C 164.756,282.256 171.589,290.923 176,301.5C 177.67,307.678 177.836,313.845 176.5,320C 175.5,320.667 174.5,320.667 173.5,320C 161.931,307.469 155.931,292.636 155.5,275.5 Z M 141.5,321.5 C 141.56,320.957 141.893,320.624 142.5,320.5C 150.015,322.504 156.515,326.17 162,331.5C 162.668,337.829 159.834,340.329 153.5,339C 148.86,333.535 144.86,327.701 141.5,321.5 Z M 413.5,333.5 C 410.49,339.023 406.49,343.856 401.5,348C 399.559,349.903 397.226,350.736 394.5,350.5C 397.937,341.736 404.27,336.07 413.5,333.5 Z M 343.5,360.5 C 344.097,360.735 344.43,361.235 344.5,362C 337.568,376.099 326.901,386.266 312.5,392.5C 311.914,392.291 311.414,391.957 311,391.5C 312.899,381.248 318.399,373.415 327.5,368C 332.978,365.575 338.312,363.075 343.5,360.5 Z M 409.5,369.5 C 414.273,369.846 418.94,370.679 423.5,372C 416.433,379.76 407.766,382.926 397.5,381.5C 398.489,374.511 402.489,370.511 409.5,369.5 Z M 324.5,403.5 C 329.959,403.103 335.292,403.603 340.5,405C 336.553,407.28 332.887,409.947 329.5,413C 326.401,415.389 323.067,415.889 319.5,414.5C 316.09,408.567 317.757,404.9 324.5,403.5 Z"/></g>
<g><path style="opacity:1" fill="#5c762d" d="M 63.5,306.5 C 66.2518,316.419 72.5852,322.919 82.5,326C 80.6667,327.833 78.8333,329.667 77,331.5C 76.2888,333.367 76.7888,334.867 78.5,336C 85.8615,336.683 93.1948,336.517 100.5,335.5C 99.3924,339.131 97.2258,342.131 94,344.5C 93.3333,345.5 93.3333,346.5 94,347.5C 97.9667,351.9 102.8,354.9 108.5,356.5C 90.9476,363.264 75.6142,359.93 62.5,346.5C 64.6028,342.894 67.2694,339.727 70.5,337C 66.3488,336.857 62.1821,337.023 58,337.5C 54.0273,337.567 50.194,336.901 46.5,335.5C 45.432,333.813 45.5986,332.146 47,330.5C 48.5,329 50,327.5 51.5,326C 40.2521,322.431 33.7521,314.931 32,303.5C 42.9768,300.132 53.4768,301.132 63.5,306.5 Z"/></g>
<g><path style="opacity:1" fill="#5c762d" d="M 121.5,395.5 C 120.59,393.981 119.757,392.315 119,390.5C 113.856,401.135 105.356,406.802 93.5,407.5C 91.9232,398.737 92.2565,390.07 94.5,381.5C 83.4508,382.076 81.7841,378.576 89.5,371C 97.7664,366.015 106.766,363.348 116.5,363C 119.336,362.079 122.002,360.912 124.5,359.5C 132.67,357.612 140.837,355.612 149,353.5C 150.5,353.667 152,353.833 153.5,354C 154.516,354.519 155.182,355.353 155.5,356.5C 154.328,359.836 151.995,362.003 148.5,363C 138.43,363.247 129.097,365.914 120.5,371C 112.1,378.503 113.767,381.669 125.5,380.5C 123.988,385.556 122.654,390.556 121.5,395.5 Z"/></g>
</svg>
