<?xml version="1.0" encoding="UTF-8"?>
<svg id="Layer_1" xmlns="http://www.w3.org/2000/svg" viewBox="0 0 305.04 485.49">
  <defs>
    <style>
      .cls-1 {
        fill: #898989;
      }

      .cls-2 {
        fill: #c87701;
      }

      .cls-3 {
        fill: #bcf0fd;
      }

      .cls-4 {
        fill: #fdfefe;
      }

      .cls-5 {
        fill: #afafaf;
      }
    </style>
  </defs>
  <g>
    <path class="cls-3" d="M279.8,151.23c-2.17,13.05-.32,26.15.56,39.09,1.79,26.53,3.84,53.16,8.14,79.35,3.88,23.63,5.32,47.36,7.49,71.08,1.57,17.22,4.56,34.51,4.05,51.68-.66,22.05,5.96,43.29,4.89,65.25-.8,16.32-11.25,27.47-27.51,27.49-67.17.08-134.37.91-201.51-.53-18.85-.4-37.79,1.02-56.72-1.16-11.02-1.27-20.54-16.13-19.02-31.01,2.2-21.66,4.04-43.36,6.05-65.04,2.68-28.91,6.08-57.77,7.84-86.73,1.5-24.54,5.05-48.85,6.81-73.34,1.83-25.52,4.15-51.01,6.25-76.51,4.47,2.5,9.38,2.14,14.23,2.14,73.32.01,146.64,0,219.97.1,6.26,0,12.43-.19,18.49-1.86ZM151.31,447.86c30.98,0,61.96.02,92.95-.01,12.53-.01,19.1-5.82,18.91-17.96-.36-23.25-.51-46.56-2.27-69.72-3.22-42.4-9.12-84.59-10.24-127.18-.26-9.8-8.6-19.51-18.06-19.32-14.98.29-29.78-1.57-44.67-2.28-16.35-.78-32.58,1.02-48.84,2.07-20.89,1.36-41.56-2.92-62.42-2.1-10.13.4-19.64,7.73-20.42,17.09-2.58,31.01-3.62,62.19-8.74,92.93-1.62,9.74.32,19.24-.46,28.73-2.23,27.24-5.99,54.38-5.55,81.79.18,11.32,5.17,15.92,16.84,15.93,30.98.04,61.96.01,92.95.02Z"/>
    <path class="cls-5" d="M279.8,151.23c-6.06,1.67-12.23,1.87-18.49,1.86-73.32-.09-146.64-.09-219.97-.1-4.86,0-9.76.37-14.23-2.14-16.97-12.34-18.97-24.66-6.25-42.39,3.36-4.69,1.88-8.2-.17-12.44-12.51-25.86-10.91-50.59,7.68-72.9C39.38,9.92,54,.96,71.42.76c54.97-.63,109.98-1.41,164.91.17,46.58,1.34,74.77,53,52.06,94.48-3.29,6.02-3.82,9.25,1.3,14.88,12.47,13.72,7.11,33.92-9.88,40.94ZM83.14,107.47s0,.04,0,.06c-9.75,0-19.5-.05-29.25.01-8.66.06-12.22,4.34-12.16,13.13.06,8.95,5.8,12.64,12.52,12.06,19.49-1.68,38.95-.18,58.4-.89,7.43-.27,12.08-4.31,11.84-11.66-.23-7.14-3.51-12.77-12.09-12.72-9.75.05-19.5.01-29.25.01Z"/>
    <path class="cls-2" d="M151.31,447.86c-30.98,0-61.96.02-92.95-.02-11.67-.02-16.66-4.62-16.84-15.93-.44-27.41,3.32-54.55,5.55-81.79.78-9.5-1.17-18.99.46-28.73,5.11-30.74,6.16-61.91,8.74-92.93.78-9.36,10.29-16.69,20.42-17.09,20.86-.83,41.53,3.45,62.42,2.1,16.26-1.06,32.49-2.85,48.84-2.07,14.89.71,29.68,2.57,44.67,2.28,9.46-.18,17.8,9.52,18.06,19.32,1.11,42.58,7.02,84.77,10.24,127.18,1.76,23.17,1.91,46.47,2.27,69.72.19,12.15-6.38,17.95-18.91,17.96-30.98.03-61.96.01-92.95,0Z"/>
    <path class="cls-4" d="M83.14,107.47c9.75,0,19.5.04,29.25-.01,8.58-.04,11.86,5.58,12.09,12.72.24,7.35-4.41,11.39-11.84,11.66-19.45.71-38.91-.79-58.4.89-6.72.58-12.46-3.12-12.52-12.06-.06-8.79,3.51-13.07,12.16-13.13,9.75-.07,19.5-.01,29.25-.01,0-.02,0-.04,0-.06Z"/>
  </g>
  <rect class="cls-1" x="171.96" y="6.51" width="50.2" height="18.82" rx="2.48" ry="2.48"/>
  <rect class="cls-1" x="73.65" y="6.51" width="50.2" height="18.82" rx="2.48" ry="2.48"/>
</svg>