<?xml version="1.0" encoding="UTF-8"?>
<!DOCTYPE svg PUBLIC "-//W3C//DTD SVG 1.1//EN" "http://www.w3.org/Graphics/SVG/1.1/DTD/svg11.dtd">
<svg xmlns="http://www.w3.org/2000/svg" version="1.1" width="512px" height="512px" style="shape-rendering:geometricPrecision; text-rendering:geometricPrecision; image-rendering:optimizeQuality; fill-rule:evenodd; clip-rule:evenodd" xmlns:xlink="http://www.w3.org/1999/xlink">
<g><path style="opacity:0.991" fill="#56a532" d="M 101.5,14.5 C 128.272,14.1468 152.272,22.3135 173.5,39C 183.395,48.9584 189.395,60.7917 191.5,74.5C 186.667,86.664 182.667,98.9974 179.5,111.5C 179.167,111.5 178.833,111.5 178.5,111.5C 153.207,78.8733 127.54,46.54 101.5,14.5 Z"/></g>
<g><path style="opacity:1" fill="#417a26" d="M 101.5,14.5 C 127.54,46.54 153.207,78.8733 178.5,111.5C 159.805,104.448 140.472,101.782 120.5,103.5C 104.751,85.4258 97.4177,64.2591 98.5,40C 98.5276,31.243 99.5276,22.743 101.5,14.5 Z"/></g>
<g><path style="opacity:0.985" fill="#59330c" d="M 208.5,103.5 C 205.458,110.048 203.792,117.048 203.5,124.5C 195.461,120.149 187.461,115.815 179.5,111.5C 182.667,98.9974 186.667,86.664 191.5,74.5C 199.281,58.4748 210.281,44.9748 224.5,34C 231.31,30.2188 237.477,31.0521 243,36.5C 245.893,41.3138 246.226,46.3138 244,51.5C 226.452,64.9291 214.618,82.2625 208.5,103.5 Z"/></g>
<g><path style="opacity:0.988" fill="#f24e2f" d="M 511.5,317.5 C 511.5,329.167 511.5,340.833 511.5,352.5C 504.42,401.831 481.42,441.997 442.5,473C 414.921,493.228 384.254,500.561 350.5,495C 331.946,490.894 316.28,481.894 303.5,468C 271.401,465.336 246.401,450.836 228.5,424.5C 222.865,414.917 218.198,404.917 214.5,394.5C 200.277,329.179 216.944,273.179 264.5,226.5C 265.539,221.543 265.039,216.543 263,211.5C 252.538,175.853 232.705,146.853 203.5,124.5C 203.792,117.048 205.458,110.048 208.5,103.5C 250.742,100.539 285.908,114.873 314,146.5C 325.291,159.564 334.458,174.064 341.5,190C 371.335,188.929 396.669,198.929 417.5,220C 462.584,225.079 492.084,249.246 506,292.5C 508.278,300.877 510.111,309.21 511.5,317.5 Z"/></g>
<g><path style="opacity:1" fill="#fe7032" d="M 120.5,103.5 C 140.472,101.782 159.805,104.448 178.5,111.5C 178.833,111.5 179.167,111.5 179.5,111.5C 187.461,115.815 195.461,120.149 203.5,124.5C 232.705,146.853 252.538,175.853 263,211.5C 265.039,216.543 265.539,221.543 264.5,226.5C 243.119,235.362 225.286,249.028 211,267.5C 184.432,303.366 172.932,343.7 176.5,388.5C 149.347,387.417 125.347,378.251 104.5,361C 70.0818,330.33 50.9151,291.83 47,245.5C 42.4829,196.201 55.3162,152.201 85.5,113.5C 96.5616,108.15 108.228,104.817 120.5,103.5 Z"/></g>
<g><path style="opacity:0.999" fill="#d9602b" d="M 85.5,113.5 C 55.3162,152.201 42.4829,196.201 47,245.5C 50.9151,291.83 70.0818,330.33 104.5,361C 125.347,378.251 149.347,387.417 176.5,388.5C 172.932,343.7 184.432,303.366 211,267.5C 225.286,249.028 243.119,235.362 264.5,226.5C 216.944,273.179 200.277,329.179 214.5,394.5C 202.937,403.446 190.604,411.113 177.5,417.5C 122.233,434.464 75.7332,421.13 38,377.5C 16.0775,349.902 3.24418,318.568 -0.5,283.5C -0.5,270.5 -0.5,257.5 -0.5,244.5C 4.2496,201.168 22.2496,164.335 53.5,134C 63.2454,125.76 73.912,118.926 85.5,113.5 Z"/></g>
<g><path style="opacity:1" fill="#fed12f" d="M 335.5,208.5 C 365.496,205.107 390.162,214.94 409.5,238C 442.809,238.89 466.976,254.057 482,283.5C 504.233,349.402 489.733,405.902 438.5,453C 418.972,469.289 396.472,478.123 371,479.5C 346.511,478.838 326.678,469.005 311.5,450C 270.627,449.831 244.127,430.331 232,391.5C 217.841,325.972 236.674,272.139 288.5,230C 302.977,220.093 318.643,212.926 335.5,208.5 Z"/></g>
<g><path style="opacity:1" fill="#ab290f" d="M 390.5,269.5 C 392.288,269.215 393.955,269.548 395.5,270.5C 410.799,295.031 417.299,321.698 415,350.5C 411.991,365.684 404.491,378.184 392.5,388C 373.079,401.814 351.579,410.981 328,415.5C 283.899,338.723 304.732,290.056 390.5,269.5 Z"/></g>
<g><path style="opacity:0.993" fill="#ce4229" d="M 214.5,394.5 C 218.198,404.917 222.865,414.917 228.5,424.5C 211.017,425.976 194.017,423.643 177.5,417.5C 190.604,411.113 202.937,403.446 214.5,394.5 Z"/></g>
</svg>
