<?xml version="1.0" encoding="UTF-8"?>
<!DOCTYPE svg PUBLIC "-//W3C//DTD SVG 1.1//EN" "http://www.w3.org/Graphics/SVG/1.1/DTD/svg11.dtd">
<svg xmlns="http://www.w3.org/2000/svg" version="1.1" width="512px" height="512px" style="shape-rendering:geometricPrecision; text-rendering:geometricPrecision; image-rendering:optimizeQuality; fill-rule:evenodd; clip-rule:evenodd" xmlns:xlink="http://www.w3.org/1999/xlink">
<g><path style="opacity:0.975" fill="#a56a43" d="M 194.5,-0.5 C 197.5,-0.5 200.5,-0.5 203.5,-0.5C 231.439,14.6365 251.606,36.9699 264,66.5C 266.966,74.5713 269.799,82.5713 272.5,90.5C 273.574,99.5387 274.908,108.539 276.5,117.5C 273.167,119.833 269.833,122.167 266.5,124.5C 263.296,123.617 260.629,121.95 258.5,119.5C 255.376,83.5783 240.709,53.4117 214.5,29C 207.255,23.7927 199.755,18.9594 192,14.5C 188.512,8.79211 189.346,3.79211 194.5,-0.5 Z"/></g>
<g><path style="opacity:0.991" fill="#4fb96e" d="M 358.5,134.5 C 347.973,125.567 335.973,119.234 322.5,115.5C 331.903,90.2646 348.07,70.5979 371,56.5C 373.841,46.3384 370.008,42.1717 359.5,44C 333.091,60.2385 315.091,83.0718 305.5,112.5C 302.941,112.198 300.607,112.532 298.5,113.5C 293.699,113.35 289.033,114.016 284.5,115.5C 281.833,116.167 279.167,116.833 276.5,117.5C 274.908,108.539 273.574,99.5387 272.5,90.5C 276.615,65.0985 287.949,43.5985 306.5,26C 324.663,12.8734 344.996,7.04004 367.5,8.5C 386.581,8.34704 405.247,11.0137 423.5,16.5C 423.768,48.1019 415.934,77.4352 400,104.5C 389.456,119.025 375.623,129.025 358.5,134.5 Z"/></g>
<g><path style="opacity:1" fill="#4c8056" d="M 322.5,115.5 C 314.581,113.982 306.581,113.315 298.5,113.5C 300.607,112.532 302.941,112.198 305.5,112.5C 315.091,83.0718 333.091,60.2385 359.5,44C 370.008,42.1717 373.841,46.3384 371,56.5C 348.07,70.5979 331.903,90.2646 322.5,115.5 Z"/></g>
<g><path style="opacity:0.997" fill="#7c6498" d="M 258.5,119.5 C 260.629,121.95 263.296,123.617 266.5,124.5C 289.819,145.107 304.986,170.773 312,201.5C 318.824,229.071 321.824,257.071 321,285.5C 322.846,291.995 327.012,294.162 333.5,292C 336.102,291.065 337.602,289.232 338,286.5C 339.448,247.751 333.782,210.084 321,173.5C 313.253,152.327 301.253,133.994 285,118.5C 284.517,117.552 284.351,116.552 284.5,115.5C 289.033,114.016 293.699,113.35 298.5,113.5C 306.581,113.315 314.581,113.982 322.5,115.5C 335.973,119.234 347.973,125.567 358.5,134.5C 376.692,151.181 390.192,171.181 399,194.5C 415.389,242.979 420.389,292.646 414,343.5C 407.005,403.373 379.172,450.54 330.5,485C 309.837,498.342 287.503,507.175 263.5,511.5C 255.167,511.5 246.833,511.5 238.5,511.5C 164.292,494.769 116.458,449.769 95,376.5C 82.5442,324.198 82.5442,271.865 95,219.5C 102.293,188.918 117.127,162.751 139.5,141C 169.747,116.854 204.08,107.854 242.5,114C 247.95,115.562 253.283,117.395 258.5,119.5 Z"/></g>
<g><path style="opacity:1" fill="#5d4c72" d="M 284.5,115.5 C 284.351,116.552 284.517,117.552 285,118.5C 301.253,133.994 313.253,152.327 321,173.5C 333.782,210.084 339.448,247.751 338,286.5C 337.602,289.232 336.102,291.065 333.5,292C 327.012,294.162 322.846,291.995 321,285.5C 321.824,257.071 318.824,229.071 312,201.5C 304.986,170.773 289.819,145.107 266.5,124.5C 269.833,122.167 273.167,119.833 276.5,117.5C 279.167,116.833 281.833,116.167 284.5,115.5 Z"/></g>
</svg>
