<?xml version="1.0" encoding="UTF-8"?>
<svg version="1.1" xmlns="http://www.w3.org/2000/svg" width="512" height="512">
<path d="M0 0 C3.45727496 0.0031476 6.91368028 -0.02035494 10.37084961 -0.0456543 C26.07552935 -0.0903364 41.37806343 1.11039344 56.92358398 3.31567383 C58.01456894 3.46916794 58.01456894 3.46916794 59.12759399 3.62576294 C62.86915912 4.1653676 66.58502044 4.79736958 70.29858398 5.50317383 C71.39468994 5.71039062 72.4907959 5.91760742 73.62011719 6.13110352 C99.95743868 11.34212135 126.38492386 19.60502966 150.09545898 32.34057617 C151.95369263 33.33173338 153.82640605 34.28919647 155.70483398 35.24145508 C174.51823409 44.8723839 191.29470675 57.4060316 206.53540039 71.99487305 C207.6952315 73.09840563 208.87541289 74.18049826 210.06030273 75.25708008 C232.28359034 96.08267664 249.11321283 128.14025597 251.14624023 158.65795898 C251.80495553 179.08665099 251.93038611 198.63891155 237.70483398 214.84301758 C219.60692636 232.5002294 191.56880939 233.72580104 167.67358398 233.62817383 C166.41629486 233.62743362 166.41629486 233.62743362 165.13360596 233.62667847 C146.94992888 233.59450063 128.85346906 232.44787529 110.72827148 231.06958008 C109.92374542 231.00909485 109.11921936 230.94860962 108.29031372 230.8862915 C104.12107295 230.55421574 100.04192812 230.07703803 95.92358398 229.31567383 C98.38300147 262.51780995 110.6671374 293.88724439 121.25561523 325.17504883 C151.17486638 413.65911752 151.17486638 413.65911752 132.54467773 455.40551758 C129.14072118 462.01865388 124.80195895 467.72386063 119.92358398 473.31567383 C119.41569336 473.91895508 118.90780273 474.52223633 118.38452148 475.14379883 C94.98546488 500.82276351 51.95261491 510.3524512 18.90115356 512.44363403 C14.13816174 512.66456655 9.37852843 512.70427136 4.61108398 512.69067383 C3.88190765 512.69013 3.15273132 512.68958618 2.40145874 512.68902588 C-25.03991617 512.59600048 -52.98869474 507.73749188 -78.07641602 496.31567383 C-79.24172852 495.79360352 -80.40704102 495.2715332 -81.60766602 494.73364258 C-102.79957504 484.7237475 -119.66770269 469.64979967 -128.07641602 447.31567383 C-141.63024249 406.39152333 -126.23897238 361.80115324 -112.91235352 322.96020508 C-112.69039684 322.31307556 -112.46844017 321.66594604 -112.23975754 320.99920654 C-110.19293147 315.03924405 -108.13211895 309.08415266 -106.06176758 303.13232422 C-94.30338954 269.30373589 -94.30338954 269.30373589 -88.45141602 234.06567383 C-88.37665039 233.15301758 -88.30188477 232.24036133 -88.22485352 231.30004883 C-88.15137695 230.3177832 -88.15137695 230.3177832 -88.07641602 229.31567383 C-89.00454102 229.4368457 -89.93266602 229.55801758 -90.88891602 229.68286133 C-192.35419652 242.27418328 -192.35419652 242.27418328 -225.51391602 218.57348633 C-236.06606267 209.9820426 -241.58668214 197.67680096 -243.07641602 184.31567383 C-244.63646066 161.62846007 -242.16946798 141.13260334 -233.07641602 120.31567383 C-232.79314453 119.6653418 -232.50987305 119.01500977 -232.21801758 118.3449707 C-224.73233702 101.55388614 -213.89117906 87.37846454 -201.07641602 74.31567383 C-200.29524414 73.49583008 -199.51407227 72.67598633 -198.70922852 71.83129883 C-158.34701556 30.17634596 -98.29339447 9.82204764 -42.07641602 2.31567383 C-41.11960434 2.18486923 -41.11960434 2.18486923 -40.14346313 2.05142212 C-26.76855304 0.27330236 -13.4810878 -0.02553057 0 0 Z " fill="#AC7036" transform="translate(252.076416015625,-0.315673828125)"/>
<path d="M0 0 C1.67263412 -0.00009064 1.67263412 -0.00009064 3.37905884 -0.00018311 C24.63442976 0.01604943 45.79505105 0.75597589 67 2.1875 C67.68505615 2.23324158 68.3701123 2.27898315 69.07592773 2.32611084 C75.33384884 2.74675918 81.58969371 3.19837566 87.83984375 3.72265625 C88.62738037 3.788479 89.41491699 3.85430176 90.22631836 3.92211914 C92 4.1875 92 4.1875 93 5.1875 C93.1782719 6.92296618 93.34987016 8.65932979 93.49121094 10.39819336 C96.16583989 41.59221785 108.3709712 71.61302212 118.33203125 101.046875 C148.2512824 189.53094369 148.2512824 189.53094369 129.62109375 231.27734375 C126.21713719 237.89048006 121.87837496 243.5956868 117 249.1875 C116.49210938 249.79078125 115.98421875 250.3940625 115.4609375 251.015625 C92.0618809 276.69458968 49.02903093 286.22427737 15.97756958 288.31546021 C11.21457776 288.53639272 6.45494444 288.57609753 1.6875 288.5625 C0.95832367 288.56195618 0.22914734 288.56141235 -0.52212524 288.56085205 C-27.96350015 288.46782666 -55.91227873 283.60931806 -81 272.1875 C-82.1653125 271.66542969 -83.330625 271.14335937 -84.53125 270.60546875 C-105.72315902 260.59557367 -122.59128668 245.52162585 -131 223.1875 C-144.55382648 182.26334951 -129.16255636 137.67297941 -115.8359375 98.83203125 C-115.61398083 98.18490173 -115.39202415 97.53777222 -115.16334152 96.87103271 C-113.11651546 90.91107022 -111.05570293 84.95597883 -108.98535156 79.00415039 C-97.15634426 45.22136641 -97.15634426 45.22136641 -91.4375 10 C-91.10769231 5.29519231 -91.10769231 5.29519231 -90 4.1875 C-87.25578137 3.89470159 -84.52915345 3.66197261 -81.77734375 3.46875 C-80.92564102 3.40594849 -80.07393829 3.34314697 -79.19642639 3.27844238 C-77.37305641 3.14514302 -75.54951607 3.01415778 -73.72583008 2.88525391 C-71.02832126 2.69394122 -68.331555 2.49413601 -65.63476562 2.29296875 C-43.76484964 0.69286857 -21.92683334 -0.01852815 0 0 Z " fill="#E5E5E5" transform="translate(255,223.8125)"/>
<path d="M0 0 C0 0.33 0 0.66 0 1 C-0.88558594 1.12375 -1.77117187 1.2475 -2.68359375 1.375 C-27.58211054 5.52043464 -48.15863885 20.94722471 -63.1796875 40.89453125 C-76.76523543 59.95660628 -87.01605565 81.34722953 -93 104 C-93.31662598 105.18287598 -93.31662598 105.18287598 -93.63964844 106.38964844 C-101.40090259 136.03285264 -104.73242075 169.65424821 -99 200 C-98.86722656 200.75925781 -98.73445312 201.51851562 -98.59765625 202.30078125 C-96.37748762 212.85186837 -91.70847353 221.5668291 -84 229 C-187.50227503 242.51279702 -187.50227503 242.51279702 -221.4375 218.2578125 C-231.98964666 209.66636877 -237.51026612 197.36112714 -239 184 C-240.56004464 161.31278624 -238.09305196 140.81692952 -229 120 C-228.71672852 119.34966797 -228.43345703 118.69933594 -228.14160156 118.02929688 C-220.65592101 101.23821231 -209.81476304 87.06279071 -197 74 C-196.21882813 73.18015625 -195.43765625 72.3603125 -194.6328125 71.515625 C-146.41531253 21.75379229 -67.8803294 -1.36824852 0 0 Z " fill="#8C531F" transform="translate(248,0)"/>
<path d="M0 0 C1.67263412 -0.00009064 1.67263412 -0.00009064 3.37905884 -0.00018311 C24.63442976 0.01604943 45.79505105 0.75597589 67 2.1875 C67.68505615 2.23324158 68.3701123 2.27898315 69.07592773 2.32611084 C75.33384884 2.74675918 81.58969371 3.19837566 87.83984375 3.72265625 C88.62738037 3.788479 89.41491699 3.85430176 90.22631836 3.92211914 C92 4.1875 92 4.1875 93 5.1875 C93.3075879 7.81265612 93.57020521 10.43116765 93.8125 13.0625 C94.79964096 22.94396195 96.79123811 32.51612511 99 42.1875 C98.24678467 42.13343994 97.49356934 42.07937988 96.7175293 42.02368164 C94.30832069 41.85115384 91.89905183 41.67946684 89.48974609 41.50830078 C86.33872664 41.28412979 83.1881094 41.05492106 80.03759766 40.82373047 C57.78304233 39.20341633 35.56942796 37.88542567 13.25 37.8125 C12.35656891 37.80491669 11.46313782 37.79733337 10.54263306 37.78952026 C-6.20223522 37.67327554 -20.71086474 39.57095595 -33.75 51.25 C-43.26545048 61.83564784 -46.43914678 72.86243552 -48.46533203 86.57617188 C-48.98060031 90.05646796 -49.52396224 93.53119577 -50.07365417 97.00616455 C-54.81129498 127.01941567 -59.22460742 157.11593061 -59.25 187.5625 C-59.25067474 188.29951141 -59.25134949 189.03652283 -59.25204468 189.79586792 C-59.21041653 218.6636296 -56.05310115 249.59105946 -34.9453125 271.30078125 C-26.25306551 279.51356266 -16.35454095 283.81878802 -5 287.1875 C-5 287.5175 -5 287.8475 -5 288.1875 C-13.06908195 288.42293207 -20.77524628 287.77231035 -28.75 286.5625 C-29.92014648 286.3857373 -31.09029297 286.20897461 -32.29589844 286.02685547 C-49.10579717 283.35555022 -65.48028366 279.25324242 -81 272.1875 C-82.1653125 271.66542969 -83.330625 271.14335937 -84.53125 270.60546875 C-105.72315902 260.59557367 -122.59128668 245.52162585 -131 223.1875 C-144.55382648 182.26334951 -129.16255636 137.67297941 -115.8359375 98.83203125 C-115.61398083 98.18490173 -115.39202415 97.53777222 -115.16334152 96.87103271 C-113.11651546 90.91107022 -111.05570293 84.95597883 -108.98535156 79.00415039 C-97.15634426 45.22136641 -97.15634426 45.22136641 -91.4375 10 C-91.10769231 5.29519231 -91.10769231 5.29519231 -90 4.1875 C-87.25578137 3.89470159 -84.52915345 3.66197261 -81.77734375 3.46875 C-80.92564102 3.40594849 -80.07393829 3.34314697 -79.19642639 3.27844238 C-77.37305641 3.14514302 -75.54951607 3.01415778 -73.72583008 2.88525391 C-71.02832126 2.69394122 -68.331555 2.49413601 -65.63476562 2.29296875 C-43.76484964 0.69286857 -21.92683334 -0.01852815 0 0 Z " fill="#CCCCCC" transform="translate(255,223.8125)"/>
<path d="M0 0 C4.93731454 1.46290801 4.93731454 1.46290801 6.375 4 C6.875 7.375 6.875 7.375 6.375 11 C4.08908345 14.06965937 2.61997671 15.68875582 -1.125 16.625 C-4.83364386 15.69783903 -6.33485284 14.0099077 -8.625 11 C-9.25 8 -9.25 8 -8.625 5 C-5.91953265 1.14675862 -4.77773264 0 0 0 Z " fill="#CCCCCC" transform="translate(357.625,419)"/>
<path d="M0 0 C2.5881216 2.25417042 2.94242643 3.60520979 3.4375 7 C3 10 3 10 1.5 12.375 C-2.26897129 14.82483134 -4.54334931 14.5659239 -9 14 C-11.90460477 11.73077752 -11.97856495 10.15004537 -12.5 6.5 C-12 3 -12 3 -9.9375 0.5 C-6.08739354 -1.46601181 -4.10799908 -1.21718491 0 0 Z " fill="#CCCCCC" transform="translate(341,439)"/>
<path d="M0 0 C4.99268902 1.47931526 4.99268902 1.47931526 6.375 4 C6.90276637 7.56056467 7.00403915 10.74192169 5.375 14 C2.11692169 15.62903915 -1.06443533 15.52776637 -4.625 15 C-7.57667993 13.38133681 -7.65725355 11.89114428 -8.625 8.625 C-8.625 5 -8.625 5 -6.625 2 C-3.625 0 -3.625 0 0 0 Z " fill="#CCCCCC" transform="translate(333.625,410)"/>
</svg>
