<?xml version="1.0" encoding="UTF-8"?>
<!DOCTYPE svg PUBLIC "-//W3C//DTD SVG 1.1//EN" "http://www.w3.org/Graphics/SVG/1.1/DTD/svg11.dtd">
<svg xmlns="http://www.w3.org/2000/svg" version="1.1" width="512px" height="512px" style="shape-rendering:geometricPrecision; text-rendering:geometricPrecision; image-rendering:optimizeQuality; fill-rule:evenodd; clip-rule:evenodd" xmlns:xlink="http://www.w3.org/1999/xlink">
<g><path style="opacity:0.975" fill="#ffd18d" d="M 236.5,-0.5 C 246.167,-0.5 255.833,-0.5 265.5,-0.5C 270.714,3.56826 271.714,8.56826 268.5,14.5C 267.222,14.7822 266.222,15.4489 265.5,16.5C 233.852,14.8521 203.852,21.0187 175.5,35C 116.27,63.8967 71.1033,107.397 40,165.5C 23.1902,196.739 15.5236,230.072 17,265.5C 18.188,274.586 19.8547,283.586 22,292.5C 23.4082,304.124 22.2415,315.458 18.5,326.5C 19.8323,336.499 25.499,342.166 35.5,343.5C 43.2659,340.747 51.2659,339.413 59.5,339.5C 68.9813,339.931 78.3147,341.264 87.5,343.5C 82.7095,347.947 78.7095,352.947 75.5,358.5C 63.3636,355.508 51.3636,356.008 39.5,360C 14.3333,360.167 1.83333,347.667 2,322.5C 4.12617,315.997 5.29284,309.33 5.5,302.5C 4.10058,290.937 2.10058,279.604 -0.5,268.5C -0.5,258.5 -0.5,248.5 -0.5,238.5C 5.37972,197.37 20.2131,159.704 44,125.5C 79.5004,74.3366 126,36.8366 183.5,13C 200.783,6.42979 218.45,1.92979 236.5,-0.5 Z"/></g>
<g><path style="opacity:0.999" fill="#b8ea7c" d="M 268.5,14.5 C 274.17,14.9174 279.503,16.2507 284.5,18.5C 255.689,59.4334 226.855,100.433 198,141.5C 193.622,152.92 197.122,161.087 208.5,166C 213.611,167.111 218.278,166.111 222.5,163C 262.9,134.478 303.233,105.978 343.5,77.5C 345.749,82.4968 347.083,87.8302 347.5,93.5C 347.586,94.4959 347.252,95.3292 346.5,96C 268.5,150.667 190.5,205.333 112.5,260C 103.624,260.127 100.457,255.961 103,247.5C 157.386,170.62 211.553,93.6204 265.5,16.5C 266.222,15.4489 267.222,14.7822 268.5,14.5 Z"/></g>
<g><path style="opacity:0.999" fill="#fedf9b" d="M 265.5,16.5 C 211.553,93.6204 157.386,170.62 103,247.5C 100.457,255.961 103.624,260.127 112.5,260C 190.5,205.333 268.5,150.667 346.5,96C 347.252,95.3292 347.586,94.4959 347.5,93.5C 353.287,90.2236 358.12,91.2236 362,96.5C 363.932,128.509 358.266,159.176 345,188.5C 338.238,203.031 330.738,217.031 322.5,230.5C 273.066,228.959 226.066,238.792 181.5,260C 166.733,267.703 153.067,276.87 140.5,287.5C 127.29,299.238 116.457,312.904 108,328.5C 102.672,335.676 95.8388,340.676 87.5,343.5C 78.3147,341.264 68.9813,339.931 59.5,339.5C 51.2659,339.413 43.2659,340.747 35.5,343.5C 25.499,342.166 19.8323,336.499 18.5,326.5C 22.2415,315.458 23.4082,304.124 22,292.5C 19.8547,283.586 18.188,274.586 17,265.5C 15.5236,230.072 23.1902,196.739 40,165.5C 71.1033,107.397 116.27,63.8967 175.5,35C 203.852,21.0187 233.852,14.8521 265.5,16.5 Z"/></g>
<g><path style="opacity:0.998" fill="#d3ee7a" d="M 284.5,18.5 C 314.5,27.8333 334.167,47.5 343.5,77.5C 303.233,105.978 262.9,134.478 222.5,163C 218.278,166.111 213.611,167.111 208.5,166C 197.122,161.087 193.622,152.92 198,141.5C 226.855,100.433 255.689,59.4334 284.5,18.5 Z"/></g>
<g><path style="opacity:0.999" fill="#fed08c" d="M 322.5,230.5 C 375.718,231.188 424.718,245.688 469.5,274C 479.924,281.753 489.757,290.253 499,299.5C 501.329,304.363 500.829,308.863 497.5,313C 495.975,314.009 494.308,314.509 492.5,314.5C 398.445,330.246 304.445,346.413 210.5,363C 204.458,365.837 202.958,370.337 206,376.5C 208.042,378.604 210.542,379.771 213.5,380C 305.149,395.996 396.816,411.83 488.5,427.5C 483.374,434.46 477.374,440.627 470.5,446C 438.726,469.934 403.059,484.934 363.5,491C 299.269,501.873 238.269,492.54 180.5,463C 154.333,448.833 134.167,428.667 120,402.5C 113.93,394.756 106.43,388.923 97.5,385C 90.0438,378.356 88.5438,370.522 93,361.5C 101.023,356.321 108.689,350.655 116,344.5C 122.409,336.686 128.075,328.353 133,319.5C 136.667,315.167 140.333,310.833 144,306.5C 146.24,300.339 145.907,294.339 143,288.5C 142.329,287.748 141.496,287.414 140.5,287.5C 153.067,276.87 166.733,267.703 181.5,260C 226.066,238.792 273.066,228.959 322.5,230.5 Z"/></g>
<g><path style="opacity:0.982" fill="#fbbd80" d="M 140.5,287.5 C 141.496,287.414 142.329,287.748 143,288.5C 145.907,294.339 146.24,300.339 144,306.5C 140.333,310.833 136.667,315.167 133,319.5C 128.075,328.353 122.409,336.686 116,344.5C 108.689,350.655 101.023,356.321 93,361.5C 88.5438,370.522 90.0438,378.356 97.5,385C 106.43,388.923 113.93,394.756 120,402.5C 134.167,428.667 154.333,448.833 180.5,463C 238.269,492.54 299.269,501.873 363.5,491C 403.059,484.934 438.726,469.934 470.5,446C 477.374,440.627 483.374,434.46 488.5,427.5C 489.833,427.5 491.167,427.5 492.5,427.5C 500.444,429.78 502.611,434.78 499,442.5C 471.508,470.507 438.674,489.674 400.5,500C 380.034,505.686 359.367,509.52 338.5,511.5C 321.5,511.5 304.5,511.5 287.5,511.5C 238.915,507.805 194.249,492.639 153.5,466C 133.713,452.218 118.213,434.718 107,413.5C 100.148,406.327 92.315,400.493 83.5,396C 73.4135,385.13 70.7468,372.63 75.5,358.5C 78.7095,352.947 82.7095,347.947 87.5,343.5C 95.8388,340.676 102.672,335.676 108,328.5C 116.457,312.904 127.29,299.238 140.5,287.5 Z"/></g>
<g><path style="opacity:0.999" fill="#99da7c" d="M 492.5,314.5 C 495.898,319.238 498.898,324.238 501.5,329.5C 451.767,337.581 402.1,346.081 352.5,355C 340.363,360.787 337.529,369.621 344,381.5C 346.626,384.231 349.793,386.064 353.5,387C 401.635,395.627 449.802,404.127 498,412.5C 499.376,412.684 500.209,413.351 500.5,414.5C 498.084,419.001 495.417,423.334 492.5,427.5C 491.167,427.5 489.833,427.5 488.5,427.5C 396.816,411.83 305.149,395.996 213.5,380C 210.542,379.771 208.042,378.604 206,376.5C 202.958,370.337 204.458,365.837 210.5,363C 304.445,346.413 398.445,330.246 492.5,314.5 Z"/></g>
<g><path style="opacity:0.997" fill="#b7ea7b" d="M 501.5,329.5 C 506.262,339.12 509.596,349.12 511.5,359.5C 511.5,367.167 511.5,374.833 511.5,382.5C 509.436,393.693 505.769,404.359 500.5,414.5C 500.209,413.351 499.376,412.684 498,412.5C 449.802,404.127 401.635,395.627 353.5,387C 349.793,386.064 346.626,384.231 344,381.5C 337.529,369.621 340.363,360.787 352.5,355C 402.1,346.081 451.767,337.581 501.5,329.5 Z"/></g>
</svg>
