<?xml version="1.0" encoding="UTF-8"?>
<!DOCTYPE svg PUBLIC "-//W3C//DTD SVG 1.1//EN" "http://www.w3.org/Graphics/SVG/1.1/DTD/svg11.dtd">
<svg xmlns="http://www.w3.org/2000/svg" version="1.1" width="512px" height="512px" style="shape-rendering:geometricPrecision; text-rendering:geometricPrecision; image-rendering:optimizeQuality; fill-rule:evenodd; clip-rule:evenodd" xmlns:xlink="http://www.w3.org/1999/xlink">
<g><path style="opacity:0.992" fill="#fc7f86" d="M 184.5,-0.5 C 200.167,-0.5 215.833,-0.5 231.5,-0.5C 232.122,0.626561 232.955,1.62656 234,2.5C 234.5,13.1615 234.667,23.8281 234.5,34.5C 244.833,34.5 255.167,34.5 265.5,34.5C 257.016,35.493 248.349,35.8264 239.5,35.5C 220.326,35.8303 201.326,35.497 182.5,34.5C 182.333,23.8281 182.5,13.1615 183,2.5C 183.513,1.47344 184.013,0.473444 184.5,-0.5 Z"/></g>
<g><path style="opacity:1" fill="#fe646f" d="M 231.5,-0.5 C 242.167,-0.5 252.833,-0.5 263.5,-0.5C 263.783,0.28913 264.283,0.955796 265,1.5C 265.5,12.495 265.667,23.495 265.5,34.5C 255.167,34.5 244.833,34.5 234.5,34.5C 234.667,23.8281 234.5,13.1615 234,2.5C 232.955,1.62656 232.122,0.626561 231.5,-0.5 Z"/></g>
<g><path style="opacity:0.991" fill="#a6e7f0" d="M 182.5,34.5 C 201.326,35.497 220.326,35.8303 239.5,35.5C 252.087,40.7628 254.92,49.4295 248,61.5C 245.531,63.6515 242.698,65.1515 239.5,66C 246.158,66.4996 252.825,66.6663 259.5,66.5C 259.333,83.8365 259.5,101.17 260,118.5C 260.264,122.956 261.098,127.289 262.5,131.5C 292.699,101.624 328.032,93.4573 368.5,107C 405.776,124.138 425.442,153.305 427.5,194.5C 425.618,237.363 404.952,267.03 365.5,283.5C 364.501,299.152 364.167,314.819 364.5,330.5C 354.167,330.5 343.833,330.5 333.5,330.5C 333.667,312.164 333.5,293.83 333,275.5C 329.24,245.134 315.073,220.968 290.5,203C 256.462,187.417 235.962,161.25 229,124.5C 228.5,105.17 228.333,85.8362 228.5,66.5C 215.167,66.5 201.833,66.5 188.5,66.5C 175.269,69.0679 167.269,63.9012 164.5,51C 166.077,40.7064 172.077,35.2064 182.5,34.5 Z M 324.5,132.5 C 359.848,131.076 383.014,147.076 394,180.5C 399.143,212.547 387.476,236.214 359,251.5C 351.793,231.578 339.626,215.411 322.5,203C 304.684,194.583 289.684,182.583 277.5,167C 288.001,148.315 303.668,136.815 324.5,132.5 Z"/></g>
<g><path style="opacity:1" fill="#6cd9e7" d="M 265.5,34.5 C 280.741,36.5759 285.907,44.9093 281,59.5C 275.295,65.9736 268.128,68.307 259.5,66.5C 252.825,66.6663 246.158,66.4996 239.5,66C 242.698,65.1515 245.531,63.6515 248,61.5C 254.92,49.4295 252.087,40.7628 239.5,35.5C 248.349,35.8264 257.016,35.493 265.5,34.5 Z"/></g>
<g><path style="opacity:0.997" fill="#dbf4f7" d="M 188.5,66.5 C 201.833,66.5 215.167,66.5 228.5,66.5C 228.333,85.8362 228.5,105.17 229,124.5C 235.962,161.25 256.462,187.417 290.5,203C 315.073,220.968 329.24,245.134 333,275.5C 333.5,293.83 333.667,312.164 333.5,330.5C 343.833,330.5 354.167,330.5 364.5,330.5C 364.5,330.833 364.5,331.167 364.5,331.5C 354.167,331.5 343.833,331.5 333.5,331.5C 250.167,331.5 166.833,331.5 83.5,331.5C 83.3334,312.497 83.5001,293.497 84,274.5C 88.8488,237.335 108.015,210.502 141.5,194C 165.7,178.126 180.867,155.959 187,127.5C 188.399,107.2 188.899,86.8662 188.5,66.5 Z"/></g>
<g><path style="opacity:1" fill="#feefad" d="M 83.5,331.5 C 166.833,331.5 250.167,331.5 333.5,331.5C 333.667,381.501 333.5,431.501 333,481.5C 329.668,497.998 319.835,507.998 303.5,511.5C 238.833,511.5 174.167,511.5 109.5,511.5C 95.6279,507.125 87.1279,497.792 84,483.5C 83.5,432.834 83.3333,382.168 83.5,331.5 Z"/></g>
<g><path style="opacity:1" fill="#fee178" d="M 333.5,331.5 C 343.833,331.5 354.167,331.5 364.5,331.5C 364.667,382.501 364.5,433.501 364,484.5C 360.414,498.25 351.914,507.25 338.5,511.5C 326.833,511.5 315.167,511.5 303.5,511.5C 319.835,507.998 329.668,497.998 333,481.5C 333.5,431.501 333.667,381.501 333.5,331.5 Z"/></g>
</svg>
