<?xml version="1.0" encoding="UTF-8"?>
<!DOCTYPE svg PUBLIC "-//W3C//DTD SVG 1.1//EN" "http://www.w3.org/Graphics/SVG/1.1/DTD/svg11.dtd">
<svg xmlns="http://www.w3.org/2000/svg" version="1.1" width="512px" height="512px" style="shape-rendering:geometricPrecision; text-rendering:geometricPrecision; image-rendering:optimizeQuality; fill-rule:evenodd; clip-rule:evenodd" xmlns:xlink="http://www.w3.org/1999/xlink">
<g><path style="opacity:1" fill="#fdea94" d="M 38.5,-0.5 C 40.5,-0.5 42.5,-0.5 44.5,-0.5C 49.8454,0.441415 55.1787,1.94142 60.5,4C 70.673,9.9206 81.0063,15.5873 91.5,21C 102.472,24.266 113.472,24.266 124.5,21C 135.454,15.682 146.787,11.3487 158.5,8C 174.235,5.75502 189.901,6.08835 205.5,9C 217.973,14.2385 230.64,18.9052 243.5,23C 255.852,24.5617 267.852,23.2283 279.5,19C 304.617,5.8362 330.95,2.8362 358.5,10C 369.465,15.3212 380.798,19.6545 392.5,23C 403.756,24.85 414.423,23.1833 424.5,18C 431.833,13.6667 439.167,9.33333 446.5,5C 452.412,2.41455 458.412,0.581221 464.5,-0.5C 466.5,-0.5 468.5,-0.5 470.5,-0.5C 491.71,4.20952 504.877,17.2095 510,38.5C 510.643,44.6269 509.976,50.6269 508,56.5C 502.191,68.7848 495.858,80.7848 489,92.5C 485.659,104.208 485.826,115.875 489.5,127.5C 482.091,141.772 471.757,153.605 458.5,163C 437.374,173.188 415.041,178.355 391.5,178.5C 379.13,145.964 356.13,125.131 322.5,116C 279.192,114.377 235.859,114.044 192.5,115C 184.073,116.271 176.073,118.771 168.5,122.5C 165.969,120.702 162.969,119.535 159.5,119C 134.342,116.36 110.009,119.693 86.5,129C 57.9288,140.698 31.4288,155.864 7,174.5C 6.50258,171.854 6.33591,169.187 6.5,166.5C 6.56422,162.78 7.06422,159.114 8,155.5C 12.0562,144.388 16.3896,133.388 21,122.5C 24.4848,111.271 23.8181,100.271 19,89.5C 11.1426,77.4502 4.6426,64.7836 -0.5,51.5C -0.5,45.8333 -0.5,40.1667 -0.5,34.5C 6.14646,15.688 19.1465,4.02137 38.5,-0.5 Z"/></g>
<g><path style="opacity:1" fill="#eed572" d="M 391.5,178.5 C 392.363,180.421 393.029,182.421 393.5,184.5C 347.816,202.587 300.483,213.754 251.5,218C 222.034,220.141 193.368,216.475 165.5,207C 145.782,199.439 131.449,186.272 122.5,167.5C 130.453,150.445 142.453,136.945 158.5,127C 161.736,125.214 165.07,123.714 168.5,122.5C 176.073,118.771 184.073,116.271 192.5,115C 235.859,114.044 279.192,114.377 322.5,116C 356.13,125.131 379.13,145.964 391.5,178.5 Z"/></g>
<g><path style="opacity:1" fill="#fde57b" d="M 168.5,122.5 C 165.07,123.714 161.736,125.214 158.5,127C 142.453,136.945 130.453,150.445 122.5,167.5C 116.706,178.335 113.539,190.002 113,202.5C 112.169,237.669 112.336,272.669 113.5,307.5C 114.538,326.615 120.538,343.948 131.5,359.5C 109.792,356.986 89.4582,350.153 70.5,339C 49.549,326.212 29.8824,311.712 11.5,295.5C 14.0453,288.739 16.8787,282.072 20,275.5C 23.6654,263.545 23.9988,251.545 21,239.5C 15.7642,227.031 11.0976,214.365 7,201.5C 5.29702,189.703 5.13035,178.037 6.5,166.5C 6.33591,169.187 6.50258,171.854 7,174.5C 31.4288,155.864 57.9288,140.698 86.5,129C 110.009,119.693 134.342,116.36 159.5,119C 162.969,119.535 165.969,120.702 168.5,122.5 Z"/></g>
<g><path style="opacity:1" fill="#fde57a" d="M 489.5,127.5 C 504.408,153.622 507.908,181.288 500,210.5C 495.44,220.285 491.44,230.285 488,240.5C 485.804,251.91 486.137,263.243 489,274.5C 492.667,283.167 496.333,291.833 500,300.5C 501.154,304.447 501.987,308.447 502.5,312.5C 490.701,312.107 479.368,309.607 468.5,305C 451.865,296.348 435.198,287.682 418.5,279C 411.246,275.869 403.913,273.036 396.5,270.5C 396.667,246.498 396.5,222.498 396,198.5C 395.484,193.757 394.651,189.09 393.5,184.5C 393.029,182.421 392.363,180.421 391.5,178.5C 415.041,178.355 437.374,173.188 458.5,163C 471.757,153.605 482.091,141.772 489.5,127.5 Z"/></g>
<g><path style="opacity:1" fill="#fdea94" d="M 122.5,167.5 C 131.449,186.272 145.782,199.439 165.5,207C 193.368,216.475 222.034,220.141 251.5,218C 300.483,213.754 347.816,202.587 393.5,184.5C 394.651,189.09 395.484,193.757 396,198.5C 396.5,222.498 396.667,246.498 396.5,270.5C 396.667,283.504 396.5,296.504 396,309.5C 395.819,312.695 395.319,315.695 394.5,318.5C 356.208,317.839 318.542,312.672 281.5,303C 257.243,295.872 235.243,284.539 215.5,269C 196.201,258.439 175.534,253.273 153.5,253.5C 140.036,253.646 126.702,254.98 113.5,257.5C 113.5,274.167 113.5,290.833 113.5,307.5C 112.336,272.669 112.169,237.669 113,202.5C 113.539,190.002 116.706,178.335 122.5,167.5 Z"/></g>
<g><path style="opacity:1" fill="#f8e7a1" d="M 394.5,318.5 C 388.94,347.46 373.607,369.627 348.5,385C 339.875,389.32 330.875,392.653 321.5,395C 278.195,396.628 234.862,396.962 191.5,396C 166.898,391.208 146.898,379.041 131.5,359.5C 120.538,343.948 114.538,326.615 113.5,307.5C 113.5,290.833 113.5,274.167 113.5,257.5C 126.702,254.98 140.036,253.646 153.5,253.5C 175.534,253.273 196.201,258.439 215.5,269C 235.243,284.539 257.243,295.872 281.5,303C 318.542,312.672 356.208,317.839 394.5,318.5 Z"/></g>
<g><path style="opacity:0.997" fill="#eed572" d="M 396.5,270.5 C 403.913,273.036 411.246,275.869 418.5,279C 435.198,287.682 451.865,296.348 468.5,305C 479.368,309.607 490.701,312.107 502.5,312.5C 505.735,329.222 504.235,345.556 498,361.5C 494.588,368.658 490.922,375.658 487,382.5C 485.693,386.061 484.86,389.727 484.5,393.5C 486.862,410.092 493.029,425.092 503,438.5C 506.438,444.697 509.271,451.031 511.5,457.5C 511.5,463.167 511.5,468.833 511.5,474.5C 504.413,494.26 490.746,506.593 470.5,511.5C 468.5,511.5 466.5,511.5 464.5,511.5C 458.435,510.31 452.435,508.477 446.5,506C 435.522,498.678 423.856,492.678 411.5,488C 395.349,486.121 380.349,489.454 366.5,498C 345.905,505.077 324.905,506.41 303.5,502C 295.271,499.219 287.271,495.885 279.5,492C 267.852,487.772 255.852,486.438 243.5,488C 230.635,492.098 217.969,496.764 205.5,502C 188.497,505.333 171.497,505.333 154.5,502C 142.71,497.354 130.876,492.854 119,488.5C 104.732,485.267 91.5658,487.767 79.5,496C 68.9509,503.947 57.2842,509.113 44.5,511.5C 42.5,511.5 40.5,511.5 38.5,511.5C 24.2535,508.45 13.0868,500.783 5,488.5C 2.8381,484.519 1.00477,480.519 -0.5,476.5C -0.5,470.833 -0.5,465.167 -0.5,459.5C 4.6426,446.216 11.1426,433.55 19,421.5C 23.8181,410.729 24.4848,399.729 21,388.5C 18.2187,380.271 14.8854,372.271 11,364.5C 5.80446,348.561 4.13779,332.228 6,315.5C 6.90686,308.535 8.74019,301.869 11.5,295.5C 29.8824,311.712 49.549,326.212 70.5,339C 89.4582,350.153 109.792,356.986 131.5,359.5C 146.898,379.041 166.898,391.208 191.5,396C 234.862,396.962 278.195,396.628 321.5,395C 330.875,392.653 339.875,389.32 348.5,385C 373.607,369.627 388.94,347.46 394.5,318.5C 395.319,315.695 395.819,312.695 396,309.5C 396.5,296.504 396.667,283.504 396.5,270.5 Z"/></g>
</svg>
