<?xml version="1.0" encoding="UTF-8"?>
<svg id="Layer_1" xmlns="http://www.w3.org/2000/svg" viewBox="0 0 648.28 420.98">
  <defs>
    <style>
      .cls-1 {
        fill: #f5aaaa;
      }

      .cls-2 {
        fill: #e76566;
      }

      .cls-3 {
        fill: #fefefe;
      }
    </style>
  </defs>
  <path class="cls-1" d="M.32,282.23c.91-16.26-2-37.94,1.33-59.34,3.46-22.2,16.53-39.02,34.26-51.59C106.73,121.08,177.93,71.4,249,21.52c42.63-29.92,105.03-28.19,146.96,2.35,37.2,27.09,75.65,52.46,113.44,78.75,36.56,25.44,73.39,50.52,109.32,76.84,22.27,16.31,28.62,41.09,29.12,67.26.64,33.32.48,66.66.25,99.99-.26,37.71-36.61,73.42-75.41,73.72-45.08.35-90.2,1.17-135.24-.3-101.85-3.32-203.73-.17-305.55-2.56-24.4-.57-49.27,1.96-73.42-3.86C25.69,405.8.55,373.55.34,339.77c-.11-17.42-.02-34.85-.02-57.54ZM520.26,279.39c17.47,0,30.35,0,43.24,0,.76,0,1.52.02,2.27-.01,20.13-.85,35.24-11.76,40.27-29.07,4.92-16.95-1.76-33.57-18.23-45.01-71.07-49.39-142.07-98.9-213.28-148.09-36.17-24.98-70.95-24.8-107.48.04-18.12,12.32-36.01,25-53.93,37.61-51.27,36.08-102.6,72.08-153.69,108.41-18.43,13.11-23.38,27.86-17.17,46.86,5.47,16.71,21.04,26.83,41.63,26.96,146.98.93,293.98-1.58,436.37,2.3Z"/>
  <path class="cls-2" d="M520.26,279.39c-142.39-3.88-289.39-1.36-436.37-2.3-20.59-.13-36.17-10.25-41.63-26.96-6.22-19-1.27-33.75,17.17-46.86,51.09-36.34,102.42-72.33,153.69-108.41,17.92-12.62,35.81-25.29,53.93-37.61,36.53-24.84,71.31-25.02,107.48-.04,71.21,49.19,142.21,98.69,213.28,148.09,16.46,11.44,23.15,28.06,18.23,45.01-5.02,17.31-20.14,28.22-40.27,29.07-.76.03-1.52.01-2.27.01-12.89,0-25.77,0-43.24,0ZM351.82,111.09c-8.86-1.06-14.84,3.92-18.06,11.01-3.25,7.14-2.74,14.94,3.92,20.79,3.96,3.48,8.35,6.5,12.18,10.11,2.57,2.42,7.95,3.79,6.49,8.15-1.16,3.46-5.97,2.35-9.26,2.57-35.85,2.45-71.7,4.79-107.55,7.24-14.33.98-28.68,1.81-42.94,3.36-8.11.89-14.09,5.66-16.25,13.83-1.98,7.47-.32,14.41,5.46,19.77,5.74,5.32,12.9,5.47,20.28,4.94,30.93-2.24,61.87-4.28,92.8-6.43,33.96-2.36,67.95-4.43,101.86-7.42,7.84-.69,13.6.73,19.77,5.42,15.64,11.91,31.77,23.2,47.78,34.63,7.37,5.26,14.86,4.77,22.2-.22,7.17-4.88,8.91-12.02,7.6-19.98-1.21-7.34-7.08-11.55-12.51-15.53-39.97-29.29-80.08-58.38-120.14-87.53-4.05-2.95-8.29-5.37-13.62-4.73Z"/>
  <path class="cls-3" d="M351.82,111.09c5.33-.64,9.57,1.78,13.62,4.73,40.06,29.15,80.17,58.25,120.14,87.53,5.43,3.98,11.3,8.19,12.51,15.53,1.32,7.96-.43,15.1-7.6,19.98-7.34,4.99-14.84,5.48-22.2.22-16.01-11.43-32.13-22.72-47.78-34.63-6.16-4.69-11.93-6.11-19.77-5.42-33.91,2.99-67.89,5.06-101.86,7.42-30.93,2.15-61.87,4.19-92.8,6.43-7.39.53-14.54.38-20.28-4.94-5.79-5.36-7.44-12.29-5.46-19.77,2.17-8.17,8.15-12.95,16.25-13.83,14.27-1.56,28.62-2.39,42.94-3.36,35.85-2.45,71.7-4.79,107.55-7.24,3.29-.23,8.1.89,9.26-2.57,1.46-4.36-3.93-5.73-6.49-8.15-3.83-3.61-8.21-6.63-12.18-10.11-6.66-5.85-7.17-13.65-3.92-20.79,3.22-7.09,9.21-12.07,18.06-11.01Z"/>
</svg>