<?xml version="1.0" encoding="UTF-8"?>
<!DOCTYPE svg PUBLIC "-//W3C//DTD SVG 1.1//EN" "http://www.w3.org/Graphics/SVG/1.1/DTD/svg11.dtd">
<svg xmlns="http://www.w3.org/2000/svg" version="1.1" width="512px" height="512px" style="shape-rendering:geometricPrecision; text-rendering:geometricPrecision; image-rendering:optimizeQuality; fill-rule:evenodd; clip-rule:evenodd" xmlns:xlink="http://www.w3.org/1999/xlink">
<g><path style="opacity:0.983" fill="#b3e5a0" d="M 237.5,18.5 C 220.676,39.1468 208.842,62.4801 202,88.5C 177.07,70.5762 149.237,60.2429 118.5,57.5C 149.021,25.931 186.355,12.431 230.5,17C 232.92,17.2904 235.254,17.7904 237.5,18.5 Z"/></g>
<g><path style="opacity:1" fill="#96d7a4" d="M 237.5,18.5 C 243.455,19.0735 249.122,20.4068 254.5,22.5C 233.047,46.414 219.881,74.414 215,106.5C 214.5,115.16 214.334,123.827 214.5,132.5C 249.465,146.376 274.299,170.709 289,205.5C 290.145,208.432 290.978,211.432 291.5,214.5C 288.927,217.66 285.594,219.827 281.5,221C 255.301,231.077 228.467,233.244 201,227.5C 200.235,227.57 199.735,227.903 199.5,228.5C 190.816,224.088 181.816,220.754 172.5,218.5C 140.065,201.169 117.398,174.669 104.5,139C 96.5947,142.051 89.428,146.551 83,152.5C 82.5045,154.473 82.3379,156.473 82.5,158.5C 79.9862,131.41 85.6529,106.077 99.5,82.5C 98.5009,92.481 98.3343,102.481 99,112.5C 100.082,121.165 102.249,129.498 105.5,137.5C 135.089,122.322 166.089,118.655 198.5,126.5C 199.307,119.846 199.474,113.18 199,106.5C 172.039,83.9 140.872,72.9 105.5,73.5C 108.877,67.4245 113.211,62.0912 118.5,57.5C 149.237,60.2429 177.07,70.5762 202,88.5C 208.842,62.4801 220.676,39.1468 237.5,18.5 Z"/></g>
<g><path style="opacity:0.993" fill="#b3e5a0" d="M 254.5,22.5 C 307.015,41.1957 337.515,78.1957 346,133.5C 346.787,144.213 346.62,154.88 345.5,165.5C 338.879,176.305 330.879,186.138 321.5,195C 313.393,199.301 305.726,204.134 298.5,209.5C 296.343,211.412 294.009,213.079 291.5,214.5C 290.978,211.432 290.145,208.432 289,205.5C 274.299,170.709 249.465,146.376 214.5,132.5C 214.334,123.827 214.5,115.16 215,106.5C 219.881,74.414 233.047,46.414 254.5,22.5 Z"/></g>
<g><path style="opacity:0.998" fill="#b3e5a0" d="M 105.5,73.5 C 140.872,72.9 172.039,83.9 199,106.5C 199.474,113.18 199.307,119.846 198.5,126.5C 166.089,118.655 135.089,122.322 105.5,137.5C 102.249,129.498 100.082,121.165 99,112.5C 98.3343,102.481 98.5009,92.481 99.5,82.5C 100.769,78.9464 102.769,75.9464 105.5,73.5 Z"/></g>
<g><path style="opacity:1" fill="#78c3a4" d="M 172.5,218.5 C 148.751,213.042 125.085,213.375 101.5,219.5C 90.1436,200.762 83.8102,180.429 82.5,158.5C 82.3379,156.473 82.5045,154.473 83,152.5C 89.428,146.551 96.5947,142.051 104.5,139C 117.398,174.669 140.065,201.169 172.5,218.5 Z"/></g>
<g><path style="opacity:1" fill="#96d7a4" d="M 345.5,165.5 C 345.089,172.06 343.755,178.393 341.5,184.5C 340.297,185.943 339.797,187.609 340,189.5C 374.738,214.969 393.238,249.302 395.5,292.5C 402.079,290.689 408.746,289.189 415.5,288C 427.024,261.279 430.524,233.446 426,204.5C 425.145,199.748 423.979,195.081 422.5,190.5C 422.957,189.702 423.624,189.369 424.5,189.5C 430.371,190.772 435.704,193.106 440.5,196.5C 446.301,226.505 443.967,255.838 433.5,284.5C 460.439,284.988 486.439,289.988 511.5,299.5C 511.5,305.5 511.5,311.5 511.5,317.5C 474.038,299.678 435.371,296.678 395.5,308.5C 391.333,348.914 372.999,380.914 340.5,404.5C 310.769,387.594 290.269,362.927 279,330.5C 278.536,331.094 278.369,331.761 278.5,332.5C 276.682,324.901 274.682,317.234 272.5,309.5C 268.337,272.817 277.004,239.483 298.5,209.5C 305.726,204.134 313.393,199.301 321.5,195C 330.879,186.138 338.879,176.305 345.5,165.5 Z"/></g>
<g><path style="opacity:0.992" fill="#b3e5a0" d="M 424.5,189.5 C 423.624,189.369 422.957,189.702 422.5,190.5C 423.979,195.081 425.145,199.748 426,204.5C 430.524,233.446 427.024,261.279 415.5,288C 408.746,289.189 402.079,290.689 395.5,292.5C 393.238,249.302 374.738,214.969 340,189.5C 339.797,187.609 340.297,185.943 341.5,184.5C 341.47,185.497 341.97,186.164 343,186.5C 359.858,181.82 377.025,180.32 394.5,182C 404.93,183.274 414.93,185.774 424.5,189.5 Z"/></g>
<g><path style="opacity:0.981" fill="#b3e5a0" d="M 440.5,196.5 C 480.894,218.254 504.56,251.921 511.5,297.5C 511.5,298.167 511.5,298.833 511.5,299.5C 486.439,289.988 460.439,284.988 433.5,284.5C 443.967,255.838 446.301,226.505 440.5,196.5 Z"/></g>
<g><path style="opacity:1" fill="#78c3a4" d="M 298.5,209.5 C 277.004,239.483 268.337,272.817 272.5,309.5C 266.059,290.605 256.059,273.938 242.5,259.5C 238.129,254.127 233.129,249.461 227.5,245.5C 219.138,238.315 209.804,232.648 199.5,228.5C 199.735,227.903 200.235,227.57 201,227.5C 228.467,233.244 255.301,231.077 281.5,221C 285.594,219.827 288.927,217.66 291.5,214.5C 294.009,213.079 296.343,211.412 298.5,209.5 Z"/></g>
<g><path style="opacity:0.999" fill="#b3e5a0" d="M 172.5,218.5 C 181.816,220.754 190.816,224.088 199.5,228.5C 209.804,232.648 219.138,238.315 227.5,245.5C 201.833,256.68 179.167,272.346 159.5,292.5C 144.876,263.215 124.209,239.215 97.5,220.5C 98.8333,220.167 100.167,219.833 101.5,219.5C 125.085,213.375 148.751,213.042 172.5,218.5 Z"/></g>
<g><path style="opacity:1" fill="#96d7a4" d="M 97.5,220.5 C 124.209,239.215 144.876,263.215 159.5,292.5C 179.167,272.346 201.833,256.68 227.5,245.5C 233.129,249.461 238.129,254.127 242.5,259.5C 200.594,272.229 169.761,298.229 150,337.5C 149.333,338.833 149.333,340.167 150,341.5C 177.91,377.481 187.077,417.815 177.5,462.5C 205.169,460.943 230.502,452.61 253.5,437.5C 231.767,467.722 202.434,486.389 165.5,493.5C 170.552,483.679 174.219,473.346 176.5,462.5C 114.794,461.244 70.627,432.911 44,377.5C 31.9233,348.978 29.4233,319.644 36.5,289.5C 74.4036,288.742 107.404,300.908 135.5,326C 136.332,326.688 136.998,326.521 137.5,325.5C 140.714,319.569 144.047,313.736 147.5,308C 133.571,273.574 110.571,247.074 78.5,228.5C 84.5989,225.461 90.9322,222.795 97.5,220.5 Z"/></g>
<g><path style="opacity:0.997" fill="#b3e5a0" d="M 78.5,228.5 C 110.571,247.074 133.571,273.574 147.5,308C 144.047,313.736 140.714,319.569 137.5,325.5C 136.998,326.521 136.332,326.688 135.5,326C 107.404,300.908 74.4036,288.742 36.5,289.5C 40.7903,272.258 47.7903,256.258 57.5,241.5C 63.7026,235.981 70.7026,231.648 78.5,228.5 Z"/></g>
<g><path style="opacity:0.992" fill="#97d7a4" d="M 57.5,241.5 C 47.7903,256.258 40.7903,272.258 36.5,289.5C 29.0882,289.395 21.7549,290.062 14.5,291.5C 22.2817,275.868 32.615,262.035 45.5,250C 49.12,246.533 53.12,243.7 57.5,241.5 Z"/></g>
<g><path style="opacity:0.998" fill="#b3e5a0" d="M 242.5,259.5 C 256.059,273.938 266.059,290.605 272.5,309.5C 274.682,317.234 276.682,324.901 278.5,332.5C 281.608,353.762 280.275,374.762 274.5,395.5C 270.106,410.954 263.106,424.954 253.5,437.5C 230.502,452.61 205.169,460.943 177.5,462.5C 187.077,417.815 177.91,377.481 150,341.5C 149.333,340.167 149.333,338.833 150,337.5C 169.761,298.229 200.594,272.229 242.5,259.5 Z"/></g>
<g><path style="opacity:1" fill="#78c3a4" d="M 36.5,289.5 C 29.4233,319.644 31.9233,348.978 44,377.5C 70.627,432.911 114.794,461.244 176.5,462.5C 174.219,473.346 170.552,483.679 165.5,493.5C 101.028,502.175 51.5278,479.175 17,424.5C 7.91204,407.778 2.0787,390.111 -0.5,371.5C -0.5,360.167 -0.5,348.833 -0.5,337.5C 2.03274,321.372 7.03274,306.038 14.5,291.5C 21.7549,290.062 29.0882,289.395 36.5,289.5 Z"/></g>
<g><path style="opacity:0.996" fill="#b3e5a0" d="M 511.5,317.5 C 511.5,321.5 511.5,325.5 511.5,329.5C 508.15,353.558 499.15,375.225 484.5,394.5C 447.58,420.662 407.247,427.495 363.5,415C 355.812,411.821 348.145,408.654 340.5,405.5C 340.5,405.167 340.5,404.833 340.5,404.5C 372.999,380.914 391.333,348.914 395.5,308.5C 435.371,296.678 474.038,299.678 511.5,317.5 Z"/></g>
<g><path style="opacity:1" fill="#78c3a4" d="M 340.5,404.5 C 340.5,404.833 340.5,405.167 340.5,405.5C 329.019,412.574 317.019,418.574 304.5,423.5C 293.492,415.155 283.492,405.822 274.5,395.5C 280.275,374.762 281.608,353.762 278.5,332.5C 278.369,331.761 278.536,331.094 279,330.5C 290.269,362.927 310.769,387.594 340.5,404.5 Z"/></g>
<g><path style="opacity:0.999" fill="#96d7a4" d="M 484.5,394.5 C 457.741,428.045 422.741,445.379 379.5,446.5C 352.144,446.268 327.144,438.602 304.5,423.5C 317.019,418.574 329.019,412.574 340.5,405.5C 348.145,408.654 355.812,411.821 363.5,415C 407.247,427.495 447.58,420.662 484.5,394.5 Z"/></g>
</svg>
