<?xml version="1.0" encoding="UTF-8"?>
<!DOCTYPE svg PUBLIC "-//W3C//DTD SVG 1.1//EN" "http://www.w3.org/Graphics/SVG/1.1/DTD/svg11.dtd">
<svg xmlns="http://www.w3.org/2000/svg" version="1.1" width="512px" height="512px" style="shape-rendering:geometricPrecision; text-rendering:geometricPrecision; image-rendering:optimizeQuality; fill-rule:evenodd; clip-rule:evenodd" xmlns:xlink="http://www.w3.org/1999/xlink">
<g><path style="opacity:0.98" fill="#029531" d="M 337.5,55.5 C 342.964,63.9563 344.964,73.2896 343.5,83.5C 335.563,90.2637 327.73,97.2637 320,104.5C 319.79,106.058 319.29,107.391 318.5,108.5C 318.667,97.1618 318.5,85.8284 318,74.5C 313.587,66.005 308.92,57.6717 304,49.5C 302.154,40.3912 303.821,32.0579 309,24.5C 310.049,23.4829 311.216,23.3162 312.5,24C 321.047,34.3749 329.381,44.8749 337.5,55.5 Z"/></g>
<g><path style="opacity:0.969" fill="#027d29" d="M 367.5,71.5 C 358.167,72.8333 350.167,76.8333 343.5,83.5C 344.964,73.2896 342.964,63.9563 337.5,55.5C 340.148,55.7385 341.982,57.0718 343,59.5C 350.105,44.5599 360.605,32.5599 374.5,23.5C 375.664,30.4763 375.831,37.4763 375,44.5C 373.272,53.7507 370.772,62.7507 367.5,71.5 Z"/></g>
<g><path style="opacity:0.978" fill="#01a336" d="M 367.5,71.5 C 381.504,71.3334 395.504,71.5001 409.5,72C 407.929,82.4651 402.263,89.7984 392.5,94C 384.865,95.1645 377.198,96.1645 369.5,97C 367.913,97.8624 366.246,98.5291 364.5,99C 355.337,106 346.337,113.167 337.5,120.5C 330.887,122.775 325.221,121.442 320.5,116.5C 319.226,114.007 318.56,111.341 318.5,108.5C 319.29,107.391 319.79,106.058 320,104.5C 327.73,97.2637 335.563,90.2637 343.5,83.5C 350.167,76.8333 358.167,72.8333 367.5,71.5 Z"/></g>
<g><path style="opacity:0.98" fill="#029531" d="M 310.5,151.5 C 311.288,159.809 311.621,168.142 311.5,176.5C 305.712,179.558 299.712,182.392 293.5,185C 289.568,187.424 287.568,190.924 287.5,195.5C 287.167,195.5 286.833,195.5 286.5,195.5C 286.667,184.495 286.5,173.495 286,162.5C 281.587,154.005 276.92,145.672 272,137.5C 270.666,129.8 271.666,122.467 275,115.5C 276.508,111.326 278.841,110.659 282,113.5C 290,123.5 298,133.5 306,143.5C 307.795,146.099 309.295,148.766 310.5,151.5 Z"/></g>
<g><path style="opacity:0.959" fill="#027d29" d="M 320.5,116.5 C 325.221,121.442 330.887,122.775 337.5,120.5C 336.518,123.763 335.851,127.097 335.5,130.5C 345.996,127.138 350.829,130.804 350,141.5C 349.167,143.667 347.667,145.167 345.5,146C 339.556,147.148 333.889,148.982 328.5,151.5C 325.631,158.111 322.964,164.778 320.5,171.5C 319.833,171.5 319.5,171.833 319.5,172.5C 317.112,174.361 314.446,175.694 311.5,176.5C 311.621,168.142 311.288,159.809 310.5,151.5C 314.609,140.064 317.943,128.397 320.5,116.5 Z"/></g>
<g><path style="opacity:0.975" fill="#02a436" d="M 298.5,207.5 C 291.365,206.697 287.698,202.697 287.5,195.5C 287.568,190.924 289.568,187.424 293.5,185C 299.712,182.392 305.712,179.558 311.5,176.5C 314.446,175.694 317.112,174.361 319.5,172.5C 320.167,172.5 320.5,172.167 320.5,171.5C 328.067,167.758 336.067,166.591 344.5,168C 357.833,171.233 371.166,174.399 384.5,177.5C 380.644,189.604 372.31,195.604 359.5,195.5C 352.911,195.082 346.411,194.082 340,192.5C 327.712,196.153 315.878,200.987 304.5,207C 302.527,207.495 300.527,207.662 298.5,207.5 Z"/></g>
<g><path style="opacity:0.962" fill="#027d29" d="M 286.5,195.5 C 286.833,195.5 287.167,195.5 287.5,195.5C 287.698,202.697 291.365,206.697 298.5,207.5C 295.557,212.536 292.223,217.37 288.5,222C 293.297,222.158 297.797,223.324 302,225.5C 304,229.5 304,233.5 302,237.5C 301.25,238.126 300.416,238.626 299.5,239C 291.147,239.168 282.813,239.668 274.5,240.5C 269.64,247.559 265.306,254.892 261.5,262.5C 256.97,266.266 251.97,269.266 246.5,271.5C 246.407,265.484 246.074,259.484 245.5,253.5C 250.577,245.239 255.91,237.072 261.5,229C 259.44,223.601 257.607,218.101 256,212.5C 253.822,200.838 258.322,197.005 269.5,201C 271.681,204.546 273.181,208.38 274,212.5C 278.384,206.956 282.551,201.289 286.5,195.5 Z"/></g>
<g><path style="opacity:0.982" fill="#029532" d="M 245.5,253.5 C 246.074,259.484 246.407,265.484 246.5,271.5C 241.395,274.892 236.062,278.059 230.5,281C 225.393,285.808 224.06,291.642 226.5,298.5C 224.933,297.319 224.099,295.653 224,293.5C 223.206,281.761 221.872,270.094 220,258.5C 214.277,251.109 208.944,243.443 204,235.5C 201.081,226.141 202.581,217.641 208.5,210C 209.167,209.333 209.833,209.333 210.5,210C 219.636,220.137 229.136,229.97 239,239.5C 242.519,243.537 244.685,248.204 245.5,253.5 Z"/></g>
<g><path style="opacity:0.974" fill="#01a336" d="M 243.5,301.5 C 237.41,304.53 231.743,303.864 226.5,299.5C 226.5,299.167 226.5,298.833 226.5,298.5C 224.06,291.642 225.393,285.808 230.5,281C 236.062,278.059 241.395,274.892 246.5,271.5C 251.97,269.266 256.97,266.266 261.5,262.5C 265.497,260.933 269.663,259.933 274,259.5C 289.169,261.889 304.335,264.223 319.5,266.5C 316.137,279.868 307.47,286.534 293.5,286.5C 286.836,285.777 280.17,285.611 273.5,286C 263.321,290.922 253.321,296.089 243.5,301.5 Z"/></g>
<g><path style="opacity:0.961" fill="#027d29" d="M 226.5,299.5 C 231.743,303.864 237.41,304.53 243.5,301.5C 241.664,308.168 240.164,314.835 239,321.5C 243.389,319.051 247.889,318.884 252.5,321C 254.429,324.256 254.929,327.756 254,331.5C 252.891,333.815 251.057,335.315 248.5,336C 243.905,337.802 239.238,339.302 234.5,340.5C 233.906,346.51 233.24,352.51 232.5,358.5C 230.281,363.709 227.281,368.376 223.5,372.5C 219.545,368.26 216.878,363.26 215.5,357.5C 216.598,350.193 217.098,342.86 217,335.5C 213.667,332.167 210.333,328.833 207,325.5C 203.003,314.964 206.503,310.464 217.5,312C 219.286,312.785 220.786,313.951 222,315.5C 223.504,310.148 225.004,304.815 226.5,299.5 Z"/></g>
<g><path style="opacity:0.98" fill="#029532" d="M 215.5,357.5 C 216.878,363.26 219.545,368.26 223.5,372.5C 219.344,378.805 215.177,385.138 211,391.5C 210.242,395.357 210.742,399.023 212.5,402.5C 206.523,393.897 201.023,384.897 196,375.5C 189.545,369.352 182.045,364.852 173.5,362C 162.678,354.494 159.345,344.661 163.5,332.5C 176.794,337.765 190.127,342.931 203.5,348C 207.95,350.619 211.95,353.786 215.5,357.5 Z"/></g>
<g><path style="opacity:0.976" fill="#02a436" d="M 231.5,403.5 C 226.635,407.814 221.301,408.481 215.5,405.5C 213.5,405.5 212.5,404.5 212.5,402.5C 210.742,399.023 210.242,395.357 211,391.5C 215.177,385.138 219.344,378.805 223.5,372.5C 227.281,368.376 230.281,363.709 232.5,358.5C 235.335,355.835 238.335,353.335 241.5,351C 256.476,346.397 271.476,341.897 286.5,337.5C 289.222,349.836 285.222,359.336 274.5,366C 267.674,368.275 261.007,370.942 254.5,374C 252.333,376.167 250.167,378.333 248,380.5C 242.969,388.586 237.469,396.253 231.5,403.5 Z"/></g>
<g><path style="opacity:0.976" fill="#017d2a" d="M 231.5,403.5 C 231.334,413.839 231.5,424.172 232,434.5C 236.415,430.949 241.082,430.616 246,433.5C 248,437.5 248,441.5 246,445.5C 241.333,450.167 236.667,454.833 232,459.5C 231.667,470.167 231.333,480.833 231,491.5C 230.5,493.333 229.333,494.5 227.5,495C 223.756,495.929 220.256,495.429 217,493.5C 215.71,482.263 215.043,470.93 215,459.5C 209.633,454.468 204.633,449.135 200,443.5C 197.833,433.667 201.667,429.833 211.5,432C 212.931,432.465 214.097,433.299 215,434.5C 215.5,424.839 215.666,415.172 215.5,405.5C 221.301,408.481 226.635,407.814 231.5,403.5 Z"/></g>
</svg>
