<?xml version="1.0" encoding="UTF-8"?>
<!DOCTYPE svg PUBLIC "-//W3C//DTD SVG 1.1//EN" "http://www.w3.org/Graphics/SVG/1.1/DTD/svg11.dtd">
<svg xmlns="http://www.w3.org/2000/svg" version="1.1" width="512px" height="512px" style="shape-rendering:geometricPrecision; text-rendering:geometricPrecision; image-rendering:optimizeQuality; fill-rule:evenodd; clip-rule:evenodd" xmlns:xlink="http://www.w3.org/1999/xlink">
<g><path style="opacity:1" fill="#06b27b" d="M 201.5,-0.5 C 207.167,-0.5 212.833,-0.5 218.5,-0.5C 221.428,0.816668 224.428,2.15 227.5,3.5C 215.166,11.8356 209.5,23.5022 210.5,38.5C 192.966,41.0336 182.633,51.0336 179.5,68.5C 177.901,68.2322 176.568,68.5655 175.5,69.5C 171.553,71.2791 170.053,74.2791 171,78.5C 175.64,85.3066 180.473,91.9732 185.5,98.5C 180.859,105.094 178.859,112.427 179.5,120.5C 173.499,121.323 170.665,124.656 171,130.5C 174.972,136.638 179.138,142.638 183.5,148.5C 174.749,170.41 180.916,186.743 202,197.5C 202.5,207.828 202.666,218.161 202.5,228.5C 202.167,228.5 201.833,228.5 201.5,228.5C 197.07,220.631 192.403,212.964 187.5,205.5C 187.087,202.585 185.421,200.752 182.5,200C 160.091,199.087 147.425,187.587 144.5,165.5C 144.492,160.536 145.492,155.869 147.5,151.5C 148.974,147.891 150.974,144.557 153.5,141.5C 141.5,126.167 141.5,110.833 153.5,95.5C 141.906,80.4331 141.573,65.0998 152.5,49.5C 158.572,42.6293 166.238,38.6293 175.5,37.5C 174.768,18.2702 183.435,5.60351 201.5,-0.5 Z"/></g>
<g><path style="opacity:0.997" fill="#00c184" d="M 227.5,3.5 C 240.152,11.4709 245.819,22.8043 244.5,37.5C 253.762,38.6293 261.428,42.6293 267.5,49.5C 274.106,58.4535 276.44,68.4535 274.5,79.5C 273.247,85.3355 270.914,90.6688 267.5,95.5C 278.48,111.104 278.146,126.437 266.5,141.5C 269.255,144.917 271.588,148.583 273.5,152.5C 278.595,181.782 266.262,197.615 236.5,200C 234.412,201.3 233.079,203.133 232.5,205.5C 227.774,212.905 223.441,220.572 219.5,228.5C 218.833,228.5 218.167,228.5 217.5,228.5C 217.333,209.83 217.5,191.164 218,172.5C 227,160.833 236,149.167 245,137.5C 247.054,134.726 248.554,131.726 249.5,128.5C 248.031,121.785 244.031,119.785 237.5,122.5C 230.809,130.69 224.309,139.023 218,147.5C 217.333,138.5 217.333,129.5 218,120.5C 228.333,106.833 238.667,93.1667 249,79.5C 249.547,69.5304 245.381,66.6971 236.5,71C 230.333,79.1667 224.167,87.3333 218,95.5C 217.667,80.8333 217.333,66.1667 217,51.5C 211.833,45.9077 207.167,46.241 203,52.5C 202.667,66.8333 202.333,81.1667 202,95.5C 195.5,87 189,78.5 182.5,70C 180.19,69.5034 177.857,69.3367 175.5,69.5C 176.568,68.5655 177.901,68.2322 179.5,68.5C 182.633,51.0336 192.966,41.0336 210.5,38.5C 209.5,23.5022 215.166,11.8356 227.5,3.5 Z"/></g>
<g><path style="opacity:1" fill="#0dd290" d="M 102.5,28.5 C 102.414,29.4959 102.748,30.3292 103.5,31C 92.0893,41.3917 88.756,53.8917 93.5,68.5C 86.9115,68.6566 84.4115,71.99 86,78.5C 87.7653,81.0321 89.2653,83.6987 90.5,86.5C 84.3772,94.0598 82.2105,102.726 84,112.5C 87.1775,125.505 95.0108,134.172 107.5,138.5C 104.859,157.898 112.526,171.231 130.5,178.5C 128.496,193.504 133.163,205.837 144.5,215.5C 136.948,218.347 129.115,220.347 121,221.5C 96.6492,218.144 84.9825,204.144 86,179.5C 68.9679,171.425 61.3013,158.091 63,139.5C 43.5157,129.865 36.5157,114.532 42,93.5C 44.6076,87.2844 48.4409,81.9511 53.5,77.5C 43.0426,57.504 46.7092,40.6707 64.5,27C 77.4932,20.6404 90.1599,21.1404 102.5,28.5 Z"/></g>
<g><path style="opacity:1" fill="#0dd290" d="M 372.5,60.5 C 357.158,45.833 340.825,44.6664 323.5,57C 320.148,60.749 316.814,64.4157 313.5,68C 308.886,67.5207 304.219,67.0207 299.5,66.5C 288.628,66.4322 280.294,70.7655 274.5,79.5C 276.44,68.4535 274.106,58.4535 267.5,49.5C 278.625,40.4242 291.125,38.0909 305,42.5C 317.445,23.2416 334.279,18.0749 355.5,27C 367.667,34.8339 373.334,46.0006 372.5,60.5 Z"/></g>
<g><path style="opacity:0.997" fill="#05e29b" d="M 102.5,28.5 C 107.575,32.571 111.908,37.2377 115.5,42.5C 129.23,38.0338 141.563,40.3672 152.5,49.5C 141.573,65.0998 141.906,80.4331 153.5,95.5C 141.5,110.833 141.5,126.167 153.5,141.5C 150.974,144.557 148.974,147.891 147.5,151.5C 146.883,151.611 146.383,151.944 146,152.5C 130.297,124.145 113.797,96.3115 96.5,69C 95.552,68.5172 94.552,68.3505 93.5,68.5C 88.756,53.8917 92.0893,41.3917 103.5,31C 102.748,30.3292 102.414,29.4959 102.5,28.5 Z"/></g>
<g><path style="opacity:1" fill="#0bcf8d" d="M 217.5,228.5 C 212.5,228.5 207.5,228.5 202.5,228.5C 202.666,218.161 202.5,207.828 202,197.5C 180.916,186.743 174.749,170.41 183.5,148.5C 179.138,142.638 174.972,136.638 171,130.5C 170.665,124.656 173.499,121.323 179.5,120.5C 178.859,112.427 180.859,105.094 185.5,98.5C 180.473,91.9732 175.64,85.3066 171,78.5C 170.053,74.2791 171.553,71.2791 175.5,69.5C 177.857,69.3367 180.19,69.5034 182.5,70C 189,78.5 195.5,87 202,95.5C 202.333,81.1667 202.667,66.8333 203,52.5C 207.167,46.241 211.833,45.9077 217,51.5C 217.333,66.1667 217.667,80.8333 218,95.5C 224.167,87.3333 230.333,79.1667 236.5,71C 245.381,66.6971 249.547,69.5304 249,79.5C 238.667,93.1667 228.333,106.833 218,120.5C 217.333,129.5 217.333,138.5 218,147.5C 224.309,139.023 230.809,130.69 237.5,122.5C 244.031,119.785 248.031,121.785 249.5,128.5C 248.554,131.726 247.054,134.726 245,137.5C 236,149.167 227,160.833 218,172.5C 217.5,191.164 217.333,209.83 217.5,228.5 Z"/></g>
<g><path style="opacity:0.997" fill="#06e29b" d="M 372.5,60.5 C 371.912,66.674 369.912,72.3407 366.5,77.5C 383.228,93.8825 384.728,111.549 371,130.5C 366.843,134.248 362.176,137.248 357,139.5C 359.064,156.593 352.564,169.259 337.5,177.5C 336.292,178.234 334.959,178.567 333.5,178.5C 334.286,187.213 332.952,195.547 329.5,203.5C 324.894,209.647 319.228,214.647 312.5,218.5C 308.864,219.326 305.197,219.992 301.5,220.5C 293.18,220.948 285.514,218.948 278.5,214.5C 276.801,214.34 275.134,214.506 273.5,215C 264.94,220.111 256.274,224.944 247.5,229.5C 276.31,179.221 305.143,128.888 334,78.5C 335.291,70.212 331.791,67.0454 323.5,69C 322.667,69.8333 321.833,70.6667 321,71.5C 305.303,98.6693 289.47,125.669 273.5,152.5C 271.588,148.583 269.255,144.917 266.5,141.5C 278.146,126.437 278.48,111.104 267.5,95.5C 270.914,90.6688 273.247,85.3355 274.5,79.5C 280.294,70.7655 288.628,66.4322 299.5,66.5C 304.219,67.0207 308.886,67.5207 313.5,68C 316.814,64.4157 320.148,60.749 323.5,57C 340.825,44.6664 357.158,45.833 372.5,60.5 Z"/></g>
<g><path style="opacity:0.999" fill="#00c486" d="M 93.5,68.5 C 94.552,68.3505 95.552,68.5172 96.5,69C 113.797,96.3115 130.297,124.145 146,152.5C 146.383,151.944 146.883,151.611 147.5,151.5C 145.492,155.869 144.492,160.536 144.5,165.5C 147.425,187.587 160.091,199.087 182.5,200C 185.421,200.752 187.087,202.585 187.5,205.5C 187.334,211.509 187.501,217.509 188,223.5C 188.847,225.193 189.68,226.86 190.5,228.5C 184.409,228.211 178.409,228.545 172.5,229.5C 145.431,181.698 118.098,134.031 90.5,86.5C 89.2653,83.6987 87.7653,81.0321 86,78.5C 84.4115,71.99 86.9115,68.6566 93.5,68.5 Z"/></g>
<g><path style="opacity:0.999" fill="#0dd390" d="M 247.5,229.5 C 241.559,228.587 235.559,228.254 229.5,228.5C 230.072,227.027 230.905,225.693 232,224.5C 232.5,218.175 232.666,211.842 232.5,205.5C 233.079,203.133 234.412,201.3 236.5,200C 266.262,197.615 278.595,181.782 273.5,152.5C 289.47,125.669 305.303,98.6693 321,71.5C 321.833,70.6667 322.667,69.8333 323.5,69C 331.791,67.0454 335.291,70.212 334,78.5C 305.143,128.888 276.31,179.221 247.5,229.5 Z"/></g>
<g><path style="opacity:0.996" fill="#05e29b" d="M 90.5,86.5 C 118.098,134.031 145.431,181.698 172.5,229.5C 171.5,229.5 170.5,229.5 169.5,229.5C 163.066,225.108 156.399,220.941 149.5,217C 147.975,215.991 146.308,215.491 144.5,215.5C 133.163,205.837 128.496,193.504 130.5,178.5C 112.526,171.231 104.859,157.898 107.5,138.5C 95.0108,134.172 87.1775,125.505 84,112.5C 82.2105,102.726 84.3772,94.0598 90.5,86.5 Z"/></g>
<g><path style="opacity:0.991" fill="#df3c9b" d="M 337.5,177.5 C 376.724,186.559 402.891,210.225 416,248.5C 422.621,271.923 421.454,294.923 412.5,317.5C 404.004,314.543 395.337,312.209 386.5,310.5C 400.288,273.812 392.288,242.979 362.5,218C 352.216,211.303 341.216,206.47 329.5,203.5C 332.952,195.547 334.286,187.213 333.5,178.5C 334.959,178.567 336.292,178.234 337.5,177.5 Z"/></g>
<g><path style="opacity:0.994" fill="#98246a" d="M 329.5,203.5 C 341.216,206.47 352.216,211.303 362.5,218C 392.288,242.979 400.288,273.812 386.5,310.5C 395.337,312.209 404.004,314.543 412.5,317.5C 455.532,340.555 474.699,376.555 470,425.5C 459.868,473.132 431.035,501.799 383.5,511.5C 373.833,511.5 364.167,511.5 354.5,511.5C 307.781,502.116 279.115,474.116 268.5,427.5C 263.461,382.076 280.128,346.909 318.5,322C 324.503,318.748 330.669,315.914 337,313.5C 336.503,308.161 335.67,302.828 334.5,297.5C 343.811,288.797 345.978,278.463 341,266.5C 332.357,253.674 320.857,250.007 306.5,255.5C 302.375,252.547 298.375,249.381 294.5,246C 311.912,234.31 328.912,234.976 345.5,248C 361.114,265.316 362.614,283.816 350,303.5C 347.131,306.704 343.965,309.537 340.5,312C 349.984,309.922 359.651,308.588 369.5,308C 383.616,280.091 379.616,255.091 357.5,233C 344.345,222.671 329.345,217.838 312.5,218.5C 319.228,214.647 324.894,209.647 329.5,203.5 Z"/></g>
<g><path style="opacity:1" fill="#98246a" d="M 278.5,214.5 C 285.514,218.948 293.18,220.948 301.5,220.5C 291.636,223.771 282.97,229.104 275.5,236.5C 270.417,234.752 265.417,232.918 260.5,231C 266.096,224.897 272.096,219.397 278.5,214.5 Z"/></g>
<g><path style="opacity:0.999" fill="#c43287" d="M 278.5,214.5 C 272.096,219.397 266.096,224.897 260.5,231C 265.417,232.918 270.417,234.752 275.5,236.5C 282.97,229.104 291.636,223.771 301.5,220.5C 305.197,219.992 308.864,219.326 312.5,218.5C 329.345,217.838 344.345,222.671 357.5,233C 379.616,255.091 383.616,280.091 369.5,308C 359.651,308.588 349.984,309.922 340.5,312C 343.965,309.537 347.131,306.704 350,303.5C 362.614,283.816 361.114,265.316 345.5,248C 328.912,234.976 311.912,234.31 294.5,246C 298.375,249.381 302.375,252.547 306.5,255.5C 318.352,267.884 327.685,281.884 334.5,297.5C 335.67,302.828 336.503,308.161 337,313.5C 330.669,315.914 324.503,318.748 318.5,322C 280.128,346.909 263.461,382.076 268.5,427.5C 256.02,429.907 245.02,435.241 235.5,443.5C 233.598,433.893 230.764,424.56 227,415.5C 221.838,408.839 215.338,404.005 207.5,401C 157.003,389.176 128.17,357.676 121,306.5C 119.269,280.869 126.102,257.869 141.5,237.5C 150.221,233.042 159.554,230.375 169.5,229.5C 170.5,229.5 171.5,229.5 172.5,229.5C 178.409,228.545 184.409,228.211 190.5,228.5C 194.167,228.5 197.833,228.5 201.5,228.5C 201.833,228.5 202.167,228.5 202.5,228.5C 207.5,228.5 212.5,228.5 217.5,228.5C 218.167,228.5 218.833,228.5 219.5,228.5C 222.833,228.5 226.167,228.5 229.5,228.5C 235.559,228.254 241.559,228.587 247.5,229.5C 256.274,224.944 264.94,220.111 273.5,215C 275.134,214.506 276.801,214.34 278.5,214.5 Z"/></g>
<g><path style="opacity:1" fill="#98246a" d="M 141.5,237.5 C 126.102,257.869 119.269,280.869 121,306.5C 128.17,357.676 157.003,389.176 207.5,401C 215.338,404.005 221.838,408.839 227,415.5C 230.764,424.56 233.598,433.893 235.5,443.5C 234.836,445.487 233.669,447.154 232,448.5C 225.787,469.635 219.287,490.635 212.5,511.5C 210.833,511.5 209.167,511.5 207.5,511.5C 201.363,492.294 195.53,472.96 190,453.5C 185.859,444.025 179.026,437.192 169.5,433C 135.922,426.379 110.422,408.545 93,379.5C 72.075,334.458 78.2416,293.625 111.5,257C 120.363,248.736 130.363,242.236 141.5,237.5 Z"/></g>
<g><path style="opacity:1" fill="#de3c9b" d="M 334.5,297.5 C 327.685,281.884 318.352,267.884 306.5,255.5C 320.857,250.007 332.357,253.674 341,266.5C 345.978,278.463 343.811,288.797 334.5,297.5 Z"/></g>
<g><path style="opacity:1" fill="#df3c9b" d="M 361.5,335.5 C 404.277,335.124 431.444,355.458 443,396.5C 446.872,437.247 430.039,465.413 392.5,481C 355.573,490.695 326.406,479.861 305,448.5C 287.233,414.024 291.733,382.857 318.5,355C 330.949,344.105 345.282,337.605 361.5,335.5 Z"/></g>
<g><path style="opacity:1" fill="#c53287" d="M 359.5,350.5 C 395.153,348.396 417.986,364.396 428,398.5C 431.225,436.579 414.392,460.079 377.5,469C 352.682,471.671 333.182,462.838 319,442.5C 302.143,410.102 307.977,382.602 336.5,360C 343.824,355.661 351.49,352.494 359.5,350.5 Z"/></g>
<g><path style="opacity:1" fill="#df3c9b" d="M 363.5,369.5 C 394.497,369.995 409.664,385.662 409,416.5C 401.762,442.877 384.596,453.71 357.5,449C 335.427,439.689 326.261,423.189 330,399.5C 335.732,383.26 346.899,373.26 363.5,369.5 Z"/></g>
<g><path style="opacity:1" fill="#c53287" d="M 364.5,384.5 C 379.032,383.676 388.866,390.009 394,403.5C 395.687,425.48 385.52,435.98 363.5,435C 343.785,426.75 338.952,413.25 349,394.5C 353.315,389.654 358.482,386.321 364.5,384.5 Z"/></g>
</svg>
