<?xml version="1.0" encoding="UTF-8"?>
<svg id="Layer_1" xmlns="http://www.w3.org/2000/svg" width="559.43" height="756.72" viewBox="0 0 559.43 756.72">
  <defs>
    <style>
      .cls-1 {
        fill: #fc4c4b;
      }

      .cls-2 {
        fill: #76c505;
      }
    </style>
  </defs>
  <path class="cls-1" d="M559.31,569.84c2.35,44.66-30.56,122.22-60.05,153.07-58.36,42.12-133.77,44.62-195.55,4.9-12.48-8.02-20.81-7.46-32.78.03-58.34,36.54-119.38,38.4-178.97,5.57C32.35,700.57,1.4,647.69.55,579.11-.32,508.79.05,438.46.26,368.14c.38-129.04,108.06-210.82,232.11-176.53,3.97,1.1,8,1.99,12,2.97.26,14.75.33,29.5.87,44.24.2,5.43-2.21,12.65,4.12,15.55,6.55,3,10.54-3.47,13.78-7.61,19.23-24.55,44.43-40.81,72.36-53.47,29.87-10.26,60.7-10.87,91.77-9.21,34.29,9.07,66.65,21.68,91.78,48.29,6.62,7.01,21.46,22.51,33.21,46.01"/>
  <path class="cls-2" d="M247.17.4c47.12,4.2,85.14,46.04,86.68,96.11.99,32.25,1.13,64.52,1.65,96.79-27.93,12.66-53.13,28.92-72.36,53.47-3.24,4.14-7.23,10.6-13.78,7.61-6.32-2.89-3.91-10.11-4.12-15.55-.55-14.74-.62-29.49-.87-44.24.45-29.77,1.02-59.54,1.26-89.32.05-5.62.37-12.73-6.91-14.21-9.5-1.93-9.73,6.45-11.78,12.5-10.59,31.33-28.71,44.08-53.52,37.74-27.43-7.01-39.49-30.42-32.34-62.75C151.99,29.33,197.3-4.05,247.17.4"/>
</svg>