<?xml version="1.0" encoding="UTF-8"?>
<svg version="1.1" xmlns="http://www.w3.org/2000/svg" width="512" height="512">
<path d="M0 0 C0.729272 0.00137466 1.45854401 0.00274933 2.20991516 0.00416565 C4.58304745 0.01319506 6.95522114 0.04465092 9.328125 0.078125 C10.95759537 0.09205349 12.58707158 0.10531535 14.21655273 0.11791992 C19.00427988 0.16213246 23.7909986 0.24197263 28.578125 0.328125 C29.89635254 0.34891113 31.21458008 0.36969727 32.57275391 0.39111328 C35.92978194 0.45226546 39.28463224 0.53816 42.640625 0.640625 C44.10870605 0.67397949 44.10870605 0.67397949 45.60644531 0.70800781 C46.49557617 0.7437793 47.38470703 0.77955078 48.30078125 0.81640625 C49.06140869 0.84259033 49.82203613 0.86877441 50.60571289 0.89575195 C53.14461146 1.45230467 53.95501532 2.32035837 55.578125 4.328125 C55.9254303 6.22471619 55.9254303 6.22471619 55.88696289 8.39038086 C55.87693993 9.61457985 55.87693993 9.61457985 55.86671448 10.86351013 C55.84495651 11.74773148 55.82319855 12.63195282 55.80078125 13.54296875 C55.79179306 14.46791641 55.78280487 15.39286407 55.77354431 16.34584045 C55.74349778 19.31948047 55.69390491 22.29231684 55.640625 25.265625 C55.45150567 36.63084124 55.32225409 47.89804667 56.44140625 59.22265625 C56.5190773 60.01413559 56.59674835 60.80561493 56.67677307 61.62107849 C60.04352001 91.93675972 78.05359391 115.13722451 100.578125 134.328125 C106.50643076 139.53960947 112.21034595 144.87287866 117.66796875 150.578125 C119.55712882 152.54761868 119.55712882 152.54761868 122.578125 153.328125 C124.77162265 152.69913837 124.77162265 152.69913837 127.13671875 151.58984375 C128.06419922 151.18709229 128.99167969 150.78434082 129.94726562 150.36938477 C130.95982422 149.92264404 131.97238281 149.47590332 133.015625 149.015625 C149.90368014 141.81583328 166.9201114 135.32131709 184.65234375 130.53515625 C185.96575241 130.18037956 185.96575241 130.18037956 187.30569458 129.81843567 C191.62421243 128.65954659 195.94785867 127.52806783 200.28320312 126.43383789 C228.55472109 119.149975 252.48007538 103.84036881 267.66699219 78.38378906 C271.27322494 72.09922322 274.43034706 65.60561921 277.55859375 59.07421875 C277.9129248 58.33593842 278.26725586 57.59765808 278.63232422 56.83700562 C280.43727743 53.07084268 282.22731652 49.29862507 283.99462891 45.51464844 C284.66416073 44.10210579 285.33391077 42.68966654 286.00390625 41.27734375 C286.4550605 40.2939225 286.4550605 40.2939225 286.91532898 39.29063416 C288.60410132 35.75811579 289.95203214 33.01876559 293.578125 31.328125 C297.71608665 31.7613677 301.00576748 32.78572042 304.72558594 34.61303711 C305.69969421 35.08700424 306.67380249 35.56097137 307.6774292 36.04930115 C308.71200256 36.56283646 309.74657593 37.07637177 310.8125 37.60546875 C311.88687317 38.13201553 312.96124634 38.65856232 314.06817627 39.20106506 C316.33259568 40.3128682 318.59515366 41.42846953 320.85595703 42.54760742 C324.32531217 44.26423322 327.80076344 45.96798426 331.27734375 47.66992188 C333.47693272 48.75185183 335.6761641 49.83450913 337.875 50.91796875 C338.91767029 51.42947983 339.96034058 51.94099091 341.03460693 52.46800232 C341.99610657 52.94512161 342.9576062 53.42224091 343.94824219 53.91381836 C344.79618347 54.33271835 345.64412476 54.75161835 346.51776123 55.18321228 C348.578125 56.328125 348.578125 56.328125 350.578125 58.328125 C351.4605762 64.16053245 348.96809987 68.32919065 346.37890625 73.35546875 C345.94684372 74.2214418 345.51478119 75.08741486 345.06962585 75.97962952 C343.68784626 78.74743124 342.29096005 81.50717 340.890625 84.265625 C325.89066738 113.8625563 317.04097788 142.39566694 326.578125 175.328125 C328.53561336 181.17062242 330.9585087 186.82071215 333.37597656 192.484375 C345.01176351 220.00948595 354.74935937 247.98029004 360.578125 277.328125 C360.75601562 278.19856445 360.93390625 279.06900391 361.1171875 279.96582031 C363.4196714 291.63813451 363.87604345 303.27590623 363.953125 315.140625 C363.96517975 316.16979538 363.96517975 316.16979538 363.97747803 317.21975708 C364.28560124 351.83278292 348.3153037 381.05375414 324.578125 405.328125 C323.64601402 406.32056254 322.71503918 407.31406828 321.78515625 408.30859375 C309.85707392 420.87495451 295.95738402 430.45499516 280.578125 438.328125 C279.96114746 438.64620117 279.34416992 438.96427734 278.70849609 439.29199219 C242.80907047 457.5517585 200.6389878 461.85516471 161.578125 452.328125 C161.7225 452.93398438 161.866875 453.53984375 162.015625 454.1640625 C165.15574566 468.33821825 163.06148705 480.10867483 155.62890625 492.71875 C154.578125 494.328125 154.578125 494.328125 153.578125 495.328125 C143.81570142 495.328125 135.86553148 490.58996004 128.703125 484.140625 C123.03544853 477.98675079 118.95980463 469.72507687 118.578125 461.328125 C117.69060547 461.74384766 117.69060547 461.74384766 116.78515625 462.16796875 C115.99496094 462.53019531 115.20476562 462.89242188 114.390625 463.265625 C113.61332031 463.62527344 112.83601563 463.98492187 112.03515625 464.35546875 C102.431111 468.15738809 91.80516695 467.06910212 82.3203125 463.546875 C78.17441598 461.70425433 73.82421391 459.57421391 70.578125 456.328125 C69.79486841 448.10995589 74.73403868 441.01225998 79.6015625 434.70703125 C81.21472578 432.86012391 82.84972811 431.06702887 84.578125 429.328125 C78.7470748 430.97585661 72.94289561 432.70701333 67.140625 434.453125 C65.75713867 434.86884766 65.75713867 434.86884766 64.34570312 435.29296875 C62.08971692 435.97093352 59.83386115 436.64932881 57.578125 437.328125 C57.578125 440.16486533 58.884336 440.86924778 60.828125 442.890625 C68.27154191 451.16276241 69.7580216 459.70192321 69.765625 470.453125 C69.77787109 471.37222656 69.79011719 472.29132813 69.80273438 473.23828125 C69.80466797 474.11613281 69.80660156 474.99398438 69.80859375 475.8984375 C69.81270264 476.70039551 69.81681152 477.50235352 69.82104492 478.32861328 C69.578125 480.328125 69.578125 480.328125 67.578125 482.328125 C56.64361071 484.03367005 43.96009778 483.49786879 34.578125 477.328125 C31.0248824 474.52420567 27.75499262 471.54929157 24.578125 468.328125 C23.918125 467.668125 23.258125 467.008125 22.578125 466.328125 C21.959375 467.17375 21.340625 468.019375 20.703125 468.890625 C14.46525331 476.32673193 5.72670694 481.53452285 -3.97070312 482.61108398 C-6.58656934 482.72728465 -9.17886661 482.73823987 -11.796875 482.703125 C-12.68503906 482.71472656 -13.57320312 482.72632813 -14.48828125 482.73828125 C-15.34035156 482.73441406 -16.19242188 482.73054688 -17.0703125 482.7265625 C-17.83520996 482.72317871 -18.60010742 482.71979492 -19.38818359 482.71630859 C-21.9773195 482.22210378 -22.86260583 481.42882395 -24.421875 479.328125 C-24.72610901 476.72722244 -24.84894878 474.42398795 -24.796875 471.828125 C-24.7827356 470.75498047 -24.7827356 470.75498047 -24.76831055 469.66015625 C-24.42354067 457.41876524 -20.23399548 448.58693446 -12.421875 439.328125 C-16.36014838 437.5913709 -20.37121788 436.48792333 -24.51513672 435.37548828 C-34.96233626 432.55217435 -44.71561083 429.10314333 -54.421875 424.328125 C-55.05287109 424.02148926 -55.68386719 423.71485352 -56.33398438 423.39892578 C-96.01434763 403.89244752 -126.44007813 368.16968121 -140.671875 326.453125 C-149.48502535 299.58742086 -153.78262068 266.28674647 -143.421875 239.328125 C-143.16486816 238.64443848 -142.90786133 237.96075195 -142.64306641 237.25634766 C-133.66191859 213.94064838 -118.98893558 193.81717176 -102.421875 175.328125 C-101.17083984 173.91080078 -101.17083984 173.91080078 -99.89453125 172.46484375 C-94.04364509 165.94683035 -87.914223 159.72046613 -81.734375 153.515625 C-80.93829834 152.71487549 -80.14222168 151.91412598 -79.32202148 151.08911133 C-74.51656111 146.29663463 -69.58837793 141.72768868 -64.421875 137.328125 C-63.82544189 136.81531982 -63.22900879 136.30251465 -62.61450195 135.77416992 C-60.88641461 134.28886575 -59.1543158 132.80834713 -57.421875 131.328125 C-56.19783345 130.27744069 -54.9738745 129.22666014 -53.75 128.17578125 C-51.87423763 126.56671247 -49.99186168 124.96954007 -48.09375 123.38671875 C-26.8796172 105.49268397 -15.26822126 80.54447365 -12.62889099 53.09880066 C-12.28222539 48.45907244 -12.26612083 43.82654421 -12.24609375 39.17578125 C-12.2229323 37.08006767 -12.19881658 34.98436446 -12.17382812 32.88867188 C-12.13851595 29.62093727 -12.10922456 26.35359709 -12.09594727 23.08569336 C-12.08054511 19.90692466 -12.04043919 16.72926019 -11.99609375 13.55078125 C-11.99800217 12.56956802 -11.99991058 11.5883548 -12.00187683 10.57740784 C-11.98538589 9.668936 -11.96889496 8.76046417 -11.9519043 7.82446289 C-11.94603806 7.02633682 -11.94017181 6.22821075 -11.93412781 5.40589905 C-11.421875 3.328125 -11.421875 3.328125 -9.59986877 1.56938171 C-6.47028179 -0.21419586 -3.50182793 -0.06231519 0 0 Z M97.578125 421.328125 C96.918125 421.988125 96.258125 422.648125 95.578125 423.328125 C96.898125 422.998125 98.218125 422.668125 99.578125 422.328125 C98.918125 421.998125 98.258125 421.668125 97.578125 421.328125 Z " fill="#322E3E" transform="translate(148.421875,7.671875)"/>
<path d="M0 0 C4.75 0.75 4.75 0.75 7 3 C4.47341063 8.32321064 1.9316862 13.6388424 -0.62329102 18.94848633 C-1.48733948 20.74929622 -2.34748414 22.55198536 -3.20336914 24.35668945 C-15.77965303 50.85592778 -33.16847879 74.76331857 -59.28515625 89.24609375 C-59.97125977 89.62913162 -60.65736328 90.01216949 -61.36425781 90.40681458 C-68.8119758 94.51893355 -76.43755459 98.26026308 -84.07733154 101.99902344 C-105.61361128 112.56397038 -126.60459085 123.79368969 -146 138 C-146.57250488 138.41701172 -147.14500977 138.83402344 -147.73486328 139.26367188 C-155.9891601 145.31918462 -163.59150742 151.94678069 -171 159 C-171.77988281 159.71542969 -172.55976563 160.43085938 -173.36328125 161.16796875 C-195.00145711 181.65313346 -212.48579013 217.7698287 -215.23046875 247.49609375 C-215.48045476 251.04286734 -215.48045476 251.04286734 -214 254 C-212.00041636 254.04080783 -209.99954746 254.04254356 -208 254 C-205.89450767 248.67323048 -204.21578094 243.35287324 -202.70532227 237.82983398 C-199.18244851 225.02795314 -194.68384164 212.99277984 -189 201 C-188.66887207 200.29520508 -188.33774414 199.59041016 -187.99658203 198.86425781 C-175.6165083 172.94721165 -153.621618 154.47104698 -130 139 C-129.29117676 138.53400391 -128.58235352 138.06800781 -127.85205078 137.58789062 C-110.27258008 126.13252215 -91.64382117 116.69105375 -72.82421875 107.4765625 C-56.22727063 99.36310623 -56.22727063 99.36310623 -41 89 C-40.06800781 88.28585938 -39.13601563 87.57171875 -38.17578125 86.8359375 C-11.35303226 65.66205197 1.66640779 37.10196139 16 7 C18.96175123 7.61277612 20.38058783 8.25372522 23 10 C22.39391799 13.92290685 21.18263831 16.9312361 19.33984375 20.4375 C18.79706787 21.48687744 18.25429199 22.53625488 17.69506836 23.61743164 C17.1150708 24.7336792 16.53507324 25.84992676 15.9375 27 C-5.8156038 69.77048028 -6.95873258 107.98117093 3.44042969 154.2487793 C5.60455411 163.91625536 7.46035526 173.57730202 8.66796875 183.41503906 C8.9189071 185.3686679 9.20343979 187.31802171 9.50390625 189.26464844 C11.13187842 200.52382028 11.37234213 211.67697863 11.37060547 223.04345703 C11.37497443 226.23133999 11.41141677 229.41782931 11.44921875 232.60546875 C11.71168868 280.16566469 -12.15729016 317.40617152 -44 351 C-45.17369141 352.07701172 -45.17369141 352.07701172 -46.37109375 353.17578125 C-47.17740234 354.07876953 -47.17740234 354.07876953 -48 355 C-47.85650653 358.19954954 -47.85650653 358.19954954 -47 361 C-42.58769965 361.46763782 -40.62319192 361.46617359 -37.0078125 358.76171875 C-36.02699635 357.75598927 -35.06675458 356.72989647 -34.125 355.6875 C-33.6088916 355.14279053 -33.0927832 354.59808105 -32.56103516 354.03686523 C-27.76728401 348.91279212 -23.32102391 343.5259986 -19 338 C-18.22269531 337.05125 -17.44539062 336.1025 -16.64453125 335.125 C16.54805705 293.75299805 25.26843883 247.88257709 19.84584045 196.00975037 C17.7767065 177.38250157 14.56171552 159.00179139 10.6484375 140.6796875 C10.37555908 139.39843994 10.10268066 138.11719238 9.8215332 136.79711914 C9.27524167 134.27216456 8.71393756 131.75040996 8.13745117 129.23217773 C6.15685044 120.20080332 5.47461652 111.54527969 5.5625 102.3125 C5.56587372 101.61822906 5.56924744 100.92395813 5.57272339 100.20864868 C5.65506661 88.44872275 6.64750564 77.31435551 10 66 C10.20415527 65.28859863 10.40831055 64.57719727 10.61865234 63.84423828 C15.73519681 46.71527505 24.84642158 30.83063948 33 15 C36.96 16.485 36.96 16.485 41 18 C39.61471184 22.51094605 37.8160424 26.56515311 35.6640625 30.76171875 C35.00510593 32.05919279 34.34625519 33.35672058 33.6875 34.65429688 C32.66067082 36.66476398 31.63184335 38.67417373 30.60058594 40.68237305 C26.91384147 47.87578279 23.39147138 54.99145321 20.80834961 62.67431641 C19.97280507 65.07824189 18.98137563 67.36749028 17.9375 69.6875 C8.66875113 93.42722042 11.09026664 122.61288964 18.73802185 146.41564941 C21.69247593 155.65963746 24.05007202 164.95947466 26.125 174.4375 C26.29708984 175.22356628 26.46917969 176.00963257 26.64648438 176.81951904 C31.20827978 197.83356101 33.25154986 218.06113295 33.375 239.5625 C33.38321777 240.45769348 33.39143555 241.35288696 33.39990234 242.27520752 C33.68734647 284.54794516 15.17589001 319.4686841 -13 350 C-13.46760742 350.50756836 -13.93521484 351.01513672 -14.41699219 351.53808594 C-34.82700541 373.41750256 -65.15814607 392.86107047 -95 398 C-96.66615464 398.04130962 -98.33421236 398.05412306 -100 398 C-97.41879025 395.41879025 -94.9172628 394.70385292 -91.5 393.4375 C-87.18461645 391.86937955 -87.18461645 391.86937955 -83 390 C-83 387.36 -83 384.72 -83 382 C-87.94279234 381.66602754 -90.95251257 382.65377989 -95.375 384.8125 C-111.10664479 391.91145949 -127.04960947 391.39537394 -144 391 C-141.15941258 388.08064413 -138.37424266 385.42990416 -135.0625 383.0625 C-124.01921084 374.57331599 -114.75244352 364.09800853 -106.46435547 352.96484375 C-104.86605873 350.82028021 -103.24738775 348.69186466 -101.62890625 346.5625 C-93.46554917 335.73918528 -86.02474808 324.59095964 -79 313 C-78.57799316 312.3076123 -78.15598633 311.61522461 -77.72119141 310.90185547 C-52.92816246 270.06454561 -18.08505972 210.06653617 -18.9375 160.625 C-18.9684375 158.830625 -18.9684375 158.830625 -19 157 C-21.90073181 156.32198966 -21.90073181 156.32198966 -25 156 C-27.43796287 158.43796287 -27.5886069 159.86802363 -28.296875 163.21484375 C-28.53035645 164.28452393 -28.76383789 165.3542041 -29.00439453 166.45629883 C-29.25044434 167.60509521 -29.49649414 168.7538916 -29.75 169.9375 C-32.06489164 180.36884607 -34.81969546 190.49009916 -38.22192383 200.61303711 C-39.15862736 203.48663309 -40.02357848 206.37925087 -40.89453125 209.2734375 C-56.10434935 258.88487675 -82.47572581 307.61786117 -115 348 C-115.4139502 348.51691406 -115.82790039 349.03382813 -116.25439453 349.56640625 C-143.21262209 383.03037458 -143.21262209 383.03037458 -160.0625 385.4375 C-163 385 -163 385 -165.25 382.875 C-174.29290947 368.01879159 -168.68345253 344.90888337 -165 329 C-162.93281227 320.58718039 -160.5308882 312.28365466 -158 304 C-157.73348633 303.11666992 -157.46697266 302.23333984 -157.19238281 301.32324219 C-140.20012253 245.65600054 -111.60241886 194.04367438 -75 149 C-74.31421875 148.15050781 -73.6284375 147.30101562 -72.921875 146.42578125 C-68.73920917 141.27267677 -64.49151238 136.17693185 -60.1875 131.125 C-59.44113281 130.24666504 -59.44113281 130.24666504 -58.6796875 129.35058594 C-56.05545133 126.29177357 -53.37613177 123.3196455 -50.56640625 120.4296875 C-49.73363159 119.56512939 -49.73363159 119.56512939 -48.8840332 118.68310547 C-47.8214084 117.58856858 -46.74622954 116.50603472 -45.65698242 115.43798828 C-43.11649594 112.81601852 -42.04292482 111.36400249 -41.609375 107.6875 C-41.71384976 105.08680177 -41.71384976 105.08680177 -43 104 C-45.67058851 103.85884839 -48.32432238 103.95752893 -51 104 C-51.36931641 104.86431641 -51.36931641 104.86431641 -51.74609375 105.74609375 C-53.20162099 108.3624153 -54.88608731 110.00891836 -57.0625 112.0625 C-61.23772143 116.14464325 -64.91758048 120.44385059 -68.5625 125 C-70.75644192 127.70023621 -73.00735722 130.32836002 -75.2956543 132.94775391 C-82.30353 140.98543655 -88.74065217 149.37015152 -95 158 C-95.48968262 158.67401855 -95.97936523 159.34803711 -96.48388672 160.04248047 C-131.76034029 208.81075275 -159.26700051 264.17735292 -173 323 C-173.19819336 323.83805176 -173.39638672 324.67610352 -173.60058594 325.53955078 C-174.66193411 330.05609736 -175.67044611 334.57994525 -176.609375 339.12353516 C-176.95357677 340.77699442 -177.31890778 342.42602514 -177.6875 344.07421875 C-179.60498058 353.62167414 -179.17236056 363.30950657 -179 373 C-183.35854687 369.60299032 -186.76314852 366.10973448 -189.9375 361.5625 C-190.36571045 360.95196777 -190.7939209 360.34143555 -191.23510742 359.71240234 C-200.54205199 346.12401932 -205.84028015 331.08584652 -209 315 C-213.10223585 313.98459888 -213.10223585 313.98459888 -217 315 C-217.33723291 320.95778137 -216.43579836 325.69381173 -214.65625 331.38671875 C-213.99175817 334.03282013 -213.88256574 336.2843328 -214 339 C-232.16910783 316.97742975 -231.13902479 275.65080503 -228.56640625 248.609375 C-227.99599508 244.00131922 -227.08814256 239.51174479 -226 235 C-225.65340332 233.56116455 -225.65340332 233.56116455 -225.29980469 232.09326172 C-221.76677014 217.8566879 -217.30929936 204.24861117 -211 191 C-210.67918457 190.32259766 -210.35836914 189.64519531 -210.02783203 188.94726562 C-186.03130863 139.17489307 -129.97900532 112.84370536 -81.3125 93.25 C-73.92890836 90.2645859 -66.73719692 87.29857963 -60 83 C-58.93265625 82.319375 -57.8653125 81.63875 -56.765625 80.9375 C-42.54830265 71.49390629 -27.52278408 58.11473201 -20.91113281 42.07519531 C-18.92927945 37.56132779 -16.5449917 33.23530618 -14.25 28.875 C-13.71721436 27.85688232 -13.18442871 26.83876465 -12.63549805 25.78979492 C-9.23022532 19.29511734 -5.77140943 12.83472402 -2.20703125 6.42578125 C-1.1271264 4.25548704 -0.4604937 2.36904592 0 0 Z " fill="#D381BD" transform="translate(445,53)"/>
<path d="M0 0 C2.59632382 2.59632382 2.91450571 4.78027444 3.9375 8.3125 C8.49494972 22.87177258 16.29039114 37.25365582 26 49 C26.4552002 49.55768066 26.91040039 50.11536133 27.37939453 50.68994141 C33.14167325 57.72063446 38.93475864 64.25035531 46 70 C48.38328592 72.03203428 50.75267398 74.08018969 53.125 76.125 C57.38772883 79.78562863 61.67595542 83.41196301 66 87 C64.47568217 90.88963859 62.13970627 92.72189877 58.875 95.25 C53.89644898 99.20529152 49.37863363 103.39553426 45 108 C41.55220914 106.49993609 39.17639467 104.49590738 36.4375 101.9375 C32.94932777 98.72980945 29.40389003 95.68942545 25.6875 92.75 C20.05635068 88.2002236 15.00557094 83.17821505 9.9453125 78.015625 C9.44676758 77.51224609 8.94822266 77.00886719 8.43457031 76.49023438 C7.05171867 75.05372545 5.73876447 73.55092088 4.4296875 72.046875 C2.21674115 69.7013866 2.21674115 69.7013866 -0.43823242 70.16699219 C-3.32348415 71.10518707 -4.42381132 72.03085005 -6.41796875 74.28125 C-7.02737305 74.95406006 -7.63677734 75.62687012 -8.26464844 76.32006836 C-8.89918945 77.0394458 -9.53373047 77.75882324 -10.1875 78.5 C-11.52692093 79.97281062 -12.86936381 81.44287875 -14.21484375 82.91015625 C-14.86437012 83.61930176 -15.51389648 84.32844727 -16.18310547 85.05908203 C-22.35714323 91.65456715 -29.4613417 97.20608542 -36.46875 102.875 C-39.2626952 105.22053424 -41.80445705 107.71056926 -44.3359375 110.33203125 C-46.09033743 112.09054949 -47.92433565 113.69890935 -49.8125 115.3125 C-57.50822055 121.98311492 -64.39090991 129.20619721 -70.7265625 137.17578125 C-72.24365763 139.06042005 -73.80176398 140.91275736 -75.3984375 142.73046875 C-80.51248552 148.57855206 -84.81861955 154.57116853 -88.875 161.1875 C-89.3272998 161.92363525 -89.77959961 162.65977051 -90.24560547 163.41821289 C-99.66416989 179.15504963 -101.14406756 193.79486703 -96.63378906 211.76953125 C-91.54889152 229.66460982 -82.92816881 244.66179599 -70 258 C-69.21109375 258.89912109 -69.21109375 258.89912109 -68.40625 259.81640625 C-53.84132809 275.83038926 -29.18317503 285.71741047 -7.89672852 287.140625 C2.93067877 287.61010607 12.99334082 286.82750366 23.55151367 284.33520508 C24.33888916 284.15111084 25.12626465 283.9670166 25.9375 283.77734375 C26.62714844 283.60452881 27.31679687 283.43171387 28.02734375 283.25366211 C30.34863814 282.95516893 31.81993841 283.15075511 34 284 C35.43910924 286.16014748 36.63382207 288.20549115 37.8125 290.5 C40.70217988 295.87085663 43.80590097 300.64450741 47.75 305.328125 C49 307 49 307 49 309 C17.5039041 321.1406752 -18.75638787 321.91886479 -49.9453125 308.140625 C-82.11713738 293.48319127 -107.8370173 269.02137193 -120.87548828 235.76708984 C-124.48018855 226.03751559 -127.16083203 216.21465954 -129 206 C-129.18175781 205.08476562 -129.36351562 204.16953125 -129.55078125 203.2265625 C-133.25682835 176.60747639 -123.41850033 154.27058858 -107.5703125 133.2734375 C-103.23506299 127.69000992 -98.68250118 122.29481702 -94 117 C-93.36449219 116.2769165 -92.72898438 115.55383301 -92.07421875 114.80883789 C-86.4696834 108.49806557 -80.63786586 102.45161937 -74.67138672 96.48608398 C-73.1282647 94.94076934 -71.59335694 93.38759554 -70.05859375 91.83398438 C-64.45597164 86.20019898 -58.71417345 80.97746411 -52.49609375 76.01293945 C-28.47028839 56.63766899 -11.81702874 33.47720868 -2.12890625 4.25390625 C-1 1 -1 1 0 0 Z " fill="#EBC6DC" transform="translate(171,93)"/>
<path d="M0 0 C14.52 0 29.04 0 44 0 C44.25 21.75 44.25 21.75 44.29785156 28.47558594 C44.75956204 63.24189103 55.54318643 94.12775667 80.4699707 118.76464844 C84.48142348 122.62824011 88.75076351 126.10237185 93.1171875 129.55859375 C97.24121543 133.05116483 100.99676344 136.87489467 104.76147461 140.74780273 C107.5889263 143.75122237 107.5889263 143.75122237 111 146 C109.57016548 149.58227359 107.96608666 150.99910749 104.625 152.875 C103.85414063 153.32617188 103.08328125 153.77734375 102.2890625 154.2421875 C100 155 100 155 97.984375 154.375 C95.67884756 152.77746918 93.6783747 151.03821261 91.625 149.125 C88.11343528 145.89745889 84.55776993 142.7586007 80.90698242 139.68969727 C52.6005704 115.82761298 32.98287732 85.37370103 29.20410156 47.70068359 C28.69509057 40.96542096 28.49407504 34.2060256 28.37719727 27.45361328 C28.34323853 25.85042236 28.34323853 25.85042236 28.30859375 24.21484375 C28.29010376 22.77806274 28.29010376 22.77806274 28.27124023 21.31225586 C28.21944871 18.80617623 28.21944871 18.80617623 26 17 C22.43407381 17.16417032 22.43407381 17.16417032 19 18 C17.60123004 20.79753993 17.85439209 23.14539568 17.82421875 26.2734375 C17.16709922 67.05814709 6.02161101 100.3609079 -23 130 C-27.94845868 134.75784009 -33.15065797 139.13999488 -38.5 143.4375 C-43.11854224 147.17011594 -47.3044578 151.16610846 -51.41796875 155.4453125 C-53.503193 157.50845419 -55.61299467 159.41301087 -57.8359375 161.3203125 C-61.96660295 164.90173615 -65.72390994 168.74223038 -69.4375 172.75 C-70.09073242 173.4524585 -70.74396484 174.15491699 -71.41699219 174.87866211 C-76.51941788 180.40418186 -81.40776109 186.04003651 -86 192 C-86.41668945 192.53351074 -86.83337891 193.06702148 -87.26269531 193.61669922 C-98.48710088 208.06269749 -108.08852808 223.61574111 -114 241 C-114.37382813 241.99515625 -114.74765625 242.9903125 -115.1328125 244.015625 C-116.77864608 249.98332325 -116.33772502 256.36580166 -116.3125 262.5 C-116.31134186 263.17229645 -116.31018372 263.8445929 -116.30899048 264.53726196 C-116.27535198 274.37600982 -115.70677729 283.48833402 -113 293 C-112.80664062 293.86625 -112.61328125 294.7325 -112.4140625 295.625 C-107.53943508 316.38964666 -97.16814592 336.14403804 -83 352 C-82.16984375 352.97324219 -81.3396875 353.94648438 -80.484375 354.94921875 C-70.40563802 366.58111542 -58.38861514 375.4528119 -45 383 C-43.948125 383.59425781 -42.89625 384.18851562 -41.8125 384.80078125 C-31.67805393 390.19068122 -21.0117 393.83933401 -10 397 C-8.97543701 397.29463135 -8.97543701 397.29463135 -7.93017578 397.59521484 C16.89903093 404.28073945 48.5786123 401.89906648 72.03149414 391.84326172 C74.50763349 390.79475534 76.4922441 389.97393819 79.20703125 390.11328125 C81.48670082 391.24069953 82.89502051 392.64046258 84.625 394.5 C87.03610916 397.11806646 87.03610916 397.11806646 90 399 C89 402 89 402 85.96484375 403.6484375 C84.62861501 404.23825391 83.2855681 404.81276958 81.9375 405.375 C81.21796143 405.67954102 80.49842285 405.98408203 79.75708008 406.29785156 C72.30902162 409.38383505 64.81666888 412.01697181 57 414 C56.35450195 414.16516113 55.70900391 414.33032227 55.04394531 414.50048828 C15.66379864 423.92171585 -27.46041058 415.42309145 -61.75390625 394.7734375 C-72.7721558 387.94932617 -82.51848137 379.80650985 -92 371 C-92.98226562 370.11634766 -92.98226562 370.11634766 -93.984375 369.21484375 C-119.91026994 344.84235987 -136.09422221 305.72821388 -137.31640625 270.50390625 C-137.96122045 244.20548041 -137.96122045 244.20548041 -133 232 C-132.75330566 231.36674805 -132.50661133 230.73349609 -132.25244141 230.08105469 C-120.09271951 199.10324874 -98.17022927 174.18913805 -75.02630615 150.8520813 C-74.02638515 149.84346342 -73.02783742 148.83348183 -72.03082275 147.82199097 C-66.10169345 141.81707203 -60.00314544 136.20345427 -53.40185547 130.92749023 C-50.59577838 128.67561195 -47.95158071 126.31936047 -45.3125 123.875 C-42.24452484 121.04168583 -39.15453428 118.28648217 -35.9375 115.625 C-22.03244768 103.42260715 -13.0797015 87.2351171 -7 70 C-6.60941406 68.89785156 -6.21882812 67.79570313 -5.81640625 66.66015625 C-0.81517216 51.54653674 -0.6278909 36.37494936 -0.375 20.625 C-0.25125 13.81875 -0.1275 7.0125 0 0 Z " fill="#C45995" transform="translate(148,20)"/>
<path d="M0 0 C7.70478907 1.56219735 14.42269363 6.38130489 20.9375 10.5625 C21.7521875 11.08191162 22.566875 11.60132324 23.40625 12.13647461 C25.09613184 13.21534141 26.78476607 14.29616481 28.47216797 15.37890625 C30.947928 16.96660633 33.42866466 18.54627775 35.91015625 20.125 C37.44043145 21.1036551 38.97039312 22.08280067 40.5 23.0625 C41.21148193 23.5150415 41.92296387 23.96758301 42.65600586 24.43383789 C43.31608643 24.85914795 43.97616699 25.28445801 44.65625 25.72265625 C45.23181641 26.09140869 45.80738281 26.46016113 46.40039062 26.84008789 C46.92826172 27.22285889 47.45613281 27.60562988 48 28 C48.58458984 28.39759521 49.16917969 28.79519043 49.77148438 29.20483398 C51 31 51 31 50.81982422 34.30102539 C50.05716581 37.74207293 49.1220569 40.88765938 47.8828125 44.18359375 C47.22853271 45.92721191 47.22853271 45.92721191 46.56103516 47.70605469 C46.08714355 48.93743164 45.61325195 50.16880859 45.125 51.4375 C44.75819122 52.39565613 44.75819122 52.39565613 44.38397217 53.37316895 C28.00979424 96.04125031 5.72112193 137.33985501 -23 173 C-23.62092529 173.77537109 -23.62092529 173.77537109 -24.25439453 174.56640625 C-51.21262209 208.03037458 -51.21262209 208.03037458 -68.0625 210.4375 C-71 210 -71 210 -73.25 207.875 C-82.29290947 193.01879159 -76.68345253 169.90888337 -73 154 C-70.93281227 145.58718039 -68.5308882 137.28365466 -66 129 C-65.73348633 128.11666992 -65.46697266 127.23333984 -65.19238281 126.32324219 C-53.384544 87.64034742 -35.57211567 48.7951452 -13.328125 15.0625 C-12.07834896 13.12167133 -10.90411337 11.15504055 -9.75 9.15625 C-4.45407007 0.30211716 -4.45407007 0.30211716 0 0 Z " fill="#D4C7DC" transform="translate(353,228)"/>
<path d="M0 0 C2.64 0.99 5.28 1.98 8 3 C6.61471184 7.51094605 4.8160424 11.56515311 2.6640625 15.76171875 C2.00510593 17.05919279 1.34625519 18.35672058 0.6875 19.65429688 C-0.33932918 21.66476398 -1.36815665 23.67417373 -2.39941406 25.68237305 C-6.08615853 32.87578279 -9.60852862 39.99145321 -12.19165039 47.67431641 C-13.02719493 50.07824189 -14.01862437 52.36749028 -15.0625 54.6875 C-24.33124887 78.42722042 -21.90973336 107.61288964 -14.26197815 131.41564941 C-11.30752407 140.65963746 -8.94992798 149.95947466 -6.875 159.4375 C-6.70291016 160.22356628 -6.53082031 161.00963257 -6.35351562 161.81951904 C-1.79172022 182.83356101 0.25154986 203.06113295 0.375 224.5625 C0.38321777 225.45769348 0.39143555 226.35288696 0.39990234 227.27520752 C0.68734647 269.54794516 -17.82410999 304.4686841 -46 335 C-46.70141113 335.76135254 -46.70141113 335.76135254 -47.41699219 336.53808594 C-67.82700541 358.41750256 -98.15814607 377.86107047 -128 383 C-129.66615464 383.04130962 -131.33421236 383.05412306 -133 383 C-130.41879025 380.41879025 -127.9172628 379.70385292 -124.5 378.4375 C-120.18461645 376.86937955 -120.18461645 376.86937955 -116 375 C-116 372.36 -116 369.72 -116 367 C-120.94279234 366.66602754 -123.95251257 367.65377989 -128.375 369.8125 C-141.88495454 375.9602883 -155.40974456 376.45594548 -170 376 C-167.21946532 374.14631022 -164.91612212 373.1643934 -161.8125 372 C-149.34405935 366.86149113 -138.67533134 359.32667075 -129 350 C-127.61107188 348.78373571 -126.21555216 347.57494366 -124.8125 346.375 C-117.89849636 340.31833281 -112.01542193 333.77535851 -106.28173828 326.58935547 C-104.94408844 324.93066967 -103.5817886 323.2947612 -102.21484375 321.66015625 C-47.65474725 255.84595947 -38.47683055 180.36391603 -38 98 C-37.67 98 -37.34 98 -37 98 C-36.86464844 99.1446875 -36.72929687 100.289375 -36.58984375 101.46875 C-35.15102367 112.8123047 -33.01703961 123.91719763 -30.5 135.0625 C-28.00750027 146.12421767 -25.7148582 157.14993812 -24.33203125 168.41503906 C-24.0810929 170.3686679 -23.79656021 172.31802171 -23.49609375 174.26464844 C-21.86812158 185.52382028 -21.62765787 196.67697863 -21.62939453 208.04345703 C-21.62502557 211.23133999 -21.58858323 214.41782931 -21.55078125 217.60546875 C-21.28831132 265.16566469 -45.15729016 302.40617152 -77 336 C-77.78246094 336.71800781 -78.56492187 337.43601562 -79.37109375 338.17578125 C-80.17740234 339.07876953 -80.17740234 339.07876953 -81 340 C-80.85650653 343.19954954 -80.85650653 343.19954954 -80 346 C-75.58769965 346.46763782 -73.62319192 346.46617359 -70.0078125 343.76171875 C-69.02699635 342.75598927 -68.06675458 341.72989647 -67.125 340.6875 C-66.6088916 340.14279053 -66.0927832 339.59808105 -65.56103516 339.03686523 C-60.76728401 333.91279212 -56.32102391 328.5259986 -52 323 C-51.22269531 322.05125 -50.44539063 321.1025 -49.64453125 320.125 C-16.45194295 278.75299805 -7.73156117 232.88257709 -13.15415955 181.00975037 C-15.2232935 162.38250157 -18.43828448 144.00179139 -22.3515625 125.6796875 C-22.62444092 124.39843994 -22.89731934 123.11719238 -23.1784668 121.79711914 C-23.72475833 119.27216456 -24.28606244 116.75040996 -24.86254883 114.23217773 C-26.84314956 105.20080332 -27.52538348 96.54527969 -27.4375 87.3125 C-27.43412628 86.61822906 -27.43075256 85.92395813 -27.42727661 85.20864868 C-27.34493339 73.44872275 -26.35249436 62.31435551 -23 51 C-22.79584473 50.28859863 -22.59168945 49.57719727 -22.38134766 48.84423828 C-17.26480319 31.71527505 -8.15357842 15.83063948 0 0 Z " fill="#C45996" transform="translate(478,68)"/>
<path d="M0 0 C4.75 0.75 4.75 0.75 7 3 C4.47341063 8.32321064 1.9316862 13.6388424 -0.62329102 18.94848633 C-1.48733948 20.74929622 -2.34748414 22.55198536 -3.20336914 24.35668945 C-15.77965303 50.85592778 -33.16847879 74.76331857 -59.28515625 89.24609375 C-59.97125977 89.62913162 -60.65736328 90.01216949 -61.36425781 90.40681458 C-68.8119758 94.51893355 -76.43755459 98.26026308 -84.07733154 101.99902344 C-105.61361128 112.56397038 -126.60459085 123.79368969 -146 138 C-146.57250488 138.41701172 -147.14500977 138.83402344 -147.73486328 139.26367188 C-155.9891601 145.31918462 -163.59150742 151.94678069 -171 159 C-171.77988281 159.71542969 -172.55976563 160.43085938 -173.36328125 161.16796875 C-195.00145711 181.65313346 -212.48579013 217.7698287 -215.23046875 247.49609375 C-215.48045476 251.04286734 -215.48045476 251.04286734 -214 254 C-212.00041636 254.04080783 -209.99954746 254.04254356 -208 254 C-205.89450767 248.67323048 -204.21578094 243.35287324 -202.70532227 237.82983398 C-199.18244851 225.02795314 -194.68384164 212.99277984 -189 201 C-188.66887207 200.29520508 -188.33774414 199.59041016 -187.99658203 198.86425781 C-175.6165083 172.94721165 -153.621618 154.47104698 -130 139 C-129.29117676 138.53400391 -128.58235352 138.06800781 -127.85205078 137.58789062 C-113.07801597 127.96063759 -97.59635685 119.86025674 -81.86785889 111.9430542 C-79.3524415 110.67305734 -76.84303609 109.39141997 -74.33360291 108.10964966 C-71.35057656 106.58764802 -68.36269371 105.07532 -65.375 103.5625 C-64.27260986 103.00046875 -63.17021973 102.4384375 -62.03442383 101.859375 C-61.02017334 101.35019531 -60.00592285 100.84101563 -58.9609375 100.31640625 C-58.07196777 99.86724854 -57.18299805 99.41809082 -56.26708984 98.95532227 C-54 98 -54 98 -51 98 C-56.86610103 102.98202552 -62.74010183 107.87012511 -68.9375 112.4375 C-79.36171128 120.17071541 -88.99303864 128.78533031 -98.49414062 137.61181641 C-100.04234465 139.03903561 -101.60478868 140.44902316 -103.171875 141.85546875 C-108.1403553 146.32579615 -112.94842079 150.80100412 -117.24609375 155.9375 C-119.31455687 158.36990206 -121.50187868 160.67236525 -123.6875 163 C-154.32742912 196.70857149 -172.5573263 240.25693233 -183.375 284 C-183.61387939 284.95334229 -183.85275879 285.90668457 -184.09887695 286.88891602 C-187.41197075 300.94108621 -188.35568465 315.04083601 -188.31567383 329.43139648 C-188.31247792 331.82906201 -188.33623471 334.2255291 -188.36132812 336.62304688 C-188.39306124 344.55887728 -188.04474295 351.7559575 -185.74291992 359.4284668 C-184.92326171 362.26562091 -184.44058879 365.08219872 -184 368 C-187.68873953 364.5122287 -190.69199328 360.90930424 -193.4375 356.625 C-193.82437988 356.02139648 -194.21125977 355.41779297 -194.60986328 354.79589844 C-202.10718152 342.6917943 -206.09817186 328.83948806 -209 315 C-213.10223585 313.98459888 -213.10223585 313.98459888 -217 315 C-217.33723291 320.95778137 -216.43579836 325.69381173 -214.65625 331.38671875 C-213.99175817 334.03282013 -213.88256574 336.2843328 -214 339 C-232.16910783 316.97742975 -231.13902479 275.65080503 -228.56640625 248.609375 C-227.99599508 244.00131922 -227.08814256 239.51174479 -226 235 C-225.65340332 233.56116455 -225.65340332 233.56116455 -225.29980469 232.09326172 C-221.76677014 217.8566879 -217.30929936 204.24861117 -211 191 C-210.67918457 190.32259766 -210.35836914 189.64519531 -210.02783203 188.94726562 C-186.03130863 139.17489307 -129.97900532 112.84370536 -81.3125 93.25 C-73.92890836 90.2645859 -66.73719692 87.29857963 -60 83 C-58.93265625 82.319375 -57.8653125 81.63875 -56.765625 80.9375 C-42.54830265 71.49390629 -27.52278408 58.11473201 -20.91113281 42.07519531 C-18.92927945 37.56132779 -16.5449917 33.23530618 -14.25 28.875 C-13.71721436 27.85688232 -13.18442871 26.83876465 -12.63549805 25.78979492 C-9.23022532 19.29511734 -5.77140943 12.83472402 -2.20703125 6.42578125 C-1.1271264 4.25548704 -0.4604937 2.36904592 0 0 Z " fill="#C45996" transform="translate(445,53)"/>
<path d="M0 0 C4.0415181 1.59558753 6.62792974 4.48355975 9.5625 7.5625 C14.20562616 12.3245711 19.02870851 16.61200239 24.2421875 20.75390625 C29.00805868 24.63545855 33.49221423 28.82354084 38 33 C36.47311475 37.18712862 34.38464972 40.92718225 32.125 44.75 C29.04179023 50.04247174 26.34580087 55.33098123 24 61 C20.27070242 57.81455832 16.55651263 54.615571 12.875 51.375 C12.20339844 50.79492188 11.53179687 50.21484375 10.83984375 49.6171875 C9.33074972 48.29072268 7.87564714 46.90307038 6.4375 45.5 C4.01839956 43.71203177 4.01839956 43.71203177 0.76953125 44.0390625 C-4.06804268 45.27226787 -6.29529305 47.40357827 -9.75 50.875 C-10.3805127 51.48706299 -11.01102539 52.09912598 -11.66064453 52.72973633 C-13.04091835 54.07612919 -14.41382069 55.4301096 -15.78027344 56.79052734 C-18.13296213 59.13234792 -20.50700572 61.45118106 -22.8828125 63.76953125 C-35.12912493 75.77078718 -35.12912493 75.77078718 -46 89 C-46.86818359 90.16015625 -46.86818359 90.16015625 -47.75390625 91.34375 C-54.19284754 100.40481437 -56.14630337 108.88867305 -55 120 C-51.74734223 135.43076335 -42.31858692 146.70070645 -29.375 155.25 C-13.64938726 164.04651463 1.48943905 163.98875132 19 162 C19.20157715 162.57967529 19.4031543 163.15935059 19.61083984 163.7565918 C20.53103841 166.4006431 21.45300277 169.0440754 22.375 171.6875 C22.69210938 172.59951172 23.00921875 173.51152344 23.3359375 174.45117188 C23.6453125 175.33740234 23.9546875 176.22363281 24.2734375 177.13671875 C24.69761963 178.35427856 24.69761963 178.35427856 25.13037109 179.59643555 C25.74226249 181.28764015 26.40663547 182.96031562 27.10791016 184.61645508 C28 187 28 187 28 190 C6.88370395 197.47243336 -15.99651503 195.44008616 -36.296875 186.34375 C-59.01112594 175.05227266 -75.56689148 156.84218326 -84.31591797 133.08837891 C-86.35535638 126.86234174 -87.29728428 120.49378966 -88 114 C-88.14953125 112.80503906 -88.2990625 111.61007812 -88.453125 110.37890625 C-89.74688143 91.38224929 -73.64950033 73.42590889 -62 60 C-51.69244424 48.35896225 -40.8785007 37.04790984 -29 27 C-22.0722242 21.03763793 -15.15410756 15.06115751 -8.3125 9 C-7.56613281 8.34 -6.81976563 7.68 -6.05078125 7 C-3.8094381 4.81415678 -1.90708084 2.47963558 0 0 Z " fill="#EBDAEA" transform="translate(170,176)"/>
<path d="M0 0 C0 8.3091648 -10.33708355 16.6675997 -15.875 22.25 C-28.86424744 35.09201416 -44.00360742 43.72022854 -60.87612915 50.47299194 C-64.26178797 51.83155618 -67.63120597 53.22914145 -71 54.62890625 C-71.67702469 54.91014847 -72.35404938 55.19139069 -73.05158997 55.4811554 C-100.16892067 66.82110036 -127.62611782 80.66454627 -150 100 C-150.80308594 100.69351563 -151.60617187 101.38703125 -152.43359375 102.1015625 C-154.99410192 104.36247923 -157.50236204 106.66988654 -160 109 C-160.886875 109.80953125 -161.77375 110.6190625 -162.6875 111.453125 C-182.7770813 130.51539816 -193.42976287 156.61099575 -200.1875 183 C-200.43790039 183.97300049 -200.68830078 184.94600098 -200.94628906 185.94848633 C-204.1061042 198.76198568 -205.3920973 211.31285108 -205.3125 224.5 C-205.30934784 225.19620453 -205.30619568 225.89240906 -205.302948 226.60971069 C-205.11547594 261.63156808 -205.11547594 261.63156808 -191 292 C-189.09610151 294.85584773 -188.30537823 296.9311762 -187.375 300.1875 C-187.11460937 301.08855469 -186.85421875 301.98960937 -186.5859375 302.91796875 C-186.39257812 303.60503906 -186.19921875 304.29210937 -186 305 C-200.05219175 291.82607023 -209.49487721 274.53077312 -217 257 C-217.33725098 256.21318848 -217.67450195 255.42637695 -218.02197266 254.61572266 C-232.52227297 219.68843899 -232.24955638 175.54580098 -218.02636719 140.60839844 C-213.76078907 130.63453062 -209.0128967 121.35061688 -202 113 C-201.27941406 112.14148438 -200.55882812 111.28296875 -199.81640625 110.3984375 C-197.60695349 107.8635021 -195.33661086 105.41788428 -193 103 C-192.37222656 102.34644531 -191.74445313 101.69289063 -191.09765625 101.01953125 C-161.41218413 72.50972139 -113.27867215 56.385126 -73.6875 47.8125 C-53.73069789 43.42974979 -35.85620173 34.8004542 -20 22 C-19.34644531 21.49984375 -18.69289063 20.9996875 -18.01953125 20.484375 C-12.50507392 16.09299937 -8.33981809 10.51100744 -4 5 C-2.6675059 3.33266229 -1.33443509 1.66578466 0 0 Z " fill="#7F407D" transform="translate(422,98)"/>
<path d="M0 0 C1.62356703 3.24713407 0.03251982 6.39638372 -0.875 9.75 C-9.20566158 41.11924982 -0.49750153 67.9719138 11.59985352 96.81472778 C28.19734759 136.47136026 45.77367296 186.62029037 35 230 C34.70480469 231.21816406 34.40960938 232.43632812 34.10546875 233.69140625 C28.72424642 253.91160536 16.22673622 271.01509916 2 286 C1.53110352 286.50144531 1.06220703 287.00289063 0.57910156 287.51953125 C-11.3175817 300.17852626 -24.62038903 309.94973488 -40 318 C-41.134375 318.59425781 -42.26875 319.18851562 -43.4375 319.80078125 C-70.53598834 333.20145914 -97.29914247 335.58032738 -127 335 C-123.61272235 332.7418149 -121.814418 332.60657312 -117.8125 332.1875 C-90.58428208 328.52914457 -65.13909372 314.20209461 -45 296 C-43.56379687 294.76931827 -42.12647336 293.53994149 -40.6875 292.3125 C-13.05623339 267.86056323 9.4601634 232.27686269 13 195 C13.15024616 191.96968939 13.18635602 188.94386733 13.203125 185.91015625 C13.21027527 185.05732559 13.21742554 184.20449493 13.22479248 183.32582092 C13.46512172 146.15300097 8.37705995 111.19612561 -2.74121094 75.66967773 C-6.27521216 64.32629748 -7.37634961 53.69193525 -7.3125 41.8125 C-7.31100952 41.128461 -7.30951904 40.444422 -7.3079834 39.73965454 C-7.25278059 25.65943792 -6.11127989 12.90503773 0 0 Z " fill="#7F417D" transform="translate(464,118)"/>
<path d="M0 0 C0.55961426 0.76497803 1.11922852 1.52995605 1.69580078 2.31811523 C4.00591201 5.00688106 5.75846908 6.28283914 8.8671875 7.91015625 C9.82512207 8.41949707 10.78305664 8.92883789 11.77001953 9.45361328 C12.79466309 9.9845459 13.81930664 10.51547852 14.875 11.0625 C17.03674573 12.20648833 19.1981972 13.35103287 21.359375 14.49609375 C22.45958984 15.07472168 23.55980469 15.65334961 24.69335938 16.24951172 C29.86644591 18.98806978 34.99456942 21.8075829 40.125 24.625 C42.6986499 26.03695521 45.27334838 27.44621999 47.85644531 28.84082031 C49.63843729 29.80447611 51.410406 30.78663922 53.1796875 31.7734375 C56.4533765 33.19717482 59.46122795 33.64612279 63 34 C51.55221505 54.24417557 39.59191769 73.83224207 25 92 C24.58314941 92.52126465 24.16629883 93.0425293 23.73681641 93.57958984 C-3.21539547 127.03077078 -3.21539547 127.03077078 -20.0625 129.4375 C-23 129 -23 129 -25.25 126.875 C-34.29290947 112.01879159 -28.68345253 88.90888337 -25 73 C-22.9328753 64.58743687 -20.53521387 56.28215422 -18 48 C-17.72816895 47.10603516 -17.45633789 46.21207031 -17.17626953 45.29101562 C-12.40847037 29.81683585 -6.2507222 14.92124314 0 0 Z " fill="#D4C6DC" transform="translate(305,309)"/>
<path d="M0 0 C2.59632382 2.59632382 2.91450571 4.78027444 3.9375 8.3125 C8.49494972 22.87177258 16.29039114 37.25365582 26 49 C26.4552002 49.55768066 26.91040039 50.11536133 27.37939453 50.68994141 C33.14167325 57.72063446 38.93475864 64.25035531 46 70 C48.38328592 72.03203428 50.75267398 74.08018969 53.125 76.125 C57.38772883 79.78562863 61.67595542 83.41196301 66 87 C64.47568217 90.88963859 62.13970627 92.72189877 58.875 95.25 C53.89644898 99.20529152 49.37863363 103.39553426 45 108 C41.55220914 106.49993609 39.17639467 104.49590738 36.4375 101.9375 C32.94932777 98.72980945 29.40389003 95.68942545 25.6875 92.75 C20.05635068 88.2002236 15.00557094 83.17821505 9.9453125 78.015625 C9.44676758 77.51224609 8.94822266 77.00886719 8.43457031 76.49023438 C7.05171867 75.05372545 5.73876447 73.55092088 4.4296875 72.046875 C2.21674115 69.7013866 2.21674115 69.7013866 -0.43823242 70.16699219 C-3.32348415 71.10518707 -4.42381132 72.03085005 -6.41796875 74.28125 C-7.02737305 74.95406006 -7.63677734 75.62687012 -8.26464844 76.32006836 C-8.89918945 77.0394458 -9.53373047 77.75882324 -10.1875 78.5 C-11.52692093 79.97281062 -12.86936381 81.44287875 -14.21484375 82.91015625 C-14.86437012 83.61930176 -15.51389648 84.32844727 -16.18310547 85.05908203 C-22.35714323 91.65456715 -29.4613417 97.20608542 -36.46875 102.875 C-39.25041879 105.21022812 -41.7821946 107.6890804 -44.3046875 110.296875 C-51.94520548 117.97260274 -51.94520548 117.97260274 -56 120 C-58.00461299 119.34733531 -60.00379834 118.67795528 -62 118 C-68.27803912 116.86531483 -74.57155348 116.67854453 -80.9375 116.4375 C-82.00291016 116.39431641 -83.06832031 116.35113281 -84.16601562 116.30664062 C-86.77723443 116.20125511 -89.38853746 116.09912912 -92 116 C-90.32458522 111.64764325 -87.08995352 108.80206201 -83.84765625 105.58203125 C-83.23288925 104.9653508 -82.61812225 104.34867035 -81.98472595 103.71330261 C-80.68002069 102.40723716 -79.37278951 101.10369084 -78.06323242 99.80249023 C-76.09391604 97.84374737 -74.13532579 95.87474929 -72.17773438 93.90429688 C-65.8275772 87.54753341 -59.43790638 81.49799698 -52.39282227 75.91186523 C-28.35916785 56.7089729 -11.77456979 33.34913528 -2.12890625 4.25390625 C-1 1 -1 1 0 0 Z " fill="#D381B3" transform="translate(171,93)"/>
<path d="M0 0 C0.56203125 0.28875 1.1240625 0.5775 1.703125 0.875 C4.02309822 2.01131341 6.35794063 3.024893 8.75 4 C9.94882813 4.495 9.94882813 4.495 11.171875 5 C17.73750764 7.32154966 22.80564023 8.13948279 29.71240234 7.71630859 C41.37355062 7.05813592 41.37355062 7.05813592 45.83984375 9.64453125 C47.875 11.875 47.875 11.875 49.80078125 14.359375 C62.15187768 29.18946591 86.53909246 36.88056104 105 39 C116.50396416 39.76915651 127.32825896 38.98449887 138.55151367 36.33520508 C139.7325769 36.05906372 139.7325769 36.05906372 140.9375 35.77734375 C141.62714844 35.60452881 142.31679687 35.43171387 143.02734375 35.25366211 C145.34863814 34.95516893 146.81993841 35.15075511 149 36 C150.43910924 38.16014748 151.63382207 40.20549115 152.8125 42.5 C155.70217988 47.87085663 158.80590097 52.64450741 162.75 57.328125 C164 59 164 59 164 61 C132.5039041 73.1406752 96.24361213 73.91886479 65.0546875 60.140625 C37.51256935 47.59247851 13.21437813 27.74594507 0 0 Z " fill="#D381B3" transform="translate(56,341)"/>
<path d="M0 0 C9.63561644 8.23042237 9.63561644 8.23042237 13.19140625 11.42578125 C15.07217511 13.1219932 15.07217511 13.1219932 17.625 14.8125 C19.30934556 17.49214066 19.04158013 18.09427321 18.4375 21.125 C18.22335449 21.97263916 18.00920898 22.82027832 17.78857422 23.69360352 C14.79028588 36.26506451 13.54693212 48.49720851 13.71875 61.39697266 C13.75017939 63.76350778 13.75977763 66.12936917 13.765625 68.49609375 C13.81290286 77.70381462 14.20410019 86.82309012 15 96 C3.83082391 99.99319753 -9.26292389 99.50970288 -20.07421875 94.60546875 C-30.96434495 88.62971192 -40.66932166 80.37799957 -45.375 68.55078125 C-47.17622396 61.19953597 -47.47476037 52.62183138 -43.453125 45.98046875 C-38.12083301 38.71307079 -32.18723456 31.98686392 -26.11328125 25.3359375 C-24.21557683 23.2382901 -22.3865007 21.09896218 -20.5625 18.9375 C-14.44263933 11.90888972 -7.09339 6.01396108 0 0 Z " fill="#D3D5FC" transform="translate(171,231)"/>
<path d="M0 0 C4.0415181 1.59558753 6.62792974 4.48355975 9.5625 7.5625 C14.20562616 12.3245711 19.02870851 16.61200239 24.2421875 20.75390625 C29.00805868 24.63545855 33.49221423 28.82354084 38 33 C36.47311475 37.18712862 34.38464972 40.92718225 32.125 44.75 C29.04179023 50.04247174 26.34580087 55.33098123 24 61 C20.27070242 57.81455832 16.55651263 54.615571 12.875 51.375 C12.20339844 50.79492188 11.53179687 50.21484375 10.83984375 49.6171875 C9.33074972 48.29072268 7.87564714 46.90307038 6.4375 45.5 C4.02675961 43.72645513 4.02675961 43.72645513 0.828125 43.9765625 C-4.36238339 45.36422903 -6.97563427 48.12193293 -10.6875 51.875 C-11.98160034 53.14473175 -13.27712955 54.41300916 -14.57421875 55.6796875 C-15.13713623 56.24413574 -15.70005371 56.80858398 -16.2800293 57.39013672 C-18.09049721 59.08470384 -19.99243191 60.54708606 -22 62 C-22.38929688 61.443125 -22.77859375 60.88625 -23.1796875 60.3125 C-28.09530101 53.60733134 -33.74907889 47.47457202 -41.37890625 43.87890625 C-45.78465757 44.08245065 -47.94843689 47.32438792 -50.8125 50.4375 C-51.40998047 51.06205078 -52.00746094 51.68660156 -52.62304688 52.33007812 C-54.09588743 53.87361502 -55.54981471 55.43515877 -57 57 C-57 54 -57 54 -55.29101562 51.93457031 C-54.50404297 51.15694336 -53.71707031 50.37931641 -52.90625 49.578125 C-52.04 48.71703125 -51.17375 47.8559375 -50.28125 46.96875 C-49.3634375 46.0715625 -48.445625 45.174375 -47.5 44.25 C-46.613125 43.36828125 -45.72625 42.4865625 -44.8125 41.578125 C-39.69730005 36.52310387 -34.4722293 31.66438324 -29 27 C-27.76244767 25.93035027 -26.52546323 24.86004314 -25.2890625 23.7890625 C-24.68876221 23.27085937 -24.08846191 22.75265625 -23.4699707 22.21875 C-18.39678522 17.83635555 -13.33047892 13.44555762 -8.3125 9 C-7.56613281 8.34 -6.81976563 7.68 -6.05078125 7 C-3.8094381 4.81415678 -1.90708084 2.47963558 0 0 Z " fill="#D3AED1" transform="translate(170,176)"/>
<path d="M0 0 C1.37671875 0.61488281 1.37671875 0.61488281 2.78125 1.2421875 C18.63347384 8.24867137 31.83887593 8.94111968 49 7 C49.20157715 7.57967529 49.4031543 8.15935059 49.61083984 8.7565918 C50.53103841 11.4006431 51.45300277 14.0440754 52.375 16.6875 C52.85066406 18.05551758 52.85066406 18.05551758 53.3359375 19.45117188 C53.6453125 20.33740234 53.9546875 21.22363281 54.2734375 22.13671875 C54.69761963 23.35427856 54.69761963 23.35427856 55.13037109 24.59643555 C55.74226249 26.28764015 56.40663547 27.96031562 57.10791016 29.61645508 C58 32 58 32 58 35 C36.88370395 42.47243336 14.00348497 40.44008616 -6.296875 31.34375 C-14.21129687 27.40941311 -21.16275185 22.58210114 -28 17 C-25.81113471 14.81113471 -24.4441625 14.33145586 -21.5625 13.3125 C-13.54095286 10.20851002 -6.62780022 5.42599085 0 0 Z " fill="#D3ADD1" transform="translate(140,331)"/>
<path d="M0 0 C0.43570312 0.69996094 0.87140625 1.39992188 1.3203125 2.12109375 C5.2075104 6.29728158 9.84559374 8.45644659 14.875 11.0625 C17.03674573 12.20648833 19.1981972 13.35103287 21.359375 14.49609375 C22.45958984 15.07472168 23.55980469 15.65334961 24.69335938 16.24951172 C29.86644591 18.98806978 34.99456942 21.8075829 40.125 24.625 C42.6986499 26.03695521 45.27334838 27.44621999 47.85644531 28.84082031 C49.63843729 29.80447611 51.410406 30.78663922 53.1796875 31.7734375 C56.4533765 33.19717482 59.46122795 33.64612279 63 34 C58.0478661 42.69517537 53.0597271 51.36684064 48 60 C45.31795488 58.66944833 42.65973594 57.30276545 40.015625 55.8984375 C29.7450445 50.45806975 19.44461925 45.09927777 9 40 C8.32356445 39.66806641 7.64712891 39.33613281 6.95019531 38.99414062 C4.92963809 38.00724588 2.90357691 37.03278734 0.875 36.0625 C-0.30320312 35.49660156 -1.48140625 34.93070312 -2.6953125 34.34765625 C-5.85067673 33.06089424 -8.62857218 32.40477629 -12 32 C-9.94400621 24.55838512 -7.29150906 17.49231351 -4.3125 10.375 C-3.68891602 8.86873047 -3.68891602 8.86873047 -3.05273438 7.33203125 C-2.03945904 4.88619424 -1.02183204 2.4422715 0 0 Z " fill="#D482BE" transform="translate(305,309)"/>
<path d="M0 0 C5.97610255 4.87201322 7.54596689 14.61125623 8.30419922 21.94042969 C9.52304083 41.72101947 6.0899615 57.36505775 -5 74 C-10.730026 74 -13.77204346 71.18636551 -17.75 67.45703125 C-25.80472858 58.66115577 -29.53475572 50.27618441 -29.30078125 38.4296875 C-28.48198781 29.0933155 -21.91128827 22.84927782 -16 16 C-15.31292969 15.18917969 -14.62585938 14.37835938 -13.91796875 13.54296875 C-9.62722748 8.57518744 -5.05715134 4.18290975 0 0 Z " fill="#EBEBFD" transform="translate(154,248)"/>
<path d="M0 0 C0.33 0 0.66 0 1 0 C1 1.65 1 3.3 1 5 C1.65919434 5.25072266 2.31838867 5.50144531 2.99755859 5.75976562 C6.75249653 7.31083773 10.38656627 9.0671349 14.0390625 10.84375 C14.80173431 11.21350952 15.56440613 11.58326904 16.35018921 11.9642334 C17.95588634 12.74335361 19.56115382 13.52335983 21.16601562 14.30419922 C23.62229448 15.49868431 26.0805843 16.68895565 28.5390625 17.87890625 C30.10168573 18.63776713 31.66418986 19.39687332 33.2265625 20.15625 C33.96097565 20.51150757 34.69538879 20.86676514 35.45205688 21.23278809 C38.43532564 22.68765567 41.2338703 24.15591353 44 26 C20.56709109 54.20470127 20.56709109 54.20470127 4.9375 56.4375 C2 56 2 56 -0.25 53.875 C-3.9961599 47.72059446 -4.38497149 42.08866159 -4.375 35.0625 C-4.37628906 34.11552246 -4.37757813 33.16854492 -4.37890625 32.19287109 C-4.22122333 21.26436976 -2.22369705 10.67197161 0 0 Z " fill="#D381BD" transform="translate(280,382)"/>
<path d="M0 0 C4.40918603 1.08295797 5.77910933 2.31180278 8.5625 5.875 C9.06197864 8.86188229 9.26600012 11.26639519 9.2265625 14.24609375 C9.23134613 15.04604263 9.23612976 15.84599152 9.24105835 16.67018127 C9.24445101 18.35704522 9.23529272 20.04397548 9.21435547 21.73071289 C9.18761132 24.30179792 9.21410147 26.8685044 9.24609375 29.43945312 C9.24278885 31.0833429 9.23638093 32.72722997 9.2265625 34.37109375 C9.23668365 35.1337706 9.24680481 35.89644745 9.25723267 36.68223572 C9.13294016 42.3932184 7.64342601 44.8750298 3.5625 48.875 C-0.51260954 51.59173969 -3.6511626 51.53665214 -8.4375 50.875 C-11.40923487 49.78725327 -14.00139985 48.28559292 -16.6875 46.625 C-17.368125 46.22925781 -18.04875 45.83351562 -18.75 45.42578125 C-23.67891185 42.51237405 -28.21436416 39.70970376 -31.4375 34.875 C-32.31918895 31.03335531 -32.37561479 27.70948013 -31.4375 23.875 C-28.53219217 20.28057741 -25.07570994 17.68996535 -21.4375 14.875 C-19.76687295 13.21230315 -18.10031312 11.54551133 -16.4375 9.875 C-5.42378494 0.31965272 -5.42378494 0.31965272 0 0 Z " fill="#D4C7DC" transform="translate(410.4375,167.125)"/>
<path d="M0 0 C0 3.49355078 -0.71277875 4.45120022 -2.59765625 7.32421875 C-3.1488916 8.18039795 -3.70012695 9.03657715 -4.26806641 9.91870117 C-5.15631104 11.28925659 -5.15631104 11.28925659 -6.0625 12.6875 C-11.64496068 21.49980213 -16.41092656 30.18644775 -20 40 C-20.27376465 40.71341553 -20.5475293 41.42683105 -20.82958984 42.16186523 C-23.42582082 49.62775449 -23.45844229 56.84294337 -23.375 64.6875 C-23.37167664 65.35263611 -23.36835327 66.01777222 -23.3649292 66.70306396 C-23.30698564 76.57100053 -22.48214484 85.44676937 -20 95 C-19.58098141 97.30841151 -19.18389618 99.62094973 -18.8125 101.9375 C-18.65394531 102.91589844 -18.49539062 103.89429688 -18.33203125 104.90234375 C-18.22246094 105.59457031 -18.11289062 106.28679687 -18 107 C-29.54978126 96.04633648 -34.77895988 79.2177015 -35.33447266 63.64819336 C-35.69811196 42.69074034 -27.45386438 24.87908809 -13.125 9.8125 C-9.14216292 5.91556725 -4.74327771 2.89866971 0 0 Z " fill="#E1B2CC" transform="translate(55,218)"/>
<path d="M0 0 C0.58828318 7.94182292 -1.59799218 13.93506369 -5.625 20.75 C-11.38958869 26.21118928 -18.17326189 30.16658101 -26.1875 30.0625 C-27.53908203 30.04896484 -27.53908203 30.04896484 -28.91796875 30.03515625 C-29.60503906 30.02355469 -30.29210937 30.01195312 -31 30 C-31.8298034 21.70196604 -29.50509634 15.96603003 -25 9 C-18.13588753 1.00754027 -10.14073122 -0.49511708 0 0 Z " fill="#7E407C" transform="translate(166,449)"/>
<path d="M0 0 C7.98850013 -0.51538711 14.48123448 0.67129105 21.046875 5.5078125 C26.16245088 10.2080211 29.64099772 15.7861372 30.23828125 22.796875 C30.24852172 25.21362598 30.1810752 27.5906938 30 30 C22.19127697 30.74764369 16.48388389 29.51478492 10 25 C5.04863746 20.46745572 0.25111243 15.11481952 -0.171875 8.18359375 C-0.18585129 5.44773408 -0.13127173 2.73239685 0 0 Z " fill="#7E407D" transform="translate(177,449)"/>
<path d="M0 0 C-0.93605924 6.99005274 -5.65110381 11.14045719 -11 15.375 C-17.89921699 19.11207587 -24.90718762 20.14392401 -32.5390625 18.4296875 C-37.00205973 17.08370421 -37.00205973 17.08370421 -39 16 C-40 13 -40 13 -39.1015625 10.94921875 C-35.05477744 4.75057179 -30.30735385 -0.15981812 -23.15234375 -2.640625 C-15.22872013 -3.96362568 -7.06265882 -4.03580504 0 0 Z " fill="#7E407C" transform="translate(272,444)"/>
<path d="M0 0 C6.26914593 0.59142886 9.84826894 4.60040439 14 9 C19.41937438 15.57243275 18.76382891 23.90341358 18 32 C17.30410068 34.82348961 16.54550495 36.50341507 15 39 C14.01 39.495 14.01 39.495 13 40 C4.06102321 34.44179007 -1.06784919 29.33019286 -4 19 C-4.91837616 12.30897366 -3.77113041 7.0964869 -1 1 C-0.67 0.67 -0.34 0.34 0 0 Z " fill="#7E407C" transform="translate(282,450)"/>
<path d="M0 0 C3.63366851 10.90100554 -9.89725362 32.74982494 -14.73828125 42.609375 C-17.29177849 47.49203122 -19.79452719 51.41297908 -24 55 C-22.7139435 50.90459679 -21.18666374 47.12376052 -19.27734375 43.28125 C-18.74262451 42.19368408 -18.20790527 41.10611816 -17.65698242 39.9855957 C-17.08955322 38.83534912 -16.52212402 37.68510254 -15.9375 36.5 C-10.09566233 24.53721192 -4.83368768 12.40690925 0 0 Z " fill="#CCBCD3" transform="translate(408,282)"/>
<path d="M0 0 C0.33 0.66 0.66 1.32 1 2 C0.09472656 3.97338867 0.09472656 3.97338867 -1.359375 6.41796875 C-2.16024536 7.78961182 -2.16024536 7.78961182 -2.97729492 9.18896484 C-3.5622876 10.17848145 -4.14728027 11.16799805 -4.75 12.1875 C-10.18874212 21.5512842 -15.06603259 31.05326097 -19.57128906 40.89916992 C-20.20695801 42.27552612 -20.20695801 42.27552612 -20.85546875 43.6796875 C-21.22309326 44.49163574 -21.59071777 45.30358398 -21.96948242 46.14013672 C-23 48 -23 48 -25 49 C-24.56513342 42.24403706 -22.61074818 37.34492999 -19.5 31.375 C-19.05438721 30.50270752 -18.60877441 29.63041504 -18.1496582 28.73168945 C-12.89998268 18.62330132 -6.76360228 9.16359019 0 0 Z " fill="#CEBED5" transform="translate(325,244)"/>
<path d="M0 0 C1.34398284 4.03194851 0.06316889 6.76529918 -1.25 10.625 C-1.46785156 11.31851562 -1.68570312 12.01203125 -1.91015625 12.7265625 C-2.578125 14.7265625 -2.578125 14.7265625 -4 18 C-4.99 18.33 -5.98 18.66 -7 19 C-5.17778624 12.38757278 -2.94776396 6.19479329 0 0 Z " fill="#CAA9CA" transform="translate(408,282)"/>
<path d="M0 0 C0.33 0.66 0.66 1.32 1 2 C0.28735352 3.69580078 0.28735352 3.69580078 -0.87109375 5.6953125 C-1.28037109 6.41074219 -1.68964844 7.12617188 -2.11132812 7.86328125 C-2.54896484 8.60964844 -2.98660156 9.35601562 -3.4375 10.125 C-3.87126953 10.87910156 -4.30503906 11.63320312 -4.75195312 12.41015625 C-5.82748966 14.27757134 -6.91284139 16.13932697 -8 18 C-8.66 17.01 -9.32 16.02 -10 15 C-8.89789095 13.24870343 -7.79322568 11.49901536 -6.6875 9.75 C-6.07261719 8.77546875 -5.45773437 7.8009375 -4.82421875 6.796875 C-3.29524241 4.45266287 -1.71179023 2.21215968 0 0 Z " fill="#C8B5CD" transform="translate(325,244)"/>
<path d="M0 0 C-2.67360368 3.4599577 -5.84953067 4.06972239 -10 5 C-12.9375 5.125 -12.9375 5.125 -15 5 C-12.62383533 2.62383533 -10.64650479 1.95931819 -7.5 0.8125 C-6.5203125 0.44769531 -5.540625 0.08289063 -4.53125 -0.29296875 C-2 -1 -2 -1 0 0 Z " fill="#B3548D" transform="translate(360,446)"/>
<path d="M0 0 C0.33 0 0.66 0 1 0 C0.67 2.97 0.34 5.94 0 9 C-0.99 9.33 -1.98 9.66 -3 10 C-2.01 6.7 -1.02 3.4 0 0 Z " fill="#C1B2C8" transform="translate(404,291)"/>
</svg>
