<?xml version="1.0" encoding="UTF-8"?>
<svg version="1.1" xmlns="http://www.w3.org/2000/svg" width="512" height="512">
<path d="M0 0 C1.45204582 -0.00956978 1.45204582 -0.00956978 2.9334259 -0.01933289 C3.98753159 -0.02044571 5.04163727 -0.02155853 6.12768555 -0.02270508 C7.74274239 -0.02769768 7.74274239 -0.02769768 9.39042664 -0.03279114 C11.67450532 -0.03786597 13.95859146 -0.04019929 16.24267578 -0.04003906 C19.7389756 -0.04222046 23.23495747 -0.06035644 26.73120117 -0.0793457 C28.94669488 -0.0822805 31.16219009 -0.08426472 33.37768555 -0.08520508 C34.94973503 -0.09598335 34.94973503 -0.09598335 36.55354309 -0.10697937 C38.01977364 -0.10236443 38.01977364 -0.10236443 39.515625 -0.09765625 C40.37420609 -0.09908127 41.23278717 -0.10050629 42.11738586 -0.10197449 C45.81026888 0.28912185 47.83671688 1.40012656 50.19018555 4.25073242 C51.8332614 8.02014172 51.77976931 11.43036761 51.6394043 15.45776367 C51.61910156 16.56861328 51.61910156 16.56861328 51.59838867 17.7019043 C51.56326409 19.51667442 51.50946402 21.33106655 51.4519043 23.14526367 C52.0706543 23.22776367 52.6894043 23.31026367 53.3269043 23.39526367 C55.4519043 24.14526367 55.4519043 24.14526367 56.6862793 25.64916992 C57.85172076 29.44874694 57.73998322 33.13207501 57.7019043 37.08276367 C57.71350586 38.280625 57.71350586 38.280625 57.7253418 39.50268555 C57.69879946 47.5118351 57.69879946 47.5118351 55.4519043 51.14526367 C53.37475586 51.77001953 53.37475586 51.77001953 51.4519043 52.14526367 C51.51343404 61.1954706 51.59076516 70.24537078 51.68761921 79.29526901 C51.7321223 83.49866525 51.77142102 87.70196903 51.79833984 91.90551758 C51.82457505 95.97114472 51.86511571 100.03641213 51.91509056 104.10181427 C51.93162394 105.6436944 51.94322162 107.18563655 51.9495182 108.72759247 C52.01129221 122.47969145 53.17269825 135.28140448 62.4519043 146.14526367 C66.26947953 149.42271493 70.33348522 152.26237032 74.4519043 155.14526367 C77.24039053 157.36187391 79.87531407 159.68655665 82.4519043 162.14526367 C83.03327148 162.68924805 83.61463867 163.23323242 84.21362305 163.79370117 C88.27021568 167.968801 91.03454197 172.64246838 93.7019043 177.77026367 C94.03125977 178.38442139 94.36061523 178.9985791 94.69995117 179.63134766 C102.10947283 194.58865659 100.87415044 211.27868108 100.82421875 227.49438477 C100.82499154 230.26176523 100.83025598 233.02913322 100.83528137 235.79650879 C100.84471993 242.50433645 100.83821418 249.21205576 100.82601843 255.91987531 C100.8123337 263.74041156 100.81404183 271.56092259 100.81615176 279.38146777 C100.8193341 293.3361211 100.807715 307.29072319 100.78808594 321.24536133 C100.76906305 334.77272092 100.76200506 348.30002056 100.76757812 361.82739258 C100.77363934 376.58315356 100.77345424 391.33888825 100.76209229 406.09464705 C100.76088507 407.66845107 100.75967908 409.24225509 100.75847435 410.81605911 C100.75787081 411.59028268 100.75726727 412.36450625 100.75664544 413.16219115 C100.75277193 418.60882601 100.75315763 424.05545106 100.7550602 429.50208664 C100.75718468 436.13818632 100.75193827 442.7742336 100.73744664 449.41031854 C100.73021684 452.79364351 100.72718801 456.17682848 100.73069 459.56016922 C100.73391301 463.23073878 100.72482675 466.90107879 100.71260071 470.57162476 C100.71638003 471.63601977 100.72015936 472.70041478 100.7240532 473.79706419 C100.66399993 483.98696173 99.13472972 491.35353533 91.7644043 498.89526367 C85.04219271 504.12556887 75.62382905 503.43851079 67.54150391 503.41992188 C66.38261154 503.42503281 65.22371918 503.43014374 64.02970886 503.43540955 C60.22116856 503.449244 56.4128104 503.44835377 52.60424805 503.44604492 C50.61833698 503.44895048 48.63242585 503.4518613 46.64651591 503.45545167 C40.41194922 503.46651021 34.17744282 503.4670041 27.94287109 503.4609375 C21.52904862 503.45489222 15.11544522 503.46723101 8.7016601 503.48850757 C3.17527055 503.5061605 -2.35104947 503.51211936 -7.87746614 503.50886983 C-11.16965784 503.50706363 -14.46165893 503.51095551 -17.75383186 503.52358437 C-21.4250891 503.53594296 -25.09584049 503.52916056 -28.76708984 503.51757812 C-29.84627686 503.52522186 -30.92546387 503.5328656 -32.03735352 503.54074097 C-39.52484289 503.48862214 -45.49929188 502.78756032 -51.3605957 497.70776367 C-55.30787605 493.08380669 -57.57504001 489.95983496 -57.85827923 483.76235867 C-57.89933672 482.87320406 -57.94039422 481.98404946 -57.98269588 481.06795079 C-58.02125215 480.09882643 -58.05980843 479.12970208 -58.09953308 478.13121033 C-58.14157968 477.10946242 -58.18362627 476.08771452 -58.22694701 475.03500456 C-58.68967272 462.81517567 -58.71188173 450.59712875 -58.72509766 438.37011719 C-58.73138172 435.77202773 -58.73803014 433.17393912 -58.74501038 430.57585144 C-58.76449588 422.86858932 -58.7747918 415.16132639 -58.78373817 407.45404592 C-58.78726661 404.53923678 -58.79140966 401.62442866 -58.79557783 398.70962038 C-58.81399672 385.81940291 -58.82974757 372.92918531 -58.83747578 360.03895664 C-58.83938482 356.90650494 -58.84130532 353.77405324 -58.84326172 350.64160156 C-58.84374546 349.86330154 -58.8442292 349.08500151 -58.8447276 348.28311663 C-58.85304651 335.64681709 -58.87843695 323.01061158 -58.9108424 310.37435318 C-58.94398661 297.34224293 -58.96193002 284.31018054 -58.96512002 271.27802795 C-58.96727521 263.98397835 -58.9758808 256.69006714 -59.00158119 249.39605904 C-59.02567765 242.54297411 -59.02906829 235.69014142 -59.01881981 228.83702278 C-59.01832625 226.33296377 -59.0245931 223.82889219 -59.03837585 221.32487106 C-59.15066197 199.70551178 -57.62518331 179.91389231 -41.9074707 163.45776367 C-36.98749207 158.63553296 -31.98901895 154.12582156 -26.3605957 150.14526367 C-18.52593305 144.35104 -13.89312185 135.95079584 -12.01332092 126.43942261 C-11.51455956 122.9078015 -11.3871943 119.51289366 -11.34277344 115.9465332 C-11.33287384 115.25315353 -11.32297424 114.55977386 -11.31277466 113.84538269 C-11.28140245 111.5729809 -11.25649923 109.30055827 -11.23168945 107.02807617 C-11.2110989 105.44480879 -11.1901019 103.86154664 -11.16871643 102.27828979 C-11.11371261 98.12569439 -11.06420835 93.97305116 -11.01586914 89.82037354 C-10.96549502 85.57706483 -10.90989228 81.33382494 -10.85473633 77.09057617 C-10.74742034 68.77553032 -10.64591721 60.46042662 -10.5480957 52.14526367 C-11.1874707 51.85651367 -11.8268457 51.56776367 -12.4855957 51.27026367 C-14.5480957 50.14526367 -14.5480957 50.14526367 -15.5480957 48.14526367 C-15.81482386 44.50523256 -15.77963289 40.85647768 -15.7980957 37.20776367 C-15.8187207 36.19262695 -15.8393457 35.17749023 -15.8605957 34.1315918 C-15.86833008 32.67076172 -15.86833008 32.67076172 -15.8762207 31.18041992 C-15.88556641 30.28718018 -15.89491211 29.39394043 -15.90454102 28.47363281 C-15.47916768 25.69501263 -14.78561046 24.79820557 -12.5480957 23.14526367 C-11.8880957 23.14526367 -11.2280957 23.14526367 -10.5480957 23.14526367 C-10.60610352 21.97608398 -10.66411133 20.8069043 -10.72387695 19.60229492 C-10.7707902 18.05415787 -10.81628868 16.5059775 -10.8605957 14.95776367 C-10.90249023 14.18883789 -10.94438477 13.41991211 -10.98754883 12.62768555 C-11.08174564 8.2381143 -10.98974383 6.68240329 -8.09106445 3.15698242 C-7.25188477 2.49311523 -6.41270508 1.82924805 -5.5480957 1.14526367 C-3.94178409 -0.46104795 -2.22262896 0.0098952 0 0 Z " fill="#5D4342" transform="translate(250.548095703125,3.854736328125)"/>
<path d="M0 0 C52.14 0 104.28 0 158 0 C158 49.5 158 99 158 150 C105.86 150 53.72 150 0 150 C0 100.5 0 51 0 0 Z " fill="#CEC7AD" transform="translate(193,270)"/>
<path d="M0 0 C52.47 0 104.94 0 159 0 C159 73.86046512 159 73.86046512 150.3125 82.75 C143.59028841 87.9803052 134.17192475 87.29324712 126.08959961 87.2746582 C124.93070724 87.27976913 123.77181488 87.28488007 122.57780457 87.29014587 C118.76926426 87.30398033 114.9609061 87.3030901 111.15234375 87.30078125 C109.16643269 87.30368681 107.18052155 87.30659763 105.19461161 87.310188 C98.96004492 87.32124653 92.72553852 87.32174043 86.4909668 87.31567383 C80.07714433 87.30962855 73.66354092 87.32196734 67.2497558 87.3432439 C61.72336626 87.36089683 56.19704624 87.36685569 50.67062956 87.36360615 C47.37843786 87.36179996 44.08643678 87.36569184 40.79426384 87.37832069 C37.1230066 87.39067929 33.45225521 87.38389689 29.78100586 87.37231445 C28.70181885 87.37995819 27.62263184 87.38760193 26.51074219 87.39547729 C19.02325281 87.34335846 13.04880383 86.64229665 7.1875 81.5625 C-8.79459492 62.84061738 0 18.70603386 0 0 Z " fill="#5A4241" transform="translate(192,420)"/>
<path d="M0 0 C37.29 0 74.58 0 113 0 C113 12.54 113 25.08 113 38 C107.95936075 37.27990868 104.62382336 36.54127445 100 35 C81.71344848 29.55845532 61.21459111 32.9144393 44.4453125 41.2734375 C37.27931495 45.21582521 29.95217732 51.09440977 27 59 C26.16879854 65.86540435 25.66910406 72.97258492 29.5 79 C31.14948371 81.10164573 31.14948371 81.10164573 33 83 C33.58007812 83.62261719 34.16015625 84.24523437 34.7578125 84.88671875 C47.05572339 96.74725624 64.41528919 100.59178646 80.98022461 100.41113281 C88.53712887 100.16111372 95.65534137 98.7909794 103 97 C107.455 96.01 107.455 96.01 112 95 C112 113.15 112 131.3 112 150 C75.04 150 38.08 150 0 150 C0 100.5 0 51 0 0 Z " fill="#F7EFCD" transform="translate(193,270)"/>
<path d="M0 0 C1.45204582 -0.00956978 1.45204582 -0.00956978 2.9334259 -0.01933289 C3.98753159 -0.02044571 5.04163727 -0.02155853 6.12768555 -0.02270508 C7.74274239 -0.02769768 7.74274239 -0.02769768 9.39042664 -0.03279114 C11.67450532 -0.03786597 13.95859146 -0.04019929 16.24267578 -0.04003906 C19.7389756 -0.04222046 23.23495747 -0.06035644 26.73120117 -0.0793457 C28.94669488 -0.0822805 31.16219009 -0.08426472 33.37768555 -0.08520508 C34.94973503 -0.09598335 34.94973503 -0.09598335 36.55354309 -0.10697937 C38.01977364 -0.10236443 38.01977364 -0.10236443 39.515625 -0.09765625 C40.37420609 -0.09908127 41.23278717 -0.10050629 42.11738586 -0.10197449 C45.81026888 0.28912185 47.83671688 1.40012656 50.19018555 4.25073242 C51.8332614 8.02014172 51.77976931 11.43036761 51.6394043 15.45776367 C51.61910156 16.56861328 51.61910156 16.56861328 51.59838867 17.7019043 C51.56326409 19.51667442 51.50946402 21.33106655 51.4519043 23.14526367 C52.0706543 23.22776367 52.6894043 23.31026367 53.3269043 23.39526367 C55.4519043 24.14526367 55.4519043 24.14526367 56.6862793 25.64916992 C57.85172076 29.44874694 57.73998322 33.13207501 57.7019043 37.08276367 C57.71350586 38.280625 57.71350586 38.280625 57.7253418 39.50268555 C57.69879946 47.5118351 57.69879946 47.5118351 55.4519043 51.14526367 C54.1319043 51.47526367 52.8119043 51.80526367 51.4519043 52.14526367 C51.4519043 74.58526367 51.4519043 97.02526367 51.4519043 120.14526367 C30.9919043 120.14526367 10.5319043 120.14526367 -10.5480957 120.14526367 C-10.5480957 97.70526367 -10.5480957 75.26526367 -10.5480957 52.14526367 C-11.8680957 51.48526367 -13.1880957 50.82526367 -14.5480957 50.14526367 C-16.48749873 46.26645762 -15.77650755 41.47412232 -15.7980957 37.20776367 C-15.8187207 36.19262695 -15.8393457 35.17749023 -15.8605957 34.1315918 C-15.86575195 33.15770508 -15.8709082 32.18381836 -15.8762207 31.18041992 C-15.88556641 30.28718018 -15.89491211 29.39394043 -15.90454102 28.47363281 C-15.47916768 25.69501263 -14.78561046 24.79820557 -12.5480957 23.14526367 C-11.8880957 23.14526367 -11.2280957 23.14526367 -10.5480957 23.14526367 C-10.63510742 21.39149414 -10.63510742 21.39149414 -10.72387695 19.60229492 C-10.7707902 18.05415787 -10.81628868 16.5059775 -10.8605957 14.95776367 C-10.90249023 14.18883789 -10.94438477 13.41991211 -10.98754883 12.62768555 C-11.08174564 8.2381143 -10.98974383 6.68240329 -8.09106445 3.15698242 C-7.25188477 2.49311523 -6.41270508 1.82924805 -5.5480957 1.14526367 C-3.94178409 -0.46104795 -2.22262896 0.0098952 0 0 Z " fill="#AB3941" transform="translate(250.548095703125,3.854736328125)"/>
<path d="M0 0 C20.46 0 40.92 0 62 0 C63.32 4.95 64.64 9.9 66 15 C70.7922727 24.38486738 76.48212915 29.03749041 85 35 C87.78848623 37.21661024 90.42340977 39.54129298 93 42 C93.58136719 42.54398438 94.16273438 43.08796875 94.76171875 43.6484375 C99.46304325 48.48710407 108 59.92132135 108 67 C57.51 67 7.02 67 -45 67 C-38.96685161 50.40884193 -29.89552381 39.45950968 -15.21875 29.58984375 C-5.31240598 22.49145992 -2.53691542 11.41611938 0 0 Z " fill="#405E42" transform="translate(240,124)"/>
<path d="M0 0 C0.93328125 0.28875 1.8665625 0.5775 2.828125 0.875 C12.72969023 4.36234373 21.68892402 10.85421213 27 20 C29.79828862 25.97816205 30.13555046 31.79373987 27.9375 38 C22.58389044 49.63828166 14.67856913 55.20666083 3 60 C-17.81668078 67.02087837 -39.19334644 67.5420715 -59.375 58.3125 C-65.40270902 55.05671703 -70.3098817 50.97306876 -75 46 C-75.57105469 45.39671875 -76.14210937 44.7934375 -76.73046875 44.171875 C-80.81370676 38.91055992 -80.78286916 33.09229251 -80.5390625 26.625 C-79.72701398 21.16426791 -77.75930219 17.95388305 -74 14 C-73.34644531 13.30390625 -72.69289062 12.6078125 -72.01953125 11.890625 C-53.19247636 -6.35344276 -23.76229082 -7.60393306 0 0 Z " fill="#A83C3F" transform="translate(299,306)"/>
<path d="M0 0 C52.47 0 104.94 0 159 0 C159 9.9 159 19.8 159 30 C106.86 30 54.72 30 1 30 C1 79.5 1 129 1 180 C0.67 180 0.34 180 0 180 C0 120.6 0 61.2 0 0 Z " fill="#A94144" transform="translate(192,240)"/>
<path d="M0 0 C1.45204582 -0.00956978 1.45204582 -0.00956978 2.9334259 -0.01933289 C3.98753159 -0.02044571 5.04163727 -0.02155853 6.12768555 -0.02270508 C7.74274239 -0.02769768 7.74274239 -0.02769768 9.39042664 -0.03279114 C11.67450532 -0.03786597 13.95859146 -0.04019929 16.24267578 -0.04003906 C19.7389756 -0.04222046 23.23495747 -0.06035644 26.73120117 -0.0793457 C28.94669488 -0.0822805 31.16219009 -0.08426472 33.37768555 -0.08520508 C34.94973503 -0.09598335 34.94973503 -0.09598335 36.55354309 -0.10697937 C38.01977364 -0.10236443 38.01977364 -0.10236443 39.515625 -0.09765625 C40.37420609 -0.09908127 41.23278717 -0.10050629 42.11738586 -0.10197449 C45.81026888 0.28912185 47.83671688 1.40012656 50.19018555 4.25073242 C51.8332614 8.02014172 51.77976931 11.43036761 51.6394043 15.45776367 C51.61910156 16.56861328 51.61910156 16.56861328 51.59838867 17.7019043 C51.56326409 19.51667442 51.50946402 21.33106655 51.4519043 23.14526367 C52.0706543 23.22776367 52.6894043 23.31026367 53.3269043 23.39526367 C55.4519043 24.14526367 55.4519043 24.14526367 56.6862793 25.64916992 C57.85172076 29.44874694 57.73998322 33.13207501 57.7019043 37.08276367 C57.71350586 38.280625 57.71350586 38.280625 57.7253418 39.50268555 C57.69879946 47.5118351 57.69879946 47.5118351 55.4519043 51.14526367 C54.1319043 51.47526367 52.8119043 51.80526367 51.4519043 52.14526367 C51.4519043 74.58526367 51.4519043 97.02526367 51.4519043 120.14526367 C44.8519043 120.14526367 38.2519043 120.14526367 31.4519043 120.14526367 C31.1219043 88.13526367 30.7919043 56.12526367 30.4519043 23.14526367 C16.9219043 23.14526367 3.3919043 23.14526367 -10.5480957 23.14526367 C-10.5480957 0.04696038 -10.5480957 0.04696038 0 0 Z " fill="#9F4541" transform="translate(250.548095703125,3.854736328125)"/>
<path d="M0 0 C6.6 0 13.2 0 20 0 C20 22.44 20 44.88 20 68 C13.4 68 6.8 68 0 68 C0 45.56 0 23.12 0 0 Z " fill="#923941" transform="translate(282,56)"/>
<path d="M0 0 C0.86066574 0.00022659 1.72133148 0.00045319 2.608078 0.00068665 C3.99571098 0.02391243 3.99571098 0.02391243 5.41137695 0.04760742 C6.83665459 0.05397469 6.83665459 0.05397469 8.29072571 0.06047058 C11.32732408 0.07727133 14.36326022 0.11492625 17.3996582 0.15307617 C19.45759133 0.1681212 21.51553485 0.18180992 23.57348633 0.1940918 C28.61996568 0.22717947 33.66594964 0.27897155 38.7121582 0.34057617 C39.64188378 10.03628571 39.82453198 19.61400165 39.7121582 29.34057617 C33.50086122 29.43935513 27.29002002 29.51200249 21.078125 29.56030273 C18.96443723 29.58043464 16.85080527 29.60774261 14.73730469 29.64233398 C11.70143885 29.69078244 8.66630842 29.71352894 5.63012695 29.73120117 C4.2096833 29.76216888 4.2096833 29.76216888 2.76054382 29.79376221 C-3.72853285 29.79598832 -3.72853285 29.79598832 -6.3828125 27.63476562 C-7.41616779 25.01527825 -7.67546987 23.05928952 -7.6862793 20.24291992 C-7.69014648 19.27676758 -7.69401367 18.31061523 -7.69799805 17.31518555 C-7.68639648 16.31293945 -7.67479492 15.31069336 -7.6628418 14.27807617 C-7.67444336 13.27196289 -7.68604492 12.26584961 -7.69799805 11.22924805 C-7.69413086 10.26438477 -7.69026367 9.29952148 -7.6862793 8.30541992 C-7.68289551 7.42490967 -7.67951172 6.54439941 -7.67602539 5.63720703 C-6.91287838 1.12216052 -4.3091352 -0.03791028 0 0 Z " fill="#BC4843" transform="translate(242.287841796875,26.659423828125)"/>
<path d="M0 0 C15.18 0 30.36 0 46 0 C46.020625 4.0425 46.04125 8.085 46.0625 12.25 C46.071604 13.51875977 46.08070801 14.78751953 46.09008789 16.09472656 C46.09258545 17.09987305 46.09508301 18.10501953 46.09765625 19.140625 C46.10289307 20.16704102 46.10812988 21.19345703 46.11352539 22.25097656 C46 25 46 25 45 29 C30.15 29 15.3 29 0 29 C0 19.43 0 9.86 0 0 Z " fill="#8F3B3E" transform="translate(305,240)"/>
<path d="M0 0 C1.51815699 0.00015911 3.0363194 0.00585313 4.55444336 0.01586914 C5.35208603 0.01728409 6.1497287 0.01869904 6.97154236 0.02015686 C9.52916146 0.02577223 12.08669429 0.03832727 14.64428711 0.05102539 C16.37410356 0.05603841 18.10392137 0.06060166 19.83374023 0.06469727 C24.0831495 0.07489748 28.33237127 0.09446971 32.58178711 0.11352539 C32.25178711 7.70352539 31.92178711 15.29352539 31.58178711 23.11352539 C18.05178711 23.11352539 4.52178711 23.11352539 -9.41821289 23.11352539 C-9.41821289 0.31279687 -9.41821289 0.31279687 0 0 Z " fill="#AC3842" transform="translate(249.418212890625,3.886474609375)"/>
<path d="M0 0 C4.22230798 1.05557699 6.48727899 2.49091357 10 5 C10.845625 5.598125 11.69125 6.19625 12.5625 6.8125 C18.45670632 12.10217234 21.85495087 18.15505959 22.5 26.125 C22.30656419 33.28212493 18.73500387 39.97710099 13.99609375 45.21484375 C5.32214588 53 5.32214588 53 0 53 C0 35.51 0 18.02 0 0 Z " fill="#903C3F" transform="translate(306,310)"/>
<path d="M0 0 C1.15113281 -0.01417969 2.30226563 -0.02835937 3.48828125 -0.04296875 C6.61664158 0.18239543 8.18749125 0.34974522 10.6875 2.1875 C14.11659812 6.34094693 14.05304047 10.35153169 13.875 15.5 C13.813125 18.036875 13.75125 20.57375 13.6875 23.1875 C6.7575 23.1875 -0.1725 23.1875 -7.3125 23.1875 C-7.33932987 19.54161831 -7.35925569 15.89593154 -7.375 12.25 C-7.38337891 11.20908203 -7.39175781 10.16816406 -7.40039062 9.09570312 C-7.40522461 7.61166992 -7.40522461 7.61166992 -7.41015625 6.09765625 C-7.41539307 5.18121338 -7.42062988 4.26477051 -7.42602539 3.32055664 C-7.18626378 -1.18438353 -3.77324893 0.02098581 0 0 Z " fill="#933841" transform="translate(288.3125,3.8125)"/>
</svg>
