<?xml version="1.0" encoding="UTF-8"?>
<!DOCTYPE svg PUBLIC "-//W3C//DTD SVG 1.1//EN" "http://www.w3.org/Graphics/SVG/1.1/DTD/svg11.dtd">
<svg xmlns="http://www.w3.org/2000/svg" version="1.1" width="512px" height="512px" style="shape-rendering:geometricPrecision; text-rendering:geometricPrecision; image-rendering:optimizeQuality; fill-rule:evenodd; clip-rule:evenodd" xmlns:xlink="http://www.w3.org/1999/xlink">
<g><path style="opacity:0.993" fill="#2c8645" d="M 140.5,-0.5 C 143.167,-0.5 145.833,-0.5 148.5,-0.5C 146.081,1.14354 143.914,3.14354 142,5.5C 114.549,77.3484 106.215,151.348 117,227.5C 128.189,278.232 143.689,327.566 163.5,375.5C 144.656,367.826 125.989,359.66 107.5,351C 97.8617,346.033 89.3617,339.533 82,331.5C 79.0775,325.675 78.7441,319.675 81,313.5C 87.2174,302.62 94.2174,292.286 102,282.5C 105.102,275.127 103.268,268.96 96.5,264C 80.8335,255.169 65.5001,245.836 50.5,236C 34.9245,221.832 33.5912,206.499 46.5,190C 50.2707,187.781 54.2707,186.115 58.5,185C 66.8333,183.333 75.1667,181.667 83.5,180C 89.3762,178.742 91.5429,175.242 90,169.5C 89.0656,165.363 87.7322,161.363 86,157.5C 77.4942,143.826 69.4942,129.826 62,115.5C 55.0896,94.4806 61.9229,79.6472 82.5,71C 87.3634,68.9344 92.3634,67.2678 97.5,66C 98.6667,64.8333 99.8333,63.6667 101,62.5C 104.287,52.6851 106.954,42.6851 109,32.5C 113.313,15.3585 123.813,4.35852 140.5,-0.5 Z"/></g>
<g><path style="opacity:0.995" fill="#acd384" d="M 148.5,-0.5 C 151.5,-0.5 154.5,-0.5 157.5,-0.5C 158.833,0.5 160.167,1.5 161.5,2.5C 161.685,4.19578 162.519,5.52912 164,6.5C 164.667,10.1667 164.667,13.8333 164,17.5C 137.688,88.0209 131.021,160.354 144,234.5C 152.648,269.778 163.315,304.445 176,338.5C 179.744,348.976 184.244,358.976 189.5,368.5C 197.287,386.075 206.12,403.075 216,419.5C 232.261,444.358 249.261,468.691 267,492.5C 270.079,500.765 267.913,507.098 260.5,511.5C 257.167,511.5 253.833,511.5 250.5,511.5C 215.055,470.689 186.055,425.356 163.5,375.5C 143.689,327.566 128.189,278.232 117,227.5C 106.215,151.348 114.549,77.3484 142,5.5C 143.914,3.14354 146.081,1.14354 148.5,-0.5 Z"/></g>
<g><path style="opacity:0.993" fill="#2c8645" d="M 161.5,2.5 C 170.09,6.59243 175.59,13.2591 178,22.5C 178.313,32.0282 177.813,41.5282 176.5,51C 176.175,60.3625 180.175,67.0292 188.5,71C 196.274,72.1072 203.608,74.4405 210.5,78C 216.527,84.9028 218.027,92.7361 215,101.5C 211.869,105.633 208.369,109.466 204.5,113C 190.769,122.394 176.769,131.394 162.5,140C 157.975,143.512 154.642,147.845 152.5,153C 153.64,156.915 156.306,158.915 160.5,159C 171.944,159.521 183.278,160.854 194.5,163C 205.612,167.06 210.112,174.893 208,186.5C 206.527,190.779 204.527,194.779 202,198.5C 192.333,209.5 182,219.833 171,229.5C 168.565,235.433 170.398,239.6 176.5,242C 183.464,243.197 190.464,244.197 197.5,245C 217.375,251.247 224.209,264.414 218,284.5C 212.527,296.779 206.527,308.779 200,320.5C 194.036,335.948 190.536,351.948 189.5,368.5C 184.244,358.976 179.744,348.976 176,338.5C 163.315,304.445 152.648,269.778 144,234.5C 131.021,160.354 137.688,88.0209 164,17.5C 164.667,13.8333 164.667,10.1667 164,6.5C 162.519,5.52912 161.685,4.19578 161.5,2.5 Z"/></g>
<g><path style="opacity:0.995" fill="#acd384" d="M 446.5,80.5 C 429.563,96.0463 414.73,113.38 402,132.5C 381.537,161.743 363.87,192.743 349,225.5C 328.068,279.509 316.901,335.509 315.5,393.5C 314.12,424.193 314.286,454.86 316,485.5C 312.13,494.399 305.63,496.899 296.5,493C 292.044,489.646 289.877,485.146 290,479.5C 288.237,451.17 288.071,422.837 289.5,394.5C 291.932,345.753 299.765,297.753 313,250.5C 327.313,208.875 346.646,169.875 371,133.5C 385.755,110.242 402.589,88.5748 421.5,68.5C 429.323,59.6678 437.489,59.3345 446,67.5C 447.688,71.8245 447.854,76.1578 446.5,80.5 Z"/></g>
<g><path style="opacity:0.99" fill="#6d9d48" d="M 421.5,68.5 C 402.589,88.5748 385.755,110.242 371,133.5C 346.646,169.875 327.313,208.875 313,250.5C 299.765,297.753 291.932,345.753 289.5,394.5C 273.336,382.167 260.169,367.167 250,349.5C 246.537,344.551 246.203,339.551 249,334.5C 258.778,325.728 267.445,316.061 275,305.5C 280.888,293.221 280.888,280.888 275,268.5C 268.784,256.07 263.118,243.403 258,230.5C 254.827,221.809 254.827,213.142 258,204.5C 262.964,195.402 270.131,192.902 279.5,197C 285.799,202.065 292.632,206.232 300,209.5C 309.211,205.209 312.211,198.209 309,188.5C 303.103,176.27 296.77,164.27 290,152.5C 283.972,140.524 285.805,130.024 295.5,121C 300.879,117.588 306.545,116.922 312.5,119C 320.946,122.054 328.612,126.387 335.5,132C 338.298,133.914 341.298,134.914 344.5,135C 347.273,132.617 349.439,129.783 351,126.5C 352.21,117.894 352.877,109.227 353,100.5C 357.245,81.5943 369.079,71.0943 388.5,69C 399.536,67.3238 410.536,67.1571 421.5,68.5 Z"/></g>
<g><path style="opacity:0.99" fill="#6d9d48" d="M 446.5,80.5 C 461.272,92.0323 467.772,107.032 466,125.5C 463.833,130.333 460.333,133.833 455.5,136C 446.055,137.955 436.721,140.288 427.5,143C 419.58,147.693 415.413,154.527 415,163.5C 416.167,166 418,167.833 420.5,169C 430.788,170.662 441.121,171.996 451.5,173C 469.722,174.843 476.222,184.343 471,201.5C 467.323,205.423 462.823,207.923 457.5,209C 437.199,211.569 416.866,213.903 396.5,216C 386.218,217.105 379.551,222.439 376.5,232C 377.361,234.868 379.028,237.202 381.5,239C 390.01,242.726 398.677,246.059 407.5,249C 419.827,256.134 422.993,266.301 417,279.5C 412.834,283.999 407.667,286.499 401.5,287C 389.43,287.267 377.43,288.267 365.5,290C 359.662,291.167 354.829,294 351,298.5C 350.245,301.303 350.578,303.97 352,306.5C 359.379,314.877 366.379,323.544 373,332.5C 375.737,339.508 374.737,345.841 370,351.5C 354.239,368.778 336.073,382.778 315.5,393.5C 316.901,335.509 328.068,279.509 349,225.5C 363.87,192.743 381.537,161.743 402,132.5C 414.73,113.38 429.563,96.0463 446.5,80.5 Z"/></g>
</svg>
