<?xml version="1.0" encoding="UTF-8"?>
<svg version="1.1" xmlns="http://www.w3.org/2000/svg" width="512" height="512">
<path d="M0 0 C0.44101648 1.83958242 0.80029354 3.69886786 1.125 5.5625 C6.95708799 32.26115405 29.61043245 54.4478495 50.34375 70.8515625 C54.19874717 73.96957492 57.81938162 77.32525663 61.46484375 80.68359375 C63.52643053 82.56729323 65.61720066 84.38636708 67.75 86.1875 C77.11712215 94.40056193 85.9916318 103.129538 93.375 113.1875 C93.83302002 113.81076172 94.29104004 114.43402344 94.76293945 115.07617188 C97.91448768 119.52484193 97.91448768 119.52484193 98.4140625 122.30078125 C98.60742188 122.86152344 98.80078125 123.42226562 99 124 C100.97167413 124.74628787 102.98122278 125.39256032 105 126 C121.94224901 134.16726449 138.10684077 145.92895138 149.95703125 160.6328125 C153.05115006 164.30560629 156.55198028 166.50779548 160.6875 168.875 C167.65111466 173.04758514 173.89075376 177.63184428 180 183 C180.83917969 183.71800781 181.67835938 184.43601563 182.54296875 185.17578125 C203.19236186 203.1999802 217.6221875 225.47379111 221 253 C222.35459999 277.38279989 215.0105993 300.06567052 199.56640625 318.98046875 C197.42351326 321.36908977 195.22076131 323.68418665 193 326 C192.03397599 327.18125215 191.0749471 328.36828079 190.125 329.5625 C186.02144895 334.37628104 180.96890204 338.12660392 176 342 C175.05898438 342.74507813 174.11796875 343.49015625 173.1484375 344.2578125 C165.46651318 350.2004332 157.41636871 355.19377022 149 360 C147.87464844 360.65742188 146.74929688 361.31484375 145.58984375 361.9921875 C108.23071077 382.96721368 65.18507905 391.68261602 23 396 C22.16001465 396.08620605 21.3200293 396.17241211 20.45458984 396.26123047 C15.6389114 396.72149586 10.83433114 396.91945867 6 397 C4.88786133 397.02046387 3.77572266 397.04092773 2.62988281 397.06201172 C-73.1029062 398.23653972 -152.71115364 382.79665628 -210 330 C-227.88295899 312.6405791 -240.48676384 288.35645126 -241.28564453 263.2722168 C-241.65336197 235.5830933 -229.34928817 212.95769911 -211 193 C-210.03707031 191.91332031 -210.03707031 191.91332031 -209.0546875 190.8046875 C-200.42877652 181.55987708 -189.47786392 173.99363858 -178.6875 167.5 C-172.9726389 164.02448425 -168.79184961 159.88149145 -164.39282227 154.87597656 C-155.69201877 145.00399437 -145.15960242 137.81279099 -134 131 C-132.62134766 130.13181641 -132.62134766 130.13181641 -131.21484375 129.24609375 C-129 128 -129 128 -127 128 C-127.33 127.01 -127.66 126.02 -128 125 C-129.92685985 101.89894365 -124.18667398 81.35854803 -109.71875 63.125 C-94.4910502 45.29744901 -76.74709314 32.65727104 -56 22 C-55.1632373 21.56864746 -54.32647461 21.13729492 -53.46435547 20.69287109 C-41.31851844 14.50357851 -28.87801773 9.19992272 -16.1875 4.25 C-15.49371246 3.97730286 -14.79992493 3.70460571 -14.08511353 3.42364502 C-12.11622457 2.65316825 -10.14323171 1.89458872 -8.16796875 1.140625 C-7.02610107 0.70266602 -5.8842334 0.26470703 -4.70776367 -0.18652344 C-2 -1 -2 -1 0 0 Z " fill="#DBD8DD" transform="translate(266,58)"/>
<path d="M0 0 C0.44101648 1.83958242 0.80029354 3.69886786 1.125 5.5625 C6.95708799 32.26115405 29.61043245 54.4478495 50.34375 70.8515625 C54.19874717 73.96957492 57.81938162 77.32525663 61.46484375 80.68359375 C63.52643053 82.56729323 65.61720066 84.38636708 67.75 86.1875 C79.54979403 96.53352064 93.00501515 108.55897326 99.3984375 123.203125 C101.4910074 126.85746658 103.63271484 127.81635742 107.375 129.6875 C115.16827324 133.8247828 121.58558638 138.97453625 128 145 C129.25296875 146.16982422 129.25296875 146.16982422 130.53125 147.36328125 C141.35318145 158.38905045 146.33349141 171.66217156 146.3828125 186.91625977 C146.07610351 202.82519135 136.81315574 214.81122125 125.89160156 225.58789062 C95.19983018 254.56934284 44.99858252 266.02344806 3.859375 266.203125 C2.81589905 266.20882507 1.7724231 266.21452515 0.69732666 266.22039795 C-1.50450648 266.22979364 -3.70635334 266.23636015 -5.90820312 266.24023438 C-9.19948463 266.24985238 -12.49011682 266.28089248 -15.78125 266.3125 C-34.87007737 266.4069916 -53.39471606 264.28755761 -72 260 C-73.05936768 259.75709229 -73.05936768 259.75709229 -74.14013672 259.50927734 C-105.65967475 252.14133871 -140.28431135 238.41126918 -159 210.4375 C-160.03988093 208.64758271 -161.04236857 206.83523794 -162 205 C-162.43183594 204.175 -162.86367187 203.35 -163.30859375 202.5 C-167.73508153 192.45233223 -167.86301203 178.58078915 -164.0234375 168.27734375 C-163.51683594 167.15005859 -163.51683594 167.15005859 -163 166 C-162.62101562 165.13503906 -162.24203125 164.27007812 -161.8515625 163.37890625 C-155.56111031 150.56165541 -142.69432248 137.08914514 -129.65234375 130.8828125 C-127.63387825 130.04784535 -127.63387825 130.04784535 -127 127 C-127.33 126.34 -127.66 125.68 -128 125 C-130.03186159 101.9432754 -124.14216193 81.30245065 -109.71875 63.125 C-94.4910502 45.29744901 -76.74709314 32.65727104 -56 22 C-55.1632373 21.56864746 -54.32647461 21.13729492 -53.46435547 20.69287109 C-41.31851844 14.50357851 -28.87801773 9.19992272 -16.1875 4.25 C-15.49371246 3.97730286 -14.79992493 3.70460571 -14.08511353 3.42364502 C-12.11622457 2.65316825 -10.14323171 1.89458872 -8.16796875 1.140625 C-7.02610107 0.70266602 -5.8842334 0.26470703 -4.70776367 -0.18652344 C-2 -1 -2 -1 0 0 Z " fill="#EBEAEB" transform="translate(266,58)"/>
<path d="M0 0 C5.59513491 4.06242508 10.8881021 8.3443364 16 13 C16.56332031 13.48597656 17.12664062 13.97195312 17.70703125 14.47265625 C30.92680196 26.57787955 38.47736701 43.37500166 40 61 C40.12568359 62.27810547 40.12568359 62.27810547 40.25390625 63.58203125 C41.11426506 80.31739786 32.31115576 95.57046323 22 108 C21.47921875 108.74121094 20.9584375 109.48242188 20.421875 110.24609375 C19.95265625 110.82488281 19.4834375 111.40367187 19 112 C18.34 112 17.68 112 17 112 C16.773125 112.57105469 16.54625 113.14210938 16.3125 113.73046875 C1.85798693 138.72473094 -47.27592275 153.65580596 -73.03320312 160.55688477 C-85.35237948 163.69446301 -97.79730068 165.78841097 -110.37011719 167.61376953 C-112.59691316 167.94080176 -114.818335 168.2868418 -117.0390625 168.65234375 C-127.8536856 170.42036686 -138.62663304 171.15479036 -149.578125 171.2734375 C-150.65176804 171.28592026 -151.72541107 171.29840302 -152.83158875 171.31126404 C-179.60759472 171.5617208 -205.59426707 170.56346623 -232 166 C-233.1535498 165.80245117 -234.30709961 165.60490234 -235.49560547 165.40136719 C-270.50619523 159.13032884 -306.8121209 146.16854881 -335 124 C-335.56444824 123.56042969 -336.12889648 123.12085938 -336.71044922 122.66796875 C-353.56718767 109.40803507 -367.03740317 91.79031504 -370 70 C-370.55147647 61.14456059 -369.97775096 53.36433299 -367 45 C-366.68289063 44.05769531 -366.36578125 43.11539063 -366.0390625 42.14453125 C-359.80300147 25.40446672 -346.45426881 9.89791235 -331 1 C-332.27654492 5.00693266 -333.76962628 8.79496548 -335.5 12.625 C-341.82533871 27.77595879 -341.89648433 44.68008913 -336 60 C-332.00535766 69.25779119 -326.78299994 77.52485721 -320 85 C-319.27425781 85.80695313 -318.54851562 86.61390625 -317.80078125 87.4453125 C-301.36118598 104.78161297 -279.94667031 115.36725247 -258 124 C-257.01902344 124.39832031 -256.03804688 124.79664063 -255.02734375 125.20703125 C-193.93116264 148.90895004 -116.65724919 143.92293313 -57.31640625 117.97265625 C-46.839381 113.26383357 -37.26085534 107.79148336 -28 101 C-26.63294922 99.99839844 -26.63294922 99.99839844 -25.23828125 98.9765625 C-13.73914981 90.13107678 -5.22774447 80.44454391 2 68 C2.7734375 66.71996094 2.7734375 66.71996094 3.5625 65.4140625 C11.68986769 50.85252872 11.69978351 33.56164092 7.2890625 17.89453125 C5.79428262 13.07523695 3.60142003 8.67188688 1.171875 4.2578125 C0 2 0 2 0 0 Z " fill="#ECECEC" transform="translate(421,227)"/>
</svg>
