<?xml version="1.0" encoding="UTF-8"?>
<!DOCTYPE svg PUBLIC "-//W3C//DTD SVG 1.1//EN" "http://www.w3.org/Graphics/SVG/1.1/DTD/svg11.dtd">
<svg xmlns="http://www.w3.org/2000/svg" version="1.1" width="512px" height="512px" style="shape-rendering:geometricPrecision; text-rendering:geometricPrecision; image-rendering:optimizeQuality; fill-rule:evenodd; clip-rule:evenodd" xmlns:xlink="http://www.w3.org/1999/xlink">
<g><path style="opacity:1" fill="#ef4a36" d="M 251.5,47.5 C 301.285,54.485 336.785,80.8183 358,126.5C 375.437,173.928 368.77,217.595 338,257.5C 322.582,275.205 303.916,288.205 282,296.5C 259.642,238.825 217.476,209.325 155.5,208C 207.635,215.14 243.802,242.974 264,291.5C 280.724,347.649 267.557,395.483 224.5,435C 203.722,450.893 180.388,460.393 154.5,463.5C 93.0746,465.719 49.5746,439.052 24,383.5C 4.80634,326.106 17.3063,276.939 61.5,236C 77.3128,223 95.3128,214.5 115.5,210.5C 102.731,152.961 119.398,106.128 165.5,70C 191.465,52.5079 220.131,45.0079 251.5,47.5 Z"/></g>
<g><path style="opacity:0.984" fill="#d7322d" d="M 251.5,47.5 C 306.585,47.4494 346.751,71.7828 372,120.5C 383.994,148.566 386.827,177.566 380.5,207.5C 436.26,215.426 473.093,246.093 491,299.5C 503.934,353.022 490.101,398.189 449.5,435C 424.107,455.186 395.107,464.686 362.5,463.5C 415.428,456.413 451.928,428.08 472,378.5C 490.534,313.769 472.034,262.602 416.5,225C 404.817,218.491 392.484,213.658 379.5,210.5C 363.018,257.647 330.684,287.98 282.5,301.5C 291.608,336.135 287.441,369.135 270,400.5C 265.147,407.558 260.314,414.558 255.5,421.5C 228.271,450.604 194.604,464.604 154.5,463.5C 180.388,460.393 203.722,450.893 224.5,435C 267.557,395.483 280.724,347.649 264,291.5C 243.802,242.974 207.635,215.14 155.5,208C 217.476,209.325 259.642,238.825 282,296.5C 303.916,288.205 322.582,275.205 338,257.5C 368.77,217.595 375.437,173.928 358,126.5C 336.785,80.8183 301.285,54.485 251.5,47.5 Z"/></g>
<g><path style="opacity:1" fill="#fe8571" d="M 204.5,99.5 C 216.431,100.246 219.431,105.746 213.5,116C 207.376,120.043 202.542,118.876 199,112.5C 198.333,109.833 198.333,107.167 199,104.5C 200.73,102.598 202.563,100.931 204.5,99.5 Z"/></g>
<g><path style="opacity:1" fill="#fe8571" d="M 282.5,167.5 C 298.677,167.167 305.177,174.833 302,190.5C 296.109,199.573 288.276,201.74 278.5,197C 271.203,190.662 269.703,183.162 274,174.5C 276.441,171.546 279.275,169.213 282.5,167.5 Z"/></g>
<g><path style="opacity:1" fill="#fe826e" d="M 218.5,190.5 C 224.704,190.314 226.037,192.814 222.5,198C 216.95,197.635 215.617,195.135 218.5,190.5 Z"/></g>
<g><path style="opacity:1" fill="#ef4a37" d="M 362.5,463.5 C 320.183,465.959 284.516,451.959 255.5,421.5C 260.314,414.558 265.147,407.558 270,400.5C 287.441,369.135 291.608,336.135 282.5,301.5C 330.684,287.98 363.018,257.647 379.5,210.5C 392.484,213.658 404.817,218.491 416.5,225C 472.034,262.602 490.534,313.769 472,378.5C 451.928,428.08 415.428,456.413 362.5,463.5 Z"/></g>
<g><path style="opacity:1" fill="#fe8571" d="M 160.5,244.5 C 169.53,244.359 173.363,248.692 172,257.5C 169.571,262.202 165.738,264.035 160.5,263C 155.268,260.367 153.435,256.201 155,250.5C 156.36,247.977 158.193,245.977 160.5,244.5 Z"/></g>
<g><path style="opacity:1" fill="#fe8571" d="M 394.5,282.5 C 404.859,282.014 408.692,286.681 406,296.5C 402.146,300.671 397.646,301.504 392.5,299C 386.744,292.633 387.411,287.133 394.5,282.5 Z"/></g>
<g><path style="opacity:1" fill="#fe826e" d="M 212.5,308.5 C 217.805,309.241 219.139,311.741 216.5,316C 210.202,316.495 208.868,313.995 212.5,308.5 Z"/></g>
<g><path style="opacity:1" fill="#fe826e" d="M 335.5,314.5 C 342.564,314.352 343.897,316.852 339.5,322C 334.632,321.711 333.299,319.211 335.5,314.5 Z"/></g>
<g><path style="opacity:1" fill="#fe8571" d="M 51.5,316.5 C 68.2389,317.33 74.0722,325.663 69,341.5C 62.7052,348.914 55.2052,350.414 46.5,346C 37.5361,337.66 37.2027,328.993 45.5,320C 47.7274,319.059 49.7274,317.892 51.5,316.5 Z"/></g>
<g><path style="opacity:1" fill="#fe8571" d="M 127.5,322.5 C 140.174,322.349 143.507,327.849 137.5,339C 126.431,342.891 121.598,339.058 123,327.5C 124.366,325.638 125.866,323.972 127.5,322.5 Z"/></g>
<g><path style="opacity:1" fill="#fe8571" d="M 230.5,340.5 C 240.342,339.844 246.842,344.178 250,353.5C 249.604,369.223 241.771,375.056 226.5,371C 218.185,364.799 216.352,356.966 221,347.5C 223.825,344.524 226.992,342.191 230.5,340.5 Z"/></g>
<g><path style="opacity:1" fill="#fe8571" d="M 448.5,358.5 C 455.928,357.039 460.595,359.872 462.5,367C 461.12,375.027 456.453,378.027 448.5,376C 441.889,370.133 441.889,364.299 448.5,358.5 Z"/></g>
<g><path style="opacity:1" fill="#fe8671" d="M 337.5,396.5 C 353.206,397.366 359.039,405.366 355,420.5C 348.799,428.815 340.966,430.648 331.5,426C 320.917,413.586 322.917,403.753 337.5,396.5 Z"/></g>
<g><path style="opacity:1" fill="#fd826e" d="M 108.5,399.5 C 114.488,399.664 115.821,402.164 112.5,407C 106.403,407.147 105.07,404.647 108.5,399.5 Z"/></g>
</svg>
