<?xml version="1.0" encoding="UTF-8"?>
<svg version="1.1" xmlns="http://www.w3.org/2000/svg" width="512" height="512">
<path d="M0 0 C1.0504248 0.29422852 2.10084961 0.58845703 3.18310547 0.89160156 C12.34436265 3.45972406 12.34436265 3.45972406 16.21166992 4.58813477 C26.00759946 7.41525558 35.46449531 9.37701753 45.6875 9.3125 C47.02808472 9.31056641 47.02808472 9.31056641 48.39575195 9.30859375 C55.24997626 9.21375021 61.90701677 8.46147007 68.6875 7.5 C77.41181152 6.28238895 86.0013252 5.64327278 94.8125 5.5625 C95.86719482 5.54058594 96.92188965 5.51867188 98.00854492 5.49609375 C115.50681236 5.54057263 125.43566019 15.14821345 137.12011719 26.87841797 C141.69986464 31.55209234 145.94013428 36.33739441 149.98828125 41.48046875 C152.80403322 45.00699307 155.83518866 48.31939432 158.87109375 51.65625 C160.83201684 53.81506441 162.76704085 55.99268954 164.6875 58.1875 C165.53828125 59.15429688 165.53828125 59.15429688 166.40625 60.140625 C167.41314261 61.31533304 168.39616234 62.51132581 169.34375 63.734375 C175.36672075 71.36814025 183.11454047 78.04215301 192.8984375 79.4296875 C197.11040675 80.57271261 200.2405027 83.72855976 203 87 C205.47711278 91.35084148 206.50738925 95.07243752 207.22265625 100.0078125 C208.99952857 110.70021274 212.79858797 120.70134245 216.4375 130.875 C221.16932281 144.12410388 225.47188787 157.13896414 228 171 C228.33076538 172.78083984 228.33076538 172.78083984 228.66821289 174.59765625 C230.20965544 184.01211605 230.39918348 193.3599014 230.375 202.875 C230.37418427 204.08905518 230.37418427 204.08905518 230.37335205 205.32763672 C230.330687 219.20162903 229.23978882 232.46736487 226 246 C225.68651611 247.33490479 225.68651611 247.33490479 225.36669922 248.69677734 C213.93742291 295.86073478 183.39596855 337.19164528 144 365 C143.37561035 365.44778809 142.7512207 365.89557617 142.10791016 366.35693359 C125.03399994 378.53314845 106.57453716 386.69740368 87 394 C84.42426114 394.96731215 81.85015837 395.93834613 79.27954102 396.91918945 C77.77508998 397.49302312 76.26794866 398.05987931 74.75756836 398.61791992 C68.32722947 401.06263224 62.81259966 404.08389709 59 410 C56.70947977 415.20370616 55.65275507 420.63071607 54.5625 426.1875 C52.831696 434.4846532 49.90915274 438.98747743 43 444 C38.14469152 446.41049338 34.40572614 447.37942058 28.99829102 447.40405273 C28.0065387 447.41434761 28.0065387 447.41434761 26.99475098 447.42485046 C24.83091136 447.44300193 22.66780491 447.43929809 20.50390625 447.43359375 C18.98607654 447.43816121 17.46824888 447.44346846 15.95042419 447.44947815 C12.77732921 447.45838637 9.60448623 447.45601249 6.43139648 447.44604492 C2.38187346 447.4345585 -1.66677709 447.4547725 -5.71618557 447.48396206 C-8.84851021 447.50238193 -11.98062798 447.50202017 -15.11299324 447.49632454 C-16.60520718 447.49617203 -18.09743576 447.50215797 -19.5895977 447.51461601 C-29.27954554 447.58412984 -36.00678545 447.08535736 -43.75 440.75 C-48.61301717 434.80631234 -50.15586553 429.64175279 -51.3125 422.1875 C-52.52272895 414.57303254 -55.22759312 409.12715464 -60 403 C-60.54785156 402.14277344 -61.09570312 401.28554688 -61.66015625 400.40234375 C-64.98077175 396.99303068 -68.5192019 396.11822841 -73 394.75 C-104.24228943 384.48630821 -132.06383498 367.51060394 -156 345 C-156.83772949 344.21326904 -156.83772949 344.21326904 -157.69238281 343.41064453 C-186.46659353 316.16104906 -206.44338985 280.71202788 -215 242 C-215.24556641 240.97011963 -215.24556641 240.97011963 -215.49609375 239.91943359 C-224.03513786 203.19625112 -216.89055973 163.17612385 -203.91650391 128.50195312 C-201.85075151 122.92765599 -200.44652029 118.13540839 -201.75 112.25 C-201.93820313 111.38761719 -202.12640625 110.52523437 -202.3203125 109.63671875 C-202.98312454 107.06546513 -203.78437396 104.58037512 -204.625 102.0625 C-206.87804473 94.74010464 -207.20479942 86.920556 -204.11328125 79.78515625 C-201.19925296 75.11248632 -196.36757363 71.27799372 -191 70 C-185.79614604 69.34696735 -182.25835852 69.68280463 -177.6875 72.3125 C-174.84292832 73.67848193 -173.49363076 74.09287571 -170.36328125 73.50390625 C-157.26615318 68.34009996 -145.19028229 59.85510262 -133.453125 52.18383789 C-128.28786363 48.81253162 -123.07413472 45.53132332 -117.8125 42.3125 C-117.05880127 41.85109619 -116.30510254 41.38969238 -115.52856445 40.91430664 C-112.13414501 38.85120591 -108.72984622 36.82691246 -105.24609375 34.91796875 C-96.38436687 30.05639568 -88.77382171 24.3934821 -81 18 C-54.32486179 -3.85359166 -33.49807942 -9.47983698 0 0 Z " fill="#A0D177" transform="translate(250,41)"/>
<path d="M0 0 C3.37009005 2.09230666 4.77867104 3.35210977 6.07421875 7.14453125 C6.37779297 8.96017578 6.37779297 8.96017578 6.6875 10.8125 C6.89761719 11.99457031 7.10773438 13.17664063 7.32421875 14.39453125 C7.42677979 15.09562012 7.52934082 15.79670898 7.63500977 16.51904297 C7.90289293 18.33993173 8.20221839 20.15626705 8.51928711 21.96923828 C10.31691012 33.27108612 10.27062235 44.4831941 10.20581055 55.90185547 C10.1873091 59.28490581 10.1853031 62.66768508 10.18554688 66.05078125 C10.18063917 68.20573154 10.17481415 70.36067999 10.16796875 72.515625 C10.16685593 73.52490051 10.1657431 74.53417603 10.16459656 75.57403564 C10.15821671 76.50641052 10.15183685 77.4387854 10.14526367 78.39941406 C10.14145187 79.21798889 10.13764008 80.03656372 10.13371277 80.87994385 C10 83 10 83 9 86 C27.35512694 76.92526273 44.40559173 67.78502294 55.08984375 49.53125 C56 48 56 48 57 47 C64.07246377 46.42028986 64.07246377 46.42028986 67.5 48.5625 C69.68306478 52.10998027 69.66732152 53.86260657 69 58 C60.92935531 76.12088148 42.45611151 88.78718234 25 97 C23.36944915 97.62404611 21.7310304 98.22786425 20.0859375 98.8125 C11.29968897 101.64241219 11.29968897 101.64241219 5.375 108.1328125 C4.76141744 111.36109349 4.41568854 114.49796887 4.21484375 117.77539062 C3.81247686 121.9417169 2.72239242 125.95283143 1.6875 130 C1.47867187 130.84175781 1.26984375 131.68351563 1.0546875 132.55078125 C-0.94380919 140.3401027 -3.75773444 147.64640801 -7 155 C19.25408621 142.40985777 19.25408621 142.40985777 42.3125 124.875 C45 123 45 123 48.6875 123 C53.62363239 124.49015317 53.62363239 124.49015317 55 127 C55.88823245 133.77277242 55.88823245 133.77277242 52.87109375 137.94140625 C50.08332797 141.0745633 46.9484244 143.66436381 43.5625 146.125 C42.92634766 146.58874023 42.29019531 147.05248047 41.63476562 147.53027344 C8.42910039 171 8.42910039 171 -4 171 C-3.96519531 172.20269531 -3.93039062 173.40539062 -3.89453125 174.64453125 C-3.453594 197.09651901 -6.01061872 219.33522365 -12 241 C-12.24234375 241.93457031 -12.4846875 242.86914062 -12.734375 243.83203125 C-14.62989413 247.07898532 -17.49186081 248.53643118 -20.6875 250.3125 C-21.69780273 250.89161133 -21.69780273 250.89161133 -22.72851562 251.48242188 C-24.13180316 252.281498 -25.53926533 253.07328475 -26.95068359 253.85791016 C-28.81956147 254.89944109 -30.67030057 255.96710054 -32.51953125 257.04296875 C-43.5249889 263.23122271 -55.20326455 267.56507609 -67 272 C-69.5780744 272.97028326 -72.15532944 273.94232694 -74.72924805 274.92358398 C-76.2305403 275.49554225 -77.7344414 276.06072306 -79.24145508 276.61743164 C-85.67206484 279.06261512 -91.18709956 282.08343036 -95 288 C-97.29052023 293.20370616 -98.34724493 298.63071607 -99.4375 304.1875 C-101.168304 312.4846532 -104.09084726 316.98747743 -111 322 C-115.85530848 324.41049338 -119.59427386 325.37942058 -125.00170898 325.40405273 C-125.9934613 325.41434761 -125.9934613 325.41434761 -127.00524902 325.42485046 C-129.16908864 325.44300193 -131.33219509 325.43929809 -133.49609375 325.43359375 C-135.01392346 325.43816121 -136.53175112 325.44346846 -138.04957581 325.44947815 C-141.22267079 325.45838637 -144.39551377 325.45601249 -147.56860352 325.44604492 C-151.61812654 325.4345585 -155.66677709 325.4547725 -159.71618557 325.48396206 C-162.84851021 325.50238193 -165.98062798 325.50202017 -169.11299324 325.49632454 C-170.60520718 325.49617203 -172.09743576 325.50215797 -173.5895977 325.51461601 C-183.27954554 325.58412984 -190.00678545 325.08535736 -197.75 318.75 C-202.61301717 312.80631234 -204.15586553 307.64175279 -205.3125 300.1875 C-206.52272895 292.57303254 -209.22759312 287.12715464 -214 281 C-214.54785156 280.14277344 -215.09570312 279.28554688 -215.66015625 278.40234375 C-218.98077175 274.99303068 -222.5192019 274.11822841 -227 272.75 C-256.99925995 262.89466725 -284.42211313 246.82904178 -307.52734375 225.26171875 C-309.96845047 222.96818796 -309.96845047 222.96818796 -312.62890625 220.95703125 C-316.50158428 217.7267693 -318.7088982 215.5411272 -319.6640625 210.484375 C-319.81977948 203.49126698 -318.8984833 197.01848443 -316.75390625 190.3671875 C-316.50511719 189.58601562 -316.25632812 188.80484375 -316 188 C-315.72929687 187.25234375 -315.45859375 186.5046875 -315.1796875 185.734375 C-314.89803651 181.44838163 -316.78617877 178.2099639 -318.5625 174.375 C-336.55739313 133.43101072 -340.31883729 86.50710607 -335.8125 42.3125 C-335.71179199 41.23758301 -335.61108398 40.16266602 -335.50732422 39.05517578 C-334.94069127 34.36272288 -334.49934289 31.66252684 -331.609375 27.828125 C-328.13516847 25.39410007 -326.15451311 25.32017058 -322 26 C-319.7734375 27.48046875 -319.7734375 27.48046875 -318 30 C-317.62668007 32.99685526 -317.89939364 35.8777254 -318.1875 38.875 C-318.24486328 39.66519531 -318.30222656 40.45539063 -318.36132812 41.26953125 C-318.60883205 44.46845297 -318.92204874 47.58412411 -319.51367188 50.74047852 C-320.10116457 54.67803623 -320.19954116 58.56304379 -320.23828125 62.53515625 C-320.25256416 63.7713269 -320.25256416 63.7713269 -320.26713562 65.0324707 C-320.2916594 67.70918229 -320.30414681 70.38569096 -320.3125 73.0625 C-320.31644775 73.97152069 -320.32039551 74.88054138 -320.32446289 75.81710815 C-320.35762963 92.19300544 -318.94286779 107.87879807 -316 124 C-305.75114646 107.36196754 -295.84009793 90.02342627 -291.50390625 70.80078125 C-290.75015433 67.61901431 -289.96766012 65.9640668 -287.75 63.5 C-285 62 -285 62 -281.9375 62 C-278.54935848 63.15340988 -277.2242382 64.21970225 -275 67 C-270.79298724 92.83184473 -296.63380643 125.95070964 -310 146 C-309.63051199 150.70257463 -308.07929255 154.85317665 -306.4375 159.25 C-304 165.79603399 -304 165.79603399 -304 168 C-303.07960938 167.33613281 -302.15921875 166.67226563 -301.2109375 165.98828125 C-279.64850785 150.80355252 -255.07430307 147.74298847 -229.15625 151.98046875 C-223.37073159 153.0888846 -217.65972259 154.36409911 -212 156 C-210.99356445 156.28166016 -209.98712891 156.56332031 -208.95019531 156.85351562 C-201.47607846 159.19995595 -201.47607846 159.19995595 -199.3984375 162.69140625 C-199.26695312 163.78324219 -199.13546875 164.87507812 -199 166 C-198.76416741 167.40514083 -198.52709553 168.810074 -198.2890625 170.21484375 C-198.06559846 171.78876438 -197.84434286 173.36299975 -197.625 174.9375 C-196.33914588 183.48532161 -194.53909318 191.72797349 -192 200 C-191.76297363 200.78068848 -191.52594727 201.56137695 -191.28173828 202.36572266 C-186.40704887 218.21381837 -180.45248747 233.68991964 -172 248 C-162.99273082 247.63728335 -154.78522579 245.5224053 -146.1875 242.9375 C-145.51080261 242.73714142 -144.83410522 242.53678284 -144.13690186 242.33035278 C-110.04365495 232.23022714 -77.73814312 218.86337627 -52.0625 193.5 C-51.46493896 192.91259033 -50.86737793 192.32518066 -50.25170898 191.7199707 C-47.48204091 188.89225202 -45.72675235 186.89703214 -45 183 C-45.84820312 182.40574219 -46.69640625 181.81148437 -47.5703125 181.19921875 C-55.6592942 175.4970924 -63.50651012 169.55776615 -71.24560547 163.39111328 C-73.00102051 161.99919081 -74.76609499 160.62061968 -76.53515625 159.24609375 C-83.96480268 153.46839305 -91.22088093 147.52709436 -98.36132812 141.39599609 C-100.00527406 139.99550699 -101.66439267 138.61517991 -103.328125 137.23828125 C-141.83955237 105.1629345 -141.83955237 105.1629345 -144.5625 87.3125 C-144 84 -144 84 -141.9375 81 C-139 79 -139 79 -135.4375 78.875 C-131.217845 80.255978 -130.30738095 81.23127777 -128 85 C-127.72800781 85.65742188 -127.45601562 86.31484375 -127.17578125 86.9921875 C-121.79843256 99.61726703 -110.21903556 109.21424792 -100 118 C-98.39231627 119.45445517 -96.78760285 120.91220895 -95.1875 122.375 C-90.45668843 126.63919131 -85.58089181 130.68846482 -80.62353516 134.68554688 C-78.79870879 136.1629702 -76.98306697 137.65126769 -75.16796875 139.140625 C-67.25110757 145.62661359 -59.24767541 151.93645049 -51 158 C-49.6648849 158.99805656 -48.33027922 159.99679482 -46.99609375 160.99609375 C-45.62263059 162.01854459 -44.24893531 163.0406837 -42.875 164.0625 C-42.22265381 164.55250488 -41.57030762 165.04250977 -40.89819336 165.54736328 C-37.78105458 168.12667485 -37.78105458 168.12667485 -34 169 C-23.59674974 156.35206504 -18.21431368 139.8454358 -15 124 C-17.20765253 122.22831247 -19.41602345 120.45753571 -21.625 118.6875 C-22.63856567 117.87478638 -22.63856567 117.87478638 -23.67260742 117.0456543 C-27.01982331 114.36640069 -30.37461899 111.69902578 -33.76171875 109.0703125 C-39.97248855 104.24995047 -46.00402277 99.35413089 -51.79296875 94.0234375 C-53.72130517 92.25551137 -55.68847978 90.56153954 -57.6875 88.875 C-66.98892912 80.70329911 -75.86842493 72.02768958 -83.25 62.0625 C-83.69126221 61.47275391 -84.13252441 60.88300781 -84.5871582 60.27539062 C-88.31270483 55.05097663 -91.09012068 49.74868061 -90.875 43.1875 C-90 40 -90 40 -88.875 38.0625 C-85.76581435 36.30062813 -83.49155423 36.51840631 -80 37 C-76.29375233 39.64731976 -74.65790579 42.5869692 -72.8125 46.625 C-69.74511524 53.14927869 -64.92369798 57.83093501 -60 63 C-59.11127996 64.07210671 -58.23277696 65.15297913 -57.375 66.25 C-54.86725691 69.15370253 -52.19772467 71.55007006 -49.28125 74.03125 C-46.75438298 76.21197085 -44.31981366 78.47776143 -41.875 80.75 C-35.52967713 86.53441035 -28.80597024 91.77267749 -22 97 C-20.73942589 97.97245219 -19.47900923 98.94510852 -18.21875 99.91796875 C-15.15017234 102.28433785 -12.07656469 104.64402604 -9 107 C-8.93941406 105.97261719 -8.87882812 104.94523437 -8.81640625 103.88671875 C-8.7318579 102.4869739 -8.64721745 101.08723462 -8.5625 99.6875 C-8.50352539 98.68106445 -8.50352539 98.68106445 -8.44335938 97.65429688 C-8.20295378 93.7153437 -7.88546155 89.79525078 -7.49291992 85.8684082 C-6.99418381 80.41410468 -6.82302364 75.00610675 -6.796875 69.53125 C-6.79117493 68.57085815 -6.78547485 67.61046631 -6.77960205 66.62097168 C-6.77022647 64.60084101 -6.76364804 62.58069557 -6.75976562 60.56054688 C-6.75011127 57.53487099 -6.71903632 54.5098908 -6.6875 51.484375 C-6.62868189 40.40364374 -7.28340468 29.86002029 -9.30981445 18.95874023 C-11.59090959 6.63111971 -11.59090959 6.63111971 -8.375 1.3125 C-5.2491132 -0.41496376 -3.52675456 -0.57579666 0 0 Z " fill="#D7EAC7" transform="translate(404,163)"/>
<path d="M0 0 C1.0504248 0.29422852 2.10084961 0.58845703 3.18310547 0.89160156 C12.34436265 3.45972406 12.34436265 3.45972406 16.21166992 4.58813477 C26.00759946 7.41525558 35.46449531 9.37701753 45.6875 9.3125 C47.02808472 9.31056641 47.02808472 9.31056641 48.39575195 9.30859375 C55.24997626 9.21375021 61.90701677 8.46147007 68.6875 7.5 C77.41181152 6.28238895 86.0013252 5.64327278 94.8125 5.5625 C95.86719482 5.54058594 96.92188965 5.51867188 98.00854492 5.49609375 C115.50681236 5.54057263 125.43566019 15.14821345 137.12011719 26.87841797 C141.69986464 31.55209234 145.94013428 36.33739441 149.98828125 41.48046875 C152.80403322 45.00699307 155.83518866 48.31939432 158.87109375 51.65625 C160.83201684 53.81506441 162.76704085 55.99268954 164.6875 58.1875 C165.53828125 59.15429688 165.53828125 59.15429688 166.40625 60.140625 C167.41314261 61.31533304 168.39616234 62.51132581 169.34375 63.734375 C173.37158147 68.83941722 178.34158375 72.41549198 183.5859375 76.1796875 C184.38257813 76.78039062 185.17921875 77.38109375 186 78 C186 78.33 186 78.66 186 79 C183.49931897 79.08193979 181.0013944 79.14093149 178.5 79.1875 C177.80390625 79.21263672 177.1078125 79.23777344 176.390625 79.26367188 C165.29536923 79.41777265 158.49029292 73.69223587 150.06640625 67.09375 C143.25563234 61.88356315 136.94977671 57.85381728 128 59 C124.34496333 60.23974593 120.91232368 61.82738959 117.4375 63.5 C116.51775391 63.90992187 115.59800781 64.31984375 114.65039062 64.7421875 C107.53606701 68.11778317 102.84602458 71.93901121 100.09594727 79.47851562 C99.07909266 83.0323644 98.25977099 86.61576927 97.45507812 90.22265625 C95.49259047 98.08404996 91.99210858 103.39858499 85.140625 107.86328125 C84.18671875 108.34152344 83.2328125 108.81976563 82.25 109.3125 C74.51082306 113.77084119 68.73616664 119.93543551 62.62402344 126.38598633 C54.14816057 135.25025251 46.74464617 136.86692643 34.94140625 139.01757812 C27.17853874 140.51865826 21.017646 142.150001 15.1875 147.65625 C12.48068974 151.79380283 11.26851376 155.75782355 10 160.5 C8.12070645 167.52549856 6.32503147 173.34470946 -0.15136719 177.32080078 C-7.19373654 180.99027532 -14.69077646 183.71149952 -22.140625 186.4296875 C-30.94017496 189.85173471 -35.28918284 194.60616416 -39.22045898 203.09985352 C-44.48670483 215.4896907 -46.05183824 227.63874808 -47 241 C-47.10151367 242.41925781 -47.10151367 242.41925781 -47.20507812 243.8671875 C-47.5482124 248.9094554 -47.81294884 253.94961867 -48 259 C-65.76955064 237.66983012 -76.45771572 207.02532673 -85 181 C-92.97784767 156.73317876 -100.21890097 137.53894497 -123 124 C-121.11699672 112.7019803 -113.60875703 102.24951105 -104.72265625 95.21875 C-97.65352782 90.21746186 -90.45485178 89.91066331 -82 91 C-73.95383478 92.45756411 -66.00302229 94.37254106 -58.05224609 96.2734375 C-45.64418022 99.3473021 -45.64418022 99.3473021 -33 101 C-32.02289063 101.07605469 -31.04578125 101.15210938 -30.0390625 101.23046875 C-16.03974561 101.82311718 -2.89305249 97.08338413 10 92 C9.40832031 91.84144531 8.81664062 91.68289062 8.20703125 91.51953125 C7.41683594 91.28621094 6.62664062 91.05289063 5.8125 90.8125 C5.03519531 90.59207031 4.25789063 90.37164062 3.45703125 90.14453125 C-2.30288713 87.46145321 -5.1768587 82.412746 -8.0625 77 C-11.15409165 71.26984202 -14.08900577 65.83307699 -19.75 62.3125 C-20.36359375 61.91675781 -20.9771875 61.52101563 -21.609375 61.11328125 C-29.23053032 57.56421382 -36.4686816 57.84009012 -44.66601562 58.16601562 C-50.27211511 58.29021493 -54.07184982 57.7669045 -59 55 C-61.95401227 50.81514928 -63.59332214 46.70167085 -64.99609375 41.796875 C-66.51313583 39.08154676 -68.19741169 38.33743007 -71 37 C-73.79617302 36.74810065 -76.35690815 36.64868499 -79.14453125 36.70703125 C-79.91431808 36.71127609 -80.68410492 36.71552094 -81.47721863 36.71989441 C-83.92267646 36.73661403 -86.36729357 36.7742523 -88.8125 36.8125 C-90.47589951 36.82755559 -92.13931201 36.84124246 -93.80273438 36.85351562 C-97.86881082 36.88649535 -101.93426313 36.93822994 -106 37 C-103.62549426 34.54205194 -101.329771 32.92102664 -98.375 31.1875 C-93.117187 27.90918067 -88.43023879 24.16826964 -83.6875 20.1875 C-63.21903605 3.06040887 -63.21903605 3.06040887 -51 -2 C-50.29617187 -2.31710938 -49.59234375 -2.63421875 -48.8671875 -2.9609375 C-33.21594331 -8.90513825 -15.40990021 -4.36094679 0 0 Z " fill="#89C458" transform="translate(250,41)"/>
<path d="M0 0 C3.37009005 2.09230666 4.77867104 3.35210977 6.07421875 7.14453125 C6.27660156 8.35496094 6.47898437 9.56539062 6.6875 10.8125 C6.89761719 11.99457031 7.10773438 13.17664063 7.32421875 14.39453125 C7.42677979 15.09562012 7.52934082 15.79670898 7.63500977 16.51904297 C7.90289293 18.33993173 8.20221839 20.15626705 8.51928711 21.96923828 C10.31691012 33.27108612 10.27062235 44.4831941 10.20581055 55.90185547 C10.1873091 59.28490581 10.1853031 62.66768508 10.18554688 66.05078125 C10.18063917 68.20573154 10.17481415 70.36067999 10.16796875 72.515625 C10.16685593 73.52490051 10.1657431 74.53417603 10.16459656 75.57403564 C10.15821671 76.50641052 10.15183685 77.4387854 10.14526367 78.39941406 C10.14145187 79.21798889 10.13764008 80.03656372 10.13371277 80.87994385 C10 83 10 83 9 86 C27.35512694 76.92526273 44.40559173 67.78502294 55.08984375 49.53125 C56 48 56 48 57 47 C64.07246377 46.42028986 64.07246377 46.42028986 67.5 48.5625 C69.68306478 52.10998027 69.66732152 53.86260657 69 58 C60.92935531 76.12088148 42.45611151 88.78718234 25 97 C23.36944915 97.62404611 21.7310304 98.22786425 20.0859375 98.8125 C11.29968897 101.64241219 11.29968897 101.64241219 5.375 108.1328125 C4.76141744 111.36109349 4.41568854 114.49796887 4.21484375 117.77539062 C3.81247686 121.9417169 2.72239242 125.95283143 1.6875 130 C1.37425781 131.26263672 1.37425781 131.26263672 1.0546875 132.55078125 C-0.94380919 140.3401027 -3.75773444 147.64640801 -7 155 C19.25408621 142.40985777 19.25408621 142.40985777 42.3125 124.875 C45 123 45 123 48.6875 123 C53.62363239 124.49015317 53.62363239 124.49015317 55 127 C55.88823245 133.77277242 55.88823245 133.77277242 52.87109375 137.94140625 C37.02064972 155.75564689 10.65512283 165.38033813 -10.50830078 174.86181641 C-11.33056152 175.23741699 -12.15282227 175.61301758 -13 176 C-13.73089844 176.31396729 -14.46179688 176.62793457 -15.21484375 176.95141602 C-18.30450467 178.76625377 -19.37435824 182.18350981 -20.875 185.3125 C-27.84516014 199.11115036 -36.6337132 211.9389181 -46.125 224.125 C-46.56183105 224.68662842 -46.99866211 225.24825684 -47.44873047 225.8269043 C-50.52966636 229.6723419 -52.97425925 232.65519306 -57.9375 233.5 C-62.11411135 232.81810427 -63.50915752 231.36996335 -66 228 C-66.571617 224.93202436 -66.52194265 222.89899421 -64.93408203 220.1640625 C-63.39570214 218.07005413 -61.7815122 216.06433923 -60.125 214.0625 C-58.92985807 212.56286541 -57.73851117 211.0601993 -56.55078125 209.5546875 C-55.95346191 208.79897461 -55.35614258 208.04326172 -54.74072266 207.26464844 C-52.10881265 203.84058151 -49.69115762 200.29047988 -47.3125 196.6875 C-46.90338379 196.07205322 -46.49426758 195.45660645 -46.07275391 194.82250977 C-44.1903507 191.95322722 -42.50020696 189.08327297 -41 186 C-41.47195801 185.66379639 -41.94391602 185.32759277 -42.43017578 184.98120117 C-52.2364362 177.9823303 -61.89756363 170.86288176 -71.31005859 163.34277344 C-73.03798765 161.96981622 -74.77675536 160.61186336 -76.51953125 159.2578125 C-83.95472919 153.47658766 -91.21591828 147.53135551 -98.36132812 141.39599609 C-100.00527406 139.99550699 -101.66439267 138.61517991 -103.328125 137.23828125 C-141.83955237 105.1629345 -141.83955237 105.1629345 -144.5625 87.3125 C-144 84 -144 84 -141.9375 81 C-139 79 -139 79 -135.4375 78.875 C-131.217845 80.255978 -130.30738095 81.23127777 -128 85 C-127.72800781 85.65742188 -127.45601563 86.31484375 -127.17578125 86.9921875 C-121.79843256 99.61726703 -110.21903556 109.21424792 -100 118 C-98.39231627 119.45445517 -96.78760285 120.91220895 -95.1875 122.375 C-90.45668843 126.63919131 -85.58089181 130.68846482 -80.62353516 134.68554688 C-78.79870879 136.1629702 -76.98306697 137.65126769 -75.16796875 139.140625 C-67.25110757 145.62661359 -59.24767541 151.93645049 -51 158 C-49.6648849 158.99805656 -48.33027922 159.99679482 -46.99609375 160.99609375 C-45.62263059 162.01854459 -44.24893531 163.0406837 -42.875 164.0625 C-42.22265381 164.55250488 -41.57030762 165.04250977 -40.89819336 165.54736328 C-37.78105458 168.12667485 -37.78105458 168.12667485 -34 169 C-23.59674974 156.35206504 -18.21431368 139.8454358 -15 124 C-17.20765253 122.22831247 -19.41602345 120.45753571 -21.625 118.6875 C-22.30071045 118.14569092 -22.9764209 117.60388184 -23.67260742 117.0456543 C-27.01982331 114.36640069 -30.37461899 111.69902578 -33.76171875 109.0703125 C-39.97248855 104.24995047 -46.00402277 99.35413089 -51.79296875 94.0234375 C-53.72130517 92.25551137 -55.68847978 90.56153954 -57.6875 88.875 C-66.98892912 80.70329911 -75.86842493 72.02768958 -83.25 62.0625 C-83.91189331 61.17788086 -83.91189331 61.17788086 -84.5871582 60.27539062 C-88.31270483 55.05097663 -91.09012068 49.74868061 -90.875 43.1875 C-90 40 -90 40 -88.875 38.0625 C-85.76581435 36.30062813 -83.49155423 36.51840631 -80 37 C-76.29375233 39.64731976 -74.65790579 42.5869692 -72.8125 46.625 C-69.74511524 53.14927869 -64.92369798 57.83093501 -60 63 C-59.11127996 64.07210671 -58.23277696 65.15297913 -57.375 66.25 C-54.86725691 69.15370253 -52.19772467 71.55007006 -49.28125 74.03125 C-46.75438298 76.21197085 -44.31981366 78.47776143 -41.875 80.75 C-35.52967713 86.53441035 -28.80597024 91.77267749 -22 97 C-20.73942589 97.97245219 -19.47900923 98.94510852 -18.21875 99.91796875 C-15.15017234 102.28433785 -12.07656469 104.64402604 -9 107 C-8.93941406 105.97261719 -8.87882813 104.94523437 -8.81640625 103.88671875 C-8.7318579 102.4869739 -8.64721745 101.08723462 -8.5625 99.6875 C-8.52318359 99.01654297 -8.48386719 98.34558594 -8.44335938 97.65429688 C-8.20295378 93.7153437 -7.88546155 89.79525078 -7.49291992 85.8684082 C-6.99418381 80.41410468 -6.82302364 75.00610675 -6.796875 69.53125 C-6.79117493 68.57085815 -6.78547485 67.61046631 -6.77960205 66.62097168 C-6.77022647 64.60084101 -6.76364804 62.58069557 -6.75976562 60.56054688 C-6.75011127 57.53487099 -6.71903632 54.5098908 -6.6875 51.484375 C-6.62868189 40.40364374 -7.28340468 29.86002029 -9.30981445 18.95874023 C-11.59090959 6.63111971 -11.59090959 6.63111971 -8.375 1.3125 C-5.2491132 -0.41496376 -3.52675456 -0.57579666 0 0 Z " fill="#E6F1DD" transform="translate(404,163)"/>
<path d="M0 0 C13.14259198 3.88996131 25.24219487 6.45247105 38.99926758 6.26953125 C40.2187207 6.27275391 41.43817383 6.27597656 42.69458008 6.27929688 C49.53555052 6.23909886 56.03696507 5.72016096 62.76025391 4.44458008 C70.47143521 3.0063407 78.23950364 2.84334751 86.06176758 2.76953125 C86.85784424 2.75647949 87.6539209 2.74342773 88.47412109 2.72998047 C100.70507153 2.7121863 109.72305126 7.01163525 118.81176758 15.01953125 C119.4350293 15.54869141 120.05829102 16.07785156 120.70043945 16.62304688 C125.24269073 20.5623007 125.24269073 20.5623007 126.37426758 23.95703125 C125.42342285 23.93346558 125.42342285 23.93346558 124.45336914 23.90942383 C105.40561648 23.49947855 87.66589328 24.2826418 72.90551758 38.2109375 C66.42258736 45.60346252 62.48015057 54.61096377 58.48217773 63.49487305 C58.12172363 64.28676025 57.76126953 65.07864746 57.38989258 65.89453125 C57.07310547 66.60480469 56.75631836 67.31507813 56.42993164 68.046875 C55.28320852 70.12179677 54.22929035 71.47939787 52.37426758 72.95703125 C46.76153437 73.46727972 44.10049513 72.00423163 39.77050781 68.40112305 C38.72861814 67.49222006 37.69647365 66.57200242 36.67529297 65.63989258 C32.64490243 61.97657101 29.42818393 60.40407471 24.14379883 59.25390625 C19.0044022 57.48574078 15.31666601 54.5286266 11.06176758 51.20703125 C10.18875 50.53889404 9.31573242 49.87075684 8.41625977 49.18237305 C5.7264265 47.11882279 3.04887864 45.04026105 0.37426758 42.95703125 C-0.4260791 42.33586426 -1.22642578 41.71469727 -2.05102539 41.07470703 C-5.0688905 38.73241703 -8.08455548 36.3873663 -11.09545898 34.03613281 C-39.28119634 11.93325727 -39.28119634 11.93325727 -73.62573242 3.95703125 C-55.23375716 -16.99111684 -22.26909928 -6.63460437 0 0 Z " fill="#9FD076" transform="translate(258.625732421875,64.04296875)"/>
<path d="M0 0 C2.2265625 1.48046875 2.2265625 1.48046875 4 4 C4.37331993 6.99685526 4.10060636 9.8777254 3.8125 12.875 C3.75513672 13.66519531 3.69777344 14.45539063 3.63867188 15.26953125 C3.39116795 18.46845297 3.07795126 21.58412411 2.48632812 24.74047852 C1.89883543 28.67803623 1.80045884 32.56304379 1.76171875 36.53515625 C1.74743584 37.7713269 1.74743584 37.7713269 1.73286438 39.0324707 C1.7083406 41.70918229 1.69585319 44.38569096 1.6875 47.0625 C1.68355225 47.97152069 1.67960449 48.88054138 1.67553711 49.81710815 C1.64237037 66.19300544 3.05713221 81.87879807 6 98 C16.24885354 81.36196754 26.15990207 64.02342627 30.49609375 44.80078125 C31.24984567 41.61901431 32.03233988 39.9640668 34.25 37.5 C37 36 37 36 40.0625 36 C43.45064152 37.15340988 44.7757618 38.21970225 47 41 C51.20701276 66.83184473 25.36619357 99.95070964 12 120 C14.0208495 148.41819606 38.31633266 179.40980197 58.875 197.48828125 C67.15785524 204.30897022 76.17382162 210.35803604 85.34082031 215.91699219 C87.57095211 217.37268151 88.89019723 218.5584339 90 221 C89.92639149 224.53320839 89.37138247 226.45721024 87.375 229.375 C84.02579172 231.66656356 82.01927239 231.39002132 78 231 C75.26998578 229.86430251 72.89110922 228.32709401 70.4375 226.6875 C69.74857666 226.24180664 69.05965332 225.79611328 68.34985352 225.33691406 C61.22983073 220.64841698 54.57386421 215.41727232 48 210 C46.79923828 209.03126953 46.79923828 209.03126953 45.57421875 208.04296875 C44.00347271 206.74922803 42.49119571 205.38468173 41 204 C41 203.34 41 202.68 41 202 C40.45472656 201.79632813 39.90945312 201.59265625 39.34765625 201.3828125 C36.06873222 199.45146623 33.85920719 196.75249782 31.4375 193.875 C30.65076904 192.94337036 30.65076904 192.94337036 29.84814453 191.99291992 C14.9022757 173.99188025 4.4183666 154.13494315 -3 132 C-3.37640625 130.93136719 -3.7528125 129.86273438 -4.140625 128.76171875 C-15.9158755 93.48269444 -17.56377964 53.10209547 -13.8125 16.3125 C-13.71179199 15.23758301 -13.61108398 14.16266602 -13.50732422 13.05517578 C-12.94069127 8.36272288 -12.49934289 5.66252684 -9.609375 1.828125 C-6.13516847 -0.60589993 -4.15451311 -0.67982942 0 0 Z " fill="#E7F1DD" transform="translate(82,189)"/>
<path d="M0 0 C5.66606429 0.35412902 11.43943869 1.45246597 16 5 C17.62800074 8.66395932 17.9353187 12.34678612 18.3125 16.3125 C18.5990872 18.50327463 18.89074271 20.6933923 19.1875 22.8828125 C19.3215625 23.94145508 19.455625 25.00009766 19.59375 26.09082031 C20.45159442 32.23389373 22.16810841 38.07971459 24 44 C24.23557617 44.7734375 24.47115234 45.546875 24.71386719 46.34375 C31.96180775 71.96720335 31.96180775 71.96720335 46 94 C46.53625 95.155 47.0725 96.31 47.625 97.5 C54.55590258 111.43714106 67.76991024 122.06533123 82 128 C82 128.33 82 128.66 82 129 C68.23434522 128.41660088 54.65655792 126.69835969 41 124.9375 C38.76047556 124.65253154 36.52089255 124.36802306 34.28125 124.08398438 C28.85348091 123.39461647 23.42645871 122.69960404 18 122 C18 121.01 18 120.02 18 119 C16.42532261 116.77269966 14.80977483 114.64098065 13.125 112.5 C-4.90226087 88.65427719 -14.47985507 59.61920374 -11.69140625 29.6875 C-10.27148352 20.03705172 -7.16064632 7.16064632 0 0 Z " fill="#CFEAB9" transform="translate(188,319)"/>
<path d="M0 0 C0.89396484 -0.020625 1.78792969 -0.04125 2.70898438 -0.0625 C7.66525397 -0.0919359 11.04929924 0.0067738 15.0625 3.25 C17.75151832 5.93901832 18.93412421 7.47974527 19.5625 11.25 C18.89751237 15.23992577 18.13584971 16.56585178 15.0625 19.25 C11.25642473 19.91533742 7.47928544 19.79628189 3.625 19.75 C-15.03041025 20.08496137 -26.86156362 26.99083796 -39.875 40.0625 C-40.38933594 40.60648438 -40.90367187 41.15046875 -41.43359375 41.7109375 C-43.01705408 43.33141379 -44.68780099 44.74928586 -46.4375 46.1875 C-53.46391575 52.14366699 -58.92939628 59.66304263 -64.58666992 66.88256836 C-67.4975205 70.56939029 -70.40057124 74.13441678 -73.9375 77.25 C-77.0625 77.375 -77.0625 77.375 -79.9375 76.25 C-82.22340247 72.94222009 -83.73714513 69.50930149 -85.1796875 65.76953125 C-85.60008301 64.69944824 -86.02047852 63.62936523 -86.45361328 62.52685547 C-86.9020459 61.38361816 -87.35047852 60.24038086 -87.8125 59.0625 C-95.63769185 36.66102007 -95.63769185 36.66102007 -107.9375 17.25 C-108.49583364 13.24860894 -108.04443298 11.44247936 -106.0625 7.875 C-104.33041568 6.01503761 -103.3971247 5.32209267 -100.86889648 4.92553711 C-94.06367718 5.0382689 -87.563949 5.96633369 -80.875 7.1875 C-57.93123021 11.2737724 -38.95336858 11.68889105 -17.1875 2.5546875 C-11.33571656 0.20553405 -6.2516733 0.03590336 0 0 Z " fill="#9FD076" transform="translate(271.9375,147.75)"/>
<path d="M0 0 C2 1 2 1 2.77441406 2.87915039 C3.01901367 3.69375732 3.26361328 4.50836426 3.515625 5.34765625 C3.79390137 6.25491455 4.07217773 7.16217285 4.35888672 8.09692383 C4.6529541 9.07556396 4.94702148 10.0542041 5.25 11.0625 C9.79261323 25.67586774 14.73978052 39.12826753 22.14453125 52.55078125 C24 56 24 56 25 59 C9.78704604 55.39693196 0.17238638 40.74655474 -8.51220703 28.86938477 C-12.8506773 23.01266127 -17.62953154 17.94273204 -23 13 C-21.53880603 10.07761205 -19.58005273 9.90320487 -16.5625 8.75 C-11.30726986 6.65293087 -6.68364292 4.14168127 -1.9609375 1.0390625 C-1.31382813 0.69617188 -0.66671875 0.35328125 0 0 Z " fill="#89C458" transform="translate(99,104)"/>
<path d="M0 0 C0.33 0.66 0.66 1.32 1 2 C0.00390625 4.3828125 0.00390625 4.3828125 -1.4375 7.125 C-1.91058594 8.03507812 -2.38367188 8.94515625 -2.87109375 9.8828125 C-3.24363281 10.58148438 -3.61617188 11.28015625 -4 12 C-4.99 11.34 -5.98 10.68 -7 10 C-3.535 5.05 -3.535 5.05 0 0 Z " fill="#D4E9C2" transform="translate(376,323)"/>
</svg>
