<?xml version="1.0" encoding="UTF-8"?>
<svg id="Layer_1" xmlns="http://www.w3.org/2000/svg" viewBox="0 0 267.34 425.49">
  <defs>
    <style>
      .cls-1 {
        fill: #898989;
      }

      .cls-2 {
        fill: #bcf0fd;
      }

      .cls-3 {
        fill: #fdfefe;
      }

      .cls-4 {
        fill: #afafaf;
      }
    </style>
  </defs>
  <g>
    <path class="cls-2" d="M245.22,132.54c-1.91,11.44-.28,22.92.49,34.26,1.57,23.25,3.36,46.59,7.14,69.55,3.4,20.71,4.67,41.5,6.57,62.29,1.38,15.09,4,30.24,3.55,45.29-.58,19.32,5.22,37.94,4.28,57.19-.7,14.31-9.86,24.08-24.11,24.1-58.87.07-117.76.8-176.61-.46-16.52-.35-33.12.9-49.71-1.02-9.66-1.12-18-14.14-16.67-27.18,1.93-18.98,3.54-38,5.3-57,2.35-25.33,5.33-50.63,6.88-76.01,1.31-21.51,4.43-42.81,5.97-64.28,1.6-22.37,3.63-44.7,5.48-67.05,3.92,2.2,8.22,1.87,12.47,1.87,64.26,0,128.52,0,192.78.08,5.49,0,10.9-.17,16.21-1.63ZM132.61,392.51c27.15,0,54.31.02,81.46,0,10.98-.01,16.74-5.1,16.57-15.74-.32-20.38-.45-40.8-1.99-61.1-2.82-37.16-8-74.14-8.97-111.46-.22-8.59-7.54-17.1-15.82-16.94-13.13.26-26.1-1.38-39.14-1.99-14.33-.68-28.55.89-42.8,1.82-18.3,1.19-36.42-2.56-54.7-1.84-8.88.35-17.21,6.78-17.89,14.98-2.26,27.18-3.18,54.5-7.66,81.44-1.42,8.54.28,16.86-.4,25.18-1.95,23.88-5.25,47.65-4.86,71.68.16,9.92,4.54,13.95,14.76,13.96,27.15.04,54.31.01,81.46.02Z"/>
    <path class="cls-4" d="M245.22,132.54c-5.31,1.47-10.72,1.64-16.21,1.63-64.26-.08-128.52-.07-192.78-.08-4.26,0-8.55.32-12.47-1.87-14.87-10.81-16.62-21.61-5.48-37.15,2.95-4.11,1.65-7.19-.15-10.9-10.97-22.66-9.56-44.33,6.73-63.89C34.51,8.69,47.33.84,62.59.67c48.17-.55,96.39-1.24,144.52.15,40.82,1.18,65.53,46.45,45.62,82.8-2.89,5.27-3.35,8.1,1.14,13.04,10.93,12.03,6.23,29.72-8.66,35.88ZM72.87,94.19s0,.03,0,.05c-8.55,0-17.09-.04-25.64.01-7.59.05-10.71,3.81-10.66,11.51.05,7.84,5.08,11.08,10.97,10.57,17.08-1.47,34.13-.16,51.18-.78,6.51-.24,10.59-3.78,10.38-10.22-.2-6.26-3.08-11.19-10.6-11.15-8.55.04-17.09.01-25.64.01Z"/>
    <path class="cls-3" d="M132.61,392.5c-27.15,0-54.31.02-81.46-.01-10.22-.01-14.6-4.05-14.76-13.96-.39-24.03,2.91-47.81,4.86-71.68.68-8.32-1.02-16.64.4-25.18,4.48-26.94,5.39-54.26,7.66-81.44.68-8.2,9.01-14.63,17.89-14.98,18.28-.72,36.4,3.03,54.7,1.84,14.25-.93,28.47-2.5,42.8-1.82,13.05.62,26.01,2.25,39.14,1.99,8.29-.16,15.6,8.34,15.82,16.94.98,37.32,6.15,74.3,8.97,111.46,1.54,20.3,1.67,40.73,1.99,61.1.17,10.64-5.6,15.73-16.57,15.74-27.15.03-54.31,0-81.46,0Z"/>
    <path class="cls-3" d="M72.87,94.19c8.55,0,17.09.03,25.64-.01,7.52-.04,10.39,4.89,10.6,11.15.21,6.44-3.86,9.98-10.38,10.22-17.05.62-34.1-.69-51.18.78-5.89.51-10.92-2.73-10.97-10.57-.05-7.7,3.07-11.46,10.66-11.51,8.55-.06,17.09-.01,25.64-.01,0-.02,0-.03,0-.05Z"/>
  </g>
  <rect class="cls-1" x="150.04" y="9.37" width="43.99" height="16.5" rx="4.5" ry="4.5"/>
  <rect class="cls-1" x="63.88" y="9.37" width="43.99" height="16.5" rx="4.5" ry="4.5"/>
</svg>