<?xml version="1.0" encoding="UTF-8"?>
<!DOCTYPE svg PUBLIC "-//W3C//DTD SVG 1.1//EN" "http://www.w3.org/Graphics/SVG/1.1/DTD/svg11.dtd">
<svg xmlns="http://www.w3.org/2000/svg" version="1.1" width="512px" height="512px" style="shape-rendering:geometricPrecision; text-rendering:geometricPrecision; image-rendering:optimizeQuality; fill-rule:evenodd; clip-rule:evenodd" xmlns:xlink="http://www.w3.org/1999/xlink">
<g><path style="opacity:0.997" fill="#f880a0" d="M 191.5,90.5 C 193.386,106.325 197.22,121.658 203,136.5C 211.588,152.008 219.921,167.675 228,183.5C 260.249,257.456 250.749,325.456 199.5,387.5C 191.876,397.58 186.209,408.747 182.5,421C 181.788,422.442 180.621,423.275 179,423.5C 174.667,419.833 170.333,416.167 166,412.5C 162.201,415.97 158.701,419.803 155.5,424C 154.167,424.667 152.833,424.667 151.5,424C 148.427,419.977 145.26,416.144 142,412.5C 137.535,416.635 133.368,421.135 129.5,426C 128.167,426.667 126.833,426.667 125.5,426C 122.159,417.484 118.159,409.318 113.5,401.5C 110.654,395.145 107.154,389.145 103,383.5C 94.7095,372.874 86.0428,362.541 77,352.5C 45.3194,303.578 40.9861,252.245 64,198.5C 68.4911,188.849 73.4911,179.515 79,170.5C 89.0568,156.775 98.7235,142.775 108,128.5C 114.251,116.338 119.085,103.672 122.5,90.5C 126.809,66.386 128.643,42.0527 128,17.5C 130.064,16.4086 132.231,16.2419 134.5,17C 139.638,20.1424 144.138,23.9758 148,28.5C 148.862,30.087 149.529,31.7536 150,33.5C 150.333,40.5 150.667,47.5 151,54.5C 156,43.1667 161,31.8333 166,20.5C 167.479,15.7466 170.146,14.7466 174,17.5C 174.473,24.4957 176.139,31.1624 179,37.5C 182.757,40.5858 185.757,44.2525 188,48.5C 189.299,62.4752 190.466,76.4752 191.5,90.5 Z"/></g>
<g><path style="opacity:0.992" fill="#b2446b" d="M 122.5,90.5 C 119.085,103.672 114.251,116.338 108,128.5C 98.7235,142.775 89.0568,156.775 79,170.5C 73.4911,179.515 68.4911,188.849 64,198.5C 40.9861,252.245 45.3194,303.578 77,352.5C 86.0428,362.541 94.7095,372.874 103,383.5C 107.154,389.145 110.654,395.145 113.5,401.5C 105.276,394.447 96.6095,387.947 87.5,382C 74.1352,374.985 60.8019,367.985 47.5,361C 24.0212,342.219 10.8546,317.719 8,287.5C 5.04633,245.291 16.0463,207.291 41,173.5C 45.1667,169.333 49.3333,165.167 53.5,161C 77.044,146.289 97.2107,127.789 114,105.5C 116.861,100.437 119.694,95.4375 122.5,90.5 Z"/></g>
<g><path style="opacity:0.993" fill="#b2446b" d="M 191.5,90.5 C 197.946,108.473 208.279,123.973 222.5,137C 234.628,146.792 246.461,156.959 258,167.5C 287.422,201.105 299.088,240.105 293,284.5C 302.868,274.963 313.035,265.797 323.5,257C 331.762,248.075 339.262,238.575 346,228.5C 351.682,217.136 357.349,205.802 363,194.5C 369.139,188.936 376.306,187.103 384.5,189C 388.51,190.343 392.01,192.509 395,195.5C 402.362,213.899 412.028,230.899 424,246.5C 437.667,259.5 451.333,272.5 465,285.5C 502.395,328.474 512.395,377.141 495,431.5C 480.965,461.521 457.799,480.687 425.5,489C 414.993,491.807 404.327,493.64 393.5,494.5C 394.167,493.833 394.833,493.167 395.5,492.5C 433.938,484.897 457.438,461.897 466,423.5C 473.82,379.968 462.82,341.968 433,309.5C 421.569,297.801 409.569,286.801 397,276.5C 389.015,267.2 382.015,257.2 376,246.5C 369.324,258.525 361.657,269.858 353,280.5C 336.301,295.532 320.634,311.532 306,328.5C 275.707,373.101 276.04,417.435 307,461.5C 320.137,477.155 336.637,487.155 356.5,491.5C 360.048,492.13 363.381,493.13 366.5,494.5C 330.192,493.423 299.692,479.756 275,453.5C 260.115,432.648 252.948,409.315 253.5,383.5C 254.009,373.097 254.842,362.764 256,352.5C 239.12,367.192 220.287,378.858 199.5,387.5C 250.749,325.456 260.249,257.456 228,183.5C 219.921,167.675 211.588,152.008 203,136.5C 197.22,121.658 193.386,106.325 191.5,90.5 Z"/></g>
<g><path style="opacity:1" fill="#f9c9db" d="M 135.5,133.5 C 137.467,133.261 139.301,133.594 141,134.5C 141.561,142.916 140.894,151.249 139,159.5C 130.479,184.918 124.479,210.918 121,237.5C 116.36,280.388 122.193,321.721 138.5,361.5C 137.606,367.229 134.606,368.729 129.5,366C 87.0548,323.622 75.2214,273.789 94,216.5C 99.5231,201.783 106.856,188.116 116,175.5C 123.191,161.733 129.691,147.733 135.5,133.5 Z"/></g>
<g><path style="opacity:1" fill="#f9c8db" d="M 184.5,181.5 C 186.936,181.317 189.103,181.984 191,183.5C 203.742,206.557 210.908,231.224 212.5,257.5C 212.171,286.638 202.505,312.138 183.5,334C 179.037,335.203 176.37,333.536 175.5,329C 190.257,282.386 192.257,235.219 181.5,187.5C 181.628,185.045 182.628,183.045 184.5,181.5 Z"/></g>
<g><path style="opacity:1" fill="#f87f9f" d="M 395.5,492.5 C 410.689,488.157 421.856,478.824 429,464.5C 442.128,428.619 438.461,394.619 418,362.5C 407.44,346.105 394.274,332.105 378.5,320.5C 349.93,341.912 331.096,369.912 322,404.5C 317.044,430.528 321.711,454.528 336,476.5C 341.894,482.909 348.727,487.909 356.5,491.5C 336.637,487.155 320.137,477.155 307,461.5C 276.04,417.435 275.707,373.101 306,328.5C 320.634,311.532 336.301,295.532 353,280.5C 361.657,269.858 369.324,258.525 376,246.5C 382.015,257.2 389.015,267.2 397,276.5C 409.569,286.801 421.569,297.801 433,309.5C 462.82,341.968 473.82,379.968 466,423.5C 457.438,461.897 433.938,484.897 395.5,492.5 Z"/></g>
<g><path style="opacity:1" fill="#f9c9db" d="M 395.5,492.5 C 392.518,492.963 389.518,493.296 386.5,493.5C 397.121,489.044 404.621,481.378 409,470.5C 418.763,439.057 412.263,411.557 389.5,388C 386.22,384.879 382.553,382.379 378.5,380.5C 356.249,395.285 344.915,416.118 344.5,443C 343.582,455.594 346.082,467.427 352,478.5C 357.586,486.694 365.086,492.027 374.5,494.5C 373.167,494.5 371.833,494.5 370.5,494.5C 369.167,494.5 367.833,494.5 366.5,494.5C 363.381,493.13 360.048,492.13 356.5,491.5C 348.727,487.909 341.894,482.909 336,476.5C 321.711,454.528 317.044,430.528 322,404.5C 331.096,369.912 349.93,341.912 378.5,320.5C 394.274,332.105 407.44,346.105 418,362.5C 438.461,394.619 442.128,428.619 429,464.5C 421.856,478.824 410.689,488.157 395.5,492.5 Z"/></g>
<g><path style="opacity:1" fill="#feedf4" d="M 386.5,493.5 C 382.566,494.36 378.566,494.693 374.5,494.5C 365.086,492.027 357.586,486.694 352,478.5C 346.082,467.427 343.582,455.594 344.5,443C 344.915,416.118 356.249,395.285 378.5,380.5C 382.553,382.379 386.22,384.879 389.5,388C 412.263,411.557 418.763,439.057 409,470.5C 404.621,481.378 397.121,489.044 386.5,493.5 Z"/></g>
<g><path style="opacity:0.639" fill="#d56d8d" d="M 395.5,492.5 C 394.833,493.167 394.167,493.833 393.5,494.5C 385.674,495.562 378.007,495.562 370.5,494.5C 371.833,494.5 373.167,494.5 374.5,494.5C 378.566,494.693 382.566,494.36 386.5,493.5C 389.518,493.296 392.518,492.963 395.5,492.5 Z"/></g>
</svg>
