<?xml version="1.0" encoding="UTF-8"?>
<!DOCTYPE svg PUBLIC "-//W3C//DTD SVG 1.1//EN" "http://www.w3.org/Graphics/SVG/1.1/DTD/svg11.dtd">
<svg xmlns="http://www.w3.org/2000/svg" version="1.1" width="512px" height="512px" style="shape-rendering:geometricPrecision; text-rendering:geometricPrecision; image-rendering:optimizeQuality; fill-rule:evenodd; clip-rule:evenodd" xmlns:xlink="http://www.w3.org/1999/xlink">
<g><path style="opacity:1" fill="#f2f1f1" d="M 222.5,53.5 C 306.704,60.4969 368.537,101.164 408,175.5C 420.481,201.424 427.314,228.757 428.5,257.5C 428.5,276.167 428.5,294.833 428.5,313.5C 407.79,311.963 395.29,300.963 391,280.5C 391.732,259.508 388.898,239.174 382.5,219.5C 362.056,157.224 320.389,116.724 257.5,98C 197.541,84.3238 144.207,97.3238 97.5,137C 92.5663,141.426 88.233,146.26 84.5,151.5C 59.455,178.599 44.2884,210.599 39,247.5C 37.8899,259.471 37.2232,271.471 37,283.5C 31.3876,302.294 18.8876,312.294 -0.5,313.5C -0.5,291.833 -0.5,270.167 -0.5,248.5C 7.92848,179.454 40.9285,125.621 98.5,87C 136.482,63.6699 177.816,52.5032 222.5,53.5 Z"/></g>
<g><path style="opacity:1" fill="#e4646e" d="M 222.5,53.5 C 237.833,53.5 253.167,53.5 268.5,53.5C 360.261,60.6287 425.428,105.962 464,189.5C 479.668,229.823 484.668,271.49 479,314.5C 475.982,332.2 468.482,347.534 456.5,360.5C 453.315,348.482 445.648,340.982 433.5,338C 430.854,337.503 428.187,337.336 425.5,337.5C 427.609,331.721 428.776,325.721 429,319.5C 429.829,298.663 429.663,277.996 428.5,257.5C 427.314,228.757 420.481,201.424 408,175.5C 368.537,101.164 306.704,60.4969 222.5,53.5 Z"/></g>
<g><path style="opacity:1" fill="#cf5668" d="M 268.5,53.5 C 363.834,48.5732 436,86.5732 485,167.5C 499.217,194.642 508.051,223.309 511.5,253.5C 511.5,272.833 511.5,292.167 511.5,311.5C 505.748,344.915 487.748,369.249 457.5,384.5C 457.801,376.414 457.467,368.414 456.5,360.5C 468.482,347.534 475.982,332.2 479,314.5C 484.668,271.49 479.668,229.823 464,189.5C 425.428,105.962 360.261,60.6287 268.5,53.5 Z"/></g>
<g><path style="opacity:1" fill="#f4c3c6" d="M 382.5,219.5 C 365.145,214.072 348.811,216.239 333.5,226C 316.1,238.611 301.267,253.778 289,271.5C 261.86,301.054 231.36,305.22 197.5,284C 196.563,283.308 195.897,283.475 195.5,284.5C 188.631,276.425 184.131,267.092 182,256.5C 182.557,236.827 183.224,217.16 184,197.5C 176.349,166.848 157.183,148.015 126.5,141C 111.004,138.874 97.0037,142.374 84.5,151.5C 88.233,146.26 92.5663,141.426 97.5,137C 144.207,97.3238 197.541,84.3238 257.5,98C 320.389,116.724 362.056,157.224 382.5,219.5 Z"/></g>
<g><path style="opacity:1" fill="#f291b9" d="M 195.5,284.5 C 204.553,295.391 213.053,306.724 221,318.5C 224.394,324.619 227.228,330.952 229.5,337.5C 209.497,337.333 189.497,337.5 169.5,338C 157.195,341.643 149.695,349.809 147,362.5C 146.5,373.161 146.333,383.828 146.5,394.5C 120.831,394.667 95.1645,394.5 69.5,394C 31.6659,386.997 8.33258,364.831 -0.5,327.5C -0.5,322.833 -0.5,318.167 -0.5,313.5C 18.8876,312.294 31.3876,302.294 37,283.5C 37.2232,271.471 37.8899,259.471 39,247.5C 44.2884,210.599 59.455,178.599 84.5,151.5C 97.0037,142.374 111.004,138.874 126.5,141C 157.183,148.015 176.349,166.848 184,197.5C 183.224,217.16 182.557,236.827 182,256.5C 184.131,267.092 188.631,276.425 195.5,284.5 Z"/></g>
<g><path style="opacity:1" fill="#fed7d4" d="M 382.5,219.5 C 388.898,239.174 391.732,259.508 391,280.5C 395.29,300.963 407.79,311.963 428.5,313.5C 428.5,294.833 428.5,276.167 428.5,257.5C 429.663,277.996 429.829,298.663 429,319.5C 428.776,325.721 427.609,331.721 425.5,337.5C 423.833,337.5 422.167,337.5 420.5,337.5C 384.5,337.5 348.5,337.5 312.5,337.5C 308.167,337.5 303.833,337.5 299.5,337.5C 276.167,337.5 252.833,337.5 229.5,337.5C 227.228,330.952 224.394,324.619 221,318.5C 213.053,306.724 204.553,295.391 195.5,284.5C 195.897,283.475 196.563,283.308 197.5,284C 231.36,305.22 261.86,301.054 289,271.5C 301.267,253.778 316.1,238.611 333.5,226C 348.811,216.239 365.145,214.072 382.5,219.5 Z"/></g>
<g><path style="opacity:1" fill="#f4c3c6" d="M 299.5,337.5 C 303.833,337.5 308.167,337.5 312.5,337.5C 323.224,340.382 330.724,347.049 335,357.5C 336.304,381.771 336.971,406.104 337,430.5C 339.061,443.323 346.228,451.656 358.5,455.5C 348.681,456.494 338.681,456.827 328.5,456.5C 315.899,452.39 308.399,443.723 306,430.5C 305.667,407.5 305.333,384.5 305,361.5C 303.023,352.832 298.19,346.499 290.5,342.5C 293.19,340.271 296.19,338.604 299.5,337.5 Z"/></g>
<g><path style="opacity:1" fill="#f4c2c5" d="M 420.5,337.5 C 422.167,337.5 423.833,337.5 425.5,337.5C 428.187,337.336 430.854,337.503 433.5,338C 445.648,340.982 453.315,348.482 456.5,360.5C 457.467,368.414 457.801,376.414 457.5,384.5C 457.5,388.833 457.5,393.167 457.5,397.5C 457.334,407.506 457.5,417.506 458,427.5C 460.248,441.577 468.081,450.91 481.5,455.5C 471.347,456.494 461.014,456.828 450.5,456.5C 439.853,452.019 432.353,444.352 428,433.5C 426.717,409.875 426.051,386.208 426,362.5C 424.302,353.394 419.469,346.727 411.5,342.5C 414.19,340.271 417.19,338.604 420.5,337.5 Z"/></g>
<g><path style="opacity:1" fill="#e5646e" d="M 229.5,337.5 C 252.833,337.5 276.167,337.5 299.5,337.5C 296.19,338.604 293.19,340.271 290.5,342.5C 282.517,346.77 277.683,353.437 276,362.5C 275.667,381.5 275.333,400.5 275,419.5C 272.042,438.624 261.208,450.624 242.5,455.5C 239.311,455.858 236.311,456.525 233.5,457.5C 232.833,457.5 232.167,457.5 231.5,457.5C 229.285,456.732 226.952,456.065 224.5,455.5C 213.816,452.316 206.983,445.316 204,434.5C 204.624,418.569 198.124,406.735 184.5,399C 182.212,398.178 179.878,397.511 177.5,397C 167.172,396.5 156.839,396.334 146.5,396.5C 132.5,396.5 118.5,396.5 104.5,396.5C 118.5,395.833 132.5,395.167 146.5,394.5C 146.333,383.828 146.5,373.161 147,362.5C 149.695,349.809 157.195,341.643 169.5,338C 189.497,337.5 209.497,337.333 229.5,337.5 Z"/></g>
<g><path style="opacity:1" fill="#e5646e" d="M 312.5,337.5 C 348.5,337.5 384.5,337.5 420.5,337.5C 417.19,338.604 414.19,340.271 411.5,342.5C 403.941,346.582 399.108,352.915 397,361.5C 396.951,386.208 396.285,410.875 395,435.5C 391.588,445.746 384.754,452.413 374.5,455.5C 372.214,455.595 370.214,456.262 368.5,457.5C 366.833,457.5 365.167,457.5 363.5,457.5C 362.07,456.463 360.403,455.796 358.5,455.5C 346.228,451.656 339.061,443.323 337,430.5C 336.971,406.104 336.304,381.771 335,357.5C 330.724,347.049 323.224,340.382 312.5,337.5 Z"/></g>
<g><path style="opacity:1" fill="#fed7d4" d="M 290.5,342.5 C 298.19,346.499 303.023,352.832 305,361.5C 305.333,384.5 305.667,407.5 306,430.5C 308.399,443.723 315.899,452.39 328.5,456.5C 299.662,456.831 270.995,456.498 242.5,455.5C 261.208,450.624 272.042,438.624 275,419.5C 275.333,400.5 275.667,381.5 276,362.5C 277.683,353.437 282.517,346.77 290.5,342.5 Z"/></g>
<g><path style="opacity:1" fill="#fed7d4" d="M 411.5,342.5 C 419.469,346.727 424.302,353.394 426,362.5C 426.051,386.208 426.717,409.875 428,433.5C 432.353,444.352 439.853,452.019 450.5,456.5C 424.995,456.831 399.661,456.498 374.5,455.5C 384.754,452.413 391.588,445.746 395,435.5C 396.285,410.875 396.951,386.208 397,361.5C 399.108,352.915 403.941,346.582 411.5,342.5 Z"/></g>
<g><path style="opacity:1" fill="#fed7d4" d="M 104.5,396.5 C 118.5,396.5 132.5,396.5 146.5,396.5C 164.714,402.27 173.547,414.936 173,434.5C 176.172,444.836 182.672,452.169 192.5,456.5C 161.167,456.5 129.833,456.5 98.5,456.5C 85.8275,454.334 77.6608,447.001 74,434.5C 71.4815,417.388 77.9815,405.221 93.5,398C 97.0863,396.892 100.753,396.392 104.5,396.5 Z"/></g>
<g><path style="opacity:1" fill="#f4c2c5" d="M 146.5,396.5 C 156.839,396.334 167.172,396.5 177.5,397C 179.878,397.511 182.212,398.178 184.5,399C 198.124,406.735 204.624,418.569 204,434.5C 206.983,445.316 213.816,452.316 224.5,455.5C 214.013,456.494 203.346,456.828 192.5,456.5C 182.672,452.169 176.172,444.836 173,434.5C 173.547,414.936 164.714,402.27 146.5,396.5 Z"/></g>
<g><path style="opacity:0.975" fill="#e5646e" d="M 457.5,397.5 C 458.493,406.318 458.827,415.318 458.5,424.5C 472.171,424.333 485.837,424.5 499.5,425C 505.28,426.621 509.28,430.121 511.5,435.5C 511.5,439.167 511.5,442.833 511.5,446.5C 505.994,455.994 497.661,459.661 486.5,457.5C 485.07,456.463 483.403,455.796 481.5,455.5C 468.081,450.91 460.248,441.577 458,427.5C 457.5,417.506 457.334,407.506 457.5,397.5 Z"/></g>
<g><path style="opacity:0.562" fill="#f3a8ab" d="M 242.5,455.5 C 270.995,456.498 299.662,456.831 328.5,456.5C 338.681,456.827 348.681,456.494 358.5,455.5C 360.403,455.796 362.07,456.463 363.5,457.5C 320.167,457.5 276.833,457.5 233.5,457.5C 236.311,456.525 239.311,455.858 242.5,455.5 Z"/></g>
<g><path style="opacity:0.556" fill="#f3aaad" d="M 224.5,455.5 C 226.952,456.065 229.285,456.732 231.5,457.5C 186.997,457.832 142.664,457.499 98.5,456.5C 129.833,456.5 161.167,456.5 192.5,456.5C 203.346,456.828 214.013,456.494 224.5,455.5 Z"/></g>
<g><path style="opacity:0.557" fill="#f3aaad" d="M 374.5,455.5 C 399.661,456.498 424.995,456.831 450.5,456.5C 461.014,456.828 471.347,456.494 481.5,455.5C 483.403,455.796 485.07,456.463 486.5,457.5C 447.167,457.5 407.833,457.5 368.5,457.5C 370.214,456.262 372.214,455.595 374.5,455.5 Z"/></g>
</svg>
