<?xml version="1.0" encoding="UTF-8"?>
<svg version="1.1" xmlns="http://www.w3.org/2000/svg" width="512" height="512">
<path d="M0 0 C3.53239023 1.50684968 5.7962166 3.55366612 8.49316406 6.26611328 C9.37377502 7.14687531 10.25438599 8.02763733 11.16168213 8.93508911 C12.11310431 9.89672351 13.06441603 10.8584672 14.015625 11.8203125 C14.99596129 12.80438107 15.97674168 13.78800742 16.95794678 14.77120972 C19.53354467 17.35442714 22.10307857 19.94359512 24.67138672 22.53405762 C27.29551067 25.1786762 29.92533771 27.8176101 32.5546875 30.45703125 C37.7087167 35.63248072 42.85635157 40.81423122 48 46 C50.79984716 43.2412488 53.52156323 40.49463327 56.0078125 37.44921875 C56.51957031 36.83369141 57.03132813 36.21816406 57.55859375 35.58398438 C58.61563052 34.30420544 59.66761072 33.02023547 60.71484375 31.73242188 C62.07975249 30.09971458 63.53434342 28.54290628 65 27 C68 27 68 27 69.4779768 28.10883331 C70.25919635 28.89420094 70.25919635 28.89420094 71.05619812 29.69543457 C71.65772705 30.29283951 72.25925598 30.89024445 72.87901306 31.50575256 C73.53212967 32.169655 74.18524628 32.83355743 74.8581543 33.51757812 C75.55109589 34.21008163 76.24403748 34.90258514 76.95797729 35.61607361 C79.25390349 37.91409514 81.53901289 40.22257163 83.82421875 42.53125 C85.4111148 44.12373933 86.9986731 45.71556899 88.58686829 47.3067627 C92.77086426 51.50222843 96.94577455 55.70662454 101.11889648 59.91290283 C105.37657881 64.20123998 109.64273668 68.48112662 113.90820312 72.76171875 C122.28048277 81.16620015 130.64319445 89.58013411 139 98 C132.48079759 104.51920241 125.15541753 110.18622326 118 116 C131.2 129.2 144.4 142.4 158 156 C157 159 157 159 154.92480469 160.34350586 C154.01633789 160.79604736 153.10787109 161.24858887 152.171875 161.71484375 C151.15456299 162.23022705 150.13725098 162.74561035 149.08911133 163.27661133 C147.98720459 163.82470459 146.88529785 164.37279785 145.75 164.9375 C134.70273661 170.55007588 123.91555879 176.49308237 113.20703125 182.72314453 C111.31268162 183.81910123 109.41113425 184.89854326 107.5 185.96484375 C96.11070398 192.34340782 85.05724427 199.28658284 73.96533203 206.1640625 C71.55256978 207.65788533 69.13572987 209.14440873 66.71484375 210.625 C39.94917058 227.06326271 14.12930941 245.17596092 -11 264 C-11.72815918 264.5451123 -12.45631836 265.09022461 -13.20654297 265.65185547 C-23.41001129 273.31423897 -33.3232241 281.2844934 -43.12841797 289.44873047 C-45.7140356 291.59183175 -48.32624335 293.70072423 -50.9375 295.8125 C-55.30115175 299.37614893 -59.50202955 303.09082375 -63.66796875 306.8828125 C-65.75823889 308.78051169 -67.86986115 310.64733415 -70 312.5 C-76.60870914 318.2676007 -83.14661944 324.06271535 -89.29296875 330.32421875 C-91.11259568 332.11053443 -93.00453917 333.77477835 -94.9375 335.4375 C-101.52383819 341.13207093 -107.42979271 347.31575125 -113 354 C-111.74389964 356.60882382 -110.4210571 358.87668496 -108.8125 361.3125 C-107.15529919 364.20484299 -107 365.14486981 -107 368.6875 C-108.10726425 372.35531284 -108.87931829 373.80708853 -112 376 C-116.36373289 377.29983533 -119.00072749 377.15345443 -123 375 C-124.70294787 373.71332828 -126.37946188 372.38903267 -128 371 C-129.63942647 374.41778766 -129.63942647 374.41778766 -129.75 378.125 C-128.96351898 380.27789956 -128.96351898 380.27789956 -127 383 C-126.45371264 387.83854515 -126.24063873 389.88468814 -129 393.9375 C-132 396 -132 396 -135.92602539 396.11987305 C-138.47850541 396.39555182 -139.59656357 396.53603912 -141.30148315 398.49673462 C-142.43130084 400.67078131 -143.32419018 402.84991296 -144.18359375 405.14453125 C-144.69610939 406.39343643 -144.69610939 406.39343643 -145.21897888 407.66757202 C-146.32149466 410.37160481 -147.37875377 413.09107062 -148.4375 415.8125 C-149.18866564 417.67046768 -149.94339141 419.52699997 -150.70166016 421.38208008 C-152.17540828 424.9945938 -153.63552435 428.61204116 -155.08251953 432.23535156 C-181.7171607 498.726883 -181.7171607 498.726883 -208.8125 510.875 C-217.52599956 513.73923946 -225.94878292 512.47223435 -234.12890625 508.6640625 C-243.61777289 503.16439286 -250.77584744 494.11687103 -258 486 C-261.12417043 486.61926764 -263.296319 487.67496931 -265.9375 489.4375 C-273.37561793 494.39131612 -280.16521115 494.93367655 -289 494 C-298.05219282 491.06697042 -304.29804157 481.27309581 -309.75 474 C-313.3962202 469.33809923 -317.54827568 466.09650706 -322.26782227 462.61816406 C-328.48491966 457.9966696 -334.54106403 452.94309582 -336 445 C-337.15803119 435.49679165 -333.55790749 427.54287445 -328 420 C-329.34270708 416.95666791 -330.77091446 415.05048647 -333.265625 412.86328125 C-334.2261377 412.00404053 -334.2261377 412.00404053 -335.20605469 411.12744141 C-336.21780762 410.22904541 -336.21780762 410.22904541 -337.25 409.3125 C-342.70193934 404.34085669 -347.62336342 399.66165898 -351 393 C-351.33257812 392.39542969 -351.66515625 391.79085938 -352.0078125 391.16796875 C-355.58274364 383.51890438 -355.26746155 373.61672304 -352.5625 365.75 C-349.81827348 359.88733424 -345.61353729 355.46239176 -341 351 C-340.26652344 350.28328125 -339.53304688 349.5665625 -338.77734375 348.828125 C-314.55175804 327.24174944 -279.43776215 315.89916245 -249.890625 303.6484375 C-249.0385144 303.2947963 -248.18640381 302.94115509 -247.30847168 302.57679749 C-246.52121704 302.25158615 -245.7339624 301.92637482 -244.92285156 301.59130859 C-244.23499573 301.30693939 -243.54713989 301.02257019 -242.83843994 300.72958374 C-241.24645732 300.09780643 -239.62486802 299.54162267 -238 299 C-238.04125 297.9275 -238.0825 296.855 -238.125 295.75 C-237.94936709 290.48101266 -237.94936709 290.48101266 -236 288 C-232.50372382 285.6420463 -230.5540889 284.98121733 -226.3125 285.125 C-223.1401325 285.96298387 -221.90958381 286.41644543 -220 289 C-217.08482708 287.92598892 -215.22189824 287.22189824 -213 285 C-214.2375 283.7625 -214.2375 283.7625 -215.5 282.5 C-217.57763263 279.98903257 -218.4389866 278.20513536 -218.625 274.9375 C-218 271 -218 271 -216.0625 268 C-212.53793287 265.69824188 -210.50129573 265.22424484 -206.359375 265.42578125 C-202.10512153 266.46117075 -199.21348048 269.1601685 -196 272 C-195.60208252 271.60208252 -195.20416504 271.20416504 -194.79418945 270.79418945 C-185.55078125 261.55078125 -185.55078125 261.55078125 -183.69824219 259.69848633 C-182.28912293 258.2891645 -180.88078818 256.87905833 -179.47265625 255.46875 C-177.55174793 253.55087629 -175.62533572 251.63913549 -173.6953125 249.73046875 C-165.41573708 241.5522582 -165.41573708 241.5522582 -157.62890625 232.91015625 C-155.67762284 230.6219606 -153.65182313 228.4090094 -151.625 226.1875 C-147.73392149 221.87576435 -144.03991917 217.43577709 -140.38671875 212.921875 C-136.94316623 208.70620023 -133.40681681 204.57205803 -129.87109375 200.43359375 C-115.71859144 183.65666814 -102.72351422 165.87206136 -90 148 C-89.4951709 147.29423828 -88.9903418 146.58847656 -88.47021484 145.86132812 C-80.74608314 135.05994203 -73.29321071 124.09643389 -66 113 C-65.54802246 112.31502441 -65.09604492 111.63004883 -64.63037109 110.92431641 C-57.03686779 99.39960183 -49.83576382 87.64686616 -42.70800781 75.82958984 C-41.10962783 73.18161614 -39.50485651 70.53763287 -37.8984375 67.89453125 C-24.48645681 45.76762047 -11.57663466 23.15326932 0 0 Z " fill="#87BF56" transform="translate(354,0)"/>
<path d="M0 0 C1.52363968 1.54252815 1.52363968 1.54252815 3.15313721 3.52005005 C7.07211317 8.13477701 11.26483347 12.40556726 15.54980469 16.67919922 C16.37506149 17.50620834 17.2003183 18.33321747 18.05058289 19.18528748 C20.75518521 21.89426015 23.46339185 24.59959537 26.171875 27.3046875 C28.06055081 29.19403741 29.94907844 31.08353452 31.83746338 32.97317505 C35.78291445 36.92043796 39.73045292 40.86560407 43.67919922 44.80957031 C48.24195847 49.36686994 52.8010788 53.92778618 57.35836291 58.49056041 C61.2819433 62.41867758 65.20746738 66.34484435 69.13462567 70.2693845 C71.47582506 72.60902666 73.81614948 74.94953101 76.15511322 77.29140854 C78.75692522 79.89575195 81.36190705 82.49688218 83.96777344 85.09716797 C85.12731789 86.25974876 85.12731789 86.25974876 86.31028748 87.44581604 C87.37410393 88.50540276 87.37410393 88.50540276 88.45941162 89.58639526 C89.07437374 90.20098036 89.68933586 90.81556545 90.3229332 91.44877434 C92.12434634 93.19684442 92.12434634 93.19684442 95 95 C92.36757168 103.5127808 88.87711956 111.63196769 85.375 119.8125 C85.06186859 120.54609741 84.74873718 121.27969482 84.42611694 122.03552246 C82.29467352 127.02826906 80.15085656 132.01558961 78 137 C77.55253418 138.03882324 77.10506836 139.07764648 76.64404297 140.14794922 C50.79461261 199.84247224 50.79461261 199.84247224 26.1875 210.875 C17.47400044 213.73923946 9.05121708 212.47223435 0.87109375 208.6640625 C-8.61777289 203.16439286 -15.77584744 194.11687103 -23 186 C-26.12417043 186.61926764 -28.296319 187.67496931 -30.9375 189.4375 C-38.37561793 194.39131612 -45.16521115 194.93367655 -54 194 C-63.05219282 191.06697042 -69.29804157 181.27309581 -74.75 174 C-78.3962202 169.33809923 -82.54827568 166.09650706 -87.26782227 162.61816406 C-93.48491966 157.9966696 -99.54106403 152.94309582 -101 145 C-102.15803119 135.49679165 -98.55790749 127.54287445 -93 120 C-94.34270708 116.95666791 -95.77091446 115.05048647 -98.265625 112.86328125 C-98.9059668 112.2904541 -99.54630859 111.71762695 -100.20605469 111.12744141 C-100.88055664 110.52851074 -101.55505859 109.92958008 -102.25 109.3125 C-107.70193934 104.34085669 -112.62336342 99.66165898 -116 93 C-116.49886719 92.09314453 -116.49886719 92.09314453 -117.0078125 91.16796875 C-120.58274364 83.51890438 -120.26746155 73.61672304 -117.5625 65.75 C-114.81827348 59.88733424 -110.61353729 55.46239176 -106 51 C-104.89978516 49.92492187 -104.89978516 49.92492187 -103.77734375 48.828125 C-79.55175804 27.24174944 -44.43776215 15.89916245 -14.890625 3.6484375 C-13.61245911 3.11797569 -13.61245911 3.11797569 -12.30847168 2.57679749 C-11.52121704 2.25158615 -10.7339624 1.92637482 -9.92285156 1.59130859 C-9.23499573 1.30693939 -8.54713989 1.02257019 -7.83843994 0.72958374 C-3.26095951 -1.0869865 -3.26095951 -1.0869865 0 0 Z " fill="#D2D5D7" transform="translate(119,300)"/>
<path d="M0 0 C3.4993716 1.50372631 5.80168655 3.52707762 8.5090332 6.18676758 C9.39287186 7.05139114 10.27671051 7.91601471 11.18733215 8.80683899 C12.14236603 9.75218024 13.09683587 10.6980916 14.05078125 11.64453125 C15.03394827 12.61618807 16.01711786 13.58784229 17.00028992 14.55949402 C19.05591016 16.59414526 21.10686717 18.63338162 23.15551758 20.67504883 C25.78298711 23.29151581 28.4285122 25.88889723 31.07871723 28.48230457 C33.1141842 30.48056325 35.13614829 32.49207448 37.15462303 34.50748253 C38.1245346 35.47133688 39.09945104 36.43018174 40.0793705 37.38385963 C41.44624853 38.71669255 42.79263562 40.07044309 44.13793945 41.42504883 C44.90975052 42.18956863 45.68156158 42.95408844 46.47676086 43.74177551 C48 46 48 46 47.86442566 48.62919617 C46.69170758 51.84553349 44.87557025 53.66877768 42.5 56.125 C41.57714609 57.09940724 40.65662161 58.07602525 39.73828125 59.0546875 C39.27502441 59.54678711 38.81176758 60.03888672 38.33447266 60.54589844 C36.35447866 62.70338915 34.52263323 64.96885109 32.6875 67.25 C28.51224004 72.42288845 24.17408104 77.43554779 19.80419922 82.44335938 C16.57038701 86.15916585 13.40689026 89.91624215 10.3125 93.75 C6.53440563 98.4190892 2.53171986 102.83611324 -1.53515625 107.25390625 C-3.92707297 109.91875166 -6.19254884 112.64831825 -8.4375 115.4375 C-12.09635769 119.9739673 -15.94868963 124.258661 -19.91601562 128.52148438 C-22.8870119 131.73281228 -25.69953832 135.02618789 -28.4375 138.4375 C-32.79973891 143.85701405 -37.47965854 148.92483672 -42.22265625 154.0078125 C-44.9364646 156.91837875 -47.55739756 159.90011992 -50.16015625 162.91015625 C-52.56670156 165.64370559 -55.03303196 168.32114006 -57.5 171 C-60.53890177 174.30026876 -63.561561 177.60949347 -66.5 181 C-69.86525491 184.88050925 -73.33715616 188.66022279 -76.81469727 192.43969727 C-79.70967636 195.58748709 -82.5836869 198.75220952 -85.4375 201.9375 C-94.84808878 212.41595701 -104.48085699 222.69453634 -114.10546875 232.97607422 C-115.41068542 234.37043584 -116.71533995 235.76532381 -118.01953125 237.16064453 C-132.5194577 252.66751032 -132.5194577 252.66751032 -139.69140625 259.62890625 C-141.54122246 261.52880209 -143.25109281 263.44980349 -144.96875 265.46484375 C-150.30547871 271.6148839 -156.16164055 277.26738403 -161.9375 283 C-163.11026009 284.16773374 -164.28278798 285.33570074 -165.45507812 286.50390625 C-168.30071689 289.33863234 -171.14947453 292.17018824 -174 295 C-177.56764285 293.48623919 -179.83706287 291.39486871 -182.546875 288.6484375 C-183.81337891 287.37226562 -183.81337891 287.37226562 -185.10546875 286.0703125 C-186.41451172 284.73613281 -186.41451172 284.73613281 -187.75 283.375 C-188.63816406 282.4778125 -189.52632812 281.580625 -190.44140625 280.65625 C-192.63216969 278.44192996 -194.81812763 276.22307565 -197 274 C-193.61246357 269.97573019 -190.19044864 266.06752549 -186.4375 262.375 C-185.71433594 261.66085937 -184.99117187 260.94671875 -184.24609375 260.2109375 C-183.13427734 259.11652344 -183.13427734 259.11652344 -182 258 C-181.22527344 257.22527344 -180.45054687 256.45054687 -179.65234375 255.65234375 C-177.67234441 253.67234441 -175.68647931 251.69917345 -173.6953125 249.73046875 C-165.41573708 241.5522582 -165.41573708 241.5522582 -157.62890625 232.91015625 C-155.67762284 230.6219606 -153.65182313 228.4090094 -151.625 226.1875 C-147.73392149 221.87576435 -144.03991917 217.43577709 -140.38671875 212.921875 C-136.94316623 208.70620023 -133.40681681 204.57205803 -129.87109375 200.43359375 C-115.71859144 183.65666814 -102.72351422 165.87206136 -90 148 C-89.4951709 147.29423828 -88.9903418 146.58847656 -88.47021484 145.86132812 C-80.74608314 135.05994203 -73.29321071 124.09643389 -66 113 C-65.54802246 112.31502441 -65.09604492 111.63004883 -64.63037109 110.92431641 C-57.03686779 99.39960183 -49.83576382 87.64686616 -42.70800781 75.82958984 C-41.10962783 73.18161614 -39.50485651 70.53763287 -37.8984375 67.89453125 C-24.48645681 45.76762047 -11.57663466 23.15326932 0 0 Z " fill="#436B1C" transform="translate(354,0)"/>
<path d="M0 0 C2.65373489 1.06786538 4.10186345 2.49822552 6.1149292 4.53089905 C6.8954364 5.31163284 7.6759436 6.09236664 8.48010254 6.89675903 C9.31253479 7.74467514 10.14496704 8.59259125 11.00262451 9.46620178 C12.29260345 10.76254799 12.29260345 10.76254799 13.60864258 12.08508301 C16.35645526 14.84970165 19.09365987 17.62456415 21.83074951 20.39979553 C23.69073776 22.27482805 25.55140658 24.14918572 27.41278076 26.02284241 C31.97669924 30.6198557 36.53194889 35.22532508 41.08074951 39.83729553 C40.08074951 42.83729553 40.08074951 42.83729553 38.0055542 44.18080139 C37.0970874 44.6333429 36.18862061 45.0858844 35.25262451 45.55213928 C34.2353125 46.06752258 33.21800049 46.58290588 32.16986084 47.11390686 C31.0679541 47.66200012 29.96604736 48.21009338 28.83074951 48.77479553 C17.78348612 54.38737142 6.9963083 60.3303779 -3.71221924 66.56044006 C-5.60656887 67.65639676 -7.50811624 68.73583879 -9.41925049 69.80213928 C-20.80854651 76.18070335 -31.86200621 83.12387837 -42.95391846 90.00135803 C-45.36668071 91.49518086 -47.78352061 92.98170427 -50.20440674 94.46229553 C-76.97007991 110.90055824 -102.78994108 129.01325645 -127.91925049 147.83729553 C-128.64740967 148.38240784 -129.37556885 148.92752014 -130.12579346 149.489151 C-140.32926178 157.1515345 -150.24247459 165.12178893 -160.04766846 173.286026 C-162.63328609 175.42912729 -165.24549384 177.53801976 -167.85675049 179.64979553 C-172.22040224 183.21344446 -176.42128004 186.92811928 -180.58721924 190.72010803 C-182.67748938 192.61780722 -184.78911164 194.48462968 -186.91925049 196.33729553 C-193.52795962 202.10489623 -200.06586992 207.90001088 -206.21221924 214.16151428 C-208.03184616 215.94782996 -209.92378966 217.61207389 -211.85675049 219.27479553 C-218.79107558 225.27204966 -224.98215119 231.86120385 -230.91925049 238.83729553 C-234.48689334 237.32353472 -236.75631336 235.23216424 -239.46612549 232.48573303 C-240.31046143 231.63495178 -241.15479736 230.78417053 -242.02471924 229.90760803 C-242.89741455 229.01815491 -243.77010986 228.12870178 -244.66925049 227.21229553 C-246.00149658 225.86651428 -246.00149658 225.86651428 -247.36065674 224.49354553 C-249.55142018 222.27922549 -251.73737812 220.06037118 -253.91925049 217.83729553 C-246.92163547 209.50462924 -239.36180689 201.83659924 -231.07940674 194.77870178 C-227.74221531 191.77945379 -224.61336427 188.57515066 -221.48199463 185.3629303 C-218.1234361 181.94505947 -214.60422086 178.77949556 -210.98077393 175.64491272 C-207.58794122 172.66995614 -204.32181082 169.56299462 -201.04425049 166.46229553 C-195.07293586 160.8389049 -189.04311192 155.29461422 -182.91925049 149.83729553 C-181.21040853 148.29619266 -179.50208148 146.75451867 -177.79425049 145.21229553 C-170.80093877 138.92264521 -163.69134376 132.77689562 -156.54522705 126.6622467 C-152.15544432 122.9037996 -147.78323409 119.12565297 -143.41925049 115.33729553 C-129.32654348 103.10843329 -115.1964408 90.91584974 -100.72003174 79.14198303 C-97.65149055 76.61696309 -94.62891895 74.0423722 -91.60675049 71.46229553 C-86.55696998 67.15795881 -81.38929015 63.03382048 -76.15045166 58.96278381 C-72.15712525 55.84623014 -68.26657967 52.63191476 -64.41925049 49.33729553 C-58.90380789 44.61897407 -53.24542488 40.11460244 -47.52081299 35.65370178 C-43.7936448 32.74789479 -40.10473617 29.79568346 -36.41925049 26.83729553 C-30.4264654 22.03300206 -24.41565576 17.25333958 -18.35675049 12.53260803 C-15.97983272 10.67921048 -13.63121202 8.7954759 -11.29425049 6.89198303 C-10.12766431 5.95698676 -8.96100053 5.02208731 -7.79425049 4.08729553 C-7.26170654 3.64434143 -6.7291626 3.20138733 -6.18048096 2.74501038 C-2.45630541 -0.2082333 -2.45630541 -0.2082333 0 0 Z " fill="#87BF56" transform="translate(470.91925048828125,116.16270446777344)"/>
<path d="M0 0 C4.75085867 3.96372525 9.23613112 8.09794782 13.58984375 12.4921875 C14.17923233 13.08299103 14.76862091 13.67379456 15.37586975 14.28250122 C17.23213727 16.14430404 19.08487085 18.00957745 20.9375 19.875 C22.20614672 21.14867011 23.4750249 22.42210971 24.74414062 23.6953125 C27.83210554 26.79422043 30.91690929 29.89624301 34 33 C31.27476663 35.76630412 28.57376465 38.46749653 25.546875 40.90234375 C24.93255615 41.39677979 24.3182373 41.89121582 23.68530273 42.40063477 C23.04665283 42.90780029 22.40800293 43.41496582 21.75 43.9375 C21.08105713 44.47109131 20.41211426 45.00468262 19.72290039 45.55444336 C15.71881244 48.72056789 11.65107182 51.64481917 7.3515625 54.3984375 C2.30584085 57.83489244 -2.40588891 61.75024948 -7.17822266 65.55322266 C-8.9288908 66.94352813 -10.68701144 68.32357963 -12.44921875 69.69921875 C-19.37880741 75.109343 -26.23016219 80.60663914 -33.04077148 86.16577148 C-37.30271367 89.63871244 -41.60136218 93.05781736 -45.9375 96.4375 C-56.99978923 105.07519965 -67.7713719 114.07490548 -78.46459961 123.16357422 C-84.43608848 128.23365307 -90.50807901 133.17919896 -96.6015625 138.1015625 C-103.24542318 143.491125 -109.72069575 149.05510367 -116.171875 154.671875 C-119.78734452 157.81941722 -123.42094841 160.94519655 -127.0625 164.0625 C-127.91932373 164.79666138 -127.91932373 164.79666138 -128.79345703 165.5456543 C-131.72569709 168.05705211 -134.66161476 170.56403582 -137.6015625 173.06640625 C-144.01568239 178.53315376 -150.33808745 184.06989988 -156.55078125 189.765625 C-159.32499872 192.29649006 -162.14707121 194.76639391 -164.98046875 197.23046875 C-168.16284226 200.01889274 -171.30049426 202.85645829 -174.44140625 205.69140625 C-176.09252333 207.1811928 -177.74600144 208.66836877 -179.40234375 210.15234375 C-185.19532759 215.34443461 -190.92527075 220.60118411 -196.6328125 225.88671875 C-198.8710228 227.95911161 -201.11598029 230.02376597 -203.3671875 232.08203125 C-209.30084475 237.515427 -215.08398882 243.04239769 -220.73828125 248.76953125 C-223.35915881 251.35419633 -226.10928534 253.73887702 -228.90625 256.12890625 C-233.11997088 259.89452622 -237.0420697 263.96907508 -241 268 C-244.68069887 266.46356148 -246.98775204 264.21849055 -249.75 261.375 C-250.94882813 260.14910156 -250.94882813 260.14910156 -252.171875 258.8984375 C-252.77515625 258.27195312 -253.3784375 257.64546875 -254 257 C-252.50434811 253.51338274 -250.51200352 251.26412682 -247.83673763 248.59343529 C-246.95903995 247.7123722 -246.08134226 246.83130912 -245.17704767 245.92354715 C-244.19721626 244.95011268 -243.21729355 243.97677011 -242.23728943 243.00350952 C-241.2005223 241.96658637 -240.16419623 240.92922207 -239.1282745 239.89145434 C-236.27740569 237.03804994 -233.42033357 234.19092779 -230.56223738 231.34476519 C-227.48225267 228.27545863 -224.40804643 225.20037427 -221.3331604 222.1259613 C-216.00361262 216.79877731 -210.67046761 211.47521664 -205.33492851 206.15403366 C-197.61901619 198.4587845 -189.90909335 190.75755705 -182.20072521 183.05475171 C-169.69261555 170.55590129 -157.18041111 158.06115873 -144.6652832 145.56933594 C-143.91603221 144.82147826 -143.16678121 144.07362058 -142.39482564 143.30310054 C-141.64461908 142.55428951 -140.89441252 141.80547847 -140.12147242 141.0339762 C-129.48138911 130.41366717 -118.84227936 119.79238414 -108.2043457 109.16992188 C-107.45570066 108.42236769 -106.70705562 107.6748135 -105.93572437 106.90460615 C-93.46880067 94.45568364 -81.00389189 82.0047449 -68.54001957 69.5527674 C-60.84636902 61.86672116 -53.15064379 54.18276258 -45.45225383 46.50146331 C-40.181897 41.24264562 -34.91321228 35.98215686 -29.64585739 30.72033237 C-26.60303866 27.68085602 -23.55936724 24.64224545 -20.51351738 21.60580635 C-17.72900241 18.82987967 -14.94675618 16.05170054 -12.16634215 13.27166648 C-11.15650417 12.26279962 -10.14580352 11.25479544 -9.13418668 10.2477123 C-7.76630765 8.88573228 -6.40176319 7.52040564 -5.03742123 6.15488243 C-4.27640667 5.39533174 -3.51539211 4.63578105 -2.73131651 3.85321367 C-0.93461595 2.10573386 -0.93461595 2.10573386 0 0 Z " fill="#659C35" transform="translate(459,65)"/>
<path d="M0 0 C6.18134869 5.10448822 11.79822878 10.68294942 17.4375 16.375 C18.35982422 17.30183594 19.28214844 18.22867188 20.23242188 19.18359375 C22.49058625 21.45345846 24.74636942 23.72563538 27 26 C21.94283823 32.11066216 16.43950806 37.69844198 10.82546997 43.29478455 C9.79300306 44.32768807 8.76075616 45.36081155 7.7287091 46.39413458 C4.90551298 49.2195578 2.07922341 52.04186847 -0.74759817 54.86366379 C-3.80046135 57.91219695 -6.85042213 60.96363148 -9.90074158 64.01470947 C-15.1815826 69.29607412 -20.46424728 74.57560892 -25.74816513 79.85389519 C-33.38776318 87.48535628 -41.02458901 95.11958659 -48.6607473 102.75448937 C-61.05084684 115.14240184 -73.44317655 127.52808082 -85.83691406 139.91235352 C-97.87422034 151.94047675 -109.91047289 163.96965283 -121.9453125 176.00024414 C-122.68749806 176.74216698 -123.42968362 177.48408981 -124.19435965 178.24849515 C-127.91778679 181.97061724 -131.64119326 185.69276001 -135.36458945 189.41491306 C-166.23985444 220.27981618 -197.11874117 251.14109398 -228 282 C-229.12633231 281.04558237 -230.25111702 280.08933817 -231.37524414 279.13232422 C-232.00177383 278.6000119 -232.62830353 278.06769958 -233.27381897 277.51925659 C-235.1748813 275.84608245 -236.83216888 274.08272088 -238.4375 272.125 C-238.93121094 271.52945312 -239.42492187 270.93390625 -239.93359375 270.3203125 C-240.28550781 269.88460938 -240.63742188 269.44890625 -241 269 C-240.09757568 268.1028125 -239.19515137 267.205625 -238.26538086 266.28125 C-234.88761614 262.92171518 -231.51326835 259.55876556 -228.13989258 256.19482422 C-226.68507983 254.74501083 -225.22936717 253.29609983 -223.77270508 251.84814453 C-221.66765449 249.75535357 -219.56596381 247.65923626 -217.46484375 245.5625 C-216.82288559 244.92570313 -216.18092743 244.28890625 -215.51951599 243.6328125 C-211.70992431 239.82368483 -208.09389299 235.90261446 -204.58924866 231.81066895 C-202.03312286 228.89841378 -199.27015013 226.20662225 -196.5 223.5 C-192.37785696 219.42935449 -188.42276184 215.30998672 -184.671875 210.890625 C-182.06108371 207.93823484 -179.23390952 205.21200177 -176.40625 202.46875 C-174.42883986 200.43997856 -172.5658738 198.3804804 -170.7109375 196.2421875 C-166.96401638 191.92407712 -163.0614539 187.76995754 -159.125 183.625 C-154.06415029 178.27254537 -149.04513571 172.89482727 -144.14453125 167.39453125 C-141.58000601 164.53104496 -138.97841665 161.70308365 -136.375 158.875 C-132.81411892 155.00305065 -129.30955257 151.09094233 -125.8671875 147.11328125 C-123.96108478 144.95595579 -122.01202082 142.84175747 -120.05493164 140.73071289 C-116.08149414 136.44249393 -112.22590452 132.12347187 -108.5625 127.5625 C-104.71954521 122.78458662 -100.63168671 118.31005016 -96.44384766 113.83837891 C-92.52093146 109.62570895 -88.88088976 105.23586445 -85.27734375 100.74609375 C-82.78173453 97.73680853 -80.16233195 94.86062978 -77.5 92 C-73.21039593 87.39001057 -69.19588878 82.62216484 -65.24609375 77.71484375 C-62.9116941 74.89326505 -60.48009402 72.19409288 -58 69.5 C-53.98394153 65.13230508 -50.20614546 60.63150764 -46.48046875 56.015625 C-43.55030462 52.45328373 -40.53203583 48.97559932 -37.5 45.5 C-30.62119347 37.59785076 -23.90879047 29.62352536 -17.6875 21.1875 C-12.25577771 13.86188515 -6.45578176 6.45578176 0 0 Z " fill="#659C35" transform="translate(420,26)"/>
<path d="M0 0 C1.47485352 1.49609375 1.47485352 1.49609375 3.06640625 3.4375 C7.4203037 8.56916551 12.15780626 13.26755799 16.9375 18 C18.24944336 19.30517578 18.24944336 19.30517578 19.58789062 20.63671875 C21.72297449 22.76013549 23.86037205 24.88116378 26 27 C17.19394927 34.12110648 7.89557676 40.47239196 -1.5625 46.6875 C-11.90590437 53.53475677 -22.02919217 60.62253116 -32 68 C-32.56074219 68.4129834 -33.12148437 68.8259668 -33.69921875 69.25146484 C-37.15806679 71.8018315 -40.58697496 74.38869225 -44 77 C-44.53512207 77.40895508 -45.07024414 77.81791016 -45.62158203 78.23925781 C-54.47994803 85.03296864 -62.98432687 92.17633921 -71.35791016 99.55761719 C-72.79667607 100.82140384 -74.24702816 102.071975 -75.69921875 103.3203125 C-80.01551692 107.05768443 -83.85704029 110.928102 -87.4921875 115.3359375 C-89 117 -89 117 -92 119 C-92.4846875 118.50371094 -92.969375 118.00742187 -93.46875 117.49609375 C-96.89025917 114.02852581 -100.31952827 110.6828639 -104.0625 107.5625 C-112.07328769 100.60617749 -118.17911991 92.35407011 -119.37890625 81.60546875 C-119.73047717 71.13772809 -117.76795792 63.90636758 -110.9375 55.9375 C-109.31916795 54.26461743 -107.67301016 52.61820015 -106 51 C-104.89978516 49.92492187 -104.89978516 49.92492187 -103.77734375 48.828125 C-79.55175804 27.24174944 -44.43776215 15.89916245 -14.890625 3.6484375 C-13.61245911 3.11797569 -13.61245911 3.11797569 -12.30847168 2.57679749 C-11.52121704 2.25158615 -10.7339624 1.92637482 -9.92285156 1.59130859 C-9.23499573 1.30693939 -8.54713989 1.02257019 -7.83843994 0.72958374 C-3.26095951 -1.0869865 -3.26095951 -1.0869865 0 0 Z " fill="#E5E5E5" transform="translate(119,300)"/>
<path d="M0 0 C3.9269116 1.59582881 6.37034941 4.15647896 9.31640625 7.15625 C10.06300758 7.91065369 10.06300758 7.91065369 10.82469177 8.68029785 C12.40880834 10.28216845 13.98605744 11.89057948 15.5625 13.5 C17.14336721 15.10853419 18.72568963 16.71556612 20.3110199 18.31970215 C21.74783965 19.77433342 23.17983008 21.23373016 24.61157227 22.69335938 C26.97179552 25.11048019 26.97179552 25.11048019 30 27 C27.36757168 35.5127808 23.87711956 43.63196769 20.375 51.8125 C20.06186859 52.54609741 19.74873718 53.27969482 19.42611694 54.03552246 C17.29467352 59.02826906 15.15085656 64.01558961 13 69 C12.55253418 70.03882324 12.10506836 71.07764648 11.64404297 72.14794922 C-14.20538739 131.84247224 -14.20538739 131.84247224 -38.8125 142.875 C-47.52698187 145.73956236 -55.95346958 144.4736421 -64.1328125 140.66015625 C-73.99459914 134.94999368 -81.44840886 125.3949819 -89 117 C-87.55993075 113.68354684 -85.77544802 111.56282576 -83.18359375 109.05859375 C-82.42393311 108.31593262 -81.66427246 107.57327148 -80.8815918 106.80810547 C-79.67176636 105.63465576 -79.67176636 105.63465576 -78.4375 104.4375 C-71.80093958 97.89778097 -65.71817075 91.3562944 -60 84 C-58.98011874 82.75359201 -57.9563716 81.51034164 -56.9296875 80.26953125 C-50.37732906 72.34020703 -44.19006867 64.26663816 -38.29980469 55.83691406 C-36.95349862 53.93428318 -35.57910889 52.05520732 -34.1953125 50.1796875 C-24.35944764 36.8154114 -15.22953117 22.98990138 -6.08374023 9.14941406 C-4.06278047 6.09488787 -2.03341025 3.04624304 0 0 Z " fill="#EEEEEE" transform="translate(184,368)"/>
<path d="M0 0 C5.56735607 1.33424568 8.93025914 6.11291971 12.50828552 10.28535461 C16.1031199 14.40989058 19.88447467 18.30314097 23.75805664 22.16479492 C24.47120529 22.87969589 25.18435394 23.59459686 25.91911316 24.3311615 C28.25217855 26.66859022 30.58883763 29.00238669 32.92578125 31.3359375 C34.56064709 32.97147782 36.19536454 34.60716649 37.8299408 36.24299622 C41.24511228 39.65963707 44.66207339 43.07447518 48.08032227 46.48803711 C52.45377389 50.85578285 56.8227083 55.22801515 61.1903162 59.60160351 C64.56086902 62.97577476 67.93380602 66.34755459 71.30746269 69.71862221 C72.91928876 71.32978303 74.5303774 72.94168196 76.1407032 74.55434227 C78.39224917 76.80843681 80.64699146 79.05928575 82.90258789 81.30932617 C83.89166641 82.30144104 83.89166641 82.30144104 84.90072632 83.31359863 C87.7122472 86.11234847 90.52538738 88.81169141 93.60472107 91.31538391 C96.67958793 93.88951924 97.97614562 95.75038233 99.265625 99.54296875 C99.19792587 103.46951835 98.86008678 105.70631884 96.578125 108.91796875 C93.69721076 110.94239497 91.77706453 111.39964469 88.265625 111.54296875 C84.18813899 110.44900909 81.44489977 108.26806141 78.265625 105.54296875 C76.62619853 108.96075641 76.62619853 108.96075641 76.515625 112.66796875 C77.30210602 114.82086831 77.30210602 114.82086831 79.265625 117.54296875 C79.8149917 122.40878809 80.00052873 124.44061315 77.265625 128.54296875 C74.25233839 130.55182649 72.15013101 131.51738291 68.4860239 131.2856636 C65.50374837 130.28813082 63.84448346 128.67925433 61.55174255 126.53485107 C60.67325087 125.71670677 59.79475918 124.89856247 58.88964653 124.05562592 C55.01120297 120.34178482 51.17115303 116.59604151 47.37524414 112.79785156 C46.54954926 111.97551529 45.72385437 111.15317902 44.87313843 110.30592346 C42.17973637 107.62192197 39.49002721 104.93425901 36.80078125 102.24609375 C35.39354603 100.84126145 33.98630975 99.4364302 32.57894987 98.03172278 C28.1702686 93.63113131 23.76438781 89.22774955 19.36010742 84.82275391 C14.82705697 80.28910016 10.28842719 75.76108476 5.74721628 71.23560643 C1.83089833 67.33236989 -2.08154862 63.42528169 -5.99101168 59.5151794 C-8.31875782 57.18717897 -10.64846975 54.86120899 -12.98118401 52.53818512 C-15.57547445 49.95367533 -18.16337254 47.36292713 -20.74975586 44.77050781 C-21.51807236 44.00781082 -22.28638885 43.24511383 -23.07798767 42.45930481 C-29.90772158 35.58892934 -29.90772158 35.58892934 -31.734375 31.54296875 C-31.66657653 27.67845605 -31.30013861 25.36985403 -29.109375 22.16796875 C-25.90748972 19.97720514 -23.5988877 19.61076722 -19.734375 19.54296875 C-16.984375 20.91796875 -16.984375 20.91796875 -14.734375 22.54296875 C-13.744375 22.87296875 -12.754375 23.20296875 -11.734375 23.54296875 C-9.04004183 21.67099421 -9.04004183 21.67099421 -6.734375 19.54296875 C-7.559375 18.71796875 -8.384375 17.89296875 -9.234375 17.04296875 C-11.31200763 14.53200132 -12.1733616 12.74810411 -12.359375 9.48046875 C-11.734375 5.54296875 -11.734375 5.54296875 -9.796875 2.54296875 C-6.25139982 0.22755639 -4.17063916 -0.25548617 0 0 Z " fill="#A4703F" transform="translate(147.734375,265.45703125)"/>
<path d="M0 0 C5.56735607 1.33424568 8.93025914 6.11291971 12.50828552 10.28535461 C16.1031199 14.40989058 19.88447467 18.30314097 23.75805664 22.16479492 C24.47120529 22.87969589 25.18435394 23.59459686 25.91911316 24.3311615 C28.25217855 26.66859022 30.58883763 29.00238669 32.92578125 31.3359375 C34.56064709 32.97147782 36.19536454 34.60716649 37.8299408 36.24299622 C41.24511228 39.65963707 44.66207339 43.07447518 48.08032227 46.48803711 C52.45377389 50.85578285 56.8227083 55.22801515 61.1903162 59.60160351 C64.56086902 62.97577476 67.93380602 66.34755459 71.30746269 69.71862221 C72.91928876 71.32978303 74.5303774 72.94168196 76.1407032 74.55434227 C78.39224917 76.80843681 80.64699146 79.05928575 82.90258789 81.30932617 C83.89166641 82.30144104 83.89166641 82.30144104 84.90072632 83.31359863 C87.7122472 86.11234847 90.52538738 88.81169141 93.60472107 91.31538391 C96.67958793 93.88951924 97.97614562 95.75038233 99.265625 99.54296875 C99.19792587 103.46951835 98.86008678 105.70631884 96.578125 108.91796875 C93.69721076 110.94239497 91.77706453 111.39964469 88.265625 111.54296875 C82.89582768 110.23879053 80.05366329 106.44720571 76.51367188 102.48681641 C75.17136121 101.02073405 73.82679872 99.55671088 72.48022461 98.09454346 C71.7855307 97.33907478 71.09083679 96.58360611 70.37509155 95.80524445 C67.0129901 92.19959335 63.54636777 88.70194831 60.06445312 85.21240234 C59.36254601 84.50835077 58.66063889 83.8042992 57.93746185 83.07891273 C55.72599774 80.86433556 53.51159987 78.65272207 51.296875 76.44140625 C49.72068001 74.86453517 48.14463327 73.28751588 46.56872559 71.71035767 C43.29971259 68.43988594 40.02893747 65.17119016 36.75683594 61.90380859 C32.57650848 57.72922025 28.40074582 53.55009895 24.22626495 49.36966515 C20.98693698 46.12671822 17.74522462 42.88616321 14.50279236 39.64632034 C12.96157092 38.10576227 11.42108166 36.5644713 9.88136292 35.02241135 C7.73387304 32.87236821 5.58318075 30.72557892 3.43164062 28.57958984 C2.49485977 27.63977264 2.49485977 27.63977264 1.53915405 26.68096924 C-1.95641764 23.20199823 -5.54281426 19.9311587 -9.35739899 16.80340004 C-11.82848784 14.54145961 -11.77084714 13.17216868 -12.109375 9.73046875 C-12.04228611 6.38212311 -11.71376247 5.51105257 -9.796875 2.54296875 C-6.25139982 0.22755639 -4.17063916 -0.25548617 0 0 Z " fill="#A36F3E" transform="translate(147.734375,265.45703125)"/>
<path d="M0 0 C2.46740539 0.93293126 3.73977221 2.08772759 5.60322857 3.95171165 C6.28882854 4.63029732 6.97442852 5.30888298 7.68080425 6.00803185 C8.42226192 6.75713326 9.1637196 7.50623466 9.92764568 8.27803612 C10.71666271 9.06340248 11.50567974 9.84876884 12.31860638 10.65793419 C14.92922859 13.26043888 17.52882104 15.87366371 20.12808514 18.48750877 C21.9355016 20.29544367 23.74343594 22.10286097 25.55186749 23.9097805 C29.34186699 27.69986979 33.12680507 31.49491145 36.90762615 35.2941494 C41.27976077 39.68745891 45.66066691 44.0718659 50.04651803 48.45147932 C54.26506152 52.66432991 58.47786484 56.88288117 62.68800068 61.10413551 C64.48048245 62.90047453 66.27432442 64.69545731 68.06952763 66.48907661 C70.57408163 68.99326104 73.0720555 71.50382427 75.56827068 74.01631737 C76.31580105 74.76137032 77.06333141 75.50642326 77.83351421 76.27405357 C78.51065472 76.95827888 79.18779522 77.6425042 79.88545513 78.34746361 C80.47665992 78.94072126 81.0678647 79.53397892 81.67698479 80.14521408 C83.05386639 81.77657127 83.05386639 81.77657127 84.05386639 84.77657127 C82.98131761 87.29355759 81.50583186 89.44462672 80.05386639 91.77657127 C76.92036952 90.38618368 74.79870474 88.76914867 72.38388348 86.3470974 C71.67159588 85.63755913 70.95930828 84.92802086 70.22543621 84.19698143 C69.45435528 83.41870995 68.68327435 82.64043846 67.88882732 81.83858299 C67.06894329 81.01899101 66.24905926 80.19939903 65.40433025 79.35497093 C62.69420015 76.64344695 59.99122391 73.92490635 57.28824139 71.20625877 C55.4110921 69.32537957 53.53355439 67.4448964 51.65548992 65.56493187 C47.21752233 61.12075101 42.78467714 56.67149706 38.35365224 52.22039521 C33.30803229 47.15241151 28.25672423 42.09011356 23.20493174 37.02828383 C12.81490541 26.61735899 2.43203567 16.19931622 -7.94613361 5.77657127 C-6.94613361 2.77657127 -6.94613361 2.77657127 -4.63363361 1.02657127 C-1.94613361 -0.22342873 -1.94613361 -0.22342873 0 0 Z " fill="#CECECC" transform="translate(142.94613361358643,286.2234287261963)"/>
<path d="M0 0 C3.07799883 1.80368103 5.40703389 4.16610273 7.87890625 6.71875 C8.57644516 7.41005005 9.27398407 8.1013501 9.99266052 8.81359863 C11.4563957 10.27559706 12.90897672 11.74883872 14.35083008 13.23242188 C16.55796918 15.49535465 18.80692465 17.70933484 21.06445312 19.921875 C22.48449893 21.35146193 23.90191113 22.78367075 25.31640625 24.21875 C25.9881337 24.87742065 26.65986115 25.53609131 27.35194397 26.21472168 C30.44725222 29.4539865 32.40788004 31.70113316 32.54272461 36.29882812 C32 40 32 40 30 43 C26.91529712 45.05646858 24.8113558 45.86675394 21.07543945 45.59814453 C13.27039892 43.34872102 6.38774702 33.6062502 0.6796875 27.91992188 C-0.88623211 26.36383845 -2.46251689 24.81874506 -4.0390625 23.2734375 C-5.04492502 22.27409552 -6.05015666 21.27411806 -7.0546875 20.2734375 C-7.95687012 19.38060059 -8.85905273 18.48776367 -9.78857422 17.56787109 C-12.79812577 14.07322954 -14.06354682 11.55689714 -13.875 6.9375 C-11.72576772 -0.27777979 -6.87431069 -1.34037589 0 0 Z " fill="#FEFEFE" transform="translate(51,429)"/>
<path d="M0 0 C2.08086969 1.77128644 4.05767963 3.60572228 6.01171875 5.515625 C6.54667969 6.02609375 7.08164063 6.5365625 7.6328125 7.0625 C10.14474009 9.70963049 11.00221276 11.45542041 11.57421875 15.078125 C10.92601464 19.03937237 9.82372501 20.70361874 7.01171875 23.515625 C4.03708538 25.00294168 2.33893032 24.9469302 -0.98828125 24.515625 C-6.87751997 21.27833556 -12.27560149 16.10078673 -15.98828125 10.515625 C-17.1564208 6.43022688 -16.98183374 4.30337474 -14.98828125 0.515625 C-13.48906393 -1.39246977 -12.38428181 -2.30685751 -10.17578125 -3.296875 C-6.12893491 -3.64374754 -3.23333873 -2.41388746 0 0 Z " fill="#FEFEFE" transform="translate(136.98828125,468.484375)"/>
<path d="M0 0 C6.65786202 2.22697985 12.29467565 9.17539482 16.25390625 14.75390625 C17.01908365 17.5402074 16.89443257 19.94239251 16.25390625 22.75390625 C13.68514012 26.60705545 12.06707233 27.56095159 7.56640625 28.62890625 C1.40060243 28.26621191 -2.77204411 23.00505799 -6.74609375 18.75390625 C-10.16964198 14.89280608 -11.48693115 12.79139482 -11.1875 7.69140625 C-9.92477547 2.14882776 -5.4802131 -0.32236548 0 0 Z " fill="#FEFEFE" transform="translate(29.74609375,363.24609375)"/>
<path d="M0 0 C3.52198428 1.50598987 5.80985409 3.55215826 8.51171875 6.24609375 C9.77145508 7.50196289 9.77145508 7.50196289 11.05664062 8.78320312 C11.92482422 9.65912109 12.79300781 10.53503906 13.6875 11.4375 C14.56728516 12.30955078 15.44707031 13.18160156 16.35351562 14.08007812 C17.18947266 14.91861328 18.02542969 15.75714844 18.88671875 16.62109375 C20.03466919 17.77242798 20.03466919 17.77242798 21.20581055 18.94702148 C23 21 23 21 24 24 C22.92745123 26.51698632 21.45196548 28.66805545 20 31 C14.55286658 28.70821345 10.791657 24.20138563 6.67114258 20.09667969 C5.18684053 18.62434584 3.68489741 17.1716937 2.18164062 15.71875 C1.24900391 14.79320312 0.31636719 13.86765625 -0.64453125 12.9140625 C-1.50409424 12.0679541 -2.36365723 11.2218457 -3.24926758 10.35009766 C-5 8 -5 8 -4.90112305 5.83349609 C-3.69700521 3.38350288 -2.01189435 1.8171949 0 0 Z " fill="#EAE6E3" transform="translate(203,347)"/>
<path d="M0 0 C5.00917776 1.99437892 8.70191005 6.9082744 12.44458008 10.66137695 C13.38881836 11.57725586 14.33305664 12.49313477 15.3059082 13.43676758 C16.6371875 14.76417969 16.6371875 14.76417969 17.99536133 16.1184082 C18.81302979 16.92898682 19.63069824 17.73956543 20.47314453 18.57470703 C22.13208008 20.84887695 22.13208008 20.84887695 22.01953125 23.00390625 C20.83271152 25.4712506 19.14915251 27.02700508 17.13208008 28.84887695 C13.36604138 27.28604713 10.99568857 24.94252945 8.14770508 22.05981445 C7.68724792 21.5965274 7.22679077 21.13324036 6.75238037 20.65591431 C5.2908293 19.18321797 3.8364084 17.70370293 2.38208008 16.22387695 C1.38905397 15.22081374 0.39556919 14.21820438 -0.59838867 13.21606445 C-3.02689933 10.7655686 -5.44906668 8.30891026 -7.86791992 5.84887695 C-6.86791992 2.84887695 -6.86791992 2.84887695 -4.55541992 1.09887695 C-1.86791992 -0.15112305 -1.86791992 -0.15112305 0 0 Z " fill="#E1DEDB" transform="translate(142.867919921875,286.151123046875)"/>
</svg>
