<?xml version="1.0" encoding="UTF-8"?>
<svg id="Layer_1" xmlns="http://www.w3.org/2000/svg" viewBox="0 0 448.42 536.93">
  <defs>
    <style>
      .cls-1 {
        fill: #be7752;
      }

      .cls-2 {
        fill: #dd3736;
      }

      .cls-3 {
        fill: #a36643;
      }

      .cls-4 {
        fill: #f94c4d;
      }

      .cls-5 {
        fill: #d7d6d6;
      }
    </style>
  </defs>
  <path class="cls-5" d="M61.18,285.16c-3.49-9.02-10.66-15.48-16.24-23.01-5.56-7.5-5.19-13.81,1.41-20.21,18.02-17.46,36.03-34.92,53.88-52.56,6.07-6,13.39-6.64,21.18-6.27,8.71,4.85,17.41,9.7,26.11,14.55,24.33,15.39,49.25,29.77,74.78,43.09,8.4,5.81,16.81,11.62,26.53,15.11,23.12,15.42,47.44,28.77,71.99,41.73,7.26,5.62,15.11,10.22,23.66,13.61,7.23,8.65,7.14,18.28,4.61,28.69-4.63,19.03-8.77,38.19-12.94,57.33-3.27,15.04-12.6,18.46-25.23,9.16-4.37-3.21-8.96-6.12-13.46-9.17-10.46-9.15-21.3-17.78-33.44-24.66-7.91-6.65-14.47-15.33-26.17-16-36.94-2.11-73.86-4.59-110.82-6.47-10.13-.52-18.13-3.16-23.83-12.27-3.79-6.07-9.06-11.22-13.66-16.78-8.66-12.58-17.31-25.17-28.36-35.86Z"/>
  <path class="cls-3" d="M344.47,311.18c-8.54-3.39-16.4-7.99-23.66-13.61,6.75-11.57,13.5-23.14,20.24-34.71,2.97-5.09,1.58-8.98-3.33-11.88-19.33-11.44-38.64-22.9-57.98-34.32-4.79-2.83-9.5-2.62-12.17,2.51-6.34,12.18-14.64,23.37-18.76,36.68-9.72-3.49-18.13-9.3-26.53-15.11,6.3-11.02,12.43-22.14,18.94-33.03,4.3-7.2,2.65-12.05-4.48-16.04-17.71-9.93-35.53-19.7-52.81-30.35-8.4-5.18-13.06-3.14-17.49,4.67-6.06,10.7-12.61,21.12-18.95,31.67-8.7-4.85-17.41-9.7-26.11-14.55,5.65-14.69,14.73-27.52,22.47-41.06,24.21-42.37,48.64-84.61,73.13-126.82,10.23-17.63,15.62-19.02,33.25-8.86,61.21,35.28,122.39,70.61,183.54,105.99,16.81,9.73,18.3,16.03,8.69,32.63-30.29,52.31-60.49,104.68-90.77,157-1.96,3.39-3.09,7.52-7.25,9.21ZM194.31,119.79c-.71,5.51,2.18,8.86,6.64,11.42,18.88,10.84,37.83,21.58,56.54,32.7,5.24,3.11,8.3,1.22,10.74-3.01,13.27-22.96,26.41-45.99,39.57-69.01,3.31-5.79,1.86-9.45-3.89-13.44-17.65-12.28-37.41-20.9-55.35-32.63-6.58-4.3-11.66-1.6-15.34,4.77-10.36,17.92-20.89,35.75-31.1,53.75-2.84,5-7.09,9.36-7.81,15.43ZM408.2,145.66c.47-4.95-.54-7.94-3.74-9.8-19.18-11.13-38.35-22.28-57.59-33.31-6.24-3.58-11.23-1.8-14.68,4.34-12.27,21.89-24.29,43.92-36.84,65.64-4.42,7.65-2.14,12.1,4.76,15.96,17.47,9.76,35.22,19.11,52.15,29.76,8.7,5.48,12.92,2.86,17.28-4.67,8.18-14.14,16.8-28.03,24.95-42.19,5.06-8.8,9.57-17.91,13.72-25.73Z"/>
  <path class="cls-4" d="M264.02,372.54c12.14,6.87,22.97,15.51,33.44,24.66-22.19,38.19-44.57,76.27-66.43,114.66-5.13,9.01-11.4,13.65-21.81,11.68-1.67-1.36-3.2-2.98-5.05-4.05-44.38-25.78-88.62-51.82-133.28-77.11-21.49-12.17-41.92-26.27-64.74-36.04-7.25-7.9-6.41-15.61-1.09-24.58,19.02-32.01,37.46-64.36,56.12-96.59,11.05,10.69,19.7,23.28,28.36,35.86-12.95,15.46-20.16,34.41-30.99,51.18-7.3,11.3-5.08,16.74,7.01,23.56,14.23,8.03,28.29,16.37,42.47,24.48,28.38,16.23,56.87,32.29,85.17,48.66,8.11,4.69,13.27,3.17,17.49-5.21,3.91-7.75,8.78-15.01,13.27-22.46,13.66-22.72,25.23-46.66,40.06-68.69Z"/>
  <path class="cls-5" d="M6.15,406.33c22.83,9.77,43.26,23.87,64.74,36.04,44.66,25.29,88.9,51.33,133.28,77.11,1.84,1.07,3.37,2.68,5.05,4.05-8.74,15.54-13.14,16.73-28.43,7.86-56.03-32.48-112.08-64.92-168.11-97.39-15.11-8.76-15.94-12.44-6.52-27.67Z"/>
  <path class="cls-2" d="M264.02,372.54c-14.84,22.03-26.41,45.97-40.06,68.69-4.48,7.46-9.36,14.71-13.27,22.46-4.23,8.38-9.39,9.9-17.49,5.21-28.3-16.37-56.79-32.43-85.17-48.66-14.19-8.11-28.24-16.45-42.47-24.48-12.08-6.82-14.31-12.26-7.01-23.56,10.83-16.77,18.04-35.72,30.99-51.18,4.6,5.56,9.87,10.71,13.66,16.78,5.7,9.11,13.7,11.75,23.83,12.27,36.95,1.89,73.87,4.37,110.82,6.47,11.7.67,18.26,9.34,26.17,16Z"/>
  <path class="cls-1" d="M147.52,197.65c6.34-10.54,12.88-20.97,18.95-31.67,4.42-7.81,9.09-9.84,17.49-4.67,17.27,10.65,35.09,20.42,52.81,30.35,7.13,4,8.78,8.84,4.48,16.04-6.51,10.89-12.65,22.01-18.94,33.03-25.53-13.32-50.44-27.7-74.78-43.09Z"/>
  <path class="cls-1" d="M248.83,255.85c4.12-13.31,12.42-24.5,18.76-36.68,2.67-5.13,7.38-5.34,12.17-2.51,19.33,11.43,38.65,22.88,57.98,34.32,4.9,2.9,6.29,6.79,3.33,11.88-6.74,11.57-13.49,23.14-20.24,34.71-24.55-12.95-48.87-26.31-71.99-41.73Z"/>
  <path class="cls-1" d="M194.3,119.79c.73-6.08,4.98-10.43,7.82-15.44,10.21-18.01,20.74-35.83,31.1-53.75,3.69-6.38,8.76-9.08,15.34-4.77,17.95,11.73,37.7,20.34,55.35,32.63,5.74,4,7.2,7.66,3.89,13.44-13.16,23.02-26.3,46.05-39.57,69.01-2.44,4.23-5.51,6.12-10.74,3.01-18.71-11.13-37.65-21.87-56.54-32.7-4.46-2.56-7.35-5.91-6.65-11.42Z"/>
  <path class="cls-1" d="M408.2,145.66c-4.15,7.82-8.66,16.93-13.72,25.73-8.14,14.16-16.77,28.05-24.95,42.19-4.35,7.53-8.58,10.14-17.28,4.67-16.92-10.65-34.67-19.99-52.15-29.76-6.91-3.86-9.18-8.31-4.76-15.96,12.55-21.72,24.57-43.75,36.84-65.64,3.44-6.14,8.44-7.92,14.68-4.34,19.24,11.03,38.41,22.18,57.59,33.31,3.21,1.86,4.21,4.85,3.74,9.8Z"/>
</svg>