<?xml version="1.0" encoding="UTF-8"?>
<!DOCTYPE svg PUBLIC "-//W3C//DTD SVG 1.1//EN" "http://www.w3.org/Graphics/SVG/1.1/DTD/svg11.dtd">
<svg xmlns="http://www.w3.org/2000/svg" version="1.1" width="512px" height="512px" style="shape-rendering:geometricPrecision; text-rendering:geometricPrecision; image-rendering:optimizeQuality; fill-rule:evenodd; clip-rule:evenodd" xmlns:xlink="http://www.w3.org/1999/xlink">
<g><path style="opacity:0.991" fill="#fdb3b9" d="M 491.5,82.5 C 490.722,108.261 478.722,126.594 455.5,137.5C 449.832,130.327 444.332,122.993 439,115.5C 434.568,110.56 429.735,106.227 424.5,102.5C 442.419,80.859 464.752,74.1924 491.5,82.5 Z"/></g>
<g><path style="opacity:1" fill="#fe99a0" d="M 321.5,101.5 C 321.649,102.552 321.483,103.552 321,104.5C 313.974,109.027 308.141,114.694 303.5,121.5C 283.023,104.057 260.356,100.724 235.5,111.5C 235.334,106.156 235.501,100.823 236,95.5C 239.455,90.1579 244.288,86.3245 250.5,84C 278.328,73.3738 301.994,79.2072 321.5,101.5 Z"/></g>
<g><path style="opacity:0.955" fill="#ffb09e" d="M 71.5,172.5 C 66.0915,178.575 60.4249,184.242 54.5,189.5C 25.7003,186.345 7.36695,171.012 -0.5,143.5C -0.5,136.5 -0.5,129.5 -0.5,122.5C 8.74536,91.041 29.412,78.8744 61.5,86C 84.1262,96.5424 91.6262,113.709 84,137.5C 82.2268,143.442 78.3934,147.109 72.5,148.5C 66.0414,147.592 63.5414,143.926 65,137.5C 74.2911,125.277 73.1244,114.11 61.5,104C 42.3484,94.9123 27.8484,99.7457 18,118.5C 11.1692,146.004 21.3359,163.837 48.5,172C 56.1321,173.831 63.7988,173.997 71.5,172.5 Z"/></g>
<g><path style="opacity:1" fill="#fe99a0" d="M 491.5,82.5 C 499.855,84.5717 506.522,88.905 511.5,95.5C 511.5,102.5 511.5,109.5 511.5,116.5C 506.812,138.192 494.145,153.192 473.5,161.5C 467.512,153.538 461.512,145.538 455.5,137.5C 478.722,126.594 490.722,108.261 491.5,82.5 Z"/></g>
<g><path style="opacity:1" fill="#fedece" d="M 371.5,96.5 C 385.064,98.367 396.564,104.367 406,114.5C 417.333,129.833 428.667,145.167 440,160.5C 450.233,179.12 451.899,198.454 445,218.5C 439.471,231.419 434.138,244.419 429,257.5C 412.903,284.781 388.903,297.115 357,294.5C 328.04,296.862 305.373,286.196 289,262.5C 280.887,245.609 273.887,228.276 268,210.5C 263.978,192.73 266.478,176.063 275.5,160.5C 284.833,147.5 294.167,134.5 303.5,121.5C 308.141,114.694 313.974,109.027 321,104.5C 321.483,103.552 321.649,102.552 321.5,101.5C 322.15,101.804 322.817,102.137 323.5,102.5C 328.242,99.9747 333.242,98.1413 338.5,97C 349.495,96.5002 360.495,96.3335 371.5,96.5 Z"/></g>
<g><path style="opacity:0.995" fill="#fdb4b9" d="M 303.5,121.5 C 294.167,134.5 284.833,147.5 275.5,160.5C 270.901,159.428 266.567,157.594 262.5,155C 256.638,150.959 251.305,146.459 246.5,141.5C 240.069,132.543 236.402,122.543 235.5,111.5C 260.356,100.724 283.023,104.057 303.5,121.5 Z"/></g>
<g><path style="opacity:0.998" fill="#fecebe" d="M 371.5,96.5 C 383.838,96.3335 396.171,96.5001 408.5,97C 414.033,98.3439 419.366,100.177 424.5,102.5C 429.735,106.227 434.568,110.56 439,115.5C 444.332,122.993 449.832,130.327 455.5,137.5C 461.512,145.538 467.512,153.538 473.5,161.5C 482.722,180.654 483.889,200.321 477,220.5C 471.39,234.664 465.39,248.664 459,262.5C 445.358,282.911 426.191,293.911 401.5,295.5C 393.848,314.473 381.514,329.473 364.5,340.5C 357.946,344.944 350.946,348.611 343.5,351.5C 328.684,356.97 313.35,359.636 297.5,359.5C 293.434,359.307 289.434,359.64 285.5,360.5C 278.679,359.345 271.679,359.179 264.5,360C 257.449,363.387 252.949,368.887 251,376.5C 248.182,385.772 245.682,395.105 243.5,404.5C 243.167,404.5 242.833,404.5 242.5,404.5C 232.167,404.5 221.833,404.5 211.5,404.5C 211.667,393.162 211.5,381.828 211,370.5C 209.526,365.026 206.026,361.526 200.5,360C 193.174,359.5 185.841,359.334 178.5,359.5C 178.167,359.5 177.833,359.5 177.5,359.5C 155.264,358.174 132.931,358.174 110.5,359.5C 108.139,359.674 105.806,360.007 103.5,360.5C 97.013,359.346 90.3464,359.179 83.5,360C 77.3333,362.167 73.1667,366.333 71,372.5C 67.6392,383.074 64.8059,393.74 62.5,404.5C 62.1667,404.5 61.8333,404.5 61.5,404.5C 51.1667,404.5 40.8333,404.5 30.5,404.5C 30.3333,353.832 30.5,303.166 31,252.5C 33.4257,229.379 41.2591,208.379 54.5,189.5C 60.4249,184.242 66.0915,178.575 71.5,172.5C 88.8338,156.835 109.167,147.002 132.5,143C 170.472,141.551 208.472,141.051 246.5,141.5C 251.305,146.459 256.638,150.959 262.5,155C 266.567,157.594 270.901,159.428 275.5,160.5C 266.478,176.063 263.978,192.73 268,210.5C 273.887,228.276 280.887,245.609 289,262.5C 305.373,286.196 328.04,296.862 357,294.5C 388.903,297.115 412.903,284.781 429,257.5C 434.138,244.419 439.471,231.419 445,218.5C 451.899,198.454 450.233,179.12 440,160.5C 428.667,145.167 417.333,129.833 406,114.5C 396.564,104.367 385.064,98.367 371.5,96.5 Z"/></g>
<g><path style="opacity:1" fill="#7d6f7b" d="M 334.5,155.5 C 339.28,154.641 342.78,156.308 345,160.5C 345.667,165.5 345.667,170.5 345,175.5C 340.748,181.653 336.081,181.986 331,176.5C 330.333,170.833 330.333,165.167 331,159.5C 332.376,158.295 333.542,156.962 334.5,155.5 Z"/></g>
<g><path style="opacity:1" fill="#7c6f7a" d="M 405.5,155.5 C 410.28,154.641 413.78,156.308 416,160.5C 416.667,165.5 416.667,170.5 416,175.5C 413.774,179.861 410.274,181.361 405.5,180C 403.951,178.786 402.785,177.286 402,175.5C 401.333,170.167 401.333,164.833 402,159.5C 403.376,158.295 404.542,156.962 405.5,155.5 Z"/></g>
<g><path style="opacity:1" fill="#fdb4b9" d="M 394.5,201.5 C 385.161,201.334 375.827,201.5 366.5,202C 376.516,204.855 383.516,211.022 387.5,220.5C 383.228,222.376 381.561,225.709 382.5,230.5C 381.661,235.828 383.661,239.495 388.5,241.5C 384.983,252.516 377.65,259.683 366.5,263C 375.827,263.5 385.161,263.666 394.5,263.5C 380.673,264.661 366.673,264.827 352.5,264C 332.163,258.647 323.33,245.481 326,224.5C 329.007,214.16 335.507,206.993 345.5,203C 356.402,201.221 367.402,200.388 378.5,200.5C 384.011,200.501 389.344,200.834 394.5,201.5 Z"/></g>
<g><path style="opacity:1" fill="#fe99a0" d="M 394.5,201.5 C 411.757,204.925 421.091,215.425 422.5,233C 420.567,250.095 411.234,260.261 394.5,263.5C 385.161,263.666 375.827,263.5 366.5,263C 377.65,259.683 384.983,252.516 388.5,241.5C 395.617,241.088 398.617,237.255 397.5,230C 397.584,223.251 394.251,220.084 387.5,220.5C 383.516,211.022 376.516,204.855 366.5,202C 375.827,201.5 385.161,201.334 394.5,201.5 Z"/></g>
<g><path style="opacity:1" fill="#fe6671" d="M 353.5,220.5 C 355.857,220.337 358.19,220.503 360.5,221C 362.333,221.5 363.5,222.667 364,224.5C 364.667,228.5 364.667,232.5 364,236.5C 359.333,243.167 354.667,243.167 350,236.5C 348.432,230.375 349.599,225.042 353.5,220.5 Z"/></g>
<g><path style="opacity:1" fill="#fe6570" d="M 387.5,220.5 C 394.251,220.084 397.584,223.251 397.5,230C 398.617,237.255 395.617,241.088 388.5,241.5C 383.661,239.495 381.661,235.828 382.5,230.5C 381.561,225.709 383.228,222.376 387.5,220.5 Z"/></g>
<g><path style="opacity:1" fill="#f79580" d="M 364.5,340.5 C 364.5,361.833 364.5,383.167 364.5,404.5C 357.5,404.5 350.5,404.5 343.5,404.5C 343.5,386.833 343.5,369.167 343.5,351.5C 350.946,348.611 357.946,344.944 364.5,340.5 Z"/></g>
<g><path style="opacity:0.989" fill="#feaf9d" d="M 343.5,351.5 C 343.5,369.167 343.5,386.833 343.5,404.5C 334.167,404.5 324.833,404.5 315.5,404.5C 309.223,389.613 303.223,374.613 297.5,359.5C 313.35,359.636 328.684,356.97 343.5,351.5 Z"/></g>
<g><path style="opacity:1" fill="#feb09e" d="M 103.5,360.5 C 98.8566,362.979 95.3566,366.645 93,371.5C 89.7253,382.488 86.5586,393.488 83.5,404.5C 76.5,404.5 69.5,404.5 62.5,404.5C 64.8059,393.74 67.6392,383.074 71,372.5C 73.1667,366.333 77.3333,362.167 83.5,360C 90.3464,359.179 97.013,359.346 103.5,360.5 Z"/></g>
<g><path style="opacity:0.99" fill="#feb09e" d="M 177.5,359.5 C 170.5,359.5 163.5,359.5 156.5,359.5C 156.5,374.5 156.5,389.5 156.5,404.5C 147.167,404.5 137.833,404.5 128.5,404.5C 122.777,389.387 116.777,374.387 110.5,359.5C 132.931,358.174 155.264,358.174 177.5,359.5 Z"/></g>
<g><path style="opacity:1" fill="#f79580" d="M 177.5,359.5 C 177.833,359.5 178.167,359.5 178.5,359.5C 178.5,374.5 178.5,389.5 178.5,404.5C 171.167,404.5 163.833,404.5 156.5,404.5C 156.5,389.5 156.5,374.5 156.5,359.5C 163.5,359.5 170.5,359.5 177.5,359.5 Z"/></g>
<g><path style="opacity:1" fill="#feb09e" d="M 285.5,360.5 C 280.939,362.225 277.439,365.225 275,369.5C 271.341,381.139 267.841,392.806 264.5,404.5C 257.5,404.5 250.5,404.5 243.5,404.5C 245.682,395.105 248.182,385.772 251,376.5C 252.949,368.887 257.449,363.387 264.5,360C 271.679,359.179 278.679,359.345 285.5,360.5 Z"/></g>
<g><path style="opacity:0.966" fill="#918291" d="M 30.5,404.5 C 40.8333,404.5 51.1667,404.5 61.5,404.5C 59.4125,414.006 56.7459,423.339 53.5,432.5C 47.8236,432.666 42.1569,432.499 36.5,432C 33.6667,431.167 31.8333,429.333 31,426.5C 30.5003,419.174 30.3337,411.841 30.5,404.5 Z"/></g>
<g><path style="opacity:1" fill="#7a6d79" d="M 61.5,404.5 C 61.8333,404.5 62.1667,404.5 62.5,404.5C 69.5,404.5 76.5,404.5 83.5,404.5C 81.0421,411.711 78.8754,419.044 77,426.5C 76.2155,428.286 75.0488,429.786 73.5,431C 66.9504,432.42 60.2837,432.92 53.5,432.5C 56.7459,423.339 59.4125,414.006 61.5,404.5 Z"/></g>
<g><path style="opacity:0.983" fill="#918291" d="M 128.5,404.5 C 137.833,404.5 147.167,404.5 156.5,404.5C 156.5,413.5 156.5,422.5 156.5,431.5C 151.156,431.666 145.823,431.499 140.5,431C 138.951,429.786 137.785,428.286 137,426.5C 134.06,419.177 131.227,411.844 128.5,404.5 Z"/></g>
<g><path style="opacity:1" fill="#7a6d79" d="M 156.5,404.5 C 163.833,404.5 171.167,404.5 178.5,404.5C 178.666,411.175 178.5,417.842 178,424.5C 177.594,427.494 176.094,429.661 173.5,431C 167.843,431.499 162.176,431.666 156.5,431.5C 156.5,422.5 156.5,413.5 156.5,404.5 Z"/></g>
<g><path style="opacity:0.963" fill="#908190" d="M 211.5,404.5 C 221.833,404.5 232.167,404.5 242.5,404.5C 240.141,413.939 237.474,423.272 234.5,432.5C 228.824,432.666 223.157,432.499 217.5,432C 215.714,431.215 214.214,430.049 213,428.5C 211.565,420.611 211.065,412.611 211.5,404.5 Z"/></g>
<g><path style="opacity:1" fill="#7a6d79" d="M 242.5,404.5 C 242.833,404.5 243.167,404.5 243.5,404.5C 250.5,404.5 257.5,404.5 264.5,404.5C 262.441,411.845 260.274,419.179 258,426.5C 257.215,428.286 256.049,429.786 254.5,431C 247.95,432.42 241.284,432.92 234.5,432.5C 237.474,423.272 240.141,413.939 242.5,404.5 Z"/></g>
<g><path style="opacity:1" fill="#928290" d="M 315.5,404.5 C 324.833,404.5 334.167,404.5 343.5,404.5C 343.5,413.5 343.5,422.5 343.5,431.5C 338.156,431.666 332.823,431.499 327.5,431C 325.383,429.269 323.883,427.102 323,424.5C 320.209,417.922 317.709,411.255 315.5,404.5 Z"/></g>
<g><path style="opacity:1" fill="#7a6d79" d="M 343.5,404.5 C 350.5,404.5 357.5,404.5 364.5,404.5C 364.666,412.174 364.5,419.841 364,427.5C 362.833,428.667 361.667,429.833 360.5,431C 354.843,431.499 349.176,431.666 343.5,431.5C 343.5,422.5 343.5,413.5 343.5,404.5 Z"/></g>
</svg>
