<?xml version="1.0" encoding="UTF-8"?>
<!DOCTYPE svg PUBLIC "-//W3C//DTD SVG 1.1//EN" "http://www.w3.org/Graphics/SVG/1.1/DTD/svg11.dtd">
<svg xmlns="http://www.w3.org/2000/svg" version="1.1" width="512px" height="512px" style="shape-rendering:geometricPrecision; text-rendering:geometricPrecision; image-rendering:optimizeQuality; fill-rule:evenodd; clip-rule:evenodd" xmlns:xlink="http://www.w3.org/1999/xlink">
<g><path style="opacity:0.986" fill="#567a3a" d="M 110.5,-0.5 C 114.833,-0.5 119.167,-0.5 123.5,-0.5C 126.765,1.58407 129.932,3.9174 133,6.5C 138.166,13.4948 142.833,20.8282 147,28.5C 151.099,33.8153 156.266,35.3153 162.5,33C 169.498,29.5031 176.165,25.5031 182.5,21C 192.974,17.4204 203.308,17.7538 213.5,22C 223.796,30.6045 225.629,40.7711 219,52.5C 215.919,55.2931 212.419,57.4597 208.5,59C 198.181,61.9953 188.514,66.3286 179.5,72C 173.875,78.084 170.542,85.2507 169.5,93.5C 164.429,92.3102 159.429,90.8102 154.5,89C 144.667,74.4917 133.334,61.1584 120.5,49C 118.147,47.0363 115.647,46.5363 113,47.5C 113.122,58.9927 115.622,69.9927 120.5,80.5C 107.422,80.1144 95.0883,82.781 83.5,88.5C 75.9323,82.2824 69.0989,75.2824 63,67.5C 57.5993,60.136 56.266,52.136 59,43.5C 61.2643,40.5665 64.0976,38.3999 67.5,37C 76.2004,35.4052 84.8671,33.7386 93.5,32C 95.0037,30.5093 95.8371,28.676 96,26.5C 95.7653,19.1595 97.0986,12.1595 100,5.5C 103.351,3.07949 106.851,1.07949 110.5,-0.5 Z"/></g>
<g><path style="opacity:0.982" fill="#567a39" d="M 318.5,133.5 C 319.058,132.21 320.058,131.377 321.5,131C 339.087,125.718 357.087,123.385 375.5,124C 382.371,123.048 388.538,120.548 394,116.5C 395.176,112.74 394.01,109.907 390.5,108C 384.597,104.364 378.263,101.697 371.5,100C 344.619,97.0989 319.286,101.932 295.5,114.5C 293.737,103.899 293.237,93.2326 294,82.5C 294.862,73.4034 299.528,67.4034 308,64.5C 309.811,65.0779 311.645,65.5779 313.5,66C 320.282,70.448 326.782,75.2814 333,80.5C 333.527,67.9914 336.194,55.9914 341,44.5C 346.347,35.0703 354.181,31.5703 364.5,34C 366.617,35.7309 368.117,37.8976 369,40.5C 370.817,47.7208 371.651,55.0542 371.5,62.5C 387.15,63.8623 402.15,67.6956 416.5,74C 421.282,76.0726 423.449,79.5726 423,84.5C 413.371,94.4301 405.204,105.43 398.5,117.5C 400.215,119.874 402.215,122.04 404.5,124C 416.436,131.216 426.603,140.382 435,151.5C 441.381,167.358 437.215,179.524 422.5,188C 410.582,191.792 398.582,192.292 386.5,189.5C 380.879,171.04 369.545,157.207 352.5,148C 341.675,141.894 330.341,137.061 318.5,133.5 Z"/></g>
<g><path style="opacity:0.992" fill="#acd384" d="M 169.5,93.5 C 209.86,108.528 239.86,135.194 259.5,173.5C 268.215,192.309 273.882,211.976 276.5,232.5C 266.456,232.51 257.79,235.844 250.5,242.5C 244.481,180.506 212.481,138.506 154.5,116.5C 144.77,112.9 134.77,110.234 124.5,108.5C 122.761,121.318 119.261,133.651 114,145.5C 112.54,148.21 110.54,148.876 108,147.5C 106.725,145.283 105.725,142.949 105,140.5C 102.098,128.99 100.098,117.323 99,105.5C 93.5326,102.855 88.3659,99.8553 83.5,96.5C 83.1307,94.5588 82.464,92.7255 81.5,91C 82.0659,90.0053 82.7326,89.172 83.5,88.5C 95.0883,82.781 107.422,80.1144 120.5,80.5C 115.622,69.9927 113.122,58.9927 113,47.5C 115.647,46.5363 118.147,47.0363 120.5,49C 133.334,61.1584 144.667,74.4917 154.5,89C 159.429,90.8102 164.429,92.3102 169.5,93.5 Z"/></g>
<g><path style="opacity:0.991" fill="#89c147" d="M 83.5,96.5 C 88.3659,99.8553 93.5326,102.855 99,105.5C 100.098,117.323 102.098,128.99 105,140.5C 105.725,142.949 106.725,145.283 108,147.5C 110.54,148.876 112.54,148.21 114,145.5C 119.261,133.651 122.761,121.318 124.5,108.5C 134.77,110.234 144.77,112.9 154.5,116.5C 156.292,124.792 157.958,133.125 159.5,141.5C 157.913,149.161 153.913,155.328 147.5,160C 140.32,165.093 132.653,169.426 124.5,173C 119.013,178.141 115.18,184.308 113,191.5C 111.285,198.458 109.785,205.458 108.5,212.5C 102.822,214.123 97.4884,213.289 92.5,210C 82.1813,203.349 74.348,194.516 69,183.5C 67.3685,177.878 67.3685,172.211 69,166.5C 71.9804,157.245 74.3138,147.912 76,138.5C 62.7612,135.425 54.2612,127.425 50.5,114.5C 50.7628,111.972 51.5961,109.639 53,107.5C 62.144,101.173 72.3106,97.5061 83.5,96.5 Z"/></g>
<g><path style="opacity:0.992" fill="#88c047" d="M 318.5,133.5 C 306.848,138.986 298.348,147.653 293,159.5C 282.866,182.964 279.699,207.297 283.5,232.5C 281.167,232.5 278.833,232.5 276.5,232.5C 273.882,211.976 268.215,192.309 259.5,173.5C 263.674,156.834 270.84,141.501 281,127.5C 285.432,122.56 290.265,118.227 295.5,114.5C 319.286,101.932 344.619,97.0989 371.5,100C 378.263,101.697 384.597,104.364 390.5,108C 394.01,109.907 395.176,112.74 394,116.5C 388.538,120.548 382.371,123.048 375.5,124C 357.087,123.385 339.087,125.718 321.5,131C 320.058,131.377 319.058,132.21 318.5,133.5 Z"/></g>
<g><path style="opacity:0.996" fill="#f1d8af" d="M 276.5,232.5 C 278.833,232.5 281.167,232.5 283.5,232.5C 297.829,232.366 311.496,235.033 324.5,240.5C 320.73,254.784 311.73,264.618 297.5,270C 287.752,273.805 278.086,277.805 268.5,282C 266.391,283.141 264.558,284.641 263,286.5C 262.316,287.784 262.483,288.951 263.5,290C 289.923,292.212 314.257,286.212 336.5,272C 343.716,265.861 347.383,258.028 347.5,248.5C 382.889,256.6 412.389,274.267 436,301.5C 438.426,304.691 440.593,308.025 442.5,311.5C 437.266,315.541 431.599,319.041 425.5,322C 412.92,326.749 400.586,332.083 388.5,338C 370.735,348.764 357.569,363.597 349,382.5C 347.191,385.932 347.191,389.265 349,392.5C 365.277,377.273 383.777,365.44 404.5,357C 416.202,354.483 427.535,350.816 438.5,346C 445.168,342.505 449.835,337.338 452.5,330.5C 460.069,348.396 462.236,367.063 459,386.5C 455.729,405.355 448.895,422.688 438.5,438.5C 420.017,438.437 401.684,440.937 383.5,446C 379.195,446.903 375.361,448.737 372,451.5C 371.316,452.784 371.483,453.951 372.5,455C 386.751,461.749 401.751,465.083 417.5,465C 419.114,462.873 421.114,461.373 423.5,460.5C 403.767,482.044 379.434,495.877 350.5,502C 334.114,505.616 317.78,508.783 301.5,511.5C 289.5,511.5 277.5,511.5 265.5,511.5C 215.015,505.853 178.181,480.52 155,435.5C 143.541,395.042 148.541,356.709 170,320.5C 171.697,317.98 173.53,315.647 175.5,313.5C 174.442,316.717 172.775,319.551 170.5,322C 178.885,329.024 188.551,333.357 199.5,335C 214.898,337.243 230.231,336.91 245.5,334C 247.081,333.293 248.581,332.46 250,331.5C 249.357,328.187 247.191,326.02 243.5,325C 230.5,320.667 217.5,316.333 204.5,312C 197.618,309.057 190.951,305.89 184.5,302.5C 189.292,295.874 194.959,290.04 201.5,285C 212.039,276.811 223.372,269.811 235.5,264C 240.645,256.854 245.645,249.688 250.5,242.5C 257.79,235.844 266.456,232.51 276.5,232.5 Z"/></g>
<g><path style="opacity:1" fill="#d8b07c" d="M 324.5,240.5 C 332.305,242.768 339.972,245.435 347.5,248.5C 347.383,258.028 343.716,265.861 336.5,272C 314.257,286.212 289.923,292.212 263.5,290C 262.483,288.951 262.316,287.784 263,286.5C 264.558,284.641 266.391,283.141 268.5,282C 278.086,277.805 287.752,273.805 297.5,270C 311.73,264.618 320.73,254.784 324.5,240.5 Z"/></g>
<g><path style="opacity:1" fill="#d8b07c" d="M 184.5,302.5 C 190.951,305.89 197.618,309.057 204.5,312C 217.5,316.333 230.5,320.667 243.5,325C 247.191,326.02 249.357,328.187 250,331.5C 248.581,332.46 247.081,333.293 245.5,334C 230.231,336.91 214.898,337.243 199.5,335C 188.551,333.357 178.885,329.024 170.5,322C 172.775,319.551 174.442,316.717 175.5,313.5C 177.793,309.242 180.793,305.576 184.5,302.5 Z"/></g>
<g><path style="opacity:1" fill="#d8b07c" d="M 337.5,304.5 C 351.757,304.693 356.257,311.36 351,324.5C 343.632,330.328 336.965,329.661 331,322.5C 327.82,314.532 329.987,308.532 337.5,304.5 Z"/></g>
<g><path style="opacity:1" fill="#d8b07c" d="M 442.5,311.5 C 447.118,317.067 450.452,323.4 452.5,330.5C 449.835,337.338 445.168,342.505 438.5,346C 427.535,350.816 416.202,354.483 404.5,357C 383.777,365.44 365.277,377.273 349,392.5C 347.191,389.265 347.191,385.932 349,382.5C 357.569,363.597 370.735,348.764 388.5,338C 400.586,332.083 412.92,326.749 425.5,322C 431.599,319.041 437.266,315.541 442.5,311.5 Z"/></g>
<g><path style="opacity:1" fill="#d8b07c" d="M 210.5,362.5 C 229.652,360.717 246.318,366.217 260.5,379C 265.829,385.328 271.495,391.328 277.5,397C 290.181,405.678 303.514,413.344 317.5,420C 320,421.833 322.5,423.667 325,425.5C 325.667,426.5 325.667,427.5 325,428.5C 299.019,428.937 274.852,422.437 252.5,409C 248.534,404.033 244.201,399.366 239.5,395C 230.189,388.183 220.189,386.85 209.5,391C 203.866,397.636 197.866,403.969 191.5,410C 189.323,411.202 186.989,411.702 184.5,411.5C 182.975,393.566 188.642,378.399 201.5,366C 204.571,364.704 207.571,363.538 210.5,362.5 Z"/></g>
<g><path style="opacity:1" fill="#d8b07d" d="M 223.5,423.5 C 235.998,423.487 240.831,429.487 238,441.5C 233.914,447.118 228.414,448.951 221.5,447C 215.888,442.824 214.055,437.324 216,430.5C 218.015,427.588 220.515,425.255 223.5,423.5 Z"/></g>
<g><path style="opacity:1" fill="#d8b17d" d="M 438.5,438.5 C 434.486,446.535 429.486,453.868 423.5,460.5C 421.114,461.373 419.114,462.873 417.5,465C 401.751,465.083 386.751,461.749 372.5,455C 371.483,453.951 371.316,452.784 372,451.5C 375.361,448.737 379.195,446.903 383.5,446C 401.684,440.937 420.017,438.437 438.5,438.5 Z"/></g>
</svg>
