<?xml version="1.0" encoding="UTF-8"?>
<svg version="1.1" xmlns="http://www.w3.org/2000/svg" width="512" height="512">
<path d="M0 0 C0.8765625 -0.01546875 1.753125 -0.0309375 2.65625 -0.046875 C8.20077046 -0.01347427 11.79328293 0.54979007 16 4.5 C18.32025972 9.22666129 19.56594607 13.51147478 20.44213867 18.73291016 C20.5596196 19.41840439 20.67710052 20.10389862 20.79814148 20.81016541 C21.18002048 23.05177442 21.54924658 25.29525506 21.91796875 27.5390625 C22.1820693 29.10902751 22.44683542 30.67888069 22.7122345 32.24862671 C23.26470857 35.52749538 23.81129488 38.80727076 24.35327148 42.08789062 C25.04714001 46.28688082 25.7523865 50.48385748 26.46161938 54.68027687 C27.00801145 57.91737445 27.55005966 61.1551868 28.09063148 64.39326096 C28.34924286 65.94113329 28.60880449 67.48884719 28.86934471 69.03639603 C29.23240097 71.19889159 29.59000638 73.36221832 29.94604492 75.52587891 C30.15017502 76.75496979 30.35430511 77.98406067 30.56462097 79.25039673 C30.9407128 82.05748931 31.09015893 84.67485297 31 87.5 C31.7044223 87.48889694 32.4088446 87.47779388 33.13461304 87.46635437 C39.81250387 87.36566525 46.49017916 87.28979036 53.16866112 87.24093914 C56.60121742 87.21497839 60.03314022 87.17983466 63.46533203 87.12280273 C67.42212013 87.05747427 71.37866259 87.03370761 75.3359375 87.01171875 C77.16153702 86.97300911 77.16153702 86.97300911 79.02401733 86.93351746 C86.68911823 86.93102293 92.66864999 87.96618985 99 92.5 C106.68452997 100.620762 107.34140891 107.96009397 107.3125 118.8125 C107.32861328 120.01068359 107.34472656 121.20886719 107.36132812 122.44335938 C107.36565782 130.30175752 106.9806667 136.39580039 102.23828125 142.92578125 C95.26190908 149.76064486 90.53003616 151.65358919 80.7265625 151.5625 C78.83671631 151.54896484 78.83671631 151.54896484 76.90869141 151.53515625 C75.46888916 151.51775391 75.46888916 151.51775391 74 151.5 C74.28794434 152.33877686 74.57588867 153.17755371 74.87255859 154.04174805 C81.39457927 173.05744439 87.86817398 192.089287 94.296875 211.13671875 C94.57488071 211.96037367 94.85288643 212.78402859 95.13931656 213.63264275 C97.95987314 221.98976734 100.77895316 230.34738832 103.59548378 238.70587063 C104.67402208 241.9061681 105.75315203 245.10626583 106.83246231 248.30630302 C107.36395504 249.88240885 107.89523471 251.45858655 108.42629623 253.03483772 C111.41037257 261.89035863 114.41917683 270.73654295 117.47558594 279.56738281 C117.75716238 280.38238062 118.03873882 281.19737843 118.32884789 282.03707314 C119.67641475 285.93734549 121.02820012 289.83603843 122.38845825 293.73190308 C122.86838323 295.11823766 123.34812017 296.50463737 123.82763672 297.89111328 C124.24842499 299.09905548 124.66921326 300.30699768 125.10275269 301.55154419 C126 304.5 126 304.5 126 307.5 C126.49628906 307.06429688 126.99257813 306.62859375 127.50390625 306.1796875 C128.93064608 304.92892127 130.36055702 303.68176659 131.79296875 302.4375 C133.12456511 301.26852337 134.44388683 300.08504062 135.73828125 298.875 C145.8515569 289.60650871 158.63629084 286.61364243 172 285.5 C172.14695312 284.73816406 172.29390625 283.97632813 172.4453125 283.19140625 C174.77158872 272.48251399 178.76064257 265.79160757 187.36328125 259.0078125 C194.76282367 254.77637047 201.66084196 254.08629381 210.0625 254.3125 C213.341875 254.374375 216.62125 254.43625 220 254.5 C220 265.06 220 275.62 220 286.5 C223.3 286.5 226.6 286.5 230 286.5 C243.9847794 288.43713834 256.00874534 295.79476033 264.81640625 306.76171875 C271.49785719 316.35688513 275.50067655 326.73410116 275 338.5 C275.556875 338.51417969 276.11375 338.52835937 276.6875 338.54296875 C284.62121556 339.03882597 289.88299629 341.99954041 295.3125 347.75 C300.82849881 354.70887588 301.3641843 361.88097165 301 370.5 C306.94 370.5 312.88 370.5 319 370.5 C319.86337567 412.80540787 311.751025 447.7651254 281.8125 479.0625 C275.74042711 485.00736466 269.08945391 489.8416277 262 494.5 C261.04609375 495.13808594 260.0921875 495.77617187 259.109375 496.43359375 C232.68867865 513.00187959 197.80637174 517.15204745 167.66479492 510.33251953 C165.42674035 509.76797802 163.21348809 509.15390485 161 508.5 C160.30986816 508.29632813 159.61973633 508.09265625 158.90869141 507.8828125 C150.58725549 505.30831239 142.94678579 501.6046056 135.3125 497.4375 C134.55759277 497.02612793 133.80268555 496.61475586 133.02490234 496.19091797 C128.69075157 493.73258217 125.34366223 491.19979193 122 487.5 C121.67128906 488.20125 121.34257812 488.9025 121.00390625 489.625 C115.36135315 500.87952325 107.88991465 507.30249983 96 511.5 C91.84631873 512.53676928 87.81287201 512.64581197 83.55659485 512.64044189 C82.44596036 512.64489858 82.44596036 512.64489858 81.3128888 512.6494453 C78.83659207 512.65810351 76.36034385 512.65963811 73.8840332 512.66113281 C72.10643918 512.66576306 70.32884615 512.670788 68.55125427 512.67617798 C63.72458694 512.68928493 58.8979335 512.69574373 54.07125115 512.70018864 C51.0534568 512.7031224 48.03566622 512.70722781 45.01787376 512.71169281 C35.5693394 512.72536388 26.12081369 512.73503218 16.67227012 512.7388947 C5.77769794 512.7433732 -5.11674863 512.76091313 -16.01128262 512.7898953 C-24.44034731 512.81153765 -32.86937672 512.82160036 -41.29846889 512.82293582 C-46.32898434 512.82398211 -51.35938166 512.82985231 -56.38986778 512.84775543 C-61.12508356 512.86428005 -65.86009297 512.86637034 -70.59532738 512.85761642 C-72.32786107 512.85684837 -74.06040605 512.86115804 -75.79291153 512.87107468 C-86.6683434 512.92964549 -96.59777767 512.57293562 -106.1875 506.8125 C-106.94417969 506.37550781 -107.70085937 505.93851562 -108.48046875 505.48828125 C-115.14111413 500.23205102 -119.35540981 493.81734977 -122.875 486.1875 C-123.29354248 485.28870117 -123.71208496 484.38990234 -124.14331055 483.46386719 C-135.24641963 458.88124538 -142.97048394 431.68221798 -143.23828125 404.56640625 C-143.24812042 403.7394223 -143.25795959 402.91243835 -143.26809692 402.06039429 C-143.53160443 374.14002709 -140.71391048 349.16310621 -132 322.5 C-131.76669983 321.78434875 -131.53339966 321.06869751 -131.29302979 320.33135986 C-124.42990586 299.29727407 -117.29301366 278.3546926 -110.11743164 257.42553711 C-105.86887378 245.02330333 -101.66666144 232.60566987 -97.4765625 220.18359375 C-97.18698669 219.32522856 -96.89741089 218.46686337 -96.59906006 217.58248711 C-93.64553145 208.82730317 -90.69350212 200.07161646 -87.74476814 191.31481647 C-86.6255383 187.99186983 -85.50527558 184.66927196 -84.38480759 181.34674263 C-83.8599889 179.78964988 -83.33564404 178.23239732 -82.81181717 176.67497063 C-79.97643136 168.24519979 -77.09715334 159.83823263 -74 151.5 C-74.9178125 151.53480469 -75.835625 151.56960937 -76.78125 151.60546875 C-86.64487476 151.82304871 -92.93818927 151.6000663 -100.3125 144.8125 C-106.73077251 138.52441558 -107.41162223 131.24843415 -107.5078125 122.6875 C-107.50523438 121.511875 -107.50265625 120.33625 -107.5 119.125 C-107.52835938 117.95710938 -107.55671875 116.78921875 -107.5859375 115.5859375 C-107.60319065 107.89103339 -106.54402762 101.85165512 -102 95.5 C-96.39985729 90.20015093 -90.92781691 87.23887661 -83.1081543 87.27294922 C-81.94732834 87.27310028 -80.78650238 87.27325134 -79.59049988 87.27340698 C-78.34762711 87.28372955 -77.10475433 87.29405212 -75.82421875 87.3046875 C-73.90377495 87.30893234 -73.90377495 87.30893234 -71.9445343 87.31326294 C-68.55296925 87.3208722 -65.1615775 87.34049707 -61.77008057 87.3626709 C-58.30442651 87.38318794 -54.83874425 87.39227714 -51.37304688 87.40234375 C-44.58195634 87.42438508 -37.79099388 87.45784871 -31 87.5 C-30.95563812 86.88050476 -30.91127625 86.26100952 -30.86557007 85.6227417 C-30.2116229 77.48944151 -28.95706603 69.49471606 -27.6015625 61.453125 C-27.3634524 60.02831726 -27.12544784 58.60349188 -26.88754272 57.1786499 C-26.39122336 54.21315431 -25.89147927 51.24825902 -25.38964844 48.28369141 C-24.74985175 44.50053246 -24.12208423 40.71548311 -23.4972477 36.92982864 C-23.01084063 33.99472778 -22.51637807 31.06102517 -22.01969528 28.1276474 C-21.78482276 26.73279278 -21.55279474 25.33745585 -21.32378006 23.9416275 C-18.51339498 6.86013919 -18.51339498 6.86013919 -13.4375 2.09375 C-8.83786459 -0.03880824 -5.00808121 -0.0883779 0 0 Z " fill="#FFD150" transform="translate(168,-0.5)"/>
<path d="M0 0 C18.48 0 36.96 0 56 0 C62.80645307 19.86534558 69.58166835 39.74040687 76.296875 59.63671875 C76.57488071 60.46037367 76.85288643 61.28402859 77.13931656 62.13264275 C79.95987314 70.48976734 82.77895316 78.84738832 85.59548378 87.20587063 C86.67402208 90.4061681 87.75315203 93.60626583 88.83246231 96.80630302 C89.36395504 98.38240885 89.89523471 99.95858655 90.42629623 101.53483772 C93.41037257 110.39035863 96.41917683 119.23654295 99.47558594 128.06738281 C99.75716238 128.88238062 100.03873882 129.69737843 100.32884789 130.53707314 C101.67641475 134.43734549 103.02820012 138.33603843 104.38845825 142.23190308 C104.86838323 143.61823766 105.34812017 145.00463737 105.82763672 146.39111328 C106.24842499 147.59905548 106.66921326 148.80699768 107.10275269 150.05154419 C108 153 108 153 108 156 C108.49628906 155.56429687 108.99257813 155.12859375 109.50390625 154.6796875 C110.93064608 153.42892127 112.36055702 152.18176659 113.79296875 150.9375 C115.12456511 149.76852337 116.44388683 148.58504062 117.73828125 147.375 C127.8515569 138.10650871 140.63629084 135.11364243 154 134 C154.14695312 133.23816406 154.29390625 132.47632813 154.4453125 131.69140625 C156.77158872 120.98251399 160.76064257 114.29160757 169.36328125 107.5078125 C176.76282367 103.27637047 183.66084196 102.58629381 192.0625 102.8125 C195.341875 102.874375 198.62125 102.93625 202 103 C202 113.56 202 124.12 202 135 C205.3 135 208.6 135 212 135 C225.9847794 136.93713834 238.00874534 144.29476033 246.81640625 155.26171875 C253.49785719 164.85688513 257.50067655 175.23410116 257 187 C257.556875 187.01417969 258.11375 187.02835938 258.6875 187.04296875 C266.62121556 187.53882597 271.88299629 190.49954041 277.3125 196.25 C282.82849881 203.20887588 283.3641843 210.38097165 283 219 C288.94 219 294.88 219 301 219 C301.86337567 261.30540787 293.751025 296.2651254 263.8125 327.5625 C257.74042711 333.50736466 251.08945391 338.3416277 244 343 C243.04609375 343.63808594 242.0921875 344.27617187 241.109375 344.93359375 C214.68867865 361.50187959 179.80637174 365.65204745 149.66479492 358.83251953 C147.42674035 358.26797802 145.21348809 357.65390485 143 357 C142.30986816 356.79632813 141.61973633 356.59265625 140.90869141 356.3828125 C132.58725549 353.80831239 124.94678579 350.1046056 117.3125 345.9375 C116.18013916 345.32044189 116.18013916 345.32044189 115.02490234 344.69091797 C110.69075157 342.23258217 107.34366223 339.69979193 104 336 C103.67128906 336.70125 103.34257812 337.4025 103.00390625 338.125 C97.36135315 349.37952325 89.88991465 355.80249983 78 360 C74.3401427 360.87536971 70.95884196 361.12185996 67.19995117 361.11352539 C65.48874336 361.11341209 65.48874336 361.11341209 63.7429657 361.11329651 C62.52196671 361.10813522 61.30096771 361.10297394 60.04296875 361.09765625 C58.78486893 361.0962413 57.5267691 361.09482635 56.23054504 361.09336853 C52.89821471 361.08872573 49.56595368 361.07975228 46.23364258 361.06866455 C42.82829383 361.05840503 39.4229379 361.05386121 36.01757812 361.04882812 C29.34503302 361.0378083 22.67252051 361.021077 16 361 C18.84106238 359.10595841 21.1045888 358.19874068 24.3125 357.125 C37.23250672 352.47311847 43.28452087 343.65480849 48.94921875 331.62109375 C54.70587337 318.90560267 59.85261213 305.6089981 63 292 C63.21285645 291.1440625 63.42571289 290.288125 63.64501953 289.40625 C70.86010039 259.56319144 71.53740406 224.84882783 64 195 C63.71044434 193.7941626 63.71044434 193.7941626 63.41503906 192.56396484 C59.9974449 178.61580344 55.04116138 165.06704086 50.31445312 151.52026367 C47.71413254 144.06156733 45.1981421 136.60598461 42.96142578 129.02734375 C42.00131055 126.00412667 40.91191495 123.05958991 39.78509521 120.0958252 C38.47330084 116.59396753 37.27277619 113.05490488 36.06640625 109.515625 C35.7926265 108.71511215 35.51884674 107.9145993 35.23677063 107.08982849 C34.34387335 104.47705281 33.45301711 101.8635878 32.5625 99.25 C32.25387024 98.34528961 31.94524048 97.44057922 31.6272583 96.50845337 C26.09375759 80.2839332 20.64514521 64.03217862 15.24838257 47.76173401 C13.38465886 42.14698965 11.50467055 36.53779863 9.62109375 30.9296875 C8.78763421 28.444219 7.95445667 25.95865618 7.12139893 23.47305298 C6.58739643 21.88170299 6.05238256 20.29069198 5.51629639 18.70004272 C4.77504744 16.50015707 4.03752739 14.29905325 3.30078125 12.09765625 C2.97200233 11.12679581 2.97200233 11.12679581 2.63658142 10.13632202 C1.50446643 6.74085218 0.70666589 3.53332947 0 0 Z " fill="#FEC930" transform="translate(186,151)"/>
<path d="M0 0 C58.41 0 116.82 0 177 0 C177 43.64418602 170.25372118 76.73961285 139.8125 108.5625 C133.74042711 114.50736466 127.08945391 119.3416277 120 124 C119.04609375 124.63808594 118.0921875 125.27617187 117.109375 125.93359375 C90.68867865 142.50187959 55.80637174 146.65204745 25.66479492 139.83251953 C23.42674035 139.26797802 21.21348809 138.65390485 19 138 C18.30986816 137.79632813 17.61973633 137.59265625 16.90869141 137.3828125 C5.50955267 133.85612742 -4.81676099 128.13989411 -15 122 C-15.83015625 121.55011719 -16.6603125 121.10023438 -17.515625 120.63671875 C-19 119 -19 119 -19.51171875 115.9921875 C-19.1943832 110.70141401 -16.84412451 105.9482093 -14.8125 101.125 C-1.18549975 67.50515991 0 37.5361685 0 0 Z " fill="#7F8A90" transform="translate(310,370)"/>
<path d="M0 0 C10.24376878 8.04063484 16.36995879 17.59815761 20.48828125 29.953125 C20.57120078 31.9451553 20.59566302 33.93986213 20.5859375 35.93359375 C20.58110352 37.67866211 20.58110352 37.67866211 20.57617188 39.45898438 C20.56360352 41.28139648 20.56360352 41.28139648 20.55078125 43.140625 C20.54626953 44.36716797 20.54175781 45.59371094 20.53710938 46.85742188 C20.5253119 49.88937168 20.50885046 52.92122406 20.48828125 55.953125 C21.16012451 55.9955835 21.83196777 56.03804199 22.52416992 56.08178711 C23.85798706 56.18632202 23.85798706 56.18632202 25.21875 56.29296875 C26.53588989 56.38759399 26.53588989 56.38759399 27.87963867 56.48413086 C33.2034645 57.44127353 36.89492773 60.81676294 40.05859375 65.05859375 C44.8485971 72.57205615 45.55513432 78.45478939 43.83105469 87.34033203 C43.06686767 90.42035269 42.26530041 93.48513706 41.41308594 96.54196167 C40.45934294 99.96566399 39.55176101 103.40173104 38.63671875 106.8359375 C38.35837189 107.87309151 38.35837189 107.87309151 38.07440186 108.93119812 C36.39445469 115.21911052 34.92296081 121.54157345 33.48828125 127.890625 C30.02732928 142.9601867 26.23833912 157.95289352 22.48828125 172.953125 C-11.83171875 172.953125 -46.15171875 172.953125 -81.51171875 172.953125 C-83.69796875 164.249375 -85.88421875 155.545625 -88.13671875 146.578125 C-88.81299316 143.89123535 -89.48926758 141.2043457 -90.18603516 138.43603516 C-93.69579492 124.45022578 -97.06533888 110.44083539 -100.26318359 96.38037109 C-101.02321459 93.04048907 -101.81319839 89.7126944 -102.65722656 86.39306641 C-104.37102686 79.49379609 -104.50870562 73.13092474 -100.91015625 66.83984375 C-96.98874712 61.54922752 -92.08918905 57.24002136 -85.51171875 55.953125 C-83.51184099 55.93101333 -81.51156338 55.92819619 -79.51171875 55.953125 C-79.53790283 55.22834961 -79.56408691 54.50357422 -79.59106445 53.75683594 C-79.69634985 50.40582828 -79.76045702 47.05517005 -79.82421875 43.703125 C-79.86611328 42.56359375 -79.90800781 41.4240625 -79.95117188 40.25 C-80.14896304 26.32550185 -74.22379818 14.9191301 -64.88671875 4.828125 C-47.20060817 -12.01739097 -20.07054434 -14.15345053 0 0 Z " fill="#FFF6D6" transform="translate(197.51171875,268.046875)"/>
<path d="M0 0 C0.8765625 -0.01546875 1.753125 -0.0309375 2.65625 -0.046875 C8.20077046 -0.01347427 11.79328293 0.54979007 16 4.5 C18.32025972 9.22666129 19.56594607 13.51147478 20.44213867 18.73291016 C20.5596196 19.41840439 20.67710052 20.10389862 20.79814148 20.81016541 C21.18002048 23.05177442 21.54924658 25.29525506 21.91796875 27.5390625 C22.1820693 29.10902751 22.44683542 30.67888069 22.7122345 32.24862671 C23.26470857 35.52749538 23.81129488 38.80727076 24.35327148 42.08789062 C25.04714001 46.28688082 25.7523865 50.48385748 26.46161938 54.68027687 C27.00801145 57.91737445 27.55005966 61.1551868 28.09063148 64.39326096 C28.34924286 65.94113329 28.60880449 67.48884719 28.86934471 69.03639603 C29.23240097 71.19889159 29.59000638 73.36221832 29.94604492 75.52587891 C30.15017502 76.75496979 30.35430511 77.98406067 30.56462097 79.25039673 C30.9407128 82.05748931 31.09015893 84.67485297 31 87.5 C31.7044223 87.48889694 32.4088446 87.47779388 33.13461304 87.46635437 C39.81250387 87.36566525 46.49017916 87.28979036 53.16866112 87.24093914 C56.60121742 87.21497839 60.03314022 87.17983466 63.46533203 87.12280273 C67.42212013 87.05747427 71.37866259 87.03370761 75.3359375 87.01171875 C77.16153702 86.97300911 77.16153702 86.97300911 79.02401733 86.93351746 C86.68911823 86.93102293 92.66864999 87.96618985 99 92.5 C106.68452997 100.620762 107.34140891 107.96009397 107.3125 118.8125 C107.32861328 120.01068359 107.34472656 121.20886719 107.36132812 122.44335938 C107.36565782 130.30175752 106.9806667 136.39580039 102.23828125 142.92578125 C101.60277344 143.54839844 100.96726562 144.17101562 100.3125 144.8125 C99.68988281 145.44800781 99.06726563 146.08351562 98.42578125 146.73828125 C90.1329285 152.76094886 80.82051341 151.92687553 71.0625 151.88818359 C69.34032865 151.89225271 67.61815992 151.8975965 65.89599609 151.90411377 C61.23485879 151.91775268 56.57392142 151.91250289 51.91278076 151.90297651 C47.02648392 151.89536215 42.14020379 151.90243046 37.25390625 151.90713501 C29.04944802 151.91258739 20.8450709 151.90541453 12.640625 151.89111328 C3.1656901 151.87478778 -6.30905111 151.88007665 -15.78398132 151.8965925 C-23.93028924 151.91022211 -32.07653897 151.91211981 -40.22285461 151.90427649 C-45.08333509 151.89960809 -49.94372464 151.89895218 -54.80419922 151.90888596 C-59.37450187 151.91757482 -63.94455567 151.9114987 -68.51483154 151.89420319 C-70.1885334 151.89024859 -71.86225633 151.89135474 -73.53594971 151.89799118 C-91.23347999 151.96167556 -91.23347999 151.96167556 -98.42578125 146.73828125 C-99.04839844 146.10277344 -99.67101562 145.46726563 -100.3125 144.8125 C-100.94800781 144.18988281 -101.58351563 143.56726563 -102.23828125 142.92578125 C-107.60607093 135.53465622 -107.51935065 127.94889555 -107.5 119.125 C-107.52835938 117.95710938 -107.55671875 116.78921875 -107.5859375 115.5859375 C-107.60319065 107.89103339 -106.54402762 101.85165512 -102 95.5 C-96.39985729 90.20015093 -90.92781691 87.23887661 -83.1081543 87.27294922 C-81.94732834 87.27310028 -80.78650238 87.27325134 -79.59049988 87.27340698 C-78.34762711 87.28372955 -77.10475433 87.29405212 -75.82421875 87.3046875 C-73.90377495 87.30893234 -73.90377495 87.30893234 -71.9445343 87.31326294 C-68.55296925 87.3208722 -65.1615775 87.34049707 -61.77008057 87.3626709 C-58.30442651 87.38318794 -54.83874425 87.39227714 -51.37304688 87.40234375 C-44.58195634 87.42438508 -37.79099388 87.45784871 -31 87.5 C-30.95563812 86.88050476 -30.91127625 86.26100952 -30.86557007 85.6227417 C-30.2116229 77.48944151 -28.95706603 69.49471606 -27.6015625 61.453125 C-27.3634524 60.02831726 -27.12544784 58.60349188 -26.88754272 57.1786499 C-26.39122336 54.21315431 -25.89147927 51.24825902 -25.38964844 48.28369141 C-24.74985175 44.50053246 -24.12208423 40.71548311 -23.4972477 36.92982864 C-23.01084063 33.99472778 -22.51637807 31.06102517 -22.01969528 28.1276474 C-21.78482276 26.73279278 -21.55279474 25.33745585 -21.32378006 23.9416275 C-18.51339498 6.86013919 -18.51339498 6.86013919 -13.4375 2.09375 C-8.83786459 -0.03880824 -5.00808121 -0.0883779 0 0 Z " fill="#7E8A90" transform="translate(168,-0.5)"/>
<path d="M0 0 C3.279375 0.061875 6.55875 0.12375 9.9375 0.1875 C9.9375 10.7475 9.9375 21.3075 9.9375 32.1875 C13.2375 32.1875 16.5375 32.1875 19.9375 32.1875 C33.9222794 34.12463834 45.94624534 41.48226033 54.75390625 52.44921875 C61.43535719 62.04438513 65.43817655 72.42160116 64.9375 84.1875 C65.494375 84.20167969 66.05125 84.21585937 66.625 84.23046875 C74.55871556 84.72632597 79.82049629 87.68704041 85.25 93.4375 C90.86643125 100.52307948 90.9375 107.08347461 90.9375 116.1875 C38.4675 116.1875 -14.0025 116.1875 -68.0625 116.1875 C-71.0325 101.3375 -71.0325 101.3375 -74.0625 86.1875 C-76.1865137 78.98251236 -78.35635903 71.90633974 -80.90478516 64.85791016 C-83.80360312 56.61657238 -83.80360312 56.61657238 -83.0625 53.1875 C-74.02453083 41.38315623 -61.70500932 34.32912483 -47.08666992 32.27441406 C-44.08184681 31.87925539 -41.07436953 31.52479764 -38.0625 31.1875 C-37.91554688 30.42566406 -37.76859375 29.66382813 -37.6171875 28.87890625 C-35.29091128 18.17001399 -31.30185743 11.47910757 -22.69921875 4.6953125 C-15.29967633 0.46387047 -8.40165804 -0.22620619 0 0 Z " fill="#FFD04F" transform="translate(378.0625,253.8125)"/>
<path d="M0 0 C15.18 0 30.36 0 46 0 C46.65271463 42.42645081 38.8708606 77.1398507 8.8125 108.5625 C2.74042711 114.50736466 -3.91054609 119.3416277 -11 124 C-11.95390625 124.63808594 -12.9078125 125.27617187 -13.890625 125.93359375 C-37.98683214 141.04420409 -70.12341449 146.23888919 -98 141 C-98 140.34 -98 139.68 -98 139 C-97.44763672 138.86013672 -96.89527344 138.72027344 -96.32617188 138.57617188 C-83.74501587 135.33446556 -72.27962318 131.48796429 -61 125 C-59.99582031 124.4225 -58.99164063 123.845 -57.95703125 123.25 C-29.87743898 106.14085492 -11.84076157 79.66320156 -4 48.09765625 C-1.39511344 36.56351911 -0.80832083 25.16779546 -0.4375 13.375 C-0.293125 8.96125 -0.14875 4.5475 0 0 Z " fill="#6B7C85" transform="translate(441,370)"/>
<path d="M0 0 C0.84272461 0.00249756 1.68544922 0.00499512 2.55371094 0.00756836 C4.1436084 0.02122437 4.1436084 0.02122437 5.765625 0.03515625 C9.148125 0.05578125 12.530625 0.07640625 16.015625 0.09765625 C16.015625 10.65765625 16.015625 21.21765625 16.015625 32.09765625 C19.315625 32.09765625 22.615625 32.09765625 26.015625 32.09765625 C40.0004044 34.03479459 52.02437034 41.39241658 60.83203125 52.359375 C67.51348219 61.95454138 71.51630155 72.33175741 71.015625 84.09765625 C71.5725 84.11183594 72.129375 84.12601562 72.703125 84.140625 C80.63684056 84.63648222 85.89862129 87.59719666 91.328125 93.34765625 C96.94455625 100.43323573 97.015625 106.99363086 97.015625 116.09765625 C81.835625 116.09765625 66.655625 116.09765625 51.015625 116.09765625 C50.685625 112.13765625 50.355625 108.17765625 50.015625 104.09765625 C46.87205484 96.1462729 43.26821726 90.79129331 35.578125 86.84765625 C33.34522859 86.19412559 31.11297608 85.61113912 28.85546875 85.05078125 C27.58832031 84.73625 26.32117188 84.42171875 25.015625 84.09765625 C24.81259766 82.48310547 24.81259766 82.48310547 24.60546875 80.8359375 C22.46525813 65.66782701 16.84997109 52.83893338 4.51953125 43.1328125 C-6.09591849 35.84528314 -17.27352446 33.51372337 -29.984375 33.09765625 C-30.82047281 24.08637985 -29.73244363 18.20343645 -23.984375 11.09765625 C-17.61833671 4.21224421 -9.42380168 -0.05746221 0 0 Z " fill="#FFC930" transform="translate(371.984375,253.90234375)"/>
<path d="M0 0 C0.8765625 -0.01546875 1.753125 -0.0309375 2.65625 -0.046875 C8.20077046 -0.01347427 11.79328293 0.54979007 16 4.5 C18.32025972 9.22666129 19.56594607 13.51147478 20.44213867 18.73291016 C20.61836006 19.7611515 20.61836006 19.7611515 20.79814148 20.81016541 C21.18002048 23.05177442 21.54924658 25.29525506 21.91796875 27.5390625 C22.1820693 29.10902751 22.44683542 30.67888069 22.7122345 32.24862671 C23.26470857 35.52749538 23.81129488 38.80727076 24.35327148 42.08789062 C25.04714001 46.28688082 25.7523865 50.48385748 26.46161938 54.68027687 C27.00801145 57.91737445 27.55005966 61.1551868 28.09063148 64.39326096 C28.34924286 65.94113329 28.60880449 67.48884719 28.86934471 69.03639603 C29.23240097 71.19889159 29.59000638 73.36221832 29.94604492 75.52587891 C30.15017502 76.75496979 30.35430511 77.98406067 30.56462097 79.25039673 C31 82.5 31 82.5 31 87.5 C10.54 87.5 -9.92 87.5 -31 87.5 C-29.87436948 75.11806433 -29.87436948 75.11806433 -28.92431641 69.39550781 C-28.71384674 68.11758362 -28.50337708 66.83965942 -28.28652954 65.52301025 C-28.0585592 64.16632264 -27.83022822 62.80969558 -27.6015625 61.453125 C-27.3634524 60.02831726 -27.12544784 58.60349188 -26.88754272 57.1786499 C-26.39122336 54.21315431 -25.89147927 51.24825902 -25.38964844 48.28369141 C-24.74985175 44.50053246 -24.12208423 40.71548311 -23.4972477 36.92982864 C-23.01084063 33.99472778 -22.51637807 31.06102517 -22.01969528 28.1276474 C-21.78482276 26.73279278 -21.55279474 25.33745585 -21.32378006 23.9416275 C-18.51339498 6.86013919 -18.51339498 6.86013919 -13.4375 2.09375 C-8.83786459 -0.03880824 -5.00808121 -0.0883779 0 0 Z " fill="#4B575D" transform="translate(168,-0.5)"/>
<path d="M0 0 C6.65262205 -0.12754127 13.30492492 -0.21465991 19.95849609 -0.2746582 C22.21838157 -0.29968909 24.47818702 -0.33372438 26.73779297 -0.37719727 C29.99987619 -0.43835233 33.26088245 -0.46632502 36.5234375 -0.48828125 C38.02093033 -0.52699089 38.02093033 -0.52699089 39.54867554 -0.56648254 C46.63910302 -0.56927115 52.11683733 0.93953756 58 5 C65.69705072 13.09830191 66.341362 20.47770561 66.3125 31.3125 C66.32861328 32.51068359 66.34472656 33.70886719 66.36132812 34.94335938 C66.36565782 42.80175752 65.9806667 48.89580039 61.23828125 55.42578125 C60.60277344 56.04839844 59.96726562 56.67101562 59.3125 57.3125 C58.68988281 57.94800781 58.06726563 58.58351562 57.42578125 59.23828125 C51.14814962 63.79739859 44.96459163 64.43219147 37.46875 64.29296875 C36.59222778 64.28872391 35.71570557 64.28447906 34.81262207 64.28010559 C32.04142177 64.2634513 29.27097664 64.22582509 26.5 64.1875 C24.60938558 64.17243599 22.71875964 64.1587506 20.828125 64.14648438 C16.21846361 64.11359139 11.60935938 64.06190255 7 64 C6.85463187 59.60451509 6.76590052 55.20964913 6.6875 50.8125 C6.6246582 48.94368164 6.6246582 48.94368164 6.56054688 47.03710938 C6.42235662 36.72811629 6.42235662 36.72811629 9.25 33.65625 C13.28455498 31.22634757 15.38842528 31.60918858 20 32 C19.97403983 22.26493482 19.58479729 14.70790524 13 7 C8.92863217 3.5350061 5.0961393 2.22307343 0 1 C0 0.67 0 0.34 0 0 Z " fill="#6A7C85" transform="translate(209,87)"/>
<path d="M0 0 C3.67496253 0.70371623 4.67529746 1.60866865 6.9375 4.5625 C9.92332837 25.61512037 0.97085501 49.44290289 -11.10546875 66.4375 C-14.40625111 70.69817217 -17.60199969 74.46960592 -22.0625 77.5625 C-25.8762751 77.5625 -28.08674548 77.41235071 -31 74.875 C-32.38378533 71.86323193 -32.36552597 69.85893111 -32.0625 66.5625 C-30.55859375 64.2109375 -30.55859375 64.2109375 -28.5 61.9375 C-16.39666257 47.57145751 -10.80447389 31.48497543 -9.26269531 12.96142578 C-8.81551263 8.43963894 -8.50596621 6.13669484 -5.6640625 2.45703125 C-3.0625 0.5625 -3.0625 0.5625 0 0 Z " fill="#F2AA00" transform="translate(278.0625,402.4375)"/>
<path d="M0 0 C3.40078298 0.59662859 5.18342937 1.15103821 7.55249023 3.66796875 C9.97736508 8.36649346 9.04775966 14.29989341 8.875 19.4375 C8.85244141 20.70271484 8.82988281 21.96792969 8.80664062 23.27148438 C8.74780392 26.38982979 8.65812681 29.50756589 8.5625 32.625 C3.2825 32.625 -1.9975 32.625 -7.4375 32.625 C-7.5453893 28.22851118 -7.62477932 23.83466751 -7.6875 19.4375 C-7.72101563 18.19162109 -7.75453125 16.94574219 -7.7890625 15.66210938 C-7.80195313 14.46005859 -7.81484375 13.25800781 -7.828125 12.01953125 C-7.84907227 10.91456299 -7.87001953 9.80959473 -7.89160156 8.67114258 C-7.13047551 3.56545988 -5.09199849 0.92581791 0 0 Z " fill="#4E5A60" transform="translate(167.4375,118.375)"/>
<path d="M0 0 C3.43076977 0.54170049 5.17151751 1.07052361 7.55249023 3.60327148 C9.97594201 8.30431101 9.04782222 14.23553303 8.875 19.375 C8.85244141 20.64021484 8.82988281 21.90542969 8.80664062 23.20898438 C8.74780392 26.32732979 8.65812681 29.44506589 8.5625 32.5625 C3.2825 32.5625 -1.9975 32.5625 -7.4375 32.5625 C-7.54521702 27.97854218 -7.62469721 23.39710364 -7.6875 18.8125 C-7.72101563 17.51054687 -7.75453125 16.20859375 -7.7890625 14.8671875 C-7.80195312 13.61679688 -7.81484375 12.36640625 -7.828125 11.078125 C-7.84907227 9.92602539 -7.87001953 8.77392578 -7.89160156 7.58691406 C-7.13662276 2.55859286 -4.90554055 0.80272482 0 0 Z " fill="#4E5A60" transform="translate(111.4375,118.4375)"/>
<path d="M0 0 C2.90337939 2.16687461 3.89397407 3.31527769 4.45410156 6.93261719 C4.4331543 8.04282227 4.41220703 9.15302734 4.390625 10.296875 C4.37773437 11.50214844 4.36484375 12.70742187 4.3515625 13.94921875 C4.31804687 15.20347656 4.28453125 16.45773438 4.25 17.75 C4.23195312 19.01972656 4.21390625 20.28945312 4.1953125 21.59765625 C4.14817812 24.73209258 4.07643558 27.8661413 4 31 C-0.95 31 -5.9 31 -11 31 C-11.1077394 26.58268479 -11.18720629 22.16798606 -11.25 17.75 C-11.28351563 16.49574219 -11.31703125 15.24148437 -11.3515625 13.94921875 C-11.36445313 12.74394531 -11.37734375 11.53867188 -11.390625 10.296875 C-11.41157227 9.18666992 -11.43251953 8.07646484 -11.45410156 6.93261719 C-10.42900098 0.31245148 -6.09872258 -0.87124608 0 0 Z " fill="#4C585E" transform="translate(228,119)"/>
</svg>
