<?xml version="1.0" encoding="UTF-8"?>
<svg version="1.1" xmlns="http://www.w3.org/2000/svg" width="512" height="512">
<path d="M0 0 C1.47027076 0.22822844 2.94065611 0.45571941 4.41113281 0.68261719 C9.21599699 1.42878783 14.01528828 2.20620568 18.8125 3 C19.57501068 3.12538147 20.33752136 3.25076294 21.12313843 3.37994385 C23.29894065 3.74257263 25.47192302 4.11874881 27.64453125 4.5 C28.89596924 4.7165625 30.14740723 4.933125 31.43676758 5.15625 C36.12954487 6.2674688 40.51742089 7.51742089 44 11 C44.62849938 16.73593301 43.12037208 20.69169741 40.48339844 25.65332031 C40.10943436 26.38460144 39.73547028 27.11588257 39.35017395 27.86932373 C38.53943044 29.45091248 37.72234682 31.02926398 36.89962006 32.6046524 C35.59006703 35.11513947 34.30010923 37.63484299 33.01495361 40.15789795 C29.35846047 47.32790624 25.66791337 54.48018117 21.96435547 61.62597656 C19.69516031 66.00752331 17.4487516 70.40019263 15.21460724 74.79970551 C14.36697864 76.45755901 13.51090172 78.11112603 12.64556122 79.75980377 C4.65438427 94.98781891 0.93344846 109.96499732 -0.25 127.125 C-0.32734375 128.06085938 -0.4046875 128.99671875 -0.484375 129.9609375 C-1.58402603 144.02076143 -0.1264471 155.31299025 6.4140625 168.01953125 C6.7567215 168.69519135 7.09938049 169.37085144 7.4524231 170.06698608 C8.62876996 172.38120043 9.81364861 174.69089919 11 177 C11.44154419 177.86130524 11.88308838 178.72261047 12.3380127 179.61001587 C14.80470194 184.42106986 17.27514667 189.23019419 19.74609375 194.0390625 C20.26155762 195.04227539 20.77702148 196.04548828 21.30810547 197.07910156 C22.34758313 199.09975025 23.38858414 201.11961604 24.43115234 203.13867188 C33.65061884 221.00229621 42.78381352 239.02580565 49.6875 257.9375 C50.05069336 258.92290771 50.41388672 259.90831543 50.78808594 260.92358398 C61.65518795 290.85097337 69.11565494 322.0604042 70 354 C70.02191406 354.73444336 70.04382813 355.46888672 70.06640625 356.22558594 C73.0781258 477.54768836 73.0781258 477.54768836 47.42578125 504.6640625 C42.7366592 508.7287252 39.49368908 509.14866736 33.51080322 509.14717102 C32.72928571 509.15084771 31.94776821 509.1545244 31.14256835 509.1583125 C28.50942704 509.16937388 25.87632516 509.17319733 23.24316406 509.17700195 C21.36100132 509.18326476 19.47883982 509.18991139 17.59667969 509.19691467 C12.47259604 509.21434154 7.34852173 509.22488105 2.22441578 509.2331202 C-0.97541403 509.23826684 -4.17524092 509.24434272 -7.37506866 509.25063133 C-17.38209983 509.26968821 -27.38912359 509.28391823 -37.39616942 509.2922433 C-48.95587941 509.30201822 -60.51539804 509.32834236 -72.07504058 509.36874419 C-81.0041895 509.39888355 -89.9332835 509.41371011 -98.86248231 509.41702431 C-104.1981188 509.41937732 -109.53355097 509.42837022 -114.869133 509.45348549 C-119.889143 509.47673299 -124.90881369 509.48101279 -129.92886353 509.47072411 C-131.771122 509.47022782 -133.61339699 509.4765754 -135.45560455 509.49028015 C-137.9717671 509.50795082 -140.48670558 509.50091725 -143.00286865 509.48774719 C-143.73108944 509.49871644 -144.45931022 509.50968568 -145.2095983 509.52098733 C-150.26588324 509.45713766 -153.08308676 508.13394763 -157 505 C-160.85634429 501.03207974 -162.59549947 496.67940305 -164.4375 491.5625 C-164.73825439 490.72904053 -165.03900879 489.89558105 -165.34887695 489.03686523 C-195.59158249 402.25520021 -182.06554108 301.33940044 -143.08618164 220.3059082 C-137.3481305 208.525916 -131.32123728 196.8920376 -125.29386902 185.25820923 C-122.20856278 179.30074131 -119.13393253 173.33821908 -116.11328125 167.34765625 C-115.57098877 166.27394775 -115.02869629 165.20023926 -114.4699707 164.09399414 C-104.93846039 144.0320725 -108.48425687 117.95342152 -114.83404541 97.14691162 C-117.15264474 90.88901167 -120.30934123 85.01106054 -123.35463524 79.08176613 C-124.62792004 76.60078516 -125.88966989 74.1142367 -127.14851379 71.62590027 C-130.72609462 64.55888464 -134.32314766 57.50186375 -137.92944336 50.44946289 C-140.14280362 46.11912754 -142.34240456 41.78202644 -144.53389931 37.440588 C-145.36861156 35.79409006 -146.20867719 34.15029441 -147.05425072 32.50934792 C-148.23547657 30.21669927 -149.39909443 27.9158761 -150.55932617 25.61254883 C-150.9099411 24.94277008 -151.26055603 24.27299133 -151.62179565 23.58291626 C-153.78659182 19.22695389 -154.51964363 15.84545053 -154 11 C-150.43589079 6.85399541 -146.14975788 6.04729814 -140.96484375 5.18359375 C-140.18351074 5.04176666 -139.40217773 4.89993958 -138.59716797 4.7538147 C-136.04670737 4.29716649 -133.49297993 3.86511078 -130.9375 3.4375 C-130.05377716 3.28658905 -129.17005432 3.1356781 -128.259552 2.98019409 C-122.9505017 2.07545405 -117.63661877 1.20668269 -112.31689453 0.36706543 C-110.30909037 0.04896917 -108.30282862 -0.2788338 -106.296875 -0.60839844 C-72.14398037 -6.0332942 -34.10111216 -5.50140539 0 0 Z " fill="#565B6F" transform="translate(311,3)"/>
<path d="M0 0 C1.47027076 0.22822844 2.94065611 0.45571941 4.41113281 0.68261719 C9.21599699 1.42878783 14.01528828 2.20620568 18.8125 3 C19.57501068 3.12538147 20.33752136 3.25076294 21.12313843 3.37994385 C23.29894065 3.74257263 25.47192302 4.11874881 27.64453125 4.5 C28.89596924 4.7165625 30.14740723 4.933125 31.43676758 5.15625 C36.12954487 6.2674688 40.51742089 7.51742089 44 11 C44.62849938 16.73593301 43.12037208 20.69169741 40.48339844 25.65332031 C40.10943436 26.38460144 39.73547028 27.11588257 39.35017395 27.86932373 C38.53943044 29.45091248 37.72234682 31.02926398 36.89962006 32.6046524 C35.59006703 35.11513947 34.30010923 37.63484299 33.01495361 40.15789795 C29.35846047 47.32790624 25.66791337 54.48018117 21.96435547 61.62597656 C19.69516031 66.00752331 17.4487516 70.40019263 15.21460724 74.79970551 C14.36697864 76.45755901 13.51090172 78.11112603 12.64556122 79.75980377 C4.65438427 94.98781891 0.93344846 109.96499732 -0.25 127.125 C-0.32734375 128.06085938 -0.4046875 128.99671875 -0.484375 129.9609375 C-1.90131843 148.0775714 2.56366603 161.20687929 11 177 C12.37867485 179.59642075 13.75577447 182.193654 15.13037109 184.79223633 C16.03152345 186.49157514 16.93796309 188.18812243 17.85009766 189.8815918 C18.26050293 190.65027588 18.6709082 191.41895996 19.09375 192.2109375 C19.46177734 192.89462402 19.82980469 193.57831055 20.20898438 194.28271484 C21 196 21 196 21 198 C-29.16 198 -79.32 198 -131 198 C-122 179 -122 179 -117.6875 170.5 C-111.71847508 158.64518358 -108.67595255 149.09881516 -109.25 135.875 C-109.29592285 134.81200684 -109.3418457 133.74901367 -109.38916016 132.65380859 C-109.73076384 125.91947997 -110.32753968 119.28657559 -111.375 112.625 C-111.48875977 111.89651855 -111.60251953 111.16803711 -111.71972656 110.41748047 C-113.68811544 98.97720433 -118.09100681 89.33023557 -123.35463524 79.08176613 C-124.62792004 76.60078516 -125.88966989 74.1142367 -127.14851379 71.62590027 C-130.72609462 64.55888464 -134.32314766 57.50186375 -137.92944336 50.44946289 C-140.14280362 46.11912754 -142.34240456 41.78202644 -144.53389931 37.440588 C-145.36861156 35.79409006 -146.20867719 34.15029441 -147.05425072 32.50934792 C-148.23547657 30.21669927 -149.39909443 27.9158761 -150.55932617 25.61254883 C-150.9099411 24.94277008 -151.26055603 24.27299133 -151.62179565 23.58291626 C-153.78659182 19.22695389 -154.51964363 15.84545053 -154 11 C-150.43589079 6.85399541 -146.14975788 6.04729814 -140.96484375 5.18359375 C-140.18351074 5.04176666 -139.40217773 4.89993958 -138.59716797 4.7538147 C-136.04670737 4.29716649 -133.49297993 3.86511078 -130.9375 3.4375 C-130.05377716 3.28658905 -129.17005432 3.1356781 -128.259552 2.98019409 C-122.9505017 2.07545405 -117.63661877 1.20668269 -112.31689453 0.36706543 C-110.30909037 0.04896917 -108.30282862 -0.2788338 -106.296875 -0.60839844 C-72.14398037 -6.0332942 -34.10111216 -5.50140539 0 0 Z " fill="#EF88A0" transform="translate(311,3)"/>
<path d="M0 0 C38.94 0 77.88 0 118 0 C116.88819876 8.89440994 116.88819876 8.89440994 116.28125 12.09375 C111.56447261 38.2818463 112.43682727 57.48128867 125 81 C126.37867485 83.59642075 127.75577447 86.193654 129.13037109 88.79223633 C130.03152345 90.49157514 130.93796309 92.18812243 131.85009766 93.8815918 C132.46570557 95.03461792 132.46570557 95.03461792 133.09375 96.2109375 C133.46177734 96.89462402 133.82980469 97.57831055 134.20898438 98.28271484 C135 100 135 100 135 102 C84.84 102 34.68 102 -17 102 C-8 83 -8 83 -3.6875 74.5 C2.2820819 62.64407738 5.32209474 53.09950892 4.75 39.875 C4.70552734 38.81345703 4.66105469 37.75191406 4.61523438 36.65820312 C4.17154007 27.73620559 3.03697148 19.04234119 1.37304688 10.27148438 C0.81324756 6.86286342 0.42845109 3.42760875 0 0 Z " fill="#EEF1F8" transform="translate(197,99)"/>
<path d="M0 0 C10.56 0 21.12 0 32 0 C57.06091667 48.98984714 78.72376787 100.06773969 80 156 C80.02046387 156.72574219 80.04092773 157.45148438 80.06201172 158.19921875 C83.09527038 279.5295653 83.09527038 279.5295653 57.42578125 306.6640625 C52.68614035 310.77251636 49.41546899 311.14022171 43.3671875 311.09765625 C42.61535187 311.0962413 41.86351624 311.09482635 41.08889771 311.09336853 C38.6842249 311.08776465 36.27964473 311.07521157 33.875 311.0625 C32.24609509 311.0574855 30.61718873 311.0529225 28.98828125 311.04882812 C24.99215173 311.03779397 20.99609158 311.02052679 17 311 C17.62471191 310.69022217 18.24942383 310.38044434 18.89306641 310.0612793 C28.21022773 305.36815064 30.89419175 297.39181538 34 288 C37.088191 278.48503314 39.26435107 268.84478965 41 259 C41.1222998 258.32952637 41.24459961 257.65905273 41.37060547 256.96826172 C46.26063515 229.65658751 47.29133677 202.05715925 47.375 174.375 C47.38276459 173.20859985 47.39052917 172.04219971 47.39852905 170.8404541 C47.69456516 114.48350936 31.40656584 64.21382493 6.625 14.16015625 C6.303535 13.50930054 5.98207001 12.85844482 5.65086365 12.18786621 C4.28329487 9.44816821 2.87191647 6.79061458 1.2734375 4.17749023 C0 2 0 2 0 0 Z " fill="#454753" transform="translate(301,201)"/>
<path d="M0 0 C0.99147537 -0.00945648 1.98295074 -0.01891296 3.00447083 -0.02865601 C4.07613998 -0.03305695 5.14780914 -0.03745789 6.25195312 -0.04199219 C7.36918259 -0.04905182 8.48641205 -0.05611145 9.63749695 -0.06338501 C55.65544251 -0.28766167 55.65544251 -0.28766167 77.03320312 3.16113281 C78.50347388 3.38936125 79.97385924 3.61685222 81.44433594 3.84375 C86.24920011 4.58992064 91.04849141 5.3673385 95.84570312 6.16113281 C96.60821381 6.28651428 97.37072449 6.41189575 98.15634155 6.54107666 C100.33214377 6.90370544 102.50512614 7.27988162 104.67773438 7.66113281 C105.92917236 7.87769531 107.18061035 8.09425781 108.4699707 8.31738281 C113.162748 9.42860161 117.55062401 10.6785537 121.03320312 14.16113281 C121.70112305 20.15140086 120.12513986 23.95633609 117.453125 29.1159668 C117.07273575 29.87776749 116.6923465 30.63956818 116.3004303 31.42445374 C115.04743822 33.92558482 113.77494395 36.41622326 112.50195312 38.90722656 C111.62634142 40.6453861 110.75196903 42.38417045 109.87878418 44.12355042 C107.58295178 48.68855371 105.27042463 53.24489567 102.95428467 57.79962158 C100.5915172 62.4534099 98.24468326 67.11521597 95.89648438 71.77636719 C91.29091613 80.91254492 86.66622415 90.03884584 82.03320312 99.16113281 C71.47320312 99.16113281 60.91320312 99.16113281 50.03320312 99.16113281 C57.27108811 83.68730486 64.85345739 68.39727783 72.51434326 53.13018799 C74.12565462 49.91795155 75.73459298 46.70452696 77.34375 43.49121094 C80.15742423 37.87331273 82.97307904 32.25641081 85.79026794 26.64027405 C86.20043655 25.82215744 86.61060516 25.00404083 87.03320312 24.16113281 C87.41408585 23.44481186 87.79496857 22.72849091 88.18739319 21.99046326 C89.78455816 18.53609086 89.20389275 15.67320169 88.03320312 12.16113281 C83.95036572 11.36689477 79.86684399 10.57622854 75.78320312 9.78613281 C74.64367187 9.56441406 73.50414062 9.34269531 72.33007812 9.11425781 C64.91487033 7.68177449 57.48927607 6.36301233 50.03320312 5.16113281 C50.05415039 5.74491699 50.07509766 6.32870117 50.09667969 6.93017578 C50.77340452 28.62391817 50.77340452 28.62391817 46.03320312 36.16113281 C45.5975 36.88300781 45.16179687 37.60488281 44.71289062 38.34863281 C40.05603868 45.27029253 33.98083573 48.89744144 26.03320312 51.16113281 C17.13910126 52.23339129 10.54061532 51.0205272 3.03320312 46.16113281 C2.10507813 45.56300781 1.17695313 44.96488281 0.22070312 44.34863281 C-5.04467173 39.08325796 -8.65467684 32.50463547 -9.19384766 25.00146484 C-9.18337402 23.9017334 -9.17290039 22.80200195 -9.16210938 21.66894531 C-9.15566406 20.47011719 -9.14921875 19.27128906 -9.14257812 18.03613281 C-9.12582031 16.79863281 -9.1090625 15.56113281 -9.09179688 14.28613281 C-9.08277344 13.02542969 -9.07375 11.76472656 -9.06445312 10.46582031 C-9.04095496 7.36406241 -9.00810022 4.26269629 -8.96679688 1.16113281 C-5.91513606 0.27623716 -3.17293012 0.02501799 0 0 Z " fill="#EA708D" transform="translate(233.966796875,-0.1611328125)"/>
<path d="M0 0 C0.96279302 -0.00935994 0.96279302 -0.00935994 1.94503641 -0.01890898 C4.08788091 -0.03481703 6.22958435 -0.02224482 8.37243652 -0.00964355 C9.91184654 -0.0150657 11.45125136 -0.02218889 12.99064636 -0.03088379 C17.16630224 -0.04910925 21.34156252 -0.04205297 25.51722527 -0.02936745 C29.88844743 -0.0192357 34.25963587 -0.02863361 38.63085938 -0.03491211 C45.9713753 -0.04218801 53.31173021 -0.03260235 60.65222168 -0.0135498 C69.13712991 0.00821889 77.62165368 0.00116747 86.1065526 -0.02085543 C93.39332891 -0.03901109 100.67998952 -0.04156695 107.96678114 -0.03110075 C112.31807221 -0.02486671 116.6691826 -0.02402766 121.02046204 -0.0372467 C125.11147356 -0.04880707 129.20198972 -0.04077646 133.29294777 -0.01766968 C134.79374685 -0.01238352 136.29458766 -0.01389483 137.7953701 -0.02272034 C139.84550549 -0.03366425 141.89405715 -0.01992973 143.9440918 0 C145.09076073 0.0015081 146.23742966 0.0030162 147.41884613 0.00457001 C151.13325965 0.61694531 152.81000699 1.89612012 155.4720459 4.50793457 C156.1361084 6.50793457 156.1361084 6.50793457 156.0970459 8.50793457 C156.10993652 9.16793457 156.12282715 9.82793457 156.1361084 10.50793457 C155.09670474 13.63837381 153.17781212 14.70810172 150.4720459 16.50793457 C147.41884613 17.01129913 147.41884613 17.01129913 143.9440918 17.01586914 C143.30222978 17.0221091 142.66036777 17.02834907 141.99905539 17.03477812 C139.85621089 17.05068617 137.71450745 17.03811396 135.57165527 17.0255127 C134.03224526 17.03093485 132.49284044 17.03805803 130.95344543 17.04675293 C126.77778955 17.06497839 122.60252927 17.05792211 118.42686653 17.04523659 C114.05564437 17.03510484 109.68445592 17.04450275 105.31323242 17.05078125 C97.9727165 17.05805715 90.63236159 17.04847149 83.29187012 17.02941895 C74.80696188 17.00765025 66.32243811 17.01470167 57.8375392 17.03672457 C50.55076289 17.05488023 43.26410228 17.05743609 35.97731066 17.04696989 C31.62601959 17.04073585 27.2749092 17.0398968 22.92362976 17.05311584 C18.83261823 17.06467621 14.74210208 17.0566456 10.65114403 17.03353882 C9.15034495 17.02825266 7.64950413 17.02976397 6.14872169 17.03858948 C4.09858631 17.04953339 2.05003465 17.03579888 0 17.01586914 C-1.14666893 17.01436104 -2.29333786 17.01285294 -3.47475433 17.01129913 C-7.18916785 16.39892383 -8.86591519 15.11974902 -11.5279541 12.50793457 C-12.1920166 10.50793457 -12.1920166 10.50793457 -12.1529541 8.50793457 C-12.16584473 7.84793457 -12.17873535 7.18793457 -12.1920166 6.50793457 C-10.32343292 0.88020019 -5.27256071 0.00693449 0 0 Z " fill="#454753" transform="translate(183.5279541015625,343.4920654296875)"/>
<path d="M0 0 C1.08081848 0.00007553 2.16163696 0.00015106 3.27520752 0.00022888 C4.43574646 0.00539017 5.5962854 0.01055145 6.79199219 0.01586914 C7.98491882 0.01728409 9.17784546 0.01869904 10.40692139 0.02015686 C14.21759548 0.02575501 18.02821085 0.03830721 21.83886719 0.05102539 C24.42219967 0.05604063 27.00553308 0.06060349 29.58886719 0.06469727 C35.92222056 0.07572384 42.25553968 0.09246016 48.58886719 0.11352539 C48.68856182 4.23934936 48.76071952 8.36469636 48.80859375 12.49145508 C48.82857349 13.89197012 48.85576739 15.29240321 48.890625 16.69262695 C49.08621873 24.75799189 49.14752403 31.19265545 44.58886719 38.11352539 C43.91984375 39.17120117 43.91984375 39.17120117 43.23730469 40.25024414 C38.54944361 45.9590811 32.51395675 48.8051622 25.58886719 51.11352539 C16.63411024 51.99267404 10.15986934 51.01408025 2.58886719 46.11352539 C1.66074219 45.51540039 0.73261719 44.91727539 -0.22363281 44.30102539 C-5.48900767 39.03565053 -9.09901278 32.45702805 -9.63818359 24.95385742 C-9.62770996 23.85412598 -9.61723633 22.75439453 -9.60644531 21.62133789 C-9.6 20.42250977 -9.59355469 19.22368164 -9.58691406 17.98852539 C-9.57015625 16.75102539 -9.55339844 15.51352539 -9.53613281 14.23852539 C-9.52710938 12.97782227 -9.51808594 11.71711914 -9.50878906 10.41821289 C-9.4852909 7.31645499 -9.45243616 4.21508887 -9.41113281 1.11352539 C-6.20781047 0.16339389 -3.33512151 -0.00779234 0 0 Z " fill="#E05E7B" transform="translate(234.4111328125,-0.113525390625)"/>
<path d="M0 0 C0.97926956 -0.00700928 1.95853912 -0.01401855 2.96748352 -0.02124023 C6.20582399 -0.03885136 9.44329121 -0.02718603 12.68164062 -0.01367188 C14.93078784 -0.01636588 17.17993392 -0.02024754 19.42907715 -0.02526855 C24.14342332 -0.03116785 28.85746639 -0.02258649 33.57177734 -0.00390625 C39.61820348 0.01888319 45.66391945 0.00576247 51.71031952 -0.01819611 C56.35485191 -0.03264223 60.99921561 -0.02805346 65.64375305 -0.01768494 C67.8733173 -0.01501439 70.1028968 -0.01829889 72.33244324 -0.02760315 C75.44730262 -0.03774889 78.56100795 -0.02229448 81.67578125 0 C83.06142021 -0.01214539 83.06142021 -0.01214539 84.47505188 -0.02453613 C90.68586013 0.0579237 90.68586013 0.0579237 93.91052246 2.33117676 C96.01557641 5.55563766 95.87526975 7.75592428 95.33789062 11.51757812 C93.91052246 13.70397949 93.91052246 13.70397949 91.33789062 15.51757812 C88.12046705 16.11675474 84.94065102 16.06377345 81.67578125 16.03515625 C80.69651169 16.04216553 79.71724213 16.0491748 78.70829773 16.05639648 C75.46995726 16.07400761 72.23249004 16.06234228 68.99414062 16.04882812 C66.74499341 16.05152213 64.49584733 16.05540379 62.2467041 16.0604248 C57.53235793 16.0663241 52.81831486 16.05774274 48.10400391 16.0390625 C42.05757777 16.01627306 36.0118618 16.02939378 29.96546173 16.05335236 C25.32092934 16.06779848 20.67656564 16.06320971 16.0320282 16.05284119 C13.80246395 16.05017064 11.57288445 16.05345514 9.34333801 16.0627594 C6.22847863 16.07290514 3.1147733 16.05745073 0 16.03515625 C-1.38563896 16.04730164 -1.38563896 16.04730164 -2.79927063 16.05969238 C-9.01007888 15.97723255 -9.01007888 15.97723255 -12.23474121 13.70397949 C-14.33979516 10.47951859 -14.1994885 8.27923197 -13.66210938 4.51757812 C-10.24094858 -0.72285727 -5.67188098 -0.0497151 0 0 Z " fill="#454753" transform="translate(214.662109375,381.482421875)"/>
<path d="M0 0 C0.97926956 -0.00700928 1.95853912 -0.01401855 2.96748352 -0.02124023 C6.20582399 -0.03885136 9.44329121 -0.02718603 12.68164062 -0.01367188 C14.93078784 -0.01636588 17.17993392 -0.02024754 19.42907715 -0.02526855 C24.14342332 -0.03116785 28.85746639 -0.02258649 33.57177734 -0.00390625 C39.61820348 0.01888319 45.66391945 0.00576247 51.71031952 -0.01819611 C56.35485191 -0.03264223 60.99921561 -0.02805346 65.64375305 -0.01768494 C67.8733173 -0.01501439 70.1028968 -0.01829889 72.33244324 -0.02760315 C75.44730262 -0.03774889 78.56100795 -0.02229448 81.67578125 0 C83.06142021 -0.01214539 83.06142021 -0.01214539 84.47505188 -0.02453613 C90.68586013 0.0579237 90.68586013 0.0579237 93.91052246 2.33117676 C96.01557641 5.55563766 95.87526975 7.75592428 95.33789062 11.51757812 C93.91052246 13.70397949 93.91052246 13.70397949 91.33789062 15.51757812 C88.12046705 16.11675474 84.94065102 16.06377345 81.67578125 16.03515625 C80.69651169 16.04216553 79.71724213 16.0491748 78.70829773 16.05639648 C75.46995726 16.07400761 72.23249004 16.06234228 68.99414062 16.04882812 C66.74499341 16.05152213 64.49584733 16.05540379 62.2467041 16.0604248 C57.53235793 16.0663241 52.81831486 16.05774274 48.10400391 16.0390625 C42.05757777 16.01627306 36.0118618 16.02939378 29.96546173 16.05335236 C25.32092934 16.06779848 20.67656564 16.06320971 16.0320282 16.05284119 C13.80246395 16.05017064 11.57288445 16.05345514 9.34333801 16.0627594 C6.22847863 16.07290514 3.1147733 16.05745073 0 16.03515625 C-1.38563896 16.04730164 -1.38563896 16.04730164 -2.79927063 16.05969238 C-9.01007888 15.97723255 -9.01007888 15.97723255 -12.23474121 13.70397949 C-14.33979516 10.47951859 -14.1994885 8.27923197 -13.66210938 4.51757812 C-10.24094858 -0.72285727 -5.67188098 -0.0497151 0 0 Z " fill="#454753" transform="translate(214.662109375,306.482421875)"/>
</svg>
