<?xml version="1.0" encoding="UTF-8"?>
<!DOCTYPE svg PUBLIC "-//W3C//DTD SVG 1.1//EN" "http://www.w3.org/Graphics/SVG/1.1/DTD/svg11.dtd">
<svg xmlns="http://www.w3.org/2000/svg" version="1.1" width="512px" height="512px" style="shape-rendering:geometricPrecision; text-rendering:geometricPrecision; image-rendering:optimizeQuality; fill-rule:evenodd; clip-rule:evenodd" xmlns:xlink="http://www.w3.org/1999/xlink">
<g><path style="opacity:0.938" fill="#e4b095" d="M 199.5,46.5 C 197.049,47.8943 194.382,48.7276 191.5,49C 173.518,50.3855 155.518,50.7188 137.5,50C 131.596,49.685 125.929,48.5183 120.5,46.5C 120.414,45.5041 120.748,44.6708 121.5,44C 134.344,41.3462 147.344,40.1796 160.5,40.5C 173.649,40.179 186.649,41.3456 199.5,44C 200.774,44.9772 200.774,45.8106 199.5,46.5 Z"/></g>
<g><path style="opacity:0.993" fill="#c2784f" d="M 120.5,46.5 C 125.929,48.5183 131.596,49.685 137.5,50C 155.518,50.7188 173.518,50.3855 191.5,49C 194.382,48.7276 197.049,47.8943 199.5,46.5C 199.161,52.8864 198.495,59.2197 197.5,65.5C 176.269,71.3466 154.602,72.8466 132.5,70C 129.149,69.9428 126.149,69.1094 123.5,67.5C 121.594,60.6354 120.594,53.6354 120.5,46.5 Z"/></g>
<g><path style="opacity:0.994" fill="#c6bbd9" d="M 197.5,65.5 C 198.833,66.1667 199.833,67.1667 200.5,68.5C 199.856,71.144 198.189,72.8106 195.5,73.5C 172.266,79.152 148.932,79.8187 125.5,75.5C 121.824,75.4174 118.491,74.4174 115.5,72.5C 115.586,66.7882 118.253,65.1215 123.5,67.5C 126.149,69.1094 129.149,69.9428 132.5,70C 154.602,72.8466 176.269,71.3466 197.5,65.5 Z"/></g>
<g><path style="opacity:0.952" fill="#dbd6e7" d="M 200.5,68.5 C 206.383,71.2728 208.55,75.9395 207,82.5C 206.003,84.3231 204.836,85.9897 203.5,87.5C 200.14,87.6159 196.807,87.9492 193.5,88.5C 193.704,85.4824 194.037,82.4824 194.5,79.5C 195.341,77.6208 195.675,75.6208 195.5,73.5C 198.189,72.8106 199.856,71.144 200.5,68.5 Z"/></g>
<g><path style="opacity:0.97" fill="#dbd7e7" d="M 115.5,72.5 C 118.491,74.4174 121.824,75.4174 125.5,75.5C 125.557,76.609 125.89,77.609 126.5,78.5C 126.851,81.9032 127.518,85.2365 128.5,88.5C 126.304,88.41 124.137,88.0767 122,87.5C 120.167,87.5186 118.667,88.1852 117.5,89.5C 115.827,88.657 114.66,87.3237 114,85.5C 113.333,81.8333 113.333,78.1667 114,74.5C 114.278,73.5842 114.778,72.9175 115.5,72.5 Z"/></g>
<g><path style="opacity:1" fill="#b45e32" d="M 195.5,73.5 C 195.675,75.6208 195.341,77.6208 194.5,79.5C 171.745,85.0893 149.078,84.7559 126.5,78.5C 125.89,77.609 125.557,76.609 125.5,75.5C 148.932,79.8187 172.266,79.152 195.5,73.5 Z"/></g>
<g><path style="opacity:1" fill="#c27850" d="M 126.5,78.5 C 149.078,84.7559 171.745,85.0893 194.5,79.5C 194.037,82.4824 193.704,85.4824 193.5,88.5C 171.823,93.8039 150.157,93.8039 128.5,88.5C 127.518,85.2365 126.851,81.9032 126.5,78.5 Z"/></g>
<g><path style="opacity:0.996" fill="#c6bbd8" d="M 128.5,88.5 C 150.157,93.8039 171.823,93.8039 193.5,88.5C 196.807,87.9492 200.14,87.6159 203.5,87.5C 204.833,89.5 204.833,91.5 203.5,93.5C 199.108,93.9662 195.108,95.2996 191.5,97.5C 190.903,96.8614 190.07,96.528 189,96.5C 169.163,100.46 149.33,100.46 129.5,96.5C 125.152,95.7421 121.152,94.0755 117.5,91.5C 117.5,90.8333 117.5,90.1667 117.5,89.5C 118.667,88.1852 120.167,87.5186 122,87.5C 124.137,88.0767 126.304,88.41 128.5,88.5 Z"/></g>
<g><path style="opacity:0.985" fill="#dbd8e9" d="M 117.5,91.5 C 121.152,94.0755 125.152,95.7421 129.5,96.5C 129.557,97.609 129.89,98.609 130.5,99.5C 133.505,115.692 137.339,131.692 142,147.5C 146.549,151.462 151.882,153.462 158,153.5C 165.923,153.712 173.09,151.545 179.5,147C 182.49,143.372 184.323,139.205 185,134.5C 186.513,123.756 188.346,113.089 190.5,102.5C 191.301,100.958 191.634,99.2915 191.5,97.5C 195.108,95.2996 199.108,93.9662 203.5,93.5C 210.707,99.9973 211.373,107.164 205.5,115C 202.664,117.584 199.331,118.751 195.5,118.5C 193.358,146.337 194.691,174.004 199.5,201.5C 190.431,202.092 181.431,203.259 172.5,205C 153.057,207.651 134.39,205.151 116.5,197.5C 117.007,193.14 117.673,188.807 118.5,184.5C 120.288,181.013 121.288,177.179 121.5,173C 121.441,171.564 121.108,170.231 120.5,169C 108.159,164.282 95.4925,163.282 82.5,166C 60.5128,176.81 52.0128,194.31 57,218.5C 62.5635,238.636 73.3969,255.303 89.5,268.5C 86.8308,274.504 84.1642,280.504 81.5,286.5C 79.5655,289.371 77.8988,292.371 76.5,295.5C 64.5012,272.151 54.6679,247.818 47,222.5C 41.7706,206.362 40.7706,190.029 44,173.5C 50.0474,155.556 62.5474,147.222 81.5,148.5C 93.1611,149.361 104.828,149.528 116.5,149C 118.891,148.713 121.224,148.213 123.5,147.5C 124.573,136.838 124.573,126.171 123.5,115.5C 112.183,114.545 108.016,108.545 111,97.5C 112.451,94.6966 114.618,92.6966 117.5,91.5 Z"/></g>
<g><path style="opacity:1" fill="#b35d31" d="M 129.5,96.5 C 149.33,100.46 169.163,100.46 189,96.5C 190.07,96.528 190.903,96.8614 191.5,97.5C 191.634,99.2915 191.301,100.958 190.5,102.5C 170.224,105.916 150.224,104.916 130.5,99.5C 129.89,98.609 129.557,97.609 129.5,96.5 Z"/></g>
<g><path style="opacity:1" fill="#c2784f" d="M 130.5,99.5 C 150.224,104.916 170.224,105.916 190.5,102.5C 188.346,113.089 186.513,123.756 185,134.5C 184.323,139.205 182.49,143.372 179.5,147C 173.09,151.545 165.923,153.712 158,153.5C 151.882,153.462 146.549,151.462 142,147.5C 137.339,131.692 133.505,115.692 130.5,99.5 Z"/></g>
<g><path style="opacity:1" fill="#c7c0e0" d="M 118.5,184.5 C 108.522,176.789 97.1882,173.622 84.5,175C 76.5309,176.966 71.0309,181.799 68,189.5C 64.7939,203.534 66.1272,217.2 72,230.5C 77.1263,241.781 83.9597,251.781 92.5,260.5C 92.0198,263.443 91.0198,266.11 89.5,268.5C 73.3969,255.303 62.5635,238.636 57,218.5C 52.0128,194.31 60.5128,176.81 82.5,166C 95.4925,163.282 108.159,164.282 120.5,169C 121.108,170.231 121.441,171.564 121.5,173C 121.288,177.179 120.288,181.013 118.5,184.5 Z"/></g>
<g><path style="opacity:1" fill="#fce67a" d="M 116.5,197.5 C 134.39,205.151 153.057,207.651 172.5,205C 181.431,203.259 190.431,202.092 199.5,201.5C 209.679,247.188 229.013,288.522 257.5,325.5C 241.767,326.571 227.1,330.904 213.5,338.5C 197.705,342.186 181.705,345.686 165.5,349C 140.848,351.257 120.348,343.091 104,324.5C 94.6832,312.86 87.1832,300.193 81.5,286.5C 84.1642,280.504 86.8308,274.504 89.5,268.5C 91.0198,266.11 92.0198,263.443 92.5,260.5C 102.077,240.102 110.077,219.102 116.5,197.5 Z"/></g>
<g><path style="opacity:1" fill="#fdeda2" d="M 149.5,233.5 C 158.957,232.98 165.791,236.98 170,245.5C 176.056,254.671 176.889,264.171 172.5,274C 161.455,279.07 152.955,276.237 147,265.5C 142.316,257.766 140.65,249.433 142,240.5C 143.742,237.254 146.242,234.921 149.5,233.5 Z"/></g>
<g><path style="opacity:0.979" fill="#fde679" d="M 392.5,407.5 C 378.388,409.945 370.388,418.279 368.5,432.5C 358.509,429.088 349.676,423.754 342,416.5C 335.251,436.586 321.584,448.919 301,453.5C 299.39,450.403 298.39,447.069 298,443.5C 297.489,432.807 297.489,422.141 298,411.5C 286.357,425.9 271.19,432.566 252.5,431.5C 249.344,430.566 246.011,429.899 242.5,429.5C 245.852,409.295 255.519,392.795 271.5,380C 249.596,374.263 235.929,360.429 230.5,338.5C 233.778,337.609 237.111,336.776 240.5,336C 248.677,335.829 256.677,335.329 264.5,334.5C 269.07,335.977 273.737,336.811 278.5,337C 261.937,319.932 257.604,300.099 265.5,277.5C 285.445,283.28 300.945,294.947 312,312.5C 311.185,288.134 321.685,270.467 343.5,259.5C 352.575,275.594 356.409,292.927 355,311.5C 370.18,299.731 387.013,296.564 405.5,302C 401.655,317.84 394.322,331.84 383.5,344C 402.33,346.394 416.33,355.727 425.5,372C 419.821,377.179 413.154,380.846 405.5,383C 394.704,385.891 383.704,387.224 372.5,387C 381.382,391.715 388.049,398.548 392.5,407.5 Z"/></g>
<g><path style="opacity:1" fill="#fdeda1" d="M 194.5,274.5 C 200.204,273.436 204.371,275.436 207,280.5C 209.347,284.191 210.847,288.191 211.5,292.5C 210.383,298.732 206.717,300.898 200.5,299C 194.762,295.034 191.428,289.534 190.5,282.5C 190.782,279.269 192.115,276.602 194.5,274.5 Z"/></g>
<g><path style="opacity:1" fill="#f7c73b" d="M 81.5,286.5 C 87.1832,300.193 94.6832,312.86 104,324.5C 120.348,343.091 140.848,351.257 165.5,349C 181.705,345.686 197.705,342.186 213.5,338.5C 213.833,338.5 214.167,338.5 214.5,338.5C 222.204,355.706 234.537,368.539 251.5,377C 255.057,378.408 258.724,379.408 262.5,380C 248.447,394.942 238.113,412.109 231.5,431.5C 184.964,440.081 138.298,440.581 91.5,433C 81.7963,431.264 72.463,428.431 63.5,424.5C 43.5516,418.046 34.7183,404.38 37,383.5C 38.2499,375.5 40.5832,367.833 44,360.5C 54.3194,338.528 65.1527,316.861 76.5,295.5C 77.8988,292.371 79.5655,289.371 81.5,286.5 Z"/></g>
<g><path style="opacity:1" fill="#f9b041" d="M 362.5,377.5 C 367.015,355.029 359.015,338.529 338.5,328C 331.071,325.317 323.404,324.151 315.5,324.5C 315.74,308.353 322.906,296.353 337,288.5C 343.762,300.215 346.428,312.882 345,326.5C 354.943,317.792 366.443,314.792 379.5,317.5C 377.903,329.605 372.569,339.772 363.5,348C 377.461,348.969 387.795,355.469 394.5,367.5C 384.822,373.836 374.155,377.17 362.5,377.5 Z"/></g>
<g><path style="opacity:1" fill="#f9b041" d="M 314.5,325.5 C 304.576,327.783 296.909,333.116 291.5,341.5C 285.951,336.412 282.451,330.078 281,322.5C 280.333,317.5 280.333,312.5 281,307.5C 281.543,305.369 282.376,303.369 283.5,301.5C 296.81,305.828 307.144,313.828 314.5,325.5 Z"/></g>
<g><path style="opacity:1" fill="#c2784e" d="M 315.5,324.5 C 323.404,324.151 331.071,325.317 338.5,328C 359.015,338.529 367.015,355.029 362.5,377.5C 361.89,378.391 361.557,379.391 361.5,380.5C 356.302,390.033 348.635,396.7 338.5,400.5C 336.901,400.232 335.568,400.566 334.5,401.5C 324.613,402.638 315.279,400.971 306.5,396.5C 306.5,395.833 306.167,395.5 305.5,395.5C 287.775,381.944 282.775,364.611 290.5,343.5C 291.338,343.158 291.672,342.492 291.5,341.5C 296.909,333.116 304.576,327.783 314.5,325.5C 315.167,325.5 315.5,325.167 315.5,324.5 Z"/></g>
<g><path style="opacity:1" fill="#f9b344" d="M 257.5,325.5 C 260.185,328.19 262.518,331.19 264.5,334.5C 256.677,335.329 248.677,335.829 240.5,336C 237.111,336.776 233.778,337.609 230.5,338.5C 225.319,337.364 219.985,337.364 214.5,338.5C 214.167,338.5 213.833,338.5 213.5,338.5C 227.1,330.904 241.767,326.571 257.5,325.5 Z"/></g>
<g><path style="opacity:1" fill="#b1582c" d="M 317.5,333.5 C 334.028,332.677 345.862,339.677 353,354.5C 358.314,377.516 349.147,390.182 325.5,392.5C 307.16,389.992 297.16,379.492 295.5,361C 296.769,346.906 304.102,337.739 317.5,333.5 Z"/></g>
<g><path style="opacity:1" fill="#efa129" d="M 230.5,338.5 C 235.929,360.429 249.596,374.263 271.5,380C 255.519,392.795 245.852,409.295 242.5,429.5C 238.888,430.422 235.221,431.089 231.5,431.5C 238.113,412.109 248.447,394.942 262.5,380C 258.724,379.408 255.057,378.408 251.5,377C 234.537,368.539 222.204,355.706 214.5,338.5C 219.985,337.364 225.319,337.364 230.5,338.5 Z"/></g>
<g><path style="opacity:1" fill="#f9b041" d="M 290.5,343.5 C 282.775,364.611 287.775,381.944 305.5,395.5C 295.38,405.953 283.047,410.12 268.5,408C 267.422,407.326 266.755,406.326 266.5,405C 269.863,392.276 276.53,381.609 286.5,373C 275.125,370.232 266.625,363.732 261,353.5C 259.475,350.28 258.808,346.947 259,343.5C 269.442,340.994 279.942,340.994 290.5,343.5 Z"/></g>
<g><path style="opacity:1" fill="#f9b042" d="M 361.5,380.5 C 371.581,389.042 376.247,400.042 375.5,413.5C 361.668,413.334 349.335,409.001 338.5,400.5C 348.635,396.7 356.302,390.033 361.5,380.5 Z"/></g>
<g><path style="opacity:1" fill="#f9b041" d="M 306.5,396.5 C 315.279,400.971 324.613,402.638 334.5,401.5C 329.903,413.258 321.403,420.591 309,423.5C 308.055,423.095 307.388,422.428 307,421.5C 305.277,413.174 305.111,404.841 306.5,396.5 Z"/></g>
<g><path style="opacity:1" fill="#f6c740" d="M 392.5,407.5 C 393.401,408.29 394.068,409.29 394.5,410.5C 386.084,412.291 378.917,416.291 373,422.5C 372.082,426.28 371.249,429.946 370.5,433.5C 369.508,433.672 368.842,433.338 368.5,432.5C 370.388,418.279 378.388,409.945 392.5,407.5 Z"/></g>
<g><path style="opacity:0.986" fill="#c2774e" d="M 410.5,430.5 C 398.828,431.841 391.494,438.174 388.5,449.5C 384.39,450.316 380.39,449.482 376.5,447C 373.435,442.969 371.435,438.469 370.5,433.5C 371.249,429.946 372.082,426.28 373,422.5C 378.917,416.291 386.084,412.291 394.5,410.5C 399.393,408.93 404.393,408.43 409.5,409C 413.129,411.083 415.129,414.25 415.5,418.5C 414.897,423.029 413.23,427.029 410.5,430.5 Z"/></g>
<g><path style="opacity:0.969" fill="#c1774e" d="M 439.5,464.5 C 439.954,461.86 441.121,459.527 443,457.5C 443.797,448.437 439.964,442.104 431.5,438.5C 432.543,435.944 434.21,433.777 436.5,432C 446.189,426.661 456.522,423.995 467.5,424C 472.953,426.404 475.119,430.571 474,436.5C 470.84,445.982 465.673,454.149 458.5,461C 452.621,464.889 446.287,466.056 439.5,464.5 Z"/></g>
<g><path style="opacity:1" fill="#9e3b16" d="M 394.5,423.5 C 399.241,423.161 400.574,425.161 398.5,429.5C 396.35,431.149 394.35,432.982 392.5,435C 387.917,435.934 386.417,434.1 388,429.5C 390.063,427.266 392.229,425.266 394.5,423.5 Z"/></g>
<g><path style="opacity:1" fill="#c6bfdf" d="M 63.5,424.5 C 72.463,428.431 81.7963,431.264 91.5,433C 138.298,440.581 184.964,440.081 231.5,431.5C 235.221,431.089 238.888,430.422 242.5,429.5C 246.011,429.899 249.344,430.566 252.5,431.5C 250.861,433.806 248.861,435.806 246.5,437.5C 197.339,450.314 148.006,450.814 98.5,439C 87.1424,436.251 76.1424,432.751 65.5,428.5C 64.3995,427.395 63.7329,426.062 63.5,424.5 Z"/></g>
<g><path style="opacity:0.958" fill="#dbd8e9" d="M 65.5,428.5 C 76.1424,432.751 87.1424,436.251 98.5,439C 148.006,450.814 197.339,450.314 246.5,437.5C 233.467,447.795 218.467,453.295 201.5,454C 175.389,457.302 149.389,457.635 123.5,455C 110.066,453.314 97.0661,449.981 84.5,445C 77.0874,440.755 70.7541,435.255 65.5,428.5 Z"/></g>
<g><path style="opacity:1" fill="#b45d30" d="M 410.5,430.5 C 410.443,431.609 410.11,432.609 409.5,433.5C 405.313,434.784 401.313,436.618 397.5,439C 394.771,442.308 392.438,445.808 390.5,449.5C 389.833,449.5 389.167,449.5 388.5,449.5C 391.494,438.174 398.828,431.841 410.5,430.5 Z"/></g>
<g><path style="opacity:0.98" fill="#c2774e" d="M 409.5,433.5 C 416.453,435.715 423.453,438.382 430.5,441.5C 440.695,446.474 442.028,453.141 434.5,461.5C 424.822,468.086 414.155,470.919 402.5,470C 392.367,466.711 388.367,459.877 390.5,449.5C 392.438,445.808 394.771,442.308 397.5,439C 401.313,436.618 405.313,434.784 409.5,433.5 Z"/></g>
<g><path style="opacity:1" fill="#9f3c17" d="M 459.5,435.5 C 463.707,435.694 465.04,437.694 463.5,441.5C 460.178,443.323 457.511,445.823 455.5,449C 451.494,449.987 449.661,448.487 450,444.5C 453.062,441.268 456.229,438.268 459.5,435.5 Z"/></g>
<g><path style="opacity:1" fill="#b55d31" d="M 431.5,438.5 C 439.964,442.104 443.797,448.437 443,457.5C 441.121,459.527 439.954,461.86 439.5,464.5C 437.999,463.248 436.332,462.248 434.5,461.5C 442.028,453.141 440.695,446.474 430.5,441.5C 430.263,440.209 430.596,439.209 431.5,438.5 Z"/></g>
<g><path style="opacity:1" fill="#9e3b15" d="M 405.5,447.5 C 409.846,447.334 414.179,447.501 418.5,448C 421.167,450 421.167,452 418.5,454C 412.814,454.614 407.148,454.947 401.5,455C 399.963,451.024 401.297,448.524 405.5,447.5 Z"/></g>
</svg>
