<?xml version="1.0" encoding="UTF-8"?>
<svg version="1.1" xmlns="http://www.w3.org/2000/svg" width="512" height="512">
<path d="M0 0 C3.06482118 1.58184319 5.46237703 3.68121791 8 6 C8.79535156 6.70382813 9.59070313 7.40765625 10.41015625 8.1328125 C23.26938331 20.1771581 30.41508462 35.15136787 35 52 C35.268125 50.93523438 35.53625 49.87046875 35.8125 48.7734375 C41.05079622 28.98712036 51.62386581 11.58408946 69 0 C74.22427635 -1.09541278 76.588922 -0.90196247 81.12890625 2 C95.86597767 13.47605576 107.45866012 30.45012442 111 49 C111.03989467 50.66618912 111.04968551 52.33407409 111 54 C111.66 54 112.32 54 113 54 C113.061875 52.783125 113.12375 51.56625 113.1875 50.3125 C115.27331388 31.8588411 127.53692384 15.16701886 141.125 3.1875 C144.89194798 0.41122968 147.89413627 -1.31414023 152.6484375 -0.84375 C165.76472989 3.862428 175.75906477 19.33332665 182 31 C185.07289054 37.85371283 187.25165802 44.71524174 189 52 C189.36351562 50.82824219 189.72703125 49.65648437 190.1015625 48.44921875 C195.97550927 29.91913794 205.07107828 12.53691938 221.6015625 1.21875 C225.14770338 -0.58319781 228.18928181 -0.94582574 232 0 C235.36982112 1.94412757 238.14032912 4.37695681 241 7 C241.6703125 7.57878906 242.340625 8.15757813 243.03125 8.75390625 C257.40279455 21.95633706 266.25637901 42.37938562 267.36042023 61.72509956 C267.535391 66.88281248 267.49637207 72.03784953 267.45410156 77.19750977 C267.45297023 79.16058326 267.45361251 81.12365844 267.45587158 83.08673096 C267.4570085 88.3605019 267.43366668 93.633901 267.40557575 98.90758634 C267.38038973 104.43950541 267.37820664 109.97143515 267.37347412 115.50340271 C267.36109452 125.95416977 267.32834145 136.40476733 267.28807616 146.85546011 C267.24320146 158.76370535 267.2213321 170.67195914 267.20129442 182.58026803 C267.15960386 207.0536056 267.08935036 231.52679326 267 256 C268.11528076 256.14332764 269.23056152 256.28665527 270.37963867 256.43432617 C275.26822704 257.1981578 276.55939873 258.55939873 280 262 C282.91411081 266.66456646 282.62549836 271.67940281 282 277 C279.80289019 281.47559406 277.01700369 284.09883067 273 287 C273.72316406 287.58007812 273.72316406 287.58007812 274.4609375 288.171875 C275.09257812 288.69265625 275.72421875 289.2134375 276.375 289.75 C277.00148438 290.26046875 277.62796875 290.7709375 278.2734375 291.296875 C281.67829152 294.65550928 282.30908093 297.66837856 282.375 302.375 C282.26813398 307.3910239 281.50223743 310.22127014 278 314 C274.10710957 317.14744333 271.93843028 318.21725751 267 318 C267.00368717 318.96944644 267.00737434 319.93889288 267.01117325 320.93771648 C267.09992854 344.51462732 267.1656826 368.09151652 267.20724869 391.66855907 C267.22788346 403.07019675 267.25602163 414.47172413 267.30175781 425.87329102 C267.34159746 435.80963775 267.36742615 445.74590462 267.37635398 455.682329 C267.38157357 460.94475998 267.39386067 466.20696247 267.42292023 471.4693203 C267.45004386 476.42116169 267.45845114 481.37268016 267.45243073 486.32458878 C267.45353233 488.14308361 267.46150435 489.9615891 267.4768219 491.78001976 C267.49670236 494.26159663 267.49194678 496.74195182 267.48101807 499.22355652 C267.49266943 499.94438154 267.5043208 500.66520656 267.51632524 501.40787476 C267.47817782 504.60902317 266.99590866 507.00938009 265.71488571 509.94634533 C261.24602132 513.32678385 256.53070492 512.68728893 251.08081055 512.63491821 C249.8469823 512.64271817 248.61315405 512.65051812 247.34193707 512.65855443 C243.91493875 512.67507152 240.48930666 512.66909663 237.0623908 512.65362334 C233.36768692 512.64232922 229.67310406 512.65976283 225.97842407 512.67352295 C218.73979076 512.69578079 211.50141635 512.69094295 204.2627728 512.67645974 C198.3809199 512.66517746 192.49913966 512.66363221 186.61727905 512.66907883 C185.78081681 512.66984499 184.94435457 512.67061116 184.08254498 512.67140054 C182.38340002 512.67299913 180.68425508 512.6746202 178.98511016 512.6762635 C163.04429 512.69052845 147.10361349 512.67411661 131.16281688 512.64726166 C117.47858981 512.62492218 103.7945748 512.6288021 90.11035156 512.65185547 C74.22740721 512.67860034 58.34458883 512.68915508 42.4616251 512.67379415 C40.76865707 512.67220137 39.07568902 512.67062952 37.38272095 512.66907883 C36.54970245 512.66830745 35.71668394 512.66753607 34.85842246 512.66674132 C28.98219356 512.66242037 23.10604443 512.66971936 17.22982788 512.68147659 C10.07067529 512.69548559 2.91179687 512.69173562 -4.24732423 512.66507287 C-7.90158192 512.65191281 -11.55538216 512.64681886 -15.20963669 512.66331863 C-19.16695453 512.68091684 -23.12351984 512.65993521 -27.08081055 512.63491821 C-28.24149709 512.64607182 -29.40218363 512.65722543 -30.59804249 512.66871703 C-38.24054338 512.57448519 -38.24054338 512.57448519 -41.71488571 509.94634533 C-43.30679515 506.2966194 -43.54425083 503.1355232 -43.48101807 499.22355652 C-43.48443577 498.447493 -43.48785347 497.67142948 -43.49137473 496.87184888 C-43.49795591 494.27510967 -43.47597439 491.67940742 -43.45410156 489.08276367 C-43.45297313 487.21998112 -43.45360686 485.3571968 -43.45587158 483.49441528 C-43.45701983 478.43893169 -43.43349243 473.38382727 -43.40557575 468.32843184 C-43.38058068 463.04468311 -43.37822159 457.76092581 -43.37347412 452.47712708 C-43.3610388 442.47219894 -43.32820957 432.46744551 -43.28807616 422.46259433 C-43.24337585 411.07215143 -43.22137578 399.68170022 -43.20129442 388.29119146 C-43.1594775 364.86069742 -43.08911453 341.4303585 -43 318 C-44.11528076 317.85667236 -45.23056152 317.71334473 -46.37963867 317.56567383 C-51.26822704 316.8018422 -52.55939873 315.44060127 -56 312 C-58.91411081 307.33543354 -58.62549836 302.32059719 -58 297 C-55.80289019 292.52440594 -53.01700369 289.90116933 -49 287 C-49.48210937 286.61328125 -49.96421875 286.2265625 -50.4609375 285.828125 C-51.09257813 285.30734375 -51.72421875 284.7865625 -52.375 284.25 C-53.00148438 283.73953125 -53.62796875 283.2290625 -54.2734375 282.703125 C-57.67829152 279.34449072 -58.30908093 276.33162144 -58.375 271.625 C-58.26813398 266.6089761 -57.50223743 263.77872986 -54 260 C-50.10710957 256.85255667 -47.93843028 255.78274249 -43 256 C-43.00368717 254.99007775 -43.00737434 253.98015551 -43.01117325 252.93962955 C-43.10017658 228.30701265 -43.16580007 203.67441673 -43.20724869 179.04167271 C-43.22782837 167.1292046 -43.25586074 155.21684305 -43.30175781 143.30444336 C-43.34176664 132.91531563 -43.36746616 122.52626512 -43.37635398 112.13706249 C-43.38154501 106.64174422 -43.39364912 101.14664675 -43.42292023 95.65139961 C-43.45031174 90.46642443 -43.45839758 85.28175851 -43.45243073 80.09671783 C-43.45352044 78.20586141 -43.46133158 76.31499335 -43.4768219 74.42420006 C-43.59137029 59.70524462 -42.49031314 44.80910081 -35.25 31.625 C-34.90638428 30.97200928 -34.56276855 30.31901855 -34.20874023 29.64624023 C-28.19974276 18.51365211 -15.04446238 -3.6471424 0 0 Z " fill="#FFC151" transform="translate(144,0)"/>
<path d="M0 0 C102.3 0 204.6 0 310 0 C310.0825 31.081875 310.165 62.16375 310.25 94.1875 C310.28641602 104.00910889 310.32283203 113.83071777 310.36035156 123.94995117 C310.37841797 135.92443848 310.37841797 135.92443848 310.3817749 141.52656555 C310.3855082 145.44727087 310.40052437 149.36776051 310.42230225 153.28840637 C310.4496993 158.28672948 310.45797205 163.2847381 310.4522891 168.28312933 C310.45347777 170.11921307 310.4614332 171.95530758 310.47686052 173.79132688 C310.4967163 176.26913648 310.49197688 178.74571958 310.48101807 181.22355652 C310.49266872 181.94417424 310.50431938 182.66479197 310.51632309 183.40724659 C310.47818816 186.60862423 309.99600667 189.0091554 308.71488571 191.94634533 C304.24602132 195.32678385 299.53070492 194.68728893 294.08081055 194.63491821 C292.8469823 194.64271817 291.61315405 194.65051812 290.34193707 194.65855443 C286.91493875 194.67507152 283.48930666 194.66909663 280.0623908 194.65362334 C276.36768692 194.64232922 272.67310406 194.65976283 268.97842407 194.67352295 C261.73979076 194.69578079 254.50141635 194.69094295 247.2627728 194.67645974 C241.3809199 194.66517746 235.49913966 194.66363221 229.61727905 194.66907883 C228.78081681 194.66984499 227.94435457 194.67061116 227.08254498 194.67140054 C225.38340002 194.67299913 223.68425508 194.6746202 221.98511016 194.6762635 C206.04429 194.69052845 190.10361349 194.67411661 174.16281688 194.64726166 C160.47858981 194.62492218 146.7945748 194.6288021 133.11035156 194.65185547 C117.22740721 194.67860034 101.34458883 194.68915508 85.4616251 194.67379415 C83.76865707 194.67220137 82.07568902 194.67062952 80.38272095 194.66907883 C79.54970245 194.66830745 78.71668394 194.66753607 77.85842246 194.66674132 C71.98219356 194.66242037 66.10604443 194.66971936 60.22982788 194.68147659 C53.07067529 194.69548559 45.91179687 194.69173562 38.75267577 194.66507287 C35.09841808 194.65191281 31.44461784 194.64681886 27.79036331 194.66331863 C23.83304547 194.68091684 19.87648016 194.65993521 15.91918945 194.63491821 C14.75850291 194.64607182 13.59781637 194.65722543 12.40195751 194.66871703 C4.75945662 194.57448519 4.75945662 194.57448519 1.28511429 191.94634533 C-0.30678532 188.29664193 -0.54426507 185.13551675 -0.48101807 181.22355652 C-0.48444214 180.44935867 -0.48786621 179.67516083 -0.49139404 178.87750244 C-0.49800737 176.27887985 -0.47593594 173.68129179 -0.45410156 171.08276367 C-0.45287609 169.18982889 -0.45341041 167.29689228 -0.45556259 165.40395832 C-0.45646572 160.33423636 -0.43328096 155.26489196 -0.40512085 150.19525909 C-0.3823427 145.43830676 -0.38126849 140.68144631 -0.37841797 135.92443848 C-0.35742781 122.01207563 -0.30158319 108.09978305 -0.25 94.1875 C-0.12625 47.5646875 -0.12625 47.5646875 0 0 Z " fill="#FFEECE" transform="translate(101,318)"/>
<path d="M0 0 C3.36982112 1.94412757 6.14032912 4.37695681 9 7 C10.00546875 7.86818359 10.00546875 7.86818359 11.03125 8.75390625 C25.40279455 21.95633706 34.25637901 42.37938562 35.36042023 61.72509956 C35.53533939 66.88282765 35.49626477 72.03783582 35.45410156 77.19750977 C35.452873 79.19202868 35.45341567 81.18654933 35.45556259 83.18106747 C35.45645693 88.4696874 35.43345931 93.75793724 35.40512085 99.04647064 C35.38215505 104.02899705 35.38125836 109.01143841 35.37841797 113.99401855 C35.35751992 128.51689375 35.30167483 143.0397017 35.25 157.5625 C35.1675 190.046875 35.085 222.53125 35 256 C-41.56 256 -118.12 256 -197 256 C-197 219.37 -197 182.74 -197 145 C-171.59 145 -146.18 145 -120 145 C-120 137.74 -120 130.48 -120 123 C-116.95554183 98.64433463 -105.91152942 80.06487396 -87.07421875 64.59765625 C-83.11809502 62.54167835 -81.24944614 62.78518658 -77 64 C-61.69053563 73.19441441 -50.96394711 89.97863516 -45.88818359 106.75805664 C-45.53307709 107.92736221 -45.17797058 109.09666779 -44.81210327 110.30140686 C-44.54410919 111.1919426 -44.27611511 112.08247833 -44 113 C-43.99635437 112.32365005 -43.99270874 111.64730011 -43.98895264 110.95045471 C-43.94671425 103.82690668 -43.87708799 96.70397846 -43.79248047 89.58081055 C-43.76236493 86.93224937 -43.7431658 84.28426653 -43.72900391 81.63549805 C-43.52546544 45.69739024 -43.52546544 45.69739024 -35.1875 30.5 C-34.83985596 29.84040283 -34.49221191 29.18080566 -34.1340332 28.5012207 C-28.26359952 17.64446286 -14.33731009 -3.55854099 0 0 Z " fill="#FFCC54" transform="translate(376,0)"/>
<path d="M0 0 C35.97 0 71.94 0 109 0 C109.16121214 47.19485307 109.16121214 47.19485307 109.1953125 66.93945312 C109.21906675 80.58412677 109.24702398 94.22870177 109.30175781 107.87329102 C109.34159746 117.80963775 109.36742615 127.74590462 109.37635398 137.682329 C109.38157357 142.94475998 109.39386067 148.20696247 109.42292023 153.4693203 C109.45004386 158.42116169 109.45845114 163.37268016 109.45243073 168.32458878 C109.45353233 170.14308361 109.46150435 171.9615891 109.4768219 173.78001976 C109.49670236 176.26159663 109.49194678 178.74195182 109.48101807 181.22355652 C109.49266943 181.94438154 109.5043208 182.66520656 109.51632524 183.40787476 C109.4747891 186.89338813 109.04206324 188.92916559 107.24913788 191.94844818 C104.73267041 194.24384477 103.87094781 194.62123773 100.53277588 194.60127258 C99.64563023 194.60816007 98.75848457 194.61504755 97.84445572 194.62214375 C96.8751701 194.6041532 95.90588448 194.58616266 94.90722656 194.56762695 C93.86596493 194.56822963 92.82470329 194.5688323 91.75188828 194.56945324 C88.38092407 194.56572082 85.01134191 194.52764602 81.640625 194.48828125 C79.55973984 194.48092991 77.47884547 194.47582897 75.39794922 194.47302246 C67.68182515 194.44680702 59.96589901 194.37700084 52.25 194.3125 C35.0075 194.209375 17.765 194.10625 0 194 C0 129.98 0 65.96 0 0 Z " fill="#FFEECE" transform="translate(302,318)"/>
<path d="M0 0 C1.30762991 -0.00623996 2.61525982 -0.01247993 3.96251488 -0.01890898 C7.58601878 -0.03559779 11.20910096 -0.02735826 14.83260632 -0.0149641 C18.74270158 -0.005914 22.65272432 -0.01988313 26.56280518 -0.03088379 C34.22023978 -0.04867406 41.8775176 -0.04482679 49.53495836 -0.03323323 C55.75808022 -0.02420117 61.98115813 -0.02297392 68.20428467 -0.02732849 C69.08985499 -0.02794142 69.97542531 -0.02855436 70.88783109 -0.02918586 C72.68682751 -0.03046476 74.48582392 -0.03176161 76.28482032 -0.03307623 C93.15562927 -0.04448351 110.02635129 -0.031366 126.89714599 -0.00987476 C141.37434529 0.00799636 155.8514163 0.00489229 170.32861328 -0.0135498 C187.13888219 -0.0349539 203.94907491 -0.04338486 220.75935555 -0.03110075 C222.5517489 -0.02982655 224.34414227 -0.02856907 226.13653564 -0.02732849 C227.45938727 -0.02640284 227.45938727 -0.02640284 228.80896318 -0.02545848 C235.02490274 -0.0220042 241.24079399 -0.02783562 247.45672607 -0.0372467 C255.03148374 -0.04846295 262.6060756 -0.04543458 270.18081427 -0.02412373 C274.04590068 -0.01360819 277.91071059 -0.00949986 281.77579498 -0.02272034 C285.96437769 -0.0368307 290.15226172 -0.01998765 294.34082031 0 C296.17612084 -0.01338433 296.17612084 -0.01338433 298.04849815 -0.02703905 C304.38633544 0.0318335 308.39143926 0.17329616 313.17041016 4.50793457 C316.59958088 8.2078293 317.47010764 11.08716947 317.67041016 16.00793457 C317.47689709 20.92583559 316.54046927 23.77354474 313.17041016 27.50793457 C310.42041016 29.88293457 310.42041016 29.88293457 308.17041016 31.50793457 C308.89357422 32.0880127 308.89357422 32.0880127 309.63134766 32.67980957 C310.57880859 33.46098145 310.57880859 33.46098145 311.54541016 34.25793457 C312.17189453 34.76840332 312.79837891 35.27887207 313.44384766 35.80480957 C316.84870168 39.16344385 317.47949109 42.17631313 317.54541016 46.88293457 C317.43854413 51.89895847 316.67264759 54.72920471 313.17041016 58.50793457 C307.49855016 63.65244428 301.72098645 63.06969062 294.34082031 63.01586914 C293.0331904 63.0221091 291.72556049 63.02834907 290.37830544 63.03477812 C286.75480153 63.05146693 283.13171936 63.0432274 279.508214 63.03083324 C275.59811873 63.02178314 271.688096 63.03575227 267.77801514 63.04675293 C260.12058053 63.0645432 252.46330271 63.06069593 244.80586195 63.04910237 C238.58274009 63.04007031 232.35966218 63.03884306 226.13653564 63.04319763 C225.25096532 63.04381056 224.365395 63.0444235 223.45298922 63.045055 C221.6539928 63.0463339 219.85499639 63.04763075 218.05599999 63.04894537 C201.18519104 63.06035265 184.31446902 63.04723514 167.44367433 63.0257439 C152.96647503 63.00787278 138.48940402 63.01097685 124.01220703 63.02941895 C107.20193812 63.05082304 90.3917454 63.059254 73.58146477 63.04696989 C71.78907141 63.04569569 69.99667805 63.04443821 68.20428467 63.04319763 C66.88143304 63.04227198 66.88143304 63.04227198 65.53185713 63.04132763 C59.31591757 63.03787334 53.10002632 63.04370476 46.88409424 63.05311584 C39.30933657 63.06433209 31.73474471 63.06130372 24.16000605 63.03999287 C20.29491964 63.02947733 16.43010972 63.025369 12.56502533 63.03858948 C8.37644262 63.05269984 4.18855859 63.03585679 0 63.01586914 C-1.83530053 63.02925347 -1.83530053 63.02925347 -3.70767784 63.04290819 C-10.04551513 62.98403564 -14.05061895 62.84257298 -18.82958984 58.50793457 C-22.25876057 54.80803984 -23.12928733 51.92869967 -23.32958984 47.00793457 C-23.13607678 42.09003355 -22.19964896 39.2423244 -18.82958984 35.50793457 C-16.07958984 33.13293457 -16.07958984 33.13293457 -13.82958984 31.50793457 C-14.31169922 31.12121582 -14.79380859 30.73449707 -15.29052734 30.33605957 C-15.92216797 29.81527832 -16.55380859 29.29449707 -17.20458984 28.75793457 C-17.83107422 28.24746582 -18.45755859 27.73699707 -19.10302734 27.21105957 C-22.50788136 23.85242529 -23.13867078 20.83955601 -23.20458984 16.13293457 C-23.09772382 11.11691067 -22.33182728 8.28666443 -18.82958984 4.50793457 C-13.15772985 -0.63657514 -7.38016614 -0.05382147 0 0 Z " fill="#FE7D41" transform="translate(108.82958984375,255.4920654296875)"/>
<path d="M0 0 C40.59 0 81.18 0 123 0 C123 36.63 123 73.26 123 111 C82.41 111 41.82 111 0 111 C0 74.37 0 37.74 0 0 Z " fill="#FFEECE" transform="translate(179,145)"/>
<path d="M0 0 C9.22821844 1.14112379 16.18085069 9.70560744 21.75 16.625 C29.65056699 26.81286596 37.39284181 40.8282451 37 54 C37.66 54 38.32 54 39 54 C39.061875 52.783125 39.12375 51.56625 39.1875 50.3125 C41.27331388 31.8588411 53.53692384 15.16701886 67.125 3.1875 C70.89194798 0.41122968 73.89413627 -1.31414023 78.6484375 -0.84375 C91.76472989 3.862428 101.75906477 19.33332665 108 31 C109.91143365 35.26322289 111.58370691 39.54800894 113 44 C113.34675781 45.06694092 113.69351563 46.13388184 114.05078125 47.2331543 C115.67020463 53.8338616 115.24523401 60.68695196 115.1953125 67.4375 C115.19157647 68.92822072 115.18873229 70.41894391 115.18673706 71.90966797 C115.17914703 75.80917288 115.15953904 79.70852581 115.1373291 83.60797119 C115.11677022 87.59669947 115.10771399 91.58545261 115.09765625 95.57421875 C115.07628817 103.38288134 115.04220906 111.19141927 115 119 C114.67 119 114.34 119 114 119 C113.70609375 117.5459375 113.70609375 117.5459375 113.40625 116.0625 C109.09178056 96.1713427 99.45549319 79.67922651 83.73828125 66.609375 C80.36976571 64.62959126 77.899429 64.09737507 74 64 C70.49801429 65.67486273 67.8453872 68.37975286 65 71 C63.88238281 71.98033203 63.88238281 71.98033203 62.7421875 72.98046875 C44.85750718 89.58767191 39.2956663 111.45774625 38.3125 135.0625 C38.1578125 139.9815625 38.1578125 139.9815625 38 145 C27.77 145 17.54 145 7 145 C6.98541748 142.11209717 6.97083496 139.22419434 6.95581055 136.2487793 C6.90495825 126.59368015 6.83828287 116.93873383 6.76428509 107.28378582 C6.71998742 101.44303005 6.68064808 95.60233758 6.65356445 89.76147461 C6.66461726 47.42432896 6.66461726 47.42432896 0.55078125 5.625 C0 3 0 3 0 0 Z " fill="#FFC151" transform="translate(218,0)"/>
<path d="M0 0 C15.18 0 30.36 0 46 0 C46 64.02 46 128.04 46 194 C30.82 194 15.64 194 0 194 C0 129.98 0 65.96 0 0 Z " fill="#FFEFCF" transform="translate(256,318)"/>
<path d="M0 0 C25.74 0 51.48 0 78 0 C78 36.63 78 73.26 78 111 C52.26 111 26.52 111 0 111 C0 74.37 0 37.74 0 0 Z " fill="#FFEECD" transform="translate(333,145)"/>
<path d="M0 0 C4.58978038 -0.0992963 9.17892788 -0.17166748 13.76953125 -0.21972656 C15.32921244 -0.23977222 16.88881913 -0.26701657 18.44824219 -0.30175781 C20.69745314 -0.35059126 22.9456659 -0.37303815 25.1953125 -0.390625 C26.23161301 -0.42159271 26.23161301 -0.42159271 27.28884888 -0.45318604 C32.33672179 -0.45549596 35.10075904 0.87001653 39 4 C42.42917072 7.69989473 43.29969749 10.5792349 43.5 15.5 C43.30648693 20.41790102 42.37005911 23.26561017 39 27 C36.25 29.375 36.25 29.375 34 31 C34.72316406 31.58007812 34.72316406 31.58007812 35.4609375 32.171875 C36.40839844 32.95304687 36.40839844 32.95304687 37.375 33.75 C38.00148438 34.26046875 38.62796875 34.7709375 39.2734375 35.296875 C42.67829152 38.65550928 43.30908093 41.66837856 43.375 46.375 C43.26813398 51.3910239 42.50223743 54.22127014 39 58 C34.6388614 61.4047914 31.90369842 62.49276505 26.38531494 62.39831543 C25.73950265 62.3932665 25.09369037 62.38821756 24.42830801 62.38301563 C22.25395418 62.36181403 20.08112767 62.31226214 17.90722656 62.26367188 C16.31813174 62.24367373 14.72900794 62.22587932 13.13986588 62.21007538 C9.64391493 62.17332817 6.14828548 62.12642129 2.65254211 62.07357788 C-3.19485682 61.99071485 -9.04185217 61.96269909 -14.88977051 61.94555664 C-15.9160453 61.9425214 -16.94232008 61.93948615 -17.99969411 61.93635893 C-20.12656084 61.9302489 -22.2534279 61.92425646 -24.38029528 61.91837597 C-29.99723034 61.90089719 -35.61411936 61.87400632 -41.23101807 61.84753418 C-43.58406827 61.83661736 -45.9371185 61.8257074 -48.29016876 61.81480408 C-49.47557157 61.80928213 -50.66097437 61.80376019 -51.88229847 61.79807091 C-58.06408742 61.7694516 -64.2458806 61.74177592 -70.42767334 61.71398926 C-82.0712475 61.66151451 -93.71481775 61.60822237 -105.35838675 61.5546174 C-118.64070727 61.49350915 -131.92303196 61.43334129 -145.20535707 61.37324238 C-172.47024277 61.24985563 -199.73512313 61.12532057 -227 61 C-226.07646729 60.54294678 -226.07646729 60.54294678 -225.13427734 60.07666016 C-217.06372551 56.00537972 -210.33073722 51.06905691 -207.00390625 42.40625 C-206.24874435 39.94926391 -205.59120659 37.50093146 -205 35 C-204.66781045 33.66638124 -204.3346531 32.3330027 -204 31 C-202.96024489 30.99761165 -201.92048979 30.99522329 -200.84922695 30.99276257 C-175.55239964 30.93397407 -150.25566762 30.85809522 -124.95894527 30.76428509 C-112.72565001 30.71931512 -100.49238394 30.67990316 -88.2590332 30.65356445 C-77.59673677 30.63059417 -66.93453262 30.59720689 -56.27230936 30.55129844 C-50.62648654 30.52735326 -44.98075519 30.50863292 -39.33488274 30.50238609 C-34.02023052 30.49634118 -28.70581239 30.47636248 -23.3912468 30.44572449 C-21.44139671 30.43693481 -19.49151605 30.4332236 -17.54164696 30.43499184 C-14.87697656 30.43664524 -12.21301918 30.41993961 -9.54844666 30.39872742 C-8.77897404 30.40357499 -8.00950143 30.40842257 -7.21671146 30.41341704 C-2.10815083 30.34642003 1.45631164 29.38017765 6 27 C10.20802246 22.57050268 11.27933126 19.11405156 11.234375 13 C10.90303571 10.17257143 9.61978715 8.29469846 8 6 C8 5.34 8 4.68 8 4 C7.236875 3.71125 6.47375 3.4225 5.6875 3.125 C3 2 3 2 0 0 Z " fill="#CE5D32" transform="translate(383,256)"/>
<path d="M0 0 C10.23 0 20.46 0 31 0 C31 64.02 31 128.04 31 194 C20.77 194 10.54 194 0 194 C0 129.98 0 65.96 0 0 Z " fill="#FFE187" transform="translate(302,318)"/>
<path d="M0 0 C10.23 0 20.46 0 31 0 C31 64.02 31 128.04 31 194 C20.77 194 10.54 194 0 194 C0 129.98 0 65.96 0 0 Z " fill="#FFE187" transform="translate(225,318)"/>
<path d="M0 0 C10.23 0 20.46 0 31 0 C31 64.02 31 128.04 31 194 C20.77 194 10.54 194 0 194 C0 129.98 0 65.96 0 0 Z " fill="#FFE187" transform="translate(148,318)"/>
<path d="M0 0 C10.23 0 20.46 0 31 0 C31.09255247 24.55615393 31.16395619 49.11226591 31.20724869 73.66855907 C31.22788346 85.07019675 31.25602163 96.47172413 31.30175781 107.87329102 C31.34159746 117.80963775 31.36742615 127.74590462 31.37635398 137.682329 C31.38157357 142.94475998 31.39386067 148.20696247 31.42292023 153.4693203 C31.45004386 158.42116169 31.45845114 163.37268016 31.45243073 168.32458878 C31.45353233 170.14308361 31.46150435 171.9615891 31.4768219 173.78001976 C31.49670236 176.26159663 31.49194678 178.74195182 31.48101807 181.22355652 C31.49266943 181.94438154 31.5043208 182.66520656 31.51632524 183.40787476 C31.4524286 188.76977406 30.68664704 189.3916912 27 194 C18.09 194 9.18 194 0 194 C0 129.98 0 65.96 0 0 Z " fill="#FFE187" transform="translate(380,318)"/>
<path d="M0 0 C15.51 0 31.02 0 47 0 C47 36.63 47 73.26 47 111 C31.49 111 15.98 111 0 111 C0 74.37 0 37.74 0 0 Z " fill="#FFEECE" transform="translate(101,145)"/>
<path d="M0 0 C15.18 0 30.36 0 46 0 C46 36.63 46 73.26 46 111 C30.82 111 15.64 111 0 111 C0 74.37 0 37.74 0 0 Z " fill="#FFEECE" transform="translate(256,145)"/>
<path d="M0 0 C5.324963 0.38712639 8.16187515 2.32189649 11.875 5.9375 C12.39674805 6.43475586 12.91849609 6.93201172 13.45605469 7.44433594 C27.35069337 20.9275356 38.17790968 39.12289344 39.08954048 58.94713974 C39.12252156 61.21847334 39.12371749 63.4877247 39.11352539 65.75927734 C39.11367142 66.61846771 39.11381744 67.47765808 39.1139679 68.36288452 C39.11327429 71.18726169 39.1055078 74.01157193 39.09765625 76.8359375 C39.09579011 78.80034346 39.09436713 80.7647499 39.09336853 82.72915649 C39.08955879 87.88793228 39.07974171 93.04667971 39.06866455 98.20544434 C39.05841721 103.47419857 39.0538638 108.74295741 39.04882812 114.01171875 C39.03811803 124.34116027 39.02053376 134.67057333 39 145 C28.77 145 18.54 145 8 145 C7.98541748 142.48721436 7.97083496 139.97442871 7.95581055 137.38549805 C7.90464246 128.92386969 7.83792757 120.46240985 7.76428509 112.00094891 C7.72024333 106.88907741 7.68085896 101.77727373 7.65356445 96.6652832 C7.54274979 76.52597904 7.35503055 56.44852944 5.59375 36.375 C5.50191468 35.31893586 5.50191468 35.31893586 5.40822411 34.24153709 C4.37453307 22.6701205 2.59051009 11.32197555 0 0 Z " fill="#FFB34F" transform="translate(372,0)"/>
<path d="M0 0 C10.23 0 20.46 0 31 0 C31 36.63 31 73.26 31 111 C20.77 111 10.54 111 0 111 C0 74.37 0 37.74 0 0 Z " fill="#FFE086" transform="translate(380,145)"/>
<path d="M0 0 C10.23 0 20.46 0 31 0 C31 36.63 31 73.26 31 111 C20.77 111 10.54 111 0 111 C0 74.37 0 37.74 0 0 Z " fill="#FFE086" transform="translate(225,145)"/>
<path d="M0 0 C10.23 0 20.46 0 31 0 C31 36.63 31 73.26 31 111 C20.77 111 10.54 111 0 111 C0 74.37 0 37.74 0 0 Z " fill="#FFE187" transform="translate(148,145)"/>
<path d="M0 0 C10.23 0 20.46 0 31 0 C31 36.3 31 72.6 31 110 C20.77 110 10.54 110 0 110 C0 73.7 0 37.4 0 0 Z " fill="#FFE187" transform="translate(302,146)"/>
<path d="M0 0 C11.3355387 -0.09282454 22.67098644 -0.16382831 34.00682831 -0.20724869 C39.27096516 -0.22809205 44.5348413 -0.2563504 49.79882812 -0.30175781 C54.88223318 -0.34533135 59.965388 -0.36916156 65.04896545 -0.37950897 C66.9849898 -0.38687969 68.92100099 -0.40127298 70.85691833 -0.42292023 C73.57613341 -0.45210728 76.29432448 -0.45594964 79.01367188 -0.45410156 C79.80777466 -0.46848267 80.60187744 -0.48286377 81.42004395 -0.49768066 C86.98101535 -0.45698845 91.40325102 0.77770753 96 4 C98.91917517 7.38628367 100.2236073 10.58786468 100.4375 15.0625 C99.81884876 20.63036114 98.23486586 24.11546696 94.0625 27.8125 C90.01411241 30.70420542 87.16119931 31.12574125 82.26702881 31.12025452 C81.3191449 31.12162918 80.37126099 31.12300385 79.39465332 31.12442017 C77.8453009 31.11902725 77.8453009 31.11902725 76.26464844 31.11352539 C75.17166443 31.11367142 74.07868042 31.11381744 72.95257568 31.1139679 C69.3381553 31.11327096 65.72378639 31.10548876 62.109375 31.09765625 C59.60402454 31.09579129 57.09867371 31.09436776 54.59332275 31.09336853 C48.67189789 31.08993987 42.75048956 31.08205751 36.82907319 31.07201904 C29.42511458 31.05974001 22.02115368 31.05437302 14.6171875 31.04882812 C1.41144894 31.0381016 -11.79427436 31.02122457 -25 31 C-24.38809814 30.69457275 -23.77619629 30.38914551 -23.14575195 30.07446289 C-13.3867924 25.18776577 -5.84571752 19.94928819 -2.125 9.25 C-1.23214569 6.19847262 -0.6169396 3.11750711 0 0 Z " fill="#E66B37" transform="translate(295,256)"/>
<path d="M0 0 C3.32029476 1.00235314 4.94092335 1.51781573 7.3125 4 C7.69476907 6.63997754 7.81940248 8.86246141 7.76660156 11.50073242 C7.76718567 12.26194901 7.76776978 13.02316559 7.76837158 13.80744934 C7.76558448 16.32391948 7.73446453 18.83920553 7.703125 21.35546875 C7.6956648 23.09995374 7.68997082 24.84444711 7.68597412 26.58894348 C7.67070031 31.18080781 7.63140368 35.77216617 7.5871582 40.36383057 C7.53904964 45.87285658 7.52067978 51.38205177 7.49734497 56.89122772 C7.45855343 65.2611704 7.38191255 73.63000287 7.3125 82 C-8.1975 82 -23.7075 82 -39.6875 82 C-39.6875 52.06718186 -35.97214535 30.64349409 -15.125 9.125 C-13.66352558 7.73120965 -12.18551347 6.35444256 -10.6875 5 C-10.06746094 4.43796875 -9.44742187 3.8759375 -8.80859375 3.296875 C-5.73467052 0.79372499 -3.99829669 0 0 0 Z " fill="#FFE086" transform="translate(372.6875,63)"/>
<path d="M0 0 C2.62223816 1.55047607 2.62223816 1.55047607 5 4 C5.48000095 6.74793693 5.63654806 8.87305101 5.56762695 11.61425781 C5.56835709 12.37562042 5.56908722 13.13698303 5.56983948 13.92141724 C5.56636179 16.43271661 5.52749542 18.94215058 5.48828125 21.453125 C5.47895369 23.19617703 5.47183731 24.93924218 5.46684265 26.68231201 C5.4477682 31.2660757 5.39866398 35.84904494 5.34332275 40.43249512 C5.28313802 45.93397606 5.26021611 51.43572291 5.23105621 56.93743896 C5.18259873 65.2921782 5.08678835 73.64517496 5 82 C-10.51 82 -26.02 82 -42 82 C-42 52.92641688 -38.07655079 30.69986953 -17.84765625 9.75 C-6.60752817 -1.10466415 -6.60752817 -1.10466415 0 0 Z " fill="#FFE086" transform="translate(143,63)"/>
<path d="M0 0 C1.68965149 1.08589172 1.68965149 1.08589172 3 3 C3.28042473 5.58217771 3.37931036 7.92018915 3.34057617 10.50073242 C3.34123329 11.6425573 3.34123329 11.6425573 3.34190369 12.80744934 C3.33981353 15.32371666 3.31647235 17.83931782 3.29296875 20.35546875 C3.28737359 22.09995662 3.28310311 23.84444921 3.28010559 25.58894348 C3.26865049 30.18070487 3.23917765 34.77218164 3.20599365 39.36383057 C3.16991192 44.87290312 3.15613478 50.38207083 3.13863373 55.89122772 C3.10954061 64.26101644 3.05205831 72.63018064 3 81 C-12.18 81 -27.36 81 -43 81 C-43.56532076 53.86460336 -40.43691984 31.9925325 -22 11 C-8.79788535 -2.28093324 -8.79788535 -2.28093324 0 0 Z " fill="#FFE086" transform="translate(222,64)"/>
<path d="M0 0 C0.99 0.66 1.98 1.32 3 2 C3.28654687 4.57318919 3.37852887 6.90497099 3.34057617 9.47900391 C3.34123329 10.6352401 3.34123329 10.6352401 3.34190369 11.81483459 C3.3398095 14.36899937 3.31644941 16.92251205 3.29296875 19.4765625 C3.28737502 21.24489992 3.28310387 23.01324197 3.28010559 24.78158569 C3.26863921 29.44076322 3.23915675 34.09966114 3.20599365 38.75872803 C3.16994235 44.34620383 3.15614015 49.93377302 3.13863373 55.52133179 C3.10952032 64.01441578 3.05204586 72.50688603 3 81 C-12.18 81 -27.36 81 -43 81 C-43 50.02795592 -39.23426909 28.94038833 -17.33740234 6.95654297 C-11.74844286 1.54158831 -7.93641351 -2.09641112 0 0 Z " fill="#FFE086" transform="translate(299,64)"/>
<path d="M0 0 C1.23004509 -0.00087616 1.23004509 -0.00087616 2.48493958 -0.00177002 C5.18530155 0.00100839 7.88454856 0.03208812 10.5847168 0.06347656 C12.46086524 0.07093983 14.3370215 0.07663236 16.21318054 0.08062744 C21.14366293 0.09587699 26.07367164 0.13515299 31.00396729 0.17944336 C36.03798007 0.22041069 41.07206962 0.23864158 46.10620117 0.25878906 C55.97815372 0.30164786 65.8497552 0.36989103 75.72143555 0.45410156 C75.57650469 1.89643414 75.42723092 3.33833077 75.27612305 4.7800293 C75.19346191 5.58302963 75.11080078 6.38602997 75.02563477 7.21336365 C73.93165349 15.27165299 68.89310463 20.7959135 62.9050293 25.86035156 C60.72143555 27.45410156 60.72143555 27.45410156 56.72143555 29.45410156 C129.32143555 29.78410156 201.92143555 30.11410156 276.72143555 30.45410156 C276.72143555 30.78410156 276.72143555 31.11410156 276.72143555 31.45410156 C240.64366857 31.54563618 204.56592193 31.61612965 168.48806276 31.65836288 C164.22975324 31.66336577 159.97144395 31.66854305 155.71313477 31.67382812 C154.86537403 31.67487737 154.0176133 31.67592661 153.14416285 31.67700765 C139.41327851 31.69441783 125.68246108 31.7259589 111.95161645 31.76271275 C97.86485707 31.8001051 83.77813276 31.8223338 69.69132578 31.83045554 C60.99741112 31.83594686 52.30368559 31.85329715 43.60982914 31.88576743 C37.6499394 31.90689427 31.69014758 31.91330577 25.7302231 31.90810707 C22.29044741 31.90554241 18.85100245 31.90950248 15.4112854 31.93092346 C11.68215812 31.95076496 7.95384628 31.94606098 4.22470093 31.93511963 C3.13714866 31.94677099 2.04959639 31.95842236 0.929088 31.9704268 C-5.14272245 31.92212916 -8.65728995 31.50588585 -13.27856445 27.45410156 C-16.70773518 23.75420683 -17.57826194 20.87486666 -17.77856445 15.95410156 C-17.5356546 9.78084071 -15.4700766 6.65040852 -11.15144348 2.32232666 C-7.4220147 -0.10291032 -4.30058234 -0.08058407 0 0 Z " fill="#E56D3A" transform="translate(103.278564453125,286.5458984375)"/>
<path d="M0 0 C5.66923332 22.01504309 7.6194526 44.30968065 7 67 C5.9790625 66.2265625 5.9790625 66.2265625 4.9375 65.4375 C1.07845447 63.54903091 -0.88145324 63.9132881 -5 65 C-19.57871487 73.82936253 -30.67894133 90.62711457 -35.48046875 106.859375 C-36.45656845 110.88119934 -37.27697162 114.92552244 -38 119 C-38.33 119 -38.66 119 -39 119 C-39.11692702 110.5579754 -39.20522941 102.11630078 -39.25906086 93.67366123 C-39.28492461 89.75146523 -39.3198841 85.8298315 -39.37719727 81.90795898 C-39.7654843 54.6032248 -37.52629998 32.08556894 -18 11 C-6.3104723 -0.34110661 -6.3104723 -0.34110661 0 0 Z " fill="#FFCC54" transform="translate(218,0)"/>
<path d="M0 0 C8.7495291 1.11894511 15.57859701 9.01062537 21.05859375 15.46484375 C27.75566288 24.21011108 32.66188209 33.50692393 36 44 C36.34675781 45.06694092 36.69351563 46.13388184 37.05078125 47.2331543 C38.67020463 53.8338616 38.24523401 60.68695196 38.1953125 67.4375 C38.19157647 68.92822072 38.18873229 70.41894391 38.18673706 71.90966797 C38.17914703 75.80917288 38.15953904 79.70852581 38.1373291 83.60797119 C38.11677022 87.59669947 38.10771399 91.58545261 38.09765625 95.57421875 C38.07628817 103.38288134 38.04220906 111.19141927 38 119 C37.67 119 37.34 119 37 119 C36.70609375 117.5459375 36.70609375 117.5459375 36.40625 116.0625 C33.04217289 100.55297146 26.37851365 85.40698366 15 74 C13.98643433 73.36457275 13.98643433 73.36457275 12.95239258 72.71630859 C8.84322252 69.99279425 7.22853041 68.11682251 6.22021484 63.18920898 C5.84876804 59.2361343 5.75258879 55.28317881 5.71337891 51.31433105 C5.67003896 47.0197922 5.50329623 42.7294809 5.35546875 38.4375 C5.31792984 37.18848907 5.31792984 37.18848907 5.27963257 35.91424561 C4.99497713 27.11094341 3.76905843 18.61824723 2 10 C1.78988281 8.89785156 1.57976562 7.79570312 1.36328125 6.66015625 C0.9329604 4.43530588 0.47232887 2.2163124 0 0 Z " fill="#FFB34F" transform="translate(295,0)"/>
<path d="M0 0 C16.72395122 14.33481533 28.17158329 30.71608209 30.765625 53.05078125 C31.25939396 61.37078821 31.10822247 69.66686991 31 78 C20.77 78 10.54 78 0 78 C0 52.26 0 26.52 0 0 Z " fill="#FFCB54" transform="translate(225,67)"/>
<path d="M0 0 C12.97163398 6.48581699 22.26540697 22.67230702 27 36 C29.89045793 46.3352088 31.15683859 56.23716616 31.0625 66.9375 C31.041875 70.258125 31.02125 73.57875 31 77 C20.77 77 10.54 77 0 77 C0 51.59 0 26.18 0 0 Z " fill="#FFCB54" transform="translate(148,68)"/>
<path d="M0 0 C14.77036095 8.86221657 23.74002776 25.33173077 28.375 41.5625 C31.24020835 53.42740123 31 64.73023919 31 77 C20.77 77 10.54 77 0 77 C0 51.59 0 26.18 0 0 Z " fill="#FFCB53" transform="translate(380,68)"/>
<path d="M0 0 C4.71380981 -0.1491107 9.42622683 -0.25756634 14.1418457 -0.32958984 C15.74332613 -0.35963274 17.34464379 -0.40048117 18.94555664 -0.45263672 C33.9706016 -0.92962227 33.9706016 -0.92962227 38.46484375 2.7734375 C42.86033483 7.5244629 43.44656889 12.01573513 43.3125 18.30859375 C42.71399953 23.46317907 40.22794519 26.02305897 36.29833984 29.14941406 C32.40545873 31.33357682 30.27418492 31.39867615 25.8515625 31.171875 C24.86547501 31.13009125 24.86547501 31.13009125 23.85946655 31.08746338 C21.77980037 30.99481096 19.70307428 30.87292019 17.625 30.75 C16.20712366 30.6816491 14.78915311 30.61522362 13.37109375 30.55078125 C9.91269271 30.38943565 6.45630057 30.20185557 3 30 C3.78761719 29.22140625 4.57523437 28.4428125 5.38671875 27.640625 C9.19288045 23.794638 11.1604055 21.07452512 11.4375 15.625 C11.23949097 10.67477423 10.05447789 7.91599729 7 4 C4.67951821 2.6037358 2.60145026 1.85047412 0 1 C0 0.67 0 0.34 0 0 Z " fill="#B6502E" transform="translate(383,287)"/>
</svg>
