<?xml version="1.0" encoding="UTF-8"?>
<svg version="1.1" xmlns="http://www.w3.org/2000/svg" width="512" height="512">
<path d="M0 0 C2.4697372 1.92505196 4.82239967 3.92009543 7.1484375 6.015625 C7.77105469 6.55703125 8.39367187 7.0984375 9.03515625 7.65625 C13.76547747 12.03578335 17.04618167 17.18784799 20.44921875 22.63671875 C21.00996094 23.42175781 21.57070313 24.20679688 22.1484375 25.015625 C22.8084375 25.015625 23.4684375 25.015625 24.1484375 25.015625 C25.42364278 23.07886956 26.61750321 21.0883454 27.7734375 19.078125 C37.29598626 3.17052712 51.1448462 -7.53502052 69.30078125 -12.09375 C87.90784391 -16.03605589 107.04002182 -12.92733024 123.1484375 -2.984375 C137.23416662 6.68363449 146.49868858 20.19580067 150.1484375 37.015625 C151.35894623 52.41329608 150.41350428 65.94807251 142.54296875 79.51171875 C142.19526932 80.11217514 141.84756989 80.71263153 141.48933411 81.33128357 C137.53083979 88.13590644 133.43947645 94.86037284 129.3359375 101.578125 C128.5785962 102.82085396 127.82143427 104.06369225 127.06445312 105.30664062 C125.68495553 107.57173227 124.30425719 109.83607218 122.92260742 112.09985352 C121.32080887 114.73234011 119.73054026 117.37126632 118.1484375 120.015625 C122.52280671 117.4199046 126.89698456 114.82386213 131.27099609 112.22753906 C132.75466929 111.34691968 134.23839201 110.46638373 135.72216797 109.5859375 C137.16334133 108.73075708 138.60442299 107.8754221 140.04541016 107.01992798 C141.45977974 106.18046066 142.87449192 105.34157029 144.28955078 104.50326538 C148.14573228 102.21637364 151.97699376 99.8940915 155.796875 97.546875 C168.75451755 89.7929738 185.88459305 88.47904364 200.5078125 91.8984375 C208.50032296 94.17037985 215.49397424 98.10478562 222.1484375 103.015625 C222.79167969 103.47582031 223.43492187 103.93601562 224.09765625 104.41015625 C235.74160028 113.48981598 244.32025329 129.46632564 246.1484375 144.015625 C247.54419743 165.96145751 244.3207553 184.43902084 229.5546875 201.53125 C219.46792379 211.94550604 219.46792379 211.94550604 213.1484375 213.015625 C215.95069929 215.90545747 218.80061745 218.56943436 221.8984375 221.140625 C235.4441231 233.00266606 244.95830119 249.75740046 246.37158203 267.87646484 C247.49252823 290.32701418 243.72000573 310.00709381 228.5234375 327.48828125 C217.08322171 339.66232667 204.69478343 346.3228043 188.8984375 351.328125 C187.3817982 351.81976296 185.86553524 352.31256308 184.34960938 352.80639648 C180.93171211 353.91652755 177.51083574 355.01686327 174.08789062 356.11132812 C168.55785002 357.88092229 163.03521915 359.67289904 157.51324463 361.46748352 C151.22672324 363.50976772 144.93759507 365.54397655 138.6484375 367.578125 C136.81025452 368.17374741 136.81025452 368.17374741 134.93493652 368.78140259 C131.39288303 369.92755831 127.84906498 371.06808532 124.3046875 372.20703125 C123.25585388 372.54720276 122.20702026 372.88737427 121.12640381 373.237854 C110.39135531 376.67467835 100.22968156 379.54723238 88.8984375 379.515625 C87.98964844 379.54398437 87.08085937 379.57234375 86.14453125 379.6015625 C71.42640539 379.64227654 58.02637154 372.9027759 45.0859375 366.578125 C15.48520947 351.89560515 15.48520947 351.89560515 -16.57202148 354.69189453 C-17.94442021 355.18646753 -19.31343246 355.69052195 -20.67919922 356.203125 C-22.96689581 357.05876157 -25.2686038 357.86586597 -27.57421875 358.671875 C-53.21634234 367.8404831 -77.49694112 380.49818835 -99.8515625 396.015625 C-100.9240625 396.75039063 -101.9965625 397.48515625 -103.1015625 398.2421875 C-115.82437754 407.06560402 -127.52145821 417.17000857 -139.31616211 427.17675781 C-146.26821393 433.07281562 -153.26298939 438.89603884 -160.5390625 444.390625 C-161.36792969 445.01710938 -162.19679687 445.64359375 -163.05078125 446.2890625 C-170.71873396 451.01602916 -177.38604228 451.53672409 -186.2265625 451.515625 C-187.2990625 451.54398437 -188.3715625 451.57234375 -189.4765625 451.6015625 C-197.70933486 451.62159358 -204.568403 449.94577084 -210.76513672 444.25976562 C-217.72516566 436.86487426 -218.3527411 429.48068487 -218.2890625 419.703125 C-218.30904297 418.62611328 -218.32902344 417.54910156 -218.34960938 416.43945312 C-218.34377755 406.81111047 -216.22551279 399.05391216 -209.7890625 391.703125 C-209.00402344 390.78917969 -208.21898437 389.87523437 -207.41015625 388.93359375 C-206.56582031 387.97066406 -205.72148437 387.00773437 -204.8515625 386.015625 C-203.01023707 383.85569874 -201.18192186 381.68484517 -199.3515625 379.515625 C-198.41147239 378.40754016 -197.47136836 377.29946713 -196.53125 376.19140625 C-193.40416609 372.49505547 -190.33088974 368.75659257 -187.28125 364.99609375 C-185.48866641 362.79715278 -183.6818992 360.61521193 -181.859375 358.44140625 C-156.43500958 327.92289865 -137.07053043 292.96698164 -123.77929688 255.60595703 C-123.01052238 253.45945772 -122.21308094 251.3285078 -121.3984375 249.19921875 C-119.28587963 243.2557901 -118.47426019 237.71902543 -118.3515625 231.453125 C-118.32340454 230.46227905 -118.32340454 230.46227905 -118.29467773 229.45141602 C-118.46095504 216.46436657 -125.87041663 204.12137373 -131.2890625 192.640625 C-145.98181205 161.50217439 -145.98181205 161.50217439 -146.2890625 145.578125 C-146.33482422 144.67513672 -146.38058594 143.77214844 -146.42773438 142.84179688 C-146.59543331 132.07260851 -143.05211552 122.17082824 -139.8515625 112.015625 C-139.35700058 110.43486679 -139.35700058 110.43486679 -138.85244751 108.82217407 C-136.67064799 101.86639965 -134.44656047 94.92480746 -132.20288086 87.98876953 C-131.04755356 84.41687656 -129.89735739 80.8433642 -128.74804688 77.26953125 C-126.85030822 71.37642696 -124.93994435 65.48754255 -123.02050781 59.60147095 C-122.22328409 57.15591476 -121.4279533 54.70974088 -120.63427734 52.26303101 C-119.43626756 48.57539969 -118.22912652 44.89087646 -117.01953125 41.20703125 C-116.65828659 40.09125702 -116.29704193 38.97548279 -115.92485046 37.82589722 C-109.37881175 18.01364531 -96.45699541 3.68380944 -78.1640625 -6.171875 C-53.02457859 -18.01155619 -22.91352653 -15.9453034 0 0 Z M-77.1015625 235.015625 C-83.67870462 241.81843032 -86.41886008 249.93069016 -89.3515625 258.765625 C-97.87534592 283.44589678 -108.94279601 308.47684235 -123.8515625 330.015625 C-123.5215625 330.675625 -123.1915625 331.335625 -122.8515625 332.015625 C-114.45551553 325.13815566 -106.31050111 318.01818359 -98.3515625 310.640625 C-97.47858458 309.83184843 -97.47858458 309.83184843 -96.58797073 309.00673294 C-82.86418568 296.17938631 -71.42320946 284.85482833 -70.41970825 265.13140869 C-70.377448 254.31565963 -71.69292312 243.59871886 -73.8515625 233.015625 C-75.22872739 232.90489769 -75.22872739 232.90489769 -77.1015625 235.015625 Z M-77.4765625 331.515625 C-78.01969463 332.10155804 -78.56282677 332.68749107 -79.12241745 333.29117966 C-85.92928003 340.67539369 -92.48730047 348.24610393 -98.8515625 356.015625 C-95.04978653 356.015625 -93.35320599 354.79226259 -90.05859375 352.90234375 C-88.87155632 352.22951358 -87.6842905 351.55708622 -86.49682617 350.88500977 C-85.87246674 350.52899689 -85.2481073 350.17298401 -84.60482788 349.80618286 C-65.16336055 338.75638591 -45.26946802 329.61462291 -24.234375 321.98828125 C-22.43961189 321.33207401 -20.64533183 320.67454393 -18.8515625 320.015625 C-17.94905762 319.68763916 -17.04655273 319.35965332 -16.11669922 319.02172852 C-11.2945298 317.19836521 -7.51187149 315.4438413 -3.7265625 311.828125 C-2.98148437 311.13332031 -2.23640625 310.43851562 -1.46875 309.72265625 C0.26306161 308.28653888 0.26306161 308.28653888 0.1484375 307.015625 C-34.50545588 299.94725161 -54.04675103 306.22593566 -77.4765625 331.515625 Z " fill="#699C46" transform="translate(241.8515625,36.984375)"/>
<path d="M0 0 C15.75728693 13.0503389 27.61916454 30.21101318 29.59619141 51.08544922 C30.66472308 73.02445066 25.14133639 92.25802009 10.84375 109.22265625 C8.97204736 111.13878221 7.14902006 112.80400373 5.10888672 114.51708984 C-0.83608881 119.69639917 -6.29938453 125.36374898 -11.83253098 130.97406197 C-13.87386085 133.04233005 -15.9197912 135.1059415 -17.9671936 137.16819763 C-23.78327386 143.02673338 -29.59659185 148.88792033 -35.39355469 154.76538086 C-38.95370352 158.37429163 -42.52374826 161.97315677 -46.10026932 165.56583977 C-47.45220467 166.92760905 -48.80049342 168.29300955 -50.14487839 169.66223335 C-59.04518871 178.72336577 -67.25643376 186.05571977 -79.375 190.5625 C-80.42171875 190.96082031 -81.4684375 191.35914063 -82.546875 191.76953125 C-87.66488584 193.39976059 -91.89353019 193.93533689 -97.20068359 193.06665039 C-117.29884464 190.12237431 -143.17775832 186.36268342 -160.89947891 198.63683414 C-177.96871375 211.45344898 -192.07697517 228.42828955 -205.57592773 244.83056641 C-209.54946414 249.65489474 -213.7850971 253.80411733 -218.625 257.75 C-222.32999872 261.32912727 -225.83037278 265.08134706 -229.3125 268.875 C-229.83577881 269.44484619 -230.35905762 270.01469238 -230.89819336 270.60180664 C-231.96669212 271.76592413 -233.03481078 272.93039063 -234.10253906 274.09521484 C-235.47515053 275.58712641 -236.85805464 277.06955251 -238.2421875 278.55078125 C-251.37634179 292.71300832 -262.74251568 308.48437312 -273.5 324.5 C-277.72944612 330.55248325 -283.17861706 336.08919796 -290.625 337.75 C-299.35336346 338.77955794 -306.39737334 337.94813004 -313.625 332.75 C-318.8535767 328.08637544 -322.15237776 322.75678634 -322.9765625 315.76953125 C-323.37314869 306.86721504 -321.75608577 300.31105592 -315.7109375 293.63671875 C-310.89819958 289.13024597 -305.50531117 285.58813805 -299.9921875 282.00390625 C-287.03261868 273.45585831 -275.03115505 263.47051727 -263.54663086 253.05395508 C-259.59866973 249.4924803 -255.60467159 245.99092966 -251.58524132 242.51042271 C-200.9750687 203.22284259 -200.9750687 203.22284259 -174.16854286 148.79320145 C-173.40731287 136.67905178 -175.15363859 124.4447978 -177.81958008 112.65771484 C-179.52669971 103.86638638 -176.43188195 95.5037774 -172.5 87.6875 C-171.98179687 86.62402344 -171.46359375 85.56054688 -170.9296875 84.46484375 C-164.48651167 73.3178766 -154.45331144 64.26670715 -145.421875 55.24609375 C-144.05319077 53.87351045 -142.68472585 52.50070843 -141.31646729 51.12770081 C-138.46224138 48.26606095 -135.60423549 45.40826291 -132.74365234 42.55297852 C-129.110079 38.92519516 -125.48799801 35.28617492 -121.86893845 31.64391994 C-119.04977224 28.80989842 -116.22357723 25.98296558 -113.39542389 23.15791512 C-112.05848049 21.82046448 -110.72384297 20.48070407 -109.39174652 19.13842583 C-79.20816794 -11.24752319 -38.34295053 -28.45661485 0 0 Z " fill="#78AC53" transform="translate(346.625,150.25)"/>
<path d="M0 0 C12.31414032 9.62286696 20.42445683 22.39761204 23.76171875 37.77734375 C24.97222748 53.17501483 24.02678553 66.70979126 16.15625 80.2734375 C15.63470085 81.17412209 15.63470085 81.17412209 15.10261536 82.09300232 C11.14412104 88.89762519 7.0527577 95.62209159 2.94921875 102.33984375 C2.19187745 103.58257271 1.43471552 104.825411 0.67773438 106.06835938 C-0.70176322 108.33345102 -2.08246156 110.59779093 -3.46411133 112.86157227 C-5.06590988 115.49405886 -6.65617849 118.13298507 -8.23828125 120.77734375 C-3.86391204 118.18162335 0.51026581 115.58558088 4.88427734 112.98925781 C6.36795054 112.10863843 7.85167326 111.22810248 9.33544922 110.34765625 C10.77662258 109.49247583 12.21770424 108.63714085 13.65869141 107.78164673 C15.07306099 106.94217941 16.48777317 106.10328904 17.90283203 105.26498413 C21.75901353 102.97809239 25.59027501 100.65581025 29.41015625 98.30859375 C42.3677988 90.55469255 59.4978743 89.24076239 74.12109375 92.66015625 C82.11360421 94.9320986 89.10725549 98.86650437 95.76171875 103.77734375 C96.40496094 104.23753906 97.04820312 104.69773437 97.7109375 105.171875 C109.35488153 114.25153473 117.93353454 130.22804439 119.76171875 144.77734375 C121.15813827 166.73354711 117.92502008 185.18981378 103.16796875 202.296875 C98.5862429 207.01992032 93.07720125 212.51745156 86.76171875 214.77734375 C83.06396606 214.42938935 80.23205577 213.13469628 76.94921875 211.46484375 C55.94341917 201.80442255 36.48448188 203.66229765 15.01171875 210.63671875 C14.01881836 210.95825928 13.02591797 211.2797998 12.00292969 211.61108398 C10.03836431 212.25391312 8.07785818 212.90930991 6.12207031 213.57836914 C5.22456055 213.87735107 4.32705078 214.17633301 3.40234375 214.484375 C2.60344727 214.75741455 1.80455078 215.0304541 0.98144531 215.31176758 C-1.46375755 215.82463624 -2.89569237 215.57303463 -5.23828125 214.77734375 C-4.7071875 213.80796875 -4.17609375 212.83859375 -3.62890625 211.83984375 C5.9919982 193.80746802 10.05210431 175.13320432 5.19921875 154.90234375 C1.75891243 143.75768947 -3.4273409 133.50721826 -11.23828125 124.77734375 C-12.22054687 123.65585937 -12.22054687 123.65585937 -13.22265625 122.51171875 C-24.87783797 110.00579384 -42.60640221 101.28518381 -59.83203125 100.44140625 C-77.82630536 100.10561047 -91.52013174 104.21271615 -107.23828125 112.77734375 C-108.22828125 113.27234375 -108.22828125 113.27234375 -109.23828125 113.77734375 C-106.7735477 104.43277849 -103.93017167 95.22484222 -101.0234375 86.00976562 C-100.50716797 84.35364258 -100.50716797 84.35364258 -99.98046875 82.6640625 C-99.66964355 81.67623779 -99.35881836 80.68841309 -99.03857422 79.6706543 C-94.96196422 64.93242821 -96.34761251 48.16079686 -102.37109375 34.140625 C-103.39312236 31.35536686 -103.66200431 29.72575004 -103.23828125 26.77734375 C-101.98792325 24.38082426 -100.74028042 22.25271883 -99.23828125 20.02734375 C-98.82674805 19.40899658 -98.41521484 18.79064941 -97.99121094 18.15356445 C-87.48631418 2.64893527 -73.30121897 -7.89647558 -54.74560547 -11.82788086 C-35.03936149 -14.93060691 -16.42230204 -11.27176099 0 0 Z " fill="#5F8C46" transform="translate(368.23828125,36.22265625)"/>
<path d="M0 0 C3.43931834 1.3073075 6.61300905 2.81036334 9.8125 4.625 C10.60269531 5.07101563 11.39289063 5.51703125 12.20703125 5.9765625 C12.79871094 6.31429687 13.39039063 6.65203125 14 7 C13.34327285 10.99201558 12.09654907 14.45024694 10.5625 18.1875 C6.0524735 29.77540047 4.8160501 40.71528179 7 53 C13.05383202 47.88547092 18.64308196 42.42300062 24.171875 36.75 C25.90435472 34.9903012 27.63744519 33.23120353 29.37109375 31.47265625 C32.0784875 28.72177817 34.78181714 25.96733911 37.47509766 23.20263672 C40.09192247 20.51957515 42.7240749 17.85240029 45.359375 15.1875 C46.16671082 14.3512207 46.97404663 13.51494141 47.80584717 12.65332031 C48.93787567 11.51588379 48.93787567 11.51588379 50.09277344 10.35546875 C51.08250153 9.34456177 51.08250153 9.34456177 52.09222412 8.31323242 C54 7 54 7 56.10821533 7.18359375 C58.68574149 8.29593412 60.31710912 9.84629216 62.3125 11.8125 C63.03050781 12.49957031 63.74851562 13.18664062 64.48828125 13.89453125 C66 16 66 16 65.85876465 17.84701538 C64.69923696 20.75403452 62.99744458 22.35438834 60.77148438 24.55322266 C59.87385376 25.44739899 58.97622314 26.34157532 58.0513916 27.2628479 C57.06559441 28.23000439 56.07971183 29.19707385 55.09375 30.1640625 C54.08793911 31.16173541 53.08286266 32.16014925 52.07849121 33.15927124 C49.43516486 35.78548998 46.78339645 38.40300893 44.1293335 41.01837158 C39.87898989 45.20948583 35.64129356 49.41337911 31.40412903 53.6178093 C29.92164847 55.08630924 28.43542887 56.55094093 26.9486084 58.01504517 C25.60216248 59.34685318 25.60216248 59.34685318 24.22851562 60.70556641 C23.43433228 61.48848053 22.64014893 62.27139465 21.82189941 63.07803345 C19.94100148 64.875691 19.94100148 64.875691 19 67 C36.13962195 72.66768375 52.01958073 67.84875112 68 61 C70.64 65.62 73.28 70.24 76 75 C69.34174287 78.57881321 62.94553582 81.55373187 55.75 83.8125 C55.10160156 84.0189917 54.45320313 84.2254834 53.78515625 84.43823242 C40.22699366 88.53077617 26.20880058 88.43896196 13.625 81.75 C12.64789063 81.18796875 11.67078125 80.6259375 10.6640625 80.046875 C8.12201213 78.70397882 8.12201213 78.70397882 6.04447937 79.73876953 C3.94226072 81.03561911 2.3667566 82.38586215 0.62426758 84.1328125 C-0.01286667 84.76687012 -0.65000092 85.40092773 -1.30644226 86.05419922 C-1.982621 86.73756348 -2.65879974 87.42092773 -3.35546875 88.125 C-4.05771072 88.8277002 -4.7599527 89.53040039 -5.48347473 90.25439453 C-6.96425757 91.73819448 -8.44261318 93.22442015 -9.91870117 94.71289062 C-12.1842051 96.99667851 -14.45763663 99.27233549 -16.73242188 101.546875 C-18.16974423 102.9891117 -19.60660909 104.43180452 -21.04296875 105.875 C-21.72522018 106.55836426 -22.40747162 107.24172852 -23.11039734 107.94580078 C-23.7380751 108.5798584 -24.36575287 109.21391602 -25.01245117 109.8671875 C-25.5666423 110.42519043 -26.12083344 110.98319336 -26.69181824 111.55810547 C-28.10530146 112.98578402 -28.10530146 112.98578402 -29 115 C-11.86037805 120.66768375 4.01958073 115.84875112 20 109 C22.64 113.62 25.28 118.24 28 123 C21.34174287 126.57881321 14.94553582 129.55373187 7.75 131.8125 C7.10160156 132.0189917 6.45320313 132.2254834 5.78515625 132.43823242 C-7.77300634 136.53077617 -21.79119942 136.43896196 -34.375 129.75 C-35.35210937 129.18796875 -36.32921875 128.6259375 -37.3359375 128.046875 C-39.87042215 126.71191277 -39.87042215 126.71191277 -41.93212891 127.70141602 C-44.24364805 129.15300637 -45.88473574 130.73874997 -47.75 132.73046875 C-48.4409375 133.45041016 -49.131875 134.17035156 -49.84375 134.91210938 C-51.28711156 136.43522189 -52.72458502 137.96393485 -54.15625 139.49804688 C-54.8471875 140.21412109 -55.538125 140.93019531 -56.25 141.66796875 C-56.87390625 142.33078857 -57.4978125 142.9936084 -58.140625 143.67651367 C-60 145 -60 145 -62.09838867 144.81494141 C-64.68429263 143.70674428 -66.31284393 142.15791064 -68.3125 140.1875 C-69.03050781 139.50042969 -69.74851563 138.81335938 -70.48828125 138.10546875 C-72 136 -72 136 -71.84667969 134.13891602 C-70.73046352 131.31908619 -69.12975627 129.79136978 -66.96484375 127.671875 C-66.15595703 126.87265625 -65.34707031 126.0734375 -64.51367188 125.25 C-63.2384668 124.0125 -63.2384668 124.0125 -61.9375 122.75 C-60.65649414 121.48929688 -60.65649414 121.48929688 -59.34960938 120.203125 C-57.23964588 118.12852403 -55.12300292 116.06124168 -53 114 C-53.34933594 113.13117188 -53.69867188 112.26234375 -54.05859375 111.3671875 C-54.74115234 109.63855469 -54.74115234 109.63855469 -55.4375 107.875 C-55.88996094 106.73804688 -56.34242188 105.60109375 -56.80859375 104.4296875 C-63.49463025 85.18267095 -56.3410612 65.40845076 -48 48 C-44.56068166 49.3073075 -41.38699095 50.81036334 -38.1875 52.625 C-37.39730469 53.07101563 -36.60710937 53.51703125 -35.79296875 53.9765625 C-35.20128906 54.31429687 -34.60960937 54.65203125 -34 55 C-34.65672715 58.99201558 -35.90345093 62.45024694 -37.4375 66.1875 C-41.9475265 77.77540047 -43.1839499 88.71528179 -41 101 C-32.9934906 94.39147757 -25.80714382 86.91854264 -18.5 79.5625 C-17.18773415 78.24520941 -15.87523605 76.92815014 -14.5625 75.61132812 C-11.37231494 72.4102139 -8.18529349 69.20598135 -5 66 C-5.34933594 65.13117188 -5.69867188 64.26234375 -6.05859375 63.3671875 C-6.51363281 62.21476562 -6.96867187 61.06234375 -7.4375 59.875 C-7.88996094 58.73804688 -8.34242188 57.60109375 -8.80859375 56.4296875 C-15.49469693 37.18247901 -8.34004352 17.40632677 0 0 Z " fill="#88B965" transform="translate(267,172)"/>
<path d="M0 0 C5.28 0.33 10.56 0.66 16 1 C15.46151804 12.41826525 14.43103297 23.6086398 12.84326172 34.92578125 C12.49356546 37.42091128 12.15431607 39.91731135 11.81640625 42.4140625 C11.5969455 44.0131021 11.37691585 45.61206375 11.15625 47.2109375 C11.05517944 47.95145355 10.95410889 48.6919696 10.84997559 49.45492554 C10.43041015 52.42684739 9.95169099 55.14492704 9 58 C21.59922809 56.6107315 29.0753169 51.6947115 37.28515625 42.171875 C39.02468544 40.12002375 39.02468544 40.12002375 40 38 C43.85025879 38.60355408 46.86101159 39.76772603 50.3125 41.5625 C51.63701172 42.24505859 51.63701172 42.24505859 52.98828125 42.94140625 C53.65214844 43.29074219 54.31601563 43.64007813 55 44 C50.4431977 56.56973 39.59376299 65.16657677 27.89453125 70.7734375 C22.44208583 73.08392044 18.09084798 74.246752 12.125 74.125 C10.97257812 74.10695313 9.82015625 74.08890625 8.6328125 74.0703125 C7.76398438 74.04710937 6.89515625 74.02390625 6 74 C5.81207886 75.06976074 5.81207886 75.06976074 5.62036133 76.16113281 C2.94713875 91.26696199 -0.02874736 106.17962313 -4 121 C8.70843841 117.5323011 16.62581656 114.06127516 24 103 C29.45479185 103.56820748 33.91059256 104.94637945 39 107 C37.6959188 115.46170867 32.00340072 121.75239669 25.62109375 127.14453125 C14.97974801 134.67752563 3.80531953 137.48120199 -9 137 C-9.13535156 137.56203125 -9.27070313 138.1240625 -9.41015625 138.703125 C-13.02537136 152.81761753 -18.12307189 166.67535193 -24 180 C-29.23272633 178.36041242 -34.15196636 176.61047965 -39 174 C-36.17707751 165.45415616 -33.24234022 156.94709365 -30.3125 148.4375 C-29.79618472 146.93686246 -29.27990836 145.43621153 -28.76367188 143.93554688 C-27.50956332 140.29021001 -26.25492803 136.64505484 -25 133 C-25.78391113 132.69529785 -26.56782227 132.3905957 -27.37548828 132.07666016 C-40.10091656 126.85627516 -47.83048821 114.13347641 -53 102 C-54.2917106 97.99139142 -55.18195507 94.14135247 -56 90 C-50.72 89.01 -45.44 88.02 -40 87 C-39.29875 88.93875 -38.5975 90.8775 -37.875 92.875 C-33.96068758 102.96230372 -29.65447747 110.36636498 -21 117 C-18.06783901 106.41926587 -15.4375933 95.81067707 -13.1875 85.0625 C-12.96876221 84.02673828 -12.75002441 82.99097656 -12.5246582 81.92382812 C-12.32445068 80.94994141 -12.12424316 79.97605469 -11.91796875 78.97265625 C-11.74031982 78.10906494 -11.5626709 77.24547363 -11.37963867 76.35571289 C-10.89393083 73.73951 -10.89393083 73.73951 -11 70 C-12.97206348 68.39724542 -12.97206348 68.39724542 -15.5625 67.125 C-27.20992892 60.51385373 -33.96969812 51.58493248 -38.2890625 38.79296875 C-39.45736434 34.2032115 -39.75457399 29.72445067 -40 25 C-34.72 25 -29.44 25 -24 25 C-23.46375 27.124375 -22.9275 29.24875 -22.375 31.4375 C-20.17427703 39.43355287 -17.27181653 45.78431011 -10.3840332 50.62280273 C-9.43461601 51.29230202 -9.43461601 51.29230202 -8.46601868 51.97532654 C-7.98223251 52.31346878 -7.49844635 52.65161102 -7 53 C-6.89057823 52.09251007 -6.89057823 52.09251007 -6.77894592 51.16668701 C-6.01948979 44.87230986 -5.25650083 38.57836813 -4.49145508 32.28466797 C-4.20636747 29.93549412 -3.9221821 27.58621059 -3.63891602 25.23681641 C-3.23170084 21.86071021 -2.82124712 18.48501119 -2.41015625 15.109375 C-2.22103416 13.53261993 -2.22103416 13.53261993 -2.02809143 11.92401123 C-1.90804245 10.94329651 -1.78799347 9.96258179 -1.66430664 8.95214844 C-1.5599379 8.09055115 -1.45556915 7.22895386 -1.34803772 6.34124756 C-1 4 -1 4 0 0 Z " fill="#78AC53" transform="translate(184,55)"/>
<path d="M0 0 C3.9520518 0.58172725 6.22095053 2.55157741 9.25 5.0625 C10.14203125 5.79597656 11.0340625 6.52945312 11.953125 7.28515625 C12.62859375 7.85105469 13.3040625 8.41695313 14 9 C13.48050781 9.84820312 12.96101563 10.69640625 12.42578125 11.5703125 C11.7207131 12.75482698 11.01632373 13.93974568 10.3125 15.125 C9.97283203 15.67542969 9.63316406 16.22585938 9.28320312 16.79296875 C5.55326821 23.13734403 3.3481337 30.05721546 1 37 C2.41140259 36.6146106 2.41140259 36.6146106 3.85131836 36.22143555 C7.42968566 35.24653797 11.01071823 34.28174038 14.5925293 33.31958008 C16.12612105 32.90620485 17.6590317 32.49029228 19.19116211 32.0715332 C45.08607852 25 45.08607852 25 56 25 C56.99 32.92 56.99 32.92 58 41 C56.28039062 41.35191406 54.56078125 41.70382812 52.7890625 42.06640625 C26.71379721 46.49901821 26.71379721 46.49901821 2 55 C12.95115517 63.76547763 24.93112267 69.04920176 38 74 C36.07289294 84.55808656 36.07289294 84.55808656 34 89 C27.65168394 87.82033207 21.99346452 85.99003889 16.125 83.3125 C15.34487549 82.9609082 14.56475098 82.60931641 13.76098633 82.24707031 C2.66310252 77.13292284 -7.11397386 71.23066741 -14 61 C-18.4516784 61.61458955 -22.39230414 62.7323966 -26.60546875 64.28515625 C-28.45108398 64.95708008 -28.45108398 64.95708008 -30.33398438 65.64257812 C-31.61869611 66.11532455 -32.90319936 66.58863791 -34.1875 67.0625 C-36.72072204 67.99642571 -39.25602379 68.92379768 -41.79296875 69.84765625 C-42.9121167 70.26023682 -44.03126465 70.67281738 -45.18432617 71.09790039 C-48 72 -48 72 -51 72 C-42.90466703 80.66606145 -32.16377539 85.36174971 -21.06713867 89.00952148 C-19.3488507 89.59311923 -17.66926381 90.28820071 -16 91 C-14.68774191 94.93677426 -15.6606046 96.7794262 -16.9375 100.6875 C-17.31777344 101.86699219 -17.69804687 103.04648437 -18.08984375 104.26171875 C-18.39019531 105.16535156 -18.69054687 106.06898438 -19 107 C-25.34831606 105.82033207 -31.00653548 103.99003889 -36.875 101.3125 C-37.65512451 100.9609082 -38.43524902 100.60931641 -39.23901367 100.24707031 C-49.1738752 95.66886894 -59.54329887 90.087209 -66 81 C-66 80.34 -66 79.68 -66 79 C-66.95253662 79.40839111 -67.90507324 79.81678223 -68.88647461 80.23754883 C-72.45768588 81.76753922 -76.03091414 83.29276989 -79.60473633 84.81665039 C-81.14434374 85.47390404 -82.68341846 86.13240711 -84.22192383 86.79223633 C-99.95573974 93.53821842 -99.95573974 93.53821842 -108 96 C-109.00732399 94.06629769 -110.00563288 92.12789694 -111 90.1875 C-111.8353125 88.56908203 -111.8353125 88.56908203 -112.6875 86.91796875 C-114 84 -114 84 -114 81 C-109.18230493 78.91392846 -104.36250403 76.83282588 -99.54077148 74.75610352 C-97.90412994 74.05040161 -96.26805012 73.34339536 -94.63256836 72.63500977 C-92.26826667 71.61122456 -89.90191802 70.59230172 -87.53515625 69.57421875 C-86.45646019 69.1052845 -86.45646019 69.1052845 -85.35597229 68.62687683 C-80.32039508 66.46830662 -75.2204749 64.65996007 -70 63 C-70.05994141 61.51113281 -70.05994141 61.51113281 -70.12109375 59.9921875 C-69.99389257 55.79865172 -69.24791364 52.11720658 -68.0625 48.125 C-67.74176514 47.03602417 -67.74176514 47.03602417 -67.41455078 45.92504883 C-64.32849732 36.12024621 -59.485937 26.03512577 -53 18 C-49.29496359 18.60334309 -47.14031852 20.22474237 -44.25 22.5625 C-43.45078125 23.20316406 -42.6515625 23.84382813 -41.828125 24.50390625 C-41.22484375 24.99761719 -40.6215625 25.49132812 -40 26 C-40.69032993 30.1110693 -42.80643907 33.47720925 -44.8125 37.0625 C-48.17530009 43.19435579 -50.88744453 49.31487382 -53 56 C-51.89785156 55.56429687 -50.79570312 55.12859375 -49.66015625 54.6796875 C-48.9345752 54.39552979 -48.20899414 54.11137207 -47.46142578 53.81860352 C-45.84619158 53.18326053 -44.23391134 52.5403617 -42.62451172 51.89038086 C-38.50470515 50.25153836 -34.47322865 48.80353648 -30.16015625 47.76171875 C-25.66735429 46.62091622 -21.97305978 45.45515892 -18 43 C-15.69034214 38.42739645 -15.05161666 34.10923852 -14.36767578 29.07958984 C-12.50905385 18.56714519 -5.75895769 8.79921963 0 0 Z " fill="#78AC53" transform="translate(391,271)"/>
<path d="M0 0 C3.57040303 0.65902299 6.17732255 2.16229158 9.25 4.0625 C10.14203125 4.61035156 11.0340625 5.15820312 11.953125 5.72265625 C12.96632813 6.35494141 12.96632813 6.35494141 14 7 C12.75773189 11.08636904 11.26743161 14.5304493 9.0234375 18.16015625 C8.43836426 19.1133374 7.85329102 20.06651855 7.25048828 21.04858398 C6.63157715 22.04317627 6.01266602 23.03776855 5.375 24.0625 C4.74706543 25.082229 4.11913086 26.10195801 3.47216797 27.15258789 C1.6531173 30.10485226 -0.17323693 33.05250431 -2 36 C-3.28225402 38.0834453 -4.56200099 40.16840719 -5.84130859 42.25366211 C-7.22338723 44.50500749 -8.61115165 46.75282612 -10 49 C2.02584561 47.31953249 14.58877298 43.83838597 24.30078125 36.1875 C24.86152344 35.795625 25.42226563 35.40375 26 35 C29.93677426 36.31225809 30.8271782 38.1961394 33.1875 41.5625 C33.90292969 42.57441406 34.61835938 43.58632812 35.35546875 44.62890625 C35.89816406 45.41136719 36.44085938 46.19382813 37 47 C21.92888168 59.38174915 4.60179464 66.27252599 -15 65 C-16.67360626 64.70346842 -18.34421931 64.38376973 -20 64 C-20.27328125 64.69609375 -20.5465625 65.3921875 -20.828125 66.109375 C-21.21484375 67.06328125 -21.6015625 68.0171875 -22 69 C-22.40734375 70.01578125 -22.8146875 71.0315625 -23.234375 72.078125 C-24.88234676 75.52697312 -26.3832112 78.19935186 -29 81 C-33.73312222 82.37216102 -38.11462097 82.14721566 -43 82 C-45.33910587 82.29006769 -47.67520771 82.61154619 -50 83 C-48.83634615 80.93575235 -47.66922579 78.87359033 -46.5 76.8125 C-45.96947021 75.87204834 -45.96947021 75.87204834 -45.42822266 74.91259766 C-43.57448876 71.6536534 -41.67370959 68.45196771 -39.6171875 65.31640625 C-39.24142578 64.73721436 -38.86566406 64.15802246 -38.47851562 63.5612793 C-37.42212848 61.94701691 -36.34816837 60.34429561 -35.2734375 58.7421875 C-33.70582619 56.14871664 -33.70582619 56.14871664 -34.609375 53.86328125 C-36.00779766 51.98955201 -37.40408475 50.13018542 -38.875 48.3125 C-48.28298698 35.92149276 -48.28935003 22.90152668 -48 8 C-46.08302063 8.14166357 -44.16642277 8.28849584 -42.25 8.4375 C-41.18265625 8.51871094 -40.1153125 8.59992187 -39.015625 8.68359375 C-36.56320038 8.94090773 -34.36078709 9.31812218 -32 10 C-31.96261719 10.89460938 -31.92523438 11.78921875 -31.88671875 12.7109375 C-31.37392588 22.14230444 -30.55489671 31.06443327 -25 39 C-21.57709275 35.88904667 -19.29947779 32.46080026 -17.03125 28.4765625 C-16.66906372 27.85276703 -16.30687744 27.22897156 -15.93371582 26.58627319 C-14.78322291 24.60253756 -13.64123285 22.61407476 -12.5 20.625 C-11.35728316 18.6439687 -10.21276469 16.66400565 -9.06628418 14.68515015 C-8.35583499 13.45778616 -7.64774981 12.22904947 -6.94250488 10.99868774 C-4.7659028 7.2246109 -2.44858253 3.59985308 0 0 Z " fill="#699B46" transform="translate(336,55)"/>
<path d="M0 0 C4.21814817 3.9700218 7.61227103 8.30840284 11 13 C10.46890625 13.556875 9.9378125 14.11375 9.390625 14.6875 C1.81327091 22.87325478 -1.42600776 28.82882377 -2 40 C6.29000623 36.06689994 13.9462021 31.39589475 21.671875 26.46484375 C22.56132812 25.90410156 23.45078125 25.34335938 24.3671875 24.765625 C25.16237793 24.25805664 25.95756836 23.75048828 26.77685547 23.22753906 C28.88127168 22.06555743 30.65116949 21.4492482 33 21 C34.19982444 22.92989218 35.38452818 24.86919228 36.5625 26.8125 C37.22378906 27.89144531 37.88507813 28.97039062 38.56640625 30.08203125 C40 33 40 33 39 36 C36.90928539 37.42050343 34.86257777 38.67547299 32.6640625 39.90625 C31.7113295 40.45520935 31.7113295 40.45520935 30.73934937 41.01525879 C28.70603307 42.18545981 26.66611526 43.34346411 24.625 44.5 C22.59192265 45.65797851 20.56045778 46.81855963 18.53207397 47.98474121 C17.2695661 48.71000617 16.00421817 49.43035523 14.73574829 50.1451416 C11.796788 51.82782957 9.22889581 53.4258105 7 56 C13.50638035 61.71772819 19.01083317 63.48817704 27.4375 63.1875 C28.16904297 63.17396484 28.90058594 63.16042969 29.65429688 63.14648438 C31.43652422 63.11153874 33.21836573 63.05774805 35 63 C35.8680908 64.91040052 36.71901783 66.82860737 37.5625 68.75 C38.03816406 69.81734375 38.51382813 70.8846875 39.00390625 71.984375 C39.9946154 74.98369837 40.16161779 76.13421241 39 79 C27.41108237 82.18329108 14.45631639 80.75959186 4 75 C0.80819459 72.85491901 -2.09716321 70.51539451 -5 68 C-6.32915005 66.99444646 -7.66195109 65.99368149 -9 65 C-9.84183838 65.4940332 -10.68367676 65.98806641 -11.55102539 66.49707031 C-14.70232026 68.34626676 -17.85392329 70.19493744 -21.00561523 72.04345703 C-22.36442211 72.84051621 -23.72314762 73.63771413 -25.08178711 74.43505859 C-27.04519124 75.58728768 -29.00889657 76.739002 -30.97265625 77.890625 C-31.86997215 78.41743866 -31.86997215 78.41743866 -32.78541565 78.95489502 C-36.84073055 81.33220321 -40.91522273 83.67366119 -45 86 C-44.81824219 85.12601563 -44.81824219 85.12601563 -44.6328125 84.234375 C-44.46523438 83.41453125 -44.29765625 82.5946875 -44.125 81.75 C-43.92648437 80.83992188 -43.72796875 79.92984375 -43.5234375 78.9921875 C-42.926473 76.00437345 -42.926473 76.00437345 -42.9140625 72.9453125 C-42.7318892 69.53606923 -42.40548771 67.12570119 -41 64 C-36.66652712 60.54122547 -31.99193576 58.3648886 -27 56 C-25.39902755 55.02849001 -23.81126226 54.03412021 -22.25 53 C-19 51 -19 51 -17 51 C-17.144375 50.46632812 -17.28875 49.93265625 -17.4375 49.3828125 C-20.73438434 36.14948507 -18.49534958 25.55411942 -11.82421875 13.7578125 C-8.46130983 8.67384312 -4.30032547 4.30032547 0 0 Z " fill="#699B46" transform="translate(417,149)"/>
</svg>
