<?xml version="1.0" encoding="UTF-8"?>
<svg version="1.1" xmlns="http://www.w3.org/2000/svg" width="512" height="512">
<path d="M0 0 C1.81842407 0.00090637 1.81842407 0.00090637 3.67358398 0.00183105 C192.63464193 0.25532897 192.63464193 0.25532897 245.984375 52.1796875 C253.41432697 60.08591844 257.08712388 68.76167164 257.08467102 79.52931213 C257.08834771 80.39053285 257.0920244 81.25175357 257.0958125 82.13907188 C257.10685973 85.03616132 257.11069498 87.9332149 257.11450195 90.83032227 C257.12076592 92.90318415 257.12741266 94.9760449 257.13441467 97.04890442 C257.15183289 102.68971028 257.16237915 108.33050765 257.1706202 113.97133374 C257.1757697 117.49600131 257.18184552 121.02066625 257.18813133 124.54533195 C257.20718759 135.57432163 257.22141657 146.60330461 257.2297433 157.63230759 C257.23951167 170.36072017 257.26581904 183.08895867 257.30624419 195.81730992 C257.33641873 205.65608796 257.35121354 215.49481615 257.35452431 225.33363956 C257.35687367 231.20929142 257.36581921 237.08475738 257.39098549 242.96035957 C257.41429379 248.49172932 257.41848818 254.02279116 257.40822411 259.55419731 C257.40772928 261.58021952 257.41403405 263.60625703 257.42778015 265.63223267 C257.53301365 282.06687716 255.28689003 292.06942208 243.89453125 304.3984375 C199.91566984 347.54465265 112.03122046 350.02190726 53.9375 353.1875 C53.20018646 353.22986786 52.46287292 353.27223572 51.70321655 353.31588745 C35.09598949 354.25401073 18.50567877 354.38967562 1.875 354.375 C1.19496666 354.37473312 0.51493332 354.37446625 -0.18570709 354.37419128 C-22.52890013 354.36321316 -44.78777084 354.05404291 -67.0625 352.1875 C-68.2434726 352.08921906 -68.2434726 352.08921906 -69.44830322 351.98895264 C-208.30483719 340.29501299 -208.30483719 340.29501299 -245.9375 300.25 C-252.30732026 292.62459017 -255.21190772 284.6644215 -255.20967102 274.84568787 C-255.21334771 273.98446715 -255.2170244 273.12324643 -255.2208125 272.23592812 C-255.23185973 269.33883868 -255.23569498 266.4417851 -255.23950195 263.54467773 C-255.24576592 261.47181585 -255.25241266 259.3989551 -255.25941467 257.32609558 C-255.27683289 251.68528972 -255.28737915 246.04449235 -255.2956202 240.40366626 C-255.3007697 236.87899869 -255.30684552 233.35433375 -255.31313133 229.82966805 C-255.33218759 218.80067837 -255.34641657 207.77169539 -255.3547433 196.74269241 C-255.36451167 184.01427983 -255.39081904 171.28604133 -255.43124419 158.55769008 C-255.46141873 148.71891204 -255.47621354 138.88018385 -255.47952431 129.04136044 C-255.48187367 123.16570858 -255.49081921 117.29024262 -255.51598549 111.41464043 C-255.53929379 105.88327068 -255.54348818 100.35220884 -255.53322411 94.82080269 C-255.53272928 92.79478048 -255.53903405 90.76874297 -255.55278015 88.74276733 C-255.65801365 72.30812284 -253.41189003 62.30557792 -242.01953125 49.9765625 C-188.19109745 -2.83274432 -70.12110161 -0.06544313 0 0 Z " fill="#DCDFE1" transform="translate(255.0625,78.8125)"/>
<path d="M0 0 C8.58 2.64 17.16 5.28 26 8 C32.99272447 9.7784964 39.94900172 11.50034226 47 13 C47.81645996 13.1748291 48.63291992 13.3496582 49.47412109 13.52978516 C70.11877624 17.87538528 91.08700531 20.49056416 112.0625 22.625 C113.6875647 22.79140991 113.6875647 22.79140991 115.34545898 22.96118164 C118.44342111 23.26195249 121.5425182 23.53769027 124.64413452 23.79788208 C126.32310229 23.94192658 128.00146007 24.09315722 129.67935181 24.24923706 C150.85075426 26.19453429 171.95763037 26.34297392 193.20239258 26.31567383 C197.08239433 26.31107371 200.9620802 26.31786483 204.84204102 26.33618164 C266.88557213 26.62625378 335.42508007 24.39245067 394.33984375 2.8828125 C397 2 397 2 400 2 C400 66.35 400 130.7 400 197 C360.2267004 212.90931984 315.39122156 217.40378491 272.9375 220.75 C272.18877625 220.80916595 271.44005249 220.86833191 270.66864014 220.92929077 C265.44852996 221.33400925 260.22632873 221.68598129 255 222 C254.19605804 222.0483902 253.39211609 222.0967804 252.56381226 222.14663696 C236.02731925 223.10277352 219.49788128 223.20211359 202.9375 223.1875 C202.25746666 223.18723312 201.57743332 223.18696625 200.87679291 223.18669128 C178.53359987 223.17571316 156.27472916 222.86654291 134 221 C133.21268494 220.93447937 132.42536987 220.86895874 131.61419678 220.80145264 C87.1585163 217.05757376 42.00952016 211.75357006 0 196 C0 131.32 0 66.64 0 0 Z " fill="#E85353" transform="translate(54,210)"/>
<path d="M0 0 C-0.31481323 1.35847046 -0.31481323 1.35847046 -0.63598633 2.74438477 C-1.1591565 5.00488778 -1.68000382 7.26592898 -2.19921875 9.52734375 C-2.67342733 11.58378973 -3.15303191 13.63902416 -3.64453125 15.69140625 C-5.17365542 21.32240373 -5.17365542 21.32240373 -5 27 C-2.19265468 30.45260415 -0.42078694 31.78441156 4.02322388 32.45874023 C7.89692328 32.62972651 11.75340035 32.64260873 15.62890625 32.59375 C17.06566772 32.59203716 18.50243232 32.59210634 19.93919373 32.59387207 C22.94276031 32.59222274 25.94557697 32.57359607 28.94897461 32.54199219 C32.79137846 32.502279 36.63280306 32.4979533 40.47537327 32.50545502 C43.43947764 32.50852973 46.40336343 32.49638715 49.36741447 32.47932434 C50.78393113 32.47231344 52.20047255 32.46916748 53.6170063 32.47001648 C55.59833742 32.46821144 57.57961177 32.44451936 59.56079102 32.41992188 C61.24906761 32.40729309 61.24906761 32.40729309 62.97145081 32.39440918 C67.33122662 31.82663382 69.9319456 30.0680544 73 27 C73.46567817 19.62676231 70.82977805 12.14084079 68.83984375 5.125 C68 2 68 2 68 0 C78.79757834 -0.16838905 89.43030747 0.28856153 100.1875 1.1875 C100.97935699 1.25279907 101.77121399 1.31809814 102.58706665 1.38537598 C215.1115313 10.80122781 215.1115313 10.80122781 250 40 C251.8046875 42.23046875 251.8046875 42.23046875 253 44 C248.07845506 55.1809856 231.17677745 60.45975923 220.47094727 64.69775391 C177.33505013 81.03340532 128.83467669 86.53854348 83 89 C82.29228455 89.04130035 81.58456909 89.08260071 80.85540771 89.12515259 C65.5691923 90.0116535 50.30970229 90.20152213 35 90.1875 C33.77389008 90.18689575 32.54778015 90.1862915 31.28451538 90.18566895 C-22.44073379 90.1141626 -76.96790935 86.1921769 -129 72 C-129.97710937 71.73606445 -130.95421875 71.47212891 -131.9609375 71.20019531 C-176.78131452 58.89223745 -176.78131452 58.89223745 -184.2734375 45.76953125 C-184.51320312 45.18558594 -184.75296875 44.60164063 -185 44 C-182.05046011 39.87209001 -178.82612275 37.23376844 -174.5 34.6875 C-173.84765381 34.30287598 -173.19530762 33.91825195 -172.52319336 33.52197266 C-131.59525325 10.21518681 -78.38534943 4.99712311 -32.1875 1.1875 C-31.0472084 1.09221008 -31.0472084 1.09221008 -29.88388062 0.99499512 C-19.89964739 0.1774246 -10.01872841 -0.15624282 0 0 Z " fill="#EAEBEC" transform="translate(222,111)"/>
<path d="M0 0 C1.890625 1.7265625 1.890625 1.7265625 3.890625 4.7265625 C3.77484216 8.10080518 3.0804332 9.5039525 0.87890625 12.0859375 C-11.18827627 22.86712831 -24.28976582 30.31193208 -39.109375 36.7265625 C-40.04007813 37.13777344 -40.97078125 37.54898438 -41.9296875 37.97265625 C-70.44861323 49.46068746 -104.69761425 47.54936725 -132.88476562 36.20751953 C-136.03691689 34.84111964 -139.06235032 33.31733808 -142.109375 31.7265625 C-142.72200195 31.40929199 -143.33462891 31.09202148 -143.96582031 30.76513672 C-151.28803524 26.92814315 -157.8686055 22.65381005 -164.0234375 17.09765625 C-165.9649283 15.54058934 -165.9649283 15.54058934 -168.05859375 15.76171875 C-170.81639993 17.0592009 -172.93056747 18.80414623 -175.296875 20.7265625 C-180.23995974 24.58611301 -185.39553672 27.76664825 -190.921875 30.7265625 C-191.62658936 31.11199219 -192.33130371 31.49742187 -193.05737305 31.89453125 C-197.39033843 34.15778435 -201.14216799 35.45789596 -206.109375 35.7265625 C-208.25797573 34.22254199 -208.94489992 33.05551265 -210.109375 30.7265625 C-210.21442755 29.17531388 -210.25807669 27.61969341 -210.27050781 26.06494141 C-210.28011536 25.09698639 -210.2897229 24.12903137 -210.29962158 23.13174438 C-210.30387146 22.08279999 -210.30812134 21.03385559 -210.3125 19.953125 C-210.31820007 18.87783539 -210.32390015 17.80254578 -210.32977295 16.69467163 C-210.33923103 14.41657498 -210.34576013 12.1384646 -210.34960938 9.86035156 C-210.35931588 6.37280443 -210.39033258 2.88584624 -210.421875 -0.6015625 C-210.42840479 -2.81249649 -210.43365535 -5.02343471 -210.4375 -7.234375 C-210.4498468 -8.27927094 -210.4621936 -9.32416687 -210.47491455 -10.40072632 C-210.47191345 -11.37498566 -210.46891235 -12.349245 -210.46582031 -13.35302734 C-210.46946594 -14.20859222 -210.47311157 -15.0641571 -210.47686768 -15.94564819 C-210.0247025 -18.80977404 -209.09127778 -20.18260283 -207.109375 -22.2734375 C-201.11468386 -23.5842033 -196.09128375 -20.10052845 -190.984375 -17.3359375 C-189.59182495 -16.59573364 -189.59182495 -16.59573364 -188.17114258 -15.84057617 C-180.94765865 -11.91864449 -174.40738166 -7.55437476 -168.109375 -2.2734375 C-164.79693753 -4.21299524 -161.65479763 -6.2726915 -158.546875 -8.5234375 C-109.06571613 -43.18944113 -46.03336421 -37.04009107 0 0 Z " fill="#EEAB52" transform="translate(357.109375,299.2734375)"/>
<path d="M0 0 C1.19527848 2.35895104 2.31230848 4.71245372 3.375 7.13671875 C4.179375 8.89435547 4.179375 8.89435547 5 10.6875 C5.515625 11.84636719 6.03125 13.00523437 6.5625 14.19921875 C8.43913063 17.74617594 10.85636562 19.37971402 14.07962036 21.70925903 C18.59770075 25.74071754 19.76335243 28.43812707 20.21359253 34.46212769 C20.28380448 37.46284031 20.22932276 40.45227601 20.16357422 43.45263672 C20.16406821 45.11097907 20.16902638 46.76932514 20.17808533 48.42764282 C20.18798238 51.98544304 20.16652504 55.54115052 20.12023544 59.09865952 C20.04709209 64.73151912 20.04424612 70.36311737 20.05032349 75.99636841 C20.05160672 84.91174289 20.00552909 93.82614624 19.93940556 102.74125206 C19.8221628 118.69244942 19.77596919 134.64385901 19.76131642 150.5954572 C19.7541863 156.18667848 19.72339519 161.77711604 19.67269588 167.3681066 C19.64444364 170.85613037 19.63243223 174.34408808 19.62410164 177.83221054 C19.61669872 179.44020402 19.60239484 181.04818412 19.58038521 182.65604401 C19.39929945 196.25918008 21.46242363 206.74616296 31 217 C36.08511878 222.14183014 41.43807275 226.13508437 47.73828125 229.67578125 C52.16099163 232.2652438 52.16099163 232.2652438 54 234 C54.390625 236.26171875 54.390625 236.26171875 54.25 238.6875 C54.21390625 239.49574219 54.1778125 240.30398438 54.140625 241.13671875 C54.09421875 241.75160156 54.0478125 242.36648438 54 243 C34.36571835 235.8760571 13.62648128 226.40746781 3.05078125 207.3515625 C0.54035899 201.7334428 -0.287665 196.849753 -0.24050903 190.72366333 C-0.24221788 189.90590986 -0.24392673 189.08815639 -0.24568737 188.24562252 C-0.24897338 185.51408149 -0.23799323 182.78278781 -0.22705078 180.05126953 C-0.22648648 178.08981838 -0.22680361 176.1283668 -0.22793579 174.16691589 C-0.22850955 168.84715586 -0.21675145 163.52748605 -0.20278788 158.20774698 C-0.19028439 152.64638635 -0.18911032 147.08502364 -0.18673706 141.52365112 C-0.18052118 130.99466392 -0.16410886 120.46571825 -0.14403808 109.93674934 C-0.12168248 97.94893598 -0.1106865 85.96112065 -0.10064721 73.97329164 C-0.07974276 49.31550473 -0.04456464 24.65775469 0 0 Z " fill="#C0C3C5" transform="translate(0,163)"/>
<path d="M0 0 C15.78845117 4.9921908 40.18185303 16.04552076 48.25 31.375 C47.8917118 35.13702611 46.19639261 36.49868195 43.44921875 38.9921875 C29.06608521 50.78314546 11.6131857 62.17164148 -6.875 65.75 C-10.37585121 64.90979571 -10.7527629 64.53407694 -12.6875 61.6875 C-20.29270486 47.5061774 -22.32663075 31.59468214 -18 16 C-10.68762073 -2.44647473 -10.68762073 -2.44647473 0 0 Z " fill="#F3B66D" transform="translate(313,274)"/>
<path d="M0 0 C18.37759246 1.08833561 36.78402565 0.91356979 55.18603516 0.89160156 C60.05845841 0.88586062 64.93082707 0.88922471 69.80324841 0.89517403 C73.5995779 0.89880194 77.39589461 0.89763159 81.1922245 0.89504623 C82.98896606 0.89438544 84.78570882 0.89517528 86.58244896 0.89752579 C95.72542002 0.90688235 104.71698794 0.7744223 113.81469727 -0.23876953 C116.77453413 -0.4572049 119.72311989 -0.59661143 122.68969727 -0.67626953 C123.76864258 -0.74491211 123.76864258 -0.74491211 124.86938477 -0.81494141 C127.75669265 -0.87597825 130.08626038 -0.79564788 132.43286133 0.99829102 C135.06466525 3.95236608 135.81469727 5.44955024 135.81469727 9.44873047 C134.46240369 13.92820295 134.46240369 13.92820295 131.81469727 15.76123047 C126.17062454 17.64258804 120.0513449 17.46030866 114.13891602 17.80810547 C113.02044061 17.87465961 113.02044061 17.87465961 111.87936974 17.94255829 C94.50936639 18.95042788 77.15543995 19.06886154 59.76074219 19.02197266 C55.4539916 19.01047868 51.14748569 19.01741802 46.84074306 19.02886963 C29.45169018 19.06790946 12.23277527 18.93013046 -5.07151794 16.98535156 C-9.03206363 16.56542148 -13.00322672 16.34336396 -16.97827148 16.10498047 C-19.44005617 15.72155206 -21.08261171 15.09398538 -23.18530273 13.76123047 C-25.26440463 10.64257763 -25.46689648 10.22383525 -25.06030273 6.76123047 C-24.99584961 6.08060547 -24.93139648 5.39998047 -24.86499023 4.69873047 C-21.89745644 -3.76044632 -7.18338713 -0.43751538 0 0 Z " fill="#F36D6D" transform="translate(198.185302734375,361.23876953125)"/>
<path d="M0 0 C18.33208346 1.79003822 36.57265931 1.80428554 54.96948242 1.72808838 C58.27768065 1.71721905 61.58583759 1.71762198 64.8940506 1.71822643 C68.14246739 1.71795154 71.39085876 1.71242157 74.63926697 1.70522499 C76.16031199 1.70210385 77.6813598 1.70008682 79.20240784 1.69933128 C88.58411811 1.68954541 97.9049751 1.38730624 107.26715088 0.77201843 C111.9088019 0.46929955 116.5398817 0.24643304 121.19018555 0.1574707 C121.97780273 0.12008789 122.76541992 0.08270508 123.5769043 0.04418945 C127.86396 -0.02087547 129.44055796 0.14444824 132.94799805 2.8684082 C134.94018555 5.5324707 134.94018555 5.5324707 135.56518555 8.5324707 C134.71084114 12.63332384 133.28067236 14.04487414 129.94018555 16.5324707 C124.35103153 17.63302051 118.7004562 17.82390236 113.0222168 18.06762695 C111.58640259 18.13236458 111.58640259 18.13236458 110.12158203 18.19841003 C106.99882952 18.33629409 103.87585766 18.46695455 100.75268555 18.5949707 C99.6767514 18.63916138 98.60081726 18.68335205 97.49227905 18.72888184 C69.98249471 19.83719556 42.69717332 19.82365363 15.19018555 18.6574707 C14.24164703 18.61835571 13.29310852 18.57924072 12.31582642 18.53894043 C6.18502592 18.27907531 0.06193246 17.95610513 -6.05981445 17.5324707 C-6.85444092 17.47796753 -7.64906738 17.42346436 -8.46777344 17.36730957 C-10.69509218 17.19955537 -12.91531442 16.99540255 -15.13793945 16.7746582 C-16.38478516 16.65719238 -17.63163086 16.53972656 -18.91625977 16.41870117 C-22.82353606 15.31716242 -24.01179873 13.98857699 -26.05981445 10.5324707 C-26.05981445 6.67809263 -25.74313329 4.44302146 -23.4152832 1.34106445 C-17.75123192 -3.00795005 -6.86470504 -0.67529049 0 0 Z " fill="#F36D6D" transform="translate(199.059814453125,389.467529296875)"/>
<path d="M0 0 C22.44 0 44.88 0 68 0 C74 23 74 23 74 28 C71.43879574 31.04575642 69.79480342 32.73506553 66 34 C63.93683653 34.11915404 61.87010724 34.17962839 59.80371094 34.20874023 C57.88591827 34.23767616 57.88591827 34.23767616 55.92938232 34.26719666 C54.53105687 34.28200489 53.13272013 34.29577815 51.734375 34.30859375 C51.02874672 34.31516558 50.32311844 34.3217374 49.59610748 34.32850838 C45.85982772 34.36107522 42.12357612 34.38553074 38.38720703 34.4050293 C35.3024729 34.42282725 32.21865559 34.45762388 29.13427734 34.50756836 C25.4024422 34.56791802 21.67145543 34.59852436 17.93915558 34.60820198 C16.52138642 34.6167338 15.10363855 34.63549624 13.6861496 34.6649456 C1.23263598 34.9097144 1.23263598 34.9097144 -3.40917969 31.22680664 C-5.19876192 29.47663904 -5.9075145 28.49841426 -6.36505127 26.03269958 C-5.94062078 17.61169471 -2.01272702 7.24581727 0 0 Z " fill="#A4A4A5" transform="translate(222,110)"/>
<path d="M0 0 C0.68400879 0.28198242 1.36801758 0.56396484 2.07275391 0.85449219 C18.46644036 7.75097258 18.46644036 7.75097258 35.40869141 13.06591797 C37.93038938 13.72179944 40.42765456 14.40316398 42.92797852 15.13110352 C53.69811081 18.25263917 64.47212514 20.62203934 75.5 22.625 C77.04830534 22.91337472 78.59648276 23.2024371 80.14453125 23.4921875 C90.74070962 25.46331712 101.36360064 27.26044627 112 29 C112 29.66 112 30.32 112 31 C114.31 31 116.62 31 119 31 C119 31.33 119 31.66 119 32 C106.44087311 31.48057239 94.12162613 30.12927264 81.6875 28.3125 C80.7726886 28.18028046 79.8578772 28.04806091 78.91534424 27.91183472 C52.11963132 24.01600825 25.32693692 18.83945554 0 9 C0 6.03 0 3.06 0 0 Z " fill="#CC5555" transform="translate(54,397)"/>
<path d="M0 0 C0 0.66 0 1.32 0 2 C2.31 2 4.62 2 7 2 C7 2.33 7 2.66 7 3 C4.33311371 2.85756403 1.66654233 2.71113422 -1 2.5625 C-1.74378906 2.52318359 -2.48757812 2.48386719 -3.25390625 2.44335938 C-8.20733918 2.16338273 -13.08313469 1.66489429 -18 1 C-18 0.67 -18 0.34 -18 0 C-11.76817361 -1.03863773 -6.25307239 -0.83288874 0 0 Z " fill="#CE6969" transform="translate(166,426)"/>
</svg>
