<?xml version="1.0" encoding="UTF-8"?>
<svg version="1.1" xmlns="http://www.w3.org/2000/svg" width="512" height="512">
<path d="M0 0 C1.20945282 0.00149048 2.41890564 0.00298096 3.66500854 0.0045166 C21.25920402 0.04349039 38.48131173 0.46421515 55.875 3.3125 C56.8124707 3.45703613 57.74994141 3.60157227 58.71582031 3.75048828 C65.14352864 4.75433135 71.5117055 5.96142022 77.875 7.3125 C78.844375 7.51713867 79.81375 7.72177734 80.8125 7.93261719 C126.56341734 17.79323694 172.04400098 35.89574611 204.875 70.3125 C205.68195313 71.10140625 206.48890625 71.8903125 207.3203125 72.703125 C224.68443415 90.43895568 235.42521134 113.15976445 236.125 138.1875 C235.62184223 155.57439635 231.26519272 172.55310388 221.875 187.3125 C221.35292969 188.1375 220.83085937 188.9625 220.29296875 189.8125 C216.40758102 195.63603197 211.91846291 200.74123685 207.14453125 205.8515625 C204.77035173 208.35812745 204.77035173 208.35812745 202.4375 211.4375 C199.875 214.3125 199.875 214.3125 197.26228809 215.67111492 C192.83663546 218.26017333 189.59328296 220.64061654 188.24040771 225.67306924 C187.19625796 233.28614894 187.50255831 240.99014311 187.62963867 248.65356445 C187.6327031 251.26592896 187.63083781 253.8783032 187.62442017 256.49066162 C187.61790471 262.10920225 187.650802 267.72638409 187.71016502 273.34459877 C187.79553554 281.48036175 187.81401452 289.61524197 187.8153979 297.75140335 C187.8188889 310.97020856 187.86697489 324.18843454 187.94750977 337.40698242 C187.95231353 338.19723933 187.95711729 338.98749623 187.96206663 339.80170032 C187.96688215 340.59291545 187.97169767 341.38413058 187.97665912 342.19932193 C187.9864017 343.80023963 187.99613511 345.40115738 188.00585938 347.0020752 C188.0106835 347.79553195 188.01550762 348.5889887 188.02047793 349.4064896 C188.07326313 358.21325319 188.11395228 367.02006028 188.15063477 375.8269043 C188.15557784 377.009472 188.15557784 377.009472 188.16062077 378.21592996 C188.21470915 391.38314975 188.24450087 404.55035476 188.26119024 417.71767205 C188.27296509 425.82817943 188.30886329 433.93792871 188.37651495 442.04816654 C188.42722574 448.26901121 188.44824972 454.48962751 188.45882034 460.71066284 C188.46839246 463.25514565 188.48832488 465.79961457 188.51956749 468.34392357 C188.82797327 494.25470482 188.82797327 494.25470482 180.25111675 504.194417 C172.15937799 511.94816273 163.02450125 512.89766234 152.2559967 512.8271637 C150.88591483 512.83249587 149.51583881 512.83956542 148.14577383 512.84821075 C144.39996467 512.86677633 140.65455252 512.86055437 136.90872729 512.85005772 C132.86158698 512.84304832 128.8145268 512.8590768 124.76741028 512.87205505 C116.84636062 512.89367121 108.92545475 512.8935743 101.0043853 512.88542951 C94.56493069 512.87912372 88.12551794 512.88027185 81.68606377 512.88670158 C80.76875047 512.88760324 79.85143718 512.88850489 78.90632651 512.88943387 C77.04267362 512.89128512 75.17902074 512.89314768 73.31536787 512.89502143 C55.84831337 512.91159159 38.3813397 512.90288736 20.91429006 512.88603585 C4.94276023 512.87133964 -11.02858147 512.88596757 -27.00008707 512.91480602 C-43.4104809 512.94421566 -59.82078794 512.95516772 -76.23120695 512.94562382 C-78.08822062 512.94460129 -79.9452343 512.94360668 -81.802248 512.9426403 C-82.7158706 512.94216391 -83.6294932 512.94168752 -84.57080133 512.9411967 C-90.99981456 512.93903464 -97.42874543 512.94882556 -103.8577404 512.96341133 C-111.69656856 512.98094798 -119.5351569 512.98079822 -127.37397569 512.95805968 C-131.37127495 512.94692952 -135.3681519 512.94372679 -139.36543274 512.96236038 C-143.02909731 512.97921868 -146.691973 512.9727431 -150.35558695 512.94814359 C-152.29929174 512.94098279 -154.24303992 512.95824709 -156.18667167 512.97655493 C-165.84611458 512.87407364 -174.14319401 510.29430599 -181.125 503.3125 C-187.02011645 495.29721008 -188.42099964 488.38468352 -188.31599426 478.57333374 C-188.31261431 477.49044905 -188.30923436 476.40756437 -188.30575198 475.29186499 C-188.29231426 471.66240652 -188.26475188 468.03318797 -188.23754883 464.40380859 C-188.22556503 461.80174204 -188.21464559 459.1996704 -188.20471191 456.59759521 C-188.18551723 451.71858255 -188.16284239 446.83960776 -188.1361421 441.96063037 C-188.08401333 432.36760916 -188.06033808 422.7746958 -188.04728699 413.18154907 C-188.04510502 411.66965368 -188.04291673 410.15775831 -188.04072219 408.64586294 C-188.03635454 405.58510223 -188.03212628 402.52434136 -188.02796304 399.46358037 C-188.01712625 391.59957674 -188.00457425 383.73557781 -187.98901367 375.87158203 C-187.98746325 375.08261924 -187.98591282 374.29365644 -187.98431542 373.48078568 C-187.95795419 360.70471378 -187.89153394 347.92912006 -187.81209008 335.15328197 C-187.73154966 322.02219757 -187.70077918 308.89163204 -187.71415728 295.760306 C-187.72071121 287.66868221 -187.68791299 279.5791882 -187.60388836 271.48798938 C-187.54342034 265.27905826 -187.55157727 259.0719127 -187.58478546 252.86281586 C-187.58762776 250.32315889 -187.56833018 247.78336245 -187.52486992 245.24407578 C-186.76222766 231.45153714 -186.76222766 231.45153714 -191.95499229 219.22389603 C-195.04772708 216.09445141 -198.46828026 213.7417514 -202.125 211.3125 C-218.96957174 196.07948142 -233.77522688 172.90538335 -235.30200195 149.61206055 C-235.71198772 130.12385265 -234.33319555 114.83921038 -225.125 97.3125 C-224.61195313 96.31734375 -224.09890625 95.3221875 -223.5703125 94.296875 C-219.07098758 86.07322849 -213.43687791 79.18076882 -207.125 72.3125 C-206.37839111 71.49797363 -206.37839111 71.49797363 -205.61669922 70.66699219 C-183.65114093 47.02258246 -154.17013435 31.26958309 -124.125 20.3125 C-123.31691895 20.0139209 -122.50883789 19.7153418 -121.67626953 19.40771484 C-102.10683285 12.26146284 -81.73509431 7.35667222 -61.1875 4 C-59.84413574 3.77920776 -59.84413574 3.77920776 -58.47363281 3.55395508 C-39.03640835 0.60594153 -19.63134744 -0.05995487 0 0 Z " fill="#FED499" transform="translate(257.125,-0.3125)"/>
<path d="M0 0 C1.20945282 0.00149048 2.41890564 0.00298096 3.66500854 0.0045166 C21.25920402 0.04349039 38.48131173 0.46421515 55.875 3.3125 C56.8124707 3.45703613 57.74994141 3.60157227 58.71582031 3.75048828 C65.14352864 4.75433135 71.5117055 5.96142022 77.875 7.3125 C78.844375 7.51713867 79.81375 7.72177734 80.8125 7.93261719 C126.56341734 17.79323694 172.04400098 35.89574611 204.875 70.3125 C205.68195313 71.10140625 206.48890625 71.8903125 207.3203125 72.703125 C224.68443415 90.43895568 235.42521134 113.15976445 236.125 138.1875 C235.62184223 155.57439635 231.26519272 172.55310388 221.875 187.3125 C221.35292969 188.1375 220.83085937 188.9625 220.29296875 189.8125 C216.40758102 195.63603197 211.91846291 200.74123685 207.14453125 205.8515625 C204.77035173 208.35812745 204.77035173 208.35812745 202.4375 211.4375 C199.875 214.3125 199.875 214.3125 197.26228809 215.67111492 C192.83663546 218.26017333 189.59328296 220.64061654 188.24040771 225.67306924 C187.19625796 233.28614894 187.50255831 240.99014311 187.62963867 248.65356445 C187.6327031 251.26592896 187.63083781 253.8783032 187.62442017 256.49066162 C187.61790471 262.10920225 187.650802 267.72638409 187.71016502 273.34459877 C187.79553554 281.48036175 187.81401452 289.61524197 187.8153979 297.75140335 C187.8188889 310.97020856 187.86697489 324.18843454 187.94750977 337.40698242 C187.95231353 338.19723933 187.95711729 338.98749623 187.96206663 339.80170032 C187.96688215 340.59291545 187.97169767 341.38413058 187.97665912 342.19932193 C187.9864017 343.80023963 187.99613511 345.40115738 188.00585938 347.0020752 C188.0106835 347.79553195 188.01550762 348.5889887 188.02047793 349.4064896 C188.07326313 358.21325319 188.11395228 367.02006028 188.15063477 375.8269043 C188.15557784 377.009472 188.15557784 377.009472 188.16062077 378.21592996 C188.21470915 391.38314975 188.24450087 404.55035476 188.26119024 417.71767205 C188.27296509 425.82817943 188.30886329 433.93792871 188.37651495 442.04816654 C188.42722574 448.26901121 188.44824972 454.48962751 188.45882034 460.71066284 C188.46839246 463.25514565 188.48832488 465.79961457 188.51956749 468.34392357 C188.82797327 494.25470482 188.82797327 494.25470482 180.25111675 504.194417 C172.15937799 511.94816273 163.02450125 512.89766234 152.2559967 512.8271637 C150.88591483 512.83249587 149.51583881 512.83956542 148.14577383 512.84821075 C144.39996467 512.86677633 140.65455252 512.86055437 136.90872729 512.85005772 C132.86158698 512.84304832 128.8145268 512.8590768 124.76741028 512.87205505 C116.84636062 512.89367121 108.92545475 512.8935743 101.0043853 512.88542951 C94.56493069 512.87912372 88.12551794 512.88027185 81.68606377 512.88670158 C80.76875047 512.88760324 79.85143718 512.88850489 78.90632651 512.88943387 C77.04267362 512.89128512 75.17902074 512.89314768 73.31536787 512.89502143 C55.84831337 512.91159159 38.3813397 512.90288736 20.91429006 512.88603585 C4.94276023 512.87133964 -11.02858147 512.88596757 -27.00008707 512.91480602 C-43.4104809 512.94421566 -59.82078794 512.95516772 -76.23120695 512.94562382 C-78.08822062 512.94460129 -79.9452343 512.94360668 -81.802248 512.9426403 C-82.7158706 512.94216391 -83.6294932 512.94168752 -84.57080133 512.9411967 C-90.99981456 512.93903464 -97.42874543 512.94882556 -103.8577404 512.96341133 C-111.69656856 512.98094798 -119.5351569 512.98079822 -127.37397569 512.95805968 C-131.37127495 512.94692952 -135.3681519 512.94372679 -139.36543274 512.96236038 C-143.02909731 512.97921868 -146.691973 512.9727431 -150.35558695 512.94814359 C-152.29929174 512.94098279 -154.24303992 512.95824709 -156.18667167 512.97655493 C-165.84611458 512.87407364 -174.14319401 510.29430599 -181.125 503.3125 C-187.02011645 495.29721008 -188.42099964 488.38468352 -188.31599426 478.57333374 C-188.31261431 477.49044905 -188.30923436 476.40756437 -188.30575198 475.29186499 C-188.29231426 471.66240652 -188.26475188 468.03318797 -188.23754883 464.40380859 C-188.22556503 461.80174204 -188.21464559 459.1996704 -188.20471191 456.59759521 C-188.18551723 451.71858255 -188.16284239 446.83960776 -188.1361421 441.96063037 C-188.08401333 432.36760916 -188.06033808 422.7746958 -188.04728699 413.18154907 C-188.04510502 411.66965368 -188.04291673 410.15775831 -188.04072219 408.64586294 C-188.03635454 405.58510223 -188.03212628 402.52434136 -188.02796304 399.46358037 C-188.01712625 391.59957674 -188.00457425 383.73557781 -187.98901367 375.87158203 C-187.98746325 375.08261924 -187.98591282 374.29365644 -187.98431542 373.48078568 C-187.95795419 360.70471378 -187.89153394 347.92912006 -187.81209008 335.15328197 C-187.73154966 322.02219757 -187.70077918 308.89163204 -187.71415728 295.760306 C-187.72071121 287.66868221 -187.68791299 279.5791882 -187.60388836 271.48798938 C-187.54342034 265.27905826 -187.55157727 259.0719127 -187.58478546 252.86281586 C-187.58762776 250.32315889 -187.56833018 247.78336245 -187.52486992 245.24407578 C-186.76222766 231.45153714 -186.76222766 231.45153714 -191.95499229 219.22389603 C-195.04772708 216.09445141 -198.46828026 213.7417514 -202.125 211.3125 C-218.96957174 196.07948142 -233.77522688 172.90538335 -235.30200195 149.61206055 C-235.71198772 130.12385265 -234.33319555 114.83921038 -225.125 97.3125 C-224.61195313 96.31734375 -224.09890625 95.3221875 -223.5703125 94.296875 C-219.07098758 86.07322849 -213.43687791 79.18076882 -207.125 72.3125 C-206.37839111 71.49797363 -206.37839111 71.49797363 -205.61669922 70.66699219 C-183.65114093 47.02258246 -154.17013435 31.26958309 -124.125 20.3125 C-123.31691895 20.0139209 -122.50883789 19.7153418 -121.67626953 19.40771484 C-102.10683285 12.26146284 -81.73509431 7.35667222 -61.1875 4 C-59.84413574 3.77920776 -59.84413574 3.77920776 -58.47363281 3.55395508 C-39.03640835 0.60594153 -19.63134744 -0.05995487 0 0 Z M-148.62890625 95.03125 C-162.03338303 110.81723281 -167.5724425 126.31753469 -166.35693359 146.88916016 C-165.83145695 152.37956137 -164.27767574 157.26582971 -162.125 162.3125 C-161.79757813 163.14265625 -161.47015625 163.9728125 -161.1328125 164.828125 C-154.12909194 180.67595985 -137.67683151 198.82744964 -121.9575119 206.34972286 C-118.83862953 209.6903129 -119.58500056 213.74284376 -119.63293457 218.13490295 C-119.62591609 219.66562184 -119.62591609 219.66562184 -119.61875582 221.22726434 C-119.60778027 224.66356278 -119.62534952 228.09913603 -119.64257812 231.53540039 C-119.64039337 233.99249488 -119.63639834 236.44958834 -119.63072205 238.90667725 C-119.62213953 244.20726783 -119.62552027 249.50764905 -119.6391449 254.80821419 C-119.65850048 262.4828432 -119.65207166 270.15728736 -119.63857108 277.83192115 C-119.61697361 290.29738034 -119.61027916 302.76279598 -119.61572266 315.22827148 C-119.61604329 315.97459618 -119.61636392 316.72092088 -119.61669427 317.48986148 C-119.61940545 323.54159573 -119.62283458 329.59332954 -119.62629986 335.6450634 C-119.62929373 340.92475242 -119.63200264 346.20444148 -119.63427734 351.48413086 C-119.63460285 352.22742455 -119.63492837 352.97071823 -119.63526374 353.73653597 C-119.64021231 366.14650185 -119.62950054 378.55640731 -119.60770559 390.96635431 C-119.59502668 398.61710773 -119.59642565 406.26761166 -119.61615646 413.91835146 C-119.63029484 419.78879041 -119.62413684 425.65909684 -119.61065865 431.52954102 C-119.60852989 433.93289527 -119.61323706 436.336267 -119.6253643 438.7395916 C-119.64101466 442.02711377 -119.63197935 445.31370603 -119.61706543 448.60121155 C-119.63279877 450.01939142 -119.63279877 450.01939142 -119.64884996 451.46622139 C-119.56855666 459.44470968 -117.36242286 465.89055916 -113 472.5625 C-105.46133874 479.77339338 -98.29858987 482.46180627 -88.02391052 482.45967102 C-87.08101876 482.46334771 -86.13812699 482.4670244 -85.16666275 482.4708125 C-81.99318313 482.48186437 -78.81973624 482.48569576 -75.64624023 482.48950195 C-73.37633662 482.49576555 -71.10643404 482.50241226 -68.83653259 482.50941467 C-62.65855344 482.52683589 -56.48058204 482.53737987 -50.30258441 482.5456202 C-46.44289754 482.55076884 -42.58321308 482.55684469 -38.72352791 482.56313133 C-28.0322198 482.58000359 -17.3409151 482.59463744 -6.64959621 482.60188007 C-3.87536556 482.6037899 -1.10113492 482.60571024 1.6730957 482.60766602 C2.36259872 482.60814976 3.05210174 482.6086335 3.76249879 482.6091319 C14.92329502 482.61742598 26.08398385 482.64275175 37.24473322 482.67524669 C48.70999142 482.70835524 60.17516957 482.72599985 71.64048046 482.72952431 C78.075039 482.73187461 84.50942788 482.74083246 90.94394112 482.76598549 C97.00059957 482.78927816 103.0569768 482.7934944 109.11366844 482.78322411 C111.33319662 482.78272891 113.55273869 482.78904462 115.77222443 482.80278015 C118.81015957 482.82052425 121.84708828 482.81337999 124.88502502 482.80024719 C125.75655026 482.81121644 126.62807549 482.82218568 127.52601057 482.83348733 C135.00368998 482.75582511 141.26621925 480.5269791 147.625 476.625 C155.63705187 468.39039113 158.1951655 460.39735076 158.05926514 449.13606262 C158.05517962 448.11372565 158.0510941 447.09138869 158.04688478 446.03807181 C158.03111243 442.61355965 158.00120872 439.18931158 157.97167969 435.76489258 C157.95805803 433.30898592 157.94551658 430.85307307 157.93397522 428.39715576 C157.91153219 423.79302476 157.88626195 419.18893488 157.85678861 414.58484527 C157.79931406 405.53303478 157.7715417 396.48133647 157.75494385 387.42936707 C157.7522028 386.00266243 157.74945803 384.57595781 157.74670959 383.14925319 C157.74123674 380.26103806 157.73592489 377.37282269 157.73070192 374.4846071 C157.71718475 367.06484703 157.7022652 359.64509203 157.68408203 352.2253418 C157.6822693 351.48097591 157.68045656 350.73661003 157.6785889 349.9696876 C157.64787111 337.91389049 157.57355874 325.85870328 157.48493728 313.8032103 C157.39504148 301.41227988 157.3587167 289.02197643 157.37006879 276.63072318 C157.37525464 268.99492908 157.33813196 261.36175476 157.24597189 253.72650453 C157.17959045 247.86849402 157.18711869 242.01201719 157.22167778 236.15368652 C157.22424626 233.75710441 157.2029542 231.360356 157.15566444 228.96423912 C156.8005603 209.92081479 156.8005603 209.92081479 161.88251495 204.56891441 C164.73902413 202.10803128 167.79087872 200.20342442 171.08478975 198.38668096 C185.35311327 189.82524998 195.42738497 174.19574468 201.875 159.3125 C202.2359375 158.51972656 202.596875 157.72695312 202.96875 156.91015625 C207.21837763 145.71553533 206.56241845 129.22341659 201.875 118.3125 C190.25352161 92.53446583 168.32584365 75.39317097 143.875 62.3125 C143.28589844 61.99071777 142.69679688 61.66893555 142.08984375 61.33740234 C126.8867547 53.08324142 110.48331117 47.07039697 93.875 42.3125 C93.17874512 42.10810303 92.48249023 41.90370605 91.76513672 41.69311523 C81.43690663 38.69607314 71.01972339 36.46861477 60.4375 34.5625 C59.27750488 34.35189941 58.11750977 34.14129883 56.92236328 33.92431641 C-12.23326984 21.86332111 -99.89428013 42.11502569 -148.62890625 95.03125 Z " fill="#BF6C0D" transform="translate(257.125,-0.3125)"/>
<path d="M0 0 C2.5494756 0.01006287 5.0989551 0.01918279 7.6484375 0.02734375 C13.80737889 0.04906526 19.9661703 0.08227408 26.125 0.125 C26.125 0.785 26.125 1.445 26.125 2.125 C25.41593506 2.20540527 24.70687012 2.28581055 23.97631836 2.36865234 C20.67154056 2.74427443 17.36702181 3.12213274 14.0625 3.5 C12.94810547 3.62632813 11.83371094 3.75265625 10.68554688 3.8828125 C7.16406478 4.28642076 3.64456929 4.70506222 0.125 5.125 C-1.06544922 5.25865967 -2.25589844 5.39231934 -3.48242188 5.5300293 C-13.28089737 6.70930678 -22.70172876 8.75985258 -32.25 11.1875 C-33.03424347 11.38574371 -33.81848694 11.58398743 -34.62649536 11.78823853 C-64.41987947 19.36829938 -93.60292592 30.57126742 -118.98046875 48.2109375 C-121.875 50.125 -121.875 50.125 -123.875 50.125 C-123.875 50.785 -123.875 51.445 -123.875 52.125 C-124.83277344 52.59808594 -125.79054688 53.07117187 -126.77734375 53.55859375 C-130.37933852 55.34358024 -133.97224147 57.14614815 -137.56103516 58.95751953 C-139.06467975 59.7161636 -140.56950097 60.47248163 -142.07568359 61.22607422 C-157.49792258 68.97388837 -170.45076422 78.1657431 -182.875 90.125 C-183.52984375 90.71667969 -184.1846875 91.30835937 -184.859375 91.91796875 C-196.65127461 102.87145348 -205.40501452 118.52702877 -206.2109375 134.73828125 C-206.39259858 144.23955506 -205.87456449 152.34334754 -201.875 161.125 C-201.43929687 162.12917969 -201.00359375 163.13335937 -200.5546875 164.16796875 C-196.83261797 172.19177439 -192.0194244 179.13942113 -185.6328125 185.28125 C-183.875 187.125 -183.875 187.125 -183.875 189.125 C-183.32199219 189.35832031 -182.76898438 189.59164062 -182.19921875 189.83203125 C-179.27037331 191.46135535 -177.12632312 193.5144459 -174.6875 195.8125 C-173.80707031 196.64136719 -172.92664063 197.47023437 -172.01953125 198.32421875 C-171.54111335 198.7756444 -171.06269546 199.22707005 -170.56978005 199.69217527 C-168.84707849 201.21103217 -168.84707849 201.21103217 -166.63760453 202.56729758 C-160.38686533 206.72007069 -160.38686533 206.72007069 -159.04466665 210.40403628 C-158.73629787 213.11719512 -158.70967777 215.70526325 -158.78166199 218.43515015 C-158.76823532 219.97205393 -158.76823532 219.97205393 -158.7545374 221.54000628 C-158.73539436 224.96734523 -158.78031797 228.39081409 -158.82495117 231.81787109 C-158.82417561 234.27718025 -158.81938559 236.73649094 -158.81088257 239.19578552 C-158.80118076 244.48905391 -158.81868086 249.78116525 -158.86049461 255.07419968 C-158.92062298 262.73659022 -158.92707118 270.39831087 -158.91986076 278.06090005 C-158.90922794 290.50658676 -158.93574858 302.95189112 -158.98852539 315.39746094 C-159.03955362 327.46222875 -159.08314129 339.52694735 -159.10961914 351.59179688 C-159.11125827 352.33460507 -159.1128974 353.07741327 -159.1145862 353.84273081 C-159.13203426 361.95831556 -159.14452975 370.07389066 -159.14913654 378.18949318 C-159.14954192 378.90352716 -159.1499473 379.61756114 -159.15036497 380.35323251 C-159.15186649 383.20835317 -159.15323235 386.06347355 -159.15387575 388.91859455 C-159.15576085 397.26463175 -159.17320653 405.61026622 -159.219389 413.9561819 C-159.25113219 419.81355434 -159.26356313 425.67086283 -159.26919174 431.52832222 C-159.27503902 433.92728606 -159.2878131 436.32624467 -159.30807304 438.72513008 C-159.33493566 442.00396867 -159.33709255 445.28195644 -159.3334198 448.56088257 C-159.34731929 449.50652018 -159.36121879 450.45215779 -159.37553948 451.42645109 C-159.31499509 460.54239873 -156.12599747 467.68040743 -149.92578125 474.33203125 C-144.05464212 479.46508432 -137.55969514 481.69807249 -129.875 482.125 C-129.72804688 482.970625 -129.58109375 483.81625 -129.4296875 484.6875 C-127.64327508 493.72222948 -125.07222297 499.14301923 -118.4375 505.4375 C-113.90382323 508.42309202 -109.24328008 510.31162423 -103.875 511.125 C-103.875 511.455 -103.875 511.785 -103.875 512.125 C-112.04676509 512.2413836 -120.21817794 512.32996056 -128.39056969 512.38406086 C-132.18629829 512.41004016 -135.98145558 512.44522007 -139.77685547 512.50219727 C-143.4468196 512.55694008 -147.11623789 512.58650804 -150.78657913 512.59938622 C-152.17952684 512.60855116 -153.57244817 512.62644661 -154.96516037 512.65365028 C-163.86635144 512.82043673 -170.33115811 512.01065067 -177.875 507.125 C-178.803125 506.526875 -179.73125 505.92875 -180.6875 505.3125 C-186.48952523 499.51047477 -189.93492989 492.51874132 -190.10039997 484.26601219 C-190.09923883 482.3059195 -190.08697084 480.34581453 -190.06599426 478.38583374 C-190.06261431 477.30294905 -190.05923436 476.22006437 -190.05575198 475.10436499 C-190.04231426 471.47490652 -190.01475188 467.84568797 -189.98754883 464.21630859 C-189.97556503 461.61424204 -189.96464559 459.0121704 -189.95471191 456.41009521 C-189.93551723 451.53108255 -189.91284239 446.65210776 -189.8861421 441.77313037 C-189.83401333 432.18010916 -189.81033808 422.5871958 -189.79728699 412.99404907 C-189.79510502 411.48215368 -189.79291673 409.97025831 -189.79072219 408.45836294 C-189.78635454 405.39760223 -189.78212628 402.33684136 -189.77796304 399.27608037 C-189.76712625 391.41207674 -189.75457425 383.54807781 -189.73901367 375.68408203 C-189.73746325 374.89511924 -189.73591282 374.10615644 -189.73431542 373.29328568 C-189.70795419 360.51721378 -189.64153394 347.74162006 -189.56209008 334.96578197 C-189.48154966 321.83469757 -189.45077918 308.70413204 -189.46415728 295.572806 C-189.47071121 287.48118221 -189.43791299 279.3916882 -189.35388836 271.30048938 C-189.29342034 265.09155826 -189.30157727 258.8844127 -189.33478546 252.67531586 C-189.33762776 250.13565889 -189.31833018 247.59586245 -189.27486992 245.05657578 C-188.51222766 231.26403714 -188.51222766 231.26403714 -193.70499229 219.03639603 C-196.79772708 215.90695141 -200.21828026 213.5542514 -203.875 211.125 C-220.71957174 195.89198142 -235.52522688 172.71788335 -237.05200195 149.42456055 C-237.46198772 129.93635265 -236.08319555 114.65171038 -226.875 97.125 C-226.36195313 96.12984375 -225.84890625 95.1346875 -225.3203125 94.109375 C-220.82098758 85.88572849 -215.18687791 78.99326882 -208.875 72.125 C-208.12839111 71.31047363 -208.12839111 71.31047363 -207.36669922 70.47949219 C-185.40114093 46.83508246 -155.92013435 31.08208309 -125.875 20.125 C-125.06691895 19.8264209 -124.25883789 19.5278418 -123.42626953 19.22021484 C-103.85683285 12.07396284 -83.48509431 7.16917222 -62.9375 3.8125 C-61.59413574 3.59170776 -61.59413574 3.59170776 -60.22363281 3.36645508 C-57.11222309 2.89455241 -53.99999134 2.49761152 -50.875 2.125 C-49.78185486 1.99430115 -49.78185486 1.99430115 -48.66662598 1.86096191 C-32.43579619 -0.01217175 -16.32141502 -0.11364096 0 0 Z " fill="#A56020" transform="translate(258.875,-0.125)"/>
<path d="M0 0 C1.26585937 0.0928125 2.53171875 0.185625 3.8359375 0.28125 C5.21652344 0.38953125 5.21652344 0.38953125 6.625 0.5 C6.625 0.83 6.625 1.16 6.625 1.5 C5.84302246 1.53440186 5.06104492 1.56880371 4.25537109 1.60424805 C-50.29881852 4.16333549 -108.44632225 16.59801119 -151.375 52.5 C-151.88901367 52.92893555 -152.40302734 53.35787109 -152.93261719 53.79980469 C-166.89639073 65.59512749 -180.86816931 81.94006582 -182.59277344 100.89331055 C-183.1117099 111.9807526 -182.78748481 122.15549918 -178.375 132.5 C-178.04757813 133.33015625 -177.72015625 134.1603125 -177.3828125 135.015625 C-170.32817271 150.97867853 -156.64015148 162.78177158 -143.11669922 173.1472168 C-142.54193848 173.59363525 -141.96717773 174.04005371 -141.375 174.5 C-140.52670655 174.98283384 -139.67841311 175.46566769 -138.8044138 175.96313286 C-135.12820342 179.80194259 -135.69087887 183.3092416 -135.76268005 188.44265747 C-135.75437993 189.974658 -135.75437993 189.974658 -135.74591213 191.53760803 C-135.73329999 194.97095332 -135.7563537 198.40314568 -135.77905273 201.83642578 C-135.77714959 204.29366825 -135.77299588 206.75090986 -135.76675415 209.20814514 C-135.75794837 214.50604112 -135.76416055 219.80359943 -135.78341484 225.10144424 C-135.81091497 232.77209394 -135.80706915 240.4424855 -135.79482902 248.11316322 C-135.77542782 260.57253947 -135.77538049 273.03183074 -135.7902832 285.49121094 C-135.79116934 286.23697013 -135.79205547 286.98272933 -135.79296846 287.75108729 C-135.796602 290.77229594 -135.80031937 293.79350447 -135.80413502 296.81471289 C-135.81458511 305.11866107 -135.82283881 313.42261031 -135.8293457 321.7265625 C-135.83022806 322.84110895 -135.83022806 322.84110895 -135.83112823 323.97817148 C-135.84041968 336.38364244 -135.833912 348.78906264 -135.81703526 361.19452465 C-135.80746087 368.84151956 -135.81255982 376.48824099 -135.83680297 384.13520496 C-135.85446709 390.00194678 -135.85202303 395.86857026 -135.84236526 401.7353344 C-135.84183088 404.13708165 -135.84814922 406.53884193 -135.86190605 408.94054985 C-135.87980649 412.22581674 -135.87300134 415.51016955 -135.8603363 418.79544067 C-135.87150732 419.7402118 -135.88267834 420.68498293 -135.89418787 421.65838349 C-135.82180605 429.37570007 -133.66523083 435.62422475 -129.75 442.25 C-122.46271503 449.15374365 -115.24077673 451.64720782 -105.3964386 451.65821838 C-104.00214411 451.66562535 -104.00214411 451.66562535 -102.57968205 451.67318195 C-99.45196762 451.68859119 -96.32427376 451.69692685 -93.1965332 451.70532227 C-90.95966408 451.7148981 -88.72279678 451.724908 -86.4859314 451.73532104 C-80.40160396 451.76240814 -74.31726874 451.7833971 -68.23291421 451.80332303 C-61.87874694 451.82515914 -55.52460377 451.85255943 -49.17045593 451.87937927 C-38.50158697 451.92365711 -27.83271037 451.96448692 -17.16381836 452.00268555 C-6.17422521 452.04204182 4.81535692 452.08346836 15.80493164 452.12768555 C16.48219147 452.13040982 17.15945129 452.13313409 17.85723414 452.13594092 C21.25480655 452.14962042 24.65237879 452.16334069 28.04995096 452.17708123 C56.24161101 452.29104184 84.43329512 452.39777883 112.625 452.5 C112.625 452.83 112.625 453.16 112.625 453.5 C79.94456943 453.54565981 47.26414809 453.58103722 14.58369289 453.60213066 C10.72238049 453.60463197 6.86106816 453.60722062 2.99975586 453.60986328 C1.84671606 453.61065021 1.84671606 453.61065021 0.67038254 453.61145304 C-11.763793 453.6201473 -24.19794997 453.63591187 -36.63211451 453.65430559 C-49.39791655 453.67303191 -62.16370891 453.6841225 -74.92952412 453.68817699 C-82.80188649 453.69091638 -90.67419639 453.69955758 -98.54654261 453.71583293 C-104.59078671 453.72768965 -110.63498602 453.72890445 -116.67924309 453.72621536 C-119.1531265 453.72676453 -121.62701194 453.73072871 -124.10088348 453.73841095 C-127.48650199 453.74840674 -130.87189861 453.7459519 -134.25752258 453.74050903 C-135.71525769 453.74924756 -135.71525769 453.74924756 -137.20244199 453.75816262 C-149.03371707 453.70698688 -158.27461496 452.12491283 -167.125 443.8671875 C-173.95216191 436.52798844 -175.9786585 428.76694499 -175.81996155 418.94934082 C-175.81957159 417.40987376 -175.81957159 417.40987376 -175.81917375 415.83930635 C-175.81373954 412.41921405 -175.7799094 409.0000009 -175.74633789 405.58007812 C-175.73705882 403.12048467 -175.72970255 400.66088332 -175.72412109 398.20127869 C-175.7089892 392.91384849 -175.68243951 387.62665853 -175.64689827 382.33934021 C-175.59176432 373.97692054 -175.57715009 365.61465347 -175.56871033 357.2520752 C-175.56530915 354.38664978 -175.56162212 351.52122479 -175.55782986 348.65579987 C-175.55688954 347.93985199 -175.55594923 347.22390412 -175.55498042 346.48626086 C-175.543685 338.34970826 -175.52348283 330.21318525 -175.49975586 322.07666016 C-175.49759905 321.33346616 -175.49544225 320.59027216 -175.49322008 319.82455713 C-175.45729818 307.77423668 -175.39420202 295.72416432 -175.32466669 283.67399818 C-175.25421785 271.28529154 -175.22607113 258.89693917 -175.23367494 246.50803518 C-175.2367655 238.87469104 -175.20513294 231.24307791 -175.12842827 223.61011112 C-175.07286264 217.75988697 -175.07467662 211.91056292 -175.09758759 206.06009102 C-175.09779346 203.66430212 -175.07916754 201.26842536 -175.04019737 198.87295341 C-174.19004985 186.26895058 -174.19004985 186.26895058 -178.80102348 175.12483215 C-181.56515374 172.8350215 -184.20241699 171.15466371 -187.375 169.5 C-189.12571812 168.0956955 -189.12571812 168.0956955 -190.4609375 166.828125 C-191.21632813 166.14234375 -191.97171875 165.4565625 -192.75 164.75 C-196.04629333 161.74394634 -199.30115315 158.73562826 -202.375 155.5 C-202.98988281 154.85675781 -203.60476562 154.21351563 -204.23828125 153.55078125 C-217.94083159 138.76441337 -223.13000561 122.51841289 -222.50244141 102.75976562 C-221.68459857 88.25793947 -212.94252506 74.86968036 -203.375 64.5 C-202.90320313 63.9858252 -202.43140625 63.47165039 -201.9453125 62.94189453 C-189.5765137 49.60778468 -175.42327435 39.90808574 -159.375 31.5 C-158.70823242 31.14808594 -158.04146484 30.79617187 -157.35449219 30.43359375 C-121.9473754 11.86498485 -81.93992674 2.59147972 -42.13427734 0.49462891 C-39.87678737 0.37509464 -37.62009655 0.24488396 -35.36328125 0.11328125 C-23.5654374 -0.55229671 -11.79681973 -0.89032602 0 0 Z " fill="#DB9C2F" transform="translate(274.375,29.5)"/>
<path d="M0 0 C2.9375 2.0625 2.9375 2.0625 5 5 C5.125 8.5625 5.125 8.5625 4 12 C0.39491498 15.35058899 -3.67342285 17.56396134 -8.0390625 19.7578125 C-8.71277893 20.10227921 -9.38649536 20.44674591 -10.08062744 20.801651 C-12.25953573 21.91451695 -14.44226224 23.01966714 -16.625 24.125 C-18.89324919 25.28174778 -21.160451 26.44053145 -23.42764282 27.59934998 C-24.91865496 28.36121807 -26.41000625 29.1224228 -27.90170288 29.88294983 C-33.24839565 32.60958099 -38.57239917 35.37597276 -43.875 38.1875 C-51.39486062 42.16739436 -58.94416791 46.08884983 -66.5 50 C-74.17967718 53.97570572 -81.85254541 57.96264959 -89.5 62 C-90.98299446 62.78009708 -92.46606978 63.56004047 -93.94921875 64.33984375 C-97.34492148 66.12554518 -100.73533942 67.92096834 -104.12393188 69.72012329 C-106.57521805 71.01895767 -109.03039189 72.31032555 -111.48632812 73.6003418 C-113.27392236 74.54217453 -115.05694106 75.49267538 -116.83984375 76.44335938 C-118.49113281 77.30864258 -118.49113281 77.30864258 -120.17578125 78.19140625 C-121.15458252 78.70904541 -122.13338379 79.22668457 -123.1418457 79.76000977 C-126.1644624 81.07135086 -128.71935928 81.72663698 -132 82 C-134.875 80.5625 -134.875 80.5625 -137 78 C-137.94327177 72.59762533 -137.94327177 72.59762533 -137 70 C-132.57615785 65.87536733 -127.93996141 63.17612725 -122.55078125 60.48828125 C-121.73868698 60.07515182 -120.92659271 59.6620224 -120.08988953 59.2363739 C-117.50104282 57.92112978 -114.90705701 56.61643743 -112.3125 55.3125 C-108.93230781 53.60279497 -105.55413913 51.8891073 -102.17578125 50.17578125 C-101.33431549 49.74999786 -100.49284973 49.32421448 -99.62588501 48.88552856 C-92.16238745 45.1021316 -84.75760325 41.21198294 -77.36010742 37.30151367 C-71.4256055 34.16446901 -65.46331593 31.08188176 -59.5 28 C-51.69624842 23.96019845 -43.89905319 19.90917611 -36.125 15.8125 C-35.38677002 15.42529785 -34.64854004 15.0380957 -33.88793945 14.63916016 C-29.699873 12.43924756 -25.53293888 10.20499781 -21.37890625 7.94140625 C-20.43063965 7.43053467 -19.48237305 6.91966309 -18.50537109 6.39331055 C-16.67337975 5.40620657 -14.84653536 4.40946876 -13.02587891 3.40161133 C-5.0812945 -0.85458135 -5.0812945 -0.85458135 0 0 Z " fill="#DB9C2F" transform="translate(347,345)"/>
<path d="M0 0 C3.6875 0.3125 3.6875 0.3125 6.125 1.875 C8.31771887 5.29564143 8.31757693 7.32201279 7.6875 11.3125 C3.82642229 16.03133126 -0.75009112 18.39054624 -6.1015625 21.04296875 C-6.95946381 21.47829422 -7.81736511 21.91361969 -8.70126343 22.36213684 C-11.4421297 23.75064994 -14.18946397 25.12574016 -16.9375 26.5 C-19.62219091 27.85327265 -22.30546047 29.20933201 -24.98858643 30.56570435 C-26.77642299 31.4693296 -28.56479688 32.37189252 -30.35369873 33.27340698 C-38.69350068 37.48318678 -46.95502894 41.83535696 -55.21209717 46.20449829 C-60.39567481 48.93893227 -65.60613158 51.62180043 -70.8125 54.3125 C-78.65752742 58.37384425 -86.49601712 62.44647445 -94.3125 66.5625 C-95.05733643 66.95228027 -95.80217285 67.34206055 -96.56958008 67.74365234 C-100.54744258 69.83029999 -104.49406321 71.961828 -108.41796875 74.1484375 C-109.26810547 74.61475586 -110.11824219 75.08107422 -110.99414062 75.56152344 C-112.6111599 76.44943464 -114.2211877 77.35025713 -115.82226562 78.26660156 C-120.92781071 81.04838272 -124.48819824 81.97506954 -130.3125 81.3125 C-133.04330856 78.92304251 -134.08150145 77.33916021 -134.875 73.8125 C-134.05252272 70.15704544 -132.09182314 68.78557901 -129.3125 66.3125 C-126.97308574 64.91436288 -124.70595979 63.65968889 -122.2734375 62.45703125 C-121.59972107 62.11397949 -120.92600464 61.77092773 -120.23187256 61.41748047 C-118.05476652 60.31114482 -115.87123591 59.21818141 -113.6875 58.125 C-112.17376817 57.35809613 -110.66058688 56.59010466 -109.14794922 55.82104492 C-106.18433231 54.31477844 -103.21887947 52.81223616 -100.25195312 51.3125 C-95.62040544 48.96678673 -91.02231903 46.56065244 -86.4375 44.125 C-78.91799689 40.144439 -71.36832427 36.22364612 -63.8125 32.3125 C-55.40304058 27.95899202 -47.0048835 23.58629092 -38.63330078 19.16040039 C-33.82740224 16.62398291 -29.00754508 14.11543197 -24.1796875 11.62109375 C-23.56107849 11.30129547 -22.94246948 10.98149719 -22.30511475 10.65200806 C-19.2157644 9.05520593 -16.12531989 7.46057905 -13.03320312 5.86914062 C-11.91623047 5.29228516 -10.79925781 4.71542969 -9.6484375 4.12109375 C-8.64345215 3.60345459 -7.6384668 3.08581543 -6.60302734 2.55249023 C-2.28648741 0.21570636 -2.28648741 0.21570636 0 0 Z " fill="#DB9C2F" transform="translate(313.3125,238.6875)"/>
<path d="M0 0 C2.875 1.5625 2.875 1.5625 5 4 C5.625 7.4375 5.625 7.4375 5 11 C1.616428 14.96525051 -1.86399008 17.24425824 -6.49609375 19.56640625 C-7.42777626 20.03948715 -7.42777626 20.03948715 -8.37828064 20.52212524 C-9.70563054 21.19505104 -11.03514993 21.86371201 -12.36663818 22.52841187 C-15.89110384 24.28835939 -19.39947579 26.07994623 -22.91015625 27.8671875 C-23.60971436 28.22223862 -24.30927246 28.57728973 -25.0300293 28.94309998 C-30.87293561 31.91510221 -36.63824947 35.01533858 -42.375 38.1875 C-51.06429298 42.98083794 -59.84345276 47.57932198 -68.66088867 52.13208008 C-75.72190154 55.78803877 -82.71906105 59.54586213 -89.6875 63.375 C-92.32624203 64.81723979 -94.96604673 66.25749244 -97.60693359 67.69580078 C-99.14254601 68.53269545 -100.67684677 69.37200396 -102.20947266 70.21435547 C-104.13109741 71.26421208 -106.06266066 72.29201501 -108 73.3125 C-109.546875 74.14201172 -109.546875 74.14201172 -111.125 74.98828125 C-114.54896363 76.19318149 -116.52692444 75.9301114 -120 75 C-121.875 73.9375 -121.875 73.9375 -123 72 C-123.8021148 66.47432024 -123.8021148 66.47432024 -123 64 C-117.84716158 58.63283208 -111.07398596 55.74287918 -104.5 52.4375 C-102.05255698 51.19165434 -99.60820714 49.93980176 -97.1640625 48.6875 C-96.24719162 48.21883766 -96.24719162 48.21883766 -95.3117981 47.7407074 C-89.7776617 44.90456536 -84.31908139 41.94191215 -78.875 38.9375 C-71.13998065 34.67799383 -63.34538845 30.55256884 -55.5 26.5 C-47.40750227 22.31879286 -39.36411592 18.06315437 -31.375 13.6875 C-30.02148438 12.94838379 -30.02148438 12.94838379 -28.640625 12.19433594 C-24.58356736 9.97581954 -20.53631435 7.7426279 -16.5078125 5.47265625 C-15.17193019 4.73167133 -13.83599655 3.99077892 -12.5 3.25 C-11.3759375 2.61578125 -10.251875 1.9815625 -9.09375 1.328125 C-5.74122373 -0.11109082 -3.60726451 -0.39121038 0 0 Z " fill="#DB9C2F" transform="translate(309,177)"/>
<path d="M0 0 C2.5 1.625 2.5 1.625 4 4 C4.6337025 7.72300217 4.4377558 9.35198703 2.31396484 12.49584961 C-0.16755036 15.18132138 -2.26392539 16.5029397 -5.5234375 18.12890625 C-7.16143311 18.95950562 -7.16143311 18.95950562 -8.83251953 19.80688477 C-10.00153809 20.38623779 -11.17055664 20.96559082 -12.375 21.5625 C-14.84111706 22.80743747 -17.30309125 24.06049311 -19.765625 25.3125 C-20.38305573 25.62494156 -21.00048645 25.93738312 -21.6366272 26.2592926 C-27.19748654 29.07925684 -32.66879102 32.04637559 -38.125 35.0625 C-45.85968055 39.32260041 -53.65462224 43.44745659 -61.5 47.5 C-69.55134185 51.65975649 -77.55263283 55.89478141 -85.5 60.25 C-86.84795654 60.98524902 -86.84795654 60.98524902 -88.22314453 61.73535156 C-92.45431438 64.04552214 -96.67151984 66.37593285 -100.8671875 68.75 C-102.36962621 69.5836316 -103.87222127 70.41698151 -105.375 71.25 C-106.03435547 71.63317383 -106.69371094 72.01634766 -107.37304688 72.41113281 C-112.12355244 75.01585503 -115.58088106 75.54651412 -121 75 C-123.73080856 72.61054251 -124.76900145 71.02666021 -125.5625 67.5 C-124.74087975 63.84835445 -122.77230808 62.4745996 -120 60 C-117.69515907 58.59201605 -115.4555757 57.32213243 -113.05859375 56.1015625 C-112.05204491 55.5744014 -112.05204491 55.5744014 -111.02516174 55.03659058 C-108.83356634 53.89093783 -106.63558697 52.75813985 -104.4375 51.625 C-102.89463194 50.82071633 -101.35232072 50.01536363 -99.81054688 49.20898438 C-96.68634156 47.57534109 -93.56030634 45.94528348 -90.43310547 44.31738281 C-84.26027971 41.09777269 -78.12963686 37.80102318 -72 34.5 C-64.43549304 30.434732 -56.86050587 26.39098223 -49.265625 22.3828125 C-48.5166394 21.98733215 -47.76765381 21.59185181 -46.99597168 21.18438721 C-43.35561352 19.26258122 -39.71403818 17.34314768 -36.0703125 15.42773438 C-34.71869447 14.71494904 -33.36713131 14.00205964 -32.015625 13.2890625 C-31.35663208 12.94349304 -30.69763916 12.59792358 -30.01867676 12.24188232 C-26.52806967 10.39717696 -23.09840998 8.48521847 -19.70898438 6.45996094 C-19.00126892 6.0425766 -18.29355347 5.62519226 -17.56439209 5.19515991 C-16.22226976 4.39878306 -14.88833928 3.58835595 -13.56500244 2.76113892 C-8.83060488 -0.03505769 -5.4955123 -0.52016035 0 0 Z " fill="#DB9C2F" transform="translate(361,279)"/>
<path d="M0 0 C6.34732399 3.69181089 11.29040741 9.30872222 13.625 16.3125 C14.56899389 24.41736185 13.26190728 30.56457967 8.625 37.3125 C4.42298432 42.12634763 -0.9163395 44.92131357 -7.20703125 45.6328125 C-14.81639383 45.91995826 -20.40536679 44.96564765 -26.08984375 39.734375 C-31.97885229 33.34141707 -34.04069907 26.96080238 -33.78125 18.3125 C-32.86877256 11.57420507 -29.65169945 7.02240582 -24.375 2.875 C-17.09772559 -2.2748454 -8.28584511 -3.88349856 0 0 Z " fill="#DB9C2F" transform="translate(150.375,124.6875)"/>
<path d="M0 0 C3.7804643 1.92339412 5.87630522 3.54550634 8.5625 6.8125 C9.02914062 7.35519531 9.49578125 7.89789063 9.9765625 8.45703125 C14.49807388 14.45624328 14.40021566 20.54298964 13.5625 27.8125 C12.16571801 34.09801896 7.87664612 39.6159899 2.55859375 43.140625 C-3.26385028 46.09871821 -8.99596705 46.87214611 -15.4375 45.8125 C-23.36344238 43.00047021 -28.25756337 37.66372137 -32.3125 30.5 C-34.3669384 23.76600746 -34.35606611 18.12773875 -31.5 11.625 C-25.03019749 -0.1281656 -12.60234371 -4.25689854 0 0 Z " fill="#DB9C2F" transform="translate(228.4375,130.1875)"/>
<path d="M0 0 C6.29497098 3.6872277 11.32485703 9.15501814 13.58984375 16.125 C14.47297188 23.56997551 14.03202429 29.94332481 9.58984375 36.125 C7.08984375 38.9375 7.08984375 38.9375 4.58984375 41.125 C3.97109375 41.681875 3.35234375 42.23875 2.71484375 42.8125 C-2.7567695 46.19202583 -9.12207138 46.98295977 -15.41015625 46.125 C-22.18561435 44.02573933 -27.88053355 39.35897843 -31.51171875 33.28125 C-34.21013174 27.12785963 -34.77512238 19.9954373 -32.53125 13.6328125 C-29.38246415 7.45994518 -25.08174387 2.59769766 -18.5859375 -0.0078125 C-12.61110714 -1.63931599 -5.90277293 -2.14298401 0 0 Z " fill="#DB9C2F" transform="translate(380.41015625,411.875)"/>
<path d="M0 0 C5.71735988 3.4646956 10.32436511 9.15233254 12.5 15.4375 C13.64437825 23.47357835 12.148951 29.78448993 7.5 36.4375 C3.16850053 41.20313609 -1.22013858 44.02100966 -7.69921875 44.84375 C-16.1408729 45.07062536 -22.1267117 44.25049922 -28.5 38.4375 C-33.20321804 33.28095974 -34.90276288 28.38224244 -35.25 21.4375 C-34.88788271 13.69829554 -32.39945412 7.99143287 -26.6484375 2.75 C-19.35214201 -2.7144596 -8.40625178 -3.81953964 0 0 Z " fill="#DB9C2F" transform="translate(240.5,53.5625)"/>
</svg>
