<?xml version="1.0" encoding="UTF-8"?>
<svg id="Layer_1" xmlns="http://www.w3.org/2000/svg" viewBox="0 0 670.72 509.63">
  <defs>
    <style>
      .cls-1 {
        fill: #75c806;
      }

      .cls-2 {
        fill: #ff7779;
      }

      .cls-3 {
        fill: #fc4c4b;
      }
    </style>
  </defs>
  <g>
    <path class="cls-3" d="M421.43,105.46c26.48.89,52.97-1.76,79.46,2.16,105.04,15.56,180.49,116.71,168.58,222.42-9.01,79.99-69.73,151.76-149.64,172.19-16.17,4.14-32.71,7.08-49.43,7.1-90.78.1-181.58.9-272.34-.55-94.69-1.52-173.06-67.39-193.47-159.82-19.61-88.81,24.83-180.06,105.72-221.62,42.76-21.98,87.53-24.14,133.67-21.04,3.4.23,6.8.41,10.2.62,2.54,1.44,4.94,3.77,7.63,4.17,23.11,3.45,43.36,13.64,63.4,25.02,7.74,4.4,16.6,4.11,25.01-2.19,13.37-10.01,28.89-15.63,45.3-18.98,9.03-1.84,18.29-3.53,25.9-9.47Z"/>
    <path class="cls-1" d="M421.43,105.46c-7.61,5.94-16.87,7.62-25.9,9.47-16.41,3.35-31.93,8.98-45.3,18.98-8.41,6.3-17.27,6.58-25.01,2.19-20.04-11.38-40.28-21.58-63.4-25.02-2.69-.4-5.1-2.73-7.63-4.17-4.9-9.45-9.97-18.81-14.66-28.36-8.46-17.24-2.39-27.5,16.49-27.98,10.69-.27,21.41-.48,32.1-.18,7.75.21,12.92-2.78,16.62-9.56,5.53-10.12,11.42-20.05,17.42-29.9,8.07-13.24,17.76-14.75,27.35-2.84,8.24,10.24,14.72,21.94,21.53,33.26,4.26,7.08,9.9,9.72,18.1,9.26,10.24-.58,20.55-.49,30.8-.03,18.13.81,24.3,11.52,15.85,27.72-4.73,9.08-10.88,17.42-14.37,27.16Z"/>
  </g>
  <circle class="cls-2" cx="153.86" cy="262.32" r="72.02"/>
</svg>