<?xml version="1.0" encoding="UTF-8"?>
<!DOCTYPE svg PUBLIC "-//W3C//DTD SVG 1.1//EN" "http://www.w3.org/Graphics/SVG/1.1/DTD/svg11.dtd">
<svg xmlns="http://www.w3.org/2000/svg" version="1.1" width="512px" height="512px" style="shape-rendering:geometricPrecision; text-rendering:geometricPrecision; image-rendering:optimizeQuality; fill-rule:evenodd; clip-rule:evenodd" xmlns:xlink="http://www.w3.org/1999/xlink">
<g><path style="opacity:0.998" fill="#fbeade" d="M 324.5,24.5 C 324.167,92.3354 324.501,160.002 325.5,227.5C 323.066,231.382 320.399,235.048 317.5,238.5C 313.966,236.234 310.3,234.234 306.5,232.5C 301.455,228.805 296.122,225.472 290.5,222.5C 286.5,220.167 282.5,217.833 278.5,215.5C 275.991,214.079 273.657,212.412 271.5,210.5C 272.499,147.002 272.832,83.3355 272.5,19.5C 282.478,18.4677 292.478,18.3011 302.5,19C 310.253,19.6449 317.587,21.4782 324.5,24.5 Z"/></g>
<g><path style="opacity:0.997" fill="#fcf0e4" d="M 272.5,19.5 C 272.832,83.3355 272.499,147.002 271.5,210.5C 252.851,199.527 234.184,188.527 215.5,177.5C 213.33,175.914 210.996,174.58 208.5,173.5C 204.836,170.665 200.836,168.332 196.5,166.5C 195.306,165.728 194.306,164.728 193.5,163.5C 194.498,132.671 194.831,101.671 194.5,70.5C 195.885,71.6138 197.385,72.6138 199,73.5C 215.475,44.6696 239.975,26.6696 272.5,19.5 Z"/></g>
<g><path style="opacity:0.996" fill="#fae4d8" d="M 324.5,24.5 C 355.973,35.8087 376.806,57.4754 387,89.5C 398.982,142.849 381.482,183.183 334.5,210.5C 336.009,214.378 337.009,218.378 337.5,222.5C 332.274,221.465 328.274,223.132 325.5,227.5C 324.501,160.002 324.167,92.3354 324.5,24.5 Z"/></g>
<g><path style="opacity:0.99" fill="#fef5e8" d="M 194.5,70.5 C 194.831,101.671 194.498,132.671 193.5,163.5C 179.527,155.512 165.527,147.512 151.5,139.5C 149.337,137.917 147.004,136.584 144.5,135.5C 127.272,118.739 124.438,99.7387 136,78.5C 148.678,63.3717 164.511,58.5383 183.5,64C 187.577,65.5997 191.244,67.7664 194.5,70.5 Z"/></g>
<g><path style="opacity:1" fill="#976f6d" d="M 292.5,79.5 C 302.023,79.2166 305.19,83.5499 302,92.5C 297.667,96.5 293.333,96.5 289,92.5C 286.325,87.011 287.492,82.6776 292.5,79.5 Z"/></g>
<g><path style="opacity:1" fill="#976f6e" d="M 244.5,95.5 C 254.023,95.2166 257.19,99.5499 254,108.5C 249.667,112.5 245.333,112.5 241,108.5C 238.325,103.011 239.492,98.6776 244.5,95.5 Z"/></g>
<g><path style="opacity:1" fill="#d0865c" d="M 144.5,135.5 C 147.004,136.584 149.337,137.917 151.5,139.5C 151.5,156.5 151.5,173.5 151.5,190.5C 148.833,192.833 146.167,195.167 143.5,197.5C 143.5,178.167 143.5,158.833 143.5,139.5C 143.833,138.167 144.167,136.833 144.5,135.5 Z"/></g>
<g><path style="opacity:1" fill="#eec68e" d="M 151.5,139.5 C 165.527,147.512 179.527,155.512 193.5,163.5C 194.306,164.728 195.306,165.728 196.5,166.5C 181.5,181.167 166.5,195.833 151.5,210.5C 151.5,203.833 151.5,197.167 151.5,190.5C 151.5,173.5 151.5,156.5 151.5,139.5 Z"/></g>
<g><path style="opacity:0.996" fill="#efc993" d="M 143.5,139.5 C 143.5,158.833 143.5,178.167 143.5,197.5C 143.5,203.5 143.5,209.5 143.5,215.5C 130.5,215.5 117.5,215.5 104.5,215.5C 117.006,189.819 130.006,164.486 143.5,139.5 Z"/></g>
<g><path style="opacity:1" fill="#eec084" d="M 196.5,166.5 C 200.836,168.332 204.836,170.665 208.5,173.5C 207.504,187.323 207.171,201.323 207.5,215.5C 196.5,215.5 185.5,215.5 174.5,215.5C 166.833,215.5 159.167,215.5 151.5,215.5C 151.5,213.833 151.5,212.167 151.5,210.5C 166.5,195.833 181.5,181.167 196.5,166.5 Z"/></g>
<g><path style="opacity:1" fill="#dc9258" d="M 208.5,173.5 C 210.996,174.58 213.33,175.914 215.5,177.5C 215.5,190.167 215.5,202.833 215.5,215.5C 216.5,215.5 217.5,215.5 218.5,215.5C 215.167,219.5 211.5,223.167 207.5,226.5C 207.5,225.5 207.5,224.5 207.5,223.5C 194.167,223.5 180.833,223.5 167.5,223.5C 169.833,220.833 172.167,218.167 174.5,215.5C 185.5,215.5 196.5,215.5 207.5,215.5C 207.171,201.323 207.504,187.323 208.5,173.5 Z"/></g>
<g><path style="opacity:0.939" fill="#b89881" d="M 411.5,256.5 C 411.657,255.127 411.49,253.793 411,252.5C 408.628,249.09 406.795,245.423 405.5,241.5C 414.216,234.283 421.716,225.949 428,216.5C 431.949,210.38 430.949,205.38 425,201.5C 419.481,209.07 412.815,210.404 405,205.5C 400.624,198.101 402.124,192.267 409.5,188C 428.217,184.17 439.217,191.504 442.5,210C 441.176,220.479 437.01,229.646 430,237.5C 424.329,244.337 418.162,250.671 411.5,256.5 Z"/></g>
<g><path style="opacity:1" fill="#eeb775" d="M 215.5,177.5 C 234.184,188.527 252.851,199.527 271.5,210.5C 273.657,212.412 275.991,214.079 278.5,215.5C 258.5,215.5 238.5,215.5 218.5,215.5C 217.5,215.5 216.5,215.5 215.5,215.5C 215.5,202.833 215.5,190.167 215.5,177.5 Z"/></g>
<g><path style="opacity:1" fill="#d68c5a" d="M 151.5,190.5 C 151.5,197.167 151.5,203.833 151.5,210.5C 151.5,212.167 151.5,213.833 151.5,215.5C 159.167,215.5 166.833,215.5 174.5,215.5C 172.167,218.167 169.833,220.833 167.5,223.5C 162.167,223.5 156.833,223.5 151.5,223.5C 151.5,228.833 151.5,234.167 151.5,239.5C 148.833,241.833 146.167,244.167 143.5,246.5C 143.5,238.833 143.5,231.167 143.5,223.5C 141.833,223.5 140.167,223.5 138.5,223.5C 125.833,223.5 113.167,223.5 100.5,223.5C 101.833,220.833 103.167,218.167 104.5,215.5C 117.5,215.5 130.5,215.5 143.5,215.5C 143.5,209.5 143.5,203.5 143.5,197.5C 146.167,195.167 148.833,192.833 151.5,190.5 Z"/></g>
<g><path style="opacity:0.993" fill="#eec58c" d="M 100.5,223.5 C 113.167,223.5 125.833,223.5 138.5,223.5C 120.167,242.167 101.833,260.833 83.5,279.5C 79.8333,279.5 76.1667,279.5 72.5,279.5C 81.8333,260.833 91.1667,242.167 100.5,223.5 Z"/></g>
<g><path style="opacity:1" fill="#eeba7b" d="M 167.5,223.5 C 180.833,223.5 194.167,223.5 207.5,223.5C 207.5,224.5 207.5,225.5 207.5,226.5C 207.5,228.167 207.5,229.833 207.5,231.5C 191.167,247.167 175.167,263.167 159.5,279.5C 157.833,279.5 156.167,279.5 154.5,279.5C 153.5,279.5 152.5,279.5 151.5,279.5C 151.5,266.167 151.5,252.833 151.5,239.5C 151.5,234.167 151.5,228.833 151.5,223.5C 156.833,223.5 162.167,223.5 167.5,223.5 Z"/></g>
<g><path style="opacity:1" fill="#eeb26e" d="M 262.5,223.5 C 247.167,239.5 231.5,255.167 215.5,270.5C 215.5,254.833 215.5,239.167 215.5,223.5C 231.167,223.5 246.833,223.5 262.5,223.5 Z"/></g>
<g><path style="opacity:1" fill="#edac64" d="M 290.5,222.5 C 296.122,225.472 301.455,228.805 306.5,232.5C 290.085,247.412 274.085,262.912 258.5,279C 244.171,279.5 229.837,279.667 215.5,279.5C 215.5,276.5 215.5,273.5 215.5,270.5C 231.5,255.167 247.167,239.5 262.5,223.5C 272.015,223.827 281.348,223.494 290.5,222.5 Z"/></g>
<g><path style="opacity:1" fill="#e39856" d="M 218.5,215.5 C 238.5,215.5 258.5,215.5 278.5,215.5C 282.5,217.833 286.5,220.167 290.5,222.5C 281.348,223.494 272.015,223.827 262.5,223.5C 246.833,223.5 231.167,223.5 215.5,223.5C 215.5,239.167 215.5,254.833 215.5,270.5C 215.5,273.5 215.5,276.5 215.5,279.5C 213.167,282.5 210.5,285.167 207.5,287.5C 188.833,287.5 170.167,287.5 151.5,287.5C 151.5,301.833 151.5,316.167 151.5,330.5C 149.151,332.341 146.485,333.674 143.5,334.5C 143.5,319.833 143.5,305.167 143.5,290.5C 147.5,287.167 151.167,283.5 154.5,279.5C 156.167,279.5 157.833,279.5 159.5,279.5C 175.5,279.5 191.5,279.5 207.5,279.5C 207.5,263.5 207.5,247.5 207.5,231.5C 207.5,229.833 207.5,228.167 207.5,226.5C 211.5,223.167 215.167,219.5 218.5,215.5 Z"/></g>
<g><path style="opacity:1" fill="#eeb572" d="M 207.5,231.5 C 207.5,247.5 207.5,263.5 207.5,279.5C 191.5,279.5 175.5,279.5 159.5,279.5C 175.167,263.167 191.167,247.167 207.5,231.5 Z"/></g>
<g><path style="opacity:1" fill="#eec084" d="M 138.5,223.5 C 140.167,223.5 141.833,223.5 143.5,223.5C 143.5,231.167 143.5,238.833 143.5,246.5C 143.5,257.5 143.5,268.5 143.5,279.5C 123.5,279.5 103.5,279.5 83.5,279.5C 101.833,260.833 120.167,242.167 138.5,223.5 Z"/></g>
<g><path style="opacity:0.983" fill="#eca55a" d="M 306.5,232.5 C 310.3,234.234 313.966,236.234 317.5,238.5C 315.449,244.936 313.115,251.269 310.5,257.5C 276.286,273.441 241.953,289.107 207.5,304.5C 207.5,298.833 207.5,293.167 207.5,287.5C 210.5,285.167 213.167,282.5 215.5,279.5C 229.837,279.667 244.171,279.5 258.5,279C 274.085,262.912 290.085,247.412 306.5,232.5 Z"/></g>
<g><path style="opacity:0.982" fill="#fef3d3" d="M 337.5,222.5 C 345.953,226.278 352.953,231.944 358.5,239.5C 341.649,248.176 325.149,257.51 309,267.5C 308.617,266.944 308.117,266.611 307.5,266.5C 308.346,263.452 309.346,260.452 310.5,257.5C 313.115,251.269 315.449,244.936 317.5,238.5C 320.399,235.048 323.066,231.382 325.5,227.5C 328.274,223.132 332.274,221.465 337.5,222.5 Z"/></g>
<g><path style="opacity:1" fill="#db9158" d="M 151.5,239.5 C 151.5,252.833 151.5,266.167 151.5,279.5C 152.5,279.5 153.5,279.5 154.5,279.5C 151.167,283.5 147.5,287.167 143.5,290.5C 143.5,289.5 143.5,288.5 143.5,287.5C 137.833,287.5 132.167,287.5 126.5,287.5C 107.167,287.5 87.8333,287.5 68.5,287.5C 69.8333,284.833 71.1667,282.167 72.5,279.5C 76.1667,279.5 79.8333,279.5 83.5,279.5C 103.5,279.5 123.5,279.5 143.5,279.5C 143.5,268.5 143.5,257.5 143.5,246.5C 146.167,244.167 148.833,241.833 151.5,239.5 Z"/></g>
<g><path style="opacity:0.99" fill="#fff0c6" d="M 358.5,239.5 C 362.922,243.587 366.589,248.254 369.5,253.5C 369.047,254.458 368.381,255.292 367.5,256C 345.738,267.965 324.404,280.465 303.5,293.5C 304.075,284.382 305.409,275.382 307.5,266.5C 308.117,266.611 308.617,266.944 309,267.5C 325.149,257.51 341.649,248.176 358.5,239.5 Z"/></g>
<g><path style="opacity:0.958" fill="#b28879" d="M 405.5,241.5 C 406.795,245.423 408.628,249.09 411,252.5C 411.49,253.793 411.657,255.127 411.5,256.5C 403.5,265.167 395.167,273.5 386.5,281.5C 384.195,277.568 381.862,273.568 379.5,269.5C 378.766,268.292 378.433,266.959 378.5,265.5C 387.5,257.5 396.5,249.5 405.5,241.5 Z"/></g>
<g><path style="opacity:0.997" fill="#feecba" d="M 369.5,253.5 C 372.5,257.5 375.5,261.5 378.5,265.5C 378.433,266.959 378.766,268.292 379.5,269.5C 358.966,281.263 338.633,293.263 318.5,305.5C 316.784,303.975 314.784,302.975 312.5,302.5C 309.256,301.537 306.256,300.204 303.5,298.5C 303.5,296.833 303.5,295.167 303.5,293.5C 324.404,280.465 345.738,267.965 367.5,256C 368.381,255.292 369.047,254.458 369.5,253.5 Z"/></g>
<g><path style="opacity:0.999" fill="#fee9b1" d="M 379.5,269.5 C 381.862,273.568 384.195,277.568 386.5,281.5C 386.5,281.833 386.5,282.167 386.5,282.5C 369.725,291.723 353.059,301.223 336.5,311C 334.35,312.411 332.016,313.245 329.5,313.5C 326.365,310.099 322.698,307.433 318.5,305.5C 338.633,293.263 358.966,281.263 379.5,269.5 Z"/></g>
<g><path style="opacity:0.993" fill="#ffe3b0" d="M 386.5,282.5 C 389.082,287.494 390.415,292.827 390.5,298.5C 388.19,303.792 385.857,309.126 383.5,314.5C 379.537,313.56 375.537,313.393 371.5,314C 365.14,317.512 358.806,321.012 352.5,324.5C 349.917,323.062 347.583,323.396 345.5,325.5C 340.536,324.289 335.536,323.289 330.5,322.5C 328.369,321.686 326.036,321.186 323.5,321C 326.118,318.894 328.118,316.394 329.5,313.5C 332.016,313.245 334.35,312.411 336.5,311C 353.059,301.223 369.725,291.723 386.5,282.5 Z"/></g>
<g><path style="opacity:0.979" fill="#fff4d9" d="M 440.5,284.5 C 449.213,284.248 457.88,284.748 466.5,286C 471.301,286.984 475.468,289.15 479,292.5C 479.884,307.665 476.384,321.665 468.5,334.5C 459.155,317.806 449.821,301.139 440.5,284.5 Z"/></g>
<g><path style="opacity:0.991" fill="#ffefcc" d="M 440.5,284.5 C 449.821,301.139 459.155,317.806 468.5,334.5C 463.369,344.632 456.702,353.632 448.5,361.5C 435.451,337.742 422.118,314.075 408.5,290.5C 418.822,287.306 429.488,285.306 440.5,284.5 Z"/></g>
<g><path style="opacity:0.996" fill="#eebe81" d="M 68.5,287.5 C 87.8333,287.5 107.167,287.5 126.5,287.5C 94.5,320.167 62.1667,352.5 29.5,384.5C 27.2475,384.084 25.7475,382.751 25,380.5C 24.3333,378.167 24.3333,375.833 25,373.5C 39.2575,344.651 53.7575,315.984 68.5,287.5 Z"/></g>
<g><path style="opacity:0.995" fill="#eeb877" d="M 126.5,287.5 C 132.167,287.5 137.833,287.5 143.5,287.5C 143.5,288.5 143.5,289.5 143.5,290.5C 143.5,305.167 143.5,319.833 143.5,334.5C 107.924,351.285 72.2576,368.119 36.5,385C 33.9615,385.796 31.6282,385.629 29.5,384.5C 62.1667,352.5 94.5,320.167 126.5,287.5 Z"/></g>
<g><path style="opacity:0.998" fill="#edb16c" d="M 207.5,287.5 C 207.5,293.167 207.5,298.833 207.5,304.5C 189.132,313.682 170.465,322.349 151.5,330.5C 151.5,316.167 151.5,301.833 151.5,287.5C 170.167,287.5 188.833,287.5 207.5,287.5 Z"/></g>
<g><path style="opacity:0.992" fill="#ffecc4" d="M 408.5,290.5 C 422.118,314.075 435.451,337.742 448.5,361.5C 445.48,364.516 442.146,367.183 438.5,369.5C 423.677,345.196 409.343,320.53 395.5,295.5C 399.414,292.86 403.748,291.193 408.5,290.5 Z"/></g>
<g><path style="opacity:0.994" fill="#ffe9bd" d="M 395.5,295.5 C 409.343,320.53 423.677,345.196 438.5,369.5C 434.21,372.985 429.543,375.985 424.5,378.5C 420.298,379.132 416.298,380.132 412.5,381.5C 407.833,381.5 403.167,381.5 398.5,381.5C 399.5,378.833 400.5,376.167 401.5,373.5C 403.091,370.039 403.758,366.372 403.5,362.5C 403.5,359.833 403.5,357.167 403.5,354.5C 403.736,351.391 403.403,348.391 402.5,345.5C 401.917,340.356 400.25,335.69 397.5,331.5C 395.002,324.006 390.336,318.34 383.5,314.5C 385.857,309.126 388.19,303.792 390.5,298.5C 392.411,297.925 394.078,296.925 395.5,295.5 Z"/></g>
<g><path style="opacity:0.993" fill="#ffefce" d="M 295.5,297.5 C 295.611,298.117 295.944,298.617 296.5,299C 275.913,319.085 255.913,339.585 236.5,360.5C 231.606,358.227 227.273,355.227 223.5,351.5C 239.809,333.524 256.809,316.191 274.5,299.5C 281.391,297.918 288.391,297.252 295.5,297.5 Z"/></g>
<g><path style="opacity:0.997" fill="#ffeac5" d="M 295.5,297.5 C 298.206,297.575 300.873,297.908 303.5,298.5C 306.256,300.204 309.256,301.537 312.5,302.5C 312.611,303.117 312.944,303.617 313.5,304C 292.915,325.087 271.915,345.587 250.5,365.5C 245.688,364.23 241.022,362.563 236.5,360.5C 255.913,339.585 275.913,319.085 296.5,299C 295.944,298.617 295.611,298.117 295.5,297.5 Z"/></g>
<g><path style="opacity:0.951" fill="#fff5db" d="M 274.5,299.5 C 256.809,316.191 239.809,333.524 223.5,351.5C 214.902,345.211 212.736,337.211 217,327.5C 233.679,313.245 252.846,303.911 274.5,299.5 Z"/></g>
<g><path style="opacity:0.995" fill="#fee4b8" d="M 312.5,302.5 C 314.784,302.975 316.784,303.975 318.5,305.5C 322.698,307.433 326.365,310.099 329.5,313.5C 328.118,316.394 326.118,318.894 323.5,321C 326.036,321.186 328.369,321.686 330.5,322.5C 319.801,321.181 312.468,325.515 308.5,335.5C 307.5,340.835 306.5,346.168 305.5,351.5C 303.431,356.159 303.097,360.825 304.5,365.5C 304.56,368.341 305.226,371.007 306.5,373.5C 306.5,374.167 306.5,374.833 306.5,375.5C 300.156,374.888 293.823,374.221 287.5,373.5C 281.833,372.833 276.167,372.167 270.5,371.5C 263.658,369.794 256.992,367.794 250.5,365.5C 271.915,345.587 292.915,325.087 313.5,304C 312.944,303.617 312.611,303.117 312.5,302.5 Z"/></g>
<g><path style="opacity:1" fill="#fff7e7" d="M 352.5,324.5 C 352.721,327.067 353.388,329.401 354.5,331.5C 355.296,336.147 355.963,340.814 356.5,345.5C 356.5,348.5 356.5,351.5 356.5,354.5C 355.879,357.857 353.879,359.024 350.5,358C 348.098,355.329 346.098,352.495 344.5,349.5C 343.016,344.967 342.35,340.301 342.5,335.5C 343.192,332.064 344.192,328.73 345.5,325.5C 347.583,323.396 349.917,323.062 352.5,324.5 Z"/></g>
<g><path style="opacity:1" fill="#fff3b8" d="M 330.5,322.5 C 335.536,323.289 340.536,324.289 345.5,325.5C 344.192,328.73 343.192,332.064 342.5,335.5C 331.167,335.5 319.833,335.5 308.5,335.5C 312.468,325.515 319.801,321.181 330.5,322.5 Z"/></g>
<g><path style="opacity:1" fill="#fff6be" d="M 383.5,314.5 C 390.336,318.34 395.002,324.006 397.5,331.5C 383.167,331.5 368.833,331.5 354.5,331.5C 353.388,329.401 352.721,327.067 352.5,324.5C 358.806,321.012 365.14,317.512 371.5,314C 375.537,313.393 379.537,313.56 383.5,314.5 Z"/></g>
<g><path style="opacity:1" fill="#ffeca5" d="M 354.5,331.5 C 368.833,331.5 383.167,331.5 397.5,331.5C 400.25,335.69 401.917,340.356 402.5,345.5C 387.167,345.5 371.833,345.5 356.5,345.5C 355.963,340.814 355.296,336.147 354.5,331.5 Z"/></g>
<g><path style="opacity:1" fill="#ffe99e" d="M 308.5,335.5 C 319.833,335.5 331.167,335.5 342.5,335.5C 342.35,340.301 343.016,344.967 344.5,349.5C 331.252,348.882 318.252,349.548 305.5,351.5C 306.5,346.168 307.5,340.835 308.5,335.5 Z"/></g>
<g><path style="opacity:1" fill="#ffe594" d="M 356.5,345.5 C 371.833,345.5 387.167,345.5 402.5,345.5C 403.403,348.391 403.736,351.391 403.5,354.5C 387.833,354.5 372.167,354.5 356.5,354.5C 356.5,351.5 356.5,348.5 356.5,345.5 Z"/></g>
<g><path style="opacity:1" fill="#ffe089" d="M 344.5,349.5 C 346.098,352.495 348.098,355.329 350.5,358C 353.879,359.024 355.879,357.857 356.5,354.5C 372.167,354.5 387.833,354.5 403.5,354.5C 403.5,357.167 403.5,359.833 403.5,362.5C 370.5,362.5 337.5,362.5 304.5,362.5C 304.5,363.5 304.5,364.5 304.5,365.5C 303.097,360.825 303.431,356.159 305.5,351.5C 318.252,349.548 331.252,348.882 344.5,349.5 Z"/></g>
<g><path style="opacity:1" fill="#ffdc81" d="M 403.5,362.5 C 403.758,366.372 403.091,370.039 401.5,373.5C 369.833,373.5 338.167,373.5 306.5,373.5C 305.226,371.007 304.56,368.341 304.5,365.5C 304.5,364.5 304.5,363.5 304.5,362.5C 337.5,362.5 370.5,362.5 403.5,362.5 Z"/></g>
<g><path style="opacity:1" fill="#ffd886" d="M 306.5,373.5 C 338.167,373.5 369.833,373.5 401.5,373.5C 400.5,376.167 399.5,378.833 398.5,381.5C 397.833,381.833 397.167,382.167 396.5,382.5C 368.167,382.5 339.833,382.5 311.5,382.5C 309.588,380.343 307.921,378.009 306.5,375.5C 306.5,374.833 306.5,374.167 306.5,373.5 Z"/></g>
<g><path style="opacity:0.955" fill="#b7947e" d="M 270.5,371.5 C 276.167,372.167 281.833,372.833 287.5,373.5C 284.167,379.5 280.833,385.5 277.5,391.5C 276.833,391.5 276.5,391.833 276.5,392.5C 270.5,397.5 264.5,402.5 258.5,407.5C 256.86,402.217 254.194,397.551 250.5,393.5C 257.536,386.466 264.203,379.133 270.5,371.5 Z"/></g>
<g><path style="opacity:0.991" fill="#fff5d6" d="M 424.5,378.5 C 431.695,386.358 437.695,395.025 442.5,404.5C 426.368,421.132 410.035,437.632 393.5,454C 394.056,454.383 394.389,454.883 394.5,455.5C 381.308,450.414 369.641,443.081 359.5,433.5C 377.783,416.885 395.449,399.552 412.5,381.5C 416.298,380.132 420.298,379.132 424.5,378.5 Z"/></g>
<g><path style="opacity:0.995" fill="#fef1c8" d="M 287.5,373.5 C 293.823,374.221 300.156,374.888 306.5,375.5C 307.921,378.009 309.588,380.343 311.5,382.5C 315.568,390.233 321.901,394.9 330.5,396.5C 336.57,395.321 342.57,393.821 348.5,392C 360.177,391.682 371.843,391.682 383.5,392C 389.117,390.544 393.45,387.378 396.5,382.5C 397.167,382.167 397.833,381.833 398.5,381.5C 403.167,381.5 407.833,381.5 412.5,381.5C 395.449,399.552 377.783,416.885 359.5,433.5C 356.5,430.833 353.5,428.167 350.5,425.5C 351.702,421.422 353.202,417.422 355,413.5C 355.953,410.568 356.453,407.568 356.5,404.5C 328.5,404.5 300.5,404.5 272.5,404.5C 274.033,400.567 275.367,396.567 276.5,392.5C 277.167,392.5 277.5,392.167 277.5,391.5C 280.833,385.5 284.167,379.5 287.5,373.5 Z"/></g>
<g><path style="opacity:1" fill="#ffd28e" d="M 311.5,382.5 C 339.833,382.5 368.167,382.5 396.5,382.5C 393.45,387.378 389.117,390.544 383.5,392C 371.843,391.682 360.177,391.682 348.5,392C 342.57,393.821 336.57,395.321 330.5,396.5C 321.901,394.9 315.568,390.233 311.5,382.5 Z"/></g>
<g><path style="opacity:0.992" fill="#ffeecf" d="M 442.5,404.5 C 446.85,411.55 449.85,419.217 451.5,427.5C 440.896,438.605 430.063,449.605 419,460.5C 418.536,461.094 418.369,461.761 418.5,462.5C 410.201,461.093 402.201,458.76 394.5,455.5C 394.389,454.883 394.056,454.383 393.5,454C 410.035,437.632 426.368,421.132 442.5,404.5 Z"/></g>
<g><path style="opacity:0.968" fill="#ad7b73" d="M 222.5,418.5 C 223.908,422.974 225.575,427.307 227.5,431.5C 213.281,439.283 198.947,439.45 184.5,432C 176.386,427.272 174.553,420.772 179,412.5C 189.311,405.456 196.644,407.789 201,419.5C 204.761,422.243 208.928,423.076 213.5,422C 216.521,420.82 219.521,419.654 222.5,418.5 Z"/></g>
<g><path style="opacity:0.953" fill="#b38978" d="M 250.5,393.5 C 254.194,397.551 256.86,402.217 258.5,407.5C 249.334,416.999 239,424.999 227.5,431.5C 225.575,427.307 223.908,422.974 222.5,418.5C 232.403,410.937 241.737,402.604 250.5,393.5 Z"/></g>
<g><path style="opacity:0.984" fill="#ffe7c3" d="M 451.5,427.5 C 454.266,438.244 454.099,448.911 451,459.5C 448.958,461.604 446.458,462.771 443.5,463C 435.132,463.74 426.798,463.574 418.5,462.5C 418.369,461.761 418.536,461.094 419,460.5C 430.063,449.605 440.896,438.605 451.5,427.5 Z"/></g>
<g><path style="opacity:0.988" fill="#fff4d6" d="M 272.5,404.5 C 300.5,404.5 328.5,404.5 356.5,404.5C 356.453,407.568 355.953,410.568 355,413.5C 353.202,417.422 351.702,421.422 350.5,425.5C 344.58,433.758 337.913,441.425 330.5,448.5C 309.424,448.821 288.424,448.488 267.5,447.5C 266.641,432.85 268.308,418.517 272.5,404.5 Z"/></g>
<g><path style="opacity:0.984" fill="#ffeac7" d="M 267.5,447.5 C 288.424,448.488 309.424,448.821 330.5,448.5C 320.108,459.72 308.108,468.887 294.5,476C 289.755,478.438 284.755,479.438 279.5,479C 274.649,474.144 271.483,468.311 270,461.5C 269.118,456.821 268.285,452.154 267.5,447.5 Z"/></g>
</svg>
