<?xml version="1.0" encoding="UTF-8"?>
<svg version="1.1" xmlns="http://www.w3.org/2000/svg" width="512" height="512">
<path d="M0 0 C0.65484375 0.39703125 1.3096875 0.7940625 1.984375 1.203125 C11.53108003 7.64160049 18.31254165 18.26581589 20.75 29.4375 C22.86929644 42.36520826 21.67389585 55.00858034 14.5703125 66.265625 C9.30738273 73.46752889 2.42236065 80.05175957 -5 85 C-4.44719887 88.99859483 -2.46604577 90.98807717 0.25 93.875 C1.05953125 94.75414063 1.8690625 95.63328125 2.703125 96.5390625 C4.02307545 97.95329513 5.34487107 99.36582118 6.671875 100.7734375 C9.6220648 104.05335439 11.09516047 106.52745774 11 111 C8.44130778 114.6611702 5.55186346 117.36499221 2.0625 120.125 C0.61037109 121.28902344 0.61037109 121.28902344 -0.87109375 122.4765625 C-1.38140137 122.88551758 -1.89170898 123.29447266 -2.41748047 123.71582031 C-5.14931948 125.9326474 -7.82215569 128.21850527 -10.5 130.5 C-14.44606921 133.85496935 -18.41643672 137.17223129 -22.4375 140.4375 C-27.38140513 144.46076591 -32.22708932 148.59010357 -37.05444336 152.75170898 C-40.67349684 155.8712208 -44.32168645 158.95050556 -48 162 C-44.62129086 164.8843417 -40.97086247 166.35918849 -36.828125 167.8046875 C-36.09555481 168.06144257 -35.36298462 168.31819763 -34.60821533 168.58273315 C-22.78803243 172.57135139 -10.52189358 175.10638466 1.62158203 177.90087891 C4.8806636 178.65450887 8.13566694 179.42409952 11.390625 180.1953125 C12.38330383 180.41833038 13.37598267 180.64134827 14.39874268 180.87112427 C19.4774457 182.08121535 23.24099636 183.1414649 27 187 C28.95206424 190.90412848 28.87354614 194.77786035 28 199 C25.85876963 202.52828353 23.21337207 205.46293492 20.40332031 208.47558594 C17.89317585 211.20233299 15.5234406 214.05022173 13.125 216.875 C12.10126588 218.0698726 11.07652276 219.26388145 10.05078125 220.45703125 C9.29015381 221.34189209 9.29015381 221.34189209 8.51416016 222.24462891 C7.04972535 223.94235323 5.57806391 225.633573 4.10546875 227.32421875 C-3.11811774 235.66587554 -9.64639848 244.36888354 -15.32421875 253.84765625 C-35.33922484 287.2005712 -64.7831466 305.55431908 -102 315 C-101.38253906 315.63164062 -100.76507813 316.26328125 -100.12890625 316.9140625 C-76.15040031 342.24295615 -65.99051503 374.37786896 -66.86352539 408.85058594 C-66.96935823 411.29288227 -67.11540596 413.71968344 -67.29077148 416.15722656 C-68.11970394 428.17288031 -67.61876423 439.76413362 -66.5625 451.75 C-64.85588084 471.73866156 -64.85588084 471.73866156 -64.65234375 480.453125 C-64.62003662 481.60458008 -64.58772949 482.75603516 -64.55444336 483.94238281 C-65.10205416 487.70034319 -66.37852175 489.30693627 -69 492 C-73.28419109 494.61811678 -77.2677521 493.9704307 -82 493 C-84.90445324 492.05100614 -87.67029795 490.85364426 -90.4609375 489.61328125 C-91.2503775 489.27378952 -92.0398175 488.93429779 -92.85317993 488.58451843 C-95.36476048 487.5034909 -97.87030027 486.4093657 -100.375 485.3125 C-115.85730335 478.553332 -131.34810303 472.38797659 -147.8125 468.4375 C-179.46513014 460.38205438 -205.41181631 441.60507307 -223 414 C-224.36473384 411.68254922 -225.68694305 409.34749684 -227 407 C-229.62145397 410.1682949 -231.8574669 413.33287466 -233.9375 416.875 C-251.61741345 444.84620635 -279.49254254 462.43045273 -311.25 470 C-330.4716958 474.60265173 -348.50753808 482.74815738 -366.60620117 490.55566406 C-368.19718628 491.23580566 -368.19718628 491.23580566 -369.8203125 491.9296875 C-371.17600342 492.5172583 -371.17600342 492.5172583 -372.55908203 493.11669922 C-377.34652297 494.84914184 -381.16963262 494.8356025 -385.875 492.6875 C-388 491 -388 491 -390 488 C-390.17631534 485.3552699 -390.23310679 482.82984362 -390.1875 480.1875 C-390.18105469 479.41229004 -390.17460937 478.63708008 -390.16796875 477.83837891 C-390.04229271 467.88444352 -389.52622269 457.93945095 -389 448 C-390.32451172 449.14275391 -390.32451172 449.14275391 -391.67578125 450.30859375 C-398.12962197 455.8653895 -404.62054788 461.35930318 -411.23046875 466.73046875 C-416.54441666 471.08505794 -421.76526766 475.55078435 -427 480 C-434.93622408 486.74532527 -442.87629389 493.48017166 -451 500 C-451.66902344 500.56203125 -452.33804687 501.1240625 -453.02734375 501.703125 C-455.70173547 503.83327508 -457.37484109 504.99914244 -460.84765625 505.00390625 C-465.03083174 503.67171777 -467.01299971 501.15866421 -469.625 497.8125 C-470.32109375 496.96461914 -470.32109375 496.96461914 -471.03125 496.09960938 C-472.38984456 494.42439321 -473.699464 492.72053204 -475 491 C-475.79148437 489.97261719 -476.58296875 488.94523437 -477.3984375 487.88671875 C-479 485 -479 485 -479.0859375 482.453125 C-477.61017864 479.11939636 -475.33668026 477.07939293 -472.625 474.75 C-471.82666748 474.04145874 -471.82666748 474.04145874 -471.01220703 473.31860352 C-466.50366432 469.34882167 -461.86684227 465.53386054 -457.1796875 461.77734375 C-454.96611041 460.03354816 -454.96611041 460.03354816 -453 458 C-453.80824219 457.07058594 -454.61648438 456.14117187 -455.44921875 455.18359375 C-456.5288027 453.93503145 -457.60822093 452.68632585 -458.6875 451.4375 C-459.48317383 450.52387695 -459.48317383 450.52387695 -460.29492188 449.59179688 C-461.88671157 447.74610208 -463.45000872 445.88090484 -465 444 C-465.50998535 443.38914551 -466.0199707 442.77829102 -466.54541016 442.14892578 C-468.56612026 439.57044097 -469.95929818 437.71549518 -470.1484375 434.390625 C-468.58675488 431.13977546 -466.31439263 429.06011931 -463.625 426.75 C-462.81361572 426.03058228 -462.81361572 426.03058228 -461.98583984 425.29663086 C-457.72176323 421.54456695 -453.33711241 417.9415646 -448.9140625 414.37890625 C-445.56017662 411.64094847 -442.27810205 408.82780112 -439 406 C-433.98432907 401.6779929 -428.90823728 397.44520013 -423.76953125 393.26953125 C-418.45558334 388.91494206 -413.23473234 384.44921565 -408 380 C-403.67470385 376.32375181 -399.34495551 372.65300614 -395 369 C-394.48066895 368.56316895 -393.96133789 368.12633789 -393.42626953 367.67626953 C-391.9340704 366.42515779 -390.43589343 365.18118644 -388.9375 363.9375 C-388.08027344 363.22464844 -387.22304688 362.51179688 -386.33984375 361.77734375 C-384 360 -384 360 -381.765625 358.98046875 C-378.97783557 357.43238214 -378.95002321 354.82977252 -378.07421875 351.93359375 C-373.95187447 340.67584628 -366.88565993 331.08583949 -359.16650391 322.05249023 C-358.62558105 321.41899658 -358.0846582 320.78550293 -357.52734375 320.1328125 C-357.03999756 319.57480957 -356.55265137 319.01680664 -356.05053711 318.44189453 C-354.80371229 317.02792391 -354.80371229 317.02792391 -355 315 C-356.16273438 314.731875 -357.32546875 314.46375 -358.5234375 314.1875 C-382.86035048 308.33340956 -403.20429221 297.6192631 -421 280 C-421.66257812 279.39800781 -422.32515625 278.79601562 -423.0078125 278.17578125 C-431.25079564 270.56539914 -437.16156962 260.4579372 -442.9375 250.9375 C-447.25117415 243.85851937 -452.20539433 237.68679847 -457.69482422 231.49511719 C-459.73797968 229.1546226 -461.67655485 226.73196059 -463.625 224.3125 C-466.53071773 220.73742943 -469.52032547 217.27860435 -472.625 213.875 C-474.08336973 212.25003267 -475.54170426 210.62503373 -477 209 C-477.69996094 208.24976563 -478.39992188 207.49953125 -479.12109375 206.7265625 C-483.24862216 201.9927774 -484.77089276 198.6758747 -484.63671875 192.359375 C-483.76858987 189.1425048 -482.26064478 187.43592579 -480 185 C-477.51708984 183.8190918 -477.51708984 183.8190918 -474.5859375 183.01171875 C-473.43061523 182.68993652 -472.27529297 182.3681543 -471.08496094 182.03662109 C-464.53346437 180.35091911 -457.95670603 178.76671874 -451.37744141 177.19360352 C-434.40773915 173.12962955 -418.20714666 168.78879031 -402.14550781 161.88671875 C-370.91579943 148.97976599 -336.24375307 154.49178114 -306 167 C-306.0611499 166.1495813 -306.0611499 166.1495813 -306.12353516 165.28198242 C-308.46676968 130.93182323 -302.18428881 97.36773962 -279.1171875 70.58984375 C-277.61601861 68.87517418 -276.10724395 67.16740732 -274.59814453 65.4597168 C-264.50033429 53.85766996 -256.88663815 40.26661954 -248.95214844 27.15380859 C-245.81077096 21.96428119 -242.66633557 16.78356419 -239.375 11.6875 C-238.52035156 10.36298828 -238.52035156 10.36298828 -237.6484375 9.01171875 C-234.80243613 5.53851803 -232.54889109 5.06197157 -228.125 4.5625 C-225.10477218 4.37297153 -223.8697216 5.08061324 -221.25390625 6.69921875 C-216.72618811 10.72251323 -213.93529612 16.20006707 -210.91012573 21.37384033 C-209.4250277 23.91230216 -207.9145429 26.43529274 -206.40498352 28.95925903 C-205.65292815 30.21693389 -204.90201508 31.47529254 -204.15226746 32.73434448 C-196.77643841 45.11180383 -189.10324709 56.87869795 -179.6015625 67.7421875 C-167.62640986 81.63336456 -159.58474901 96.98477945 -154.25 114.5625 C-153.95174316 115.53388916 -153.95174316 115.53388916 -153.64746094 116.52490234 C-150.39031269 127.84670496 -149.71478431 139.08594415 -149.875 150.8125 C-149.88402344 152.08931641 -149.89304687 153.36613281 -149.90234375 154.68164062 C-149.92561211 157.78796716 -149.95829845 160.89387572 -150 164 C-149.3390332 163.40034424 -148.67806641 162.80068848 -147.99707031 162.18286133 C-143.65370127 158.25547357 -139.3248487 154.34586411 -134.75 150.6875 C-130.43549115 147.19567292 -126.20290489 143.62423581 -122 140 C-117.01074306 135.7001015 -111.95778266 131.49514122 -106.84375 127.34375 C-103.52313514 124.60697951 -100.25953218 121.8089705 -97 119 C-92.01059233 114.70027287 -86.95778844 110.49514591 -81.84375 106.34375 C-78.52313406 103.60697862 -75.25956291 100.80893615 -72 98 C-66.98408311 93.67827137 -61.90824701 89.44520804 -56.76953125 85.26953125 C-51.45558334 80.91494206 -46.23473234 76.44921565 -41 72 C-38.79262849 70.12386361 -36.58445445 68.24868308 -34.375 66.375 C-33.57292114 65.69449585 -33.57292114 65.69449585 -32.75463867 65.00024414 C-28.33417653 61.26006034 -23.85159467 57.60241075 -19.33984375 53.97265625 C-13.80316065 49.40461635 -13.80316065 49.40461635 -11.76171875 42.73046875 C-11.63584173 38.4175245 -11.75201677 35.5455631 -13.5625 31.5625 C-17.00016903 27.94854026 -20.05085566 26.45016293 -24.99609375 25.6953125 C-32.20830831 25.66884566 -37.01100561 30.37409399 -42.27734375 34.75 C-47.450082 39.02474495 -52.47994551 38.58885309 -59 38 C-63.97491173 35.86789497 -66.18288098 32.89731676 -68.3046875 28.07421875 C-69.88595986 23.35705233 -69.2811593 19.93719767 -67.875 15.25 C-62.5112413 5.42282781 -48.93020095 -2.6222045 -38.55078125 -5.734375 C-25.37281688 -8.79613124 -11.61425118 -7.12470871 0 0 Z " fill="#FBE7C1" transform="translate(484,7)"/>
<path d="M0 0 C6.62551346 0.81824523 9.06195633 4.95825918 13 10 C19.80956157 18.89432359 25.86449331 28.15965854 31.4375 37.875 C31.9212207 38.71772461 32.40494141 39.56044922 32.90332031 40.42871094 C42 56.61814574 42 56.61814574 42 61 C42.804375 61.01417969 43.60875 61.02835938 44.4375 61.04296875 C60.89762254 61.71075881 77.69743328 64.96307062 92.94067383 71.2956543 C103.20719272 75.23365252 114.30677629 69.4467124 124.1875 66.1875 C125.50829787 65.75665324 126.82926087 65.32631237 128.15039062 64.89648438 C129.46880393 64.46631109 130.78716341 64.03597278 132.10546875 63.60546875 C132.75538788 63.39356903 133.40530701 63.18166931 134.07492065 62.96334839 C137.42508966 61.8653825 140.76126777 60.73827038 144.08447266 59.56103516 C144.75013748 59.32886795 145.41580231 59.09670074 146.10163879 58.85749817 C147.93418359 58.21656154 149.76277289 57.56434723 151.59106445 56.91137695 C155.24215925 55.93525886 158.23744227 55.7222541 162 56 C164.4375 57.625 164.4375 57.625 166 60 C166.47524901 63.25885034 166.47677807 65.14999838 164.85571289 68.04003906 C162.41747337 70.61525112 160.23724514 71.27232969 156.87109375 72.359375 C155.67162109 72.75253906 154.47214844 73.14570313 153.23632812 73.55078125 C151.98271484 73.94652344 150.72910156 74.34226562 149.4375 74.75 C148.16693264 75.1641852 146.89674521 75.57953781 145.62695312 75.99609375 C136.35077087 79 136.35077087 79 134 79 C133.9071875 80.670625 133.9071875 80.670625 133.8125 82.375 C131.55233391 99.78438746 114.88064426 116.3733893 103.8125 129.375 C103.05259766 130.27387939 103.05259766 130.27387939 102.27734375 131.19091797 C99.61610434 134.29192371 96.94316231 136.93256848 93.75 139.5 C91.20678158 141.87079683 91.00367584 142.9689787 90.58203125 146.52734375 C90.56444068 150.04897595 90.69355422 153.49289827 91 157 C95.12515004 156.68946109 99.25008975 156.37620677 103.375 156.0625 C104.53128906 155.97548828 105.68757813 155.88847656 106.87890625 155.79882812 C108.01972656 155.71181641 109.16054688 155.62480469 110.3359375 155.53515625 C111.46281982 155.45088379 112.58970215 155.36661133 113.75073242 155.27978516 C117.50431488 154.95657488 121.22847475 154.48385853 124.95581055 153.93725586 C127.55045237 154.01689553 128.5298686 154.78803081 130.4375 156.5 C131.66768493 157.96519667 132.84795723 159.47259903 134 161 C134.86438706 162.08218805 135.72898731 163.16420584 136.59375 164.24609375 C153.73583192 186.20212955 163.25329631 212.99193567 163.125 240.875 C163.12886719 241.67679688 163.13273437 242.47859375 163.13671875 243.3046875 C163.13014613 247.616328 163.02124149 251.90022909 162.71801758 256.20117188 C161.89184027 268.20482209 162.38222413 279.77534899 163.4375 291.75 C165.14411916 311.73866156 165.14411916 311.73866156 165.34765625 320.453125 C165.37996338 321.60458008 165.41227051 322.75603516 165.44555664 323.94238281 C164.89794584 327.70034319 163.62147825 329.30693627 161 332 C156.71580891 334.61811678 152.7322479 333.9704307 148 333 C145.09554676 332.05100614 142.32970205 330.85364426 139.5390625 329.61328125 C138.7496225 329.27378952 137.9601825 328.93429779 137.14682007 328.58451843 C134.63523952 327.5034909 132.12969973 326.4093657 129.625 325.3125 C114.14269665 318.553332 98.65189697 312.38797659 82.1875 308.4375 C50.53486986 300.38205438 24.58818369 281.60507307 7 254 C5.63526616 251.68254922 4.31305695 249.34749684 3 247 C0.37854603 250.1682949 -1.8574669 253.33287466 -3.9375 256.875 C-21.61741345 284.84620635 -49.49254254 302.43045273 -81.25 310 C-100.4716958 314.60265173 -118.50753808 322.74815738 -136.60620117 330.55566406 C-138.19718628 331.23580566 -138.19718628 331.23580566 -139.8203125 331.9296875 C-141.17600342 332.5172583 -141.17600342 332.5172583 -142.55908203 333.11669922 C-147.34652297 334.84914184 -151.16963262 334.8356025 -155.875 332.6875 C-158.26139939 330.79241813 -159.84694464 329.20567631 -160.24291992 326.08642578 C-160.23881104 325.3798584 -160.23470215 324.67329102 -160.23046875 323.9453125 C-160.22853516 323.16542969 -160.22660156 322.38554687 -160.22460938 321.58203125 C-160.21236328 320.77121094 -160.20011719 319.96039063 -160.1875 319.125 C-160.18685547 318.32191406 -160.18621094 317.51882813 -160.18554688 316.69140625 C-160.17404082 315.13936684 -160.13944691 313.58728544 -160.07910156 312.03637695 C-160.01621301 310.41738493 -160.0249866 308.79564565 -160.05859375 307.17578125 C-158.14302612 303.23861827 -153.81299628 302.46573517 -149.875 301.0625 C-148.02975409 300.37030815 -146.1847033 299.67759594 -144.33984375 298.984375 C-142.97061768 298.48067383 -142.97061768 298.48067383 -141.57373047 297.96679688 C-139.35858964 297.13470072 -137.17929851 296.25794337 -135.00390625 295.328125 C-124.01482026 290.65806436 -112.69153388 287.80075678 -101.08984375 285.08203125 C-69.50828769 277.3470833 -46.42199498 257.90896958 -28.6875 231.3125 C-28.10005005 230.44842529 -28.10005005 230.44842529 -27.50073242 229.56689453 C-25.40771877 226.43778278 -25.40771877 226.43778278 -25.40942383 222.81713867 C-25.60431396 222.21748291 -25.7992041 221.61782715 -26 221 C-32.28152619 222.26228497 -38.24925943 224.01086352 -44.3125 226.0625 C-52.48837996 228.73963574 -60.35208337 230.66489057 -69.01953125 229.64453125 C-72.2229363 229.7178573 -72.2229363 229.7178573 -74.4921875 232.45703125 C-75.30558834 233.56168693 -76.09897982 234.68127156 -76.875 235.8125 C-77.30208252 236.39547852 -77.72916504 236.97845703 -78.16918945 237.57910156 C-80.24744578 240.43162543 -82.22351768 243.33668103 -84.17578125 246.27734375 C-89.17487669 253.66435662 -89.17487669 253.66435662 -93.6875 255.5 C-97 255 -97 255 -99.9375 252.9375 C-102.43862481 249.37529194 -102.62142042 248.27477112 -102 244 C-100.39332952 241.02918262 -98.37219662 238.41987992 -96.3125 235.75 C-95.11936092 234.15396776 -93.92666565 232.55760365 -92.734375 230.9609375 C-92.11755859 230.14463867 -91.50074219 229.32833984 -90.86523438 228.48730469 C-87.87030261 224.49353965 -84.97071106 220.43209714 -82.0625 216.375 C-78.49945134 211.42050747 -74.89616798 206.50490756 -71.19702148 201.65087891 C-69.07272665 198.72114575 -68.90396634 197.00115624 -69.0078125 193.43359375 C-69.22822588 182.34133752 -68.98128551 171.5224977 -67.625 160.5 C-67.49883301 159.46931396 -67.37266602 158.43862793 -67.24267578 157.37670898 C-66.66989863 153.02653446 -66.01200714 148.82364754 -64.8359375 144.59375 C-63.75809864 140.17352892 -63.75809864 140.17352892 -65 136 C-67.09080796 133.64441382 -69.43420649 131.62188861 -71.8125 129.5625 C-85.82697254 116.94046969 -101.15140373 100.38613098 -109 83 C-109 81.68 -109 80.36 -109 79 C-94.26190806 72.11693418 -79.71450516 67.68830337 -63.8125 64.3125 C-62.77971924 64.08530273 -61.74693848 63.85810547 -60.68286133 63.62402344 C-56.31511865 62.70243777 -52.21824945 61.84632996 -47.7421875 62.05078125 C-43.645684 62.13631264 -41.56046471 62.08085207 -38 60 C-33.69952367 53.94337598 -31.17927667 46.79133698 -28.33544922 39.97753906 C-26.39705645 35.65566737 -24.00210751 31.74471031 -21.375 27.8125 C-20.91875244 27.12929687 -20.46250488 26.44609375 -19.99243164 25.7421875 C-13.86380011 16.72696941 -7.36410841 8.05079376 0 0 Z " fill="#F9E1C0" transform="translate(254,167)"/>
<path d="M0 0 C6.62551346 0.81824523 9.06195633 4.95825918 13 10 C19.80956157 18.89432359 25.86449331 28.15965854 31.4375 37.875 C31.9212207 38.71772461 32.40494141 39.56044922 32.90332031 40.42871094 C42 56.61814574 42 56.61814574 42 61 C42.804375 61.01417969 43.60875 61.02835938 44.4375 61.04296875 C67.83710212 61.99229471 92.10291819 68.38017154 113 79 C110.71881552 98.56115692 86.09171857 120.96393283 72 134 C71.01 134.66 70.02 135.32 69 136 C68.5646919 141.65287414 69.34006276 146.84187458 70.4375 152.375 C72.63610597 163.65206028 73.15901885 174.56979805 73.125 186.0625 C73.12886719 187.37283203 73.13273438 188.68316406 73.13671875 190.03320312 C73.11772724 208.88227276 73.11772724 208.88227276 71 211 C62.66232854 211.06139378 55.06362527 208.79733276 47.25 206.125 C46.0856543 205.73223877 44.92130859 205.33947754 43.72167969 204.93481445 C30.82025225 200.44663799 17.71292671 195.04320202 6.234375 187.55078125 C3.14877779 185.69447663 3.14877779 185.69447663 0.09765625 186.4609375 C-3.8465937 188.42062789 -7.71004042 190.4915151 -11.5625 192.625 C-21.69345398 198.09328834 -32.14225305 202.21713905 -43 206 C-43.99483398 206.35215576 -43.99483398 206.35215576 -45.00976562 206.71142578 C-52.32900134 209.27237211 -59.2469528 210.68925663 -67 211 C-75.09050232 194.81899536 -69.46923584 161.2580499 -64.8359375 144.59375 C-63.75809864 140.17352892 -63.75809864 140.17352892 -65 136 C-67.09080796 133.64441382 -69.43420649 131.62188861 -71.8125 129.5625 C-85.82697254 116.94046969 -101.15140373 100.38613098 -109 83 C-109 81.68 -109 80.36 -109 79 C-94.26190806 72.11693418 -79.71450516 67.68830337 -63.8125 64.3125 C-62.77971924 64.08530273 -61.74693848 63.85810547 -60.68286133 63.62402344 C-56.31511865 62.70243777 -52.21824945 61.84632996 -47.7421875 62.05078125 C-43.645684 62.13631264 -41.56046471 62.08085207 -38 60 C-33.69952367 53.94337598 -31.17927667 46.79133698 -28.33544922 39.97753906 C-26.39705645 35.65566737 -24.00210751 31.74471031 -21.375 27.8125 C-20.91875244 27.12929687 -20.46250488 26.44609375 -19.99243164 25.7421875 C-13.86380011 16.72696941 -7.36410841 8.05079376 0 0 Z " fill="#FEF4C5" transform="translate(254,167)"/>
<path d="M0 0 C1.12588014 0.95729916 2.2506715 1.91587895 3.375 2.875 C4.00148437 3.40867187 4.62796875 3.94234375 5.2734375 4.4921875 C8.96346436 7.71469965 8.96346436 7.71469965 9.265625 10.07421875 C9.23455545 15.27060073 8.84861683 20.18442974 8 25.3125 C6.84751119 33.2491428 6.80858709 41.11282994 6.8125 49.125 C6.8115332 51.01859253 6.8115332 51.01859253 6.81054688 52.95043945 C6.27554715 68.1743186 6.27554715 68.1743186 10.8125 82.25 C11.921875 84.90625 11.921875 84.90625 12 88 C9.48251235 93.57405189 5.43363675 98.30403038 1.59985352 103.01831055 C-3.08431948 108.55231677 -3.08431948 108.55231677 -5.5625 115.1875 C-5.16334213 118.07073455 -5.16334213 118.07073455 -3.4375 120.4375 C-1.0272953 122.27060416 -1.0272953 122.27060416 2.23828125 122.140625 C7.74792771 120.46999492 9.56087996 116.99298001 12.625 112.3125 C13.71943145 110.7031179 14.81575272 109.09501912 15.9140625 107.48828125 C16.43798584 106.72177246 16.96190918 105.95526367 17.50170898 105.16552734 C23.01280305 97.20016897 23.01280305 97.20016897 26.54296875 96.484375 C27.41566406 96.57203125 28.28835937 96.6596875 29.1875 96.75 C39.15120565 97.25148452 47.85257108 94.21441369 57.22460938 91.12060547 C65.78975719 88.31641395 65.78975719 88.31641395 70 88 C70.66 88.66 71.32 89.32 72 90 C71.90475577 95.18128609 68.54576593 98.97779894 65.625 103 C64.81470337 104.12559326 64.81470337 104.12559326 63.98803711 105.27392578 C44.04681919 132.66798095 19.78180353 149.15567823 -13.70605469 156.07177734 C-23.91062231 158.2533319 -33.38386814 162.01222751 -43 166 C-43.83096191 166.34450195 -44.66192383 166.68900391 -45.51806641 167.04394531 C-46.3332373 167.38264648 -47.1484082 167.72134766 -47.98828125 168.0703125 C-48.77162842 168.39531738 -49.55497559 168.72032227 -50.36206055 169.05517578 C-51.83142848 169.66866741 -53.297944 170.28905287 -54.76098633 170.91748047 C-57.68110249 172.15429529 -59.79274398 173 -63 173 C-63 167.39 -63 161.78 -63 156 C-65.083125 157.794375 -67.16625 159.58875 -69.3125 161.4375 C-74.55894616 165.94437514 -79.86254051 170.36853584 -85.23046875 174.73046875 C-90.54441666 179.08505794 -95.76526766 183.55078435 -101 188 C-108.93622408 194.74532527 -116.87629389 201.48017166 -125 208 C-125.66902344 208.56203125 -126.33804688 209.1240625 -127.02734375 209.703125 C-129.70173547 211.83327508 -131.37484109 212.99914244 -134.84765625 213.00390625 C-139.03083174 211.67171777 -141.01299971 209.15866421 -143.625 205.8125 C-144.32109375 204.96461914 -144.32109375 204.96461914 -145.03125 204.09960938 C-146.38984456 202.42439321 -147.699464 200.72053204 -149 199 C-149.79148438 197.97261719 -150.58296875 196.94523438 -151.3984375 195.88671875 C-153 193 -153 193 -153.0859375 190.453125 C-151.61017864 187.11939636 -149.33668026 185.07939293 -146.625 182.75 C-146.09277832 182.27763916 -145.56055664 181.80527832 -145.01220703 181.31860352 C-140.50366432 177.34882167 -135.86684227 173.53386054 -131.1796875 169.77734375 C-128.96611041 168.03354816 -128.96611041 168.03354816 -127 166 C-128.21236328 164.60587891 -128.21236328 164.60587891 -129.44921875 163.18359375 C-130.5288027 161.93503145 -131.60822093 160.68632585 -132.6875 159.4375 C-133.21794922 158.82841797 -133.74839844 158.21933594 -134.29492188 157.59179688 C-135.88671157 155.74610208 -137.45000872 153.88090484 -139 152 C-139.50998535 151.38914551 -140.0199707 150.77829102 -140.54541016 150.14892578 C-142.56612026 147.57044097 -143.95929818 145.71549518 -144.1484375 142.390625 C-142.58675488 139.13977546 -140.31439263 137.06011931 -137.625 134.75 C-136.81361572 134.03058228 -136.81361572 134.03058228 -135.98583984 133.29663086 C-131.72176323 129.54456695 -127.33711241 125.9415646 -122.9140625 122.37890625 C-119.56017662 119.64094847 -116.27810205 116.82780112 -113 114 C-107.98432907 109.6779929 -102.90823728 105.44520013 -97.76953125 101.26953125 C-92.45558334 96.91494206 -87.23473234 92.44921565 -82 88 C-77.67470385 84.32375181 -73.34495551 80.65300614 -69 77 C-68.48066895 76.56316895 -67.96133789 76.12633789 -67.42626953 75.67626953 C-65.9340704 74.42515779 -64.43589343 73.18118644 -62.9375 71.9375 C-62.08027344 71.22464844 -61.22304687 70.51179688 -60.33984375 69.77734375 C-58 68 -58 68 -55.765625 66.98046875 C-52.97783557 65.43238214 -52.95002321 62.82977252 -52.07421875 59.93359375 C-48.35370263 49.77320247 -42.13635929 40.73249306 -35.375 32.375 C-34.84922363 31.7245874 -34.32344727 31.0741748 -33.78173828 30.40405273 C-30.64089749 26.64373309 -27.32208754 23.38563055 -23.53295898 20.27905273 C-21.81677295 18.88609215 -21.81677295 18.88609215 -19.6875 16.6875 C-13.55824575 10.55824575 -7.19326949 4.84763814 0 0 Z " fill="#FEF4C5" transform="translate(158,299)"/>
<path d="M0 0 C0.65484375 0.39703125 1.3096875 0.7940625 1.984375 1.203125 C11.53108003 7.64160049 18.31254165 18.26581589 20.75 29.4375 C22.86929644 42.36520826 21.67389585 55.00858034 14.5703125 66.265625 C9.30738273 73.46752889 2.42236065 80.05175957 -5 85 C-4.44719887 88.99859483 -2.46604577 90.98807717 0.25 93.875 C1.05953125 94.75414063 1.8690625 95.63328125 2.703125 96.5390625 C4.02307545 97.95329513 5.34487107 99.36582118 6.671875 100.7734375 C9.6220648 104.05335439 11.09516047 106.52745774 11 111 C8.44130778 114.6611702 5.55186346 117.36499221 2.0625 120.125 C0.61037109 121.28902344 0.61037109 121.28902344 -0.87109375 122.4765625 C-1.38140137 122.88551758 -1.89170898 123.29447266 -2.41748047 123.71582031 C-5.14931948 125.9326474 -7.82215569 128.21850527 -10.5 130.5 C-14.44606921 133.85496935 -18.41643672 137.17223129 -22.4375 140.4375 C-27.91969148 144.90030887 -33.28452483 149.49298931 -38.640625 154.10546875 C-39.18831543 154.5739624 -39.73600586 155.04245605 -40.30029297 155.52514648 C-41.50040337 156.56649479 -42.68565732 157.62508402 -43.85986328 158.69555664 C-44.47071777 159.2446167 -45.08157227 159.79367676 -45.7109375 160.359375 C-46.26056152 160.86307617 -46.81018555 161.36677734 -47.37646484 161.88574219 C-49 163 -49 163 -52.375 163.0625 C-54.19758223 162.52829486 -56.02199962 161.99206493 -57.80859375 161.34765625 C-85.51001414 151.35786527 -115.97782663 154.91758181 -143 165 C-143.75748535 165.28230469 -144.5149707 165.56460938 -145.29541016 165.85546875 C-147.19808855 166.56725008 -149.09920579 167.28320218 -151 168 C-150.18045501 163.97625446 -148.75157434 162.51989639 -145.625 159.8125 C-144.71492188 159.02101562 -143.80484375 158.22953125 -142.8671875 157.4140625 C-139.27093732 154.38615704 -135.63867021 151.40672038 -131.984375 148.44921875 C-128.61238637 145.681893 -125.30334554 142.8485306 -122 140 C-117.01074306 135.7001015 -111.95778266 131.49514122 -106.84375 127.34375 C-103.52313514 124.60697951 -100.25953218 121.8089705 -97 119 C-92.01059233 114.70027287 -86.95778844 110.49514591 -81.84375 106.34375 C-78.52313406 103.60697862 -75.25956291 100.80893615 -72 98 C-66.98408311 93.67827137 -61.90824701 89.44520804 -56.76953125 85.26953125 C-51.45558334 80.91494206 -46.23473234 76.44921565 -41 72 C-38.79262849 70.12386361 -36.58445445 68.24868308 -34.375 66.375 C-33.84028076 65.92133057 -33.30556152 65.46766113 -32.75463867 65.00024414 C-28.33417653 61.26006034 -23.85159467 57.60241075 -19.33984375 53.97265625 C-13.80316065 49.40461635 -13.80316065 49.40461635 -11.76171875 42.73046875 C-11.63584173 38.4175245 -11.75201677 35.5455631 -13.5625 31.5625 C-17.00016903 27.94854026 -20.05085566 26.45016293 -24.99609375 25.6953125 C-32.20830831 25.66884566 -37.01100561 30.37409399 -42.27734375 34.75 C-47.450082 39.02474495 -52.47994551 38.58885309 -59 38 C-63.97491173 35.86789497 -66.18288098 32.89731676 -68.3046875 28.07421875 C-69.88595986 23.35705233 -69.2811593 19.93719767 -67.875 15.25 C-62.5112413 5.42282781 -48.93020095 -2.6222045 -38.55078125 -5.734375 C-25.37281688 -8.79613124 -11.61425118 -7.12470871 0 0 Z " fill="#DD9372" transform="translate(484,7)"/>
<path d="M0 0 C3.43954018 0.17760104 4.79642114 0.80771207 7.32421875 3.1953125 C28.68552291 29.67626807 40.74789959 57.38187762 39 92 C38.844779 93.41942077 38.67664503 94.83748466 38.49609375 96.25390625 C37.77533858 102.2210584 37.85159116 108.18480487 37.875 114.1875 C37.87693359 115.38697266 37.87886719 116.58644531 37.88085938 117.82226562 C37.91573656 124.95658747 38.14187713 131.99507669 38.77734375 139.1015625 C39.13318076 143.73368643 39.08526668 148.3577032 39 153 C35.26148533 152.37621128 32.09044297 151.30105874 28.625 149.77734375 C15.24659813 144.03439008 2.21025667 139.31293666 -11.9140625 135.72631836 C-44.55858258 127.38119026 -71.68905199 108.050131 -89.16210938 79.07275391 C-94.10483761 70.63410106 -98.0606416 61.85007025 -101.625 52.75 C-102.15794678 51.40989868 -102.15794678 51.40989868 -102.70166016 50.04272461 C-103.17804932 48.77634155 -103.17804932 48.77634155 -103.6640625 47.484375 C-103.94717285 46.73897461 -104.2302832 45.99357422 -104.52197266 45.22558594 C-105.1173578 42.45360893 -104.88389907 40.68771819 -104 38 C-100.16124615 35.08254708 -98.59162533 33.91442875 -93.73046875 34.17578125 C-89.60830001 35.08654314 -86.16206133 36.6539096 -82.4375 38.5625 C-65.73441887 46.71925785 -42.40131802 58.11060194 -23.4375 55.25 C-20.71484375 55.06640625 -20.71484375 55.06640625 -18 56 C-13.59343881 60.34157964 -10.43773105 65.7356644 -7.26171875 71.00146484 C-5.91273674 73.22088467 -5.91273674 73.22088467 -3.65625 75.92578125 C-2 78 -2 78 -2 80 C1.7208267 80.80253125 4.27607436 81.2310401 7.9375 80.0625 C10.36714611 78.05039882 10.36714611 78.05039882 10.484375 74.37109375 C10.33967142 69.05308718 7.60756831 65.95562713 4.3125 62 C2.18401227 59.35167505 0.07568411 56.68995054 -2 54 C-2.53318848 53.31679688 -3.06637695 52.63359375 -3.61572266 51.9296875 C-5.01304914 49.97166224 -6.16227733 48.25594928 -7 46 C-5.8828125 42.86328125 -5.8828125 42.86328125 -4 40 C-1.50159593 30.04849166 -1.62814495 19.4641055 -1.34130859 9.26831055 C-1.29417725 7.68723511 -1.29417725 7.68723511 -1.24609375 6.07421875 C-1.21020142 4.64468872 -1.21020142 4.64468872 -1.17358398 3.1862793 C-1 1 -1 1 0 0 Z " fill="#FEF4C5" transform="translate(349,340)"/>
<path d="M0 0 C0.973927 0.51602783 0.973927 0.51602783 1.9675293 1.04248047 C11.46579391 6.10750892 20.52851955 11.31984581 29 18 C28.45335449 21.17601041 27.80225835 23.85653702 26.25 26.6875 C25.94578125 27.26886719 25.6415625 27.85023438 25.328125 28.44921875 C22.04721713 32.28016117 16.5822729 32.52473256 11.875 33.3125 C-1.63803924 35.73571113 -14.68379816 39.35929611 -27.625 43.9375 C-28.52492676 44.24905029 -29.42485352 44.56060059 -30.35205078 44.8815918 C-37.28718356 47.41372167 -43.73305372 50.73305372 -49 56 C-56.08342652 55.63131667 -62.36791341 53.39344467 -69.02148438 51.08398438 C-73.83392631 49.47983706 -77.85297027 48.56886993 -83 49 C-85.06402685 49.98048938 -85.06402685 49.98048938 -86 52 C-86.58345476 54.95746492 -86.58345476 54.95746492 -86 58 C-83.05136808 61.70666323 -80.26835359 62.83726888 -75.7734375 64.11328125 C-74.5771875 64.47486328 -73.3809375 64.83644531 -72.1484375 65.20898438 C-69.62873955 65.94585256 -67.10522406 66.66978778 -64.578125 67.38085938 C-61.23399418 68.40468344 -58.1186105 69.41541343 -55 71 C-53.3515625 74.3828125 -53.3515625 74.3828125 -53 78 C-48.3061776 89.10782403 -41.79013073 98.9024204 -34.18359375 108.2265625 C-33 110 -33 110 -33.3125 112.75 C-33.539375 113.4925 -33.76625 114.235 -34 115 C-41.2950289 114.46382293 -47.70940268 112.78075144 -54.625 110.4375 C-56.21006348 109.90177368 -56.21006348 109.90177368 -57.82714844 109.35522461 C-84.49402961 100.0690719 -106.17799776 82.12364939 -120.11376953 57.56713867 C-127.08425568 45.43018109 -136.01974666 34.69217789 -145.2109375 24.18359375 C-145.88527832 23.40991455 -145.88527832 23.40991455 -146.57324219 22.62060547 C-147.6000802 21.45425524 -148.63866514 20.29820883 -149.68457031 19.14892578 C-150.50973145 18.22635986 -150.50973145 18.22635986 -151.3515625 17.28515625 C-151.85768066 16.72836182 -152.36379883 16.17156738 -152.88525391 15.59790039 C-154 14 -154 14 -154 11 C-152.54484985 10.66174194 -152.54484985 10.66174194 -151.06030273 10.31665039 C-132.56185549 5.98799503 -114.83943999 1.27093346 -97.27441406 -6.08105469 C-67.02822426 -18.30160626 -28.65365368 -15.35561494 0 0 Z " fill="#FEF4C5" transform="translate(179,175)"/>
<path d="M0 0 C3.65966338 1.21988779 3.88972266 2.06230832 5.71484375 5.34765625 C6.23022705 6.25555908 6.74561035 7.16346191 7.27661133 8.09887695 C8.09875122 9.56587036 8.09875122 9.56587036 8.9375 11.0625 C15.64712337 22.72471197 22.97655266 33.66237663 32.125 43.5625 C54.60364605 68.19087104 62.30479001 101.10576878 61.19970703 133.63867188 C59.10501931 168.89498069 59.10501931 168.89498069 51 177 C48.890625 177.0546875 48.890625 177.0546875 46.25 176.875 C45.38890625 176.83117187 44.5278125 176.78734375 43.640625 176.7421875 C38.61673543 175.33014753 36.15942583 171.49729977 33.7109375 167.13671875 C32.92651152 165.65669494 32.14813907 164.17345107 31.375 162.6875 C24.50750427 149.92724986 16.3880177 138.04911825 7 127 C5.88818359 125.6696875 5.88818359 125.6696875 4.75390625 124.3125 C3.98949219 123.425625 3.22507812 122.53875 2.4375 121.625 C1.75558594 120.83351563 1.07367188 120.04203125 0.37109375 119.2265625 C-1.97199618 116.73256938 -1.97199618 116.73256938 -5.7265625 115.6484375 C-7.54418945 114.66552734 -7.54418945 114.66552734 -9 113 C-10.01225705 108.01859842 -9.8918462 103.05699782 -9.8125 98 C-9.80647941 95.92795533 -9.81031433 93.85643277 -9.82365417 91.78442383 C-9.83164064 89.90444743 -9.81263175 88.02441398 -9.79223633 86.14453125 C-9.99186978 83.12305195 -10.31221454 81.47862295 -12 79 C-14.84083641 77.57958179 -16.85477278 77.68547728 -20 78 C-22.31593908 79.52460007 -22.31593908 79.52460007 -24 82 C-24.48085799 85.2723561 -24.48085799 85.2723561 -24.2578125 88.92578125 C-24.24306126 90.29360222 -24.230097 91.66144342 -24.21875 93.02929688 C-24.17953556 95.17016026 -24.12520172 97.307546 -24.03808594 99.44702148 C-23.60025288 111.44170759 -23.60025288 111.44170759 -27.08862305 115.32519531 C-29.6540573 117.06179696 -32.28213487 118.51821576 -35 120 C-37.13100812 121.90346909 -38.73880313 123.89318318 -40.5625 126.125 C-41.23502808 126.94327271 -41.23502808 126.94327271 -41.92114258 127.77807617 C-46.63263476 133.60196937 -50.86328385 139.75917638 -55 146 C-57.4375 145.625 -57.4375 145.625 -60 145 C-66.72000872 131.55998256 -61.07051059 102.59337681 -56.74609375 88.89453125 C-51.11376607 72.29190696 -42.26751473 57.5928395 -30.1875 44.875 C-18.01569969 31.72645028 -9.29406197 15.21710341 0 0 Z " fill="#FEF4C6" transform="translate(273,32)"/>
<path d="M0 0 C0.66 0 1.32 0 2 0 C1.37571782 2.66683649 0.75059174 5.33347067 0.125 8 C-0.13603516 9.11568359 -0.13603516 9.11568359 -0.40234375 10.25390625 C-0.57636719 10.99511719 -0.75039062 11.73632812 -0.9296875 12.5 C-1.16534424 13.50546875 -1.16534424 13.50546875 -1.40576172 14.53125 C-1.88751088 16.53266639 -2.45901141 18.51233072 -3.05688477 20.48217773 C-4.47965507 26.19437197 -4.22794067 31.93477477 -4.16015625 37.78515625 C-4.15495468 39.00021347 -4.14975311 40.21527069 -4.14439392 41.46714783 C-4.12665569 45.33238967 -4.09549832 49.19736071 -4.0625 53.0625 C-4.03481324 56.93118314 -4.01010217 60.79982696 -3.99131775 64.66856384 C-3.97913477 67.07042364 -3.96160507 69.47226396 -3.93800354 71.8740387 C-3.85024611 86.58528226 -3.85024611 86.58528226 -6.8984375 90.3359375 C-7.71570313 91.00882812 -8.53296875 91.68171875 -9.375 92.375 C-10.28378906 93.138125 -11.19257812 93.90125 -12.12890625 94.6875 C-13.07636719 95.450625 -14.02382812 96.21375 -15 97 C-16.31291016 98.0828125 -16.31291016 98.0828125 -17.65234375 99.1875 C-19.45648824 100.67108431 -21.26660263 102.14743287 -23.08203125 103.6171875 C-26.25417289 106.20755752 -29.38046751 108.84678938 -32.5 111.5 C-36.44638883 114.85460405 -40.41642493 118.17222172 -44.4375 121.4375 C-48.70750599 124.91077018 -52.8937934 128.46930916 -57.0625 132.0625 C-58.82567378 133.57413372 -60.59022034 135.0841344 -62.35595703 136.59277344 C-63.87530192 137.89326407 -65.38907799 139.20025312 -66.90234375 140.5078125 C-68.18818359 141.58675781 -68.18818359 141.58675781 -69.5 142.6875 C-70.59828125 143.62142578 -70.59828125 143.62142578 -71.71875 144.57421875 C-74.51947395 146.32467122 -76.71676426 146.79395792 -80 147 C-82.05105115 145.39241937 -83.35376504 143.98325943 -85 142 C-86.54140936 140.33309536 -88.08309843 138.66644935 -89.625 137 C-96.98145618 128.96564513 -96.98145618 128.96564513 -97.0234375 124.515625 C-95.63381418 121.09990966 -93.36056252 119.09990832 -90.625 116.75 C-90.09277832 116.27763916 -89.56055664 115.80527832 -89.01220703 115.31860352 C-84.50366432 111.34882167 -79.86684227 107.53386054 -75.1796875 103.77734375 C-72.96611041 102.03354816 -72.96611041 102.03354816 -71 100 C-72.21236328 98.60587891 -72.21236328 98.60587891 -73.44921875 97.18359375 C-74.5288027 95.93503145 -75.60822093 94.68632585 -76.6875 93.4375 C-77.21794922 92.82841797 -77.74839844 92.21933594 -78.29492188 91.59179688 C-79.88671157 89.74610208 -81.45000872 87.88090484 -83 86 C-83.50998535 85.38914551 -84.0199707 84.77829102 -84.54541016 84.14892578 C-86.56612026 81.57044097 -87.95929818 79.71549518 -88.1484375 76.390625 C-86.58675488 73.13977546 -84.31439263 71.06011931 -81.625 68.75 C-80.81361572 68.03058228 -80.81361572 68.03058228 -79.98583984 67.29663086 C-75.72176323 63.54456695 -71.33711241 59.9415646 -66.9140625 56.37890625 C-63.56017662 53.64094847 -60.27810205 50.82780112 -57 48 C-51.98432907 43.6779929 -46.90823728 39.44520013 -41.76953125 35.26953125 C-36.45558334 30.91494206 -31.23473234 26.44921565 -26 22 C-23.7926285 20.12386361 -21.58450373 18.24862498 -19.375 16.375 C-18.84173096 15.92278076 -18.30846191 15.47056152 -17.7590332 15.00463867 C-13.26664421 11.20507498 -8.71738607 7.47981625 -4.14453125 3.77734375 C-1.96529769 2.02744291 -1.96529769 2.02744291 0 0 Z " fill="#D37A5F" transform="translate(102,365)"/>
<path d="M0 0 C9.03523259 5.44310019 15.56436448 13.28715418 18.75 23.375 C19.93003186 35.76533456 18.22780106 46.30193856 10.24609375 56.16796875 C3.98171655 62.91324764 -3.78617394 67.43947445 -13.03125 68.2734375 C-24.41565597 68.6067647 -32.63601737 66.14490207 -41.4375 58.8125 C-46.00919047 54.40958783 -48.68414367 49.86548765 -51 44 C-51.433125 43.030625 -51.86625 42.06125 -52.3125 41.0625 C-54.59840034 30.87985304 -52.78861304 21.13098176 -47.3125 12.3125 C-35.9792033 -3.39894066 -17.62390219 -8.89456314 0 0 Z " fill="#FCA630" transform="translate(273,249)"/>
<path d="M0 0 C0.66 0 1.32 0 2 0 C1.37571782 2.66683649 0.75059174 5.33347067 0.125 8 C-0.13603516 9.11568359 -0.13603516 9.11568359 -0.40234375 10.25390625 C-0.57636719 10.99511719 -0.75039062 11.73632812 -0.9296875 12.5 C-1.1054834 13.25925781 -1.2812793 14.01851563 -1.46240234 14.80078125 C-1.94591197 16.77873526 -2.51472796 18.73536857 -3.09375 20.6875 C-4.59906361 26.66722854 -4.46961758 32.86886885 -4.625 39 C-4.66367188 40.25167969 -4.70234375 41.50335938 -4.7421875 42.79296875 C-4.83589341 45.8618372 -4.9216107 48.93070853 -5 52 C-5.66 51.01 -6.32 50.02 -7 49 C-13.07867233 53.91255968 -19.08016067 58.89797973 -25 64 C-29.98938681 68.29975287 -35.0422118 72.50485428 -40.15625 76.65625 C-43.47689882 79.39304848 -46.73949313 82.19212095 -50 85 C-51.18469824 86.01455369 -52.36959198 87.02887914 -53.5546875 88.04296875 C-55.78081672 89.9483211 -57.99209712 91.8690163 -60.1953125 93.80078125 C-61.16210938 94.62964844 -62.12890625 95.45851563 -63.125 96.3125 C-63.97320312 97.05113281 -64.82140625 97.78976562 -65.6953125 98.55078125 C-68 100 -68 100 -69.96484375 100.11328125 C-73.1526607 98.36946584 -75.19208873 95.65986325 -77.4375 92.875 C-77.92250977 92.28332031 -78.40751953 91.69164062 -78.90722656 91.08203125 C-79.85788798 89.91533956 -80.80354704 88.74455023 -81.74365234 87.56933594 C-82.76971917 86.28764967 -83.81395353 85.02052552 -84.86328125 83.7578125 C-88.01760149 79.7593784 -88.01760149 79.7593784 -87.9453125 76.640625 C-86.67386277 73.08897205 -84.41253765 71.14442337 -81.625 68.75 C-80.81361572 68.03058228 -80.81361572 68.03058228 -79.98583984 67.29663086 C-75.72176323 63.54456695 -71.33711241 59.9415646 -66.9140625 56.37890625 C-63.56017662 53.64094847 -60.27810205 50.82780112 -57 48 C-51.98432907 43.6779929 -46.90823728 39.44520013 -41.76953125 35.26953125 C-36.45558334 30.91494206 -31.23473234 26.44921565 -26 22 C-23.7926285 20.12386361 -21.58450373 18.24862498 -19.375 16.375 C-18.84173096 15.92278076 -18.30846191 15.47056152 -17.7590332 15.00463867 C-13.26664421 11.20507498 -8.71738607 7.47981625 -4.14453125 3.77734375 C-1.96529769 2.02744291 -1.96529769 2.02744291 0 0 Z " fill="#DD9372" transform="translate(102,365)"/>
<path d="M0 0 C1.45659977 1.61382948 2.84048951 3.29363216 4.1875 5 C7.01893897 8.56331334 9.88727822 11.99355234 13 15.3125 C15.10377972 17.71541857 16.04813184 19.12919599 17.1875 22.1875 C16.88502491 26.72462629 13.96489612 29.14625218 10.66015625 32.0703125 C9.37431641 33.08738281 9.37431641 33.08738281 8.0625 34.125 C7.09441406 34.90101562 6.12632812 35.67703125 5.12890625 36.4765625 C4.61859863 36.88551758 4.10829102 37.29447266 3.58251953 37.71582031 C0.85068052 39.9326474 -1.82215569 42.21850527 -4.5 44.5 C-8.44606921 47.85496935 -12.41643672 51.17223129 -16.4375 54.4375 C-21.91969148 58.90030887 -27.28452483 63.49298931 -32.640625 68.10546875 C-33.18831543 68.5739624 -33.73600586 69.04245605 -34.30029297 69.52514648 C-35.50040337 70.56649479 -36.68565732 71.62508402 -37.85986328 72.69555664 C-38.47071777 73.2446167 -39.08157227 73.79367676 -39.7109375 74.359375 C-40.26056152 74.86307617 -40.81018555 75.36677734 -41.37646484 75.88574219 C-43 77 -43 77 -46.375 77.0625 C-48.22266403 76.5209433 -50.07134207 75.97409278 -51.88110352 75.31689453 C-58.32399114 72.98221621 -64.80605931 71.85915778 -71.5625 70.8125 C-72.66658203 70.63525391 -73.77066406 70.45800781 -74.90820312 70.27539062 C-77.60447344 69.84352049 -80.3016359 69.4185518 -83 69 C-75.73336741 61.65633597 -68.01117303 54.94548326 -59.984375 48.44921875 C-56.61238637 45.681893 -53.30334554 42.8485306 -50 40 C-45.01074306 35.7001015 -39.95778266 31.49514122 -34.84375 27.34375 C-31.52313325 24.60697795 -28.25958663 21.8089099 -25 19 C-19.07904169 13.89926452 -13.08366328 8.90649917 -7 4 C-6.11441406 3.2575 -5.22882813 2.515 -4.31640625 1.75 C-2 0 -2 0 0 0 Z " fill="#D37A5F" transform="translate(478,93)"/>
<path d="M0 0 C9.03523259 5.44310019 15.56436448 13.28715418 18.75 23.375 C19.87302285 35.16673989 19.87302285 35.16673989 18 40 C9.06925091 42.97691636 -1.15169686 42.00392615 -9.5625 38.0625 C-19.4399529 32.42634146 -25.20923365 24.97308902 -28.5625 14.19140625 C-29.18813122 11.05766418 -29.35592623 7.93713812 -29.5625 4.75 C-29.64628906 3.48671875 -29.73007813 2.2234375 -29.81640625 0.921875 C-29.87699219 -0.04234375 -29.93757812 -1.0065625 -30 -2 C-19.81447654 -5.80624942 -9.65207584 -4.87128203 0 0 Z " fill="#FCC16D" transform="translate(273,249)"/>
<path d="M0 0 C0.87527344 -0.00257813 1.75054687 -0.00515625 2.65234375 -0.0078125 C5.0625 0.125 5.0625 0.125 8.0625 1.125 C8.0625 10.365 8.0625 19.605 8.0625 29.125 C6.0825 27.475 4.1025 25.825 2.0625 24.125 C-2.18335108 24.125 -3.38948062 25.46398547 -6.9375 28.125 C-6.9375 19.215 -6.9375 10.305 -6.9375 1.125 C-4.46371876 -0.11189062 -2.75834683 -0.00810087 0 0 Z " fill="#F4D7C7" transform="translate(255.9375,143.875)"/>
<path d="M0 0 C6.36430174 1.31235852 12.42121028 3.01219415 18.5625 5.125 C19.38041016 5.40214844 20.19832031 5.67929688 21.04101562 5.96484375 C23.02876568 6.63905137 25.01459349 7.31892204 27 8 C27 8.66 27 9.32 27 10 C25.5437455 10.67119549 24.08492133 11.33681807 22.625 12 C21.81289062 12.37125 21.00078125 12.7425 20.1640625 13.125 C18 14 18 14 16 14 C16.66 16.31 17.32 18.62 18 21 C10.39086902 19.7205886 3.26774103 17.57243067 -4 15 C-4.5090378 8.89154645 -2.98282625 5.27002487 0 0 Z " fill="#F4D7C7" transform="translate(129,232)"/>
</svg>
