<?xml version="1.0" encoding="UTF-8"?>
<!DOCTYPE svg PUBLIC "-//W3C//DTD SVG 1.1//EN" "http://www.w3.org/Graphics/SVG/1.1/DTD/svg11.dtd">
<svg xmlns="http://www.w3.org/2000/svg" version="1.1" width="512px" height="512px" style="shape-rendering:geometricPrecision; text-rendering:geometricPrecision; image-rendering:optimizeQuality; fill-rule:evenodd; clip-rule:evenodd" xmlns:xlink="http://www.w3.org/1999/xlink">
<g><path style="opacity:0.98" fill="#414040" d="M 121.5,30.5 C 123.564,30.687 125.564,31.187 127.5,32C 148.817,47.412 172.484,52.912 198.5,48.5C 238.467,49.9031 271.967,65.2364 299,94.5C 311.457,108.632 321.957,124.132 330.5,141C 354.627,142.931 376.96,150.265 397.5,163C 409.175,167.118 421.175,168.451 433.5,167C 441.561,165.821 449.561,164.321 457.5,162.5C 462.737,162.904 465.403,165.737 465.5,171C 460.97,186.201 459.47,201.701 461,217.5C 461.713,222.352 463.046,227.019 465,231.5C 487.148,267.152 492.148,305.152 480,345.5C 457.71,406.792 416.543,450.292 356.5,476C 297.828,497.921 243.828,489.921 194.5,452C 177.049,436.227 163.049,417.893 152.5,397C 111.822,383.582 80.655,358.415 59,321.5C 32.7358,278.047 21.7358,231.047 26,180.5C 31.3825,138.869 51.5492,106.703 86.5,84C 101.327,70.5192 111.16,54.0192 116,34.5C 117.812,33.0229 119.645,31.6896 121.5,30.5 Z"/></g>
<g><path style="opacity:1" fill="#d9b078" d="M 133.5,55.5 C 143.677,60.4183 154.344,63.9183 165.5,66C 231.497,58.1623 280.164,83.329 311.5,141.5C 274.004,148.25 241.004,164.083 212.5,189C 194.853,204.539 179.686,222.039 167,241.5C 162.247,249.338 157.747,257.338 153.5,265.5C 137.471,238.912 127.304,210.245 123,179.5C 122.07,166.086 122.737,152.753 125,139.5C 128.671,123.484 132.338,107.484 136,91.5C 136.814,79.3712 135.981,67.3712 133.5,55.5 Z"/></g>
<g><path style="opacity:1" fill="#d9b078" d="M 118.5,71.5 C 119.222,71.9175 119.722,72.5842 120,73.5C 120.667,79.5 120.667,85.5 120,91.5C 115.252,109.652 111.252,127.985 108,146.5C 104.946,180.228 110.279,212.562 124,243.5C 130.871,258.078 138.371,272.245 146.5,286C 144.032,293.338 142.199,300.838 141,308.5C 127.53,291.906 116.863,273.572 109,253.5C 104.333,248.167 99.6667,248.167 95,253.5C 94.8333,254.833 94.6667,256.167 94.5,257.5C 103.865,284.677 118.365,308.677 138,329.5C 139.126,345.549 141.292,361.215 144.5,376.5C 113.925,362.761 90.0917,341.428 73,312.5C 50.2848,274.639 39.6181,233.639 41,189.5C 44.5421,148.558 63.7087,117.391 98.5,96C 106.917,89.1008 113.583,80.9341 118.5,71.5 Z"/></g>
<g><path style="opacity:1" fill="#414140" d="M 157.5,98.5 C 163.691,97.5786 167.358,100.079 168.5,106C 164.133,121.301 160.633,136.801 158,152.5C 157.333,159.167 157.333,165.833 158,172.5C 159.745,177.386 160.412,182.386 160,187.5C 157.565,192.224 153.731,193.724 148.5,192C 146.062,189.705 144.562,186.872 144,183.5C 142.49,171.205 142.157,158.872 143,146.5C 145.44,131.955 148.773,117.622 153,103.5C 154.059,101.341 155.559,99.6741 157.5,98.5 Z"/></g>
<g><path style="opacity:1" fill="#c7a172" d="M 312.5,157.5 C 331.141,156.44 349.141,159.274 366.5,166C 375.833,170.667 385.167,175.333 394.5,180C 411.282,184.997 428.282,185.83 445.5,182.5C 442.091,200.472 443.258,218.139 449,235.5C 458.716,250.597 465.383,266.931 469,284.5C 472.698,318.378 465.364,349.711 447,378.5C 426.979,409.189 401.146,433.689 369.5,452C 337.307,468.741 303.307,474.408 267.5,469C 222.418,458.385 189.251,432.552 168,391.5C 151.357,352.541 151.357,313.541 168,274.5C 191.307,225.192 227.807,189.359 277.5,167C 289.004,162.71 300.67,159.544 312.5,157.5 Z"/></g>
<g><path style="opacity:1" fill="#424140" d="M 327.5,185.5 C 339.765,184.793 348.432,189.96 353.5,201C 376.923,202.3 384.423,214.133 376,236.5C 370.546,245.621 363.38,253.121 354.5,259C 337.996,267.413 322.33,277.08 307.5,288C 291.993,302.841 277.16,318.341 263,334.5C 258.082,342 253.416,349.667 249,357.5C 241.483,367.674 231.65,374.508 219.5,378C 208.931,378.969 200.431,375.136 194,366.5C 180.823,344.187 180.156,321.52 192,298.5C 197.876,292.814 204.376,287.98 211.5,284C 204.933,261.286 212.266,244.453 233.5,233.5C 241.307,212.263 255.974,204.93 277.5,211.5C 285.476,199.346 296.81,193.846 311.5,195C 316.148,190.516 321.481,187.349 327.5,185.5 Z"/></g>
<g><path style="opacity:1" fill="#e3c39b" d="M 327.5,202.5 C 330.807,202.063 333.807,202.73 336.5,204.5C 338.909,208.118 340.409,212.118 341,216.5C 342.167,217.667 343.333,218.833 344.5,220C 350.419,219.208 356.419,218.708 362.5,218.5C 363.462,226.784 360.796,233.617 354.5,239C 336.167,250.667 317.833,262.333 299.5,274C 285,288.5 270.5,303 256,317.5C 248.151,327.027 241.484,337.36 236,348.5C 231.159,354.331 225.326,358.831 218.5,362C 213.767,362.962 209.934,361.462 207,357.5C 204.566,354.205 202.899,350.538 202,346.5C 199.494,333.954 200.161,321.621 204,309.5C 208.714,304.558 214.214,300.725 220.5,298C 225.231,294.538 227.564,289.872 227.5,284C 226.5,279 225.5,274 224.5,269C 225.338,261.334 229.004,255.334 235.5,251C 239.75,248.626 243.916,246.126 248,243.5C 252.692,223.397 263.192,219.564 279.5,232C 283.421,232.959 286.588,231.792 289,228.5C 289.781,221.403 293.281,216.236 299.5,213C 305.167,212.667 310.833,212.333 316.5,212C 319.865,208.343 323.532,205.176 327.5,202.5 Z"/></g>
<g><path style="opacity:1" fill="#414140" d="M 398.5,250.5 C 415.162,248.671 424.662,256.004 427,272.5C 440.294,281.052 443.961,292.719 438,307.5C 436.248,310.672 434.248,313.672 432,316.5C 432.321,330.524 426.821,341.524 415.5,349.5C 420.881,364.535 417.547,377.368 405.5,388C 401.719,390.225 397.719,391.891 393.5,393C 382.762,414.626 365.928,422.126 343,415.5C 340,420.167 337,424.833 334,429.5C 326.607,437.324 317.44,441.491 306.5,442C 286.114,446.035 268.614,440.868 254,426.5C 246.151,414.68 246.818,403.346 256,392.5C 260.199,387.966 264.699,383.799 269.5,380C 279.432,374.396 289.099,368.396 298.5,362C 313.634,345.198 329.134,328.698 345,312.5C 354.838,296.821 365.171,281.488 376,266.5C 382.313,259.332 389.813,253.999 398.5,250.5 Z"/></g>
<g><path style="opacity:1" fill="#e3c39b" d="M 400.5,266.5 C 404.287,265.814 407.454,266.814 410,269.5C 410.333,273.5 410.667,277.5 411,281.5C 414.728,284.528 418.728,287.194 423,289.5C 425.147,294.327 424.814,298.994 422,303.5C 419.667,305.833 417.333,308.167 415,310.5C 416.613,317.873 415.613,324.873 412,331.5C 406.728,334.646 401.395,337.646 396,340.5C 395.333,343.167 395.333,345.833 396,348.5C 404.767,357.523 404.6,366.356 395.5,375C 391.639,376.754 387.639,378.088 383.5,379C 380.669,383.481 377.835,387.981 375,392.5C 365.661,402.973 354.495,405.306 341.5,399.5C 338.567,399.466 335.9,400.299 333.5,402C 328.167,409 322.833,416 317.5,423C 306.057,426.31 294.39,427.31 282.5,426C 273.631,424.082 267.297,419.082 263.5,411C 266.999,403.164 272.333,396.83 279.5,392C 297.221,383.956 312.387,372.456 325,357.5C 335.298,345.534 345.965,333.867 357,322.5C 366.942,306.894 377.275,291.56 388,276.5C 391.598,272.306 395.765,268.972 400.5,266.5 Z"/></g>
</svg>
