<?xml version="1.0" encoding="UTF-8"?>
<svg version="1.1" xmlns="http://www.w3.org/2000/svg" width="512" height="512">
<path d="M0 0 C10.00090645 6.47838197 17.68895057 14.72115221 20.36328125 26.52734375 C20.89233801 30.1942544 21.22009459 33.8259685 21.36328125 37.52734375 C21.98332031 37.27339844 22.60335938 37.01945312 23.2421875 36.7578125 C39.92513257 30.27404782 58.11461959 27.58339663 75.36328125 33.52734375 C86.19052393 38.40188078 93.12321702 46.53113321 97.36328125 57.52734375 C101.81653854 71.90653597 101.45196848 84.05366598 94.8203125 97.703125 C91.10429287 104.39536172 86.69177133 110.04661109 81.36328125 115.52734375 C82.5609231 118.11771844 83.46541402 119.62655844 85.55078125 121.65234375 C95.29280782 131.13573245 101.20943373 144.30463187 101.67578125 157.90234375 C101.44731791 174.80863093 93.80406666 191.62371178 83.36328125 204.52734375 C82.84765625 205.18347656 82.33203125 205.83960938 81.80078125 206.515625 C78.09889272 211.05245035 73.84001963 214.77388793 69.36328125 218.52734375 C68.5228125 219.25566406 67.68234375 219.98398438 66.81640625 220.734375 C55.23766696 230.63387723 42.77245635 239.36030357 30.04980469 247.71875 C22.69225624 252.57949895 15.5985062 257.80536194 8.47216797 262.99609375 C5.44876586 265.19136789 2.40729058 267.36078275 -0.63671875 269.52734375 C-13.00786928 278.34901128 -25.30651804 287.26560165 -37.52783203 296.29370117 C-46.58777896 302.9797455 -55.72707987 309.55470394 -64.86621094 316.13183594 C-73.32264911 322.21973125 -81.75560784 328.33603116 -90.13671875 334.52734375 C-98.5188341 340.71939834 -106.95354659 346.83511034 -115.41162109 352.92285156 C-117.63170498 354.52372838 -119.84770424 356.13009806 -122.0625 357.73828125 C-131.55782431 364.62802844 -141.12785281 371.40189434 -150.75 378.11328125 C-154.59980449 380.79912082 -158.43727083 383.50173541 -162.26806641 386.21459961 C-177.86656833 397.26009331 -193.69487558 407.93816361 -209.60852051 418.5227356 C-210.83890932 419.34135639 -212.06889488 420.16058363 -213.29846191 420.98043823 C-216.2222942 422.92878775 -219.15202059 424.86640577 -222.09887695 426.77978516 C-223.16452881 427.4763623 -224.23018066 428.17293945 -225.328125 428.890625 C-226.26599854 429.49817627 -227.20387207 430.10572754 -228.17016602 430.73168945 C-231.2718701 432.98973494 -233.54684359 435.57329242 -235.95703125 438.53125 C-250.88013733 456.26545281 -275.98424108 466.96473688 -298.63671875 469.52734375 C-327.50944155 471.1735247 -353.64218057 462.44791218 -375.63671875 443.52734375 C-389.94252536 430.66212186 -402.32585241 412.33913291 -403.85986328 392.66552734 C-404.73216768 374.98153818 -403.0823087 362.16068731 -392.63671875 347.52734375 C-392.22550781 346.93050781 -391.81429688 346.33367187 -391.390625 345.71875 C-386.72639082 339.50515084 -379.83804818 336.04544571 -372.94921875 332.83984375 C-366.12169185 329.50327595 -360.5666558 324.96043523 -354.71972656 320.19775391 C-350.73193565 316.99985594 -346.64693067 313.92831384 -342.57421875 310.83984375 C-340.76558222 309.46490002 -338.956989 308.08989932 -337.1484375 306.71484375 C-336.23884277 306.02390625 -335.32924805 305.33296875 -334.39208984 304.62109375 C-329.88727659 301.19797852 -325.38699457 297.76892075 -320.88671875 294.33984375 C-320.01072021 293.67251221 -319.13472168 293.00518066 -318.23217773 292.31762695 C-312.86275939 288.22642638 -307.49779816 284.12946375 -302.13671875 280.02734375 C-285.694239 267.44977486 -269.21901689 254.92028793 -252.63671875 242.52734375 C-257.96598486 244.14910218 -262.66059684 245.88363583 -267.38671875 248.90234375 C-287.81655863 261.17578368 -312.44682572 264.37867953 -335.63671875 259.52734375 C-351.13842744 255.50958714 -363.72529639 248.22292714 -375.63671875 237.52734375 C-376.33152344 236.91503906 -377.02632813 236.30273438 -377.7421875 235.671875 C-388.52237839 225.58023922 -395.56865226 213.24224298 -400.63671875 199.52734375 C-401.178125 198.12355469 -401.178125 198.12355469 -401.73046875 196.69140625 C-403.92972177 189.74746847 -403.93750043 182.68656144 -404.01171875 175.46484375 C-404.02581787 174.459375 -404.03991699 173.45390625 -404.05444336 172.41796875 C-403.95955395 157.71611548 -399.06588113 145.44127863 -388.9609375 134.78515625 C-381.37998842 127.42080572 -373.78498736 123.12121314 -363.30078125 121.48046875 C-352.0525151 119.42345675 -341.62756445 114.72449942 -331.07421875 110.46484375 C-328.8095397 109.56196053 -326.54431146 108.66045376 -324.27856445 107.76025391 C-319.64258641 105.91717639 -315.00894699 104.06839852 -310.37695312 102.21533203 C-301.31753452 98.59599122 -292.23089943 95.04696653 -283.14221191 91.50192261 C-278.42036654 89.65946202 -273.70054406 87.81183305 -268.98046875 85.96484375 C-267.09636058 85.22784819 -265.21224599 84.49086904 -263.328125 83.75390625 C-257.54524166 81.4917315 -251.76282243 79.22837195 -245.98046875 76.96484375 C-226.97811835 69.52662821 -207.97294099 62.09581112 -188.96102905 54.68206787 C-173.2530141 48.55585963 -157.55624266 42.40112808 -141.86114502 36.24191284 C-130.78321577 31.89475804 -119.70461446 27.54944719 -108.6171875 23.2265625 C-107.74989517 22.88840515 -106.88260284 22.5502478 -105.98902893 22.20184326 C-102.60428166 20.88241518 -99.21941578 19.56329469 -95.83401489 18.24554443 C-86.52086782 14.62040692 -77.21815682 10.97123733 -67.93359375 7.2734375 C-66.17749971 6.57525286 -64.42139633 5.87709172 -62.6652832 5.17895508 C-59.36202677 3.86547721 -56.06150747 2.54542159 -52.76245117 1.22143555 C-51.27141546 0.62785666 -49.78029075 0.03450128 -48.2890625 -0.55859375 C-47.29969696 -0.95897606 -47.29969696 -0.95897606 -46.29034424 -1.3674469 C-31.17907255 -7.34859914 -14.46716838 -8.08018145 0 0 Z " fill="#CA8151" transform="translate(403.63671875,25.47265625)"/>
<path d="M0 0 C11.35407962 9.04430362 18.90730975 21.83083051 20.59375 36.26953125 C22.45593306 53.0291788 14.54154469 71.92607714 4.53125 84.875 C3.891875 85.66519531 3.2525 86.45539063 2.59375 87.26953125 C2.078125 87.92566406 1.5625 88.58179688 1.03125 89.2578125 C-2.67063853 93.79463785 -6.92951162 97.51607543 -11.40625 101.26953125 C-12.66695313 102.36201172 -12.66695313 102.36201172 -13.953125 103.4765625 C-25.53186429 113.37606473 -37.9970749 122.10249107 -50.71972656 130.4609375 C-58.07727501 135.32168645 -65.17102505 140.54754944 -72.29736328 145.73828125 C-75.32076539 147.93355539 -78.36224067 150.10297025 -81.40625 152.26953125 C-93.77740053 161.09119878 -106.07604929 170.00778915 -118.29736328 179.03588867 C-127.35731021 185.721933 -136.49661112 192.29689144 -145.63574219 198.87402344 C-154.09218036 204.96191875 -162.52513909 211.07821866 -170.90625 217.26953125 C-179.28836535 223.46158584 -187.72307784 229.57729784 -196.18115234 235.66503906 C-198.40123623 237.26591588 -200.61723549 238.87228556 -202.83203125 240.48046875 C-212.32735556 247.37021594 -221.89738406 254.14408184 -231.51953125 260.85546875 C-235.36933574 263.54130832 -239.20680208 266.24392291 -243.03759766 268.95678711 C-256.15183018 278.24313867 -269.4071729 287.30298528 -282.76553345 296.23413086 C-284.09247818 297.1214527 -285.41896765 298.00945579 -286.7449646 298.89819336 C-294.18894151 303.88465027 -301.65471577 308.7672176 -309.40625 313.26953125 C-308.65065662 309.93654427 -307.51881912 307.64979277 -305.65625 304.76953125 C-296.70855518 290.07127957 -291.40052704 271.5383037 -294.79736328 254.28271484 C-297.82196246 242.06624067 -304.21933869 229.96443781 -314.40625 222.26953125 C-326.24595479 215.53185387 -337.00159412 213.99410724 -350.40625 213.26953125 C-346.41133316 209.00045345 -342.05105741 205.69530395 -337.28125 202.33203125 C-335.66343457 201.17796308 -334.04626796 200.02298493 -332.4296875 198.8671875 C-331.59920898 198.27437988 -330.76873047 197.68157227 -329.91308594 197.07080078 C-325.88282182 194.17488252 -321.89508375 191.222117 -317.90625 188.26953125 C-308.05295237 180.98906709 -298.12049045 173.82121634 -288.17675781 166.66503906 C-279.72031964 160.57714375 -271.28736091 154.46084384 -262.90625 148.26953125 C-253.05217179 140.99010503 -243.12050666 133.82122801 -233.17675781 126.66503906 C-224.72031964 120.57714375 -216.28736091 114.46084384 -207.90625 108.26953125 C-198.05217179 100.99010503 -188.12050666 93.82122801 -178.17675781 86.66503906 C-169.72031964 80.57714375 -161.28736091 74.46084384 -152.90625 68.26953125 C-144.52676542 62.07942006 -136.09517637 55.96478816 -127.64013672 49.87841797 C-123.89265216 47.17940997 -120.14969155 44.47414241 -116.40625 41.76953125 C-114.90627146 40.68616821 -113.40627146 39.60283487 -111.90625 38.51953125 C-110.7925 37.71515625 -110.7925 37.71515625 -109.65625 36.89453125 C-107.40625 35.26953125 -105.15625 33.64453125 -102.90625 32.01953125 C-102.1635083 31.48295898 -101.4207666 30.94638672 -100.65551758 30.39355469 C-99.15852544 29.31269159 -97.66096834 28.23261052 -96.1628418 27.15332031 C-92.36175745 24.41339785 -88.5720916 21.6596989 -84.80078125 18.87890625 C-61.17385484 1.5113334 -28.68488879 -20.11588599 0 0 Z " fill="#CE9669" transform="translate(484.40625,142.73046875)"/>
<path d="M0 0 C9.9726399 6.46007148 17.75142796 14.72622614 20.36328125 26.52734375 C20.9026259 30.53058293 21.18795837 34.49451541 21.36328125 38.52734375 C8.24662341 43.72203898 -4.97087604 48.60585076 -18.2381897 53.40118408 C-24.30517141 55.59439388 -30.36956129 57.79474496 -36.43359375 59.99609375 C-37.05984461 60.22337788 -37.68609547 60.450662 -38.33132362 60.68483353 C-52.38992229 65.78839208 -66.42009549 70.9683746 -80.44921875 76.15234375 C-99.34645478 83.13300617 -118.27299369 90.02478814 -137.2354126 96.82629395 C-154.4543604 103.00354682 -171.63522234 109.27920871 -188.80029297 115.60449219 C-200.08908551 119.76281752 -211.38628716 123.89705371 -222.6953125 128 C-223.96752438 128.46171015 -225.23973609 128.92342076 -226.51194763 129.38513184 C-232.65945148 131.61576227 -238.80802873 133.84339876 -244.95776367 136.06787109 C-247.18670736 136.8759182 -249.41563091 137.68402084 -251.64453125 138.4921875 C-253.16142799 139.03940208 -253.16142799 139.03940208 -254.70896912 139.59767151 C-259.75835345 141.43052428 -264.72602213 143.34902658 -269.63671875 145.52734375 C-268.94707031 145.68589844 -268.25742187 145.84445313 -267.546875 146.0078125 C-255.81729239 148.9200957 -245.09027122 154.25744953 -238.5859375 164.875 C-231.25698179 178.65513685 -229.00828093 193.13150432 -233.57421875 208.21484375 C-241.18214482 228.43817265 -256.68534379 244.70118402 -276.23046875 253.734375 C-299.15324658 263.55470141 -325.52101978 264.52752455 -348.77539062 255.32519531 C-358.81865654 251.02018574 -367.52485291 244.81120415 -375.63671875 237.52734375 C-376.33152344 236.91503906 -377.02632813 236.30273438 -377.7421875 235.671875 C-388.52237839 225.58023922 -395.56865226 213.24224298 -400.63671875 199.52734375 C-401.178125 198.12355469 -401.178125 198.12355469 -401.73046875 196.69140625 C-403.92972177 189.74746847 -403.93750043 182.68656144 -404.01171875 175.46484375 C-404.02581787 174.459375 -404.03991699 173.45390625 -404.05444336 172.41796875 C-403.95955395 157.71611548 -399.06588113 145.44127863 -388.9609375 134.78515625 C-381.37998842 127.42080572 -373.78498736 123.12121314 -363.30078125 121.48046875 C-352.0525151 119.42345675 -341.62756445 114.72449942 -331.07421875 110.46484375 C-328.8095397 109.56196053 -326.54431146 108.66045376 -324.27856445 107.76025391 C-319.64258641 105.91717639 -315.00894699 104.06839852 -310.37695312 102.21533203 C-301.31753452 98.59599122 -292.23089943 95.04696653 -283.14221191 91.50192261 C-278.42036654 89.65946202 -273.70054406 87.81183305 -268.98046875 85.96484375 C-267.09636058 85.22784819 -265.21224599 84.49086904 -263.328125 83.75390625 C-257.54524166 81.4917315 -251.76282243 79.22837195 -245.98046875 76.96484375 C-226.97811835 69.52662821 -207.97294099 62.09581112 -188.96102905 54.68206787 C-173.2530141 48.55585963 -157.55624266 42.40112808 -141.86114502 36.24191284 C-130.78321577 31.89475804 -119.70461446 27.54944719 -108.6171875 23.2265625 C-107.74989517 22.88840515 -106.88260284 22.5502478 -105.98902893 22.20184326 C-102.60428166 20.88241518 -99.21941578 19.56329469 -95.83401489 18.24554443 C-86.52086782 14.62040692 -77.21815682 10.97123733 -67.93359375 7.2734375 C-66.17749971 6.57525286 -64.42139633 5.87709172 -62.6652832 5.17895508 C-59.36202677 3.86547721 -56.06150747 2.54542159 -52.76245117 1.22143555 C-51.27141546 0.62785666 -49.78029075 0.03450128 -48.2890625 -0.55859375 C-47.29969696 -0.95897606 -47.29969696 -0.95897606 -46.29034424 -1.3674469 C-31.17907255 -7.34859914 -14.46716838 -8.08018145 0 0 Z " fill="#7F5232" transform="translate(403.63671875,25.47265625)"/>
<path d="M0 0 C9.83008655 8.94518639 13.84754975 20.86687033 15.3203125 33.81640625 C16.02443398 49.94078816 7.32749333 63.55373069 -2.7890625 75.33203125 C-5 77 -5 77 -7.4609375 76.88671875 C-10.8704411 75.69601518 -14.17727323 74.34965888 -17.5 72.9375 C-30.03875378 68.23546733 -44.33991827 71.48162047 -56.1953125 76.80078125 C-63.42739492 80.24901089 -70.25245526 84.21454817 -76.86328125 88.75 C-79 90 -79 90 -82 90 C-82.29132813 89.2265625 -82.58265625 88.453125 -82.8828125 87.65625 C-87.72078056 75.36355129 -93.53830531 67.53172605 -105.69140625 61.7109375 C-118.84174154 56.26266148 -134.4420655 55.80057646 -147.671875 61.26171875 C-153.93425137 64.53256087 -159.44216897 68.66617684 -165 73 C-166.04671875 73.79664063 -167.0934375 74.59328125 -168.171875 75.4140625 C-170.30488463 77.04300269 -172.43166592 78.67749152 -174.55078125 80.32421875 C-178.35197299 83.27776565 -182.1749789 86.20241222 -186 89.125 C-186.70906494 89.66705078 -187.41812988 90.20910156 -188.14868164 90.76757812 C-196.52873016 97.17176761 -204.91978642 103.56151666 -213.31054688 109.95166016 C-217.70751269 113.30047489 -222.10372362 116.65028027 -226.5 120 C-228.24999626 121.33333824 -229.99999627 122.66667157 -231.75 124 C-232.61625 124.66 -233.4825 125.32 -234.375 126 C-242.25 132 -242.25 132 -244.87597656 134.00073242 C-246.6227363 135.33160473 -248.36948114 136.6624966 -250.11621094 137.9934082 C-254.54066371 141.36455736 -258.96538987 144.73534662 -263.390625 148.10546875 C-271.43227351 154.23021267 -279.47198386 160.35739463 -287.5 166.5 C-289.58031733 168.09093324 -291.66073563 169.6817343 -293.74121094 171.27246094 C-295.3385074 172.49408542 -296.93548114 173.71613192 -298.53222656 174.93847656 C-303.8619001 179.0173283 -309.20117362 183.08307044 -314.55078125 187.13574219 C-316.80448823 188.85118343 -319.04416487 190.58329413 -321.28125 192.3203125 C-327.94336937 197.43408225 -334.54060414 202.40689343 -343 204 C-343.66 203.67 -344.32 203.34 -345 203 C-344.39414062 202.51273438 -343.78828125 202.02546875 -343.1640625 201.5234375 C-330.92377755 191.16627331 -320.86462485 177.12113345 -318 161 C-317.04415572 146.34894428 -318.82616194 133.04066246 -328 121 C-334.77547462 113.53821653 -343.36758773 109.04314502 -353.28515625 107.45703125 C-354.13400391 107.23080078 -354.13400391 107.23080078 -355 107 C-355.33 106.34 -355.66 105.68 -356 105 C-355.07327232 104.66532211 -355.07327232 104.66532211 -354.12782288 104.32388306 C-327.33553045 94.64690563 -300.54524236 84.96555673 -273.8125 75.125 C-255.17619584 68.26546197 -236.52969891 61.43432243 -217.875 54.625 C-217.20769741 54.38139236 -216.54039482 54.13778473 -215.85287094 53.88679504 C-198.87065403 47.68721317 -181.88338201 41.50175897 -164.89038086 35.33178711 C-144.44909489 27.90943152 -124.01742922 20.46130371 -103.60614014 12.95684814 C-101.10934483 12.03888651 -98.61208198 11.12223247 -96.11456299 10.20623779 C-92.64440753 8.93310266 -89.17554864 7.65649632 -85.70703125 6.37890625 C-84.69694504 6.00892014 -83.68685883 5.63893402 -82.64616394 5.25773621 C-76.55363648 3.00810788 -70.54735558 0.601153 -64.56781006 -1.93392944 C-44.46574512 -10.27964781 -18.35965185 -14.27972922 0 0 Z " fill="#A46943" transform="translate(489,65)"/>
<path d="M0 0 C0.91652344 0.63679688 1.83304687 1.27359375 2.77734375 1.9296875 C6.32596291 6.83164648 5.68432386 11.79715188 5.5625 17.6875 C5.57345703 18.82123047 5.58441406 19.95496094 5.59570312 21.12304688 C5.52119213 29.74148514 3.8077054 36.48761632 -0.75 43.8125 C-7.13004048 50.01531713 -13.34821284 52.32693395 -22.15234375 52.2109375 C-28.12900887 51.76822157 -32.18016101 49.91724616 -36.5625 45.875 C-39.07597303 43.59054501 -40.24081341 42.92111285 -43.625 41.8125 C-47.13622234 41.70945471 -47.13622234 41.70945471 -49.9375 44.0625 C-52.14397909 46.8214058 -52.14397909 46.8214058 -52.6875 49.875 C-51.44854095 55.50663202 -48.12700458 58.62296148 -43.36328125 61.70703125 C-31.8546483 68.16003008 -20.69304365 69.91340223 -7.6953125 67.34765625 C-1.14057733 65.18440796 3.82149969 61.47281289 9 57 C10.010625 56.195625 11.02125 55.39125 12.0625 54.5625 C13.0215625 53.7890625 13.0215625 53.7890625 14 53 C14.43828125 53.50789063 14.8765625 54.01578125 15.328125 54.5390625 C22.72705229 62.56960553 31.6060581 67.50599074 42.56640625 68.23828125 C54.83597743 68.46616185 64.3836841 66.79176722 74.16015625 58.78125 C77.0214863 56.01104512 78.82303982 54.03964104 79.5 50.0625 C78.81810427 45.88588865 77.36996335 44.49084248 74 42 C70.29845366 41.51521358 68.56559504 41.63427689 65.40234375 43.6796875 C64.58894531 44.40414062 63.77554688 45.12859375 62.9375 45.875 C56.74955506 51.32977611 52.1660169 52.4606256 44.0078125 52.3203125 C37.49076807 51.62628959 32.84725724 48.22456058 28 44 C22.27187247 35.82248442 21.02919433 27.97515757 21.1875 18.1875 C21.14012695 16.4250293 21.14012695 16.4250293 21.09179688 14.62695312 C21.11367622 9.0914794 21.19105326 5.05231305 25.125 0.9140625 C36.95775249 -8.80994218 50.94494801 -12.12377758 66 -11 C79.006939 -9.0554953 89.68349424 -3.21876889 98 7 C107.89405003 20.98881528 110.94033522 35.68396591 108.375 52.45703125 C106.42899267 63.28191567 102.44814342 72.50466433 97 82 C96.14728516 83.52947266 96.14728516 83.52947266 95.27734375 85.08984375 C83.11893194 105.58380976 60.53769791 118.98935378 38.015625 125.2578125 C11.59455162 131.76040828 -14.26625604 127.24958664 -37.84375 113.97265625 C-58.55035318 101.03102926 -75.05361499 82.26745873 -81.33984375 58.23828125 C-84.62884127 40.48300664 -82.89508266 23.40366832 -72.71484375 8.40234375 C-72.14894531 7.60957031 -71.58304688 6.81679688 -71 6 C-70.58878906 5.40316406 -70.17757812 4.80632812 -69.75390625 4.19140625 C-63.85809775 -3.66287151 -53.61271157 -8.96724435 -44.09375 -10.64453125 C-27.63893113 -12.53517332 -13.45322487 -10.37019417 0 0 Z " fill="#A56A43" transform="translate(82,367)"/>
<path d="M0 0 C3.60516785 3.44842142 6.98326336 7.08322556 8.875 11.75 C8.13772595 22.66928292 4.83375435 36.46893557 -3.5 44.125 C-9.06139528 48.44270773 -14.44607754 49.28637616 -21.3828125 49.1171875 C-28.16636481 48.20884859 -31.94786163 44.22775876 -36 39 C-36.83144531 37.83210938 -36.83144531 37.83210938 -37.6796875 36.640625 C-38.99658002 34.63130452 -38.99658002 34.63130452 -41.125 33.75 C-44.99924565 33.39127355 -47.27433906 33.18289271 -50.5625 35.375 C-52.7098256 38.63893492 -52.84342864 39.87048534 -52.125 43.75 C-47.94980982 53.28203796 -40.73745596 59.81763165 -31.125 63.75 C-21.59451335 66.18001558 -10.05991991 66.16698319 -1.203125 61.72265625 C1.13417978 60.62869217 3.33740427 60.17145384 5.875 59.75 C6.2153125 60.39066406 6.555625 61.03132813 6.90625 61.69140625 C11.90063261 70.60425394 18.14455464 77.13749933 27.875 80.75 C38.26572743 83.48148785 50.31924001 83.02787999 59.90625 78.234375 C62.13953202 76.55055126 62.96335547 75.37974382 63.875 72.75 C63.70780373 67.84798978 63.70780373 67.84798978 61.1875 63.8125 C58.13801912 62.41138717 56.20918541 62.34989775 52.875 62.75 C51.575625 63.4925 51.575625 63.4925 50.25 64.25 C44.64112306 66.7428342 38.29045841 67.06234363 32.49609375 64.8359375 C26.44133484 61.27431461 22.1203268 56.46637056 19.875 49.75 C18.47918187 39.33278889 20.95979162 25.69596885 26.875 16.75 C28.86328125 15.51953125 28.86328125 15.51953125 31.1875 14.5625 C31.94675781 14.23894531 32.70601563 13.91539062 33.48828125 13.58203125 C44.9652261 9.58106684 58.25991683 10.98446696 69.234375 15.78125 C80.75648881 21.66150119 87.17190886 29.8685066 91.875 41.75 C96.1247114 55.05994164 94.94021323 69.21992771 88.875 81.75 C78.78807246 100.72634298 62.98604112 115.72142461 42.4296875 122.56396484 C18.04193976 129.91143451 -7.60901697 130.27528813 -30.59912109 117.99853516 C-37.71793312 113.99579372 -44.05154925 109.20351319 -50.125 103.75 C-50.81980469 103.13769531 -51.51460937 102.52539062 -52.23046875 101.89453125 C-63.01065964 91.80289547 -70.05693351 79.46489923 -75.125 65.75 C-75.4859375 64.81414062 -75.846875 63.87828125 -76.21875 62.9140625 C-78.41800302 55.97012472 -78.42578168 48.90921769 -78.5 41.6875 C-78.51409912 40.68203125 -78.52819824 39.6765625 -78.54272461 38.640625 C-78.4478352 23.93877173 -73.55416238 11.66393488 -63.44921875 1.0078125 C-44.41610034 -17.48150253 -20.40215198 -14.68954942 0 0 Z " fill="#603E26" transform="translate(78.125,159.25)"/>
</svg>
