<?xml version="1.0" encoding="UTF-8"?>
<svg id="Layer_1" xmlns="http://www.w3.org/2000/svg" viewBox="0 0 677.32 388.47">
  <defs>
    <style>
      .cls-1 {
        fill: #fec202;
      }

      .cls-2 {
        fill: #f7b000;
      }

      .cls-3 {
        fill: #88c01a;
      }
    </style>
  </defs>
  <g>
    <path class="cls-1" d="M396.17,31.49c57.11,1.42,116.41,16.03,168.14,54.75,25.3,18.94,45.22,42.31,57.46,71.71,2.11,5.07,4.28,8.02,10.76,8.09,25.52.25,44.71,19.63,44.8,44.32.09,24.01-18.78,43.47-43.88,44.61-5.6.26-9.16,1.15-11.58,6.98-16.23,39.05-45.03,66.89-80.95,87.6-54.89,31.63-114.33,42.71-177.23,37.82-55.57-4.33-106.55-20.76-151.15-54.96-24.32-18.65-43.37-41.52-55.2-69.96-2.28-5.47-5.4-7.3-11.38-7.47-25.34-.69-44.4-20.52-44.17-45.22.23-24.56,18.95-43.29,44.12-43.84,4.76-.1,8.17-.55,10.41-5.8,23.02-53.83,66.06-85.92,118.47-107.13,36.78-14.88,75.38-21.25,121.39-21.48Z"/>
    <path class="cls-3" d="M53.85.25C126.79,0,175.14,71.64,149.01,140.54c-1.85,4.88-5.14,6.89-9.41,8.34C64.1,174.4-9.33,120.73.97,38.49,5.27,4.19,5.86,6.76,41.54.35c3.98-.72,8.2-.1,12.31-.1Z"/>
  </g>
  <path class="cls-2" d="M359.65,141.22c-12.31.1-24-10.7-23.92-22.1.08-11.93,11.7-23.7,23.09-23.38,11.24.32,22.07,11.48,22.46,23.14.35,10.59-10.94,22.26-21.62,22.34Z"/>
  <path class="cls-2" d="M233.06,119.38c0-11.91,11.3-24.52,22.01-23.59,9.19.8,22.59,10.76,21.88,23.33-.71,12.62-10.1,22.21-23.27,22.1-12.29-.1-20.62-8.92-20.62-21.84Z"/>
  <path class="cls-2" d="M306.99,196.36c-13.41-.02-22.71-8.71-22.59-21.1.13-13.18,9.54-22.58,22.65-22.63,11.16-.04,23.04,11.39,22.9,22.04-.15,10.64-11.86,21.71-22.96,21.69Z"/>
</svg>