<?xml version="1.0" encoding="UTF-8"?>
<svg version="1.1" xmlns="http://www.w3.org/2000/svg" width="512" height="512">
<path d="M0 0 C0.9170874 -0.00241196 1.8341748 -0.00482391 2.77905273 -0.00730896 C4.71570159 -0.00633058 6.65237844 0.00706082 8.58886719 0.03198242 C11.55239916 0.06628932 14.51294899 0.0526423 17.4765625 0.03320312 C19.35938769 0.04010172 21.24220518 0.04977422 23.125 0.0625 C24.01050537 0.05754013 24.89601074 0.05258026 25.80834961 0.04747009 C29.55493963 0.11915695 31.89069984 0.21318579 35.11865234 2.21069336 C37.1073507 5.54144365 37.07706188 8.01706183 37.1015625 11.88671875 C37.11335541 12.58981171 37.12514832 13.29290466 37.13729858 14.01730347 C37.1725085 16.26306184 37.18171131 18.50789496 37.1875 20.75390625 C37.33004044 39.996866 39.35694445 53.49312047 53.1640625 67.984375 C62.7626804 78.56786738 65.914895 91.6408087 67.14204407 105.53845215 C67.2602354 106.74963258 67.37842673 107.96081302 67.50019962 109.20869589 C67.86800027 113.01427801 68.21616803 116.82131691 68.5625 120.62890625 C68.7870168 122.99731039 69.01249061 125.36562402 69.23897362 127.73384094 C69.94485038 135.17929904 70.61827644 142.62754923 71.28979492 150.07617188 C71.54598545 152.90186697 71.80283021 155.72750254 72.05958557 158.55314636 C72.81957415 166.92401918 73.57501453 175.29529966 74.32948372 183.66667151 C74.54347932 186.04082073 74.75759073 188.41495948 74.97173905 190.78909492 C76.31006796 205.62679663 77.64678897 220.46464235 78.97883129 235.30290985 C79.2849396 238.71252114 79.5910649 242.1221309 79.8972168 245.53173828 C79.97327628 246.37882845 80.04933576 247.22591861 80.12770007 248.09867817 C81.36088997 261.82979841 82.60429714 275.55997373 83.85184713 289.28979594 C85.14049431 303.47389549 86.41958322 317.65883268 87.68965417 331.84460783 C88.39985905 339.77441443 89.11404781 347.70381449 89.83910179 355.63227844 C90.45599716 362.37823974 91.06409507 369.12492604 91.66145416 375.87264645 C91.96509434 379.29964596 92.2738059 382.72596363 92.59111404 386.15173912 C93.84734052 399.74112612 94.76798186 413.23796158 94.80244446 426.89123535 C94.80622831 428.03596235 94.81001215 429.18068934 94.81391066 430.36010504 C94.65307882 453.57731381 84.75730674 473.29357876 69.05859375 490.18359375 C52.36493284 506.53763401 31.44080163 513.32850934 8.42602539 513.09741211 C-9.48580558 512.55402745 -26.7656443 506.47591681 -40.4375 494.62890625 C-41.2109375 494.00886719 -41.984375 493.38882812 -42.78125 492.75 C-58.48209412 479.59327414 -68.98994 459.95814199 -71.4375 439.62890625 C-71.67964093 435.42651656 -71.70623261 431.2370986 -71.69282532 427.02842712 C-71.68974407 425.80870679 -71.68666281 424.58898645 -71.68348819 423.33230489 C-71.54996575 409.53397222 -70.37893894 395.83893529 -69.11427343 382.10768068 C-68.76769909 378.31387522 -68.43579228 374.51877834 -68.1018219 370.72384644 C-67.44941385 363.33622504 -66.78394278 355.94983995 -66.11356565 348.56382973 C-65.33113016 339.93840444 -64.56143339 331.31185547 -63.79194251 322.68526744 C-62.41820167 307.29012609 -61.03214688 291.8961184 -59.6394043 276.50268555 C-58.29129824 261.60257512 -56.95362079 246.70157345 -55.62670898 231.79956055 C-54.1758707 215.50592668 -52.71925965 199.21282821 -51.25268823 182.92060226 C-51.09619863 181.1820684 -50.93971185 179.44353429 -50.78322792 177.70499992 C-50.70625497 176.84992232 -50.62928202 175.99484472 -50.54997655 175.11385568 C-50.01024914 169.11414528 -49.47447806 163.11408923 -48.94017601 157.11389351 C-48.28910895 149.80423522 -47.63134722 142.49521451 -46.96524998 135.18690998 C-46.62618169 131.46507682 -46.28992027 127.74305083 -45.96162796 124.02025032 C-45.6047674 119.9747201 -45.23365705 115.93061879 -44.86125183 111.88648987 C-44.7610438 110.72558934 -44.66083578 109.56468882 -44.55759114 108.36860949 C-42.85124787 90.25282305 -37.75165521 77.14596221 -25.72338867 63.65966797 C-14.26778928 50.66900734 -14.09791382 36.52672894 -14.05664062 20.03808594 C-14.04711079 17.7709373 -14.01337197 15.50512832 -13.9765625 13.23828125 C-13.98160797 12.54861267 -13.98665344 11.85894409 -13.99185181 11.14837646 C-13.92554727 7.89255673 -13.43390678 5.6215989 -11.99365234 2.69262695 C-8.16664798 -0.39712165 -4.7868897 -0.0716716 0 0 Z " fill="#87B973" transform="translate(244.4375,-0.62890625)"/>
<path d="M0 0 C0.9170874 -0.00241196 1.8341748 -0.00482391 2.77905273 -0.00730896 C4.71570159 -0.00633058 6.65237844 0.00706082 8.58886719 0.03198242 C11.55239916 0.06628932 14.51294899 0.0526423 17.4765625 0.03320312 C19.35938769 0.04010172 21.24220518 0.04977422 23.125 0.0625 C24.01050537 0.05754013 24.89601074 0.05258026 25.80834961 0.04747009 C29.55493963 0.11915695 31.89069984 0.21318579 35.11865234 2.21069336 C37.1073507 5.54144365 37.07706188 8.01706183 37.1015625 11.88671875 C37.11335541 12.58981171 37.12514832 13.29290466 37.13729858 14.01730347 C37.1725085 16.26306184 37.18171131 18.50789496 37.1875 20.75390625 C37.33004044 39.996866 39.35694445 53.49312047 53.1640625 67.984375 C62.7626804 78.56786738 65.914895 91.6408087 67.14204407 105.53845215 C67.2602354 106.74963258 67.37842673 107.96081302 67.50019962 109.20869589 C67.86800027 113.01427801 68.21616803 116.82131691 68.5625 120.62890625 C68.7870168 122.99731039 69.01249061 125.36562402 69.23897362 127.73384094 C69.94485038 135.17929904 70.61827644 142.62754923 71.28979492 150.07617188 C71.54598545 152.90186697 71.80283021 155.72750254 72.05958557 158.55314636 C72.81957415 166.92401918 73.57501453 175.29529966 74.32948372 183.66667151 C74.54347932 186.04082073 74.75759073 188.41495948 74.97173905 190.78909492 C76.31006796 205.62679663 77.64678897 220.46464235 78.97883129 235.30290985 C79.2849396 238.71252114 79.5910649 242.1221309 79.8972168 245.53173828 C79.97327628 246.37882845 80.04933576 247.22591861 80.12770007 248.09867817 C81.36088997 261.82979841 82.60429714 275.55997373 83.85184713 289.28979594 C85.14049431 303.47389549 86.41958322 317.65883268 87.68965417 331.84460783 C88.39985905 339.77441443 89.11404781 347.70381449 89.83910179 355.63227844 C90.45599716 362.37823974 91.06409507 369.12492604 91.66145416 375.87264645 C91.96509434 379.29964596 92.2738059 382.72596363 92.59111404 386.15173912 C93.84734052 399.74112612 94.76798186 413.23796158 94.80244446 426.89123535 C94.80622831 428.03596235 94.81001215 429.18068934 94.81391066 430.36010504 C94.65307882 453.57731381 84.75730674 473.29357876 69.05859375 490.18359375 C56.25936653 502.7224298 37.42372125 512.69836273 19.08984375 512.7265625 C17.92582031 512.69433594 16.76179688 512.66210938 15.5625 512.62890625 C20.5625 508.62890625 20.5625 508.62890625 23 506.94140625 C34.5689936 496.50109495 39.39146948 477.61218257 42.125 462.81640625 C42.25068359 462.16865234 42.37636719 461.52089844 42.50585938 460.85351562 C44.52706591 450.04905555 44.74882572 439.36136132 44.74780273 428.40209961 C44.74989243 425.94299153 44.7677944 423.48441307 44.78710938 421.02539062 C44.83616585 406.82668909 44.1643551 392.66664921 43.50418472 378.48750305 C42.84278933 364.28042885 42.26633772 350.07475544 41.81640625 335.859375 C41.78804876 334.96785484 41.75969128 334.07633469 41.73047447 333.15779877 C41.58574274 328.59504734 41.44293616 324.03223842 41.30126953 319.46939087 C40.19348082 283.78244013 40.19348082 283.78244013 38.80859375 248.10546875 C38.76239332 247.02426695 38.76239332 247.02426695 38.71525955 245.92122269 C38.44088007 239.52438706 38.16062007 233.12781705 37.87426758 226.73150635 C37.06637324 208.65132406 36.42098377 190.57303542 35.93729019 172.48105812 C35.84796427 169.15599699 35.75636177 165.8310062 35.66403198 162.50602722 C35.60280468 160.29397692 35.54161691 158.08192553 35.48046875 155.86987305 C35.45020662 154.77619258 35.4199445 153.68251211 35.38876534 152.55568981 C35.21064491 146.04623518 35.05015135 139.53662577 34.90224552 133.02641869 C34.80634398 128.9681944 34.69515866 124.9104859 34.58022881 120.85276031 C34.52995324 118.9581373 34.48628589 117.06332563 34.4497242 115.16838837 C34.25465028 99.94340945 34.25465028 99.94340945 27.25 86.75390625 C20.89084678 81.72573859 15.66446042 81.10137941 7.66796875 81.2578125 C3.38549451 81.7695547 1.04461421 83.15273614 -2.4375 85.62890625 C-3.0975 85.62890625 -3.7575 85.62890625 -4.4375 85.62890625 C-6.00379708 88.64861413 -7.31375164 91.71541039 -8.5625 94.87890625 C-8.91570312 95.7709375 -9.26890625 96.66296875 -9.6328125 97.58203125 C-9.89835937 98.2575 -10.16390625 98.93296875 -10.4375 99.62890625 C-10.72109375 99.05140625 -11.0046875 98.47390625 -11.296875 97.87890625 C-15.11847921 90.34039931 -18.34632583 85.37861766 -26.7109375 82.50390625 C-29.94100609 81.49494773 -33.17809232 80.53805854 -36.4375 79.62890625 C-35.15010192 76.0367516 -33.64679691 73.34062326 -31.25 70.37890625 C-30.63125 69.60160156 -30.0125 68.82429688 -29.375 68.0234375 C-28.10685541 66.45615396 -26.83611973 64.89096255 -25.5625 63.328125 C-14.72150757 49.80024867 -14.09858907 36.79649008 -14.05664062 20.03808594 C-14.04711079 17.7709373 -14.01337197 15.50512832 -13.9765625 13.23828125 C-13.98160797 12.54861267 -13.98665344 11.85894409 -13.99185181 11.14837646 C-13.92554727 7.89255673 -13.43390678 5.6215989 -11.99365234 2.69262695 C-8.16664798 -0.39712165 -4.7868897 -0.0716716 0 0 Z " fill="#9FC773" transform="translate(244.4375,-0.62890625)"/>
<path d="M0 0 C7.77982387 0.37644309 14.76101479 2.13737329 20.671875 7.5234375 C30.14153102 18.49709771 27.10559096 34.20914183 26.58239746 47.69244385 C26.53747838 48.90124985 26.49255931 50.11005586 26.44627905 51.35549235 C26.3225983 54.6715514 26.19677599 57.98751615 26.07002711 61.30345845 C25.93325223 64.89619248 25.79934046 68.48903337 25.66511536 72.0818634 C25.43243747 78.30110204 25.19813555 84.52027773 24.96284485 90.73941803 C24.58975561 100.60404408 24.22147381 110.46884699 23.85388184 120.3336792 C23.72760641 123.72079958 23.6012947 127.10791861 23.47496796 130.49503708 C23.44340022 131.34145654 23.41183247 132.18787599 23.37930813 133.05994453 C23.0205118 142.67817938 22.66060201 152.29637248 22.30029297 161.91455078 C22.26739621 162.79273683 22.23449944 163.67092289 22.20060581 164.57572064 C21.66929418 178.75640815 21.13505371 192.93698429 20.60014051 207.11753634 C20.04870825 221.73917072 19.50208494 236.36098018 18.95936251 250.98294044 C18.62583092 259.96408964 18.28849375 268.94507873 17.94595015 277.92588881 C17.71048039 284.10807012 17.479633 290.29041405 17.2521323 296.47289369 C17.12156522 300.01736544 16.98919881 303.56174031 16.85112953 307.10592842 C16.30580336 321.2069167 15.89947189 335.30220675 15.84410161 349.41387567 C15.83837909 350.81464531 15.83024037 352.21540779 15.81934053 353.61614671 C15.68604268 372.93739085 18.05401174 392.24088168 26 410 C26.27215332 410.61182129 26.54430664 411.22364258 26.82470703 411.85400391 C30.32248427 419.48124346 34.1868525 425.08329562 41 430 C41.73863281 430.55429687 42.47726563 431.10859375 43.23828125 431.6796875 C43.81964844 432.11539062 44.40101563 432.55109375 45 433 C27.7017614 433.45924527 10.05157079 426.30951791 -3 415 C-3.7734375 414.37996094 -4.546875 413.75992187 -5.34375 413.12109375 C-21.04459412 399.96436789 -31.55244 380.32923574 -34 360 C-34.24214093 355.79761031 -34.26873261 351.60819235 -34.25532532 347.39952087 C-34.25224407 346.17980054 -34.24916281 344.9600802 -34.24598819 343.70339864 C-34.11246575 329.90506597 -32.94143894 316.21002904 -31.67677343 302.47877443 C-31.33019909 298.68496897 -30.99829228 294.88987209 -30.6643219 291.09494019 C-30.01191385 283.70731879 -29.34644278 276.3209337 -28.67606565 268.93492348 C-27.89363016 260.30949819 -27.12393339 251.68294922 -26.35444251 243.05636119 C-24.98070167 227.66121984 -23.59464688 212.26721215 -22.2019043 196.8737793 C-20.85379824 181.97366887 -19.51612079 167.0726672 -18.18920898 152.1706543 C-16.7383707 135.87702043 -15.28175965 119.58392196 -13.81518823 103.29169601 C-13.65869863 101.55316215 -13.50221185 99.81462804 -13.34572792 98.07609367 C-13.26875497 97.22101607 -13.19178202 96.36593847 -13.11247655 95.48494943 C-12.57274914 89.48523903 -12.03697806 83.48518298 -11.50267601 77.48498726 C-10.85160895 70.17532897 -10.19384722 62.86630826 -9.52774998 55.55800373 C-9.18868169 51.83617057 -8.85242027 48.11414458 -8.52412796 44.39134407 C-8.1672674 40.34581385 -7.79615705 36.30171254 -7.42375183 32.25758362 C-7.3235438 31.09668309 -7.22333578 29.93578257 -7.12009114 28.73970324 C-6.20265872 18.9995706 -5.11998209 8.53330348 0 0 Z " fill="#69A573" transform="translate(207,79)"/>
<path d="M0 0 C0.9170874 -0.00241196 1.8341748 -0.00482391 2.77905273 -0.00730896 C4.71570159 -0.00633058 6.65237844 0.00706082 8.58886719 0.03198242 C11.55239916 0.06628932 14.51294899 0.0526423 17.4765625 0.03320312 C19.35938769 0.04010172 21.24220518 0.04977422 23.125 0.0625 C24.01050537 0.05754013 24.89601074 0.05258026 25.80834961 0.04747009 C29.55132351 0.11908776 31.8901855 0.21366641 35.11645508 2.20629883 C37.11394646 5.55276295 37.09346752 8.06967746 37.13671875 11.95703125 C37.15088333 12.66486755 37.16504791 13.37270386 37.17964172 14.10198975 C37.2214584 16.3611157 37.2367431 18.61944861 37.25 20.87890625 C37.27925057 23.12370632 37.31407124 25.36831496 37.35249329 27.61297607 C37.38498277 29.66014659 37.40322093 31.70752872 37.4206543 33.75488281 C37.52463802 36.59483765 37.75707985 39.17982572 38.1706543 41.97070312 C38.5625 45.62890625 38.5625 45.62890625 37.0078125 48.01953125 C28.04750035 55.19984873 19.31778089 59.68668195 7.5625 58.62890625 C-1.70029046 57.13755594 -7.87187231 53.19453394 -14.4375 46.62890625 C-14.59150184 43.59787006 -14.62300888 40.66866967 -14.5546875 37.640625 C-14.53914825 36.74527542 -14.52360901 35.84992584 -14.50759888 34.92744446 C-14.47074302 33.03004917 -14.42834049 31.13275484 -14.38085938 29.2355957 C-14.31302093 26.33865193 -14.27671393 23.44242946 -14.2421875 20.54492188 C-14.20245698 18.70178016 -14.16085101 16.85867773 -14.1171875 15.015625 C-14.10968475 14.15088058 -14.10218201 13.28613617 -14.0944519 12.39518738 C-13.97260226 8.60563524 -13.63257434 6.03813615 -11.98486328 2.58154297 C-8.14441103 -0.36228846 -4.71859464 -0.07064905 0 0 Z " fill="#D3F481" transform="translate(244.4375,-0.62890625)"/>
<path d="M0 0 C0.84433594 0.01611328 1.68867188 0.03222656 2.55859375 0.04882812 C3.86763672 0.11166992 3.86763672 0.11166992 5.203125 0.17578125 C6.53537109 0.20961914 6.53537109 0.20961914 7.89453125 0.24414062 C10.08245312 0.30295573 12.26692171 0.38506857 14.453125 0.48828125 C14.123125 1.14828125 13.793125 1.80828125 13.453125 2.48828125 C12.793125 2.48828125 12.133125 2.48828125 11.453125 2.48828125 C10.51164451 5.31272273 10.30882936 7.13275736 10.26367188 10.06396484 C10.24695435 10.98857513 10.23023682 11.91318542 10.2130127 12.86581421 C10.19943726 13.86271271 10.18586182 14.85961121 10.171875 15.88671875 C10.15346558 16.91382965 10.13505615 17.94094055 10.11608887 18.99917603 C10.05730089 22.28715252 10.00451657 25.57518133 9.953125 28.86328125 C9.88538101 33.18370141 9.81166518 37.50396004 9.734375 41.82421875 C9.72079956 42.81706879 9.70722412 43.80991882 9.6932373 44.83285522 C9.67651978 45.76376984 9.65980225 46.69468445 9.64257812 47.65380859 C9.62378601 48.87600601 9.62378601 48.87600601 9.60461426 50.12289429 C9.44284648 52.64877242 9.00139193 55.01981189 8.453125 57.48828125 C1.29265227 55.18670073 -4.21428485 51.8208714 -9.546875 46.48828125 C-9.70087684 43.45724506 -9.73238388 40.52804467 -9.6640625 37.5 C-9.64852325 36.60465042 -9.63298401 35.70930084 -9.61697388 34.78681946 C-9.58011802 32.88942417 -9.53771549 30.99212984 -9.49023438 29.0949707 C-9.42239593 26.19802693 -9.38608893 23.30180446 -9.3515625 20.40429688 C-9.31183198 18.56115516 -9.27022601 16.71805273 -9.2265625 14.875 C-9.21905975 14.01025558 -9.21155701 13.14551117 -9.2038269 12.25456238 C-9.07542978 8.26138228 -8.81478202 5.95393803 -6.78857422 2.43212891 C-4.24509647 0.22659962 -3.30835455 -0.11176873 0 0 Z " fill="#BEE76E" transform="translate(239.546875,-0.48828125)"/>
</svg>
