<?xml version="1.0" encoding="UTF-8"?>
<svg id="Layer_1" xmlns="http://www.w3.org/2000/svg" viewBox="0 0 452.38 479.59">
  <defs>
    <style>
      .cls-1 {
        fill: #1180b5;
      }

      .cls-2 {
        fill: #e8eeef;
      }

      .cls-3 {
        fill: #ecf6fb;
      }

      .cls-4 {
        fill: #eaeff0;
      }

      .cls-5 {
        fill: #1a99d5;
      }

      .cls-6 {
        fill: #1897d4;
      }

      .cls-7 {
        fill: #cddbde;
      }

      .cls-8 {
        fill: #fcfdfe;
      }

      .cls-9 {
        fill: #209cd7;
      }

      .cls-10 {
        fill: #eef7fb;
      }

      .cls-11 {
        fill: #cedcdf;
      }

      .cls-12 {
        fill: #1898d4;
      }

      .cls-13 {
        fill: #90cae4;
      }
    </style>
  </defs>
  <path class="cls-5" d="M.5,384.22c-.14-81.2-.35-162.41-.28-243.61,0-5.85,1.95-11.7,2.99-17.55,111.05.05,222.11.09,333.16.14.1,57.16.2,114.32.29,171.48-2.28.18-4.55.49-6.83.53-20.06.38-20.23.46-20.19,19.92.04,23.79.21,47.58.33,71.37-8.59-.16-17.19-.32-25.78-.48-4.24-2.43-8.92-1.89-13.47-1.89-90.07,0-180.14.05-270.21.09ZM216.33,320.3c8.95-11.28,18.45-19.93,25.65-30.54,3.61-5.32,6.98-3.73,11.62-2.28,15.69,4.9,29.39.93,38.18-10.95,8.47-11.45,9.1-23.9,2.6-36.34-6.71-12.84-20.58-19.17-36.36-16.36-7.78,1.39-15.48,1.69-23.28,1.69-53.77,0-107.55.26-161.32-.22-10.49-.09-13.84,3.17-12.84,13.39,1.31,13.31,5.56,25.57,11.15,37.51,7.96,17.03,21.36,29.74,37.53,44.09-11.01,0-18.69-.06-26.36.02-6.79.07-11.96,2.63-11.97,10.22-.01,7.14,5.06,9.16,11.24,9.16,52.39.02,104.79.02,157.18.02,6.14,0,11.27-1.9,11.59-8.9.35-7.7-4.9-10.31-11.65-10.47-7.65-.17-15.3-.04-22.95-.04ZM173.62,149.1c-.92-4.94-3.39-9.07-9.49-9.23-5.88-.15-9.62,2.82-9.86,8.96-.24,6.08,3.29,9.7,9,9.98,5.8.29,9.07-3.54,10.36-9.72ZM201.29,171.19c-.84-5.59-3.94-9.19-9.94-9.04-5.95.15-9.41,3.64-9.31,9.62.1,6.03,4.03,9.48,9.69,9.37,5.69-.11,9.03-3.88,9.56-9.95ZM149.5,192.6c-5.81.45-9.17,3.77-9.13,9.68.03,5.97,3.71,9.57,9.52,9.48,5.78-.09,9.56-3.94,9.49-9.69-.07-5.71-3.66-9.15-9.88-9.47Z"/>
  <path class="cls-6" d="M11.63,91.61c2.74-9.65,5.08-19.45,8.32-28.93,4.22-12.35,11.82-22.25,25.36-24.64,8.55-1.5,11.12-5.16,11.16-13.62C56.55,2.43,59.4.01,81.23,0,165.34,0,249.45,0,333.55,0c27.87,0,28.98,1.08,29.17,28.36.02,2.3.1,4.59.14,6.89-3.11,1.26-10.55-1.24-7.95,5.31,7.76,19.6-4.38,34.39-10.6,50.68-110.9.12-221.79.24-332.69.36Z"/>
  <path class="cls-1" d="M344.32,91.25c6.22-16.29,18.35-31.07,10.6-50.68-2.59-6.56,4.85-4.05,7.95-5.31,22.95,3.71,30.41,20.42,37.51,40.17,13.62,37.91,16.19,76.58,15.2,116.21-.86,34.33-.14,68.7-.11,103.05-5.18.37-10.35.74-15.53,1.12-21.09-.37-42.18-.75-63.27-1.12-.1-57.16-.2-114.32-.29-171.48,3.47-10.45,9.11-20.36,7.95-31.96Z"/>
  <path class="cls-12" d="M284.14,479.32c-82.97,0-165.94.23-248.91-.17-20.99-.1-34.17-14.42-35.1-36.1-.39-9.14.22-18.32.37-27.48,32.6.03,65.2,0,97.8.1,60.14.17,120.27.42,180.41.64.1,16.03.34,32.06.21,48.08-.05,5.76.69,10.93,5.23,14.93Z"/>
  <path class="cls-13" d="M344.32,91.25c1.15,11.6-4.48,21.51-7.95,31.96-111.05-.05-222.11-.09-333.16-.14.49-11.11,4.17-21.36,8.42-31.45,110.89-.12,221.79-.24,332.69-.36Z"/>
  <path class="cls-13" d="M278.7,416.31c-60.14-.22-120.27-.46-180.41-.64-32.6-.09-65.2-.07-97.8-.1,0-10.46,0-20.91,0-31.36,90.07-.04,180.14-.09,270.21-.09,4.55,0,9.24-.55,13.47,1.89-7.86,9.01-4.77,20-5.49,30.3Z"/>
  <path class="cls-2" d="M278.7,416.31c.72-10.3-2.37-21.29,5.49-30.3,8.59.16,17.19.32,25.78.48,2.51.74,5.02,1.48,7.54,2.23,12.81,0,25.62.36,38.41-.11,11.87-.43,16.58,5.21,16.49,16.5-.15,19.21-.1,38.42.03,57.63.04,6.23-1.56,11.72-5.62,16.46-27.56.04-55.11.07-82.67.11-4.54-4-5.28-9.17-5.23-14.93.13-16.03-.11-32.06-.21-48.08Z"/>
  <path class="cls-7" d="M366.81,479.21c4.05-4.74,5.66-10.24,5.62-16.46-.13-19.21-.18-38.42-.03-57.63.09-11.29-4.62-16.93-16.49-16.5-12.79.46-25.61.11-38.42.11,26.79-5.16,53.78-2.36,80.71-1.9,6.86.71,13.71,1.43,20.57,2.14,5.24,10.45,2.24,21.63,2.62,32.46.51,14.64-.12,29.32.21,43.98.22,9.68-3.31,14.54-13.6,14.18-13.72-.47-27.46-.27-41.19-.36Z"/>
  <path class="cls-11" d="M399.93,295.8c5.18-.37,10.36-.74,15.53-1.12.9.15,1.8.4,2.7.43q33.95,1.12,33.95,34.78c0,13.72-.65,27.47.19,41.13.79,12.9-4.66,17.55-16.89,16.36-4.99-.49-10.04-.24-15.07-.32-6.71-.21-13.43-.42-20.14-.63,3.86-30.22,4.57-60.43-.27-90.63Z"/>
  <path class="cls-8" d="M216.33,320.3c7.65,0,15.3-.13,22.95.04,6.75.15,12,2.77,11.65,10.47-.32,7-5.45,8.9-11.59,8.9-52.39,0-104.79,0-157.18-.02-6.18,0-11.25-2.02-11.24-9.16.01-7.6,5.18-10.15,11.97-10.22,7.67-.08,15.35-.02,26.36-.02-16.17-14.35-29.57-27.06-37.53-44.09-5.58-11.94-9.83-24.2-11.15-37.51-1.01-10.22,2.35-13.48,12.84-13.39,53.77.48,107.55.22,161.32.22,7.8,0,15.5-.3,23.28-1.69,15.78-2.81,29.64,3.52,36.36,16.36,6.5,12.43,5.87,24.89-2.6,36.34-8.79,11.88-22.48,15.85-38.18,10.95-4.64-1.45-8.01-3.04-11.62,2.28-7.2,10.61-16.71,19.26-25.65,30.54ZM264.56,239.61c-9.81,1.68-16.26,7.2-15.79,17.41.46,10.02,6.76,16.18,17.11,15.8,10.33-.39,16.02-6.62,15.72-17-.31-10.53-6.94-15.27-17.04-16.21Z"/>
  <path class="cls-4" d="M400.2,386.43c-.64.27-1.3.4-2,.39-26.93-.46-53.91-3.26-80.71,1.9-2.51-.74-5.02-1.48-7.53-2.23-.12-23.79-.29-47.58-.33-71.37-.03-19.46.13-19.54,20.19-19.92,2.28-.04,4.55-.35,6.83-.53,21.09.37,42.18.75,63.27,1.12,4.85,30.2,4.13,60.41.27,90.63Z"/>
  <path class="cls-3" d="M173.62,149.1c-1.29,6.18-4.56,10.01-10.36,9.72-5.71-.29-9.24-3.91-9-9.98.24-6.14,3.98-9.11,9.86-8.96,6.1.16,8.57,4.29,9.49,9.23Z"/>
  <path class="cls-10" d="M201.29,171.19c-.52,6.07-3.87,9.83-9.56,9.95-5.67.11-9.59-3.34-9.69-9.37-.1-5.98,3.36-9.47,9.31-9.62,6-.15,9.1,3.45,9.94,9.04Z"/>
  <path class="cls-10" d="M149.5,192.6c6.22.32,9.81,3.77,9.88,9.47.07,5.75-3.71,9.61-9.49,9.69-5.81.09-9.49-3.51-9.52-9.48-.03-5.91,3.32-9.24,9.13-9.68Z"/>
  <path class="cls-9" d="M264.56,239.61c10.1.94,16.73,5.68,17.04,16.21.3,10.38-5.39,16.61-15.72,17-10.36.39-16.65-5.78-17.11-15.8-.47-10.21,5.99-15.73,15.79-17.41Z"/>
</svg>