<?xml version="1.0" encoding="UTF-8"?>
<svg version="1.1" xmlns="http://www.w3.org/2000/svg" width="512" height="512">
<path d="M0 0 C17.18292758 6.06036865 29.51114377 19.95763994 37.31518555 35.92675781 C40.49699368 42.74782513 44 50.3949308 44 58 C47.63 57.67 51.26 57.34 55 57 C54.67 55.35 54.34 53.7 54 52 C52.93988031 36.83546967 53.12321806 19.55617312 63.4453125 7.28125 C66.13290162 5.06635243 68.60262019 5.05857551 72 5 C75.29431677 6.79038955 76.62103684 8.13680614 78.125 11.5625 C77.96361391 16.00061747 76.35992513 19.0235246 74.32421875 22.92578125 C71.12628184 30.34990027 70.7224358 37.56461523 70.875 45.5625 C70.88402344 46.47580078 70.89304688 47.38910156 70.90234375 48.33007812 C70.92562747 50.55367319 70.9583229 52.77668677 71 55 C72.25554687 54.97808594 73.51109375 54.95617188 74.8046875 54.93359375 C79.65053204 54.84901535 82.85695947 56.05379761 86.50976562 59.37109375 C91.02381921 64.20385458 92.2284623 68.53037754 93.375 74.9375 C97.27889332 93.5669767 106.41406425 109.82089467 122.46875 120.66796875 C129.55172921 125.01524672 137.01097146 128.31309892 144.609375 131.64379883 C151.38869784 134.64269326 157.72665301 138.03453066 164 142 C164.06731323 141.0867395 164.06731323 141.0867395 164.13598633 140.1550293 C165.68171246 119.80649767 168.02222737 101.49555787 184 87 C196.14912315 77.74606263 207.5217956 74.8033623 222.53540039 74.75976562 C224.53218593 74.75014604 226.5288302 74.71898839 228.52539062 74.6875 C244.70652682 74.62293686 257.99083905 78.56696125 269.93359375 89.8046875 C279.76748699 100.25203722 284.09818509 112.23246709 285.421875 126.31640625 C286.41200589 138.16337784 286.41200589 138.16337784 291 149 C291.433125 149.75410156 291.86625 150.50820312 292.3125 151.28515625 C298.0941854 160.69610613 305.94413328 165.85556651 315.625 170.8125 C324.66054283 175.59354831 332.93364597 180.7354809 341 187 C341.88945312 187.66773438 342.77890625 188.33546875 343.6953125 189.0234375 C379.66415732 217.04692556 401.20733223 256.67974621 408.53491211 301.25390625 C409.02864118 305.23069302 409.17940461 309.14413234 409.203125 313.14453125 C409.20882507 313.91319016 409.21452515 314.68184906 409.22039795 315.47380066 C409.22980054 317.09832406 409.23636295 318.72286612 409.24023438 320.34741211 C409.24982284 322.76778113 409.28084121 325.18725577 409.3125 327.60742188 C409.58604187 367.81935852 392.8219921 404.0743787 364.9375 432.5625 C340.52171549 456.84205092 298.57388926 481 263 481 C263.103125 481.94875 263.20625 482.8975 263.3125 483.875 C263.32541476 490.22906288 259.52389675 495.63533263 256.1875 500.8125 C247.37162576 509.62837424 237.66587739 510.36197718 225.75 510.375 C224.58597656 510.39949219 223.42195313 510.42398437 222.22265625 510.44921875 C212.33195091 510.4824462 202.88927618 508.8141353 195.49609375 501.7578125 C190.4513517 495.83056988 188.32179229 489.57026494 187 482 C186.07703125 481.78085937 185.1540625 481.56171875 184.203125 481.3359375 C153.34301938 473.89027366 120.32439664 463.92551622 96.55859375 441.71875 C93.13894608 439.4215821 90.95261256 439.66218097 86.875 439.875 C81.29777364 440.14619705 76.53184658 439.60847011 71.05712891 438.53027344 C66.57114517 437.75215839 62.06926476 437.40103459 57.53540039 437.01293945 C15.19669827 433.37298525 -24.32129184 419.66506645 -57 392 C-57.55816406 391.52836426 -58.11632813 391.05672852 -58.69140625 390.57080078 C-83.5038864 369.32043713 -100.68880839 338.83419317 -103.3190918 306.01904297 C-103.47130947 302.03059219 -103.52694996 298.05293051 -103.5 294.0625 C-103.49823761 293.35477448 -103.49647522 292.64704895 -103.49465942 291.9178772 C-103.2201447 241.96807223 -77.66374107 197.23216466 -42.99926758 162.69262695 C-36.12363667 156.02123282 -28.52656998 150.26372256 -20.765625 144.66796875 C-3.90709396 132.45195197 5.82168606 116.97684761 9.640625 96.578125 C10.13850741 91.620948 9.97917705 86.73260303 9.78515625 81.75976562 C9.65600379 74.88533241 10.77447856 69.32903406 15.6875 64.1875 C19.42081456 61.72210359 22.76095973 60.38865112 27 59 C22.70284131 44.50451539 16.95400929 28.94113765 3.1171875 20.90673828 C0.44349053 19.50730567 -2.22646515 18.14633738 -4.99804688 16.95019531 C-8.71433043 15.23126915 -9.88506024 14.27086579 -11.51171875 10.4375 C-12 7 -12 7 -10.8125 4.1875 C-7.46683917 0.14963348 -5.07346502 -0.44416278 0 0 Z " fill="#FBEAD3" transform="translate(103,1)"/>
<path d="M0 0 C17.18292758 6.06036865 29.51114377 19.95763994 37.31518555 35.92675781 C40.49699368 42.74782513 44 50.3949308 44 58 C47.63 57.67 51.26 57.34 55 57 C54.67 55.35 54.34 53.7 54 52 C52.93988031 36.83546967 53.12321806 19.55617312 63.4453125 7.28125 C66.13290162 5.06635243 68.60262019 5.05857551 72 5 C75.29431677 6.79038955 76.62103684 8.13680614 78.125 11.5625 C77.96361391 16.00061747 76.35992513 19.0235246 74.32421875 22.92578125 C71.12628184 30.34990027 70.7224358 37.56461523 70.875 45.5625 C70.88402344 46.47580078 70.89304688 47.38910156 70.90234375 48.33007812 C70.92562747 50.55367319 70.9583229 52.77668677 71 55 C72.25554687 54.97808594 73.51109375 54.95617188 74.8046875 54.93359375 C79.65053204 54.84901535 82.85695947 56.05379761 86.50976562 59.37109375 C91.02381921 64.20385458 92.2284623 68.53037754 93.375 74.9375 C97.27889332 93.5669767 106.41406425 109.82089467 122.46875 120.66796875 C129.55172921 125.01524672 137.01097146 128.31309892 144.609375 131.64379883 C151.38869784 134.64269326 157.72665301 138.03453066 164 142 C164.06731323 141.0867395 164.06731323 141.0867395 164.13598633 140.1550293 C165.68171246 119.80649767 168.02222737 101.49555787 184 87 C196.14912315 77.74606263 207.5217956 74.8033623 222.53540039 74.75976562 C224.53218593 74.75014604 226.5288302 74.71898839 228.52539062 74.6875 C244.70652682 74.62293686 257.99083905 78.56696125 269.93359375 89.8046875 C279.76748699 100.25203722 284.09818509 112.23246709 285.421875 126.31640625 C286.41200589 138.16337784 286.41200589 138.16337784 291 149 C291.433125 149.75410156 291.86625 150.50820312 292.3125 151.28515625 C298.0941854 160.69610613 305.94413328 165.85556651 315.625 170.8125 C324.66054283 175.59354831 332.93364597 180.7354809 341 187 C341.88945312 187.66773438 342.77890625 188.33546875 343.6953125 189.0234375 C379.66415732 217.04692556 401.20733223 256.67974621 408.53491211 301.25390625 C409.02864118 305.23069302 409.17940461 309.14413234 409.203125 313.14453125 C409.20882507 313.91319016 409.21452515 314.68184906 409.22039795 315.47380066 C409.22980054 317.09832406 409.23636295 318.72286612 409.24023438 320.34741211 C409.24982284 322.76778113 409.28084121 325.18725577 409.3125 327.60742188 C409.58604187 367.81935852 392.8219921 404.0743787 364.9375 432.5625 C340.52171549 456.84205092 298.57388926 481 263 481 C263.103125 481.94875 263.20625 482.8975 263.3125 483.875 C263.32541476 490.22906288 259.52389675 495.63533263 256.1875 500.8125 C247.37162576 509.62837424 237.66587739 510.36197718 225.75 510.375 C224.58597656 510.39949219 223.42195313 510.42398437 222.22265625 510.44921875 C212.33195091 510.4824462 202.88927618 508.8141353 195.49609375 501.7578125 C190.4513517 495.83056988 188.32179229 489.57026494 187 482 C186.07703125 481.78085937 185.1540625 481.56171875 184.203125 481.3359375 C153.34301938 473.89027366 120.32439664 463.92551622 96.55859375 441.71875 C93.13894608 439.4215821 90.95261256 439.66218097 86.875 439.875 C81.29777364 440.14619705 76.53184658 439.60847011 71.05712891 438.53027344 C66.57114517 437.75215839 62.06926476 437.40103459 57.53540039 437.01293945 C15.19669827 433.37298525 -24.32129184 419.66506645 -57 392 C-57.55816406 391.52836426 -58.11632813 391.05672852 -58.69140625 390.57080078 C-83.5038864 369.32043713 -100.68880839 338.83419317 -103.3190918 306.01904297 C-103.47130947 302.03059219 -103.52694996 298.05293051 -103.5 294.0625 C-103.49823761 293.35477448 -103.49647522 292.64704895 -103.49465942 291.9178772 C-103.2201447 241.96807223 -77.66374107 197.23216466 -42.99926758 162.69262695 C-36.12363667 156.02123282 -28.52656998 150.26372256 -20.765625 144.66796875 C-3.90709396 132.45195197 5.82168606 116.97684761 9.640625 96.578125 C10.13850741 91.620948 9.97917705 86.73260303 9.78515625 81.75976562 C9.65600379 74.88533241 10.77447856 69.32903406 15.6875 64.1875 C19.42081456 61.72210359 22.76095973 60.38865112 27 59 C22.70284131 44.50451539 16.95400929 28.94113765 3.1171875 20.90673828 C0.44349053 19.50730567 -2.22646515 18.14633738 -4.99804688 16.95019531 C-8.71433043 15.23126915 -9.88506024 14.27086579 -11.51171875 10.4375 C-12 7 -12 7 -10.8125 4.1875 C-7.46683917 0.14963348 -5.07346502 -0.44416278 0 0 Z M190.0546875 103.328125 C183.88964188 111.73735041 181.70215373 118.93593484 181.0625 129.25 C180.41833014 137.34682798 179.2656596 144.49128267 176 152 C175.67515625 152.83144531 175.3503125 153.66289062 175.015625 154.51953125 C169.47394028 167.26942181 158.80788255 175.74019453 146.9296875 182.2265625 C145.39033979 183.06718626 143.85128729 183.90835081 142.3125 184.75 C141.53052246 185.17740479 140.74854492 185.60480957 139.94287109 186.04516602 C132.52317453 190.15641023 125.73024842 194.85040325 119 200 C118.07058594 200.70511719 117.14117187 201.41023438 116.18359375 202.13671875 C83.86268378 227.58884727 62.92853003 264.5976145 57.39697266 305.3347168 C53.44341725 341.83823914 61.89998704 378.00637469 84.62109375 407.12890625 C108.7555019 436.25664023 140.10995087 454.31707106 176.6875 463.3125 C177.67202148 463.55524658 178.65654297 463.79799316 179.67089844 464.0480957 C194.44649147 467.4865713 208.95956141 468.37975602 224.0625 468.3125 C224.91517456 468.31067719 225.76784912 468.30885437 226.6463623 468.30697632 C275.7535782 468.13073228 322.16210526 452.38110795 357.52734375 417.5078125 C383.70257299 389.44649469 395.20304489 353.3990414 394.28515625 315.40234375 C393.96340926 307.74368833 392.74003064 300.45085612 391 293 C390.83902832 292.26394531 390.67805664 291.52789062 390.51220703 290.76953125 C385.05833582 266.08303638 373.91446813 242.89260085 357 224 C356.13632812 223.01644531 355.27265625 222.03289062 354.3828125 221.01953125 C340.56911434 205.46739128 325.09962221 193.57614447 306.6875 183.9375 C290.11219954 175.19991226 278.3436188 163.6448725 272.203125 145.55859375 C270.70980577 140.52031298 270.31129456 135.47289561 269.9375 130.25 C268.95464543 116.59516717 265.14944857 107.51736548 255 98 C246.50644997 91.23982752 238.1884244 90.48822372 227.70117188 90.55395508 C225.63570025 90.56245596 223.57301159 90.53365359 221.5078125 90.50195312 C209.00336582 90.43540061 198.29956109 93.46076624 190.0546875 103.328125 Z " fill="#EB9C32" transform="translate(103,1)"/>
<path d="M0 0 C2.06547162 0.00850088 4.12816029 -0.02030149 6.19335938 -0.05200195 C18.44931191 -0.11945171 26.52928416 2.44197913 35.43554688 10.94213867 C42.2843483 18.51124507 45.65565314 26.51959808 46.28198242 36.62841797 C47.4249968 54.81933518 53.05985359 69.76496399 66.49414062 82.58276367 C72.15452027 87.36152666 78.55877771 90.88358788 85.11132812 94.27319336 C99.08880513 101.51306723 111.03794244 110.92642035 122.70117188 121.44604492 C123.45011719 122.12151367 124.1990625 122.79698242 124.97070312 123.49291992 C151.64023316 148.91316444 169.60983063 187.88876779 170.92382812 224.66088867 C171.6636691 257.80007313 163.87940685 290.280317 142.70117188 316.44604492 C142.25370605 316.9988916 141.80624023 317.55173828 141.34521484 318.12133789 C112.82802607 353.06466682 70.12210191 372.41071165 25.6706543 377.02270508 C17.58759956 377.77369891 9.50036414 377.7957673 1.38867188 377.75854492 C0.53644043 377.75638977 -0.31579102 377.75423462 -1.19384766 377.75201416 C-14.09998306 377.69977849 -26.65724034 377.26852982 -39.29882812 374.44604492 C-40.66418701 374.14802979 -40.66418701 374.14802979 -42.05712891 373.84399414 C-83.51775816 364.53052619 -122.62589738 342.97416239 -145.88476562 306.41479492 C-164.217726 276.70928327 -172.04197234 239.82451951 -164.26757812 205.40307617 C-163.94535595 204.08389593 -163.62240918 202.76489251 -163.29882812 201.44604492 C-162.95482006 199.90834222 -162.61108188 198.37057911 -162.26757812 196.83276367 C-155.86975276 169.44494615 -141.49842787 145.73803569 -122.29882812 125.44604492 C-121.14640625 124.2143457 -121.14640625 124.2143457 -119.97070312 122.95776367 C-107.62607831 110.15519309 -92.91649879 100.7732906 -77.38867188 92.28979492 C-61.99504544 83.87458506 -50.52324783 72.75721977 -45.13476562 55.77807617 C-43.24379603 49.02223326 -42.11073419 42.58184252 -41.79882812 35.57104492 C-41.33412706 25.75036248 -38.2132415 17.56729972 -31.29882812 10.44604492 C-21.33460341 2.120233 -12.75729391 -0.07995939 0 0 Z M-7.29882812 37.44604492 C-9.57539081 41.01293375 -9.69547044 44.40647225 -10.04882812 48.57104492 C-12.56473251 72.08455128 -24.62758908 93.747455 -42.40039062 109.18041992 C-48.55277616 113.98956226 -55.26718408 117.81496558 -62.11914062 121.52026367 C-93.13332665 138.35227537 -117.84379079 164.1161709 -128.64941406 198.22387695 C-134.60715171 218.61009051 -135.44491523 239.81360223 -130.29882812 260.44604492 C-130.10546875 261.30456055 -129.91210938 262.16307617 -129.71289062 263.04760742 C-126.23428087 276.55545567 -119.13328154 288.80152493 -110.29882812 299.44604492 C-109.79867187 300.09702148 -109.29851562 300.74799805 -108.78320312 301.41870117 C-104.39975787 306.94839217 -98.84328511 311.13865764 -93.29882812 315.44604492 C-92.44289062 316.12924805 -91.58695313 316.81245117 -90.70507812 317.51635742 C-83.1239576 323.33920602 -74.9604469 327.49921718 -66.29882812 331.44604492 C-65.68523437 331.72722168 -65.07164062 332.00839844 -64.43945312 332.2980957 C-56.94783668 335.66728734 -49.36049189 338.1430109 -41.42382812 340.19604492 C-40.67069336 340.39480225 -39.91755859 340.59355957 -39.14160156 340.79833984 C-25.28943579 344.1773761 -11.11879531 344.8280477 3.07617188 344.75854492 C3.83675903 344.75705444 4.59734619 344.75556396 5.38098145 344.75402832 C17.04094685 344.71308185 28.31987115 344.12888235 39.70117188 341.44604492 C40.34812012 341.30150879 40.99506836 341.15697266 41.66162109 341.00805664 C73.66544461 333.74141026 104.34309702 316.96198196 122.44482422 288.89257812 C125.72229361 283.61251361 128.49172545 278.263724 130.70117188 272.44604492 C131.36246094 270.7212793 131.36246094 270.7212793 132.03710938 268.96166992 C142.17730221 241.31221144 139.03498227 209.57620865 126.97387695 183.03271484 C113.27417794 154.15421213 90.58942394 134.32747962 62.79614258 119.65551758 C42.00575816 108.48313785 26.29434043 90.89126014 18.70117188 68.44604492 C16.43683897 60.63317593 14.84276283 52.75457738 13.76367188 44.69604492 C12.999847 39.63396918 11.79592118 37.49085851 7.70117188 34.44604492 C7.37117187 34.11604492 7.04117188 33.78604492 6.70117188 33.44604492 C0.8667682 32.71071719 -3.13895465 32.90800113 -7.29882812 37.44604492 Z " fill="#F9DFBB" transform="translate(326.298828125,91.553955078125)"/>
<path d="M0 0 C17.18292758 6.06036865 29.51114377 19.95763994 37.31518555 35.92675781 C40.49699368 42.74782513 44 50.3949308 44 58 C47.63 57.67 51.26 57.34 55 57 C54.67 55.35 54.34 53.7 54 52 C52.93988031 36.83546967 53.12321806 19.55617312 63.4453125 7.28125 C66.13290162 5.06635243 68.60262019 5.05857551 72 5 C75.29431677 6.79038955 76.62103684 8.13680614 78.125 11.5625 C77.96361391 16.00061747 76.35992513 19.0235246 74.32421875 22.92578125 C71.12628184 30.34990027 70.7224358 37.56461523 70.875 45.5625 C70.88402344 46.47580078 70.89304688 47.38910156 70.90234375 48.33007812 C70.92562747 50.55367319 70.9583229 52.77668677 71 55 C72.25554687 54.97808594 73.51109375 54.95617188 74.8046875 54.93359375 C79.65053204 54.84901535 82.85695947 56.05379761 86.50976562 59.37109375 C91.02381921 64.20385458 92.2284623 68.53037754 93.375 74.9375 C97.06804082 92.56078329 105.34503795 108.00096665 120 119 C120.99 119.474375 121.98 119.94875 123 120.4375 C125 122 125 122 125.5 125.5 C124.39813222 141.39009327 116.36903306 154.20382695 105.01953125 164.859375 C99.69102684 169.35304603 93.67979213 172.35703348 87.51733398 175.52148438 C51.06831765 194.43608752 21.85323078 228.9807594 8.81201172 267.86376953 C-3.56750026 307.2874633 -2.11101492 349.9855343 17 387 C22.75765277 397.97884527 29.80766235 408.14721477 38.8203125 416.734375 C40 418 40 418 40 420 C40.61875 420.268125 41.2375 420.53625 41.875 420.8125 C44 422 44 422 46 425 C40.88983317 423.42535557 37.2902735 420.30230982 33.25 416.9375 C32.51064209 416.32334229 31.77128418 415.70918457 31.00952148 415.07641602 C-2.22109384 387.00790621 -27.48360013 348.59517971 -31.5546875 304.3984375 C-36.21020381 244.56901287 -15.58044884 186.70410475 23 141 C25.37441716 138.29599956 27.77290098 135.62409389 30.22265625 132.98828125 C32.15393545 130.92181037 32.15393545 130.92181037 34 128 C11.90453137 131.38689665 0.35541036 145.56700634 -12.21972656 162.65771484 C-18.35205677 171.11476973 -23.80001762 179.95089509 -29 189 C-29.65742187 190.13566406 -30.31484375 191.27132812 -30.9921875 192.44140625 C-46.43175778 219.83282019 -57.3194803 252.36292274 -58 284 C-58.03867188 285.38614502 -58.03867188 285.38614502 -58.078125 286.80029297 C-59.24949132 333.7794035 -44.19664332 374.88416704 -11.75390625 409.12109375 C-10.84511719 410.07113281 -9.93632813 411.02117187 -9 412 C-8.32839844 412.71285156 -7.65679687 413.42570312 -6.96484375 414.16015625 C-2.9927033 418.27706719 1.33674591 421.69332892 6 425 C2.60988803 426.13003732 2.10367425 425.92262597 -1.0703125 424.6640625 C-2.27820435 424.18791504 -2.27820435 424.18791504 -3.51049805 423.70214844 C-4.80467651 423.16895996 -4.80467651 423.16895996 -6.125 422.625 C-7.01936768 422.25922852 -7.91373535 421.89345703 -8.83520508 421.51660156 C-39.72745475 408.62634973 -66.6184798 388.15892456 -85 360 C-85.79857422 358.83984375 -85.79857422 358.83984375 -86.61328125 357.65625 C-104.33499502 330.52435398 -107.17380247 294.87146182 -100.9375 263.6875 C-90.31735846 215.48809947 -60.55978001 173.36013124 -20.765625 144.66796875 C-3.90709396 132.45195197 5.82168606 116.97684761 9.640625 96.578125 C10.13850741 91.620948 9.97917705 86.73260303 9.78515625 81.75976562 C9.65600379 74.88533241 10.77447856 69.32903406 15.6875 64.1875 C19.42081456 61.72210359 22.76095973 60.38865112 27 59 C22.70284131 44.50451539 16.95400929 28.94113765 3.1171875 20.90673828 C0.44349053 19.50730567 -2.22646515 18.14633738 -4.99804688 16.95019531 C-8.71433043 15.23126915 -9.88506024 14.27086579 -11.51171875 10.4375 C-12 7 -12 7 -10.8125 4.1875 C-7.46683917 0.14963348 -5.07346502 -0.44416278 0 0 Z " fill="#EEA848" transform="translate(103,1)"/>
<path d="M0 0 C3 2.4375 3 2.4375 5 5 C5.33 5.33 5.66 5.66 6 6 C6.30767566 7.45266331 6.56373611 8.91634011 6.796875 10.3828125 C11.26845765 37.36231356 20.47461942 61.76015789 43.57421875 78.36328125 C48.97379985 82.0882111 54.62014593 85.23904382 60.375 88.375 C72.87940473 95.32687137 83.56660046 103.17092003 94 113 C94.66386719 113.59941406 95.32773437 114.19882813 96.01171875 114.81640625 C116.84148663 134.37864261 130.09374236 164.50529136 131.06640625 192.94140625 C131.89016397 223.20077315 123.53667061 249.54978204 102.54516602 271.91137695 C78.72382898 296.37663168 42.19286948 310.57249446 8.21603394 311.14482117 C5.24438479 311.17676238 2.27307937 311.18561868 -0.69873047 311.18530273 C-2.96731939 311.1874688 -5.23540424 311.20561887 -7.50390625 311.22460938 C-21.70730744 311.2812988 -35.61664889 310.10541676 -49.375 306.375 C-50.34050781 306.11630127 -51.30601562 305.85760254 -52.30078125 305.59106445 C-72.52512008 299.94864666 -90.13014957 290.72674242 -106 277 C-107.03125 276.21625 -108.0625 275.4325 -109.125 274.625 C-124.98390646 260.14512889 -135.78922863 239.14863454 -139 218 C-139.18046875 216.93394531 -139.3609375 215.86789062 -139.546875 214.76953125 C-143.38229372 182.86281514 -134.45875139 151.41698455 -114.875 126 C-101.37075443 109.13795475 -85.8121815 96.99008798 -66.75 86.9375 C-57.77919359 82.20431847 -50.23353448 77.10417171 -43 70 C-42.24847656 69.26394531 -41.49695313 68.52789062 -40.72265625 67.76953125 C-26.28161337 52.55238626 -18.32861082 32.28638868 -16.6875 11.62890625 C-15.90928828 7.52118641 -14.59939948 5.24447105 -12 2 C-8.00191454 -0.66539031 -4.70248347 -0.84149704 0 0 Z M-23.5 86.5625 C-33.55049962 96.95577522 -44.97128014 104.14881259 -57.65283203 110.95214844 C-84.09302287 125.23948454 -103.58931967 147.20739718 -112.4375 176.1875 C-117.77280354 197.50429008 -115.30390049 221.58691069 -104.1953125 240.52734375 C-90.32684359 262.99722726 -66.85821493 275.22267093 -42.0625 281.875 C-41.30630371 282.07826904 -40.55010742 282.28153809 -39.77099609 282.4909668 C-29.09360836 285.18304894 -18.32175841 285.21380271 -7.37133789 285.24023438 C-4.96659987 285.24988324 -2.56273971 285.28096832 -0.15820312 285.3125 C30.36396357 285.52118086 61.26490217 276.05188604 83.75 254.8125 C99.73159166 238.08541135 105.72020945 217.96868512 105.24609375 195.13671875 C104.20128405 167.33230551 90.9811653 145.05576119 71.1328125 126.2890625 C64.01127626 120.01670674 56.34512212 115.57747579 48.03027344 111.10009766 C33.57164853 103.26573452 21.56550498 94.14495838 10.31640625 82.09375 C5.76181987 77.97695691 1.65442835 76.56981324 -4.4375 76.5625 C-6.04431641 76.53349609 -6.04431641 76.53349609 -7.68359375 76.50390625 C-14.69557751 77.55281313 -18.82896824 81.52234935 -23.5 86.5625 Z " fill="#FBEAD3" transform="translate(333,125)"/>
<path d="M0 0 C1.99678554 -0.00961959 3.99342981 -0.04077724 5.98999023 -0.07226562 C22.17112643 -0.13682876 35.45543865 3.80719562 47.39819336 15.04492188 C57.2320866 25.4922716 61.5627847 37.47270147 62.88647461 51.55664062 C63.8766055 63.40361221 63.8766055 63.40361221 68.46459961 74.24023438 C68.89772461 74.99433594 69.33084961 75.7484375 69.77709961 76.52539062 C75.55878501 85.9363405 83.40873289 91.09580088 93.08959961 96.05273438 C102.12514244 100.83378269 110.39824558 105.97571527 118.46459961 112.24023438 C119.7987793 113.24183594 119.7987793 113.24183594 121.15991211 114.26367188 C157.12875693 142.28715993 178.67193184 181.91998058 185.99951172 226.49414062 C186.49324078 230.47092739 186.64400422 234.38436671 186.66772461 238.38476562 C186.67342468 239.15342453 186.67912476 239.92208344 186.68499756 240.71403503 C186.69440015 242.33855843 186.70096256 243.96310049 186.70483398 245.58764648 C186.71442245 248.0080155 186.74544082 250.42749015 186.77709961 252.84765625 C187.05064148 293.05959289 170.28659171 329.31461307 142.40209961 357.80273438 C117.9863151 382.08228529 76.03848887 406.24023438 40.46459961 406.24023438 C40.61928711 407.66335938 40.61928711 407.66335938 40.77709961 409.11523438 C40.79001437 415.46929726 36.98849636 420.87556701 33.65209961 426.05273438 C24.83622537 434.86860862 15.130477 435.60221156 3.21459961 435.61523438 C2.05057617 435.63972656 0.88655273 435.66421875 -0.31274414 435.68945312 C-10.20344948 435.72268058 -19.64612421 434.05436967 -27.03930664 426.99804688 C-32.08404869 421.07080425 -34.2136081 414.81049931 -35.53540039 407.24023438 C-36.45836914 407.02109375 -37.38133789 406.80195313 -38.33227539 406.57617188 C-69.11455094 399.14928622 -102.32108746 389.22274849 -125.95727539 366.95898438 C-129.45461884 364.62742207 -131.81665298 364.90595706 -135.97290039 365.11523438 C-141.05375835 365.35107642 -144.7881733 365.13325538 -149.53540039 363.24023438 C-146.33529651 361.42684217 -143.40256196 360.71809464 -139.78540039 360.11523438 C-138.80055664 359.94765625 -137.81571289 359.78007812 -136.80102539 359.60742188 C-136.05336914 359.48625 -135.30571289 359.36507813 -134.53540039 359.24023438 C-134.93629883 358.86253906 -135.33719727 358.48484375 -135.75024414 358.09570312 C-152.3682175 342.00528447 -164.86220361 322.00247571 -172.53540039 300.24023438 C-172.76211426 299.60649902 -172.98882812 298.97276367 -173.22241211 298.31982422 C-183.61101381 268.81500897 -183.87714927 235.29727744 -175.53540039 205.24023438 C-175.31609863 204.43038086 -175.09679687 203.62052734 -174.87084961 202.78613281 C-168.08161004 178.46692409 -155.19062506 156.11995823 -138.53540039 137.24023438 C-138.0984082 136.74297852 -137.66141602 136.24572266 -137.21118164 135.73339844 C-131.68402774 129.47470946 -126.05770671 123.48137338 -119.53540039 118.24023438 C-118.62790039 117.49515625 -117.72040039 116.75007813 -116.78540039 115.98242188 C-106.67545786 107.9197427 -95.73698678 101.28757258 -84.48461914 94.94335938 C-83.85740967 94.58967285 -83.2302002 94.23598633 -82.58398438 93.87158203 C-80.91145741 92.93576607 -79.23152033 92.01322768 -77.55102539 91.09179688 C-66.44641004 84.27367812 -60.96611551 74.32199237 -57.95336914 61.82617188 C-57.45635629 58.75119517 -57.30788186 55.72639108 -57.16040039 52.61523438 C-56.06276422 36.88791011 -50.36547605 22.97286591 -38.53540039 12.24023438 C-26.38627724 2.986297 -15.0136048 0.04359667 0 0 Z M-32.48071289 28.56835938 C-38.64575851 36.97758478 -40.83324666 44.17616922 -41.47290039 54.49023438 C-42.11707025 62.58706235 -43.26974079 69.73151705 -46.53540039 77.24023438 C-46.86024414 78.07167969 -47.18508789 78.903125 -47.51977539 79.75976562 C-53.06146011 92.50965619 -63.72751784 100.9804289 -75.60571289 107.46679688 C-77.1450606 108.30742064 -78.6841131 109.14858519 -80.22290039 109.99023438 C-81.00487793 110.41763916 -81.78685547 110.84504395 -82.5925293 111.28540039 C-90.01222586 115.39664461 -96.80515197 120.09063762 -103.53540039 125.24023438 C-104.46481445 125.94535156 -105.39422852 126.65046875 -106.35180664 127.37695312 C-138.67271661 152.82908165 -159.60687036 189.83784888 -165.13842773 230.57495117 C-169.09198314 267.07847352 -160.63541335 303.24660907 -137.91430664 332.36914062 C-113.77989849 361.4968746 -82.42544952 379.55730544 -45.84790039 388.55273438 C-44.86337891 388.79548096 -43.87885742 389.03822754 -42.86450195 389.28833008 C-28.08890892 392.72680567 -13.57583898 393.6199904 1.52709961 393.55273438 C2.37977417 393.55091156 3.23244873 393.54908875 4.11096191 393.54721069 C53.21817781 393.37096665 99.62670487 377.62134233 134.99194336 342.74804688 C161.1671726 314.68672906 172.6676445 278.63927577 171.74975586 240.64257812 C171.42800887 232.9839227 170.20463025 225.69109049 168.46459961 218.24023438 C168.30362793 217.50417969 168.14265625 216.768125 167.97680664 216.00976562 C162.52293543 191.32327075 151.37906774 168.13283522 134.46459961 149.24023438 C133.60092773 148.25667969 132.73725586 147.273125 131.84741211 146.25976562 C118.03371395 130.70762566 102.56422182 118.81637884 84.15209961 109.17773438 C67.57679915 100.44014664 55.80821841 88.88510687 49.66772461 70.79882812 C48.17440538 65.76054735 47.77589417 60.71312998 47.40209961 55.49023438 C46.41924504 41.83540155 42.61404818 32.75759985 32.46459961 23.24023438 C23.97104958 16.4800619 15.65302401 15.72845809 5.16577148 15.79418945 C3.10029986 15.80269034 1.0376112 15.77388796 -1.02758789 15.7421875 C-13.53203457 15.67563499 -24.2358393 18.70100062 -32.48071289 28.56835938 Z " fill="#F1B260" transform="translate(325.535400390625,75.759765625)"/>
<path d="M0 0 C6.80118939 5.27703278 11.34388876 11.15143133 12.48828125 19.734375 C12.5860083 20.53891113 12.68373535 21.34344727 12.78442383 22.17236328 C15.35097544 43.26089574 23.82603092 62.416601 40.28515625 76.49609375 C45.50503598 80.47391812 51.19830617 83.52782639 56.95288086 86.64819336 C67.95935786 92.61895249 78.34092856 99.23813884 87.84765625 107.43359375 C89.29785156 108.68269531 89.29785156 108.68269531 90.77734375 109.95703125 C115.20195628 131.438355 132.83891223 163.09751704 136.59765625 195.62109375 C138.82319741 231.17547078 131.77799382 263.73289698 107.90820312 291.09741211 C82.82466147 318.9328288 44.86668399 334.96022689 7.84765625 338.43359375 C4.79619358 338.57414221 1.74971763 338.59732541 -1.3046875 338.6015625 C-2.59228722 338.6065551 -2.59228722 338.6065551 -3.90589905 338.61164856 C-5.71696441 338.61668571 -7.52803896 338.61905788 -9.33911133 338.61889648 C-12.05110864 338.62106281 -14.76268488 338.63919719 -17.47460938 338.65820312 C-31.85920977 338.705924 -46.05318683 337.93916569 -60.02734375 334.24609375 C-61.26641479 333.92463379 -61.26641479 333.92463379 -62.53051758 333.59667969 C-89.28721086 326.41142391 -112.40122822 313.88169356 -132.15234375 294.43359375 C-133.43044922 293.19222656 -133.43044922 293.19222656 -134.734375 291.92578125 C-150.62845798 275.55612729 -158.29129898 255.29583099 -163.15234375 233.43359375 C-163.32958984 232.66797119 -163.50683594 231.90234863 -163.68945312 231.11352539 C-169.50843227 197.42421416 -159.33626493 162.02536935 -140.15234375 134.43359375 C-124.38480739 112.27099488 -104.02179383 96.80408917 -80.08984375 84.18359375 C-62.60830316 74.81562314 -50.34985294 59.19170363 -44.15234375 40.43359375 C-42.66343231 34.73041558 -41.50454859 29.0000951 -40.703125 23.16015625 C-39.33822239 13.21765464 -36.00100147 7.26161031 -28.171875 0.9140625 C-19.99350263 -5.08130139 -8.83340604 -5.11999968 0 0 Z M-23.15234375 16.43359375 C-25.42890644 20.00048258 -25.54898607 23.39402108 -25.90234375 27.55859375 C-28.41824813 51.07210011 -40.48110471 72.73500383 -58.25390625 88.16796875 C-64.40629179 92.97711108 -71.12069971 96.80251441 -77.97265625 100.5078125 C-108.98684228 117.3398242 -133.69730642 143.10371973 -144.50292969 177.21142578 C-150.46066733 197.59763933 -151.29843086 218.80115106 -146.15234375 239.43359375 C-145.95898438 240.29210937 -145.765625 241.150625 -145.56640625 242.03515625 C-142.0877965 255.5430045 -134.98679716 267.78907376 -126.15234375 278.43359375 C-125.6521875 279.08457031 -125.15203125 279.73554688 -124.63671875 280.40625 C-120.2532735 285.93594099 -114.69680074 290.12620647 -109.15234375 294.43359375 C-108.29640625 295.11679687 -107.44046875 295.8 -106.55859375 296.50390625 C-98.97747323 302.32675484 -90.81396252 306.48676601 -82.15234375 310.43359375 C-81.53875 310.71477051 -80.92515625 310.99594727 -80.29296875 311.28564453 C-72.8013523 314.65483617 -65.21400752 317.13055973 -57.27734375 319.18359375 C-56.52420898 319.38235107 -55.77107422 319.5811084 -54.99511719 319.78588867 C-41.14295141 323.16492493 -26.97231094 323.81559653 -12.77734375 323.74609375 C-12.01675659 323.74460327 -11.25616943 323.74311279 -10.47253418 323.74157715 C1.18743122 323.70063068 12.46635552 323.11643118 23.84765625 320.43359375 C24.49460449 320.28905762 25.14155273 320.14452148 25.80810547 319.99560547 C57.81192899 312.72895909 88.48958139 295.94953079 106.59130859 267.88012695 C109.86877799 262.60006244 112.63820982 257.25127283 114.84765625 251.43359375 C115.50894531 249.70882812 115.50894531 249.70882812 116.18359375 247.94921875 C126.32378659 220.29976027 123.18146664 188.56375748 111.12036133 162.02026367 C97.42066231 133.14176095 74.73590832 113.31502845 46.94262695 98.64306641 C26.15224254 87.47068667 10.4408248 69.87880897 2.84765625 47.43359375 C0.58332334 39.62072476 -1.01075279 31.74212621 -2.08984375 23.68359375 C-2.85366862 18.62151801 -4.05759444 16.47840734 -8.15234375 13.43359375 C-8.48234375 13.10359375 -8.81234375 12.77359375 -9.15234375 12.43359375 C-14.98674742 11.69826601 -18.99247027 11.89554996 -23.15234375 16.43359375 Z " fill="#F8D4A5" transform="translate(342.15234375,112.56640625)"/>
<path d="M0 0 C8.38028973 5.6812769 16.05356541 12.25544131 23.6796875 18.89453125 C25.11621981 20.12482872 26.55350939 21.35424371 27.9921875 22.58203125 C28.8790625 23.34515625 29.7659375 24.10828125 30.6796875 24.89453125 C28.29843818 33.3611955 19.75946608 40.78165718 12.45141602 45.26000977 C10.00328061 46.61163436 7.53531158 47.91605558 5.0546875 49.20703125 C-33.4617757 69.83808506 -64.89682763 103.59590535 -78.1484375 145.796875 C-90.1497751 186.70963163 -87.60639988 229.11125392 -67.1953125 266.88671875 C-61.88592272 276.33478324 -55.36624864 285.13402557 -47.5 292.62890625 C-46.3203125 293.89453125 -46.3203125 293.89453125 -46.3203125 295.89453125 C-45.7015625 296.16265625 -45.0828125 296.43078125 -44.4453125 296.70703125 C-42.3203125 297.89453125 -42.3203125 297.89453125 -40.3203125 300.89453125 C-45.43047933 299.31988682 -49.030039 296.19684107 -53.0703125 292.83203125 C-53.80967041 292.21787354 -54.54902832 291.60371582 -55.31079102 290.97094727 C-88.54140634 262.90243746 -113.80391263 224.48971096 -117.875 180.29296875 C-122.67119219 118.6556765 -100.55161825 60.83472489 -60.9140625 14.0546875 C-44.8846993 -4.19792642 -22.51416055 -14.27662651 0 0 Z " fill="#F0B15F" transform="translate(189.3203125,125.10546875)"/>
<path d="M0 0 C5.06520517 2.88524345 8.86704842 7.37885169 12.8972168 11.51660156 C22.82830225 21.55588205 34.30133109 28.2588367 46.71508789 34.81762695 C54.85457511 39.18420746 61.88532045 44.19074097 68.7890625 50.3046875 C69.61277344 51.02914062 70.43648437 51.75359375 71.28515625 52.5 C88.19128286 68.380625 99.77104355 91.25571583 100.89770508 114.55102539 C101.47854594 138.29857237 96.8292793 158.1835653 80.08203125 175.96875 C79.32535156 176.73960937 78.56867188 177.51046875 77.7890625 178.3046875 C77.12519531 178.99304688 76.46132813 179.68140625 75.77734375 180.390625 C54.55372665 200.84614929 22.18127447 207.71646552 -6.2512207 207.56542969 C-8.64234857 207.55471479 -11.03272291 207.56538942 -13.42382812 207.578125 C-26.61254078 207.59188208 -39.47589852 206.62918881 -52.1484375 202.6796875 C-52.98761719 202.42171387 -53.82679688 202.16374023 -54.69140625 201.89794922 C-78.48175035 194.26070807 -99.79691123 179.71923906 -111.47460938 157.22729492 C-120.54317225 138.71839459 -121.60018751 114.63546463 -115.59375 94.95703125 C-103.97082075 64.25805144 -84.14603776 45.43098272 -55.70996094 29.9855957 C-45.05993591 24.12808194 -36.10678406 16.5464277 -27.2109375 8.3046875 C-25.57026755 6.79904163 -23.92464778 5.29876648 -22.2734375 3.8046875 C-21.56316406 3.155 -20.85289062 2.5053125 -20.12109375 1.8359375 C-14.98722438 -2.27955697 -6.03514498 -1.89797846 0 0 Z M-19.2109375 21.1796875 C-30.08248808 32.54902945 -42.0467538 40.07074524 -55.86523438 47.48876953 C-62.57903877 51.14800143 -68.36089165 55.39693091 -74.2109375 60.3046875 C-75.54366179 61.34713328 -76.87688667 62.38893988 -78.2109375 63.4296875 C-93.0386061 76.63979226 -102.44012939 97.31947829 -103.625 116.90625 C-104.29472769 135.40537966 -100.2213771 149.97677321 -88.1484375 164.3671875 C-79.80796779 173.28141435 -69.29202283 179.37807637 -58.2109375 184.3046875 C-57.42332031 184.67207031 -56.63570313 185.03945313 -55.82421875 185.41796875 C-27.51508086 197.22483946 11.0242034 195.92072862 39.29736328 184.72143555 C58.08853232 176.81744577 73.70684604 165.54220652 81.7890625 146.3046875 C88.65942982 128.76944036 87.06453505 108.42587281 80.1640625 91.1171875 C70.168173 69.39344745 53.79117114 55.82565485 33.10620117 44.91577148 C19.45311654 37.60533867 5.2224161 27.75671425 -4.2109375 15.3046875 C-11.28707703 11.76661773 -14.73635689 16.2300658 -19.2109375 21.1796875 Z " fill="#F8D4A5" transform="translate(337.2109375,202.6953125)"/>
<path d="M0 0 C9.11971256 2.42710357 15.70806169 7.32044009 20.9921875 15.2265625 C24.73527378 21.73580052 26.56646729 27.61855063 27.0300293 35.1003418 C28.17304368 53.29125901 33.80790046 68.23688782 47.2421875 81.0546875 C52.90256714 85.83345049 59.30682459 89.35551171 65.859375 92.74511719 C79.836852 99.98499105 91.78598931 109.39834418 103.44921875 119.91796875 C104.19816406 120.5934375 104.94710937 121.26890625 105.71875 121.96484375 C132.38828004 147.38508827 150.3578775 186.36069162 151.671875 223.1328125 C152.41171597 256.27199695 144.62745372 288.75224083 123.44921875 314.91796875 C123.00175293 315.47081543 122.55428711 316.02366211 122.09326172 316.59326172 C99.1966186 344.6494961 63.81138893 366.74599099 27.44921875 371.91796875 C26.21171875 372.14484375 24.97421875 372.37171875 23.69921875 372.60546875 C20.44449116 372.60546875 19.43014231 371.90233986 16.85546875 369.79296875 C15.11444398 368.03146134 13.4092049 366.23368595 11.74609375 364.3984375 C9.57863942 361.90366842 9.57863942 361.90366842 7.15234375 360.21875 C6.5903125 359.78949219 6.02828125 359.36023438 5.44921875 358.91796875 C5.44921875 358.25796875 5.44921875 357.59796875 5.44921875 356.91796875 C6.72152344 356.69882812 7.99382812 356.4796875 9.3046875 356.25390625 C28.14264903 352.90425241 46.21926388 348.37452521 63.44921875 339.91796875 C64.08553223 339.61133301 64.7218457 339.30469727 65.37744141 338.98876953 C74.94843337 334.33006565 83.32278853 328.78164541 91.44921875 321.91796875 C92.22458984 321.27021484 92.22458984 321.27021484 93.015625 320.609375 C116.09561101 301.11575273 129.88956158 272.99805841 132.44921875 242.91796875 C132.72248724 235.59082428 132.57270812 228.24742602 132.44921875 220.91796875 C132.43246094 219.86996094 132.41570312 218.82195312 132.3984375 217.7421875 C130.87944548 190.53053044 117.098157 163.18641546 99.44921875 142.91796875 C98.64097656 141.96535156 97.83273437 141.01273438 97 140.03125 C84.98897009 126.17906445 69.87909918 115.89126234 53.76611328 107.34228516 C32.76107021 96.12926638 18.51683477 80.28895925 11.09448242 57.30957031 C9.76841395 52.39463776 9.29352221 47.3387435 8.72070312 42.29101562 C7.5757178 33.50376138 4.71567309 27.15710494 -2.1796875 21.4609375 C-6.3145653 18.77020153 -10.84537468 17.3105615 -15.55078125 15.91796875 C-13.34811379 12.11209396 -10.95893007 8.5468922 -8.30078125 5.04296875 C-7.57375 4.05554688 -6.84671875 3.068125 -6.09765625 2.05078125 C-3.55078125 -0.08203125 -3.55078125 -0.08203125 0 0 Z " fill="#FBEAD2" transform="translate(345.55078125,93.08203125)"/>
<path d="M0 0 C1.39796102 2.79592204 0.67787293 4.37534383 0.0390625 7.41796875 C-0.18523437 8.50787109 -0.40953125 9.59777344 -0.640625 10.72070312 C-1.00414062 12.43676758 -1.00414062 12.43676758 -1.375 14.1875 C-1.84290647 16.43062304 -2.30909874 18.67410446 -2.7734375 20.91796875 C-3.00232666 21.97902832 -3.23121582 23.04008789 -3.46704102 24.13330078 C-4.10615749 27.16033175 -4.10615749 27.16033175 -4.11328125 30.94140625 C-5.55326039 35.90838274 -9.46651697 37.34361463 -13.8125 39.75 C-22.26287106 44.75021023 -29.1478434 49.96039839 -36 57 C-37.21042969 58.21429688 -37.21042969 58.21429688 -38.4453125 59.453125 C-56.38103416 78.30083251 -63.68650314 101.24512611 -63.46826172 126.70214844 C-62.96674584 146.17986967 -56.69445825 163.76561687 -43 178 C-28.41689276 191.62309078 -11.14199871 199.75624846 7.9375 204.875 C8.69369629 205.07826904 9.44989258 205.28153809 10.22900391 205.4909668 C20.38403889 208.05134851 30.70200628 208.22213457 41.125 208.5625 C42.98898437 208.62727539 42.98898437 208.62727539 44.890625 208.69335938 C47.92699671 208.79846455 50.96343665 208.90061343 54 209 C54 209.33 54 209.66 54 210 C48.39 210.33 42.78 210.66 37 211 C41.96554073 218.29313794 46.93773082 225.36918735 52.56640625 232.171875 C54 234 54 234 54 235 C13.36758446 235.63679494 -24.46177438 228.27921738 -56 201 C-57.03125 200.21625 -58.0625 199.4325 -59.125 198.625 C-74.98390646 184.14512889 -85.78922863 163.14863454 -89 142 C-89.18046875 140.93394531 -89.3609375 139.86789062 -89.546875 138.76953125 C-93.38229372 106.86281514 -84.45875139 75.41698455 -64.875 50 C-50.53891683 32.09928264 -33.77520664 19.62874628 -13.48632812 9.09521484 C-8.46658879 6.47126019 -4.18698642 3.8259196 0 0 Z " fill="#F9DFBC" transform="translate(283,201)"/>
<path d="M0 0 C1.2375 0.04125 2.475 0.0825 3.75 0.125 C2.32200129 3.27591019 0.48603496 6.05022627 -1.47314453 8.89428711 C-7.71384619 17.96418641 -13.08595056 27.41006404 -18.25 37.125 C-18.60304199 37.78048828 -18.95608398 38.43597656 -19.31982422 39.11132812 C-27.36657175 54.1339779 -34.63479884 70.40396921 -37.91015625 87.1875 C-41.77676809 95.66473645 -51.42883294 99.67121932 -59.25 103.8125 C-90.32877666 120.79357058 -114.7201545 145.55899568 -125.60058594 179.90283203 C-131.55832358 200.28904558 -132.39608711 221.49255731 -127.25 242.125 C-127.05664062 242.98351562 -126.86328125 243.84203125 -126.6640625 244.7265625 C-123.18044317 258.25386353 -116.06453403 270.44486557 -107.25 281.125 C-106.074375 282.7028125 -106.074375 282.7028125 -104.875 284.3125 C-100.73557919 288.74759372 -96.02725888 292.40089514 -91.25 296.125 C-90.39277344 296.80949219 -89.53554687 297.49398438 -88.65234375 298.19921875 C-81.07145968 304.01923382 -72.90999317 308.17891299 -64.25 312.125 C-63.63640625 312.40617676 -63.0228125 312.68735352 -62.390625 312.97705078 C-44.77205798 320.90061829 -25.14032206 325.4043513 -5.796875 325.0390625 C12.8500038 324.84084609 12.8500038 324.84084609 17.82421875 328.75 C21.47539222 332.36556312 24.11571689 336.22215068 25.75 341.125 C20.22226214 341.17521354 14.69466299 341.21109548 9.16674805 341.23486328 C7.29432863 341.24479314 5.42192416 341.25834153 3.54956055 341.27587891 C-11.90739278 341.41681117 -27.0919616 340.91041175 -42.125 336.9375 C-43.36407104 336.61604004 -43.36407104 336.61604004 -44.62817383 336.28808594 C-71.38486711 329.10283016 -94.49888447 316.57309981 -114.25 297.125 C-115.52810547 295.88363281 -115.52810547 295.88363281 -116.83203125 294.6171875 C-132.72611423 278.24753354 -140.38895523 257.98723724 -145.25 236.125 C-145.42724609 235.35937744 -145.60449219 234.59375488 -145.78710938 233.80493164 C-151.60608852 200.11562041 -141.43392118 164.7167756 -122.25 137.125 C-106.48246364 114.96240113 -86.11945008 99.49549542 -62.1875 86.875 C-44.70595941 77.50702939 -32.44750919 61.88310988 -26.25 43.125 C-24.76108856 37.42182183 -23.60220484 31.69150135 -22.80078125 25.8515625 C-21.40762197 15.70322791 -17.98133271 10.1833625 -10.21484375 3.5703125 C-6.77885062 1.0428424 -4.29970834 -0.14332361 0 0 Z " fill="#F1B261" transform="translate(324.25,109.875)"/>
<path d="M0 0 C0.01401855 1.41587402 0.01401855 1.41587402 0.02832031 2.86035156 C0.54434892 47.51908441 7.31384781 89.51348832 27.5456543 129.83056641 C28.22108276 131.17900635 28.22108276 131.17900635 28.91015625 132.5546875 C29.51549194 133.73780518 29.51549194 133.73780518 30.13305664 134.94482422 C31 137 31 137 31 140 C7.09903814 135.73452425 -15.75063512 128.16176792 -31.15625 108.20703125 C-34.96163217 102.49089575 -37.83897196 96.51380964 -40 90 C-40.35707031 88.97261719 -40.71414062 87.94523437 -41.08203125 86.88671875 C-45.86229458 66.64688039 -40.69000949 45.39219598 -30 28 C-24.83470483 20.09640204 -10.55669842 0 0 0 Z " fill="#F9DFBC" transform="translate(276,254)"/>
<path d="M0 0 C2.8679433 2.37829445 4.84161173 4.75713798 6.875 7.875 C8.6412961 10.47249426 10.19572618 12.24458859 12.4375 14.375 C21.12765238 22.82324236 25.95507856 34.45604907 26.265625 46.53125 C26.27088149 48.52083321 26.26548272 50.51047009 26.25 52.5 C26.26160156 53.99080078 26.26160156 53.99080078 26.2734375 55.51171875 C26.23713855 69.25087042 22.08508963 81.93378814 12.39453125 91.9296875 C7.79494735 95.90648924 3.02827623 98.09553439 -3.0625 98.5 C-12.2052731 97.33901294 -17.42783464 92.29611268 -23.0625 85.3125 C-30.27218627 75.50138053 -31.21280642 65.23457381 -31.3125 53.4375 C-31.34150391 52.32052734 -31.37050781 51.20355469 -31.40039062 50.05273438 C-31.49483939 37.52010938 -27.77789878 25.2252401 -19.046875 15.91796875 C-17.69466042 14.60962372 -16.33278238 13.31118461 -14.9609375 12.0234375 C-12.24595348 9.22192013 -10.26180496 6.09953153 -8.2265625 2.78515625 C-6.04443556 -0.39074188 -3.6540972 -0.50987403 0 0 Z " fill="#F8D4A5" transform="translate(331,270)"/>
<path d="M0 0 C0.02746229 1.68740514 0.04660111 3.3749463 0.0625 5.0625 C0.07410156 6.00222656 0.08570313 6.94195312 0.09765625 7.91015625 C-0.19620022 17.20777494 -0.19620022 17.20777494 -3.44140625 20.40625 C-4.47136719 21.0971875 -5.50132812 21.788125 -6.5625 22.5 C-7.66671315 23.27542692 -8.76957696 24.05277881 -9.87109375 24.83203125 C-10.90363281 25.54746094 -11.93617188 26.26289063 -13 27 C-27.86323761 37.94498517 -38.69768068 57.65273022 -41.69824219 75.63183594 C-44.233799 95.5306232 -41.29183325 112.30590783 -29.109375 128.515625 C-20.95525668 138.36096786 -9.61461166 144.91386287 2 150 C2.78890625 150.34546875 3.5778125 150.6909375 4.390625 151.046875 C8.79018574 152.80130106 12.9421505 154.04446462 17.640625 154.64453125 C30.2760081 156.38976352 30.2760081 156.38976352 33.62060547 159.51367188 C36.50774529 163.34361544 38.3107494 167.53635107 40 172 C40.33 172.66 40.66 173.32 41 174 C13.34113179 173.63650233 -15.66964912 164.4955721 -36.05859375 145.03515625 C-52.88196239 127.39939154 -58.67152841 108.34755808 -58.46875 84.29296875 C-57.772228 57.36078465 -44.99765325 34.59650824 -25.7421875 16.27734375 C-20.01906807 11.09010261 -13.58567935 6.99536447 -7 3 C-5.60974609 2.12408203 -5.60974609 2.12408203 -4.19140625 1.23046875 C-2 0 -2 0 0 0 Z " fill="#F1B261" transform="translate(277,236)"/>
<path d="M0 0 C1.56186035 0.10610596 1.56186035 0.10610596 3.15527344 0.21435547 C14.57660918 0.94441947 25.95688801 1.15607685 37.39990234 1.13037109 C40.28878841 1.1249269 43.17752436 1.13039947 46.06640625 1.13671875 C47.92447951 1.13605919 49.78255267 1.13478058 51.640625 1.1328125 C52.92033173 1.13584885 52.92033173 1.13584885 54.22589111 1.13894653 C58.6041482 1.12174565 62.6844609 0.83438121 67 0 C68.62394748 -0.0620775 70.25005297 -0.08712041 71.875 -0.0625 C73.04675781 -0.04896484 73.04675781 -0.04896484 74.2421875 -0.03515625 C74.82226562 -0.02355469 75.40234375 -0.01195312 76 0 C76.84859252 7.80705118 73.32307844 13.39522311 69.1875 19.8125 C60.37162576 28.62837424 50.66587739 29.36197718 38.75 29.375 C37.58597656 29.39949219 36.42195313 29.42398437 35.22265625 29.44921875 C25.33666158 29.48243038 15.87940122 27.8185098 8.49609375 20.75390625 C3.17927593 14.5208744 1.20306807 7.97698851 0 0 Z " fill="#E68A96" transform="translate(290,482)"/>
<path d="M0 0 C17.17974015 6.05924445 29.51842266 19.95764606 37.31518555 35.92895508 C40.70496635 43.20193835 44 50.89288613 44 59 C38.61509359 59.91657981 33.45769811 60.11138159 28 60 C27.62875 58.96875 27.2575 57.9375 26.875 56.875 C26.25639709 55.24755401 25.6302361 53.62297642 25 52 C24.36191406 50.35064453 24.36191406 50.35064453 23.7109375 48.66796875 C20.66939768 41.16170871 17.42508883 35.01713639 12 29 C11.51402344 28.39929688 11.02804688 27.79859375 10.52734375 27.1796875 C6.2393594 22.28853399 1.03035642 19.69486211 -4.84570312 17.10327148 C-8.58981878 15.32101541 -9.87300522 14.2979493 -11.5234375 10.42578125 C-12 7 -12 7 -10.8125 4.1875 C-7.46683917 0.14963348 -5.07346502 -0.44416278 0 0 Z " fill="#E1AC9A" transform="translate(103,1)"/>
<path d="M0 0 C2.4375 2.125 2.4375 2.125 4 5 C4 9.93192422 2.48247067 13.4669889 0.03515625 17.6171875 C-3.11683666 24.87271835 -3.26605278 32.2666216 -3.125 40.0625 C-3.11597656 41.02349609 -3.10695312 41.98449219 -3.09765625 42.97460938 C-3.07435208 45.31667805 -3.04164058 47.65819792 -3 50 C-6.8473982 50.71645099 -10.46284173 51.115367 -14.375 51.0625 C-15.68597656 51.04896484 -15.68597656 51.04896484 -17.0234375 51.03515625 C-17.67570313 51.02355469 -18.32796875 51.01195312 -19 51 C-22.91180516 35.88907524 -20.27939101 18.71842668 -13.28125 5.05859375 C-9.86282397 -0.43381637 -6.33552405 -1.81014973 0 0 Z " fill="#E1AC9A" transform="translate(177,7)"/>
</svg>
