<?xml version="1.0" encoding="UTF-8"?>
<svg id="Ebene_2" xmlns="http://www.w3.org/2000/svg" viewBox="0 0 328.91 460.38">
  <defs>
    <style>
      .cls-1 {
        fill: #f7d509;
      }

      .cls-2 {
        fill: #4b4b4a;
      }

      .cls-3 {
        fill: #fdfefe;
      }
    </style>
  </defs>
  <g id="Layer_1">
    <g>
      <path class="cls-2" d="M328.9,229.54c0,67.51,0,135.02,0,202.52,0,24.99-2.93,27.85-28.33,27.89-91.6.14-183.2.31-274.79.43-22.54.03-25.76-3.2-25.76-25.72C0,298.53,0,162.4.01,26.28.02,3.56,3.63-.02,26.67,0c92.71.08,185.42.19,278.14.35,19.53.03,24.09,4.73,24.09,24.44.01,68.25,0,136.5,0,204.75ZM229.42,148.45c.26-13.81-4.62-24.71-13.44-33.94-8.34-8.72-9.63-8.33-15.82,1.83-13.08,21.44-24.15,44.05-38.49,64.81-5.57,8.07-8.5,18.12-5.17,28.61,2.18,6.85-3.79,23.39-9.68,27.23-.84.55-2.05,1.11-2.94.93-5.01-1.03-15.13-23.82-12.07-28.4,5.94-8.87,5.11-17.69.35-26.15-11.79-21-24.06-41.72-36.21-62.51-1.9-3.26-4.22-6.8-8.73-4.17-4.31,2.51-2.45,6.13-1.19,9.77,2.91,8.39,6.83,16.29,11.36,23.87,1.89,3.16,5.67,6.3.42,8.91-5.18,2.57-5.24-2.63-7.01-5.67-4.57-7.83-9.64-15.37-14.64-22.94-1.94-2.94-4.6-5.46-8.24-2.99-1.7,1.16-5.84,1.48-4.03,5.23,1.42,2.93,1.04,6.6,4.06,8.87,6.47,4.88,6.39,13.72,11.58,19.6,1.75,1.98,2.53,7.03-.69,8.96-3.09,1.86-5.41-1.83-6.89-4.09-4.83-7.36-9.2-15.02-13.81-22.52-2.19-3.57-4.75-7.54-9.6-4.72-5.04,2.94-2.3,6.94-.25,10.54,11.56,20.28,22.96,40.65,34.74,60.8,4.69,8.03,11.79,14.21,21.35,14.08,8.43-.11,11.52,4.53,14.78,10.68,18.71,35.36,37.55,70.66,56.47,105.92,5.92,11.04,13.55,14.32,21.09,9.56,7.68-4.85,8.33-12.67,1.72-23.34-9.76-15.76-18.62-32.19-29.71-46.95-10.57-14.07-11.94-26.3-1.07-40.59,5.25-6.9,7.33-15.82,18.66-16.34,5.96-.27,10.2-5.63,13.27-10.96,8.15-14.12,16.32-28.23,24.39-42.4,3.94-6.92,5.74-14.43,5.45-21.54ZM286.28,229.93c0,65.59-.04,131.17.09,196.76,0,4-2.24,9.66,4.22,11.06,6.14,1.33,10.7-1.69,14.1-6.7,2.7-3.98,2.17-8.51,2.17-12.92.02-124.88.02-249.75.02-374.63,0-2.59.24-5.25-.2-7.77-1.48-8.34-6.51-13.75-15.05-13.32-9.31.47-5.1,8.55-5.12,12.98-.32,64.84-.22,129.69-.22,194.54ZM86.34,338.67c.17,7.39,3.6,11.45,9.5,13.17,7.07,2.05,12.44-1.02,15.87-7.06,5.85-10.31,10.59-21.31,17.12-31.14,6.84-10.31,6.44-19.05-.4-29.12-4.21-6.2-5.96-8.63-10.65-.61-8.78,15.02-18.29,29.62-27.48,44.41-2.16,3.47-4.37,6.94-3.95,10.36Z"/>
      <path class="cls-1" d="M229.42,148.45c.29,7.11-1.51,14.62-5.45,21.54-8.07,14.17-16.24,28.27-24.39,42.4-3.07,5.33-7.31,10.68-13.27,10.96-11.33.52-13.41,9.44-18.66,16.34-10.86,14.29-9.5,26.51,1.07,40.59,11.09,14.76,19.96,31.2,29.71,46.95,6.61,10.67,5.96,18.49-1.72,23.34-7.54,4.76-15.16,1.48-21.09-9.56-18.91-35.26-37.75-70.56-56.47-105.92-3.26-6.16-6.34-10.79-14.78-10.68-9.57.12-16.66-6.06-21.35-14.08-11.78-20.15-23.18-40.52-34.74-60.8-2.05-3.6-4.78-7.6.25-10.54,4.84-2.82,7.4,1.15,9.6,4.72,4.61,7.51,8.98,15.16,13.81,22.52,1.48,2.26,3.8,5.95,6.89,4.09,3.22-1.93,2.44-6.98.69-8.96-5.2-5.88-5.11-14.71-11.58-19.6-3.01-2.27-2.64-5.95-4.06-8.87-1.81-3.75,2.32-4.07,4.03-5.23,3.65-2.48,6.3.05,8.24,2.99,5,7.57,10.07,15.11,14.64,22.94,1.77,3.04,1.83,8.24,7.01,5.67,5.26-2.61,1.47-5.75-.42-8.91-4.53-7.58-8.45-15.48-11.36-23.87-1.26-3.64-3.12-7.26,1.19-9.77,4.51-2.63,6.82.91,8.73,4.17,12.15,20.79,24.43,41.51,36.21,62.51,4.75,8.46,5.59,17.28-.35,26.15-3.06,4.57,7.05,27.37,12.07,28.4.89.18,2.09-.38,2.94-.93,5.89-3.84,11.85-20.38,9.68-27.23-3.33-10.49-.4-20.54,5.17-28.61,14.34-20.76,25.41-43.36,38.49-64.81,6.19-10.15,7.49-10.55,15.82-1.83,8.82,9.22,13.7,20.12,13.44,33.94Z"/>
      <path class="cls-3" d="M286.28,229.93c0-64.85-.1-129.69.22-194.54.02-4.42-4.2-12.51,5.12-12.98,8.55-.43,13.57,4.98,15.05,13.32.45,2.52.2,5.18.2,7.77,0,124.88,0,249.75-.02,374.63,0,4.41.53,8.94-2.17,12.92-3.4,5.01-7.96,8.03-14.1,6.7-6.46-1.4-4.21-7.06-4.22-11.06-.13-65.59-.09-131.17-.09-196.76Z"/>
      <path class="cls-1" d="M86.34,338.67c-.42-3.41,1.79-6.88,3.95-10.36,9.19-14.79,18.69-29.39,27.48-44.41,4.69-8.02,6.44-5.59,10.65.61,6.84,10.08,7.23,18.82.4,29.12-6.52,9.84-11.27,20.84-17.12,31.14-3.43,6.04-8.8,9.11-15.87,7.06-5.9-1.71-9.33-5.78-9.5-13.17Z"/>
    </g>
  </g>
</svg>